<svg width="354" height="355" viewBox="0 0 354 355" fill="none" xmlns="http://www.w3.org/2000/svg">
<g filter="url(#filter0_f_1301_332088)">
<ellipse cx="176.87" cy="257.934" rx="168.237" ry="18.0563" fill="url(#paint0_radial_1301_332088)" fill-opacity="0.5"/>
</g>
<ellipse cx="168.518" cy="236.148" rx="164.518" ry="118.368" fill="url(#paint1_radial_1301_332088)" fill-opacity="0.1"/>
<path d="M78.0278 250.139L78.2898 253.301L79.1371 255.269L78.0278 250.139ZM274.855 252.111L274.596 255.269L275.443 253.301L274.855 252.111ZM78.8772 252.111L79.1371 255.269L81.7108 257.16L78.8772 252.111ZM272.275 254.005L272.022 257.16L274.596 255.269L272.275 254.005ZM275.705 250.139L274.855 252.111L275.443 253.301L275.705 250.139ZM81.4576 254.005L81.7108 257.16L85.8961 258.954L81.4576 254.005ZM78.8772 252.111L78.0278 250.139L79.1371 255.269L78.8772 252.111ZM268.079 255.803L267.837 258.954L272.022 257.16L268.079 255.803ZM274.855 252.111L272.275 254.005L274.596 255.269L274.855 252.111ZM85.6539 255.803L85.8961 258.954L91.5777 260.635L85.6539 255.803ZM81.4576 254.005L78.8772 252.111L81.7108 257.16L81.4576 254.005ZM262.382 257.486L262.155 260.635L267.837 258.954L262.382 257.486ZM272.275 254.005L268.079 255.803L272.022 257.16L272.275 254.005ZM91.3506 257.486L91.5777 260.635L98.64 262.184L91.3506 257.486ZM85.6539 255.803L81.4576 254.005L85.8961 258.954L85.6539 255.803ZM255.301 259.038L255.093 262.184L262.155 260.635L255.301 259.038ZM98.4316 259.038L98.64 262.184L106.966 263.584L98.4316 259.038ZM268.079 255.803L262.382 257.486L267.837 258.954L268.079 255.803ZM246.953 260.441L246.766 263.584L255.093 262.184L246.953 260.441ZM91.3506 257.486L85.6539 255.803L91.5777 260.635L91.3506 257.486ZM77.7644 246.96L78.0278 250.139L78.8772 252.111L77.7644 246.96ZM106.78 260.441L106.966 263.584L116.44 264.817L106.78 260.441ZM275.117 248.936L274.855 252.111L275.705 250.139L275.117 248.936ZM262.382 257.486L255.301 259.038L262.155 260.635L262.382 257.486ZM237.454 261.676L237.293 264.817L246.766 263.584L237.454 261.676ZM98.4316 259.038L91.3506 257.486L98.64 262.184L98.4316 259.038ZM116.278 261.676L116.44 264.817L126.942 265.866L116.278 261.676ZM226.924 262.727L226.791 265.866L237.293 264.817L226.924 262.727ZM78.616 248.936L78.8772 252.111L81.4576 254.005L78.616 248.936ZM255.301 259.038L246.953 260.441L255.093 262.184L255.301 259.038ZM126.809 262.727L126.942 265.866L138.355 266.712L126.809 262.727ZM272.53 250.834L272.275 254.005L274.855 252.111L272.53 250.834ZM106.78 260.441L98.4316 259.038L106.966 263.584L106.78 260.441ZM215.48 263.575L215.377 266.712L226.791 265.866L215.48 263.575ZM138.253 263.575L138.355 266.712L150.56 267.338L138.253 263.575ZM275.968 246.96L275.117 248.936L275.705 250.139L275.968 246.96ZM203.243 264.202L203.172 267.338L215.377 266.712L203.243 264.202ZM246.953 260.441L237.454 261.676L246.766 263.584L246.953 260.441ZM150.49 264.202L150.56 267.338L163.437 267.727L150.49 264.202ZM81.2031 250.834L81.4576 254.005L85.6539 255.803L81.2031 250.834ZM190.331 264.591L190.295 267.727L203.172 267.338L190.331 264.591ZM78.616 248.936L77.7644 246.96L78.8772 252.111L78.616 248.936ZM116.278 261.676L106.78 260.441L116.44 264.817L116.278 261.676ZM163.402 264.591L163.437 267.727L176.866 267.86L163.402 264.591ZM176.866 264.725V267.86L190.295 267.727L176.866 264.725ZM268.322 252.634L268.079 255.803L272.275 254.005L268.322 252.634ZM237.454 261.676L226.924 262.727L237.293 264.817L237.454 261.676ZM126.809 262.727L116.278 261.676L126.942 265.866L126.809 262.727ZM275.117 248.936L272.53 250.834L274.855 252.111L275.117 248.936ZM85.4105 252.634L85.6539 255.803L91.3506 257.486L85.4105 252.634ZM226.924 262.727L215.48 263.575L226.791 265.866L226.924 262.727ZM81.2031 250.834L78.616 248.936L81.4576 254.005L81.2031 250.834ZM138.253 263.575L126.809 262.727L138.355 266.712L138.253 263.575ZM262.61 254.321L262.382 257.486L268.079 255.803L262.61 254.321ZM215.48 263.575L203.243 264.202L215.377 266.712L215.48 263.575ZM150.49 264.202L138.253 263.575L150.56 267.338L150.49 264.202ZM203.243 264.202L190.331 264.591L203.172 267.338L203.243 264.202ZM272.53 250.834L268.322 252.634L272.275 254.005L272.53 250.834ZM163.402 264.591L150.49 264.202L163.437 267.727L163.402 264.591ZM91.1223 254.321L91.3506 257.486L98.4316 259.038L91.1223 254.321ZM190.331 264.591L176.866 264.725L190.295 267.727L190.331 264.591ZM176.866 264.725L163.402 264.591L176.866 267.86V264.725ZM85.4105 252.634L81.2031 250.834L85.6539 255.803L85.4105 252.634ZM255.511 255.876L255.301 259.038L262.382 257.486L255.511 255.876ZM98.222 255.876L98.4316 259.038L106.78 260.441L98.222 255.876ZM268.322 252.634L262.61 254.321L268.079 255.803L268.322 252.634ZM247.14 257.281L246.953 260.441L255.301 259.038L247.14 257.281ZM91.1223 254.321L85.4105 252.634L91.3506 257.486L91.1223 254.321ZM77.4996 243.765L77.7644 246.96L78.616 248.936L77.4996 243.765ZM106.593 257.281L106.78 260.441L116.278 261.676L106.593 257.281ZM275.379 245.744L275.117 248.936L275.968 246.96L275.379 245.744ZM262.61 254.321L255.511 255.876L262.382 257.486L262.61 254.321ZM237.616 258.519L237.454 261.676L246.953 260.441L237.616 258.519ZM98.222 255.876L91.1223 254.321L98.4316 259.038L98.222 255.876ZM116.116 258.519L116.278 261.676L126.809 262.727L116.116 258.519ZM227.058 259.571L226.924 262.727L237.454 261.676L227.058 259.571ZM78.3533 245.744L78.616 248.936L81.2031 250.834L78.3533 245.744ZM255.511 255.876L247.14 257.281L255.301 259.038L255.511 255.876ZM126.675 259.571L126.809 262.727L138.253 263.575L126.675 259.571ZM272.786 247.645L272.53 250.834L275.117 248.936L272.786 247.645ZM106.593 257.281L98.222 255.876L106.78 260.441L106.593 257.281ZM215.583 260.42L215.48 263.575L226.924 262.727L215.583 260.42ZM138.149 260.42L138.253 263.575L150.49 264.202L138.149 260.42ZM276.233 243.765L275.379 245.744L275.968 246.96L276.233 243.765ZM203.313 261.049L203.243 264.202L215.48 263.575L203.313 261.049ZM247.14 257.281L237.616 258.519L246.953 260.441L247.14 257.281ZM150.42 261.049L150.49 264.202L163.402 264.591L150.42 261.049ZM80.9472 247.645L81.2031 250.834L85.4105 252.634L80.9472 247.645ZM190.367 261.439L190.331 264.591L203.243 264.202L190.367 261.439ZM78.3533 245.744L77.4996 243.765L78.616 248.936L78.3533 245.744ZM116.116 258.519L106.593 257.281L116.278 261.676L116.116 258.519ZM163.366 261.439L163.402 264.591L176.866 264.725L163.366 261.439ZM176.866 261.573V264.725L190.331 264.591L176.866 261.573ZM268.567 249.449L268.322 252.634L272.53 250.834L268.567 249.449ZM237.616 258.519L227.058 259.571L237.454 261.676L237.616 258.519ZM126.675 259.571L116.116 258.519L126.809 262.727L126.675 259.571ZM275.379 245.744L272.786 247.645L275.117 248.936L275.379 245.744ZM85.1657 249.449L85.4105 252.634L91.1223 254.321L85.1657 249.449ZM227.058 259.571L215.583 260.42L226.924 262.727L227.058 259.571ZM80.9472 247.645L78.3533 245.744L81.2031 250.834L80.9472 247.645ZM138.149 260.42L126.675 259.571L138.253 263.575L138.149 260.42ZM262.84 251.139L262.61 254.321L268.322 252.634L262.84 251.139ZM215.583 260.42L203.313 261.049L215.48 263.575L215.583 260.42ZM150.42 261.049L138.149 260.42L150.49 264.202L150.42 261.049ZM203.313 261.049L190.367 261.439L203.243 264.202L203.313 261.049ZM272.786 247.645L268.567 249.449L272.53 250.834L272.786 247.645ZM163.366 261.439L150.42 261.049L163.402 264.591L163.366 261.439ZM90.8927 251.139L91.1223 254.321L98.222 255.876L90.8927 251.139ZM190.367 261.439L176.866 261.573L190.331 264.591L190.367 261.439ZM176.866 261.573L163.366 261.439L176.866 264.725V261.573ZM85.1657 249.449L80.9472 247.645L85.4105 252.634L85.1657 249.449ZM255.721 252.696L255.511 255.876L262.61 254.321L255.721 252.696ZM98.0114 252.696L98.222 255.876L106.593 257.281L98.0114 252.696ZM268.567 249.449L262.84 251.139L268.322 252.634L268.567 249.449ZM247.328 254.104L247.14 257.281L255.511 255.876L247.328 254.104ZM90.8927 251.139L85.1657 249.449L91.1223 254.321L90.8927 251.139ZM77.2334 240.552L77.4996 243.765L78.3533 245.744L77.2334 240.552ZM106.404 254.104L106.593 257.281L116.116 258.519L106.404 254.104ZM275.643 242.535L275.379 245.744L276.233 243.765L275.643 242.535ZM262.84 251.139L255.721 252.696L262.61 254.321L262.84 251.139ZM237.779 255.344L237.616 258.519L247.14 257.281L237.779 255.344ZM98.0114 252.696L90.8927 251.139L98.222 255.876L98.0114 252.696ZM115.954 255.344L116.116 258.519L126.675 259.571L115.954 255.344ZM227.192 256.398L227.058 259.571L237.616 258.519L227.192 256.398ZM78.0892 242.535L78.3533 245.744L80.9472 247.645L78.0892 242.535ZM255.721 252.696L247.328 254.104L255.511 255.876L255.721 252.696ZM126.54 256.398L126.675 259.571L138.149 260.42L126.54 256.398ZM273.043 244.439L272.786 247.645L275.379 245.744L273.043 244.439ZM106.404 254.104L98.0114 252.696L106.593 257.281L106.404 254.104ZM215.687 257.249L215.583 260.42L227.058 259.571L215.687 257.249ZM138.045 257.249L138.149 260.42L150.42 261.049L138.045 257.249ZM276.499 240.552L275.643 242.535L276.233 243.765L276.499 240.552ZM203.384 257.879L203.313 261.049L215.583 260.42L203.384 257.879ZM247.328 254.104L237.779 255.344L247.14 257.281L247.328 254.104ZM150.349 257.879L150.42 261.049L163.366 261.439L150.349 257.879ZM80.6899 244.439L80.9472 247.645L85.1657 249.449L80.6899 244.439ZM190.403 258.27L190.367 261.439L203.313 261.049L190.403 258.27ZM78.0892 242.535L77.2334 240.552L78.3533 245.744L78.0892 242.535ZM115.954 255.344L106.404 254.104L116.116 258.519L115.954 255.344ZM163.329 258.27L163.366 261.439L176.866 261.573L163.329 258.27ZM176.866 258.404V261.573L190.367 261.439L176.866 258.404ZM268.813 246.247L268.567 249.449L272.786 247.645L268.813 246.247ZM237.779 255.344L227.192 256.398L237.616 258.519L237.779 255.344ZM126.54 256.398L115.954 255.344L126.675 259.571L126.54 256.398ZM275.643 242.535L273.043 244.439L275.379 245.744L275.643 242.535ZM84.9197 246.247L85.1657 249.449L90.8927 251.139L84.9197 246.247ZM227.192 256.398L215.687 257.249L227.058 259.571L227.192 256.398ZM80.6899 244.439L78.0892 242.535L80.9472 247.645L80.6899 244.439ZM138.045 257.249L126.54 256.398L138.149 260.42L138.045 257.249ZM263.071 247.939L262.84 251.139L268.567 249.449L263.071 247.939ZM215.687 257.249L203.384 257.879L215.583 260.42L215.687 257.249ZM150.349 257.879L138.045 257.249L150.42 261.049L150.349 257.879ZM203.384 257.879L190.403 258.27L203.313 261.049L203.384 257.879ZM273.043 244.439L268.813 246.247L272.786 247.645L273.043 244.439ZM163.329 258.27L150.349 257.879L163.366 261.439L163.329 258.27ZM90.6619 247.939L90.8927 251.139L98.0114 252.696L90.6619 247.939ZM190.403 258.27L176.866 258.404L190.367 261.439L190.403 258.27ZM176.866 258.404L163.329 258.27L176.866 261.573V258.404ZM84.9197 246.247L80.6899 244.439L85.1657 249.449L84.9197 246.247ZM255.933 249.5L255.721 252.696L262.84 251.139L255.933 249.5ZM97.7996 249.5L98.0114 252.696L106.404 254.104L97.7996 249.5ZM268.813 246.247L263.071 247.939L268.567 249.449L268.813 246.247ZM247.518 250.91L247.328 254.104L255.721 252.696L247.518 250.91ZM90.6619 247.939L84.9197 246.247L90.8927 251.139L90.6619 247.939ZM76.9657 237.322L77.2334 240.552L78.0892 242.535L76.9657 237.322ZM106.215 250.91L106.404 254.104L115.954 255.344L106.215 250.91ZM275.909 239.309L275.643 242.535L276.499 240.552L275.909 239.309ZM263.071 247.939L255.933 249.5L262.84 251.139L263.071 247.939ZM237.943 252.152L237.779 255.344L247.328 254.104L237.943 252.152ZM97.7996 249.5L90.6619 247.939L98.0114 252.696L97.7996 249.5ZM115.79 252.152L115.954 255.344L126.54 256.398L115.79 252.152ZM227.328 253.208L227.192 256.398L237.779 255.344L227.328 253.208ZM77.8237 239.309L78.0892 242.535L80.6899 244.439L77.8237 239.309ZM255.933 249.5L247.518 250.91L255.721 252.696L255.933 249.5ZM126.405 253.208L126.54 256.398L138.045 257.249L126.405 253.208ZM273.301 241.217L273.043 244.439L275.643 242.535L273.301 241.217ZM106.215 250.91L97.7996 249.5L106.404 254.104L106.215 250.91ZM215.792 254.061L215.687 257.249L227.192 256.398L215.792 254.061ZM137.941 254.061L138.045 257.249L150.349 257.879L137.941 254.061ZM276.767 237.322L275.909 239.309L276.499 240.552L276.767 237.322ZM203.455 254.692L203.384 257.879L215.687 257.249L203.455 254.692ZM247.518 250.91L237.943 252.152L247.328 254.104L247.518 250.91ZM150.277 254.692L150.349 257.879L163.329 258.27L150.277 254.692ZM80.4313 241.217L80.6899 244.439L84.9197 246.247L80.4313 241.217ZM190.44 255.083L190.403 258.27L203.384 257.879L190.44 255.083ZM77.8237 239.309L76.9657 237.322L78.0892 242.535L77.8237 239.309ZM115.79 252.152L106.215 250.91L115.954 255.344L115.79 252.152ZM163.293 255.083L163.329 258.27L176.866 258.404L163.293 255.083ZM176.866 255.218V258.404L190.403 258.27L176.866 255.218ZM269.06 243.027L268.813 246.247L273.043 244.439L269.06 243.027ZM237.943 252.152L227.328 253.208L237.779 255.344L237.943 252.152ZM126.405 253.208L115.79 252.152L126.54 256.398L126.405 253.208ZM275.909 239.309L273.301 241.217L275.643 242.535L275.909 239.309ZM84.6723 243.027L84.9197 246.247L90.6619 247.939L84.6723 243.027ZM227.328 253.208L215.792 254.061L227.192 256.398L227.328 253.208ZM80.4313 241.217L77.8237 239.309L80.6899 244.439L80.4313 241.217ZM137.941 254.061L126.405 253.208L138.045 257.249L137.941 254.061ZM263.303 244.723L263.071 247.939L268.813 246.247L263.303 244.723ZM215.792 254.061L203.455 254.692L215.687 257.249L215.792 254.061ZM150.277 254.692L137.941 254.061L150.349 257.879L150.277 254.692ZM203.455 254.692L190.44 255.083L203.384 257.879L203.455 254.692ZM273.301 241.217L269.06 243.027L273.043 244.439L273.301 241.217ZM163.293 255.083L150.277 254.692L163.329 258.27L163.293 255.083ZM90.4299 244.723L90.6619 247.939L97.7996 249.5L90.4299 244.723ZM190.44 255.083L176.866 255.218L190.403 258.27L190.44 255.083ZM176.866 255.218L163.293 255.083L176.866 258.404V255.218ZM84.6723 243.027L80.4313 241.217L84.9197 246.247L84.6723 243.027ZM256.146 246.286L255.933 249.5L263.071 247.939L256.146 246.286ZM97.5867 246.286L97.7996 249.5L106.215 250.91L97.5867 246.286ZM269.06 243.027L263.303 244.723L268.813 246.247L269.06 243.027ZM247.708 247.699L247.518 250.91L255.933 249.5L247.708 247.699ZM90.4299 244.723L84.6723 243.027L90.6619 247.939L90.4299 244.723ZM76.6967 234.075L76.9657 237.322L77.8237 239.309L76.6967 234.075ZM106.025 247.699L106.215 250.91L115.79 252.152L106.025 247.699ZM276.176 236.065L275.909 239.309L276.767 237.322L276.176 236.065ZM263.303 244.723L256.146 246.286L263.071 247.939L263.303 244.723ZM238.107 248.943L237.943 252.152L247.518 250.91L238.107 248.943Z" fill="#B0B0B0"/>
<path d="M190.438 216.317L176.863 216.184L163.288 216.317H190.438Z" fill="#C4C4C4"/>
<path d="M97.5842 246.286L90.4274 244.723L97.7971 249.5L97.5842 246.286Z" fill="#B0B0B0"/>
<path d="M215.814 217.33L190.438 216.317H163.288L215.814 217.33Z" fill="#C4C4C4"/>
<path d="M115.621 248.944L115.785 252.153L126.401 253.209L115.621 248.944Z" fill="#B0B0B0"/>
<path d="M163.29 216.317L150.267 216.705L137.914 217.33L163.29 216.317ZM215.816 217.33L203.462 216.705L190.44 216.317L215.816 217.33Z" fill="#C4C4C4"/>
<path d="M227.461 250.001L227.325 253.208L237.94 252.152L227.461 250.001ZM77.5543 236.065L77.8212 239.309L80.4288 241.217L77.5543 236.065ZM256.144 246.286L247.706 247.699L255.931 249.5L256.144 246.286Z" fill="#B0B0B0"/>
<path d="M163.289 216.317L137.913 217.33L115.684 219.222L163.289 216.317ZM215.815 217.33L163.289 216.317L115.684 219.222L215.815 217.33Z" fill="#C4C4C4"/>
<path d="M126.264 250.002L126.4 253.209L137.936 254.062L126.264 250.002ZM273.556 237.977L273.296 241.217L275.904 239.31L273.556 237.977ZM106.019 247.7L97.5814 246.287L106.21 250.911L106.019 247.7ZM215.891 250.856L215.786 254.062L227.322 253.209L215.891 250.856Z" fill="#B0B0B0"/>
<path d="M137.913 217.329L126.346 218.174L115.684 219.222L137.913 217.329ZM238.045 219.222L227.382 218.174L215.815 217.329L238.045 219.222Z" fill="#C4C4C4"/>
<path d="M137.836 250.855L137.941 254.061L150.277 254.692L137.836 250.855ZM277.036 234.075L276.176 236.065L276.767 237.322L277.036 234.075ZM203.527 251.487L203.455 254.692L215.792 254.061L203.527 251.487ZM247.708 247.699L238.107 248.943L247.518 250.91L247.708 247.699ZM150.206 251.487L150.277 254.692L163.293 255.083L150.206 251.487ZM80.1713 237.976L80.4313 241.217L84.6723 243.027L80.1713 237.976ZM190.476 251.88L190.44 255.083L203.455 254.692L190.476 251.88ZM77.5568 236.065L76.6967 234.075L77.8237 239.309L77.5568 236.065ZM115.625 248.943L106.025 247.699L115.79 252.152L115.625 248.943ZM163.256 251.88L163.293 255.083L176.866 255.218L163.256 251.88ZM176.866 252.014V255.218L190.44 255.083L176.866 252.014Z" fill="#B0B0B0"/>
<path d="M256.177 221.859L238.041 219.222L215.812 217.329L256.177 221.859Z" fill="#C4C4C4"/>
<path d="M269.305 239.79L269.056 243.027L273.297 241.217L269.305 239.79ZM238.103 248.943L227.459 250.001L237.938 252.152L238.103 248.943ZM126.265 250.001L115.621 248.943L126.401 253.208L126.265 250.001ZM276.171 236.065L273.557 237.976L275.905 239.309L276.171 236.065Z" fill="#B0B0B0"/>
<path d="M115.683 219.222L106.044 220.456L97.5471 221.858L115.683 219.222ZM256.18 221.858L247.683 220.456L238.044 219.222L256.18 221.858Z" fill="#C4C4C4"/>
<path d="M84.4211 239.79L84.6698 243.027L90.4274 244.723L84.4211 239.79ZM227.461 250.001L215.894 250.855L227.325 253.208L227.461 250.001ZM80.1688 237.976L77.5543 236.065L80.4288 241.217L80.1688 237.976ZM137.834 250.855L126.267 250.001L137.939 254.061L137.834 250.855ZM263.534 241.489L263.3 244.723L269.058 243.027L263.534 241.489ZM215.894 250.855L203.525 251.487L215.789 254.061L215.894 250.855Z" fill="#B0B0B0"/>
<path d="M276.333 228.819L215.815 217.329L115.684 219.222L276.333 228.819Z" fill="#C4C4C4"/>
<path d="M150.205 251.487L137.836 250.855L150.277 254.692L150.205 251.487Z" fill="#B0B0B0"/>
<path d="M115.684 219.222L97.5479 221.858L84.4625 225.103L115.684 219.222Z" fill="#C4C4C4"/>
<path d="M203.525 251.488L190.475 251.88L203.454 254.692L203.525 251.488ZM273.56 237.977L269.307 239.791L273.3 241.217L273.56 237.977ZM163.255 251.88L150.204 251.488L163.291 255.084L163.255 251.88ZM90.1948 241.49L90.4281 244.724L97.5849 246.287L90.1948 241.49ZM190.475 251.88L176.865 252.015L190.438 255.084L190.475 251.88ZM176.865 252.015L163.255 251.88L176.865 255.218V252.015Z" fill="#B0B0B0"/>
<path d="M276.33 228.819L256.177 221.859L215.812 217.329L276.33 228.819Z" fill="#C4C4C4"/>
<path d="M84.4177 239.791L80.1654 237.977L84.6664 243.028L84.4177 239.791ZM256.354 243.056L256.14 246.287L263.297 244.724L256.354 243.056Z" fill="#B0B0B0"/>
<path d="M97.5479 221.859L90.3136 223.414L84.4625 225.103L97.5479 221.859ZM269.266 225.103L263.415 223.414L256.181 221.859L269.266 225.103Z" fill="#C4C4C4"/>
<path d="M97.3707 243.055L97.5848 246.286L106.023 247.699L97.3707 243.055ZM269.307 239.79L263.534 241.489L269.059 243.027L269.307 239.79ZM247.897 244.471L247.706 247.699L256.144 246.286L247.897 244.471ZM90.1946 241.489L84.4216 239.79L90.4279 244.723L90.1946 241.489ZM76.4242 230.811L76.6947 234.075L77.5549 236.066L76.4242 230.811ZM105.831 244.471L106.023 247.699L115.623 248.943L105.831 244.471Z" fill="#B0B0B0"/>
<path d="M276.331 228.819L269.264 225.103L256.179 221.859L276.331 228.819Z" fill="#C4C4C4"/>
<path d="M276.442 232.804L276.173 236.065L277.034 234.075L276.442 232.804ZM263.534 241.489L256.358 243.055L263.3 244.723L263.534 241.489ZM238.27 245.717L238.105 248.943L247.705 247.699L238.27 245.717Z" fill="#B0B0B0"/>
<path d="M115.68 219.222L84.4586 225.103L77.2826 232.804L115.68 219.222Z" fill="#C4C4C4"/>
<path d="M97.3668 243.055L90.1907 241.489L97.5808 246.286L97.3668 243.055ZM115.454 245.717L115.619 248.943L126.263 250.001L115.454 245.717ZM227.595 246.777L227.458 250.001L238.102 248.943L227.595 246.777ZM77.2826 232.804L77.551 236.065L80.1654 237.976L77.2826 232.804Z" fill="#B0B0B0"/>
<path d="M84.4611 225.103L80.1144 226.911L77.3942 228.819L84.4611 225.103ZM276.332 228.819L273.612 226.911L269.265 225.103L276.332 228.819Z" fill="#C4C4C4"/>
<path d="M256.358 243.055L247.897 244.471L256.144 246.286L256.358 243.055ZM126.13 246.777L126.267 250.002L137.834 250.856L126.13 246.777ZM273.821 234.719L273.56 237.976L276.174 236.066L273.821 234.719ZM105.831 244.471L97.3707 243.055L106.023 247.699L105.831 244.471ZM216 247.633L215.895 250.856L227.462 250.002L216 247.633ZM137.729 247.633L137.834 250.856L150.204 251.488L137.729 247.633ZM277.305 230.811L276.442 232.804L277.034 234.075L277.305 230.811ZM203.597 248.266L203.525 251.488L215.895 250.856L203.597 248.266ZM247.897 244.471L238.271 245.717L247.706 247.699L247.897 244.471ZM150.132 248.266L150.204 251.488L163.254 251.88L150.132 248.266ZM79.9079 234.719L80.1694 237.976L84.4216 239.79L79.9079 234.719ZM190.511 248.659L190.475 251.88L203.525 251.488L190.511 248.659ZM77.2865 232.804L76.4242 230.811L77.5549 236.066L77.2865 232.804Z" fill="#B0B0B0"/>
<path d="M84.4586 225.103L77.3917 228.819L77.2826 232.804L84.4586 225.103Z" fill="#C4C4C4"/>
<path d="M115.454 245.717L105.828 244.47L115.619 248.943L115.454 245.717ZM163.214 248.659L163.25 251.88L176.861 252.014L163.214 248.659ZM176.861 248.794V252.014L190.471 251.88L176.861 248.794ZM269.553 236.536L269.303 239.79L273.556 237.976L269.553 236.536ZM238.267 245.717L227.595 246.777L238.102 248.943L238.267 245.717ZM126.126 246.777L115.454 245.717L126.263 250.001L126.126 246.777ZM276.438 232.804L273.817 234.719L276.17 236.065L276.438 232.804ZM84.1676 236.536L84.4177 239.79L90.1907 241.489L84.1676 236.536ZM227.595 246.777L215.996 247.633L227.458 250.001L227.595 246.777ZM79.904 234.719L77.2826 232.804L80.1654 237.976L79.904 234.719Z" fill="#B0B0B0"/>
<path d="M115.684 219.222L137.623 244.392L276.333 228.819L115.684 219.222ZM276.442 232.804L277.305 230.81L276.333 228.819L276.442 232.804ZM77.3956 228.819L76.4242 230.81L77.2865 232.804L77.3956 228.819Z" fill="#C4C4C4"/>
<path d="M137.731 247.633L126.133 246.778L137.837 250.856L137.731 247.633ZM263.771 238.238L263.537 241.49L269.31 239.791L263.771 238.238ZM216.003 247.633L203.6 248.266L215.897 250.856L216.003 247.633ZM150.134 248.266L137.731 247.633L150.206 251.488L150.134 248.266ZM203.6 248.266L190.514 248.659L203.528 251.488L203.6 248.266ZM273.823 234.719L269.56 236.536L273.562 237.977L273.823 234.719Z" fill="#B0B0B0"/>
<path d="M115.68 219.222L77.2826 232.804L137.619 244.392L115.68 219.222Z" fill="#C4C4C4"/>
<path d="M163.217 248.659L150.131 248.266L163.254 251.88L163.217 248.659ZM89.96 238.238L90.1946 241.49L97.3706 243.056L89.96 238.238ZM190.511 248.659L176.864 248.794L190.474 251.88L190.511 248.659ZM176.864 248.794L163.217 248.659L176.864 252.015V248.794ZM84.1715 236.536L79.9078 234.719L84.4216 239.791L84.1715 236.536Z" fill="#B0B0B0"/>
<path d="M269.559 236.536L276.444 232.804L276.335 228.819L269.559 236.536Z" fill="#C4C4C4"/>
<path d="M256.569 239.806L256.354 243.055L263.53 241.489L256.569 239.806ZM97.1513 239.806L97.3665 243.055L105.827 244.47L97.1513 239.806ZM269.553 236.536L263.765 238.238L269.303 239.79L269.553 236.536ZM248.086 241.224L247.893 244.47L256.354 243.055L248.086 241.224ZM89.9559 238.238L84.1674 236.536L90.1904 241.489L89.9559 238.238Z" fill="#B0B0B0"/>
<path d="M269.553 236.536L273.817 234.719L276.438 232.804L269.553 236.536ZM77.2826 232.804L79.904 234.719L84.1676 236.536L77.2826 232.804Z" fill="#C4C4C4"/>
<path d="M105.639 241.225L105.831 244.471L115.458 245.717L105.639 241.225ZM263.769 238.238L256.573 239.807L263.534 241.489L263.769 238.238ZM238.437 242.473L238.271 245.717L247.897 244.471L238.437 242.473Z" fill="#B0B0B0"/>
<path d="M238.433 242.473L269.553 236.536L276.329 228.819L238.433 242.473Z" fill="#C4C4C4"/>
<path d="M97.1558 239.807L89.9604 238.238L97.3711 243.055L97.1558 239.807ZM115.292 242.473L115.458 245.717L126.131 246.777L115.292 242.473Z" fill="#B0B0B0"/>
<path d="M77.2826 232.804L84.1676 236.536L97.1515 239.806L77.2826 232.804Z" fill="#C4C4C4"/>
<path d="M227.735 243.535L227.598 246.777L238.27 245.717L227.735 243.535ZM256.572 239.806L248.089 241.224L256.357 243.055L256.572 239.806ZM125.992 243.535L126.129 246.777L137.728 247.632L125.992 243.535ZM105.638 241.224L97.1545 239.806L105.831 244.47L105.638 241.224ZM216.105 244.392L215.999 247.632L227.598 246.777L216.105 244.392ZM137.622 244.392L137.728 247.632L150.131 248.265L137.622 244.392Z" fill="#B0B0B0"/>
<path d="M256.569 239.806L263.765 238.238L269.553 236.536L256.569 239.806ZM84.1674 236.536L89.9559 238.238L97.1513 239.806L84.1674 236.536Z" fill="#C4C4C4"/>
<path d="M203.666 245.026L203.593 248.266L215.996 247.632L203.666 245.026ZM248.086 241.224L238.433 242.473L247.893 244.47L248.086 241.224Z" fill="#B0B0B0"/>
<path d="M137.619 244.392L238.433 242.473L276.329 228.819L137.619 244.392Z" fill="#C4C4C4"/>
<path d="M150.059 245.026L150.131 248.266L163.217 248.658L150.059 245.026ZM190.548 245.42L190.511 248.658L203.597 248.266L190.548 245.42ZM115.291 242.473L105.639 241.224L115.458 245.717L115.291 242.473ZM163.18 245.42L163.217 248.658L176.864 248.793L163.18 245.42ZM176.864 245.555V248.793L190.511 248.658L176.864 245.555Z" fill="#B0B0B0"/>
<path d="M77.2826 232.804L97.1515 239.806L137.619 244.392L77.2826 232.804Z" fill="#C4C4C4"/>
<path d="M238.437 242.473L227.736 243.535L238.271 245.717L238.437 242.473Z" fill="#B0B0B0"/>
<path d="M238.433 242.473L256.569 239.806L269.553 236.536L238.433 242.473Z" fill="#C4C4C4"/>
<path d="M125.994 243.535L115.293 242.473L126.132 246.777L125.994 243.535ZM227.738 243.535L216.108 244.392L227.6 246.777L227.738 243.535ZM137.624 244.392L125.994 243.535L137.73 247.632L137.624 244.392Z" fill="#B0B0B0"/>
<path d="M238.436 242.473L248.089 241.224L256.572 239.806L238.436 242.473ZM97.1545 239.806L105.638 241.224L115.291 242.473L97.1545 239.806Z" fill="#C4C4C4"/>
<path d="M216.102 244.393L203.666 245.027L215.996 247.633L216.102 244.393ZM150.055 245.027L137.619 244.393L150.128 248.266L150.055 245.027ZM203.666 245.027L190.544 245.421L203.593 248.266L203.666 245.027ZM163.177 245.421L150.055 245.027L163.214 248.659L163.177 245.421ZM190.544 245.421L176.86 245.556L190.507 248.659L190.544 245.421ZM176.86 245.556L163.177 245.421L176.86 248.794V245.556Z" fill="#B0B0B0"/>
<path d="M97.1545 239.806L115.291 242.473L137.622 244.392L97.1545 239.806ZM115.291 242.473L125.992 243.535L137.622 244.392L115.291 242.473ZM216.105 244.392L227.735 243.535L238.436 242.473L216.105 244.392ZM190.547 245.42L216.105 244.392L238.436 242.473L190.547 245.42ZM137.622 244.392L190.547 245.42L238.436 242.473L137.622 244.392ZM190.547 245.42L203.669 245.026L216.105 244.392L190.547 245.42ZM137.622 244.392L150.058 245.026L163.18 245.42L137.622 244.392ZM137.622 244.392L163.18 245.42H190.547L137.622 244.392ZM163.18 245.42L176.864 245.555L190.547 245.42H163.18Z" fill="#C4C4C4"/>
<path d="M276.555 230.951C276.555 231.601 276.102 232.401 274.826 233.318C273.574 234.218 271.678 235.116 269.165 235.99C264.149 237.734 256.848 239.317 247.777 240.65C229.647 243.316 204.575 244.967 176.864 244.967C149.153 244.967 124.082 243.316 105.952 240.65C96.8808 239.317 89.5803 237.734 84.5635 235.99C82.0504 235.116 80.1551 234.218 78.9024 233.318C77.6265 232.401 77.1742 231.601 77.1742 230.951C77.1742 230.3 77.6265 229.5 78.9024 228.584C80.1551 227.684 82.0504 226.785 84.5635 225.911C89.5803 224.167 96.8808 222.585 105.952 221.251C124.082 218.586 149.153 216.934 176.864 216.934C204.575 216.934 229.647 218.586 247.777 221.251C256.848 222.585 264.149 224.167 269.165 225.911C271.678 226.785 273.574 227.684 274.826 228.584C276.102 229.5 276.555 230.3 276.555 230.951Z" fill="url(#paint2_linear_1301_332088)" stroke="url(#paint3_linear_1301_332088)" stroke-width="1.5"/>
<g filter="url(#filter1_f_1301_332088)">
<ellipse cx="173.628" cy="232.469" rx="70.8338" ry="8.69781" transform="rotate(3.94448 173.628 232.469)" fill="url(#paint4_radial_1301_332088)" fill-opacity="0.25"/>
</g>
<path fill-rule="evenodd" clip-rule="evenodd" d="M97.3708 243.057L97.5848 246.287L106.023 247.7L115.617 248.943L115.62 248.944L115.619 248.944V248.944L115.619 248.944L106.021 247.7L106.211 250.911L106.21 250.911L106.02 247.7L97.5821 246.287L97.582 246.287L97.5829 246.287L97.5812 246.286L97.3672 243.056L97.3671 243.056L97.367 243.056L97.3675 243.056L97.3675 243.056L97.3708 243.057ZM89.9586 238.239L89.9578 238.239L89.9579 238.239L89.9569 238.239L89.9569 238.239L84.1693 236.537L84.1693 236.537L79.91 234.722L79.9079 234.719L79.908 234.721L79.9057 234.72L79.9082 234.723L80.1694 237.977L84.4173 239.789L84.418 239.79L84.4181 239.791L84.4189 239.792L84.6676 243.028L84.6652 243.025L84.4168 239.791L80.1687 237.979L80.1674 237.978L80.1675 237.979L80.1667 237.978L80.1666 237.977L80.1658 237.977L79.9044 234.72L77.2868 232.808L77.2865 232.805L76.4242 230.811L76.6947 234.076L77.5505 236.056L77.5511 236.063L76.6928 234.077L76.9619 237.324L77.2295 240.554L77.4957 243.766L77.7605 246.962L78.0239 250.14L78.2859 253.302L79.1332 255.271L81.7069 257.161L85.8922 258.956L91.5739 260.636L98.6361 262.185L106.962 263.585L116.436 264.819L126.938 265.867L138.351 266.714L150.556 267.34L163.433 267.728L176.862 267.862L190.291 267.728L203.169 267.34L215.374 266.714L226.787 265.867L237.289 264.819L246.763 263.585L255.089 262.185L262.151 260.636L267.833 258.956L272.018 257.161L274.592 255.271L275.439 253.302L275.701 250.14L275.964 246.962L276.229 243.766L276.495 240.554L276.763 237.324L277.032 234.08L277.034 234.076L276.442 232.805L276.174 236.063L276.173 236.065L276.171 236.064L276.439 232.805L273.817 234.72L273.819 234.72L269.557 236.537L273.556 237.976L273.555 237.977L269.554 236.537L269.554 236.537L269.554 236.537L263.766 238.239L263.766 238.239L256.572 239.807L263.533 241.49L263.768 238.239L263.769 238.24L263.534 241.49L263.534 241.49L263.535 241.49L269.054 243.026L269.054 243.028L263.534 241.491L263.534 241.49L263.532 241.49L263.532 241.49L263.531 241.49L256.358 243.056L263.531 241.49L256.572 239.808L256.572 239.807L256.571 239.808L256.57 239.808L248.088 241.225L256.355 243.056L256.355 243.056L248.087 241.225L247.894 244.471L247.894 244.471L248.086 241.225L238.435 242.474L238.434 242.474L238.434 242.474L227.735 243.536L227.734 243.536L227.734 243.536L216.105 244.393L227.597 246.778L227.597 246.778L216.105 244.393L215.999 247.634L215.997 247.634L215.994 247.634L215.997 247.634L215.994 247.633L216.1 244.394L203.667 245.028L203.666 245.028L203.664 245.028L190.548 245.421L190.547 245.421L190.542 245.421L176.864 245.557L176.864 245.556V245.557L176.859 245.557L163.181 245.422L163.18 245.421V245.422L163.175 245.421L150.06 245.028L150.058 245.028L150.058 245.028L150.053 245.028L137.623 244.394L137.622 244.394L137.622 244.393L125.992 243.536L115.291 242.474L126.129 246.778L126.129 246.778L126.13 246.778L126.13 246.778L126.267 250.002L137.832 250.856L137.834 250.856L137.834 250.856L137.728 247.634L137.729 247.634L137.834 250.856L150.202 251.488L150.203 251.488L150.203 251.488L150.131 248.267L150.132 248.268L150.204 251.488L163.25 251.88L163.251 251.88L163.251 251.881L150.202 251.489L163.289 255.084V255.085L150.202 251.489L150.273 254.693L150.273 254.693L150.201 251.489L137.833 250.857L137.832 250.857L137.832 250.857L137.831 250.857L137.831 250.856L126.264 250.002L137.936 254.062L137.831 250.857L137.832 250.857L137.937 254.062L126.401 253.21L115.786 252.154L115.786 252.153L126.397 253.209L126.398 253.209L126.398 253.209L126.262 250.002L126.264 250.003L126.127 246.778L126.127 246.778L115.291 242.476L115.291 242.474L105.638 241.225L105.831 244.471L105.83 244.471L105.637 241.225L97.1539 239.807L105.828 244.47L105.826 244.47L97.1523 239.808L97.3675 243.056L97.367 243.055L97.1518 239.808L89.9586 238.239ZM125.992 243.536L137.727 247.633L137.727 247.634L125.992 243.536L125.992 243.536ZM150.126 248.265L150.053 245.028L150.058 245.029L150.131 248.267L150.132 248.267L150.132 248.267L150.131 248.267V248.267L150.13 248.267L150.126 248.265ZM163.21 248.659L150.133 248.267L150.134 248.267L163.211 248.66L163.21 248.659ZM163.212 248.66L163.214 248.66L163.215 248.66V248.66L176.861 252.015V252.015L163.215 248.66L176.858 248.795L176.857 248.794L163.217 248.66L163.18 245.423L163.175 245.421L163.212 248.658L163.217 248.66L163.212 248.659L163.212 248.66ZM176.859 248.794V248.795L176.861 248.795L176.862 248.795V248.795L190.471 251.881L176.862 252.015L176.863 252.015V252.016L190.436 255.085L190.436 255.084L176.863 252.015L190.473 251.881L190.473 251.881L203.452 254.693L203.452 254.693L190.473 251.881L203.523 251.489L203.523 251.489L215.786 254.062L215.788 254.062L227.324 253.21L237.939 252.154L238.104 248.945L247.704 247.7L255.929 249.501L256.142 246.288L263.299 244.724L263.3 244.724L269.057 243.029L269.059 243.028L273.298 241.218L273.298 241.218L275.905 239.311L276.172 236.068L276.169 236.07L275.902 239.309L275.904 239.31L273.298 241.217L273.298 241.218L273.297 241.217L273.296 241.218L273.296 241.217L269.307 239.792L269.307 239.793L273.295 241.218L269.059 243.026L269.059 243.028L269.056 243.027L269.055 243.028L269.056 243.028L263.3 244.723L263.3 244.724L263.299 244.724L263.298 244.724L263.298 244.723L256.358 243.056L256.358 243.057L263.296 244.724L256.144 246.286L256.144 246.287L256.141 246.287L255.928 249.501L247.704 247.7L238.105 248.944L238.27 245.718L247.705 247.7L247.706 247.7L238.272 245.718L238.271 245.718L238.27 245.718L238.436 242.475L238.435 242.475L238.269 245.718L238.269 245.718L238.267 245.718L238.102 248.944L238.101 248.945L237.936 252.153L237.938 252.153H237.936L227.323 253.209L215.892 250.856L215.892 250.857L227.322 253.21L215.787 254.062L215.786 254.062L215.786 254.062L203.523 251.489L203.523 251.488L203.524 251.488L203.523 251.488L190.475 251.88L190.511 248.66V248.66L190.51 248.66L190.547 245.423L190.542 245.421L190.505 248.658L190.51 248.66L190.505 248.66V248.66L190.505 248.66L176.864 248.794V245.558L176.859 245.557V248.793L176.864 248.794L176.859 248.794ZM190.505 248.66L190.509 248.66L190.472 251.881L176.862 248.795L190.505 248.66ZM203.591 248.267L190.512 248.66L190.513 248.66L203.591 248.267L203.597 248.267L203.525 251.488L203.525 251.488L203.597 248.267L203.597 248.266L203.596 248.267L203.596 248.267L203.594 248.267L203.591 248.267L203.591 248.267L203.591 248.267ZM203.591 248.266L203.664 245.028L203.666 245.028L203.594 248.266L203.591 248.266ZM215.994 247.634L203.598 248.266L203.599 248.267L215.994 247.634L215.994 247.634ZM256.355 243.056L256.358 243.056L256.358 243.056L256.357 243.056L256.356 243.056L256.355 243.056ZM115.454 245.718L105.833 244.472L105.834 244.472L115.454 245.718L115.454 245.718ZM89.9569 238.239L89.9579 238.24L90.1923 241.489L90.1913 241.489L89.9569 238.239ZM97.3663 243.056L97.3669 243.056L90.1947 241.491L90.1947 241.491L97.3663 243.056ZM90.1888 241.488L84.1694 236.538L84.1694 236.538L90.1883 241.488L90.1888 241.488ZM216 247.634L216 247.634L215.895 250.856L216 247.634ZM269.306 239.791L269.307 239.791L273.556 237.978L273.555 237.978L269.305 239.791L269.306 239.791ZM90.4259 244.722L84.4245 239.793L84.4196 239.792L90.4252 244.724L84.6681 243.028L84.6684 243.029L90.426 244.724L97.7957 249.501L97.5828 246.288L97.5821 246.288L97.795 249.501L90.4252 244.724L90.4261 244.724L90.4259 244.722ZM163.252 251.881V251.881L176.862 255.219V255.219L163.252 251.881ZM80.1668 237.98L80.4266 241.217L80.4274 241.218L80.1677 237.981L80.1668 237.98ZM126.4 253.21L126.264 250.003L137.936 254.062L126.4 253.21ZM276.442 232.805L277.305 230.811L277.034 234.076L276.442 232.805Z" fill="url(#paint5_linear_1301_332088)"/>
<path fill-rule="evenodd" clip-rule="evenodd" d="M97.3708 243.057L97.5848 246.287L106.023 247.7L115.617 248.943L115.62 248.944L115.619 248.944V248.944L115.619 248.944L106.021 247.7L106.211 250.911L106.21 250.911L106.02 247.7L97.5821 246.287L97.582 246.287L97.5829 246.287L97.5812 246.286L97.3672 243.056L97.3671 243.056L97.367 243.056L97.3675 243.056L97.3675 243.056L97.3708 243.057ZM89.9586 238.239L89.9578 238.239L89.9579 238.239L89.9569 238.239L89.9569 238.239L84.1693 236.537L84.1693 236.537L79.91 234.722L79.9079 234.719L79.908 234.721L79.9057 234.72L79.9082 234.723L80.1694 237.977L84.4173 239.789L84.418 239.79L84.4181 239.791L84.4189 239.792L84.6676 243.028L84.6652 243.025L84.4168 239.791L80.1687 237.979L80.1674 237.978L80.1675 237.979L80.1667 237.978L80.1666 237.977L80.1658 237.977L79.9044 234.72L77.2868 232.808L77.2865 232.805L76.4242 230.811L76.6947 234.076L77.5505 236.056L77.5511 236.063L76.6928 234.077L76.9619 237.324L77.2295 240.554L77.4957 243.766L77.7605 246.962L78.0239 250.14L78.2859 253.302L79.1332 255.271L81.7069 257.161L85.8922 258.956L91.5739 260.636L98.6361 262.185L106.962 263.585L116.436 264.819L126.938 265.867L138.351 266.714L150.556 267.34L163.433 267.728L176.862 267.862L190.291 267.728L203.169 267.34L215.374 266.714L226.787 265.867L237.289 264.819L246.763 263.585L255.089 262.185L262.151 260.636L267.833 258.956L272.018 257.161L274.592 255.271L275.439 253.302L275.701 250.14L275.964 246.962L276.229 243.766L276.495 240.554L276.763 237.324L277.032 234.08L277.034 234.076L276.442 232.805L276.174 236.063L276.173 236.065L276.171 236.064L276.439 232.805L273.817 234.72L273.819 234.72L269.557 236.537L273.556 237.976L273.555 237.977L269.554 236.537L269.554 236.537L269.554 236.537L263.766 238.239L263.766 238.239L256.572 239.807L263.533 241.49L263.768 238.239L263.769 238.24L263.534 241.49L263.534 241.49L263.535 241.49L269.054 243.026L269.054 243.028L263.534 241.491L263.534 241.49L263.532 241.49L263.532 241.49L263.531 241.49L256.358 243.056L263.531 241.49L256.572 239.808L256.572 239.807L256.571 239.808L256.57 239.808L248.088 241.225L256.355 243.056L256.355 243.056L248.087 241.225L247.894 244.471L247.894 244.471L248.086 241.225L238.435 242.474L238.434 242.474L238.434 242.474L227.735 243.536L227.734 243.536L227.734 243.536L216.105 244.393L227.597 246.778L227.597 246.778L216.105 244.393L215.999 247.634L215.997 247.634L215.994 247.634L215.997 247.634L215.994 247.633L216.1 244.394L203.667 245.028L203.666 245.028L203.664 245.028L190.548 245.421L190.547 245.421L190.542 245.421L176.864 245.557L176.864 245.556V245.557L176.859 245.557L163.181 245.422L163.18 245.421V245.422L163.175 245.421L150.06 245.028L150.058 245.028L150.058 245.028L150.053 245.028L137.623 244.394L137.622 244.394L137.622 244.393L125.992 243.536L115.291 242.474L126.129 246.778L126.129 246.778L126.13 246.778L126.13 246.778L126.267 250.002L137.832 250.856L137.834 250.856L137.834 250.856L137.728 247.634L137.729 247.634L137.834 250.856L150.202 251.488L150.203 251.488L150.203 251.488L150.131 248.267L150.132 248.268L150.204 251.488L163.25 251.88L163.251 251.88L163.251 251.881L150.202 251.489L163.289 255.084V255.085L150.202 251.489L150.273 254.693L150.273 254.693L150.201 251.489L137.833 250.857L137.832 250.857L137.832 250.857L137.831 250.857L137.831 250.856L126.264 250.002L137.936 254.062L137.831 250.857L137.832 250.857L137.937 254.062L126.401 253.21L115.786 252.154L115.786 252.153L126.397 253.209L126.398 253.209L126.398 253.209L126.262 250.002L126.264 250.003L126.127 246.778L126.127 246.778L115.291 242.476L115.291 242.474L105.638 241.225L105.831 244.471L105.83 244.471L105.637 241.225L97.1539 239.807L105.828 244.47L105.826 244.47L97.1523 239.808L97.3675 243.056L97.367 243.055L97.1518 239.808L89.9586 238.239ZM125.992 243.536L137.727 247.633L137.727 247.634L125.992 243.536L125.992 243.536ZM150.126 248.265L150.053 245.028L150.058 245.029L150.131 248.267L150.132 248.267L150.132 248.267L150.131 248.267V248.267L150.13 248.267L150.126 248.265ZM163.21 248.659L150.133 248.267L150.134 248.267L163.211 248.66L163.21 248.659ZM163.212 248.66L163.214 248.66L163.215 248.66V248.66L176.861 252.015V252.015L163.215 248.66L176.858 248.795L176.857 248.794L163.217 248.66L163.18 245.423L163.175 245.421L163.212 248.658L163.217 248.66L163.212 248.659L163.212 248.66ZM176.859 248.794V248.795L176.861 248.795L176.862 248.795V248.795L190.471 251.881L176.862 252.015L176.863 252.015V252.016L190.436 255.085L190.436 255.084L176.863 252.015L190.473 251.881L190.473 251.881L203.452 254.693L203.452 254.693L190.473 251.881L203.523 251.489L203.523 251.489L215.786 254.062L215.788 254.062L227.324 253.21L237.939 252.154L238.104 248.945L247.704 247.7L255.929 249.501L256.142 246.288L263.299 244.724L263.3 244.724L269.057 243.029L269.059 243.028L273.298 241.218L273.298 241.218L275.905 239.311L276.172 236.068L276.169 236.07L275.902 239.309L275.904 239.31L273.298 241.217L273.298 241.218L273.297 241.217L273.296 241.218L273.296 241.217L269.307 239.792L269.307 239.793L273.295 241.218L269.059 243.026L269.059 243.028L269.056 243.027L269.055 243.028L269.056 243.028L263.3 244.723L263.3 244.724L263.299 244.724L263.298 244.724L263.298 244.723L256.358 243.056L256.358 243.057L263.296 244.724L256.144 246.286L256.144 246.287L256.141 246.287L255.928 249.501L247.704 247.7L238.105 248.944L238.27 245.718L247.705 247.7L247.706 247.7L238.272 245.718L238.271 245.718L238.27 245.718L238.436 242.475L238.435 242.475L238.269 245.718L238.269 245.718L238.267 245.718L238.102 248.944L238.101 248.945L237.936 252.153L237.938 252.153H237.936L227.323 253.209L215.892 250.856L215.892 250.857L227.322 253.21L215.787 254.062L215.786 254.062L215.786 254.062L203.523 251.489L203.523 251.488L203.524 251.488L203.523 251.488L190.475 251.88L190.511 248.66V248.66L190.51 248.66L190.547 245.423L190.542 245.421L190.505 248.658L190.51 248.66L190.505 248.66V248.66L190.505 248.66L176.864 248.794V245.558L176.859 245.557V248.793L176.864 248.794L176.859 248.794ZM190.505 248.66L190.509 248.66L190.472 251.881L176.862 248.795L190.505 248.66ZM203.591 248.267L190.512 248.66L190.513 248.66L203.591 248.267L203.597 248.267L203.525 251.488L203.525 251.488L203.597 248.267L203.597 248.266L203.596 248.267L203.596 248.267L203.594 248.267L203.591 248.267L203.591 248.267L203.591 248.267ZM203.591 248.266L203.664 245.028L203.666 245.028L203.594 248.266L203.591 248.266ZM215.994 247.634L203.598 248.266L203.599 248.267L215.994 247.634L215.994 247.634ZM256.355 243.056L256.358 243.056L256.358 243.056L256.357 243.056L256.356 243.056L256.355 243.056ZM115.454 245.718L105.833 244.472L105.834 244.472L115.454 245.718L115.454 245.718ZM89.9569 238.239L89.9579 238.24L90.1923 241.489L90.1913 241.489L89.9569 238.239ZM97.3663 243.056L97.3669 243.056L90.1947 241.491L90.1947 241.491L97.3663 243.056ZM90.1888 241.488L84.1694 236.538L84.1694 236.538L90.1883 241.488L90.1888 241.488ZM216 247.634L216 247.634L215.895 250.856L216 247.634ZM269.306 239.791L269.307 239.791L273.556 237.978L273.555 237.978L269.305 239.791L269.306 239.791ZM90.4259 244.722L84.4245 239.793L84.4196 239.792L90.4252 244.724L84.6681 243.028L84.6684 243.029L90.426 244.724L97.7957 249.501L97.5828 246.288L97.5821 246.288L97.795 249.501L90.4252 244.724L90.4261 244.724L90.4259 244.722ZM163.252 251.881V251.881L176.862 255.219V255.219L163.252 251.881ZM80.1668 237.98L80.4266 241.217L80.4274 241.218L80.1677 237.981L80.1668 237.98ZM126.4 253.21L126.264 250.003L137.936 254.062L126.4 253.21ZM276.442 232.805L277.305 230.811L277.034 234.076L276.442 232.805Z" fill="url(#paint6_linear_1301_332088)"/>
<g filter="url(#filter2_b_1301_332088)">
<path d="M101.381 56.5244C102.154 39.9079 111.042 27.1556 131.909 27.1556L206.877 22.132C227.647 20.7851 236.893 39.3909 236.279 56.3693V159.821C236.279 176.895 227.309 194.101 205.207 192.297L129.995 187.336C112.742 187.336 101.381 175.616 101.381 158.542V56.5244Z" fill="white" fill-opacity="0.35"/>
<path d="M130.126 185.34L130.06 185.336H129.995C121.834 185.336 115.217 182.574 110.642 177.937C106.063 173.297 103.381 166.628 103.381 158.542V56.5714C103.76 48.5911 106.075 41.7791 110.57 36.9754C115.04 32.1987 121.902 29.1556 131.909 29.1556H131.976L132.043 29.1512L207.006 24.1278C207.007 24.1278 207.008 24.1278 207.008 24.1277C216.675 23.5015 223.535 27.4773 227.983 33.5594C232.493 39.7263 234.575 48.1529 234.28 56.2969L234.279 56.3331V56.3693V159.821C234.279 168.053 232.11 176.131 227.474 181.883C222.912 187.543 215.806 191.156 205.37 190.304L205.354 190.302L205.339 190.301L130.126 185.34Z" stroke="url(#paint7_linear_1301_332088)" stroke-width="4"/>
</g>
<path d="M231.826 33.7404C229.395 29.9204 226.129 26.9051 222.849 24.8024L232.037 26.1992C235.953 27.1251 239.496 29.434 242.241 31.9853C245.01 34.5602 246.856 37.2764 247.447 38.8742L247.468 38.9288L247.494 38.9807C248.378 40.717 250.344 45.4166 251.051 50.1274C251.354 53.4841 251.374 56.7812 251.346 57.9967L251.345 58.0082V58.0197V161.583C250.915 171.75 246.846 178.396 242.514 182.526C240.339 184.6 238.09 186.046 236.191 186.979C234.26 187.928 232.771 188.31 232.118 188.342L232.072 188.345L232.026 188.351L223.276 189.601C227.016 187.403 230.664 184.047 233.057 179.066C234.514 176.404 235.522 172.94 236.195 169.743C236.873 166.522 237.228 163.492 237.347 161.669L237.349 161.637V161.604V135.609V55.7835C237.667 51.8554 237.005 42.1197 231.833 33.7516L231.833 33.7515L231.826 33.7404Z" fill="url(#paint8_linear_1301_332088)" stroke="url(#paint9_linear_1301_332088)" stroke-width="2"/>
<path d="M183.076 28.9173L182.858 33.1383L183.076 37.3594V28.9173ZM184.744 20.9777L183.076 28.9173V37.3594L184.744 20.9777ZM183.076 37.3594L183.713 41.4215L184.744 45.2989L183.076 37.3594ZM184.744 20.9777L183.713 24.8552L183.076 28.9173L184.744 20.9777ZM183.076 37.3594L184.744 45.2989L187.901 52.3843L183.076 37.3594ZM184.744 45.2989L186.147 48.9635L187.901 52.3843L184.744 45.2989ZM187.901 13.8924L186.147 17.3132L184.744 20.9777L187.901 13.8924ZM192.379 7.92017L184.744 20.9777L183.076 37.3594L192.379 7.92017ZM192.379 7.92017L187.901 13.8924L184.744 20.9777L192.379 7.92017ZM183.076 37.3594L187.901 52.3843L198.023 62.909L183.076 37.3594ZM192.379 7.92017L189.985 10.7492L187.901 13.8924L192.379 7.92017ZM187.901 52.3843L189.985 55.5275L192.379 58.3565L187.901 52.3843ZM192.379 7.92017L183.076 37.3594L198.023 62.909L192.379 7.92017ZM187.901 52.3843L192.379 58.3565L198.023 62.909L187.901 52.3843ZM192.379 58.3565L195.065 60.8314L198.023 62.909L192.379 58.3565ZM198.023 3.36768L195.065 5.4453L192.379 7.92017L198.023 3.36768Z" fill="#C4C4C4"/>
<path d="M217.727 65.32L220.449 64.865L223.993 64.2715L217.727 65.32Z" fill="#B0B0B0"/>
<path d="M204.674 0.59375L198.023 3.36804L192.379 7.92053L204.674 0.59375Z" fill="#C4C4C4"/>
<path d="M221.298 1.55473L223.993 2.00501L220.449 1.41155L221.298 1.55473ZM217.727 0.956543L221.298 1.55473L220.449 1.41155L217.727 0.956543ZM221.298 64.7222L217.727 65.3204L223.993 64.2719L221.298 64.7222ZM221.298 64.7222L223.993 64.2719L227.408 63.1256L221.298 64.7222Z" fill="#B0B0B0"/>
<path d="M198.022 62.9094L201.232 64.5433L204.673 65.6836L198.022 62.9094ZM204.673 0.59375L201.232 1.73411L198.022 3.36804L204.673 0.59375Z" fill="#C4C4C4"/>
<path d="M224.742 2.71415L227.409 3.15136L223.994 2.00501L224.742 2.71415ZM221.299 1.55473L224.742 2.71415L223.994 2.00501L221.299 1.55473ZM214.926 65.7886L217.728 65.3204L221.299 64.7222L214.926 65.7886ZM224.742 63.5628L221.299 64.7222L227.409 63.1256L224.742 63.5628ZM224.742 63.5628L227.409 63.1256L230.654 61.4514L224.742 63.5628ZM218.526 1.09124L221.299 1.55473L217.728 0.956543L218.526 1.09124Z" fill="#B0B0B0"/>
<path d="M198.022 62.9092L204.673 65.6835L212.04 66.2708L198.022 62.9092Z" fill="#C4C4C4"/>
<path d="M228.015 4.40957L230.654 4.82553L227.409 3.15134L228.015 4.40957ZM214.926 0.488281L218.526 1.09123L217.728 0.956526L214.926 0.488281Z" fill="#B0B0B0"/>
<path d="M219.169 1.80056L204.674 0.59375L192.379 7.92053L219.169 1.80056Z" fill="#C4C4C4"/>
<path d="M224.742 2.7141L228.015 4.40954L227.409 3.15131L224.742 2.7141ZM218.526 65.1856L214.926 65.7886L221.299 64.7221L218.526 65.1856ZM218.526 65.1856L221.299 64.7221L224.742 63.5627L218.526 65.1856ZM228.015 61.8673L230.654 61.4513L233.686 59.2772L228.015 61.8673ZM228.015 61.8673L224.742 63.5627L230.654 61.4513L228.015 61.8673ZM221.997 2.26395L224.742 2.7141L221.299 1.55469L221.997 2.26395ZM231.074 6.61289L233.686 6.99963L230.654 4.8255L231.074 6.61289Z" fill="#B0B0B0"/>
<path d="M204.671 65.6834L208.322 66.277L212.039 66.2707L204.671 65.6834ZM212.039 0.00624731L208.322 0L204.671 0.593533L212.039 0.00624731Z" fill="#C4C4C4"/>
<path d="M218.526 1.09131L221.997 2.26406L221.299 1.5548L218.526 1.09131ZM228.015 4.40966L231.073 6.613L230.654 4.82562L228.015 4.40966Z" fill="#B0B0B0"/>
<path d="M192.379 7.91992L198.023 62.9087L237.101 28.3273L192.379 7.91992Z" fill="#C4C4C4"/>
<path d="M212.039 66.2708L214.923 65.7887L218.523 65.1858L212.039 66.2708ZM231.071 59.6641L233.684 59.2774L236.459 56.6344L231.071 59.6641ZM221.994 64.013L218.523 65.1858L224.74 63.5629L221.994 64.013ZM231.071 59.6641L228.012 61.8674L233.684 59.2774L231.071 59.6641ZM221.994 64.013L224.74 63.5629L228.012 61.8674L221.994 64.013ZM215.667 0.614062L218.523 1.09136L214.923 0.48842L215.667 0.614062ZM233.87 9.29285L236.459 9.64272L233.684 6.99979L233.87 9.29285ZM225.294 3.98135L228.012 4.40971L224.74 2.71427L225.294 3.98135ZM212.039 0.00634766L215.667 0.614062L214.923 0.48842L212.039 0.00634766ZM231.071 6.61306L233.87 9.29285L233.684 6.99979L231.071 6.61306Z" fill="#B0B0B0"/>
<path d="M198.022 62.9092L212.04 66.2708L225.607 60.473L198.022 62.9092ZM219.168 1.80044L212.04 0.00634766L204.673 0.593633L219.168 1.80044Z" fill="#C4C4C4"/>
<path d="M221.994 2.26431L225.294 3.98155L224.74 2.71446L221.994 2.26431ZM233.87 56.9845L236.459 56.6346L238.93 53.5576L233.87 56.9845ZM215.667 65.6633L212.039 66.271L218.523 65.186L215.667 65.6633ZM233.87 56.9845L231.071 59.6643L236.459 56.6346L233.87 56.9845ZM215.667 65.6633L218.523 65.186L221.994 64.0132L215.667 65.6633ZM225.294 62.296L228.012 61.8676L231.071 59.6643L225.294 62.296ZM225.294 62.296L221.994 64.0132L228.012 61.8676L225.294 62.296ZM236.364 12.4142L238.93 12.72L236.459 9.64292L236.364 12.4142ZM219.167 1.80064L221.994 2.26431L218.523 1.09156L219.167 1.80064ZM228.379 6.2149L231.071 6.61326L228.012 4.40991L228.379 6.2149ZM233.87 9.29305L236.364 12.4142L236.459 9.64292L233.87 9.29305ZM236.364 53.8633L238.93 53.5576L241.053 50.0847L236.364 53.8633ZM215.667 0.614258L219.167 1.80064L218.523 1.09156L215.667 0.614258ZM225.294 3.98155L228.379 6.2149L228.012 4.40991L225.294 3.98155ZM236.364 53.8633L233.87 56.9845L238.93 53.5576L236.364 53.8633ZM238.506 15.9378L241.053 16.1928L238.93 12.72L238.506 15.9378Z" fill="#B0B0B0"/>
<path d="M212.039 66.2708L215.667 65.6631L219.167 64.4767L212.039 66.2708ZM219.167 1.80044L215.667 0.614062L212.039 0.00634766L219.167 1.80044Z" fill="#C4C4C4"/>
<path d="M228.381 60.0625L231.073 59.6642L233.872 56.9844L228.381 60.0625ZM219.169 64.4768L215.669 65.6632L221.996 64.0131L219.169 64.4768ZM228.381 60.0625L225.296 62.2959L231.073 59.6642L228.381 60.0625ZM219.169 64.4768L221.996 64.0131L225.296 62.2959L219.169 64.4768Z" fill="#B0B0B0"/>
<path d="M237.101 28.3276L219.169 1.80029L192.379 7.92027L237.101 28.3276Z" fill="#C4C4C4"/>
<path d="M238.508 50.3394L241.055 50.0844L242.781 46.2581L238.508 50.3394ZM236.366 12.4139L238.508 15.9374L238.932 12.7196L236.366 12.4139ZM231.205 8.93225L233.872 9.2927L231.072 6.61291L231.205 8.93225ZM240.251 19.8205L242.781 20.0187L241.055 16.1925L240.251 19.8205ZM222.496 3.53987L225.296 3.9812L221.996 2.26397L222.496 3.53987ZM238.508 50.3394L236.366 53.863L241.055 50.0844L238.508 50.3394ZM240.251 46.4563L242.781 46.2581L244.068 42.1245L240.251 46.4563ZM228.381 6.21455L231.205 8.93225L231.072 6.61291L228.381 6.21455ZM219.168 1.80029L222.496 3.53987L221.996 2.26397L219.168 1.80029ZM241.549 24.0162L244.068 24.1524L242.781 20.0187L241.549 24.0162ZM238.508 15.9374L240.251 19.8205L241.055 16.1925L238.508 15.9374ZM231.205 57.3446L233.872 56.9842L236.366 53.863L231.205 57.3446ZM231.205 57.3446L228.381 60.0623L233.872 56.9842L231.205 57.3446Z" fill="#B0B0B0"/>
<path d="M212.039 66.2705L219.167 64.4764L225.606 60.4727L212.039 66.2705Z" fill="#C4C4C4"/>
<path d="M241.549 42.2609L244.068 42.1248L244.869 37.7337L241.549 42.2609ZM240.251 46.4566L238.508 50.3397L242.781 46.2584L240.251 46.4566ZM242.358 28.4739L244.869 28.5437L244.068 24.1526L242.358 28.4739ZM222.496 62.7373L225.296 62.2959L228.381 60.0626L222.496 62.7373ZM222.496 62.7373L219.168 64.4768L225.296 62.2959L222.496 62.7373ZM233.722 12.099L236.366 12.4141L233.872 9.29297L233.722 12.099ZM242.358 37.8035L244.869 37.7337L245.145 33.1387L242.358 37.8035ZM242.637 33.1387H245.145L244.869 28.5437L242.637 33.1387ZM240.251 19.8208L241.549 24.0165L242.781 20.019L240.251 19.8208Z" fill="#B0B0B0"/>
<path d="M198.022 62.9091L225.607 60.4728L237.1 28.3276L198.022 62.9091Z" fill="#C4C4C4"/>
<path d="M225.607 5.80422L228.381 6.21472L225.296 3.98137L225.607 5.80422ZM241.549 42.2608L240.25 46.4565L244.067 42.1247L241.549 42.2608ZM231.205 8.93242L233.721 12.0989L233.871 9.29287L231.205 8.93242ZM233.721 54.1783L236.365 53.8632L238.507 50.3396L233.721 54.1783ZM241.549 24.0164L242.358 28.4738L244.067 24.1525L241.549 24.0164ZM242.358 37.8034L241.549 42.2608L244.869 37.7336L242.358 37.8034ZM222.495 3.54004L225.607 5.80422L225.296 3.98137L222.495 3.54004ZM233.721 54.1783L231.205 57.3448L236.365 53.8632L233.721 54.1783ZM235.883 15.6748L238.507 15.9376L236.365 12.414L235.883 15.6748ZM242.358 28.4738L242.636 33.1386L244.869 28.5436L242.358 28.4738ZM242.636 33.1386L242.358 37.8034L245.145 33.1386H242.636ZM225.607 60.473L228.381 60.0625L231.205 57.3448L225.607 60.473ZM225.607 60.473L222.495 62.7371L228.381 60.0625L225.607 60.473Z" fill="#B0B0B0"/>
<path d="M219.168 64.4766L222.496 62.737L225.607 60.4728L219.168 64.4766ZM225.607 5.80405L222.496 3.53987L219.168 1.80029L225.607 5.80405Z" fill="#C4C4C4"/>
<path d="M235.883 50.6019L238.508 50.3391L240.251 46.456L235.883 50.6019ZM233.722 12.0984L235.883 15.6743L236.366 12.4135L233.722 12.0984ZM228.457 8.56039L231.205 8.93191L228.381 6.21421L228.457 8.56039ZM237.643 19.6159L240.251 19.8202L238.508 15.9371L237.643 19.6159ZM235.883 50.6019L233.722 54.1777L238.508 50.3391L235.883 50.6019ZM237.643 46.6603L240.251 46.456L241.549 42.2603L237.643 46.6603ZM225.608 5.80371L228.457 8.56039L228.381 6.21421L225.608 5.80371ZM238.953 23.8755L241.549 24.0159L240.251 19.8202L238.953 23.8755ZM235.883 15.6743L237.643 19.6159L238.508 15.9371L235.883 15.6743ZM228.457 57.7158L231.205 57.3443L233.722 54.1777L228.457 57.7158Z" fill="#B0B0B0"/>
<path d="M230.996 11.774L225.607 5.80405L219.168 1.80029L230.996 11.774Z" fill="#C4C4C4"/>
<path d="M228.457 57.7164L225.608 60.4731L231.205 57.3449L228.457 57.7164ZM238.953 42.4013L241.549 42.2609L242.358 37.8035L238.953 42.4013ZM237.643 46.6609L235.883 50.6025L240.251 46.4566L237.643 46.6609ZM239.77 28.4021L242.358 28.474L241.549 24.0165L239.77 28.4021ZM230.996 11.7743L233.722 12.0991L231.205 8.93255L230.996 11.7743ZM239.77 37.8754L242.358 37.8035L242.637 33.1387L239.77 37.8754ZM240.051 33.1387H242.637L242.358 28.474L240.051 33.1387ZM237.643 19.6165L238.953 23.8762L240.251 19.8208L237.643 19.6165ZM238.953 42.4013L237.643 46.6609L241.549 42.2609L238.953 42.4013ZM228.457 8.56104L230.996 11.7743L231.205 8.93255L228.457 8.56104ZM230.996 54.5032L233.722 54.1784L235.883 50.6025L230.996 54.5032ZM238.953 23.8762L239.77 28.4021L241.549 24.0165L238.953 23.8762ZM239.77 37.8754L238.953 42.4013L242.358 37.8035L239.77 37.8754ZM230.996 54.5032L228.457 57.7164L233.722 54.1784L230.996 54.5032ZM233.177 15.404L235.883 15.6749L233.722 12.0991L233.177 15.404ZM239.77 28.4021L240.051 33.1387L242.358 28.474L239.77 28.4021ZM240.051 33.1387L239.77 37.8754L242.637 33.1387H240.051Z" fill="#B0B0B0"/>
<path d="M225.607 60.4728L228.457 57.7161L230.996 54.5029L225.607 60.4728ZM230.996 11.774L228.457 8.56073L225.607 5.80405L230.996 11.774ZM237.1 28.3276L230.996 11.774L219.168 1.80029L237.1 28.3276Z" fill="#C4C4C4"/>
<path d="M233.18 50.8731L235.886 50.6022L237.645 46.6606L233.18 50.8731ZM230.998 11.7739L233.18 15.4036L233.724 12.0987L230.998 11.7739ZM234.955 19.4055L237.645 19.6162L235.886 15.6746L234.955 19.4055ZM233.18 50.8731L230.998 54.5029L235.886 50.6022L233.18 50.8731Z" fill="#B0B0B0"/>
<path d="M225.608 60.4731L230.996 54.5032L234.953 46.8716L225.608 60.4731Z" fill="#C4C4C4"/>
<path d="M234.953 46.8714L237.642 46.6607L238.953 42.4011L234.953 46.8714ZM236.275 23.7313L238.953 23.876L237.642 19.6164L236.275 23.7313ZM233.177 15.4038L234.953 19.4057L235.883 15.6748L233.177 15.4038ZM236.275 42.5459L238.953 42.4011L239.77 37.8752L236.275 42.5459ZM234.953 46.8714L233.177 50.8733L237.642 46.6607L234.953 46.8714ZM237.1 28.3277L239.77 28.4019L238.953 23.876L237.1 28.3277Z" fill="#B0B0B0"/>
<path d="M225.608 60.4728L234.953 46.8713L237.1 28.3276L225.608 60.4728Z" fill="#C4C4C4"/>
<path d="M237.101 37.9494L239.77 37.8752L240.051 33.1385L237.101 37.9494ZM237.385 33.1385H240.051L239.77 28.4019L237.385 33.1385Z" fill="#B0B0B0"/>
<path d="M230.998 54.5029L233.18 50.8731L234.955 46.8712L230.998 54.5029ZM234.955 19.4055L233.18 15.4036L230.998 11.7739L234.955 19.4055Z" fill="#C4C4C4"/>
<path d="M234.953 19.4058L236.276 23.7313L237.643 19.6164L234.953 19.4058ZM236.276 42.5459L234.953 46.8715L238.953 42.4012L236.276 42.5459ZM236.276 23.7313L237.101 28.3278L238.953 23.876L236.276 23.7313Z" fill="#B0B0B0"/>
<path d="M237.103 28.3276L234.955 19.4055L230.998 11.7739L237.103 28.3276Z" fill="#C4C4C4"/>
<path d="M237.102 37.9493L236.278 42.5458L239.772 37.8751L237.102 37.9493ZM237.102 28.3276L237.386 33.1385L239.772 28.4018L237.102 28.3276ZM237.386 33.1385L237.102 37.9493L240.053 33.1385H237.386Z" fill="#B0B0B0"/>
<path d="M234.953 46.8715L236.276 42.5459L237.101 37.9494L234.953 46.8715ZM237.101 28.3278L236.276 23.7313L234.953 19.4058L237.101 28.3278ZM234.953 46.8715L237.101 37.9494V28.3278L234.953 46.8715ZM237.101 37.9494L237.384 33.1386L237.101 28.3278V37.9494Z" fill="#C4C4C4"/>
<path d="M237.144 33.2557C237.144 51.4417 225.029 66.0113 210.278 66.0113C195.527 66.0113 183.412 51.4417 183.412 33.2557C183.412 15.0696 195.527 0.5 210.278 0.5C225.029 0.5 237.144 15.0696 237.144 33.2557Z" fill="url(#paint10_linear_1301_332088)" stroke="url(#paint11_linear_1301_332088)"/>
<g filter="url(#filter3_d_1301_332088)">
<path d="M203.6 28.441L206.675 28.5039L209.845 25.7174L203.6 28.441ZM206.796 25.6201L203.6 28.441L209.845 25.7174L206.796 25.6201Z" fill="#E5E5E5"/>
<path d="M201.348 24.395L203.599 28.4407L206.794 25.6198L201.348 24.395Z" fill="white"/>
<path d="M211.112 48.8718L214.126 48.6872V18.6577L211.112 48.8718Z" fill="#E5E5E5"/>
<path d="M211.112 18.4727L201.349 24.3953L206.795 25.6201L211.112 18.4727ZM211.112 18.4727L207.992 18.5347L201.349 24.3953L211.112 18.4727Z" fill="white"/>
<path d="M211.112 18.4727V48.8714L214.126 18.6573L211.112 18.4727Z" fill="#E5E5E5"/>
<path fill-rule="evenodd" clip-rule="evenodd" d="M211.112 48.8714V18.4727L214.126 18.6573L211.112 48.8714ZM211.112 48.8718L214.126 48.6872V18.6577L211.112 48.8718ZM203.6 28.441L206.675 28.5039L209.845 25.7174L206.796 25.6201L203.6 28.441Z" fill="url(#paint12_linear_1301_332088)"/>
<path d="M206.796 25.6201V48.7855L211.112 18.4727L206.796 25.6201ZM206.796 48.7855L211.112 48.8714V18.4727L206.796 48.7855Z" fill="white"/>
</g>
<path d="M213.048 0.235008L211.713 0.0239258C212.163 0.0850532 212.608 0.155462 213.048 0.235008L224.246 2.00552C226.127 2.47926 230.768 4.21928 234.283 7.38939C237.798 10.5595 240.457 14.8265 241.347 16.5638L243.285 20.871C244.304 24.1301 246.085 31.8975 245.051 36.8938C244.431 41.9247 242.553 46.8866 241.691 48.7387C240.614 51.3374 237.031 57.422 231.311 60.9712C228.296 63.5124 221.921 65.02 216.58 65.5799C217.241 65.4076 218.699 64.9941 219.251 64.7185C219.94 64.3739 239.045 56.0442 237.348 30.279C236.021 14.2515 226.881 2.73414 213.048 0.235008Z" fill="url(#paint13_linear_1301_332088)"/>
<path d="M139.936 77.2705C139.936 77.7705 139.936 77.7705 139.936 77.7705H139.937H139.938H139.939H139.94H139.942H139.944H139.947H139.95H139.953H139.956H139.96H139.964H139.969H139.974H139.979H139.984H139.99H139.996H140.003H140.01H140.017H140.024H140.032H140.04H140.048H140.057H140.066H140.075H140.085H140.095H140.105H140.116H140.127H140.138H140.15H140.162H140.174H140.186H140.199H140.212H140.226H140.24H140.254H140.268H140.283H140.298H140.313H140.329H140.344H140.361H140.377H140.394H140.411H140.429H140.446H140.464H140.483H140.501H140.52H140.539H140.559H140.579H140.599H140.619H140.64H140.661H140.682H140.704H140.726H140.748H140.77H140.793H140.816H140.84H140.863H140.887H140.911H140.936H140.961H140.986H141.011H141.037H141.062H141.089H141.115H141.142H141.169H141.196H141.224H141.252H141.28H141.308H141.337H141.366H141.395H141.425H141.454H141.484H141.515H141.545H141.576H141.607H141.639H141.671H141.703H141.735H141.767H141.8H141.833H141.866H141.9H141.934H141.968H142.002H142.037H142.072H142.107H142.142H142.178H142.214H142.25H142.286H142.323H142.36H142.397H142.435H142.472H142.51H142.548H142.587H142.626H142.665H142.704H142.743H142.783H142.823H142.863H142.904H142.944H142.985H143.026H143.068H143.109H143.151H143.194H143.236H143.279H143.321H143.365H143.408H143.452H143.495H143.539H143.584H143.628H143.673H143.718H143.763H143.809H143.855H143.901H143.947H143.993H144.04H144.087H144.134H144.181H144.229H144.276H144.324H144.373H144.421H144.47H144.519H144.568H144.617H144.667H144.716H144.766H144.817H144.867H144.918H144.968H145.02H145.071H145.122H145.174H145.226H145.278H145.331H145.383H145.436H145.489H145.542H145.596H145.649H145.703H145.757H145.811H145.866H145.921H145.975H146.03H146.086H146.141H146.197H146.253H146.309H146.365H146.422H146.478H146.535H146.592H146.65H146.707H146.765H146.822H146.881H146.939H146.997H147.056H147.115H147.174H147.233H147.292H147.352H147.412H147.472H147.532H147.592H147.653H147.713H147.774H147.835H147.896H147.958H148.019H148.081H148.143H148.205H148.268H148.33H148.393H148.456H148.519H148.582H148.645H148.709H148.773H148.837H148.901H148.965H149.029H149.094H149.159H149.224H149.289H149.354H149.419H149.485H149.551H149.617H149.683H149.749H149.816H149.882H149.949H150.016H150.083H150.15H150.217H150.285H150.353H150.421H150.489H150.557H150.625H150.694H150.762H150.831H150.9H150.969H151.038H151.108H151.177H151.247H151.317H151.387H151.457H151.527H151.597H151.668H151.739H151.81H151.881H151.952H152.023H152.094H152.166H152.238H152.31H152.382H152.454H152.526H152.598H152.671H152.744H152.816H152.889H152.962H153.036H153.109H153.182H153.256H153.33H153.404H153.478H153.552H153.626H153.7H153.775H153.849H153.924H153.999H154.074H154.149H154.224H154.3H154.375H154.451H154.527H154.602H154.678H154.754H154.831H154.907H154.983H155.06H155.136H155.213H155.29H155.367H155.444H155.521H155.599H155.676H155.754H155.831H155.909H155.987H156.065H156.143H156.221H156.299H156.378H156.456H156.535H156.614H156.692H156.771H156.85H156.929H157.009H157.088H157.167H157.247H157.326H157.406H157.486H157.566H157.645H157.726H157.806H157.886H157.966H158.047H158.127H158.208H158.288H158.369H158.45H158.531H158.612H158.693H158.774H158.855H158.937H159.018H159.1H159.181H159.263H159.345H159.427H159.509H159.591H159.673H159.755H159.837H159.919H160.002H160.084H160.167H160.249H160.332H160.414H160.497H160.58H160.663H160.746H160.829H160.912H160.995H161.079H161.162H161.245H161.329H161.412H161.496H161.58H161.663H161.747H161.831H161.915H161.999H162.083H162.167H162.251H162.335H162.419H162.504H162.588H162.672H162.757H162.841H162.926H163.01H163.095H163.18H163.264H163.349H163.434H163.519H163.604H163.689H163.774H163.859H163.944H164.029H164.114H164.199H164.285H164.37H164.455H164.541H164.626H164.711H164.797H164.882H164.968H165.054H165.139H165.225H165.311H165.396H165.482H165.568H165.654H165.739H165.825H165.911H165.997H166.083H166.169H166.255H166.341H166.427H166.513H166.599H166.685H166.771H166.858H166.944H167.03H167.116H167.202H167.289H167.375H167.461H167.548H167.634H167.72H167.807H167.893H167.979H168.066H168.152H168.238H168.325H168.411H168.498H168.584H168.67H168.757H168.843H168.93H169.016H169.103H169.189H169.276H169.362H169.449H169.535H169.621H169.708H169.794H169.881H169.967H170.054H170.14H170.227H170.313H170.399H170.486H170.572H170.659H170.745H170.831H170.918H171.004H171.091H171.177H171.263H171.35H171.436H171.522H171.608H171.695H171.781H171.867H171.953H172.039H172.126H172.212H172.298H172.384H172.47H172.556H172.642H172.728H172.814H172.9H172.986H173.072H173.158H173.244H173.329H173.415H173.501H173.587H173.672H173.758H173.844H173.929H174.015H174.1H174.186H174.271H174.357H174.442H174.527H174.613H174.698H174.783H174.868H174.953H175.038H175.123H175.208H175.293H175.378H175.463H175.548H175.633H175.718H175.802H175.887H175.971H176.056H176.14H176.225H176.309H176.394H176.478H176.562H176.646H176.73H176.814H176.898H176.982H177.066H177.15H177.234H177.317H177.401H177.485H177.568H177.652H177.735H177.818H177.902H177.985H178.068H178.151H178.234H178.317H178.4H178.483H178.565H178.648H178.731H178.813H178.896H178.978H179.06H179.142H179.225H179.307H179.389H179.47H179.552H179.634H179.716H179.797H179.879H179.96H180.042H180.123H180.204H180.285H180.366H180.447H180.528H180.609H180.689H180.77H180.85H180.931H181.011H181.091H181.172H181.252H181.332H181.411H181.491H181.571H181.65H181.73H181.809H181.889H181.968H182.047H182.126H182.205H182.284H182.362H182.441H182.519H182.598H182.676H182.754H182.832H182.91H182.988H183.066H183.143H183.221H183.298H183.376H183.453H183.53H183.607H183.684H183.761H183.837H183.914H183.99H184.067H184.143H184.219H184.295H184.371H184.446H184.522H184.597H184.673H184.748H184.823H184.898H184.973H185.048H185.122H185.197H185.271H185.345H185.42H185.493H185.567H185.641H185.715H185.788H185.861H185.935H186.008H186.081H186.153H186.226H186.299H186.371H186.443H186.515H186.587H186.659H186.731H186.803H186.874H186.945H187.016H187.087H187.158H187.229H187.3H187.37H187.44H187.51H187.58H187.65H187.72H187.789H187.859H187.928H187.997H188.066H188.135H188.204H188.272H188.34H188.409H188.477H188.544H188.612H188.68H188.747H188.814H188.881H188.948H189.015H189.082H189.148H189.214H189.28H189.346H189.412H189.478H189.543H189.608H189.673H189.738H189.803H189.868H189.932H189.996H190.06H190.124H190.188H190.252H190.315H190.378H190.441H190.504H190.567H190.629H190.692H190.754H190.816H190.878H190.939H191.001H191.062H191.123H191.184H191.245H191.305H191.365H191.426H191.485H191.545H191.605H191.664H191.723H191.782H191.841H191.9H191.958H192.017H192.075H192.132H192.19H192.248H192.305H192.362H192.419H192.475H192.532H192.588H192.644H192.7H192.756H192.811H192.867H192.922H192.977H193.031H193.086H193.14H193.194H193.248H193.301H193.355H193.408H193.461H193.514H193.566H193.619H193.671H193.723H193.775H193.826H193.878H193.929H193.979H194.03H194.081H194.131H194.181H194.231H194.28H194.329H194.379H194.427H194.476H194.525H194.573H194.621H194.669H194.716H194.763H194.811H194.857H194.904H194.95H194.997H195.043H195.088H195.134H195.179H195.224H195.269H195.313H195.358H195.402H195.446H195.489H195.532H195.576H195.618H195.661H195.704H195.746H195.788H195.829H195.871H195.912H195.953H195.994H196.034H196.074H196.114H196.154H196.193H196.233H196.271H196.31H196.349H196.387H196.425H196.463H196.5H196.537H196.574H196.611H196.647H196.683H196.719H196.755H196.79H196.825H196.86H196.895H196.929H196.963H196.997H197.031H197.064H197.097H197.13H197.162H197.195H197.226H197.258H197.29H197.321H197.352H197.382H197.413H197.443H197.472H197.502H197.531H197.56H197.589H197.617H197.645H197.673H197.701H197.728H197.755H197.782H197.808H197.835H197.861H197.886H197.911H197.937H197.961H197.986H198.01H198.034H198.058H198.081H198.104H198.127H198.149H198.171H198.193H198.215H198.236H198.257H198.278H198.298H198.318H198.338H198.358H198.377H198.396H198.414H198.433H198.451H198.468H198.486H198.503H198.52H198.536H198.553H198.569H198.584H198.599H198.614H198.629H198.643H198.658H198.671H198.685H198.698H198.711H198.723H198.735H198.747H198.759H198.77H198.781H198.792H198.802H198.812H198.822H198.831H198.84H198.849H198.857H198.865H198.873H198.88H198.888H198.894H198.901H198.907H198.913H198.918H198.923H198.928H198.933H198.937H198.941H198.944H198.947H198.95H198.953H198.955H198.957H198.958H198.96H198.96H198.961C198.961 77.7705 198.961 77.7705 198.961 77.2705V77.7705C200.042 77.7705 201.027 78.7947 201.027 80.2023V157.407C201.027 158.815 200.042 159.839 198.961 159.839V160.339C198.961 159.839 198.961 159.839 198.961 159.839H198.96H198.96H198.958H198.957H198.955H198.953H198.95H198.947H198.944H198.941H198.937H198.933H198.928H198.923H198.918H198.913H198.907H198.901H198.894H198.888H198.88H198.873H198.865H198.857H198.849H198.84H198.831H198.822H198.812H198.802H198.792H198.781H198.77H198.759H198.747H198.735H198.723H198.711H198.698H198.685H198.671H198.658H198.643H198.629H198.614H198.599H198.584H198.569H198.553H198.536H198.52H198.503H198.486H198.468H198.451H198.433H198.414H198.396H198.377H198.358H198.338H198.318H198.298H198.278H198.257H198.236H198.215H198.193H198.171H198.149H198.127H198.104H198.081H198.058H198.034H198.01H197.986H197.961H197.937H197.911H197.886H197.861H197.835H197.808H197.782H197.755H197.728H197.701H197.673H197.645H197.617H197.589H197.56H197.531H197.502H197.472H197.443H197.413H197.382H197.352H197.321H197.29H197.258H197.226H197.195H197.162H197.13H197.097H197.064H197.031H196.997H196.963H196.929H196.895H196.86H196.825H196.79H196.755H196.719H196.683H196.647H196.611H196.574H196.537H196.5H196.463H196.425H196.387H196.349H196.31H196.271H196.233H196.193H196.154H196.114H196.074H196.034H195.994H195.953H195.912H195.871H195.829H195.788H195.746H195.704H195.661H195.618H195.576H195.532H195.489H195.446H195.402H195.358H195.313H195.269H195.224H195.179H195.134H195.088H195.043H194.997H194.95H194.904H194.857H194.811H194.763H194.716H194.669H194.621H194.573H194.525H194.476H194.427H194.379H194.329H194.28H194.231H194.181H194.131H194.081H194.03H193.979H193.929H193.878H193.826H193.775H193.723H193.671H193.619H193.566H193.514H193.461H193.408H193.355H193.301H193.248H193.194H193.14H193.086H193.031H192.977H192.922H192.867H192.811H192.756H192.7H192.644H192.588H192.532H192.475H192.419H192.362H192.305H192.248H192.19H192.132H192.075H192.017H191.958H191.9H191.841H191.782H191.723H191.664H191.605H191.545H191.485H191.426H191.365H191.305H191.245H191.184H191.123H191.062H191.001H190.939H190.878H190.816H190.754H190.692H190.629H190.567H190.504H190.441H190.378H190.315H190.252H190.188H190.124H190.06H189.996H189.932H189.868H189.803H189.738H189.673H189.608H189.543H189.478H189.412H189.346H189.28H189.214H189.148H189.082H189.015H188.948H188.881H188.814H188.747H188.68H188.612H188.544H188.477H188.409H188.34H188.272H188.204H188.135H188.066H187.997H187.928H187.859H187.789H187.72H187.65H187.58H187.51H187.44H187.37H187.3H187.229H187.158H187.087H187.016H186.945H186.874H186.803H186.731H186.659H186.587H186.515H186.443H186.371H186.299H186.226H186.153H186.081H186.008H185.935H185.861H185.788H185.715H185.641H185.567H185.493H185.42H185.345H185.271H185.197H185.122H185.048H184.973H184.898H184.823H184.748H184.673H184.597H184.522H184.446H184.371H184.295H184.219H184.143H184.067H183.99H183.914H183.837H183.761H183.684H183.607H183.53H183.453H183.376H183.298H183.221H183.143H183.066H182.988H182.91H182.832H182.754H182.676H182.598H182.519H182.441H182.362H182.284H182.205H182.126H182.047H181.968H181.889H181.809H181.73H181.65H181.571H181.491H181.411H181.332H181.252H181.172H181.091H181.011H180.931H180.85H180.77H180.689H180.609H180.528H180.447H180.366H180.285H180.204H180.123H180.042H179.96H179.879H179.797H179.716H179.634H179.552H179.47H179.389H179.307H179.225H179.142H179.06H178.978H178.896H178.813H178.731H178.648H178.565H178.483H178.4H178.317H178.234H178.151H178.068H177.985H177.902H177.818H177.735H177.652H177.568H177.485H177.401H177.317H177.234H177.15H177.066H176.982H176.898H176.814H176.73H176.646H176.562H176.478H176.394H176.309H176.225H176.14H176.056H175.971H175.887H175.802H175.718H175.633H175.548H175.463H175.378H175.293H175.208H175.123H175.038H174.953H174.868H174.783H174.698H174.613H174.527H174.442H174.357H174.271H174.186H174.1H174.015H173.929H173.844H173.758H173.672H173.587H173.501H173.415H173.329H173.244H173.158H173.072H172.986H172.9H172.814H172.728H172.642H172.556H172.47H172.384H172.298H172.212H172.126H172.039H171.953H171.867H171.781H171.695H171.608H171.522H171.436H171.35H171.263H171.177H171.091H171.004H170.918H170.831H170.745H170.659H170.572H170.486H170.399H170.313H170.227H170.14H170.054H169.967H169.881H169.794H169.708H169.621H169.535H169.449H169.362H169.276H169.189H169.103H169.016H168.93H168.843H168.757H168.67H168.584H168.498H168.411H168.325H168.238H168.152H168.066H167.979H167.893H167.807H167.72H167.634H167.548H167.461H167.375H167.289H167.202H167.116H167.03H166.944H166.858H166.771H166.685H166.599H166.513H166.427H166.341H166.255H166.169H166.083H165.997H165.911H165.825H165.739H165.654H165.568H165.482H165.396H165.311H165.225H165.139H165.054H164.968H164.882H164.797H164.711H164.626H164.541H164.455H164.37H164.285H164.199H164.114H164.029H163.944H163.859H163.774H163.689H163.604H163.519H163.434H163.349H163.264H163.18H163.095H163.01H162.926H162.841H162.757H162.672H162.588H162.504H162.419H162.335H162.251H162.167H162.083H161.999H161.915H161.831H161.747H161.663H161.58H161.496H161.412H161.329H161.245H161.162H161.079H160.995H160.912H160.829H160.746H160.663H160.58H160.497H160.414H160.332H160.249H160.167H160.084H160.002H159.919H159.837H159.755H159.673H159.591H159.509H159.427H159.345H159.263H159.181H159.1H159.018H158.937H158.855H158.774H158.693H158.612H158.531H158.45H158.369H158.288H158.208H158.127H158.047H157.966H157.886H157.806H157.726H157.645H157.566H157.486H157.406H157.326H157.247H157.167H157.088H157.009H156.929H156.85H156.771H156.692H156.614H156.535H156.456H156.378H156.299H156.221H156.143H156.065H155.987H155.909H155.831H155.754H155.676H155.599H155.521H155.444H155.367H155.29H155.213H155.136H155.06H154.983H154.907H154.831H154.754H154.678H154.602H154.527H154.451H154.375H154.3H154.224H154.149H154.074H153.999H153.924H153.849H153.775H153.7H153.626H153.552H153.478H153.404H153.33H153.256H153.182H153.109H153.036H152.962H152.889H152.816H152.744H152.671H152.598H152.526H152.454H152.382H152.31H152.238H152.166H152.095H152.023H151.952H151.881H151.81H151.739H151.668H151.597H151.527H151.457H151.387H151.317H151.247H151.177H151.108H151.038H150.969H150.9H150.831H150.762H150.694H150.625H150.557H150.489H150.421H150.353H150.285H150.217H150.15H150.083H150.016H149.949H149.882H149.816H149.749H149.683H149.617H149.551H149.485H149.419H149.354H149.289H149.224H149.159H149.094H149.029H148.965H148.901H148.837H148.773H148.709H148.645H148.582H148.519H148.456H148.393H148.33H148.268H148.205H148.143H148.081H148.019H147.958H147.896H147.835H147.774H147.713H147.653H147.592H147.532H147.472H147.412H147.352H147.292H147.233H147.174H147.115H147.056H146.997H146.939H146.881H146.822H146.765H146.707H146.65H146.592H146.535H146.478H146.422H146.365H146.309H146.253H146.197H146.141H146.086H146.03H145.975H145.921H145.866H145.811H145.757H145.703H145.649H145.596H145.542H145.489H145.436H145.383H145.331H145.278H145.226H145.174H145.122H145.071H145.02H144.968H144.918H144.867H144.817H144.766H144.716H144.667H144.617H144.568H144.519H144.47H144.421H144.373H144.324H144.276H144.229H144.181H144.134H144.087H144.04H143.993H143.947H143.901H143.855H143.809H143.763H143.718H143.673H143.628H143.584H143.539H143.495H143.452H143.408H143.365H143.321H143.279H143.236H143.194H143.151H143.109H143.068H143.026H142.985H142.944H142.904H142.863H142.823H142.783H142.743H142.704H142.665H142.626H142.587H142.548H142.51H142.472H142.435H142.397H142.36H142.323H142.286H142.25H142.214H142.178H142.142H142.107H142.072H142.037H142.002H141.968H141.934H141.9H141.866H141.833H141.8H141.767H141.735H141.703H141.671H141.639H141.607H141.576H141.545H141.515H141.484H141.454H141.425H141.395H141.366H141.337H141.308H141.28H141.252H141.224H141.196H141.169H141.142H141.115H141.089H141.062H141.037H141.011H140.986H140.961H140.936H140.911H140.887H140.863H140.84H140.816H140.793H140.77H140.748H140.726H140.704H140.682H140.661H140.64H140.619H140.599H140.579H140.559H140.539H140.52H140.501H140.483H140.464H140.446H140.429H140.411H140.394H140.377H140.361H140.344H140.329H140.313H140.298H140.283H140.268H140.254H140.24H140.226H140.212H140.199H140.186H140.174H140.162H140.15H140.138H140.127H140.116H140.105H140.095H140.085H140.075H140.066H140.057H140.048H140.04H140.032H140.024H140.017H140.01H140.003H139.996H139.99H139.984H139.979H139.974H139.969H139.964H139.96H139.956H139.953H139.95H139.947H139.944H139.942H139.94H139.939H139.938H139.937H139.936C139.936 159.839 139.936 159.839 139.936 160.339V159.839C138.855 159.839 137.87 158.815 137.87 157.407V80.2023C137.87 78.7947 138.855 77.7705 139.936 77.7705V77.2705Z" fill="url(#paint14_linear_1301_332088)" stroke="url(#paint15_linear_1301_332088)"/>
<path d="M130.527 80.2023V157.407H137.371V80.2023H130.527Z" fill="url(#paint16_linear_1301_332088)"/>
<path d="M130.527 80.2023C130.527 78.5831 131.676 77.2705 133.094 77.2705H139.937C138.52 77.2705 137.371 78.5831 137.371 80.2023H130.527Z" fill="url(#paint17_linear_1301_332088)"/>
<path d="M130.527 157.407C130.527 159.026 131.676 160.339 133.094 160.339H139.937C138.52 160.339 137.371 159.026 137.371 157.407H130.527Z" fill="url(#paint18_linear_1301_332088)"/>
<rect x="131.027" y="77.7705" width="63.0982" height="82.0682" rx="2.5" fill="url(#paint19_linear_1301_332088)" stroke="url(#paint20_linear_1301_332088)"/>
<path d="M161.972 117.673C161.269 116.958 160.316 116.557 159.322 116.557C159.322 116.557 156.512 116.557 153.701 116.557C150.891 116.557 148.08 116.557 148.08 116.557C147.086 116.557 146.133 116.958 145.431 117.673C144.728 118.388 144.333 119.357 144.333 120.368C144.333 121.379 144.728 122.348 145.431 123.063C146.133 123.778 147.086 124.18 148.08 124.18C148.08 124.18 150.891 124.18 153.701 124.18C156.512 124.18 159.322 124.18 159.322 124.18C160.316 124.18 161.269 123.778 161.972 123.063C162.675 122.348 163.069 121.379 163.069 120.368C163.069 119.357 162.675 118.388 161.972 117.673Z" fill="#C1BDBD"/>
<path d="M180.708 102.428C181.411 103.142 181.806 104.112 181.806 105.123C181.806 106.134 181.411 107.103 180.708 107.818C180.005 108.533 179.052 108.934 178.059 108.934C178.059 108.934 170.564 108.934 163.069 108.934C155.575 108.934 148.08 108.934 148.08 108.934C147.086 108.934 146.133 108.533 145.431 107.818C144.728 107.103 144.333 106.134 144.333 105.123C144.333 104.112 144.728 103.142 145.431 102.428C146.133 101.713 147.086 101.311 148.08 101.311C148.08 101.311 155.575 101.311 163.069 101.311C170.564 101.311 178.059 101.311 178.059 101.311C179.052 101.311 180.005 101.713 180.708 102.428Z" fill="#C1BDBD"/>
<path d="M178.059 93.6886C178.059 93.6886 170.564 93.6886 163.069 93.6886C155.575 93.6886 148.08 93.6886 148.08 93.6886C147.086 93.6886 146.133 93.2871 145.431 92.5723C144.728 91.8576 144.333 90.8881 144.333 89.8773C144.333 88.8664 144.728 87.897 145.431 87.1822C146.133 86.4675 147.086 86.0659 148.08 86.0659C148.08 86.0659 155.575 86.0659 163.069 86.0659C170.564 86.0659 178.059 86.0659 178.059 86.0659C179.052 86.0659 180.005 86.4675 180.708 87.1822C181.411 87.897 181.806 88.8664 181.806 89.8773C181.806 90.8881 181.411 91.8576 180.708 92.5723C180.005 93.2871 179.052 93.6886 178.059 93.6886Z" fill="#C1BDBD"/>
<path d="M140.389 120.368C140.389 121.379 140.783 122.348 141.486 123.063H145.431C144.728 122.348 144.333 121.379 144.333 120.368H140.389Z" fill="#EDF6F9"/>
<path d="M141.486 117.673C140.783 118.388 140.389 119.358 140.389 120.368H144.333C144.333 119.358 144.728 118.388 145.431 117.673H141.486Z" fill="#EDF6F9"/>
<path d="M141.486 107.818C140.783 107.103 140.389 106.133 140.389 105.123H144.333C144.333 106.133 144.728 107.103 145.431 107.818H141.486Z" fill="#EDF6F9"/>
<path d="M140.389 105.123C140.389 104.112 140.783 103.143 141.486 102.428H145.431C144.728 103.143 144.333 104.112 144.333 105.123H140.389Z" fill="#EDF6F9"/>
<path d="M141.486 92.5725C140.783 91.8577 140.389 90.8883 140.389 89.8774H144.333C144.333 90.8883 144.728 91.8577 145.431 92.5725H141.486Z" fill="#EDF6F9"/>
<path d="M140.389 89.8772C140.389 88.8663 140.783 87.8969 141.486 87.1821H145.431C144.728 87.8969 144.333 88.8663 144.333 89.8772H140.389Z" fill="#EDF6F9"/>
<path d="M141.486 123.063C142.189 123.778 143.142 124.179 144.136 124.179H148.081C147.087 124.179 146.134 123.778 145.431 123.063H141.486Z" fill="#EDF6F9"/>
<path d="M144.136 116.557C143.142 116.557 142.189 116.958 141.486 117.673H145.431C146.134 116.958 147.087 116.557 148.081 116.557H144.136Z" fill="#EDF6F9"/>
<path d="M144.136 108.934C143.142 108.934 142.189 108.533 141.486 107.818H145.431C146.134 108.533 147.087 108.934 148.081 108.934H144.136Z" fill="#EDF6F9"/>
<path d="M141.486 102.428C142.189 101.713 143.142 101.312 144.136 101.312H148.081C147.087 101.312 146.134 101.713 145.431 102.428H141.486Z" fill="#EDF6F9"/>
<path d="M144.136 93.6886C143.142 93.6886 142.189 93.287 141.486 92.5723H145.431C146.134 93.287 147.087 93.6886 148.081 93.6886H144.136Z" fill="#EDF6F9"/>
<path d="M141.486 87.1822C142.189 86.4675 143.142 86.0659 144.136 86.0659H148.081C147.087 86.0659 146.134 86.4675 145.431 87.1822H141.486Z" fill="#EDF6F9"/>
<path d="M155.377 124.179C156.371 124.179 157.324 123.778 158.027 123.063H161.971C161.268 123.778 160.315 124.179 159.321 124.179H155.377Z" fill="#EDF6F9"/>
<path d="M158.027 117.673C157.324 116.958 156.371 116.557 155.377 116.557H159.321C160.315 116.557 161.268 116.958 161.971 117.673H158.027Z" fill="#EDF6F9"/>
<path d="M158.027 123.063C158.73 122.348 159.125 121.379 159.125 120.368H163.069C163.069 121.379 162.674 122.348 161.972 123.063H158.027Z" fill="#EDF6F9"/>
<path d="M159.125 120.368C159.125 119.358 158.73 118.388 158.027 117.673H161.972C162.674 118.388 163.069 119.358 163.069 120.368H159.125Z" fill="#EDF6F9"/>
<path d="M174.113 86.0659C175.107 86.0659 176.06 86.4675 176.763 87.1822H180.708C180.005 86.4675 179.052 86.0659 178.058 86.0659H174.113Z" fill="#EDF6F9"/>
<path d="M176.763 92.5723C176.06 93.287 175.107 93.6886 174.113 93.6886H178.058C179.052 93.6886 180.005 93.287 180.708 92.5723H176.763Z" fill="#EDF6F9"/>
<path d="M176.763 107.818C176.06 108.533 175.107 108.934 174.113 108.934H178.058C179.052 108.934 180.005 108.533 180.708 107.818H176.763Z" fill="#EDF6F9"/>
<path d="M174.113 101.312C175.107 101.312 176.06 101.713 176.763 102.428H180.708C180.005 101.713 179.052 101.312 178.058 101.312H174.113Z" fill="#EDF6F9"/>
<path d="M176.763 87.1821C177.466 87.8969 177.861 88.8663 177.861 89.8772H181.805C181.805 88.8663 181.411 87.8969 180.708 87.1821H176.763Z" fill="#EDF6F9"/>
<path d="M177.861 89.8774C177.861 90.8883 177.466 91.8577 176.763 92.5725H180.708C181.411 91.8577 181.805 90.8883 181.805 89.8774H177.861Z" fill="#EDF6F9"/>
<path d="M177.861 105.123C177.861 106.133 177.466 107.103 176.763 107.818H180.708C181.411 107.103 181.805 106.133 181.805 105.123H177.861Z" fill="#EDF6F9"/>
<path d="M176.763 102.428C177.466 103.143 177.861 104.112 177.861 105.123H181.805C181.805 104.112 181.411 103.143 180.708 102.428H176.763Z" fill="#EDF6F9"/>
<path d="M158.027 117.673C157.325 116.958 156.371 116.557 155.378 116.557H144.136C143.142 116.557 142.189 116.958 141.486 117.673C140.783 118.388 140.389 119.357 140.389 120.368C140.389 121.379 140.783 122.348 141.486 123.063C142.189 123.778 143.142 124.18 144.136 124.18H155.378C156.371 124.18 157.325 123.778 158.027 123.063C158.73 122.348 159.125 121.379 159.125 120.368C159.125 119.357 158.73 118.388 158.027 117.673Z" fill="white"/>
<path d="M176.764 102.428C177.467 103.142 177.861 104.112 177.861 105.123C177.861 106.134 177.467 107.103 176.764 107.818C176.061 108.533 175.108 108.934 174.114 108.934H144.136C143.142 108.934 142.189 108.533 141.486 107.818C140.783 107.103 140.389 106.134 140.389 105.123C140.389 104.112 140.783 103.142 141.486 102.428C142.189 101.713 143.142 101.311 144.136 101.311H174.114C175.108 101.311 176.061 101.713 176.764 102.428Z" fill="white"/>
<path d="M174.114 93.6886H144.136C143.142 93.6886 142.189 93.2871 141.486 92.5723C140.783 91.8576 140.389 90.8881 140.389 89.8773C140.389 88.8664 140.783 87.897 141.486 87.1822C142.189 86.4675 143.142 86.0659 144.136 86.0659H174.114C175.108 86.0659 176.061 86.4675 176.764 87.1822C177.467 87.897 177.861 88.8664 177.861 89.8773C177.861 90.8881 177.467 91.8576 176.764 92.5723C176.061 93.2871 175.108 93.6886 174.114 93.6886Z" fill="white"/>
<path d="M171.407 150.067C172.752 150.733 174.275 151.109 175.889 151.109C177.503 151.109 179.027 150.733 180.371 150.067M171.407 150.067C168.214 148.485 166.028 145.266 166.028 141.553C166.028 136.276 170.443 131.998 175.889 131.998C181.335 131.998 185.75 136.276 185.75 141.553C185.75 145.266 183.564 148.485 180.371 150.067M171.407 150.067V162.871C171.407 162.932 171.456 162.969 171.506 162.969C171.54 162.969 171.574 162.953 171.593 162.916L175.802 154.908C175.82 154.873 175.855 154.855 175.889 154.855C175.924 154.855 175.958 154.873 175.977 154.908L180.185 162.916C180.205 162.953 180.238 162.969 180.272 162.969C180.322 162.969 180.371 162.932 180.371 162.871V150.067" stroke="white" stroke-width="5" stroke-linecap="round"/>
<path d="M163.069 141.553C163.069 145.213 165.193 148.392 168.311 149.998C168.401 150.044 168.501 150.067 168.602 150.067C169.296 150.067 169.613 148.955 169.102 148.485C167.208 146.744 166.028 144.282 166.028 141.553H163.069Z" stroke="#E5F2F6" stroke-width="5" stroke-linecap="round" stroke-linejoin="round"/>
<path d="M163.069 141.553C163.069 136.276 167.484 131.998 172.931 131.998H175.889C170.443 131.998 166.028 136.276 166.028 141.553H163.069Z" stroke="#E5F2F6" stroke-width="5" stroke-linecap="round" stroke-linejoin="round"/>
<path d="M168.447 162.771V151.067C168.447 150.515 168.895 150.067 169.447 150.067H170.405C170.958 150.067 171.405 150.515 171.405 151.067V162.771C171.405 162.826 171.361 162.871 171.305 162.871H168.547C168.492 162.871 168.447 162.826 168.447 162.771Z" stroke="#E5F2F6" stroke-width="5" stroke-linecap="round" stroke-linejoin="round"/>
<path d="M168.547 162.969C168.528 162.969 168.509 162.964 168.493 162.954C168.446 162.926 168.492 162.871 168.547 162.871H171.305C171.361 162.871 171.404 162.926 171.452 162.954C171.468 162.964 171.486 162.969 171.505 162.969H168.547Z" stroke="#E5F2F6" stroke-width="5" stroke-linecap="round" stroke-linejoin="round"/>
<path d="M168.547 162.969C168.562 162.969 168.578 162.965 168.592 162.958C168.625 162.941 168.657 162.916 168.694 162.916H171.485C171.534 162.916 171.554 162.969 171.505 162.969V162.969H168.547Z" stroke="#E5F2F6" stroke-width="5" stroke-linecap="round" stroke-linejoin="round"/>
<path d="M171.101 150.945C171.693 151.053 172.305 151.109 172.929 151.109H175.888C174.329 151.109 172.854 150.758 171.544 150.134C171.452 150.091 171.353 150.067 171.252 150.067C170.557 150.067 170.418 150.821 171.101 150.945Z" stroke="#E5F2F6" stroke-width="5" stroke-linecap="round" stroke-linejoin="round"/>
<path d="M172.816 154.961L168.713 162.77C168.678 162.836 168.726 162.916 168.801 162.916H171.534C171.571 162.916 171.605 162.896 171.622 162.863L175.726 155.054C175.761 154.988 175.713 154.908 175.637 154.908H172.905C172.868 154.908 172.834 154.928 172.816 154.961Z" stroke="#E5F2F6" stroke-width="5" stroke-linecap="round" stroke-linejoin="round"/>
<path d="M175.888 154.855H172.93C172.881 154.855 172.901 154.908 172.949 154.908H175.74C175.777 154.908 175.81 154.882 175.843 154.866C175.857 154.859 175.872 154.855 175.888 154.855Z" stroke="#E5F2F6" stroke-width="5" stroke-linecap="round" stroke-linejoin="round"/>
<path d="M172.931 154.855C172.946 154.855 172.962 154.859 172.976 154.866C173.009 154.882 173.041 154.908 173.079 154.908H175.869C175.918 154.908 175.938 154.855 175.889 154.855V154.855H172.931Z" stroke="#E5F2F6" stroke-width="5" stroke-linecap="round" stroke-linejoin="round"/>
<path d="M177.2 162.863L173.096 155.054C173.061 154.988 173.11 154.908 173.185 154.908H175.917C175.954 154.908 175.988 154.928 176.006 154.961L180.11 162.77C180.145 162.836 180.096 162.916 180.021 162.916H177.289C177.251 162.916 177.217 162.896 177.2 162.863Z" stroke="#E5F2F6" stroke-width="5" stroke-linecap="round" stroke-linejoin="round"/>
<path d="M172.931 151.109C174.49 151.109 175.964 150.758 177.275 150.134C177.366 150.091 177.466 150.067 177.567 150.067C178.261 150.067 178.4 150.821 177.717 150.945C177.125 151.053 176.514 151.109 175.889 151.109H172.931Z" stroke="#E5F2F6" stroke-width="5" stroke-linecap="round" stroke-linejoin="round"/>
<path d="M180.27 162.969H177.312C177.264 162.969 177.284 162.916 177.332 162.916H180.124C180.161 162.916 180.193 162.941 180.226 162.958C180.24 162.965 180.255 162.969 180.27 162.969Z" stroke="#E5F2F6" stroke-width="5" stroke-linecap="round" stroke-linejoin="round"/>
<path d="M177.314 162.969C177.333 162.969 177.352 162.964 177.368 162.954C177.415 162.926 177.459 162.871 177.514 162.871H180.273C180.328 162.871 180.373 162.926 180.326 162.954C180.31 162.964 180.291 162.969 180.273 162.969H177.314Z" stroke="#E5F2F6" stroke-width="5" stroke-linecap="round" stroke-linejoin="round"/>
<path d="M177.415 151.067V162.771C177.415 162.826 177.459 162.871 177.515 162.871H180.273C180.328 162.871 180.373 162.826 180.373 162.771V151.067C180.373 150.515 179.925 150.067 179.373 150.067H178.415C177.862 150.067 177.415 150.515 177.415 151.067Z" stroke="#E5F2F6" stroke-width="5" stroke-linecap="round" stroke-linejoin="round"/>
<path d="M182.792 141.553C182.792 136.276 178.377 131.998 172.931 131.998H175.889C181.335 131.998 185.75 136.276 185.75 141.553H182.792Z" stroke="#E5F2F6" stroke-width="5" stroke-linecap="round" stroke-linejoin="round"/>
<path d="M179.72 148.485C181.613 146.744 182.793 144.282 182.793 141.553H185.752C185.752 145.213 183.628 148.392 180.51 149.998C180.42 150.044 180.32 150.067 180.219 150.067C179.525 150.067 179.209 148.955 179.72 148.485Z" stroke="#E5F2F6" stroke-width="5" stroke-linecap="round" stroke-linejoin="round"/>
<path d="M168.448 150.067C169.793 150.733 171.317 151.109 172.931 151.109C174.545 151.109 176.068 150.733 177.413 150.067M168.448 150.067C165.255 148.485 163.069 145.266 163.069 141.553C163.069 136.276 167.484 131.998 172.931 131.998C178.377 131.998 182.792 136.276 182.792 141.553C182.792 145.266 180.606 148.485 177.413 150.067M168.448 150.067V162.865C168.448 162.969 168.588 163.004 168.637 162.912L172.842 154.91C172.88 154.838 172.982 154.838 173.019 154.91L177.225 162.912C177.273 163.004 177.413 162.969 177.413 162.865V150.067" stroke="white" stroke-width="5" stroke-linecap="round"/>
<defs>
<filter id="filter0_f_1301_332088" x="0.633179" y="231.877" width="352.474" height="52.1128" filterUnits="userSpaceOnUse" color-interpolation-filters="sRGB">
<feFlood flood-opacity="0" result="BackgroundImageFix"/>
<feBlend mode="normal" in="SourceGraphic" in2="BackgroundImageFix" result="shape"/>
<feGaussianBlur stdDeviation="4" result="effect1_foregroundBlur_1301_332088"/>
</filter>
<filter id="filter1_f_1301_332088" x="92.9594" y="212.516" width="161.337" height="39.9072" filterUnits="userSpaceOnUse" color-interpolation-filters="sRGB">
<feFlood flood-opacity="0" result="BackgroundImageFix"/>
<feBlend mode="normal" in="SourceGraphic" in2="BackgroundImageFix" result="shape"/>
<feGaussianBlur stdDeviation="5" result="effect1_foregroundBlur_1301_332088"/>
</filter>
<filter id="filter2_b_1301_332088" x="91.3812" y="12.063" width="154.926" height="190.365" filterUnits="userSpaceOnUse" color-interpolation-filters="sRGB">
<feFlood flood-opacity="0" result="BackgroundImageFix"/>
<feGaussianBlur in="BackgroundImageFix" stdDeviation="5"/>
<feComposite in2="SourceAlpha" operator="in" result="effect1_backgroundBlur_1301_332088"/>
<feBlend mode="normal" in="SourceGraphic" in2="effect1_backgroundBlur_1301_332088" result="shape"/>
</filter>
<filter id="filter3_d_1301_332088" x="196.348" y="10.4727" width="32.7777" height="50.3994" filterUnits="userSpaceOnUse" color-interpolation-filters="sRGB">
<feFlood flood-opacity="0" result="BackgroundImageFix"/>
<feColorMatrix in="SourceAlpha" type="matrix" values="0 0 0 0 0 0 0 0 0 0 0 0 0 0 0 0 0 0 127 0" result="hardAlpha"/>
<feOffset dx="5" dy="2"/>
<feGaussianBlur stdDeviation="5"/>
<feColorMatrix type="matrix" values="0 0 0 0 0.32339 0 0 0 0 0.157604 0 0 0 0 0.425 0 0 0 0.3 0"/>
<feBlend mode="normal" in2="BackgroundImageFix" result="effect1_dropShadow_1301_332088"/>
<feBlend mode="normal" in="SourceGraphic" in2="effect1_dropShadow_1301_332088" result="shape"/>
</filter>
<radialGradient id="paint0_radial_1301_332088" cx="0" cy="0" r="1" gradientUnits="userSpaceOnUse" gradientTransform="translate(176.87 257.934) rotate(90) scale(18.0563 168.237)">
<stop stop-color="#502F96"/>
<stop offset="1" stop-color="#C4C4C4" stop-opacity="0"/>
</radialGradient>
<radialGradient id="paint1_radial_1301_332088" cx="0" cy="0" r="1" gradientUnits="userSpaceOnUse" gradientTransform="translate(168.518 236.148) rotate(90) scale(118.368 164.518)">
<stop stop-color="#7E32A2"/>
<stop offset="1" stop-color="white" stop-opacity="0"/>
</radialGradient>
<linearGradient id="paint2_linear_1301_332088" x1="176.864" y1="216.184" x2="176.864" y2="245.717" gradientUnits="userSpaceOnUse">
<stop stop-color="white"/>
<stop offset="1" stop-color="#F2FCFF"/>
</linearGradient>
<linearGradient id="paint3_linear_1301_332088" x1="176.864" y1="216.184" x2="176.864" y2="245.717" gradientUnits="userSpaceOnUse">
<stop stop-color="#EBFAFF"/>
<stop offset="1" stop-color="white"/>
</linearGradient>
<radialGradient id="paint4_radial_1301_332088" cx="0" cy="0" r="1" gradientUnits="userSpaceOnUse" gradientTransform="translate(173.628 232.469) rotate(90) scale(8.69781 70.8338)">
<stop stop-color="#3D74B5"/>
<stop offset="1" stop-color="#C4C4C4" stop-opacity="0"/>
</radialGradient>
<linearGradient id="paint5_linear_1301_332088" x1="176.864" y1="242.574" x2="176.864" y2="286.043" gradientUnits="userSpaceOnUse">
<stop stop-color="white"/>
<stop offset="1" stop-color="#EBFAFF"/>
</linearGradient>
<linearGradient id="paint6_linear_1301_332088" x1="387.173" y1="249.336" x2="78.8907" y2="249.336" gradientUnits="userSpaceOnUse">
<stop stop-color="#CED2EF"/>
<stop offset="0.50419" stop-color="#CED2EF" stop-opacity="0"/>
</linearGradient>
<linearGradient id="paint7_linear_1301_332088" x1="212.117" y1="-19.9649" x2="136.833" y2="168.536" gradientUnits="userSpaceOnUse">
<stop stop-color="#DEE5F8"/>
<stop offset="1" stop-color="white"/>
</linearGradient>
<linearGradient id="paint8_linear_1301_332088" x1="244.974" y1="-19.6287" x2="139.693" y2="60.9586" gradientUnits="userSpaceOnUse">
<stop stop-color="#DEE5F8"/>
<stop offset="1" stop-color="white"/>
</linearGradient>
<linearGradient id="paint9_linear_1301_332088" x1="252.355" y1="-46.069" x2="91.6015" y2="49.589" gradientUnits="userSpaceOnUse">
<stop stop-color="white"/>
<stop offset="1" stop-color="#EBF0FF"/>
</linearGradient>
<linearGradient id="paint10_linear_1301_332088" x1="210.278" y1="0" x2="222.536" y2="67.9304" gradientUnits="userSpaceOnUse">
<stop stop-color="#DEE5F8"/>
<stop offset="1" stop-color="#BDBEE3"/>
</linearGradient>
<linearGradient id="paint11_linear_1301_332088" x1="220.605" y1="53.3677" x2="177.411" y2="2.09893" gradientUnits="userSpaceOnUse">
<stop stop-color="white" stop-opacity="0.7"/>
<stop offset="1" stop-color="#A0A3CF"/>
</linearGradient>
<linearGradient id="paint12_linear_1301_332088" x1="210.371" y1="1.5798" x2="211.539" y2="51.1495" gradientUnits="userSpaceOnUse">
<stop stop-color="#F0E3FA"/>
<stop offset="1" stop-color="#EFEDF0"/>
</linearGradient>
<linearGradient id="paint13_linear_1301_332088" x1="262.082" y1="27.416" x2="195.215" y2="39.2922" gradientUnits="userSpaceOnUse">
<stop stop-color="#BDBEE3"/>
<stop offset="1" stop-color="#DEE5F8"/>
</linearGradient>
<linearGradient id="paint14_linear_1301_332088" x1="169.449" y1="77.2705" x2="169.449" y2="160.339" gradientUnits="userSpaceOnUse">
<stop stop-color="#DBE2F6"/>
<stop offset="1" stop-color="#C6C9E9"/>
</linearGradient>
<linearGradient id="paint15_linear_1301_332088" x1="169.449" y1="77.2705" x2="169.449" y2="160.339" gradientUnits="userSpaceOnUse">
<stop stop-color="#C8CAE5"/>
<stop offset="1" stop-color="#ADB1D9"/>
</linearGradient>
<linearGradient id="paint16_linear_1301_332088" x1="166.028" y1="77.2705" x2="166.028" y2="160.339" gradientUnits="userSpaceOnUse">
<stop stop-color="#DBE1F6"/>
<stop offset="1" stop-color="#C5C8E9"/>
</linearGradient>
<linearGradient id="paint17_linear_1301_332088" x1="166.028" y1="77.2705" x2="166.028" y2="160.339" gradientUnits="userSpaceOnUse">
<stop stop-color="#DBE1F6"/>
<stop offset="1" stop-color="#C5C8E9"/>
</linearGradient>
<linearGradient id="paint18_linear_1301_332088" x1="166.028" y1="77.2705" x2="166.028" y2="160.339" gradientUnits="userSpaceOnUse">
<stop stop-color="#DBE1F6"/>
<stop offset="1" stop-color="#C5C8E9"/>
</linearGradient>
<linearGradient id="paint19_linear_1301_332088" x1="131.809" y1="79.7137" x2="185.951" y2="173.031" gradientUnits="userSpaceOnUse">
<stop stop-color="#DDE3F7"/>
<stop offset="1" stop-color="#C2C5E7"/>
</linearGradient>
<linearGradient id="paint20_linear_1301_332088" x1="146.338" y1="74.3387" x2="174.346" y2="174.233" gradientUnits="userSpaceOnUse">
<stop stop-color="#BDC0DF"/>
<stop offset="0.862019" stop-color="#EBEDF6"/>
</linearGradient>
</defs>
</svg>
