<svg width="353" height="355" viewBox="0 0 353 355" fill="none" xmlns="http://www.w3.org/2000/svg">
<ellipse cx="168.411" cy="236.148" rx="164.518" ry="118.368" fill="url(#paint0_radial_1301_332092)" fill-opacity="0.1"/>
<g filter="url(#filter0_f_1301_332092)">
<ellipse cx="176.763" cy="257.934" rx="168.237" ry="18.0563" fill="url(#paint1_radial_1301_332092)" fill-opacity="0.5"/>
</g>
<path d="M77.921 250.139L78.183 253.301L79.0303 255.269L77.921 250.139ZM274.749 252.111L274.489 255.269L275.336 253.301L274.749 252.111ZM78.7704 252.111L79.0303 255.269L81.604 257.16L78.7704 252.111ZM272.168 254.005L271.915 257.16L274.489 255.269L272.168 254.005ZM275.598 250.139L274.749 252.111L275.336 253.301L275.598 250.139ZM81.3508 254.005L81.604 257.16L85.7892 258.954L81.3508 254.005ZM78.7704 252.111L77.921 250.139L79.0303 255.269L78.7704 252.111ZM267.972 255.803L267.73 258.954L271.915 257.16L267.972 255.803ZM274.749 252.111L272.168 254.005L274.489 255.269L274.749 252.111ZM85.5471 255.803L85.7892 258.954L91.4709 260.635L85.5471 255.803ZM81.3508 254.005L78.7704 252.111L81.604 257.16L81.3508 254.005ZM262.275 257.486L262.048 260.635L267.73 258.954L262.275 257.486ZM272.168 254.005L267.972 255.803L271.915 257.16L272.168 254.005ZM91.2438 257.486L91.4709 260.635L98.5332 262.184L91.2438 257.486ZM85.5471 255.803L81.3508 254.005L85.7892 258.954L85.5471 255.803ZM255.194 259.038L254.986 262.184L262.048 260.635L255.194 259.038ZM98.3247 259.038L98.5332 262.184L106.859 263.584L98.3247 259.038ZM267.972 255.803L262.275 257.486L267.73 258.954L267.972 255.803ZM246.846 260.441L246.66 263.584L254.986 262.184L246.846 260.441ZM91.2438 257.486L85.5471 255.803L91.4709 260.635L91.2438 257.486ZM77.6576 246.96L77.921 250.139L78.7704 252.111L77.6576 246.96ZM106.673 260.441L106.859 263.584L116.333 264.817L106.673 260.441ZM275.01 248.936L274.749 252.111L275.598 250.139L275.01 248.936ZM262.275 257.486L255.194 259.038L262.048 260.635L262.275 257.486ZM237.347 261.676L237.186 264.817L246.66 263.584L237.347 261.676ZM98.3247 259.038L91.2438 257.486L98.5332 262.184L98.3247 259.038ZM116.172 261.676L116.333 264.817L126.835 265.866L116.172 261.676ZM226.817 262.727L226.684 265.866L237.186 264.817L226.817 262.727ZM78.5091 248.936L78.7704 252.111L81.3508 254.005L78.5091 248.936ZM255.194 259.038L246.846 260.441L254.986 262.184L255.194 259.038ZM126.702 262.727L126.835 265.866L138.248 266.712L126.702 262.727ZM272.423 250.834L272.168 254.005L274.749 252.111L272.423 250.834ZM106.673 260.441L98.3247 259.038L106.859 263.584L106.673 260.441ZM215.373 263.575L215.271 266.712L226.684 265.866L215.373 263.575ZM138.146 263.575L138.248 266.712L150.453 267.338L138.146 263.575ZM275.862 246.96L275.01 248.936L275.598 250.139L275.862 246.96ZM203.136 264.202L203.066 267.338L215.271 266.712L203.136 264.202ZM246.846 260.441L237.347 261.676L246.66 263.584L246.846 260.441ZM150.383 264.202L150.453 267.338L163.331 267.727L150.383 264.202ZM81.0963 250.834L81.3508 254.005L85.5471 255.803L81.0963 250.834ZM190.224 264.591L190.189 267.727L203.066 267.338L190.224 264.591ZM78.5091 248.936L77.6576 246.96L78.7704 252.111L78.5091 248.936ZM116.172 261.676L106.673 260.441L116.333 264.817L116.172 261.676ZM163.295 264.591L163.331 267.727L176.76 267.86L163.295 264.591ZM176.76 264.725V267.86L190.189 267.727L176.76 264.725ZM268.215 252.634L267.972 255.803L272.168 254.005L268.215 252.634ZM237.347 261.676L226.817 262.727L237.186 264.817L237.347 261.676ZM126.702 262.727L116.172 261.676L126.835 265.866L126.702 262.727ZM275.01 248.936L272.423 250.834L274.749 252.111L275.01 248.936ZM85.3037 252.634L85.5471 255.803L91.2438 257.486L85.3037 252.634ZM226.817 262.727L215.373 263.575L226.684 265.866L226.817 262.727ZM81.0963 250.834L78.5091 248.936L81.3508 254.005L81.0963 250.834ZM138.146 263.575L126.702 262.727L138.248 266.712L138.146 263.575ZM262.504 254.321L262.275 257.486L267.972 255.803L262.504 254.321ZM215.373 263.575L203.136 264.202L215.271 266.712L215.373 263.575ZM150.383 264.202L138.146 263.575L150.453 267.338L150.383 264.202ZM203.136 264.202L190.224 264.591L203.066 267.338L203.136 264.202ZM272.423 250.834L268.215 252.634L272.168 254.005L272.423 250.834ZM163.295 264.591L150.383 264.202L163.331 267.727L163.295 264.591ZM91.0155 254.321L91.2438 257.486L98.3247 259.038L91.0155 254.321ZM190.224 264.591L176.76 264.725L190.189 267.727L190.224 264.591ZM176.76 264.725L163.295 264.591L176.76 267.86V264.725ZM85.3037 252.634L81.0963 250.834L85.5471 255.803L85.3037 252.634ZM255.404 255.876L255.194 259.038L262.275 257.486L255.404 255.876ZM98.1152 255.876L98.3247 259.038L106.673 260.441L98.1152 255.876ZM268.215 252.634L262.504 254.321L267.972 255.803L268.215 252.634ZM247.033 257.281L246.846 260.441L255.194 259.038L247.033 257.281ZM91.0155 254.321L85.3037 252.634L91.2438 257.486L91.0155 254.321ZM77.3928 243.765L77.6576 246.96L78.5091 248.936L77.3928 243.765ZM106.486 257.281L106.673 260.441L116.172 261.676L106.486 257.281ZM275.273 245.744L275.01 248.936L275.862 246.96L275.273 245.744ZM262.504 254.321L255.404 255.876L262.275 257.486L262.504 254.321ZM237.509 258.519L237.347 261.676L246.846 260.441L237.509 258.519ZM98.1152 255.876L91.0155 254.321L98.3247 259.038L98.1152 255.876ZM116.01 258.519L116.172 261.676L126.702 262.727L116.01 258.519ZM226.951 259.571L226.817 262.727L237.347 261.676L226.951 259.571ZM78.2465 245.744L78.5091 248.936L81.0963 250.834L78.2465 245.744ZM255.404 255.876L247.033 257.281L255.194 259.038L255.404 255.876ZM126.568 259.571L126.702 262.727L138.146 263.575L126.568 259.571ZM272.679 247.645L272.423 250.834L275.01 248.936L272.679 247.645ZM106.486 257.281L98.1152 255.876L106.673 260.441L106.486 257.281ZM215.477 260.42L215.373 263.575L226.817 262.727L215.477 260.42ZM138.042 260.42L138.146 263.575L150.383 264.202L138.042 260.42ZM276.126 243.765L275.273 245.744L275.862 246.96L276.126 243.765ZM203.206 261.049L203.136 264.202L215.373 263.575L203.206 261.049ZM247.033 257.281L237.509 258.519L246.846 260.441L247.033 257.281ZM150.313 261.049L150.383 264.202L163.295 264.591L150.313 261.049ZM80.8404 247.645L81.0963 250.834L85.3037 252.634L80.8404 247.645ZM190.26 261.439L190.224 264.591L203.136 264.202L190.26 261.439ZM78.2465 245.744L77.3928 243.765L78.5091 248.936L78.2465 245.744ZM116.01 258.519L106.486 257.281L116.172 261.676L116.01 258.519ZM163.259 261.439L163.295 264.591L176.76 264.725L163.259 261.439ZM176.76 261.573V264.725L190.224 264.591L176.76 261.573ZM268.46 249.449L268.215 252.634L272.423 250.834L268.46 249.449ZM237.509 258.519L226.951 259.571L237.347 261.676L237.509 258.519ZM126.568 259.571L116.01 258.519L126.702 262.727L126.568 259.571ZM275.273 245.744L272.679 247.645L275.01 248.936L275.273 245.744ZM85.0589 249.449L85.3037 252.634L91.0155 254.321L85.0589 249.449ZM226.951 259.571L215.477 260.42L226.817 262.727L226.951 259.571ZM80.8404 247.645L78.2465 245.744L81.0963 250.834L80.8404 247.645ZM138.042 260.42L126.568 259.571L138.146 263.575L138.042 260.42ZM262.733 251.139L262.504 254.321L268.215 252.634L262.733 251.139ZM215.477 260.42L203.206 261.049L215.373 263.575L215.477 260.42ZM150.313 261.049L138.042 260.42L150.383 264.202L150.313 261.049ZM203.206 261.049L190.26 261.439L203.136 264.202L203.206 261.049ZM272.679 247.645L268.46 249.449L272.423 250.834L272.679 247.645ZM163.259 261.439L150.313 261.049L163.295 264.591L163.259 261.439ZM90.7859 251.139L91.0155 254.321L98.1152 255.876L90.7859 251.139ZM190.26 261.439L176.76 261.573L190.224 264.591L190.26 261.439ZM176.76 261.573L163.259 261.439L176.76 264.725V261.573ZM85.0589 249.449L80.8404 247.645L85.3037 252.634L85.0589 249.449ZM255.615 252.696L255.404 255.876L262.504 254.321L255.615 252.696ZM97.9046 252.696L98.1152 255.876L106.486 257.281L97.9046 252.696ZM268.46 249.449L262.733 251.139L268.215 252.634L268.46 249.449ZM247.222 254.104L247.033 257.281L255.404 255.876L247.222 254.104ZM90.7859 251.139L85.0589 249.449L91.0155 254.321L90.7859 251.139ZM77.1266 240.552L77.3928 243.765L78.2465 245.744L77.1266 240.552ZM106.298 254.104L106.486 257.281L116.01 258.519L106.298 254.104ZM275.537 242.535L275.273 245.744L276.126 243.765L275.537 242.535ZM262.733 251.139L255.615 252.696L262.504 254.321L262.733 251.139ZM237.672 255.344L237.509 258.519L247.033 257.281L237.672 255.344ZM97.9046 252.696L90.7859 251.139L98.1152 255.876L97.9046 252.696ZM115.847 255.344L116.01 258.519L126.568 259.571L115.847 255.344ZM227.085 256.398L226.951 259.571L237.509 258.519L227.085 256.398ZM77.9824 242.535L78.2465 245.744L80.8404 247.645L77.9824 242.535ZM255.615 252.696L247.222 254.104L255.404 255.876L255.615 252.696ZM126.434 256.398L126.568 259.571L138.042 260.42L126.434 256.398ZM272.936 244.439L272.679 247.645L275.273 245.744L272.936 244.439ZM106.298 254.104L97.9046 252.696L106.486 257.281L106.298 254.104ZM215.58 257.249L215.477 260.42L226.951 259.571L215.58 257.249ZM137.939 257.249L138.042 260.42L150.313 261.049L137.939 257.249ZM276.393 240.552L275.537 242.535L276.126 243.765L276.393 240.552ZM203.277 257.879L203.206 261.049L215.477 260.42L203.277 257.879ZM247.222 254.104L237.672 255.344L247.033 257.281L247.222 254.104ZM150.242 257.879L150.313 261.049L163.259 261.439L150.242 257.879ZM80.5831 244.439L80.8404 247.645L85.0589 249.449L80.5831 244.439ZM190.297 258.27L190.26 261.439L203.206 261.049L190.297 258.27ZM77.9824 242.535L77.1266 240.552L78.2465 245.744L77.9824 242.535ZM115.847 255.344L106.298 254.104L116.01 258.519L115.847 255.344ZM163.222 258.27L163.259 261.439L176.76 261.573L163.222 258.27ZM176.76 258.404V261.573L190.26 261.439L176.76 258.404ZM268.706 246.247L268.46 249.449L272.679 247.645L268.706 246.247ZM237.672 255.344L227.085 256.398L237.509 258.519L237.672 255.344ZM126.434 256.398L115.847 255.344L126.568 259.571L126.434 256.398ZM275.537 242.535L272.936 244.439L275.273 245.744L275.537 242.535ZM84.8128 246.247L85.0589 249.449L90.7859 251.139L84.8128 246.247ZM227.085 256.398L215.58 257.249L226.951 259.571L227.085 256.398ZM80.5831 244.439L77.9824 242.535L80.8404 247.645L80.5831 244.439ZM137.939 257.249L126.434 256.398L138.042 260.42L137.939 257.249ZM262.964 247.939L262.733 251.139L268.46 249.449L262.964 247.939ZM215.58 257.249L203.277 257.879L215.477 260.42L215.58 257.249ZM150.242 257.879L137.939 257.249L150.313 261.049L150.242 257.879ZM203.277 257.879L190.297 258.27L203.206 261.049L203.277 257.879ZM272.936 244.439L268.706 246.247L272.679 247.645L272.936 244.439ZM163.222 258.27L150.242 257.879L163.259 261.439L163.222 258.27ZM90.5551 247.939L90.7859 251.139L97.9046 252.696L90.5551 247.939ZM190.297 258.27L176.76 258.404L190.26 261.439L190.297 258.27ZM176.76 258.404L163.222 258.27L176.76 261.573V258.404ZM84.8128 246.247L80.5831 244.439L85.0589 249.449L84.8128 246.247ZM255.826 249.5L255.615 252.696L262.733 251.139L255.826 249.5ZM97.6928 249.5L97.9046 252.696L106.298 254.104L97.6928 249.5ZM268.706 246.247L262.964 247.939L268.46 249.449L268.706 246.247ZM247.411 250.91L247.222 254.104L255.615 252.696L247.411 250.91ZM90.5551 247.939L84.8128 246.247L90.7859 251.139L90.5551 247.939ZM76.8589 237.322L77.1266 240.552L77.9824 242.535L76.8589 237.322ZM106.108 250.91L106.298 254.104L115.847 255.344L106.108 250.91ZM275.802 239.309L275.537 242.535L276.393 240.552L275.802 239.309ZM262.964 247.939L255.826 249.5L262.733 251.139L262.964 247.939ZM237.836 252.152L237.672 255.344L247.222 254.104L237.836 252.152ZM97.6928 249.5L90.5551 247.939L97.9046 252.696L97.6928 249.5ZM115.683 252.152L115.847 255.344L126.434 256.398L115.683 252.152ZM227.221 253.208L227.085 256.398L237.672 255.344L227.221 253.208ZM77.7169 239.309L77.9824 242.535L80.5831 244.439L77.7169 239.309ZM255.826 249.5L247.411 250.91L255.615 252.696L255.826 249.5ZM126.298 253.208L126.434 256.398L137.939 257.249L126.298 253.208ZM273.195 241.217L272.936 244.439L275.537 242.535L273.195 241.217ZM106.108 250.91L97.6928 249.5L106.298 254.104L106.108 250.91ZM215.685 254.061L215.58 257.249L227.085 256.398L215.685 254.061ZM137.834 254.061L137.939 257.249L150.242 257.879L137.834 254.061ZM276.66 237.322L275.802 239.309L276.393 240.552L276.66 237.322ZM203.349 254.692L203.277 257.879L215.58 257.249L203.349 254.692ZM247.411 250.91L237.836 252.152L247.222 254.104L247.411 250.91ZM150.17 254.692L150.242 257.879L163.222 258.27L150.17 254.692ZM80.3245 241.217L80.5831 244.439L84.8128 246.247L80.3245 241.217ZM190.333 255.083L190.297 258.27L203.277 257.879L190.333 255.083ZM77.7169 239.309L76.8589 237.322L77.9824 242.535L77.7169 239.309ZM115.683 252.152L106.108 250.91L115.847 255.344L115.683 252.152ZM163.186 255.083L163.222 258.27L176.76 258.404L163.186 255.083ZM176.76 255.218V258.404L190.297 258.27L176.76 255.218ZM268.954 243.027L268.706 246.247L272.936 244.439L268.954 243.027ZM237.836 252.152L227.221 253.208L237.672 255.344L237.836 252.152ZM126.298 253.208L115.683 252.152L126.434 256.398L126.298 253.208ZM275.802 239.309L273.195 241.217L275.537 242.535L275.802 239.309ZM84.5655 243.027L84.8128 246.247L90.5551 247.939L84.5655 243.027ZM227.221 253.208L215.685 254.061L227.085 256.398L227.221 253.208ZM80.3245 241.217L77.7169 239.309L80.5831 244.439L80.3245 241.217ZM137.834 254.061L126.298 253.208L137.939 257.249L137.834 254.061ZM263.196 244.723L262.964 247.939L268.706 246.247L263.196 244.723ZM215.685 254.061L203.349 254.692L215.58 257.249L215.685 254.061ZM150.17 254.692L137.834 254.061L150.242 257.879L150.17 254.692ZM203.349 254.692L190.333 255.083L203.277 257.879L203.349 254.692ZM273.195 241.217L268.954 243.027L272.936 244.439L273.195 241.217ZM163.186 255.083L150.17 254.692L163.222 258.27L163.186 255.083ZM90.323 244.723L90.5551 247.939L97.6928 249.5L90.323 244.723ZM190.333 255.083L176.76 255.218L190.297 258.27L190.333 255.083ZM176.76 255.218L163.186 255.083L176.76 258.404V255.218ZM84.5655 243.027L80.3245 241.217L84.8128 246.247L84.5655 243.027ZM256.039 246.286L255.826 249.5L262.964 247.939L256.039 246.286ZM97.4799 246.286L97.6928 249.5L106.108 250.91L97.4799 246.286ZM268.954 243.027L263.196 244.723L268.706 246.247L268.954 243.027ZM247.601 247.699L247.411 250.91L255.826 249.5L247.601 247.699ZM90.323 244.723L84.5655 243.027L90.5551 247.939L90.323 244.723ZM76.5898 234.075L76.8589 237.322L77.7169 239.309L76.5898 234.075ZM105.918 247.699L106.108 250.91L115.683 252.152L105.918 247.699ZM276.069 236.065L275.802 239.309L276.66 237.322L276.069 236.065ZM263.196 244.723L256.039 246.286L262.964 247.939L263.196 244.723ZM238.001 248.943L237.836 252.152L247.411 250.91L238.001 248.943Z" fill="#B0B0B0"/>
<path d="M190.331 216.317L176.756 216.184L163.182 216.317H190.331Z" fill="#C4C4C4"/>
<path d="M97.4773 246.286L90.3205 244.723L97.6902 249.5L97.4773 246.286Z" fill="#B0B0B0"/>
<path d="M215.707 217.33L190.331 216.317H163.182L215.707 217.33Z" fill="#C4C4C4"/>
<path d="M115.514 248.944L115.679 252.153L126.294 253.209L115.514 248.944Z" fill="#B0B0B0"/>
<path d="M163.183 216.317L150.161 216.705L137.807 217.33L163.183 216.317ZM215.709 217.33L203.355 216.705L190.333 216.317L215.709 217.33Z" fill="#C4C4C4"/>
<path d="M227.354 250.001L227.218 253.208L237.833 252.152L227.354 250.001ZM77.4474 236.065L77.7143 239.309L80.3219 241.217L77.4474 236.065ZM256.037 246.286L247.599 247.699L255.824 249.5L256.037 246.286Z" fill="#B0B0B0"/>
<path d="M163.183 216.317L137.806 217.33L115.577 219.222L163.183 216.317ZM215.708 217.33L163.183 216.317L115.577 219.222L215.708 217.33Z" fill="#C4C4C4"/>
<path d="M126.157 250.002L126.293 253.209L137.829 254.062L126.157 250.002ZM273.449 237.977L273.189 241.217L275.797 239.31L273.449 237.977ZM105.913 247.7L97.4746 246.287L106.103 250.911L105.913 247.7ZM215.785 250.856L215.68 254.062L227.215 253.209L215.785 250.856Z" fill="#B0B0B0"/>
<path d="M137.806 217.329L126.239 218.174L115.577 219.222L137.806 217.329ZM237.938 219.222L227.275 218.174L215.708 217.329L237.938 219.222Z" fill="#C4C4C4"/>
<path d="M137.729 250.855L137.834 254.061L150.17 254.692L137.729 250.855ZM276.929 234.075L276.069 236.065L276.66 237.322L276.929 234.075ZM203.42 251.487L203.349 254.692L215.685 254.061L203.42 251.487ZM247.601 247.699L238.001 248.943L247.411 250.91L247.601 247.699ZM150.099 251.487L150.17 254.692L163.186 255.083L150.099 251.487ZM80.0645 237.976L80.3245 241.217L84.5655 243.027L80.0645 237.976ZM190.37 251.88L190.333 255.083L203.349 254.692L190.37 251.88ZM77.45 236.065L76.5898 234.075L77.7169 239.309L77.45 236.065ZM115.519 248.943L105.918 247.699L115.683 252.152L115.519 248.943ZM163.149 251.88L163.186 255.083L176.76 255.218L163.149 251.88ZM176.76 252.014V255.218L190.333 255.083L176.76 252.014Z" fill="#B0B0B0"/>
<path d="M256.071 221.859L237.935 219.222L215.705 217.329L256.071 221.859Z" fill="#C4C4C4"/>
<path d="M269.198 239.79L268.949 243.027L273.19 241.217L269.198 239.79ZM237.996 248.943L227.352 250.001L237.832 252.152L237.996 248.943ZM126.158 250.001L115.514 248.943L126.294 253.208L126.158 250.001ZM276.065 236.065L273.45 237.976L275.798 239.309L276.065 236.065Z" fill="#B0B0B0"/>
<path d="M115.576 219.222L105.937 220.456L97.4402 221.858L115.576 219.222ZM256.073 221.858L247.577 220.456L237.937 219.222L256.073 221.858Z" fill="#C4C4C4"/>
<path d="M84.3142 239.79L84.5629 243.027L90.3205 244.723L84.3142 239.79ZM227.354 250.001L215.787 250.855L227.218 253.208L227.354 250.001ZM80.0619 237.976L77.4474 236.065L80.3219 241.217L80.0619 237.976ZM137.727 250.855L126.16 250.001L137.832 254.061L137.727 250.855ZM263.427 241.489L263.193 244.723L268.951 243.027L263.427 241.489ZM215.787 250.855L203.418 251.487L215.682 254.061L215.787 250.855Z" fill="#B0B0B0"/>
<path d="M276.226 228.819L215.708 217.329L115.577 219.222L276.226 228.819Z" fill="#C4C4C4"/>
<path d="M150.098 251.487L137.729 250.855L150.17 254.692L150.098 251.487Z" fill="#B0B0B0"/>
<path d="M115.577 219.222L97.441 221.858L84.3556 225.103L115.577 219.222Z" fill="#C4C4C4"/>
<path d="M203.419 251.488L190.368 251.88L203.347 254.692L203.419 251.488ZM273.453 237.977L269.201 239.791L273.193 241.217L273.453 237.977ZM163.148 251.88L150.097 251.488L163.184 255.084L163.148 251.88ZM90.088 241.49L90.3213 244.724L97.4781 246.287L90.088 241.49ZM190.368 251.88L176.758 252.015L190.331 255.084L190.368 251.88ZM176.758 252.015L163.148 251.88L176.758 255.218V252.015Z" fill="#B0B0B0"/>
<path d="M276.223 228.819L256.071 221.859L215.705 217.329L276.223 228.819Z" fill="#C4C4C4"/>
<path d="M84.3108 239.791L80.0586 237.977L84.5596 243.028L84.3108 239.791ZM256.247 243.056L256.033 246.287L263.19 244.724L256.247 243.056Z" fill="#B0B0B0"/>
<path d="M97.441 221.859L90.2067 223.414L84.3556 225.103L97.441 221.859ZM269.159 225.103L263.308 223.414L256.074 221.859L269.159 225.103Z" fill="#C4C4C4"/>
<path d="M97.2638 243.055L97.4779 246.286L105.916 247.699L97.2638 243.055ZM269.2 239.79L263.427 241.489L268.952 243.027L269.2 239.79ZM247.791 244.471L247.599 247.699L256.037 246.286L247.791 244.471ZM90.0878 241.489L84.3148 239.79L90.3211 244.723L90.0878 241.489ZM76.3173 230.811L76.5879 234.075L77.448 236.066L76.3173 230.811ZM105.725 244.471L105.916 247.699L115.517 248.943L105.725 244.471Z" fill="#B0B0B0"/>
<path d="M276.225 228.819L269.158 225.103L256.072 221.859L276.225 228.819Z" fill="#C4C4C4"/>
<path d="M276.335 232.804L276.067 236.065L276.927 234.075L276.335 232.804ZM263.427 241.489L256.251 243.055L263.193 244.723L263.427 241.489ZM238.164 245.717L237.998 248.943L247.599 247.699L238.164 245.717Z" fill="#B0B0B0"/>
<path d="M115.573 219.222L84.3518 225.103L77.1758 232.804L115.573 219.222Z" fill="#C4C4C4"/>
<path d="M97.2599 243.055L90.0839 241.489L97.474 246.286L97.2599 243.055ZM115.347 245.717L115.513 248.943L126.156 250.001L115.347 245.717ZM227.488 246.777L227.351 250.001L237.995 248.943L227.488 246.777ZM77.1758 232.804L77.4441 236.065L80.0586 237.976L77.1758 232.804Z" fill="#B0B0B0"/>
<path d="M84.3543 225.103L80.0076 226.911L77.2873 228.819L84.3543 225.103ZM276.225 228.819L273.505 226.911L269.158 225.103L276.225 228.819Z" fill="#C4C4C4"/>
<path d="M256.251 243.055L247.791 244.471L256.037 246.286L256.251 243.055ZM126.024 246.777L126.16 250.002L137.727 250.856L126.024 246.777ZM273.714 234.719L273.453 237.976L276.067 236.066L273.714 234.719ZM105.725 244.471L97.2638 243.055L105.916 247.699L105.725 244.471ZM215.893 247.633L215.788 250.856L227.355 250.002L215.893 247.633ZM137.622 247.633L137.727 250.856L150.097 251.488L137.622 247.633ZM277.198 230.811L276.336 232.804L276.927 234.075L277.198 230.811ZM203.49 248.266L203.418 251.488L215.788 250.856L203.49 248.266ZM247.791 244.471L238.164 245.717L247.599 247.699L247.791 244.471ZM150.025 248.266L150.097 251.488L163.147 251.88L150.025 248.266ZM79.801 234.719L80.0625 237.976L84.3148 239.79L79.801 234.719ZM190.404 248.659L190.368 251.88L203.418 251.488L190.404 248.659ZM77.1796 232.804L76.3173 230.811L77.448 236.066L77.1796 232.804Z" fill="#B0B0B0"/>
<path d="M84.3518 225.103L77.2848 228.819L77.1758 232.804L84.3518 225.103Z" fill="#C4C4C4"/>
<path d="M115.347 245.717L105.721 244.47L115.513 248.943L115.347 245.717ZM163.107 248.659L163.144 251.88L176.754 252.014L163.107 248.659ZM176.754 248.794V252.014L190.364 251.88L176.754 248.794ZM269.447 236.536L269.196 239.79L273.449 237.976L269.447 236.536ZM238.16 245.717L227.488 246.777L237.995 248.943L238.16 245.717ZM126.02 246.777L115.347 245.717L126.156 250.001L126.02 246.777ZM276.332 232.804L273.71 234.719L276.063 236.065L276.332 232.804ZM84.0608 236.536L84.3109 239.79L90.0839 241.489L84.0608 236.536ZM227.488 246.777L215.889 247.633L227.351 250.001L227.488 246.777ZM79.7972 234.719L77.1758 232.804L80.0586 237.976L79.7972 234.719Z" fill="#B0B0B0"/>
<path d="M115.577 219.222L137.516 244.392L276.226 228.819L115.577 219.222ZM276.336 232.804L277.198 230.81L276.226 228.819L276.336 232.804ZM77.2887 228.819L76.3173 230.81L77.1796 232.804L77.2887 228.819Z" fill="#C4C4C4"/>
<path d="M137.624 247.633L126.026 246.778L137.73 250.856L137.624 247.633ZM263.664 238.238L263.43 241.49L269.203 239.791L263.664 238.238ZM215.896 247.633L203.493 248.266L215.79 250.856L215.896 247.633ZM150.027 248.266L137.624 247.633L150.099 251.488L150.027 248.266ZM203.493 248.266L190.407 248.659L203.421 251.488L203.493 248.266ZM273.716 234.719L269.453 236.536L273.455 237.977L273.716 234.719Z" fill="#B0B0B0"/>
<path d="M115.573 219.222L77.1758 232.804L137.512 244.392L115.573 219.222Z" fill="#C4C4C4"/>
<path d="M163.111 248.659L150.025 248.266L163.147 251.88L163.111 248.659ZM89.8531 238.238L90.0877 241.49L97.2637 243.056L89.8531 238.238ZM190.404 248.659L176.757 248.794L190.368 251.88L190.404 248.659ZM176.757 248.794L163.111 248.659L176.757 252.015V248.794ZM84.0646 236.536L79.801 234.719L84.3147 239.791L84.0646 236.536Z" fill="#B0B0B0"/>
<path d="M269.452 236.536L276.337 232.804L276.228 228.819L269.452 236.536Z" fill="#C4C4C4"/>
<path d="M256.462 239.806L256.247 243.055L263.423 241.489L256.462 239.806ZM97.0444 239.806L97.2596 243.055L105.72 244.47L97.0444 239.806ZM269.446 236.536L263.658 238.238L269.196 239.79L269.446 236.536ZM247.979 241.224L247.786 244.47L256.247 243.055L247.979 241.224ZM89.849 238.238L84.0605 236.536L90.0836 241.489L89.849 238.238Z" fill="#B0B0B0"/>
<path d="M269.447 236.536L273.71 234.719L276.332 232.804L269.447 236.536ZM77.1758 232.804L79.7972 234.719L84.0608 236.536L77.1758 232.804Z" fill="#C4C4C4"/>
<path d="M105.532 241.225L105.724 244.471L115.351 245.717L105.532 241.225ZM263.662 238.238L256.466 239.807L263.427 241.489L263.662 238.238ZM238.33 242.473L238.164 245.717L247.79 244.471L238.33 242.473Z" fill="#B0B0B0"/>
<path d="M238.326 242.473L269.446 236.536L276.222 228.819L238.326 242.473Z" fill="#C4C4C4"/>
<path d="M97.049 239.807L89.8536 238.238L97.2642 243.055L97.049 239.807ZM115.185 242.473L115.351 245.717L126.024 246.777L115.185 242.473Z" fill="#B0B0B0"/>
<path d="M77.1758 232.804L84.0608 236.536L97.0447 239.806L77.1758 232.804Z" fill="#C4C4C4"/>
<path d="M227.628 243.535L227.491 246.777L238.163 245.717L227.628 243.535ZM256.466 239.806L247.982 241.224L256.25 243.055L256.466 239.806ZM125.885 243.535L126.023 246.777L137.621 247.632L125.885 243.535ZM105.531 241.224L97.0477 239.806L105.724 244.47L105.531 241.224ZM215.999 244.392L215.892 247.632L227.491 246.777L215.999 244.392ZM137.515 244.392L137.621 247.632L150.024 248.265L137.515 244.392Z" fill="#B0B0B0"/>
<path d="M256.462 239.806L263.658 238.238L269.446 236.536L256.462 239.806ZM84.0605 236.536L89.849 238.238L97.0444 239.806L84.0605 236.536Z" fill="#C4C4C4"/>
<path d="M203.559 245.026L203.486 248.266L215.889 247.632L203.559 245.026ZM247.979 241.224L238.326 242.473L247.786 244.47L247.979 241.224Z" fill="#B0B0B0"/>
<path d="M137.512 244.392L238.326 242.473L276.222 228.819L137.512 244.392Z" fill="#C4C4C4"/>
<path d="M149.952 245.026L150.024 248.266L163.11 248.658L149.952 245.026ZM190.441 245.42L190.404 248.658L203.49 248.266L190.441 245.42ZM115.184 242.473L105.532 241.224L115.351 245.717L115.184 242.473ZM163.073 245.42L163.11 248.658L176.757 248.793L163.073 245.42ZM176.757 245.555V248.793L190.404 248.658L176.757 245.555Z" fill="#B0B0B0"/>
<path d="M77.1758 232.804L97.0447 239.806L137.512 244.392L77.1758 232.804Z" fill="#C4C4C4"/>
<path d="M238.33 242.473L227.629 243.535L238.164 245.717L238.33 242.473Z" fill="#B0B0B0"/>
<path d="M238.326 242.473L256.462 239.806L269.446 236.536L238.326 242.473Z" fill="#C4C4C4"/>
<path d="M125.888 243.535L115.186 242.473L126.025 246.777L125.888 243.535ZM227.631 243.535L216.001 244.392L227.493 246.777L227.631 243.535ZM137.517 244.392L125.888 243.535L137.623 247.632L137.517 244.392Z" fill="#B0B0B0"/>
<path d="M238.33 242.473L247.982 241.224L256.466 239.806L238.33 242.473ZM97.0477 239.806L105.531 241.224L115.184 242.473L97.0477 239.806Z" fill="#C4C4C4"/>
<path d="M215.995 244.393L203.559 245.027L215.889 247.633L215.995 244.393ZM149.948 245.027L137.512 244.393L150.021 248.266L149.948 245.027ZM203.559 245.027L190.437 245.421L203.486 248.266L203.559 245.027ZM163.07 245.421L149.948 245.027L163.107 248.659L163.07 245.421ZM190.437 245.421L176.754 245.556L190.4 248.659L190.437 245.421ZM176.754 245.556L163.07 245.421L176.754 248.794V245.556Z" fill="#B0B0B0"/>
<path d="M97.0477 239.806L115.184 242.473L137.515 244.392L97.0477 239.806ZM115.184 242.473L125.885 243.535L137.515 244.392L115.184 242.473ZM215.999 244.392L227.628 243.535L238.33 242.473L215.999 244.392ZM190.441 245.42L215.999 244.392L238.33 242.473L190.441 245.42ZM137.515 244.392L190.441 245.42L238.33 242.473L137.515 244.392ZM190.441 245.42L203.562 245.026L215.999 244.392L190.441 245.42ZM137.515 244.392L149.951 245.026L163.073 245.42L137.515 244.392ZM137.515 244.392L163.073 245.42H190.441L137.515 244.392ZM163.073 245.42L176.757 245.555L190.441 245.42H163.073Z" fill="#C4C4C4"/>
<path d="M276.448 230.951C276.448 231.601 275.995 232.401 274.72 233.318C273.467 234.218 271.572 235.116 269.058 235.99C264.042 237.734 256.741 239.317 247.67 240.65C229.54 243.316 204.469 244.967 176.758 244.967C149.047 244.967 123.975 243.316 105.845 240.65C96.7739 239.317 89.4734 237.734 84.4567 235.99C81.9436 235.116 80.0482 234.218 78.7955 233.318C77.5197 232.401 77.0673 231.601 77.0673 230.951C77.0673 230.3 77.5197 229.5 78.7955 228.584C80.0482 227.684 81.9436 226.785 84.4567 225.911C89.4734 224.167 96.7739 222.585 105.845 221.251C123.975 218.586 149.047 216.934 176.758 216.934C204.469 216.934 229.54 218.586 247.67 221.251C256.741 222.585 264.042 224.167 269.058 225.911C271.572 226.785 273.467 227.684 274.72 228.584C275.995 229.5 276.448 230.3 276.448 230.951Z" fill="url(#paint2_linear_1301_332092)" stroke="url(#paint3_linear_1301_332092)" stroke-width="1.5"/>
<g filter="url(#filter1_f_1301_332092)">
<ellipse cx="173.521" cy="232.469" rx="70.8338" ry="8.69781" transform="rotate(3.94448 173.521 232.469)" fill="url(#paint4_radial_1301_332092)" fill-opacity="0.25"/>
</g>
<path fill-rule="evenodd" clip-rule="evenodd" d="M97.2639 243.057L97.4779 246.287L105.916 247.7L115.51 248.943L115.513 248.944L115.512 248.944V248.944L115.512 248.944L105.914 247.7L106.104 250.911L106.103 250.911L105.913 247.7L97.4752 246.287L97.4752 246.287L97.476 246.287L97.4743 246.286L97.2603 243.056L97.2602 243.056L97.2602 243.056L97.2606 243.056L97.2606 243.056L97.2639 243.057ZM89.8517 238.239L89.851 238.239L89.851 238.239L89.85 238.239L89.85 238.239L84.0625 236.537L84.0624 236.537L79.8031 234.722L79.801 234.719L79.8012 234.721L79.7988 234.72L79.8013 234.723L80.0625 237.977L84.3104 239.789L84.3112 239.79L84.3113 239.791L84.3121 239.792L84.5607 243.028L84.5583 243.025L84.3099 239.791L80.0618 237.979L80.0605 237.978L80.0606 237.979L80.0598 237.978L80.0597 237.977L80.0589 237.977L79.7976 234.72L77.1799 232.808L77.1796 232.805L76.3173 230.811L76.5879 234.076L77.4437 236.056L77.4442 236.063L76.5859 234.077L76.855 237.324L77.1226 240.554L77.3889 243.766L77.6536 246.962L77.917 250.14L78.179 253.302L79.0263 255.271L81.6 257.161L85.7853 258.956L91.467 260.636L98.5292 262.185L106.856 263.585L116.329 264.819L126.831 265.867L138.245 266.714L150.45 267.34L163.327 267.728L176.756 267.862L190.185 267.728L203.062 267.34L215.267 266.714L226.68 265.867L237.182 264.819L246.656 263.585L254.982 262.185L262.044 260.636L267.726 258.956L271.911 257.161L274.485 255.271L275.332 253.302L275.594 250.14L275.858 246.962L276.122 243.766L276.389 240.554L276.656 237.324L276.925 234.08L276.927 234.076L276.335 232.805L276.067 236.063L276.066 236.065L276.064 236.064L276.332 232.805L273.711 234.72L273.712 234.72L269.45 236.537L273.449 237.976L273.448 237.977L269.447 236.537L269.447 236.537L269.447 236.537L263.659 238.239L263.659 238.239L256.466 239.807L263.426 241.49L263.661 238.239L263.662 238.24L263.427 241.49L263.427 241.49L263.428 241.49L268.947 243.026L268.947 243.028L263.427 241.491L263.427 241.49L263.426 241.49L263.425 241.49L263.425 241.49L256.251 243.056L263.424 241.49L256.465 239.808L256.465 239.807L256.464 239.808L256.463 239.808L247.981 241.225L256.248 243.056L256.248 243.056L247.98 241.225L247.787 244.471L247.787 244.471L247.979 241.225L238.328 242.474L238.327 242.474L238.327 242.474L227.628 243.536L227.628 243.536L227.627 243.536L215.999 244.393L227.49 246.778L227.49 246.778L215.998 244.393L215.892 247.634L215.89 247.634L215.887 247.634L215.89 247.634L215.887 247.633L215.994 244.394L203.56 245.028L203.559 245.028L203.557 245.028L190.441 245.421L190.441 245.421L190.436 245.421L176.758 245.557L176.757 245.556V245.557L176.752 245.557L163.074 245.422L163.073 245.421V245.422L163.068 245.421L149.953 245.028L149.951 245.028L149.951 245.028L149.946 245.028L137.516 244.394L137.515 244.394L137.515 244.393L125.885 243.536L115.184 242.474L126.022 246.778L126.022 246.778L126.024 246.778L126.024 246.778L126.16 250.002L137.726 250.856L137.727 250.856L137.727 250.856L137.622 247.634L137.622 247.634L137.727 250.856L150.095 251.488L150.097 251.488L150.097 251.488L150.025 248.267L150.025 248.268L150.097 251.488L163.143 251.88L163.144 251.88L163.144 251.881L150.095 251.489L163.182 255.084V255.085L150.095 251.489L150.167 254.693L150.166 254.693L150.094 251.489L137.726 250.857L137.725 250.857L137.725 250.857L137.725 250.857L137.725 250.856L126.158 250.002L137.83 254.062L137.725 250.857L137.725 250.857L137.83 254.062L126.294 253.21L115.679 252.154L115.679 252.153L126.29 253.209L126.291 253.209L126.292 253.209L126.155 250.002L126.157 250.003L126.02 246.778L126.02 246.778L115.184 242.476L115.184 242.474L105.531 241.225L105.724 244.471L105.723 244.471L105.531 241.225L97.047 239.807L105.721 244.47L105.719 244.47L97.0454 239.808L97.2606 243.056L97.2601 243.055L97.045 239.808L89.8517 238.239ZM125.885 243.536L137.62 247.633L137.62 247.634L125.885 243.536L125.885 243.536ZM150.019 248.265L149.946 245.028L149.951 245.029L150.024 248.267L150.025 248.267L150.025 248.267L150.024 248.267V248.267L150.023 248.267L150.019 248.265ZM163.103 248.659L150.026 248.267L150.027 248.267L163.104 248.66L163.103 248.659ZM163.105 248.66L163.107 248.66L163.108 248.66V248.66L176.754 252.015V252.015L163.108 248.66L176.751 248.795L176.75 248.794L163.11 248.66L163.073 245.423L163.068 245.421L163.105 248.658L163.11 248.66L163.105 248.659L163.105 248.66ZM176.752 248.794V248.795L176.754 248.795L176.755 248.795V248.795L190.364 251.881L176.755 252.015L176.756 252.015V252.016L190.329 255.085L190.329 255.084L176.756 252.015L190.366 251.881L190.366 251.881L203.345 254.693L203.345 254.693L190.366 251.881L203.417 251.489L203.416 251.489L215.68 254.062L215.681 254.062L227.217 253.21L237.832 252.154L237.997 248.945L247.597 247.7L255.822 249.501L256.035 246.288L263.192 244.724L263.193 244.724L268.95 243.029L268.952 243.028L273.191 241.218L273.191 241.218L275.798 239.311L276.065 236.068L276.062 236.07L275.795 239.309L275.797 239.31L273.191 241.217L273.191 241.218L273.19 241.217L273.189 241.218L273.189 241.217L269.2 239.792L269.2 239.793L273.188 241.218L268.952 243.026L268.952 243.028L268.949 243.027L268.948 243.028L268.949 243.028L263.194 244.723L263.193 244.724L263.192 244.724L263.191 244.724L263.191 244.723L256.251 243.056L256.251 243.057L263.189 244.724L256.037 246.286L256.037 246.287L256.035 246.287L255.822 249.501L247.597 247.7L237.998 248.944L238.163 245.718L247.598 247.7L247.599 247.7L238.165 245.718L238.164 245.718L238.163 245.718L238.329 242.475L238.328 242.475L238.162 245.718L238.163 245.718L238.161 245.718L237.995 248.944L237.994 248.945L237.829 252.153L237.831 252.153H237.829L227.216 253.209L215.785 250.856L215.785 250.857L227.215 253.21L215.68 254.062L215.68 254.062L215.68 254.062L203.417 251.489L203.416 251.488L203.417 251.488L203.417 251.488L190.368 251.88L190.404 248.66V248.66L190.404 248.66L190.441 245.423L190.436 245.421L190.399 248.658L190.404 248.66L190.399 248.66V248.66L190.398 248.66L176.757 248.794V245.558L176.752 245.557V248.793L176.757 248.794L176.752 248.794ZM190.399 248.66L190.402 248.66L190.365 251.881L176.755 248.795L190.399 248.66ZM203.484 248.267L190.405 248.66L190.406 248.66L203.485 248.267L203.49 248.267L203.418 251.488L203.418 251.488L203.49 248.267L203.49 248.266L203.489 248.267L203.49 248.267L203.487 248.267L203.485 248.267L203.485 248.267L203.484 248.267ZM203.485 248.266L203.557 245.028L203.559 245.028L203.487 248.266L203.485 248.266ZM215.887 247.634L203.491 248.266L203.492 248.267L215.887 247.634L215.887 247.634ZM256.248 243.056L256.251 243.056L256.251 243.056L256.25 243.056L256.249 243.056L256.248 243.056ZM115.347 245.718L105.726 244.472L105.727 244.472L115.347 245.718L115.347 245.718ZM89.85 238.239L89.851 238.24L90.0854 241.489L90.0845 241.489L89.85 238.239ZM97.2594 243.056L97.26 243.056L90.0879 241.491L90.0878 241.491L97.2594 243.056ZM90.082 241.488L84.0625 236.538L84.0625 236.538L90.0814 241.488L90.082 241.488ZM215.893 247.634L215.893 247.634L215.788 250.856L215.893 247.634ZM269.2 239.791L269.2 239.791L273.449 237.978L273.449 237.978L269.198 239.791L269.2 239.791ZM90.319 244.722L84.3176 239.793L84.3128 239.792L90.3183 244.724L84.5612 243.028L84.5615 243.029L90.3191 244.724L97.6889 249.501L97.476 246.288L97.4752 246.288L97.6881 249.501L90.3183 244.724L90.3192 244.724L90.319 244.722ZM163.146 251.881V251.881L176.756 255.219V255.219L163.146 251.881ZM80.06 237.98L80.3198 241.217L80.3206 241.218L80.0608 237.981L80.06 237.98ZM126.293 253.21L126.157 250.003L137.829 254.062L126.293 253.21ZM276.335 232.805L277.198 230.811L276.927 234.076L276.335 232.805Z" fill="url(#paint5_linear_1301_332092)"/>
<path fill-rule="evenodd" clip-rule="evenodd" d="M97.2639 243.057L97.4779 246.287L105.916 247.7L115.51 248.943L115.513 248.944L115.512 248.944V248.944L115.512 248.944L105.914 247.7L106.104 250.911L106.103 250.911L105.913 247.7L97.4752 246.287L97.4752 246.287L97.476 246.287L97.4743 246.286L97.2603 243.056L97.2602 243.056L97.2602 243.056L97.2606 243.056L97.2606 243.056L97.2639 243.057ZM89.8517 238.239L89.851 238.239L89.851 238.239L89.85 238.239L89.85 238.239L84.0625 236.537L84.0624 236.537L79.8031 234.722L79.801 234.719L79.8012 234.721L79.7988 234.72L79.8013 234.723L80.0625 237.977L84.3104 239.789L84.3112 239.79L84.3113 239.791L84.3121 239.792L84.5607 243.028L84.5583 243.025L84.3099 239.791L80.0618 237.979L80.0605 237.978L80.0606 237.979L80.0598 237.978L80.0597 237.977L80.0589 237.977L79.7976 234.72L77.1799 232.808L77.1796 232.805L76.3173 230.811L76.5879 234.076L77.4437 236.056L77.4442 236.063L76.5859 234.077L76.855 237.324L77.1226 240.554L77.3889 243.766L77.6536 246.962L77.917 250.14L78.179 253.302L79.0263 255.271L81.6 257.161L85.7853 258.956L91.467 260.636L98.5292 262.185L106.856 263.585L116.329 264.819L126.831 265.867L138.245 266.714L150.45 267.34L163.327 267.728L176.756 267.862L190.185 267.728L203.062 267.34L215.267 266.714L226.68 265.867L237.182 264.819L246.656 263.585L254.982 262.185L262.044 260.636L267.726 258.956L271.911 257.161L274.485 255.271L275.332 253.302L275.594 250.14L275.858 246.962L276.122 243.766L276.389 240.554L276.656 237.324L276.925 234.08L276.927 234.076L276.335 232.805L276.067 236.063L276.066 236.065L276.064 236.064L276.332 232.805L273.711 234.72L273.712 234.72L269.45 236.537L273.449 237.976L273.448 237.977L269.447 236.537L269.447 236.537L269.447 236.537L263.659 238.239L263.659 238.239L256.466 239.807L263.426 241.49L263.661 238.239L263.662 238.24L263.427 241.49L263.427 241.49L263.428 241.49L268.947 243.026L268.947 243.028L263.427 241.491L263.427 241.49L263.426 241.49L263.425 241.49L263.425 241.49L256.251 243.056L263.424 241.49L256.465 239.808L256.465 239.807L256.464 239.808L256.463 239.808L247.981 241.225L256.248 243.056L256.248 243.056L247.98 241.225L247.787 244.471L247.787 244.471L247.979 241.225L238.328 242.474L238.327 242.474L238.327 242.474L227.628 243.536L227.628 243.536L227.627 243.536L215.999 244.393L227.49 246.778L227.49 246.778L215.998 244.393L215.892 247.634L215.89 247.634L215.887 247.634L215.89 247.634L215.887 247.633L215.994 244.394L203.56 245.028L203.559 245.028L203.557 245.028L190.441 245.421L190.441 245.421L190.436 245.421L176.758 245.557L176.757 245.556V245.557L176.752 245.557L163.074 245.422L163.073 245.421V245.422L163.068 245.421L149.953 245.028L149.951 245.028L149.951 245.028L149.946 245.028L137.516 244.394L137.515 244.394L137.515 244.393L125.885 243.536L115.184 242.474L126.022 246.778L126.022 246.778L126.024 246.778L126.024 246.778L126.16 250.002L137.726 250.856L137.727 250.856L137.727 250.856L137.622 247.634L137.622 247.634L137.727 250.856L150.095 251.488L150.097 251.488L150.097 251.488L150.025 248.267L150.025 248.268L150.097 251.488L163.143 251.88L163.144 251.88L163.144 251.881L150.095 251.489L163.182 255.084V255.085L150.095 251.489L150.167 254.693L150.166 254.693L150.094 251.489L137.726 250.857L137.725 250.857L137.725 250.857L137.725 250.857L137.725 250.856L126.158 250.002L137.83 254.062L137.725 250.857L137.725 250.857L137.83 254.062L126.294 253.21L115.679 252.154L115.679 252.153L126.29 253.209L126.291 253.209L126.292 253.209L126.155 250.002L126.157 250.003L126.02 246.778L126.02 246.778L115.184 242.476L115.184 242.474L105.531 241.225L105.724 244.471L105.723 244.471L105.531 241.225L97.047 239.807L105.721 244.47L105.719 244.47L97.0454 239.808L97.2606 243.056L97.2601 243.055L97.045 239.808L89.8517 238.239ZM125.885 243.536L137.62 247.633L137.62 247.634L125.885 243.536L125.885 243.536ZM150.019 248.265L149.946 245.028L149.951 245.029L150.024 248.267L150.025 248.267L150.025 248.267L150.024 248.267V248.267L150.023 248.267L150.019 248.265ZM163.103 248.659L150.026 248.267L150.027 248.267L163.104 248.66L163.103 248.659ZM163.105 248.66L163.107 248.66L163.108 248.66V248.66L176.754 252.015V252.015L163.108 248.66L176.751 248.795L176.75 248.794L163.11 248.66L163.073 245.423L163.068 245.421L163.105 248.658L163.11 248.66L163.105 248.659L163.105 248.66ZM176.752 248.794V248.795L176.754 248.795L176.755 248.795V248.795L190.364 251.881L176.755 252.015L176.756 252.015V252.016L190.329 255.085L190.329 255.084L176.756 252.015L190.366 251.881L190.366 251.881L203.345 254.693L203.345 254.693L190.366 251.881L203.417 251.489L203.416 251.489L215.68 254.062L215.681 254.062L227.217 253.21L237.832 252.154L237.997 248.945L247.597 247.7L255.822 249.501L256.035 246.288L263.192 244.724L263.193 244.724L268.95 243.029L268.952 243.028L273.191 241.218L273.191 241.218L275.798 239.311L276.065 236.068L276.062 236.07L275.795 239.309L275.797 239.31L273.191 241.217L273.191 241.218L273.19 241.217L273.189 241.218L273.189 241.217L269.2 239.792L269.2 239.793L273.188 241.218L268.952 243.026L268.952 243.028L268.949 243.027L268.948 243.028L268.949 243.028L263.194 244.723L263.193 244.724L263.192 244.724L263.191 244.724L263.191 244.723L256.251 243.056L256.251 243.057L263.189 244.724L256.037 246.286L256.037 246.287L256.035 246.287L255.822 249.501L247.597 247.7L237.998 248.944L238.163 245.718L247.598 247.7L247.599 247.7L238.165 245.718L238.164 245.718L238.163 245.718L238.329 242.475L238.328 242.475L238.162 245.718L238.163 245.718L238.161 245.718L237.995 248.944L237.994 248.945L237.829 252.153L237.831 252.153H237.829L227.216 253.209L215.785 250.856L215.785 250.857L227.215 253.21L215.68 254.062L215.68 254.062L215.68 254.062L203.417 251.489L203.416 251.488L203.417 251.488L203.417 251.488L190.368 251.88L190.404 248.66V248.66L190.404 248.66L190.441 245.423L190.436 245.421L190.399 248.658L190.404 248.66L190.399 248.66V248.66L190.398 248.66L176.757 248.794V245.558L176.752 245.557V248.793L176.757 248.794L176.752 248.794ZM190.399 248.66L190.402 248.66L190.365 251.881L176.755 248.795L190.399 248.66ZM203.484 248.267L190.405 248.66L190.406 248.66L203.485 248.267L203.49 248.267L203.418 251.488L203.418 251.488L203.49 248.267L203.49 248.266L203.489 248.267L203.49 248.267L203.487 248.267L203.485 248.267L203.485 248.267L203.484 248.267ZM203.485 248.266L203.557 245.028L203.559 245.028L203.487 248.266L203.485 248.266ZM215.887 247.634L203.491 248.266L203.492 248.267L215.887 247.634L215.887 247.634ZM256.248 243.056L256.251 243.056L256.251 243.056L256.25 243.056L256.249 243.056L256.248 243.056ZM115.347 245.718L105.726 244.472L105.727 244.472L115.347 245.718L115.347 245.718ZM89.85 238.239L89.851 238.24L90.0854 241.489L90.0845 241.489L89.85 238.239ZM97.2594 243.056L97.26 243.056L90.0879 241.491L90.0878 241.491L97.2594 243.056ZM90.082 241.488L84.0625 236.538L84.0625 236.538L90.0814 241.488L90.082 241.488ZM215.893 247.634L215.893 247.634L215.788 250.856L215.893 247.634ZM269.2 239.791L269.2 239.791L273.449 237.978L273.449 237.978L269.198 239.791L269.2 239.791ZM90.319 244.722L84.3176 239.793L84.3128 239.792L90.3183 244.724L84.5612 243.028L84.5615 243.029L90.3191 244.724L97.6889 249.501L97.476 246.288L97.4752 246.288L97.6881 249.501L90.3183 244.724L90.3192 244.724L90.319 244.722ZM163.146 251.881V251.881L176.756 255.219V255.219L163.146 251.881ZM80.06 237.98L80.3198 241.217L80.3206 241.218L80.0608 237.981L80.06 237.98ZM126.293 253.21L126.157 250.003L137.829 254.062L126.293 253.21ZM276.335 232.805L277.198 230.811L276.927 234.076L276.335 232.805Z" fill="url(#paint6_linear_1301_332092)"/>
<g filter="url(#filter2_b_1301_332092)">
<path d="M101.274 56.5244C102.047 39.9079 110.935 27.1556 131.802 27.1556L206.77 22.132C227.54 20.7851 236.787 39.3909 236.172 56.3693V159.821C236.172 176.895 227.202 194.101 205.1 192.297L129.888 187.336C112.635 187.336 101.274 175.616 101.274 158.542V56.5244Z" fill="white" fill-opacity="0.35"/>
<path d="M130.019 185.34L129.954 185.336H129.888C121.727 185.336 115.11 182.574 110.535 177.937C105.957 173.297 103.274 166.628 103.274 158.542V56.5714C103.653 48.5911 105.968 41.7791 110.463 36.9754C114.933 32.1987 121.795 29.1556 131.802 29.1556H131.869L131.936 29.1512L206.9 24.1278C206.9 24.1278 206.901 24.1278 206.902 24.1277C216.568 23.5015 223.428 27.4773 227.876 33.5594C232.386 39.7263 234.468 48.1529 234.173 56.2969L234.172 56.3331V56.3693V159.821C234.172 168.053 232.003 176.131 227.367 181.883C222.805 187.543 215.699 191.156 205.263 190.304L205.248 190.302L205.232 190.301L130.019 185.34Z" stroke="url(#paint7_linear_1301_332092)" stroke-width="4"/>
</g>
<path d="M231.719 33.7404C229.289 29.9204 226.022 26.9051 222.742 24.8024L231.931 26.1992C235.847 27.1251 239.389 29.434 242.134 31.9853C244.904 34.5602 246.749 37.2764 247.341 38.8742L247.361 38.9288L247.387 38.9807C248.271 40.717 250.237 45.4166 250.944 50.1274C251.247 53.4841 251.267 56.7812 251.239 57.9967L251.239 58.0082V58.0197V161.583C250.808 171.75 246.739 178.396 242.407 182.526C240.232 184.6 237.983 186.046 236.084 186.979C234.153 187.928 232.664 188.31 232.011 188.342L231.965 188.345L231.919 188.351L223.169 189.601C226.909 187.403 230.557 184.047 232.95 179.066C234.407 176.404 235.415 172.94 236.088 169.743C236.766 166.522 237.121 163.492 237.24 161.669L237.242 161.637V161.604V135.609V55.7835C237.561 51.8554 236.898 42.1197 231.726 33.7516L231.726 33.7515L231.719 33.7404Z" fill="url(#paint8_linear_1301_332092)" stroke="url(#paint9_linear_1301_332092)" stroke-width="2"/>
<path d="M182.969 28.9173L182.751 33.1383L182.969 37.3594V28.9173ZM184.638 20.9777L182.969 28.9173V37.3594L184.638 20.9777ZM182.969 37.3594L183.606 41.4215L184.638 45.2989L182.969 37.3594ZM184.638 20.9777L183.606 24.8552L182.969 28.9173L184.638 20.9777ZM182.969 37.3594L184.638 45.2989L187.794 52.3843L182.969 37.3594ZM184.638 45.2989L186.041 48.9635L187.794 52.3843L184.638 45.2989ZM187.794 13.8924L186.041 17.3132L184.638 20.9777L187.794 13.8924ZM192.272 7.92017L184.638 20.9777L182.969 37.3594L192.272 7.92017ZM192.272 7.92017L187.794 13.8924L184.638 20.9777L192.272 7.92017ZM182.969 37.3594L187.794 52.3843L197.916 62.909L182.969 37.3594ZM192.272 7.92017L189.878 10.7492L187.794 13.8924L192.272 7.92017ZM187.794 52.3843L189.878 55.5275L192.272 58.3565L187.794 52.3843ZM192.272 7.92017L182.969 37.3594L197.916 62.909L192.272 7.92017ZM187.794 52.3843L192.272 58.3565L197.916 62.909L187.794 52.3843ZM192.272 58.3565L194.958 60.8314L197.916 62.909L192.272 58.3565ZM197.916 3.36768L194.958 5.4453L192.272 7.92017L197.916 3.36768Z" fill="#C4C4C4"/>
<path d="M217.62 65.32L220.343 64.865L223.886 64.2715L217.62 65.32Z" fill="#B0B0B0"/>
<path d="M204.567 0.59375L197.916 3.36804L192.272 7.92053L204.567 0.59375Z" fill="#C4C4C4"/>
<path d="M221.192 1.55473L223.886 2.00501L220.343 1.41155L221.192 1.55473ZM217.62 0.956543L221.192 1.55473L220.343 1.41155L217.62 0.956543ZM221.192 64.7222L217.62 65.3204L223.886 64.2719L221.192 64.7222ZM221.192 64.7222L223.886 64.2719L227.301 63.1256L221.192 64.7222Z" fill="#B0B0B0"/>
<path d="M197.915 62.9094L201.125 64.5433L204.566 65.6836L197.915 62.9094ZM204.566 0.59375L201.125 1.73411L197.915 3.36804L204.566 0.59375Z" fill="#C4C4C4"/>
<path d="M224.635 2.71415L227.302 3.15136L223.887 2.00501L224.635 2.71415ZM221.193 1.55473L224.635 2.71415L223.887 2.00501L221.193 1.55473ZM214.819 65.7886L217.621 65.3204L221.193 64.7222L214.819 65.7886ZM224.635 63.5628L221.193 64.7222L227.302 63.1256L224.635 63.5628ZM224.635 63.5628L227.302 63.1256L230.547 61.4514L224.635 63.5628ZM218.419 1.09124L221.193 1.55473L217.621 0.956543L218.419 1.09124Z" fill="#B0B0B0"/>
<path d="M197.915 62.9092L204.566 65.6835L211.934 66.2708L197.915 62.9092Z" fill="#C4C4C4"/>
<path d="M227.908 4.40957L230.547 4.82553L227.302 3.15134L227.908 4.40957ZM214.819 0.488281L218.419 1.09123L217.621 0.956526L214.819 0.488281Z" fill="#B0B0B0"/>
<path d="M219.062 1.80056L204.567 0.59375L192.272 7.92053L219.062 1.80056Z" fill="#C4C4C4"/>
<path d="M224.635 2.7141L227.908 4.40954L227.302 3.15131L224.635 2.7141ZM218.419 65.1856L214.819 65.7886L221.193 64.7221L218.419 65.1856ZM218.419 65.1856L221.193 64.7221L224.635 63.5627L218.419 65.1856ZM227.908 61.8673L230.547 61.4513L233.58 59.2772L227.908 61.8673ZM227.908 61.8673L224.635 63.5627L230.547 61.4513L227.908 61.8673ZM221.89 2.26395L224.635 2.7141L221.193 1.55469L221.89 2.26395ZM230.967 6.61289L233.58 6.99963L230.547 4.8255L230.967 6.61289Z" fill="#B0B0B0"/>
<path d="M204.565 65.6834L208.215 66.277L211.932 66.2707L204.565 65.6834ZM211.932 0.00624731L208.215 0L204.565 0.593533L211.932 0.00624731Z" fill="#C4C4C4"/>
<path d="M218.419 1.09131L221.89 2.26406L221.192 1.5548L218.419 1.09131ZM227.908 4.40966L230.966 6.613L230.547 4.82562L227.908 4.40966Z" fill="#B0B0B0"/>
<path d="M192.272 7.91992L197.916 62.9087L236.995 28.3273L192.272 7.91992Z" fill="#C4C4C4"/>
<path d="M211.932 66.2708L214.817 65.7887L218.416 65.1858L211.932 66.2708ZM230.964 59.6641L233.577 59.2774L236.352 56.6344L230.964 59.6641ZM221.888 64.013L218.416 65.1858L224.633 63.5629L221.888 64.013ZM230.964 59.6641L227.905 61.8674L233.577 59.2774L230.964 59.6641ZM221.888 64.013L224.633 63.5629L227.905 61.8674L221.888 64.013ZM215.56 0.614062L218.416 1.09136L214.817 0.48842L215.56 0.614062ZM233.763 9.29285L236.352 9.64272L233.577 6.99979L233.763 9.29285ZM225.188 3.98135L227.905 4.40971L224.633 2.71427L225.188 3.98135ZM211.932 0.00634766L215.56 0.614062L214.817 0.48842L211.932 0.00634766ZM230.964 6.61306L233.763 9.29285L233.577 6.99979L230.964 6.61306Z" fill="#B0B0B0"/>
<path d="M197.915 62.9092L211.934 66.2708L225.501 60.473L197.915 62.9092ZM219.061 1.80044L211.934 0.00634766L204.566 0.593633L219.061 1.80044Z" fill="#C4C4C4"/>
<path d="M221.888 2.26431L225.188 3.98155L224.633 2.71446L221.888 2.26431ZM233.763 56.9845L236.352 56.6346L238.824 53.5576L233.763 56.9845ZM215.56 65.6633L211.932 66.271L218.416 65.186L215.56 65.6633ZM233.763 56.9845L230.964 59.6643L236.352 56.6346L233.763 56.9845ZM215.56 65.6633L218.416 65.186L221.888 64.0132L215.56 65.6633ZM225.188 62.296L227.905 61.8676L230.964 59.6643L225.188 62.296ZM225.188 62.296L221.888 64.0132L227.905 61.8676L225.188 62.296ZM236.258 12.4142L238.824 12.72L236.352 9.64292L236.258 12.4142ZM219.06 1.80064L221.888 2.26431L218.416 1.09156L219.06 1.80064ZM228.273 6.2149L230.964 6.61326L227.905 4.40991L228.273 6.2149ZM233.763 9.29305L236.258 12.4142L236.352 9.64292L233.763 9.29305ZM236.258 53.8633L238.824 53.5576L240.946 50.0847L236.258 53.8633ZM215.56 0.614258L219.06 1.80064L218.416 1.09156L215.56 0.614258ZM225.188 3.98155L228.273 6.2149L227.905 4.40991L225.188 3.98155ZM236.258 53.8633L233.763 56.9845L238.824 53.5576L236.258 53.8633ZM238.399 15.9378L240.946 16.1928L238.824 12.72L238.399 15.9378Z" fill="#B0B0B0"/>
<path d="M211.932 66.2708L215.56 65.6631L219.06 64.4767L211.932 66.2708ZM219.06 1.80044L215.56 0.614062L211.932 0.00634766L219.06 1.80044Z" fill="#C4C4C4"/>
<path d="M228.275 60.0625L230.966 59.6642L233.766 56.9844L228.275 60.0625ZM219.062 64.4768L215.562 65.6632L221.89 64.0131L219.062 64.4768ZM228.275 60.0625L225.19 62.2959L230.966 59.6642L228.275 60.0625ZM219.062 64.4768L221.89 64.0131L225.19 62.2959L219.062 64.4768Z" fill="#B0B0B0"/>
<path d="M236.995 28.3276L219.062 1.80029L192.272 7.92027L236.995 28.3276Z" fill="#C4C4C4"/>
<path d="M238.401 50.3394L240.948 50.0844L242.675 46.2581L238.401 50.3394ZM236.259 12.4139L238.401 15.9374L238.825 12.7196L236.259 12.4139ZM231.098 8.93225L233.765 9.2927L230.966 6.61291L231.098 8.93225ZM240.144 19.8205L242.675 20.0187L240.948 16.1925L240.144 19.8205ZM222.389 3.53987L225.189 3.9812L221.889 2.26397L222.389 3.53987ZM238.401 50.3394L236.259 53.863L240.948 50.0844L238.401 50.3394ZM240.144 46.4563L242.675 46.2581L243.961 42.1245L240.144 46.4563ZM228.274 6.21455L231.098 8.93225L230.966 6.61291L228.274 6.21455ZM219.061 1.80029L222.389 3.53987L221.889 2.26397L219.061 1.80029ZM241.442 24.0162L243.961 24.1524L242.675 20.0187L241.442 24.0162ZM238.401 15.9374L240.144 19.8205L240.948 16.1925L238.401 15.9374ZM231.098 57.3446L233.765 56.9842L236.259 53.863L231.098 57.3446ZM231.098 57.3446L228.274 60.0623L233.765 56.9842L231.098 57.3446Z" fill="#B0B0B0"/>
<path d="M211.932 66.2705L219.06 64.4764L225.499 60.4727L211.932 66.2705Z" fill="#C4C4C4"/>
<path d="M241.442 42.2609L243.961 42.1248L244.762 37.7337L241.442 42.2609ZM240.144 46.4566L238.401 50.3397L242.675 46.2584L240.144 46.4566ZM242.251 28.4739L244.762 28.5437L243.961 24.1526L242.251 28.4739ZM222.389 62.7373L225.189 62.2959L228.274 60.0626L222.389 62.7373ZM222.389 62.7373L219.061 64.4768L225.189 62.2959L222.389 62.7373ZM233.615 12.099L236.259 12.4141L233.765 9.29297L233.615 12.099ZM242.251 37.8035L244.762 37.7337L245.038 33.1387L242.251 37.8035ZM242.53 33.1387H245.038L244.762 28.5437L242.53 33.1387ZM240.144 19.8208L241.442 24.0165L242.675 20.019L240.144 19.8208Z" fill="#B0B0B0"/>
<path d="M197.915 62.9091L225.501 60.4728L236.994 28.3276L197.915 62.9091Z" fill="#C4C4C4"/>
<path d="M225.5 5.80422L228.274 6.21472L225.189 3.98137L225.5 5.80422ZM241.442 42.2608L240.144 46.4565L243.96 42.1247L241.442 42.2608ZM231.098 8.93242L233.614 12.0989L233.765 9.29287L231.098 8.93242ZM233.614 54.1783L236.259 53.8632L238.401 50.3396L233.614 54.1783ZM241.442 24.0164L242.251 28.4738L243.96 24.1525L241.442 24.0164ZM242.251 37.8034L241.442 42.2608L244.762 37.7336L242.251 37.8034ZM222.389 3.54004L225.5 5.80422L225.189 3.98137L222.389 3.54004ZM233.614 54.1783L231.098 57.3448L236.259 53.8632L233.614 54.1783ZM235.776 15.6748L238.401 15.9376L236.259 12.414L235.776 15.6748ZM242.251 28.4738L242.53 33.1386L244.762 28.5436L242.251 28.4738ZM242.53 33.1386L242.251 37.8034L245.038 33.1386H242.53ZM225.5 60.473L228.274 60.0625L231.098 57.3448L225.5 60.473ZM225.5 60.473L222.389 62.7371L228.274 60.0625L225.5 60.473Z" fill="#B0B0B0"/>
<path d="M219.061 64.4766L222.389 62.737L225.501 60.4728L219.061 64.4766ZM225.501 5.80405L222.389 3.53987L219.061 1.80029L225.501 5.80405Z" fill="#C4C4C4"/>
<path d="M235.776 50.6019L238.401 50.3391L240.144 46.456L235.776 50.6019ZM233.615 12.0984L235.776 15.6743L236.259 12.4135L233.615 12.0984ZM228.35 8.56039L231.098 8.93191L228.274 6.21421L228.35 8.56039ZM237.536 19.6159L240.144 19.8202L238.401 15.9371L237.536 19.6159ZM235.776 50.6019L233.615 54.1777L238.401 50.3391L235.776 50.6019ZM237.536 46.6603L240.144 46.456L241.442 42.2603L237.536 46.6603ZM225.501 5.80371L228.35 8.56039L228.274 6.21421L225.501 5.80371ZM238.846 23.8755L241.442 24.0159L240.144 19.8202L238.846 23.8755ZM235.776 15.6743L237.536 19.6159L238.401 15.9371L235.776 15.6743ZM228.35 57.7158L231.098 57.3443L233.615 54.1777L228.35 57.7158Z" fill="#B0B0B0"/>
<path d="M230.889 11.774L225.501 5.80405L219.061 1.80029L230.889 11.774Z" fill="#C4C4C4"/>
<path d="M228.35 57.7164L225.501 60.4731L231.098 57.3449L228.35 57.7164ZM238.846 42.4013L241.442 42.2609L242.251 37.8035L238.846 42.4013ZM237.536 46.6609L235.776 50.6025L240.144 46.4566L237.536 46.6609ZM239.663 28.4021L242.251 28.474L241.442 24.0165L239.663 28.4021ZM230.889 11.7743L233.615 12.0991L231.098 8.93255L230.889 11.7743ZM239.663 37.8754L242.251 37.8035L242.53 33.1387L239.663 37.8754ZM239.944 33.1387H242.53L242.251 28.474L239.944 33.1387ZM237.536 19.6165L238.846 23.8762L240.144 19.8208L237.536 19.6165ZM238.846 42.4013L237.536 46.6609L241.442 42.2609L238.846 42.4013ZM228.35 8.56104L230.889 11.7743L231.098 8.93255L228.35 8.56104ZM230.889 54.5032L233.615 54.1784L235.776 50.6025L230.889 54.5032ZM238.846 23.8762L239.663 28.4021L241.442 24.0165L238.846 23.8762ZM239.663 37.8754L238.846 42.4013L242.251 37.8035L239.663 37.8754ZM230.889 54.5032L228.35 57.7164L233.615 54.1784L230.889 54.5032ZM233.07 15.404L235.776 15.6749L233.615 12.0991L233.07 15.404ZM239.663 28.4021L239.944 33.1387L242.251 28.474L239.663 28.4021ZM239.944 33.1387L239.663 37.8754L242.53 33.1387H239.944Z" fill="#B0B0B0"/>
<path d="M225.501 60.4728L228.35 57.7161L230.889 54.5029L225.501 60.4728ZM230.889 11.774L228.35 8.56073L225.501 5.80405L230.889 11.774ZM236.994 28.3276L230.889 11.774L219.061 1.80029L236.994 28.3276Z" fill="#C4C4C4"/>
<path d="M233.073 50.8731L235.779 50.6022L237.538 46.6606L233.073 50.8731ZM230.891 11.7739L233.073 15.4036L233.617 12.0987L230.891 11.7739ZM234.849 19.4055L237.538 19.6162L235.779 15.6746L234.849 19.4055ZM233.073 50.8731L230.891 54.5029L235.779 50.6022L233.073 50.8731Z" fill="#B0B0B0"/>
<path d="M225.501 60.4731L230.889 54.5032L234.846 46.8716L225.501 60.4731Z" fill="#C4C4C4"/>
<path d="M234.846 46.8714L237.535 46.6607L238.846 42.4011L234.846 46.8714ZM236.169 23.7313L238.846 23.876L237.535 19.6164L236.169 23.7313ZM233.07 15.4038L234.846 19.4057L235.776 15.6748L233.07 15.4038ZM236.169 42.5459L238.846 42.4011L239.663 37.8752L236.169 42.5459ZM234.846 46.8714L233.07 50.8733L237.535 46.6607L234.846 46.8714ZM236.993 28.3277L239.663 28.4019L238.846 23.876L236.993 28.3277Z" fill="#B0B0B0"/>
<path d="M225.501 60.4728L234.846 46.8713L236.994 28.3276L225.501 60.4728Z" fill="#C4C4C4"/>
<path d="M236.994 37.9494L239.664 37.8752L239.945 33.1385L236.994 37.9494ZM237.278 33.1385H239.945L239.664 28.4019L237.278 33.1385Z" fill="#B0B0B0"/>
<path d="M230.891 54.5029L233.073 50.8731L234.849 46.8712L230.891 54.5029ZM234.849 19.4055L233.073 15.4036L230.891 11.7739L234.849 19.4055Z" fill="#C4C4C4"/>
<path d="M234.846 19.4058L236.169 23.7313L237.536 19.6164L234.846 19.4058ZM236.169 42.5459L234.846 46.8715L238.846 42.4012L236.169 42.5459ZM236.169 23.7313L236.994 28.3278L238.846 23.876L236.169 23.7313Z" fill="#B0B0B0"/>
<path d="M236.996 28.3276L234.849 19.4055L230.891 11.7739L236.996 28.3276Z" fill="#C4C4C4"/>
<path d="M236.995 37.9493L236.171 42.5458L239.665 37.8751L236.995 37.9493ZM236.995 28.3276L237.279 33.1385L239.665 28.4018L236.995 28.3276ZM237.279 33.1385L236.995 37.9493L239.946 33.1385H237.279Z" fill="#B0B0B0"/>
<path d="M234.846 46.8715L236.169 42.5459L236.994 37.9494L234.846 46.8715ZM236.994 28.3278L236.169 23.7313L234.846 19.4058L236.994 28.3278ZM234.846 46.8715L236.994 37.9494V28.3278L234.846 46.8715ZM236.994 37.9494L237.278 33.1386L236.994 28.3278V37.9494Z" fill="#C4C4C4"/>
<path d="M237.037 33.2557C237.037 51.4417 224.922 66.0113 210.171 66.0113C195.421 66.0113 183.306 51.4417 183.306 33.2557C183.306 15.0696 195.421 0.5 210.171 0.5C224.922 0.5 237.037 15.0696 237.037 33.2557Z" fill="url(#paint10_linear_1301_332092)"/>
<path d="M237.037 33.2557C237.037 51.4417 224.922 66.0113 210.171 66.0113C195.421 66.0113 183.306 51.4417 183.306 33.2557C183.306 15.0696 195.421 0.5 210.171 0.5C224.922 0.5 237.037 15.0696 237.037 33.2557Z" fill="url(#paint11_linear_1301_332092)"/>
<path d="M237.037 33.2557C237.037 51.4417 224.922 66.0113 210.171 66.0113C195.421 66.0113 183.306 51.4417 183.306 33.2557C183.306 15.0696 195.421 0.5 210.171 0.5C224.922 0.5 237.037 15.0696 237.037 33.2557Z" stroke="url(#paint12_linear_1301_332092)"/>
<path d="M237.037 33.2557C237.037 51.4417 224.922 66.0113 210.171 66.0113C195.421 66.0113 183.306 51.4417 183.306 33.2557C183.306 15.0696 195.421 0.5 210.171 0.5C224.922 0.5 237.037 15.0696 237.037 33.2557Z" stroke="url(#paint13_linear_1301_332092)"/>
<path d="M237.74 30.2378C236.627 16.8016 230.065 6.42993 219.813 1.82768L224.039 2.49583C225.883 2.96451 230.419 4.67362 233.841 7.76068C237.29 10.8712 239.911 15.0713 240.789 16.7806L242.71 21.0487C243.212 22.6592 243.9 25.3757 244.337 28.3047C244.777 31.2613 244.953 34.382 244.454 36.7925L244.45 36.8125L244.448 36.8326C243.836 41.7973 241.978 46.7079 241.131 48.5278L241.127 48.5375L241.123 48.5473C240.07 51.0863 236.543 57.0702 230.94 60.5463L230.91 60.5655L230.882 60.5889C229.455 61.7916 227.188 62.7801 224.572 63.5383C223.359 63.8898 222.082 64.1887 220.796 64.4358C225.383 61.8977 239.203 52.4573 237.74 30.2461L237.74 30.2461L237.74 30.2378Z" fill="url(#paint14_linear_1301_332092)" stroke="url(#paint15_linear_1301_332092)"/>
<path d="M198.624 35.2056V40.6287L208.846 40.8404L198.624 35.2056Z" fill="white"/>
<path d="M203.257 35.1982L206.651 35.1592L212.758 24.771L203.257 35.1982ZM203.257 35.1982L209.385 35.249L206.651 35.1592L203.257 35.1982Z" fill="#E5E5E5"/>
<path d="M209.384 35.2489L203.256 35.1982L198.624 35.2053L209.384 35.2489ZM198.624 35.2053L203.256 35.1982L209.384 24.6978L198.624 35.2053Z" fill="white"/>
<path d="M209.385 35.249L212.758 35.2089L206.65 35.1592L209.385 35.249Z" fill="#E5E5E5"/>
<path d="M209.384 35.2491L198.624 35.2056L208.846 40.8404L209.384 35.2491Z" fill="white"/>
<path d="M209.385 24.6978L203.257 35.1982L212.758 24.7709L209.385 24.6978Z" fill="#E5E5E5"/>
<path d="M213.698 15.0645L198.624 35.2053L209.384 24.6978L213.698 15.0645ZM213.698 15.0645L210.392 15.184L198.624 35.2053L213.698 15.0645Z" fill="white"/>
<path d="M213.699 35.2852L217.057 35.2443V15.2432L213.699 35.2852ZM213.699 47.964L217.057 47.7858V40.839L213.699 47.964Z" fill="#E5E5E5"/>
<path d="M208.848 40.8402V47.7882L213.7 40.9407L208.848 40.8402ZM213.7 15.0645L209.386 35.2489L208.848 40.8402L213.7 15.0645ZM213.7 15.0645L209.386 24.6978V35.2489L213.7 15.0645Z" fill="white"/>
<path d="M213.699 15.0645V35.2847L217.057 15.2427L213.699 15.0645ZM213.699 40.9407V47.9635L217.057 40.8385L213.699 40.9407Z" fill="#E5E5E5"/>
<path d="M208.848 47.7882L213.7 47.9635V40.9407L208.848 47.7882ZM208.848 40.8402L213.7 40.9407V35.2847L208.848 40.8402ZM208.848 40.8402L213.7 35.2847V15.0645L208.848 40.8402Z" fill="white"/>
<path d="M216.942 35.3119L220.289 35.2704L217.057 35.2441L216.942 35.3119ZM213.699 35.285L216.942 35.3119L217.057 35.2441L213.699 35.285ZM216.942 41.0082L220.289 40.9046V35.2704L216.942 41.0082Z" fill="#E5E5E5"/>
<path d="M213.699 40.9407L216.942 41.0079L213.699 35.2847V40.9407Z" fill="white"/>
<path d="M216.942 35.3115V41.0078L220.29 35.27L216.942 35.3115Z" fill="#E5E5E5"/>
<path d="M216.942 41.0079V35.3115L213.699 35.2847L216.942 41.0079Z" fill="white"/>
<path d="M135.697 100.681C135.61 102.645 135.929 104.603 136.617 106.335C137.356 108.24 138.467 109.832 139.828 110.939C141.188 112.045 142.747 112.623 144.333 112.61C144.333 112.61 144.566 112.61 144.799 112.61C145.032 112.61 145.265 112.61 145.265 112.61V147.277C145.265 147.277 144.467 147.277 143.669 147.277C142.871 147.277 142.072 147.277 142.072 147.277C141.226 147.277 140.414 147.733 139.815 148.546C139.217 149.358 138.88 150.461 138.88 151.61C138.88 152.759 139.217 153.861 139.815 154.674C140.414 155.487 141.226 155.943 142.072 155.943C142.072 155.943 158.034 155.943 173.996 155.943C189.957 155.943 205.919 155.943 205.919 155.943C206.765 155.943 207.577 155.487 208.176 154.674C208.775 153.861 209.111 152.759 209.111 151.61C209.111 150.461 208.775 149.358 208.176 148.546C207.577 147.733 206.765 147.277 205.919 147.277C205.919 147.277 205.121 147.277 204.322 147.277C203.524 147.277 202.726 147.277 202.726 147.277V112.61C202.726 112.61 202.959 112.61 203.192 112.61C203.425 112.61 203.658 112.61 203.658 112.61C205.243 112.624 206.8 112.047 208.16 110.943C209.52 109.839 210.631 108.25 211.371 106.348C212.059 104.616 212.378 102.658 212.291 100.694C212.205 98.7302 211.717 96.8376 210.883 95.2289C209.519 92.5124 207.692 90.2827 205.558 88.7289L181.616 71.7986C179.262 70.1373 176.648 69.27 173.996 69.27C171.343 69.27 168.729 70.1373 166.376 71.7986L142.43 88.7159C140.296 90.2697 138.469 92.4994 137.105 95.2159C136.271 96.8246 135.783 98.7172 135.697 100.681Z" fill="url(#paint16_linear_1301_332092)"/>
<path d="M137.083 106.154L137.082 106.151C136.421 104.488 136.113 102.601 136.196 100.703C136.279 98.8056 136.751 96.985 137.549 95.4462L137.549 95.4462L137.552 95.4403C138.885 92.7855 140.662 90.6224 142.721 89.1223L166.664 72.2071C166.664 72.2071 166.664 72.207 166.664 72.207C168.941 70.5999 171.455 69.77 173.996 69.77C176.536 69.77 179.05 70.6 181.327 72.2071L205.264 89.1332C205.265 89.1338 205.265 89.1345 205.266 89.1352C207.326 90.6353 209.103 92.7984 210.436 95.4533L210.439 95.4592C211.237 96.998 211.709 98.8186 211.792 100.716C211.875 102.614 211.567 104.501 210.906 106.164L210.905 106.167C210.191 108.001 209.127 109.514 207.845 110.555C206.565 111.594 205.119 112.123 203.663 112.11H203.658H202.726H202.226V112.61V147.277V147.777H202.726H205.919C206.575 147.777 207.248 148.13 207.773 148.842C208.3 149.557 208.611 150.552 208.611 151.61C208.611 152.668 208.3 153.662 207.773 154.378C207.248 155.09 206.575 155.443 205.919 155.443H142.072C141.416 155.443 140.743 155.09 140.218 154.378C139.691 153.662 139.38 152.668 139.38 151.61C139.38 150.552 139.691 149.557 140.218 148.842C140.743 148.13 141.416 147.777 142.072 147.777H145.265H145.765V147.277V112.61V112.11H145.265L144.333 112.11L144.328 112.11C142.871 112.122 141.424 111.592 140.143 110.551C138.86 109.508 137.796 107.992 137.083 106.154Z" fill="url(#paint17_linear_1301_332092)" stroke="url(#paint18_linear_1301_332092)"/>
<path d="M131.496 106.154L131.495 106.151C130.835 104.488 130.526 102.601 130.61 100.703C130.693 98.8056 131.164 96.985 131.963 95.4462L131.963 95.4462L131.966 95.4403C133.299 92.7855 135.075 90.6224 137.135 89.1223L161.077 72.2071C161.077 72.2071 161.077 72.207 161.077 72.207C163.354 70.5999 165.869 69.77 168.409 69.77C170.95 69.77 173.464 70.6 175.741 72.2071L199.677 89.1332C199.678 89.1338 199.679 89.1345 199.68 89.1352C201.739 90.6353 203.516 92.7984 204.849 95.4533L204.852 95.4592C205.651 96.998 206.122 98.8186 206.205 100.716C206.289 102.614 205.98 104.501 205.32 106.164L205.319 106.167C204.604 108.001 203.54 109.514 202.258 110.555C200.978 111.594 199.532 112.123 198.076 112.11H198.072H197.14H196.64V112.61V147.277V147.777H197.14H200.332C200.988 147.777 201.662 148.13 202.187 148.842C202.714 149.557 203.024 150.552 203.024 151.61C203.024 152.668 202.714 153.662 202.187 154.378C201.662 155.09 200.988 155.443 200.332 155.443H136.486C135.83 155.443 135.156 155.09 134.631 154.378C134.104 153.662 133.794 152.668 133.794 151.61C133.794 150.552 134.104 149.557 134.631 148.842C135.156 148.13 135.83 147.777 136.486 147.777H139.678H140.178V147.277V112.61V112.11H139.678L138.746 112.11L138.742 112.11C137.285 112.122 135.837 111.592 134.557 110.551C133.274 109.508 132.21 107.992 131.496 106.154Z" fill="url(#paint19_linear_1301_332092)" stroke="url(#paint20_linear_1301_332092)"/>
<path d="M162.817 113.27C162.817 112.718 163.175 112.27 163.615 112.27C163.615 112.27 163.615 112.27 163.615 112.27C163.615 112.27 166.808 112.27 170 112.27C173.192 112.27 176.385 112.27 176.385 112.27C176.385 112.27 176.385 112.27 176.385 112.27C176.825 112.27 177.183 112.718 177.183 113.27V146.27C177.183 146.822 176.825 147.27 176.385 147.27C176.385 147.27 176.385 147.27 176.385 147.27C176.385 147.27 173.192 147.27 170 147.27C166.808 147.27 163.615 147.27 163.615 147.27C163.615 147.27 163.615 147.27 163.615 147.27C163.175 147.27 162.817 146.822 162.817 146.27V113.27Z" fill="#F4EDE1"/>
<path d="M161.221 114.068V145.472C161.221 145.913 161.579 146.27 162.019 146.27C162.46 146.27 162.817 145.913 162.817 145.472V114.068C162.817 113.627 162.46 113.27 162.019 113.27C161.579 113.27 161.221 113.627 161.221 114.068Z" fill="#F4EDE1"/>
<path d="M161.48 112.533C161.622 112.37 161.811 112.27 162.019 112.27H163.615C163.408 112.27 163.218 112.37 163.076 112.533C162.787 112.865 162.46 113.27 162.019 113.27C161.579 113.27 161.191 112.865 161.48 112.533Z" fill="#F4EDE1"/>
<path d="M161.48 147.007C161.622 147.17 161.811 147.27 162.019 147.27H163.615C163.408 147.27 163.218 147.17 163.076 147.007C162.787 146.675 162.46 146.27 162.019 146.27C161.579 146.27 161.191 146.675 161.48 147.007Z" fill="#F4EDE1"/>
<path d="M174.789 147.27C174.996 147.27 175.186 147.17 175.328 147.007C175.617 146.675 175.944 146.27 176.385 146.27C176.825 146.27 177.213 146.675 176.924 147.007C176.782 147.17 176.592 147.27 176.385 147.27H174.789Z" fill="#F4EDE1"/>
<path d="M175.328 112.533C175.186 112.37 174.996 112.27 174.789 112.27H176.385C176.592 112.27 176.782 112.37 176.924 112.533C177.213 112.865 176.825 113.27 176.385 113.27C175.944 113.27 175.617 112.865 175.328 112.533Z" fill="#F4EDE1"/>
<path d="M175.587 145.472V114.068C175.587 113.627 175.944 113.27 176.385 113.27C176.825 113.27 177.183 113.627 177.183 114.068V145.472C177.183 145.913 176.825 146.27 176.385 146.27C175.944 146.27 175.587 145.913 175.587 145.472Z" fill="#F4EDE1"/>
<path d="M161.221 113.27C161.221 112.718 161.669 112.27 162.221 112.27H174.587C175.139 112.27 175.587 112.718 175.587 113.27V146.27C175.587 146.822 175.139 147.27 174.587 147.27H162.221C161.669 147.27 161.221 146.822 161.221 146.27V113.27Z" fill="white"/>
<path d="M217.202 15.2415L213.689 15.0625L213.672 35.3257H216.925V41.0094L213.689 40.9444V47.9535V48.0755L217.233 47.9047V41.1286L220.439 40.9979V35.083H217.202V15.2415Z" fill="url(#paint21_linear_1301_332092)"/>
<path d="M217.202 15.2415L213.689 15.0625L213.672 35.3257H216.925V41.0094L213.689 40.9444V47.9535V48.0755L217.233 47.9047V41.1286L220.439 40.9979V35.083H217.202V15.2415Z" fill="url(#paint22_linear_1301_332092)"/>
<path d="M209.383 30.5059V24.6934L203.231 35.209L209.384 35.2817V35.1488H206.674L209.383 30.5059Z" fill="url(#paint23_linear_1301_332092)"/>
<path d="M209.383 30.5059V24.6934L203.231 35.209L209.384 35.2817V35.1488H206.674L209.383 30.5059Z" fill="url(#paint24_linear_1301_332092)"/>
<defs>
<filter id="filter0_f_1301_332092" x="0.526306" y="231.877" width="352.474" height="52.1128" filterUnits="userSpaceOnUse" color-interpolation-filters="sRGB">
<feFlood flood-opacity="0" result="BackgroundImageFix"/>
<feBlend mode="normal" in="SourceGraphic" in2="BackgroundImageFix" result="shape"/>
<feGaussianBlur stdDeviation="4" result="effect1_foregroundBlur_1301_332092"/>
</filter>
<filter id="filter1_f_1301_332092" x="92.8525" y="212.516" width="161.337" height="39.9072" filterUnits="userSpaceOnUse" color-interpolation-filters="sRGB">
<feFlood flood-opacity="0" result="BackgroundImageFix"/>
<feBlend mode="normal" in="SourceGraphic" in2="BackgroundImageFix" result="shape"/>
<feGaussianBlur stdDeviation="5" result="effect1_foregroundBlur_1301_332092"/>
</filter>
<filter id="filter2_b_1301_332092" x="91.2744" y="12.063" width="154.926" height="190.365" filterUnits="userSpaceOnUse" color-interpolation-filters="sRGB">
<feFlood flood-opacity="0" result="BackgroundImageFix"/>
<feGaussianBlur in="BackgroundImageFix" stdDeviation="5"/>
<feComposite in2="SourceAlpha" operator="in" result="effect1_backgroundBlur_1301_332092"/>
<feBlend mode="normal" in="SourceGraphic" in2="effect1_backgroundBlur_1301_332092" result="shape"/>
</filter>
<radialGradient id="paint0_radial_1301_332092" cx="0" cy="0" r="1" gradientUnits="userSpaceOnUse" gradientTransform="translate(168.411 236.148) rotate(90) scale(118.368 164.518)">
<stop stop-color="#7E32A2"/>
<stop offset="1" stop-color="white" stop-opacity="0"/>
</radialGradient>
<radialGradient id="paint1_radial_1301_332092" cx="0" cy="0" r="1" gradientUnits="userSpaceOnUse" gradientTransform="translate(176.763 257.934) rotate(90) scale(18.0563 168.237)">
<stop stop-color="#502F96"/>
<stop offset="1" stop-color="#C4C4C4" stop-opacity="0"/>
</radialGradient>
<linearGradient id="paint2_linear_1301_332092" x1="176.758" y1="216.184" x2="176.758" y2="245.717" gradientUnits="userSpaceOnUse">
<stop stop-color="white"/>
<stop offset="1" stop-color="#F2FCFF"/>
</linearGradient>
<linearGradient id="paint3_linear_1301_332092" x1="176.758" y1="216.184" x2="176.758" y2="245.717" gradientUnits="userSpaceOnUse">
<stop stop-color="#EBFAFF"/>
<stop offset="1" stop-color="white"/>
</linearGradient>
<radialGradient id="paint4_radial_1301_332092" cx="0" cy="0" r="1" gradientUnits="userSpaceOnUse" gradientTransform="translate(173.521 232.469) rotate(90) scale(8.69781 70.8338)">
<stop stop-color="#3D74B5"/>
<stop offset="1" stop-color="#C4C4C4" stop-opacity="0"/>
</radialGradient>
<linearGradient id="paint5_linear_1301_332092" x1="176.758" y1="242.574" x2="176.758" y2="286.043" gradientUnits="userSpaceOnUse">
<stop stop-color="white"/>
<stop offset="1" stop-color="#EBFAFF"/>
</linearGradient>
<linearGradient id="paint6_linear_1301_332092" x1="387.066" y1="249.336" x2="78.7838" y2="249.336" gradientUnits="userSpaceOnUse">
<stop stop-color="#CED2EF"/>
<stop offset="0.50419" stop-color="#CED2EF" stop-opacity="0"/>
</linearGradient>
<linearGradient id="paint7_linear_1301_332092" x1="212.01" y1="-19.9649" x2="136.727" y2="168.536" gradientUnits="userSpaceOnUse">
<stop stop-color="#DEE5F8"/>
<stop offset="1" stop-color="white"/>
</linearGradient>
<linearGradient id="paint8_linear_1301_332092" x1="244.868" y1="-19.6287" x2="139.586" y2="60.9586" gradientUnits="userSpaceOnUse">
<stop stop-color="#DEE5F8"/>
<stop offset="1" stop-color="white"/>
</linearGradient>
<linearGradient id="paint9_linear_1301_332092" x1="252.248" y1="-46.069" x2="91.4946" y2="49.589" gradientUnits="userSpaceOnUse">
<stop stop-color="white"/>
<stop offset="1" stop-color="#EBF0FF"/>
</linearGradient>
<linearGradient id="paint10_linear_1301_332092" x1="196.63" y1="10.421" x2="215.107" y2="64.8352" gradientUnits="userSpaceOnUse">
<stop stop-color="#FFA9A5"/>
<stop offset="1" stop-color="#FF5B53"/>
</linearGradient>
<linearGradient id="paint11_linear_1301_332092" x1="204.116" y1="12.8301" x2="237.417" y2="84.5956" gradientUnits="userSpaceOnUse">
<stop stop-color="#FFEF99"/>
<stop offset="1" stop-color="#FFE144"/>
</linearGradient>
<linearGradient id="paint12_linear_1301_332092" x1="235.901" y1="85.5563" x2="177.851" y2="3.52525" gradientUnits="userSpaceOnUse">
<stop stop-color="#FFA9A5"/>
<stop offset="1" stop-color="#FF5C54"/>
</linearGradient>
<linearGradient id="paint13_linear_1301_332092" x1="242.579" y1="65.0704" x2="171.026" y2="-18.6577" gradientUnits="userSpaceOnUse">
<stop stop-color="#FFF5BF"/>
<stop offset="1" stop-color="#DFBC00"/>
</linearGradient>
<linearGradient id="paint14_linear_1301_332092" x1="223.708" y1="32.8019" x2="262.458" y2="28.707" gradientUnits="userSpaceOnUse">
<stop stop-color="#FFEF99"/>
<stop offset="1" stop-color="#F0D33D"/>
</linearGradient>
<linearGradient id="paint15_linear_1301_332092" x1="235.415" y1="96.8282" x2="189.844" y2="-12.5579" gradientUnits="userSpaceOnUse">
<stop stop-color="#DFBC00"/>
<stop offset="1" stop-color="#FFF5BF"/>
</linearGradient>
<linearGradient id="paint16_linear_1301_332092" x1="173.994" y1="69.27" x2="225.478" y2="154.616" gradientUnits="userSpaceOnUse">
<stop stop-color="#FFEE96"/>
<stop offset="1" stop-color="#FEEC8E" stop-opacity="0"/>
</linearGradient>
<linearGradient id="paint17_linear_1301_332092" x1="146.457" y1="77.27" x2="221.169" y2="149.064" gradientUnits="userSpaceOnUse">
<stop stop-color="#FFEF99"/>
<stop offset="0.92171" stop-color="#F6DF62"/>
</linearGradient>
<linearGradient id="paint18_linear_1301_332092" x1="159.625" y1="69.27" x2="181.665" y2="153.947" gradientUnits="userSpaceOnUse">
<stop stop-color="#EBD044"/>
<stop offset="1" stop-color="#FDF0AE"/>
</linearGradient>
<linearGradient id="paint19_linear_1301_332092" x1="140.87" y1="77.27" x2="215.582" y2="149.064" gradientUnits="userSpaceOnUse">
<stop stop-color="#FFEF99"/>
<stop offset="0.92171" stop-color="#F6DF62"/>
</linearGradient>
<linearGradient id="paint20_linear_1301_332092" x1="154.039" y1="69.27" x2="176.079" y2="153.947" gradientUnits="userSpaceOnUse">
<stop stop-color="#EBD044"/>
<stop offset="1" stop-color="#FDF0AE"/>
</linearGradient>
<linearGradient id="paint21_linear_1301_332092" x1="217.056" y1="15.0625" x2="217.056" y2="48.0755" gradientUnits="userSpaceOnUse">
<stop stop-color="#E5E5E5"/>
<stop offset="1" stop-color="#E5E5E5" stop-opacity="0"/>
</linearGradient>
<linearGradient id="paint22_linear_1301_332092" x1="222.308" y1="-46.3581" x2="176.085" y2="-17.4616" gradientUnits="userSpaceOnUse">
<stop stop-color="white"/>
<stop offset="1" stop-color="#F2E9DC"/>
</linearGradient>
<linearGradient id="paint23_linear_1301_332092" x1="206.308" y1="24.6934" x2="206.308" y2="35.2817" gradientUnits="userSpaceOnUse">
<stop stop-color="#E5E5E5"/>
<stop offset="1" stop-color="#E5E5E5" stop-opacity="0"/>
</linearGradient>
<linearGradient id="paint24_linear_1301_332092" x1="211.083" y1="4.99377" x2="196.968" y2="30.0123" gradientUnits="userSpaceOnUse">
<stop stop-color="white"/>
<stop offset="1" stop-color="#F2E9DC"/>
</linearGradient>
</defs>
</svg>
