<svg width="64" height="67" viewBox="0 0 64 67" fill="none" xmlns="http://www.w3.org/2000/svg">
<path d="M0.994904 28.9168L0.774414 33.1378L0.994904 37.3589V28.9168ZM2.68066 20.9772L0.994904 28.9168V37.3589L2.68066 20.9772ZM0.994904 37.3589L1.6386 41.421L2.68066 45.2985L0.994904 37.3589ZM2.68066 20.9772L1.6386 24.8547L0.994904 28.9168L2.68066 20.9772ZM0.994904 37.3589L2.68066 45.2985L5.86978 52.3838L0.994904 37.3589ZM2.68066 45.2985L4.09819 48.963L5.86978 52.3838L2.68066 45.2985ZM5.86978 13.8919L4.09819 17.3127L2.68066 20.9772L5.86978 13.8919ZM10.3942 7.91968L2.68066 20.9772L0.994904 37.3589L10.3942 7.91968ZM10.3942 7.91968L5.86978 13.8919L2.68066 20.9772L10.3942 7.91968ZM0.994904 37.3589L5.86978 52.3838L16.0961 62.9085L0.994904 37.3589ZM10.3942 7.91968L7.97504 10.7487L5.86978 13.8919L10.3942 7.91968ZM5.86978 52.3838L7.97504 55.527L10.3942 58.356L5.86978 52.3838ZM10.3942 7.91968L0.994904 37.3589L16.0961 62.9085L10.3942 7.91968ZM5.86978 52.3838L10.3942 58.356L16.0961 62.9085L5.86978 52.3838ZM10.3942 58.356L13.1078 60.8309L16.0961 62.9085L10.3942 58.356ZM16.0961 3.36719L13.1078 5.44481L10.3942 7.91968L16.0961 3.36719Z" fill="#C4C4C4"/>
<path d="M36.0029 65.32L38.7536 64.865L42.3335 64.2715L36.0029 65.32Z" fill="#B0B0B0"/>
<path d="M22.8163 0.59375L16.0965 3.36804L10.3945 7.92053L22.8163 0.59375Z" fill="#C4C4C4"/>
<path d="M39.6113 1.55522L42.3335 2.0055L38.7536 1.41204L39.6113 1.55522ZM36.0029 0.957031L39.6113 1.55522L38.7536 1.41204L36.0029 0.957031ZM39.6113 64.7227L36.0029 65.3209L42.3335 64.2724L39.6113 64.7227ZM39.6113 64.7227L42.3335 64.2724L45.7838 63.126L39.6113 64.7227Z" fill="#B0B0B0"/>
<path d="M16.0947 62.9094L19.3377 64.5433L22.8145 65.6836L16.0947 62.9094ZM22.8145 0.59375L19.3377 1.73411L16.0947 3.36804L22.8145 0.59375Z" fill="#C4C4C4"/>
<path d="M43.0914 2.71463L45.7853 3.15185L42.3351 2.0055L43.0914 2.71463ZM39.6129 1.55522L43.0914 2.71463L42.3351 2.0055L39.6129 1.55522ZM33.1738 65.7891L36.0045 65.3209L39.6129 64.7227L33.1738 65.7891ZM43.0914 63.5633L39.6129 64.7227L45.7853 63.126L43.0914 63.5633ZM43.0914 63.5633L45.7853 63.126L49.0641 61.4519L43.0914 63.5633ZM36.8108 1.09173L39.6129 1.55522L36.0045 0.957031L36.8108 1.09173Z" fill="#B0B0B0"/>
<path d="M16.0947 62.9102L22.8145 65.6844L30.2581 66.2717L16.0947 62.9102Z" fill="#C4C4C4"/>
<path d="M46.3978 4.40957L49.0641 4.82553L45.7853 3.15134L46.3978 4.40957ZM33.1738 0.488281L36.8108 1.09123L36.0045 0.956526L33.1738 0.488281Z" fill="#B0B0B0"/>
<path d="M37.4611 1.80056L22.8163 0.59375L10.3945 7.92053L37.4611 1.80056Z" fill="#C4C4C4"/>
<path d="M43.0914 2.7141L46.3978 4.40954L45.7853 3.15131L43.0914 2.7141ZM36.8108 65.1856L33.1738 65.7886L39.6129 64.7221L36.8108 65.1856ZM36.8108 65.1856L39.6129 64.7221L43.0914 63.5627L36.8108 65.1856ZM46.3978 61.8673L49.0641 61.4513L52.1279 59.2772L46.3978 61.8673ZM46.3978 61.8673L43.0914 63.5627L49.0641 61.4513L46.3978 61.8673ZM40.3178 2.26395L43.0914 2.7141L39.6129 1.55469L40.3178 2.26395ZM49.4879 6.61289L52.1279 6.99963L49.0641 4.8255L49.4879 6.61289Z" fill="#B0B0B0"/>
<path d="M22.8135 65.6834L26.502 66.277L30.2571 66.2707L22.8135 65.6834ZM30.2571 0.00624731L26.502 0L22.8135 0.593533L30.2571 0.00624731Z" fill="#C4C4C4"/>
<path d="M36.8105 1.0918L40.3175 2.26455L39.6126 1.55529L36.8105 1.0918ZM46.3975 4.41015L49.4877 6.61349L49.0638 4.8261L46.3975 4.41015Z" fill="#B0B0B0"/>
<path d="M10.3945 7.91992L16.0965 62.9087L55.5784 28.3273L10.3945 7.91992Z" fill="#C4C4C4"/>
<path d="M30.2568 66.2703L33.1711 65.7883L36.8081 65.1853L30.2568 66.2703ZM49.4852 59.6636L52.1251 59.2769L54.9287 56.6339L49.4852 59.6636ZM40.315 64.0126L36.8081 65.1853L43.0887 63.5624L40.315 64.0126ZM49.4852 59.6636L46.3951 61.867L52.1251 59.2769L49.4852 59.6636ZM40.315 64.0126L43.0887 63.5624L46.3951 61.867L40.315 64.0126ZM33.9226 0.613573L36.8081 1.09088L33.1711 0.487931L33.9226 0.613573ZM52.3136 9.29236L54.9287 9.64224L52.1251 6.99931L52.3136 9.29236ZM43.6492 3.98086L46.3951 4.40922L43.0887 2.71378L43.6492 3.98086ZM30.2568 0.00585938L33.9226 0.613573L33.1711 0.487931L30.2568 0.00585938ZM49.4852 6.61257L52.3136 9.29236L52.1251 6.99931L49.4852 6.61257Z" fill="#B0B0B0"/>
<path d="M16.0947 62.9088L30.2581 66.2703L43.9652 60.4725L16.0947 62.9088ZM37.4593 1.79996L30.2581 0.00585938L22.8145 0.593145L37.4593 1.79996Z" fill="#C4C4C4"/>
<path d="M40.315 2.26334L43.6492 3.98057L43.0887 2.71349L40.315 2.26334ZM52.3136 56.9835L54.9287 56.6337L57.426 53.5566L52.3136 56.9835ZM33.9226 65.6623L30.2568 66.27L36.8081 65.185L33.9226 65.6623ZM52.3136 56.9835L49.4852 59.6633L54.9287 56.6337L52.3136 56.9835ZM33.9226 65.6623L36.8081 65.185L40.315 64.0123L33.9226 65.6623ZM43.6492 62.295L46.3951 61.8667L49.4852 59.6633L43.6492 62.295ZM43.6492 62.295L40.315 64.0123L46.3951 61.8667L43.6492 62.295ZM54.8334 12.4132L57.426 12.719L54.9287 9.64194L54.8334 12.4132ZM37.4581 1.79966L40.315 2.26334L36.8081 1.09058L37.4581 1.79966ZM46.766 6.21393L49.4852 6.61228L46.3951 4.40893L46.766 6.21393ZM52.3136 9.29207L54.8334 12.4132L54.9287 9.64194L52.3136 9.29207ZM54.8334 53.8624L57.426 53.5566L59.5704 50.0838L54.8334 53.8624ZM33.9226 0.613281L37.4581 1.79966L36.8081 1.09058L33.9226 0.613281ZM43.6492 3.98057L46.766 6.21393L46.3951 4.40893L43.6492 3.98057ZM54.8334 53.8624L52.3136 56.9835L57.426 53.5566L54.8334 53.8624ZM56.9973 15.9368L59.5704 16.1918L57.426 12.719L56.9973 15.9368Z" fill="#B0B0B0"/>
<path d="M30.2568 66.2703L33.9226 65.6626L37.4581 64.4762L30.2568 66.2703ZM37.4581 1.79996L33.9226 0.613573L30.2568 0.00585938L37.4581 1.79996Z" fill="#C4C4C4"/>
<path d="M46.7683 60.0625L49.4875 59.6642L52.3158 56.9844L46.7683 60.0625ZM37.4603 64.4768L33.9248 65.6632L40.3173 64.0131L37.4603 64.4768ZM46.7683 60.0625L43.6514 62.2959L49.4875 59.6642L46.7683 60.0625ZM37.4603 64.4768L40.3173 64.0131L43.6514 62.2959L37.4603 64.4768Z" fill="#B0B0B0"/>
<path d="M55.5784 28.3281L37.4611 1.80078L10.3945 7.92075L55.5784 28.3281Z" fill="#C4C4C4"/>
<path d="M56.9992 50.3399L59.5722 50.0849L61.317 46.2586L56.9992 50.3399ZM54.8352 12.4143L56.9992 15.9379L57.4279 12.7201L54.8352 12.4143ZM49.6212 8.93274L52.3154 9.29319L49.4871 6.6134L49.6212 8.93274ZM58.7602 19.821L61.317 20.0192L59.5722 16.1929L58.7602 19.821ZM40.8221 3.54036L43.6511 3.98169L40.3169 2.26445L40.8221 3.54036ZM56.9992 50.3399L54.8352 53.8635L59.5722 50.0849L56.9992 50.3399ZM58.7602 46.4568L61.317 46.2586L62.6165 42.125L58.7602 46.4568ZM46.7679 6.21504L49.6212 8.93274L49.4871 6.6134L46.7679 6.21504ZM37.46 1.80078L40.8221 3.54036L40.3169 2.26445L37.46 1.80078ZM60.0719 24.0167L62.6165 24.1529L61.317 20.0192L60.0719 24.0167ZM56.9992 15.9379L58.7602 19.821L59.5722 16.1929L56.9992 15.9379ZM49.6212 57.3451L52.3154 56.9846L54.8352 53.8635L49.6212 57.3451ZM49.6212 57.3451L46.7679 60.0628L52.3154 56.9846L49.6212 57.3451Z" fill="#B0B0B0"/>
<path d="M30.2568 66.2705L37.4581 64.4764L43.9639 60.4727L30.2568 66.2705Z" fill="#C4C4C4"/>
<path d="M60.0719 42.2609L62.6165 42.1248L63.4264 37.7337L60.0719 42.2609ZM58.7602 46.4566L56.9992 50.3397L61.317 46.2584L58.7602 46.4566ZM60.8895 28.4739L63.4264 28.5437L62.6165 24.1526L60.8895 28.4739ZM40.8221 62.7373L43.6511 62.2959L46.7679 60.0626L40.8221 62.7373ZM40.8221 62.7373L37.46 64.4768L43.6511 62.2959L40.8221 62.7373ZM52.1637 12.099L54.8352 12.4141L52.3154 9.29297L52.1637 12.099ZM60.8895 37.8035L63.4264 37.7337L63.7051 33.1387L60.8895 37.8035ZM61.1708 33.1387H63.7051L63.4264 28.5437L61.1708 33.1387ZM58.7602 19.8208L60.0719 24.0165L61.317 20.019L58.7602 19.8208Z" fill="#B0B0B0"/>
<path d="M16.0947 62.9096L43.9652 60.4733L55.5767 28.3281L16.0947 62.9096Z" fill="#C4C4C4"/>
<path d="M43.965 5.80325L46.7671 6.21375L43.6503 3.98039L43.965 5.80325ZM60.071 42.2598L58.7594 46.4555L62.6156 42.1237L60.071 42.2598ZM49.6204 8.93144L52.1629 12.098L52.3146 9.29189L49.6204 8.93144ZM52.1629 54.1773L54.8344 53.8622L56.9984 50.3386L52.1629 54.1773ZM60.071 24.0154L60.8886 28.4728L62.6156 24.1516L60.071 24.0154ZM60.8886 37.8024L60.071 42.2598L63.4256 37.7326L60.8886 37.8024ZM40.8213 3.53906L43.965 5.80325L43.6503 3.98039L40.8213 3.53906ZM52.1629 54.1773L49.6204 57.3438L54.8344 53.8622L52.1629 54.1773ZM54.3468 15.6738L56.9984 15.9366L54.8344 12.413L54.3468 15.6738ZM60.8886 28.4728L61.17 33.1376L63.4256 28.5426L60.8886 28.4728ZM61.17 33.1376L60.8886 37.8024L63.7043 33.1376H61.17ZM43.965 60.472L46.7671 60.0615L49.6204 57.3438L43.965 60.472ZM43.965 60.472L40.8213 62.7362L46.7671 60.0615L43.965 60.472Z" fill="#B0B0B0"/>
<path d="M37.46 64.4771L40.8221 62.7375L43.9658 60.4733L37.46 64.4771ZM43.9658 5.80454L40.8221 3.54036L37.46 1.80078L43.9658 5.80454Z" fill="#C4C4C4"/>
<path d="M54.3476 50.6029L56.9993 50.34L58.7603 46.457L54.3476 50.6029ZM52.1638 12.0994L54.3476 15.6753L54.8353 12.4145L52.1638 12.0994ZM46.8443 8.56137L49.6212 8.93288L46.7679 6.21519L46.8443 8.56137ZM56.125 19.6169L58.7603 19.8212L56.9993 15.9381L56.125 19.6169ZM54.3476 50.6029L52.1638 54.1787L56.9993 50.34L54.3476 50.6029ZM56.125 46.6612L58.7603 46.457L60.0719 42.2613L56.125 46.6612ZM43.9658 5.80469L46.8443 8.56137L46.7679 6.21519L43.9658 5.80469ZM57.449 23.8765L60.0719 24.0168L58.7603 19.8212L57.449 23.8765ZM54.3476 15.6753L56.125 19.6169L56.9993 15.9381L54.3476 15.6753ZM46.8443 57.7168L49.6212 57.3452L52.1638 54.1787L46.8443 57.7168Z" fill="#B0B0B0"/>
<path d="M49.4097 11.7744L43.9658 5.80454L37.46 1.80078L49.4097 11.7744Z" fill="#C4C4C4"/>
<path d="M46.8443 57.7159L43.9658 60.4726L49.6212 57.3444L46.8443 57.7159ZM57.449 42.4008L60.0719 42.2605L60.8895 37.803L57.449 42.4008ZM56.125 46.6604L54.3476 50.602L58.7603 46.4561L56.125 46.6604ZM58.2743 28.4016L60.8895 28.4735L60.0719 24.016L58.2743 28.4016ZM49.4098 11.7738L52.1638 12.0986L49.6212 8.93206L49.4098 11.7738ZM58.2743 37.8749L60.8895 37.803L61.1708 33.1382L58.2743 37.8749ZM58.5584 33.1382H61.1708L60.8895 28.4735L58.5584 33.1382ZM56.125 19.6161L57.449 23.8757L58.7603 19.8203L56.125 19.6161ZM57.449 42.4008L56.125 46.6604L60.0719 42.2605L57.449 42.4008ZM46.8443 8.56055L49.4098 11.7738L49.6212 8.93206L46.8443 8.56055ZM49.4098 54.5027L52.1638 54.1779L54.3476 50.602L49.4098 54.5027ZM57.449 23.8757L58.2743 28.4016L60.0719 24.016L57.449 23.8757ZM58.2743 37.8749L57.449 42.4008L60.8895 37.803L58.2743 37.8749ZM49.4098 54.5027L46.8443 57.7159L52.1638 54.1779L49.4098 54.5027ZM51.6137 15.4035L54.3476 15.6744L52.1638 12.0986L51.6137 15.4035ZM58.2743 28.4016L58.5584 33.1382L60.8895 28.4735L58.2743 28.4016ZM58.5584 33.1382L58.2743 37.8749L61.1708 33.1382H58.5584Z" fill="#B0B0B0"/>
<path d="M43.9658 60.4733L46.8443 57.7166L49.4097 54.5034L43.9658 60.4733ZM49.4097 11.7744L46.8443 8.56122L43.9658 5.80454L49.4097 11.7744ZM55.5773 28.3281L49.4097 11.7744L37.46 1.80078L55.5773 28.3281Z" fill="#C4C4C4"/>
<path d="M51.616 50.8727L54.3499 50.6017L56.1273 46.6601L51.616 50.8727ZM49.4121 11.7734L51.616 15.4032L52.1661 12.0983L49.4121 11.7734ZM53.41 19.4051L56.1273 19.6157L54.3499 15.6741L53.41 19.4051ZM51.616 50.8727L49.4121 54.5024L54.3499 50.6017L51.616 50.8727Z" fill="#B0B0B0"/>
<path d="M43.9658 60.4726L49.4098 54.5027L53.4076 46.8711L43.9658 60.4726Z" fill="#C4C4C4"/>
<path d="M53.4073 46.8719L56.1246 46.6612L57.4486 42.4016L53.4073 46.8719ZM54.7437 23.7317L57.4486 23.8765L56.1246 19.6169L54.7437 23.7317ZM51.6133 15.4043L53.4073 19.4062L54.3472 15.6753L51.6133 15.4043ZM54.7437 42.5463L57.4486 42.4016L58.274 37.8757L54.7437 42.5463ZM53.4073 46.8719L51.6133 50.8738L56.1246 46.6612L53.4073 46.8719ZM55.5769 28.3282L58.274 28.4024L57.4486 23.8765L55.5769 28.3282Z" fill="#B0B0B0"/>
<path d="M43.9658 60.4733L53.4076 46.8718L55.5773 28.3281L43.9658 60.4733Z" fill="#C4C4C4"/>
<path d="M55.5771 37.9498L58.2742 37.8757L58.5582 33.139L55.5771 37.9498ZM55.8639 33.139H58.5582L58.2742 28.4023L55.8639 33.139Z" fill="#B0B0B0"/>
<path d="M49.4121 54.5024L51.616 50.8727L53.41 46.8708L49.4121 54.5024ZM53.41 19.4051L51.616 15.4032L49.4121 11.7734L53.41 19.4051Z" fill="#C4C4C4"/>
<path d="M53.4072 19.4062L54.7437 23.7318L56.1246 19.6169L53.4072 19.4062ZM54.7437 42.5464L53.4072 46.8719L57.4486 42.4017L54.7437 42.5464ZM54.7437 23.7318L55.5769 28.3283L57.4486 23.8765L54.7437 23.7318Z" fill="#B0B0B0"/>
<path d="M55.5797 28.3271L53.41 19.4051L49.4121 11.7734L55.5797 28.3271Z" fill="#C4C4C4"/>
<path d="M55.5793 37.9498L54.7461 42.5462L58.2763 37.8756L55.5793 37.9498ZM55.5793 28.3281L55.866 33.1389L58.2763 28.4023L55.5793 28.3281ZM55.866 33.1389L55.5793 37.9498L58.5603 33.1389H55.866Z" fill="#B0B0B0"/>
<path d="M53.4072 46.8719L54.7437 42.5464L55.5769 37.9499L53.4072 46.8719ZM55.5769 28.3283L54.7437 23.7318L53.4072 19.4062L55.5769 28.3283ZM53.4072 46.8719L55.5769 37.9499V28.3283L53.4072 46.8719ZM55.5769 37.9499L55.8637 33.1391L55.5769 28.3283V37.9499Z" fill="#C4C4C4"/>
<path d="M55.6266 33.2557C55.6266 51.4365 43.3894 66.0113 28.4783 66.0113C13.5672 66.0113 1.33008 51.4365 1.33008 33.2557C1.33008 15.0748 13.5672 0.5 28.4783 0.5C43.3894 0.5 55.6266 15.0748 55.6266 33.2557Z" fill="url(#paint0_linear_1133_514853)" stroke="url(#paint1_linear_1133_514853)"/>
<g filter="url(#filter0_d_1133_514853)">
<path d="M21.7305 28.44L24.8373 28.503L28.0402 25.7164L21.7305 28.44ZM24.9594 25.6191L21.7305 28.44L28.0402 25.7164L24.9594 25.6191Z" fill="#E5E5E5"/>
<path d="M19.4551 24.3945L21.7289 28.4402L24.9579 25.6193L19.4551 24.3945Z" fill="white"/>
<path d="M29.3193 48.8723L32.3644 48.6877V18.6582L29.3193 48.8723Z" fill="#E5E5E5"/>
<path d="M29.3194 18.4727L19.4561 24.3953L24.9588 25.6201L29.3194 18.4727ZM29.3194 18.4727L26.1673 18.5347L19.4561 24.3953L29.3194 18.4727Z" fill="white"/>
<path d="M29.3193 18.4727V48.8714L32.3644 18.6573L29.3193 18.4727Z" fill="#E5E5E5"/>
<path fill-rule="evenodd" clip-rule="evenodd" d="M29.3197 48.8714V18.4727L32.3648 18.6573L29.3197 48.8714ZM29.3197 48.8718L32.3648 48.6872V18.6577L29.3197 48.8718ZM21.7305 28.441L24.8373 28.5039L28.0402 25.7174L24.9594 25.6201L21.7305 28.441Z" fill="url(#paint2_linear_1133_514853)"/>
<path d="M24.96 25.6201V48.7855L29.3206 18.4727L24.96 25.6201ZM24.96 48.7855L29.3206 48.8714V18.4727L24.96 48.7855Z" fill="white"/>
</g>
<path d="M31.2766 0.23452L29.9277 0.0234375C30.3821 0.0845649 30.8317 0.154974 31.2766 0.23452L42.5904 2.00503C44.4909 2.47877 49.1794 4.21879 52.7304 7.3889C56.2814 10.559 58.9678 14.826 59.8671 16.5633L61.8254 20.8705C62.8553 24.1296 64.654 31.897 63.6096 36.8933C62.9829 41.9242 61.0856 46.8861 60.2153 48.7382C59.1273 51.3369 55.5068 57.4215 49.7277 60.9707C46.6816 63.5119 40.2411 65.0195 34.845 65.5794C35.5123 65.4071 36.9861 64.9936 37.5431 64.718C38.2393 64.3734 57.542 56.0437 55.8273 30.2785C54.4866 14.251 45.2526 2.73365 31.2766 0.23452Z" fill="url(#paint3_linear_1133_514853)"/>
<defs>
<filter id="filter0_d_1133_514853" x="14.4551" y="10.4727" width="32.9102" height="50.4004" filterUnits="userSpaceOnUse" color-interpolation-filters="sRGB">
<feFlood flood-opacity="0" result="BackgroundImageFix"/>
<feColorMatrix in="SourceAlpha" type="matrix" values="0 0 0 0 0 0 0 0 0 0 0 0 0 0 0 0 0 0 127 0" result="hardAlpha"/>
<feOffset dx="5" dy="2"/>
<feGaussianBlur stdDeviation="5"/>
<feColorMatrix type="matrix" values="0 0 0 0 0.32339 0 0 0 0 0.157604 0 0 0 0 0.425 0 0 0 0.3 0"/>
<feBlend mode="normal" in2="BackgroundImageFix" result="effect1_dropShadow_1133_514853"/>
<feBlend mode="normal" in="SourceGraphic" in2="effect1_dropShadow_1133_514853" result="shape"/>
</filter>
<linearGradient id="paint0_linear_1133_514853" x1="28.4783" y1="0" x2="40.6184" y2="67.9739" gradientUnits="userSpaceOnUse">
<stop stop-color="#DEE5F8"/>
<stop offset="1" stop-color="#BDBEE3"/>
</linearGradient>
<linearGradient id="paint1_linear_1133_514853" x1="38.9116" y1="53.3677" x2="-4.205" y2="1.66266" gradientUnits="userSpaceOnUse">
<stop stop-color="white" stop-opacity="0.7"/>
<stop offset="1" stop-color="#A0A3CF"/>
</linearGradient>
<linearGradient id="paint2_linear_1133_514853" x1="28.5714" y1="1.5798" x2="29.7271" y2="51.1501" gradientUnits="userSpaceOnUse">
<stop stop-color="#F0E3FA"/>
<stop offset="1" stop-color="#EFEDF0"/>
</linearGradient>
<linearGradient id="paint3_linear_1133_514853" x1="80.8167" y1="27.4155" x2="13.3019" y2="39.5304" gradientUnits="userSpaceOnUse">
<stop stop-color="#BDBEE3"/>
<stop offset="1" stop-color="#DEE5F8"/>
</linearGradient>
</defs>
</svg>
