<svg width="65" height="67" viewBox="0 0 65 67" fill="none" xmlns="http://www.w3.org/2000/svg">
<path d="M1.14529 28.9168L0.924805 33.1378L1.14529 37.3589V28.9168ZM2.83105 20.9772L1.14529 28.9168V37.3589L2.83105 20.9772ZM1.14529 37.3589L1.78899 41.421L2.83105 45.2985L1.14529 37.3589ZM2.83105 20.9772L1.78899 24.8547L1.14529 28.9168L2.83105 20.9772ZM1.14529 37.3589L2.83105 45.2985L6.02017 52.3838L1.14529 37.3589ZM2.83105 45.2985L4.24858 48.963L6.02017 52.3838L2.83105 45.2985ZM6.02017 13.8919L4.24858 17.3127L2.83105 20.9772L6.02017 13.8919ZM10.5446 7.91968L2.83105 20.9772L1.14529 37.3589L10.5446 7.91968ZM10.5446 7.91968L6.02017 13.8919L2.83105 20.9772L10.5446 7.91968ZM1.14529 37.3589L6.02017 52.3838L16.2465 62.9085L1.14529 37.3589ZM10.5446 7.91968L8.12543 10.7487L6.02017 13.8919L10.5446 7.91968ZM6.02017 52.3838L8.12543 55.527L10.5446 58.356L6.02017 52.3838ZM10.5446 7.91968L1.14529 37.3589L16.2465 62.9085L10.5446 7.91968ZM6.02017 52.3838L10.5446 58.356L16.2465 62.9085L6.02017 52.3838ZM10.5446 58.356L13.2582 60.8309L16.2465 62.9085L10.5446 58.356ZM16.2465 3.36719L13.2582 5.44481L10.5446 7.91968L16.2465 3.36719Z" fill="#C4C4C4"/>
<path d="M36.1533 65.32L38.904 64.865L42.4839 64.2715L36.1533 65.32Z" fill="#B0B0B0"/>
<path d="M22.9666 0.59375L16.2469 3.36804L10.5449 7.92053L22.9666 0.59375Z" fill="#C4C4C4"/>
<path d="M39.7617 1.55522L42.4839 2.0055L38.904 1.41204L39.7617 1.55522ZM36.1533 0.957031L39.7617 1.55522L38.904 1.41204L36.1533 0.957031ZM39.7617 64.7227L36.1533 65.3209L42.4839 64.2724L39.7617 64.7227ZM39.7617 64.7227L42.4839 64.2724L45.9342 63.126L39.7617 64.7227Z" fill="#B0B0B0"/>
<path d="M16.2451 62.9094L19.4881 64.5433L22.9649 65.6836L16.2451 62.9094ZM22.9649 0.59375L19.4881 1.73411L16.2451 3.36804L22.9649 0.59375Z" fill="#C4C4C4"/>
<path d="M43.2418 2.71463L45.9357 3.15185L42.4855 2.0055L43.2418 2.71463ZM39.7633 1.55522L43.2418 2.71463L42.4855 2.0055L39.7633 1.55522ZM33.3242 65.7891L36.1549 65.3209L39.7633 64.7227L33.3242 65.7891ZM43.2418 63.5633L39.7633 64.7227L45.9357 63.126L43.2418 63.5633ZM43.2418 63.5633L45.9357 63.126L49.2145 61.4519L43.2418 63.5633ZM36.9612 1.09173L39.7633 1.55522L36.1549 0.957031L36.9612 1.09173Z" fill="#B0B0B0"/>
<path d="M16.2451 62.9102L22.9649 65.6844L30.4085 66.2717L16.2451 62.9102Z" fill="#C4C4C4"/>
<path d="M46.5482 4.40957L49.2145 4.82553L45.9357 3.15134L46.5482 4.40957ZM33.3242 0.488281L36.9612 1.09123L36.1549 0.956526L33.3242 0.488281Z" fill="#B0B0B0"/>
<path d="M37.6115 1.80056L22.9666 0.59375L10.5449 7.92053L37.6115 1.80056Z" fill="#C4C4C4"/>
<path d="M43.2418 2.7141L46.5482 4.40954L45.9357 3.15131L43.2418 2.7141ZM36.9612 65.1856L33.3242 65.7886L39.7633 64.7221L36.9612 65.1856ZM36.9612 65.1856L39.7633 64.7221L43.2418 63.5627L36.9612 65.1856ZM46.5482 61.8673L49.2145 61.4513L52.2782 59.2772L46.5482 61.8673ZM46.5482 61.8673L43.2418 63.5627L49.2145 61.4513L46.5482 61.8673ZM40.4682 2.26395L43.2418 2.7141L39.7633 1.55469L40.4682 2.26395ZM49.6383 6.61289L52.2782 6.99963L49.2145 4.8255L49.6383 6.61289Z" fill="#B0B0B0"/>
<path d="M22.9639 65.6834L26.6524 66.277L30.4074 66.2707L22.9639 65.6834ZM30.4074 0.00624731L26.6524 0L22.9639 0.593533L30.4074 0.00624731Z" fill="#C4C4C4"/>
<path d="M36.9609 1.0918L40.4679 2.26455L39.763 1.55529L36.9609 1.0918ZM46.5479 4.41015L49.638 6.61349L49.2142 4.8261L46.5479 4.41015Z" fill="#B0B0B0"/>
<path d="M10.5449 7.91992L16.2469 62.9087L55.7288 28.3273L10.5449 7.91992Z" fill="#C4C4C4"/>
<path d="M30.4072 66.2703L33.3215 65.7883L36.9585 65.1853L30.4072 66.2703ZM49.6356 59.6636L52.2755 59.2769L55.0791 56.6339L49.6356 59.6636ZM40.4654 64.0126L36.9585 65.1853L43.2391 63.5624L40.4654 64.0126ZM49.6356 59.6636L46.5455 61.867L52.2755 59.2769L49.6356 59.6636ZM40.4654 64.0126L43.2391 63.5624L46.5455 61.867L40.4654 64.0126ZM34.073 0.613573L36.9585 1.09088L33.3215 0.487931L34.073 0.613573ZM52.4639 9.29236L55.0791 9.64224L52.2755 6.99931L52.4639 9.29236ZM43.7996 3.98086L46.5455 4.40922L43.2391 2.71378L43.7996 3.98086ZM30.4072 0.00585938L34.073 0.613573L33.3215 0.487931L30.4072 0.00585938ZM49.6356 6.61257L52.4639 9.29236L52.2755 6.99931L49.6356 6.61257Z" fill="#B0B0B0"/>
<path d="M16.2451 62.9088L30.4085 66.2703L44.1156 60.4725L16.2451 62.9088ZM37.6097 1.79996L30.4085 0.00585938L22.9649 0.593145L37.6097 1.79996Z" fill="#C4C4C4"/>
<path d="M40.4654 2.26334L43.7996 3.98057L43.2391 2.71349L40.4654 2.26334ZM52.4639 56.9835L55.0791 56.6337L57.5764 53.5566L52.4639 56.9835ZM34.073 65.6623L30.4072 66.27L36.9585 65.185L34.073 65.6623ZM52.4639 56.9835L49.6356 59.6633L55.0791 56.6337L52.4639 56.9835ZM34.073 65.6623L36.9585 65.185L40.4654 64.0123L34.073 65.6623ZM43.7996 62.295L46.5455 61.8667L49.6356 59.6633L43.7996 62.295ZM43.7996 62.295L40.4654 64.0123L46.5455 61.8667L43.7996 62.295ZM54.9837 12.4132L57.5764 12.719L55.0791 9.64194L54.9837 12.4132ZM37.6085 1.79966L40.4654 2.26334L36.9585 1.09058L37.6085 1.79966ZM46.9164 6.21393L49.6356 6.61228L46.5455 4.40893L46.9164 6.21393ZM52.4639 9.29207L54.9837 12.4132L55.0791 9.64194L52.4639 9.29207ZM54.9837 53.8624L57.5764 53.5566L59.7208 50.0838L54.9837 53.8624ZM34.073 0.613281L37.6085 1.79966L36.9585 1.09058L34.073 0.613281ZM43.7996 3.98057L46.9164 6.21393L46.5455 4.40893L43.7996 3.98057ZM54.9837 53.8624L52.4639 56.9835L57.5764 53.5566L54.9837 53.8624ZM57.1477 15.9368L59.7208 16.1918L57.5764 12.719L57.1477 15.9368Z" fill="#B0B0B0"/>
<path d="M30.4072 66.2703L34.073 65.6626L37.6085 64.4762L30.4072 66.2703ZM37.6085 1.79996L34.073 0.613573L30.4072 0.00585938L37.6085 1.79996Z" fill="#C4C4C4"/>
<path d="M46.9186 60.0625L49.6378 59.6642L52.4662 56.9844L46.9186 60.0625ZM37.6107 64.4768L34.0752 65.6632L40.4677 64.0131L37.6107 64.4768ZM46.9186 60.0625L43.8018 62.2959L49.6378 59.6642L46.9186 60.0625ZM37.6107 64.4768L40.4677 64.0131L43.8018 62.2959L37.6107 64.4768Z" fill="#B0B0B0"/>
<path d="M55.7288 28.3281L37.6115 1.80078L10.5449 7.92075L55.7288 28.3281Z" fill="#C4C4C4"/>
<path d="M57.1496 50.3399L59.7226 50.0849L61.4674 46.2586L57.1496 50.3399ZM54.9856 12.4143L57.1496 15.9379L57.5783 12.7201L54.9856 12.4143ZM49.7716 8.93274L52.4658 9.29319L49.6375 6.6134L49.7716 8.93274ZM58.9106 19.821L61.4674 20.0192L59.7226 16.1929L58.9106 19.821ZM40.9725 3.54036L43.8015 3.98169L40.4673 2.26445L40.9725 3.54036ZM57.1496 50.3399L54.9856 53.8635L59.7226 50.0849L57.1496 50.3399ZM58.9106 46.4568L61.4674 46.2586L62.7668 42.125L58.9106 46.4568ZM46.9183 6.21504L49.7716 8.93274L49.6375 6.6134L46.9183 6.21504ZM37.6104 1.80078L40.9725 3.54036L40.4673 2.26445L37.6104 1.80078ZM60.2222 24.0167L62.7668 24.1529L61.4674 20.0192L60.2222 24.0167ZM57.1496 15.9379L58.9106 19.821L59.7226 16.1929L57.1496 15.9379ZM49.7716 57.3451L52.4658 56.9846L54.9856 53.8635L49.7716 57.3451ZM49.7716 57.3451L46.9183 60.0628L52.4658 56.9846L49.7716 57.3451Z" fill="#B0B0B0"/>
<path d="M30.4072 66.2705L37.6085 64.4764L44.1143 60.4727L30.4072 66.2705Z" fill="#C4C4C4"/>
<path d="M60.2222 42.2609L62.7668 42.1248L63.5768 37.7337L60.2222 42.2609ZM58.9106 46.4566L57.1496 50.3397L61.4674 46.2584L58.9106 46.4566ZM61.0398 28.4739L63.5768 28.5437L62.7668 24.1526L61.0398 28.4739ZM40.9725 62.7373L43.8015 62.2959L46.9183 60.0626L40.9725 62.7373ZM40.9725 62.7373L37.6104 64.4768L43.8015 62.2959L40.9725 62.7373ZM52.3141 12.099L54.9856 12.4141L52.4658 9.29297L52.3141 12.099ZM61.0398 37.8035L63.5768 37.7337L63.8555 33.1387L61.0398 37.8035ZM61.3212 33.1387H63.8555L63.5768 28.5437L61.3212 33.1387ZM58.9106 19.8208L60.2222 24.0165L61.4674 20.019L58.9106 19.8208Z" fill="#B0B0B0"/>
<path d="M16.2451 62.9096L44.1156 60.4733L55.7271 28.3281L16.2451 62.9096Z" fill="#C4C4C4"/>
<path d="M44.1154 5.80325L46.9175 6.21375L43.8007 3.98039L44.1154 5.80325ZM60.2214 42.2598L58.9098 46.4555L62.766 42.1237L60.2214 42.2598ZM49.7708 8.93144L52.3133 12.098L52.465 9.29189L49.7708 8.93144ZM52.3133 54.1773L54.9848 53.8622L57.1488 50.3386L52.3133 54.1773ZM60.2214 24.0154L61.039 28.4728L62.766 24.1516L60.2214 24.0154ZM61.039 37.8024L60.2214 42.2598L63.576 37.7326L61.039 37.8024ZM40.9717 3.53906L44.1154 5.80325L43.8007 3.98039L40.9717 3.53906ZM52.3133 54.1773L49.7708 57.3438L54.9848 53.8622L52.3133 54.1773ZM54.4971 15.6738L57.1488 15.9366L54.9848 12.413L54.4971 15.6738ZM61.039 28.4728L61.3204 33.1376L63.576 28.5426L61.039 28.4728ZM61.3204 33.1376L61.039 37.8024L63.8547 33.1376H61.3204ZM44.1154 60.472L46.9175 60.0615L49.7708 57.3438L44.1154 60.472ZM44.1154 60.472L40.9717 62.7362L46.9175 60.0615L44.1154 60.472Z" fill="#B0B0B0"/>
<path d="M37.6104 64.4771L40.9725 62.7375L44.1162 60.4733L37.6104 64.4771ZM44.1162 5.80454L40.9725 3.54036L37.6104 1.80078L44.1162 5.80454Z" fill="#C4C4C4"/>
<path d="M54.498 50.6029L57.1496 50.34L58.9106 46.457L54.498 50.6029ZM52.3141 12.0994L54.498 15.6753L54.9857 12.4145L52.3141 12.0994ZM46.9947 8.56137L49.7716 8.93288L46.9183 6.21519L46.9947 8.56137ZM56.2754 19.6169L58.9106 19.8212L57.1496 15.9381L56.2754 19.6169ZM54.498 50.6029L52.3141 54.1787L57.1496 50.34L54.498 50.6029ZM56.2754 46.6612L58.9106 46.457L60.2223 42.2613L56.2754 46.6612ZM44.1162 5.80469L46.9947 8.56137L46.9183 6.21519L44.1162 5.80469ZM57.5994 23.8765L60.2223 24.0168L58.9106 19.8212L57.5994 23.8765ZM54.498 15.6753L56.2754 19.6169L57.1496 15.9381L54.498 15.6753ZM46.9947 57.7168L49.7716 57.3452L52.3141 54.1787L46.9947 57.7168Z" fill="#B0B0B0"/>
<path d="M49.5601 11.7744L44.1162 5.80454L37.6104 1.80078L49.5601 11.7744Z" fill="#C4C4C4"/>
<path d="M46.9947 57.7159L44.1162 60.4726L49.7716 57.3444L46.9947 57.7159ZM57.5994 42.4008L60.2223 42.2605L61.0399 37.803L57.5994 42.4008ZM56.2754 46.6604L54.498 50.602L58.9106 46.4561L56.2754 46.6604ZM58.4247 28.4016L61.0399 28.4735L60.2223 24.016L58.4247 28.4016ZM49.5602 11.7738L52.3141 12.0986L49.7716 8.93206L49.5602 11.7738ZM58.4247 37.8749L61.0399 37.803L61.3212 33.1382L58.4247 37.8749ZM58.7088 33.1382H61.3212L61.0399 28.4735L58.7088 33.1382ZM56.2754 19.6161L57.5994 23.8757L58.9106 19.8203L56.2754 19.6161ZM57.5994 42.4008L56.2754 46.6604L60.2223 42.2605L57.5994 42.4008ZM46.9947 8.56055L49.5602 11.7738L49.7716 8.93206L46.9947 8.56055ZM49.5602 54.5027L52.3141 54.1779L54.498 50.602L49.5602 54.5027ZM57.5994 23.8757L58.4247 28.4016L60.2223 24.016L57.5994 23.8757ZM58.4247 37.8749L57.5994 42.4008L61.0399 37.803L58.4247 37.8749ZM49.5602 54.5027L46.9947 57.7159L52.3141 54.1779L49.5602 54.5027ZM51.7641 15.4035L54.498 15.6744L52.3141 12.0986L51.7641 15.4035ZM58.4247 28.4016L58.7088 33.1382L61.0399 28.4735L58.4247 28.4016ZM58.7088 33.1382L58.4247 37.8749L61.3212 33.1382H58.7088Z" fill="#B0B0B0"/>
<path d="M44.1162 60.4733L46.9947 57.7166L49.5601 54.5034L44.1162 60.4733ZM49.5601 11.7744L46.9947 8.56122L44.1162 5.80454L49.5601 11.7744ZM55.7277 28.3281L49.5601 11.7744L37.6104 1.80078L55.7277 28.3281Z" fill="#C4C4C4"/>
<path d="M51.7664 50.8727L54.5003 50.6017L56.2777 46.6601L51.7664 50.8727ZM49.5625 11.7734L51.7664 15.4032L52.3165 12.0983L49.5625 11.7734ZM53.5604 19.4051L56.2777 19.6157L54.5003 15.6741L53.5604 19.4051ZM51.7664 50.8727L49.5625 54.5024L54.5003 50.6017L51.7664 50.8727Z" fill="#B0B0B0"/>
<path d="M44.1162 60.4726L49.5602 54.5027L53.558 46.8711L44.1162 60.4726Z" fill="#C4C4C4"/>
<path d="M53.5576 46.8719L56.275 46.6612L57.599 42.4016L53.5576 46.8719ZM54.8941 23.7317L57.599 23.8765L56.275 19.6169L54.8941 23.7317ZM51.7637 15.4043L53.5576 19.4062L54.4976 15.6753L51.7637 15.4043ZM54.8941 42.5463L57.599 42.4016L58.4244 37.8757L54.8941 42.5463ZM53.5576 46.8719L51.7637 50.8738L56.275 46.6612L53.5576 46.8719ZM55.7273 28.3282L58.4244 28.4024L57.599 23.8765L55.7273 28.3282Z" fill="#B0B0B0"/>
<path d="M44.1162 60.4733L53.558 46.8718L55.7277 28.3281L44.1162 60.4733Z" fill="#C4C4C4"/>
<path d="M55.7275 37.9498L58.4246 37.8757L58.7086 33.139L55.7275 37.9498ZM56.0143 33.139H58.7086L58.4246 28.4023L56.0143 33.139Z" fill="#B0B0B0"/>
<path d="M49.5625 54.5024L51.7664 50.8727L53.5604 46.8708L49.5625 54.5024ZM53.5604 19.4051L51.7664 15.4032L49.5625 11.7734L53.5604 19.4051Z" fill="#C4C4C4"/>
<path d="M53.5576 19.4062L54.8941 23.7318L56.275 19.6169L53.5576 19.4062ZM54.8941 42.5464L53.5576 46.8719L57.599 42.4017L54.8941 42.5464ZM54.8941 23.7318L55.7273 28.3283L57.599 23.8765L54.8941 23.7318Z" fill="#B0B0B0"/>
<path d="M55.7301 28.3271L53.5604 19.4051L49.5625 11.7734L55.7301 28.3271Z" fill="#C4C4C4"/>
<path d="M55.7297 37.9498L54.8965 42.5462L58.4267 37.8756L55.7297 37.9498ZM55.7297 28.3281L56.0164 33.1389L58.4267 28.4023L55.7297 28.3281ZM56.0164 33.1389L55.7297 37.9498L58.7107 33.1389H56.0164Z" fill="#B0B0B0"/>
<path d="M53.5576 46.8719L54.8941 42.5464L55.7273 37.9499L53.5576 46.8719ZM55.7273 28.3283L54.8941 23.7318L53.5576 19.4062L55.7273 28.3283ZM53.5576 46.8719L55.7273 37.9499V28.3283L53.5576 46.8719ZM55.7273 37.9499L56.0141 33.1391L55.7273 28.3283V37.9499Z" fill="#C4C4C4"/>
<path d="M55.777 33.2557C55.777 51.4365 43.5398 66.0113 28.6287 66.0113C13.7176 66.0113 1.48047 51.4365 1.48047 33.2557C1.48047 15.0748 13.7176 0.5 28.6287 0.5C43.5398 0.5 55.777 15.0748 55.777 33.2557Z" fill="url(#paint0_linear_1133_515200)" stroke="url(#paint1_linear_1133_515200)"/>
<g filter="url(#filter0_d_1133_515200)">
<path d="M21.0801 27.2429L25.3651 27.2981L25.502 26.6896L21.0801 27.2429ZM21.2173 26.6288L25.502 26.6896L25.6619 26.1334L21.2173 26.6288ZM21.3777 26.0673L25.6619 26.1334L25.8451 25.6296L21.3777 26.0673ZM21.5613 25.5587L25.8451 25.6296L26.0514 25.178L21.5613 25.5587ZM21.7683 25.1029L26.0514 25.178L26.281 24.7787L21.7683 25.1029ZM21.9985 24.6998L26.281 24.7787L26.5339 24.4316L21.9985 24.6998Z" fill="#E5E5E5"/>
<path d="M18.5354 43.0311L17.9238 43.8021V47.5388L18.5354 43.0311ZM18.2609 24.5151L18.161 25.01L18.0794 25.5231L18.2609 24.5151ZM18.5153 23.5801L18.2609 24.5151L18.0794 25.5231L18.5153 23.5801Z" fill="white"/>
<path d="M22.252 24.3492L26.5338 24.4314L26.81 24.1367L22.252 24.3492Z" fill="#E5E5E5"/>
<path d="M18.5153 23.5801L18.379 24.0385L18.2609 24.5151L18.5153 23.5801ZM19.1156 42.2948L18.5354 43.0311L17.9238 47.5388L19.1156 42.2948Z" fill="white"/>
<path d="M22.5293 24.0519L26.8104 24.1369L27.11 23.8945L22.5293 24.0519Z" fill="#E5E5E5"/>
<path d="M19.2428 21.9277L18.515 23.5801L18.0791 25.5231L19.2428 21.9277Z" fill="white"/>
<path d="M22.5918 43.2652L26.8727 43.1708L27.0469 42.9883L22.5918 43.2652Z" fill="#E5E5E5"/>
<path d="M18.8429 22.7168L18.6701 23.1389L18.5156 23.5792L18.8429 22.7168Z" fill="white"/>
<path d="M22.7656 43.082L27.046 42.9894L27.212 42.8145L22.7656 43.082Z" fill="#E5E5E5"/>
<path d="M19.2434 21.9277L18.8429 22.7177L18.5156 23.5801L19.2434 21.9277Z" fill="white"/>
<path d="M22.8291 23.8057L27.1093 23.8931L27.4325 23.7031L22.8291 23.8057ZM22.9317 42.9041L27.2117 42.8131L27.3694 42.6459L22.9317 42.9041Z" fill="#E5E5E5"/>
<path d="M19.2423 21.9277L19.0329 22.3137L18.8418 22.7177L19.2423 21.9277Z" fill="white"/>
<path d="M23.0904 42.7361L27.3699 42.6467L27.5195 42.4872L23.0904 42.7361ZM21.2173 26.6281L21.0801 27.2423L25.502 26.6889L21.2173 26.6281ZM23.1537 23.6147L27.433 23.7039L27.7797 23.5664L23.1537 23.6147ZM23.2404 42.5751L27.5195 42.4872L27.6607 42.3353L23.2404 42.5751ZM21.3777 26.0667L21.2173 26.6281L25.6619 26.1327L21.3777 26.0667ZM23.382 42.4219L27.6607 42.3353L27.7937 42.1912L23.382 42.4219Z" fill="#E5E5E5"/>
<path d="M19.7162 21.209L19.47 21.5588L19.2422 21.9266L19.7162 21.209Z" fill="white"/>
<path d="M21.5616 25.5587L21.3779 26.0673L25.8453 25.6296L21.5616 25.5587ZM23.5156 42.2771L27.7939 42.1919L27.9186 42.0555L23.5156 42.2771ZM23.5015 23.4766L27.7799 23.5671L28.1502 23.4821L23.5015 23.4766Z" fill="#E5E5E5"/>
<path d="M21.548 19.5176L19.2428 21.9269L18.0791 25.5223L21.548 19.5176Z" fill="white"/>
<path d="M23.6406 42.1381L27.9186 42.0542L28.035 41.9255L23.6406 42.1381ZM21.7684 25.1016L21.5615 25.5574L26.0516 25.1767L21.7684 25.1016Z" fill="#E5E5E5"/>
<path d="M20.2639 20.5645L19.7162 21.2099L19.2422 21.9275L20.2639 20.5645Z" fill="white"/>
<path d="M23.7568 42.0083L28.0345 41.9255L28.1426 41.8046L23.7568 42.0083ZM23.8653 41.8862L28.1426 41.8046L28.2424 41.6914L23.8653 41.8862Z" fill="#E5E5E5"/>
<path d="M19.1156 42.2949L17.9238 47.5389L22.5914 43.266L19.1156 42.2949Z" fill="white"/>
<path d="M21.9978 24.6996L21.7676 25.1027L26.2803 24.7786L21.9978 24.6996ZM23.9651 41.7731L28.2421 41.6926L28.3336 41.5872L23.9651 41.7731ZM23.872 23.3906L28.1493 23.482L28.5433 23.4496L23.872 23.3906Z" fill="#E5E5E5"/>
<path d="M20.2646 20.5645L19.9814 20.8781L19.7168 21.2099L20.2646 20.5645Z" fill="white"/>
<path d="M24.0576 41.6655L28.3344 41.5859L28.4176 41.4883L24.0576 41.6655Z" fill="#E5E5E5"/>
<path d="M18.0791 25.5234L21.0801 27.2428L21.2173 26.6286L18.0791 25.5234Z" fill="white"/>
<path d="M24.1405 41.5665L28.4171 41.4878L28.5765 41.2968L24.1405 41.5665ZM22.2516 24.3477L21.998 24.698L26.5335 24.4299L22.2516 24.3477Z" fill="#E5E5E5"/>
<path d="M18.0791 25.5234L21.2173 26.6286L21.3777 26.0672L18.0791 25.5234Z" fill="white"/>
<path d="M24.2676 23.3574L28.5438 23.4492L28.7661 23.4526L24.2676 23.3574ZM24.3006 41.3749L28.5767 41.298L28.7389 41.1002L24.3006 41.3749Z" fill="#E5E5E5"/>
<path d="M18.0791 25.5223L21.3777 26.0661L21.5613 25.5575L18.0791 25.5223ZM21.548 19.5176L20.2645 20.5638L19.2428 21.9269L21.548 19.5176Z" fill="white"/>
<path d="M22.529 24.0508L22.252 24.3483L26.81 24.1358L22.529 24.0508Z" fill="#E5E5E5"/>
<path d="M18.0791 25.5223L21.5613 25.5574L21.7682 25.1016L18.0791 25.5223Z" fill="white"/>
<path d="M24.4629 41.1742L28.7385 41.0992L28.9034 40.8945L24.4629 41.1742Z" fill="#E5E5E5"/>
<path d="M20.883 19.9902L20.5679 20.2643L20.2645 20.5634L20.883 19.9902ZM18.0791 25.5219L21.7682 25.1011L21.9985 24.698L18.0791 25.5219Z" fill="white"/>
<path d="M24.629 40.9687L28.9042 40.8955L29.0718 40.684L24.629 40.9687ZM22.766 43.0816L22.5913 43.2658L27.0464 42.9889L22.766 43.0816ZM22.8298 23.8066L22.5293 24.0513L27.11 23.894L22.8298 23.8066Z" fill="#E5E5E5"/>
<path d="M18.0791 25.5218L21.9985 24.698L22.2521 24.3477L18.0791 25.5218Z" fill="white"/>
<path d="M24.7967 40.7543L29.0714 40.6832L29.2417 40.4648L24.7967 40.7543ZM22.9321 42.9042L22.7656 43.0808L27.212 42.8132L22.9321 42.9042Z" fill="#E5E5E5"/>
<path d="M21.548 19.5176L20.883 19.9907L20.2645 20.5638L21.548 19.5176ZM18.0791 25.5223L22.2521 24.3482L22.5291 24.0506L18.0791 25.5223ZM19.664 41.5928L19.1153 42.2941L24.1409 41.567L19.664 41.5928Z" fill="white"/>
<path d="M24.9672 40.5351L29.2414 40.466L29.4144 40.2408L24.9672 40.5351ZM23.0899 42.7367L22.9317 42.9054L27.3694 42.6472L23.0899 42.7367ZM23.1531 23.6152L22.8291 23.807L27.4325 23.7044L23.1531 23.6152Z" fill="#E5E5E5"/>
<path d="M18.0791 25.523L22.5291 24.0513L22.8296 23.8066L18.0791 25.523Z" fill="white"/>
<path d="M25.1406 40.3069L29.4144 40.2399L29.5901 40.0078L25.1406 40.3069ZM23.2398 42.5747L23.0898 42.7358L27.5189 42.4868L23.2398 42.5747Z" fill="#E5E5E5"/>
<path d="M21.5479 19.5176L21.2095 19.7416L20.8828 19.9907L21.5479 19.5176Z" fill="white"/>
<path d="M23.3809 42.4222L23.2393 42.5755L27.6596 42.3357L23.3809 42.4222ZM25.3164 40.0733L29.5896 40.0085L29.7682 39.7695L25.3164 40.0733Z" fill="#E5E5E5"/>
<path d="M18.0791 25.5234L22.8296 23.807L23.1536 23.6152L18.0791 25.5234Z" fill="white"/>
<path d="M23.501 23.4766L23.1533 23.6155L27.7793 23.5671L23.501 23.4766ZM25.6395 18.6719L29.9118 18.8078L29.4424 18.7723L25.6395 18.6719ZM23.515 42.2771L23.3817 42.4226L27.7934 42.1919L23.515 42.2771ZM25.4962 39.8325L29.7689 39.7699L29.9502 39.524L25.4962 39.8325Z" fill="#E5E5E5"/>
<path d="M18.0791 25.5236L23.1536 23.6154L23.5013 23.4766L18.0791 25.5236Z" fill="white"/>
<path d="M23.6397 42.1386L23.5146 42.2763L27.9177 42.0547L23.6397 42.1386Z" fill="#E5E5E5"/>
<path d="M19.1152 42.2949L22.591 43.266L23.2403 42.5754L19.1152 42.2949Z" fill="white"/>
<path d="M25.679 39.5837L29.9512 39.5234L30.1352 39.2706L25.679 39.5837ZM23.7578 42.009L23.6411 42.1389L28.0355 41.9262L23.7578 42.009ZM23.8733 23.3902L23.502 23.476L28.1506 23.4815L23.8733 23.3902ZM23.8663 41.8869L23.7578 42.009L28.1436 41.8053L23.8663 41.8869ZM25.8635 39.3285L30.1352 39.2706L30.322 39.0109L25.8635 39.3285ZM26.0934 18.7383L30.3644 18.8736L29.9128 18.8072L26.0934 18.7383Z" fill="#E5E5E5"/>
<path d="M22.2598 19.1445L21.8979 19.3184L21.5479 19.5174L22.2598 19.1445Z" fill="white"/>
<path d="M23.9653 41.7727L23.8652 41.8869L28.2424 41.6921L23.9653 41.7727ZM24.0571 41.6663L23.9653 41.7727L28.3339 41.5867L24.0571 41.6663ZM26.0498 39.0664L30.321 39.0109L30.5105 38.7443L26.0498 39.0664ZM24.1406 41.5677L24.0571 41.6663L28.4171 41.489L24.1406 41.5677ZM24.2674 23.3574L23.8723 23.3902L28.5436 23.4492L24.2674 23.3574Z" fill="#E5E5E5"/>
<path d="M19.1152 42.2935L23.2403 42.574L24.1408 41.5664L19.1152 42.2935Z" fill="white"/>
<path d="M24.3005 41.3755L24.1406 41.5683L28.5766 41.2986L24.3005 41.3755ZM26.24 38.7978L30.5106 38.7449L30.7309 38.4473L26.24 38.7978Z" fill="#E5E5E5"/>
<path d="M23.019 18.873L22.2598 19.1454L21.5479 19.5182L23.019 18.873Z" fill="white"/>
<path d="M26.5274 18.8359L30.7972 18.9705L30.3635 18.8729L26.5274 18.8359ZM24.4632 41.1745L24.3006 41.3742L28.7389 41.0995L24.4632 41.1745ZM24.4906 23.3601L24.2676 23.3567L28.7661 23.4519L24.4906 23.3601ZM26.4611 38.496L30.731 38.4459L30.9467 38.1469L26.4611 38.496ZM24.6286 40.9679L24.4632 41.1745L28.9038 40.8948L24.6286 40.9679Z" fill="#E5E5E5"/>
<path d="M28.0857 19.545L21.548 19.5182L18.0791 25.523L28.0857 19.545ZM23.0191 18.873L22.6336 18.9966L22.26 19.1454L23.0191 18.873Z" fill="white"/>
<path d="M26.6777 38.1952L30.947 38.1479L31.158 37.8475L26.6777 38.1952ZM24.797 40.7555L24.6289 40.969L29.0717 40.6843L24.797 40.7555ZM26.9445 18.9668L31.2131 19.1002L30.7975 18.9715L26.9445 18.9668Z" fill="#E5E5E5"/>
<path d="M22.5918 43.2651L22.7665 43.0808L22.9329 42.9043L22.5918 43.2651Z" fill="white"/>
<path d="M26.8882 37.8911L31.1569 37.8467L31.3631 37.5449L26.8882 37.8911ZM24.9667 40.5342L24.7959 40.7546L29.2409 40.4651L24.9667 40.5342Z" fill="#E5E5E5"/>
<path d="M22.5918 43.2648L22.9329 42.904L23.2411 42.5742L22.5918 43.2648Z" fill="white"/>
<path d="M25.1423 40.3072L24.9688 40.5346L29.416 40.2402L25.1423 40.3072Z" fill="#E5E5E5"/>
<path d="M24.6802 18.6309L23.019 18.8728L21.5479 19.518L24.6802 18.6309Z" fill="white"/>
<path d="M27.0957 37.5869L31.3638 37.5453L31.5653 37.2422L27.0957 37.5869Z" fill="#E5E5E5"/>
<path d="M22.9326 42.904L23.0908 42.7352L23.2407 42.5742L22.9326 42.904Z" fill="white"/>
<path d="M27.3438 19.1275L31.6112 19.2595L31.2136 19.0996L27.3438 19.1275Z" fill="#E5E5E5"/>
<path d="M20.181 40.9274L19.664 41.5935L29.766 32.4022L20.181 40.9274ZM28.0857 19.5449L18.0791 25.5229L23.5013 23.4759L28.0857 19.5449Z" fill="white"/>
<path d="M25.3169 40.0723L25.1406 40.3066L29.5902 40.0075L25.3169 40.0723ZM27.2974 37.2803L31.5649 37.2415L31.7616 36.9371L27.2974 37.2803ZM25.1685 18.6348L25.6393 18.6705L29.4421 18.7709L25.1685 18.6348Z" fill="#E5E5E5"/>
<path d="M23.2393 42.5741L23.3809 42.4209L23.5143 42.2754L23.2393 42.5741Z" fill="white"/>
<path d="M25.4954 39.8321L25.3164 40.0733L29.7682 39.7695L25.4954 39.8321Z" fill="#E5E5E5"/>
<path d="M23.8252 18.7012L23.4159 18.7743L23.0186 18.8727L23.8252 18.7012Z" fill="white"/>
<path d="M27.4951 36.9725L31.7621 36.9367L31.954 36.6309L27.4951 36.9725Z" fill="#E5E5E5"/>
<path d="M23.2393 42.576L23.5143 42.2773L23.7561 42.0098L23.2393 42.576Z" fill="white"/>
<path d="M27.7236 19.3206L31.9899 19.4509L31.6106 19.2598L27.7236 19.3206Z" fill="#E5E5E5"/>
<path d="M20.6658 40.2969L20.1807 40.9276L29.7657 32.4023L20.6658 40.2969Z" fill="white"/>
<path d="M25.6779 39.5837L25.4961 39.8319L29.9501 39.5234L25.6779 39.5837Z" fill="#E5E5E5"/>
<path d="M23.5146 42.2773L23.6397 42.1396L23.7565 42.0098L23.5146 42.2773Z" fill="white"/>
<path d="M27.6884 36.6643L31.9548 36.6314L32.142 36.3242L27.6884 36.6643ZM22.5918 43.2651L31.9063 43.4109L26.8727 43.1708L22.5918 43.2651Z" fill="#E5E5E5"/>
<path d="M23.2393 42.574L23.7561 42.0077L24.1398 41.5664L23.2393 42.574Z" fill="white"/>
<path d="M25.6387 18.6719L26.0916 18.7389L29.911 18.8078L25.6387 18.6719ZM25.8617 39.3291L25.6772 39.5843L30.1334 39.2712L25.8617 39.3291Z" fill="#E5E5E5"/>
<path d="M24.6798 18.6309L23.8252 18.7013L23.0186 18.8728L24.6798 18.6309Z" fill="white"/>
<path d="M27.875 36.3542L32.1409 36.3241L32.3232 36.0156L27.875 36.3542Z" fill="#E5E5E5"/>
<path d="M21.1192 39.7019L20.666 40.2969L29.7659 32.4023L21.1192 39.7019ZM23.757 42.009L23.8655 41.887L23.9656 41.7727L23.757 42.009Z" fill="white"/>
<path d="M28.085 19.5454L32.3502 19.6735L31.9891 19.4512L28.085 19.5454Z" fill="#E5E5E5"/>
<path d="M23.7568 42.0077L23.9654 41.7714L24.1406 41.5664L23.7568 42.0077Z" fill="white"/>
<path d="M26.0506 39.0668L25.8633 39.3289L30.3217 39.0113L26.0506 39.0668ZM28.0587 36.044L32.324 36.0168L32.5016 35.707L28.0587 36.044Z" fill="#E5E5E5"/>
<path d="M23.966 41.7727L24.0578 41.6663L24.1412 41.5677L23.966 41.7727ZM17.9238 47.5388L31.9059 43.4116L22.5914 43.2659L17.9238 47.5388ZM21.5406 39.1425L21.1196 39.7019L29.7663 32.4023L21.5406 39.1425Z" fill="white"/>
<path d="M26.2409 38.7972L26.0508 39.0664L30.5115 38.7443L26.2409 38.7972ZM28.237 35.7308L32.5018 35.7066L32.6746 35.3955L28.237 35.7308ZM26.0933 18.7383L26.5282 18.8367L30.3643 18.8736L26.0933 18.7383ZM28.4301 19.801L32.6944 19.9268L32.3515 19.6732L28.4301 19.801Z" fill="#E5E5E5"/>
<path d="M24.6807 18.6309L24.2475 18.6534L23.8262 18.7013L24.6807 18.6309ZM24.1413 41.5674L24.3012 41.3746L24.4638 41.175L24.1413 41.5674Z" fill="white"/>
<path d="M26.4613 38.4957L26.2402 38.7962L30.7312 38.4456L26.4613 38.4957ZM28.4097 35.4157L32.674 35.3945L32.8419 35.082L28.4097 35.4157Z" fill="#E5E5E5"/>
<path d="M21.9292 38.6191L21.5404 39.1425L29.7661 32.4023L21.9292 38.6191ZM24.141 41.5677L24.4635 41.1753L24.7969 40.7552L24.141 41.5677ZM19.6641 41.5936L24.141 41.5677L29.7661 32.4023L19.6641 41.5936Z" fill="white"/>
<path d="M28.5778 35.1003L32.8416 35.082L33.0003 34.7782L28.5778 35.1003ZM28.7547 20.0876L33.0179 20.2107L32.6934 19.9258L28.7547 20.0876ZM26.6772 38.1939L26.4609 38.4957L30.9466 38.1466L26.6772 38.1939Z" fill="#E5E5E5"/>
<path d="M24.4629 41.1759L24.6282 40.9694L24.7963 40.7559L24.4629 41.1759Z" fill="white"/>
<path d="M26.5264 18.8359L26.9432 18.9658L30.7961 18.9705L26.5264 18.8359Z" fill="#E5E5E5"/>
<path d="M22.2851 38.1317L21.9287 38.6191L29.7656 32.4023L22.2851 38.1317Z" fill="white"/>
<path d="M28.7365 34.7947L32.9998 34.7793L33.1555 34.4668L28.7365 34.7947ZM31.9047 43.4116L36.1586 43.3146L26.8711 43.1716L31.9047 43.4116Z" fill="#E5E5E5"/>
<path d="M28.0856 19.5447L24.6802 18.6309L21.5479 19.518L28.0856 19.5447Z" fill="white"/>
<path d="M26.8883 37.8921L26.6768 38.1953L31.157 37.8477L26.8883 37.8921Z" fill="#E5E5E5"/>
<path d="M24.1406 41.5678L24.7965 40.7553L25.4962 39.832L24.1406 41.5678Z" fill="white"/>
<path d="M28.8945 34.4783L33.1574 34.4659L33.31 34.1448L28.8945 34.4783ZM29.063 20.407L33.3254 20.5272L33.0193 20.2109L29.063 20.407Z" fill="#E5E5E5"/>
<path d="M22.6101 37.6804L22.2861 38.1317L29.7666 32.4023L22.6101 37.6804ZM24.7974 40.7552L24.9682 40.5348L25.1418 40.3074L24.7974 40.7552Z" fill="white"/>
<path d="M27.0955 37.5874L26.8887 37.892L31.3636 37.5458L27.0955 37.5874ZM29.0461 34.1553L33.3085 34.1459L33.4581 33.816L29.0461 34.1553ZM26.944 18.9668L27.3426 19.1281L31.2125 19.1002L26.944 18.9668Z" fill="#E5E5E5"/>
<path d="M22.9017 37.2655L22.6104 37.6804L29.7668 32.4023L22.9017 37.2655Z" fill="white"/>
<path d="M29.1953 33.8213L33.4573 33.8151L33.6038 33.4766L29.1953 33.8213Z" fill="#E5E5E5"/>
<path d="M24.7959 40.7553L25.1403 40.3076L25.4956 39.832L24.7959 40.7553Z" fill="white"/>
<path d="M29.3516 20.758L33.6131 20.875L33.3254 20.5273L29.3516 20.758Z" fill="#E5E5E5"/>
<path d="M28.0864 19.5447L23.502 23.4757L23.8733 23.3899L28.0864 19.5447ZM25.6405 18.671L25.1697 18.6353L24.681 18.6309L25.6405 18.671Z" fill="white"/>
<path d="M27.2977 37.2809L27.0957 37.5869L31.5653 37.2422L27.2977 37.2809Z" fill="#E5E5E5"/>
<path d="M23.1591 36.887L22.9004 37.2655L29.7655 32.4023L23.1591 36.887Z" fill="white"/>
<path d="M29.3438 33.4791L33.6053 33.4761L33.7488 33.1289L29.3438 33.4791Z" fill="#E5E5E5"/>
<path d="M25.1406 40.3076L25.3169 40.0733L25.496 39.832L25.1406 40.3076Z" fill="white"/>
<path d="M27.4961 36.9734L27.2988 37.2807L31.7631 36.9375L27.4961 36.9734Z" fill="#E5E5E5"/>
<path d="M28.0861 19.5449L23.873 23.3901L24.2682 23.3573L28.0861 19.5449Z" fill="white"/>
<path d="M29.6188 21.1248L33.8796 21.2383L33.6127 20.8749L29.6188 21.1248ZM29.4881 33.1288L33.7492 33.1291L33.8896 32.7732L29.4881 33.1288ZM27.3438 19.127L27.7242 19.3198L31.6112 19.2589L27.3438 19.127ZM29.6289 32.7695L33.8896 32.7732L34.0269 32.4086L29.6289 32.7695Z" fill="#E5E5E5"/>
<path d="M23.7858 35.9333L23.1592 36.887L29.7656 32.4023L23.7858 35.9333ZM24.1406 41.5677L25.4961 39.8319L27.0955 37.5871L24.1406 41.5677Z" fill="white"/>
<path d="M27.6876 36.6638L27.4951 36.9725L31.954 36.6309L27.6876 36.6638Z" fill="#E5E5E5"/>
<path d="M28.0855 19.5447L24.2676 23.3572L24.4906 23.3606L28.0855 19.5447ZM26.5274 18.8364L25.6396 18.671L24.6802 18.6309L26.5274 18.8364Z" fill="white"/>
<path d="M29.8623 21.5055L34.1223 21.6155L33.8784 21.2383L29.8623 21.5055Z" fill="#E5E5E5"/>
<path d="M25.4961 39.8315L25.6779 39.5833L25.8624 39.3281L25.4961 39.8315Z" fill="white"/>
<path d="M29.7656 32.4013L34.0259 32.4084L34.1602 32.0352L29.7656 32.4013Z" fill="#E5E5E5"/>
<path d="M28.0852 19.5449L24.4902 23.3608L24.7045 23.3781L28.0852 19.5449Z" fill="white"/>
<path d="M27.8752 36.3547L27.6875 36.6647L32.1411 36.3246L27.8752 36.3547ZM27.7233 19.3203L28.0855 19.5447L31.9896 19.4505L27.7233 19.3203ZM29.9005 32.0252L34.1603 32.0359L34.2915 31.6539L29.9005 32.0252Z" fill="#E5E5E5"/>
<path d="M25.4961 39.8315L25.8624 39.3281L26.2398 38.7969L25.4961 39.8315Z" fill="white"/>
<path d="M30.084 21.8999L34.3433 22.0062L34.1225 21.6152L30.084 21.8999Z" fill="#E5E5E5"/>
<path d="M28.0847 19.5449L24.7041 23.3781L24.9097 23.4092L28.0847 19.5449Z" fill="white"/>
<path d="M28.0579 36.0437L27.875 36.3551L32.3232 36.0165L28.0579 36.0437ZM30.0318 31.64L34.2913 31.6543L34.4194 31.2637L30.0318 31.64Z" fill="#E5E5E5"/>
<path d="M24.3593 35.0039L23.7861 35.9339L29.7659 32.4029L24.3593 35.0039ZM28.0856 19.5456L24.9106 23.4099L25.1076 23.4548L28.0856 19.5456ZM25.8628 39.3291L26.0501 39.067L26.2402 38.7978L25.8628 39.3291ZM26.5275 18.8373L26.0926 18.7389L25.6398 18.6719L26.5275 18.8373Z" fill="white"/>
<path d="M30.161 31.2454L34.4201 31.2635L34.5452 30.8641L30.161 31.2454ZM30.2828 22.3095L34.5416 22.412L34.3439 22.0073L30.2828 22.3095ZM28.2367 35.7307L28.0586 36.0435L32.5015 35.7065L28.2367 35.7307ZM28.086 19.5449L28.4298 19.8009L32.3512 19.6731L28.086 19.5449Z" fill="#E5E5E5"/>
<path d="M28.0845 19.5449L25.1064 23.4541L25.2947 23.513L28.0845 19.5449Z" fill="white"/>
<path d="M30.2861 30.8427L34.5449 30.8646L34.6632 30.4492L30.2861 30.8427Z" fill="#E5E5E5"/>
<path d="M25.4961 39.8307L26.2398 38.7961L27.0955 37.5859L25.4961 39.8307Z" fill="white"/>
<path d="M30.458 22.732L34.7162 22.8306L34.5417 22.4121L30.458 22.732Z" fill="#E5E5E5"/>
<path d="M28.0858 19.5449L25.2959 23.513L25.4754 23.5856L28.0858 19.5449Z" fill="white"/>
<path d="M28.4096 35.4166L28.2363 35.7306L32.6739 35.3953L28.4096 35.4166ZM30.4048 30.4228L34.6631 30.4486L34.7713 30.0371L30.4048 30.4228Z" fill="#E5E5E5"/>
<path d="M24.8789 34.0972L24.3594 35.0032L29.7659 32.4022L24.8789 34.0972ZM28.0857 19.5449L25.4753 23.5856L25.646 23.6722L28.0857 19.5449Z" fill="white"/>
<path d="M30.5127 30.0067L34.7707 30.0365L34.8686 29.6289L30.5127 30.0067Z" fill="#E5E5E5"/>
<path d="M28.085 19.5447L26.5269 18.8364L24.6797 18.6309L28.085 19.5447Z" fill="white"/>
<path d="M30.6104 23.1678L34.8681 23.2622L34.7168 22.8301L30.6104 23.1678Z" fill="#E5E5E5"/>
<path d="M26.2402 38.7976L26.4613 38.4972L26.6775 38.1953L26.2402 38.7976Z" fill="white"/>
<path d="M28.5777 35.1011L28.4092 35.4165L32.8415 35.0829L28.5777 35.1011ZM28.429 19.8008L28.7545 20.0884L32.6933 19.9266L28.429 19.8008Z" fill="#E5E5E5"/>
<path d="M28.0862 19.5449L25.6465 23.6722L25.8084 23.7726L28.0862 19.5449Z" fill="white"/>
<path d="M30.6113 29.5951L34.8691 29.6288L34.9567 29.2251L30.6113 29.5951ZM30.7378 23.6173L34.9952 23.7075L34.8671 23.2617L30.7378 23.6173ZM30.6992 29.1875L34.9567 29.2251L35.0339 28.8253L30.6992 29.1875Z" fill="#E5E5E5"/>
<path d="M28.0853 19.5449L25.8076 23.7726L25.9608 23.8869L28.0853 19.5449Z" fill="white"/>
<path d="M28.7373 34.7947L28.5781 35.1014L33.0006 34.7793L28.7373 34.7947Z" fill="#E5E5E5"/>
<path d="M25.3435 33.2155L24.8779 34.0973L29.765 32.4023L25.3435 33.2155ZM26.2393 38.7973L26.6766 38.195L27.0949 37.5871L26.2393 38.7973Z" fill="white"/>
<path d="M30.7764 28.7855L35.0336 28.8268L35.1006 28.4311L30.7764 28.7855ZM30.8427 24.0825L35.0997 24.1684L34.9949 23.709L30.8427 24.0825Z" fill="#E5E5E5"/>
<path d="M28.0855 19.5449L25.9609 23.8869L26.1053 24.0151L28.0855 19.5449Z" fill="white"/>
<path d="M30.8439 28.3847L35.101 28.4298L35.1577 28.038L30.8439 28.3847ZM30.9248 24.5587L35.1816 24.64L35.1001 24.1671L30.9248 24.5587ZM28.8934 34.4785L28.7373 34.7939L33.1563 34.4661L28.8934 34.4785ZM30.9008 27.9892L35.1577 28.038L35.2041 27.6503L30.9008 27.9892ZM28.7549 20.0879L29.0619 20.4071L33.0182 20.2111L28.7549 20.0879Z" fill="#E5E5E5"/>
<path d="M28.0856 19.5449L26.1055 24.0151L26.2411 24.1572L28.0856 19.5449Z" fill="white"/>
<path d="M30.9473 27.5983L35.204 27.6509L35.2401 27.2672L30.9473 27.5983ZM30.9832 25.0504L35.2399 25.1271L35.1816 24.6406L30.9832 25.0504ZM30.9835 27.2109L35.2401 27.2672L35.2659 26.8875L30.9835 27.2109ZM31.0183 25.5551L35.2749 25.627L35.2399 25.1271L31.0183 25.5551Z" fill="#E5E5E5"/>
<path d="M26.6768 38.1938L26.8883 37.8906L27.0951 37.5859L26.6768 38.1938Z" fill="white"/>
<path d="M31.0088 26.8275L35.2653 26.8873L35.2808 26.5117L31.0088 26.8275Z" fill="#E5E5E5"/>
<path d="M28.0848 19.5449L26.2402 24.1572L26.367 24.3132L28.0848 19.5449Z" fill="white"/>
<path d="M31.0306 26.0733L35.2871 26.1403L35.2754 25.627L31.0306 26.0733ZM31.0254 26.4484L35.2819 26.5118L35.2871 26.1403L31.0254 26.4484Z" fill="#E5E5E5"/>
<path d="M27.3418 19.1271L26.9432 18.9658L26.5264 18.8359L27.3418 19.1271Z" fill="white"/>
<path d="M29.0476 34.1539L28.8945 34.4781L33.31 34.1445L29.0476 34.1539Z" fill="#E5E5E5"/>
<path d="M25.7554 32.3581L25.3441 33.2154L29.7657 32.4022L25.7554 32.3581ZM28.0854 19.5449L26.3676 24.3132L26.4849 24.4816L28.0854 19.5449ZM24.1406 41.5676L27.0956 37.587L29.7657 32.4022L24.1406 41.5676ZM28.0854 19.5449L26.4849 24.4816L26.5921 24.6612L28.0854 19.5449Z" fill="white"/>
<path d="M29.1959 33.8223L29.0459 34.1553L33.4579 33.8161L29.1959 33.8223ZM29.0613 20.4082L29.3498 20.7591L33.3237 20.5284L29.0613 20.4082Z" fill="#E5E5E5"/>
<path d="M28.0848 19.5449L26.5915 24.6612L26.6885 24.8517L28.0848 19.5449ZM28.0848 19.5449L26.6885 24.8517L26.7752 25.0534L28.0848 19.5449ZM26.1118 31.5255L25.7549 32.3581L29.7651 32.4022L26.1118 31.5255ZM28.0848 19.5449L26.7752 25.0534L26.8518 25.266L28.0848 19.5449Z" fill="white"/>
<path d="M29.3423 33.4796L29.1953 33.8213L33.6038 33.4766L29.3423 33.4796Z" fill="#E5E5E5"/>
<path d="M17.9238 47.538L31.9059 47.8515V43.4108L17.9238 47.538ZM28.086 19.5443L26.853 25.2654L26.9194 25.4891L28.086 19.5443ZM27.0962 37.5863L27.2982 37.2803L27.4955 36.973L27.0962 37.5863ZM28.086 19.5443L27.3433 19.1271L26.5279 18.8359L28.086 19.5443ZM28.086 19.5443L26.9194 25.4891L26.9755 25.7238L28.086 19.5443ZM28.086 19.5443L26.9755 25.7238L27.0215 25.9696L28.086 19.5443ZM27.0757 27.7419L26.9931 28.4471L28.086 19.5443L27.0757 27.7419Z" fill="white"/>
<path d="M29.4876 33.1287L29.3438 33.4792L33.7488 33.129L29.4876 33.1287ZM29.3507 20.7578L29.6184 21.1246L33.6122 20.8748L29.3507 20.7578Z" fill="#E5E5E5"/>
<path d="M27.0209 25.9703L27.0567 26.2271L28.0854 19.5449L27.0209 25.9703ZM27.0567 26.2271L27.0822 26.4948L28.0854 19.5449L27.0567 26.2271ZM27.1027 27.0634L27.0751 27.7425L28.0854 19.5449L27.1027 27.0634ZM27.0822 26.4948L27.0976 26.7736L28.0854 19.5449L27.0822 26.4948ZM27.0976 26.7736L27.1027 27.0634L28.0854 19.5449L27.0976 26.7736ZM26.4146 30.7179L26.1123 31.5255L29.7656 32.4022L26.4146 30.7179ZM27.0956 37.587L27.4949 36.9737L27.875 36.3549L27.0956 37.587Z" fill="white"/>
<path d="M29.6291 32.7695L29.4883 33.1288L33.8898 32.7732L29.6291 32.7695Z" fill="#E5E5E5"/>
<path d="M26.6616 29.9355L26.4141 30.7178L29.7651 32.4021L26.6616 29.9355Z" fill="white"/>
<path d="M29.6172 21.125L29.8618 21.5058L33.8779 21.2386L29.6172 21.125ZM29.765 32.4017L29.6273 32.7698L34.0253 32.4089L29.765 32.4017Z" fill="#E5E5E5"/>
<path d="M27.4939 36.9729L27.6863 36.6642L27.874 36.3541L27.4939 36.9729ZM28.0844 19.5442L27.7222 19.3198L27.3417 19.127L28.0844 19.5442ZM26.8538 29.1781L26.6611 29.9349L29.7646 32.4015L26.8538 29.1781Z" fill="white"/>
<path d="M31.9053 47.8522L36.1591 47.7131V43.3144L31.9053 47.8522ZM29.9003 32.0254L29.7656 32.4022L34.1602 32.0361L29.9003 32.0254Z" fill="#E5E5E5"/>
<path d="M27.0953 37.5865L27.8747 36.3544L28.5775 35.1008L27.0953 37.5865ZM26.9922 28.4473L26.8545 29.1784L29.7653 32.4018L26.9922 28.4473Z" fill="white"/>
<path d="M29.8623 21.5059L30.0838 21.9005L34.1223 21.6159L29.8623 21.5059ZM30.0318 31.6393L29.9002 32.025L34.2912 31.6537L30.0318 31.6393Z" fill="#E5E5E5"/>
<path d="M27.875 36.3546L28.0579 36.0432L28.236 35.7305L27.875 36.3546Z" fill="white"/>
<path d="M30.1617 31.2448L30.0332 31.6392L34.4208 31.2629L30.1617 31.2448ZM30.0852 21.9004L30.2835 22.3089L34.3446 22.0067L30.0852 21.9004ZM30.2871 30.8417L30.1617 31.2448L34.5458 30.8636L30.2871 30.8417Z" fill="#E5E5E5"/>
<path d="M27.8757 36.3549L28.2367 35.7307L28.5785 35.1013L27.8757 36.3549ZM26.9932 28.4477L29.7663 32.4022L28.086 19.5449L26.9932 28.4477Z" fill="white"/>
<path d="M30.2822 22.3086L30.4573 22.731L34.541 22.4111L30.2822 22.3086ZM30.4045 30.422L30.2858 30.8413L34.6629 30.4478L30.4045 30.422Z" fill="#E5E5E5"/>
<path d="M28.2363 35.731L28.4096 35.417L28.5781 35.1016L28.2363 35.731Z" fill="white"/>
<path d="M30.5127 30.0078L30.4043 30.4233L34.7708 30.0376L30.5127 30.0078Z" fill="#E5E5E5"/>
<path d="M28.7542 20.0885L28.4288 19.8009L28.085 19.5449L28.7542 20.0885Z" fill="white"/>
<path d="M30.458 22.7324L30.6098 23.1686L34.7162 22.8309L30.458 22.7324Z" fill="#E5E5E5"/>
<path d="M27.0957 37.5871L28.578 35.1014L29.7658 32.4023L27.0957 37.5871Z" fill="white"/>
<path d="M30.6108 29.5957L30.5127 30.0072L34.8686 29.6294L30.6108 29.5957ZM30.6088 23.168L30.7373 23.618L34.8666 23.2624L30.6088 23.168ZM30.6987 29.1882L30.6108 29.5957L34.9562 29.2257L30.6987 29.1882ZM30.7762 28.7847L30.6987 29.1882L35.0334 28.826L30.7762 28.7847ZM30.7373 23.618L30.8425 24.0817L34.9947 23.7082L30.7373 23.618Z" fill="#E5E5E5"/>
<path d="M29.3497 20.7587L28.7542 20.0885L28.085 19.5449L29.3497 20.7587ZM28.5774 35.1013L28.7366 34.7946L28.8927 34.4791L28.5774 35.1013Z" fill="white"/>
<path d="M30.8436 28.3854L30.7764 28.785L35.1006 28.4306L30.8436 28.3854ZM30.8427 24.082L30.9245 24.5595L35.0997 24.1678L30.8427 24.082ZM30.9004 27.9899L30.8436 28.3854L35.1573 28.0388L30.9004 27.9899ZM30.947 27.5985L30.9004 27.9899L35.2037 27.651L30.947 27.5985ZM30.9245 24.5595L30.9829 25.0505L35.1813 24.6408L30.9245 24.5595Z" fill="#E5E5E5"/>
<path d="M28.5781 35.1017L28.8934 34.4795L29.1965 33.8223L28.5781 35.1017Z" fill="white"/>
<path d="M30.9835 27.2113L30.9473 27.5987L35.2401 27.2675L30.9835 27.2113ZM30.9832 25.0508L31.0183 25.5555L35.2399 25.1275L30.9832 25.0508ZM31.0093 26.828L30.9835 27.2113L35.2659 26.8879L31.0093 26.828ZM31.0248 26.4488L31.0093 26.828L35.2814 26.5122L31.0248 26.4488ZM31.0183 25.5555L31.03 26.0737L35.2749 25.6274L31.0183 25.5555ZM31.03 26.0737L31.0248 26.4488L35.2865 26.1407L31.03 26.0737Z" fill="#E5E5E5"/>
<path d="M28.8927 34.4791L29.0458 34.1549L29.1958 33.8219L28.8927 34.4791ZM29.3497 20.7587L29.0612 20.4078L28.7542 20.0885L29.3497 20.7587ZM28.5774 35.1013L29.1958 33.8219L29.7652 32.4022L28.5774 35.1013ZM30.2818 22.3095L29.3497 20.7587L28.085 19.5449L30.2818 22.3095ZM29.1958 33.8219L29.3428 33.4801L29.4867 33.1296L29.1958 33.8219ZM29.1958 33.8219L29.4867 33.1296L29.7652 32.4022L29.1958 33.8219ZM29.862 21.5063L29.6174 21.1255L29.3497 20.7587L29.862 21.5063ZM29.4867 33.1296L29.6275 32.7703L29.7652 32.4022L29.4867 33.1296ZM29.7652 32.4022L31.0294 26.0733L28.085 19.5449L29.7652 32.4022ZM31.0294 26.0733L30.2818 22.3095L28.085 19.5449L31.0294 26.0733ZM30.2818 22.3095L29.862 21.5063L29.3497 20.7587L30.2818 22.3095Z" fill="white"/>
<path d="M31.9062 43.4115V47.8522L36.1601 43.3145L31.9062 43.4115Z" fill="#E5E5E5"/>
<path d="M29.7656 32.4018L29.9003 32.025L30.0319 31.6393L29.7656 32.4018ZM29.7656 32.4018L30.0319 31.6393L30.2858 30.8418L29.7656 32.4018ZM30.2822 22.3091L30.0839 21.9005L29.8624 21.5059L30.2822 22.3091ZM30.0319 31.6393L30.1604 31.245L30.2858 30.8418L30.0319 31.6393ZM29.7656 32.4018L30.2858 30.8418L30.6989 29.188L29.7656 32.4018ZM30.2858 30.8418L30.4045 30.4225L30.5129 30.007L30.2858 30.8418ZM30.609 23.1677L30.4572 22.7315L30.2822 22.3091L30.609 23.1677ZM29.7656 32.4018L30.6989 29.188L31.0297 26.0729L29.7656 32.4018ZM30.2858 30.8418L30.5129 30.007L30.6989 29.188L30.2858 30.8418ZM30.8427 24.0815L30.609 23.1677L30.2822 22.3091L30.8427 24.0815ZM30.5129 30.007L30.611 29.5955L30.6989 29.188L30.5129 30.007ZM31.0297 26.0729L30.8427 24.0815L30.2822 22.3091L31.0297 26.0729ZM30.8427 24.0815L30.7375 23.6177L30.609 23.1677L30.8427 24.0815ZM30.6989 29.188L30.7764 28.7844L30.8436 28.3849L30.6989 29.188ZM30.6989 29.188L30.8436 28.3849L30.947 27.5979L30.6989 29.188ZM30.6989 29.188L30.947 27.5979L31.0297 26.0729L30.6989 29.188ZM30.8436 28.3849L30.9005 27.9894L30.947 27.5979L30.8436 28.3849ZM30.983 25.05L30.9245 24.5589L30.8427 24.0815L30.983 25.05ZM31.0297 26.0729L30.983 25.05L30.8427 24.0815L31.0297 26.0729ZM30.947 27.5979L30.9832 27.2105L31.009 26.8272L30.947 27.5979ZM30.947 27.5979L31.009 26.8272L31.0297 26.0729L30.947 27.5979ZM31.0297 26.0729L31.018 25.5547L30.983 25.05L31.0297 26.0729ZM31.009 26.8272L31.0246 26.448L31.0297 26.0729L31.009 26.8272Z" fill="white"/>
</g>
<path d="M31.864 47.8723V43.4568L22.5986 43.2672C23.1347 42.8124 25.6618 39.9319 26.8865 37.9421C27.9887 36.5625 29.2226 33.8172 29.7018 32.617C30.1039 31.3726 30.9233 28.5995 30.9846 27.4625C31.0612 26.0412 31.0229 24.9611 30.774 23.7861C30.7357 22.9523 29.6826 20.8109 28.3616 19.7307C27.3555 18.9082 25.8408 18.6385 25.1135 18.5982C25.0777 18.5966 25.043 18.5952 25.0095 18.5938C25.042 18.5947 25.0768 18.5961 25.1135 18.5982C26.3496 18.6505 28.8624 18.7579 29.8151 18.8021C30.7954 18.8476 31.8063 19.2885 32.1892 19.5033C32.6551 19.7875 33.7821 20.7654 34.5633 22.4027C35.3445 24.0401 35.3866 25.9402 35.31 26.6856C35.2589 27.4499 34.9883 29.513 34.3144 31.6506C33.6405 33.7882 32.4636 35.9018 31.9594 36.6913C31.5255 37.3799 30.3588 39.1208 29.1641 40.5762C28.0001 41.9861 27.1607 42.8692 26.8865 43.1345L36.1723 43.3052V47.7206L31.864 47.8723Z" fill="url(#paint2_linear_1133_515200)"/>
<path d="M31.864 47.8723V43.4568L22.5986 43.2672C23.1347 42.8124 25.6618 39.9319 26.8865 37.9421C27.9887 36.5625 29.2226 33.8172 29.7018 32.617C30.1039 31.3726 30.9233 28.5995 30.9846 27.4625C31.0612 26.0412 31.0229 24.9611 30.774 23.7861C30.7357 22.9523 29.6826 20.8109 28.3616 19.7307C27.3555 18.9082 25.8408 18.6385 25.1135 18.5982C25.0777 18.5966 25.043 18.5952 25.0095 18.5938C25.042 18.5947 25.0768 18.5961 25.1135 18.5982C26.3496 18.6505 28.8624 18.7579 29.8151 18.8021C30.7954 18.8476 31.8063 19.2885 32.1892 19.5033C32.6551 19.7875 33.7821 20.7654 34.5633 22.4027C35.3445 24.0401 35.3866 25.9402 35.31 26.6856C35.2589 27.4499 34.9883 29.513 34.3144 31.6506C33.6405 33.7882 32.4636 35.9018 31.9594 36.6913C31.5255 37.3799 30.3588 39.1208 29.1641 40.5762C28.0001 41.9861 27.1607 42.8692 26.8865 43.1345L36.1723 43.3052V47.7206L31.864 47.8723Z" fill="url(#paint3_linear_1133_515200)"/>
<path d="M25.361 27.2997L21.083 27.2417C21.1593 26.7959 21.451 25.8978 21.5873 25.5045C21.7507 25.1426 22.1651 24.3463 22.5161 24.0568C22.8964 23.7745 23.2401 23.4416 24.242 23.3619C25.0436 23.2982 25.7656 23.7214 26.0265 23.9409C26.163 24.0857 26.4462 24.3998 26.4872 24.4983C25.7998 25.3524 25.517 26.6072 25.361 27.2997Z" fill="url(#paint4_linear_1133_515200)"/>
<path d="M31.427 0.23452L30.0781 0.0234375C30.5325 0.0845649 30.9821 0.154974 31.427 0.23452L42.7408 2.00503C44.6412 2.47877 49.3298 4.21879 52.8808 7.3889C56.4317 10.559 59.1182 14.826 60.0175 16.5633L61.9758 20.8705C63.0057 24.1296 64.8043 31.897 63.7599 36.8933C63.1333 41.9242 61.236 46.8861 60.3657 48.7382C59.2777 51.3369 55.6571 57.4215 49.8781 60.9707C46.832 63.5119 40.3915 65.0195 34.9954 65.5794C35.6627 65.4071 37.1364 64.9936 37.6935 64.718C38.3897 64.3734 57.6924 56.0437 55.9777 30.2785C54.637 14.251 45.403 2.73365 31.427 0.23452Z" fill="url(#paint5_linear_1133_515200)"/>
<defs>
<filter id="filter0_d_1133_515200" x="12.9238" y="10.6309" width="38.2363" height="49.2207" filterUnits="userSpaceOnUse" color-interpolation-filters="sRGB">
<feFlood flood-opacity="0" result="BackgroundImageFix"/>
<feColorMatrix in="SourceAlpha" type="matrix" values="0 0 0 0 0 0 0 0 0 0 0 0 0 0 0 0 0 0 127 0" result="hardAlpha"/>
<feOffset dx="5" dy="2"/>
<feGaussianBlur stdDeviation="5"/>
<feColorMatrix type="matrix" values="0 0 0 0 0.321569 0 0 0 0 0.156863 0 0 0 0 0.423529 0 0 0 0.3 0"/>
<feBlend mode="normal" in2="BackgroundImageFix" result="effect1_dropShadow_1133_515200"/>
<feBlend mode="normal" in="SourceGraphic" in2="effect1_dropShadow_1133_515200" result="shape"/>
</filter>
<linearGradient id="paint0_linear_1133_515200" x1="28.6287" y1="0" x2="40.7688" y2="67.9739" gradientUnits="userSpaceOnUse">
<stop stop-color="#DEE5F8"/>
<stop offset="1" stop-color="#BDBEE3"/>
</linearGradient>
<linearGradient id="paint1_linear_1133_515200" x1="39.062" y1="53.3677" x2="-4.05461" y2="1.66266" gradientUnits="userSpaceOnUse">
<stop stop-color="white" stop-opacity="0.7"/>
<stop offset="1" stop-color="#A0A3CF"/>
</linearGradient>
<linearGradient id="paint2_linear_1133_515200" x1="29.3855" y1="18.5937" x2="29.3855" y2="47.8723" gradientUnits="userSpaceOnUse">
<stop stop-color="#E5E5E5"/>
<stop offset="1" stop-color="#E5E5E5" stop-opacity="0"/>
</linearGradient>
<linearGradient id="paint3_linear_1133_515200" x1="67.6356" y1="42.6707" x2="29.4083" y2="36.0247" gradientUnits="userSpaceOnUse">
<stop stop-color="#EFE6F6"/>
<stop offset="1" stop-color="#EEECF1"/>
</linearGradient>
<linearGradient id="paint4_linear_1133_515200" x1="23.7851" y1="23.3555" x2="23.7851" y2="27.2997" gradientUnits="userSpaceOnUse">
<stop stop-color="#E5E5E5"/>
<stop offset="1" stop-color="#E5E5E5" stop-opacity="0"/>
</linearGradient>
<linearGradient id="paint5_linear_1133_515200" x1="80.9671" y1="27.4155" x2="13.4523" y2="39.5304" gradientUnits="userSpaceOnUse">
<stop stop-color="#BDBEE3"/>
<stop offset="1" stop-color="#DEE5F8"/>
</linearGradient>
</defs>
</svg>
