<svg width="64" height="67" viewBox="0 0 64 67" fill="none" xmlns="http://www.w3.org/2000/svg">
<path d="M0.295685 28.9168L0.0751953 33.1378L0.295685 37.3589V28.9168ZM1.98144 20.9772L0.295685 28.9168V37.3589L1.98144 20.9772ZM0.295685 37.3589L0.939384 41.421L1.98144 45.2985L0.295685 37.3589ZM1.98144 20.9772L0.939384 24.8547L0.295685 28.9168L1.98144 20.9772ZM0.295685 37.3589L1.98144 45.2985L5.17056 52.3838L0.295685 37.3589ZM1.98144 45.2985L3.39897 48.963L5.17056 52.3838L1.98144 45.2985ZM5.17056 13.8919L3.39897 17.3127L1.98144 20.9772L5.17056 13.8919ZM9.695 7.91968L1.98144 20.9772L0.295685 37.3589L9.695 7.91968ZM9.695 7.91968L5.17056 13.8919L1.98144 20.9772L9.695 7.91968ZM0.295685 37.3589L5.17056 52.3838L15.3969 62.9085L0.295685 37.3589ZM9.695 7.91968L7.27582 10.7487L5.17056 13.8919L9.695 7.91968ZM5.17056 52.3838L7.27582 55.527L9.695 58.356L5.17056 52.3838ZM9.695 7.91968L0.295685 37.3589L15.3969 62.9085L9.695 7.91968ZM5.17056 52.3838L9.695 58.356L15.3969 62.9085L5.17056 52.3838ZM9.695 58.356L12.4086 60.8309L15.3969 62.9085L9.695 58.356ZM15.3969 3.36719L12.4086 5.44481L9.695 7.91968L15.3969 3.36719Z" fill="#C4C4C4"/>
<path d="M35.3042 65.32L38.0548 64.865L41.6348 64.2715L35.3042 65.32Z" fill="#B0B0B0"/>
<path d="M22.1165 0.59375L15.3968 3.36804L9.69482 7.92053L22.1165 0.59375Z" fill="#C4C4C4"/>
<path d="M38.9126 1.55522L41.6348 2.0055L38.0548 1.41204L38.9126 1.55522ZM35.3042 0.957031L38.9126 1.55522L38.0548 1.41204L35.3042 0.957031ZM38.9126 64.7227L35.3042 65.3209L41.6348 64.2724L38.9126 64.7227ZM38.9126 64.7227L41.6348 64.2724L45.085 63.126L38.9126 64.7227Z" fill="#B0B0B0"/>
<path d="M15.3955 62.9094L18.6385 64.5433L22.1153 65.6836L15.3955 62.9094ZM22.1153 0.59375L18.6385 1.73411L15.3955 3.36804L22.1153 0.59375Z" fill="#C4C4C4"/>
<path d="M42.3922 2.71463L45.0861 3.15185L41.6359 2.0055L42.3922 2.71463ZM38.9137 1.55522L42.3922 2.71463L41.6359 2.0055L38.9137 1.55522ZM32.4746 65.7891L35.3053 65.3209L38.9137 64.7227L32.4746 65.7891ZM42.3922 63.5633L38.9137 64.7227L45.0861 63.126L42.3922 63.5633ZM42.3922 63.5633L45.0861 63.126L48.3649 61.4519L42.3922 63.5633ZM36.1116 1.09173L38.9137 1.55522L35.3053 0.957031L36.1116 1.09173Z" fill="#B0B0B0"/>
<path d="M15.3955 62.9102L22.1153 65.6844L29.5589 66.2717L15.3955 62.9102Z" fill="#C4C4C4"/>
<path d="M45.6986 4.40957L48.3649 4.82553L45.0861 3.15134L45.6986 4.40957ZM32.4746 0.488281L36.1116 1.09123L35.3053 0.956526L32.4746 0.488281Z" fill="#B0B0B0"/>
<path d="M36.7614 1.80056L22.1165 0.59375L9.69482 7.92053L36.7614 1.80056Z" fill="#C4C4C4"/>
<path d="M42.3922 2.7141L45.6986 4.40954L45.0861 3.15131L42.3922 2.7141ZM36.1116 65.1856L32.4746 65.7886L38.9137 64.7221L36.1116 65.1856ZM36.1116 65.1856L38.9137 64.7221L42.3922 63.5627L36.1116 65.1856ZM45.6986 61.8673L48.3649 61.4513L51.4286 59.2772L45.6986 61.8673ZM45.6986 61.8673L42.3922 63.5627L48.3649 61.4513L45.6986 61.8673ZM39.6185 2.26395L42.3922 2.7141L38.9137 1.55469L39.6185 2.26395ZM48.7887 6.61289L51.4286 6.99963L48.3649 4.8255L48.7887 6.61289Z" fill="#B0B0B0"/>
<path d="M22.1138 65.6834L25.8023 66.277L29.5573 66.2707L22.1138 65.6834ZM29.5573 0.00624731L25.8023 0L22.1138 0.593533L29.5573 0.00624731Z" fill="#C4C4C4"/>
<path d="M36.1113 1.0918L39.6183 2.26455L38.9134 1.55529L36.1113 1.0918ZM45.6983 4.41015L48.7884 6.61349L48.3646 4.8261L45.6983 4.41015Z" fill="#B0B0B0"/>
<path d="M9.69482 7.91992L15.3968 62.9087L54.8787 28.3273L9.69482 7.91992Z" fill="#C4C4C4"/>
<path d="M29.5576 66.2703L32.4719 65.7883L36.1089 65.1853L29.5576 66.2703ZM48.786 59.6636L51.4259 59.2769L54.2295 56.6339L48.786 59.6636ZM39.6158 64.0126L36.1089 65.1853L42.3895 63.5624L39.6158 64.0126ZM48.786 59.6636L45.6958 61.867L51.4259 59.2769L48.786 59.6636ZM39.6158 64.0126L42.3895 63.5624L45.6958 61.867L39.6158 64.0126ZM33.2234 0.613573L36.1089 1.09088L32.4719 0.487931L33.2234 0.613573ZM51.6143 9.29236L54.2295 9.64224L51.4259 6.99931L51.6143 9.29236ZM42.95 3.98086L45.6958 4.40922L42.3895 2.71378L42.95 3.98086ZM29.5576 0.00585938L33.2234 0.613573L32.4719 0.487931L29.5576 0.00585938ZM48.786 6.61257L51.6143 9.29236L51.4259 6.99931L48.786 6.61257Z" fill="#B0B0B0"/>
<path d="M15.3955 62.9088L29.5589 66.2703L43.2659 60.4725L15.3955 62.9088ZM36.7601 1.79996L29.5589 0.00585938L22.1153 0.593145L36.7601 1.79996Z" fill="#C4C4C4"/>
<path d="M39.6158 2.26334L42.95 3.98057L42.3895 2.71349L39.6158 2.26334ZM51.6143 56.9835L54.2295 56.6337L56.7268 53.5566L51.6143 56.9835ZM33.2234 65.6623L29.5576 66.27L36.1089 65.185L33.2234 65.6623ZM51.6143 56.9835L48.786 59.6633L54.2295 56.6337L51.6143 56.9835ZM33.2234 65.6623L36.1089 65.185L39.6158 64.0123L33.2234 65.6623ZM42.95 62.295L45.6958 61.8667L48.786 59.6633L42.95 62.295ZM42.95 62.295L39.6158 64.0123L45.6958 61.8667L42.95 62.295ZM54.1341 12.4132L56.7268 12.719L54.2295 9.64194L54.1341 12.4132ZM36.7589 1.79966L39.6158 2.26334L36.1089 1.09058L36.7589 1.79966ZM46.0668 6.21393L48.786 6.61228L45.6958 4.40893L46.0668 6.21393ZM51.6143 9.29207L54.1341 12.4132L54.2295 9.64194L51.6143 9.29207ZM54.1341 53.8624L56.7268 53.5566L58.8711 50.0838L54.1341 53.8624ZM33.2234 0.613281L36.7589 1.79966L36.1089 1.09058L33.2234 0.613281ZM42.95 3.98057L46.0668 6.21393L45.6958 4.40893L42.95 3.98057ZM54.1341 53.8624L51.6143 56.9835L56.7268 53.5566L54.1341 53.8624ZM56.2981 15.9368L58.8711 16.1918L56.7268 12.719L56.2981 15.9368Z" fill="#B0B0B0"/>
<path d="M29.5576 66.2703L33.2234 65.6626L36.7589 64.4762L29.5576 66.2703ZM36.7589 1.79996L33.2234 0.613573L29.5576 0.00585938L36.7589 1.79996Z" fill="#C4C4C4"/>
<path d="M46.069 60.0625L48.7882 59.6642L51.6166 56.9844L46.069 60.0625ZM36.7611 64.4768L33.2256 65.6632L39.6181 64.0131L36.7611 64.4768ZM46.069 60.0625L42.9522 62.2959L48.7882 59.6642L46.069 60.0625ZM36.7611 64.4768L39.6181 64.0131L42.9522 62.2959L36.7611 64.4768Z" fill="#B0B0B0"/>
<path d="M54.8787 28.3281L36.7614 1.80078L9.69482 7.92075L54.8787 28.3281Z" fill="#C4C4C4"/>
<path d="M56.2995 50.3399L58.8725 50.0849L60.6173 46.2586L56.2995 50.3399ZM54.1355 12.4143L56.2995 15.9379L56.7282 12.7201L54.1355 12.4143ZM48.9215 8.93274L51.6157 9.29319L48.7874 6.6134L48.9215 8.93274ZM58.0605 19.821L60.6173 20.0192L58.8725 16.1929L58.0605 19.821ZM40.1224 3.54036L42.9514 3.98169L39.6172 2.26445L40.1224 3.54036ZM56.2995 50.3399L54.1355 53.8635L58.8725 50.0849L56.2995 50.3399ZM58.0605 46.4568L60.6173 46.2586L61.9168 42.125L58.0605 46.4568ZM46.0682 6.21504L48.9215 8.93274L48.7874 6.6134L46.0682 6.21504ZM36.7603 1.80078L40.1224 3.54036L39.6172 2.26445L36.7603 1.80078ZM59.3722 24.0167L61.9168 24.1529L60.6173 20.0192L59.3722 24.0167ZM56.2995 15.9379L58.0605 19.821L58.8725 16.1929L56.2995 15.9379ZM48.9215 57.3451L51.6157 56.9846L54.1355 53.8635L48.9215 57.3451ZM48.9215 57.3451L46.0682 60.0628L51.6157 56.9846L48.9215 57.3451Z" fill="#B0B0B0"/>
<path d="M29.5576 66.2705L36.7589 64.4764L43.2647 60.4727L29.5576 66.2705Z" fill="#C4C4C4"/>
<path d="M59.3722 42.2609L61.9168 42.1248L62.7267 37.7337L59.3722 42.2609ZM58.0605 46.4566L56.2995 50.3397L60.6173 46.2584L58.0605 46.4566ZM60.1897 28.4739L62.7267 28.5437L61.9168 24.1526L60.1897 28.4739ZM40.1224 62.7373L42.9514 62.2959L46.0682 60.0626L40.1224 62.7373ZM40.1224 62.7373L36.7603 64.4768L42.9514 62.2959L40.1224 62.7373ZM51.464 12.099L54.1355 12.4141L51.6157 9.29297L51.464 12.099ZM60.1897 37.8035L62.7267 37.7337L63.0054 33.1387L60.1897 37.8035ZM60.4711 33.1387H63.0054L62.7267 28.5437L60.4711 33.1387ZM58.0605 19.8208L59.3722 24.0165L60.6173 20.019L58.0605 19.8208Z" fill="#B0B0B0"/>
<path d="M15.3955 62.9096L43.2659 60.4733L54.8775 28.3281L15.3955 62.9096Z" fill="#C4C4C4"/>
<path d="M43.2658 5.80325L46.0679 6.21375L42.9511 3.98039L43.2658 5.80325ZM59.3718 42.2598L58.0602 46.4555L61.9164 42.1237L59.3718 42.2598ZM48.9212 8.93144L51.4637 12.098L51.6154 9.29189L48.9212 8.93144ZM51.4637 54.1773L54.1352 53.8622L56.2992 50.3386L51.4637 54.1773ZM59.3718 24.0154L60.1894 28.4728L61.9164 24.1516L59.3718 24.0154ZM60.1894 37.8024L59.3718 42.2598L62.7264 37.7326L60.1894 37.8024ZM40.1221 3.53906L43.2658 5.80325L42.9511 3.98039L40.1221 3.53906ZM51.4637 54.1773L48.9212 57.3438L54.1352 53.8622L51.4637 54.1773ZM53.6475 15.6738L56.2992 15.9366L54.1352 12.413L53.6475 15.6738ZM60.1894 28.4728L60.4708 33.1376L62.7264 28.5426L60.1894 28.4728ZM60.4708 33.1376L60.1894 37.8024L63.0051 33.1376H60.4708ZM43.2658 60.472L46.0679 60.0615L48.9212 57.3438L43.2658 60.472ZM43.2658 60.472L40.1221 62.7362L46.0679 60.0615L43.2658 60.472Z" fill="#B0B0B0"/>
<path d="M36.7603 64.4771L40.1224 62.7375L43.2661 60.4733L36.7603 64.4771ZM43.2661 5.80454L40.1224 3.54036L36.7603 1.80078L43.2661 5.80454Z" fill="#C4C4C4"/>
<path d="M53.6479 50.6029L56.2995 50.34L58.0605 46.457L53.6479 50.6029ZM51.4641 12.0994L53.6479 15.6753L54.1356 12.4145L51.4641 12.0994ZM46.1446 8.56137L48.9215 8.93288L46.0682 6.21519L46.1446 8.56137ZM55.4253 19.6169L58.0605 19.8212L56.2995 15.9381L55.4253 19.6169ZM53.6479 50.6029L51.4641 54.1787L56.2995 50.34L53.6479 50.6029ZM55.4253 46.6612L58.0605 46.457L59.3722 42.2613L55.4253 46.6612ZM43.2661 5.80469L46.1446 8.56137L46.0682 6.21519L43.2661 5.80469ZM56.7493 23.8765L59.3722 24.0168L58.0605 19.8212L56.7493 23.8765ZM53.6479 15.6753L55.4253 19.6169L56.2995 15.9381L53.6479 15.6753ZM46.1446 57.7168L48.9215 57.3452L51.4641 54.1787L46.1446 57.7168Z" fill="#B0B0B0"/>
<path d="M48.71 11.7744L43.2661 5.80454L36.7603 1.80078L48.71 11.7744Z" fill="#C4C4C4"/>
<path d="M46.1446 57.7159L43.2661 60.4726L48.9215 57.3444L46.1446 57.7159ZM56.7493 42.4008L59.3722 42.2605L60.1898 37.803L56.7493 42.4008ZM55.4253 46.6604L53.6479 50.602L58.0605 46.4561L55.4253 46.6604ZM57.5746 28.4016L60.1898 28.4735L59.3722 24.016L57.5746 28.4016ZM48.7101 11.7738L51.4641 12.0986L48.9215 8.93206L48.7101 11.7738ZM57.5746 37.8749L60.1898 37.803L60.4711 33.1382L57.5746 37.8749ZM57.8587 33.1382H60.4711L60.1898 28.4735L57.8587 33.1382ZM55.4253 19.6161L56.7493 23.8757L58.0605 19.8203L55.4253 19.6161ZM56.7493 42.4008L55.4253 46.6604L59.3722 42.2605L56.7493 42.4008ZM46.1446 8.56055L48.7101 11.7738L48.9215 8.93206L46.1446 8.56055ZM48.7101 54.5027L51.4641 54.1779L53.6479 50.602L48.7101 54.5027ZM56.7493 23.8757L57.5746 28.4016L59.3722 24.016L56.7493 23.8757ZM57.5746 37.8749L56.7493 42.4008L60.1898 37.803L57.5746 37.8749ZM48.7101 54.5027L46.1446 57.7159L51.4641 54.1779L48.7101 54.5027ZM50.914 15.4035L53.6479 15.6744L51.4641 12.0986L50.914 15.4035ZM57.5746 28.4016L57.8587 33.1382L60.1898 28.4735L57.5746 28.4016ZM57.8587 33.1382L57.5746 37.8749L60.4711 33.1382H57.8587Z" fill="#B0B0B0"/>
<path d="M43.2661 60.4733L46.1446 57.7166L48.71 54.5034L43.2661 60.4733ZM48.71 11.7744L46.1446 8.56122L43.2661 5.80454L48.71 11.7744ZM54.8776 28.3281L48.71 11.7744L36.7603 1.80078L54.8776 28.3281Z" fill="#C4C4C4"/>
<path d="M50.9163 50.8727L53.6502 50.6017L55.4276 46.6601L50.9163 50.8727ZM48.7124 11.7734L50.9163 15.4032L51.4664 12.0983L48.7124 11.7734ZM52.7103 19.4051L55.4276 19.6157L53.6502 15.6741L52.7103 19.4051ZM50.9163 50.8727L48.7124 54.5024L53.6502 50.6017L50.9163 50.8727Z" fill="#B0B0B0"/>
<path d="M43.2661 60.4726L48.7101 54.5027L52.7079 46.8711L43.2661 60.4726Z" fill="#C4C4C4"/>
<path d="M52.708 46.8719L55.4254 46.6612L56.7494 42.4016L52.708 46.8719ZM54.0445 23.7317L56.7494 23.8765L55.4254 19.6169L54.0445 23.7317ZM50.9141 15.4043L52.708 19.4062L53.648 15.6753L50.9141 15.4043ZM54.0445 42.5463L56.7494 42.4016L57.5747 37.8757L54.0445 42.5463ZM52.708 46.8719L50.9141 50.8738L55.4254 46.6612L52.708 46.8719ZM54.8777 28.3282L57.5747 28.4024L56.7494 23.8765L54.8777 28.3282Z" fill="#B0B0B0"/>
<path d="M43.2661 60.4733L52.7079 46.8718L54.8776 28.3281L43.2661 60.4733Z" fill="#C4C4C4"/>
<path d="M54.8784 37.9498L57.5754 37.8757L57.8595 33.139L54.8784 37.9498ZM55.1652 33.139H57.8595L57.5754 28.4023L55.1652 33.139Z" fill="#B0B0B0"/>
<path d="M48.7124 54.5024L50.9163 50.8727L52.7103 46.8708L48.7124 54.5024ZM52.7103 19.4051L50.9163 15.4032L48.7124 11.7734L52.7103 19.4051Z" fill="#C4C4C4"/>
<path d="M52.7085 19.4062L54.045 23.7318L55.4259 19.6169L52.7085 19.4062ZM54.045 42.5464L52.7085 46.8719L56.7499 42.4017L54.045 42.5464ZM54.045 23.7318L54.8782 28.3283L56.7499 23.8765L54.045 23.7318Z" fill="#B0B0B0"/>
<path d="M54.88 28.3271L52.7103 19.4051L48.7124 11.7734L54.88 28.3271Z" fill="#C4C4C4"/>
<path d="M54.8796 37.9498L54.0464 42.5462L57.5766 37.8756L54.8796 37.9498ZM54.8796 28.3281L55.1663 33.1389L57.5766 28.4023L54.8796 28.3281ZM55.1663 33.1389L54.8796 37.9498L57.8606 33.1389H55.1663Z" fill="#B0B0B0"/>
<path d="M52.7085 46.8719L54.045 42.5464L54.8782 37.9499L52.7085 46.8719ZM54.8782 28.3283L54.045 23.7318L52.7085 19.4062L54.8782 28.3283ZM52.7085 46.8719L54.8782 37.9499V28.3283L52.7085 46.8719ZM54.8782 37.9499L55.1649 33.1391L54.8782 28.3283V37.9499Z" fill="#C4C4C4"/>
<path d="M54.9269 33.2557C54.9269 51.4365 42.6897 66.0113 27.7786 66.0113C12.8675 66.0113 0.630371 51.4365 0.630371 33.2557C0.630371 15.0748 12.8675 0.5 27.7786 0.5C42.6897 0.5 54.9269 15.0748 54.9269 33.2557Z" fill="url(#paint0_linear_1155_429041)" stroke="url(#paint1_linear_1155_429041)"/>
<g filter="url(#filter0_d_1155_429041)">
<path d="M18.8267 41.1091L23.7932 41.0368L23.4469 40.4148L18.8267 41.1091ZM19.1896 41.6834L24.1551 41.6058L23.7932 41.0368L19.1896 41.6834ZM18.9975 25.65L23.9636 25.7216L24.2638 25.1848L18.9975 25.65ZM19.2986 25.1082L24.2638 25.1848L24.5787 24.6938L19.2986 25.1082ZM19.5682 42.2042L24.5327 42.1216L24.1551 41.6058L19.5682 42.2042ZM19.6144 24.6126L24.5787 24.6938L24.9083 24.2487L19.6144 24.6126ZM19.9626 42.6712L24.9261 42.5842L24.5327 42.1216L19.9626 42.6712ZM19.9448 24.1632L24.9083 24.2487L25.2525 23.8495L19.9448 24.1632ZM20.3729 43.0845L25.3352 42.9937L24.9261 42.5842L20.3729 43.0845ZM20.29 23.7602L25.2525 23.8495L25.6115 23.4962L20.29 23.7602ZM20.799 43.444L25.7601 43.3498L25.3352 42.9937L20.799 43.444ZM20.65 23.4036L25.6115 23.4962L25.9853 23.189L20.65 23.4036ZM18.4795 40.4812L18.8267 41.1091L23.4469 40.4148L18.4795 40.4812ZM21.2411 43.7497L26.201 43.6525L25.7601 43.3498L21.2411 43.7497ZM21.0248 23.0934L25.9853 23.189L26.3739 22.9277L21.0248 23.0934Z" fill="#E5E5E5"/>
<path d="M16.4053 44.6289L16.5869 45.021L16.783 45.3992L16.4053 44.6289Z" fill="white"/>
<path d="M18.8257 41.1094L19.1886 41.6837L23.7922 41.0371L18.8257 41.1094ZM19.2976 25.1085L18.9965 25.6503L24.2628 25.1851L19.2976 25.1085ZM21.6982 44.0017L26.6568 43.9021L26.2 43.6528L21.6982 44.0017ZM21.4135 22.8299L26.3729 22.928L26.7764 22.7129L21.4135 22.8299ZM19.1886 41.6837L19.5672 42.2044L24.1541 41.6061L19.1886 41.6837Z" fill="#E5E5E5"/>
<path d="M16.7852 45.3995L16.9957 45.7638L17.2207 46.1142L16.7852 45.3995ZM18.4768 40.4822L16.2402 44.2233L16.4075 44.6293L18.4768 40.4822ZM17.5414 20.5371L17.1435 21.2568L16.7895 22.043L17.5414 20.5371Z" fill="white"/>
<path d="M19.6156 24.6133L19.2998 25.1089L24.5799 24.6945L19.6156 24.6133Z" fill="#E5E5E5"/>
<path d="M18.4746 40.4824L16.4053 44.6295L16.783 45.3997L18.4746 40.4824ZM16.783 45.3997L17.2184 46.1144L17.7118 46.7737L16.783 45.3997Z" fill="white"/>
<path d="M21.8178 22.6118L26.7761 22.712L27.1945 22.543L21.8178 22.6118ZM22.172 44.1984L27.1293 44.097L26.6565 43.9012L22.172 44.1984ZM19.5669 42.2035L19.9613 42.6705L24.5314 42.121L19.5669 42.2035Z" fill="#E5E5E5"/>
<path d="M17.2197 46.1133L17.4591 46.4498L17.7131 46.7725L17.2197 46.1133Z" fill="white"/>
<path d="M19.9433 24.1641L19.6128 24.6134L24.9067 24.2495L19.9433 24.1641Z" fill="#E5E5E5"/>
<path d="M18.4696 19.2969L17.5418 20.5371L16.7899 22.0429L18.4696 19.2969ZM18.4772 40.4822L16.7856 45.3995L17.7144 46.7734L18.4772 40.4822Z" fill="white"/>
<path d="M22.2352 22.4428L27.1924 22.5446L27.6257 22.4219L22.2352 22.4428ZM19.9592 42.6722L20.3695 43.0855L24.9226 42.5853L19.9592 42.6722ZM22.6601 44.3437L27.616 44.2408L27.1272 44.0986L22.6601 44.3437ZM20.2866 23.7613L19.9414 24.1643L25.2491 23.8505L20.2866 23.7613Z" fill="#E5E5E5"/>
<path d="M17.7132 46.7734L17.9816 47.0823L18.2647 47.3772L17.7132 46.7734ZM18.4683 19.2969L17.9824 19.8838L17.5405 20.5371L18.4683 19.2969Z" fill="white"/>
<path d="M22.6703 22.3184L27.6262 22.4214L28.0746 22.3449L22.6703 22.3184ZM20.37 43.085L20.7961 43.4446L25.3322 42.9942L20.37 43.085ZM20.6471 23.4041L20.2871 23.7608L25.6086 23.4968L20.6471 23.4041Z" fill="#E5E5E5"/>
<path d="M17.7173 46.7734L18.2688 47.3772L18.8786 47.9257L17.7173 46.7734Z" fill="white"/>
<path d="M23.168 44.4325L28.1225 44.3287L27.6175 44.2402L23.168 44.4325Z" fill="#E5E5E5"/>
<path d="M18.824 41.1101L18.4768 40.4822L17.714 46.7735L18.824 41.1101ZM16.7896 22.043L18.9949 25.6511L19.296 25.1092L16.7896 22.043ZM16.7896 22.043L19.296 25.1092L19.6117 24.6136L16.7896 22.043ZM18.2655 47.3773L18.5631 47.6584L18.8754 47.9257L18.2655 47.3773Z" fill="white"/>
<path d="M21.0228 23.0931L20.6479 23.4033L25.9832 23.1886L21.0228 23.0931ZM23.1208 22.2402L28.0754 22.3441L28.5389 22.314L23.1208 22.2402ZM20.797 43.4437L21.239 43.7493L25.7581 43.3494L20.797 43.4437Z" fill="#E5E5E5"/>
<path d="M20.8581 17.6133L18.4692 19.2958L16.7896 22.0419L20.8581 17.6133ZM16.7896 22.0419L19.6117 24.6125L19.9422 24.1632L16.7896 22.0419Z" fill="white"/>
<path d="M23.6904 44.467L28.6435 44.3628L28.1223 44.3281L23.6904 44.467Z" fill="#E5E5E5"/>
<path d="M17.7173 46.7734L18.8786 47.9257L20.2661 48.8109L17.7173 46.7734Z" fill="white"/>
<path d="M21.4107 22.8304L21.021 23.0942L26.3701 22.9285L21.4107 22.8304ZM23.5838 22.2109L28.5371 22.3151L28.7824 22.3187L23.5838 22.2109Z" fill="#E5E5E5"/>
<path d="M16.7896 22.0427L19.9422 24.164L20.2874 23.761L16.7896 22.0427ZM19.5742 18.3223L18.9994 18.7762L18.4692 19.2967L19.5742 18.3223Z" fill="white"/>
<path d="M21.2417 43.7495L21.6998 44.0012L26.2016 43.6523L21.2417 43.7495ZM23.9969 44.463L28.949 44.3588L28.6462 44.3628L23.9969 44.463Z" fill="#E5E5E5"/>
<path d="M18.8754 47.9257L19.2023 48.1791L19.5468 48.4087L18.8754 47.9257ZM16.7896 22.043L20.2874 23.7612L20.6474 23.4046L16.7896 22.043Z" fill="white"/>
<path d="M21.8191 22.6133L21.4146 22.8305L26.7774 22.7134L21.8191 22.6133Z" fill="#E5E5E5"/>
<path d="M16.7896 22.043L20.6474 23.4046L21.0222 23.0944L16.7896 22.043Z" fill="white"/>
<path d="M21.6987 44.0019L22.1729 44.1996L26.6574 43.9023L21.6987 44.0019Z" fill="#E5E5E5"/>
<path d="M18.8754 47.9246L19.5468 48.4077L20.2628 48.8099L18.8754 47.9246ZM20.8581 17.6133L19.5742 18.3214L18.4692 19.2958L20.8581 17.6133ZM16.7896 22.0419L21.0222 23.0933L21.4119 22.8296L16.7896 22.0419Z" fill="white"/>
<path d="M22.2374 22.4414L21.8179 22.612L27.1946 22.5432L22.2374 22.4414Z" fill="#E5E5E5"/>
<path d="M19.5493 48.4082L19.9028 48.6188L20.2653 48.8105L19.5493 48.4082Z" fill="white"/>
<path d="M24.5057 49.67L29.4565 49.5169L30.0092 49.4764L24.5057 49.67ZM22.1714 44.1991L22.6616 44.3427L27.1287 44.0977L22.1714 44.1991Z" fill="#E5E5E5"/>
<path d="M16.7896 22.043L21.4119 22.8307L21.8164 22.6134L16.7896 22.043ZM18.824 41.1101L17.714 46.7735L23.4902 49.6568L18.824 41.1101Z" fill="white"/>
<path d="M25.001 17.0391L29.9504 17.1919L29.4459 17.1569L25.001 17.0391ZM22.6729 22.3178L22.2383 22.4418L27.6288 22.4208L22.6729 22.3178Z" fill="#E5E5E5"/>
<path d="M20.8581 17.6133L20.1937 17.934L19.5742 18.3214L20.8581 17.6133ZM16.7896 22.0419L21.8164 22.6124L22.236 22.4417L16.7896 22.0419ZM17.714 46.7724L20.2628 48.8099L23.4902 49.6557L17.714 46.7724Z" fill="white"/>
<path d="M22.6631 44.3431L23.1695 44.4325L27.619 44.2402L22.6631 44.3431Z" fill="#E5E5E5"/>
<path d="M19.1886 41.6837L18.8257 41.1094L23.4919 49.656L19.1886 41.6837Z" fill="white"/>
<path d="M25.0581 49.6291L30.0073 49.4763L30.5442 49.4004L25.0581 49.6291Z" fill="#E5E5E5"/>
<path d="M16.7896 22.043L22.236 22.4428L22.6706 22.3188L16.7896 22.043Z" fill="white"/>
<path d="M25.4916 17.1055L30.4395 17.2578L29.9518 17.1918L25.4916 17.1055ZM23.1239 22.2404L22.6743 22.3177L28.0786 22.3442L23.1239 22.2404Z" fill="#E5E5E5"/>
<path d="M20.2628 48.811L20.6344 48.9836L21.0149 49.1371L20.2628 48.811ZM19.5656 42.2052L19.1869 41.6845L23.4902 49.6568L19.5656 42.2052ZM16.7896 22.043L22.6706 22.3188L23.1202 22.2416L16.7896 22.043Z" fill="white"/>
<path d="M23.168 44.4319L23.6906 44.467L28.1225 44.3281L23.168 44.4319Z" fill="#E5E5E5"/>
<path d="M19.9613 42.6721L19.5669 42.2051L23.4915 49.6567L19.9613 42.6721ZM20.2641 48.8109L21.0163 49.137L21.8047 49.3868L20.2641 48.8109Z" fill="white"/>
<path d="M25.5996 49.5522L30.5472 49.4L31.0683 49.2887L25.5996 49.5522ZM23.5868 22.2097L23.1221 22.2402L28.5402 22.3139L23.5868 22.2097ZM25.9618 17.2031L30.9084 17.3546L30.4376 17.2576L25.9618 17.2031Z" fill="#E5E5E5"/>
<path d="M16.7896 22.0415L23.1202 22.2402L23.585 22.2097L16.7896 22.0415ZM25.9599 17.2031L20.8581 17.6129L16.7896 22.0415L25.9599 17.2031ZM20.3702 43.0841L19.96 42.6708L23.4902 49.6553L20.3702 43.0841ZM16.7896 22.0415L23.585 22.2097L23.8309 22.2133L16.7896 22.0415Z" fill="white"/>
<path d="M23.8309 22.2145L23.585 22.2109L28.7836 22.3187L23.8309 22.2145Z" fill="#E5E5E5"/>
<path d="M21.0151 49.1367L21.4048 49.2712L21.8036 49.3865L21.0151 49.1367Z" fill="white"/>
<path d="M23.6904 44.4683L23.9941 44.4643L28.6435 44.3641L23.6904 44.4683ZM26.4155 17.334L31.3607 17.4844L30.907 17.3562L26.4155 17.334Z" fill="#E5E5E5"/>
<path d="M20.7997 43.4435L20.3735 43.084L23.4935 49.6552L20.7997 43.4435Z" fill="white"/>
<path d="M26.1201 49.4407L31.0662 49.2894L31.5714 49.1426L26.1201 49.4407Z" fill="#E5E5E5"/>
<path d="M22.326 17.1719L21.571 17.3589L20.8614 17.6129L22.326 17.1719ZM21.2417 43.7492L20.7997 43.4435L23.4935 49.6553L21.2417 43.7492ZM20.2661 48.8095L21.8067 49.3854L23.4935 49.6553L20.2661 48.8095ZM21.3557 30.4059V35.5924L23.0988 35.5976L21.3557 30.4059Z" fill="white"/>
<path d="M26.8529 17.4928L31.7968 17.6417L31.3601 17.4824L26.8529 17.4928ZM26.627 49.2914L31.5716 49.1414L32.0609 48.9591L26.627 49.2914Z" fill="#E5E5E5"/>
<path d="M21.6965 44.001L21.2385 43.7493L23.4902 49.6553L21.6965 44.001ZM25.9599 17.2031L16.7896 22.0415L23.8309 22.2133L25.9599 17.2031ZM21.8034 49.3855L22.2113 49.4817L22.6284 49.5588L21.8034 49.3855Z" fill="white"/>
<path d="M24.4932 17.0039L24.9991 17.0392L29.4439 17.157L24.4932 17.0039Z" fill="#E5E5E5"/>
<path d="M23.9713 17L22.3239 17.1726L20.8594 17.6136L23.9713 17Z" fill="white"/>
<path d="M27.2725 17.6859L32.2152 17.8331L31.7956 17.6426L27.2725 17.6859Z" fill="#E5E5E5"/>
<path d="M22.1729 44.1997L21.6987 44.002L23.4924 49.6563L22.1729 44.1997Z" fill="white"/>
<path d="M25.0592 49.629L24.5049 49.6699L30.0083 49.4762L25.0592 49.629ZM27.1176 49.1081L32.0608 48.9598L32.5341 48.7418L27.1176 49.1081ZM27.2766 32.7014L32.2193 32.7074V32.5723L27.2766 32.7014Z" fill="#E5E5E5"/>
<path d="M21.353 30.4062L23.0961 35.598L23.4449 35.6072L21.353 30.4062ZM21.804 49.3858L22.629 49.5591L23.4908 49.6556L21.804 49.3858Z" fill="white"/>
<path d="M27.2764 32.5642L32.2191 32.5715L32.8217 32.1953L27.2764 32.5642Z" fill="#E5E5E5"/>
<path d="M22.6616 44.3428L22.1714 44.1992L23.491 49.6559L22.6616 44.3428Z" fill="white"/>
<path d="M27.6408 32.7956L32.5824 32.8007L32.2192 32.7074L27.6408 32.7956ZM27.6771 17.9096L32.6187 18.0548L32.2163 17.833L27.6771 17.9096ZM24.9985 17.0391L25.4876 17.1056L29.9479 17.1919L24.9985 17.0391Z" fill="#E5E5E5"/>
<path d="M21.353 30.4062L23.4449 35.6072L23.7809 35.6328L21.353 30.4062Z" fill="white"/>
<path d="M27.5933 48.8883L32.5351 48.7419L32.9923 48.4883L27.5933 48.8883Z" fill="#E5E5E5"/>
<path d="M22.6304 49.5586L23.0567 49.6165L23.4922 49.6551L22.6304 49.5586Z" fill="white"/>
<path d="M25.5966 49.5526L25.0581 49.6291L30.5442 49.4004L25.5966 49.5526Z" fill="#E5E5E5"/>
<path d="M21.353 30.4066L23.7809 35.6331L24.1042 35.6749L21.353 30.4066ZM23.1679 44.4323L22.6615 44.3429L23.4908 49.656L23.1679 44.4323ZM23.9706 17L23.124 17.0526L22.3233 17.1726L23.9706 17Z" fill="white"/>
<path d="M27.9907 32.9118L32.9314 32.9158L32.5815 32.8006L27.9907 32.9118ZM28.0625 18.1648L33.003 18.3077L32.6178 18.0547L28.0625 18.1648Z" fill="#E5E5E5"/>
<path d="M21.353 30.4062L24.1042 35.6746L24.4145 35.7328L21.353 30.4062Z" fill="white"/>
<path d="M25.4883 17.1055L25.9604 17.2034L30.4362 17.2578L25.4883 17.1055ZM27.8815 32.1852L32.8225 32.196L33.3735 31.7743L27.8815 32.1852ZM28.0513 48.632L32.9918 48.488L33.4328 48.1986L28.0513 48.632ZM28.3298 33.0503L33.2694 33.053L32.933 32.9158L28.3298 33.0503Z" fill="#E5E5E5"/>
<path d="M21.353 30.4062L24.4145 35.7328L24.7119 35.8074L21.353 30.4062Z" fill="white"/>
<path d="M28.4345 18.4527L33.3739 18.5929L33.006 18.3086L28.4345 18.4527ZM26.1222 49.4411L25.5996 49.5534L31.0683 49.2899L26.1222 49.4411Z" fill="#E5E5E5"/>
<path d="M25.9612 17.2038L23.9713 17L20.8594 17.6136L25.9612 17.2038ZM21.3537 30.4066L24.7126 35.8077L24.9971 35.8986L21.3537 30.4066ZM22.922 30.4004L21.3537 30.4066L26.8081 37.1983L22.922 30.4004Z" fill="white"/>
<path d="M25.9609 17.2031L26.416 17.3324L30.9075 17.3546L25.9609 17.2031ZM28.6543 33.2109L33.593 33.2121L33.27 33.0528L28.6543 33.2109ZM28.4347 31.7592L33.374 31.774L33.8732 31.3067L28.4347 31.7592Z" fill="#E5E5E5"/>
<path d="M21.353 30.4062L24.9964 35.8983L25.268 36.0056L21.353 30.4062Z" fill="white"/>
<path d="M28.4941 48.3399L33.4333 48.1985L33.8582 47.8734L28.4941 48.3399ZM28.7852 18.7701L33.7235 18.9074L33.373 18.5918L28.7852 18.7701Z" fill="#E5E5E5"/>
<path d="M23.4908 49.6556L23.9356 49.6751L24.5056 49.6699L23.4908 49.6556ZM21.353 30.4062L25.268 36.0057L25.5265 36.1294L21.353 30.4062Z" fill="white"/>
<path d="M26.6268 49.2933L26.1201 49.4415L31.5714 49.1434L26.6268 49.2933ZM28.9634 33.3956L33.9012 33.3951L33.5917 33.2137L28.9634 33.3956ZM26.4147 17.334L26.8527 17.4947L31.36 17.4844L26.4147 17.334Z" fill="#E5E5E5"/>
<path d="M21.353 30.4062L25.5265 36.1294L25.7721 36.2696L21.353 30.4062Z" fill="white"/>
<path d="M29.1215 19.1211L34.0589 19.2552L33.7257 18.9082L29.1215 19.1211ZM28.9224 48.0125L33.8603 47.8742L34.2689 47.5133L28.9224 48.0125ZM28.9374 31.2883L33.8753 31.3076L34.3225 30.7947L28.9374 31.2883Z" fill="#E5E5E5"/>
<path d="M23.4908 49.6557L24.5056 49.6699L25.0599 49.6291L23.4908 49.6557ZM21.353 30.4063L25.7721 36.2696L26.0045 36.4262L21.353 30.4063ZM23.1856 30.3906L22.9214 30.4001L27.1164 37.6654L23.1856 30.3906Z" fill="white"/>
<path d="M29.2622 33.6005L34.1991 33.598L33.9032 33.3945L29.2622 33.6005Z" fill="#E5E5E5"/>
<path d="M24.9994 17.0393L24.4934 17.004L23.9706 17L24.9994 17.0393ZM21.353 30.4066L26.0045 36.4265L26.2239 36.5995L21.353 30.4066Z" fill="white"/>
<path d="M29.4312 19.4891L34.3676 19.6198L34.0565 19.2539L29.4312 19.4891Z" fill="#E5E5E5"/>
<path d="M23.4446 30.3652L23.1875 30.3917L27.1183 37.6665L23.4446 30.3652Z" fill="white"/>
<path d="M27.1176 49.1092L26.627 49.2933L32.0609 48.9609L27.1176 49.1092Z" fill="#E5E5E5"/>
<path d="M25.9596 17.2031L23.8306 22.2133L24.067 22.2315L25.9596 17.2031Z" fill="white"/>
<path d="M26.8521 17.4941L27.2729 17.6864L31.796 17.6431L26.8521 17.4941Z" fill="#E5E5E5"/>
<path d="M21.353 30.4062L26.2239 36.5992L26.4303 36.7886L21.353 30.4062Z" fill="white"/>
<path d="M29.5443 33.8283L34.4804 33.8237L34.1979 33.5981L29.5443 33.8283ZM29.3296 47.6484L34.2663 47.5134L34.6586 47.1167L29.3296 47.6484ZM29.3834 30.7706L34.3199 30.7948L34.715 30.2363L29.3834 30.7706Z" fill="#E5E5E5"/>
<path d="M25.9605 17.2031L24.0679 22.2315L24.2947 22.2643L25.9605 17.2031ZM23.6927 30.3204L23.4427 30.3638L27.2451 37.9205L23.6927 30.3204ZM21.353 30.4059L26.4303 36.7883L26.6274 36.9857L21.353 30.4059Z" fill="white"/>
<path d="M29.7158 19.8814L34.6514 20.0084L34.3671 19.6211L29.7158 19.8814Z" fill="#E5E5E5"/>
<path d="M23.4927 49.6549L25.0617 49.6283L26.1228 49.4395L23.4927 49.6549Z" fill="white"/>
<path d="M27.2764 32.5645V32.7008L32.2191 32.5717L27.2764 32.5645Z" fill="#E5E5E5"/>
<path d="M25.9605 17.2031L24.2947 22.2643L24.5119 22.3117L25.9605 17.2031ZM21.353 30.4059L26.6274 36.9857L26.8075 37.1976L21.353 30.4059ZM23.9356 30.2601L23.6927 30.3204L27.2451 37.9205L23.9356 30.2601Z" fill="white"/>
<path d="M29.8135 34.0789L34.7488 34.0719L34.4799 33.8242L29.8135 34.0789Z" fill="#E5E5E5"/>
<path d="M25.9606 17.2038L24.9995 17.0393L23.9707 17L25.9606 17.2038Z" fill="white"/>
<path d="M27.2754 32.7012L27.6397 32.7953L32.2182 32.7072L27.2754 32.7012ZM27.2725 17.6855L27.6761 17.9093L32.2152 17.8328L27.2725 17.6855Z" fill="#E5E5E5"/>
<path d="M25.9593 17.2031L24.5107 22.3117L24.7183 22.3738L25.9593 17.2031Z" fill="white"/>
<path d="M27.5918 48.8885L27.1172 49.1084L32.5337 48.7421L27.5918 48.8885ZM29.722 47.2475L34.6575 47.1163L35.0258 46.6816L29.722 47.2475Z" fill="#E5E5E5"/>
<path d="M24.1703 30.1836L23.9346 30.261L27.2441 37.9214L24.1703 30.1836Z" fill="white"/>
<path d="M29.9735 20.2935L34.9083 20.4166L34.6509 20.0078L29.9735 20.2935ZM29.7788 30.2061L34.7142 30.2357L35.0569 29.6316L29.7788 30.2061Z" fill="#E5E5E5"/>
<path d="M25.9608 17.2031L24.7197 22.3738L24.9177 22.4505L25.9608 17.2031Z" fill="white"/>
<path d="M30.0708 34.3497L35.0053 34.3402L34.7501 34.0703L30.0708 34.3497Z" fill="#E5E5E5"/>
<path d="M24.3995 30.0879L24.1709 30.1822L27.3564 38.1901L24.3995 30.0879Z" fill="white"/>
<path d="M27.8807 32.1855L27.2764 32.5653L32.8217 32.1964L27.8807 32.1855Z" fill="#E5E5E5"/>
<path d="M25.9591 17.2031L24.916 22.4505L25.1043 22.5419L25.9591 17.2031Z" fill="white"/>
<path d="M30.205 20.7283L35.1391 20.8474L34.9087 20.4172L30.205 20.7283ZM27.6411 32.7961L27.992 32.9125L32.5828 32.8013L27.6411 32.7961ZM30.092 46.8091L35.0265 46.6819L35.3631 46.2225L30.092 46.8091ZM27.6775 17.9102L28.0638 18.1655L32.6191 18.0554L27.6775 17.9102Z" fill="#E5E5E5"/>
<path d="M25.9588 17.2031L25.104 22.5419L25.2826 22.648L25.9588 17.2031Z" fill="white"/>
<path d="M30.1226 29.5966L35.0569 29.6319L35.3471 28.9824L30.1226 29.5966Z" fill="#E5E5E5"/>
<path d="M24.6208 29.9785L24.3994 30.0899L27.3563 38.1921L24.6208 29.9785Z" fill="white"/>
<path d="M30.313 34.6442L35.2468 34.6318L35.0052 34.3398L30.313 34.6442Z" fill="#E5E5E5"/>
<path d="M25.9597 17.2035L25.4876 17.1056L24.9985 17.0391L25.9597 17.2035Z" fill="white"/>
<path d="M28.0518 48.6323L27.5933 48.8883L32.9923 48.4883L28.0518 48.6323Z" fill="#E5E5E5"/>
<path d="M25.9615 17.2031L25.2853 22.648L25.4542 22.7687L25.9615 17.2031ZM22.9224 30.3998L26.8084 37.1976L26.9714 37.4241L22.9224 30.3998Z" fill="white"/>
<path d="M30.4111 21.1845L35.3446 21.2993L35.1412 20.8477L30.4111 21.1845Z" fill="#E5E5E5"/>
<path d="M25.0608 49.6287L25.5993 49.5522L26.1219 49.4399L25.0608 49.6287ZM24.8365 29.8486L24.6223 29.977L27.3578 38.1905L24.8365 29.8486ZM22.9224 30.3998L26.9714 37.4241L27.1173 37.6651L22.9224 30.3998ZM25.9615 17.2031L25.4542 22.7687L25.6135 22.9041L25.9615 17.2031Z" fill="white"/>
<path d="M30.5392 34.9624L35.4723 34.9471L35.2444 34.633L30.5392 34.9624ZM30.4128 28.941L35.3463 28.9825L35.5839 28.2876L30.4128 28.941ZM27.9907 32.9123L28.3282 33.0509L32.9314 32.9163L27.9907 32.9123ZM30.5847 21.6615L35.5177 21.7718L35.3413 21.2988L30.5847 21.6615ZM30.4283 46.3451L35.3618 46.2223L35.6666 45.738L30.4283 46.3451Z" fill="#E5E5E5"/>
<path d="M25.0425 29.7032L24.8354 29.8486L27.4512 38.475L25.0425 29.7032ZM25.9605 17.2031L25.6124 22.9041L25.762 23.0542L25.9605 17.2031Z" fill="white"/>
<path d="M28.064 18.166L28.433 18.4529L33.0044 18.3089L28.064 18.166Z" fill="#E5E5E5"/>
<path d="M25.9592 17.2031L25.7607 23.0542L25.9006 23.219L25.9592 17.2031Z" fill="white"/>
<path d="M28.434 31.7598L27.8813 32.1855L33.3733 31.7746L28.434 31.7598Z" fill="#E5E5E5"/>
<path d="M23.4909 49.6557L26.121 49.4402L28.0516 48.6321L23.4909 49.6557ZM23.168 44.432L23.4909 49.6557L31.0096 45.342L23.168 44.432ZM25.2424 29.541L25.0426 29.7035L27.4514 38.4753L25.2424 29.541Z" fill="white"/>
<path d="M30.7549 35.3015L35.6874 35.283L35.4731 34.9467L30.7549 35.3015ZM30.7354 22.1602L35.6679 22.2659L35.5185 21.7715L30.7354 22.1602Z" fill="#E5E5E5"/>
<path d="M23.4429 30.3652L27.1165 37.6664L27.2453 37.9219L23.4429 30.3652Z" fill="white"/>
<path d="M30.6528 28.2388L35.5856 28.287L35.7705 27.5469L30.6528 28.2388Z" fill="#E5E5E5"/>
<path d="M23.6906 44.4667L23.168 44.4317L31.0096 45.3417L23.6906 44.4667ZM25.9606 17.2031L25.9019 23.219L26.0313 23.3893L25.9606 17.2031Z" fill="white"/>
<path d="M28.4946 48.3399L28.0522 48.632L33.4338 48.1986L28.4946 48.3399ZM30.8596 22.6806L35.7918 22.7813L35.6696 22.2656L30.8596 22.6806Z" fill="#E5E5E5"/>
<path d="M25.9609 17.2031L26.0316 23.3893L26.1497 23.5712L25.9609 17.2031Z" fill="white"/>
<path d="M30.735 45.8562L35.6675 45.7379L35.9404 45.2289L30.735 45.8562ZM28.3291 33.0508L28.653 33.2116L33.2688 33.0535L28.3291 33.0508Z" fill="#E5E5E5"/>
<path d="M25.4348 29.3613L25.2422 29.5409L27.5285 38.7741L25.4348 29.3613Z" fill="white"/>
<path d="M30.8394 27.4918L35.7716 27.547L35.9037 26.7617L30.8394 27.4918ZM30.962 35.6509L35.8938 35.629L35.6894 35.2829L30.962 35.6509Z" fill="#E5E5E5"/>
<path d="M25.9609 17.2031L26.1497 23.5712L26.2567 23.7646L25.9609 17.2031Z" fill="white"/>
<path d="M30.9517 23.2222L35.8835 23.3178L35.7884 22.7809L30.9517 23.2222ZM28.4307 18.4512L28.7823 18.7697L33.37 18.5914L28.4307 18.4512Z" fill="#E5E5E5"/>
<path d="M25.9582 17.2031L26.2539 23.7646L26.3496 23.9696L25.9582 17.2031ZM25.618 29.1646L25.4326 29.3612L27.5263 38.7739L25.618 29.1646Z" fill="white"/>
<path d="M30.9717 26.699L35.9035 26.7617L35.9828 25.9314L30.9717 26.699ZM31.0232 23.7862L35.9549 23.8765L35.887 23.3184L31.0232 23.7862Z" fill="#E5E5E5"/>
<path d="M23.9941 44.4627L23.6904 44.4667L31.0094 45.3417L23.9941 44.4627ZM25.9604 17.2031L26.3518 23.9696L26.4363 24.1862L25.9604 17.2031ZM24.1712 30.1827L27.2451 37.9205L27.3567 38.1905L24.1712 30.1827Z" fill="white"/>
<path d="M31.0632 24.3715L35.9947 24.4563L35.954 23.877L31.0632 24.3715ZM31.0503 25.8612L35.9819 25.9318L36.0083 25.0567L31.0503 25.8612ZM31.0768 24.9776L36.0083 25.0567L35.9947 24.4563L31.0768 24.9776Z" fill="#E5E5E5"/>
<path d="M25.9609 17.2031L26.4368 24.1862L26.51 24.4142L25.9609 17.2031Z" fill="white"/>
<path d="M31.149 36.0131L36.0803 35.9878L35.8935 35.6289L31.149 36.0131ZM31.0103 45.3419L35.942 45.2284L36.1829 44.6946L31.0103 45.3419Z" fill="#E5E5E5"/>
<path d="M25.7929 28.9547L25.6187 29.1646L27.527 38.7739L25.7929 28.9547ZM25.9589 17.2031L26.5079 24.4142L26.5699 24.6538L25.9589 17.2031Z" fill="white"/>
<path d="M28.6533 33.2109L28.9637 33.3941L33.592 33.2121L28.6533 33.2109Z" fill="#E5E5E5"/>
<path d="M25.9609 17.2031L26.572 24.6538L26.6227 24.9049L25.9609 17.2031Z" fill="white"/>
<path d="M28.9353 31.2891L28.4346 31.7609L33.8731 31.3084L28.9353 31.2891ZM28.9202 48.0133L28.4941 48.3414L33.8582 47.8749L28.9202 48.0133Z" fill="#E5E5E5"/>
<path d="M26.8535 17.4932L26.4155 17.3324L25.9605 17.2031L26.8535 17.4932ZM25.9605 17.2031L26.6222 24.9049L26.6616 25.1675L25.9605 17.2031ZM24.2869 44.4416L23.9941 44.4627L31.0094 45.3417L24.2869 44.4416ZM25.9605 17.2031L26.6616 25.1675L26.6898 25.4416L25.9605 17.2031ZM25.9536 28.7354L25.7945 28.9547L27.5887 39.0873L25.9536 28.7354Z" fill="white"/>
<path d="M31.3172 36.3895L36.248 36.3606L36.0789 35.9891L31.3172 36.3895ZM28.7842 18.7715L29.1184 19.1217L33.7225 18.9088L28.7842 18.7715ZM31.2505 44.8044L36.1815 44.696L36.3904 44.1375L31.2505 44.8044Z" fill="#E5E5E5"/>
<path d="M26.095 28.5077L25.9509 28.7365L27.586 39.0884L26.095 28.5077ZM24.8328 29.8496L27.3541 38.1916L27.4485 38.476L24.8328 29.8496ZM24.5659 44.4044L24.2842 44.4427L31.0068 45.3428L24.5659 44.4044ZM26.1182 49.441L26.6249 49.2928L27.1156 49.1088L26.1182 49.441ZM26.2239 28.2695L26.095 28.5077L27.586 39.0884L26.2239 28.2695Z" fill="white"/>
<path d="M31.4703 36.7768L36.4006 36.7443L36.2493 36.3601L31.4703 36.7768ZM28.9648 33.3951L29.2617 33.6005L33.9026 33.3945L28.9648 33.3951Z" fill="#E5E5E5"/>
<path d="M26.3394 28.0215L26.2256 28.2691L27.6307 39.4158L26.3394 28.0215Z" fill="white"/>
<path d="M31.4614 44.2389L36.3918 44.1358L36.5687 43.5527L31.4614 44.2389Z" fill="#E5E5E5"/>
<path d="M25.2422 29.541L27.4511 38.4753L27.5285 38.7742L25.2422 29.541Z" fill="white"/>
<path d="M31.6016 37.1773L36.5315 37.141L36.3979 36.7441L31.6016 37.1773Z" fill="#E5E5E5"/>
<path d="M26.4388 27.7656L26.3401 28.0227L27.6315 39.417L26.4388 27.7656ZM24.8391 44.3497L24.5684 44.4051L31.0092 45.3435L24.8391 44.3497Z" fill="white"/>
<path d="M29.3322 47.6486L28.9224 48.0129L34.2689 47.5137L29.3322 47.6486Z" fill="#E5E5E5"/>
<path d="M27.6784 17.9092L26.854 17.4932L25.9609 17.2031L27.6784 17.9092Z" fill="white"/>
<path d="M29.1182 19.1211L29.4303 19.4904L34.0556 19.2552L29.1182 19.1211ZM29.3826 30.7705L28.9341 31.2883L34.3192 30.7947L29.3826 30.7705Z" fill="#E5E5E5"/>
<path d="M26.5205 27.498L26.437 27.7645L27.6297 39.4159L26.5205 27.498Z" fill="white"/>
<path d="M31.7199 37.5903L36.6494 37.5501L36.5336 37.1406L31.7199 37.5903ZM31.6382 43.6509L36.568 43.5534L36.7128 42.9457L31.6382 43.6509Z" fill="#E5E5E5"/>
<path d="M25.7954 28.9551L27.5295 38.7743L27.5897 39.0877L25.7954 28.9551Z" fill="white"/>
<path d="M29.2622 33.6001L29.5455 33.8279L34.1991 33.5977L29.2622 33.6001Z" fill="#E5E5E5"/>
<path d="M25.0986 44.2754L24.8389 44.3481L31.009 45.3419L25.0986 44.2754Z" fill="white"/>
<path d="M31.8188 38.0171L36.7481 37.9728L36.6501 37.5508L31.8188 38.0171Z" fill="#E5E5E5"/>
<path d="M27.2782 32.7018V32.5654L26.5234 27.498L27.2782 32.7018Z" fill="white"/>
<path d="M31.7822 43.038L36.7116 42.9462L36.8242 42.314L31.7822 43.038ZM31.8975 38.4557L36.8265 38.4073L36.7463 37.9727L31.8975 38.4557Z" fill="#E5E5E5"/>
<path d="M26.1201 49.4409L27.1175 49.1088L28.0506 48.6328L26.1201 49.4409Z" fill="white"/>
<path d="M31.8955 42.3986L36.8245 42.3129L36.905 41.6562L31.8955 42.3986Z" fill="#E5E5E5"/>
<path d="M26.5234 27.498L27.6326 39.4159L27.2782 32.7018L26.5234 27.498Z" fill="white"/>
<path d="M29.4312 19.4902L29.7163 19.8812L34.3676 19.6209L29.4312 19.4902Z" fill="#E5E5E5"/>
<path d="M26.2257 28.2695L27.5878 39.0884L27.6308 39.4162L26.2257 28.2695ZM25.3468 44.1863L25.0981 44.2762L31.0085 45.3428L25.3468 44.1863Z" fill="white"/>
<path d="M31.9611 38.9076L36.89 38.8549L36.8276 38.4077L31.9611 38.9076ZM32.0059 39.3717L36.9346 39.3146L36.89 38.8549L32.0059 39.3717ZM31.977 41.7372L36.9058 41.6577L36.9541 40.9767L31.977 41.7372ZM29.723 47.2482L29.3296 47.6486L34.6586 47.1169L29.723 47.2482ZM32.0327 39.8484L36.9613 39.7868L36.9346 39.3146L32.0327 39.8484ZM32.0255 41.0497L36.9541 40.9767L36.9702 40.2714L32.0255 41.0497ZM32.0416 40.3377L36.9702 40.2714L36.9613 39.7868L32.0416 40.3377ZM29.5443 33.8286L29.8139 34.0787L34.4804 33.824L29.5443 33.8286ZM29.7796 30.207L29.3834 30.7709L34.715 30.2366L29.7796 30.207Z" fill="#E5E5E5"/>
<path d="M27.6763 17.9101L27.2727 17.6864L26.8519 17.4941L27.6763 17.9101ZM25.5838 44.0791L25.3462 44.1862L31.0079 45.3427L25.5838 44.0791Z" fill="white"/>
<path d="M29.7158 19.8809L29.974 20.2935L34.6514 20.0078L29.7158 19.8809Z" fill="#E5E5E5"/>
<path d="M25.8138 43.9551L25.5873 44.0794L31.0114 45.343L25.8138 43.9551ZM23.4927 49.6567L28.0533 48.6331L31.0114 45.343L23.4927 49.6567Z" fill="white"/>
<path d="M29.8135 34.0773L30.0695 34.3497L34.7488 34.0703L29.8135 34.0773Z" fill="#E5E5E5"/>
<path d="M27.6322 39.4151L27.658 39.7574L27.2777 32.701L27.6322 39.4151ZM29.1195 19.1202L27.6784 17.9092L25.9609 17.2031L29.1195 19.1202Z" fill="white"/>
<path d="M30.0925 46.8088L29.7231 47.2475L35.027 46.6816L30.0925 46.8088Z" fill="#E5E5E5"/>
<path d="M27.1175 49.1081L27.5921 48.8881L28.0506 48.6322L27.1175 49.1081ZM26.0264 43.8125L25.811 43.9541L31.0086 45.3421L26.0264 43.8125Z" fill="white"/>
<path d="M30.1225 29.5977L29.7788 30.2075L35.0569 29.633L30.1225 29.5977Z" fill="#E5E5E5"/>
<path d="M27.9915 32.9116L27.6407 32.7953L27.2764 32.7012L27.9915 32.9116Z" fill="white"/>
<path d="M29.9771 20.293L30.2082 20.7273L34.9119 20.4161L29.9771 20.293Z" fill="#E5E5E5"/>
<path d="M26.2282 43.6543L26.0239 43.8132L31.0061 45.3427L26.2282 43.6543Z" fill="white"/>
<path d="M30.0708 34.3494L30.3131 34.6442L35.0053 34.3398L30.0708 34.3494Z" fill="#E5E5E5"/>
<path d="M30.8593 22.6804L25.9609 17.2031L26.6903 25.4416L30.8593 22.6804ZM27.2777 32.5647L27.882 32.1849L28.4347 31.7592L27.2777 32.5647ZM26.4251 43.4771L26.2319 43.6533L31.0099 45.3417L26.4251 43.4771Z" fill="white"/>
<path d="M30.2053 20.7285L30.4093 21.1844L35.1394 20.8476L30.2053 20.7285ZM30.4299 46.3455L30.0923 46.8093L35.3633 46.2227L30.4299 46.3455ZM30.4143 28.9414L30.1232 29.5971L35.3478 28.9829L30.4143 28.9414Z" fill="#E5E5E5"/>
<path d="M28.6547 33.2122L27.9933 32.9128L27.2782 32.7023L28.6547 33.2122ZM30.8597 22.6816L26.5918 27.2227L26.5234 27.4986L30.8597 22.6816Z" fill="white"/>
<path d="M30.313 34.6452L30.5416 34.9623L35.2468 34.6328L30.313 34.6452Z" fill="#E5E5E5"/>
<path d="M26.6072 43.2847L26.4253 43.4781L31.0102 45.3427L26.6072 43.2847ZM30.8595 22.6814L26.6447 26.9372L26.5916 27.2224L30.8595 22.6814ZM28.4339 18.4524L28.0649 18.1655L27.6786 17.9102L28.4339 18.4524ZM30.8595 22.6814L26.6827 26.6426L26.6447 26.9372L30.8595 22.6814ZM30.8595 22.6814L26.7055 26.3386L26.6827 26.6426L30.8595 22.6814Z" fill="white"/>
<path d="M30.4111 21.1836L30.5881 21.6611L35.3446 21.2984L30.4111 21.1836Z" fill="#E5E5E5"/>
<path d="M30.8563 22.6816L26.6873 25.4429L26.7042 25.7285L30.8563 22.6816ZM30.8563 22.6816L26.7098 26.0256L26.7022 26.3389L30.8563 22.6816ZM30.8563 22.6816L26.7042 25.7285L26.7098 26.0256L30.8563 22.6816ZM26.773 43.0777L26.604 43.2849L31.0069 45.3429L26.773 43.0777Z" fill="white"/>
<path d="M30.6529 28.2383L30.4146 28.9398L35.5857 28.2865L30.6529 28.2383Z" fill="#E5E5E5"/>
<path d="M27.2782 32.5659L30.8597 22.6816L26.5234 27.4986L27.2782 32.5659Z" fill="white"/>
<path d="M30.5415 34.9626L30.7564 35.3021L35.4746 34.9473L30.5415 34.9626Z" fill="#E5E5E5"/>
<path d="M26.9293 42.8594L26.7749 43.077L31.0088 45.3422L26.9293 42.8594Z" fill="white"/>
<path d="M30.7359 45.8569L30.4302 46.3457L35.6684 45.7386L30.7359 45.8569ZM30.5866 21.6621L30.7364 22.1612L35.5196 21.7724L30.5866 21.6621Z" fill="#E5E5E5"/>
<path d="M28.6545 33.2109L28.3305 33.0501L27.9931 32.9115L28.6545 33.2109ZM27.0704 42.6309L26.9307 42.8588L31.0101 45.3417L27.0704 42.6309ZM27.2779 32.5647L28.4349 31.7592L29.3841 30.7695L27.2779 32.5647Z" fill="white"/>
<path d="M30.8383 27.4918L30.6528 28.239L35.7705 27.547L30.8383 27.4918ZM30.7363 22.1602L30.8589 22.6807L35.6688 22.2658L30.7363 22.1602Z" fill="#E5E5E5"/>
<path d="M29.1181 19.1212L28.4323 18.4524L27.677 17.9102L29.1181 19.1212ZM27.1939 42.3935L27.0688 42.6319L31.0086 45.3427L27.1939 42.3935Z" fill="white"/>
<path d="M30.7568 35.3018L30.9619 35.6512L35.6893 35.2832L30.7568 35.3018Z" fill="#E5E5E5"/>
<path d="M28.0524 48.6325L28.4947 48.3404L28.9208 48.0123L28.0524 48.6325ZM27.3062 42.1445L27.1958 42.3932L31.0104 45.3424L27.3062 42.1445Z" fill="white"/>
<path d="M30.8565 22.6816L30.9519 23.2237L35.7886 22.7824L30.8565 22.6816ZM31.0071 45.3429L30.7334 45.8568L35.9388 45.2295L31.0071 45.3429ZM30.9685 26.6999L30.8359 27.4927L35.9003 26.7626L30.9685 26.6999Z" fill="#E5E5E5"/>
<path d="M27.4001 41.8849L27.3043 42.144L31.0086 45.3418L27.4001 41.8849ZM29.8131 34.0775L28.6529 33.2111L27.2764 32.7012L29.8131 34.0775Z" fill="white"/>
<path d="M30.9546 23.2227L31.0227 23.7861L35.8865 23.3183L30.9546 23.2227Z" fill="#E5E5E5"/>
<path d="M27.4824 41.6152L27.4014 41.8846L31.0099 45.3415L27.4824 41.6152Z" fill="white"/>
<path d="M31.0494 25.8613L30.9699 26.6996L35.981 25.932L31.0494 25.8613ZM30.96 35.6515L31.1473 36.0138L35.8918 35.6297L30.96 35.6515Z" fill="#E5E5E5"/>
<path d="M30.8593 22.6804L29.1195 19.1202L25.9609 17.2031L30.8593 22.6804ZM27.658 39.7574L31.0099 45.3417L27.2777 32.701L27.658 39.7574Z" fill="white"/>
<path d="M31.0234 23.7871L31.0643 24.3719L35.9551 23.8774L31.0234 23.7871ZM31.0643 24.3719L31.078 24.9781L35.9959 24.4567L31.0643 24.3719ZM31.078 24.9781L31.0514 25.8616L36.0095 25.0571L31.078 24.9781Z" fill="#E5E5E5"/>
<path d="M27.5482 41.3355L27.4819 41.6152L31.0095 45.3414L27.5482 41.3355ZM27.5998 41.0455L27.5482 41.3355L31.0095 45.3414L27.5998 41.0455ZM27.6366 40.7452L27.5998 41.0455L31.0095 45.3414L27.6366 40.7452ZM27.6587 40.4346L27.6366 40.7452L31.0095 45.3414L27.6587 40.4346ZM27.6575 39.7571L27.6661 40.1138L31.0095 45.3414L27.6575 39.7571ZM27.6661 40.1138L27.6587 40.4346L31.0095 45.3414L27.6661 40.1138ZM29.119 19.1199L28.7848 18.7697L28.4332 18.4512L29.119 19.1199Z" fill="white"/>
<path d="M31.2519 44.8036L31.0103 45.3424L36.1829 44.6952L31.2519 44.8036ZM31.149 36.0136L31.3186 36.3887L36.0803 35.9883L31.149 36.0136Z" fill="#E5E5E5"/>
<path d="M28.0522 48.6318L28.9207 48.0116L29.7239 47.2468L28.0522 48.6318ZM28.435 31.7592L28.9357 31.2874L29.3842 30.7695L28.435 31.7592ZM29.2619 33.5995L28.965 33.3941L28.6546 33.2109L29.2619 33.5995Z" fill="white"/>
<path d="M31.3167 36.3882L31.4685 36.7761L36.2475 36.3594L31.3167 36.3882ZM31.4596 44.2394L31.25 44.8031L36.3899 44.1363L31.4596 44.2394Z" fill="#E5E5E5"/>
<path d="M27.2764 32.5643L29.3825 30.7691L30.6519 28.2383L27.2764 32.5643Z" fill="white"/>
<path d="M31.4704 36.7767L31.6044 37.1773L36.4007 36.7441L31.4704 36.7767ZM31.6389 43.6513L31.4614 44.2399L36.5687 43.5537L31.6389 43.6513Z" fill="#E5E5E5"/>
<path d="M29.8135 34.0773L29.2606 33.5995L28.6533 33.2109L29.8135 34.0773Z" fill="white"/>
<path d="M31.6016 37.1769L31.7177 37.5903L36.5315 37.1406L31.6016 37.1769Z" fill="#E5E5E5"/>
<path d="M28.9224 48.0128L29.3322 47.6485L29.7256 47.248L28.9224 48.0128Z" fill="white"/>
<path d="M31.7834 43.0382L31.6382 43.6516L36.7128 42.9464L31.7834 43.0382ZM31.7199 37.591L31.8182 38.0171L36.6494 37.5508L31.7199 37.591Z" fill="#E5E5E5"/>
<path d="M29.7153 19.8813L29.4302 19.4904L29.1182 19.1211L29.7153 19.8813Z" fill="white"/>
<path d="M31.817 38.0169L31.8975 38.4557L36.7463 37.9727L31.817 38.0169ZM31.8952 42.3998L31.7822 43.038L36.8243 42.314L31.8952 42.3998Z" fill="#E5E5E5"/>
<path d="M31.4688 36.776L29.8131 34.0775L27.2764 32.7012L31.4688 36.776Z" fill="white"/>
<path d="M31.8994 38.4547L31.962 38.9061L36.8284 38.4062L31.8994 38.4547Z" fill="#E5E5E5"/>
<path d="M29.8151 34.0774L29.5455 33.8274L29.2622 33.5996L29.8151 34.0774Z" fill="white"/>
<path d="M31.9762 41.7359L31.8955 42.3988L36.905 41.6564L31.9762 41.7359ZM31.9603 38.9062L32.0051 39.3703L36.8892 38.8535L31.9603 38.9062Z" fill="#E5E5E5"/>
<path d="M28.0505 48.633L29.7222 47.2481L31.0086 45.3429L28.0505 48.633ZM27.2764 32.5659L30.6519 28.2399L30.8579 22.6816L27.2764 32.5659Z" fill="white"/>
<path d="M32.0265 41.0496L31.978 41.7371L36.9551 40.9766L32.0265 41.0496ZM32.0068 39.3716L32.0337 39.8483L36.9355 39.3145L32.0068 39.3716ZM32.0337 39.8483L32.0426 40.3376L36.9623 39.7867L32.0337 39.8483ZM32.0426 40.3376L32.0265 41.0496L36.9712 40.2713L32.0426 40.3376Z" fill="#E5E5E5"/>
<path d="M30.2046 20.7283L29.7153 19.8813L29.1181 19.1211L30.2046 20.7283ZM29.3825 30.7705L29.7788 30.2066L30.1225 29.5968L29.3825 30.7705ZM31.0086 45.3426L31.4688 36.7768L27.2764 32.702L31.0086 45.3426ZM30.2046 20.7283L29.9734 20.294L29.7153 19.8813L30.2046 20.7283ZM29.3825 30.7705L30.1225 29.5968L30.6519 28.2396L29.3825 30.7705ZM30.8579 22.6813L30.2046 20.7283L29.1181 19.1211L30.8579 22.6813ZM30.3114 34.6454L30.0691 34.3507L29.8131 34.0783L30.3114 34.6454ZM29.7222 47.2478L30.0916 46.8091L30.4292 46.3453L29.7222 47.2478ZM30.7549 35.302L30.3114 34.6454L29.8131 34.0783L30.7549 35.302ZM29.7222 47.2478L30.4292 46.3453L31.0086 45.3426L29.7222 47.2478ZM30.1225 29.5968L30.4136 28.9411L30.6519 28.2396L30.1225 29.5968ZM30.5856 21.6617L30.4086 21.1842L30.2046 20.7283L30.5856 21.6617ZM30.7549 35.302L30.54 34.9626L30.3114 34.6454L30.7549 35.302ZM30.8579 22.6813L30.5856 21.6617L30.2046 20.7283L30.8579 22.6813ZM31.4688 36.7768L30.7549 35.302L29.8131 34.0783L31.4688 36.7768ZM30.4292 46.3453L30.7349 45.8565L31.0086 45.3426L30.4292 46.3453ZM30.8579 22.6813L30.7354 22.1607L30.5856 21.6617L30.8579 22.6813ZM30.6519 28.2396L30.8374 27.4924L30.9699 26.6996L30.6519 28.2396ZM30.6519 28.2396L31.076 24.9778L30.8579 22.6813L30.6519 28.2396ZM30.6519 28.2396L30.9699 26.6996L31.076 24.9778L30.6519 28.2396ZM31.0215 23.7868L30.9533 23.2234L30.8579 22.6813L31.0215 23.7868ZM31.1474 36.0138L30.96 35.6515L30.7549 35.302L31.1474 36.0138ZM31.076 24.9778L31.0215 23.7868L30.8579 22.6813L31.076 24.9778ZM30.9699 26.6996L31.0495 25.8613L31.076 24.9778L30.9699 26.6996ZM31.076 24.9778L31.0624 24.3717L31.0215 23.7868L31.076 24.9778ZM31.4688 36.7768L31.1474 36.0138L30.7549 35.302L31.4688 36.7768ZM31.0086 45.3426L31.2503 44.8038L31.4598 44.24L31.0086 45.3426ZM31.4688 36.7768L31.317 36.3889L31.1474 36.0138L31.4688 36.7768ZM31.0086 45.3426L31.4598 44.24L31.7825 43.0379L31.0086 45.3426ZM31.0086 45.3426L32.0408 40.3372L31.4688 36.7768L31.0086 45.3426ZM31.7189 37.5908L31.6028 37.1774L31.4688 36.7768L31.7189 37.5908ZM31.0086 45.3426L31.7825 43.0379L32.0408 40.3372L31.0086 45.3426ZM31.4598 44.24L31.6373 43.6514L31.7825 43.0379L31.4598 44.24ZM31.8977 38.4557L31.7189 37.5908L31.4688 36.7768L31.8977 38.4557ZM32.0408 40.3372L31.8977 38.4557L31.4688 36.7768L32.0408 40.3372ZM31.8977 38.4557L31.8173 38.0169L31.7189 37.5908L31.8977 38.4557ZM31.7825 43.0379L31.8955 42.3997L31.9762 41.7368L31.7825 43.0379ZM31.7825 43.0379L31.9762 41.7368L32.0408 40.3372L31.7825 43.0379ZM32.005 39.3713L31.9603 38.9071L31.8977 38.4557L32.005 39.3713ZM32.0408 40.3372L32.005 39.3713L31.8977 38.4557L32.0408 40.3372ZM31.9762 41.7368L32.0247 41.0493L32.0408 40.3372L31.9762 41.7368ZM32.0408 40.3372L32.0319 39.848L32.005 39.3713L32.0408 40.3372Z" fill="white"/>
</g>
<path d="M29.8418 17.1676L24.5278 17.002C25.803 17.0583 26.7093 17.432 27.3024 17.7003C27.8954 17.9686 28.5139 18.4466 29.1662 19.1423C29.6881 19.6988 30.1575 20.5875 30.3269 20.9623C30.3834 21.0713 30.5608 21.5208 30.8183 22.4466C31.0759 23.3724 31.1007 24.6324 31.0809 25.1468C31.064 25.7086 30.9895 26.9916 30.8268 27.6289C30.6235 28.4255 30.4286 29.0964 29.8864 30.044C29.3442 30.9916 29.1154 31.1089 28.4969 31.7043C28.0022 32.1806 27.4831 32.4674 27.2854 32.5513V32.7022C29.3526 33.1131 30.471 34.5806 31.1233 35.9726C31.7808 37.0795 32.0016 38.8265 32.0298 39.5617C32.1654 41.4736 31.818 42.9774 31.6994 43.4358C31.5808 43.8943 31.2233 45.0241 30.7421 45.8761C30.2608 46.7281 29.282 47.6902 28.8528 48.0647C28.72 48.1681 28.2631 48.489 27.4972 48.9452C26.4602 49.4215 25.2634 49.6133 24.7946 49.6496C25.8762 49.6273 28.441 49.5607 30.0473 49.4735C31.4029 49.3461 32.4139 48.8558 32.75 48.6266C33.103 48.4561 34.036 47.8534 34.9443 46.8069C35.8525 45.7604 36.4128 44.2297 36.5794 43.5952C36.7319 42.969 37.0233 41.3311 36.9691 39.7881C36.9149 38.2451 36.5794 37.1494 36.4184 36.7944C36.3168 36.3947 35.8745 35.3269 34.9189 34.2536C33.9632 33.1802 32.7133 32.7721 32.2078 32.7022V32.5513C32.5495 32.3947 33.404 31.8855 34.0886 31.1006C34.9782 30.3291 35.5966 28.4172 35.7407 27.8469C35.8559 27.4578 35.9638 26.4102 36.0033 25.935C36.0287 25.2614 36.027 23.6944 35.8169 22.8155C35.5543 21.717 35.3869 21.3345 35.1723 20.8992C34.989 20.5001 34.5073 19.702 33.968 19.1423C33.4286 18.5825 32.9364 18.1938 32.151 17.7948C31.4682 17.4009 30.3271 17.2125 29.8418 17.1676Z" fill="#C4C4C4"/>
<path d="M29.8418 17.1676L24.5278 17.002C25.803 17.0583 26.7093 17.432 27.3024 17.7003C27.8954 17.9686 28.5139 18.4466 29.1662 19.1423C29.6881 19.6988 30.1575 20.5875 30.3269 20.9623C30.3834 21.0713 30.5608 21.5208 30.8183 22.4466C31.0759 23.3724 31.1007 24.6324 31.0809 25.1468C31.064 25.7086 30.9895 26.9916 30.8268 27.6289C30.6235 28.4255 30.4286 29.0964 29.8864 30.044C29.3442 30.9916 29.1154 31.1089 28.4969 31.7043C28.0022 32.1806 27.4831 32.4674 27.2854 32.5513V32.7022C29.3526 33.1131 30.471 34.5806 31.1233 35.9726C31.7808 37.0795 32.0016 38.8265 32.0298 39.5617C32.1654 41.4736 31.818 42.9774 31.6994 43.4358C31.5808 43.8943 31.2233 45.0241 30.7421 45.8761C30.2608 46.7281 29.282 47.6902 28.8528 48.0647C28.72 48.1681 28.2631 48.489 27.4972 48.9452C26.4602 49.4215 25.2634 49.6133 24.7946 49.6496C25.8762 49.6273 28.441 49.5607 30.0473 49.4735C31.4029 49.3461 32.4139 48.8558 32.75 48.6266C33.103 48.4561 34.036 47.8534 34.9443 46.8069C35.8525 45.7604 36.4128 44.2297 36.5794 43.5952C36.7319 42.969 37.0233 41.3311 36.9691 39.7881C36.9149 38.2451 36.5794 37.1494 36.4184 36.7944C36.3168 36.3947 35.8745 35.3269 34.9189 34.2536C33.9632 33.1802 32.7133 32.7721 32.2078 32.7022V32.5513C32.5495 32.3947 33.404 31.8855 34.0886 31.1006C34.9782 30.3291 35.5966 28.4172 35.7407 27.8469C35.8559 27.4578 35.9638 26.4102 36.0033 25.935C36.0287 25.2614 36.027 23.6944 35.8169 22.8155C35.5543 21.717 35.3869 21.3345 35.1723 20.8992C34.989 20.5001 34.5073 19.702 33.968 19.1423C33.4286 18.5825 32.9364 18.1938 32.151 17.7948C31.4682 17.4009 30.3271 17.2125 29.8418 17.1676Z" fill="url(#paint2_linear_1155_429041)"/>
<path d="M29.8418 17.1676L24.5278 17.002C25.803 17.0583 26.7093 17.432 27.3024 17.7003C27.8954 17.9686 28.5139 18.4466 29.1662 19.1423C29.6881 19.6988 30.1575 20.5875 30.3269 20.9623C30.3834 21.0713 30.5608 21.5208 30.8183 22.4466C31.0759 23.3724 31.1007 24.6324 31.0809 25.1468C31.064 25.7086 30.9895 26.9916 30.8268 27.6289C30.6235 28.4255 30.4286 29.0964 29.8864 30.044C29.3442 30.9916 29.1154 31.1089 28.4969 31.7043C28.0022 32.1806 27.4831 32.4674 27.2854 32.5513V32.7022C29.3526 33.1131 30.471 34.5806 31.1233 35.9726C31.7808 37.0795 32.0016 38.8265 32.0298 39.5617C32.1654 41.4736 31.818 42.9774 31.6994 43.4358C31.5808 43.8943 31.2233 45.0241 30.7421 45.8761C30.2608 46.7281 29.282 47.6902 28.8528 48.0647C28.72 48.1681 28.2631 48.489 27.4972 48.9452C26.4602 49.4215 25.2634 49.6133 24.7946 49.6496C25.8762 49.6273 28.441 49.5607 30.0473 49.4735C31.4029 49.3461 32.4139 48.8558 32.75 48.6266C33.103 48.4561 34.036 47.8534 34.9443 46.8069C35.8525 45.7604 36.4128 44.2297 36.5794 43.5952C36.7319 42.969 37.0233 41.3311 36.9691 39.7881C36.9149 38.2451 36.5794 37.1494 36.4184 36.7944C36.3168 36.3947 35.8745 35.3269 34.9189 34.2536C33.9632 33.1802 32.7133 32.7721 32.2078 32.7022V32.5513C32.5495 32.3947 33.404 31.8855 34.0886 31.1006C34.9782 30.3291 35.5966 28.4172 35.7407 27.8469C35.8559 27.4578 35.9638 26.4102 36.0033 25.935C36.0287 25.2614 36.027 23.6944 35.8169 22.8155C35.5543 21.717 35.3869 21.3345 35.1723 20.8992C34.989 20.5001 34.5073 19.702 33.968 19.1423C33.4286 18.5825 32.9364 18.1938 32.151 17.7948C31.4682 17.4009 30.3271 17.2125 29.8418 17.1676Z" fill="url(#paint3_linear_1155_429041)"/>
<path d="M23.481 40.4004L18.4795 40.4702C18.9224 41.4737 19.8374 42.5722 20.0916 42.8321C20.2356 43.025 21.0744 43.721 21.5658 43.9474C21.7013 43.9894 22.7349 44.5512 24.2599 44.4589C25.2901 44.3516 25.9939 43.8831 26.217 43.6623C25.0394 42.8657 24.1159 41.7168 23.481 40.4004Z" fill="#C4C4C4"/>
<path d="M23.481 40.4004L18.4795 40.4702C18.9224 41.4737 19.8374 42.5722 20.0916 42.8321C20.2356 43.025 21.0744 43.721 21.5658 43.9474C21.7013 43.9894 22.7349 44.5512 24.2599 44.4589C25.2901 44.3516 25.9939 43.8831 26.217 43.6623C25.0394 42.8657 24.1159 41.7168 23.481 40.4004Z" fill="url(#paint4_linear_1155_429041)"/>
<path d="M25.9314 23.2583C23.0258 20.4265 19.6988 23.8735 19.0117 25.6731C19.9727 25.7099 22.3204 25.7833 24.0239 25.7833C24.3433 24.6769 25.4287 23.639 25.9314 23.2583Z" fill="#C4C4C4"/>
<path d="M25.9314 23.2583C23.0258 20.4265 19.6988 23.8735 19.0117 25.6731C19.9727 25.7099 22.3204 25.7833 24.0239 25.7833C24.3433 24.6769 25.4287 23.639 25.9314 23.2583Z" fill="url(#paint5_linear_1155_429041)"/>
<path d="M30.5774 0.23452L29.2285 0.0234375C29.6829 0.0845649 30.1325 0.154974 30.5774 0.23452L41.8912 2.00503C43.7916 2.47877 48.4802 4.21879 52.0312 7.3889C55.5821 10.559 58.2686 14.826 59.1679 16.5633L61.1262 20.8705C62.1561 24.1296 63.9547 31.897 62.9103 36.8933C62.2837 41.9242 60.3864 46.8861 59.516 48.7382C58.4281 51.3369 54.8075 57.4215 49.0285 60.9707C45.9824 63.5119 39.5419 65.0195 34.1458 65.5794C34.8131 65.4071 36.2868 64.9936 36.8439 64.718C37.5401 64.3734 56.8428 56.0437 55.128 30.2785C53.7874 14.251 44.5534 2.73365 30.5774 0.23452Z" fill="url(#paint6_linear_1155_429041)"/>
<defs>
<filter id="filter0_d_1155_429041" x="11.2402" y="9" width="40.731" height="52.6758" filterUnits="userSpaceOnUse" color-interpolation-filters="sRGB">
<feFlood flood-opacity="0" result="BackgroundImageFix"/>
<feColorMatrix in="SourceAlpha" type="matrix" values="0 0 0 0 0 0 0 0 0 0 0 0 0 0 0 0 0 0 127 0" result="hardAlpha"/>
<feOffset dx="5" dy="2"/>
<feGaussianBlur stdDeviation="5"/>
<feColorMatrix type="matrix" values="0 0 0 0 0.321569 0 0 0 0 0.156863 0 0 0 0 0.423529 0 0 0 0.3 0"/>
<feBlend mode="normal" in2="BackgroundImageFix" result="effect1_dropShadow_1155_429041"/>
<feBlend mode="normal" in="SourceGraphic" in2="effect1_dropShadow_1155_429041" result="shape"/>
</filter>
<linearGradient id="paint0_linear_1155_429041" x1="27.7786" y1="0" x2="39.9187" y2="67.9739" gradientUnits="userSpaceOnUse">
<stop stop-color="#DEE5F8"/>
<stop offset="1" stop-color="#BDBEE3"/>
</linearGradient>
<linearGradient id="paint1_linear_1155_429041" x1="38.2119" y1="53.3677" x2="-4.9047" y2="1.66266" gradientUnits="userSpaceOnUse">
<stop stop-color="white" stop-opacity="0.7"/>
<stop offset="1" stop-color="#A0A3CF"/>
</linearGradient>
<linearGradient id="paint2_linear_1155_429041" x1="30.7518" y1="17.002" x2="30.7518" y2="49.6496" gradientUnits="userSpaceOnUse">
<stop stop-color="#E5E5E5"/>
<stop offset="1" stop-color="#E5E5E5" stop-opacity="0"/>
</linearGradient>
<linearGradient id="paint3_linear_1155_429041" x1="53.8127" y1="38.6692" x2="30.8414" y2="49.8339" gradientUnits="userSpaceOnUse">
<stop stop-color="#EFE6F6"/>
<stop offset="1" stop-color="#EEECF0"/>
</linearGradient>
<linearGradient id="paint4_linear_1155_429041" x1="22.3022" y1="36.5005" x2="22.3022" y2="52.0005" gradientUnits="userSpaceOnUse">
<stop offset="0.161458" stop-color="#F4F4F4"/>
<stop offset="0.755208" stop-color="#E5E5E5" stop-opacity="0"/>
</linearGradient>
<linearGradient id="paint5_linear_1155_429041" x1="22.4716" y1="22.1816" x2="22.3061" y2="31.001" gradientUnits="userSpaceOnUse">
<stop stop-color="#E5E5E5"/>
<stop offset="1" stop-color="#E5E5E5" stop-opacity="0"/>
</linearGradient>
<linearGradient id="paint6_linear_1155_429041" x1="80.1175" y1="27.4155" x2="12.6027" y2="39.5304" gradientUnits="userSpaceOnUse">
<stop stop-color="#BDBEE3"/>
<stop offset="1" stop-color="#DEE5F8"/>
</linearGradient>
</defs>
</svg>
