<svg width="354" height="355" fill="none" xmlns="http://www.w3.org/2000/svg"><g filter="url(#a)"><ellipse cx="176.87" cy="257.934" rx="168.237" ry="18.056" fill="url(#b)" fill-opacity=".5"/></g><ellipse cx="168.518" cy="236.148" rx="164.518" ry="118.368" fill="url(#c)" fill-opacity=".1"/><path d="m78.028 250.139.262 3.162.847 1.968-1.11-5.13Zm196.827 1.972-.259 3.158.847-1.968-.588-1.19Zm-195.978 0 .26 3.158 2.574 1.891-2.834-5.049Zm193.398 1.894-.253 3.155 2.574-1.891-2.321-1.264Zm3.43-3.866-.85 1.972.588 1.19.262-3.162Zm-194.247 3.866.253 3.155 4.185 1.794-4.438-4.949Zm-2.58-1.894-.85-1.972 1.11 5.13-.26-3.158Zm189.201 3.692-.242 3.151 4.185-1.794-3.943-1.357Zm6.776-3.692-2.58 1.894 2.321 1.264.259-3.158Zm-189.201 3.692.242 3.151 5.682 1.681-5.924-4.832Zm-4.196-1.798-2.58-1.894 2.833 5.049-.253-3.155Zm180.924 3.481-.227 3.149 5.682-1.681-5.455-1.468Zm9.893-3.481-4.196 1.798 3.943 1.357.253-3.155Zm-180.924 3.481.227 3.149 7.062 1.549-7.29-4.698Zm-5.697-1.683-4.196-1.798 4.438 4.949-.242-3.151Zm169.647 3.235-.208 3.146 7.062-1.549-6.854-1.597Zm-156.87 0 .209 3.146 8.326 1.4-8.534-4.546Zm169.648-3.235-5.697 1.683 5.455 1.468.242-3.151Zm-21.126 4.638-.187 3.143 8.327-1.4-8.14-1.743Zm-155.602-2.955-5.697-1.683 5.924 4.832-.227-3.149ZM77.764 246.96l.264 3.179.85 1.972-1.114-5.151Zm29.016 13.481.186 3.143 9.474 1.233-9.66-4.376Zm168.337-11.505-.262 3.175.85-1.972-.588-1.203Zm-12.735 8.55-7.081 1.552 6.854 1.597.227-3.149Zm-24.928 4.19-.161 3.141 9.473-1.233-9.312-1.908Zm-139.022-2.638-7.081-1.552 7.289 4.698-.208-3.146Zm17.846 2.638.162 3.141 10.502 1.049-10.664-4.19Zm110.646 1.051-.133 3.139 10.502-1.049-10.369-2.09ZM78.616 248.936l.261 3.175 2.58 1.894-2.841-5.069Zm176.685 10.102-8.348 1.403 8.14 1.743.208-3.146Zm-128.492 3.689.133 3.139 11.413.846-11.546-3.985Zm145.721-11.893-.255 3.171 2.58-1.894-2.325-1.277Zm-165.75 9.607-8.348-1.403 8.534 4.546-.186-3.143Zm108.7 3.134-.103 3.137 11.414-.846-11.311-2.291Zm-77.227 0 .102 3.137 12.205.626-12.307-3.763Zm137.715-16.615-.851 1.976.588 1.203.263-3.179Zm-72.725 17.242-.071 3.136 12.205-.626-12.134-2.51Zm43.71-3.761-9.499 1.235 9.312 1.908.187-3.143Zm-96.463 3.761.07 3.136 12.877.389-12.947-3.525Zm-69.287-13.368.255 3.171 4.196 1.798-4.45-4.969Zm109.128 13.757-.036 3.136 12.877-.389-12.841-2.747ZM78.616 248.936l-.852-1.976 1.113 5.151-.261-3.175Zm37.662 12.74-9.498-1.235 9.66 4.376-.162-3.141Zm47.124 2.915.035 3.136 13.429.133-13.464-3.269Zm13.464.134v3.135l13.429-.133-13.429-3.002Zm91.456-12.091-.243 3.169 4.196-1.798-3.953-1.371Zm-30.868 9.042-10.53 1.051 10.369 2.09.161-3.141Zm-110.645 1.051-10.531-1.051 10.664 4.19-.133-3.139Zm148.308-13.791-2.587 1.898 2.325 1.277.262-3.175ZM85.41 252.634l.244 3.169 5.697 1.683-5.94-4.852Zm141.514 10.093-11.444.848 11.311 2.291.133-3.139Zm-145.72-11.893-2.588-1.898 2.842 5.069-.255-3.171Zm57.049 12.741-11.444-.848 11.546 3.985-.102-3.137Zm124.357-9.254-.228 3.165 5.697-1.683-5.469-1.482Zm-47.13 9.254-12.237.627 12.134 2.51.103-3.137Zm-64.99.627-12.237-.627 12.307 3.763-.07-3.136Zm52.753 0-12.912.389 12.841 2.747.071-3.136Zm69.287-13.368-4.208 1.8 3.953 1.371.255-3.171Zm-109.128 13.757-12.912-.389 12.947 3.525-.035-3.136Zm-72.28-10.27.229 3.165 7.08 1.552-7.309-4.717Zm99.209 10.27-13.465.134 13.429 3.002.036-3.136Zm-13.465.134-13.464-.134 13.464 3.269v-3.135ZM85.41 252.634l-4.207-1.8 4.45 4.969-.243-3.169Zm170.101 3.242-.21 3.162 7.081-1.552-6.871-1.61Zm-157.289 0 .21 3.162 8.348 1.403-8.558-4.565Zm170.1-3.242-5.712 1.687 5.469 1.482.243-3.169Zm-21.182 4.647-.187 3.16 8.348-1.403-8.161-1.757Zm-156.018-2.96-5.712-1.687 5.94 4.852-.228-3.165ZM77.5 243.765l.264 3.195.852 1.976-1.116-5.171Zm29.093 13.516.187 3.16 9.498 1.235-9.685-4.395Zm168.786-11.537-.262 3.192.851-1.976-.589-1.216Zm-12.769 8.577-7.099 1.555 6.871 1.61.228-3.165Zm-24.994 4.198-.162 3.157 9.499-1.235-9.337-1.922Zm-139.394-2.643-7.1-1.555 7.31 4.717-.21-3.162Zm17.894 2.643.162 3.157 10.531 1.051-10.693-4.208Zm110.942 1.052-.134 3.156 10.53-1.051-10.396-2.105ZM78.353 245.744l.263 3.192 2.587 1.898-2.85-5.09Zm177.158 10.132-8.371 1.405 8.161 1.757.21-3.162Zm-128.836 3.695.134 3.156 11.444.848-11.578-4.004Zm146.111-11.926-.256 3.189 2.587-1.898-2.331-1.291Zm-166.193 9.636-8.371-1.405 8.558 4.565-.187-3.16Zm108.99 3.139-.103 3.155 11.444-.848-11.341-2.307Zm-77.434 0 .104 3.155 12.237.627-12.341-3.782Zm138.084-16.655-.854 1.979.589 1.216.265-3.195Zm-72.92 17.284-.07 3.153 12.237-.627-12.167-2.526Zm43.827-3.768-9.524 1.238 9.337 1.922.187-3.16Zm-96.72 3.768.07 3.153 12.912.389-12.982-3.542Zm-69.473-13.404.256 3.189 4.207 1.8-4.463-4.989Zm109.42 13.794-.036 3.152 12.912-.389-12.876-2.763ZM78.353 245.744l-.853-1.979 1.116 5.171-.263-3.192Zm37.763 12.775-9.523-1.238 9.685 4.395-.162-3.157Zm47.25 2.92.036 3.152 13.464.134-13.5-3.286Zm13.5.134v3.152l13.465-.134-13.465-3.018Zm91.701-12.124-.245 3.185 4.208-1.8-3.963-1.385Zm-30.951 9.07-10.558 1.052 10.396 2.105.162-3.157Zm-110.941 1.052-10.559-1.052 10.693 4.208-.134-3.156Zm148.704-13.827-2.593 1.901 2.331 1.291.262-3.192Zm-190.213 3.705.245 3.185 5.711 1.687-5.956-4.872Zm141.892 10.122-11.475.849 11.341 2.307.134-3.156Zm-146.11-11.926-2.595-1.901 2.85 5.09-.256-3.189Zm57.201 12.775-11.474-.849 11.578 4.004-.104-3.155Zm124.691-9.281-.23 3.182 5.712-1.687-5.482-1.495Zm-47.257 9.281-12.27.629 12.167 2.526.103-3.155Zm-65.163.629-12.271-.629 12.341 3.782-.07-3.153Zm52.893 0-12.946.39 12.876 2.763.07-3.153Zm69.473-13.404-4.219 1.804 3.963 1.385.256-3.189Zm-109.42 13.794-12.946-.39 12.982 3.542-.036-3.152Zm-72.473-10.3.23 3.182 7.099 1.555-7.33-4.737Zm99.474 10.3-13.501.134 13.465 3.018.036-3.152Zm-13.501.134-13.5-.134 13.5 3.286v-3.152Zm-91.7-12.124-4.219-1.804 4.463 4.989-.244-3.185Zm170.555 3.247-.21 3.18 7.099-1.555-6.889-1.625Zm-157.71 0 .211 3.18 8.371 1.405-8.582-4.585Zm170.556-3.247-5.727 1.69 5.482 1.495.245-3.185Zm-21.239 4.655-.188 3.177 8.371-1.405-8.183-1.772Zm-156.435-2.965-5.727-1.69 5.956 4.872-.23-3.182Zm-13.66-10.587.267 3.213.853 1.979-1.12-5.192Zm29.171 13.552.189 3.177 9.523 1.238-9.712-4.415Zm169.239-11.569-.264 3.209.854-1.979-.59-1.23Zm-12.803 8.604-7.119 1.557 6.889 1.625.23-3.182Zm-25.061 4.205-.163 3.175 9.524-1.238-9.361-1.937Zm-139.768-2.648-7.118-1.557 7.329 4.737-.21-3.18Zm17.943 2.648.162 3.175 10.559 1.052-10.721-4.227Zm111.238 1.054-.134 3.173 10.558-1.052-10.424-2.121ZM78.089 242.535l.264 3.209 2.594 1.901-2.858-5.11Zm177.632 10.161-8.393 1.408 8.183 1.772.21-3.18Zm-129.181 3.702.135 3.173 11.474.849-11.609-4.022Zm146.503-11.959-.257 3.206 2.593-1.901-2.336-1.305Zm-166.639 9.665-8.393-1.408 8.582 4.585-.189-3.177Zm109.283 3.145-.104 3.171 11.475-.849-11.371-2.322Zm-77.642 0 .104 3.171 12.271.629-12.375-3.8Zm138.454-16.697-.856 1.983.59 1.23.266-3.213Zm-73.115 17.327-.071 3.17 12.27-.629-12.199-2.541Zm43.944-3.775-9.549 1.24 9.361 1.937.188-3.177Zm-96.979 3.775.071 3.17 12.946.39-13.017-3.56Zm-69.66-13.44.258 3.206 4.219 1.804-4.476-5.01Zm109.714 13.831-.036 3.169 12.946-.39-12.91-2.779ZM78.089 242.535l-.856-1.983 1.12 5.192-.264-3.209Zm37.865 12.809-9.55-1.24 9.712 4.415-.162-3.175Zm47.375 2.926.037 3.169 13.5.134-13.537-3.303Zm13.537.134v3.169l13.501-.134-13.501-3.035Zm91.947-12.157-.246 3.202 4.219-1.804-3.973-1.398Zm-31.034 9.097-10.587 1.054 10.424 2.121.163-3.175Zm-111.239 1.054-10.586-1.054 10.721 4.227-.135-3.173Zm149.103-13.863-2.6 1.904 2.336 1.305.264-3.209ZM84.92 246.247l.246 3.202 5.727 1.69-5.973-4.892Zm142.272 10.151-11.505.851 11.371 2.322.134-3.173ZM80.69 244.439l-2.6-1.904 2.857 5.11-.257-3.206Zm57.355 12.81-11.505-.851 11.609 4.022-.104-3.171Zm125.026-9.31-.231 3.2 5.727-1.69-5.496-1.51Zm-47.384 9.31-12.303.63 12.199 2.541.104-3.171Zm-65.338.63-12.304-.63 12.375 3.8-.071-3.17Zm53.035 0-12.981.391 12.91 2.779.071-3.17Zm69.659-13.44-4.23 1.808 3.973 1.398.257-3.206ZM163.329 258.27l-12.98-.391 13.017 3.56-.037-3.169Zm-72.667-10.331.23 3.2 7.12 1.557-7.35-4.757Zm99.741 10.331-13.537.134 13.501 3.035.036-3.169Zm-13.537.134-13.537-.134 13.537 3.303v-3.169ZM84.92 246.247l-4.23-1.808 4.476 5.01-.246-3.202Zm171.013 3.253-.212 3.196 7.119-1.557-6.907-1.639Zm-158.133 0 .211 3.196 8.393 1.408L97.8 249.5Zm171.013-3.253-5.742 1.692 5.496 1.51.246-3.202Zm-21.295 4.663-.19 3.194 8.393-1.408-8.203-1.786Zm-156.856-2.971-5.742-1.692 5.973 4.892-.231-3.2Zm-13.696-10.617.267 3.23.856 1.983-1.123-5.213Zm29.249 13.588.189 3.194 9.55 1.24-9.739-4.434Zm169.694-11.601-.266 3.226.856-1.983-.59-1.243Zm-12.838 8.63-7.138 1.561 6.907 1.639.231-3.2Zm-25.128 4.213-.164 3.192 9.549-1.24-9.385-1.952ZM97.8 249.5l-7.138-1.561 7.35 4.757-.212-3.196Zm17.99 2.652.164 3.192 10.586 1.054-10.75-4.246Zm111.538 1.056-.136 3.19 10.587-1.054-10.451-2.136ZM77.824 239.309l.265 3.226 2.6 1.904-2.865-5.13ZM255.933 249.5l-8.415 1.41 8.203 1.786.212-3.196Zm-129.528 3.708.135 3.19 11.505.851-11.64-4.041Zm146.896-11.991-.258 3.222 2.6-1.904-2.342-1.318Zm-167.086 9.693L97.8 249.5l8.604 4.604-.189-3.194Zm109.577 3.151-.105 3.188 11.505-.851-11.4-2.337Zm-77.851 0 .104 3.188 12.304.63-12.408-3.818Zm138.826-16.739-.858 1.987.59 1.243.268-3.23Zm-73.312 17.37-.071 3.187 12.303-.63-12.232-2.557Zm44.063-3.782-9.575 1.242 9.385 1.952.19-3.194Zm-97.241 3.782.072 3.187 12.98.391-13.052-3.578Zm-69.846-13.475.259 3.222 4.23 1.808-4.489-5.03Zm110.009 13.866-.037 3.187 12.981-.391-12.944-2.796ZM77.824 239.309l-.858-1.987 1.123 5.213-.265-3.226Zm37.966 12.843-9.575-1.242 9.739 4.434-.164-3.192Zm47.503 2.931.036 3.187 13.537.134-13.573-3.321Zm13.573.135v3.186l13.537-.134-13.537-3.052Zm92.194-12.191-.247 3.22 4.23-1.808-3.983-1.412Zm-31.117 9.125-10.615 1.056 10.451 2.136.164-3.192Zm-111.538 1.056-10.615-1.056 10.75 4.246-.135-3.19Zm149.504-13.899-2.608 1.908 2.342 1.318.266-3.226Zm-191.237 3.718.248 3.22 5.742 1.692-5.99-4.912Zm142.656 10.181-11.536.853 11.4 2.337.136-3.19ZM80.431 241.217l-2.607-1.908 2.866 5.13-.259-3.222Zm57.51 12.844-11.536-.853 11.64 4.041-.104-3.188Zm125.362-9.338-.232 3.216 5.742-1.692-5.51-1.524Zm-47.511 9.338-12.337.631 12.232 2.557.105-3.188Zm-65.515.631-12.336-.631 12.408 3.818-.072-3.187Zm53.178 0-13.015.391 12.944 2.796.071-3.187Zm69.846-13.475-4.241 1.81 3.983 1.412.258-3.222Zm-110.008 13.866-13.016-.391 13.052 3.578-.036-3.187Zm-72.863-10.36.232 3.216L97.8 249.5l-7.37-4.777Zm100.01 10.36-13.574.135 13.537 3.052.037-3.187Zm-13.574.135-13.573-.135 13.573 3.321v-3.186Zm-92.194-12.191-4.24-1.81 4.488 5.03-.248-3.22Zm171.474 3.259-.213 3.214 7.138-1.561-6.925-1.653Zm-158.56 0 .214 3.214 8.415 1.41-8.628-4.624Zm171.474-3.259-5.757 1.696 5.51 1.524.247-3.22Zm-21.352 4.672-.19 3.211 8.415-1.41-8.225-1.801ZM90.43 244.723l-5.758-1.696 5.99 4.912-.232-3.216Zm-13.733-10.648.269 3.247.858 1.987-1.127-5.234Zm29.328 13.624.19 3.211 9.575 1.242-9.765-4.453Zm170.151-11.634-.267 3.244.858-1.987-.591-1.257Zm-12.873 8.658-7.157 1.563 6.925 1.653.232-3.216Zm-25.196 4.22-.164 3.209 9.575-1.242-9.411-1.967Z" fill="#B0B0B0"/><path d="m190.438 216.317-13.575-.133-13.575.133h27.15Z" fill="#C4C4C4"/><path d="m97.584 246.286-7.157-1.563 7.37 4.777-.213-3.214Z" fill="#B0B0B0"/><path d="m215.814 217.33-25.376-1.013h-27.15l52.526 1.013Z" fill="#C4C4C4"/><path d="m115.621 248.944.164 3.209 10.616 1.056-10.78-4.265Z" fill="#B0B0B0"/><path d="m163.29 216.317-13.023.388-12.353.625 25.376-1.013Zm52.526 1.013-12.354-.625-13.022-.388 25.376 1.013Z" fill="#C4C4C4"/><path d="m227.461 250.001-.136 3.207 10.615-1.056-10.479-2.151ZM77.554 236.065l.267 3.244 2.608 1.908-2.875-5.152Zm178.59 10.221-8.438 1.413 8.225 1.801.213-3.214Z" fill="#B0B0B0"/><path d="m163.289 216.317-25.376 1.013-22.229 1.892 47.605-2.905Zm52.526 1.013-52.526-1.013-47.605 2.905 100.131-1.892Z" fill="#C4C4C4"/><path d="m126.264 250.002.136 3.207 11.536.853-11.672-4.06Zm147.292-12.025-.26 3.24 2.608-1.907-2.348-1.333ZM106.019 247.7l-8.438-1.413 8.629 4.624-.191-3.211Zm109.872 3.156-.105 3.206 11.536-.853-11.431-2.353Z" fill="#B0B0B0"/><path d="m137.913 217.329-11.567.845-10.662 1.048 22.229-1.893Zm100.132 1.893-10.663-1.048-11.567-.845 22.23 1.893Z" fill="#C4C4C4"/><path d="m137.836 250.855.105 3.206 12.336.631-12.441-3.837Zm139.2-16.78-.86 1.99.591 1.257.269-3.247Zm-73.509 17.412-.072 3.205 12.337-.631-12.265-2.574Zm44.181-3.788-9.601 1.244 9.411 1.967.19-3.211Zm-97.502 3.788.071 3.205 13.016.391-13.087-3.596Zm-70.035-13.511.26 3.241 4.241 1.81-4.5-5.051Zm110.305 13.904-.036 3.203 13.015-.391-12.979-2.812Zm-112.92-15.815-.86-1.99 1.128 5.234-.267-3.244Zm38.069 12.878-9.6-1.244 9.765 4.453-.165-3.209Zm47.631 2.937.037 3.203 13.573.135-13.61-3.338Zm13.61.134v3.204l13.574-.135-13.574-3.069Z" fill="#B0B0B0"/><path d="m256.177 221.859-18.136-2.637-22.229-1.893 40.365 4.53Z" fill="#C4C4C4"/><path d="m269.305 239.79-.249 3.237 4.241-1.81-3.992-1.427Zm-31.202 9.153-10.644 1.058 10.479 2.151.165-3.209Zm-111.838 1.058-10.644-1.058 10.78 4.265-.136-3.207Zm149.906-13.936-2.614 1.911 2.348 1.333.266-3.244Z" fill="#B0B0B0"/><path d="m115.683 219.222-9.639 1.234-8.497 1.402 18.136-2.636Zm140.497 2.636-8.497-1.402-9.639-1.234 18.136 2.636Z" fill="#C4C4C4"/><path d="m84.421 239.79.249 3.237 5.757 1.696-6.006-4.933Zm143.04 10.211-11.567.854 11.431 2.353.136-3.207ZM80.169 237.976l-2.615-1.911 2.875 5.152-.26-3.241Zm57.665 12.879-11.567-.854 11.672 4.06-.105-3.206Zm125.7-9.366-.234 3.234 5.758-1.696-5.524-1.538Zm-47.64 9.366-12.369.632 12.264 2.574.105-3.206Z" fill="#B0B0B0"/><path d="m276.333 228.819-60.518-11.49-100.131 1.893 160.649 9.597Z" fill="#C4C4C4"/><path d="m150.205 251.487-12.369-.632 12.441 3.837-.072-3.205Z" fill="#B0B0B0"/><path d="m115.684 219.222-18.136 2.636-13.085 3.245 31.221-5.881Z" fill="#C4C4C4"/><path d="m203.525 251.488-13.05.392 12.979 2.812.071-3.204Zm70.035-13.511-4.253 1.814 3.993 1.426.26-3.24ZM163.255 251.88l-13.051-.392 13.087 3.596-.036-3.204Zm-73.06-10.39.233 3.234 7.157 1.563-7.39-4.797Zm100.28 10.39-13.61.135 13.573 3.069.037-3.204Zm-13.61.135-13.61-.135 13.61 3.338v-3.203Z" fill="#B0B0B0"/><path d="m276.33 228.819-20.153-6.96-40.365-4.53 60.518 11.49Z" fill="#C4C4C4"/><path d="m84.418 239.791-4.253-1.814 4.501 5.051-.248-3.237Zm171.936 3.265-.214 3.231 7.157-1.563-6.943-1.668Z" fill="#B0B0B0"/><path d="m97.548 221.859-7.234 1.555-5.851 1.689 13.085-3.244Zm171.718 3.244-5.851-1.689-7.234-1.555 13.085 3.244Z" fill="#C4C4C4"/><path d="m97.37 243.055.215 3.231 8.438 1.413-8.652-4.644Zm171.937-3.265-5.773 1.699 5.525 1.538.248-3.237Zm-21.41 4.681-.191 3.228 8.438-1.413-8.247-1.815Zm-157.702-2.982-5.773-1.699 6.006 4.933-.233-3.234Zm-13.77-10.678.27 3.264.86 1.991-1.13-5.255Zm29.406 13.66.192 3.228 9.6 1.244-9.792-4.472Z" fill="#B0B0B0"/><path d="m276.331 228.819-7.067-3.716-13.085-3.244 20.152 6.96Z" fill="#C4C4C4"/><path d="m276.442 232.804-.269 3.261.861-1.99-.592-1.271Zm-12.908 8.685-7.176 1.566 6.942 1.668.234-3.234Zm-25.264 4.228-.165 3.226 9.6-1.244-9.435-1.982Z" fill="#B0B0B0"/><path d="m115.68 219.222-31.221 5.881-7.176 7.701 38.397-13.582Z" fill="#C4C4C4"/><path d="m97.367 243.055-7.176-1.566 7.39 4.797-.214-3.231Zm18.087 2.662.165 3.226 10.644 1.058-10.809-4.284Zm112.141 1.06-.137 3.224 10.644-1.058-10.507-2.166ZM77.283 232.804l.268 3.261 2.614 1.911-2.882-5.172Z" fill="#B0B0B0"/><path d="m84.461 225.103-4.347 1.808-2.72 1.908 7.067-3.716Zm191.871 3.716-2.72-1.908-4.347-1.808 7.067 3.716Z" fill="#C4C4C4"/><path d="m256.358 243.055-8.461 1.416 8.247 1.815.214-3.231Zm-130.228 3.722.137 3.225 11.567.854-11.704-4.079Zm147.691-12.058-.261 3.257 2.614-1.91-2.353-1.347Zm-167.99 9.752-8.46-1.416 8.652 4.644-.192-3.228ZM216 247.633l-.105 3.223 11.567-.854L216 247.633Zm-78.271 0 .105 3.223 12.37.632-12.475-3.855Zm139.576-16.822-.863 1.993.592 1.271.271-3.264Zm-73.708 17.455-.072 3.222 12.37-.632-12.298-2.59Zm44.3-3.795-9.626 1.246 9.435 1.982.191-3.228Zm-97.765 3.795.072 3.222 13.05.392-13.122-3.614Zm-70.224-13.547.261 3.257 4.253 1.814-4.514-5.071Zm110.603 13.94-.036 3.221 13.05-.392-13.014-2.829ZM77.287 232.804l-.863-1.993 1.13 5.255-.267-3.262Z" fill="#B0B0B0"/><path d="m84.459 225.103-7.067 3.716-.11 3.985 7.177-7.701Z" fill="#C4C4C4"/><path d="m115.454 245.717-9.626-1.247 9.791 4.473-.165-3.226Zm47.76 2.942.036 3.221 13.611.134-13.647-3.355Zm13.647.135v3.22l13.61-.134-13.61-3.086Zm92.692-12.258-.25 3.254 4.253-1.814-4.003-1.44Zm-31.286 9.181-10.672 1.06 10.507 2.166.165-3.226Zm-112.141 1.06-10.672-1.06 10.809 4.284-.137-3.224Zm150.312-13.973-2.621 1.915 2.353 1.346.268-3.261Zm-192.27 3.732.25 3.254 5.773 1.699-6.023-4.953Zm143.427 10.241-11.599.856 11.462 2.368.137-3.224ZM79.904 234.719l-2.621-1.915 2.882 5.172-.261-3.257Z" fill="#B0B0B0"/><path d="m115.684 219.222 21.939 25.17 138.71-15.573-160.649-9.597Zm160.758 13.582.863-1.994-.972-1.991.109 3.985Zm-199.046-3.985-.972 1.991.862 1.994.11-3.985Z" fill="#C4C4C4"/><path d="m137.731 247.633-11.598-.855 11.704 4.078-.106-3.223Zm126.04-9.395-.234 3.252 5.773-1.699-5.539-1.553Zm-47.768 9.395-12.403.633 12.297 2.59.106-3.223Zm-65.869.633-12.403-.633 12.475 3.855-.072-3.222Zm53.466 0-13.086.393 13.014 2.829.072-3.222Zm70.223-13.547-4.263 1.817 4.002 1.441.261-3.258Z" fill="#B0B0B0"/><path d="m115.68 219.222-38.397 13.582 60.336 11.588-21.939-25.17Z" fill="#C4C4C4"/><path d="m163.217 248.659-13.086-.393 13.123 3.614-.037-3.221ZM89.96 238.238l.235 3.252 7.176 1.566-7.411-4.818Zm100.551 10.421-13.647.135 13.61 3.086.037-3.221Zm-13.647.135-13.647-.135 13.647 3.356v-3.221Zm-92.693-12.258-4.263-1.817 4.514 5.072-.25-3.255Z" fill="#B0B0B0"/><path d="m269.559 236.536 6.885-3.732-.109-3.985-6.776 7.717Z" fill="#C4C4C4"/><path d="m256.569 239.806-.215 3.249 7.176-1.566-6.961-1.683Zm-159.418 0 .216 3.249 8.46 1.415-8.676-4.664Zm172.402-3.27-5.788 1.702 5.538 1.552.25-3.254Zm-21.467 4.688-.193 3.246 8.461-1.415-8.268-1.831Zm-158.13-2.986-5.789-1.702 6.023 4.953-.234-3.251Z" fill="#B0B0B0"/><path d="m269.553 236.536 4.264-1.817 2.621-1.915-6.885 3.732Zm-192.27-3.732 2.621 1.915 4.264 1.817-6.885-3.732Z" fill="#C4C4C4"/><path d="m105.639 241.225.192 3.246 9.627 1.246-9.819-4.492Zm158.13-2.987-7.196 1.569 6.961 1.682.235-3.251Zm-25.332 4.235-.166 3.244 9.626-1.246-9.46-1.998Z" fill="#B0B0B0"/><path d="m238.433 242.473 31.12-5.937 6.776-7.717-37.896 13.654Z" fill="#C4C4C4"/><path d="m97.156 239.807-7.196-1.569 7.411 4.817-.215-3.248Zm18.136 2.666.166 3.244 10.673 1.06-10.839-4.304Z" fill="#B0B0B0"/><path d="m77.283 232.804 6.885 3.732 12.983 3.27-19.868-7.002Z" fill="#C4C4C4"/><path d="m227.735 243.535-.137 3.242 10.672-1.06-10.535-2.182Zm28.837-3.729-8.483 1.418 8.268 1.831.215-3.249Zm-130.58 3.729.137 3.242 11.599.855-11.736-4.097Zm-20.354-2.311-8.484-1.418 8.677 4.664-.193-3.246Zm110.467 3.168-.106 3.24 11.599-.855-11.493-2.385Zm-78.483 0 .106 3.24 12.403.633-12.509-3.873Z" fill="#B0B0B0"/><path d="m256.569 239.806 7.196-1.568 5.788-1.702-12.984 3.27Zm-172.402-3.27 5.789 1.702 7.195 1.568-12.984-3.27Z" fill="#C4C4C4"/><path d="m203.666 245.026-.073 3.24 12.403-.634-12.33-2.606Zm44.42-3.802-9.653 1.249 9.46 1.997.193-3.246Z" fill="#B0B0B0"/><path d="m137.619 244.392 100.814-1.919 37.896-13.654-138.71 15.573Z" fill="#C4C4C4"/><path d="m150.059 245.026.072 3.24 13.086.392-13.158-3.632Zm40.489.394-.037 3.238 13.086-.392-13.049-2.846Zm-75.257-2.947-9.652-1.249 9.819 4.493-.167-3.244Zm47.889 2.947.037 3.238 13.647.135-13.684-3.373Zm13.684.135v3.238l13.647-.135-13.647-3.103Z" fill="#B0B0B0"/><path d="m77.283 232.804 19.868 7.002 40.468 4.586-60.336-11.588Z" fill="#C4C4C4"/><path d="m238.437 242.473-10.701 1.062 10.535 2.182.166-3.244Z" fill="#B0B0B0"/><path d="m238.433 242.473 18.136-2.667 12.984-3.27-31.12 5.937Z" fill="#C4C4C4"/><path d="m125.994 243.535-10.701-1.062 10.839 4.304-.138-3.242Zm101.744 0-11.63.857 11.492 2.385.138-3.242Zm-90.114.857-11.63-.857 11.736 4.097-.106-3.24Z" fill="#B0B0B0"/><path d="m238.436 242.473 9.653-1.249 8.483-1.418-18.136 2.667Zm-141.281-2.667 8.483 1.418 9.653 1.249-18.136-2.667Z" fill="#C4C4C4"/><path d="m216.102 244.393-12.436.634 12.33 2.606.106-3.24Zm-66.047.634-12.436-.634 12.509 3.873-.073-3.239Zm53.611 0-13.122.394 13.049 2.845.073-3.239Zm-40.489.394-13.122-.394 13.159 3.632-.037-3.238Zm27.367 0-13.684.135 13.647 3.103.037-3.238Zm-13.684.135-13.683-.135 13.683 3.373v-3.238Z" fill="#B0B0B0"/><path d="m97.154 239.806 18.137 2.667 22.331 1.919-40.468-4.586Zm18.137 2.667 10.701 1.062 11.63.857-22.331-1.919Zm100.814 1.919 11.63-.857 10.701-1.062-22.331 1.919Zm-25.558 1.028 25.558-1.028 22.331-1.919-47.889 2.947Zm-52.925-1.028 52.925 1.028 47.889-2.947-100.814 1.919Zm52.925 1.028 13.122-.394 12.436-.634-25.558 1.028Zm-52.925-1.028 12.436.634 13.122.394-25.558-1.028Zm0 0 25.558 1.028h27.367l-52.925-1.028Zm25.558 1.028 13.684.135 13.683-.135H163.18Z" fill="#C4C4C4"/><path d="M276.555 230.951c0 .65-.453 1.45-1.729 2.367-1.252.9-3.148 1.798-5.661 2.672-5.016 1.744-12.317 3.327-21.388 4.66-18.13 2.666-43.202 4.317-70.913 4.317s-52.782-1.651-70.912-4.317c-9.071-1.333-16.372-2.916-21.388-4.66-2.514-.874-4.409-1.772-5.662-2.672-1.276-.917-1.728-1.717-1.728-2.367 0-.651.452-1.451 1.728-2.367 1.253-.9 3.148-1.799 5.662-2.673 5.016-1.744 12.317-3.326 21.388-4.66 18.13-2.665 43.201-4.317 70.912-4.317 27.711 0 52.783 1.652 70.913 4.317 9.071 1.334 16.372 2.916 21.388 4.66 2.513.874 4.409 1.773 5.661 2.673 1.276.916 1.729 1.716 1.729 2.367Z" fill="url(#d)" stroke="url(#e)" stroke-width="1.5"/><g filter="url(#f)"><ellipse cx="173.628" cy="232.469" rx="70.834" ry="8.698" transform="rotate(3.944 173.628 232.469)" fill="url(#g)" fill-opacity=".25"/></g><path fill-rule="evenodd" clip-rule="evenodd" d="m97.37 243.057.215 3.23 8.438 1.413 9.594 1.243.003.001h-.001l-9.598-1.244.19 3.211h-.001l-.19-3.211-8.438-1.413v-.001l-.215-3.23.004.001Zm-7.411-4.818h-.002l-5.788-1.702-4.259-1.815-.002-.003v.002l-.002-.001.002.003.261 3.254 4.248 1.812.001.001v.002l.25 3.236-.003-.003-.248-3.234-4.248-1.812-.002-.001v.001-.002h-.001l-.262-3.257-2.617-1.912v-.003l-.863-1.994.27 3.265.856 1.98.001.007-.858-1.986.269 3.247.267 3.23.267 3.212.264 3.196.264 3.178.262 3.162.847 1.969 2.574 1.89 4.185 1.795 5.682 1.68 7.062 1.549 8.326 1.4 9.474 1.234 10.502 1.048 11.413.847 12.205.626 12.877.388 13.429.134 13.429-.134 12.878-.388 12.205-.626 11.413-.847 10.502-1.048 9.474-1.234 8.326-1.4 7.062-1.549 5.682-1.68 4.185-1.795 2.574-1.89.847-1.969.262-3.162.263-3.178.265-3.196.266-3.212.268-3.23.269-3.244.002-.004-.592-1.271-.268 3.258-.001.002-.002-.001.268-3.259-2.622 1.915h.002l-4.262 1.817 3.999 1.439-.001.001-4.001-1.44-5.788 1.702-7.194 1.568 6.961 1.683.235-3.251.001.001-.235 3.25h.001l5.519 1.536v.002l-5.52-1.537v-.001h-.003l-7.173 1.566 7.173-1.566-6.959-1.682v-.001l-.001.001h-.001l-8.482 1.417 8.267 1.831-8.268-1.831-.193 3.246.192-3.246-9.651 1.249h-.001l-10.699 1.062h-.001l-11.629.857 11.492 2.385-11.492-2.385-.106 3.241h-.005.003l-.003-.001.106-3.239-12.433.634h-.003l-13.116.393h-.006l-13.678.136v-.001.001h-.005l-13.678-.135-.001-.001v.001l-.005-.001-13.115-.393h-.007l-12.43-.634h-.001v-.001l-11.63-.857-10.701-1.062 10.838 4.304h.001l.137 3.224 11.565.854h.002l-.106-3.222h.001l.105 3.222 12.368.632h.001l-.072-3.221.001.001.072 3.22 13.046.392h.001v.001l-13.049-.392 13.087 3.595v.001l-13.087-3.596.071 3.204-.072-3.204-12.368-.632h-.002v-.001l-11.567-.854 11.672 4.06-.105-3.205h.001l.105 3.205-11.536-.852-10.615-1.056v-.001l10.611 1.056h.001l-.136-3.207.002.001-.137-3.225-10.836-4.302v-.002l-9.653-1.249.193 3.246h-.001l-.193-3.246-8.483-1.418 8.674 4.663h-.002l-8.674-4.662.216 3.248-.001-.001-.215-3.247-7.193-1.569Zm36.033 5.297 11.735 4.097v.001l-11.735-4.098Zm24.134 4.729-.073-3.237.005.001.073 3.238h.001-.002l-.004-.002Zm13.084.394-13.077-.392h.001l13.077.393-.001-.001Zm.002.001h.003l13.646 3.355-13.646-3.355 13.643.135-.001-.001-13.64-.134-.037-3.237-.005-.002.037 3.237.005.002-.005-.001v.001Zm13.647.134v.001h.003l13.609 3.086-13.609.134h.001v.001l13.573 3.069v-.001l-13.573-3.069 13.61-.134 12.979 2.812-12.979-2.812 13.05-.392 12.263 2.573h.002l11.536-.852 10.615-1.056.165-3.209 9.6-1.245 8.225 1.801.213-3.213 7.157-1.564h.001l5.757-1.695.002-.001 4.239-1.81 2.607-1.907.267-3.243-.003.002-.267 3.239.002.001-2.606 1.907v.001l-.001-.001-.001.001v-.001l-3.989-1.425v.001l3.988 1.425-4.236 1.808v.002l-.003-.001-.001.001h.001l-5.756 1.695v.001h-.002v-.001l-6.94-1.667v.001l6.938 1.667-7.152 1.562v.001h-.003l-.213 3.214-8.224-1.801-9.599 1.244.165-3.226 9.435 1.982h.001l-9.434-1.982h-.002l.166-3.243h-.001l-.166 3.243h-.002l-.165 3.226-.001.001-.165 3.208h.002-.002l-10.613 1.056-11.431-2.353v.001l11.43 2.353-11.535.852h-.001l-12.263-2.573v-.001h.001-.001l-13.048.392.036-3.22h-.001l.037-3.237-.005-.002-.037 3.237.005.002h-.005l-13.641.134v-3.236l-.005-.001v3.236l.005.001h-.005Zm13.646-.134h.004l-.037 3.221-13.61-3.086 13.643-.135Zm13.086-.393-13.079.393h.001l13.078-.393h.006l-.072 3.221.072-3.221v-.001l-.001.001h-.005Zm0-.001.073-3.238h.002l-.072 3.238h-.003Zm12.403-.632-12.396.632.001.001 12.395-.633Zm40.361-4.578h.003-.003Zm-140.901 2.662-9.621-1.246h.001l9.62 1.246Zm-25.497-7.479v.001l.235 3.249-.235-3.25Zm7.41 4.817-7.172-1.565 7.171 1.565Zm-7.178-1.568-6.02-4.95 6.02 4.95ZM216 247.634l-.105 3.222.105-3.222Zm53.306-7.843h.001l4.249-1.813h-.001l-4.25 1.813h.001Zm-178.88 4.931-6.002-4.929-.004-.001 6.005 4.932-5.757-1.696v.001l5.758 1.695 7.37 4.777-.213-3.213.212 3.213-7.37-4.777h.001v-.002Zm72.826 7.159 13.61 3.338-13.61-3.338ZM80.167 237.98l.26 3.237v.001l-.26-3.237v-.001Zm46.233 15.23-.136-3.207 11.672 4.059-11.536-.852Zm150.042-20.405.863-1.994-.271 3.265-.592-1.271Z" fill="url(#h)"/><path fill-rule="evenodd" clip-rule="evenodd" d="m97.37 243.057.215 3.23 8.438 1.413 9.594 1.243.003.001h-.001l-9.598-1.244.19 3.211h-.001l-.19-3.211-8.438-1.413v-.001l-.215-3.23.004.001Zm-7.411-4.818h-.002l-5.788-1.702-4.259-1.815-.002-.003v.002l-.002-.001.002.003.261 3.254 4.248 1.812.001.001v.002l.25 3.236-.003-.003-.248-3.234-4.248-1.812-.002-.001v.001-.002h-.001l-.262-3.257-2.617-1.912v-.003l-.863-1.994.27 3.265.856 1.98.001.007-.858-1.986.269 3.247.267 3.23.267 3.212.264 3.196.264 3.178.262 3.162.847 1.969 2.574 1.89 4.185 1.795 5.682 1.68 7.062 1.549 8.326 1.4 9.474 1.234 10.502 1.048 11.413.847 12.205.626 12.877.388 13.429.134 13.429-.134 12.878-.388 12.205-.626 11.413-.847 10.502-1.048 9.474-1.234 8.326-1.4 7.062-1.549 5.682-1.68 4.185-1.795 2.574-1.89.847-1.969.262-3.162.263-3.178.265-3.196.266-3.212.268-3.23.269-3.244.002-.004-.592-1.271-.268 3.258-.001.002-.002-.001.268-3.259-2.622 1.915h.002l-4.262 1.817 3.999 1.439-.001.001-4.001-1.44-5.788 1.702-7.194 1.568 6.961 1.683.235-3.251.001.001-.235 3.25h.001l5.519 1.536v.002l-5.52-1.537v-.001h-.003l-7.173 1.566 7.173-1.566-6.959-1.682v-.001l-.001.001h-.001l-8.482 1.417 8.267 1.831-8.268-1.831-.193 3.246.192-3.246-9.651 1.249h-.001l-10.699 1.062h-.001l-11.629.857 11.492 2.385-11.492-2.385-.106 3.241h-.005.003l-.003-.001.106-3.239-12.433.634h-.003l-13.116.393h-.006l-13.678.136v-.001.001h-.005l-13.678-.135-.001-.001v.001l-.005-.001-13.115-.393h-.007l-12.43-.634h-.001v-.001l-11.63-.857-10.701-1.062 10.838 4.304h.001l.137 3.224 11.565.854h.002l-.106-3.222h.001l.105 3.222 12.368.632h.001l-.072-3.221.001.001.072 3.22 13.046.392h.001v.001l-13.049-.392 13.087 3.595v.001l-13.087-3.596.071 3.204-.072-3.204-12.368-.632h-.002v-.001l-11.567-.854 11.672 4.06-.105-3.205h.001l.105 3.205-11.536-.852-10.615-1.056v-.001l10.611 1.056h.001l-.136-3.207.002.001-.137-3.225-10.836-4.302v-.002l-9.653-1.249.193 3.246h-.001l-.193-3.246-8.483-1.418 8.674 4.663h-.002l-8.674-4.662.216 3.248-.001-.001-.215-3.247-7.193-1.569Zm36.033 5.297 11.735 4.097v.001l-11.735-4.098Zm24.134 4.729-.073-3.237.005.001.073 3.238h.001-.002l-.004-.002Zm13.084.394-13.077-.392h.001l13.077.393-.001-.001Zm.002.001h.003l13.646 3.355-13.646-3.355 13.643.135-.001-.001-13.64-.134-.037-3.237-.005-.002.037 3.237.005.002-.005-.001v.001Zm13.647.134v.001h.003l13.609 3.086-13.609.134h.001v.001l13.573 3.069v-.001l-13.573-3.069 13.61-.134 12.979 2.812-12.979-2.812 13.05-.392 12.263 2.573h.002l11.536-.852 10.615-1.056.165-3.209 9.6-1.245 8.225 1.801.213-3.213 7.157-1.564h.001l5.757-1.695.002-.001 4.239-1.81 2.607-1.907.267-3.243-.003.002-.267 3.239.002.001-2.606 1.907v.001l-.001-.001-.001.001v-.001l-3.989-1.425v.001l3.988 1.425-4.236 1.808v.002l-.003-.001-.001.001h.001l-5.756 1.695v.001h-.002v-.001l-6.94-1.667v.001l6.938 1.667-7.152 1.562v.001h-.003l-.213 3.214-8.224-1.801-9.599 1.244.165-3.226 9.435 1.982h.001l-9.434-1.982h-.002l.166-3.243h-.001l-.166 3.243h-.002l-.165 3.226-.001.001-.165 3.208h.002-.002l-10.613 1.056-11.431-2.353v.001l11.43 2.353-11.535.852h-.001l-12.263-2.573v-.001h.001-.001l-13.048.392.036-3.22h-.001l.037-3.237-.005-.002-.037 3.237.005.002h-.005l-13.641.134v-3.236l-.005-.001v3.236l.005.001h-.005Zm13.646-.134h.004l-.037 3.221-13.61-3.086 13.643-.135Zm13.086-.393-13.079.393h.001l13.078-.393h.006l-.072 3.221.072-3.221v-.001l-.001.001h-.005Zm0-.001.073-3.238h.002l-.072 3.238h-.003Zm12.403-.632-12.396.632.001.001 12.395-.633Zm40.361-4.578h.003-.003Zm-140.901 2.662-9.621-1.246h.001l9.62 1.246Zm-25.497-7.479v.001l.235 3.249-.235-3.25Zm7.41 4.817-7.172-1.565 7.171 1.565Zm-7.178-1.568-6.02-4.95 6.02 4.95ZM216 247.634l-.105 3.222.105-3.222Zm53.306-7.843h.001l4.249-1.813h-.001l-4.25 1.813h.001Zm-178.88 4.931-6.002-4.929-.004-.001 6.005 4.932-5.757-1.696v.001l5.758 1.695 7.37 4.777-.213-3.213.212 3.213-7.37-4.777h.001v-.002Zm72.826 7.159 13.61 3.338-13.61-3.338ZM80.167 237.98l.26 3.237v.001l-.26-3.237v-.001Zm46.233 15.23-.136-3.207 11.672 4.059-11.536-.852Zm150.042-20.405.863-1.994-.271 3.265-.592-1.271Z" fill="url(#i)"/><g filter="url(#j)"><path d="M101.381 56.524c.773-16.616 9.661-29.368 30.528-29.368l74.968-5.024c20.77-1.347 30.016 17.259 29.402 34.237v103.452c0 17.074-8.97 34.28-31.072 32.476l-75.212-4.961c-17.253 0-28.614-11.72-28.614-28.794V56.524Z" fill="#fff" fill-opacity=".35"/><path d="m130.126 185.34-.066-.004h-.065c-8.161 0-14.778-2.762-19.353-7.399-4.579-4.64-7.261-11.309-7.261-19.395V56.572c.379-7.98 2.694-14.793 7.189-19.597 4.47-4.776 11.332-7.82 21.339-7.82h.067l.067-.004 74.963-5.023h.002c9.667-.627 16.527 3.35 20.975 9.431 4.51 6.167 6.592 14.594 6.297 22.738l-.001.036v103.488c0 8.232-2.169 16.31-6.805 22.062-4.562 5.66-11.668 9.273-22.104 8.421l-.016-.002-.015-.001-75.213-4.961Z" stroke="url(#k)" stroke-width="4"/></g><path d="M231.826 33.74c-2.431-3.82-5.697-6.835-8.977-8.938l9.188 1.397c3.916.926 7.459 3.235 10.204 5.786 2.769 2.575 4.615 5.291 5.206 6.89l.021.054.026.052c.884 1.736 2.85 6.436 3.557 11.146.303 3.357.323 6.654.295 7.87l-.001.011v103.575c-.43 10.167-4.499 16.813-8.831 20.943-2.175 2.074-4.424 3.52-6.323 4.453-1.931.949-3.42 1.331-4.073 1.363l-.046.003-.046.006-8.75 1.25c3.74-2.198 7.388-5.554 9.781-10.535 1.457-2.662 2.465-6.126 3.138-9.323.678-3.221 1.033-6.251 1.152-8.074l.002-.032V55.783c.318-3.928-.344-13.663-5.516-22.031l-.007-.012Z" fill="url(#l)" stroke="url(#m)" stroke-width="2"/><path d="m183.076 28.917-.218 4.221.218 4.221v-8.442Zm1.668-7.94-1.668 7.94v8.442l1.668-16.381Zm-1.668 16.382.637 4.063 1.031 3.877-1.668-7.94Zm1.668-16.381-1.031 3.877-.637 4.062 1.668-7.94Zm-1.668 16.381 1.668 7.94 3.157 7.085-4.825-15.025Zm1.668 7.94 1.403 3.665 1.754 3.42-3.157-7.085Zm3.157-31.407-1.754 3.421-1.403 3.665 3.157-7.086Zm4.478-5.972-7.635 13.058-1.668 16.381 9.303-29.439Zm0 0-4.478 5.972-3.157 7.086 7.635-13.058Zm-9.303 29.44 4.825 15.024 10.122 10.525-14.947-25.55Zm9.303-29.44-2.394 2.83-2.084 3.142 4.478-5.972Zm-4.478 44.464 2.084 3.144 2.394 2.828-4.478-5.972Zm4.478-44.464-9.303 29.44 14.947 25.549-5.644-54.989Zm-4.478 44.464 4.478 5.972 5.644 4.553-10.122-10.525Zm4.478 5.972 2.686 2.475 2.958 2.078-5.644-4.553Zm5.644-54.988-2.958 2.077-2.686 2.475 5.644-4.552Z" fill="#C4C4C4"/><path d="m217.727 65.32 2.722-.455 3.544-.593-6.266 1.048Z" fill="#B0B0B0"/><path d="m204.674.594-6.651 2.774-5.644 4.553L204.674.594Z" fill="#C4C4C4"/><path d="m221.298 1.555 2.695.45-3.544-.593.849.143Zm-3.571-.598 3.571.598-.849-.143-2.722-.455Zm3.571 63.765-3.571.598 6.266-1.048-2.695.45Zm0 0 2.695-.45 3.415-1.146-6.11 1.596Z" fill="#B0B0B0"/><path d="m198.022 62.91 3.21 1.633 3.441 1.14-6.651-2.774ZM204.673.593l-3.441 1.14-3.21 1.634 6.651-2.774Z" fill="#C4C4C4"/><path d="m224.742 2.714 2.667.437-3.415-1.146.748.71Zm-3.443-1.16 3.443 1.16-.748-.709-2.695-.45Zm-6.373 64.235 2.802-.469 3.571-.598-6.373 1.067Zm9.816-2.226-3.443 1.16 6.11-1.597-2.667.437Zm0 0 2.667-.437 3.245-1.675-5.912 2.112ZM218.526 1.09l2.773.464-3.571-.598.798.134Z" fill="#B0B0B0"/><path d="m198.022 62.91 6.651 2.773 7.367.588-14.018-3.362Z" fill="#C4C4C4"/><path d="m228.015 4.41 2.639.416-3.245-1.675.606 1.259ZM214.926.488l3.6.603-.798-.134-2.802-.469Z" fill="#B0B0B0"/><path d="M219.169 1.8 204.674.595 192.379 7.92l26.79-6.12Z" fill="#C4C4C4"/><path d="m224.742 2.714 3.273 1.696-.606-1.259-2.667-.437Zm-6.216 62.472-3.6.603 6.373-1.067-2.773.464Zm0 0 2.773-.464 3.443-1.16-6.216 1.624Zm9.489-3.319 2.639-.416 3.032-2.174-5.671 2.59Zm0 0-3.273 1.696 5.912-2.112-2.639.416Zm-6.018-59.603 2.745.45-3.443-1.16.698.71Zm9.077 4.349 2.612.387-3.032-2.175.42 1.788Z" fill="#B0B0B0"/><path d="m204.671 65.683 3.651.594 3.717-.006-7.368-.588ZM212.039.006 208.322 0l-3.651.594 7.368-.588Z" fill="#C4C4C4"/><path d="m218.526 1.091 3.471 1.173-.698-.71-2.773-.463Zm9.489 3.319 3.058 2.203-.419-1.787-2.639-.416Z" fill="#B0B0B0"/><path d="m192.379 7.92 5.644 54.989 39.078-34.582L192.379 7.92Z" fill="#C4C4C4"/><path d="m212.039 66.27 2.884-.481 3.6-.603-6.484 1.085Zm19.032-6.606 2.613-.387 2.775-2.643-5.388 3.03Zm-9.077 4.349-3.471 1.173 6.217-1.623-2.746.45Zm9.077-4.349-3.059 2.203 5.672-2.59-2.613.387Zm-9.077 4.349 2.746-.45 3.272-1.696-6.018 2.146ZM215.667.614l2.856.477-3.6-.603.744.126Zm18.203 8.679 2.589.35L233.684 7l.186 2.293Zm-8.576-5.312 2.718.429-3.272-1.696.554 1.267ZM212.039.006l3.628.608-.744-.126-2.884-.482Zm19.032 6.607 2.799 2.68L233.684 7l-2.613-.387Z" fill="#B0B0B0"/><path d="m198.022 62.91 14.018 3.36 13.567-5.797-27.585 2.436ZM219.168 1.8 212.04.006l-7.367.588L219.168 1.8Z" fill="#C4C4C4"/><path d="m221.994 2.264 3.3 1.718-.554-1.268-2.746-.45Zm11.876 54.72 2.589-.35 2.471-3.076-5.06 3.426Zm-18.203 8.68-3.628.607 6.484-1.085-2.856.477Zm18.203-8.68-2.799 2.68 5.388-3.03-2.589.35Zm-18.203 8.68 2.856-.478 3.471-1.173-6.327 1.65Zm9.627-3.368 2.718-.428 3.059-2.204-5.777 2.632Zm0 0-3.3 1.717 6.018-2.145-2.718.428Zm11.07-49.882 2.566.306-2.471-3.077-.095 2.771ZM219.167 1.801l2.827.463-3.471-1.172.644.709Zm9.212 4.414 2.692.398-3.059-2.203.367 1.805Zm5.491 3.078 2.494 3.121.095-2.771-2.589-.35Zm2.494 44.57 2.566-.305 2.123-3.473-4.689 3.778ZM215.667.614l3.5 1.187-.644-.71-2.856-.477Zm9.627 3.368 3.085 2.233-.367-1.805-2.718-.428Zm11.07 49.881-2.494 3.121 5.06-3.426-2.566.305Zm2.142-37.925 2.547.255-2.123-3.473-.424 3.218Z" fill="#B0B0B0"/><path d="m212.039 66.27 3.628-.607 3.5-1.186-7.128 1.794Zm7.128-64.47-3.5-1.186-3.628-.608 7.128 1.794Z" fill="#C4C4C4"/><path d="m228.381 60.063 2.692-.399 2.799-2.68-5.491 3.078Zm-9.212 4.414-3.5 1.186 6.327-1.65-2.827.464Zm9.212-4.415-3.085 2.234 5.777-2.632-2.692.398Zm-9.212 4.415 2.827-.464 3.3-1.717-6.127 2.18Z" fill="#B0B0B0"/><path d="M237.101 28.328 219.169 1.8l-26.79 6.12 44.722 20.408Z" fill="#C4C4C4"/><path d="m238.508 50.34 2.547-.256 1.726-3.826-4.273 4.081Zm-2.142-37.926 2.142 3.523.424-3.217-2.566-.306Zm-5.161-3.482 2.667.36-2.8-2.68.133 2.32Zm9.046 10.888 2.53.199-1.726-3.826-.804 3.627ZM222.496 3.54l2.8.441-3.3-1.717.5 1.276Zm16.012 46.8-2.142 3.523 4.689-3.779-2.547.255Zm1.743-3.884 2.53-.198 1.287-4.134-3.817 4.332Zm-11.87-40.241 2.824 2.717-.133-2.32-2.691-.397ZM219.168 1.8l3.328 1.74-.5-1.276-2.828-.464Zm22.381 22.216 2.519.136-1.287-4.133-1.232 3.997Zm-3.041-8.079 1.743 3.883.804-3.628-2.547-.255Zm-7.303 41.408 2.667-.36 2.494-3.122-5.161 3.482Zm0 0-2.824 2.717 5.491-3.078-2.667.36Z" fill="#B0B0B0"/><path d="m212.039 66.27 7.128-1.794 6.439-4.003-13.567 5.797Z" fill="#C4C4C4"/><path d="m241.549 42.26 2.519-.135.801-4.391-3.32 4.527Zm-1.298 4.197-1.743 3.883 4.273-4.082-2.53.199Zm2.107-17.983 2.511.07-.801-4.391-1.71 4.32Zm-19.862 34.263 2.8-.441 3.085-2.233-5.885 2.674Zm0 0-3.328 1.74 6.128-2.181-2.8.441ZM233.722 12.1l2.644.315-2.494-3.121-.15 2.806Zm8.636 25.704 2.511-.07.276-4.594-2.787 4.664Zm.279-4.664h2.508l-.276-4.595-2.232 4.595Zm-2.386-13.318 1.298 4.195 1.232-3.997-2.53-.198Z" fill="#B0B0B0"/><path d="m198.022 62.91 27.585-2.437L237.1 28.328l-39.078 34.581Z" fill="#C4C4C4"/><path d="m225.607 5.804 2.774.41-3.085-2.233.311 1.823Zm15.942 36.457-1.299 4.195 3.817-4.331-2.518.136ZM231.205 8.932l2.516 3.167.15-2.806-2.666-.36Zm2.516 45.246 2.644-.315 2.142-3.523-4.786 3.838Zm7.828-30.162.809 4.458 1.709-4.322-2.518-.136Zm.809 13.787-.809 4.458 3.32-4.527-2.511.07ZM222.495 3.54l3.112 2.264-.311-1.823-2.801-.441Zm11.226 50.638-2.516 3.167 5.16-3.482-2.644.315Zm2.162-38.503 2.624.263-2.142-3.524-.482 3.26Zm6.475 12.799.278 4.665 2.233-4.595-2.511-.07Zm.278 4.665-.278 4.664 2.787-4.664h-2.509Zm-17.029 27.334 2.774-.41 2.824-2.718-5.598 3.128Zm0 0-3.112 2.264 5.886-2.675-2.774.411Z" fill="#B0B0B0"/><path d="m219.168 64.477 3.328-1.74 3.111-2.264-6.439 4.004Zm6.439-58.673-3.111-2.264-3.328-1.74 6.439 4.004Z" fill="#C4C4C4"/><path d="m235.883 50.602 2.625-.263 1.743-3.883-4.368 4.146Zm-2.161-38.504 2.161 3.576.483-3.26-2.644-.316Zm-5.265-3.538 2.748.372-2.824-2.718.076 2.346Zm9.186 11.056 2.608.204-1.743-3.883-.865 3.679Zm-1.76 30.986-2.161 3.576 4.786-3.839-2.625.263Zm1.76-3.942 2.608-.204 1.298-4.196-3.906 4.4ZM225.608 5.804l2.849 2.756-.076-2.346-2.773-.41Zm13.345 18.072 2.596.14-1.298-4.196-1.298 4.055Zm-3.07-8.202 1.76 3.942.865-3.679-2.625-.263Zm-7.426 42.042 2.748-.372 2.517-3.166-5.265 3.538Z" fill="#B0B0B0"/><path d="m230.996 11.774-5.389-5.97-6.439-4.004 11.828 9.974Z" fill="#C4C4C4"/><path d="m228.457 57.716-2.849 2.757 5.597-3.128-2.748.371Zm10.496-15.315 2.596-.14.809-4.458-3.405 4.598Zm-1.31 4.26-1.76 3.941 4.368-4.145-2.608.204Zm2.127-18.259 2.588.072-.809-4.457-1.779 4.385Zm-8.774-16.628 2.726.325-2.517-3.166-.209 2.841Zm8.774 26.101 2.588-.072.279-4.664-2.867 4.736Zm.281-4.736h2.586l-.279-4.665-2.307 4.665Zm-2.408-13.523 1.31 4.26 1.298-4.055-2.608-.205Zm1.31 22.785-1.31 4.26 3.906-4.4-2.596.14Zm-10.496-33.84 2.539 3.213.209-2.841-2.748-.372Zm2.539 45.942 2.726-.325 2.161-3.575-4.887 3.9Zm7.957-30.627.817 4.526 1.779-4.386-2.596-.14Zm.817 14-.817 4.525 3.405-4.598-2.588.072Zm-8.774 16.627-2.539 3.213 5.265-3.538-2.726.325Zm2.181-39.099 2.706.27-2.161-3.575-.545 3.305Zm6.593 12.998.281 4.737 2.307-4.665-2.588-.072Zm.281 4.737-.281 4.736 2.867-4.736h-2.586Z" fill="#B0B0B0"/><path d="m225.607 60.473 2.85-2.757 2.539-3.213-5.389 5.97Zm5.389-48.699-2.539-3.213-2.85-2.757 5.389 5.97Zm6.104 16.554-6.104-16.554L219.168 1.8 237.1 28.328Z" fill="#C4C4C4"/><path d="m233.18 50.873 2.706-.27 1.759-3.942-4.465 4.212Zm-2.182-39.1 2.182 3.63.544-3.304-2.726-.325Zm3.957 7.633 2.69.21-1.759-3.941-.931 3.73Zm-1.775 31.467-2.182 3.63 4.888-3.9-2.706.27Z" fill="#B0B0B0"/><path d="m225.608 60.473 5.388-5.97 3.957-7.631-9.345 13.601Z" fill="#C4C4C4"/><path d="m234.953 46.871 2.689-.21 1.311-4.26-4 4.47Zm1.322-23.14 2.678.145-1.311-4.26-1.367 4.115Zm-3.098-8.327 1.776 4.002.93-3.731-2.706-.271Zm3.098 27.142 2.678-.145.817-4.526-3.495 4.67Zm-1.322 4.325-1.776 4.002 4.465-4.212-2.689.21Zm2.147-18.543 2.67.074-.817-4.526-1.853 4.452Z" fill="#B0B0B0"/><path d="m225.608 60.473 9.345-13.602 2.147-18.543-11.492 32.145Z" fill="#C4C4C4"/><path d="m237.101 37.95 2.669-.075.281-4.736-2.95 4.81Zm.284-4.812h2.666l-.281-4.736-2.385 4.736Z" fill="#B0B0B0"/><path d="m230.998 54.503 2.182-3.63 1.775-4.002-3.957 7.632Zm3.957-35.097-1.775-4.002-2.182-3.63 3.957 7.632Z" fill="#C4C4C4"/><path d="m234.953 19.406 1.323 4.325 1.367-4.115-2.69-.21Zm1.323 23.14-1.323 4.325 4-4.47-2.677.145Zm0-18.815.825 4.597 1.852-4.452-2.677-.145Z" fill="#B0B0B0"/><path d="m237.103 28.328-2.148-8.922-3.957-7.632 6.105 16.554Z" fill="#C4C4C4"/><path d="m237.102 37.95-.824 4.596 3.494-4.67-2.67.073Zm0-9.622.284 4.81 2.386-4.736-2.67-.074Zm.284 4.81-.284 4.811 2.951-4.81h-2.667Z" fill="#B0B0B0"/><path d="m234.953 46.871 1.323-4.325.825-4.597-2.148 8.922Zm2.148-18.543-.825-4.597-1.323-4.325 2.148 8.922Zm-2.148 18.543 2.148-8.922v-9.621l-2.148 18.543Zm2.148-8.922.283-4.81-.283-4.811v9.621Z" fill="#C4C4C4"/><path d="M237.144 33.256c0 18.186-12.115 32.755-26.866 32.755s-26.866-14.57-26.866-32.755C183.412 15.07 195.527.5 210.278.5s26.866 14.57 26.866 32.756Z" fill="url(#n)" stroke="url(#o)"/><g filter="url(#p)"><path d="m203.6 28.441 3.075.063 3.17-2.787-6.245 2.724Zm3.196-2.82-3.196 2.82 6.245-2.724-3.049-.097Z" fill="#E5E5E5"/><path d="m201.348 24.395 2.251 4.046 3.195-2.821-5.446-1.225Z" fill="#fff"/><path d="m211.112 48.872 3.014-.185v-30.03l-3.014 30.215Z" fill="#E5E5E5"/><path d="m211.112 18.473-9.763 5.922 5.446 1.225 4.317-7.147Zm0 0-3.12.062-6.643 5.86 9.763-5.922Z" fill="#fff"/><path d="M211.112 18.473V48.87l3.014-30.214-3.014-.184Z" fill="#E5E5E5"/><path fill-rule="evenodd" clip-rule="evenodd" d="M211.112 48.871V18.473l3.014.184-3.014 30.214Zm0 0 3.014-.184v-30.03l-3.014 30.215Zm-7.512-20.43 3.075.063 3.17-2.787-3.049-.097-3.196 2.821Z" fill="url(#q)"/><path d="M206.796 25.62v23.165l4.316-30.312-4.316 7.147Zm0 23.165 4.316.086V18.473l-4.316 30.313Z" fill="#fff"/></g><path d="m213.048.235-1.335-.211c.45.061.895.131 1.335.211l11.198 1.77c1.881.474 6.522 2.214 10.037 5.384 3.515 3.17 6.174 7.437 7.064 9.175l1.938 4.307c1.019 3.26 2.8 11.027 1.766 16.023-.62 5.03-2.498 9.993-3.36 11.845-1.077 2.598-4.66 8.683-10.38 12.232-3.015 2.541-9.39 4.049-14.731 4.609.661-.172 2.119-.586 2.671-.861.689-.345 19.794-8.675 18.097-34.44-1.327-16.027-10.467-27.545-24.3-30.044Z" fill="url(#r)"/><path d="M139.936 77.27v.5h59.025v-.5.5c1.081 0 2.066 1.025 2.066 2.432v77.205c0 1.408-.985 2.432-2.066 2.432v.5-.5h-59.025v.5-.5c-1.081 0-2.066-1.024-2.066-2.432V80.202c0-1.407.985-2.431 2.066-2.431v-.5Z" fill="url(#s)" stroke="url(#t)"/><path d="M130.527 80.202v77.205h6.844V80.202h-6.844Z" fill="url(#u)"/><path d="M130.527 80.202c0-1.619 1.149-2.931 2.567-2.931h6.843c-1.417 0-2.566 1.312-2.566 2.931h-6.844Z" fill="url(#v)"/><path d="M130.527 157.407c0 1.619 1.149 2.932 2.567 2.932h6.843c-1.417 0-2.566-1.313-2.566-2.932h-6.844Z" fill="url(#w)"/><rect x="131.027" y="77.77" width="63.098" height="82.068" rx="2.5" fill="url(#x)" stroke="url(#y)"/><path d="M161.972 117.673a3.715 3.715 0 0 0-2.65-1.116H148.08c-.994 0-1.947.401-2.649 1.116a3.844 3.844 0 0 0-1.098 2.695c0 1.011.395 1.98 1.098 2.695a3.712 3.712 0 0 0 2.649 1.117h11.242c.994 0 1.947-.402 2.65-1.117a3.843 3.843 0 0 0 1.097-2.695c0-1.011-.394-1.98-1.097-2.695Zm18.736-15.245a3.842 3.842 0 0 1 1.098 2.695c0 1.011-.395 1.98-1.098 2.695a3.715 3.715 0 0 1-2.649 1.116H148.08a3.711 3.711 0 0 1-2.649-1.116 3.844 3.844 0 0 1-1.098-2.695c0-1.011.395-1.981 1.098-2.695a3.712 3.712 0 0 1 2.649-1.117h29.979c.993 0 1.946.402 2.649 1.117Zm-2.649-8.739H148.08a3.712 3.712 0 0 1-2.649-1.117 3.844 3.844 0 0 1-1.098-2.695c0-1.01.395-1.98 1.098-2.695a3.713 3.713 0 0 1 2.649-1.116h29.979c.993 0 1.946.401 2.649 1.116a3.844 3.844 0 0 1 1.098 2.695c0 1.011-.395 1.98-1.098 2.695a3.716 3.716 0 0 1-2.649 1.117Z" fill="#C1BDBD"/><path d="M140.389 120.368c0 1.011.394 1.98 1.097 2.695h3.945a3.844 3.844 0 0 1-1.098-2.695h-3.944Zm1.097-2.695a3.845 3.845 0 0 0-1.097 2.695h3.944c0-1.01.395-1.98 1.098-2.695h-3.945Zm0-9.855a3.845 3.845 0 0 1-1.097-2.695h3.944c0 1.01.395 1.98 1.098 2.695h-3.945Zm-1.097-2.695c0-1.011.394-1.98 1.097-2.695h3.945a3.844 3.844 0 0 0-1.098 2.695h-3.944Zm1.097-12.55a3.843 3.843 0 0 1-1.097-2.696h3.944c0 1.011.395 1.98 1.098 2.696h-3.945Zm-1.097-2.696c0-1.01.394-1.98 1.097-2.695h3.945a3.844 3.844 0 0 0-1.098 2.695h-3.944Zm1.097 33.186a3.715 3.715 0 0 0 2.65 1.116h3.945a3.715 3.715 0 0 1-2.65-1.116h-3.945Zm2.65-6.506c-.994 0-1.947.401-2.65 1.116h3.945a3.715 3.715 0 0 1 2.65-1.116h-3.945Zm0-7.623a3.715 3.715 0 0 1-2.65-1.116h3.945a3.715 3.715 0 0 0 2.65 1.116h-3.945Zm-2.65-6.506a3.715 3.715 0 0 1 2.65-1.116h3.945c-.994 0-1.947.401-2.65 1.116h-3.945Z" fill="#EDF6F9"/><path d="M144.136 93.689a3.717 3.717 0 0 1-2.65-1.117h3.945a3.717 3.717 0 0 0 2.65 1.117h-3.945Zm-2.65-6.507a3.717 3.717 0 0 1 2.65-1.116h3.945c-.994 0-1.947.401-2.65 1.116h-3.945Zm13.891 36.997c.994 0 1.947-.401 2.65-1.116h3.944a3.715 3.715 0 0 1-2.65 1.116h-3.944Zm2.65-6.506a3.715 3.715 0 0 0-2.65-1.116h3.944c.994 0 1.947.401 2.65 1.116h-3.944Zm0 5.39a3.844 3.844 0 0 0 1.098-2.695h3.944c0 1.011-.395 1.98-1.097 2.695h-3.945Zm1.098-2.695c0-1.01-.395-1.98-1.098-2.695h3.945a3.85 3.85 0 0 1 1.097 2.695h-3.944Zm14.988-34.302c.994 0 1.947.401 2.65 1.116h3.945a3.717 3.717 0 0 0-2.65-1.116h-3.945Zm2.65 6.506a3.717 3.717 0 0 1-2.65 1.117h3.945c.994 0 1.947-.402 2.65-1.117h-3.945Zm0 15.246a3.715 3.715 0 0 1-2.65 1.116h3.945c.994 0 1.947-.401 2.65-1.116h-3.945Zm-2.65-6.506c.994 0 1.947.401 2.65 1.116h3.945a3.715 3.715 0 0 0-2.65-1.116h-3.945Zm2.65-14.13a3.844 3.844 0 0 1 1.098 2.695h3.944c0-1.01-.394-1.98-1.097-2.695h-3.945Z" fill="#EDF6F9"/><path d="M177.861 89.877c0 1.011-.395 1.98-1.098 2.696h3.945a3.843 3.843 0 0 0 1.097-2.696h-3.944Zm0 15.246c0 1.01-.395 1.98-1.098 2.695h3.945a3.845 3.845 0 0 0 1.097-2.695h-3.944Zm-1.098-2.695a3.844 3.844 0 0 1 1.098 2.695h3.944c0-1.011-.394-1.98-1.097-2.695h-3.945Z" fill="#EDF6F9"/><path d="M158.027 117.673a3.713 3.713 0 0 0-2.649-1.116h-11.242c-.994 0-1.947.401-2.65 1.116a3.843 3.843 0 0 0-1.097 2.695c0 1.011.394 1.98 1.097 2.695a3.716 3.716 0 0 0 2.65 1.117h11.242c.993 0 1.947-.402 2.649-1.117a3.844 3.844 0 0 0 1.098-2.695c0-1.011-.395-1.98-1.098-2.695Zm18.737-15.245a3.841 3.841 0 0 1 1.097 2.695c0 1.011-.394 1.98-1.097 2.695a3.715 3.715 0 0 1-2.65 1.116h-29.978a3.715 3.715 0 0 1-2.65-1.116 3.843 3.843 0 0 1-1.097-2.695c0-1.011.394-1.981 1.097-2.695a3.716 3.716 0 0 1 2.65-1.117h29.978c.994 0 1.947.402 2.65 1.117Zm-2.65-8.739h-29.978a3.716 3.716 0 0 1-2.65-1.117 3.843 3.843 0 0 1-1.097-2.695c0-1.01.394-1.98 1.097-2.695a3.717 3.717 0 0 1 2.65-1.116h29.978c.994 0 1.947.401 2.65 1.116a3.843 3.843 0 0 1 1.097 2.695c0 1.011-.394 1.98-1.097 2.695a3.716 3.716 0 0 1-2.65 1.117Z" fill="#fff"/><path d="M171.407 150.067a10.076 10.076 0 0 0 4.482 1.042c1.614 0 3.138-.376 4.482-1.042m-8.964 0c-3.193-1.582-5.379-4.801-5.379-8.514 0-5.277 4.415-9.555 9.861-9.555 5.446 0 9.861 4.278 9.861 9.555 0 3.713-2.186 6.932-5.379 8.514m-8.964 0v12.804c0 .061.049.098.099.098a.095.095 0 0 0 .087-.053l4.209-8.008a.1.1 0 0 1 .175 0l4.208 8.008c.02.037.053.053.087.053.05 0 .099-.037.099-.098v-12.804" stroke="#fff" stroke-width="5" stroke-linecap="round"/><path d="M163.069 141.553c0 3.66 2.124 6.839 5.242 8.445a.64.64 0 0 0 .291.069c.694 0 1.011-1.112.5-1.582-1.894-1.741-3.074-4.203-3.074-6.932h-2.959Zm0 0c0-5.277 4.415-9.555 9.862-9.555h2.958c-5.446 0-9.861 4.278-9.861 9.555h-2.959Zm5.378 21.218v-11.704a1 1 0 0 1 1-1h.958a1 1 0 0 1 1 1v11.704a.1.1 0 0 1-.1.1h-2.758a.1.1 0 0 1-.1-.1Zm.1.198a.102.102 0 0 1-.054-.015c-.047-.028-.001-.083.054-.083h2.758c.056 0 .099.055.147.083.016.01.034.015.053.015h-2.958Z" stroke="#E5F2F6" stroke-width="5" stroke-linecap="round" stroke-linejoin="round"/><path d="M168.547 162.969a.103.103 0 0 0 .045-.011c.033-.017.065-.042.102-.042h2.791c.049 0 .069.053.02.053v0h-2.958Zm2.554-12.024c.592.108 1.204.164 1.828.164h2.959a10.08 10.08 0 0 1-4.344-.975.69.69 0 0 0-.292-.067c-.695 0-.834.754-.151.878Zm1.715 4.016-4.103 7.809a.1.1 0 0 0 .088.146h2.733c.037 0 .071-.02.088-.053l4.104-7.809a.1.1 0 0 0-.089-.146h-2.732a.101.101 0 0 0-.089.053Z" stroke="#E5F2F6" stroke-width="5" stroke-linecap="round" stroke-linejoin="round"/><path d="M175.888 154.855h-2.958c-.049 0-.029.053.019.053h2.791c.037 0 .07-.026.103-.042a.1.1 0 0 1 .045-.011Z" stroke="#E5F2F6" stroke-width="5" stroke-linecap="round" stroke-linejoin="round"/><path d="M172.931 154.855c.015 0 .031.004.045.011.033.016.065.042.103.042h2.79c.049 0 .069-.053.02-.053v0h-2.958Z" stroke="#E5F2F6" stroke-width="5" stroke-linecap="round" stroke-linejoin="round"/><path d="m177.2 162.863-4.104-7.809a.1.1 0 0 1 .089-.146h2.732c.037 0 .071.02.089.053l4.104 7.809a.1.1 0 0 1-.089.146h-2.732a.099.099 0 0 1-.089-.053Zm-4.269-11.754c1.559 0 3.033-.351 4.344-.975a.686.686 0 0 1 .292-.067c.694 0 .833.754.15.878a10.18 10.18 0 0 1-1.828.164h-2.958Z" stroke="#E5F2F6" stroke-width="5" stroke-linecap="round" stroke-linejoin="round"/><path d="M180.27 162.969h-2.958c-.048 0-.028-.053.02-.053h2.792c.037 0 .069.025.102.042a.099.099 0 0 0 .044.011Z" stroke="#E5F2F6" stroke-width="5" stroke-linecap="round" stroke-linejoin="round"/><path d="M177.314 162.969a.102.102 0 0 0 .054-.015c.047-.028.091-.083.146-.083h2.759c.055 0 .1.055.053.083a.101.101 0 0 1-.053.015h-2.959Zm.101-11.902v11.704a.1.1 0 0 0 .1.1h2.758a.1.1 0 0 0 .1-.1v-11.704a1 1 0 0 0-1-1h-.958a1 1 0 0 0-1 1Zm5.377-9.514c0-5.277-4.415-9.555-9.861-9.555h2.958c5.446 0 9.861 4.278 9.861 9.555h-2.958Zm-3.072 6.932c1.893-1.741 3.073-4.203 3.073-6.932h2.959c0 3.66-2.124 6.839-5.242 8.445a.64.64 0 0 1-.291.069c-.694 0-1.01-1.112-.499-1.582Z" stroke="#E5F2F6" stroke-width="5" stroke-linecap="round" stroke-linejoin="round"/><path d="M168.448 150.067a10.08 10.08 0 0 0 4.483 1.042c1.614 0 3.137-.376 4.482-1.042m-8.965 0c-3.193-1.582-5.379-4.801-5.379-8.514 0-5.277 4.415-9.555 9.862-9.555 5.446 0 9.861 4.278 9.861 9.555 0 3.713-2.186 6.932-5.379 8.514m-8.965 0v12.798c0 .104.14.139.189.047l4.205-8.002a.1.1 0 0 1 .177 0l4.206 8.002c.048.092.188.057.188-.047v-12.798" stroke="#fff" stroke-width="5" stroke-linecap="round"/><defs><linearGradient id="d" x1="176.864" y1="216.184" x2="176.864" y2="245.717" gradientUnits="userSpaceOnUse"><stop stop-color="#fff"/><stop offset="1" stop-color="#F2FCFF"/></linearGradient><linearGradient id="e" x1="176.864" y1="216.184" x2="176.864" y2="245.717" gradientUnits="userSpaceOnUse"><stop stop-color="#EBFAFF"/><stop offset="1" stop-color="#fff"/></linearGradient><linearGradient id="h" x1="176.864" y1="242.574" x2="176.864" y2="286.043" gradientUnits="userSpaceOnUse"><stop stop-color="#fff"/><stop offset="1" stop-color="#EBFAFF"/></linearGradient><linearGradient id="i" x1="387.173" y1="249.336" x2="78.891" y2="249.336" gradientUnits="userSpaceOnUse"><stop stop-color="#CED2EF"/><stop offset=".504" stop-color="#CED2EF" stop-opacity="0"/></linearGradient><linearGradient id="k" x1="212.117" y1="-19.965" x2="136.833" y2="168.536" gradientUnits="userSpaceOnUse"><stop stop-color="#DEE5F8"/><stop offset="1" stop-color="#fff"/></linearGradient><linearGradient id="l" x1="244.974" y1="-19.629" x2="139.693" y2="60.959" gradientUnits="userSpaceOnUse"><stop stop-color="#DEE5F8"/><stop offset="1" stop-color="#fff"/></linearGradient><linearGradient id="m" x1="252.355" y1="-46.069" x2="91.602" y2="49.589" gradientUnits="userSpaceOnUse"><stop stop-color="#fff"/><stop offset="1" stop-color="#EBF0FF"/></linearGradient><linearGradient id="n" x1="210.278" y1="0" x2="222.536" y2="67.93" gradientUnits="userSpaceOnUse"><stop stop-color="#DEE5F8"/><stop offset="1" stop-color="#BDBEE3"/></linearGradient><linearGradient id="o" x1="220.605" y1="53.368" x2="177.411" y2="2.099" gradientUnits="userSpaceOnUse"><stop stop-color="#fff" stop-opacity=".7"/><stop offset="1" stop-color="#A0A3CF"/></linearGradient><linearGradient id="q" x1="210.371" y1="1.58" x2="211.539" y2="51.15" gradientUnits="userSpaceOnUse"><stop stop-color="#F0E3FA"/><stop offset="1" stop-color="#EFEDF0"/></linearGradient><linearGradient id="r" x1="262.082" y1="27.416" x2="195.215" y2="39.292" gradientUnits="userSpaceOnUse"><stop stop-color="#BDBEE3"/><stop offset="1" stop-color="#DEE5F8"/></linearGradient><linearGradient id="s" x1="169.449" y1="77.27" x2="169.449" y2="160.339" gradientUnits="userSpaceOnUse"><stop stop-color="#DBE2F6"/><stop offset="1" stop-color="#C6C9E9"/></linearGradient><linearGradient id="t" x1="169.449" y1="77.27" x2="169.449" y2="160.339" gradientUnits="userSpaceOnUse"><stop stop-color="#C8CAE5"/><stop offset="1" stop-color="#ADB1D9"/></linearGradient><linearGradient id="u" x1="166.028" y1="77.27" x2="166.028" y2="160.339" gradientUnits="userSpaceOnUse"><stop stop-color="#DBE1F6"/><stop offset="1" stop-color="#C5C8E9"/></linearGradient><linearGradient id="v" x1="166.028" y1="77.27" x2="166.028" y2="160.339" gradientUnits="userSpaceOnUse"><stop stop-color="#DBE1F6"/><stop offset="1" stop-color="#C5C8E9"/></linearGradient><linearGradient id="w" x1="166.028" y1="77.27" x2="166.028" y2="160.339" gradientUnits="userSpaceOnUse"><stop stop-color="#DBE1F6"/><stop offset="1" stop-color="#C5C8E9"/></linearGradient><linearGradient id="x" x1="131.809" y1="79.714" x2="185.951" y2="173.031" gradientUnits="userSpaceOnUse"><stop stop-color="#DDE3F7"/><stop offset="1" stop-color="#C2C5E7"/></linearGradient><linearGradient id="y" x1="146.338" y1="74.339" x2="174.346" y2="174.233" gradientUnits="userSpaceOnUse"><stop stop-color="#BDC0DF"/><stop offset=".862" stop-color="#EBEDF6"/></linearGradient><filter id="a" x=".633" y="231.877" width="352.474" height="52.113" filterUnits="userSpaceOnUse" color-interpolation-filters="sRGB"><feFlood flood-opacity="0" result="BackgroundImageFix"/><feBlend in="SourceGraphic" in2="BackgroundImageFix" result="shape"/><feGaussianBlur stdDeviation="4" result="effect1_foregroundBlur_1301_332088"/></filter><filter id="f" x="92.959" y="212.516" width="161.337" height="39.907" filterUnits="userSpaceOnUse" color-interpolation-filters="sRGB"><feFlood flood-opacity="0" result="BackgroundImageFix"/><feBlend in="SourceGraphic" in2="BackgroundImageFix" result="shape"/><feGaussianBlur stdDeviation="5" result="effect1_foregroundBlur_1301_332088"/></filter><filter id="j" x="91.381" y="12.063" width="154.926" height="190.365" filterUnits="userSpaceOnUse" color-interpolation-filters="sRGB"><feFlood flood-opacity="0" result="BackgroundImageFix"/><feGaussianBlur in="BackgroundImageFix" stdDeviation="5"/><feComposite in2="SourceAlpha" operator="in" result="effect1_backgroundBlur_1301_332088"/><feBlend in="SourceGraphic" in2="effect1_backgroundBlur_1301_332088" result="shape"/></filter><filter id="p" x="196.348" y="10.473" width="32.778" height="50.399" filterUnits="userSpaceOnUse" color-interpolation-filters="sRGB"><feFlood flood-opacity="0" result="BackgroundImageFix"/><feColorMatrix in="SourceAlpha" values="0 0 0 0 0 0 0 0 0 0 0 0 0 0 0 0 0 0 127 0" result="hardAlpha"/><feOffset dx="5" dy="2"/><feGaussianBlur stdDeviation="5"/><feColorMatrix values="0 0 0 0 0.32339 0 0 0 0 0.157604 0 0 0 0 0.425 0 0 0 0.3 0"/><feBlend in2="BackgroundImageFix" result="effect1_dropShadow_1301_332088"/><feBlend in="SourceGraphic" in2="effect1_dropShadow_1301_332088" result="shape"/></filter><radialGradient id="b" cx="0" cy="0" r="1" gradientUnits="userSpaceOnUse" gradientTransform="matrix(0 18.0563 -168.237 0 176.87 257.934)"><stop stop-color="#502F96"/><stop offset="1" stop-color="#C4C4C4" stop-opacity="0"/></radialGradient><radialGradient id="c" cx="0" cy="0" r="1" gradientUnits="userSpaceOnUse" gradientTransform="scale(164.518 118.368) rotate(90 -.485 1.51)"><stop stop-color="#7E32A2"/><stop offset="1" stop-color="#fff" stop-opacity="0"/></radialGradient><radialGradient id="g" cx="0" cy="0" r="1" gradientUnits="userSpaceOnUse" gradientTransform="matrix(0 8.69781 -70.8338 0 173.628 232.469)"><stop stop-color="#3D74B5"/><stop offset="1" stop-color="#C4C4C4" stop-opacity="0"/></radialGradient></defs></svg>