<svg width="353" height="355" fill="none" xmlns="http://www.w3.org/2000/svg"><ellipse cx="168.411" cy="236.148" rx="164.518" ry="118.368" fill="url(#a)" fill-opacity=".1"/><g filter="url(#b)"><ellipse cx="176.763" cy="257.934" rx="168.237" ry="18.056" fill="url(#c)" fill-opacity=".5"/></g><path d="m77.921 250.139.262 3.162.847 1.968-1.109-5.13Zm196.828 1.972-.26 3.158.847-1.968-.587-1.19Zm-195.979 0 .26 3.158 2.574 1.891-2.834-5.049Zm193.398 1.894-.253 3.155 2.574-1.891-2.321-1.264Zm3.43-3.866-.849 1.972.587 1.19.262-3.162Zm-194.247 3.866.253 3.155 4.185 1.794-4.438-4.949Zm-2.58-1.894-.85-1.972 1.11 5.13-.26-3.158Zm189.201 3.692-.242 3.151 4.185-1.794-3.943-1.357Zm6.777-3.692-2.581 1.894 2.321 1.264.26-3.158Zm-189.202 3.692.242 3.151 5.682 1.681-5.924-4.832Zm-4.196-1.798-2.58-1.894 2.833 5.049-.253-3.155Zm180.924 3.481-.227 3.149 5.682-1.681-5.455-1.468Zm9.893-3.481-4.196 1.798 3.943 1.357.253-3.155Zm-180.924 3.481.227 3.149 7.062 1.549-7.29-4.698Zm-5.697-1.683-4.196-1.798 4.438 4.949-.242-3.151Zm169.647 3.235-.208 3.146 7.062-1.549-6.854-1.597Zm-156.87 0 .21 3.146 8.325 1.4-8.534-4.546Zm169.648-3.235-5.697 1.683 5.455 1.468.242-3.151Zm-21.126 4.638-.186 3.143 8.326-1.4-8.14-1.743Zm-155.602-2.955-5.697-1.683 5.924 4.832-.227-3.149ZM77.658 246.96l.263 3.179.85 1.972-1.113-5.151Zm29.015 13.481.186 3.143 9.474 1.233-9.66-4.376Zm168.337-11.505-.261 3.175.849-1.972-.588-1.203Zm-12.735 8.55-7.081 1.552 6.854 1.597.227-3.149Zm-24.928 4.19-.161 3.141 9.474-1.233-9.313-1.908Zm-139.022-2.638-7.081-1.552 7.29 4.698-.21-3.146Zm17.847 2.638.161 3.141 10.502 1.049-10.663-4.19Zm110.645 1.051-.133 3.139 10.502-1.049-10.369-2.09ZM78.509 248.936l.261 3.175 2.58 1.894-2.84-5.069Zm176.685 10.102-8.348 1.403 8.14 1.743.208-3.146Zm-128.492 3.689.133 3.139 11.413.846-11.546-3.985Zm145.721-11.893-.255 3.171 2.581-1.894-2.326-1.277Zm-165.75 9.607-8.348-1.403 8.534 4.546-.186-3.143Zm108.7 3.134-.102 3.137 11.413-.846-11.311-2.291Zm-77.227 0 .102 3.137 12.205.626-12.307-3.763Zm137.716-16.615-.852 1.976.588 1.203.264-3.179Zm-72.726 17.242-.07 3.136 12.205-.626-12.135-2.51Zm43.71-3.761-9.499 1.235 9.313 1.908.186-3.143Zm-96.463 3.761.07 3.136 12.878.389-12.948-3.525Zm-69.287-13.368.255 3.171 4.196 1.798-4.45-4.969Zm109.128 13.757-.035 3.136 12.877-.389-12.842-2.747ZM78.509 248.936l-.851-1.976 1.112 5.151-.26-3.175Zm37.663 12.74-9.499-1.235 9.66 4.376-.161-3.141Zm47.123 2.915.036 3.136 13.429.133-13.465-3.269Zm13.465.134v3.135l13.429-.133-13.429-3.002Zm91.455-12.091-.243 3.169 4.196-1.798-3.953-1.371Zm-30.868 9.042-10.53 1.051 10.369 2.09.161-3.141Zm-110.645 1.051-10.53-1.051 10.663 4.19-.133-3.139Zm148.308-13.791-2.587 1.898 2.326 1.277.261-3.175Zm-189.706 3.698.243 3.169 5.697 1.683-5.94-4.852Zm141.513 10.093-11.444.848 11.311 2.291.133-3.139Zm-145.72-11.893-2.588-1.898 2.842 5.069-.255-3.171Zm57.049 12.741-11.444-.848 11.546 3.985-.102-3.137Zm124.358-9.254-.229 3.165 5.697-1.683-5.468-1.482Zm-47.131 9.254-12.237.627 12.135 2.51.102-3.137Zm-64.99.627-12.237-.627 12.307 3.763-.07-3.136Zm52.753 0-12.912.389 12.842 2.747.07-3.136Zm69.287-13.368-4.208 1.8 3.953 1.371.255-3.171Zm-109.128 13.757-12.912-.389 12.948 3.525-.036-3.136Zm-72.28-10.27.229 3.165 7.08 1.552-7.308-4.717Zm99.209 10.27-13.464.134 13.429 3.002.035-3.136Zm-13.464.134-13.465-.134 13.465 3.269v-3.135Zm-91.456-12.091-4.208-1.8 4.451 4.969-.243-3.169Zm170.1 3.242-.21 3.162 7.081-1.552-6.871-1.61Zm-157.289 0 .21 3.162 8.348 1.403-8.558-4.565Zm170.1-3.242-5.711 1.687 5.468 1.482.243-3.169Zm-21.182 4.647-.187 3.16 8.348-1.403-8.161-1.757Zm-156.017-2.96-5.712-1.687 5.94 4.852-.228-3.165Zm-13.623-10.556.265 3.195.851 1.976-1.116-5.171Zm29.093 13.516.187 3.16 9.499 1.235-9.686-4.395Zm168.787-11.537-.263 3.192.852-1.976-.589-1.216Zm-12.769 8.577-7.1 1.555 6.871 1.61.229-3.165Zm-24.995 4.198-.162 3.157 9.499-1.235-9.337-1.922Zm-139.394-2.643-7.1-1.555 7.31 4.717-.21-3.162Zm17.895 2.643.162 3.157 10.53 1.051-10.692-4.208Zm110.941 1.052-.134 3.156 10.53-1.051-10.396-2.105ZM78.247 245.744l.262 3.192 2.587 1.898-2.85-5.09Zm177.157 10.132-8.371 1.405 8.161 1.757.21-3.162Zm-128.836 3.695.134 3.156 11.444.848-11.578-4.004Zm146.111-11.926-.256 3.189 2.587-1.898-2.331-1.291Zm-166.193 9.636-8.37-1.405 8.557 4.565-.187-3.16Zm108.991 3.139-.104 3.155 11.444-.848-11.34-2.307Zm-77.435 0 .104 3.155 12.237.627-12.341-3.782Zm138.084-16.655-.853 1.979.589 1.216.264-3.195Zm-72.92 17.284-.07 3.153 12.237-.627-12.167-2.526Zm43.827-3.768-9.524 1.238 9.337 1.922.187-3.16Zm-96.72 3.768.07 3.153 12.912.389-12.982-3.542ZM80.84 247.645l.256 3.189 4.208 1.8-4.464-4.989Zm109.42 13.794-.036 3.152 12.912-.389-12.876-2.763ZM78.247 245.744l-.854-1.979 1.116 5.171-.263-3.192Zm37.763 12.775-9.524-1.238 9.686 4.395-.162-3.157Zm47.249 2.92.036 3.152 13.465.134-13.501-3.286Zm13.501.134v3.152l13.464-.134-13.464-3.018Zm91.7-12.124-.245 3.185 4.208-1.8-3.963-1.385Zm-30.951 9.07-10.558 1.052 10.396 2.105.162-3.157Zm-110.941 1.052-10.558-1.052 10.692 4.208-.134-3.156Zm148.705-13.827-2.594 1.901 2.331 1.291.263-3.192Zm-190.214 3.705.245 3.185 5.712 1.687-5.957-4.872Zm141.892 10.122-11.474.849 11.34 2.307.134-3.156Zm-146.11-11.926-2.594-1.901 2.85 5.09-.257-3.189Zm57.201 12.775-11.474-.849 11.578 4.004-.104-3.155Zm124.691-9.281-.229 3.182 5.711-1.687-5.482-1.495Zm-47.256 9.281-12.271.629 12.167 2.526.104-3.155Zm-65.164.629-12.271-.629 12.341 3.782-.07-3.153Zm52.893 0-12.946.39 12.876 2.763.07-3.153Zm69.473-13.404-4.219 1.804 3.963 1.385.256-3.189Zm-109.42 13.794-12.946-.39 12.982 3.542-.036-3.152Zm-72.473-10.3.23 3.182 7.1 1.555-7.33-4.737Zm99.474 10.3-13.5.134 13.464 3.018.036-3.152Zm-13.5.134-13.501-.134 13.501 3.286v-3.152Zm-91.701-12.124-4.219-1.804 4.464 4.989-.245-3.185Zm170.556 3.247-.211 3.18 7.1-1.555-6.889-1.625Zm-157.71 0 .21 3.18 8.371 1.405-8.581-4.585Zm170.555-3.247-5.727 1.69 5.482 1.495.245-3.185Zm-21.238 4.655-.189 3.177 8.371-1.405-8.182-1.772Zm-156.436-2.965-5.727-1.69 5.957 4.872-.23-3.182Zm-13.66-10.587.267 3.213.853 1.979-1.12-5.192Zm29.172 13.552.188 3.177 9.524 1.238-9.712-4.415Zm169.239-11.569-.264 3.209.853-1.979-.589-1.23Zm-12.804 8.604-7.118 1.557 6.889 1.625.229-3.182Zm-25.061 4.205-.163 3.175 9.524-1.238-9.361-1.937Zm-139.767-2.648-7.12-1.557 7.33 4.737-.21-3.18Zm17.942 2.648.163 3.175 10.558 1.052-10.721-4.227Zm111.238 1.054-.134 3.173 10.558-1.052-10.424-2.121ZM77.982 242.535l.264 3.209 2.594 1.901-2.858-5.11Zm177.633 10.161-8.393 1.408 8.182 1.772.211-3.18Zm-129.181 3.702.134 3.173 11.474.849-11.608-4.022Zm146.502-11.959-.257 3.206 2.594-1.901-2.337-1.305Zm-166.638 9.665-8.393-1.408 8.581 4.585-.188-3.177Zm109.282 3.145-.103 3.171 11.474-.849-11.371-2.322Zm-77.641 0 .103 3.171 12.271.629-12.374-3.8Zm138.454-16.697-.856 1.983.589 1.23.267-3.213Zm-73.116 17.327-.071 3.17 12.271-.629-12.2-2.541Zm43.945-3.775-9.55 1.24 9.361 1.937.189-3.177Zm-96.98 3.775.071 3.17 12.946.39-13.017-3.56Zm-69.659-13.44.257 3.206 4.219 1.804-4.476-5.01Zm109.714 13.831-.037 3.169 12.946-.39-12.909-2.779ZM77.982 242.535l-.855-1.983 1.12 5.192-.265-3.209Zm37.865 12.809-9.549-1.24 9.712 4.415-.163-3.175Zm47.375 2.926.037 3.169 13.501.134-13.538-3.303Zm13.538.134v3.169l13.5-.134-13.5-3.035Zm91.946-12.157-.246 3.202 4.219-1.804-3.973-1.398Zm-31.034 9.097-10.587 1.054 10.424 2.121.163-3.175Zm-111.238 1.054-10.587-1.054 10.721 4.227-.134-3.173Zm149.103-13.863-2.601 1.904 2.337 1.305.264-3.209Zm-190.724 3.712.246 3.202 5.727 1.69-5.973-4.892Zm142.272 10.151-11.505.851 11.371 2.322.134-3.173ZM80.583 244.439l-2.6-1.904 2.857 5.11-.257-3.206Zm57.356 12.81-11.505-.851 11.608 4.022-.103-3.171Zm125.025-9.31-.231 3.2 5.727-1.69-5.496-1.51Zm-47.384 9.31-12.303.63 12.2 2.541.103-3.171Zm-65.338.63-12.303-.63 12.374 3.8-.071-3.17Zm53.035 0-12.98.391 12.909 2.779.071-3.17Zm69.659-13.44-4.23 1.808 3.973 1.398.257-3.206ZM163.222 258.27l-12.98-.391 13.017 3.56-.037-3.169Zm-72.667-10.331.23 3.2 7.12 1.557-7.35-4.757Zm99.742 10.331-13.537.134 13.5 3.035.037-3.169Zm-13.537.134-13.538-.134 13.538 3.303v-3.169Zm-91.947-12.157-4.23-1.808 4.476 5.01-.246-3.202Zm171.013 3.253-.211 3.196 7.118-1.557-6.907-1.639Zm-158.133 0 .212 3.196 8.393 1.408-8.605-4.604Zm171.013-3.253-5.742 1.692 5.496 1.51.246-3.202Zm-21.295 4.663-.189 3.194 8.393-1.408-8.204-1.786Zm-156.856-2.971-5.742-1.692 5.973 4.892-.23-3.2ZM76.86 237.322l.268 3.23.855 1.983-1.123-5.213Zm29.249 13.588.19 3.194 9.549 1.24-9.739-4.434Zm169.694-11.601-.265 3.226.856-1.983-.591-1.243Zm-12.838 8.63-7.138 1.561 6.907 1.639.231-3.2Zm-25.128 4.213-.164 3.192 9.55-1.24-9.386-1.952ZM97.693 249.5l-7.138-1.561 7.35 4.757-.212-3.196Zm17.99 2.652.164 3.192 10.587 1.054-10.751-4.246Zm111.538 1.056-.136 3.19 10.587-1.054-10.451-2.136ZM77.717 239.309l.265 3.226 2.601 1.904-2.866-5.13ZM255.826 249.5l-8.415 1.41 8.204 1.786.211-3.196Zm-129.528 3.708.136 3.19 11.505.851-11.641-4.041Zm146.897-11.991-.259 3.222 2.601-1.904-2.342-1.318Zm-167.087 9.693-8.415-1.41 8.605 4.604-.19-3.194Zm109.577 3.151-.105 3.188 11.505-.851-11.4-2.337Zm-77.851 0 .105 3.188 12.303.63-12.408-3.818Zm138.826-16.739-.858 1.987.591 1.243.267-3.23Zm-73.311 17.37-.072 3.187 12.303-.63-12.231-2.557Zm44.062-3.782-9.575 1.242 9.386 1.952.189-3.194Zm-97.241 3.782.072 3.187 12.98.391-13.052-3.578Zm-69.845-13.475.258 3.222 4.23 1.808-4.489-5.03Zm110.008 13.866-.036 3.187 12.98-.391-12.944-2.796ZM77.717 239.309l-.858-1.987 1.123 5.213-.265-3.226Zm37.966 12.843-9.575-1.242 9.739 4.434-.164-3.192Zm47.503 2.931.036 3.187 13.538.134-13.574-3.321Zm13.574.135v3.186l13.537-.134-13.537-3.052Zm92.194-12.191-.248 3.22 4.23-1.808-3.982-1.412Zm-31.118 9.125-10.615 1.056 10.451 2.136.164-3.192Zm-111.538 1.056-10.615-1.056 10.751 4.246-.136-3.19Zm149.504-13.899-2.607 1.908 2.342 1.318.265-3.226Zm-191.237 3.718.248 3.22 5.742 1.692-5.99-4.912Zm142.656 10.181-11.536.853 11.4 2.337.136-3.19ZM80.324 241.217l-2.607-1.908 2.866 5.13-.258-3.222Zm57.51 12.844-11.536-.853 11.641 4.041-.105-3.188Zm125.362-9.338-.232 3.216 5.742-1.692-5.51-1.524Zm-47.511 9.338-12.336.631 12.231 2.557.105-3.188Zm-65.515.631-12.336-.631 12.408 3.818-.072-3.187Zm53.179 0-13.016.391 12.944 2.796.072-3.187Zm69.846-13.475-4.241 1.81 3.982 1.412.259-3.222Zm-110.009 13.866-13.016-.391 13.052 3.578-.036-3.187Zm-72.863-10.36.232 3.216 7.138 1.561-7.37-4.777Zm100.01 10.36-13.573.135 13.537 3.052.036-3.187Zm-13.573.135-13.574-.135 13.574 3.321v-3.186Zm-92.194-12.191-4.242-1.81 4.489 5.03-.248-3.22Zm171.473 3.259-.213 3.214 7.138-1.561-6.925-1.653Zm-158.56 0 .214 3.214 8.415 1.41-8.628-4.624Zm171.475-3.259-5.758 1.696 5.51 1.524.248-3.22Zm-21.353 4.672-.19 3.211 8.415-1.41-8.225-1.801Zm-157.278-2.976-5.757-1.696 5.99 4.912-.233-3.216ZM76.59 234.075l.269 3.247.858 1.987-1.127-5.234Zm29.328 13.624.19 3.211 9.575 1.242-9.765-4.453Zm170.151-11.634-.267 3.244.858-1.987-.591-1.257Zm-12.873 8.658-7.157 1.563 6.925 1.653.232-3.216Zm-25.195 4.22-.165 3.209 9.575-1.242-9.41-1.967Z" fill="#B0B0B0"/><path d="m190.331 216.317-13.575-.133-13.574.133h27.149Z" fill="#C4C4C4"/><path d="m97.477 246.286-7.157-1.563 7.37 4.777-.213-3.214Z" fill="#B0B0B0"/><path d="m215.707 217.33-25.376-1.013h-27.149l52.525 1.013Z" fill="#C4C4C4"/><path d="m115.514 248.944.165 3.209 10.615 1.056-10.78-4.265Z" fill="#B0B0B0"/><path d="m163.183 216.317-13.022.388-12.354.625 25.376-1.013Zm52.526 1.013-12.354-.625-13.022-.388 25.376 1.013Z" fill="#C4C4C4"/><path d="m227.354 250.001-.136 3.207 10.615-1.056-10.479-2.151ZM77.447 236.065l.267 3.244 2.608 1.908-2.875-5.152Zm178.59 10.221-8.438 1.413 8.225 1.801.213-3.214Z" fill="#B0B0B0"/><path d="m163.183 216.317-25.377 1.013-22.229 1.892 47.606-2.905Zm52.525 1.013-52.525-1.013-47.606 2.905 100.131-1.892Z" fill="#C4C4C4"/><path d="m126.157 250.002.136 3.207 11.536.853-11.672-4.06Zm147.292-12.025-.26 3.24 2.608-1.907-2.348-1.333ZM105.913 247.7l-8.438-1.413 8.628 4.624-.19-3.211Zm109.872 3.156-.105 3.206 11.535-.853-11.43-2.353Z" fill="#B0B0B0"/><path d="m137.806 217.329-11.567.845-10.662 1.048 22.229-1.893Zm100.132 1.893-10.663-1.048-11.567-.845 22.23 1.893Z" fill="#C4C4C4"/><path d="m137.729 250.855.105 3.206 12.336.631-12.441-3.837Zm139.2-16.78-.86 1.99.591 1.257.269-3.247Zm-73.509 17.412-.071 3.205 12.336-.631-12.265-2.574Zm44.181-3.788-9.6 1.244 9.41 1.967.19-3.211Zm-97.502 3.788.071 3.205 13.016.391-13.087-3.596Zm-70.034-13.511.26 3.241 4.24 1.81-4.5-5.051ZM190.37 251.88l-.037 3.203 13.016-.391-12.979-2.812ZM77.45 236.065l-.86-1.99 1.127 5.234-.267-3.244Zm38.069 12.878-9.601-1.244 9.765 4.453-.164-3.209Zm47.63 2.937.037 3.203 13.574.135-13.611-3.338Zm13.611.134v3.204l13.573-.135-13.573-3.069Z" fill="#B0B0B0"/><path d="m256.071 221.859-18.136-2.637-22.23-1.893 40.366 4.53Z" fill="#C4C4C4"/><path d="m269.198 239.79-.249 3.237 4.241-1.81-3.992-1.427Zm-31.202 9.153-10.644 1.058 10.48 2.151.164-3.209Zm-111.838 1.058-10.644-1.058 10.78 4.265-.136-3.207Zm149.907-13.936-2.615 1.911 2.348 1.333.267-3.244Z" fill="#B0B0B0"/><path d="m115.576 219.222-9.639 1.234-8.497 1.402 18.136-2.636Zm140.497 2.636-8.496-1.402-9.64-1.234 18.136 2.636Z" fill="#C4C4C4"/><path d="m84.314 239.79.249 3.237 5.757 1.696-6.006-4.933Zm143.04 10.211-11.567.854 11.431 2.353.136-3.207ZM80.062 237.976l-2.615-1.911 2.875 5.152-.26-3.241Zm57.665 12.879-11.567-.854 11.672 4.06-.105-3.206Zm125.7-9.366-.234 3.234 5.758-1.696-5.524-1.538Zm-47.64 9.366-12.369.632 12.264 2.574.105-3.206Z" fill="#B0B0B0"/><path d="m276.226 228.819-60.518-11.49-100.131 1.893 160.649 9.597Z" fill="#C4C4C4"/><path d="m150.098 251.487-12.369-.632 12.441 3.837-.072-3.205Z" fill="#B0B0B0"/><path d="m115.577 219.222-18.136 2.636-13.085 3.245 31.221-5.881Z" fill="#C4C4C4"/><path d="m203.419 251.488-13.051.392 12.979 2.812.072-3.204Zm70.034-13.511-4.252 1.814 3.992 1.426.26-3.24ZM163.148 251.88l-13.051-.392 13.087 3.596-.036-3.204Zm-73.06-10.39.233 3.234 7.157 1.563-7.39-4.797Zm100.28 10.39-13.61.135 13.573 3.069.037-3.204Zm-13.61.135-13.61-.135 13.61 3.338v-3.203Z" fill="#B0B0B0"/><path d="m276.223 228.819-20.152-6.96-40.366-4.53 60.518 11.49Z" fill="#C4C4C4"/><path d="m84.31 239.791-4.251-1.814 4.5 5.051-.248-3.237Zm171.937 3.265-.214 3.231 7.157-1.563-6.943-1.668Z" fill="#B0B0B0"/><path d="m97.441 221.859-7.234 1.555-5.851 1.689 13.085-3.244Zm171.718 3.244-5.851-1.689-7.234-1.555 13.085 3.244Z" fill="#C4C4C4"/><path d="m97.264 243.055.214 3.231 8.438 1.413-8.652-4.644ZM269.2 239.79l-5.773 1.699 5.525 1.538.248-3.237Zm-21.409 4.681-.192 3.228 8.438-1.413-8.246-1.815Zm-157.703-2.982-5.773-1.699 6.006 4.933-.233-3.234Zm-13.77-10.678.27 3.264.86 1.991-1.13-5.255Zm29.407 13.66.191 3.228 9.601 1.244-9.792-4.472Z" fill="#B0B0B0"/><path d="m276.225 228.819-7.067-3.716-13.086-3.244 20.153 6.96Z" fill="#C4C4C4"/><path d="m276.335 232.804-.268 3.261.86-1.99-.592-1.271Zm-12.908 8.685-7.176 1.566 6.942 1.668.234-3.234Zm-25.263 4.228-.166 3.226 9.601-1.244-9.435-1.982Z" fill="#B0B0B0"/><path d="m115.573 219.222-31.221 5.881-7.176 7.701 38.397-13.582Z" fill="#C4C4C4"/><path d="m97.26 243.055-7.176-1.566 7.39 4.797-.214-3.231Zm18.087 2.662.166 3.226 10.643 1.058-10.809-4.284Zm112.141 1.06-.137 3.224 10.644-1.058-10.507-2.166ZM77.176 232.804l.268 3.261 2.615 1.911-2.883-5.172Z" fill="#B0B0B0"/><path d="m84.354 225.103-4.346 1.808-2.72 1.908 7.066-3.716Zm191.871 3.716-2.72-1.908-4.347-1.808 7.067 3.716Z" fill="#C4C4C4"/><path d="m256.251 243.055-8.46 1.416 8.246 1.815.214-3.231Zm-130.227 3.722.136 3.225 11.567.854-11.703-4.079Zm147.69-12.058-.261 3.257 2.614-1.91-2.353-1.347Zm-167.989 9.752-8.461-1.416 8.652 4.644-.191-3.228Zm110.168 3.162-.105 3.223 11.567-.854-11.462-2.369Zm-78.271 0 .105 3.223 12.37.632-12.475-3.855Zm139.576-16.822-.862 1.993.591 1.271.271-3.264Zm-73.708 17.455-.072 3.222 12.37-.632-12.298-2.59Zm44.301-3.795-9.627 1.246 9.435 1.982.192-3.228Zm-97.766 3.795.072 3.222 13.05.392-13.122-3.614Zm-70.224-13.547.261 3.257 4.253 1.814-4.514-5.071Zm110.603 13.94-.036 3.221 13.05-.392-13.014-2.829ZM77.18 232.804l-.863-1.993 1.131 5.255-.268-3.262Z" fill="#B0B0B0"/><path d="m84.352 225.103-7.067 3.716-.11 3.985 7.177-7.701Z" fill="#C4C4C4"/><path d="m115.347 245.717-9.626-1.247 9.792 4.473-.166-3.226Zm47.76 2.942.037 3.221 13.61.134-13.647-3.355Zm13.647.135v3.22l13.61-.134-13.61-3.086Zm92.693-12.258-.251 3.254 4.253-1.814-4.002-1.44Zm-31.287 9.181-10.672 1.06 10.507 2.166.165-3.226Zm-112.14 1.06-10.673-1.06 10.809 4.284-.136-3.224Zm150.312-13.973-2.622 1.915 2.353 1.346.269-3.261Zm-192.271 3.732.25 3.254 5.773 1.699-6.023-4.953Zm143.427 10.241-11.599.856 11.462 2.368.137-3.224Zm-147.69-12.058-2.622-1.915 2.883 5.172-.262-3.257Z" fill="#B0B0B0"/><path d="m115.577 219.222 21.939 25.17 138.71-15.573-160.649-9.597Zm160.759 13.582.862-1.994-.972-1.991.11 3.985Zm-199.047-3.985-.972 1.991.863 1.994.109-3.985Z" fill="#C4C4C4"/><path d="m137.624 247.633-11.598-.855 11.704 4.078-.106-3.223Zm126.04-9.395-.234 3.252 5.773-1.699-5.539-1.553Zm-47.768 9.395-12.403.633 12.297 2.59.106-3.223Zm-65.869.633-12.403-.633 12.475 3.855-.072-3.222Zm53.466 0-13.086.393 13.014 2.829.072-3.222Zm70.223-13.547-4.263 1.817 4.002 1.441.261-3.258Z" fill="#B0B0B0"/><path d="m115.573 219.222-38.397 13.582 60.336 11.588-21.939-25.17Z" fill="#C4C4C4"/><path d="m163.111 248.659-13.086-.393 13.122 3.614-.036-3.221Zm-73.258-10.421.235 3.252 7.176 1.566-7.41-4.818Zm100.551 10.421-13.647.135 13.611 3.086.036-3.221Zm-13.647.135-13.646-.135 13.646 3.356v-3.221Zm-92.692-12.258-4.264-1.817 4.514 5.072-.25-3.255Z" fill="#B0B0B0"/><path d="m269.452 236.536 6.885-3.732-.109-3.985-6.776 7.717Z" fill="#C4C4C4"/><path d="m256.462 239.806-.215 3.249 7.176-1.566-6.961-1.683Zm-159.418 0 .216 3.249 8.46 1.415-8.676-4.664Zm172.402-3.27-5.788 1.702 5.538 1.552.25-3.254Zm-21.467 4.688-.193 3.246 8.461-1.415-8.268-1.831Zm-158.13-2.986-5.788-1.702 6.023 4.953-.235-3.251Z" fill="#B0B0B0"/><path d="m269.447 236.536 4.263-1.817 2.622-1.915-6.885 3.732Zm-192.271-3.732 2.621 1.915 4.264 1.817-6.885-3.732Z" fill="#C4C4C4"/><path d="m105.532 241.225.192 3.246 9.627 1.246-9.819-4.492Zm158.13-2.987-7.196 1.569 6.961 1.682.235-3.251Zm-25.332 4.235-.166 3.244 9.626-1.246-9.46-1.998Z" fill="#B0B0B0"/><path d="m238.326 242.473 31.12-5.937 6.776-7.717-37.896 13.654Z" fill="#C4C4C4"/><path d="m97.049 239.807-7.195-1.569 7.41 4.817-.215-3.248Zm18.136 2.666.166 3.244 10.673 1.06-10.839-4.304Z" fill="#B0B0B0"/><path d="m77.176 232.804 6.885 3.732 12.984 3.27-19.87-7.002Z" fill="#C4C4C4"/><path d="m227.628 243.535-.137 3.242 10.672-1.06-10.535-2.182Zm28.838-3.729-8.484 1.418 8.268 1.831.216-3.249Zm-130.581 3.729.138 3.242 11.598.855-11.736-4.097Zm-20.354-2.311-8.483-1.418 8.676 4.664-.193-3.246Zm110.468 3.168-.107 3.24 11.599-.855-11.492-2.385Zm-78.484 0 .106 3.24 12.403.633-12.509-3.873Z" fill="#B0B0B0"/><path d="m256.462 239.806 7.196-1.568 5.788-1.702-12.984 3.27Zm-172.401-3.27 5.788 1.702 7.195 1.568-12.983-3.27Z" fill="#C4C4C4"/><path d="m203.559 245.026-.073 3.24 12.403-.634-12.33-2.606Zm44.42-3.802-9.653 1.249 9.46 1.997.193-3.246Z" fill="#B0B0B0"/><path d="m137.512 244.392 100.814-1.919 37.896-13.654-138.71 15.573Z" fill="#C4C4C4"/><path d="m149.952 245.026.072 3.24 13.086.392-13.158-3.632Zm40.489.394-.037 3.238 13.086-.392-13.049-2.846Zm-75.257-2.947-9.652-1.249 9.819 4.493-.167-3.244Zm47.889 2.947.037 3.238 13.647.135-13.684-3.373Zm13.684.135v3.238l13.647-.135-13.647-3.103Z" fill="#B0B0B0"/><path d="m77.176 232.804 19.869 7.002 40.467 4.586-60.336-11.588Z" fill="#C4C4C4"/><path d="m238.33 242.473-10.701 1.062 10.535 2.182.166-3.244Z" fill="#B0B0B0"/><path d="m238.326 242.473 18.136-2.667 12.984-3.27-31.12 5.937Z" fill="#C4C4C4"/><path d="m125.888 243.535-10.702-1.062 10.839 4.304-.137-3.242Zm101.743 0-11.63.857 11.492 2.385.138-3.242Zm-90.114.857-11.629-.857 11.735 4.097-.106-3.24Z" fill="#B0B0B0"/><path d="m238.33 242.473 9.652-1.249 8.484-1.418-18.136 2.667Zm-141.282-2.667 8.483 1.418 9.653 1.249-18.136-2.667Z" fill="#C4C4C4"/><path d="m215.995 244.393-12.436.634 12.33 2.606.106-3.24Zm-66.047.634-12.436-.634 12.509 3.873-.073-3.239Zm53.611 0-13.122.394 13.049 2.845.073-3.239Zm-40.489.394-13.122-.394 13.159 3.632-.037-3.238Zm27.367 0-13.683.135 13.646 3.103.037-3.238Zm-13.683.135-13.684-.135 13.684 3.373v-3.238Z" fill="#B0B0B0"/><path d="m97.048 239.806 18.136 2.667 22.331 1.919-40.467-4.586Zm18.136 2.667 10.701 1.062 11.63.857-22.331-1.919Zm100.815 1.919 11.629-.857 10.702-1.062-22.331 1.919Zm-25.558 1.028 25.558-1.028 22.331-1.919-47.889 2.947Zm-52.926-1.028 52.926 1.028 47.889-2.947-100.815 1.919Zm52.926 1.028 13.121-.394 12.437-.634-25.558 1.028Zm-52.926-1.028 12.436.634 13.122.394-25.558-1.028Zm0 0 25.558 1.028h27.368l-52.926-1.028Zm25.558 1.028 13.684.135 13.684-.135h-27.368Z" fill="#C4C4C4"/><path d="M276.448 230.951c0 .65-.453 1.45-1.728 2.367-1.253.9-3.148 1.798-5.662 2.672-5.016 1.744-12.317 3.327-21.388 4.66-18.13 2.666-43.201 4.317-70.912 4.317-27.711 0-52.783-1.651-70.913-4.317-9.071-1.333-16.372-2.916-21.388-4.66-2.513-.874-4.409-1.772-5.661-2.672-1.276-.917-1.729-1.717-1.729-2.367 0-.651.453-1.451 1.729-2.367 1.252-.9 3.148-1.799 5.66-2.673 5.017-1.744 12.318-3.326 21.389-4.66 18.13-2.665 43.202-4.317 70.913-4.317s52.782 1.652 70.912 4.317c9.071 1.334 16.372 2.916 21.388 4.66 2.514.874 4.409 1.773 5.662 2.673 1.275.916 1.728 1.716 1.728 2.367Z" fill="url(#d)" stroke="url(#e)" stroke-width="1.5"/><g filter="url(#f)"><ellipse cx="173.521" cy="232.469" rx="70.834" ry="8.698" transform="rotate(3.944 173.521 232.469)" fill="url(#g)" fill-opacity=".25"/></g><path fill-rule="evenodd" clip-rule="evenodd" d="m97.264 243.057.214 3.23 8.438 1.413 9.594 1.243.003.001h-.001l-9.598-1.244.19 3.211h-.001l-.19-3.211-8.438-1.413h.001l-.002-.001-.214-3.23.004.001Zm-7.412-4.818h-.002l-5.787-1.702-4.26-1.815-.002-.003v.002l-.002-.001.002.003.261 3.254 4.248 1.812.001.001v.001l.001.001.249 3.236-.003-.003-.248-3.234-4.248-1.812-.001-.001v.001l-.001-.001v-.001h-.001l-.261-3.257-2.618-1.912v-.003l-.863-1.994.27 3.265.857 1.98v.007l-.858-1.986.269 3.247.268 3.23.266 3.212.265 3.196.263 3.178.262 3.162.847 1.969 2.574 1.89 4.185 1.795 5.682 1.68 7.062 1.549 8.327 1.4 9.473 1.234 10.502 1.048 11.414.847 12.205.626 12.877.388 13.429.134 13.429-.134 12.877-.388 12.205-.626 11.413-.847 10.502-1.048 9.474-1.234 8.326-1.4 7.062-1.549 5.682-1.68 4.185-1.795 2.574-1.89.847-1.969.262-3.162.264-3.178.264-3.196.267-3.212.267-3.23.269-3.244.002-.004-.592-1.271-.268 3.258-.001.002-.002-.001.268-3.259-2.621 1.915h.001l-4.262 1.817 3.999 1.439-.001.001-4.001-1.44-5.788 1.702-7.193 1.568 6.96 1.683.235-3.251.001.001-.235 3.25h.001l5.519 1.536v.002l-5.52-1.537v-.001h-.002l-7.174 1.566 7.173-1.566-6.959-1.682v-.001l-.001.001h-.001l-8.482 1.417 8.267 1.831-8.268-1.831-.193 3.246.192-3.246-9.651 1.249h-.001l-10.699 1.062h-.001l-11.628.857 11.491 2.385-11.492-2.385-.106 3.241h-.005.003l-.003-.001.107-3.239-12.434.634h-.003l-13.116.393h-.005l-13.678.136-.001-.001v.001h-.005l-13.678-.135-.001-.001v.001l-.005-.001-13.115-.393h-.007l-12.43-.634h-.001v-.001l-11.63-.857-10.701-1.062 10.838 4.304h.002l.136 3.224 11.566.854h.001l-.105-3.222.105 3.222 12.368.632h.002l-.072-3.221v.001l.072 3.22 13.046.392h.001v.001l-13.049-.392 13.087 3.595v.001l-13.087-3.596.072 3.204h-.001l-.072-3.204-12.368-.632h-.001v-.001l-11.567-.854 11.672 4.06-.105-3.205.105 3.205-11.536-.852-10.615-1.056v-.001l10.611 1.056h.002l-.137-3.207.002.001-.137-3.225-10.836-4.302v-.002l-9.653-1.249.193 3.246h-.001l-.192-3.246-8.484-1.418 8.674 4.663h-.002l-8.674-4.662.216 3.248v-.001l-.216-3.247-7.193-1.569Zm36.033 5.297 11.735 4.097v.001l-11.735-4.098Zm24.134 4.729-.073-3.237.005.001.073 3.238h.001-.002l-.004-.002Zm13.084.394-13.077-.392h.001l13.077.393-.001-.001Zm.002.001h.003l13.646 3.355-13.646-3.355 13.643.135-.001-.001-13.64-.134-.037-3.237-.005-.002.037 3.237.005.002-.005-.001v.001Zm13.647.134v.001h.003l13.609 3.086-13.609.134h.001v.001l13.573 3.069v-.001l-13.573-3.069 13.61-.134 12.979 2.812-12.979-2.812 13.051-.392h-.001l12.264 2.573h.001l11.536-.852 10.615-1.056.165-3.209 9.6-1.245 8.225 1.801.213-3.213 7.157-1.564h.001l5.757-1.695.002-.001 4.239-1.81 2.607-1.907.267-3.243-.003.002-.267 3.239.002.001-2.606 1.907v.001l-.001-.001-.001.001v-.001l-3.989-1.425v.001l3.988 1.425-4.236 1.808v.002l-.003-.001-.001.001h.001l-5.755 1.695-.001.001h-.002v-.001l-6.94-1.667v.001l6.938 1.667-7.152 1.562v.001h-.002l-.213 3.214-8.225-1.801-9.599 1.244.165-3.226 9.435 1.982h.001l-9.434-1.982h-.002l.166-3.243h-.001l-.166 3.243h.001-.002l-.166 3.226-.001.001-.165 3.208h.002-.002l-10.613 1.056-11.431-2.353v.001l11.43 2.353-11.535.852-12.263-2.573-.001-.001h.001l-13.049.392.036-3.22.037-3.237-.005-.002-.037 3.237.005.002h-.006l-13.641.134v-3.236l-.005-.001v3.236l.005.001h-.005Zm13.647-.134h.003l-.037 3.221-13.61-3.086 13.644-.135Zm13.085-.393-13.079.393h.001l13.079-.393h.005l-.072 3.221.072-3.221v-.001l-.001.001h.001-.006Zm.001-.001.072-3.238h.002l-.072 3.238h-.002Zm12.402-.632-12.396.632.001.001 12.395-.633Zm40.361-4.578h.003-.003Zm-140.901 2.662-9.621-1.246h.001l9.62 1.246Zm-25.497-7.479.001.001.234 3.249-.235-3.25Zm7.41 4.817-7.172-1.565 7.171 1.565Zm-7.178-1.568-6.02-4.95 6.02 4.95Zm125.811 6.146-.105 3.222.105-3.222Zm53.307-7.843 4.249-1.813-4.251 1.813h.002Zm-178.881 4.931-6.001-4.929-.005-.001 6.005 4.932-5.757-1.696v.001l5.758 1.695 7.37 4.777-.213-3.213.212 3.213-7.37-4.777h.001v-.002Zm72.827 7.159 13.61 3.338-13.61-3.338ZM80.06 237.98l.26 3.237v.001l-.26-3.237v-.001Zm46.233 15.23-.136-3.207 11.672 4.059-11.536-.852Zm150.042-20.405.863-1.994-.271 3.265-.592-1.271Z" fill="url(#h)"/><path fill-rule="evenodd" clip-rule="evenodd" d="m97.264 243.057.214 3.23 8.438 1.413 9.594 1.243.003.001h-.001l-9.598-1.244.19 3.211h-.001l-.19-3.211-8.438-1.413h.001l-.002-.001-.214-3.23.004.001Zm-7.412-4.818h-.002l-5.787-1.702-4.26-1.815-.002-.003v.002l-.002-.001.002.003.261 3.254 4.248 1.812.001.001v.001l.001.001.249 3.236-.003-.003-.248-3.234-4.248-1.812-.001-.001v.001l-.001-.001v-.001h-.001l-.261-3.257-2.618-1.912v-.003l-.863-1.994.27 3.265.857 1.98v.007l-.858-1.986.269 3.247.268 3.23.266 3.212.265 3.196.263 3.178.262 3.162.847 1.969 2.574 1.89 4.185 1.795 5.682 1.68 7.062 1.549 8.327 1.4 9.473 1.234 10.502 1.048 11.414.847 12.205.626 12.877.388 13.429.134 13.429-.134 12.877-.388 12.205-.626 11.413-.847 10.502-1.048 9.474-1.234 8.326-1.4 7.062-1.549 5.682-1.68 4.185-1.795 2.574-1.89.847-1.969.262-3.162.264-3.178.264-3.196.267-3.212.267-3.23.269-3.244.002-.004-.592-1.271-.268 3.258-.001.002-.002-.001.268-3.259-2.621 1.915h.001l-4.262 1.817 3.999 1.439-.001.001-4.001-1.44-5.788 1.702-7.193 1.568 6.96 1.683.235-3.251.001.001-.235 3.25h.001l5.519 1.536v.002l-5.52-1.537v-.001h-.002l-7.174 1.566 7.173-1.566-6.959-1.682v-.001l-.001.001h-.001l-8.482 1.417 8.267 1.831-8.268-1.831-.193 3.246.192-3.246-9.651 1.249h-.001l-10.699 1.062h-.001l-11.628.857 11.491 2.385-11.492-2.385-.106 3.241h-.005.003l-.003-.001.107-3.239-12.434.634h-.003l-13.116.393h-.005l-13.678.136-.001-.001v.001h-.005l-13.678-.135-.001-.001v.001l-.005-.001-13.115-.393h-.007l-12.43-.634h-.001v-.001l-11.63-.857-10.701-1.062 10.838 4.304h.002l.136 3.224 11.566.854h.001l-.105-3.222.105 3.222 12.368.632h.002l-.072-3.221v.001l.072 3.22 13.046.392h.001v.001l-13.049-.392 13.087 3.595v.001l-13.087-3.596.072 3.204h-.001l-.072-3.204-12.368-.632h-.001v-.001l-11.567-.854 11.672 4.06-.105-3.205.105 3.205-11.536-.852-10.615-1.056v-.001l10.611 1.056h.002l-.137-3.207.002.001-.137-3.225-10.836-4.302v-.002l-9.653-1.249.193 3.246h-.001l-.192-3.246-8.484-1.418 8.674 4.663h-.002l-8.674-4.662.216 3.248v-.001l-.216-3.247-7.193-1.569Zm36.033 5.297 11.735 4.097v.001l-11.735-4.098Zm24.134 4.729-.073-3.237.005.001.073 3.238h.001-.002l-.004-.002Zm13.084.394-13.077-.392h.001l13.077.393-.001-.001Zm.002.001h.003l13.646 3.355-13.646-3.355 13.643.135-.001-.001-13.64-.134-.037-3.237-.005-.002.037 3.237.005.002-.005-.001v.001Zm13.647.134v.001h.003l13.609 3.086-13.609.134h.001v.001l13.573 3.069v-.001l-13.573-3.069 13.61-.134 12.979 2.812-12.979-2.812 13.051-.392h-.001l12.264 2.573h.001l11.536-.852 10.615-1.056.165-3.209 9.6-1.245 8.225 1.801.213-3.213 7.157-1.564h.001l5.757-1.695.002-.001 4.239-1.81 2.607-1.907.267-3.243-.003.002-.267 3.239.002.001-2.606 1.907v.001l-.001-.001-.001.001v-.001l-3.989-1.425v.001l3.988 1.425-4.236 1.808v.002l-.003-.001-.001.001h.001l-5.755 1.695-.001.001h-.002v-.001l-6.94-1.667v.001l6.938 1.667-7.152 1.562v.001h-.002l-.213 3.214-8.225-1.801-9.599 1.244.165-3.226 9.435 1.982h.001l-9.434-1.982h-.002l.166-3.243h-.001l-.166 3.243h.001-.002l-.166 3.226-.001.001-.165 3.208h.002-.002l-10.613 1.056-11.431-2.353v.001l11.43 2.353-11.535.852-12.263-2.573-.001-.001h.001l-13.049.392.036-3.22.037-3.237-.005-.002-.037 3.237.005.002h-.006l-13.641.134v-3.236l-.005-.001v3.236l.005.001h-.005Zm13.647-.134h.003l-.037 3.221-13.61-3.086 13.644-.135Zm13.085-.393-13.079.393h.001l13.079-.393h.005l-.072 3.221.072-3.221v-.001l-.001.001h.001-.006Zm.001-.001.072-3.238h.002l-.072 3.238h-.002Zm12.402-.632-12.396.632.001.001 12.395-.633Zm40.361-4.578h.003-.003Zm-140.901 2.662-9.621-1.246h.001l9.62 1.246Zm-25.497-7.479.001.001.234 3.249-.235-3.25Zm7.41 4.817-7.172-1.565 7.171 1.565Zm-7.178-1.568-6.02-4.95 6.02 4.95Zm125.811 6.146-.105 3.222.105-3.222Zm53.307-7.843 4.249-1.813-4.251 1.813h.002Zm-178.881 4.931-6.001-4.929-.005-.001 6.005 4.932-5.757-1.696v.001l5.758 1.695 7.37 4.777-.213-3.213.212 3.213-7.37-4.777h.001v-.002Zm72.827 7.159 13.61 3.338-13.61-3.338ZM80.06 237.98l.26 3.237v.001l-.26-3.237v-.001Zm46.233 15.23-.136-3.207 11.672 4.059-11.536-.852Zm150.042-20.405.863-1.994-.271 3.265-.592-1.271Z" fill="url(#i)"/><g filter="url(#j)"><path d="M101.274 56.524c.773-16.616 9.661-29.368 30.528-29.368l74.968-5.024c20.77-1.347 30.017 17.259 29.402 34.237v103.452c0 17.074-8.97 34.28-31.072 32.476l-75.212-4.961c-17.253 0-28.614-11.72-28.614-28.794V56.524Z" fill="#fff" fill-opacity=".35"/><path d="m130.019 185.34-.065-.004h-.066c-8.161 0-14.778-2.762-19.353-7.399-4.578-4.64-7.261-11.309-7.261-19.395V56.572c.379-7.98 2.694-14.793 7.189-19.597 4.47-4.776 11.332-7.82 21.339-7.82h.067l.067-.004 74.964-5.023h.002c9.666-.627 16.526 3.35 20.974 9.431 4.51 6.167 6.592 14.594 6.297 22.738l-.001.036v103.488c0 8.232-2.169 16.31-6.805 22.062-4.562 5.66-11.668 9.273-22.104 8.421l-.015-.002-.016-.001-75.213-4.961Z" stroke="url(#k)" stroke-width="4"/></g><path d="M231.719 33.74c-2.43-3.82-5.697-6.835-8.977-8.938l9.189 1.397c3.916.926 7.458 3.235 10.203 5.786 2.77 2.575 4.615 5.291 5.207 6.89l.02.054.026.052c.884 1.736 2.85 6.436 3.557 11.146.303 3.357.323 6.654.295 7.87v103.586c-.431 10.167-4.5 16.813-8.832 20.943-2.175 2.074-4.424 3.52-6.323 4.453-1.931.949-3.42 1.331-4.073 1.363l-.046.003-.046.006-8.75 1.25c3.74-2.198 7.388-5.554 9.781-10.535 1.457-2.662 2.465-6.126 3.138-9.323.678-3.221 1.033-6.251 1.152-8.074l.002-.032V55.783c.319-3.928-.344-13.663-5.516-22.031l-.007-.012Z" fill="url(#l)" stroke="url(#m)" stroke-width="2"/><path d="m182.969 28.917-.218 4.221.218 4.221v-8.442Zm1.669-7.94-1.669 7.94v8.442l1.669-16.381Zm-1.669 16.382.637 4.063 1.032 3.877-1.669-7.94Zm1.669-16.381-1.032 3.877-.637 4.062 1.669-7.94Zm-1.669 16.381 1.669 7.94 3.156 7.085-4.825-15.025Zm1.669 7.94 1.403 3.665 1.753 3.42-3.156-7.085Zm3.156-31.407-1.753 3.421-1.403 3.665 3.156-7.086Zm4.478-5.972-7.634 13.058-1.669 16.381 9.303-29.439Zm0 0-4.478 5.972-3.156 7.086 7.634-13.058Zm-9.303 29.44 4.825 15.024 10.122 10.525-14.947-25.55Zm9.303-29.44-2.394 2.83-2.084 3.142 4.478-5.972Zm-4.478 44.464 2.084 3.144 2.394 2.828-4.478-5.972Zm4.478-44.464-9.303 29.44 14.947 25.549-5.644-54.989Zm-4.478 44.464 4.478 5.972 5.644 4.553-10.122-10.525Zm4.478 5.972 2.686 2.475 2.958 2.078-5.644-4.553Zm5.644-54.988-2.958 2.077-2.686 2.475 5.644-4.552Z" fill="#C4C4C4"/><path d="m217.62 65.32 2.723-.455 3.543-.593-6.266 1.048Z" fill="#B0B0B0"/><path d="m204.567.594-6.651 2.774-5.644 4.553L204.567.594Z" fill="#C4C4C4"/><path d="m221.192 1.555 2.694.45-3.543-.593.849.143ZM217.62.957l3.572.598-.849-.143-2.723-.455Zm3.572 63.765-3.572.598 6.266-1.048-2.694.45Zm0 0 2.694-.45 3.415-1.146-6.109 1.596Z" fill="#B0B0B0"/><path d="m197.915 62.91 3.21 1.633 3.441 1.14-6.651-2.774ZM204.566.593l-3.441 1.14-3.21 1.634 6.651-2.774Z" fill="#C4C4C4"/><path d="m224.635 2.714 2.667.437-3.415-1.146.748.71Zm-3.442-1.16 3.442 1.16-.748-.709-2.694-.45Zm-6.374 64.235 2.802-.469 3.572-.598-6.374 1.067Zm9.816-2.226-3.442 1.16 6.109-1.597-2.667.437Zm0 0 2.667-.437 3.245-1.675-5.912 2.112ZM218.419 1.09l2.774.464-3.572-.598.798.134Z" fill="#B0B0B0"/><path d="m197.915 62.91 6.651 2.773 7.368.588-14.019-3.362Z" fill="#C4C4C4"/><path d="m227.908 4.41 2.639.416-3.245-1.675.606 1.259ZM214.819.488l3.6.603-.798-.134-2.802-.469Z" fill="#B0B0B0"/><path d="M219.062 1.8 204.567.595 192.272 7.92l26.79-6.12Z" fill="#C4C4C4"/><path d="m224.635 2.714 3.273 1.696-.606-1.259-2.667-.437Zm-6.216 62.472-3.6.603 6.374-1.067-2.774.464Zm0 0 2.774-.464 3.442-1.16-6.216 1.624Zm9.489-3.319 2.639-.416 3.033-2.174-5.672 2.59Zm0 0-3.273 1.696 5.912-2.112-2.639.416ZM221.89 2.264l2.745.45-3.442-1.16.697.71Zm9.077 4.349L233.58 7l-3.033-2.175.42 1.788Z" fill="#B0B0B0"/><path d="m204.565 65.683 3.65.594 3.717-.006-7.367-.588ZM211.932.006 208.215 0l-3.65.594 7.367-.588Z" fill="#C4C4C4"/><path d="m218.419 1.091 3.471 1.173-.698-.71-2.773-.463Zm9.489 3.319 3.058 2.203-.419-1.787-2.639-.416Z" fill="#B0B0B0"/><path d="m192.272 7.92 5.644 54.989 39.079-34.582L192.272 7.92Z" fill="#C4C4C4"/><path d="m211.932 66.27 2.885-.481 3.599-.603-6.484 1.085Zm19.032-6.606 2.613-.387 2.775-2.643-5.388 3.03Zm-9.076 4.349-3.472 1.173 6.217-1.623-2.745.45Zm9.076-4.349-3.059 2.203 5.672-2.59-2.613.387Zm-9.076 4.349 2.745-.45 3.272-1.696-6.017 2.146ZM215.56.614l2.856.477-3.599-.603.743.126Zm18.203 8.679 2.589.35L233.577 7l.186 2.293Zm-8.575-5.312 2.717.429-3.272-1.696.555 1.267ZM211.932.006l3.628.608-.743-.126-2.885-.482Zm19.032 6.607 2.799 2.68L233.577 7l-2.613-.387Z" fill="#B0B0B0"/><path d="m197.915 62.91 14.019 3.36 13.567-5.797-27.586 2.436ZM219.061 1.8 211.934.006l-7.368.588L219.061 1.8Z" fill="#C4C4C4"/><path d="m221.888 2.264 3.3 1.718-.555-1.268-2.745-.45Zm11.875 54.72 2.589-.35 2.472-3.076-5.061 3.426Zm-18.203 8.68-3.628.607 6.484-1.085-2.856.477Zm18.203-8.68-2.799 2.68 5.388-3.03-2.589.35Zm-18.203 8.68 2.856-.478 3.472-1.173-6.328 1.65Zm9.628-3.368 2.717-.428 3.059-2.204-5.776 2.632Zm0 0-3.3 1.717 6.017-2.145-2.717.428Zm11.07-49.882 2.566.306-2.472-3.077-.094 2.771ZM219.06 1.801l2.828.463-3.472-1.172.644.709Zm9.213 4.414 2.691.398-3.059-2.203.368 1.805Zm5.49 3.078 2.495 3.121.094-2.771-2.589-.35Zm2.495 44.57 2.566-.305 2.122-3.473-4.688 3.778ZM215.56.614l3.5 1.187-.644-.71-2.856-.477Zm9.628 3.368 3.085 2.233-.368-1.805-2.717-.428Zm11.07 49.881-2.495 3.121 5.061-3.426-2.566.305Zm2.141-37.925 2.547.255-2.122-3.473-.425 3.218Z" fill="#B0B0B0"/><path d="m211.932 66.27 3.628-.607 3.5-1.186-7.128 1.794ZM219.06 1.8l-3.5-1.186-3.628-.608L219.06 1.8Z" fill="#C4C4C4"/><path d="m228.275 60.063 2.691-.399 2.8-2.68-5.491 3.078Zm-9.213 4.414-3.5 1.186 6.328-1.65-2.828.464Zm9.213-4.415-3.085 2.234 5.776-2.632-2.691.398Zm-9.213 4.415 2.828-.464 3.3-1.717-6.128 2.18Z" fill="#B0B0B0"/><path d="M236.995 28.328 219.062 1.8l-26.79 6.12 44.723 20.408Z" fill="#C4C4C4"/><path d="m238.401 50.34 2.547-.256 1.727-3.826-4.274 4.081Zm-2.142-37.926 2.142 3.523.424-3.217-2.566-.306Zm-5.161-3.482 2.667.36-2.799-2.68.132 2.32Zm9.046 10.888 2.531.199-1.727-3.826-.804 3.627ZM222.389 3.54l2.8.441-3.3-1.717.5 1.276Zm16.012 46.8-2.142 3.523 4.689-3.779-2.547.255Zm1.743-3.884 2.531-.198 1.286-4.134-3.817 4.332Zm-11.87-40.241 2.824 2.717-.132-2.32-2.692-.397ZM219.061 1.8l3.328 1.74-.5-1.276-2.828-.464Zm22.381 22.216 2.519.136-1.286-4.133-1.233 3.997Zm-3.041-8.079 1.743 3.883.804-3.628-2.547-.255Zm-7.303 41.408 2.667-.36 2.494-3.122-5.161 3.482Zm0 0-2.824 2.717 5.491-3.078-2.667.36Z" fill="#B0B0B0"/><path d="m211.932 66.27 7.128-1.794 6.439-4.003-13.567 5.797Z" fill="#C4C4C4"/><path d="m241.442 42.26 2.519-.135.801-4.391-3.32 4.527Zm-1.298 4.197-1.743 3.883 4.274-4.082-2.531.199Zm2.107-17.983 2.511.07-.801-4.391-1.71 4.32Zm-19.862 34.263 2.8-.441 3.085-2.233-5.885 2.674Zm0 0-3.328 1.74 6.128-2.181-2.8.441ZM233.615 12.1l2.644.315-2.494-3.121-.15 2.806Zm8.636 25.704 2.511-.07.276-4.594-2.787 4.664Zm.279-4.664h2.508l-.276-4.595-2.232 4.595Zm-2.386-13.318 1.298 4.195 1.233-3.997-2.531-.198Z" fill="#B0B0B0"/><path d="m197.915 62.91 27.586-2.437 11.493-32.145-39.079 34.581Z" fill="#C4C4C4"/><path d="m225.5 5.804 2.774.41-3.085-2.233.311 1.823Zm15.942 36.457-1.298 4.195 3.816-4.331-2.518.136ZM231.098 8.932l2.516 3.167.151-2.806-2.667-.36Zm2.516 45.246 2.645-.315 2.142-3.523-4.787 3.838Zm7.828-30.162.809 4.458 1.709-4.322-2.518-.136Zm.809 13.787-.809 4.458 3.32-4.527-2.511.07ZM222.389 3.54l3.111 2.264-.311-1.823-2.8-.441Zm11.225 50.638-2.516 3.167 5.161-3.482-2.645.315Zm2.162-38.503 2.625.263-2.142-3.524-.483 3.26Zm6.475 12.799.279 4.665 2.232-4.595-2.511-.07Zm.279 4.665-.279 4.664 2.787-4.664h-2.508ZM225.5 60.473l2.774-.41 2.824-2.718-5.598 3.128Zm0 0-3.111 2.264 5.885-2.675-2.774.411Z" fill="#B0B0B0"/><path d="m219.061 64.477 3.328-1.74 3.112-2.264-6.44 4.004Zm6.44-58.673-3.112-2.264-3.328-1.74 6.44 4.004Z" fill="#C4C4C4"/><path d="m235.776 50.602 2.625-.263 1.743-3.883-4.368 4.146Zm-2.161-38.504 2.161 3.576.483-3.26-2.644-.316ZM228.35 8.56l2.748.372-2.824-2.718.076 2.346Zm9.186 11.056 2.608.204-1.743-3.883-.865 3.679Zm-1.76 30.986-2.161 3.576 4.786-3.839-2.625.263Zm1.76-3.942 2.608-.204 1.298-4.196-3.906 4.4ZM225.501 5.804l2.849 2.756-.076-2.346-2.773-.41Zm13.345 18.072 2.596.14-1.298-4.196-1.298 4.055Zm-3.07-8.202 1.76 3.942.865-3.679-2.625-.263Zm-7.426 42.042 2.748-.372 2.517-3.166-5.265 3.538Z" fill="#B0B0B0"/><path d="m230.889 11.774-5.388-5.97-6.44-4.004 11.828 9.974Z" fill="#C4C4C4"/><path d="m228.35 57.716-2.849 2.757 5.597-3.128-2.748.371Zm10.496-15.315 2.596-.14.809-4.458-3.405 4.598Zm-1.31 4.26-1.76 3.941 4.368-4.145-2.608.204Zm2.127-18.259 2.588.072-.809-4.457-1.779 4.385Zm-8.774-16.628 2.726.325-2.517-3.166-.209 2.841Zm8.774 26.101 2.588-.072.279-4.664-2.867 4.736Zm.281-4.736h2.586l-.279-4.665-2.307 4.665Zm-2.408-13.523 1.31 4.26 1.298-4.055-2.608-.205Zm1.31 22.785-1.31 4.26 3.906-4.4-2.596.14ZM228.35 8.561l2.539 3.213.209-2.841-2.748-.372Zm2.539 45.942 2.726-.325 2.161-3.575-4.887 3.9Zm7.957-30.627.817 4.526 1.779-4.386-2.596-.14Zm.817 14-.817 4.525 3.405-4.598-2.588.072Zm-8.774 16.627-2.539 3.213 5.265-3.538-2.726.325Zm2.181-39.099 2.706.27-2.161-3.575-.545 3.305Zm6.593 12.998.281 4.737 2.307-4.665-2.588-.072Zm.281 4.737-.281 4.736 2.867-4.736h-2.586Z" fill="#B0B0B0"/><path d="m225.501 60.473 2.849-2.757 2.539-3.213-5.388 5.97Zm5.388-48.699-2.539-3.213-2.849-2.757 5.388 5.97Zm6.105 16.554-6.105-16.554L219.061 1.8l17.933 26.528Z" fill="#C4C4C4"/><path d="m233.073 50.873 2.706-.27 1.759-3.942-4.465 4.212Zm-2.182-39.1 2.182 3.63.544-3.304-2.726-.325Zm3.958 7.633 2.689.21-1.759-3.941-.93 3.73Zm-1.776 31.467-2.182 3.63 4.888-3.9-2.706.27Z" fill="#B0B0B0"/><path d="m225.501 60.473 5.388-5.97 3.957-7.631-9.345 13.601Z" fill="#C4C4C4"/><path d="m234.846 46.871 2.689-.21 1.311-4.26-4 4.47Zm1.323-23.14 2.677.145-1.311-4.26-1.366 4.115Zm-3.099-8.327 1.776 4.002.93-3.731-2.706-.271Zm3.099 27.142 2.677-.145.817-4.526-3.494 4.67Zm-1.323 4.325-1.776 4.002 4.465-4.212-2.689.21Zm2.147-18.543 2.67.074-.817-4.526-1.853 4.452Z" fill="#B0B0B0"/><path d="m225.501 60.473 9.345-13.602 2.148-18.543-11.493 32.145Z" fill="#C4C4C4"/><path d="m236.994 37.95 2.67-.075.281-4.736-2.951 4.81Zm.284-4.812h2.667l-.281-4.736-2.386 4.736Z" fill="#B0B0B0"/><path d="m230.891 54.503 2.182-3.63 1.776-4.002-3.958 7.632Zm3.958-35.097-1.776-4.002-2.182-3.63 3.958 7.632Z" fill="#C4C4C4"/><path d="m234.846 19.406 1.323 4.325 1.367-4.115-2.69-.21Zm1.323 23.14-1.323 4.325 4-4.47-2.677.145Zm0-18.815.825 4.597 1.852-4.452-2.677-.145Z" fill="#B0B0B0"/><path d="m236.996 28.328-2.147-8.922-3.958-7.632 6.105 16.554Z" fill="#C4C4C4"/><path d="m236.995 37.95-.824 4.596 3.494-4.67-2.67.073Zm0-9.622.284 4.81 2.386-4.736-2.67-.074Zm.284 4.81-.284 4.811 2.951-4.81h-2.667Z" fill="#B0B0B0"/><path d="m234.846 46.871 1.323-4.325.825-4.597-2.148 8.922Zm2.148-18.543-.825-4.597-1.323-4.325 2.148 8.922Zm-2.148 18.543 2.148-8.922v-9.621l-2.148 18.543Zm2.148-8.922.284-4.81-.284-4.811v9.621Z" fill="#C4C4C4"/><path d="M237.037 33.256c0 18.186-12.115 32.755-26.866 32.755-14.75 0-26.865-14.57-26.865-32.755C183.306 15.07 195.421.5 210.171.5c14.751 0 26.866 14.57 26.866 32.756Z" fill="url(#n)"/><path d="M237.037 33.256c0 18.186-12.115 32.755-26.866 32.755-14.75 0-26.865-14.57-26.865-32.755C183.306 15.07 195.421.5 210.171.5c14.751 0 26.866 14.57 26.866 32.756Z" fill="url(#o)"/><path d="M237.037 33.256c0 18.186-12.115 32.755-26.866 32.755-14.75 0-26.865-14.57-26.865-32.755C183.306 15.07 195.421.5 210.171.5c14.751 0 26.866 14.57 26.866 32.756Z" stroke="url(#p)"/><path d="M237.037 33.256c0 18.186-12.115 32.755-26.866 32.755-14.75 0-26.865-14.57-26.865-32.755C183.306 15.07 195.421.5 210.171.5c14.751 0 26.866 14.57 26.866 32.756Z" stroke="url(#q)"/><path d="M237.74 30.238c-1.113-13.436-7.675-23.808-17.927-28.41l4.226.668c1.844.469 6.38 2.178 9.802 5.265 3.449 3.11 6.07 7.31 6.948 9.02l1.921 4.268c.502 1.61 1.19 4.327 1.627 7.256.44 2.956.616 6.077.117 8.487l-.004.02-.002.02c-.612 4.965-2.47 9.876-3.317 11.696l-.004.01-.004.01c-1.053 2.538-4.58 8.522-10.183 11.998l-.03.02-.028.023c-1.427 1.203-3.694 2.191-6.31 2.95a42.41 42.41 0 0 1-3.776.897c4.587-2.538 18.407-11.979 16.944-34.19v-.008Z" fill="url(#r)" stroke="url(#s)"/><path d="M198.624 35.206v5.423l10.222.211-10.222-5.634Z" fill="#fff"/><path d="m203.257 35.198 3.394-.039 6.107-10.388-9.501 10.427Zm0 0 6.128.051-2.734-.09-3.394.04Z" fill="#E5E5E5"/><path d="m209.384 35.249-6.128-.05-4.632.006 10.76.044Zm-10.76-.044 4.632-.007 6.128-10.5-10.76 10.507Z" fill="#fff"/><path d="m209.385 35.249 3.373-.04-6.108-.05 2.735.09Z" fill="#E5E5E5"/><path d="m209.384 35.25-10.76-.044 10.222 5.634.538-5.59Z" fill="#fff"/><path d="m209.385 24.698-6.128 10.5 9.501-10.427-3.373-.073Z" fill="#E5E5E5"/><path d="m213.698 15.065-15.074 20.14 10.76-10.507 4.314-9.633Zm0 0-3.306.119-11.768 20.021 15.074-20.14Z" fill="#fff"/><path d="m213.699 35.285 3.358-.04V15.242l-3.358 20.042Zm0 12.679 3.358-.178v-6.947l-3.358 7.125Z" fill="#E5E5E5"/><path d="M208.848 40.84v6.948l4.852-6.847-4.852-.1Zm4.852-25.776-4.314 20.185-.538 5.591 4.852-25.776Zm0 0-4.314 9.634v10.55l4.314-20.183Z" fill="#fff"/><path d="M213.699 15.065v20.22l3.358-20.042-3.358-.178Zm0 25.876v7.023l3.358-7.125-3.358.102Z" fill="#E5E5E5"/><path d="m208.848 47.788 4.852.176V40.94l-4.852 6.847Zm0-6.948 4.852.1v-5.655l-4.852 5.555Zm0 0 4.852-5.555v-20.22l-4.852 25.775Z" fill="#fff"/><path d="m216.942 35.312 3.347-.042-3.232-.026-.115.068Zm-3.243-.027 3.243.027.115-.068-3.358.041Zm3.243 5.723 3.347-.103V35.27l-3.347 5.738Z" fill="#E5E5E5"/><path d="m213.699 40.94 3.243.068-3.243-5.723v5.656Z" fill="#fff"/><path d="M216.942 35.312v5.696l3.348-5.738-3.348.041Z" fill="#E5E5E5"/><path d="M216.942 41.008V35.31l-3.243-.026 3.243 5.723Z" fill="#fff"/><path d="M135.697 100.681c-.087 1.964.232 3.922.92 5.654.739 1.905 1.85 3.497 3.211 4.604 1.36 1.106 2.919 1.684 4.505 1.671h.932v34.667h-3.193c-.846 0-1.658.456-2.257 1.269-.598.812-.935 1.915-.935 3.064s.337 2.251.935 3.064c.599.813 1.411 1.269 2.257 1.269h63.847c.846 0 1.658-.456 2.257-1.269.599-.813.935-1.915.935-3.064s-.336-2.252-.935-3.064c-.599-.813-1.411-1.269-2.257-1.269h-3.193V112.61h.932c1.585.014 3.142-.563 4.502-1.667 1.36-1.104 2.471-2.693 3.211-4.595.688-1.732 1.007-3.69.92-5.654-.086-1.964-.574-3.856-1.408-5.465-1.364-2.717-3.191-4.946-5.325-6.5l-23.942-16.93c-2.354-1.662-4.968-2.529-7.62-2.529-2.653 0-5.267.867-7.62 2.529L142.43 88.716c-2.134 1.554-3.961 3.783-5.325 6.5-.834 1.609-1.322 3.501-1.408 5.465Z" fill="url(#t)"/><path d="m137.083 106.154-.001-.003c-.661-1.663-.969-3.55-.886-5.448.083-1.897.555-3.718 1.353-5.257l.003-.006c1.333-2.654 3.11-4.818 5.169-6.318l23.943-16.915c2.277-1.607 4.791-2.437 7.332-2.437 2.54 0 5.054.83 7.331 2.437l23.937 16.926.002.002c2.06 1.5 3.837 3.663 5.17 6.318l.003.006c.798 1.539 1.27 3.36 1.353 5.257.083 1.898-.225 3.785-.886 5.448l-.001.003c-.714 1.834-1.778 3.347-3.06 4.388-1.28 1.039-2.726 1.568-4.182 1.555h-1.437v35.667h3.693c.656 0 1.329.353 1.854 1.065.527.715.838 1.71.838 2.768 0 1.058-.311 2.052-.838 2.768-.525.712-1.198 1.065-1.854 1.065h-63.847c-.656 0-1.329-.353-1.854-1.065-.527-.716-.838-1.71-.838-2.768 0-1.058.311-2.053.838-2.768.525-.712 1.198-1.065 1.854-1.065h3.693V112.11h-1.437c-1.457.012-2.904-.518-4.185-1.559-1.283-1.043-2.347-2.559-3.06-4.397Z" fill="url(#u)" stroke="url(#v)"/><path d="m131.496 106.154-.001-.003c-.66-1.663-.969-3.55-.885-5.448.083-1.897.554-3.718 1.353-5.257l.003-.006c1.333-2.654 3.109-4.818 5.169-6.318l23.942-16.915c2.277-1.607 4.792-2.437 7.332-2.437 2.541 0 5.055.83 7.332 2.437l23.936 16.926.003.002c2.059 1.5 3.836 3.663 5.169 6.318l.003.006c.799 1.539 1.27 3.36 1.353 5.257.084 1.898-.225 3.785-.885 5.448l-.001.003c-.715 1.834-1.779 3.347-3.061 4.388-1.28 1.039-2.726 1.568-4.182 1.555h-1.436v35.667h3.692c.656 0 1.33.353 1.855 1.065.527.715.837 1.71.837 2.768 0 1.058-.31 2.052-.837 2.768-.525.712-1.199 1.065-1.855 1.065h-63.846c-.656 0-1.33-.353-1.855-1.065-.527-.716-.837-1.71-.837-2.768 0-1.058.31-2.053.837-2.768.525-.712 1.199-1.065 1.855-1.065h3.692V112.11h-1.436c-1.457.012-2.905-.518-4.185-1.559-1.283-1.043-2.347-2.559-3.061-4.397Z" fill="url(#w)" stroke="url(#x)"/><path d="M162.817 113.27c0-.552.358-1 .798-1h12.77c.44 0 .798.448.798 1v33c0 .552-.358 1-.798 1h-12.77c-.44 0-.798-.448-.798-1v-33Z" fill="#F4EDE1"/><path d="M161.221 114.068v31.404a.798.798 0 0 0 1.596 0v-31.404a.798.798 0 1 0-1.596 0Z" fill="#F4EDE1"/><path d="M161.48 112.533a.716.716 0 0 1 .539-.263h1.596c-.207 0-.397.1-.539.263-.289.332-.616.737-1.057.737-.44 0-.828-.405-.539-.737Zm0 34.474a.716.716 0 0 0 .539.263h1.596a.718.718 0 0 1-.539-.263c-.289-.332-.616-.737-1.057-.737-.44 0-.828.405-.539.737Zm13.309.263c.207 0 .397-.1.539-.263.289-.332.616-.737 1.057-.737.44 0 .828.405.539.737a.718.718 0 0 1-.539.263h-1.596Zm.539-34.737a.718.718 0 0 0-.539-.263h1.596c.207 0 .397.1.539.263.289.332-.099.737-.539.737-.441 0-.768-.405-1.057-.737Z" fill="#F4EDE1"/><path d="M175.587 145.472v-31.404a.798.798 0 1 1 1.596 0v31.404a.798.798 0 0 1-1.596 0Z" fill="#F4EDE1"/><path d="M161.221 113.27a1 1 0 0 1 1-1h12.366a1 1 0 0 1 1 1v33a1 1 0 0 1-1 1h-12.366a1 1 0 0 1-1-1v-33Z" fill="#fff"/><path d="m217.202 15.242-3.513-.18-.017 20.264h3.253v5.683l-3.236-.065v7.131l3.544-.17v-6.776l3.206-.131v-5.915h-3.237V15.242Z" fill="url(#y)"/><path d="m217.202 15.242-3.513-.18-.017 20.264h3.253v5.683l-3.236-.065v7.131l3.544-.17v-6.776l3.206-.131v-5.915h-3.237V15.242Z" fill="url(#z)"/><path d="M209.383 30.506v-5.813l-6.152 10.516 6.153.073v-.133h-2.71l2.709-4.643Z" fill="url(#A)"/><path d="M209.383 30.506v-5.813l-6.152 10.516 6.153.073v-.133h-2.71l2.709-4.643Z" fill="url(#B)"/><defs><linearGradient id="d" x1="176.758" y1="216.184" x2="176.758" y2="245.717" gradientUnits="userSpaceOnUse"><stop stop-color="#fff"/><stop offset="1" stop-color="#F2FCFF"/></linearGradient><linearGradient id="e" x1="176.758" y1="216.184" x2="176.758" y2="245.717" gradientUnits="userSpaceOnUse"><stop stop-color="#EBFAFF"/><stop offset="1" stop-color="#fff"/></linearGradient><linearGradient id="h" x1="176.758" y1="242.574" x2="176.758" y2="286.043" gradientUnits="userSpaceOnUse"><stop stop-color="#fff"/><stop offset="1" stop-color="#EBFAFF"/></linearGradient><linearGradient id="i" x1="387.066" y1="249.336" x2="78.784" y2="249.336" gradientUnits="userSpaceOnUse"><stop stop-color="#CED2EF"/><stop offset=".504" stop-color="#CED2EF" stop-opacity="0"/></linearGradient><linearGradient id="k" x1="212.01" y1="-19.965" x2="136.727" y2="168.536" gradientUnits="userSpaceOnUse"><stop stop-color="#DEE5F8"/><stop offset="1" stop-color="#fff"/></linearGradient><linearGradient id="l" x1="244.868" y1="-19.629" x2="139.586" y2="60.959" gradientUnits="userSpaceOnUse"><stop stop-color="#DEE5F8"/><stop offset="1" stop-color="#fff"/></linearGradient><linearGradient id="m" x1="252.248" y1="-46.069" x2="91.495" y2="49.589" gradientUnits="userSpaceOnUse"><stop stop-color="#fff"/><stop offset="1" stop-color="#EBF0FF"/></linearGradient><linearGradient id="n" x1="196.63" y1="10.421" x2="215.107" y2="64.835" gradientUnits="userSpaceOnUse"><stop stop-color="#FFA9A5"/><stop offset="1" stop-color="#FF5B53"/></linearGradient><linearGradient id="o" x1="204.116" y1="12.83" x2="237.417" y2="84.596" gradientUnits="userSpaceOnUse"><stop stop-color="#FFEF99"/><stop offset="1" stop-color="#FFE144"/></linearGradient><linearGradient id="p" x1="235.901" y1="85.556" x2="177.851" y2="3.525" gradientUnits="userSpaceOnUse"><stop stop-color="#FFA9A5"/><stop offset="1" stop-color="#FF5C54"/></linearGradient><linearGradient id="q" x1="242.579" y1="65.07" x2="171.026" y2="-18.658" gradientUnits="userSpaceOnUse"><stop stop-color="#FFF5BF"/><stop offset="1" stop-color="#DFBC00"/></linearGradient><linearGradient id="r" x1="223.708" y1="32.802" x2="262.458" y2="28.707" gradientUnits="userSpaceOnUse"><stop stop-color="#FFEF99"/><stop offset="1" stop-color="#F0D33D"/></linearGradient><linearGradient id="s" x1="235.415" y1="96.828" x2="189.844" y2="-12.558" gradientUnits="userSpaceOnUse"><stop stop-color="#DFBC00"/><stop offset="1" stop-color="#FFF5BF"/></linearGradient><linearGradient id="t" x1="173.994" y1="69.27" x2="225.478" y2="154.616" gradientUnits="userSpaceOnUse"><stop stop-color="#FFEE96"/><stop offset="1" stop-color="#FEEC8E" stop-opacity="0"/></linearGradient><linearGradient id="u" x1="146.457" y1="77.27" x2="221.169" y2="149.064" gradientUnits="userSpaceOnUse"><stop stop-color="#FFEF99"/><stop offset=".922" stop-color="#F6DF62"/></linearGradient><linearGradient id="v" x1="159.625" y1="69.27" x2="181.665" y2="153.947" gradientUnits="userSpaceOnUse"><stop stop-color="#EBD044"/><stop offset="1" stop-color="#FDF0AE"/></linearGradient><linearGradient id="w" x1="140.87" y1="77.27" x2="215.582" y2="149.064" gradientUnits="userSpaceOnUse"><stop stop-color="#FFEF99"/><stop offset=".922" stop-color="#F6DF62"/></linearGradient><linearGradient id="x" x1="154.039" y1="69.27" x2="176.079" y2="153.947" gradientUnits="userSpaceOnUse"><stop stop-color="#EBD044"/><stop offset="1" stop-color="#FDF0AE"/></linearGradient><linearGradient id="y" x1="217.056" y1="15.063" x2="217.056" y2="48.075" gradientUnits="userSpaceOnUse"><stop stop-color="#E5E5E5"/><stop offset="1" stop-color="#E5E5E5" stop-opacity="0"/></linearGradient><linearGradient id="z" x1="222.308" y1="-46.358" x2="176.085" y2="-17.462" gradientUnits="userSpaceOnUse"><stop stop-color="#fff"/><stop offset="1" stop-color="#F2E9DC"/></linearGradient><linearGradient id="A" x1="206.308" y1="24.693" x2="206.308" y2="35.282" gradientUnits="userSpaceOnUse"><stop stop-color="#E5E5E5"/><stop offset="1" stop-color="#E5E5E5" stop-opacity="0"/></linearGradient><linearGradient id="B" x1="211.083" y1="4.994" x2="196.968" y2="30.012" gradientUnits="userSpaceOnUse"><stop stop-color="#fff"/><stop offset="1" stop-color="#F2E9DC"/></linearGradient><radialGradient id="a" cx="0" cy="0" r="1" gradientUnits="userSpaceOnUse" gradientTransform="scale(164.518 118.368) rotate(90 -.486 1.51)"><stop stop-color="#7E32A2"/><stop offset="1" stop-color="#fff" stop-opacity="0"/></radialGradient><radialGradient id="c" cx="0" cy="0" r="1" gradientUnits="userSpaceOnUse" gradientTransform="matrix(0 18.0563 -168.237 0 176.763 257.934)"><stop stop-color="#502F96"/><stop offset="1" stop-color="#C4C4C4" stop-opacity="0"/></radialGradient><radialGradient id="g" cx="0" cy="0" r="1" gradientUnits="userSpaceOnUse" gradientTransform="matrix(0 8.69781 -70.8338 0 173.521 232.469)"><stop stop-color="#3D74B5"/><stop offset="1" stop-color="#C4C4C4" stop-opacity="0"/></radialGradient><filter id="b" x=".526" y="231.877" width="352.474" height="52.113" filterUnits="userSpaceOnUse" color-interpolation-filters="sRGB"><feFlood flood-opacity="0" result="BackgroundImageFix"/><feBlend in="SourceGraphic" in2="BackgroundImageFix" result="shape"/><feGaussianBlur stdDeviation="4" result="effect1_foregroundBlur_1301_332092"/></filter><filter id="f" x="92.853" y="212.516" width="161.337" height="39.907" filterUnits="userSpaceOnUse" color-interpolation-filters="sRGB"><feFlood flood-opacity="0" result="BackgroundImageFix"/><feBlend in="SourceGraphic" in2="BackgroundImageFix" result="shape"/><feGaussianBlur stdDeviation="5" result="effect1_foregroundBlur_1301_332092"/></filter><filter id="j" x="91.274" y="12.063" width="154.926" height="190.365" filterUnits="userSpaceOnUse" color-interpolation-filters="sRGB"><feFlood flood-opacity="0" result="BackgroundImageFix"/><feGaussianBlur in="BackgroundImageFix" stdDeviation="5"/><feComposite in2="SourceAlpha" operator="in" result="effect1_backgroundBlur_1301_332092"/><feBlend in="SourceGraphic" in2="effect1_backgroundBlur_1301_332092" result="shape"/></filter></defs></svg>