<svg width="354" height="355" fill="none" xmlns="http://www.w3.org/2000/svg"><path d="m204.972.594-6.651 2.774-5.644 4.553L204.972.594Z" fill="#C4C4C4"/><path d="m228.313 4.41 2.639.416-3.246-1.675.607 1.259ZM215.224.488l3.6.603-.798-.134-2.802-.469Z" fill="#B0B0B0"/><path d="M219.467 1.8 204.972.595 192.677 7.92l26.79-6.12Z" fill="#C4C4C4"/><path d="m218.823 1.091 3.471 1.173-.697-.71-2.774-.463Zm9.489 3.319 3.059 2.203-.42-1.787-2.639-.416Z" fill="#B0B0B0"/><path d="M237.399 28.328 219.467 1.8l-26.79 6.12 44.722 20.408Z" fill="#C4C4C4"/><path d="m231.294 11.774-5.389-5.97-6.439-4.004 11.828 9.974Zm6.107 16.554-2.148-8.922-3.957-7.632 6.105 16.554Z" fill="#C4C4C4"/><g filter="url(#a)"><path d="m205.104 26.242 4.242.055.135-.608-4.377.553Zm.136-.614 4.241.06.158-.555-4.399.495Zm.159-.562 4.24.067.182-.504-4.422.437Zm.182-.508 4.24.07.204-.451-4.444.38Zm.205-.456 4.239.075.227-.4-4.466.325Zm.227-.403 4.239.079.25-.347-4.489.268Zm.252-.35 4.238.082.273-.295-4.511.213Zm.274-.299 4.238.086.296-.242-4.534.157Z" fill="#E5E5E5"/><path d="m203.286 20.927-.72 1.653-.432 1.943 1.152-3.596Zm-.396.79-.171.422-.153.44.324-.862Z" fill="#fff"/><path d="m203.287 20.927-.397.79-.324.863.721-1.653Zm-.002 0-.207.386-.189.404.396-.79Zm.47-.717-.244.35-.225.367.469-.718Z" fill="#fff"/><path d="m205.568 18.518-2.282 2.41-1.152 3.595 3.434-6.005Zm-1.271 1.046-.542.646-.469.717 1.011-1.363Zm0 0-.28.314-.262.332.542-.646Zm-2.163 4.959 2.971 1.72.136-.615-3.107-1.105Z" fill="#fff"/><path d="m202.134 24.523 3.107 1.105.158-.561-3.265-.544Z" fill="#fff"/><path d="m202.134 24.523 3.265.544.182-.51-3.447-.034Zm3.434-6.005-1.27 1.046-1.012 1.363 2.282-2.409Z" fill="#fff"/><path d="m206.539 23.05-.274.298 4.511-.212-4.237-.085Z" fill="#E5E5E5"/><path d="m202.134 24.523 3.447.035.205-.456-3.652.42Z" fill="#fff"/><path d="m204.91 18.991-.312.274-.3.3.612-.574Zm-2.776 5.532 3.652-.42.228-.404-3.88.824Z" fill="#fff"/><path d="m202.134 24.523 3.88-.824.251-.35-4.131 1.174Z" fill="#fff"/><path d="m202.134 24.523 4.405-1.472.297-.245-4.702 1.716Zm3.434-6.005-.335.224-.323.25.658-.474Z" fill="#fff"/><path d="m202.134 24.523 4.702-1.716.321-.192-5.023 1.908Zm0 0 5.023-1.909.344-.138-5.367 2.047Zm4.139-6.378-.359.174-.346.199.705-.373Z" fill="#fff"/><path d="m207.024 17.873-.751.272-.705.373 1.456-.645Z" fill="#fff"/><path d="m212.039 18.544-6.471-.026-3.434 6.005 9.905-5.979Zm-5.015-.671-.382.123-.369.149.751-.272Z" fill="#fff"/><path d="m208.668 17.63-1.644.243-1.456.645 3.1-.887Z" fill="#fff"/><path d="m211.304 18.128 4.224.131-.394-.16-3.83.029Z" fill="#E5E5E5"/><path d="m207.822 17.701-.405.073-.394.099.799-.172Z" fill="#fff"/><path d="m211.68 18.32 4.223.13-.376-.19-3.847.06Z" fill="#E5E5E5"/><path d="m208.667 17.63-.845.071-.799.172 1.644-.242Z" fill="#fff"/><path d="m212.038 18.545 4.222.128-.358-.222-3.864.094Zm-1.543-.709.413.13 3.814.005-4.227-.135Z" fill="#E5E5E5"/><path d="m212.039 18.545-3.371-.914-3.1.887 6.471.027Z" fill="#fff"/><path d="m212.839 33.479 4.219-.013.151-.32-4.37.333Zm.167-14.072 4.218.12-.302-.316-3.916.197Zm.131 13.415 4.219-.006.145-.339-4.364.345Zm.154-13.063 4.218.116-.285-.347-3.933.23Z" fill="#E5E5E5"/><path d="m212.039 18.545-4.538 3.93.368-.085 4.17-3.845Zm-2.421-.874-.466-.036-.484-.004.95.04Z" fill="#fff"/><path d="m213.284 32.48 4.218-.003.142-.347-4.36.35Z" fill="#E5E5E5"/><path d="m212.039 18.545-4.17 3.845.391-.033 3.779-3.812Z" fill="#fff"/><path d="m213.556 20.125 4.217.114-.264-.364-3.953.25Zm-.13 12.004h4.218l.139-.355-4.357.355Zm-2.122-14.002.376.193 3.848-.06-4.224-.133Zm2.262 13.643 4.217.004.136-.365-4.353.361Z" fill="#E5E5E5"/><path d="m212.039 18.545-3.779 3.812.22.004 3.559-3.816Zm-1.543-.709-.878-.165-.95-.04 1.828.205Z" fill="#fff"/><path d="m213.797 20.506 4.217.11-.242-.377-3.975.267Zm-.096 10.896 4.217.007.133-.373-4.35.366Z" fill="#E5E5E5"/><path d="m212.039 18.545-3.559 3.816.212.017 3.347-3.833Z" fill="#fff"/><path d="m214.016 20.9 4.216.107-.219-.39-3.997.284Z" fill="#E5E5E5"/><path d="m212.038 18.545-3.346 3.833.203.031 3.143-3.864Zm0 0-2.948 3.91.186.058 2.762-3.968Z" fill="#fff"/><path d="m214.216 29.842 4.216.022.117-.415-4.333.393Zm.171-8.11 4.215.099-.173-.419-4.042.32Z" fill="#E5E5E5"/><path d="m212.039 18.545-2.762 3.968.178.073 2.584-4.041Z" fill="#fff"/><path d="m208.865 33.097-.514.906 5.351-2.6-4.837 1.694Zm3.174-14.552-2.584 4.04.169.087 2.415-4.127Z" fill="#fff"/><path d="m214.441 29.007 4.214.03.097-.408-4.311.378Z" fill="#E5E5E5"/><path d="m212.038 18.545-1.542-.709-1.828-.205 3.37.914Z" fill="#fff"/><path d="m214.537 22.168 4.214.094-.15-.432-4.064.338Z" fill="#E5E5E5"/><path d="m212.039 18.545-2.415 4.127.16.1 2.255-4.227Z" fill="#fff"/><path d="m214.539 28.596 4.214.033.087-.403-4.301.37Zm.125-5.978 4.214.09-.127-.446-4.087.356Zm-.038 5.57 4.214.038.076-.4-4.29.362Z" fill="#E5E5E5"/><path d="m212.038 18.545-2.254 4.228.151.114 2.103-4.342Z" fill="#fff"/><path d="m212.683 33.795-.157.306 4.377-.322-4.22.016Zm2.019-6.01 4.214.04.066-.395-4.28.355Zm.066-4.703 4.213.085-.104-.459-4.109.374Z" fill="#E5E5E5"/><path d="m212.039 18.545-2.103 4.342.143.128 1.96-4.47Z" fill="#fff"/><path d="m214.768 27.385 4.214.045.056-.392-4.27.347Zm.08-3.826 4.214.081-.081-.472-4.133.391Zm-2.01 9.92-.155.315 4.374-.327-4.219.012Zm1.986-6.49 4.214.05.046-.388-4.26.339Zm-2.123-7.9.303.319 3.916-.196-4.219-.124Z" fill="#E5E5E5"/><path d="m212.038 18.545-1.96 4.47.135.142 1.825-4.612Z" fill="#fff"/><path d="m214.871 26.598 4.213.053.036-.384-4.249.331Zm.035-2.548 4.213.077-.057-.486-4.156.41Zm.001 2.16 4.213.057.025-.38-4.238.324Zm.034-1.655 4.213.072-.035-.5-4.178.428Z" fill="#E5E5E5"/><path d="m214.932 25.828 4.213.06.015-.376-4.228.316Z" fill="#E5E5E5"/><path d="m212.038 18.545-1.826 4.612.125.156 1.701-4.768Z" fill="#fff"/><path d="m214.954 25.073 4.213.067-.012-.513-4.201.446Zm-.005.375 4.213.064.005-.372-4.218.308Z" fill="#E5E5E5"/><path d="m211.303 18.128-.395-.162-.413-.13.808.292Z" fill="#fff"/><path d="m212.99 33.154-.151.325 4.37-.334-4.219.01Z" fill="#E5E5E5"/><path d="m213.138 32.822-.149.333 4.367-.34-4.218.007Zm-.134-13.414.286.35 3.933-.23-4.219-.12Z" fill="#E5E5E5"/><path d="m212.038 18.545-1.478 5.116.096.19 1.382-5.306Zm0 0-1.382 5.307.086.201 1.296-5.508Zm-1.953 11.98-.353.833 3.969.044-3.616-.877Zm1.953-11.98-1.296 5.508.075.213 1.221-5.721Z" fill="#fff"/><path d="m213.283 32.48-.146.342 4.364-.345-4.218.003Z" fill="#E5E5E5"/><path d="m213.426 32.13-.142.35 4.36-.35h-4.218Zm-.135-12.372.265.367 3.953-.25-4.218-.117Zm.275 12.012-.139.36 4.356-.356-4.217-.004Z" fill="#E5E5E5"/><path d="m210.629 28.936-.245.782 3.317 1.684-3.072-2.466Z" fill="#fff"/><path d="m213.554 20.125.243.381 3.975-.267-4.218-.114Zm.147 11.277-.137.368 4.354-.36-4.217-.008Zm.096-10.896.22.395 3.997-.285-4.217-.11Zm.168 10.133-.13.386 4.346-.371-4.216-.015Z" fill="#E5E5E5"/><path d="m214.093 30.245-.127.395 4.343-.377-4.216-.018Zm-.075-9.344.196.408 4.019-.302-4.215-.106Zm.199 8.941-.124.403 4.34-.38-4.216-.023Zm-.004-8.532.173.422 4.042-.32-4.215-.103Zm.121 8.112-.118.42 4.333-.394-4.215-.026Z" fill="#E5E5E5"/><path d="m214.44 29.007-.107.416 4.322-.386-4.215-.03Z" fill="#E5E5E5"/><path d="m212.7 19.088-.322-.287-.34-.256.662.543Z" fill="#fff"/><path d="m214.387 21.732.15.436 4.065-.337-4.215-.1Zm.151 6.864-.097.411 4.311-.378-4.214-.033Zm-.002-6.428.127.45 4.087-.356-4.214-.094Zm.089 6.02-.087.408 4.301-.37-4.214-.038Zm.076-.403-.076.403 4.29-.362-4.214-.041Zm-.038-5.167.104.464 4.11-.374-4.214-.09Z" fill="#E5E5E5"/><path d="m213.29 19.759-.59-.67-.662-.544 1.252 1.214Zm-.765 14.342.158-.306.154-.316-.312.622Z" fill="#fff"/><path d="m214.769 27.385-.067.4 4.28-.354-4.213-.046Zm-.001-4.303.081.477 4.132-.391-4.213-.086Zm.057 3.908-.056.395 4.269-.346-4.213-.05Zm.046-.391-.046.39 4.259-.338-4.213-.052Zm-.022-3.04.057.491 4.156-.41-4.213-.08Z" fill="#E5E5E5"/><path d="m212.526 34.101.312-.622.3-.657-.612 1.28Z" fill="#fff"/><path d="m214.907 26.21-.036.388 4.249-.33-4.213-.057Zm-.001-2.16.035.505 4.178-.428-4.213-.077Zm.026 1.777-.025.384 4.238-.324-4.213-.06Zm.016-.379-.016.38 4.229-.316-4.213-.064Zm-.007-.893.012.518 4.201-.446-4.213-.072Zm.012.518-.005.375 4.218-.308-4.213-.067Z" fill="#E5E5E5"/><path d="m212.837 33.48.152-.325.148-.333-.3.657Zm.453-13.721-.286-.351-.304-.32.59.67Zm-.765 14.342.612-1.28.564-1.419-1.176 2.7Zm1.687-12.791-.922-1.551-1.252-1.214 2.174 2.764Zm-1.075 11.512.146-.342.142-.35-.288.692Zm0 0 .288-.692.276-.728-.564 1.42Zm.66-12.316-.242-.38-.265-.367.507.747Zm-.372 11.624.14-.36.136-.368-.276.728Zm.276-.728 1.251-6.329-2.914-6.528 1.663 12.857Zm1.251-6.329-.74-3.764-2.174-2.764 2.914 6.528Zm-.74-3.764-.415-.803-.507-.747.922 1.55Z" fill="#fff"/><path d="m213.701 31.402.133-.377.13-.386-.263.763Zm0 0 .263-.763.252-.797-.515 1.56Zm.511-10.093-.196-.409-.219-.394.415.803Zm-.248 9.33.128-.394.124-.403-.252.797Zm-.263.763.515-1.56.409-1.654-.924 3.214Zm.515-1.56.117-.42.108-.415-.225.835Zm.32-7.674-.151-.436-.173-.423.324.859Zm-.835 9.234.924-3.214.327-3.115-1.251 6.329Zm.515-1.56.225-.835.184-.819-.409 1.654Zm.551-6.76-.231-.914-.324-.859.555 1.772Zm-.326 5.925.097-.412.087-.407-.184.819Zm.511-3.934-.185-1.992-.555-1.772.74 3.764Zm-.185-1.992-.104-.463-.127-.45.231.913Zm-.142 5.107.076-.404.067-.4-.143.804Zm0 0 .143-.803.102-.787-.245 1.59Zm0 0 .245-1.59.082-1.525-.327 3.115Zm.143-.803.056-.396.046-.391-.102.787Zm.138-3.335-.058-.491-.081-.478.139.969Zm.046 1.023-.046-1.023-.139-.969.185 1.992Zm-.082 1.525.036-.387.026-.384-.062.77Zm0 0 .062-.77.02-.755-.082 1.525Zm.082-1.525-.011-.518-.035-.505.046 1.023Zm-.02.754.015-.379.005-.375-.02.754Z" fill="#fff"/></g><path d="m209.342 26.298-4.234-.058c.075-.446.364-1.344.499-1.737.162-.362.572-1.158.919-1.448.377-.282.717-.615 1.709-.695.793-.063 1.508.36 1.766.58.135.144.415.458.456.557-.681.854-.96 2.109-1.115 2.801Z" fill="url(#b)"/><path d="m209.342 26.298-4.234-.058c.075-.446.364-1.344.499-1.737.162-.362.572-1.158.919-1.448.377-.282.717-.615 1.709-.695.793-.063 1.508.36 1.766.58.135.144.415.458.456.557-.681.854-.96 2.109-1.115 2.801Z" fill="url(#c)"/><ellipse cx="168.816" cy="236.148" rx="164.518" ry="118.368" fill="url(#d)" fill-opacity=".1"/><g filter="url(#e)"><ellipse cx="177.168" cy="257.934" rx="168.237" ry="18.056" fill="url(#f)" fill-opacity=".5"/></g><path d="m78.326 250.139.262 3.162.847 1.968-1.11-5.13Zm196.827 1.972-.26 3.158.848-1.968-.588-1.19Zm-195.978 0 .26 3.158 2.573 1.891-2.833-5.049Zm193.398 1.894-.253 3.155 2.573-1.891-2.32-1.264Zm3.43-3.866-.85 1.972.588 1.19.262-3.162Zm-194.248 3.866.254 3.155 4.185 1.794-4.439-4.949Zm-2.58-1.894-.85-1.972 1.11 5.13-.26-3.158Zm189.202 3.692-.243 3.151 4.186-1.794-3.943-1.357Zm6.776-3.692-2.58 1.894 2.32 1.264.26-3.158Zm-189.201 3.692.242 3.151 5.681 1.681-5.923-4.832Zm-4.197-1.798-2.58-1.894 2.834 5.049-.254-3.155Zm180.925 3.481-.227 3.149 5.681-1.681-5.454-1.468Zm9.893-3.481-4.196 1.798 3.943 1.357.253-3.155Zm-180.925 3.481.228 3.149 7.062 1.549-7.29-4.698Zm-5.696-1.683-4.197-1.798 4.439 4.949-.242-3.151Zm169.647 3.235-.209 3.146 7.063-1.549-6.854-1.597Zm-156.87 0 .209 3.146 8.326 1.4-8.535-4.546Zm169.648-3.235-5.697 1.683 5.454 1.468.243-3.151Zm-21.127 4.638-.186 3.143 8.326-1.4-8.14-1.743Zm-155.602-2.955-5.696-1.683 5.924 4.832-.228-3.149ZM78.062 246.96l.264 3.179.849 1.972-1.113-5.151Zm29.016 13.481.186 3.143 9.473 1.233-9.659-4.376Zm168.336-11.505-.261 3.175.85-1.972-.589-1.203Zm-12.734 8.55-7.081 1.552 6.854 1.597.227-3.149Zm-24.928 4.19-.161 3.141 9.473-1.233-9.312-1.908Zm-139.023-2.638-7.08-1.552 7.289 4.698-.209-3.146Zm17.847 2.638.161 3.141 10.503 1.049-10.664-4.19Zm110.646 1.051-.134 3.139 10.503-1.049-10.369-2.09ZM78.914 248.936l.26 3.175 2.581 1.894-2.841-5.069Zm176.685 10.102-8.349 1.403 8.14 1.743.209-3.146Zm-128.492 3.689.133 3.139 11.413.846-11.546-3.985Zm145.72-11.893-.254 3.171 2.58-1.894-2.326-1.277Zm-165.749 9.607-8.349-1.403 8.535 4.546-.186-3.143Zm108.7 3.134-.103 3.137 11.413-.846-11.31-2.291Zm-77.228 0 .103 3.137 12.205.626-12.308-3.763Zm137.716-16.615-.852 1.976.589 1.203.263-3.179Zm-72.726 17.242-.07 3.136 12.205-.626-12.135-2.51Zm43.71-3.761-9.498 1.235 9.312 1.908.186-3.143Zm-96.462 3.761.07 3.136 12.877.389-12.947-3.525Zm-69.287-13.368.254 3.171 4.197 1.798-4.451-4.969Zm109.128 13.757-.036 3.136 12.877-.389-12.841-2.747ZM78.914 248.936l-.852-1.976 1.113 5.151-.261-3.175Zm37.662 12.74-9.498-1.235 9.659 4.376-.161-3.141Zm47.123 2.915.036 3.136 13.429.133-13.465-3.269Zm13.465.134v3.135l13.429-.133-13.429-3.002Zm91.456-12.091-.243 3.169 4.196-1.798-3.953-1.371Zm-30.868 9.042-10.53 1.051 10.369 2.09.161-3.141Zm-110.645 1.051-10.531-1.051 10.664 4.19-.133-3.139Zm148.307-13.791-2.587 1.898 2.326 1.277.261-3.175Zm-189.706 3.698.244 3.169 5.696 1.683-5.94-4.852Zm141.514 10.093-11.444.848 11.31 2.291.134-3.139ZM81.501 250.834l-2.587-1.898 2.841 5.069-.254-3.171Zm57.049 12.741-11.443-.848 11.546 3.985-.103-3.137Zm124.358-9.254-.228 3.165 5.697-1.683-5.469-1.482Zm-47.13 9.254-12.238.627 12.135 2.51.103-3.137Zm-64.99.627-12.238-.627 12.308 3.763-.07-3.136Zm52.752 0-12.911.389 12.841 2.747.07-3.136Zm69.287-13.368-4.207 1.8 3.953 1.371.254-3.171Zm-109.128 13.757-12.911-.389 12.947 3.525-.036-3.136Zm-72.279-10.27.228 3.165 7.081 1.552-7.309-4.717Zm99.209 10.27-13.465.134 13.429 3.002.036-3.136Zm-13.465.134-13.465-.134 13.465 3.269v-3.135Zm-91.456-12.091-4.207-1.8 4.45 4.969-.243-3.169Zm170.1 3.242-.209 3.162 7.081-1.552-6.872-1.61Zm-157.288 0 .21 3.162 8.348 1.403-8.558-4.565Zm170.1-3.242-5.712 1.687 5.469 1.482.243-3.169Zm-21.182 4.647-.188 3.16 8.349-1.403-8.161-1.757Zm-156.018-2.96-5.712-1.687 5.94 4.852-.228-3.165Zm-13.623-10.556.265 3.195.852 1.976-1.117-5.171Zm29.093 13.516.188 3.16 9.498 1.235-9.686-4.395Zm168.787-11.537-.263 3.192.852-1.976-.589-1.216Zm-12.769 8.577-7.1 1.555 6.872 1.61.228-3.165Zm-24.994 4.198-.162 3.157 9.498-1.235-9.336-1.922ZM98.52 255.876l-7.1-1.555 7.31 4.717-.21-3.162Zm17.894 2.643.162 3.157 10.531 1.051-10.693-4.208Zm110.941 1.052-.133 3.156 10.53-1.051-10.397-2.105ZM78.651 245.744l.263 3.192 2.587 1.898-2.85-5.09Zm177.157 10.132-8.37 1.405 8.161 1.757.209-3.162Zm-128.835 3.695.134 3.156 11.443.848-11.577-4.004Zm146.11-11.926-.256 3.189 2.587-1.898-2.331-1.291Zm-166.193 9.636-8.37-1.405 8.558 4.565-.188-3.16Zm108.991 3.139-.103 3.155 11.444-.848-11.341-2.307Zm-77.434 0 .103 3.155 12.238.627-12.341-3.782Zm138.084-16.655-.854 1.979.589 1.216.265-3.195Zm-72.92 17.284-.071 3.153 12.238-.627-12.167-2.526Zm43.827-3.768-9.524 1.238 9.336 1.922.188-3.16Zm-96.721 3.768.071 3.153 12.911.389-12.982-3.542Zm-69.472-13.404.256 3.189 4.207 1.8-4.463-4.989Zm109.42 13.794-.036 3.152 12.911-.389-12.875-2.763ZM78.651 245.744l-.854-1.979 1.117 5.171-.263-3.192Zm37.763 12.775-9.524-1.238 9.686 4.395-.162-3.157Zm47.249 2.92.036 3.152 13.465.134-13.501-3.286Zm13.501.134v3.152l13.465-.134-13.465-3.018Zm91.701-12.124-.245 3.185 4.207-1.8-3.962-1.385Zm-30.951 9.07-10.559 1.052 10.397 2.105.162-3.157Zm-110.941 1.052-10.559-1.052 10.693 4.208-.134-3.156Zm148.704-13.827-2.594 1.901 2.331 1.291.263-3.192Zm-190.214 3.705.245 3.185 5.712 1.687-5.957-4.872Zm141.892 10.122-11.474.849 11.341 2.307.133-3.156Zm-146.11-11.926-2.594-1.901 2.85 5.09-.256-3.189Zm57.202 12.775-11.474-.849 11.577 4.004-.103-3.155Zm124.691-9.281-.23 3.182 5.712-1.687-5.482-1.495Zm-47.257 9.281-12.27.629 12.167 2.526.103-3.155Zm-65.164.629-12.27-.629 12.341 3.782-.071-3.153Zm52.894 0-12.946.39 12.875 2.763.071-3.153Zm69.472-13.404-4.218 1.804 3.962 1.385.256-3.189Zm-109.42 13.794-12.946-.39 12.982 3.542-.036-3.152Zm-72.473-10.3.23 3.182 7.1 1.555-7.33-4.737Zm99.475 10.3-13.501.134 13.465 3.018.036-3.152Zm-13.501.134-13.501-.134 13.501 3.286v-3.152Zm-91.7-12.124-4.22-1.804 4.464 4.989-.245-3.185Zm170.555 3.247-.211 3.18 7.1-1.555-6.889-1.625Zm-157.71 0 .21 3.18 8.371 1.405-8.58-4.585Zm170.556-3.247-5.727 1.69 5.482 1.495.245-3.185Zm-21.239 4.655-.188 3.177 8.37-1.405-8.182-1.772ZM91.19 251.139l-5.727-1.69 5.957 4.872-.23-3.182Zm-13.659-10.587.266 3.213.854 1.979-1.12-5.192Zm29.171 13.552.188 3.177 9.524 1.238-9.712-4.415Zm169.239-11.569-.264 3.209.854-1.979-.59-1.23Zm-12.803 8.604-7.119 1.557 6.889 1.625.23-3.182Zm-25.061 4.205-.163 3.175 9.524-1.238-9.361-1.937Zm-139.768-2.648-7.119-1.557 7.33 4.737-.21-3.18Zm17.942 2.648.163 3.175 10.559 1.052-10.722-4.227Zm111.239 1.054-.135 3.173 10.559-1.052-10.424-2.121ZM78.387 242.535l.264 3.209 2.594 1.901-2.858-5.11Zm177.632 10.161-8.393 1.408 8.182 1.772.211-3.18Zm-129.181 3.702.135 3.173 11.474.849-11.609-4.022Zm146.502-11.959-.257 3.206 2.594-1.901-2.337-1.305Zm-166.638 9.665-8.393-1.408 8.581 4.585-.188-3.177Zm109.283 3.145-.104 3.171 11.474-.849-11.37-2.322Zm-77.642 0 .104 3.171 12.27.629-12.374-3.8Zm138.454-16.697-.856 1.983.59 1.23.266-3.213Zm-73.115 17.327-.071 3.17 12.27-.629-12.199-2.541Zm43.944-3.775-9.549 1.24 9.361 1.937.188-3.177Zm-96.98 3.775.071 3.17 12.946.39-13.017-3.56Zm-69.658-13.44.257 3.206 4.218 1.804-4.475-5.01ZM190.7 258.27l-.036 3.169 12.946-.39-12.91-2.779ZM78.387 242.535l-.856-1.983 1.12 5.192-.264-3.209Zm37.864 12.809-9.549-1.24 9.712 4.415-.163-3.175Zm47.376 2.926.036 3.169 13.501.134-13.537-3.303Zm13.537.134v3.169l13.501-.134-13.501-3.035Zm91.947-12.157-.246 3.202 4.218-1.804-3.972-1.398Zm-31.034 9.097-10.587 1.054 10.424 2.121.163-3.175Zm-111.239 1.054-10.587-1.054 10.722 4.227-.135-3.173Zm149.103-13.863-2.601 1.904 2.337 1.305.264-3.209Zm-190.724 3.712.246 3.202 5.727 1.69-5.973-4.892Zm142.273 10.151-11.505.851 11.37 2.322.135-3.173ZM80.988 244.439l-2.601-1.904 2.858 5.11-.257-3.206Zm57.355 12.81-11.505-.851 11.609 4.022-.104-3.171Zm125.026-9.31-.231 3.2 5.727-1.69-5.496-1.51Zm-47.384 9.31-12.303.63 12.199 2.541.104-3.171Zm-65.339.63-12.303-.63 12.374 3.8-.071-3.17Zm53.036 0-12.981.391 12.91 2.779.071-3.17Zm69.658-13.44-4.229 1.808 3.972 1.398.257-3.206ZM163.627 258.27l-12.981-.391 13.017 3.56-.036-3.169ZM90.96 247.939l.23 3.2 7.12 1.557-7.35-4.757Zm99.74 10.331-13.537.134 13.501 3.035.036-3.169Zm-13.537.134-13.537-.134 13.537 3.303v-3.169Zm-91.947-12.157-4.23-1.808 4.476 5.01-.246-3.202ZM256.23 249.5l-.212 3.196 7.119-1.557-6.907-1.639Zm-158.134 0 .212 3.196 8.393 1.408-8.605-4.604Zm171.014-3.253-5.742 1.692 5.496 1.51.246-3.202Zm-21.296 4.663-.189 3.194 8.393-1.408-8.204-1.786ZM90.96 247.939l-5.743-1.692 5.973 4.892-.23-3.2Zm-13.697-10.617.268 3.23.856 1.983-1.124-5.213Zm29.25 13.588.189 3.194 9.549 1.24-9.738-4.434Zm169.694-11.601-.266 3.226.856-1.983-.59-1.243Zm-12.838 8.63-7.138 1.561 6.907 1.639.231-3.2Zm-25.128 4.213-.164 3.192 9.549-1.24-9.385-1.952ZM98.097 249.5l-7.137-1.561 7.35 4.757-.213-3.196Zm17.991 2.652.163 3.192 10.587 1.054-10.75-4.246Zm111.537 1.056-.135 3.19 10.587-1.054-10.452-2.136ZM78.121 239.309l.266 3.226 2.6 1.904-2.865-5.13Zm178.11 10.191-8.416 1.41 8.204 1.786.212-3.196Zm-129.528 3.708.135 3.19 11.505.851-11.64-4.041Zm146.896-11.991-.259 3.222 2.601-1.904-2.342-1.318Zm-167.086 9.693-8.416-1.41 8.605 4.604-.189-3.194Zm109.576 3.151-.104 3.188 11.505-.851-11.401-2.337Zm-77.85 0 .104 3.188 12.303.63-12.407-3.818Zm138.826-16.739-.858 1.987.59 1.243.268-3.23Zm-73.312 17.37-.071 3.187 12.303-.63-12.232-2.557Zm44.062-3.782-9.574 1.242 9.385 1.952.189-3.194Zm-97.24 3.782.071 3.187 12.981.391-13.052-3.578Zm-69.846-13.475.259 3.222 4.23 1.808-4.489-5.03Zm110.009 13.866-.037 3.187 12.981-.391-12.944-2.796ZM78.121 239.309l-.858-1.987 1.124 5.213-.266-3.226Zm37.967 12.843-9.575-1.242 9.738 4.434-.163-3.192Zm47.503 2.931.036 3.187 13.537.134-13.573-3.321Zm13.573.135v3.186l13.537-.134-13.537-3.052Zm92.194-12.191-.247 3.22 4.229-1.808-3.982-1.412Zm-31.117 9.125-10.616 1.056 10.452 2.136.164-3.192Zm-111.538 1.056-10.615-1.056 10.75 4.246-.135-3.19Zm149.504-13.899-2.608 1.908 2.342 1.318.266-3.226ZM84.97 243.027l.247 3.22 5.743 1.692-5.99-4.912Zm142.655 10.181-11.536.853 11.401 2.337.135-3.19ZM80.729 241.217l-2.608-1.908 2.867 5.13-.259-3.222Zm57.51 12.844-11.536-.853 11.64 4.041-.104-3.188Zm125.362-9.338-.232 3.216 5.742-1.692-5.51-1.524Zm-47.512 9.338-12.336.631 12.232 2.557.104-3.188Zm-65.514.631-12.336-.631 12.407 3.818-.071-3.187Zm53.178 0-13.015.391 12.944 2.796.071-3.187Zm69.846-13.475-4.241 1.81 3.982 1.412.259-3.222Zm-110.008 13.866-13.016-.391 13.052 3.578-.036-3.187Zm-72.863-10.36.232 3.216 7.137 1.561-7.37-4.777Zm100.01 10.36-13.574.135 13.537 3.052.037-3.187Zm-13.574.135-13.573-.135 13.573 3.321v-3.186ZM84.97 243.027l-4.241-1.81 4.488 5.03-.247-3.22Zm171.474 3.259-.213 3.214 7.138-1.561-6.925-1.653Zm-158.56 0 .213 3.214 8.416 1.41-8.629-4.624Zm171.474-3.259-5.757 1.696 5.51 1.524.247-3.22Zm-21.352 4.672-.191 3.211 8.416-1.41-8.225-1.801Zm-157.278-2.976-5.758-1.696 5.99 4.912-.232-3.216Zm-13.734-10.648.27 3.247.858 1.987-1.128-5.234Zm29.328 13.624.191 3.211 9.575 1.242-9.766-4.453Zm170.152-11.634-.267 3.244.858-1.987-.591-1.257Zm-12.873 8.658-7.157 1.563 6.925 1.653.232-3.216Zm-25.196 4.22-.164 3.209 9.574-1.242-9.41-1.967Z" fill="#B0B0B0"/><path d="m190.736 216.317-13.575-.133-13.575.133h27.15Z" fill="#C4C4C4"/><path d="m97.882 246.286-7.157-1.563 7.37 4.777-.213-3.214Z" fill="#B0B0B0"/><path d="m216.112 217.33-25.376-1.013h-27.15l52.526 1.013Z" fill="#C4C4C4"/><path d="m115.919 248.944.164 3.209 10.615 1.056-10.779-4.265Z" fill="#B0B0B0"/><path d="m163.588 216.317-13.023.388-12.353.625 25.376-1.013Zm52.526 1.013-12.354-.625-13.023-.388 25.377 1.013Z" fill="#C4C4C4"/><path d="m227.759 250.001-.136 3.207 10.615-1.056-10.479-2.151ZM77.852 236.065l.267 3.244 2.608 1.908-2.875-5.152Zm178.589 10.221-8.438 1.413 8.225 1.801.213-3.214Z" fill="#B0B0B0"/><path d="m163.587 216.317-25.376 1.013-22.229 1.892 47.605-2.905Zm52.526 1.013-52.526-1.013-47.605 2.905 100.131-1.892Z" fill="#C4C4C4"/><path d="m126.562 250.002.136 3.207 11.535.853-11.671-4.06Zm147.292-12.025-.26 3.24 2.607-1.907-2.347-1.333ZM106.317 247.7l-8.438-1.413 8.629 4.624-.191-3.211Zm109.872 3.156-.105 3.206 11.536-.853-11.431-2.353Z" fill="#B0B0B0"/><path d="m138.211 217.329-11.567.845-10.662 1.048 22.229-1.893Zm100.131 1.893-10.662-1.048-11.567-.845 22.229 1.893Z" fill="#C4C4C4"/><path d="m138.134 250.855.105 3.206 12.336.631-12.441-3.837Zm139.2-16.78-.86 1.99.591 1.257.269-3.247Zm-73.509 17.412-.072 3.205 12.336-.631-12.264-2.574Zm44.181-3.788-9.601 1.244 9.41 1.967.191-3.211Zm-97.503 3.788.072 3.205 13.016.391-13.088-3.596Zm-70.034-13.511.26 3.241 4.241 1.81-4.501-5.051Zm110.305 13.904-.036 3.203 13.015-.391-12.979-2.812Zm-112.92-15.815-.86-1.99 1.127 5.234-.266-3.244Zm38.069 12.878-9.601-1.244 9.766 4.453-.165-3.209Zm47.631 2.937.037 3.203 13.573.135-13.61-3.338Zm13.61.134v3.204l13.574-.135-13.574-3.069Z" fill="#B0B0B0"/><path d="m256.475 221.859-18.136-2.637-22.229-1.893 40.365 4.53Z" fill="#C4C4C4"/><path d="m269.602 239.79-.248 3.237 4.241-1.81-3.993-1.427Zm-31.201 9.153-10.644 1.058 10.479 2.151.165-3.209Zm-111.839 1.058-10.643-1.058 10.779 4.265-.136-3.207Zm149.907-13.936-2.614 1.911 2.347 1.333.267-3.244Z" fill="#B0B0B0"/><path d="m115.981 219.222-9.639 1.234-8.497 1.402 18.136-2.636Zm140.497 2.636-8.497-1.402-9.639-1.234 18.136 2.636Z" fill="#C4C4C4"/><path d="m84.719 239.79.249 3.237 5.757 1.696-6.006-4.933Zm143.04 10.211-11.567.854 11.431 2.353.136-3.207ZM80.467 237.976l-2.615-1.911 2.874 5.152-.26-3.241Zm57.664 12.879-11.567-.854 11.672 4.06-.105-3.206Zm125.7-9.366-.233 3.234 5.758-1.696-5.525-1.538Zm-47.639 9.366-12.37.632 12.265 2.574.105-3.206Z" fill="#B0B0B0"/><path d="m276.631 228.819-60.518-11.49-100.131 1.893 160.649 9.597Z" fill="#C4C4C4"/><path d="m150.503 251.487-12.369-.632 12.441 3.837-.072-3.205Z" fill="#B0B0B0"/><path d="m115.982 219.222-18.136 2.636-13.086 3.245 31.222-5.881Z" fill="#C4C4C4"/><path d="m203.823 251.488-13.051.392 12.979 2.812.072-3.204Zm70.034-13.511-4.252 1.814 3.992 1.426.26-3.24ZM163.552 251.88l-13.05-.392 13.087 3.596-.037-3.204Zm-73.06-10.39.234 3.234 7.157 1.563-7.39-4.797Zm100.28 10.39-13.61.135 13.574 3.069.036-3.204Zm-13.61.135-13.61-.135 13.61 3.338v-3.203Z" fill="#B0B0B0"/><path d="m276.628 228.819-20.153-6.96-40.365-4.53 60.518 11.49Z" fill="#C4C4C4"/><path d="m84.715 239.791-4.252-1.814 4.501 5.051-.249-3.237Zm171.937 3.265-.214 3.231 7.157-1.563-6.943-1.668Z" fill="#B0B0B0"/><path d="m97.846 221.859-7.235 1.555-5.85 1.689 13.085-3.244Zm171.718 3.244-5.851-1.689-7.234-1.555 13.085 3.244Z" fill="#C4C4C4"/><path d="m97.668 243.055.214 3.231 8.439 1.413-8.653-4.644Zm171.937-3.265-5.773 1.699 5.524 1.538.249-3.237Zm-21.41 4.681-.191 3.228 8.438-1.413-8.247-1.815Zm-157.703-2.982-5.773-1.699 6.007 4.933-.234-3.234Zm-13.77-10.678.27 3.264.86 1.991-1.13-5.255Zm29.407 13.66.192 3.228 9.6 1.244-9.792-4.472Z" fill="#B0B0B0"/><path d="m276.629 228.819-7.067-3.716-13.085-3.244 20.152 6.96Z" fill="#C4C4C4"/><path d="m276.739 232.804-.268 3.261.86-1.99-.592-1.271Zm-12.908 8.685-7.176 1.566 6.943 1.668.233-3.234Zm-25.263 4.228-.165 3.226 9.6-1.244-9.435-1.982Z" fill="#B0B0B0"/><path d="m115.978 219.222-31.222 5.881-7.176 7.701 38.398-13.582Z" fill="#C4C4C4"/><path d="m97.665 243.055-7.177-1.566 7.39 4.797-.213-3.231Zm18.087 2.662.165 3.226 10.644 1.058-10.809-4.284Zm112.14 1.06-.136 3.224 10.643-1.058-10.507-2.166ZM77.58 232.804l.269 3.261 2.614 1.911-2.883-5.172Z" fill="#B0B0B0"/><path d="m84.759 225.103-4.347 1.808-2.72 1.908 7.067-3.716Zm191.871 3.716-2.721-1.908-4.346-1.808 7.067 3.716Z" fill="#C4C4C4"/><path d="m256.656 243.055-8.461 1.416 8.247 1.815.214-3.231Zm-130.228 3.722.137 3.225 11.567.854-11.704-4.079Zm147.691-12.058-.262 3.257 2.615-1.91-2.353-1.347Zm-167.99 9.752-8.46-1.416 8.652 4.644-.192-3.228Zm110.169 3.162-.106 3.223 11.567-.854-11.461-2.369Zm-78.272 0 .106 3.223 12.369.632-12.475-3.855Zm139.576-16.822-.862 1.993.592 1.271.27-3.264Zm-73.707 17.455-.072 3.222 12.369-.632-12.297-2.59Zm44.3-3.795-9.626 1.246 9.435 1.982.191-3.228Zm-97.766 3.795.072 3.222 13.051.392-13.123-3.614Zm-70.223-13.547.261 3.257 4.252 1.814-4.513-5.071Zm110.603 13.94-.037 3.221 13.051-.392-13.014-2.829ZM77.584 232.804l-.862-1.993 1.13 5.255-.268-3.262Z" fill="#B0B0B0"/><path d="m84.756 225.103-7.067 3.716-.109 3.985 7.176-7.701Z" fill="#C4C4C4"/><path d="m115.752 245.717-9.627-1.247 9.792 4.473-.165-3.226Zm47.759 2.942.037 3.221 13.61.134-13.647-3.355Zm13.647.135v3.22l13.61-.134-13.61-3.086Zm92.693-12.258-.25 3.254 4.252-1.814-4.002-1.44Zm-31.286 9.181-10.673 1.06 10.507 2.166.166-3.226Zm-112.141 1.06-10.672-1.06 10.809 4.284-.137-3.224Zm150.312-13.973-2.621 1.915 2.353 1.346.268-3.261Zm-192.27 3.732.25 3.254 5.772 1.699-6.023-4.953Zm143.426 10.241-11.598.856 11.461 2.368.137-3.224Zm-147.69-12.058-2.622-1.915 2.883 5.172-.261-3.257Z" fill="#B0B0B0"/><path d="m115.982 219.222 21.938 25.17 138.711-15.573-160.649-9.597Zm160.758 13.582.862-1.994-.971-1.991.109 3.985Zm-199.047-3.985-.971 1.991.862 1.994.11-3.985Z" fill="#C4C4C4"/><path d="m138.029 247.633-11.598-.855 11.703 4.078-.105-3.223Zm126.04-9.395-.235 3.252 5.773-1.699-5.538-1.553Zm-47.769 9.395-12.403.633 12.298 2.59.105-3.223Zm-65.868.633-12.403-.633 12.475 3.855-.072-3.222Zm53.465 0-13.086.393 13.014 2.829.072-3.222Zm70.224-13.547-4.264 1.817 4.003 1.441.261-3.258Z" fill="#B0B0B0"/><path d="M115.978 219.222 77.58 232.804l60.336 11.588-21.938-25.17Z" fill="#C4C4C4"/><path d="m163.515 248.659-13.086-.393 13.123 3.614-.037-3.221Zm-73.257-10.421.234 3.252 7.176 1.566-7.41-4.818Zm100.551 10.421-13.647.135 13.61 3.086.037-3.221Zm-13.647.135-13.647-.135 13.647 3.356v-3.221Zm-92.693-12.258-4.263-1.817 4.513 5.072-.25-3.255Z" fill="#B0B0B0"/><path d="m269.856 236.536 6.885-3.732-.109-3.985-6.776 7.717Z" fill="#C4C4C4"/><path d="m256.867 239.806-.215 3.249 7.176-1.566-6.961-1.683Zm-159.418 0 .215 3.249 8.461 1.415-8.676-4.664Zm172.402-3.27-5.789 1.702 5.539 1.552.25-3.254Zm-21.468 4.688-.192 3.246 8.461-1.415-8.269-1.831Zm-158.13-2.986-5.788-1.702 6.023 4.953-.234-3.251Z" fill="#B0B0B0"/><path d="m269.851 236.536 4.264-1.817 2.621-1.915-6.885 3.732Zm-192.27-3.732 2.62 1.915 4.264 1.817-6.885-3.732Z" fill="#C4C4C4"/><path d="m105.937 241.225.192 3.246 9.626 1.246-9.818-4.492Zm158.129-2.987-7.195 1.569 6.961 1.682.234-3.251Zm-25.331 4.235-.167 3.244 9.627-1.246-9.46-1.998Z" fill="#B0B0B0"/><path d="m238.731 242.473 31.12-5.937 6.776-7.717-37.896 13.654Z" fill="#C4C4C4"/><path d="m97.454 239.807-7.196-1.569 7.41 4.817-.214-3.248Zm18.136 2.666.166 3.244 10.673 1.06-10.839-4.304Z" fill="#B0B0B0"/><path d="m77.58 232.804 6.885 3.732 12.984 3.27-19.869-7.002Z" fill="#C4C4C4"/><path d="m228.033 243.535-.138 3.242 10.673-1.06-10.535-2.182Zm28.837-3.729-8.483 1.418 8.268 1.831.215-3.249Zm-130.58 3.729.137 3.242 11.598.855-11.735-4.097Zm-20.354-2.311-8.484-1.418 8.676 4.664-.192-3.246Zm110.467 3.168-.106 3.24 11.598-.855-11.492-2.385Zm-78.484 0 .106 3.24 12.403.633-12.509-3.873Z" fill="#B0B0B0"/><path d="m256.867 239.806 7.195-1.568 5.789-1.702-12.984 3.27Zm-172.402-3.27 5.789 1.702 7.195 1.568-12.984-3.27Z" fill="#C4C4C4"/><path d="m203.963 245.026-.072 3.24 12.403-.634-12.331-2.606Zm44.42-3.802-9.652 1.249 9.46 1.997.192-3.246Z" fill="#B0B0B0"/><path d="m137.916 244.392 100.815-1.919 37.896-13.654-138.711 15.573Z" fill="#C4C4C4"/><path d="m150.357 245.026.072 3.24 13.086.392-13.158-3.632Zm40.489.394-.037 3.238 13.086-.392-13.049-2.846Zm-75.257-2.947-9.652-1.249 9.818 4.493-.166-3.244Zm47.889 2.947.037 3.238 13.647.135-13.684-3.373Zm13.684.135v3.238l13.647-.135-13.647-3.103Z" fill="#B0B0B0"/><path d="m77.58 232.804 19.87 7.002 40.466 4.586-60.336-11.588Z" fill="#C4C4C4"/><path d="m238.735 242.473-10.701 1.062 10.535 2.182.166-3.244Z" fill="#B0B0B0"/><path d="m238.731 242.473 18.136-2.667 12.984-3.27-31.12 5.937Z" fill="#C4C4C4"/><path d="m126.292 243.535-10.701-1.062 10.839 4.304-.138-3.242Zm101.743 0-11.629.857 11.492 2.385.137-3.242Zm-90.113.857-11.63-.857 11.736 4.097-.106-3.24Z" fill="#B0B0B0"/><path d="m238.734 242.473 9.653-1.249 8.483-1.418-18.136 2.667Zm-141.282-2.667 8.484 1.418 9.652 1.249-18.136-2.667Z" fill="#C4C4C4"/><path d="m216.4 244.393-12.436.634 12.33 2.606.106-3.24Zm-66.047.634-12.437-.634 12.509 3.873-.072-3.239Zm53.611 0-13.122.394 13.049 2.845.073-3.239Zm-40.49.394-13.121-.394 13.158 3.632-.037-3.238Zm27.368 0-13.684.135 13.647 3.103.037-3.238Zm-13.684.135-13.684-.135 13.684 3.373v-3.238Z" fill="#B0B0B0"/><path d="m97.452 239.806 18.136 2.667 22.331 1.919-40.467-4.586Zm18.136 2.667 10.702 1.062 11.629.857-22.331-1.919Zm100.815 1.919 11.63-.857 10.701-1.062-22.331 1.919Zm-25.558 1.028 25.558-1.028 22.331-1.919-47.889 2.947Zm-52.926-1.028 52.926 1.028 47.889-2.947-100.815 1.919Zm52.926 1.028 13.122-.394 12.436-.634-25.558 1.028Zm-52.926-1.028 12.437.634 13.121.394-25.558-1.028Zm0 0 25.558 1.028h27.368l-52.926-1.028Zm25.558 1.028 13.684.135 13.684-.135h-27.368Z" fill="#C4C4C4"/><path d="M276.852 230.951c0 .65-.452 1.45-1.728 2.367-1.252.9-3.148 1.798-5.661 2.672-5.017 1.744-12.317 3.327-21.388 4.66-18.13 2.666-43.202 4.317-70.913 4.317s-52.783-1.651-70.913-4.317c-9.07-1.333-16.371-2.916-21.388-4.66-2.513-.874-4.408-1.772-5.66-2.672-1.277-.917-1.73-1.717-1.73-2.367 0-.651.453-1.451 1.73-2.367 1.252-.9 3.147-1.799 5.66-2.673 5.017-1.744 12.317-3.326 21.388-4.66 18.13-2.665 43.202-4.317 70.913-4.317s52.783 1.652 70.913 4.317c9.071 1.334 16.371 2.916 21.388 4.66 2.513.874 4.409 1.773 5.661 2.673 1.276.916 1.728 1.716 1.728 2.367Z" fill="url(#g)" stroke="url(#h)" stroke-width="1.5"/><g filter="url(#i)"><ellipse cx="173.926" cy="232.469" rx="70.834" ry="8.698" transform="rotate(3.944 173.926 232.469)" fill="url(#j)" fill-opacity=".25"/></g><path fill-rule="evenodd" clip-rule="evenodd" d="m97.668 243.057.214 3.23 8.439 1.413 9.594 1.243.002.001h-.001l-9.597-1.244.19 3.211h-.001l-.191-3.211-8.437-1.413-.001-.001-.214-3.23.003.001Zm-7.412-4.818h-.001l-5.788-1.702-4.26-1.815-.001-.003v.002l-.003-.001.003.003.261 3.254 4.248 1.812v.002l.002.001.248 3.236-.002-.003-.248-3.234-4.249-1.812v-.001.001l-.002-.001v-.001l-.262-3.257-2.617-1.912v-.003l-.863-1.994.27 3.265.856 1.98v.007l-.858-1.986.27 3.247.267 3.23.266 3.212.265 3.196.264 3.178.262 3.162.847 1.969 2.574 1.89 4.185 1.795 5.682 1.68 7.062 1.549 8.326 1.4 9.473 1.234 10.503 1.048 11.413.847 12.205.626 12.877.388 13.429.134 13.429-.134 12.877-.388 12.205-.626 11.414-.847 10.502-1.048 9.473-1.234 8.327-1.4 7.062-1.549 5.682-1.68 4.185-1.795 2.573-1.89.848-1.969.262-3.162.263-3.178.265-3.196.266-3.212.268-3.23.269-3.244.001-.004-.591-1.271-.269 3.258-.001.002-.002-.001.269-3.259-2.622 1.915h.002l-4.262 1.817 3.999 1.439-.001.001-4.001-1.44-5.789 1.702h.001l-7.194 1.568 6.961 1.683.235-3.251v.001l-.234 3.25h.001l5.519 1.536-.001.002-5.52-1.537v-.001h-.002l-7.173 1.566 7.173-1.566-6.959-1.682v-.001l-.002.001-8.482 1.417 8.267 1.831-8.269-1.831-.192 3.246.192-3.246-9.651 1.249h-.002l-10.698 1.062h-.001l-11.629.857 11.492 2.385-11.492-2.385-.107 3.241h-.004.002l-.002-.001.106-3.239-12.434.634h-.002l-13.116.393h-.006l-13.678.136-.001-.001v.001h-.005l-13.677-.135-.002-.001v.001l-.005-.001-13.114-.393h-.007l-12.431-.634h-.001v-.001l-11.629-.857-10.702-1.062 10.839 4.304h.001l.137 3.224 11.565.854h.002l-.106-3.222.106 3.222 12.368.632h.001l-.072-3.221v.001l.072 3.22 13.047.392h.001v.001l-13.05-.392 13.088 3.595v.001l-13.088-3.596.072 3.204h-.001l-.071-3.204-12.369-.632h-.001v-.001l-11.567-.854 11.672 4.06-.105-3.205h.001l.105 3.205-11.536-.852-10.615-1.056v-.001l10.611 1.056h.001l-.136-3.207.001.001-.136-3.225h-.001l-10.836-4.302v-.002l-9.652-1.249.192 3.246-.193-3.246-8.483-1.418 8.674 4.663h-.003l-8.673-4.662.215 3.248v-.001l-.215-3.247-7.194-1.569Zm36.034 5.297 11.735 4.097v.001l-11.735-4.098Zm24.133 4.729-.072-3.237.005.001.072 3.238h.001-.001l-.005-.002Zm13.085.394-13.078-.392h.002l13.077.393-.001-.001Zm.001.001h.004l13.646 3.355-13.646-3.355 13.643.135-.001-.001-13.641-.134-.037-3.237-.005-.002.037 3.237.005.002-.005-.001v.001Zm13.647.134v.001h.004l13.609 3.086-13.609.134v.001l13.574 3.069v-.001l-13.574-3.069 13.61-.134 12.979 2.812-12.979-2.812 13.051-.392 12.263 2.573h.002l11.535-.852 10.616-1.056.164-3.209 9.601-1.245 8.225 1.801.213-3.213 7.157-1.564h.001l5.756-1.695.002-.001 4.239-1.81 2.608-1.907.267-3.243-.003.002-.267 3.239.001.001-2.606 1.907v.001l-.001-.001v.001-.001l-3.989-1.425v.001l3.987 1.425-4.236 1.808v.002l-.002-.001-.002.001h.002l-5.756 1.695v.001h-.002v-.001l-6.94-1.667v.001l6.938 1.667-7.152 1.562v.001h-.003l-.213 3.214-8.224-1.801-9.599 1.244.165-3.226 9.434 1.982h.002l-9.435-1.982h-.001l.166-3.243h-.001l-.166 3.243h-.002l-.165 3.226-.002.001-.164 3.208h.002-.002l-10.613 1.056-11.431-2.353v.001l11.43 2.353-11.535.852h-.001l-12.263-2.573-.001-.001h.002-.001l-13.049.392.037-3.22h-.001l.037-3.237-.005-.002-.037 3.237.005.002h-.006l-13.641.134v-3.236l-.005-.001v3.236l.005.001h-.005Zm13.647-.134h.004l-.037 3.221-13.61-3.086 13.643-.135Zm13.085-.393-13.078.393h.001l13.078-.393h.006l-.072 3.221.072-3.221v-.001l-.002.001h.001-.006Zm.001-.001.073-3.238h.002l-.073 3.238h-.002Zm12.403-.632-12.397.632.002.001 12.395-.633Zm40.361-4.578h.003-.003Zm-140.901 2.662-9.621-1.246h.001l9.62 1.246Zm-25.497-7.479v.001l.235 3.249-.235-3.25Zm7.409 4.817-7.171-1.565 7.171 1.565Zm-7.177-1.568-6.02-4.95 6.019 4.95Zm125.811 6.146-.106 3.222.106-3.222Zm53.306-7.843h.001l4.249-1.813h-.001l-4.25 1.813h.001Zm-178.88 4.931-6.002-4.929-.005-.001 6.006 4.932-5.757-1.696v.001l5.758 1.695 7.37 4.777-.213-3.213h-.001l.213 3.213-7.37-4.777v-.002Zm72.826 7.159 13.61 3.338-13.61-3.338ZM80.465 237.98l.26 3.237v.001l-.26-3.237v-.001Zm46.233 15.23-.136-3.207 11.672 4.059-11.536-.852Zm150.042-20.405.862-1.994-.27 3.265-.592-1.271Z" fill="url(#k)"/><path fill-rule="evenodd" clip-rule="evenodd" d="m97.668 243.057.214 3.23 8.439 1.413 9.594 1.243.002.001h-.001l-9.597-1.244.19 3.211h-.001l-.191-3.211-8.437-1.413-.001-.001-.214-3.23.003.001Zm-7.412-4.818h-.001l-5.788-1.702-4.26-1.815-.001-.003v.002l-.003-.001.003.003.261 3.254 4.248 1.812v.002l.002.001.248 3.236-.002-.003-.248-3.234-4.249-1.812v-.001.001l-.002-.001v-.001l-.262-3.257-2.617-1.912v-.003l-.863-1.994.27 3.265.856 1.98v.007l-.858-1.986.27 3.247.267 3.23.266 3.212.265 3.196.264 3.178.262 3.162.847 1.969 2.574 1.89 4.185 1.795 5.682 1.68 7.062 1.549 8.326 1.4 9.473 1.234 10.503 1.048 11.413.847 12.205.626 12.877.388 13.429.134 13.429-.134 12.877-.388 12.205-.626 11.414-.847 10.502-1.048 9.473-1.234 8.327-1.4 7.062-1.549 5.682-1.68 4.185-1.795 2.573-1.89.848-1.969.262-3.162.263-3.178.265-3.196.266-3.212.268-3.23.269-3.244.001-.004-.591-1.271-.269 3.258-.001.002-.002-.001.269-3.259-2.622 1.915h.002l-4.262 1.817 3.999 1.439-.001.001-4.001-1.44-5.789 1.702h.001l-7.194 1.568 6.961 1.683.235-3.251v.001l-.234 3.25h.001l5.519 1.536-.001.002-5.52-1.537v-.001h-.002l-7.173 1.566 7.173-1.566-6.959-1.682v-.001l-.002.001-8.482 1.417 8.267 1.831-8.269-1.831-.192 3.246.192-3.246-9.651 1.249h-.002l-10.698 1.062h-.001l-11.629.857 11.492 2.385-11.492-2.385-.107 3.241h-.004.002l-.002-.001.106-3.239-12.434.634h-.002l-13.116.393h-.006l-13.678.136-.001-.001v.001h-.005l-13.677-.135-.002-.001v.001l-.005-.001-13.114-.393h-.007l-12.431-.634h-.001v-.001l-11.629-.857-10.702-1.062 10.839 4.304h.001l.137 3.224 11.565.854h.002l-.106-3.222.106 3.222 12.368.632h.001l-.072-3.221v.001l.072 3.22 13.047.392h.001v.001l-13.05-.392 13.088 3.595v.001l-13.088-3.596.072 3.204h-.001l-.071-3.204-12.369-.632h-.001v-.001l-11.567-.854 11.672 4.06-.105-3.205h.001l.105 3.205-11.536-.852-10.615-1.056v-.001l10.611 1.056h.001l-.136-3.207.001.001-.136-3.225h-.001l-10.836-4.302v-.002l-9.652-1.249.192 3.246-.193-3.246-8.483-1.418 8.674 4.663h-.003l-8.673-4.662.215 3.248v-.001l-.215-3.247-7.194-1.569Zm36.034 5.297 11.735 4.097v.001l-11.735-4.098Zm24.133 4.729-.072-3.237.005.001.072 3.238h.001-.001l-.005-.002Zm13.085.394-13.078-.392h.002l13.077.393-.001-.001Zm.001.001h.004l13.646 3.355-13.646-3.355 13.643.135-.001-.001-13.641-.134-.037-3.237-.005-.002.037 3.237.005.002-.005-.001v.001Zm13.647.134v.001h.004l13.609 3.086-13.609.134v.001l13.574 3.069v-.001l-13.574-3.069 13.61-.134 12.979 2.812-12.979-2.812 13.051-.392 12.263 2.573h.002l11.535-.852 10.616-1.056.164-3.209 9.601-1.245 8.225 1.801.213-3.213 7.157-1.564h.001l5.756-1.695.002-.001 4.239-1.81 2.608-1.907.267-3.243-.003.002-.267 3.239.001.001-2.606 1.907v.001l-.001-.001v.001-.001l-3.989-1.425v.001l3.987 1.425-4.236 1.808v.002l-.002-.001-.002.001h.002l-5.756 1.695v.001h-.002v-.001l-6.94-1.667v.001l6.938 1.667-7.152 1.562v.001h-.003l-.213 3.214-8.224-1.801-9.599 1.244.165-3.226 9.434 1.982h.002l-9.435-1.982h-.001l.166-3.243h-.001l-.166 3.243h-.002l-.165 3.226-.002.001-.164 3.208h.002-.002l-10.613 1.056-11.431-2.353v.001l11.43 2.353-11.535.852h-.001l-12.263-2.573-.001-.001h.002-.001l-13.049.392.037-3.22h-.001l.037-3.237-.005-.002-.037 3.237.005.002h-.006l-13.641.134v-3.236l-.005-.001v3.236l.005.001h-.005Zm13.647-.134h.004l-.037 3.221-13.61-3.086 13.643-.135Zm13.085-.393-13.078.393h.001l13.078-.393h.006l-.072 3.221.072-3.221v-.001l-.002.001h.001-.006Zm.001-.001.073-3.238h.002l-.073 3.238h-.002Zm12.403-.632-12.397.632.002.001 12.395-.633Zm40.361-4.578h.003-.003Zm-140.901 2.662-9.621-1.246h.001l9.62 1.246Zm-25.497-7.479v.001l.235 3.249-.235-3.25Zm7.409 4.817-7.171-1.565 7.171 1.565Zm-7.177-1.568-6.02-4.95 6.019 4.95Zm125.811 6.146-.106 3.222.106-3.222Zm53.306-7.843h.001l4.249-1.813h-.001l-4.25 1.813h.001Zm-178.88 4.931-6.002-4.929-.005-.001 6.006 4.932-5.757-1.696v.001l5.758 1.695 7.37 4.777-.213-3.213h-.001l.213 3.213-7.37-4.777v-.002Zm72.826 7.159 13.61 3.338-13.61-3.338ZM80.465 237.98l.26 3.237v.001l-.26-3.237v-.001Zm46.233 15.23-.136-3.207 11.672 4.059-11.536-.852Zm150.042-20.405.862-1.994-.27 3.265-.592-1.271Z" fill="url(#l)"/><g filter="url(#m)"><path d="M101.679 56.524c.773-16.616 9.661-29.368 30.528-29.368l74.968-5.024c20.77-1.347 30.016 17.259 29.402 34.237v103.452c0 17.074-8.971 34.28-31.072 32.476l-75.213-4.961c-17.252 0-28.613-11.72-28.613-28.794V56.524Z" fill="#fff" fill-opacity=".35"/><path d="m130.424 185.34-.066-.004h-.066c-8.16 0-14.777-2.762-19.353-7.399-4.578-4.64-7.26-11.309-7.26-19.395V56.572c.379-7.98 2.694-14.793 7.189-19.597 4.47-4.776 11.332-7.82 21.339-7.82h.067l.067-.004 74.963-5.023h.002c9.667-.627 16.526 3.35 20.975 9.431 4.51 6.167 6.592 14.594 6.297 22.738l-.001.036v103.488c0 8.232-2.169 16.31-6.805 22.062-4.562 5.66-11.668 9.273-22.104 8.421l-.016-.002-.015-.001-75.213-4.961Z" stroke="url(#n)" stroke-width="4"/></g><path d="M232.124 33.74c-2.431-3.82-5.697-6.835-8.977-8.938l9.188 1.397c3.916.926 7.459 3.235 10.203 5.786 2.77 2.575 4.615 5.291 5.207 6.89l.02.054.027.052c.884 1.736 2.85 6.436 3.556 11.146.304 3.357.323 6.654.295 7.87v103.586c-.43 10.167-4.499 16.813-8.831 20.943-2.176 2.074-4.424 3.52-6.324 4.453-1.93.949-3.419 1.331-4.072 1.363l-.047.003-.046.006-8.749 1.25c3.74-2.198 7.388-5.554 9.781-10.535 1.457-2.662 2.464-6.126 3.138-9.323.678-3.221 1.032-6.251 1.151-8.074l.003-.032V55.783c.318-3.928-.344-13.663-5.516-22.031l-.007-.012Z" fill="url(#o)" stroke="url(#p)" stroke-width="2"/><path d="m183.374 28.917-.219 4.221.219 4.221v-8.442Zm1.668-7.94-1.668 7.94v8.442l1.668-16.381Zm-1.668 16.382.637 4.063 1.031 3.877-1.668-7.94Zm1.668-16.381-1.031 3.877-.637 4.062 1.668-7.94Zm-1.668 16.381 1.668 7.94 3.157 7.085-4.825-15.025Zm1.668 7.94 1.403 3.665 1.754 3.42-3.157-7.085Zm3.157-31.407-1.754 3.421-1.403 3.665 3.157-7.086Zm4.478-5.972-7.635 13.058-1.668 16.381 9.303-29.439Zm0 0-4.478 5.972-3.157 7.086 7.635-13.058Zm-9.303 29.44 4.825 15.024 10.122 10.525-14.947-25.55Zm9.303-29.44-2.395 2.83-2.083 3.142 4.478-5.972Zm-4.478 44.464 2.083 3.144 2.395 2.828-4.478-5.972Zm4.478-44.464-9.303 29.44 14.947 25.549-5.644-54.989Zm-4.478 44.464 4.478 5.972 5.644 4.553-10.122-10.525Zm4.478 5.972 2.686 2.475 2.958 2.078-5.644-4.553Zm5.644-54.988-2.958 2.077-2.686 2.475 5.644-4.552Z" fill="#C4C4C4"/><path d="m218.025 65.32 2.722-.455 3.543-.593-6.265 1.048Zm3.571-63.765 2.694.45-3.543-.593.849.143Zm-3.571-.598 3.571.598-.849-.143-2.722-.455Zm3.571 63.765-3.571.598 6.265-1.048-2.694.45Zm0 0 2.694-.45 3.415-1.146-6.109 1.596Z" fill="#B0B0B0"/><path d="m198.319 62.91 3.21 1.633 3.442 1.14-6.652-2.774ZM204.971.593l-3.442 1.14-3.21 1.634 6.652-2.774Z" fill="#C4C4C4"/><path d="m225.04 2.714 2.666.437-3.415-1.146.749.71Zm-3.443-1.16 3.443 1.16-.749-.709-2.694-.45Zm-6.373 64.235 2.802-.469 3.571-.598-6.373 1.067Zm9.816-2.226-3.443 1.16 6.109-1.597-2.666.437Zm0 0 2.666-.437 3.246-1.675-5.912 2.112ZM218.824 1.09l2.773.464-3.571-.598.798.134Z" fill="#B0B0B0"/><path d="m198.319 62.91 6.652 2.773 7.367.588-14.019-3.362Z" fill="#C4C4C4"/><path d="m225.04 2.714 3.273 1.696-.607-1.259-2.666-.437Zm-6.216 62.472-3.6.603 6.373-1.067-2.773.464Zm0 0 2.773-.464 3.443-1.16-6.216 1.624Zm9.489-3.319 2.639-.416 3.032-2.174-5.671 2.59Zm0 0-3.273 1.696 5.912-2.112-2.639.416Zm-6.018-59.603 2.745.45-3.443-1.16.698.71Zm9.076 4.349 2.613.387-3.032-2.175.419 1.788Z" fill="#B0B0B0"/><path d="m204.969 65.683 3.651.594 3.717-.006-7.368-.588ZM212.337.006 208.62 0l-3.651.594 7.368-.588Zm-19.66 7.914 5.644 54.989 39.078-34.582L192.677 7.92Z" fill="#C4C4C4"/><path d="m212.337 66.27 2.884-.481 3.6-.603-6.484 1.085Zm19.032-6.606 2.612-.387 2.775-2.643-5.387 3.03Zm-9.077 4.349-3.471 1.173 6.216-1.623-2.745.45Zm9.077-4.349-3.059 2.203 5.671-2.59-2.612.387Zm-9.077 4.349 2.745-.45 3.273-1.696-6.018 2.146ZM215.965.614l2.856.477-3.6-.603.744.126Zm18.203 8.679 2.588.35L233.981 7l.187 2.293Zm-8.576-5.312 2.718.429-3.273-1.696.555 1.267ZM212.337.006l3.628.608-.744-.126-2.884-.482Zm19.032 6.607 2.799 2.68L233.981 7l-2.612-.387Z" fill="#B0B0B0"/><path d="m198.319 62.91 14.019 3.36 13.567-5.797-27.586 2.436ZM219.466 1.8 212.338.006l-7.367.588L219.466 1.8Z" fill="#C4C4C4"/><path d="m222.292 2.264 3.3 1.718-.555-1.268-2.745-.45Zm11.876 54.72 2.588-.35 2.472-3.076-5.06 3.426Zm-18.203 8.68-3.628.607 6.484-1.085-2.856.477Zm18.203-8.68-2.799 2.68 5.387-3.03-2.588.35Zm-18.203 8.68 2.856-.478 3.471-1.173-6.327 1.65Zm9.627-3.368 2.718-.428 3.059-2.204-5.777 2.632Zm0 0-3.3 1.717 6.018-2.145-2.718.428Zm11.07-49.882 2.566.306-2.472-3.077-.094 2.771ZM219.464 1.801l2.828.463-3.471-1.172.643.709Zm9.213 4.414 2.692.398-3.059-2.203.367 1.805Zm5.491 3.078 2.494 3.121.094-2.771-2.588-.35Zm2.494 44.57 2.566-.305 2.123-3.473-4.689 3.778ZM215.965.614l3.499 1.187-.643-.71-2.856-.477Zm9.627 3.368 3.085 2.233-.367-1.805-2.718-.428Zm11.07 49.881-2.494 3.121 5.06-3.426-2.566.305Zm2.142-37.925 2.547.255-2.123-3.473-.424 3.218Z" fill="#B0B0B0"/><path d="m212.337 66.27 3.628-.607 3.499-1.186-7.127 1.794Zm7.127-64.47L215.965.614l-3.628-.608 7.127 1.794Z" fill="#C4C4C4"/><path d="m228.679 60.063 2.692-.399 2.799-2.68-5.491 3.078Zm-9.213 4.414-3.499 1.186 6.327-1.65-2.828.464Zm9.213-4.415-3.085 2.234 5.777-2.632-2.692.398Zm-9.213 4.415 2.828-.464 3.3-1.717-6.128 2.18Z" fill="#B0B0B0"/><path d="m238.805 50.34 2.547-.256 1.727-3.826-4.274 4.081Zm-2.141-37.926 2.141 3.523.425-3.217-2.566-.306Zm-5.161-3.482 2.667.36-2.8-2.68.133 2.32Zm9.046 10.888 2.53.199-1.727-3.826-.803 3.627ZM222.794 3.54l2.8.441-3.3-1.717.5 1.276Zm16.011 46.8-2.141 3.523 4.688-3.779-2.547.255Zm1.744-3.884 2.53-.198 1.286-4.134-3.816 4.332Zm-11.87-40.241 2.824 2.717-.133-2.32-2.691-.397ZM219.466 1.8l3.328 1.74-.5-1.276-2.828-.464Zm22.381 22.216 2.518.136-1.286-4.133-1.232 3.997Zm-3.042-8.079 1.744 3.883.803-3.628-2.547-.255Zm-7.302 41.408 2.667-.36 2.494-3.122-5.161 3.482Zm0 0-2.824 2.717 5.491-3.078-2.667.36Z" fill="#B0B0B0"/><path d="m212.337 66.27 7.127-1.794 6.44-4.003-13.567 5.797Z" fill="#C4C4C4"/><path d="m241.847 42.26 2.518-.135.802-4.391-3.32 4.527Zm-1.298 4.197-1.744 3.883 4.274-4.082-2.53.199Zm2.107-17.983 2.511.07-.802-4.391-1.709 4.32Zm-19.862 34.263 2.8-.441 3.085-2.233-5.885 2.674Zm0 0-3.328 1.74 6.128-2.181-2.8.441ZM234.019 12.1l2.645.315-2.494-3.121-.151 2.806Zm8.637 25.704 2.511-.07.276-4.594-2.787 4.664Zm.278-4.664h2.509l-.276-4.595-2.233 4.595Zm-2.385-13.318 1.298 4.195 1.232-3.997-2.53-.198Z" fill="#B0B0B0"/><path d="m198.319 62.91 27.586-2.437 11.493-32.145-39.079 34.581Z" fill="#C4C4C4"/><path d="m225.905 5.804 2.773.41-3.085-2.233.312 1.823Zm15.941 36.457-1.298 4.195 3.817-4.331-2.519.136ZM231.502 8.932l2.517 3.167.15-2.806-2.667-.36Zm2.517 45.246 2.644-.315 2.142-3.523-4.786 3.838Zm7.827-30.162.81 4.458 1.709-4.322-2.519-.136Zm.81 13.787-.81 4.458 3.321-4.527-2.511.07ZM222.793 3.54l3.112 2.264-.312-1.823-2.8-.441Zm11.226 50.638-2.517 3.167 5.161-3.482-2.644.315Zm2.162-38.503 2.624.263-2.142-3.524-.482 3.26Zm6.475 12.799.278 4.665 2.233-4.595-2.511-.07Zm.278 4.665-.278 4.664 2.786-4.664h-2.508Zm-17.029 27.334 2.773-.41 2.824-2.718-5.597 3.128Zm0 0-3.112 2.264 5.885-2.675-2.773.411Z" fill="#B0B0B0"/><path d="m219.466 64.477 3.328-1.74 3.111-2.264-6.439 4.004Zm6.439-58.673-3.111-2.264-3.328-1.74 6.439 4.004Z" fill="#C4C4C4"/><path d="m236.181 50.602 2.625-.263 1.743-3.883-4.368 4.146Zm-2.162-38.504 2.162 3.576.483-3.26-2.645-.316Zm-5.265-3.538 2.749.372-2.824-2.718.075 2.346Zm9.186 11.056 2.609.204-1.743-3.883-.866 3.679Zm-1.759 30.986-2.162 3.576 4.787-3.839-2.625.263Zm1.759-3.942 2.609-.204 1.298-4.196-3.907 4.4ZM225.905 5.804l2.849 2.756-.075-2.346-2.774-.41Zm13.346 18.072 2.596.14-1.298-4.196-1.298 4.055Zm-3.07-8.202 1.759 3.942.866-3.679-2.625-.263Zm-7.427 42.042 2.749-.372 2.516-3.166-5.265 3.538Z" fill="#B0B0B0"/><path d="m228.754 57.716-2.849 2.757 5.598-3.128-2.749.371Zm10.497-15.315 2.596-.14.809-4.458-3.405 4.598Zm-1.311 4.26-1.759 3.941 4.368-4.145-2.609.204Zm2.128-18.259 2.588.072-.809-4.457-1.779 4.385Zm-8.774-16.628 2.725.325-2.516-3.166-.209 2.841Zm8.774 26.101 2.588-.072.279-4.664-2.867 4.736Zm.281-4.736h2.586l-.279-4.665-2.307 4.665Zm-2.409-13.523 1.311 4.26 1.298-4.055-2.609-.205Zm1.311 22.785-1.311 4.26 3.907-4.4-2.596.14Zm-10.497-33.84 2.54 3.213.209-2.841-2.749-.372Zm2.54 45.942 2.725-.325 2.162-3.575-4.887 3.9Zm7.957-30.627.817 4.526 1.779-4.386-2.596-.14Zm.817 14-.817 4.525 3.405-4.598-2.588.072Zm-8.774 16.627-2.54 3.213 5.265-3.538-2.725.325Zm2.181-39.099 2.706.27-2.162-3.575-.544 3.305Zm6.593 12.998.281 4.737 2.307-4.665-2.588-.072Zm.281 4.737-.281 4.736 2.867-4.736h-2.586Z" fill="#B0B0B0"/><path d="m225.905 60.473 2.849-2.757 2.54-3.213-5.389 5.97Zm5.389-48.699-2.54-3.213-2.849-2.757 5.389 5.97Zm6.104 16.554-6.104-16.554L219.466 1.8l17.932 26.528Z" fill="#C4C4C4"/><path d="m233.477 50.873 2.706-.27 1.76-3.942-4.466 4.212Zm-2.181-39.1 2.181 3.63.545-3.304-2.726-.325Zm3.957 7.633 2.69.21-1.76-3.941-.93 3.73Zm-1.776 31.467-2.181 3.63 4.887-3.9-2.706.27Z" fill="#B0B0B0"/><path d="m225.905 60.473 5.389-5.97 3.957-7.631-9.346 13.601Z" fill="#C4C4C4"/><path d="m235.25 46.871 2.69-.21 1.31-4.26-4 4.47Zm1.323-23.14 2.677.145-1.31-4.26-1.367 4.115Zm-3.098-8.327 1.775 4.002.931-3.731-2.706-.271Zm3.098 27.142 2.677-.145.817-4.526-3.494 4.67Zm-1.323 4.325-1.775 4.002 4.465-4.212-2.69.21Zm2.148-18.543 2.669.074-.817-4.526-1.852 4.452Z" fill="#B0B0B0"/><path d="m225.905 60.473 9.346-13.602 2.147-18.543-11.493 32.145Z" fill="#C4C4C4"/><path d="m237.399 37.95 2.669-.075.281-4.736-2.95 4.81Zm.283-4.812h2.667l-.281-4.736-2.386 4.736Z" fill="#B0B0B0"/><path d="m231.296 54.503 2.181-3.63 1.776-4.002-3.957 7.632Zm3.957-35.097-1.776-4.002-2.181-3.63 3.957 7.632Z" fill="#C4C4C4"/><path d="m235.251 19.406 1.323 4.325 1.366-4.115-2.689-.21Zm1.323 23.14-1.323 4.325 4-4.47-2.677.145Zm0-18.815.824 4.597 1.853-4.452-2.677-.145Z" fill="#B0B0B0"/><path d="m237.4 37.95-.825 4.596 3.494-4.67-2.669.073Zm0-9.622.284 4.81 2.385-4.736-2.669-.074Zm.284 4.81-.284 4.811 2.951-4.81h-2.667Z" fill="#B0B0B0"/><path d="m235.251 46.871 1.323-4.325.824-4.597-2.147 8.922Zm2.147-18.543-.824-4.597-1.323-4.325 2.147 8.922Zm-2.147 18.543 2.147-8.922v-9.621l-2.147 18.543Zm2.147-8.922.284-4.81-.284-4.811v9.621Z" fill="#C4C4C4"/><path d="M237.442 33.256c0 18.186-12.115 32.755-26.866 32.755s-26.866-14.57-26.866-32.755C183.71 15.07 195.825.5 210.576.5s26.866 14.57 26.866 32.756Z" fill="url(#q)"/><path d="M237.442 33.256c0 18.186-12.115 32.755-26.866 32.755s-26.866-14.57-26.866-32.755C183.71 15.07 195.825.5 210.576.5s26.866 14.57 26.866 32.756Z" fill="url(#r)"/><path d="M237.442 33.256c0 18.186-12.115 32.755-26.866 32.755s-26.866-14.57-26.866-32.755C183.71 15.07 195.825.5 210.576.5s26.866 14.57 26.866 32.756Z" stroke="url(#s)"/><path d="M237.442 33.256c0 18.186-12.115 32.755-26.866 32.755s-26.866-14.57-26.866-32.755C183.71 15.07 195.825.5 210.576.5s26.866 14.57 26.866 32.756Z" stroke="url(#t)"/><path d="M238.144 30.238c-1.112-13.436-7.674-23.808-17.926-28.41l4.226.668c1.843.469 6.379 2.178 9.802 5.265 3.448 3.11 6.07 7.31 6.948 9.02l1.92 4.268c.502 1.61 1.19 4.327 1.627 7.256.441 2.956.617 6.077.118 8.487l-.004.02-.003.02c-.612 4.965-2.47 9.876-3.316 11.696l-.005.01-.004.01c-1.052 2.538-4.58 8.522-10.182 11.998l-.031.02-.028.023c-1.427 1.203-3.693 2.191-6.31 2.95a42.41 42.41 0 0 1-3.776.897c4.587-2.538 18.408-11.979 16.945-34.19l-.001-.008Z" fill="url(#u)"/><path d="M238.144 30.238c-1.112-13.436-7.674-23.808-17.926-28.41l4.226.668c1.843.469 6.379 2.178 9.802 5.265 3.448 3.11 6.07 7.31 6.948 9.02l1.92 4.268c.502 1.61 1.19 4.327 1.627 7.256.441 2.956.617 6.077.118 8.487l-.004.02-.003.02c-.612 4.965-2.47 9.876-3.316 11.696l-.005.01-.004.01c-1.052 2.538-4.58 8.522-10.182 11.998l-.031.02-.028.023c-1.427 1.203-3.693 2.191-6.31 2.95a42.41 42.41 0 0 1-3.776.897c4.587-2.538 18.408-11.979 16.945-34.19l-.001-.008Z" fill="url(#v)"/><path d="M238.144 30.238c-1.112-13.436-7.674-23.808-17.926-28.41l4.226.668c1.843.469 6.379 2.178 9.802 5.265 3.448 3.11 6.07 7.31 6.948 9.02l1.92 4.268c.502 1.61 1.19 4.327 1.627 7.256.441 2.956.617 6.077.118 8.487l-.004.02-.003.02c-.612 4.965-2.47 9.876-3.316 11.696l-.005.01-.004.01c-1.052 2.538-4.58 8.522-10.182 11.998l-.031.02-.028.023c-1.427 1.203-3.693 2.191-6.31 2.95a42.41 42.41 0 0 1-3.776.897c4.587-2.538 18.408-11.979 16.945-34.19l-.001-.008Z" stroke="url(#w)"/><path d="m202.586 42.031-.605.771v3.737l.605-4.508Zm-.272-18.516-.099.495-.08.513.179-1.008Zm.252-.935-.252.935-.179 1.008.431-1.943Z" fill="#fff"/><path d="m202.566 22.58-.135.459-.117.476.252-.935Zm.594 18.715-.574.736-.605 4.508 1.179-5.244Z" fill="#fff"/><path d="m206.6 42.266 4.238-.095.172-.182-4.41.277Z" fill="#E5E5E5"/><path d="m206.773 42.081 4.237-.092.164-.175-4.401.267Zm.063-19.275 4.236.088.32-.19-4.556.102Zm.102 19.099 4.236-.091.156-.168-4.392.259Zm.156-.169 4.236-.09.148-.159-4.384.25Zm-1.854-16.108-.136.614 4.377-.553-4.241-.06Zm1.917-3.013 4.235.089.344-.138-4.579.049Zm.086 18.96 4.235-.088.14-.152-4.375.24Zm-1.844-16.508-.159.561 4.399-.495-4.24-.066Zm1.984 16.355 4.235-.087.131-.144-4.366.23Z" fill="#E5E5E5"/><path d="m205.581 24.558-.182.508 4.422-.437-4.24-.071Zm1.934 16.718 4.235-.085.123-.137-4.358.222Zm-.014-18.8 4.235.09.366-.085-4.601-.005Z" fill="#E5E5E5"/><path d="m207.639 41.139 4.234-.084.115-.129-4.349.213Zm-1.853-17.037-.205.456 4.444-.38-4.239-.076Zm1.968 16.907 4.234-.083.107-.12-4.341.203Zm.107-.122 4.234-.082.098-.113-4.332.195Z" fill="#E5E5E5"/><path d="m203.16 41.294-1.179 5.244 4.619-4.272-3.44-.972Z" fill="#fff"/><path d="m206.013 23.699-.228.403 4.466-.324-4.238-.08Zm1.947 17.073 4.233-.08.091-.106-4.324.186Zm-.092-18.382 4.233.091.39-.032-4.623-.06Z" fill="#E5E5E5"/><path d="m208.052 40.666 4.233-.08.083-.097-4.316.177Zm.081-.098 4.233-.08.158-.19-4.391.27Zm-1.869-17.22-.251.351 4.489-.268-4.238-.082Zm1.996-.991 4.232.092.22.003-4.452-.095Zm.032 18.017 4.233-.077.16-.197-4.393.274Zm.161-.199 4.231-.075.164-.205-4.395.28Z" fill="#E5E5E5"/><path d="m208.618 39.968 4.231-.073.166-.212-4.397.285Zm-1.844 2.113-.173.184 4.409-.277-4.236.093Zm.063-19.275-.298.245 4.534-.157-4.236-.088Z" fill="#E5E5E5"/><path d="m208.783 39.755 4.231-.071.169-.219-4.4.29Zm-1.845 2.15-.165.176 4.401-.267-4.236.09Z" fill="#E5E5E5"/><path d="m205.568 18.518-.658.473-.612.573 1.27-1.046Zm-3.433 6.005 4.13-1.174.274-.298-4.404 1.472Zm1.568 16.07-.543.702 4.974-.727-4.431.025Z" fill="#fff"/><path d="m208.952 39.535 4.231-.07.171-.225-4.402.295Zm-1.858 2.201-.156.169 4.392-.258-4.236.09Zm.063-19.121-.321.192 4.556-.103-4.235-.09Z" fill="#E5E5E5"/><path d="m209.123 39.307 4.231-.067.174-.232-4.405.299Zm-1.881 2.268-.148.16 4.383-.248-4.235.088Zm.14-.153-.14.153 4.375-.24-4.235.087Zm1.916-2.35 4.229-.064.177-.239-4.406.304Z" fill="#E5E5E5"/><path d="m207.501 22.476-.344.139 4.579-.049-4.235-.09Zm2.117-4.805 4.228.136-.464-.036-3.764-.1Zm-2.103 23.605-.132.146 4.366-.231-4.234.085Zm1.961-2.445 4.229-.062.179-.246-4.408.308Z" fill="#E5E5E5"/><path d="m207.638 41.139-.123.137 4.358-.221-4.235.084Z" fill="#E5E5E5"/><path d="m203.16 41.294 3.44.972.643-.691-4.083-.28Z" fill="#fff"/><path d="m209.656 38.583 4.229-.06.182-.253-4.411.313Zm-1.901 2.425-.116.13 4.35-.212-4.234.082Zm.114-18.618-.368.085 4.602.006-4.234-.091Zm-.007 18.496-.107.122 4.341-.203-4.234.081Zm1.977-2.558 4.228-.058.185-.26-4.413.318Zm.227-20.59 4.228.135-.447-.066-3.781-.07Z" fill="#E5E5E5"/><path d="m207.96 40.772-.099.114 4.333-.194-4.234.08Zm.091-.106-.091.106 4.324-.186-4.233.08Zm1.972-2.6 4.228-.056.188-.266-4.416.322Zm-1.889 2.501-.083.099 4.316-.177-4.233.078Zm.125-18.21-.391.033 4.624.059-4.233-.092Z" fill="#E5E5E5"/><path d="m203.16 41.294 4.083.281.891-1.008-4.974.727Z" fill="#fff"/><path d="m208.292 40.374-.158.193 4.39-.27-4.232.078Zm1.92-2.577 4.227-.053.218-.298-4.445.35Z" fill="#E5E5E5"/><path d="m210.497 17.836 4.226.135-.43-.098-3.796-.037Zm-2.044 22.339-.161.2 4.393-.275-4.232.075Zm.027-17.814-.22-.004 4.452.095-4.232-.091Zm1.951 15.135 4.226-.05.214-.299-4.44.35Zm-1.814 2.472-.164.207 4.396-.28-4.232.073Z" fill="#E5E5E5"/><path d="m210.645 37.195 4.226-.048.209-.3-4.435.348Zm-1.861 2.56-.166.213 4.397-.284-4.231.071Zm2.126-21.789 4.225.134-.412-.129-3.813-.005Z" fill="#E5E5E5"/><path d="m206.6 42.266.173-.185.165-.176-.338.36Z" fill="#fff"/><path d="m210.853 36.891 4.226-.044.204-.302-4.43.346Zm-1.901 2.643-.169.22 4.399-.289-4.23.07Z" fill="#E5E5E5"/><path d="m206.6 42.266.338-.361.305-.33-.643.69Z" fill="#fff"/><path d="m209.125 39.307-.172.228 4.402-.295-4.23.067Zm1.934-2.72 4.225-.042.199-.303-4.424.345Z" fill="#E5E5E5"/><path d="m206.938 41.905.157-.169.148-.16-.305.329Zm-2.723-1.978-.512.666 9.999-9.19-9.487 8.524Zm7.824-21.382-9.904 5.978 5.366-2.047 4.538-3.931Z" fill="#fff"/><path d="m209.298 39.073-.174.234 4.404-.299-4.23.065Zm1.96-2.792 4.224-.039.195-.304-4.419.343Zm-2.107-18.646.466.036 3.764.1-4.23-.136Z" fill="#E5E5E5"/><path d="m207.242 41.575.14-.153.132-.146-.272.3Z" fill="#fff"/><path d="m209.475 38.832-.177.24 4.406-.303-4.229.063Zm1.979-2.858 4.223-.036.19-.306-4.413.342Z" fill="#E5E5E5"/><path d="m207.242 41.575.272-.299.239-.267-.511.566Zm-2.547-2.278-.48.63 9.487-8.525-9.007 7.895Z" fill="#fff"/><path d="m209.656 38.584-.18.248 4.408-.309-4.228.06Z" fill="#E5E5E5"/><path d="m207.515 41.276.123-.137.116-.13-.239.267Z" fill="#fff"/><path d="m211.645 35.665 4.223-.033.185-.307-4.408.34Zm-5.045 6.6 9.22.146-4.982-.24-4.238.095Z" fill="#E5E5E5"/><path d="m207.242 41.575.511-.566.38-.442-.891 1.008Z" fill="#fff"/><path d="m209.617 17.67.448.068 3.78.069-4.228-.136Zm.221 20.658-.183.255 4.411-.313-4.228.058Zm1.992-2.973 4.223-.03.18-.309-4.403.339Z" fill="#E5E5E5"/><path d="m205.143 38.702-.448.595 9.007-7.895-8.559 7.3Zm2.611 2.307.107-.122.1-.114-.207.236Zm0 0 .206-.237.174-.205-.38.442Z" fill="#fff"/><path d="m210.025 38.066-.186.262 4.413-.317-4.227.055Zm1.987-3.023 4.222-.027.176-.31-4.398.337Z" fill="#E5E5E5"/><path d="m207.961 40.773.091-.107.082-.098-.173.205Zm-5.98 5.766 13.839-4.127-9.22-.146-4.619 4.273Zm3.579-8.397-.416.56 8.558-7.3-8.142 6.74Z" fill="#fff"/><path d="m210.213 37.797-.188.269 4.415-.322-4.227.053Zm1.976-3.067 4.221-.024.171-.311-4.392.335Zm-2.122-16.992.43.098 3.797.037-4.227-.135Zm2.313 1.063 4.22.125-.339-.253-3.881.128Z" fill="#E5E5E5"/><path d="m208.668 17.63-.429.023-.417.048.846-.07Zm-.534 22.937.158-.192.161-.2-.319.392Z" fill="#fff"/><path d="m210.431 37.497-.219.3 4.445-.35-4.226.05Zm1.928-3.08 4.221-.022.166-.312-4.387.334Z" fill="#E5E5E5"/><path d="m205.945 37.62-.385.523 8.142-6.74-7.757 6.216Zm2.189 2.948.319-.393.33-.42-.649.813Zm-4.431.026 4.431-.026 5.568-9.166-9.999 9.192Z" fill="#fff"/><path d="m212.526 34.1 4.22-.017.157-.304-4.377.322Zm.175-15.012 4.22.123-.321-.285-3.899.162Zm-2.056 18.106-.214.302 4.439-.349-4.225.047Z" fill="#E5E5E5"/><path d="m208.453 40.175.163-.207.167-.213-.33.42Zm-2.156-3.043-.353.487 7.757-6.217-7.404 5.73Z" fill="#fff"/><path d="m212.683 33.794 4.22-.015.154-.313-4.374.328Zm3.136 8.617 4.21-.097-9.192-.143 4.982.24Zm-4.966-5.519-.209.303 4.434-.348-4.225.045Z" fill="#E5E5E5"/><path d="m208.134 40.567.649-.812.692-.924-1.341 1.736Zm-1.515-3.887-.321.452 7.404-5.73-7.083 5.278Zm2.165 3.075.169-.22.172-.228-.341.448Z" fill="#fff"/><path d="m211.058 36.587-.205.304 4.43-.346-4.225.042Zm1.931-3.432 4.219-.01.148-.33-4.367.34Zm-2.081-15.189.395.162 3.83-.028-4.225-.134Z" fill="#E5E5E5"/><path d="m206.907 36.266-.288.414 7.083-5.278-6.795 4.864Zm1.876 3.489.34-.448.352-.476-.692.924Z" fill="#fff"/><path d="m211.259 36.28-.2.307 4.424-.345-4.224.039Z" fill="#E5E5E5"/><path d="m207.162 35.887-.256.379 6.795-4.864-6.539 4.485Zm1.962 3.42.174-.234.177-.242-.351.476Z" fill="#fff"/><path d="m211.455 35.973-.196.308 4.419-.343-4.223.035Z" fill="#E5E5E5"/><path d="m207.782 34.933-.62.954 6.539-4.485-5.919 3.531Zm.352 5.635 1.341-1.736 1.583-2.245-2.924 3.98Z" fill="#fff"/><path d="m211.645 35.665-.191.309 4.413-.342-4.222.033Z" fill="#E5E5E5"/><path d="m209.476 38.831.18-.248.183-.255-.363.503Z" fill="#fff"/><path d="m211.831 35.355-.186.31 4.408-.34-4.222.03Zm-.151-17.035.359.225 3.864-.095-4.223-.13Zm2.155 12.705 4.217.01.13-.381-4.347.371Z" fill="#E5E5E5"/><path d="m209.476 38.831.363-.503.373-.531-.736 1.035Z" fill="#fff"/><path d="m212.011 35.043-.181.312 4.403-.339-4.222.027Zm1.954-4.403 4.216.014.127-.39-4.343.376Z" fill="#E5E5E5"/><path d="m208.351 34.003-.568.93 5.919-3.531-5.351 2.6Zm3.688-15.458-3.143 3.864.195.045 2.948-3.91Zm-2.2 19.783.185-.262.188-.27-.373.532Zm.658-20.492-.431-.098-.448-.067.879.165Z" fill="#fff"/><path d="m214.093 30.245 4.216.018.123-.399-4.339.381Zm.121-8.936 4.215.103-.196-.405-4.019.302Zm-2.026 13.422-.176.313 4.398-.337-4.222.024Zm-.149-16.186.341.256 3.881-.128-4.222-.128Z" fill="#E5E5E5"/><path d="m209.476 38.832.736-1.035.847-1.21-1.583 2.245Z" fill="#fff"/><path d="m212.36 34.417-.172.314 4.392-.336-4.22.022Zm1.975-4.994 4.214.026.107-.412-4.321.386Z" fill="#E5E5E5"/><path d="m210.212 37.797.219-.3.214-.302-.433.602Z" fill="#fff"/><path d="m212.526 34.101-.167.316 4.387-.334-4.22.018Zm-.148-15.3.323.287 3.898-.161-4.221-.126Z" fill="#E5E5E5"/><path d="m209.325 32.215-.461.882 4.837-1.695-4.376.813Zm.887 5.582.432-.602.414-.608-.846 1.21Zm.432-.602.209-.303.205-.305-.414.608Z" fill="#fff"/><path d="m209.732 31.358-.407.857 4.376-.813-3.969-.044Zm2.306-12.813-1.7 4.768.116.169 1.584-4.937Zm-3.904 22.023 2.924-3.981 2.643-5.185-5.567 9.166Zm3.904-22.023-1.584 4.937.106.18 1.478-5.117Zm-10.057 27.993 13.839.314v-4.44l-13.839 4.127Zm10.058-27.993-1.22 5.72.065.225 1.155-5.945Zm-.98 18.042.2-.306.195-.307-.395.613Zm.98-18.042-.735-.418-.807-.29 1.542.708Zm0 0-1.155 5.945.056.234 1.099-6.18Zm0 0-1.099 6.18.045.245 1.054-6.425Zm-1 8.197-.082.706 1.082-8.903-1 8.197Z" fill="#fff"/><path d="m210.985 24.97.036.257 1.018-6.682-1.054 6.425Zm.036.257.025.268.993-6.95-1.018 6.682Zm.045.836-.027.68 1-8.198-.973 7.518Zm-.02-.568.015.279.978-7.23-.993 6.95Zm.015.279.005.29.973-7.52-.978 7.23Zm-.676 3.944-.299.808 3.616.876-3.317-1.684Zm.674 6.869.395-.613.377-.62-.772 1.233Z" fill="#fff"/><path d="m211.453 35.973.191-.308.186-.31-.377.618Zm.585-17.428-.359-.225-.376-.193.735.418Zm-1.218 9.634-.191.756 3.072 2.467-2.881-3.223Z" fill="#fff"/><path d="m215.819 46.852 4.21-.14v-4.398l-4.21 4.538Zm-1.985-15.827-.133.377 4.35-.366-4.217-.011Z" fill="#E5E5E5"/><path d="m211.058 36.587.772-1.232.696-1.254-1.468 2.486Zm-.102-9.14-.136.732 2.881 3.223-2.745-3.954Zm.874 7.908.181-.312.177-.313-.358.625Z" fill="#fff"/><path d="m211.831 35.355.357-.624.338-.63-.695 1.254Zm-.874-7.907 2.745 3.954-1.663-12.857-1.082 8.903Z" fill="#fff"/><path d="m212.188 34.73.172-.313.167-.316-.339.63Zm-1.129 1.857 1.467-2.486 1.176-2.699-2.643 5.185Z" fill="#fff"/><path d="M215.82 42.411v4.441l4.21-4.537-4.21.096Z" fill="#E5E5E5"/><path d="M215.778 46.872v-4.416l-9.17-.19c.53-.454 3.032-3.335 4.244-5.324 1.091-1.38 2.312-4.125 2.786-5.326.398-1.244 1.209-4.017 1.27-5.154.076-1.421.038-2.501-.209-3.676-.037-.834-1.08-2.976-2.387-4.056-.996-.822-2.495-1.092-3.215-1.132l-.103-.005.103.005c1.223.052 3.71.16 4.653.204.971.045 1.971.486 2.35.7.461.285 1.577 1.263 2.35 2.9.773 1.638.815 3.538.739 4.283-.05.764-.318 2.828-.985 4.965-.667 2.138-1.832 4.251-2.331 5.04-.43.69-1.584 2.43-2.767 3.886-1.152 1.41-1.983 2.293-2.254 2.558l9.191.17v4.416l-4.265.152Z" fill="url(#x)"/><path d="M215.778 46.872v-4.416l-9.17-.19c.53-.454 3.032-3.335 4.244-5.324 1.091-1.38 2.312-4.125 2.786-5.326.398-1.244 1.209-4.017 1.27-5.154.076-1.421.038-2.501-.209-3.676-.037-.834-1.08-2.976-2.387-4.056-.996-.822-2.495-1.092-3.215-1.132l-.103-.005.103.005c1.223.052 3.71.16 4.653.204.971.045 1.971.486 2.35.7.461.285 1.577 1.263 2.35 2.9.773 1.638.815 3.538.739 4.283-.05.764-.318 2.828-.985 4.965-.667 2.138-1.832 4.251-2.331 5.04-.43.69-1.584 2.43-2.767 3.886-1.152 1.41-1.983 2.293-2.254 2.558l9.191.17v4.416l-4.265.152Z" fill="url(#y)"/><path d="M178.425 130.937c19.436-.123 26.355-12.013 26.355-22.209-.001-2.733-.814-5.383-2.302-7.508-1.487-2.126-3.561-3.598-5.874-4.173a83.57 83.57 0 0 0 .985-3.454c.516-2 .618-4.11.296-6.163s-1.058-3.99-2.148-5.652c-1.099-1.716-2.533-3.108-4.185-4.065-1.652-.957-3.475-1.451-5.323-1.443h-33.897c-1.848-.008-3.671.486-5.323 1.443-1.652.957-3.086 2.35-4.185 4.065-1.09 1.663-1.826 3.599-2.148 5.652a15.271 15.271 0 0 0 .296 6.163c.234.919.592 2.132.985 3.454-2.313.575-4.387 2.047-5.874 4.173-1.488 2.125-2.301 4.775-2.303 7.508 0 10.196 6.92 22.086 26.356 22.209.173 1.037.263 2.09.269 3.147v10.519a7.35 7.35 0 0 1-.346 2.683 6.628 6.628 0 0 1-1.274 2.28 5.552 5.552 0 0 1-1.973 1.47 4.912 4.912 0 0 1-2.323.401h-2.959c-.784 0-1.537.36-2.091 1.001-.555.64-.867 1.509-.867 2.415 0 .907.312 1.776.867 2.416.554.641 1.307 1.001 2.091 1.001h35.5c.785 0 1.538-.36 2.092-1.001.555-.64.867-1.509.867-2.416 0-.906-.312-1.775-.867-2.415-.554-.641-1.307-1.001-2.092-1.001h-2.934a4.9 4.9 0 0 1-2.33-.394 5.561 5.561 0 0 1-1.981-1.469 6.623 6.623 0 0 1-1.279-2.282 7.364 7.364 0 0 1-.351-2.689V134.08c.007-1.055.097-2.107.27-3.143Zm16.001-27.334c1.177 0 2.306.54 3.138 1.502.832.961 1.3 2.264 1.3 3.623 0 6.95-4.76 14.35-17.857 15.273a15.86 15.86 0 0 1 2.255-2.805c4.715-4.906 8.474-10.915 11.025-17.627.048.004.089.034.139.034Zm-54.729 5.125c0-1.359.468-2.662 1.3-3.623.832-.962 1.961-1.502 3.138-1.502.05 0 .091-.03.139-.034 2.551 6.712 6.31 12.721 11.025 17.627a15.86 15.86 0 0 1 2.255 2.805c-13.097-.923-17.857-8.323-17.857-15.273Z" fill="url(#z)"/><path d="M127.719 108.728c.002-2.733.815-5.383 2.303-7.508h6.061c-1.488 2.125-2.301 4.775-2.303 7.508h-6.061Z" fill="url(#A)"/><path d="M130.023 101.22c1.488-2.126 3.561-3.598 5.875-4.173h6.06c-2.313.575-4.386 2.047-5.874 4.173h-6.061Z" fill="url(#B)"/><path d="M134.935 105.104c-.832.962-1.3 2.265-1.3 3.624h6.061c0-1.359.468-2.662 1.3-3.624h-6.061Z" fill="url(#C)"/><path d="M134.91 93.593a15.253 15.253 0 0 1-.296-6.163h6.061a15.253 15.253 0 0 0 .296 6.163h-6.061Z" fill="url(#D)"/><path d="M135.895 97.047c-.393-1.322-.751-2.535-.985-3.454h6.061c.234.919.592 2.132.985 3.454h-6.061Z" fill="url(#E)"/><path d="M134.616 87.43c.322-2.053 1.058-3.99 2.148-5.652h6.06c-1.09 1.663-1.826 3.599-2.148 5.652h-6.06Z" fill="url(#F)"/><path d="M138.075 103.604c-1.177 0-2.306.539-3.138 1.501h6.061c.832-.962 1.961-1.501 3.138-1.501h-6.061Z" fill="url(#G)"/><path d="M138.212 103.569c-.048.004-.089.035-.139.035h6.06c.051 0 .092-.031.14-.035h-6.061Z" fill="url(#H)"/><path d="M136.764 81.778c1.099-1.716 2.532-3.108 4.184-4.065h6.061c-1.652.957-3.086 2.35-4.185 4.065h-6.06Z" fill="url(#I)"/><path d="M154.075 130.937c-19.436-.123-26.356-12.013-26.356-22.209h6.061c0 10.196 6.92 22.086 26.356 22.209h-6.061Z" fill="url(#J)"/><path d="M133.635 108.728c0 6.95 4.76 14.351 17.857 15.273h6.06c-13.096-.922-17.856-8.323-17.856-15.273h-6.061Z" fill="url(#K)"/><path d="M143.376 157.269c-.554-.64-.866-1.509-.866-2.415h6.061c0 .906.312 1.775.866 2.415h-6.061Z" fill="url(#L)"/><path d="M142.51 154.854c0-.907.312-1.776.866-2.416h6.061c-.554.64-.866 1.509-.866 2.416h-6.061Z" fill="url(#M)"/><path d="M140.948 77.713c1.652-.957 3.475-1.451 5.323-1.443h6.061-.092c-1.817.008-3.607.502-5.231 1.443h-6.061Z" fill="url(#N)"/><path d="M149.237 121.196c-4.716-4.906-8.474-10.915-11.025-17.627h6.061c2.551 6.712 6.309 12.721 11.025 17.627h-6.061Z" fill="url(#O)"/><path d="M145.471 158.27c-.784 0-1.537-.36-2.092-1.001h6.061c.555.641 1.307 1.001 2.092 1.001h-6.061Z" fill="url(#P)"/><path d="M143.379 152.437c.555-.64 1.308-1 2.092-1h6.061c-.785 0-1.537.36-2.092 1h-6.061Z" fill="url(#Q)"/><path d="M148.795 151.45c-.122 0-.244-.004-.366-.013h6.061c.116.008.233.013.349.013h.017-6.061Z" fill="url(#R)"/><path d="M148.795 151.45a4.9 4.9 0 0 0 1.956-.414h6.061a4.904 4.904 0 0 1-1.956.414h-6.061Z" fill="url(#S)"/><path d="M151.492 124.001a15.942 15.942 0 0 0-2.255-2.805h6.061a15.892 15.892 0 0 1 2.254 2.805h-6.06Z" fill="url(#T)"/><path d="M150.749 151.036a5.555 5.555 0 0 0 1.974-1.47h6.061a5.555 5.555 0 0 1-1.974 1.47h-6.061Z" fill="url(#U)"/><path d="M152.724 149.566a6.628 6.628 0 0 0 1.274-2.28h6.061a6.628 6.628 0 0 1-1.274 2.28h-6.061Z" fill="url(#V)"/><path d="M153.996 147.286c.279-.855.398-1.77.347-2.682h6.061a7.349 7.349 0 0 1-.347 2.682h-6.061Z" fill="url(#W)"/><path d="M154.343 134.084a19.814 19.814 0 0 0-.269-3.147h6.061c.173 1.037.263 2.09.269 3.147h-6.061Z" fill="url(#X)"/><path d="M154.344 144.603v-10.52l6.061.001v10.519h-6.061Z" fill="url(#Y)"/><path d="M172.094 134.08v10.523h6.061V134.08h-6.061Z" fill="url(#Z)"/><path d="M172.364 130.937a19.892 19.892 0 0 0-.27 3.143h6.061c.007-1.055.097-2.107.27-3.143h-6.061Z" fill="url(#aa)"/><path d="M172.096 144.604a7.34 7.34 0 0 0 .35 2.688h6.061a7.362 7.362 0 0 1-.351-2.688h-6.06Z" fill="url(#ab)"/><path d="M172.446 147.292a6.625 6.625 0 0 0 1.28 2.282h6.061a6.625 6.625 0 0 1-1.28-2.282h-6.061Z" fill="url(#ac)"/><path d="M173.725 149.574a5.544 5.544 0 0 0 1.981 1.469h6.06a5.561 5.561 0 0 1-1.981-1.469h-6.06Z" fill="url(#ad)"/><path d="M177.2 121.196a15.892 15.892 0 0 0-2.254 2.805h6.061a15.86 15.86 0 0 1 2.255-2.805H177.2Z" fill="url(#ae)"/><path d="M175.707 151.043a4.897 4.897 0 0 0 1.956.408h6.057a4.916 4.916 0 0 1-1.952-.408h-6.061Z" fill="url(#af)"/><path d="M177.663 151.451c.124 0 .248-.005.372-.014h6.061a5.193 5.193 0 0 1-.374.014h-6.059Z" fill="url(#ag)"/><path d="M180.969 151.437c.785 0 1.538.36 2.092 1l6.061.001c-.554-.641-1.307-1.001-2.092-1.001h-6.061Z" fill="url(#ah)"/><path d="M183.061 157.269c-.554.641-1.307 1.001-2.092 1.001h6.061c.785 0 1.538-.36 2.092-1.001h-6.061Z" fill="url(#ai)"/><path d="M188.227 103.569c-2.551 6.712-6.31 12.721-11.025 17.627h6.061c4.715-4.906 8.474-10.915 11.025-17.627h-6.061Z" fill="url(#aj)"/><path d="M185.491 77.713a10.507 10.507 0 0 0-5.231-1.443h-.092 6.061c1.848-.008 3.671.486 5.323 1.443h-6.061Z" fill="url(#ak)"/><path d="M183.06 152.438c.554.64.866 1.509.866 2.415h6.061c0-.906-.312-1.775-.866-2.415h-6.061Z" fill="url(#al)"/><path d="M183.926 154.853c0 .907-.312 1.776-.866 2.416h6.061c.554-.64.866-1.509.866-2.416h-6.061Z" fill="url(#am)"/><path d="M174.946 124.001c13.096-.922 17.856-8.323 17.856-15.272l6.062-.001c0 6.95-4.76 14.35-17.857 15.273h-6.061Z" fill="url(#an)"/><path d="M198.721 108.729c0 10.195-6.92 22.085-26.356 22.208h6.061c19.436-.123 26.356-12.013 26.356-22.208h-6.061Z" fill="url(#ao)"/><path d="M185.491 77.713c1.652.957 3.086 2.35 4.185 4.065h6.061c-1.099-1.716-2.533-3.108-4.185-4.065h-6.061Z" fill="url(#ap)"/><path d="M188.367 103.604c-.05 0-.092-.031-.14-.035h6.061c.048.004.089.035.14.035h-6.061Z" fill="url(#aq)"/><path d="M191.504 105.105c-.832-.962-1.96-1.501-3.137-1.501h6.061c1.177 0 2.305.539 3.137 1.501h-6.061Z" fill="url(#ar)"/><path d="M189.676 81.778c1.091 1.663 1.826 3.6 2.147 5.652h6.062c-.322-2.053-1.058-3.99-2.148-5.652h-6.061Z" fill="url(#as)"/><path d="M191.526 93.593a80.658 80.658 0 0 1-.985 3.454h6.061c.403-1.322.752-2.535.985-3.454h-6.061Z" fill="url(#at)"/><path d="M191.825 87.43c.322 2.052.22 4.164-.296 6.163h6.061c.516-2 .618-4.11.296-6.163h-6.061Z" fill="url(#au)"/><path d="M192.802 108.729c0-1.36-.468-2.663-1.3-3.625h6.061c.832.962 1.299 2.265 1.299 3.624l-6.06.001Z" fill="url(#av)"/><path d="M190.541 97.047c2.314.575 4.387 2.047 5.875 4.173h6.061c-1.488-2.126-3.561-3.598-5.875-4.173h-6.061Z" fill="url(#aw)"/><path d="M196.416 101.22c1.488 2.125 2.3 4.775 2.302 7.508h6.061c-.002-2.733-.814-5.383-2.302-7.508h-6.061Z" fill="url(#ax)"/><mask id="ay" style="mask-type:alpha" maskUnits="userSpaceOnUse" x="164" y="75" width="44" height="87"><path d="M207.378 75.27h-42.427l35.067 27-.433 15-18.615 10-13.421 2-2.598 32h42.427v-86Z" fill="#D9D9D9"/></mask><g mask="url(#ay)"><path d="m178.001 130.439.42-.002c9.613-.061 16.064-3.028 20.112-7.176 4.054-4.155 5.747-9.543 5.747-14.532-.001-2.637-.786-5.186-2.211-7.222-1.425-2.036-3.4-3.432-5.586-3.975l-.511-.127.153-.504c.402-1.32.748-2.523.979-3.432l.001-.001c.499-1.933.597-3.975.286-5.96-.311-1.986-1.023-3.855-2.072-5.456l-.003-.004c-1.059-1.654-2.436-2.988-4.015-3.903-1.577-.913-3.314-1.383-5.07-1.375H152.33c-1.756-.008-3.493.462-5.071 1.376-1.578.914-2.955 2.248-4.014 3.901l-.003.005c-1.05 1.6-1.761 3.47-2.072 5.455a14.777 14.777 0 0 0 .286 5.96l.001.002c.23.908.585 2.11.979 3.435l.15.502-.508.126c-2.186.543-4.161 1.939-5.586 3.975-1.426 2.036-2.21 4.585-2.212 7.221l43.721 21.711Zm0 0-.07.416m.07-.416-.07.416m0 0a20.417 20.417 0 0 0-.276 3.222v10.513a7.857 7.857 0 0 0 .376 2.858c.3.917.769 1.754 1.377 2.454a6.065 6.065 0 0 0 2.16 1.6c.81.35 1.679.499 2.547.435h2.915c.627 0 1.246.287 1.714.828.471.543.745 1.294.745 2.088 0 .795-.274 1.546-.745 2.089-.468.541-1.087.828-1.714.828h-35.5c-.626 0-1.245-.287-1.713-.828-.471-.543-.745-1.294-.745-2.089 0-.794.274-1.545.745-2.088.468-.541 1.087-.828 1.713-.828h2.941a5.394 5.394 0 0 0 2.54-.442 6.046 6.046 0 0 0 2.152-1.602 7.12 7.12 0 0 0 1.371-2.451 7.846 7.846 0 0 0 .371-2.852v-10.509a20.222 20.222 0 0 0-.276-3.226l-.069-.416m17.371.416-17.371-.416m0 0-.421-.002m.421.002-.421-.002m0 0c-9.612-.061-16.063-3.028-20.111-7.176m20.111 7.176-20.111-7.176m0 0c-4.055-4.155-5.748-9.543-5.748-14.532l5.748 14.532Zm40.557.472-.53.836.987-.069c6.638-.468 11.227-2.583 14.159-5.522 2.932-2.94 4.163-6.66 4.163-10.25 0-1.47-.505-2.892-1.422-3.951-.905-1.045-2.143-1.655-3.455-1.673l-.023-.007a.614.614 0 0 0-.141-.026l-.371-.027-.132.348c-2.529 6.65-6.25 12.598-10.914 17.453a16.36 16.36 0 0 0-2.321 2.888Zm-35.844-20.341-.132-.348-.371.027a.614.614 0 0 0-.141.026l-.023.007c-1.312.018-2.551.628-3.455 1.673-.917 1.059-1.422 2.481-1.422 3.951 0 3.59 1.231 7.31 4.163 10.25 2.932 2.939 7.521 5.054 14.158 5.522l.988.069-.53-.836a16.406 16.406 0 0 0-2.321-2.888c-4.664-4.855-8.386-10.803-10.914-17.453Z" fill="url(#az)" stroke="url(#aA)"/></g><path d="m171.94 130.439.421-.002c9.612-.061 16.063-3.028 20.111-7.176 4.054-4.155 5.747-9.543 5.747-14.532-.001-2.637-.785-5.186-2.211-7.222-1.425-2.036-3.4-3.432-5.586-3.975l-.511-.127.153-.504c.402-1.32.748-2.523.979-3.432l.001-.001c.499-1.933.597-3.975.286-5.96-.311-1.986-1.023-3.855-2.072-5.456l-.003-.004c-1.059-1.654-2.436-2.988-4.014-3.903-1.578-.913-3.315-1.383-5.071-1.375h-33.901c-1.756-.008-3.493.462-5.071 1.376-1.578.914-2.955 2.248-4.014 3.901l-.003.005c-1.049 1.6-1.761 3.47-2.072 5.455a14.777 14.777 0 0 0 .286 5.96l.001.002c.231.908.585 2.11.98 3.435l.149.502-.508.126c-2.186.543-4.161 1.939-5.586 3.975-1.426 2.036-2.21 4.585-2.212 7.221l43.721 21.711Zm0 0-.07.416m.07-.416-.07.416m0 0a20.417 20.417 0 0 0-.276 3.222v10.513a7.857 7.857 0 0 0 .376 2.858c.3.917.769 1.754 1.377 2.454a6.065 6.065 0 0 0 2.16 1.6c.81.35 1.679.499 2.547.435h2.915c.627 0 1.246.287 1.714.828.471.543.745 1.294.745 2.088 0 .795-.274 1.546-.745 2.089-.468.541-1.087.828-1.714.828h-35.5c-.626 0-1.245-.287-1.713-.828-.471-.543-.745-1.294-.745-2.089 0-.794.274-1.545.745-2.088.468-.541 1.087-.828 1.713-.828h2.941a5.391 5.391 0 0 0 2.54-.442 6.038 6.038 0 0 0 2.152-1.602 7.12 7.12 0 0 0 1.371-2.451 7.824 7.824 0 0 0 .371-2.852v-10.509a20.222 20.222 0 0 0-.276-3.226l-.069-.416m17.371.416-17.371-.416m0 0-.421-.002m.421.002-.421-.002m0 0c-9.612-.061-16.063-3.028-20.111-7.176m20.111 7.176-20.111-7.176m0 0c-4.054-4.155-5.747-9.543-5.748-14.532l5.748 14.532Zm40.557.472-.53.836.987-.069c6.638-.468 11.227-2.583 14.159-5.522 2.932-2.94 4.163-6.66 4.163-10.25 0-1.47-.505-2.892-1.422-3.951-.905-1.045-2.143-1.655-3.455-1.673l-.023-.007a.614.614 0 0 0-.141-.026l-.371-.027-.132.348c-2.528 6.65-6.25 12.598-10.914 17.453a16.406 16.406 0 0 0-2.321 2.888Zm-35.844-20.341-.132-.348-.371.027a.614.614 0 0 0-.141.026l-.023.007c-1.312.018-2.551.628-3.455 1.673-.917 1.059-1.422 2.481-1.422 3.951 0 3.59 1.231 7.31 4.163 10.25 2.932 2.939 7.521 5.054 14.159 5.522l.987.069-.53-.836a16.406 16.406 0 0 0-2.321-2.888c-4.664-4.855-8.386-10.803-10.914-17.453Z" fill="url(#aB)" stroke="url(#aC)"/><path d="M158.647 122.418c-6.329-4.1-12.536-15.58-14.849-20.808-.815-2.525 1.056-3.7 2.353-4.055a.408.408 0 0 1 .107-.015c.166 0 .32.103.399.265l11.99 24.613Zm-16.768-20.808c-.808-2.504 1.025-3.68 2.321-4.046a.244.244 0 0 1 .067-.01c.296 0 .454.68.235.878-.726.659-1.187 1.681-.704 3.178h-1.919Z" fill="#E5F2F6"/><path d="M146.117 97.555h-1.776c-.017 0-.018-.015-.001-.015h1.918a.41.41 0 0 0-.073.007.365.365 0 0 1-.068.008Z" fill="#E5F2F6"/><path d="M144.341 97.54a.42.42 0 0 1 .185.044c.171.086.335.22.527.22h1.102c.233 0 .338-.264.105-.264h-1.919Zm12.387 24.878c-6.329-4.1-12.536-15.58-14.849-20.808h1.919c2.313 5.228 8.52 16.708 14.849 20.808h-1.919Z" fill="#E5F2F6"/><path d="m145.089 98.524 11.64 23.894h1.919l-11.854-24.332a.499.499 0 0 0-.449-.281h-.807a.5.5 0 0 0-.449.719Z" fill="#E5F2F6"/><path d="M156.73 122.419c-6.329-4.101-12.536-15.581-14.849-20.809-.81-2.51 1.035-3.686 2.332-4.05a.459.459 0 0 1 .532.254l11.985 24.605Z" fill="#fff"/><defs><linearGradient id="b" x1="207.782" y1="22.354" x2="207.782" y2="26.298" gradientUnits="userSpaceOnUse"><stop stop-color="#E5E5E5"/><stop offset="1" stop-color="#E5E5E5" stop-opacity="0"/></linearGradient><linearGradient id="c" x1="211.934" y1="15.016" x2="209.128" y2="26.623" gradientUnits="userSpaceOnUse"><stop stop-color="#fff"/><stop offset="1" stop-color="#DCEDF2"/></linearGradient><linearGradient id="g" x1="177.162" y1="216.184" x2="177.162" y2="245.717" gradientUnits="userSpaceOnUse"><stop stop-color="#fff"/><stop offset="1" stop-color="#F2FCFF"/></linearGradient><linearGradient id="h" x1="177.162" y1="216.184" x2="177.162" y2="245.717" gradientUnits="userSpaceOnUse"><stop stop-color="#EBFAFF"/><stop offset="1" stop-color="#fff"/></linearGradient><linearGradient id="k" x1="177.162" y1="242.574" x2="177.162" y2="286.043" gradientUnits="userSpaceOnUse"><stop stop-color="#fff"/><stop offset="1" stop-color="#EBFAFF"/></linearGradient><linearGradient id="l" x1="387.471" y1="249.336" x2="79.188" y2="249.336" gradientUnits="userSpaceOnUse"><stop stop-color="#CED2EF"/><stop offset=".504" stop-color="#CED2EF" stop-opacity="0"/></linearGradient><linearGradient id="n" x1="212.415" y1="-19.965" x2="137.131" y2="168.536" gradientUnits="userSpaceOnUse"><stop stop-color="#DEE5F8"/><stop offset="1" stop-color="#fff"/></linearGradient><linearGradient id="o" x1="245.272" y1="-19.629" x2="139.991" y2="60.959" gradientUnits="userSpaceOnUse"><stop stop-color="#DEE5F8"/><stop offset="1" stop-color="#fff"/></linearGradient><linearGradient id="p" x1="252.652" y1="-46.069" x2="91.899" y2="49.589" gradientUnits="userSpaceOnUse"><stop stop-color="#fff"/><stop offset="1" stop-color="#EBF0FF"/></linearGradient><linearGradient id="q" x1="210.576" y1="0" x2="222.833" y2="67.93" gradientUnits="userSpaceOnUse"><stop stop-color="#DEE5F8"/><stop offset="1" stop-color="#BDBEE3"/></linearGradient><linearGradient id="r" x1="183.21" y1="0" x2="232.591" y2="81.266" gradientUnits="userSpaceOnUse"><stop stop-color="#9ADEFC"/><stop offset="1" stop-color="#33BDF7"/></linearGradient><linearGradient id="s" x1="220.903" y1="53.368" x2="177.709" y2="2.099" gradientUnits="userSpaceOnUse"><stop stop-color="#fff" stop-opacity=".7"/><stop offset="1" stop-color="#A0A3CF"/></linearGradient><linearGradient id="t" x1="205.001" y1="0" x2="221.48" y2="57.65" gradientUnits="userSpaceOnUse"><stop stop-color="#0BA7E8"/><stop offset="1" stop-color="#8FDBFC"/></linearGradient><linearGradient id="u" x1="262.38" y1="27.416" x2="195.512" y2="39.292" gradientUnits="userSpaceOnUse"><stop stop-color="#BDBEE3"/><stop offset="1" stop-color="#DEE5F8"/></linearGradient><linearGradient id="v" x1="272.379" y1="32.802" x2="218.416" y2="43.816" gradientUnits="userSpaceOnUse"><stop stop-color="#0BA7E8"/><stop offset="1" stop-color="#8FDBFC"/></linearGradient><linearGradient id="w" x1="225.408" y1=".024" x2="248.686" y2="50.821" gradientUnits="userSpaceOnUse"><stop stop-color="#0BA7E8"/><stop offset="1" stop-color="#8FDBFC"/></linearGradient><linearGradient id="x" x1="213.325" y1="17.593" x2="213.325" y2="46.872" gradientUnits="userSpaceOnUse"><stop stop-color="#E5E5E5"/><stop offset="1" stop-color="#E5E5E5" stop-opacity="0"/></linearGradient><linearGradient id="y" x1="251.185" y1="41.67" x2="213.325" y2="35.155" gradientUnits="userSpaceOnUse"><stop stop-color="#fff"/><stop offset="1" stop-color="#DCEDF2"/></linearGradient><linearGradient id="z" x1="127.719" y1="71.77" x2="207.635" y2="152.352" gradientUnits="userSpaceOnUse"><stop offset=".181" stop-color="#83D7FB"/><stop offset="1" stop-color="#50C6F9"/></linearGradient><linearGradient id="A" x1="127.719" y1="71.77" x2="207.635" y2="152.352" gradientUnits="userSpaceOnUse"><stop offset=".181" stop-color="#83D7FB"/><stop offset="1" stop-color="#50C6F9"/></linearGradient><linearGradient id="B" x1="127.719" y1="71.77" x2="207.635" y2="152.352" gradientUnits="userSpaceOnUse"><stop offset=".181" stop-color="#83D7FB"/><stop offset="1" stop-color="#50C6F9"/></linearGradient><linearGradient id="C" x1="127.719" y1="71.77" x2="207.635" y2="152.352" gradientUnits="userSpaceOnUse"><stop offset=".181" stop-color="#83D7FB"/><stop offset="1" stop-color="#50C6F9"/></linearGradient><linearGradient id="D" x1="127.719" y1="71.77" x2="207.635" y2="152.352" gradientUnits="userSpaceOnUse"><stop offset=".181" stop-color="#83D7FB"/><stop offset="1" stop-color="#50C6F9"/></linearGradient><linearGradient id="E" x1="127.719" y1="71.77" x2="207.635" y2="152.352" gradientUnits="userSpaceOnUse"><stop offset=".181" stop-color="#83D7FB"/><stop offset="1" stop-color="#50C6F9"/></linearGradient><linearGradient id="F" x1="127.719" y1="71.77" x2="207.635" y2="152.352" gradientUnits="userSpaceOnUse"><stop offset=".181" stop-color="#83D7FB"/><stop offset="1" stop-color="#50C6F9"/></linearGradient><linearGradient id="G" x1="127.719" y1="71.77" x2="207.635" y2="152.352" gradientUnits="userSpaceOnUse"><stop offset=".181" stop-color="#83D7FB"/><stop offset="1" stop-color="#50C6F9"/></linearGradient><linearGradient id="H" x1="127.719" y1="71.77" x2="207.635" y2="152.352" gradientUnits="userSpaceOnUse"><stop offset=".181" stop-color="#83D7FB"/><stop offset="1" stop-color="#50C6F9"/></linearGradient><linearGradient id="I" x1="127.719" y1="71.77" x2="207.635" y2="152.352" gradientUnits="userSpaceOnUse"><stop offset=".181" stop-color="#83D7FB"/><stop offset="1" stop-color="#50C6F9"/></linearGradient><linearGradient id="J" x1="127.719" y1="71.77" x2="207.635" y2="152.352" gradientUnits="userSpaceOnUse"><stop offset=".181" stop-color="#83D7FB"/><stop offset="1" stop-color="#50C6F9"/></linearGradient><linearGradient id="K" x1="127.719" y1="71.77" x2="207.635" y2="152.352" gradientUnits="userSpaceOnUse"><stop offset=".181" stop-color="#83D7FB"/><stop offset="1" stop-color="#50C6F9"/></linearGradient><linearGradient id="L" x1="127.719" y1="71.77" x2="207.635" y2="152.352" gradientUnits="userSpaceOnUse"><stop offset=".181" stop-color="#83D7FB"/><stop offset="1" stop-color="#50C6F9"/></linearGradient><linearGradient id="M" x1="127.719" y1="71.77" x2="207.635" y2="152.352" gradientUnits="userSpaceOnUse"><stop offset=".181" stop-color="#83D7FB"/><stop offset="1" stop-color="#50C6F9"/></linearGradient><linearGradient id="N" x1="127.719" y1="71.77" x2="207.635" y2="152.352" gradientUnits="userSpaceOnUse"><stop offset=".181" stop-color="#83D7FB"/><stop offset="1" stop-color="#50C6F9"/></linearGradient><linearGradient id="O" x1="127.719" y1="71.77" x2="207.635" y2="152.352" gradientUnits="userSpaceOnUse"><stop offset=".181" stop-color="#83D7FB"/><stop offset="1" stop-color="#50C6F9"/></linearGradient><linearGradient id="P" x1="127.719" y1="71.77" x2="207.635" y2="152.352" gradientUnits="userSpaceOnUse"><stop offset=".181" stop-color="#83D7FB"/><stop offset="1" stop-color="#50C6F9"/></linearGradient><linearGradient id="Q" x1="127.719" y1="71.77" x2="207.635" y2="152.352" gradientUnits="userSpaceOnUse"><stop offset=".181" stop-color="#83D7FB"/><stop offset="1" stop-color="#50C6F9"/></linearGradient><linearGradient id="R" x1="127.719" y1="71.77" x2="207.635" y2="152.352" gradientUnits="userSpaceOnUse"><stop offset=".181" stop-color="#83D7FB"/><stop offset="1" stop-color="#50C6F9"/></linearGradient><linearGradient id="S" x1="127.719" y1="71.77" x2="207.635" y2="152.352" gradientUnits="userSpaceOnUse"><stop offset=".181" stop-color="#83D7FB"/><stop offset="1" stop-color="#50C6F9"/></linearGradient><linearGradient id="T" x1="127.719" y1="71.77" x2="207.635" y2="152.352" gradientUnits="userSpaceOnUse"><stop offset=".181" stop-color="#83D7FB"/><stop offset="1" stop-color="#50C6F9"/></linearGradient><linearGradient id="U" x1="127.719" y1="71.77" x2="207.635" y2="152.352" gradientUnits="userSpaceOnUse"><stop offset=".181" stop-color="#83D7FB"/><stop offset="1" stop-color="#50C6F9"/></linearGradient><linearGradient id="V" x1="127.719" y1="71.77" x2="207.635" y2="152.352" gradientUnits="userSpaceOnUse"><stop offset=".181" stop-color="#83D7FB"/><stop offset="1" stop-color="#50C6F9"/></linearGradient><linearGradient id="W" x1="127.719" y1="71.77" x2="207.635" y2="152.352" gradientUnits="userSpaceOnUse"><stop offset=".181" stop-color="#83D7FB"/><stop offset="1" stop-color="#50C6F9"/></linearGradient><linearGradient id="X" x1="127.719" y1="71.77" x2="207.635" y2="152.352" gradientUnits="userSpaceOnUse"><stop offset=".181" stop-color="#83D7FB"/><stop offset="1" stop-color="#50C6F9"/></linearGradient><linearGradient id="Y" x1="127.719" y1="71.77" x2="207.635" y2="152.352" gradientUnits="userSpaceOnUse"><stop offset=".181" stop-color="#83D7FB"/><stop offset="1" stop-color="#50C6F9"/></linearGradient><linearGradient id="Z" x1="127.719" y1="71.77" x2="207.635" y2="152.352" gradientUnits="userSpaceOnUse"><stop offset=".181" stop-color="#83D7FB"/><stop offset="1" stop-color="#50C6F9"/></linearGradient><linearGradient id="aa" x1="127.719" y1="71.77" x2="207.635" y2="152.352" gradientUnits="userSpaceOnUse"><stop offset=".181" stop-color="#83D7FB"/><stop offset="1" stop-color="#50C6F9"/></linearGradient><linearGradient id="ab" x1="127.719" y1="71.77" x2="207.635" y2="152.352" gradientUnits="userSpaceOnUse"><stop offset=".181" stop-color="#83D7FB"/><stop offset="1" stop-color="#50C6F9"/></linearGradient><linearGradient id="ac" x1="127.719" y1="71.77" x2="207.635" y2="152.352" gradientUnits="userSpaceOnUse"><stop offset=".181" stop-color="#83D7FB"/><stop offset="1" stop-color="#50C6F9"/></linearGradient><linearGradient id="ad" x1="127.719" y1="71.77" x2="207.635" y2="152.352" gradientUnits="userSpaceOnUse"><stop offset=".181" stop-color="#83D7FB"/><stop offset="1" stop-color="#50C6F9"/></linearGradient><linearGradient id="ae" x1="127.719" y1="71.77" x2="207.635" y2="152.352" gradientUnits="userSpaceOnUse"><stop offset=".181" stop-color="#83D7FB"/><stop offset="1" stop-color="#50C6F9"/></linearGradient><linearGradient id="af" x1="127.719" y1="71.77" x2="207.635" y2="152.352" gradientUnits="userSpaceOnUse"><stop offset=".181" stop-color="#83D7FB"/><stop offset="1" stop-color="#50C6F9"/></linearGradient><linearGradient id="ag" x1="127.719" y1="71.77" x2="207.635" y2="152.352" gradientUnits="userSpaceOnUse"><stop offset=".181" stop-color="#83D7FB"/><stop offset="1" stop-color="#50C6F9"/></linearGradient><linearGradient id="ah" x1="127.719" y1="71.77" x2="207.635" y2="152.352" gradientUnits="userSpaceOnUse"><stop offset=".181" stop-color="#83D7FB"/><stop offset="1" stop-color="#50C6F9"/></linearGradient><linearGradient id="ai" x1="127.719" y1="71.77" x2="207.635" y2="152.352" gradientUnits="userSpaceOnUse"><stop offset=".181" stop-color="#83D7FB"/><stop offset="1" stop-color="#50C6F9"/></linearGradient><linearGradient id="aj" x1="127.719" y1="71.77" x2="207.635" y2="152.352" gradientUnits="userSpaceOnUse"><stop offset=".181" stop-color="#83D7FB"/><stop offset="1" stop-color="#50C6F9"/></linearGradient><linearGradient id="ak" x1="127.719" y1="71.77" x2="207.635" y2="152.352" gradientUnits="userSpaceOnUse"><stop offset=".181" stop-color="#83D7FB"/><stop offset="1" stop-color="#50C6F9"/></linearGradient><linearGradient id="al" x1="127.719" y1="71.77" x2="207.635" y2="152.352" gradientUnits="userSpaceOnUse"><stop offset=".181" stop-color="#83D7FB"/><stop offset="1" stop-color="#50C6F9"/></linearGradient><linearGradient id="am" x1="127.719" y1="71.77" x2="207.635" y2="152.352" gradientUnits="userSpaceOnUse"><stop offset=".181" stop-color="#83D7FB"/><stop offset="1" stop-color="#50C6F9"/></linearGradient><linearGradient id="an" x1="127.719" y1="71.77" x2="207.635" y2="152.352" gradientUnits="userSpaceOnUse"><stop offset=".181" stop-color="#83D7FB"/><stop offset="1" stop-color="#50C6F9"/></linearGradient><linearGradient id="ao" x1="127.719" y1="71.77" x2="207.635" y2="152.352" gradientUnits="userSpaceOnUse"><stop offset=".181" stop-color="#83D7FB"/><stop offset="1" stop-color="#50C6F9"/></linearGradient><linearGradient id="ap" x1="127.719" y1="71.77" x2="207.635" y2="152.352" gradientUnits="userSpaceOnUse"><stop offset=".181" stop-color="#83D7FB"/><stop offset="1" stop-color="#50C6F9"/></linearGradient><linearGradient id="aq" x1="127.719" y1="71.77" x2="207.635" y2="152.352" gradientUnits="userSpaceOnUse"><stop offset=".181" stop-color="#83D7FB"/><stop offset="1" stop-color="#50C6F9"/></linearGradient><linearGradient id="ar" x1="127.719" y1="71.77" x2="207.635" y2="152.352" gradientUnits="userSpaceOnUse"><stop offset=".181" stop-color="#83D7FB"/><stop offset="1" stop-color="#50C6F9"/></linearGradient><linearGradient id="as" x1="127.719" y1="71.77" x2="207.635" y2="152.352" gradientUnits="userSpaceOnUse"><stop offset=".181" stop-color="#83D7FB"/><stop offset="1" stop-color="#50C6F9"/></linearGradient><linearGradient id="at" x1="127.719" y1="71.77" x2="207.635" y2="152.352" gradientUnits="userSpaceOnUse"><stop offset=".181" stop-color="#83D7FB"/><stop offset="1" stop-color="#50C6F9"/></linearGradient><linearGradient id="au" x1="127.719" y1="71.77" x2="207.635" y2="152.352" gradientUnits="userSpaceOnUse"><stop offset=".181" stop-color="#83D7FB"/><stop offset="1" stop-color="#50C6F9"/></linearGradient><linearGradient id="av" x1="127.719" y1="71.77" x2="207.635" y2="152.352" gradientUnits="userSpaceOnUse"><stop offset=".181" stop-color="#83D7FB"/><stop offset="1" stop-color="#50C6F9"/></linearGradient><linearGradient id="aw" x1="127.719" y1="71.77" x2="207.635" y2="152.352" gradientUnits="userSpaceOnUse"><stop offset=".181" stop-color="#83D7FB"/><stop offset="1" stop-color="#50C6F9"/></linearGradient><linearGradient id="ax" x1="127.719" y1="71.77" x2="207.635" y2="152.352" gradientUnits="userSpaceOnUse"><stop offset=".181" stop-color="#83D7FB"/><stop offset="1" stop-color="#50C6F9"/></linearGradient><linearGradient id="az" x1="133.78" y1="71.77" x2="213.483" y2="145.814" gradientUnits="userSpaceOnUse"><stop offset=".181" stop-color="#83D7FB"/><stop offset="1" stop-color="#50C6F9"/></linearGradient><linearGradient id="aA" x1="169.28" y1="76.27" x2="169.28" y2="158.27" gradientUnits="userSpaceOnUse"><stop stop-color="#0CA8E9"/><stop offset="1" stop-color="#8FDCFD"/></linearGradient><linearGradient id="aB" x1="127.719" y1="71.77" x2="207.422" y2="145.814" gradientUnits="userSpaceOnUse"><stop offset=".181" stop-color="#83D7FB"/><stop offset="1" stop-color="#50C6F9"/></linearGradient><linearGradient id="aC" x1="163.219" y1="76.27" x2="163.219" y2="158.27" gradientUnits="userSpaceOnUse"><stop stop-color="#0CA8E9"/><stop offset="1" stop-color="#8FDCFD"/></linearGradient><filter id="a" x="196.134" y="5.631" width="37.032" height="36.471" filterUnits="userSpaceOnUse" color-interpolation-filters="sRGB"><feFlood flood-opacity="0" result="BackgroundImageFix"/><feColorMatrix in="SourceAlpha" values="0 0 0 0 0 0 0 0 0 0 0 0 0 0 0 0 0 0 127 0" result="hardAlpha"/><feOffset dx="4" dy="-2"/><feGaussianBlur stdDeviation="5"/><feColorMatrix values="0 0 0 0 0 0 0 0 0 0.364706 0 0 0 0 0.516667 0 0 0 0.35 0"/><feBlend in2="BackgroundImageFix" result="effect1_dropShadow_1301_332090"/><feBlend in="SourceGraphic" in2="effect1_dropShadow_1301_332090" result="shape"/></filter><filter id="e" x=".931" y="231.877" width="352.474" height="52.113" filterUnits="userSpaceOnUse" color-interpolation-filters="sRGB"><feFlood flood-opacity="0" result="BackgroundImageFix"/><feBlend in="SourceGraphic" in2="BackgroundImageFix" result="shape"/><feGaussianBlur stdDeviation="4" result="effect1_foregroundBlur_1301_332090"/></filter><filter id="i" x="93.257" y="212.516" width="161.337" height="39.907" filterUnits="userSpaceOnUse" color-interpolation-filters="sRGB"><feFlood flood-opacity="0" result="BackgroundImageFix"/><feBlend in="SourceGraphic" in2="BackgroundImageFix" result="shape"/><feGaussianBlur stdDeviation="5" result="effect1_foregroundBlur_1301_332090"/></filter><filter id="m" x="91.679" y="12.063" width="154.926" height="190.365" filterUnits="userSpaceOnUse" color-interpolation-filters="sRGB"><feFlood flood-opacity="0" result="BackgroundImageFix"/><feGaussianBlur in="BackgroundImageFix" stdDeviation="5"/><feComposite in2="SourceAlpha" operator="in" result="effect1_backgroundBlur_1301_332090"/><feBlend in="SourceGraphic" in2="effect1_backgroundBlur_1301_332090" result="shape"/></filter><radialGradient id="d" cx="0" cy="0" r="1" gradientUnits="userSpaceOnUse" gradientTransform="scale(164.518 118.368) rotate(90 -.484 1.51)"><stop stop-color="#7E32A2"/><stop offset="1" stop-color="#fff" stop-opacity="0"/></radialGradient><radialGradient id="f" cx="0" cy="0" r="1" gradientUnits="userSpaceOnUse" gradientTransform="matrix(0 18.0563 -168.237 0 177.168 257.934)"><stop stop-color="#502F96"/><stop offset="1" stop-color="#C4C4C4" stop-opacity="0"/></radialGradient><radialGradient id="j" cx="0" cy="0" r="1" gradientUnits="userSpaceOnUse" gradientTransform="matrix(0 8.69781 -70.8338 0 173.926 232.469)"><stop stop-color="#3D74B5"/><stop offset="1" stop-color="#C4C4C4" stop-opacity="0"/></radialGradient></defs></svg>