<svg width="353" height="355" fill="none" xmlns="http://www.w3.org/2000/svg"><ellipse cx="168.114" cy="236.147" rx="164.518" ry="118.368" fill="url(#a)" fill-opacity=".1"/><g filter="url(#b)"><ellipse cx="176.465" cy="257.934" rx="168.237" ry="18.056" fill="url(#c)" fill-opacity=".5"/></g><path d="m77.623 250.139.262 3.162.848 1.968-1.11-5.13Zm196.828 1.972-.26 3.158.847-1.968-.587-1.19Zm-195.978 0 .26 3.158 2.573 1.891-2.833-5.049Zm193.398 1.894-.254 3.155 2.574-1.891-2.32-1.264Zm3.429-3.866-.849 1.972.587 1.19.262-3.162Zm-194.247 3.866.253 3.155 4.186 1.794-4.439-4.949Zm-2.58-1.894-.85-1.972 1.11 5.13-.26-3.158Zm189.201 3.692-.242 3.151 4.185-1.794-3.943-1.357Zm6.777-3.692-2.58 1.894 2.32 1.264.26-3.158Zm-189.202 3.692.243 3.151 5.681 1.681-5.924-4.832Zm-4.196-1.798-2.58-1.894 2.833 5.049-.253-3.155Zm180.925 3.481-.228 3.149 5.682-1.681-5.454-1.468Zm9.893-3.481-4.197 1.798 3.943 1.357.254-3.155Zm-180.925 3.481.227 3.149 7.063 1.549-7.29-4.698Zm-5.697-1.683-4.196-1.798 4.439 4.949-.243-3.151Zm169.648 3.235-.209 3.146 7.062-1.549-6.853-1.597Zm-156.87 0 .209 3.146 8.326 1.4-8.535-4.546Zm169.647-3.235-5.696 1.683 5.454 1.468.242-3.151Zm-21.126 4.638-.186 3.143 8.326-1.4-8.14-1.743Zm-155.602-2.955-5.697-1.683 5.924 4.832-.227-3.149ZM77.36 246.96l.263 3.179.85 1.972-1.113-5.151Zm29.015 13.481.187 3.143 9.473 1.233-9.66-4.376Zm168.337-11.505-.261 3.175.849-1.972-.588-1.203Zm-12.734 8.55-7.081 1.552 6.853 1.597.228-3.149Zm-24.928 4.19-.161 3.141 9.473-1.233-9.312-1.908Zm-139.023-2.638-7.08-1.552 7.288 4.698-.208-3.146Zm17.847 2.638.161 3.141 10.503 1.049-10.664-4.19Zm110.645 1.051-.133 3.139 10.503-1.049-10.37-2.09ZM78.211 248.936l.262 3.175 2.58 1.894-2.841-5.069Zm176.686 10.102-8.349 1.403 8.14 1.743.209-3.146Zm-128.493 3.689.134 3.139 11.413.846-11.547-3.985Zm145.721-11.893-.254 3.171 2.58-1.894-2.326-1.277Zm-165.75 9.607-8.348-1.403 8.535 4.546-.187-3.143Zm108.701 3.134-.103 3.137 11.413-.846-11.31-2.291Zm-77.228 0 .103 3.137 12.205.626-12.308-3.763Zm137.716-16.615-.852 1.976.588 1.203.264-3.179Zm-72.726 17.242-.07 3.136 12.205-.626-12.135-2.51Zm43.71-3.761-9.498 1.235 9.312 1.908.186-3.143Zm-96.462 3.761.07 3.136 12.877.389-12.947-3.525Zm-69.287-13.368.254 3.171 4.196 1.798-4.45-4.969Zm109.128 13.757-.036 3.136 12.877-.389-12.841-2.747ZM78.212 248.936l-.852-1.976 1.113 5.151-.261-3.175Zm37.662 12.74-9.499-1.235 9.66 4.376-.161-3.141Zm47.123 2.915.036 3.136 13.429.133-13.465-3.269Zm13.465.134v3.135l13.429-.133-13.429-3.002Zm91.456-12.091-.244 3.169 4.197-1.798-3.953-1.371Zm-30.868 9.042-10.531 1.051 10.37 2.09.161-3.141Zm-110.646 1.051-10.53-1.051 10.664 4.19-.134-3.139Zm148.308-13.791-2.587 1.898 2.326 1.277.261-3.175Zm-189.706 3.698.243 3.169 5.697 1.683-5.94-4.852Zm141.513 10.093-11.443.848 11.31 2.291.133-3.139Zm-145.72-11.893-2.588-1.898 2.842 5.069-.254-3.171Zm57.049 12.741-11.444-.848 11.547 3.985-.103-3.137Zm124.358-9.254-.228 3.165 5.696-1.683-5.468-1.482Zm-47.13 9.254-12.238.627 12.135 2.51.103-3.137Zm-64.99.627-12.238-.627 12.308 3.763-.07-3.136Zm52.752 0-12.911.389 12.841 2.747.07-3.136Zm69.287-13.368-4.207 1.8 3.953 1.371.254-3.171Zm-109.128 13.757-12.911-.389 12.947 3.525-.036-3.136Zm-72.28-10.27.23 3.165 7.08 1.552-7.31-4.717Zm99.21 10.27-13.465.134 13.429 3.002.036-3.136Zm-13.465.134-13.465-.134 13.465 3.269v-3.135Zm-91.456-12.091-4.207-1.8 4.45 4.969-.243-3.169Zm170.1 3.242-.209 3.162 7.081-1.552-6.872-1.61Zm-157.288 0 .21 3.162 8.347 1.403-8.557-4.565Zm170.1-3.242-5.712 1.687 5.468 1.482.244-3.169Zm-21.182 4.647-.188 3.16 8.349-1.403-8.161-1.757Zm-156.018-2.96-5.712-1.687 5.94 4.852-.228-3.165Zm-13.623-10.556.265 3.195.852 1.976-1.117-5.171Zm29.093 13.516.187 3.16 9.499 1.235-9.686-4.395Zm168.787-11.537-.263 3.192.852-1.976-.589-1.216Zm-12.769 8.577-7.1 1.555 6.872 1.61.228-3.165Zm-24.994 4.198-.162 3.157 9.498-1.235-9.336-1.922Zm-139.394-2.643-7.1-1.555 7.31 4.717-.21-3.162Zm17.894 2.643.162 3.157 10.53 1.051-10.692-4.208Zm110.941 1.052-.134 3.156 10.531-1.051-10.397-2.105ZM77.949 245.744l.263 3.192 2.587 1.898-2.85-5.09Zm177.157 10.132-8.37 1.405 8.161 1.757.209-3.162Zm-128.835 3.695.133 3.156 11.444.848-11.577-4.004Zm146.11-11.926-.256 3.189 2.587-1.898-2.331-1.291Zm-166.193 9.636-8.37-1.405 8.557 4.565-.187-3.16Zm108.991 3.139-.103 3.155 11.443-.848-11.34-2.307Zm-77.434 0 .103 3.155 12.238.627-12.341-3.782Zm138.084-16.655-.854 1.979.589 1.216.265-3.195Zm-72.92 17.284-.071 3.153 12.238-.627-12.167-2.526Zm43.827-3.768-9.524 1.238 9.336 1.922.188-3.16Zm-96.721 3.768.071 3.153 12.911.389-12.982-3.542Zm-69.472-13.404.256 3.189 4.207 1.8-4.463-4.989Zm109.42 13.794-.036 3.152 12.911-.389-12.875-2.763ZM77.949 245.744l-.854-1.979 1.117 5.171-.263-3.192Zm37.763 12.775-9.524-1.238 9.686 4.395-.162-3.157Zm47.249 2.92.036 3.152 13.465.134-13.501-3.286Zm13.501.134v3.152l13.465-.134-13.465-3.018Zm91.701-12.124-.245 3.185 4.207-1.8-3.962-1.385Zm-30.951 9.07-10.559 1.052 10.397 2.105.162-3.157Zm-110.941 1.052-10.559-1.052 10.692 4.208-.133-3.156Zm148.704-13.827-2.594 1.901 2.331 1.291.263-3.192Zm-190.214 3.705.245 3.185 5.712 1.687-5.957-4.872Zm141.892 10.122-11.474.849 11.34 2.307.134-3.156Zm-146.11-11.926-2.594-1.901 2.85 5.09-.256-3.189Zm57.202 12.775-11.474-.849 11.577 4.004-.103-3.155Zm124.691-9.281-.23 3.182 5.712-1.687-5.482-1.495Zm-47.257 9.281-12.27.629 12.167 2.526.103-3.155Zm-65.164.629-12.27-.629 12.341 3.782-.071-3.153Zm52.894 0-12.946.39 12.875 2.763.071-3.153Zm69.472-13.404-4.218 1.804 3.962 1.385.256-3.189Zm-109.42 13.794-12.946-.39 12.982 3.542-.036-3.152Zm-72.473-10.3.23 3.182 7.1 1.555-7.33-4.737Zm99.475 10.3-13.501.134 13.465 3.018.036-3.152Zm-13.501.134-13.501-.134 13.501 3.286v-3.152Zm-91.7-12.124-4.22-1.804 4.464 4.989-.245-3.185Zm170.555 3.247-.211 3.18 7.1-1.555-6.889-1.625Zm-157.71 0 .21 3.18 8.371 1.405-8.581-4.585Zm170.556-3.247-5.727 1.69 5.482 1.495.245-3.185Zm-21.239 4.655-.188 3.177 8.37-1.405-8.182-1.772Zm-156.436-2.965-5.727-1.69 5.957 4.872-.23-3.182Zm-13.66-10.587.267 3.213.854 1.979-1.12-5.192ZM106 254.104l.188 3.177 9.524 1.238-9.712-4.415Zm169.239-11.569-.264 3.209.854-1.979-.59-1.23Zm-12.803 8.604-7.119 1.557 6.889 1.625.23-3.182Zm-25.061 4.205-.163 3.175 9.524-1.238-9.361-1.937Zm-139.768-2.648-7.119-1.557 7.33 4.737-.211-3.18Zm17.942 2.648.163 3.175 10.559 1.052-10.722-4.227Zm111.239 1.054-.135 3.173 10.559-1.052-10.424-2.121ZM77.685 242.535l.264 3.209 2.594 1.901-2.858-5.11Zm177.632 10.161-8.393 1.408 8.182 1.772.211-3.18Zm-129.181 3.702.135 3.173 11.474.849-11.609-4.022Zm146.502-11.959-.257 3.206 2.594-1.901-2.337-1.305ZM106 254.104l-8.393-1.408 8.581 4.585-.188-3.177Zm109.283 3.145-.104 3.171 11.474-.849-11.37-2.322Zm-77.642 0 .104 3.171 12.27.629-12.374-3.8Zm138.454-16.697-.856 1.983.59 1.23.266-3.213Zm-73.115 17.327-.071 3.17 12.27-.629-12.199-2.541Zm43.944-3.775-9.549 1.24 9.361 1.937.188-3.177Zm-96.98 3.775.071 3.17 12.946.39-13.017-3.56Zm-69.658-13.44.257 3.206 4.218 1.804-4.475-5.01Zm109.713 13.831-.036 3.169 12.946-.39-12.91-2.779ZM77.685 242.535l-.856-1.983 1.12 5.192-.264-3.209Zm37.864 12.809-9.549-1.24 9.712 4.415-.163-3.175Zm47.376 2.926.036 3.169 13.501.134-13.537-3.303Zm13.537.134v3.169l13.501-.134-13.501-3.035Zm91.947-12.157-.246 3.202 4.218-1.804-3.972-1.398Zm-31.034 9.097-10.587 1.054 10.424 2.121.163-3.175Zm-111.239 1.054-10.587-1.054 10.722 4.227-.135-3.173Zm149.103-13.863-2.601 1.904 2.337 1.305.264-3.209Zm-190.724 3.712.246 3.202 5.727 1.69-5.973-4.892Zm142.273 10.151-11.505.851 11.37 2.322.135-3.173ZM80.286 244.439l-2.601-1.904 2.858 5.11-.258-3.206Zm57.355 12.81-11.505-.851 11.609 4.022-.104-3.171Zm125.025-9.31-.23 3.2 5.727-1.69-5.497-1.51Zm-47.383 9.31-12.303.63 12.199 2.541.104-3.171Zm-65.339.63-12.303-.63 12.374 3.8-.071-3.17Zm53.036 0-12.981.391 12.91 2.779.071-3.17Zm69.658-13.44-4.229 1.808 3.972 1.398.257-3.206ZM162.925 258.27l-12.981-.391 13.017 3.56-.036-3.169Zm-72.668-10.331.231 3.2 7.119 1.557-7.35-4.757ZM190 258.27l-13.537.134 13.501 3.035.036-3.169Zm-13.537.134-13.537-.134 13.537 3.303v-3.169Zm-91.947-12.157-4.23-1.808 4.476 5.01-.246-3.202ZM255.53 249.5l-.212 3.196 7.119-1.557-6.907-1.639Zm-158.134 0 .212 3.196 8.393 1.408-8.605-4.604Zm171.014-3.253-5.743 1.692 5.497 1.51.246-3.202Zm-21.296 4.663-.189 3.194 8.393-1.408-8.204-1.786Zm-156.856-2.971-5.742-1.692 5.973 4.892-.23-3.2Zm-13.696-10.617.268 3.23.856 1.983-1.124-5.213Zm29.25 13.588.189 3.194 9.549 1.24-9.738-4.434Zm169.694-11.601-.266 3.226.856-1.983-.59-1.243Zm-12.839 8.63-7.137 1.561 6.907 1.639.23-3.2Zm-25.128 4.213-.163 3.192 9.549-1.24-9.386-1.952ZM97.395 249.5l-7.138-1.561 7.35 4.757-.212-3.196Zm17.99 2.652.164 3.192 10.587 1.054-10.751-4.246Zm111.538 1.056-.135 3.19 10.587-1.054-10.452-2.136ZM77.419 239.309l.266 3.226 2.6 1.904-2.866-5.13ZM255.53 249.5l-8.416 1.41 8.204 1.786.212-3.196Zm-129.528 3.708.135 3.19 11.505.851-11.64-4.041Zm146.896-11.991-.259 3.222 2.601-1.904-2.342-1.318Zm-167.086 9.693-8.416-1.41 8.605 4.604-.189-3.194Zm109.576 3.151-.104 3.188 11.505-.851-11.401-2.337Zm-77.85 0 .104 3.188 12.303.63-12.407-3.818Zm138.825-16.739-.857 1.987.59 1.243.267-3.23Zm-73.311 17.37-.071 3.187 12.303-.63-12.232-2.557Zm44.062-3.782-9.575 1.242 9.386 1.952.189-3.194Zm-97.24 3.782.071 3.187 12.981.391-13.052-3.578Zm-69.846-13.475.258 3.222 4.23 1.808-4.488-5.03Zm110.008 13.866L190 258.27l12.981-.391-12.945-2.796ZM77.419 239.309l-.858-1.987 1.124 5.213-.266-3.226Zm37.966 12.843-9.574-1.242 9.738 4.434-.164-3.192Zm47.503 2.931.037 3.187 13.537.134-13.574-3.321Zm13.574.135v3.186l13.537-.134-13.537-3.052Zm92.194-12.191-.247 3.22 4.229-1.808-3.982-1.412Zm-31.118 9.125-10.615 1.056 10.452 2.136.163-3.192Zm-111.537 1.056-10.616-1.056 10.751 4.246-.135-3.19Zm149.504-13.899-2.608 1.908 2.342 1.318.266-3.226Zm-191.237 3.718.247 3.22 5.742 1.692-5.99-4.912Zm142.655 10.181-11.536.853 11.401 2.337.135-3.19ZM80.027 241.217l-2.608-1.908 2.867 5.13-.26-3.222Zm57.51 12.844-11.536-.853 11.64 4.041-.104-3.188Zm125.361-9.338-.232 3.216 5.743-1.692-5.511-1.524Zm-47.511 9.338-12.336.631 12.232 2.557.104-3.188Zm-65.514.631-12.336-.631 12.407 3.818-.071-3.187Zm53.178 0-13.016.391 12.945 2.796.071-3.187Zm69.846-13.475-4.241 1.81 3.982 1.412.259-3.222Zm-110.009 13.866-13.015-.391 13.052 3.578-.037-3.187Zm-72.863-10.36.232 3.216 7.138 1.561-7.37-4.777Zm100.01 10.36-13.573.135 13.537 3.052.036-3.187Zm-13.573.135-13.574-.135 13.574 3.321v-3.186Zm-92.194-12.191-4.241-1.81 4.488 5.03-.247-3.22Zm171.474 3.259-.213 3.214 7.137-1.561-6.924-1.653Zm-158.56 0 .213 3.214 8.416 1.41-8.629-4.624Zm171.474-3.259-5.758 1.696 5.511 1.524.247-3.22Zm-21.353 4.672-.19 3.211 8.416-1.41-8.226-1.801Zm-157.278-2.976-5.757-1.696 5.99 4.912-.233-3.216Zm-13.733-10.648.27 3.247.857 1.987-1.127-5.234Zm29.328 13.624.191 3.211 9.574 1.242-9.765-4.453Zm170.151-11.634-.266 3.244.857-1.987-.591-1.257Zm-12.873 8.658-7.156 1.563 6.924 1.653.232-3.216Zm-25.195 4.22-.165 3.209 9.575-1.242-9.41-1.967Z" fill="#B0B0B0"/><path d="m190.034 216.317-13.575-.133-13.575.133h27.15Z" fill="#C4C4C4"/><path d="m97.18 246.286-7.157-1.563 7.37 4.777-.213-3.214Z" fill="#B0B0B0"/><path d="m215.41 217.33-25.376-1.013h-27.15l52.526 1.013Z" fill="#C4C4C4"/><path d="m115.216 248.944.165 3.209 10.615 1.056-10.78-4.265Z" fill="#B0B0B0"/><path d="m162.886 216.317-13.023.388-12.354.625 25.377-1.013Zm52.525 1.013-12.353-.625-13.023-.388 25.376 1.013Z" fill="#C4C4C4"/><path d="m227.057 250.001-.136 3.207 10.615-1.056-10.479-2.151ZM77.15 236.065l.267 3.244 2.607 1.908-2.874-5.152Zm178.589 10.221-8.438 1.413 8.225 1.801.213-3.214Z" fill="#B0B0B0"/><path d="m162.885 216.317-25.376 1.013-22.23 1.892 47.606-2.905Zm52.526 1.013-52.526-1.013-47.606 2.905 100.132-1.892Z" fill="#C4C4C4"/><path d="m125.859 250.002.136 3.207 11.536.853-11.672-4.06Zm147.293-12.025-.26 3.24 2.607-1.907-2.347-1.333ZM105.615 247.7l-8.438-1.413 8.628 4.624-.19-3.211Zm109.872 3.156-.105 3.206 11.536-.853-11.431-2.353Z" fill="#B0B0B0"/><path d="m137.509 217.329-11.567.845-10.663 1.048 22.23-1.893Zm100.131 1.893-10.662-1.048-11.567-.845 22.229 1.893Z" fill="#C4C4C4"/><path d="m137.432 250.855.105 3.206 12.336.631-12.441-3.837Zm139.2-16.78-.861 1.99.592 1.257.269-3.247Zm-73.509 17.412-.072 3.205 12.336-.631-12.264-2.574Zm44.181-3.788-9.601 1.244 9.41 1.967.191-3.211Zm-97.503 3.788.072 3.205 13.015.391-13.087-3.596Zm-70.034-13.511.26 3.241 4.24 1.81-4.5-5.051Zm110.305 13.904-.037 3.203 13.016-.391-12.979-2.812Zm-112.92-15.815-.86-1.99 1.127 5.234-.267-3.244Zm38.069 12.878-9.601-1.244 9.765 4.453-.164-3.209Zm47.631 2.937.036 3.203 13.574.135-13.61-3.338Zm13.61.134v3.204l13.573-.135-13.573-3.069Z" fill="#B0B0B0"/><path d="m255.773 221.859-18.136-2.637-22.23-1.893 40.366 4.53Z" fill="#C4C4C4"/><path d="m268.9 239.79-.249 3.237 4.241-1.81-3.992-1.427Zm-31.202 9.153-10.643 1.058 10.479 2.151.164-3.209Zm-111.838 1.058-10.644-1.058 10.78 4.265-.136-3.207Zm149.907-13.936-2.615 1.911 2.348 1.333.267-3.244Z" fill="#B0B0B0"/><path d="m115.279 219.222-9.64 1.234-8.496 1.402 18.136-2.636Zm140.497 2.636-8.497-1.402-9.639-1.234 18.136 2.636Z" fill="#C4C4C4"/><path d="m84.016 239.79.25 3.237 5.757 1.696-6.007-4.933Zm143.041 10.211-11.567.854 11.431 2.353.136-3.207ZM79.764 237.976l-2.614-1.911 2.874 5.152-.26-3.241Zm57.665 12.879-11.567-.854 11.672 4.06-.105-3.206Zm125.7-9.366-.233 3.234 5.757-1.696-5.524-1.538Zm-47.639 9.366-12.37.632 12.265 2.574.105-3.206Z" fill="#B0B0B0"/><path d="m275.929 228.819-60.518-11.49-100.132 1.893 160.65 9.597Z" fill="#C4C4C4"/><path d="m149.801 251.487-12.37-.632 12.441 3.837-.071-3.205Z" fill="#B0B0B0"/><path d="m115.279 219.222-18.136 2.636-13.085 3.245 31.221-5.881Z" fill="#C4C4C4"/><path d="m203.121 251.488-13.051.392 12.979 2.812.072-3.204Zm70.034-13.511-4.252 1.814 3.992 1.426.26-3.24ZM162.85 251.88l-13.051-.392 13.088 3.596-.037-3.204Zm-73.06-10.39.234 3.234 7.156 1.563-7.39-4.797Zm100.28 10.39-13.61.135 13.574 3.069.036-3.204Zm-13.61.135-13.61-.135 13.61 3.338v-3.203Z" fill="#B0B0B0"/><path d="m275.925 228.819-20.152-6.96-40.366-4.53 60.518 11.49Z" fill="#C4C4C4"/><path d="m84.013 239.791-4.252-1.814 4.5 5.051-.248-3.237Zm171.937 3.265-.214 3.231 7.156-1.563-6.942-1.668Z" fill="#B0B0B0"/><path d="m97.143 221.859-7.234 1.555-5.851 1.689 13.085-3.244Zm171.719 3.244-5.851-1.689-7.235-1.555 13.086 3.244Z" fill="#C4C4C4"/><path d="m96.966 243.055.214 3.231 8.438 1.413-8.652-4.644Zm171.937-3.265-5.773 1.699 5.524 1.538.249-3.237Zm-21.41 4.681-.191 3.228 8.438-1.413-8.247-1.815ZM89.79 241.489l-5.773-1.699 6.006 4.933-.233-3.234Zm-13.77-10.678.27 3.264.86 1.991-1.13-5.255Zm29.407 13.66.191 3.228 9.601 1.244-9.792-4.472Z" fill="#B0B0B0"/><path d="m275.927 228.819-7.067-3.716-13.085-3.244 20.152 6.96Z" fill="#C4C4C4"/><path d="m276.037 232.804-.268 3.261.86-1.99-.592-1.271Zm-12.908 8.685-7.176 1.566 6.943 1.668.233-3.234Zm-25.263 4.228-.166 3.226 9.601-1.244-9.435-1.982Z" fill="#B0B0B0"/><path d="m115.276 219.222-31.222 5.881-7.176 7.701 38.398-13.582Z" fill="#C4C4C4"/><path d="m96.962 243.055-7.176-1.566 7.39 4.797-.214-3.231Zm18.087 2.662.166 3.226 10.644 1.058-10.81-4.284Zm112.141 1.06-.137 3.224 10.644-1.058-10.507-2.166ZM76.878 232.804l.268 3.261 2.615 1.911-2.883-5.172Z" fill="#B0B0B0"/><path d="m84.057 225.103-4.347 1.808-2.72 1.908 7.067-3.716Zm191.87 3.716-2.72-1.908-4.347-1.808 7.067 3.716Z" fill="#C4C4C4"/><path d="m255.954 243.055-8.461 1.416 8.247 1.815.214-3.231Zm-130.228 3.722.137 3.225 11.567.854-11.704-4.079Zm147.69-12.058-.261 3.257 2.614-1.91-2.353-1.347Zm-167.989 9.752-8.46-1.416 8.651 4.644-.191-3.228Zm110.169 3.162-.106 3.223 11.567-.854-11.461-2.369Zm-78.272 0 .106 3.223 12.369.632-12.475-3.855ZM276.9 230.811l-.862 1.993.592 1.271.27-3.264Zm-73.707 17.455-.072 3.222 12.369-.632-12.297-2.59Zm44.3-3.795-9.627 1.246 9.436 1.982.191-3.228Zm-97.766 3.795.072 3.222 13.051.392-13.123-3.614Zm-70.224-13.547.262 3.257 4.252 1.814-4.514-5.071Zm110.604 13.94-.037 3.221 13.051-.392-13.014-2.829ZM76.882 232.804l-.862-1.993 1.13 5.255-.268-3.262Z" fill="#B0B0B0"/><path d="m84.054 225.103-7.067 3.716-.109 3.985 7.176-7.701Z" fill="#C4C4C4"/><path d="m115.049 245.717-9.626-1.247 9.792 4.473-.166-3.226Zm47.76 2.942.037 3.221 13.61.134-13.647-3.355Zm13.647.135v3.22l13.61-.134-13.61-3.086Zm92.693-12.258-.25 3.254 4.252-1.814-4.002-1.44Zm-31.287 9.181-10.672 1.06 10.507 2.166.165-3.226Zm-112.14 1.06-10.673-1.06 10.81 4.284-.137-3.224Zm150.312-13.973-2.622 1.915 2.354 1.346.268-3.261Zm-192.27 3.732.25 3.254 5.772 1.699-6.023-4.953Zm143.426 10.241-11.598.856 11.461 2.368.137-3.224ZM79.5 234.719l-2.622-1.915 2.883 5.172-.261-3.257Z" fill="#B0B0B0"/><path d="m115.279 219.222 21.939 25.17 138.711-15.573-160.65-9.597Zm160.759 13.582.862-1.994-.971-1.991.109 3.985Zm-199.047-3.985-.971 1.991.862 1.994.11-3.985Z" fill="#C4C4C4"/><path d="m137.326 247.633-11.598-.855 11.704 4.078-.106-3.223Zm126.041-9.395-.235 3.252 5.773-1.699-5.538-1.553Zm-47.769 9.395-12.403.633 12.298 2.59.105-3.223Zm-65.869.633-12.403-.633 12.475 3.855-.072-3.222Zm53.466 0-13.086.393 13.014 2.829.072-3.222Zm70.224-13.547-4.264 1.817 4.002 1.441.262-3.258Z" fill="#B0B0B0"/><path d="m115.276 219.222-38.398 13.582 60.336 11.588-21.938-25.17Z" fill="#C4C4C4"/><path d="m162.813 248.659-13.086-.393 13.123 3.614-.037-3.221Zm-73.257-10.421.234 3.252 7.176 1.566-7.41-4.818Zm100.551 10.421-13.647.135 13.61 3.086.037-3.221Zm-13.647.135-13.647-.135 13.647 3.356v-3.221Zm-92.693-12.258-4.264-1.817 4.514 5.072-.25-3.255Z" fill="#B0B0B0"/><path d="m269.154 236.536 6.885-3.732-.109-3.985-6.776 7.717Z" fill="#C4C4C4"/><path d="m256.165 239.806-.216 3.249 7.176-1.566-6.96-1.683Zm-159.418 0 .215 3.249 8.461 1.415-8.676-4.664Zm172.402-3.27-5.789 1.702 5.538 1.552.251-3.254Zm-21.468 4.688-.192 3.246 8.46-1.415-8.268-1.831Zm-158.13-2.986-5.788-1.702 6.023 4.953-.235-3.251Z" fill="#B0B0B0"/><path d="m269.149 236.536 4.263-1.817 2.622-1.915-6.885 3.732Zm-192.27-3.732 2.62 1.915 4.264 1.817-6.885-3.732Z" fill="#C4C4C4"/><path d="m105.234 241.225.193 3.246 9.626 1.246-9.819-4.492Zm158.13-2.987-7.195 1.569 6.96 1.682.235-3.251Zm-25.331 4.235-.167 3.244 9.627-1.246-9.46-1.998Z" fill="#B0B0B0"/><path d="m238.028 242.473 31.12-5.937 6.776-7.717-37.896 13.654Z" fill="#C4C4C4"/><path d="m96.751 239.807-7.195-1.569 7.41 4.817-.215-3.248Zm18.136 2.666.167 3.244 10.672 1.06-10.839-4.304Z" fill="#B0B0B0"/><path d="m76.878 232.804 6.885 3.732 12.984 3.27-19.869-7.002Z" fill="#C4C4C4"/><path d="m227.33 243.535-.137 3.242 10.673-1.06-10.536-2.182Zm28.838-3.729-8.484 1.418 8.269 1.831.215-3.249Zm-130.581 3.729.138 3.242 11.598.855-11.736-4.097Zm-20.353-2.311-8.484-1.418 8.676 4.664-.192-3.246Zm110.467 3.168-.106 3.24 11.598-.855-11.492-2.385Zm-78.484 0 .106 3.24 12.403.633-12.509-3.873Z" fill="#B0B0B0"/><path d="m256.165 239.806 7.195-1.568 5.789-1.702-12.984 3.27Zm-172.402-3.27 5.788 1.702 7.196 1.568-12.984-3.27Z" fill="#C4C4C4"/><path d="m203.261 245.026-.072 3.24 12.403-.634-12.331-2.606Zm44.42-3.802-9.652 1.249 9.46 1.997.192-3.246Z" fill="#B0B0B0"/><path d="m137.214 244.392 100.815-1.919 37.896-13.654-138.711 15.573Z" fill="#C4C4C4"/><path d="m149.654 245.026.073 3.24 13.086.392-13.159-3.632Zm40.49.394-.037 3.238 13.086-.392-13.049-2.846Zm-75.257-2.947-9.653-1.249 9.819 4.493-.166-3.244Zm47.889 2.947.037 3.238 13.647.135-13.684-3.373Zm13.684.135v3.238l13.647-.135-13.647-3.103Z" fill="#B0B0B0"/><path d="m76.878 232.804 19.869 7.002 40.467 4.586-60.336-11.588Z" fill="#C4C4C4"/><path d="m238.033 242.473-10.702 1.062 10.535 2.182.167-3.244Z" fill="#B0B0B0"/><path d="m238.028 242.473 18.137-2.667 12.983-3.27-31.12 5.937Z" fill="#C4C4C4"/><path d="m125.59 243.535-10.701-1.062 10.838 4.304-.137-3.242Zm101.743 0-11.63.857 11.492 2.385.138-3.242Zm-90.113.857-11.63-.857 11.736 4.097-.106-3.24Z" fill="#B0B0B0"/><path d="m238.032 242.473 9.652-1.249 8.484-1.418-18.136 2.667ZM96.75 239.806l8.484 1.418 9.652 1.249-18.136-2.667Z" fill="#C4C4C4"/><path d="m215.698 244.393-12.437.634 12.331 2.606.106-3.24Zm-66.047.634-12.437-.634 12.509 3.873-.072-3.239Zm53.61 0-13.121.394 13.049 2.845.072-3.239Zm-40.489.394-13.121-.394 13.158 3.632-.037-3.238Zm27.368 0-13.684.135 13.647 3.103.037-3.238Zm-13.684.135-13.684-.135 13.684 3.373v-3.238Z" fill="#B0B0B0"/><path d="m96.75 239.806 18.136 2.667 22.331 1.919-40.467-4.586Zm18.136 2.667 10.701 1.062 11.63.857-22.331-1.919Zm100.815 1.919 11.629-.857 10.702-1.062-22.331 1.919Zm-25.558 1.028 25.558-1.028 22.331-1.919-47.889 2.947Zm-52.926-1.028 52.926 1.028 47.889-2.947-100.815 1.919Zm52.926 1.028 13.121-.394 12.437-.634-25.558 1.028Zm-52.926-1.028 12.437.634 13.121.394-25.558-1.028Zm0 0 25.558 1.028h27.368l-52.926-1.028Zm25.558 1.028 13.684.135 13.684-.135h-27.368Z" fill="#C4C4C4"/><path d="M276.15 230.951c0 .65-.452 1.45-1.728 2.367-1.253.9-3.148 1.798-5.661 2.672-5.017 1.744-12.317 3.327-21.388 4.66-18.13 2.666-43.202 4.317-70.913 4.317s-52.783-1.651-70.913-4.317c-9.07-1.333-16.371-2.916-21.388-4.66-2.513-.874-4.409-1.772-5.661-2.672-1.276-.917-1.728-1.717-1.728-2.367 0-.651.452-1.451 1.728-2.367 1.252-.9 3.148-1.799 5.661-2.673 5.017-1.744 12.317-3.326 21.388-4.66 18.13-2.665 43.202-4.317 70.913-4.317s52.783 1.652 70.913 4.317c9.071 1.334 16.371 2.916 21.388 4.66 2.513.874 4.408 1.773 5.661 2.673 1.276.916 1.728 1.716 1.728 2.367Z" fill="url(#d)" stroke="url(#e)" stroke-width="1.5"/><g filter="url(#f)"><ellipse cx="173.223" cy="232.469" rx="70.834" ry="8.698" transform="rotate(3.944 173.223 232.469)" fill="url(#g)" fill-opacity=".25"/></g><path fill-rule="evenodd" clip-rule="evenodd" d="m96.966 243.057.214 3.23 8.438 1.413 9.594 1.243.003.001h-.001l-9.598-1.244.191 3.211h-.002l-.19-3.211-8.438-1.413h.001l-.001-.001-.214-3.23.003.001Zm-7.412-4.818h-.002l-5.787-1.702-4.26-1.815-.002-.003v.002l-.002-.001.003.003.26 3.254 4.249 1.812v.002l.001.001.249 3.236-.002-.003-.249-3.234-4.248-1.812-.001-.001v.001-.002h-.002l-.261-3.257-2.618-1.912v-.003l-.862-1.994.27 3.265.856 1.98v.007l-.858-1.986.27 3.247.267 3.23.266 3.212.265 3.196.263 3.178.262 3.162.848 1.969 2.573 1.89 4.186 1.795 5.681 1.68 7.063 1.549 8.326 1.4 9.473 1.234 10.503 1.048 11.413.847 12.205.626 12.877.388 13.429.134 13.429-.134 12.877-.388 12.205-.626 11.413-.847 10.503-1.048 9.473-1.234 8.326-1.4 7.063-1.549 5.681-1.68 4.186-1.795 2.573-1.89.848-1.969.261-3.162.264-3.178.265-3.196.266-3.212.268-3.23.268-3.244.002-.004-.592-1.271-.268 3.258-.001.002-.002-.001.268-3.259-2.621 1.915h.001l-4.261 1.817 3.999 1.439-.002.001-4-1.44h-.001l-5.788 1.702h.001l-7.194 1.568 6.961 1.683.234-3.251.001.001-.234 3.25 5.519 1.536v.002l-5.52-1.537v-.001h-.002l-7.173 1.566 7.172-1.566-6.959-1.682v-.001l-.001.001-8.482 1.417 8.266 1.831-8.268-1.831-.192 3.246h-.001l.193-3.246-9.651 1.249h-.002l-10.699 1.062h-.001l-11.628.857 11.491 2.385-11.492-2.385-.106 3.241h-.004.002l-.002-.001.106-3.239-12.434.634h-.003l-13.116.393h-.005l-13.678.136-.001-.001v.001h-.005l-13.678-.135-.001-.001v.001l-.005-.001-13.115-.393h-.006l-12.431-.634h-.001v-.001l-11.63-.857-10.701-1.062 10.838 4.304h.002l.137 3.224 11.565.854h.001l-.105-3.222.106 3.222 12.367.632h.002l-.072-3.221v.001l.072 3.22 13.046.392h.001v.001l-13.049-.392 13.087 3.595v.001l-13.087-3.596.072 3.204h-.001l-.072-3.204-12.368-.632h-.001v-.001l-11.567-.854 11.672 4.06-.105-3.205h.001l.105 3.205-11.536-.852-10.616-1.056v-.001l10.612 1.056h.001l-.136-3.207.001.001-.137-3.225-10.836-4.302v-.002l-9.652-1.249.192 3.246h-.001l-.192-3.246-8.484-1.418 8.675 4.663h-.003l-8.673-4.662.215 3.248v-.001l-.216-3.247-7.193-1.569Zm36.033 5.297 11.736 4.097v.001l-11.736-4.098Zm24.134 4.729-.072-3.237.005.001.072 3.238h.001-.002l-.004-.002Zm13.084.394-13.077-.392h.001l13.078.393-.002-.001Zm.002.001h.004l13.645 3.355-13.645-3.355 13.643.135-.001-.001-13.641-.134-.037-3.237-.005-.002.037 3.237.005.002-.005-.001v.001Zm13.647.134v.001h.004l13.609 3.086-13.609.134v.001l13.573 3.069.001-.001-13.574-3.069 13.61-.134 12.979 2.812-12.979-2.812 13.051-.392 12.263 2.573h.001l11.536-.852 10.615-1.056.165-3.209 9.601-1.245 8.225 1.801.213-3.213 7.156-1.564h.002l5.756-1.695.002-.001 4.239-1.81 2.608-1.907.266-3.243-.003.002-.266 3.239.001.001-2.606 1.907v.001l-.001-.001v.001-.001l-3.989-1.425v.001l3.987 1.425-4.236 1.808v.002l-.002-.001-.002.001h.001l-5.755 1.695v.001h-.002v-.001l-6.94-1.667v.001l6.938 1.667-7.152 1.562v.001h-.003l-.213 3.214-8.224-1.801-9.6 1.244.166-3.226 9.434 1.982h.002l-9.435-1.982h-.002l.167-3.243h-.001l-.167 3.243h.001-.002l-.166 3.226-.001.001-.165 3.208h.003-.003l-10.613 1.056-11.431-2.353v.001l11.431 2.353-11.535.852h-.001l-12.263-2.573-.001-.001h.001l-13.049.392.037-3.22h-.001l.037-3.237-.005-.002-.037 3.237.005.002h-.006l-13.641.134v-3.236l-.005-.001v3.236l.005.001h-.005Zm13.647-.134h.004l-.037 3.221-13.61-3.086 13.643-.135Zm13.085-.393-13.078.393 13.079-.393h.006l-.072 3.221.072-3.221v-.001l-.002.001h.001-.006Zm.001-.001.072-3.238h.003l-.073 3.238h-.002Zm12.402-.632-12.396.632.001.001 12.396-.633h-.001Zm40.361-4.578h.004-.004Zm-140.9 2.662-9.622-1.246h.002l9.62 1.246Zm-25.498-7.479.001.001.235 3.249h-.001l-.235-3.25Zm7.41 4.817-7.172-1.565 7.172 1.565Zm-7.178-1.568-6.02-4.95 6.02 4.95Zm125.812 6.146-.106 3.222.106-3.222Zm53.306-7.843h.001l4.249-1.813h-.001l-4.25 1.813h.001Zm-178.88 4.931-6.002-4.929-.005-.001 6.006 4.932-5.758-1.696v.001l5.758 1.695 7.37 4.777-.213-3.213.212 3.213-7.37-4.777h.002v-.002Zm72.826 7.159 13.61 3.338-13.61-3.338ZM79.762 237.98l.26 3.237v.001l-.259-3.237v-.001Zm46.233 15.23-.136-3.207 11.672 4.059-11.536-.852Zm150.043-20.405.862-1.994-.27 3.265-.592-1.271Z" fill="url(#h)"/><path fill-rule="evenodd" clip-rule="evenodd" d="m96.966 243.057.214 3.23 8.438 1.413 9.594 1.243.003.001h-.001l-9.598-1.244.191 3.211h-.002l-.19-3.211-8.438-1.413h.001l-.001-.001-.214-3.23.003.001Zm-7.412-4.818h-.002l-5.787-1.702-4.26-1.815-.002-.003v.002l-.002-.001.003.003.26 3.254 4.249 1.812v.002l.001.001.249 3.236-.002-.003-.249-3.234-4.248-1.812-.001-.001v.001-.002h-.002l-.261-3.257-2.618-1.912v-.003l-.862-1.994.27 3.265.856 1.98v.007l-.858-1.986.27 3.247.267 3.23.266 3.212.265 3.196.263 3.178.262 3.162.848 1.969 2.573 1.89 4.186 1.795 5.681 1.68 7.063 1.549 8.326 1.4 9.473 1.234 10.503 1.048 11.413.847 12.205.626 12.877.388 13.429.134 13.429-.134 12.877-.388 12.205-.626 11.413-.847 10.503-1.048 9.473-1.234 8.326-1.4 7.063-1.549 5.681-1.68 4.186-1.795 2.573-1.89.848-1.969.261-3.162.264-3.178.265-3.196.266-3.212.268-3.23.268-3.244.002-.004-.592-1.271-.268 3.258-.001.002-.002-.001.268-3.259-2.621 1.915h.001l-4.261 1.817 3.999 1.439-.002.001-4-1.44h-.001l-5.788 1.702h.001l-7.194 1.568 6.961 1.683.234-3.251.001.001-.234 3.25 5.519 1.536v.002l-5.52-1.537v-.001h-.002l-7.173 1.566 7.172-1.566-6.959-1.682v-.001l-.001.001-8.482 1.417 8.266 1.831-8.268-1.831-.192 3.246h-.001l.193-3.246-9.651 1.249h-.002l-10.699 1.062h-.001l-11.628.857 11.491 2.385-11.492-2.385-.106 3.241h-.004.002l-.002-.001.106-3.239-12.434.634h-.003l-13.116.393h-.005l-13.678.136-.001-.001v.001h-.005l-13.678-.135-.001-.001v.001l-.005-.001-13.115-.393h-.006l-12.431-.634h-.001v-.001l-11.63-.857-10.701-1.062 10.838 4.304h.002l.137 3.224 11.565.854h.001l-.105-3.222.106 3.222 12.367.632h.002l-.072-3.221v.001l.072 3.22 13.046.392h.001v.001l-13.049-.392 13.087 3.595v.001l-13.087-3.596.072 3.204h-.001l-.072-3.204-12.368-.632h-.001v-.001l-11.567-.854 11.672 4.06-.105-3.205h.001l.105 3.205-11.536-.852-10.616-1.056v-.001l10.612 1.056h.001l-.136-3.207.001.001-.137-3.225-10.836-4.302v-.002l-9.652-1.249.192 3.246h-.001l-.192-3.246-8.484-1.418 8.675 4.663h-.003l-8.673-4.662.215 3.248v-.001l-.216-3.247-7.193-1.569Zm36.033 5.297 11.736 4.097v.001l-11.736-4.098Zm24.134 4.729-.072-3.237.005.001.072 3.238h.001-.002l-.004-.002Zm13.084.394-13.077-.392h.001l13.078.393-.002-.001Zm.002.001h.004l13.645 3.355-13.645-3.355 13.643.135-.001-.001-13.641-.134-.037-3.237-.005-.002.037 3.237.005.002-.005-.001v.001Zm13.647.134v.001h.004l13.609 3.086-13.609.134v.001l13.573 3.069.001-.001-13.574-3.069 13.61-.134 12.979 2.812-12.979-2.812 13.051-.392 12.263 2.573h.001l11.536-.852 10.615-1.056.165-3.209 9.601-1.245 8.225 1.801.213-3.213 7.156-1.564h.002l5.756-1.695.002-.001 4.239-1.81 2.608-1.907.266-3.243-.003.002-.266 3.239.001.001-2.606 1.907v.001l-.001-.001v.001-.001l-3.989-1.425v.001l3.987 1.425-4.236 1.808v.002l-.002-.001-.002.001h.001l-5.755 1.695v.001h-.002v-.001l-6.94-1.667v.001l6.938 1.667-7.152 1.562v.001h-.003l-.213 3.214-8.224-1.801-9.6 1.244.166-3.226 9.434 1.982h.002l-9.435-1.982h-.002l.167-3.243h-.001l-.167 3.243h.001-.002l-.166 3.226-.001.001-.165 3.208h.003-.003l-10.613 1.056-11.431-2.353v.001l11.431 2.353-11.535.852h-.001l-12.263-2.573-.001-.001h.001l-13.049.392.037-3.22h-.001l.037-3.237-.005-.002-.037 3.237.005.002h-.006l-13.641.134v-3.236l-.005-.001v3.236l.005.001h-.005Zm13.647-.134h.004l-.037 3.221-13.61-3.086 13.643-.135Zm13.085-.393-13.078.393 13.079-.393h.006l-.072 3.221.072-3.221v-.001l-.002.001h.001-.006Zm.001-.001.072-3.238h.003l-.073 3.238h-.002Zm12.402-.632-12.396.632.001.001 12.396-.633h-.001Zm40.361-4.578h.004-.004Zm-140.9 2.662-9.622-1.246h.002l9.62 1.246Zm-25.498-7.479.001.001.235 3.249h-.001l-.235-3.25Zm7.41 4.817-7.172-1.565 7.172 1.565Zm-7.178-1.568-6.02-4.95 6.02 4.95Zm125.812 6.146-.106 3.222.106-3.222Zm53.306-7.843h.001l4.249-1.813h-.001l-4.25 1.813h.001Zm-178.88 4.931-6.002-4.929-.005-.001 6.006 4.932-5.758-1.696v.001l5.758 1.695 7.37 4.777-.213-3.213.212 3.213-7.37-4.777h.002v-.002Zm72.826 7.159 13.61 3.338-13.61-3.338ZM79.762 237.98l.26 3.237v.001l-.259-3.237v-.001Zm46.233 15.23-.136-3.207 11.672 4.059-11.536-.852Zm150.043-20.405.862-1.994-.27 3.265-.592-1.271Z" fill="url(#i)"/><g filter="url(#j)"><path d="M100.977 56.524c.773-16.616 9.66-29.368 30.528-29.368l74.967-5.024c20.77-1.347 30.017 17.259 29.402 34.237v103.452c0 17.074-8.97 34.28-31.071 32.476l-75.213-4.961c-17.253 0-28.613-11.72-28.613-28.794V56.524Z" fill="#fff" fill-opacity=".35"/><path d="m129.722 185.34-.066-.004h-.066c-8.16 0-14.778-2.762-19.353-7.399-4.578-4.64-7.26-11.309-7.26-19.395V56.572c.379-7.98 2.693-14.793 7.189-19.597 4.47-4.776 11.331-7.82 21.339-7.82h.067l.066-.004 74.964-5.023h.002c9.666-.627 16.526 3.35 20.974 9.431 4.511 6.167 6.592 14.594 6.298 22.738l-.002.036v103.488c0 8.232-2.168 16.31-6.805 22.062-4.561 5.66-11.668 9.273-22.104 8.421l-.015-.002-.016-.001-75.212-4.961Z" stroke="url(#k)" stroke-width="4"/></g><path d="M231.422 33.74c-2.431-3.82-5.697-6.835-8.977-8.938l9.188 1.397c3.916.926 7.459 3.235 10.203 5.786 2.77 2.575 4.615 5.291 5.207 6.89l.02.054.027.052c.884 1.736 2.849 6.436 3.556 11.146.304 3.357.323 6.654.295 7.87v103.586c-.43 10.167-4.5 16.813-8.832 20.943-2.175 2.074-4.423 3.52-6.323 4.453-1.93.949-3.419 1.331-4.073 1.363l-.046.003-.046.006-8.75 1.25c3.74-2.198 7.389-5.554 9.781-10.535 1.457-2.662 2.465-6.126 3.138-9.323.678-3.221 1.033-6.251 1.152-8.074l.002-.032V55.783c.319-3.928-.344-13.663-5.515-22.031l-.007-.012Z" fill="url(#l)" stroke="url(#m)" stroke-width="2"/><path d="m182.671 28.917-.218 4.221.218 4.221v-8.442Zm1.669-7.94-1.669 7.94v8.442l1.669-16.381Zm-1.669 16.382.637 4.063 1.032 3.877-1.669-7.94Zm1.669-16.381-1.032 3.877-.637 4.062 1.669-7.94Zm-1.669 16.381 1.669 7.94 3.156 7.085-4.825-15.025Zm1.669 7.94 1.403 3.665 1.753 3.42-3.156-7.085Zm3.156-31.407-1.753 3.421-1.403 3.665 3.156-7.086Zm4.479-5.972-7.635 13.058-1.669 16.381 9.304-29.439Zm0 0-4.479 5.972-3.156 7.086 7.635-13.058Zm-9.304 29.44 4.825 15.024 10.122 10.525-14.947-25.55Zm9.304-29.44-2.395 2.83-2.084 3.142 4.479-5.972Zm-4.479 44.464 2.084 3.144 2.395 2.828-4.479-5.972Zm4.479-44.464-9.304 29.44 14.947 25.549-5.643-54.989Zm-4.479 44.464 4.479 5.972 5.643 4.553-10.122-10.525Zm4.479 5.972 2.686 2.475 2.957 2.078-5.643-4.553Zm5.643-54.988-2.957 2.077-2.686 2.475 5.643-4.552Z" fill="#C4C4C4"/><path d="m217.322 65.32 2.723-.455 3.543-.593-6.266 1.048Z" fill="#B0B0B0"/><path d="m204.269.594-6.651 2.774-5.643 4.553L204.269.594Z" fill="#C4C4C4"/><path d="m220.894 1.555 2.694.45-3.543-.593.849.143Zm-3.572-.598 3.572.598-.849-.143-2.723-.455Zm3.572 63.765-3.572.598 6.266-1.048-2.694.45Zm0 0 2.694-.45 3.415-1.146-6.109 1.596Z" fill="#B0B0B0"/><path d="m197.617 62.91 3.21 1.633 3.441 1.14-6.651-2.774ZM204.268.593l-3.441 1.14-3.21 1.634 6.651-2.774Z" fill="#C4C4C4"/><path d="m224.338 2.714 2.666.437-3.415-1.146.749.71Zm-3.443-1.16 3.443 1.16-.749-.709-2.694-.45Zm-6.374 64.235 2.802-.469 3.572-.598-6.374 1.067Zm9.817-2.226-3.443 1.16 6.109-1.597-2.666.437Zm0 0 2.666-.437 3.245-1.675-5.911 2.112ZM218.121 1.09l2.774.464-3.572-.598.798.134Z" fill="#B0B0B0"/><path d="m197.617 62.91 6.651 2.773 7.368.588-14.019-3.362Z" fill="#C4C4C4"/><path d="m227.61 4.41 2.639.416-3.245-1.675.606 1.259ZM214.521.488l3.6.603-.798-.134-2.802-.469Z" fill="#B0B0B0"/><path d="M218.765 1.8 204.269.595 191.975 7.92l26.79-6.12Z" fill="#C4C4C4"/><path d="m224.338 2.714 3.272 1.696-.606-1.259-2.666-.437Zm-6.217 62.472-3.6.603 6.374-1.067-2.774.464Zm0 0 2.774-.464 3.443-1.16-6.217 1.624Zm9.489-3.319 2.639-.416 3.033-2.174-5.672 2.59Zm0 0-3.272 1.696 5.911-2.112-2.639.416Zm-6.018-59.603 2.746.45-3.443-1.16.697.71Zm9.077 4.349 2.613.387-3.033-2.175.42 1.788Z" fill="#B0B0B0"/><path d="m204.267 65.683 3.651.594 3.716-.006-7.367-.588ZM211.634.006 207.918 0l-3.651.594 7.367-.588Z" fill="#C4C4C4"/><path d="m218.121 1.091 3.471 1.173-.697-.71-2.774-.463Zm9.489 3.319 3.059 2.203-.42-1.787-2.639-.416Z" fill="#B0B0B0"/><path d="m191.975 7.92 5.643 54.989 39.079-34.582L191.975 7.92Z" fill="#C4C4C4"/><path d="m211.634 66.27 2.885-.481 3.6-.603-6.485 1.085Zm19.032-6.606 2.613-.387 2.775-2.643-5.388 3.03Zm-9.076 4.349-3.471 1.173 6.216-1.623-2.745.45Zm9.076-4.349-3.058 2.203 5.671-2.59-2.613.387Zm-9.076 4.349 2.745-.45 3.273-1.696-6.018 2.146ZM215.263.614l2.856.477-3.6-.603.744.126Zm18.203 8.679 2.588.35L233.279 7l.187 2.293ZM224.89 3.98l2.718.429-3.273-1.696.555 1.267ZM211.634.006l3.629.608-.744-.126-2.885-.482Zm19.032 6.607 2.8 2.68L233.279 7l-2.613-.387Z" fill="#B0B0B0"/><path d="m197.617 62.91 14.019 3.36 13.567-5.797-27.586 2.436ZM218.764 1.8 211.636.006l-7.368.588L218.764 1.8Z" fill="#C4C4C4"/><path d="m221.59 2.264 3.3 1.718-.555-1.268-2.745-.45Zm11.876 54.72 2.588-.35 2.472-3.076-5.06 3.426Zm-18.203 8.68-3.629.607 6.485-1.085-2.856.477Zm18.203-8.68-2.8 2.68 5.388-3.03-2.588.35Zm-18.203 8.68 2.856-.478 3.471-1.173-6.327 1.65Zm9.627-3.368 2.718-.428 3.058-2.204-5.776 2.632Zm0 0-3.3 1.717 6.018-2.145-2.718.428Zm11.07-49.882 2.566.306-2.472-3.077-.094 2.771ZM218.762 1.801l2.828.463-3.471-1.172.643.709Zm9.213 4.414 2.691.398-3.058-2.203.367 1.805Zm5.491 3.078 2.494 3.121.094-2.771-2.588-.35Zm2.494 44.57 2.566-.305 2.122-3.473-4.688 3.778ZM215.263.614l3.499 1.187-.643-.71-2.856-.477Zm9.627 3.368 3.085 2.233-.367-1.805-2.718-.428Zm11.07 49.881-2.494 3.121 5.06-3.426-2.566.305Zm2.142-37.925 2.546.255-2.122-3.473-.424 3.218Z" fill="#B0B0B0"/><path d="m211.634 66.27 3.629-.607 3.499-1.186-7.128 1.794Zm7.128-64.47L215.263.614l-3.629-.608 7.128 1.794Z" fill="#C4C4C4"/><path d="m227.977 60.063 2.691-.399 2.8-2.68-5.491 3.078Zm-9.213 4.414-3.499 1.186 6.327-1.65-2.828.464Zm9.213-4.415-3.085 2.234 5.776-2.632-2.691.398Zm-9.213 4.415 2.828-.464 3.3-1.717-6.128 2.18Z" fill="#B0B0B0"/><path d="M236.697 28.328 218.765 1.8l-26.79 6.12 44.722 20.408Z" fill="#C4C4C4"/><path d="m238.103 50.34 2.547-.256 1.727-3.826-4.274 4.081Zm-2.142-37.926 2.142 3.523.425-3.217-2.567-.306Zm-5.16-3.482 2.666.36-2.799-2.68.133 2.32Zm9.045 10.888 2.531.199-1.727-3.826-.804 3.627ZM222.091 3.54l2.8.441-3.3-1.717.5 1.276Zm16.012 46.8-2.142 3.523 4.689-3.779-2.547.255Zm1.743-3.884 2.531-.198 1.286-4.134-3.817 4.332Zm-11.87-40.241 2.825 2.717-.133-2.32-2.692-.397ZM218.764 1.8l3.327 1.74-.5-1.276-2.827-.464Zm22.38 22.216 2.519.136-1.286-4.133-1.233 3.997Zm-3.041-8.079 1.743 3.883.804-3.628-2.547-.255Zm-7.302 41.408 2.666-.36 2.494-3.122-5.16 3.482Zm0 0-2.825 2.717 5.491-3.078-2.666.36Z" fill="#B0B0B0"/><path d="m211.634 66.27 7.128-1.794 6.439-4.003-13.567 5.797Z" fill="#C4C4C4"/><path d="m241.144 42.26 2.519-.135.802-4.391-3.321 4.527Zm-1.298 4.197-1.743 3.883 4.274-4.082-2.531.199Zm2.108-17.983 2.511.07-.802-4.391-1.709 4.32Zm-19.863 34.263 2.8-.441 3.085-2.233-5.885 2.674Zm0 0-3.327 1.74 6.127-2.181-2.8.441ZM233.317 12.1l2.644.315-2.494-3.121-.15 2.806Zm8.637 25.704 2.511-.07.276-4.594-2.787 4.664Zm.278-4.664h2.509l-.276-4.595-2.233 4.595Zm-2.386-13.318 1.298 4.195 1.233-3.997-2.531-.198Z" fill="#B0B0B0"/><path d="m197.617 62.91 27.586-2.437 11.493-32.145-39.079 34.581Z" fill="#C4C4C4"/><path d="m225.203 5.804 2.773.41-3.085-2.233.312 1.823Zm15.941 36.457-1.298 4.195 3.817-4.331-2.519.136ZM230.8 8.932l2.517 3.167.15-2.806-2.667-.36Zm2.517 45.246 2.644-.315 2.142-3.523-4.786 3.838Zm7.827-30.162.809 4.458 1.71-4.322-2.519-.136Zm.809 13.787-.809 4.458 3.32-4.527-2.511.07ZM222.091 3.54l3.112 2.264-.312-1.823-2.8-.441Zm11.226 50.638-2.517 3.167 5.161-3.482-2.644.315Zm2.161-38.503 2.625.263-2.142-3.524-.483 3.26Zm6.475 12.799.279 4.665 2.232-4.595-2.511-.07Zm.279 4.665-.279 4.664 2.787-4.664h-2.508Zm-17.029 27.334 2.773-.41 2.824-2.718-5.597 3.128Zm0 0-3.112 2.264 5.885-2.675-2.773.411Z" fill="#B0B0B0"/><path d="m218.764 64.477 3.327-1.74 3.112-2.264-6.439 4.004Zm6.439-58.673-3.112-2.264-3.327-1.74 6.439 4.004Z" fill="#C4C4C4"/><path d="m235.479 50.602 2.624-.263 1.743-3.883-4.367 4.146Zm-2.162-38.504 2.162 3.576.482-3.26-2.644-.316Zm-5.265-3.538 2.749.372-2.825-2.718.076 2.346Zm9.186 11.056 2.608.204-1.743-3.883-.865 3.679Zm-1.759 30.986-2.162 3.576 4.786-3.839-2.624.263Zm1.759-3.942 2.608-.204 1.299-4.196-3.907 4.4ZM225.203 5.804l2.849 2.756-.076-2.346-2.773-.41Zm13.345 18.072 2.597.14-1.299-4.196-1.298 4.055Zm-3.069-8.202 1.759 3.942.865-3.679-2.624-.263Zm-7.427 42.042 2.749-.372 2.516-3.166-5.265 3.538Z" fill="#B0B0B0"/><path d="m230.591 11.774-5.388-5.97-6.439-4.004 11.827 9.974Z" fill="#C4C4C4"/><path d="m228.052 57.716-2.849 2.757 5.598-3.128-2.749.371Zm10.496-15.315 2.597-.14.809-4.458-3.406 4.598Zm-1.31 4.26-1.759 3.941 4.367-4.145-2.608.204Zm2.127-18.259 2.589.072-.809-4.457-1.78 4.385Zm-8.774-16.628 2.726.325-2.516-3.166-.21 2.841Zm8.774 26.101 2.589-.072.278-4.664-2.867 4.736Zm.282-4.736h2.585l-.278-4.665-2.307 4.665Zm-2.409-13.523 1.31 4.26 1.298-4.055-2.608-.205Zm1.31 22.785-1.31 4.26 3.907-4.4-2.597.14Zm-10.496-33.84 2.539 3.213.21-2.841-2.749-.372Zm2.539 45.942 2.726-.325 2.162-3.575-4.888 3.9Zm7.957-30.627.817 4.526 1.78-4.386-2.597-.14Zm.817 14-.817 4.525 3.406-4.598-2.589.072Zm-8.774 16.627-2.539 3.213 5.265-3.538-2.726.325Zm2.182-39.099 2.706.27-2.162-3.575-.544 3.305Zm6.592 12.998.282 4.737 2.307-4.665-2.589-.072Zm.282 4.737-.282 4.736 2.867-4.736h-2.585Z" fill="#B0B0B0"/><path d="m225.203 60.473 2.849-2.757 2.539-3.213-5.388 5.97Zm5.388-48.699-2.539-3.213-2.849-2.757 5.388 5.97Zm6.105 16.554-6.105-16.554L218.764 1.8l17.932 26.528Z" fill="#C4C4C4"/><path d="m232.775 50.873 2.706-.27 1.759-3.942-4.465 4.212Zm-2.181-39.1 2.181 3.63.545-3.304-2.726-.325Zm3.957 7.633 2.689.21-1.759-3.941-.93 3.73Zm-1.776 31.467-2.181 3.63 4.887-3.9-2.706.27Z" fill="#B0B0B0"/><path d="m225.203 60.473 5.388-5.97 3.957-7.631-9.345 13.601Z" fill="#C4C4C4"/><path d="m234.548 46.871 2.69-.21 1.31-4.26-4 4.47Zm1.323-23.14 2.677.145-1.31-4.26-1.367 4.115Zm-3.099-8.327 1.776 4.002.93-3.731-2.706-.271Zm3.099 27.142 2.677-.145.817-4.526-3.494 4.67Zm-1.323 4.325-1.776 4.002 4.466-4.212-2.69.21Zm2.148-18.543 2.669.074-.817-4.526-1.852 4.452Z" fill="#B0B0B0"/><path d="m225.203 60.473 9.345-13.602 2.148-18.543-11.493 32.145Z" fill="#C4C4C4"/><path d="m236.696 37.95 2.67-.075.281-4.736-2.951 4.81Zm.284-4.812h2.667l-.281-4.736-2.386 4.736Z" fill="#B0B0B0"/><path d="m230.594 54.503 2.181-3.63 1.776-4.002-3.957 7.632Zm3.957-35.097-1.776-4.002-2.181-3.63 3.957 7.632Z" fill="#C4C4C4"/><path d="m234.549 19.406 1.322 4.325 1.367-4.115-2.689-.21Zm1.322 23.14-1.322 4.325 4-4.47-2.678.145Zm0-18.815.825 4.597 1.853-4.452-2.678-.145Z" fill="#B0B0B0"/><path d="m236.698 28.328-2.147-8.922-3.957-7.632 6.104 16.554Z" fill="#C4C4C4"/><path d="m236.698 37.95-.825 4.596 3.494-4.67-2.669.073Zm0-9.622.284 4.81 2.385-4.736-2.669-.074Zm.284 4.81-.284 4.811 2.95-4.81h-2.666Z" fill="#B0B0B0"/><path d="m234.549 46.871 1.322-4.325.825-4.597-2.147 8.922Zm2.147-18.543-.825-4.597-1.322-4.325 2.147 8.922Zm-2.147 18.543 2.147-8.922v-9.621l-2.147 18.543Zm2.147-8.922.284-4.81-.284-4.811v9.621Z" fill="#C4C4C4"/><path d="M236.739 33.256c0 18.186-12.115 32.755-26.865 32.755-14.751 0-26.866-14.57-26.866-32.755C183.008 15.07 195.123.5 209.874.5c14.75 0 26.865 14.57 26.865 32.756Z" fill="url(#n)" stroke="url(#o)"/><path d="M237.442 30.238c-1.113-13.436-7.674-23.808-17.927-28.41l4.226.668c1.844.469 6.38 2.178 9.802 5.265 3.449 3.11 6.071 7.31 6.948 9.02l1.921 4.268c.502 1.61 1.19 4.327 1.627 7.256.441 2.956.616 6.077.118 8.487l-.004.02-.003.02c-.612 4.965-2.47 9.876-3.317 11.696l-.004.01-.004.01c-1.052 2.538-4.58 8.522-10.182 11.998l-.031.02-.028.023c-1.427 1.203-3.694 2.191-6.31 2.95a42.41 42.41 0 0 1-3.776.897c4.587-2.538 18.408-11.979 16.944-34.19h.001l-.001-.008Z" fill="url(#p)"/><path d="M237.442 30.238c-1.113-13.436-7.674-23.808-17.927-28.41l4.226.668c1.844.469 6.38 2.178 9.802 5.265 3.449 3.11 6.071 7.31 6.948 9.02l1.921 4.268c.502 1.61 1.19 4.327 1.627 7.256.441 2.956.616 6.077.118 8.487l-.004.02-.003.02c-.612 4.965-2.47 9.876-3.317 11.696l-.004.01-.004.01c-1.052 2.538-4.58 8.522-10.182 11.998l-.031.02-.028.023c-1.427 1.203-3.694 2.191-6.31 2.95a42.41 42.41 0 0 1-3.776.897c4.587-2.538 18.408-11.979 16.944-34.19h.001l-.001-.008Z" fill="url(#q)"/><path d="M237.442 30.238c-1.113-13.436-7.674-23.808-17.927-28.41l4.226.668c1.844.469 6.38 2.178 9.802 5.265 3.449 3.11 6.071 7.31 6.948 9.02l1.921 4.268c.502 1.61 1.19 4.327 1.627 7.256.441 2.956.616 6.077.118 8.487l-.004.02-.003.02c-.612 4.965-2.47 9.876-3.317 11.696l-.004.01-.004.01c-1.052 2.538-4.58 8.522-10.182 11.998l-.031.02-.028.023c-1.427 1.203-3.694 2.191-6.31 2.95a42.41 42.41 0 0 1-3.776.897c4.587-2.538 18.408-11.979 16.944-34.19h.001l-.001-.008Z" fill="url(#r)"/><path d="M237.442 30.238c-1.113-13.436-7.674-23.808-17.927-28.41l4.226.668c1.844.469 6.38 2.178 9.802 5.265 3.449 3.11 6.071 7.31 6.948 9.02l1.921 4.268c.502 1.61 1.19 4.327 1.627 7.256.441 2.956.616 6.077.118 8.487l-.004.02-.003.02c-.612 4.965-2.47 9.876-3.317 11.696l-.004.01-.004.01c-1.052 2.538-4.58 8.522-10.182 11.998l-.031.02-.028.023c-1.427 1.203-3.694 2.191-6.31 2.95a42.41 42.41 0 0 1-3.776.897c4.587-2.538 18.408-11.979 16.944-34.19h.001l-.001-.008Z" stroke="url(#s)"/><path d="M237.442 30.238c-1.113-13.436-7.674-23.808-17.927-28.41l4.226.668c1.844.469 6.38 2.178 9.802 5.265 3.449 3.11 6.071 7.31 6.948 9.02l1.921 4.268c.502 1.61 1.19 4.327 1.627 7.256.441 2.956.616 6.077.118 8.487l-.004.02-.003.02c-.612 4.965-2.47 9.876-3.317 11.696l-.004.01-.004.01c-1.052 2.538-4.58 8.522-10.182 11.998l-.031.02-.028.023c-1.427 1.203-3.694 2.191-6.31 2.95a42.41 42.41 0 0 1-3.776.897c4.587-2.538 18.408-11.979 16.944-34.19h.001l-.001-.008Z" stroke="url(#t)"/><path d="m201.744 39.633 4.916-.072-.343-.622-4.573.694Zm.359.574 4.915-.077-.358-.57-4.557.647Zm-.19-16.033 4.916.072.297-.537-5.213.465Zm.298-.542 4.915.077.312-.491-5.227.414Zm.267 17.096 4.914-.083-.374-.515-4.54.598Zm.046-17.591 4.914.08.326-.444-5.24.364Zm.345 18.058 4.912-.087-.389-.462-4.523.55Zm-.018-18.508 4.913.086.34-.4-5.253.314Zm.424 18.921 4.911-.09-.405-.41-4.506.5Zm-.082-19.324 4.911.09.356-.354-5.267.264Zm.503 19.684 4.911-.094-.421-.356-4.49.45Zm-.147-20.04 4.911.092.37-.307-5.281.214Zm-2.148 17.077.343.628 4.573-.694-4.916.066Zm2.733 3.269 4.909-.098-.436-.302-4.473.4Zm-.214-20.657 4.91.096.384-.261-5.294.165Z" fill="#E5E5E5"/><path d="m199.347 43.152.18.392.194.379-.374-.77Z" fill="#fff"/><path d="m201.743 39.633.359.575 4.556-.647-4.915.072Zm.467-16-.298.541 5.212-.465-4.914-.077Zm2.376 18.893 4.908-.1-.452-.25-4.456.35Zm-.282-21.172 4.909.098.399-.215-5.308.117Zm-2.202 18.854.375.52 4.54-.598-4.915.078Z" fill="#E5E5E5"/><path d="m199.723 43.923.209.364.222.35-.431-.714Zm1.675-4.917-2.214 3.74.166.407 2.048-4.147Zm-.926-19.945-.394.72-.35.785.744-1.505Z" fill="#fff"/><path d="m202.525 23.137-.313.495 5.227-.414-4.914-.081Z" fill="#E5E5E5"/><path d="m201.396 39.005-2.049 4.147.374.77 1.675-4.917Zm-1.675 4.918.431.714.489.66-.92-1.374Z" fill="#fff"/><path d="m204.704 21.137 4.908.1.414-.17-5.322.07Zm.351 21.586 4.907-.101-.468-.196-4.439.297Zm-2.578-1.995.39.467 4.523-.55-4.913.083Z" fill="#E5E5E5"/><path d="m200.154 44.638.236.336.252.323-.488-.66Z" fill="#fff"/><path d="m202.849 22.688-.327.449 5.24-.364-4.913-.085Z" fill="#E5E5E5"/><path d="m201.391 17.82-.919 1.24-.744 1.506 1.663-2.746Zm.007 21.186-1.674 4.917.919 1.374.755-6.291Z" fill="#fff"/><path d="m205.118 20.966 4.906.102.429-.123-5.335.02Zm-2.253 20.23.406.413 4.507-.5-4.913.086Zm2.673 1.67 4.906-.102-.484-.142-4.422.245Zm-2.349-20.582-.342.403 5.254-.314-4.912-.089Z" fill="#E5E5E5"/><path d="m200.642 45.297.266.309.28.295-.546-.604Zm.747-27.477-.481.587-.437.654.918-1.24Z" fill="#fff"/><path d="m205.548 20.842 4.906.103.443-.077-5.349-.026Zm-2.277 20.767.422.359 4.49-.45-4.912.09Zm.275-19.681-.357.356 5.268-.264-4.911-.092Z" fill="#E5E5E5"/><path d="m200.646 45.297.546.604.603.548-1.149-1.152Z" fill="#fff"/><path d="m206.041 42.956 4.904-.103-.5-.089-4.404.192Z" fill="#E5E5E5"/><path d="m201.741 39.634-.343-.628-.755 6.29 1.098-5.662Zm-2.013-19.068 2.182 3.608.298-.541-2.48-3.067Zm0 0 2.48 3.067.313-.496-2.793-2.57Zm1.461 25.335.294.28.309.268-.603-.548Z" fill="#fff"/><path d="m203.918 21.617-.371.31 5.281-.214-4.91-.096Zm2.076-.852 4.904.104.459-.03-5.363-.074Zm-2.3 21.203.438.306 4.473-.4-4.911.094Z" fill="#E5E5E5"/><path d="m203.755 16.138-2.365 1.682-1.662 2.746 4.027-4.428Zm-4.027 4.428 2.793 2.57.327-.448-3.12-2.122Z" fill="#fff"/><path d="m206.558 42.991 4.903-.104-.516-.035-4.387.14Z" fill="#E5E5E5"/><path d="m200.646 45.297 1.149 1.152 1.374.885-2.523-2.037Z" fill="#fff"/><path d="m204.301 21.354-.385.264 5.294-.166-4.909-.098Zm2.151-.62 4.903.104.243.004-5.146-.108Z" fill="#E5E5E5"/><path d="m199.728 20.566 3.12 2.121.342-.403-3.462-1.718Zm2.756-3.72-.569.454-.525.52 1.094-.974Z" fill="#fff"/><path d="m204.134 42.274.454.252 4.456-.35-4.91.098Zm2.727.713 4.902-.104-.3.004-4.602.1Z" fill="#E5E5E5"/><path d="m201.792 46.45.324.252.341.23-.665-.483Zm-2.064-25.884 3.462 1.719.356-.357-3.818-1.362Z" fill="#fff"/><path d="m204.706 21.137-.401.217 5.308-.117-4.907-.1Z" fill="#E5E5E5"/><path d="m199.728 20.566 3.818 1.362.371-.31-4.189-1.052Z" fill="#fff"/><path d="m204.587 42.526.469.197 4.439-.297-4.908.1Z" fill="#E5E5E5"/><path d="m201.792 46.449.665.483.708.402-1.373-.885Zm1.963-30.311-1.271.708-1.094.974 2.365-1.682Zm-4.027 4.428 4.189 1.052.386-.264-4.575-.788Z" fill="#fff"/><path d="m205.12 20.966-.415.17 5.321-.068-4.906-.102Z" fill="#E5E5E5"/><path d="m202.459 46.932.35.21.359.192-.709-.402Z" fill="#fff"/><path d="m207.365 48.194 4.9-.153.547-.04-5.447.193Zm-2.311-5.47.486.143 4.421-.245-4.907.102Z" fill="#E5E5E5"/><path d="m199.728 20.566 4.575.788.4-.217-4.975-.57Zm2.013 19.068-1.098 5.663 5.717 2.883-4.619-8.546Z" fill="#fff"/><path d="m207.855 15.563 4.899.153-.499-.035-4.4-.118Zm-2.304 5.279-.43.124 5.335-.021-4.905-.103Z" fill="#E5E5E5"/><path d="m203.755 16.138-.658.32-.613.388 1.271-.708Zm-4.027 4.428 4.975.57.415-.17-5.39-.4Zm.915 24.73 2.522 2.038 3.195.846-5.717-2.883Z" fill="#fff"/><path d="m205.541 42.867.501.09 4.404-.193-4.905.103Z" fill="#E5E5E5"/><path d="m202.102 40.207-.359-.574 4.618 8.546-4.259-7.972Z" fill="#fff"/><path d="M207.912 48.154 212.81 48l.532-.076-5.43.229Z" fill="#E5E5E5"/><path d="m199.728 20.566 5.39.4.431-.124-5.821-.276Z" fill="#fff"/><path d="m208.341 15.63 4.897.152-.482-.066-4.415-.086Zm-2.343 5.135-.446.077 5.35.027-4.904-.104Z" fill="#E5E5E5"/><path d="m203.165 47.334.368.173.377.154-.745-.327Zm-.69-6.605-.374-.521 4.259 7.972-3.885-7.451Zm-2.747-20.163 5.821.276.445-.077-6.266-.199Z" fill="#fff"/><path d="m206.041 42.956.517.035 4.387-.139-4.904.104Z" fill="#E5E5E5"/><path d="m202.867 41.195-.39-.467 3.884 7.452-3.494-6.985Zm.3 6.139.744.326.781.25-1.525-.576Z" fill="#fff"/><path d="m208.448 48.077 4.897-.153.516-.11-5.413.263Zm-1.993-27.343-.46.03 5.363.074-4.903-.104Zm2.351-5.007 4.896.152-.466-.097-4.43-.055Z" fill="#E5E5E5"/><path d="m199.728 20.566 6.266.199.46-.03-6.726-.169Zm9.076-4.838-5.049.41-4.027 4.428 9.076-4.838Zm-5.532 25.88-.406-.413 3.494 6.985-3.088-6.572Zm-3.544-21.042 6.726.168.243.004-6.969-.172Z" fill="#fff"/><path d="m206.697 20.738-.243-.004 5.145.108-4.902-.104Z" fill="#E5E5E5"/><path d="m203.91 47.66.386.135.394.115-.78-.25Z" fill="#fff"/><path d="m206.558 42.992.301-.004 4.602-.1-4.903.104Zm2.697-27.135 4.895.15-.449-.127-4.446-.023Z" fill="#E5E5E5"/><path d="m203.697 41.968-.422-.36 3.088 6.572-2.666-6.212Z" fill="#fff"/><path d="m208.963 47.965 4.896-.152.5-.147-5.396.299Z" fill="#E5E5E5"/><path d="m205.207 15.696-.747.187-.702.254 1.449-.44Zm-1.073 26.578-.437-.306 2.666 6.212-2.229-5.906Zm-.965 5.06 1.524.576 1.67.27-3.194-.846Zm1.078-18.404v5.187l1.725.005-1.725-5.192Z" fill="#fff"/><path d="m209.688 16.018 4.894.149-.432-.16-4.462.01Zm-.223 31.798 4.894-.15.484-.182-5.378.332Z" fill="#E5E5E5"/><path d="m204.585 42.525-.454-.251 2.229 5.906-1.775-5.655Zm4.219-26.797-9.076 4.838 6.969.172 2.107-5.01ZM204.69 47.91l.404.096.413.077-.817-.173Zm.366-5.186-.469-.198 1.775 5.654-1.306-5.456Z" fill="#fff"/><path d="m207.913 48.154-.549.04 5.447-.193-4.898.153Zm2.037-.522 4.893-.148.468-.218-5.361.367Zm.158-16.406 4.892.006v-.135l-4.892.129Z" fill="#E5E5E5"/><path d="m204.245 28.93 1.725 5.192.345.01-2.07-5.202Zm.446 18.98.817.173.853.097-1.67-.27Z" fill="#fff"/><path d="m210.107 31.09 4.893.006.596-.376-5.489.37Z" fill="#E5E5E5"/><path d="m205.54 42.867-.486-.144 1.306 5.457-.82-5.313Z" fill="#fff"/><path d="m210.468 31.32 4.891.005-.359-.094-4.532.088Zm.036-14.887 4.891.146-.398-.222-4.493.076Zm-2.651-.87.484.066 4.414.087-4.898-.153Z" fill="#E5E5E5"/><path d="m204.245 28.93 2.07 5.201.333.026-2.403-5.227Z" fill="#fff"/><path d="m210.421 47.412 4.891-.146.453-.254-5.344.4Z" fill="#E5E5E5"/><path d="m205.509 48.084.422.057.431.039-.853-.096Z" fill="#fff"/><path d="m208.445 48.077-.533.077 5.43-.23-4.897.153Z" fill="#E5E5E5"/><path d="m204.245 28.93 2.403 5.227.32.042-2.723-5.268Zm1.796 14.026-.501-.09.821 5.314-.32-5.224Zm.794-27.432-.838.053-.792.12 1.63-.173Z" fill="#fff"/><path d="m210.815 31.436 4.89.004-.347-.116-4.543.112Zm.071-14.747 4.89.143-.382-.253-4.508.11Z" fill="#E5E5E5"/><path d="m204.245 28.93 2.723 5.269.307.058-3.03-5.327Z" fill="#fff"/><path d="m208.338 15.63.467.098 4.43.054-4.897-.152Zm2.368 15.08 4.891.01.545-.421-5.436.41Zm.168 16.446 4.89-.144.437-.289-5.327.433Zm.276-15.581 4.889.003-.333-.138-4.556.135Z" fill="#E5E5E5"/><path d="m204.245 28.93 3.03 5.327.294.074-3.324-5.4Z" fill="#fff"/><path d="m211.254 16.976 4.889.14-.365-.284-4.524.144Zm-2.289 30.989-.517.112 5.413-.264-4.896.152Z" fill="#E5E5E5"/><path d="m208.806 15.728-1.97-.204-3.08.614 5.05-.41Zm-4.561 13.202 3.325 5.402.281.09-3.606-5.491Zm1.553-.006-1.553.006 5.399 6.792-3.846-6.798Z" fill="#fff"/><path d="m208.805 15.727.451.13 4.445.022-4.896-.152Zm2.666 16.008 4.888.002-.319-.16-4.569.158Zm-.217-1.451 4.889.015.494-.468-5.383.453Z" fill="#E5E5E5"/><path d="m204.245 28.93 3.606 5.492.269.108-3.875-5.6Z" fill="#fff"/><path d="m211.313 46.864 4.888-.141.421-.325-5.309.466Zm.288-29.57 4.888.138-.347-.316-4.541.178Z" fill="#E5E5E5"/><path d="m206.361 48.18.44.019.564-.005-1.004-.014Zm-2.116-19.25 3.875 5.6.255.123-4.13-5.723Z" fill="#fff"/><path d="m209.464 47.817-.501.148 5.396-.298-4.895.15Zm2.313-15.898h4.888l-.307-.182-4.581.182Zm-2.522-16.062.433.161 4.461-.01-4.894-.15Z" fill="#E5E5E5"/><path d="m204.245 28.93 4.13 5.723.243.14-4.373-5.863Z" fill="#fff"/><path d="m211.934 17.645 4.887.134-.33-.347-4.557.213Zm-.197 28.891 4.887-.138.404-.36-5.291.498Zm.014-16.724 4.888.02.443-.513-5.331.493Z" fill="#E5E5E5"/><path d="m206.361 48.18 1.004.014.549-.041-1.553.027Zm-2.116-19.25 4.373 5.864.231.156-4.604-6.02Zm1.813-.015-.261.01 4.152 7.264-3.891-7.274Z" fill="#fff"/><path d="m212.073 32.124 4.887-.002-.293-.203-4.594.205Z" fill="#E5E5E5"/><path d="m207.854 15.563-.501-.035-.518-.004 1.019.04Zm-3.609 13.367 4.604 6.02.217.173-4.821-6.192Z" fill="#fff"/><path d="m212.24 18.014 4.886.13-.308-.365-4.578.235Z" fill="#E5E5E5"/><path d="m206.315 28.888-.255.027 3.891 7.274-3.636-7.3Z" fill="#fff"/><path d="m209.951 47.633-.486.184 5.378-.333-4.892.149Z" fill="#E5E5E5"/><path d="m208.804 15.727-2.107 5.01.234.019 1.873-5.029Zm-4.559 13.203 4.821 6.193.204.19-5.025-6.383Z" fill="#fff"/><path d="m212.352 32.352 4.886-.004-.28-.226-4.606.23Zm-.212 13.82 4.886-.135.388-.396-5.274.531Zm.053-16.877 4.886.024.391-.559-5.277.534Z" fill="#E5E5E5"/><path d="m208.805 15.727-1.873 5.029.224.033 1.649-5.062Zm-2.245 13.118-.247.043 3.764 7.557-3.517-7.6Zm-2.315.085 5.025 6.383.195.197-5.22-6.58Z" fill="#fff"/><path d="m212.522 18.405 4.885.127-.282-.387-4.603.26Z" fill="#E5E5E5"/><path d="m206.362 48.18 1.553-.027 1.051-.189-2.604.216Z" fill="#fff"/><path d="M210.107 31.09v.136l4.893-.13-4.893-.007Z" fill="#E5E5E5"/><path d="m208.805 15.727-1.649 5.062.215.047 1.434-5.108Zm-4.56 13.203 5.22 6.58.178.212-5.398-6.792Zm2.556-.145-.241.06 3.517 7.6-3.276-7.66Z" fill="#fff"/><path d="m212.619 32.602 4.885-.007-.267-.247-4.618.254Zm-2.513-1.376.361.094 4.532-.088-4.893-.006Zm-.002-15.016.399.224 4.493-.077-4.892-.147Z" fill="#E5E5E5"/><path d="m208.804 15.727-1.434 5.11.205.061 1.229-5.17Z" fill="#fff"/><path d="m210.419 47.412-.469.22 5.361-.366-4.892.146Zm2.109-1.641 4.885-.131.364-.435-5.249.566Z" fill="#E5E5E5"/><path d="m207.033 28.707-.233.077 3.275 7.66-3.042-7.737Z" fill="#fff"/><path d="m212.777 18.817 4.885.123-.255-.408-4.63.285Zm-.193 9.913 4.885.03.34-.604-5.225.574Z" fill="#E5E5E5"/><path d="m208.805 15.727-1.228 5.171.196.077 1.032-5.248Z" fill="#fff"/><path d="m212.873 32.875 4.885-.01-.253-.27-4.632.28Z" fill="#E5E5E5"/><path d="m207.26 28.613-.227.094 3.153 8.008-2.926-8.102Z" fill="#fff"/><path d="m210.706 30.71-.599.38 5.489-.37-4.89-.01Z" fill="#E5E5E5"/><path d="m208.803 15.727-1.032 5.248.186.091.846-5.338Z" fill="#fff"/><path d="m213.006 19.252 4.884.119-.228-.43-4.656.31Zm-2.537 12.068.347.116 4.544-.111-4.891-.005Zm2.425 14.013 4.885-.128.333-.46-5.218.588Zm-2.389-28.9.382.256 4.509-.11-4.891-.145Z" fill="#E5E5E5"/><path d="m208.803 15.727-.846 5.34.177.105.669-5.445Z" fill="#fff"/><path d="m212.925 28.12 4.884.036.287-.65-5.171.614Z" fill="#E5E5E5"/><path d="m207.479 28.502-.219.11 2.926 8.103-2.707-8.214Z" fill="#fff"/><path d="m213.113 33.17 4.883-.013-.239-.292-4.644.304Zm-2.238 13.986-.454.256 5.344-.4-4.89.144Z" fill="#E5E5E5"/><path d="m208.806 15.727-.67 5.445.168.121.502-5.566Zm-3.008 13.197 3.846 6.798.161.227-4.007-7.025Z" fill="#fff"/><path d="m213.21 19.708 4.883.115-.201-.452-4.682.337Z" fill="#E5E5E5"/><path d="m207.914 48.153.533-.076.518-.113-1.051.19Zm-.222-19.78-.212.128 2.708 8.214-2.496-8.342Zm-1.894.551 4.007 7.025.145.24-4.152-7.265Zm3.008-13.197-.502 5.566.157.136.345-5.701Z" fill="#fff"/><path d="m213.337 33.486 4.883-.015-.226-.315-4.657.33Zm-.125-6.022 4.883.042.235-.695-5.118.653Zm-2.397 3.972.334.138 4.556-.134-4.89-.004Zm2.567-11.251 4.883.11-.175-.473-4.708.363Zm-.155 24.684 4.883-.123.302-.485-5.185.608Z" fill="#E5E5E5"/><path d="m207.896 28.228-.205.145 2.589 8.626-2.384-8.771Zm.909-12.5-.345 5.7.148.15.197-5.85Z" fill="#fff"/><path d="m208.804 15.727-.197 5.852.139.164.058-6.015Z" fill="#fff"/><path d="m211.253 30.284-.547.425 5.436-.41-4.889-.015Z" fill="#E5E5E5"/><path d="m206.361 48.18 2.603-.216 1.911-.808-4.514 1.024Zm-.32-5.224.32 5.224 7.442-4.314-7.762-.91Zm2.053-14.891-.197.162L210.281 37l-2.187-8.934Z" fill="#fff"/><path d="m213.55 33.825 4.883-.018-.212-.336-4.671.355Zm-.019-13.14 4.882.105-.148-.495-4.734.39Z" fill="#E5E5E5"/><path d="m206.313 28.888 3.636 7.301.127.256-3.763-7.557Z" fill="#fff"/><path d="m213.449 26.763 4.883.048.183-.74-5.066.692Z" fill="#E5E5E5"/><path d="m206.558 42.991-.517-.035 7.762.91-7.245-.875Zm2.247-27.264-.058 6.016.128.17-.07-6.186Z" fill="#fff"/><path d="m211.313 46.864-.438.292 5.327-.433-4.889.141Zm2.341-25.659 4.882.1-.121-.515-4.761.415Z" fill="#E5E5E5"/><path d="m208.805 15.727.07 6.187.117.182-.187-6.369Z" fill="#fff"/><path d="m213.53 44.38 4.883-.118.27-.51-5.153.628Zm-2.381-12.805.321.16 4.568-.158-4.889-.002Z" fill="#E5E5E5"/><path d="m208.285 27.886-.191.18 2.263 9.232-2.072-9.412Z" fill="#fff"/><path d="m213.634 26.016 4.882.055.13-.785-5.012.73Zm.121 8.16 4.882-.023-.203-.346-4.679.368Z" fill="#E5E5E5"/><path d="m208.805 15.727.187 6.369.106.193-.293-6.562Z" fill="#fff"/><path d="m213.745 21.747 4.882.096-.095-.537-4.787.441Zm-2.495-4.77.348.318 4.541-.179-4.889-.14Z" fill="#E5E5E5"/><path d="m208.803 15.727.292 6.562.095.205-.387-6.767Zm-.337 11.962-.184.197 2.073 9.412-1.889-9.609Z" fill="#fff"/><path d="m213.765 25.223 4.881.063.079-.83-4.96.767Zm.051-2.912 4.881.09-.067-.558-4.814.468Z" fill="#E5E5E5"/><path d="m206.859 42.987-.301.004 7.244.875-6.943-.879Zm1.946-27.26.387 6.767.084.217-.471-6.983Zm-1.771 12.98 3.042 7.738.111.27-3.153-8.008Z" fill="#fff"/><path d="m213.856 22.895 4.881.085-.041-.58-4.84.495Zm-.013 1.49 4.881.07.026-.874-4.907.804Zm.026-.883 4.881.079-.013-.6-4.868.52Z" fill="#E5E5E5"/><path d="m208.805 15.727.471 6.984.073.228-.544-7.212Z" fill="#fff"/><path d="m213.94 34.538 4.881-.025-.185-.36-4.696.385Zm-.137 9.329 4.881-.114.239-.534-5.12.648Z" fill="#E5E5E5"/><path d="m208.639 27.48-.172.209 1.889 9.61-1.717-9.82Zm.164-11.753.544 7.212.061.24-.605-7.451Z" fill="#fff"/><path d="m211.47 31.735.308.184 4.581-.183h-4.889Z" fill="#E5E5E5"/><path d="m208.805 15.727.605 7.451.05.251-.655-7.701Z" fill="#fff"/><path d="m211.749 29.812-.495.472 5.383-.453-4.888-.019Zm-.015 16.724-.421.328 5.309-.466-4.888.138Z" fill="#E5E5E5"/><path d="m209.689 16.018-.434-.161-.45-.13.884.29Zm-.884-.29.655 7.701.039.263-.694-7.965Zm-1.657 27.238-.29.021 6.944.88-6.654-.901Zm1.657-27.239.694 7.965.028.274-.722-8.239Zm-.007 11.533-.158.22 1.776 10.132-1.618-10.352Z" fill="#fff"/><path d="m214.107 34.912 4.88-.028-.167-.372-4.713.4ZM211.6 17.294l.33.35 4.558-.212-4.888-.138Zm2.441 26.033 4.88-.108.207-.559-5.087.667Z" fill="#E5E5E5"/><path d="m208.938 27.031-.143.229 1.619 10.352-1.476-10.58Zm-1.249 1.342 2.495 8.342.094.284-2.589-8.626Zm-.265 14.555-.278.038 6.653.9-6.375-.938Zm1.537 5.036.501-.148.486-.184-.987.332Zm.104-21.171-.127.238 1.476 10.58-1.349-10.818Z" fill="#fff"/><path d="m214.258 35.3 4.88-.032-.15-.384-4.73.417Zm-2.48-3.381.294.205 4.594-.206-4.888.001Z" fill="#E5E5E5"/><path d="m209.18 26.545-.112.248 1.39 11.147-1.278-11.395Z" fill="#fff"/><path d="m214.25 42.764 4.88-.103.175-.583-5.055.686Z" fill="#E5E5E5"/><path d="m208.094 28.065 2.187 8.934.076.3-2.263-9.234Z" fill="#fff"/><path d="m214.389 35.701 4.879-.036-.132-.397-4.747.433Z" fill="#E5E5E5"/><path d="m209.278 26.289-.097.257 1.278 11.394-1.181-11.651Zm-1.583 16.584-.268.055 6.375.939-6.107-.994Z" fill="#fff"/><path d="m212.142 46.172-.405.364 5.291-.499-4.886.135Zm-.212-28.527.309.37 4.578-.236-4.887-.134Zm.262 11.65-.444.517 5.33-.493-4.886-.025Z" fill="#E5E5E5"/><path d="m209.359 26.022-.082.266 1.18 11.652-1.098-11.918Z" fill="#fff"/><path d="m214.505 36.114 4.88-.04-.115-.41-4.765.45Zm-.08 6.06 4.879-.097.143-.607-5.022.705Z" fill="#E5E5E5"/><path d="m208.642 27.479 1.716 9.82.06.313-1.776-10.133Z" fill="#fff"/><path d="m212.073 32.124.28.228 4.607-.23-4.887.002Z" fill="#E5E5E5"/><path d="m207.952 42.8-.257.073 6.107.993-5.85-1.066Z" fill="#fff"/><path d="m214.603 36.54 4.879-.044-.097-.422-4.782.467Z" fill="#E5E5E5"/><path d="M210.109 31.226v-.137l-.747-5.067.747 5.204Z" fill="#fff"/><path d="m214.567 41.561 4.879-.091.112-.633-4.991.724Zm.114-4.582 4.879-.048-.079-.435-4.8.483Z" fill="#E5E5E5"/><path d="m208.963 47.964.987-.332.924-.476-1.911.808Z" fill="#fff"/><path d="m214.679 40.923 4.879-.086.08-.656-4.959.742Z" fill="#E5E5E5"/><path d="m209.362 26.022 1.098 11.918-.351-6.714-.747-5.204Z" fill="#fff"/><path d="m212.24 18.014.283.39 4.603-.26-4.886-.13Z" fill="#E5E5E5"/><path d="m209.068 26.793 1.348 10.819.042.328-1.39-11.147Zm-.87 15.917-.246.09 5.85 1.066-5.604-1.156Z" fill="#fff"/><path d="m214.744 37.431 4.879-.053-.062-.447-4.817.5Zm.045.464 4.878-.057-.044-.46-4.834.517Zm-.029 2.366 4.878-.08.048-.68-4.926.76Zm-2.231 5.51-.389.401 5.274-.532-4.885.132Zm2.286-7.4 4.878-.06-.026-.473-4.852.534Zm-.007 1.202 4.878-.073.016-.705-4.894.778Zm.016-.712 4.878-.066-.009-.485-4.869.551Zm-2.472-6.509.267.25 4.619-.255-4.886.005Zm.233-3.621-.392.563 5.277-.534-4.885-.03Z" fill="#E5E5E5"/><path d="m210.503 16.434-.399-.224-.417-.192.816.416Zm-2.071 26.168-.235.108 5.604 1.156-5.369-1.264Z" fill="#fff"/><path d="m212.522 18.405.255.412 4.63-.285-4.885-.127Z" fill="#E5E5E5"/><path d="m208.66 42.478-.225.125 5.369 1.264-5.144-1.389Zm-2.298 5.702 4.514-1.023 2.928-3.29-7.442 4.313Z" fill="#fff"/><path d="m212.619 32.602.253.273 4.632-.28-4.885.007Z" fill="#E5E5E5"/><path d="m210.459 37.94.026.342-.377-7.056.351 6.714Zm1.472-20.295-1.426-1.211-1.7-.707 3.126 1.918Z" fill="#fff"/><path d="m212.895 45.332-.366.439 5.25-.566-4.884.127Z" fill="#E5E5E5"/><path d="m209.95 47.633.47-.22.454-.256-.924.476Zm-1.08-5.296-.213.141 5.144 1.389-4.931-1.53Z" fill="#fff"/><path d="m212.925 28.12-.341.61 5.225-.574-4.884-.035Z" fill="#E5E5E5"/><path d="m210.815 31.436-.347-.116-.361-.094.708.21Z" fill="#fff"/><path d="m212.78 18.817.229.435 4.656-.311-4.885-.124Z" fill="#E5E5E5"/><path d="m209.07 42.178-.202.159 4.931 1.53-4.729-1.69Z" fill="#fff"/><path d="m212.873 32.874.24.295 4.645-.304-4.885.01Z" fill="#E5E5E5"/><path d="m213.653 21.205-4.848-5.477.722 8.238 4.126-2.761Zm-3.545 9.884.599-.38.547-.425-1.146.805Zm-.843 10.913-.192.176 4.73 1.688-4.538-1.864Z" fill="#fff"/><path d="m213.006 19.252.202.455 4.682-.337-4.884-.119Zm.222 25.616-.334.464 5.217-.586-4.883.122Zm-.015-17.404-.288.656 5.171-.614-4.883-.042Z" fill="#E5E5E5"/><path d="m211.472 31.736-.655-.3-.708-.21 1.363.51Zm2.182-10.53-4.224 4.54-.068.276 4.292-4.817Z" fill="#fff"/><path d="m213.113 33.17.226.316 4.657-.33-4.883.013Z" fill="#E5E5E5"/><path d="m209.445 41.808-.18.194 4.538 1.864-4.358-2.058Zm4.209-20.603-4.172 4.256-.052.285 4.224-4.541Zm-2.401-4.23-.365-.286-.382-.255.747.542Zm2.401 4.23-4.134 3.961-.038.295 4.172-4.256Zm0 0-4.111 3.657-.023.304 4.134-3.961Z" fill="#fff"/><path d="m213.21 19.708.175.478 4.708-.363-4.883-.115Z" fill="#E5E5E5"/><path d="m213.651 21.205-4.127 2.761.017.286 4.11-3.047Zm0 0-4.104 3.344-.008.313 4.112-3.657Zm0 0-4.11 3.047.006.297 4.104-3.344Zm-4.042 20.396-.167.207 4.358 2.058-4.191-2.265Z" fill="#fff"/><path d="m213.45 26.763-.236.702 5.118-.654-4.882-.048Z" fill="#E5E5E5"/><path d="m210.109 31.09 3.545-9.885-4.292 4.817.747 5.067Z" fill="#fff"/><path d="m213.339 33.486.213.34 4.67-.355-4.883.016Z" fill="#E5E5E5"/><path d="m209.764 41.383-.153.217 4.191 2.266-4.038-2.483Z" fill="#fff"/><path d="m213.531 44.38-.302.489 5.185-.608-4.883.119Zm-.147-24.195.148.5 4.734-.39-4.882-.11Z" fill="#E5E5E5"/><path d="m211.471 31.735-.32-.16-.334-.14.654.3Zm-1.567 9.42-.139.228 4.038 2.483-3.899-2.71Zm.205-10.066 1.145-.805.94-.99-2.085 1.795Z" fill="#fff"/><path d="m213.633 26.016-.184.747 5.066-.692-4.882-.055Zm-.101-5.332.121.52 4.761-.414-4.882-.106Z" fill="#E5E5E5"/><path d="m211.93 17.645-.678-.67-.748-.541 1.426 1.21Zm-1.904 23.272-.124.238 3.9 2.711-3.776-2.95Z" fill="#fff"/><path d="m213.552 33.826.203.35 4.679-.369-4.882.019Z" fill="#E5E5E5"/><path d="m210.875 47.156.438-.292.422-.328-.86.62Zm-.738-6.487-.109.248 3.775 2.95-3.666-3.198Z" fill="#fff"/><path d="m213.651 21.205.094.542 4.788-.441-4.882-.1Zm.149 22.661-.271.514 5.152-.627-4.881.113Zm-.038-18.643-.131.793 5.012-.73-4.881-.063Z" fill="#E5E5E5"/><path d="m210.23 40.41-.095.258 3.666 3.198-3.571-3.457Zm2.388-7.808-1.148-.866-1.363-.51 2.511 1.376Z" fill="#fff"/><path d="m213.748 21.747.067.563 4.814-.468-4.881-.095Z" fill="#E5E5E5"/><path d="m210.311 40.14-.08.27 3.572 3.456-3.492-3.726Z" fill="#fff"/><path d="m213.842 24.385-.079.838 4.96-.768-4.881-.07Zm-.088 9.79.185.362 4.696-.384-4.881.022Z" fill="#E5E5E5"/><path d="m213.653 21.205-1.722-3.56-3.126-1.918 4.848 5.478Zm-3.168 17.077 3.318 5.584-3.695-12.64.377 7.056Z" fill="#fff"/><path d="m213.816 22.31.041.585 4.841-.495-4.882-.09Zm.041.585.013.606 4.868-.521-4.881-.085Zm.013.606-.026.883 4.907-.804-4.881-.079Z" fill="#E5E5E5"/><path d="m210.376 39.86-.065.28 3.491 3.726-3.426-4.006Zm.051-.29-.051.29 3.426 4.006-3.375-4.296Zm.037-.3-.037.3 3.375 4.296-3.338-4.596Zm.022-.31-.022.31 3.338 4.596-3.316-4.907Zm-.001-.678.008.357 3.309 5.227-3.317-5.584Zm.008.357-.007.32 3.316 4.907-3.309-5.227Zm1.438-20.994-.331-.35-.348-.319.679.669Z" fill="#fff"/><path d="m214.042 43.328-.239.538 5.12-.647-4.881.108Zm-.102-8.79.168.375 4.713-.4-4.881.025Z" fill="#E5E5E5"/><path d="m210.875 47.156.86-.62.795-.765-1.655 1.385Zm.379-16.872.496-.472.444-.518-.94.99Zm.819 1.84-.294-.206-.307-.183.601.389Z" fill="#fff"/><path d="m214.107 34.912.15.388 4.73-.417-4.88.03Zm.141 7.851-.207.564 5.087-.667-4.88.103Z" fill="#E5E5E5"/><path d="m210.107 31.09 2.085-1.796 1.256-2.53-3.341 4.325Z" fill="#fff"/><path d="m214.259 35.3.132.401 4.748-.433-4.88.033Zm.166 6.875-.175.589 5.055-.686-4.88.097Z" fill="#E5E5E5"/><path d="m212.619 32.602-.548-.478-.601-.389 1.149.867Z" fill="#fff"/><path d="m214.389 35.7.115.414 4.764-.45-4.879.037Z" fill="#E5E5E5"/><path d="m211.737 46.536.405-.364.39-.4-.795.764Z" fill="#fff"/><path d="m214.568 41.562-.143.613 5.022-.705-4.879.092Zm-.063-5.447.098.426 4.782-.467-4.88.04Z" fill="#E5E5E5"/><path d="m212.522 18.405-.283-.39-.309-.37.592.76Z" fill="#fff"/><path d="m214.602 36.54.079.44 4.8-.484-4.879.044Zm.077 4.383-.112.638 4.991-.724-4.879.086Z" fill="#E5E5E5"/><path d="m214.257 35.3-1.639-2.698-2.511-1.376 4.15 4.074Z" fill="#fff"/><path d="m214.683 36.98.062.45 4.817-.5-4.879.05Z" fill="#E5E5E5"/><path d="m212.62 32.602-.267-.25-.28-.228.547.478Z" fill="#fff"/><path d="m214.759 40.26-.08.663 4.959-.742-4.879.08Zm-.015-2.83.044.465 4.834-.517-4.878.053Z" fill="#E5E5E5"/><path d="m210.874 47.157 1.654-1.385 1.273-1.906-2.927 3.29Zm-.767-16.068 3.341-4.326.204-5.558-3.545 9.884Z" fill="#fff"/><path d="m214.809 39.573-.048.688 4.926-.76-4.878.072Zm-.019-1.678.026.477 4.852-.534-4.878.057Zm.026.477.009.489 4.869-.55-4.878.06Zm.009.489-.016.712 4.894-.778-4.878.066Z" fill="#E5E5E5"/><path d="m213.006 19.252-.485-.847-.591-.76 1.076 1.607Zm-.814 10.042.392-.564.34-.61-.732 1.174Zm1.609 14.573.456-8.566-4.15-4.075 3.694 12.64Zm-.795-24.615-.229-.434-.256-.413.485.847Zm-.814 10.042.732-1.173.524-1.357-1.256 2.53Zm1.46-8.089-.646-1.953-1.076-1.607 1.722 3.56Zm-.541 11.964-.239-.294-.254-.273.493.567Zm-.583 12.603.366-.439.334-.464-.7.903Zm1.022-11.946-.439-.657-.493-.567.932 1.224Zm-1.022 11.946.7-.903.573-1.002-1.273 1.905Zm.396-17.651.289-.656.235-.701-.524 1.357Zm.459-7.935-.175-.478-.202-.456.377.934Zm.167 13.64-.212-.34-.227-.317.439.657Zm.102-12.62-.269-1.02-.377-.934.646 1.953Zm.605 14.095-.707-1.475-.932-1.224 1.639 2.699Zm-1.029 9.568.303-.489.27-.514-.573 1.003Zm.424-23.664-.121-.52-.148-.5.269 1.02Zm-.204 5.559.184-.748.131-.792-.315 1.54Zm0 0 .42-3.262-.216-2.297-.204 5.559Zm0 0 .315-1.54.105-1.722-.42 3.262Zm.366-4.453-.067-.564-.095-.542.162 1.106Zm.125 12.227-.186-.363-.203-.349.389.712Zm-.071-11.036-.054-1.191-.162-1.106.216 2.297Zm-.105 1.722.079-.839.026-.883-.105 1.722Zm.105-1.722-.013-.606-.041-.585.054 1.19Zm.389 11.799-.318-.763-.389-.712.707 1.475Zm-.456 8.566.24-.54.207-.563-.447 1.102Zm.456-8.566-.15-.388-.168-.375.318.763Zm-.456 8.566.447-1.103.319-1.202-.766 2.305Zm0 0 1.022-5.006-.566-3.56-.456 8.566Zm.704-7.752-.115-.414-.133-.4.248.814Zm-.704 7.752.766-2.305.256-2.7-1.022 5.005Zm.447-1.103.176-.589.143-.613-.319 1.202Zm.434-5.784-.177-.865-.248-.814.425 1.679Zm.141 1.881-.141-1.881-.425-1.68.566 3.561Zm-.141-1.881-.08-.44-.097-.425.177.865Zm-.115 4.582.112-.638.08-.663-.192 1.3Zm0 0 .192-1.301.064-1.4-.256 2.7Zm.221-3.667-.045-.464-.061-.451.106.915Zm.035.966-.035-.966-.106-.915.141 1.881Zm-.064 1.4.048-.688.016-.712-.064 1.4Zm.064-1.4-.009-.49-.026-.476.035.966Z" fill="#fff"/><path d="m212.646 15.691-5.259-.166c1.262.057 2.159.43 2.746.699.587.268 1.199.746 1.845 1.442.516.556.981 1.445 1.149 1.82.056.109.231.558.486 1.484.255.926.28 2.186.26 2.7-.017.562-.091 1.845-.252 2.482-.201.797-.394 1.468-.93 2.415-.537.948-.764 1.065-1.376 1.66-.489.477-1.003.764-1.199.848v.15c2.046.412 3.153 1.879 3.799 3.271.651 1.107.869 2.854.897 3.59a12.555 12.555 0 0 1-.327 3.873c-.117.459-.471 1.588-.947 2.44-.477.852-1.446 1.815-1.87 2.19-.132.103-.584.424-1.342.88-1.027.476-2.211.668-2.675.704 1.07-.022 3.609-.089 5.199-.176 1.342-.127 2.342-.618 2.675-.847.349-.17 1.273-.773 2.172-1.82.899-1.046 1.453-2.577 1.618-3.211.151-.627.44-2.264.386-3.807-.054-1.543-.386-2.64-.545-2.994-.101-.4-.538-1.468-1.484-2.541s-2.183-1.482-2.684-1.551v-.151c.338-.157 1.184-.666 1.862-1.451.88-.771 1.493-2.683 1.635-3.254.114-.389.221-1.436.26-1.912.025-.673.023-2.24-.184-3.119-.26-1.098-.426-1.481-.639-1.916a7.38 7.38 0 0 0-1.192-1.757 6.168 6.168 0 0 0-1.798-1.348c-.676-.394-1.805-.582-2.286-.627Z" fill="#C4C4C4"/><path d="m212.646 15.691-5.259-.166c1.262.057 2.159.43 2.746.699.587.268 1.199.746 1.845 1.442.516.556.981 1.445 1.149 1.82.056.109.231.558.486 1.484.255.926.28 2.186.26 2.7-.017.562-.091 1.845-.252 2.482-.201.797-.394 1.468-.93 2.415-.537.948-.764 1.065-1.376 1.66-.489.477-1.003.764-1.199.848v.15c2.046.412 3.153 1.879 3.799 3.271.651 1.107.869 2.854.897 3.59a12.555 12.555 0 0 1-.327 3.873c-.117.459-.471 1.588-.947 2.44-.477.852-1.446 1.815-1.87 2.19-.132.103-.584.424-1.342.88-1.027.476-2.211.668-2.675.704 1.07-.022 3.609-.089 5.199-.176 1.342-.127 2.342-.618 2.675-.847.349-.17 1.273-.773 2.172-1.82.899-1.046 1.453-2.577 1.618-3.211.151-.627.44-2.264.386-3.807-.054-1.543-.386-2.64-.545-2.994-.101-.4-.538-1.468-1.484-2.541s-2.183-1.482-2.684-1.551v-.151c.338-.157 1.184-.666 1.862-1.451.88-.771 1.493-2.683 1.635-3.254.114-.389.221-1.436.26-1.912.025-.673.023-2.24-.184-3.119-.26-1.098-.426-1.481-.639-1.916a7.38 7.38 0 0 0-1.192-1.757 6.168 6.168 0 0 0-1.798-1.348c-.676-.394-1.805-.582-2.286-.627Z" fill="url(#u)"/><path d="m212.646 15.691-5.259-.166c1.262.057 2.159.43 2.746.699.587.268 1.199.746 1.845 1.442.516.556.981 1.445 1.149 1.82.056.109.231.558.486 1.484.255.926.28 2.186.26 2.7-.017.562-.091 1.845-.252 2.482-.201.797-.394 1.468-.93 2.415-.537.948-.764 1.065-1.376 1.66-.489.477-1.003.764-1.199.848v.15c2.046.412 3.153 1.879 3.799 3.271.651 1.107.869 2.854.897 3.59a12.555 12.555 0 0 1-.327 3.873c-.117.459-.471 1.588-.947 2.44-.477.852-1.446 1.815-1.87 2.19-.132.103-.584.424-1.342.88-1.027.476-2.211.668-2.675.704 1.07-.022 3.609-.089 5.199-.176 1.342-.127 2.342-.618 2.675-.847.349-.17 1.273-.773 2.172-1.82.899-1.046 1.453-2.577 1.618-3.211.151-.627.44-2.264.386-3.807-.054-1.543-.386-2.64-.545-2.994-.101-.4-.538-1.468-1.484-2.541s-2.183-1.482-2.684-1.551v-.151c.338-.157 1.184-.666 1.862-1.451.88-.771 1.493-2.683 1.635-3.254.114-.389.221-1.436.26-1.912.025-.673.023-2.24-.184-3.119-.26-1.098-.426-1.481-.639-1.916a7.38 7.38 0 0 0-1.192-1.757 6.168 6.168 0 0 0-1.798-1.348c-.676-.394-1.805-.582-2.286-.627Z" fill="url(#v)"/><path d="m206.351 38.924-4.951.07c.439 1.003 1.344 2.102 1.596 2.362.143.192.973.889 1.459 1.115.134.042 1.157.604 2.667.511 1.019-.107 1.716-.575 1.937-.796-1.166-.797-2.08-1.946-2.708-3.262Z" fill="#C4C4C4"/><path d="m206.351 38.924-4.951.07c.439 1.003 1.344 2.102 1.596 2.362.143.192.973.889 1.459 1.115.134.042 1.157.604 2.667.511 1.019-.107 1.716-.575 1.937-.796-1.166-.797-2.08-1.946-2.708-3.262Z" fill="url(#w)"/><path d="m206.351 38.924-4.951.07c.439 1.003 1.344 2.102 1.596 2.362.143.192.973.889 1.459 1.115.134.042 1.157.604 2.667.511 1.019-.107 1.716-.575 1.937-.796-1.166-.797-2.08-1.946-2.708-3.262Z" fill="url(#x)"/><path d="M208.776 21.781c-2.876-2.832-6.169.615-6.849 2.415.951.037 3.275.11 4.961.11.316-1.106 1.39-2.144 1.888-2.525Z" fill="#C4C4C4"/><path d="M208.776 21.781c-2.876-2.832-6.169.615-6.849 2.415.951.037 3.275.11 4.961.11.316-1.106 1.39-2.144 1.888-2.525Z" fill="url(#y)"/><path d="M208.776 21.781c-2.876-2.832-6.169.615-6.849 2.415.951.037 3.275.11 4.961.11.316-1.106 1.39-2.144 1.888-2.525Z" fill="url(#z)"/><rect x="138.669" y="85.858" width="64.739" height="60.925" rx="3.5" fill="url(#A)" stroke="url(#B)"/><path d="M153.821 158.27h13.304m13.305 0h-13.305m0 0v-11.486" stroke="url(#C)" stroke-width="4" stroke-linecap="round" stroke-linejoin="round"/><path d="M151.473 158.27h13.304m13.305 0h-13.305m0 0v-11.486" stroke="url(#D)" stroke-width="4" stroke-linecap="round" stroke-linejoin="round"/><rect x="132.408" y="85.858" width="64.739" height="60.925" rx="3.5" fill="url(#E)" stroke="url(#F)"/><path d="M145.5 79.266c0-1.828.952-3.33 2.219-3.824a2.469 2.469 0 0 1 1.462-.109l15.652 3.567c1.493.34 2.58 1.998 2.58 3.933v33.308c0 1.845-.961 3.334-2.22 3.825a2.468 2.468 0 0 1-1.77.017l-15.652-5.708c-1.344-.49-2.271-2.057-2.271-3.841V79.266Z" fill="#F6E9E5"/><path d="M143.314 112.074c.203 1.335.931 2.459 1.937 2.959a.69.69 0 0 0 .556.009c.683-.267.776-1.485.385-2.106a4.31 4.31 0 0 1-.424-.889c-.258-.746-1.061-1.303-1.797-1.016-.431.168-.727.586-.657 1.043Zm-.058-31.164v28.757a1.122 1.122 0 0 0 2.246 0V80.909a1.123 1.123 0 0 0-2.246 0Zm4.254 34.964 13.388 4.881a.789.789 0 0 0 .562-.006c.684-.267.673-1.238-.017-1.489l-13.388-4.882a.794.794 0 0 0-.562.006c-.684.267-.673 1.238.017 1.49Zm-3.989-37.346c.368-1.063 1.088-1.872 1.954-2.21l2.244-.875c-1.084.423-1.938 1.585-2.161 3.059-.069.457-.34.875-.771 1.043-.736.287-1.524-.27-1.266-1.017Z" fill="#F6E9E5"/><path d="M145.476 76.319c.395-.154.821-.21 1.258-.148a.78.78 0 0 0 .398-.037l.665-.26c.419-.163.344-.595-.076-.431l-2.245.876Zm17.669 43.773-.278.108c-.587.229-.503.871.084.642l2.244-.876c-.465.182-.97.227-1.482.103a.949.949 0 0 0-.568.023Z" fill="#F6E9E5"/><path d="M162.95 120.842c1.079-.422 1.94-1.576 2.163-3.06.069-.458.341-.876.771-1.044.737-.287 1.525.271 1.267 1.017-.37 1.068-1.093 1.874-1.956 2.211l-2.245.876Zm-.563-41.112-13.303-3.03c-.65-.148-.716-1.048-.095-1.29a.676.676 0 0 1 .396-.03l13.302 3.032c.65.148.717 1.048.096 1.29a.676.676 0 0 1-.396.03Zm2.782 35.644V84.477a1.123 1.123 0 0 1 2.246 0v30.897a1.122 1.122 0 1 1-2.246 0Zm-.243-33.209a4.242 4.242 0 0 0-.575-1.149c-.388-.542-.331-1.798.29-2.04a.595.595 0 0 1 .394-.021c1.193.375 2.092 1.604 2.322 3.114.07.457-.226.875-.657 1.043l-.068.027c-.703.274-1.47-.257-1.706-.974Z" fill="#F6E9E5"/><path d="M188.544 79.266c0-2.487-1.762-4.37-3.681-3.933L169.211 78.9c-1.493.34-2.58 1.998-2.58 3.933v33.308c0 2.654 1.99 4.571 3.99 3.842l3.245-1.184 9.163-3.341 3.244-1.183c1.344-.49 2.271-2.057 2.271-3.841V79.266Z" fill="#F6E9E5"/><path d="M168.377 120.859c-1.802.657-3.596-.834-3.934-3.077-.068-.458.228-.876.658-1.044.736-.287 1.537.271 1.795 1.017.606 1.751 2.164 2.797 3.727 2.228l-2.246.876Zm-3.99-5.485V84.477a1.124 1.124 0 0 1 2.245 0v30.897a1.123 1.123 0 1 1-2.245 0Z" fill="#F6E9E5"/><path d="m171.621 119.675-.981.358c-.033.012-.052-.038-.019-.05l.001-.001 3.244-1.183-2.245.876Zm-6.968-37.579c.409-1.18 1.255-2.072 2.301-2.317a.17.17 0 0 0 .025-.007c.205-.08.481.344.362.529-.407.634-.662 1.429-.703 2.288a.374.374 0 0 1-.233.333l-.487.19c-.737.287-1.523-.27-1.265-1.016Zm16.133 34.239-9.163 3.341 2.245-.876 9.163-3.342-2.245.877Z" fill="#F6E9E5"/><path d="m184.03 115.151-3.245 1.183 2.245-.876.981-.358c.033-.012.052.038.019.051Zm-14.726-35.907 13.302-3.031a.158.158 0 0 0 .025-.008c.205-.08.111-.388-.104-.339l-13.302 3.032a.184.184 0 0 0-.025.007c-.205.08-.11.388.104.34Z" fill="#F6E9E5"/><path d="m184.14 115.108-.111.043.111-.043c1.091-.454 1.887-1.627 2.101-3.034.07-.457.342-.875.772-1.043.737-.287 1.523.27 1.265 1.016-.368 1.061-1.089 1.894-2.004 2.228l-2.134.833Zm2.16-34.198v28.757a1.122 1.122 0 1 0 2.245 0V80.909a1.123 1.123 0 1 0-2.245 0Z" fill="#F6E9E5"/><path d="M186.265 79.54c-.138-1.17-.67-2.157-1.405-2.76-.17-.14-.213-1.362-.008-1.442a.184.184 0 0 1 .025-.008c1.712-.38 3.296 1.083 3.611 3.172.069.457-.226.875-.657 1.043l-.968.378c-.271.105-.564-.095-.598-.384Z" fill="#F6E9E5"/><path d="M143.256 80.385a4 4 0 0 1 4.888-3.9l13.914 3.17a4 4 0 0 1 3.111 3.9v33.043c0 2.777-2.761 4.709-5.371 3.758l-13.913-5.074a3.998 3.998 0 0 1-2.629-3.758v-31.14Z" fill="#fff"/><path d="M186.299 80.385a4 4 0 0 0-4.889-3.9l-13.913 3.17a4 4 0 0 0-3.111 3.9v33.043c0 2.777 2.761 4.709 5.37 3.758l13.913-5.074a4 4 0 0 0 2.63-3.758v-31.14Z" fill="url(#G)"/><defs><linearGradient id="d" x1="176.46" y1="216.184" x2="176.46" y2="245.717" gradientUnits="userSpaceOnUse"><stop stop-color="#fff"/><stop offset="1" stop-color="#F2FCFF"/></linearGradient><linearGradient id="e" x1="176.46" y1="216.184" x2="176.46" y2="245.717" gradientUnits="userSpaceOnUse"><stop stop-color="#EBFAFF"/><stop offset="1" stop-color="#fff"/></linearGradient><linearGradient id="h" x1="176.46" y1="242.574" x2="176.46" y2="286.043" gradientUnits="userSpaceOnUse"><stop stop-color="#fff"/><stop offset="1" stop-color="#EBFAFF"/></linearGradient><linearGradient id="i" x1="386.768" y1="249.336" x2="78.486" y2="249.336" gradientUnits="userSpaceOnUse"><stop stop-color="#CED2EF"/><stop offset=".504" stop-color="#CED2EF" stop-opacity="0"/></linearGradient><linearGradient id="k" x1="211.713" y1="-19.965" x2="136.429" y2="168.536" gradientUnits="userSpaceOnUse"><stop stop-color="#DEE5F8"/><stop offset="1" stop-color="#fff"/></linearGradient><linearGradient id="l" x1="244.57" y1="-19.629" x2="139.288" y2="60.959" gradientUnits="userSpaceOnUse"><stop stop-color="#DEE5F8"/><stop offset="1" stop-color="#fff"/></linearGradient><linearGradient id="m" x1="251.95" y1="-46.069" x2="91.197" y2="49.589" gradientUnits="userSpaceOnUse"><stop stop-color="#fff"/><stop offset="1" stop-color="#EBF0FF"/></linearGradient><linearGradient id="n" x1="196.332" y1="10.421" x2="214.81" y2="64.835" gradientUnits="userSpaceOnUse"><stop stop-color="#FFA9A5"/><stop offset="1" stop-color="#FF5B53"/></linearGradient><linearGradient id="o" x1="235.603" y1="85.556" x2="177.553" y2="3.525" gradientUnits="userSpaceOnUse"><stop stop-color="#FFA9A5"/><stop offset="1" stop-color="#FF5C54"/></linearGradient><linearGradient id="p" x1="261.678" y1="27.416" x2="194.81" y2="39.292" gradientUnits="userSpaceOnUse"><stop stop-color="#BDBEE3"/><stop offset="1" stop-color="#DEE5F8"/></linearGradient><linearGradient id="q" x1="271.677" y1="32.802" x2="217.714" y2="43.816" gradientUnits="userSpaceOnUse"><stop stop-color="#0BA7E8"/><stop offset="1" stop-color="#8FDBFC"/></linearGradient><linearGradient id="r" x1="265.412" y1="37.34" x2="208.095" y2="32.802" gradientUnits="userSpaceOnUse"><stop stop-color="#FF5B53"/><stop offset="1" stop-color="#FFA9A5"/></linearGradient><linearGradient id="s" x1="224.706" y1=".024" x2="247.984" y2="50.821" gradientUnits="userSpaceOnUse"><stop stop-color="#0BA7E8"/><stop offset="1" stop-color="#8FDBFC"/></linearGradient><linearGradient id="t" x1="243.952" y1="84.351" x2="183.761" y2="31.295" gradientUnits="userSpaceOnUse"><stop stop-color="#FF5C54"/><stop offset="1" stop-color="#FFA9A5"/></linearGradient><linearGradient id="u" x1="213.547" y1="15.525" x2="213.547" y2="48.173" gradientUnits="userSpaceOnUse"><stop stop-color="#E5E5E5"/><stop offset="1" stop-color="#E5E5E5" stop-opacity="0"/></linearGradient><linearGradient id="v" x1="236.373" y1="37.193" x2="213.547" y2="48.173" gradientUnits="userSpaceOnUse"><stop stop-color="#EBE9E9"/><stop offset="1" stop-color="#FFDBDA"/></linearGradient><linearGradient id="w" x1="205.23" y1="38.924" x2="205.23" y2="42.993" gradientUnits="userSpaceOnUse"><stop stop-color="#E5E5E5"/><stop offset="1" stop-color="#E5E5E5" stop-opacity="0"/></linearGradient><linearGradient id="x" x1="211.174" y1="31.354" x2="209.031" y2="43.655" gradientUnits="userSpaceOnUse"><stop stop-color="#EBE9E9"/><stop offset="1" stop-color="#FFDBDA"/></linearGradient><linearGradient id="y" x1="205.352" y1="20.705" x2="205.352" y2="24.306" gradientUnits="userSpaceOnUse"><stop stop-color="#E5E5E5"/><stop offset="1" stop-color="#E5E5E5" stop-opacity="0"/></linearGradient><linearGradient id="z" x1="210.667" y1="14.004" x2="208.789" y2="24.899" gradientUnits="userSpaceOnUse"><stop stop-color="#EBE9E9"/><stop offset="1" stop-color="#FFDBDA"/></linearGradient><linearGradient id="A" x1="144.038" y1="82.861" x2="203.95" y2="137.695" gradientUnits="userSpaceOnUse"><stop stop-color="#FF9994"/><stop offset="1" stop-color="#FF5C54"/></linearGradient><linearGradient id="B" x1="171.038" y1="85.358" x2="171.038" y2="147.283" gradientUnits="userSpaceOnUse"><stop stop-color="#FF6058"/><stop offset="1" stop-color="#FF948F"/></linearGradient><linearGradient id="C" x1="167.125" y1="146.784" x2="178.719" y2="157.448" gradientUnits="userSpaceOnUse"><stop stop-color="#FF9590"/><stop offset="1" stop-color="#FF5C54"/></linearGradient><linearGradient id="D" x1="164.777" y1="146.784" x2="185.628" y2="163.122" gradientUnits="userSpaceOnUse"><stop stop-color="#FF6C64"/><stop offset="1" stop-color="#FF5C54"/></linearGradient><linearGradient id="E" x1="137.777" y1="82.861" x2="197.689" y2="137.695" gradientUnits="userSpaceOnUse"><stop stop-color="#FF9994"/><stop offset="1" stop-color="#FF5C54"/></linearGradient><linearGradient id="F" x1="164.777" y1="85.358" x2="164.777" y2="147.283" gradientUnits="userSpaceOnUse"><stop stop-color="#FF6058"/><stop offset="1" stop-color="#FF948F"/></linearGradient><linearGradient id="G" x1="196.473" y1="104.835" x2="164.777" y2="104.835" gradientUnits="userSpaceOnUse"><stop offset=".63" stop-color="#fff"/><stop offset="1" stop-color="#FDFDFD"/></linearGradient><radialGradient id="a" cx="0" cy="0" r="1" gradientUnits="userSpaceOnUse" gradientTransform="matrix(0 118.368 -164.518 0 168.114 236.147)"><stop stop-color="#7E32A2"/><stop offset="1" stop-color="#fff" stop-opacity="0"/></radialGradient><radialGradient id="c" cx="0" cy="0" r="1" gradientUnits="userSpaceOnUse" gradientTransform="matrix(0 18.0563 -168.237 0 176.465 257.934)"><stop stop-color="#502F96"/><stop offset="1" stop-color="#C4C4C4" stop-opacity="0"/></radialGradient><radialGradient id="g" cx="0" cy="0" r="1" gradientUnits="userSpaceOnUse" gradientTransform="matrix(0 8.69781 -70.8338 0 173.223 232.469)"><stop stop-color="#3D74B5"/><stop offset="1" stop-color="#C4C4C4" stop-opacity="0"/></radialGradient><filter id="b" x=".229" y="231.877" width="352.474" height="52.113" filterUnits="userSpaceOnUse" color-interpolation-filters="sRGB"><feFlood flood-opacity="0" result="BackgroundImageFix"/><feBlend in="SourceGraphic" in2="BackgroundImageFix" result="shape"/><feGaussianBlur stdDeviation="4" result="effect1_foregroundBlur_1301_332091"/></filter><filter id="f" x="92.555" y="212.516" width="161.337" height="39.907" filterUnits="userSpaceOnUse" color-interpolation-filters="sRGB"><feFlood flood-opacity="0" result="BackgroundImageFix"/><feBlend in="SourceGraphic" in2="BackgroundImageFix" result="shape"/><feGaussianBlur stdDeviation="5" result="effect1_foregroundBlur_1301_332091"/></filter><filter id="j" x="90.977" y="12.063" width="154.926" height="190.365" filterUnits="userSpaceOnUse" color-interpolation-filters="sRGB"><feFlood flood-opacity="0" result="BackgroundImageFix"/><feGaussianBlur in="BackgroundImageFix" stdDeviation="5"/><feComposite in2="SourceAlpha" operator="in" result="effect1_backgroundBlur_1301_332091"/><feBlend in="SourceGraphic" in2="effect1_backgroundBlur_1301_332091" result="shape"/></filter></defs></svg>