<svg width="85" height="79" fill="none" xmlns="http://www.w3.org/2000/svg"><path d="m9.642 20.486-1.43 1.395-1.277 1.496 2.707-2.891Zm-2.707 2.891-1.112 1.581-.932 1.652 2.044-3.233Zm2.707-2.891-2.707 2.891L4.89 26.61l4.75-6.124Zm3.258-2.427-1.691 1.147-1.567 1.28 3.258-2.427ZM4.891 26.61l-.734 1.71-.52 1.75 1.254-3.46Zm11.72-10.378L12.9 18.06l-3.26 2.427 6.97-4.254Zm0 0-1.906.83-1.805.997 3.71-1.827Zm-6.97 4.254-4.75 6.124-4.27 35.292 9.02-41.416Zm-4.75 6.124-1.253 3.46L.62 61.903l4.27-35.292Zm-1.253 3.46-.287 1.782-2.73 30.05 3.017-31.831ZM58.174 5.558 16.611 16.232l-6.97 4.254 48.533-14.93Zm-4.869.803-34.7 9.23-1.995.642L53.305 6.36ZM9.642 20.486.622 61.902l1.39 7.65 7.63-49.066Zm48.532-14.93-4.869.804-36.695 9.872L58.174 5.557ZM19.911 77.993l2.697.544 2.079.263-4.776-.806Z" fill="#C7CDDC"/><path d="m.62 61.902-.05 2.07.221 1.974-.17-4.044Zm21.393 16.356 2.674.542 2.205-.02-4.88-.522Zm0 0-2.102-.264 4.776.806-2.674-.542ZM9.642 20.486 2.012 69.55l13.58 6.895-5.95-55.96ZM.622 61.902l.17 4.044 1.22 3.605-1.39-7.65Z" fill="#C7CDDC"/><path d="m24.246 78.233-2.233.025 4.879.521-2.646-.546Zm48.413-66.235-14.485-6.44L9.641 20.486l63.018-8.488ZM.79 65.947l.484 1.865.736 1.74-1.22-3.605Zm76.96-48.019 1.556 1.812-1.034-1.518-.521-.294Zm-60.65 59.5 2.812.566 2.101.264-4.913-.83ZM76.706 16.39l1.045 1.537.521.293-1.566-1.83Zm1.798 3.262 1.55 1.787-.748-1.7-.802-.087Zm-59.28 58.04 2.788.566 2.233-.026-5.02-.54ZM58.175 5.557l-2.41.274-2.46.53 4.87-.804Z" fill="#C7CDDC"/><path d="m19.224 77.693-2.125-.266 4.913.831-2.788-.565Zm58.527-59.765.753 1.725.802.087-1.555-1.812Zm1.182 3.625 1.55 1.758-.429-1.871-1.12.113ZM2.01 69.551l.978 1.595 1.208 1.431-2.185-3.026Zm13.581 6.896L72.66 11.998 9.64 20.486l5.95 55.96Z" fill="#C7CDDC"/><path d="m21.485 77.663-2.261.03 5.021.54-2.76-.57Zm57.019-58.01.43 1.9 1.12-.113-1.55-1.787Zm-2.377-3.615 1.623 1.89-1.044-1.537-.579-.353ZM14.164 76.836l2.934.591 2.126.266-5.06-.857ZM2.01 69.551l2.186 3.026 3.064 2.285-5.25-5.311ZM62.753 5.756l-2.241-.223-2.337.023 4.578.2Z" fill="#C7CDDC"/><path d="m75.072 14.48 1.055 1.558.579.353-1.634-1.91Zm1.814 3.307 1.618 1.865-.754-1.724-.864-.141Zm-52.64 60.446 2.645.546 38.918-2.934-41.564 2.388Zm-7.932-1.13 2.91.59 2.261-.03-5.171-.56ZM4.197 72.577l1.428 1.246 1.636 1.038-3.064-2.284Z" fill="#C7CDDC"/><path d="m16.313 77.103-2.149-.267 5.06.857-2.91-.59Zm59.814-61.065.759 1.749.864.141-1.623-1.89Zm-9.28-9.115-4.094-1.167-4.58-.2 8.674 1.367Z" fill="#C7CDDC"/><path d="m77.314 19.717 1.62 1.835-.43-1.9-1.19.065Zm-58.71 57.351-2.29.035 5.171.56-2.882-.595ZM2.01 69.551l5.25 5.31 8.331 1.585-13.58-6.895Zm74.876-51.764.428 1.93 1.19-.065-1.618-1.865ZM66.847 6.922l-1.973-.702-2.121-.464 4.094 1.166Z" fill="#C7CDDC"/><path d="m74.432 14.063 1.695 1.975-1.055-1.557-.64-.418ZM11.1 76.218l3.064.618 2.15.267-5.214-.885Zm62.266-63.731 1.066 1.576.64.418-1.706-1.994ZM7.26 74.862l1.83.807 2.01.55-3.84-1.357Z" fill="#C7CDDC"/><path d="m75.195 15.837 1.69 1.95-.758-1.75-.932-.2Zm-2.536-3.839-5.812-5.075-8.673-1.366 14.485 6.441ZM21.485 77.663l2.76.57 39.528-3.067-42.288 2.497Zm-8.212-1.176 3.04.616 2.29-.035-5.33-.581Zm0 0-2.173-.268 5.213.884-3.04-.616Zm61.159-62.424.763 1.774.932.2-1.695-1.974Zm4.501 7.49 4.356 33.7-2.806-31.942-1.55-1.758ZM7.26 74.862l3.84 1.357 4.492.228-8.331-1.585Zm68.363-57.064 1.692 1.919-.429-1.93-1.263.011Z" fill="#C7CDDC"/><path d="m70.233 9.02-1.59-1.163-1.796-.934 3.386 2.096ZM15.591 76.447l-2.318.04 5.33.581-3.012-.621Zm59.604-60.61.427 1.961 1.263-.011-1.69-1.95Z" fill="#C7CDDC"/><path d="m11.1 76.219 2.173.268 2.319-.04-4.492-.228Zm61.56-64.221 1.772 2.065-1.066-1.576-.707-.489Zm-.002 0L70.233 9.02l-3.386-2.096 5.811 5.075Z" fill="#C7CDDC"/><path d="m71.583 10.402 1.076 1.596.707.488-1.783-2.084Zm1.844 3.396 1.768 2.039-.763-1.774-1.005-.265Zm-9.653 61.368-39.529 3.067 41.565-2.389-2.036-.678Zm-45.17 1.902 2.881.595 40.154-3.209-43.036 2.614Z" fill="#C7CDDC"/><path d="m72.66 11.998-1.077-1.596-1.35-1.383 2.426 2.979Zm0 0 .767 1.8 1.005.265-1.773-2.065Zm4.655 7.72 4.297 34.333-2.678-32.498-1.62-1.836Zm5.974 35.535 1.6 1.147-4.405-33.09 2.805 31.943Zm-9.436-39.462 1.77 2.008-.427-1.962-1.343-.046Zm-.425-1.993.425 1.993 1.343.046-1.769-2.039Z" fill="#C7CDDC"/><path d="m73.853 15.791-.425-1.993-.769-1.8 1.194 3.793ZM61.64 74.454l-40.155 3.21 42.288-2.498-2.134-.712Zm-46.048 1.993 3.011.621 40.796-3.36-43.807 2.739Zm60.03-58.649 4.228 34.99-2.535-33.071-1.692-1.919Zm5.99 36.253 1.677 1.202-4.356-33.7 2.679 32.498ZM63.774 75.166l2.036.679 2.762-.373-4.799-.306Zm2.813-.386 1.985.692 2.656-.682-4.64-.01Zm16.807-17.131 1.607 1.097-.112-2.346-1.495 1.249Zm-16.807 17.13-2.814.387 4.799.306-1.985-.692Zm2.707-.702 1.934.713 2.515-.972-4.448.26Zm13.807-14.06 1.62 1.046.28-2.317-1.9 1.27Zm.188-4.764.105 2.396 1.495-1.25-1.6-1.146ZM59.4 73.707l-40.796 3.361 43.036-2.614-2.24-.747Zm9.895.37-2.707.703 4.64.01-1.933-.713Zm2.567-.998 1.882.74 2.342-1.24-4.224.5Zm10.567-10.755 1.642.996.651-2.257-2.293 1.261Zm-8.176 9.484 1.833.772 2.134-1.48-3.967.708Zm7.147-7.27 1.67.945 1.001-2.163-2.671 1.218Zm1.995-6.89-.293 2.369 1.9-1.271-1.607-1.097Zm-11.533 15.43-2.567 1 4.449-.26-1.882-.74Zm1.992-57.287L78 51.461l-2.376-33.663-1.77-2.007Zm2.58 54.499 1.786.81 1.896-1.696-3.681.886Zm3.605-3.666 1.703.898 1.327-2.039-3.03 1.141Zm-1.665 1.928 1.742.852 1.626-1.882-3.368 1.03Zm1.477-15.763 1.762 1.262-4.297-34.334 2.535 33.072Z" fill="#C7CDDC"/><path d="M15.592 76.447 74.395 63.65l-1.736-51.653-57.067 64.449Zm46.048-1.993 2.134.712 2.814-.386-4.948-.326ZM83.1 60.017l-.672 2.307 2.293-1.26-1.62-1.047Zm-8.849 11.79-2.39 1.272 4.223-.499-1.833-.772Z" fill="#C7CDDC"/><path d="m78.08 54.018-4.227-38.227-1.194-3.793 5.42 42.02Zm4.348 8.306-1.03 2.214 2.672-1.218-1.642-.996Zm-5.995 7.966-2.181 1.518 3.967-.709-1.785-.81Zm4.966-5.752-1.361 2.086 3.03-1.14-1.67-.946Zm-3.026 4.014-1.94 1.738 3.682-.886-1.742-.852Zm-13.867 5.502 2.081.726 2.707-.703-4.788-.023Zm15.532-7.43-1.665 1.928 3.368-1.03-1.703-.898Zm1.671-10.126 1.685 1.15-.105-2.395-1.58 1.245ZM64.506 74.054l-2.867.4 4.948.326-2.081-.726Zm2.76-.724 2.028.747 2.567-.998-4.594.25Zm14.135-14.411 1.7 1.098.293-2.368-1.993 1.27Zm.21-4.868.098 2.447 1.58-1.245-1.677-1.202ZM57.047 72.923l-41.454 3.524 43.807-2.74-2.353-.784Zm10.22.407-2.76.724 4.788.023-2.027-.747Zm2.62-1.027 1.975.776 2.39-1.271-4.365.495Zm10.82-11.024 1.722 1.045.673-2.307-2.396 1.262Zm-8.377 9.719 1.923.81 2.181-1.518-4.104.708Zm7.318-7.453 1.752.993 1.03-2.214-2.782 1.221Zm2.062-7.047-.308 2.42 1.993-1.27-1.685-1.15ZM69.886 72.303l-2.62 1.027 4.595-.251-1.975-.776Zm4.673-2.863 1.874.85 1.94-1.738-3.814.888Zm3.69-3.758 1.789.942 1.36-2.086-3.148 1.144Zm-1.705 1.976 1.829.894 1.665-1.928-3.494 1.034Zm1.455-16.196 1.852 1.327-4.228-34.99 2.376 33.663ZM59.4 73.707l2.24.747 2.867-.4-5.107-.347ZM81.401 58.92l-.696 2.36 2.396-1.262-1.7-1.098Zm-9.072 12.079-2.443 1.305 4.366-.495-1.923-.81Zm-56.737 5.448 41.454-3.524 2.978-.433-44.432 3.957Z" fill="#C7CDDC"/><path d="m80.705 61.28-1.059 2.265 2.782-1.22-1.723-1.045Zm-6.146 8.16-2.23 1.558 4.104-.708-1.874-.85Zm5.087-5.895-1.397 2.138 3.15-1.145-1.753-.992Zm-3.103 4.113L74.56 69.44l3.813-.888-1.829-.894ZM62.32 73.292l2.185.762 2.761-.724-4.946-.038Zm15.93-7.61-1.707 1.976 3.494-1.033-1.788-.942Zm1.69-10.392 1.769 1.208-.098-2.446-1.672 1.238ZM15.592 76.447l44.432-3.957 5.607-1.859-50.04 5.816Z" fill="#C7CDDC"/><path d="m62.321 73.291-2.922.417 5.107.346-2.185-.763Zm2.817-.747 2.129.786 2.62-1.027-4.75.241Zm14.477-14.779L81.4 58.92l.308-2.421-2.094 1.267Zm.236-4.976.089 2.5 1.672-1.238-1.761-1.262ZM65.138 72.544l-2.817.748 4.946.038-2.13-.786Zm2.674-1.056 2.074.815 2.443-1.305-4.517.49Zm10.268-17.47L78 51.462l-4.147-35.67 4.226 38.226ZM15.591 76.447 65.63 70.63l8.764-6.98-58.803 12.796ZM74.395 63.65l3.684-9.633-5.42-42.02 1.736 51.653Z" fill="#C7CDDC"/><path d="m78.895 60.181 1.81 1.098.696-2.36-2.505 1.262Zm-8.587 9.965 2.02.851 2.231-1.557-4.25.706Zm7.497-7.644 1.842 1.043 1.058-2.266-2.9 1.223Zm2.135-7.213-.325 2.476 2.094-1.267-1.77-1.209ZM67.812 71.488l-2.674 1.056 4.748-.241-2.074-.815Zm4.778-2.941 1.97.893 1.984-1.782-3.954.889Zm3.781-3.855 1.879.99 1.397-2.137-3.276 1.147Zm-1.749 2.026 1.922.94 1.706-1.976-3.628 1.036Zm-17.576 6.205 2.353.784 2.922-.416-5.275-.368Zm22.569-15.158-.72 2.416 2.506-1.262-1.786-1.154Zm-9.307 12.381-2.496 1.342 4.517-.49-2.02-.852Zm8.587-9.965-1.09 2.32 2.9-1.222-1.81-1.098Zm-6.305 8.366-2.282 1.6 4.251-.707-1.969-.893Zm5.215-6.045-1.434 2.19 3.276-1.147-1.842-1.043Zm-3.183 4.216-2.032 1.829 3.954-.89-1.922-.939ZM60.024 72.49l2.297.801 2.817-.747-5.114-.054Zm16.347-7.798-1.749 2.026 3.628-1.036-1.879-.99Zm1.708-10.674 1.86 1.271-.088-2.5-1.772 1.23ZM60.024 72.49l-2.978.433 5.275.368-2.297-.8Zm2.875-.771 2.239.825 2.674-1.056-4.913.23Zm14.837-15.167 1.879 1.213.325-2.476-2.204 1.263Zm.263-5.09.08 2.556 1.772-1.23-1.852-1.326ZM62.9 71.719l-2.875.771 5.114.054-2.24-.825Zm2.732-1.088 2.181.857 2.496-1.342-4.677.485Zm11.36-11.605 1.904 1.155.72-2.416-2.624 1.261Zm-8.808 10.225 2.125.895 2.282-1.6-4.407.705Zm7.685-7.846 1.938 1.097 1.09-2.32-3.028 1.223Zm2.211-7.387-.343 2.534 2.204-1.263-1.86-1.27ZM65.631 70.631l-2.732 1.088 4.913-.231-2.181-.857Zm4.888-3.024 2.071.94 2.032-1.829-4.103.89Zm3.876-3.956 1.976 1.041 1.434-2.19-3.41 1.149ZM72.6 65.73l2.021.988 1.75-2.026L72.6 65.73Zm5.135-9.178-.745 2.474 2.624-1.261-1.879-1.213ZM68.183 69.25l-2.552 1.38 4.677-.485-2.125-.895Z" fill="#C7CDDC"/><path d="m60.024 72.49 2.875-.77 2.732-1.089-5.607 1.86Zm16.968-13.464-1.123 2.378 3.027-1.223-1.904-1.155Zm-6.473 8.581-2.335 1.644 4.407-.705-2.072-.939Zm5.35-6.203-1.474 2.247 3.41-1.15-1.936-1.096ZM72.6 65.73l-2.082 1.877 4.104-.889-2.022-.988Zm1.794-2.08L72.6 65.73l3.77-1.038-1.976-1.041Z" fill="#C7CDDC"/><path d="m76.992 59.026.744-2.474.343-2.534-1.087 5.008Zm-2.597 4.625 2.597-4.625 1.087-5.008-3.684 9.633Zm-8.764 6.98 2.552-1.38 2.336-1.644-4.888 3.023Zm0 0 4.888-3.024 3.876-3.956-8.764 6.98Zm8.764-6.98 1.474-2.247 1.123-2.378-2.597 4.625Zm-3.876 3.956L72.6 65.73l1.794-2.08-3.876 3.957Z" fill="#C7CDDC"/><mask id="a" style="mask-type:alpha" maskUnits="userSpaceOnUse" x="0" y="5" width="86" height="74"><path d="m9.642 20.486-1.43 1.395-1.277 1.496 2.707-2.891Zm-2.707 2.891-1.112 1.581-.932 1.652 2.044-3.233Zm2.707-2.891-2.707 2.891L4.89 26.61l4.75-6.124Zm3.258-2.427-1.691 1.147-1.567 1.28 3.258-2.427ZM4.891 26.61l-.734 1.71-.52 1.75 1.254-3.46Zm11.72-10.378L12.9 18.06l-3.26 2.427 6.97-4.254Zm0 0-1.906.83-1.805.997 3.71-1.827Zm-6.97 4.254-4.75 6.124-4.27 35.292 9.02-41.416Zm-4.75 6.124-1.253 3.46L.62 61.903l4.27-35.292Zm-1.253 3.46-.287 1.782-2.73 30.05 3.017-31.831ZM58.174 5.558 16.611 16.232l-6.97 4.254 48.533-14.93Zm-4.869.803-34.7 9.23-1.995.642L53.305 6.36ZM9.642 20.486.622 61.902l1.39 7.65 7.63-49.066Zm48.532-14.93-4.869.804-36.695 9.872L58.174 5.557ZM19.911 77.993l2.697.544 2.079.263-4.776-.806Z" fill="#C7CDDC"/><path d="m.62 61.902-.05 2.07.221 1.974-.17-4.044Zm21.393 16.356 2.674.542 2.205-.02-4.88-.522Zm0 0-2.102-.264 4.776.806-2.674-.542ZM9.642 20.486 2.012 69.55l13.58 6.895-5.95-55.96ZM.622 61.902l.17 4.044 1.22 3.605-1.39-7.65Z" fill="#C7CDDC"/><path d="m24.246 78.233-2.233.025 4.879.521-2.646-.546Zm48.413-66.235-14.485-6.44L9.641 20.486l63.018-8.488ZM.79 65.947l.484 1.865.736 1.74-1.22-3.605Zm76.96-48.019 1.556 1.812-1.034-1.518-.521-.294Zm-60.65 59.5 2.812.566 2.101.264-4.913-.83ZM76.706 16.39l1.045 1.537.521.293-1.566-1.83Zm1.798 3.262 1.55 1.787-.748-1.7-.802-.087Zm-59.28 58.04 2.788.566 2.233-.026-5.02-.54ZM58.175 5.557l-2.41.274-2.46.53 4.87-.804Z" fill="#C7CDDC"/><path d="m19.224 77.693-2.125-.266 4.913.831-2.788-.565Zm58.527-59.765.753 1.725.802.087-1.555-1.812Zm1.182 3.625 1.55 1.758-.429-1.871-1.12.113ZM2.01 69.551l.978 1.595 1.208 1.431-2.185-3.026Zm13.581 6.896L72.66 11.998 9.64 20.486l5.95 55.96Z" fill="#C7CDDC"/><path d="m21.485 77.663-2.261.03 5.021.54-2.76-.57Zm57.019-58.01.43 1.9 1.12-.113-1.55-1.787Zm-2.377-3.615 1.623 1.89-1.044-1.537-.579-.353ZM14.164 76.836l2.934.591 2.126.266-5.06-.857ZM2.01 69.551l2.186 3.026 3.064 2.285-5.25-5.311ZM62.753 5.756l-2.241-.223-2.337.023 4.578.2Z" fill="#C7CDDC"/><path d="m75.072 14.48 1.055 1.558.579.353-1.634-1.91Zm1.814 3.307 1.618 1.865-.754-1.724-.864-.141Zm-52.64 60.446 2.645.546 38.918-2.934-41.564 2.388Zm-7.932-1.13 2.91.59 2.261-.03-5.171-.56ZM4.197 72.577l1.428 1.246 1.636 1.038-3.064-2.284Z" fill="#C7CDDC"/><path d="m16.313 77.103-2.149-.267 5.06.857-2.91-.59Zm59.814-61.065.759 1.749.864.141-1.623-1.89Zm-9.28-9.115-4.094-1.167-4.58-.2 8.674 1.367Z" fill="#C7CDDC"/><path d="m77.314 19.717 1.62 1.835-.43-1.9-1.19.065Zm-58.71 57.351-2.29.035 5.171.56-2.882-.595ZM2.01 69.551l5.25 5.31 8.331 1.585-13.58-6.895Zm74.876-51.764.428 1.93 1.19-.065-1.618-1.865ZM66.847 6.922l-1.973-.702-2.121-.464 4.094 1.166Z" fill="#C7CDDC"/><path d="m74.432 14.063 1.695 1.975-1.055-1.557-.64-.418ZM11.1 76.218l3.064.618 2.15.267-5.214-.885Zm62.266-63.731 1.066 1.576.64.418-1.706-1.994ZM7.26 74.862l1.83.807 2.01.55-3.84-1.357Z" fill="#C7CDDC"/><path d="m75.195 15.837 1.69 1.95-.758-1.75-.932-.2Zm-2.536-3.839-5.812-5.075-8.673-1.366 14.485 6.441ZM21.485 77.663l2.76.57 39.528-3.067-42.288 2.497Zm-8.212-1.176 3.04.616 2.29-.035-5.33-.581Zm0 0-2.173-.268 5.213.884-3.04-.616Zm61.159-62.424.763 1.774.932.2-1.695-1.974Zm4.501 7.49 4.356 33.7-2.806-31.942-1.55-1.758ZM7.26 74.862l3.84 1.357 4.492.228-8.331-1.585Zm68.363-57.064 1.692 1.919-.429-1.93-1.263.011Z" fill="#C7CDDC"/><path d="m70.233 9.02-1.59-1.163-1.796-.934 3.386 2.096ZM15.591 76.447l-2.318.04 5.33.581-3.012-.621Zm59.604-60.61.427 1.961 1.263-.011-1.69-1.95Z" fill="#C7CDDC"/><path d="m11.1 76.219 2.173.268 2.319-.04-4.492-.228Zm61.56-64.221 1.772 2.065-1.066-1.576-.707-.489Zm-.002 0L70.233 9.02l-3.386-2.096 5.811 5.075Z" fill="#C7CDDC"/><path d="m71.583 10.402 1.076 1.596.707.488-1.783-2.084Zm1.844 3.396 1.768 2.039-.763-1.774-1.005-.265Zm-9.653 61.368-39.529 3.067 41.565-2.389-2.036-.678Zm-45.17 1.902 2.881.595 40.154-3.209-43.036 2.614Z" fill="#C7CDDC"/><path d="m72.66 11.998-1.077-1.596-1.35-1.383 2.426 2.979Zm0 0 .767 1.8 1.005.265-1.773-2.065Zm4.655 7.72 4.297 34.333-2.678-32.498-1.62-1.836Zm5.974 35.535 1.6 1.147-4.405-33.09 2.805 31.943Zm-9.436-39.462 1.77 2.008-.427-1.962-1.343-.046Zm-.425-1.993.425 1.993 1.343.046-1.769-2.039Z" fill="#C7CDDC"/><path d="m73.853 15.791-.425-1.993-.769-1.8 1.194 3.793ZM61.64 74.454l-40.155 3.21 42.288-2.498-2.134-.712Zm-46.048 1.993 3.011.621 40.796-3.36-43.807 2.739Zm60.03-58.649 4.228 34.99-2.535-33.071-1.692-1.919Zm5.99 36.253 1.677 1.202-4.356-33.7 2.679 32.498ZM63.774 75.166l2.036.679 2.762-.373-4.799-.306Zm2.813-.386 1.985.692 2.656-.682-4.64-.01Zm16.807-17.131 1.607 1.097-.112-2.346-1.495 1.249Zm-16.807 17.13-2.814.387 4.799.306-1.985-.692Zm2.707-.702 1.934.713 2.515-.972-4.448.26Zm13.807-14.06 1.62 1.046.28-2.317-1.9 1.27Zm.188-4.764.105 2.396 1.495-1.25-1.6-1.146ZM59.4 73.707l-40.796 3.361 43.036-2.614-2.24-.747Zm9.895.37-2.707.703 4.64.01-1.933-.713Zm2.567-.998 1.882.74 2.342-1.24-4.224.5Zm10.567-10.755 1.642.996.651-2.257-2.293 1.261Zm-8.176 9.484 1.833.772 2.134-1.48-3.967.708Zm7.147-7.27 1.67.945 1.001-2.163-2.671 1.218Zm1.995-6.89-.293 2.369 1.9-1.271-1.607-1.097Zm-11.533 15.43-2.567 1 4.449-.26-1.882-.74Zm1.992-57.287L78 51.461l-2.376-33.663-1.77-2.007Zm2.58 54.499 1.786.81 1.896-1.696-3.681.886Zm3.605-3.666 1.703.898 1.327-2.039-3.03 1.141Zm-1.665 1.928 1.742.852 1.626-1.882-3.368 1.03Zm1.477-15.763 1.762 1.262-4.297-34.334 2.535 33.072Z" fill="#C7CDDC"/><path d="M15.592 76.447 74.395 63.65l-1.736-51.653-57.067 64.449Zm46.048-1.993 2.134.712 2.814-.386-4.948-.326ZM83.1 60.017l-.672 2.307 2.293-1.26-1.62-1.047Zm-8.849 11.79-2.39 1.272 4.223-.499-1.833-.772Z" fill="#C7CDDC"/><path d="m78.08 54.018-4.227-38.227-1.194-3.793 5.42 42.02Zm4.348 8.306-1.03 2.214 2.672-1.218-1.642-.996Zm-5.995 7.966-2.181 1.518 3.967-.709-1.785-.81Zm4.966-5.752-1.361 2.086 3.03-1.14-1.67-.946Zm-3.026 4.014-1.94 1.738 3.682-.886-1.742-.852Zm-13.867 5.502 2.081.726 2.707-.703-4.788-.023Zm15.532-7.43-1.665 1.928 3.368-1.03-1.703-.898Zm1.671-10.126 1.685 1.15-.105-2.395-1.58 1.245ZM64.506 74.054l-2.867.4 4.948.326-2.081-.726Zm2.76-.724 2.028.747 2.567-.998-4.594.25Zm14.135-14.411 1.7 1.098.293-2.368-1.993 1.27Zm.21-4.868.098 2.447 1.58-1.245-1.677-1.202ZM57.047 72.923l-41.454 3.524 43.807-2.74-2.353-.784Zm10.22.407-2.76.724 4.788.023-2.027-.747Zm2.62-1.027 1.975.776 2.39-1.271-4.365.495Zm10.82-11.024 1.722 1.045.673-2.307-2.396 1.262Zm-8.377 9.719 1.923.81 2.181-1.518-4.104.708Zm7.318-7.453 1.752.993 1.03-2.214-2.782 1.221Zm2.062-7.047-.308 2.42 1.993-1.27-1.685-1.15ZM69.886 72.303l-2.62 1.027 4.595-.251-1.975-.776Zm4.673-2.863 1.874.85 1.94-1.738-3.814.888Zm3.69-3.758 1.789.942 1.36-2.086-3.148 1.144Zm-1.705 1.976 1.829.894 1.665-1.928-3.494 1.034Zm1.455-16.196 1.852 1.327-4.228-34.99 2.376 33.663ZM59.4 73.707l2.24.747 2.867-.4-5.107-.347ZM81.401 58.92l-.696 2.36 2.396-1.262-1.7-1.098Zm-9.072 12.079-2.443 1.305 4.366-.495-1.923-.81Zm-56.737 5.448 41.454-3.524 2.978-.433-44.432 3.957Z" fill="#C7CDDC"/><path d="m80.705 61.28-1.059 2.265 2.782-1.22-1.723-1.045Zm-6.146 8.16-2.23 1.558 4.104-.708-1.874-.85Zm5.087-5.895-1.397 2.138 3.15-1.145-1.753-.992Zm-3.103 4.113L74.56 69.44l3.813-.888-1.829-.894ZM62.32 73.292l2.185.762 2.761-.724-4.946-.038Zm15.93-7.61-1.707 1.976 3.494-1.033-1.788-.942Zm1.69-10.392 1.769 1.208-.098-2.446-1.672 1.238ZM15.592 76.447l44.432-3.957 5.607-1.859-50.04 5.816Z" fill="#C7CDDC"/><path d="m62.321 73.291-2.922.417 5.107.346-2.185-.763Zm2.817-.747 2.129.786 2.62-1.027-4.75.241Zm14.477-14.779L81.4 58.92l.308-2.421-2.094 1.267Zm.236-4.976.089 2.5 1.672-1.238-1.761-1.262ZM65.138 72.544l-2.817.748 4.946.038-2.13-.786Zm2.674-1.056 2.074.815 2.443-1.305-4.517.49Zm10.268-17.47L78 51.462l-4.147-35.67 4.226 38.226ZM15.591 76.447 65.63 70.63l8.764-6.98-58.803 12.796ZM74.395 63.65l3.684-9.633-5.42-42.02 1.736 51.653Z" fill="#C7CDDC"/><path d="m78.895 60.181 1.81 1.098.696-2.36-2.505 1.262Zm-8.587 9.965 2.02.851 2.231-1.557-4.25.706Zm7.497-7.644 1.842 1.043 1.058-2.266-2.9 1.223Zm2.135-7.213-.325 2.476 2.094-1.267-1.77-1.209ZM67.812 71.488l-2.674 1.056 4.748-.241-2.074-.815Zm4.778-2.941 1.97.893 1.984-1.782-3.954.889Zm3.781-3.855 1.879.99 1.397-2.137-3.276 1.147Zm-1.749 2.026 1.922.94 1.706-1.976-3.628 1.036Zm-17.576 6.205 2.353.784 2.922-.416-5.275-.368Zm22.569-15.158-.72 2.416 2.506-1.262-1.786-1.154Zm-9.307 12.381-2.496 1.342 4.517-.49-2.02-.852Zm8.587-9.965-1.09 2.32 2.9-1.222-1.81-1.098Zm-6.305 8.366-2.282 1.6 4.251-.707-1.969-.893Zm5.215-6.045-1.434 2.19 3.276-1.147-1.842-1.043Zm-3.183 4.216-2.032 1.829 3.954-.89-1.922-.939ZM60.024 72.49l2.297.801 2.817-.747-5.114-.054Zm16.347-7.798-1.749 2.026 3.628-1.036-1.879-.99Zm1.708-10.674 1.86 1.271-.088-2.5-1.772 1.23ZM60.024 72.49l-2.978.433 5.275.368-2.297-.8Zm2.875-.771 2.239.825 2.674-1.056-4.913.23Zm14.837-15.167 1.879 1.213.325-2.476-2.204 1.263Zm.263-5.09.08 2.556 1.772-1.23-1.852-1.326ZM62.9 71.719l-2.875.771 5.114.054-2.24-.825Zm2.732-1.088 2.181.857 2.496-1.342-4.677.485Zm11.36-11.605 1.904 1.155.72-2.416-2.624 1.261Zm-8.808 10.225 2.125.895 2.282-1.6-4.407.705Zm7.685-7.846 1.938 1.097 1.09-2.32-3.028 1.223Zm2.211-7.387-.343 2.534 2.204-1.263-1.86-1.27ZM65.631 70.631l-2.732 1.088 4.913-.231-2.181-.857Zm4.888-3.024 2.071.94 2.032-1.829-4.103.89Zm3.876-3.956 1.976 1.041 1.434-2.19-3.41 1.149ZM72.6 65.73l2.021.988 1.75-2.026L72.6 65.73Zm5.135-9.178-.745 2.474 2.624-1.261-1.879-1.213ZM68.183 69.25l-2.552 1.38 4.677-.485-2.125-.895Z" fill="#C7CDDC"/><path d="m60.024 72.49 2.875-.77 2.732-1.089-5.607 1.86Zm16.968-13.464-1.123 2.378 3.027-1.223-1.904-1.155Zm-6.473 8.581-2.335 1.644 4.407-.705-2.072-.939Zm5.35-6.203-1.474 2.247 3.41-1.15-1.936-1.096ZM72.6 65.73l-2.082 1.877 4.104-.889-2.022-.988Zm1.794-2.08L72.6 65.73l3.77-1.038-1.976-1.041Z" fill="#C7CDDC"/><path d="m76.992 59.026.744-2.474.343-2.534-1.087 5.008Zm-2.597 4.625 2.597-4.625 1.087-5.008-3.684 9.633Zm-8.764 6.98 2.552-1.38 2.336-1.644-4.888 3.023Zm0 0 4.888-3.024 3.876-3.956-8.764 6.98Zm8.764-6.98 1.474-2.247 1.123-2.378-2.597 4.625Zm-3.876 3.956L72.6 65.73l1.794-2.08-3.876 3.957Z" fill="#C7CDDC"/></mask><g mask="url(#a)"><ellipse cx="44.093" cy="12.036" rx="44.093" ry="12.036" transform="matrix(.99633 -.08562 .12883 .99167 -6.906 74.438)" fill="url(#b)" fill-opacity=".5"/><ellipse cx="87.561" cy="29.577" rx="14.952" ry="54.998" fill="url(#c)"/></g><path d="M3.185 30.612c.896-6.226 5.773-12.156 13.016-14.3l34.252-9.418c13.455-3.984 24.132.26 23.855 11.905l3.738 34.823c-.188 7.924-8.28 17.575-17.877 18.953l-40.23 3.71C6.49 78.214-1.02 71.008.569 59.977l2.616-29.366Z" fill="url(#d)"/><path d="m49.413 12.188.009-.003.01-.002c5.753-1.71 10.76-1.604 14.237.028 3.394 1.592 5.474 4.7 5.362 9.45l-.002.064.007.064 3.263 30.5c-.096 3.161-1.764 6.772-4.476 9.77-2.716 3.001-6.378 5.273-10.29 5.843l-35.169 3.254-.025.002-.024.004c-5.7.82-9.959-.325-12.612-2.655-2.635-2.311-3.872-5.95-3.213-10.538l.003-.027.003-.026L8.78 32.167c.737-5.055 4.711-9.94 10.677-11.716l29.955-8.263Z" fill="url(#e)" fill-opacity=".28" stroke="url(#f)" stroke-width="1.977"/><path d="m23.418 41.66 2.79 1.055.16.053-2.95-1.107Zm.162.054 2.789 1.054.172.03-2.961-1.084Zm.174.031 2.787 1.054.184.008-2.97-1.062Zm.186.008 2.785 1.054.193-.016-2.978-1.038Z" fill="#BF231B"/><path d="m18.33 21.186-.126.147-.109.157.236-.304Zm.297-.259-.155.123-.142.136.297-.259Zm-.296.259-.236.304-.16.335.396-.64Zm-.236.304-.09.165-.07.17.16-.335Zm.876-.761-.344.198-.296.259.64-.457Zm0 0-.64.457-.396.64 1.036-1.097Zm0 0-.177.09-.167.108.344-.198Zm-1.036 1.096-.047.175-.024.177.071-.352Zm1.413-1.22-.192.052-.185.072.377-.124Z" fill="#00AEF6"/><path d="m23.58 41.714-.162-.053 2.95 1.107-2.788-1.054Zm.174.031-.174-.031 2.962 1.085-2.788-1.054Zm.186.008-.186-.008 2.971 1.062-2.785-1.054Zm.194-.017-.194.017 2.978 1.038-2.784-1.055Z" fill="#BF231B"/><path d="m33.455 5.182-.144.138-.127.148.27-.286Zm-.27.286-.11.157-.088.163.197-.32Zm.27-.286-.27.286-.198.32.468-.606Zm.33-.238-.172.112-.158.126.33-.238Zm-.798.844-.067.168-.043.171.11-.339Zm1.172-1.019-.375.175-.33.238.705-.413Zm0 0-.192.079-.183.096.375-.175Z" fill="#00AEF6"/><path d="m59.08 4.227 2.191 1.734-.118-.106-2.072-1.628Zm.098.124 2.19 1.733-.097-.123-2.093-1.61ZM24.135 41.736l2.783 1.055 13.32-1.963-16.103.908ZM59.252 4.491l2.19 1.731-.074-.138-2.116-1.593Zm.049.154 2.19 1.73-.05-.153-2.14-1.577Zm.02.167 2.191 1.727-.022-.165-2.168-1.562Z" fill="#BF231B"/><path d="M32.553 17.874 18.97 20.729l-1.035 1.096 14.618-3.951Zm0 0-13.206 2.731-.377.123 13.583-2.854Z" fill="#00AEF6"/><path d="m20.527 40.568 2.892 1.093.162.053-3.054-1.146ZM58.962 4.12l.12.107 2.072 1.628-2.192-1.735Z" fill="#BF231B"/><path d="m17.935 21.826-.07.351-.985 16.361 1.055-16.712Z" fill="#00AEF6"/><path d="m20.69 40.622 2.89 1.092.175.031-3.065-1.123ZM59.081 4.227l.097.124 2.093 1.61-2.19-1.734ZM20.866 40.653l2.89 1.092.184.008-3.074-1.1ZM59.178 4.351l.074.14 2.116 1.593-2.19-1.733Zm-38.124 36.31 2.887 1.092.194-.017-3.082-1.075ZM59.252 4.49l.049.154 2.141 1.577-2.19-1.731Z" fill="#BF231B"/><path d="m33.454 5.182-.468.606-.432 12.086.9-12.692Zm-.468.606-.11.339-.322 11.747.432-12.086Z" fill="#00AEF6"/><path d="m59.3 4.645.022.167 2.169 1.562-2.19-1.73Z" fill="#BF231B"/><path d="m32.876 6.127-.018.172-.304 11.575.322-11.747Z" fill="#00AEF6"/><path d="m20.69 40.622-.163-.054 3.054 1.146-2.89-1.092Zm.176.031-.175-.031 3.064 1.123-2.889-1.092Zm.188.007-.188-.007 3.075 1.1-2.887-1.093Zm.196-.018-.196.018 3.081 1.076-2.885-1.094Z" fill="#BF231B"/><path d="M53.47.202 34.158 4.77l-.704.413L53.47.202Zm-.43.057L34.359 4.71l-.2.059 18.88-4.51Z" fill="#00AEF6"/><path d="m37.607 39.701-13.473 2.035 16.104-.907-2.63-1.128ZM59.321 4.812l.46 11.718 1.73-9.99-2.19-1.728ZM56.809 2.43l2.27 1.798-.118-.107-2.152-1.69Zm.098.125 2.27 1.797-.097-.124-2.173-1.673ZM21.248 40.643l2.885 1.093 13.473-2.035-16.358.942Z" fill="#BF231B"/><path d="m17.864 22.177-.986 16.175.002.186.984-16.361Z" fill="#00AEF6"/><path d="m56.981 2.696 2.271 1.795-.074-.14-2.197-1.655Z" fill="#BF231B"/><path d="M17.935 21.826 16.88 38.538l.25.614.805-17.326Z" fill="#00AEF6"/><path d="m57.03 2.85 2.271 1.794-.048-.154-2.223-1.64Zm.02.17 2.272 1.792-.02-.168-2.251-1.623Zm2.733 13.51 2.245 1.561-.515-11.552-1.73 9.99Z" fill="#BF231B"/><path d="m53.47.202-20.016 4.98-.9 12.692L53.469.202Z" fill="#00AEF6"/><path d="m17.528 39.435 3 1.133.162.054-3.162-1.187ZM56.69 2.32l.12.109 2.152 1.69L56.69 2.32ZM17.693 39.49l2.997 1.132.176.031-3.173-1.164ZM56.81 2.428l.097.125 2.174 1.673-2.272-1.798ZM17.87 39.52l2.996 1.133.187.007-3.183-1.14ZM56.907 2.554l.074.141 2.197 1.656-2.27-1.797ZM18.06 39.527l2.994 1.133.197-.018-3.191-1.115ZM56.981 2.695l.049.156 2.222 1.64-2.27-1.796Zm.049.156.02.17 2.25 1.624-2.27-1.794Z" fill="#BF231B"/><path d="m53.47.202-.43.057-18.882 4.51L53.47.202Z" fill="#00AEF6"/><path d="m17.693 39.49-.165-.055 3.162 1.187-2.997-1.133Zm.177.03-.177-.03 3.173 1.163-2.996-1.133Zm.189.007-.189-.007 3.183 1.14-2.994-1.133Z" fill="#BF231B"/><path d="m32.553 17.874-14.618 3.951 14.107 15.491.511-19.442Z" fill="#00AEF6"/><path d="m18.257 39.508-.198.02 3.19 1.115-2.992-1.135Z" fill="#BF231B"/><path d="m16.88 38.538.028.174.052.161-.08-.335Zm0 0 .08.336.17.277-.25-.613Zm.08.336.074.146.096.131-.17-.278Zm.975-17.048L17.13 39.15l14.913-1.834-14.108-15.491ZM17.13 39.15l.116.114.133.096-.249-.21Zm0 0 .25.21.313.129-.563-.339Zm.25.21.149.075.164.054-.314-.13Z" fill="#00AEF6"/><path d="M34.877 38.531 21.25 40.642l16.358-.941-2.73-1.17ZM57.05 3.021l.402 11.888 1.87-10.097-2.272-1.791ZM54.452.563l2.357 1.866-.12-.109L54.452.563Z" fill="#BF231B"/><path d="m17.693 39.49.178.03.189.007-.367-.038Z" fill="#00AEF6"/><path d="m54.551.69 2.356 1.864-.097-.125-2.26-1.74ZM18.258 39.508l2.992 1.134 13.628-2.11-16.62.976ZM54.625.832l2.357 1.863-.075-.14L54.626.831Zm.048.158 2.357 1.861-.048-.156L54.673.99Zm.02.172 2.357 1.859-.02-.17-2.337-1.689Zm2.76 13.747 2.33 1.62-.461-11.717-1.87 10.097ZM54.332.454l.12.109L56.69 2.32 54.333.454Zm.12.109.098.127 2.259 1.739L54.453.563Zm.098.127.074.142 2.282 1.722L54.551.69Zm.074.142.048.158 2.309 1.705L54.625.832Zm.048.158.02.172 2.337 1.69L54.673.99Z" fill="#BF231B"/><path d="m53.47.202-.212.016-.219.04.43-.056Zm.389.038L53.67.21l-.2-.008.389.038Zm.333.123L53.859.24l-.39-.038.723.16Zm0 0L54.033.29 53.86.24l.333.123ZM17.13 39.15l.563.338 14.35-2.172L17.13 39.15ZM54.625.832l-.433-.47-.723-.16 1.156.63Zm-.172-.269-.12-.11-.141-.09.26.2ZM17.693 39.49l.366.038 13.983-2.21-14.35 2.172ZM54.625.832l-.172-.269-.261-.2.433.47ZM18.06 39.527l.199-.019 13.784-2.192-13.983 2.211ZM54.625.832 54.551.69l-.098-.127.172.27Zm.068.33-.02-.172-.048-.158.068.33Zm.339 12.063L53.468.202 32.554 17.874l22.477-4.649Z" fill="#00AEF6"/><path d="m32.043 37.316-13.785 2.192 16.62-.977-2.835-1.215Zm22.65-36.154.339 12.063L57.05 3.02l-2.357-1.859Zm-16.305 52.8 2.707.897.194.04-2.901-.938Zm.196.04 2.705.898.205.016-2.91-.914Zm.207.016 2.703.898.215-.011-2.918-.887Zm16.24-40.793 2.421 1.684L57.05 3.02l-2.018 10.204Z" fill="#BF231B"/><path d="M55.032 13.225 54.626.832 53.47.202l1.562 13.023Zm0 0-22.478 4.65-.511 19.441 22.989-24.09Zm0 0-.339-12.063-.067-.33.406 12.393Z" fill="#00AEF6"/><path d="m38.584 54.002-.197-.04 2.902.938-2.705-.898Zm.207.016-.207-.016 2.91.914-2.703-.898Zm.217-.011-.217.011 2.917.887-2.7-.898Zm37.677-40.113 2.011 1.674-.137-.12-1.874-1.554Zm.115.139 2.01 1.672-.114-.137-1.896-1.535Zm.09.155 2.01 1.67-.09-.153-1.92-1.517Zm.061.17 2.01 1.669-.061-.168-1.949-1.5Zm.032.185 2.01 1.666-.032-.182-1.978-1.484ZM39.008 54.007l2.7.898 20.104-2.268-22.804 1.37Zm37.538-40.235.139.122 1.874 1.554-2.013-1.676ZM35.574 53.03l2.813.932.197.041-3.01-.973Zm41.11-39.135.116.139 1.896 1.535-2.011-1.674ZM35.774 53.07l2.81.932.208.016-3.018-.948ZM76.8 14.033l.09.155 1.92 1.517-2.01-1.672ZM35.983 53.085l2.808.933.217-.011-3.026-.922ZM76.89 14.188l.061.17 1.949 1.5-2.01-1.67Zm.061.17.032.185 1.978 1.484-2.01-1.668ZM35.773 53.07l-.199-.041 3.01.973-2.811-.932Zm.21.015-.21-.015 3.018.948-2.808-.933Zm.22-.012-.22.012 3.025.922-2.806-.934Zm24.354-16.838 2.334 1.256 15.878-2.34-18.212 1.084Zm14.036-24.082 2.092 1.74-.14-.12-1.952-1.62Zm.116.141 2.09 1.739-.114-.14-1.976-1.599Zm.09.157 2.09 1.737-.09-.155-2-1.582Zm.062.173 2.09 1.735-.061-.17-2.029-1.565Zm.031.188 2.09 1.731-.03-.184-2.06-1.547Zm2.09 1.731 1.419 17.472.592-15.806-2.01-1.666Z" fill="#BF231B"/><path d="m32.043 37.317-.354 13.449.048.4.306-13.85Z" fill="#00AEF6"/><path d="m60.557 36.236.536 13.648 1.798-12.392-2.334-1.256ZM36.202 53.074l2.806.933 20.376-2.358-23.182 1.425Z" fill="#BF231B"/><path d="m32.043 37.317-.307 13.85.402.625-.095-14.475Zm0 0 23.56-3.746-.571-20.345-22.99 24.091Z" fill="#00AEF6"/><path d="m74.453 12.03.14.123 1.953 1.62-2.093-1.742ZM32.648 52.06l2.926.97.198.041-3.124-1.011Zm41.945-39.906.116.141 1.975 1.6-2.091-1.74ZM32.849 52.1l2.923.97.21.016-3.133-.986Zm41.86-39.806.09.158 2 1.581-2.09-1.739ZM33.061 52.115l2.921.97.22-.012-3.14-.958Zm28.032-2.231 2.396 1.024-.598-13.417-1.798 12.393Zm-1.71 1.765-20.375 2.358 22.804-1.37-2.428-.988ZM74.8 12.452l.062.172 2.028 1.564-2.09-1.736Zm.062.172.031.188 2.059 1.547-2.09-1.735Zm3.54 19.391 2.065 1.387-1.473-17.193-.592 15.806ZM32.849 52.1l-.2-.041 3.123 1.011-2.923-.97Z" fill="#BF231B"/><path d="m32.043 37.316.095 14.476L55.603 33.57l-23.56 3.746Z" fill="#00AEF6"/><path d="m33.062 52.115-.212-.015 3.133.985-2.921-.97Z" fill="#BF231B"/><path d="m31.69 50.766.009.206.038.194-.047-.4Z" fill="#00AEF6"/><path d="m33.284 52.102-.222.013 3.14.958-2.918-.97Z" fill="#BF231B"/><path d="m31.736 51.166.065.18.09.167-.155-.347Zm0 0 .155.347.247.28-.402-.627ZM71.05 9.926l-.247.038-15.77 3.261 16.017-3.3ZM31.89 51.513l.113.149.134.13-.247-.28ZM71.514 9.928l-.465-.003-16.017 3.3 16.482-3.297Z" fill="#00AEF6"/><path d="m59.384 51.648 2.428.99.235-.042-2.663-.947Zm.239-.042 2.424.99.225-.066-2.65-.924ZM76.67 33.802l-16.113 2.433 18.212-1.083-2.099-1.35ZM61.085 50.097l2.397 1.02.007-.21-2.404-.81Z" fill="#BF231B"/><path d="m32.138 51.792.153.111.171.09-.324-.201Z" fill="#00AEF6"/><path d="m59.852 51.538 2.42.992.213-.09-2.633-.902Z" fill="#BF231B"/><path d="m72.276 10.218-.761-.289-16.483 3.296 17.244-3.007Z" fill="#00AEF6"/><path d="m61.046 50.305 2.398 1.017.038-.205-2.436-.812Zm-.98 1.141 2.418.994.198-.111-2.616-.883Zm.911-.94 2.4 1.013.067-.197-2.467-.816Zm-.71.826 2.415.996.18-.13-2.595-.866Z" fill="#BF231B"/><path d="m32.138 51.792.324.2.387.108-.711-.308Z" fill="#00AEF6"/><path d="m60.883 50.698 2.402 1.01.094-.19-2.496-.82Zm-.43.5 2.41 1 .163-.15-2.573-.85Zm.309-.32 2.405 1.007.118-.178-2.523-.828ZM58.13 34.93l2.427 1.306 16.114-2.433L58.13 34.93Zm2.488 16.117 2.408 1.003.141-.164-2.55-.839Z" fill="#BF231B"/><path d="m32.462 51.992.187.066.2.042-.387-.108Z" fill="#00AEF6"/><path d="m72.417 10.342 2.176 1.811-.14-.123-2.036-1.688Zm.117.143 2.175 1.809-.116-.14-2.059-1.67Z" fill="#BF231B"/><path d="m32.85 52.1.212.015.222-.013-.434-.002Z" fill="#00AEF6"/><path d="m72.625 10.645 2.175 1.807-.09-.158-2.085-1.65Zm.062.175 2.175 1.805-.062-.173-2.113-1.632Zm.03.19 2.176 1.802-.031-.187-2.144-1.615Zm2.176 1.802 1.357 17.76.733-16.028-2.09-1.732Zm1.778 20.99 2.098 1.35.246-.05-2.344-1.3Zm.25-.051 2.094 1.351.234-.074-2.329-1.277ZM58.13 34.93l.47 13.888 1.957-12.582-2.427-1.306Zm1.493 16.677-.238.042 2.663.948-2.425-.99Zm18.778-19.385 2.067 1.383-.001-.203-2.066-1.18Zm-1.243 1.452 2.09 1.354.22-.097-2.31-1.257Zm1.21-1.249 2.067 1.38.032-.2-2.1-1.18Zm-17.274 17.46-.008.212 2.404.811-2.396-1.024Zm-1.242 1.654-.229.068 2.65.924-2.421-.992ZM77.38 33.575l2.087 1.356.203-.117-2.29-1.239ZM33.284 52.103l2.919.97 20.653-2.453-23.572 1.483Zm45.02-19.48L80.372 34l.062-.195-2.132-1.18Zm-.716.832 2.084 1.36.185-.136-2.27-1.224ZM61.086 50.097l-.04.208 2.437.813-2.397-1.02Zm-1.019 1.35-.215.092 2.633.902-2.418-.994ZM78.21 32.813l2.071 1.372.092-.186-2.163-1.186Zm-.434.504 2.08 1.362.165-.151-2.245-1.21Zm.313-.323 2.075 1.369.117-.178-2.192-1.191Zm-.145.169 2.077 1.365.143-.165-2.22-1.2ZM61.047 50.305l-.069.202 2.467.815-2.398-1.017Zm-.779 1.028-.2.114 2.615.882-2.415-.996Zm.71-.826-.096.192 2.497.82-2.4-1.012Zm-.526.692-.184.134 2.596.865-2.412-1Zm.43-.5-.12.18 2.523.829-2.402-1.01Zm-.264.348-.166.152 2.574.85-2.409-1.002Zm.144-.168-.145.168 2.55.838-2.405-1.006Zm11.514-40.66.141.123 2.037 1.689-2.178-1.813Zm.141.123.118.143 2.059 1.669-2.177-1.812Zm.118.143.09.16 2.085 1.65-2.175-1.81ZM58.599 48.818l2.495 1.066-.537-13.648L58.6 48.818Zm-1.743 1.802-20.653 2.454 23.181-1.425-2.528-1.03Zm15.77-39.975.061.175 2.113 1.632-2.175-1.807Zm.061.175.03.19 2.145 1.615-2.175-1.805Z" fill="#BF231B"/><path d="m71.513 9.929-.227-.015-.238.012.465.003Z" fill="#00AEF6"/><path d="m76.92 33.75-.25.053 2.344 1.3-2.095-1.352Z" fill="#BF231B"/><path d="m71.93 10.03-.2-.062-.215-.039.415.1Z" fill="#00AEF6"/><path d="m76.25 30.57 2.151 1.445-1.418-17.472-.733 16.028Zm2.151 1.445v.206l2.066 1.18-2.066-1.386Zm-1.244 1.659-.237.076 2.328 1.277-2.09-1.353Zm1.244-1.453-.034.204 2.1 1.18-2.066-1.384Zm-1.02 1.353-.224.1 2.311 1.257-2.087-1.357Z" fill="#BF231B"/><path d="m72.276 10.218-.346-.188-.415-.101.761.29Z" fill="#00AEF6"/><path d="m78.367 32.425-.065.198 2.132 1.181-2.067-1.379Zm-.78 1.03-.207.12 2.29 1.24-2.083-1.36Zm.715-.832-.093.19 2.163 1.185-2.07-1.375Zm-.527.694-.188.138 2.269 1.224-2.08-1.362Zm.434-.504-.12.18 2.191 1.192-2.071-1.372Zm-.266.35-.168.154 2.245 1.21-2.077-1.365Zm.145-.17-.145.17 2.22 1.2-2.075-1.37Z" fill="#BF231B"/><path d="m72.275 10.218-.163-.104-.183-.084.346.188Zm.26.267-.118-.143-.142-.124.26.267Zm.152.335-.153-.335-.259-.267.412.602Zm0 0-.062-.176-.09-.16.152.336Zm1.282 18.67-1.694-19.272-17.243 3.007 18.937 16.266ZM32.138 51.793l.711.308 21.619-2.598-22.33 2.29Z" fill="#00AEF6"/><path d="m56.856 50.62 2.529 1.029.239-.042-2.768-.987Z" fill="#BF231B"/><path d="m55.603 33.57 18.366-4.079-18.937-16.265.571 20.345Z" fill="#00AEF6"/><path d="m57.098 50.576 2.524 1.03.228-.068-2.752-.962Zm17.386-18.18-16.355 2.533 18.54-1.127-2.185-1.406Z" fill="#BF231B"/><path d="m32.85 52.1.434.002 21.184-2.6L32.85 52.1Z" fill="#00AEF6"/><path d="m58.59 49.035 2.495 1.062.008-.213-2.503-.85Zm-1.26 1.471 2.521 1.033.216-.092-2.737-.94Zm1.219-1.26 2.497 1.06.04-.209-2.537-.85Zm-1 1.166 2.518 1.035.2-.114-2.718-.921Zm.93-.96 2.499 1.055.068-.202-2.568-.853Zm-.725.843 2.514 1.038.184-.134-2.698-.904Zm.626-.647 2.502 1.05.096-.191-2.598-.86Zm-.439.51 2.51 1.04.166-.151-2.676-.889Zm.316-.326 2.504 1.047.121-.18-2.625-.867Zm-2.654-16.261 2.526 1.359 16.355-2.534-18.881 1.175Zm2.506 16.432 2.508 1.044.144-.167-2.652-.877ZM72.718 11.01l1.29 18.056.885-16.254-2.175-1.802Zm1.767 21.386 2.186 1.406.25-.051-2.436-1.355Z" fill="#BF231B"/><path d="m32.138 51.792 23.187-2.719.278-15.503-23.465 18.222Z" fill="#00AEF6"/><path d="m74.738 32.342 2.182 1.408.238-.076-2.42-1.332ZM55.603 33.57 56 47.706l2.13-12.777-2.527-1.359ZM57.1 50.576l-.243.043 2.767.987-2.524-1.03Zm19.15-19.795 2.152 1.44v-.206L76.25 30.78Zm-1.27 1.483 2.179 1.41.223-.1-2.401-1.31Zm1.235-1.276 2.154 1.437.033-.204-2.187-1.233ZM58.6 48.818l-.009.216 2.504.85-2.495-1.067Zm-1.268 1.688-.232.07 2.753.962-2.521-1.032Zm17.876-18.344 2.174 1.413.207-.12-2.381-1.293Zm.94-.972 2.156 1.433.065-.198-2.22-1.235Zm-.73.85 2.17 1.415.19-.139-2.36-1.277ZM58.59 49.033l-.04.212 2.536.85-2.496-1.062Zm-1.04 1.377-.22.095 2.737.94-2.517-1.035Zm18.502-19.027 2.158 1.429.093-.19-2.251-1.24Zm-.443.514 2.167 1.418.168-.154-2.335-1.264Zm.32-.33 2.16 1.425.12-.18-2.28-1.245Zm-.148.172 2.163 1.422.145-.169-2.308-1.253ZM58.549 49.246l-.07.205 2.568.854-2.498-1.059Zm-.795 1.048-.204.117 2.718.921-2.514-1.038Zm.725-.843-.098.196 2.597.859-2.5-1.055Zm-.537.706-.188.138 2.698.903-2.51-1.04Zm.439-.51-.124.185 2.626.866-2.502-1.05Zm-.271.355-.168.155 2.676.89-2.508-1.044Zm.147-.17-.147.17 2.652.877-2.505-1.047ZM56 47.706l2.6 1.111-.47-13.888L56 47.706Zm-1.778 1.84-20.938 2.556 23.572-1.483-2.634-1.072Z" fill="#BF231B"/><path d="M73.968 29.491 72.687 10.82l-.412-.602 1.693 19.273Zm.04-.425-1.29-18.056-.031-.19 1.32 18.246Z" fill="#00AEF6"/><path d="m74.739 32.342-.254.054 2.435 1.354-2.181-1.408Zm-.731-3.276 2.242 1.505-1.357-17.76-.885 16.255Zm2.242 1.505-.001.21 2.153 1.234-2.152-1.444Zm-1.27 1.693-.242.078 2.42 1.332-2.178-1.41Zm1.269-1.483-.035.207 2.187 1.233-2.152-1.44Zm-1.042 1.38-.227.103 2.4 1.31-2.173-1.412Zm1.007-1.173-.066.202 2.22 1.235-2.154-1.437Zm-.796 1.051-.211.123 2.38 1.293-2.17-1.416Zm.73-.85-.096.195 2.251 1.239-2.155-1.433Zm-.538.709-.192.141 2.358 1.277-2.166-1.418Zm.442-.514-.123.184 2.28 1.245-2.157-1.43Zm-.271.356-.172.158 2.335 1.264-2.163-1.422Zm.148-.172-.148.172 2.308 1.253-2.16-1.425Z" fill="#BF231B"/><path d="m32.138 51.792 22.33-2.29.857-.429-23.187 2.719Zm1.146.31 20.938-2.556.246-.044-21.184 2.6Z" fill="#00AEF6"/><path d="m54.222 49.547 2.634 1.073.243-.044-2.877-1.029Zm.246-.045 2.63 1.074.233-.07-2.863-1.004Zm17.738-18.571-16.603 2.64 18.882-1.175-2.279-1.465ZM55.99 47.928l2.601 1.107.01-.217-2.61-.89Zm-1.286 1.502 2.628 1.076.219-.094-2.847-.982Zm1.243-1.286 2.603 1.103.041-.212-2.644-.891Zm-1.02 1.19 2.624 1.078.204-.117-2.828-.962Zm.948-.981 2.605 1.099.07-.205-2.675-.894Zm-.74.86 2.62 1.082.188-.137-2.808-.944Zm.64-.66 2.606 1.095.099-.196-2.706-.9Zm-.449.52 2.617 1.085.168-.155-2.785-.93Zm.322-.332 2.61 1.091.123-.184-2.733-.907Zm-.15.174 2.613 1.088.147-.17-2.76-.918Z" fill="#BF231B"/><path d="m55.988 47.927.01-.22-.396-14.137.386 14.357Zm-.115.425.115-.425-.386-14.357.27 14.782Zm-.549.721.549-.72-.271-14.783-.278 15.503Z" fill="#00AEF6"/><path d="m72.206 30.93 2.278 1.466.254-.053-2.532-1.412Z" fill="#BF231B"/><path d="m73.968 29.49.04-.424-1.322-18.247 1.282 18.671Z" fill="#00AEF6"/><path d="m72.464 30.875 2.274 1.468.242-.08-2.516-1.388ZM54.468 49.502l-.246.045 2.877 1.029-2.631-1.074ZM74.005 29.28l2.244 1.501.001-.21-2.245-1.291Zm-1.296 1.514 2.27 1.47.228-.102-2.498-1.368Zm1.26-1.303 2.245 1.497.035-.207-2.28-1.29Zm-17.97 18.215-.01.221 2.61.89-2.6-1.11Zm-1.296 1.724-.235.072 2.863 1.004-2.628-1.076ZM72.94 30.69l2.267 1.472.21-.123-2.477-1.35Zm.96-.994 2.247 1.494.067-.202-2.314-1.292Zm-.745.868 2.262 1.475.192-.14-2.454-1.335Z" fill="#BF231B"/><path d="m55.602 33.57 16.604-2.64.503-.136-17.107 2.777Z" fill="#00AEF6"/><path d="m55.989 47.927-.043.216 2.644.891-2.601-1.107Zm-1.063 1.406-.223.097 2.846.981-2.623-1.078Zm18.876-19.439 2.25 1.49.095-.194-2.345-1.296Zm-.452.525 2.259 1.48.171-.159-2.43-1.32Zm.326-.337 2.252 1.486.123-.184-2.375-1.302Zm-.151.176 2.255 1.482.148-.172-2.403-1.31ZM55.946 48.143l-.072.21 2.675.893-2.603-1.103Zm-.812 1.07-.208.12 2.828.962-2.62-1.081Z" fill="#BF231B"/><path d="m55.602 33.571 17.107-2.776 1.26-1.304-18.366 4.08Z" fill="#00AEF6"/><path d="m55.873 48.353-.1.2 2.705.899-2.605-1.1Zm-.548.72-.191.14 2.807.945-2.616-1.084Zm.448-.52-.127.188 2.734.907-2.607-1.096Zm-.277.362-.171.159 2.784.929-2.613-1.088Zm.15-.174-.15.174 2.76.917-2.61-1.091Zm16.818-17.866-.258.056 2.532 1.412-2.274-1.468Zm1.543-1.809-.002.214 2.245 1.291-2.243-1.505Zm-1.298 1.728-.245.081 2.515 1.39-2.27-1.47Zm1.296-1.514-.037.211 2.28 1.29-2.243-1.5Zm-1.065 1.41-.231.104 2.497 1.368-2.266-1.472Z" fill="#BF231B"/><path d="m54.468 49.502.235-.072.223-.097-.458.169Z" fill="#00AEF6"/><path d="m73.969 29.491-.069.206 2.314 1.292-2.245-1.498Zm-.814 1.073-.215.126 2.477 1.35-2.262-1.476Z" fill="#BF231B"/><path d="m54.468 49.502.458-.17.399-.259-.857.428Z" fill="#00AEF6"/><path d="m73.9 29.696-.098.198 2.346 1.296-2.247-1.494Zm-.55.723-.195.145 2.455 1.334-2.26-1.479Z" fill="#BF231B"/><path d="m55.873 48.353.073-.21.042-.215-.115.425Z" fill="#00AEF6"/><path d="m73.802 29.894-.126.188 2.376 1.302-2.25-1.49Zm-.277.364-.174.161 2.43 1.321-2.256-1.482Zm.151-.176-.15.176 2.403 1.31-2.253-1.486Z" fill="#BF231B"/><path d="m54.926 49.333.208-.12.19-.14-.398.26Zm.399-.26.321-.332.227-.388-.548.72Zm.321-.332.127-.188.1-.2-.227.388Zm-.321.333.171-.159.15-.174-.321.333Zm16.88-18.143.258-.056.246-.08-.503.136Zm1.763-1.44.037-.21.002-.215-.039.425Zm-1.26 1.303.232-.104.214-.126-.445.23Zm0 0 .817-.536.443-.767-1.26 1.303Zm0 0 .446-.23.37-.306-.815.536Zm1.094-.9.098-.197.068-.206-.166.403Zm-.278.364.278-.364.166-.403-.444.767Zm-.37.306.196-.144.175-.162-.37.306Zm.37-.306.152-.176.126-.188-.278.364Z" fill="#00AEF6"/><mask id="i" style="mask-type:alpha" maskUnits="userSpaceOnUse" x="0" y="5" width="79" height="72"><path d="M3.185 30.612c.896-6.226 5.773-12.156 13.016-14.3l34.252-9.418c13.455-3.984 24.132.26 23.855 11.905l3.738 34.823c-.188 7.924-8.28 17.575-17.877 18.953l-40.23 3.71C6.49 78.214-1.02 71.008.569 59.977l2.616-29.366Z" fill="url(#g)"/></mask><g filter="url(#h)" mask="url(#i)"><path d="m23.418 41.66 2.79 1.055.16.052-2.95-1.106Zm.162.054 2.789 1.053.172.032-2.961-1.085Zm.174.031 2.787 1.054.184.008-2.97-1.062Zm.186.008 2.785 1.054.193-.016-2.978-1.038Z" fill="#BF231B"/><path d="m18.33 21.186-.126.147-.109.157.236-.304Zm.297-.26-.155.124-.142.136.297-.26Zm-.296.26-.236.304-.16.335.396-.64Zm-.236.304-.09.165-.07.17.16-.335Zm.876-.761-.344.198-.296.259.64-.457Zm0 0-.64.457-.396.64 1.036-1.098Zm0 0-.177.09-.167.108.344-.198Zm-1.036 1.096-.047.175-.024.177.071-.352Zm1.413-1.22-.192.052-.185.072.377-.124Z" fill="#00AEF6"/><path d="m23.58 41.714-.162-.053 2.95 1.106-2.788-1.053Zm.174.031-.174-.031 2.962 1.085-2.788-1.054Zm.186.008-.186-.008 2.971 1.062-2.785-1.054Zm.194-.017-.194.017 2.978 1.038-2.784-1.055Z" fill="#BF231B"/><path d="m33.455 5.182-.144.138-.127.148.27-.286Zm-.27.286-.11.157-.088.163.197-.32Zm.27-.286-.27.286-.198.32.468-.606Zm.33-.238-.172.112-.158.126.33-.238Zm-.798.844-.067.168-.043.171.11-.339Zm1.172-1.02-.375.176-.33.238.705-.413Zm0 0-.192.08-.183.096.375-.175Z" fill="#00AEF6"/><path d="m59.08 4.227 2.191 1.734-.118-.106-2.072-1.628Zm.098.124 2.19 1.733-.097-.123-2.093-1.61ZM24.135 41.736l2.783 1.055 13.32-1.963-16.103.908ZM59.252 4.49l2.19 1.731-.074-.138-2.116-1.593Zm.049.154 2.19 1.73-.05-.153-2.14-1.577Zm.02.167 2.191 1.727-.022-.165-2.168-1.562Z" fill="#BF231B"/><path d="M32.553 17.874 18.97 20.728l-1.035 1.097 14.618-3.951Zm0 0-13.206 2.731-.377.123 13.583-2.854Z" fill="#00AEF6"/><path d="m20.527 40.568 2.892 1.093.162.053-3.054-1.146ZM58.962 4.12l.12.108 2.072 1.627-2.192-1.735Z" fill="#BF231B"/><path d="m17.935 21.826-.07.351-.985 16.36 1.055-16.711Z" fill="#00AEF6"/><path d="m20.69 40.622 2.89 1.092.175.031-3.065-1.123ZM59.081 4.227l.097.124 2.093 1.61-2.19-1.734ZM20.866 40.653l2.89 1.092.184.008-3.074-1.1ZM59.178 4.351l.074.14 2.116 1.593-2.19-1.733Zm-38.124 36.31 2.887 1.092.194-.017-3.082-1.076ZM59.252 4.49l.049.154 2.141 1.577-2.19-1.731Z" fill="#BF231B"/><path d="m33.454 5.181-.468.607-.432 12.086.9-12.692Zm-.468.607-.11.339-.322 11.747.432-12.086Z" fill="#00AEF6"/><path d="m59.3 4.645.022.167 2.169 1.562-2.19-1.73Z" fill="#BF231B"/><path d="m32.876 6.127-.018.172-.304 11.575.322-11.747Z" fill="#00AEF6"/><path d="m20.69 40.622-.163-.054 3.054 1.146-2.89-1.092Zm.176.031-.175-.031 3.064 1.123-2.889-1.092Zm.188.007-.188-.007 3.075 1.1-2.887-1.093Zm.196-.018-.196.018 3.081 1.076-2.885-1.094Z" fill="#BF231B"/><path d="m37.607 39.701-13.473 2.035 16.104-.908-2.63-1.127ZM59.321 4.812l.46 11.718 1.73-9.99-2.19-1.728ZM56.809 2.43l2.27 1.798-.118-.107-2.152-1.691Zm.098.125 2.27 1.797-.097-.124-2.173-1.673ZM21.248 40.642l2.885 1.094 13.473-2.035-16.358.941Z" fill="#BF231B"/><path d="m17.864 22.177-.986 16.175.002.185.984-16.36Zm.071-.351L16.88 38.538l.25.613.805-17.325Z" fill="#00AEF6"/><path d="m57.03 2.85 2.271 1.794-.048-.154-2.223-1.64Zm.02.17 2.272 1.792-.02-.168L57.05 3.02Zm2.733 13.51 2.245 1.56-.515-11.551-1.73 9.99Z" fill="#BF231B"/><path d="m53.47.202-20.016 4.98-.9 12.692L53.469.202Z" fill="#00AEF6"/><path d="m17.528 39.435 3 1.133.162.054-3.162-1.187ZM56.69 2.32l.12.109 2.152 1.69L56.69 2.32ZM17.693 39.49l2.997 1.132.176.03-3.173-1.163ZM56.81 2.428l.097.125 2.174 1.673-2.272-1.798ZM17.87 39.52l2.996 1.133.187.007-3.183-1.14ZM56.907 2.554l.074.141 2.197 1.656-2.27-1.797ZM18.06 39.527l2.994 1.133.197-.018-3.191-1.115ZM56.981 2.695l.049.156 2.222 1.64-2.27-1.796Zm.049.156.02.17 2.25 1.624-2.27-1.794Z" fill="#BF231B"/><path d="m17.693 39.49-.165-.055 3.162 1.187-2.997-1.133Zm.177.03-.177-.03 3.173 1.163-2.996-1.133Zm.189.007-.189-.007 3.183 1.14-2.994-1.133Z" fill="#BF231B"/><path d="m32.553 17.874-14.618 3.951 14.107 15.491.511-19.442Z" fill="#00AEF6"/><path d="m18.257 39.508-.198.02 3.19 1.114-2.992-1.134Z" fill="#BF231B"/><path d="m16.88 38.538.028.174.052.161-.08-.335Zm0 0 .08.335.17.278-.25-.613Zm.08.335.074.147.096.131-.17-.278Zm.975-17.047L17.13 39.15l14.913-1.834-14.108-15.491ZM17.13 39.15l.116.114.133.096-.249-.21Zm0 0 .25.21.313.129-.563-.339Zm.25.21.149.075.164.054-.314-.13Z" fill="#00AEF6"/><path d="M34.877 38.531 21.25 40.642l16.358-.941-2.73-1.17ZM57.05 3.021l.402 11.888 1.87-10.097-2.272-1.791ZM54.452.563l2.357 1.866-.12-.109L54.452.563Z" fill="#BF231B"/><path d="m17.693 39.49.178.03.189.007-.367-.038Z" fill="#00AEF6"/><path d="m54.551.69 2.356 1.864-.097-.125-2.26-1.74ZM18.258 39.507l2.992 1.134 13.628-2.11-16.62.976ZM54.625.832l2.357 1.863-.075-.14L54.626.831Zm.048.158 2.357 1.861-.048-.156L54.673.99Zm.02.172 2.357 1.859-.02-.17-2.337-1.689Zm2.76 13.747 2.33 1.62-.461-11.717-1.87 10.097ZM54.332.454l.12.109L56.69 2.32 54.333.454Zm.12.109.098.126 2.259 1.74L54.453.563Zm.098.126.074.143 2.282 1.722L54.551.69Zm.074.143.048.158 2.309 1.705L54.625.832Zm.048.158.02.172 2.337 1.69L54.673.99Z" fill="#BF231B"/><path d="m53.47.202-.212.016-.219.04.43-.056Zm.389.038L53.67.21l-.2-.008.389.038Zm.333.123L53.859.24l-.39-.038.723.16Zm0 0L54.033.29 53.86.24l.333.123ZM17.13 39.15l.563.338 14.35-2.173L17.13 39.15ZM54.625.832l-.433-.47-.723-.16 1.156.63Zm-.172-.269-.12-.11-.141-.09.26.2Zm-36.76 38.926.366.038 13.983-2.21-14.35 2.172ZM54.625.832l-.172-.269-.261-.2.433.47ZM18.06 39.527l.199-.019 13.784-2.192-13.983 2.211ZM54.625.832 54.551.69l-.098-.127.172.27Zm.068.33-.02-.172-.048-.158.068.33Zm.339 12.063L53.468.202 32.554 17.874l22.477-4.65Z" fill="#00AEF6"/><path d="m32.043 37.316-13.785 2.192 16.62-.977-2.835-1.215Zm22.65-36.154.339 12.063L57.05 3.02l-2.357-1.859Zm-16.305 52.8 2.707.897.194.04-2.901-.938Zm.196.04 2.705.898.205.015-2.91-.913Zm.207.016 2.703.897.215-.01-2.918-.887Zm16.24-40.793 2.421 1.684L57.05 3.02l-2.018 10.204Z" fill="#BF231B"/><path d="M55.032 13.225 54.626.832 53.47.202l1.562 13.023Zm0 0-22.478 4.649-.511 19.442 22.989-24.091Zm0 0-.339-12.063-.067-.33.406 12.393Z" fill="#00AEF6"/><path d="m38.584 54.002-.197-.04 2.902.938-2.705-.898Zm.207.016-.207-.016 2.91.914-2.703-.898Zm.217-.011-.217.011 2.917.887-2.7-.898Zm37.677-40.113 2.011 1.674-.137-.12-1.874-1.554Zm.115.139 2.01 1.672-.114-.137-1.896-1.535Zm.09.155 2.01 1.67-.09-.153-1.92-1.517Zm.061.17 2.01 1.669-.061-.168-1.949-1.5Zm.032.185 2.01 1.665-.032-.181-1.978-1.484ZM39.008 54.007l2.7.898 20.104-2.268-22.804 1.37Zm37.538-40.235.139.122 1.874 1.553-2.013-1.675ZM35.574 53.03l2.813.932.197.041-3.01-.973Zm41.11-39.135.116.139 1.896 1.535-2.011-1.674ZM35.774 53.07l2.81.932.208.016-3.018-.948ZM76.8 14.033l.09.155 1.92 1.517-2.01-1.672ZM35.983 53.085l2.808.933.217-.011-3.026-.922ZM76.89 14.188l.061.17 1.949 1.5-2.01-1.67Zm.061.17.032.185 1.978 1.484-2.01-1.668ZM35.773 53.07l-.199-.041 3.01.973-2.811-.932Zm.21.015-.21-.015 3.018.948-2.808-.933Zm.22-.012-.22.012 3.025.922-2.806-.934Zm24.354-16.838 2.334 1.256 15.878-2.34-18.212 1.084Zm14.036-24.082 2.092 1.74-.14-.12-1.952-1.62Zm.116.14 2.09 1.74-.114-.14-1.976-1.6Zm.09.158 2.09 1.737-.09-.155-2-1.582Zm.062.173 2.09 1.735-.061-.17-2.029-1.565Zm.031.187 2.09 1.732-.03-.184-2.06-1.548Zm2.09 1.732 1.419 17.472.592-15.807-2.01-1.665Z" fill="#BF231B"/><path d="m32.043 37.317-.354 13.449.048.4.306-13.85Z" fill="#00AEF6"/><path d="m60.557 36.236.536 13.648 1.798-12.393-2.334-1.255ZM36.202 53.073l2.806.934 20.376-2.358-23.182 1.424Z" fill="#BF231B"/><path d="m32.043 37.317-.307 13.85.402.625-.095-14.475Zm0 0 23.56-3.746-.571-20.346-22.99 24.092Z" fill="#00AEF6"/><path d="m74.453 12.03.14.123 1.953 1.62-2.093-1.743ZM32.648 52.06l2.926.97.198.041-3.124-1.011Zm41.945-39.906.116.141 1.975 1.6-2.091-1.74ZM32.849 52.1l2.923.97.21.015-3.133-.985Zm41.86-39.806.09.157 2 1.582-2.09-1.739ZM33.061 52.115l2.921.97.22-.012-3.14-.958Zm28.032-2.231 2.396 1.024-.598-13.417-1.798 12.393Zm-1.71 1.765-20.375 2.358 22.804-1.37-2.428-.988ZM74.8 12.45l.062.173 2.028 1.564-2.09-1.737Zm.062.173.031.188 2.059 1.547-2.09-1.735Zm3.54 19.391 2.065 1.386-1.473-17.193-.592 15.807ZM32.849 52.1l-.2-.041 3.123 1.011-2.923-.97Z" fill="#BF231B"/><path d="m32.043 37.316.095 14.476L55.603 33.57l-23.56 3.746Z" fill="#00AEF6"/><path d="m33.062 52.115-.212-.015 3.133.985-2.921-.97Z" fill="#BF231B"/><path d="m31.69 50.766.009.206.038.194-.047-.4Z" fill="#00AEF6"/><path d="m33.284 52.102-.222.013 3.14.958-2.918-.97Z" fill="#BF231B"/><path d="m31.736 51.166.065.18.09.166-.155-.346Zm0 0 .155.346.247.28-.402-.626ZM71.05 9.926l-.247.037-15.77 3.262 16.017-3.3ZM31.89 51.512l.113.15.134.13-.247-.28ZM71.514 9.93l-.465-.003-16.017 3.3L71.514 9.93Z" fill="#00AEF6"/><path d="m59.384 51.648 2.428.989.235-.04-2.663-.949Zm.239-.042 2.424.99.225-.066-2.65-.924ZM76.67 33.802l-16.113 2.433 18.212-1.083-2.099-1.35ZM61.085 50.096l2.397 1.02.007-.208-2.404-.812Z" fill="#BF231B"/><path d="m32.138 51.792.153.11.171.09-.324-.2Z" fill="#00AEF6"/><path d="m59.852 51.538 2.42.992.213-.09-2.633-.902Z" fill="#BF231B"/><path d="m72.276 10.218-.761-.29-16.483 3.297 17.244-3.007Z" fill="#00AEF6"/><path d="m61.046 50.305 2.398 1.016.038-.204-2.436-.812Zm-.98 1.141 2.418.994.198-.112-2.616-.882Zm.911-.94 2.4 1.013.067-.198-2.467-.815Zm-.71.826 2.415.996.18-.13-2.595-.866Z" fill="#BF231B"/><path d="m32.138 51.792.324.2.387.108-.711-.308Z" fill="#00AEF6"/><path d="m60.883 50.698 2.402 1.01.094-.19-2.496-.82Zm-.43.5 2.41 1 .163-.15-2.573-.85Zm.309-.32 2.405 1.006.118-.177-2.523-.828ZM58.13 34.93l2.427 1.306 16.114-2.433L58.13 34.93Zm2.488 16.117 2.408 1.002.141-.164-2.55-.838Z" fill="#BF231B"/><path d="m32.462 51.992.187.066.2.042-.387-.108Z" fill="#00AEF6"/><path d="m72.417 10.342 2.176 1.811-.14-.123-2.036-1.688Zm.117.143 2.175 1.809-.116-.14-2.059-1.67Z" fill="#BF231B"/><path d="m32.85 52.1.212.015.222-.013-.434-.002Z" fill="#00AEF6"/><path d="m72.625 10.644 2.175 1.808-.09-.158-2.085-1.65Zm.062.176 2.175 1.805-.062-.173-2.113-1.632Zm.03.19 2.176 1.802-.031-.187-2.144-1.615Zm2.176 1.802 1.357 17.76.733-16.029-2.09-1.731Zm1.778 20.99 2.098 1.35.246-.05-2.344-1.3Zm.25-.051 2.094 1.351.234-.074-2.329-1.277ZM58.13 34.93l.47 13.888 1.957-12.582-2.427-1.306Zm1.493 16.677-.238.042 2.663.948-2.425-.99Zm18.778-19.385 2.067 1.383-.001-.203-2.066-1.18Zm-1.243 1.452 2.09 1.354.22-.097-2.31-1.257Zm1.21-1.249 2.067 1.38.032-.2-2.1-1.18Zm-17.274 17.46-.008.212 2.404.811-2.396-1.024Zm-1.242 1.654-.229.068 2.65.924-2.421-.992ZM77.38 33.575l2.087 1.356.203-.117-2.29-1.24ZM33.284 52.102l2.919.971 20.653-2.453-23.572 1.483Zm45.02-19.48L80.372 34l.062-.195-2.132-1.181Zm-.716.833 2.084 1.36.185-.136-2.27-1.224ZM61.086 50.097l-.04.208 2.437.812-2.397-1.02Zm-1.019 1.35-.215.092 2.633.901-2.418-.993ZM78.21 32.813l2.071 1.372.092-.186-2.163-1.186Zm-.434.504 2.08 1.362.165-.151-2.245-1.211Zm.313-.323 2.075 1.368.117-.177-2.192-1.191Zm-.145.168 2.077 1.366.143-.166-2.22-1.2ZM61.047 50.305l-.069.201 2.467.816-2.398-1.017Zm-.779 1.027-.2.115 2.615.882-2.415-.997Zm.71-.826-.096.193 2.497.82-2.4-1.013Zm-.526.692-.184.134 2.596.866-2.412-1Zm.43-.5-.12.181 2.523.829-2.402-1.01Zm-.264.349-.166.151 2.574.851-2.409-1.002Zm.144-.168-.145.168 2.55.838-2.405-1.006Zm11.514-40.66.141.123 2.037 1.689-2.178-1.813Zm.141.123.118.143 2.059 1.668-2.177-1.81Zm.118.143.09.16 2.085 1.65-2.175-1.81ZM58.599 48.818l2.495 1.066-.537-13.648L58.6 48.818Zm-1.743 1.802-20.653 2.453 23.181-1.424-2.528-1.03Zm15.77-39.976.061.176 2.113 1.632-2.175-1.808Zm.061.176.03.19 2.145 1.615-2.175-1.805Z" fill="#BF231B"/><path d="m71.513 9.929-.227-.015-.238.011.465.004Z" fill="#00AEF6"/><path d="m76.92 33.75-.25.052 2.344 1.3-2.095-1.351Z" fill="#BF231B"/><path d="m71.93 10.03-.2-.062-.215-.04.415.102Z" fill="#00AEF6"/><path d="m76.25 30.57 2.151 1.445-1.418-17.472-.733 16.028Zm2.151 1.445v.206l2.066 1.18-2.066-1.386Zm-1.244 1.658-.237.077 2.328 1.277-2.09-1.354Zm1.244-1.452-.034.203 2.1 1.18-2.066-1.383Zm-1.02 1.353-.224.1 2.311 1.257-2.087-1.357Z" fill="#BF231B"/><path d="m72.276 10.218-.346-.188-.415-.101.761.29Z" fill="#00AEF6"/><path d="m78.367 32.425-.065.198 2.132 1.181-2.067-1.38Zm-.78 1.03-.207.12 2.29 1.239-2.083-1.36Zm.715-.832-.093.19 2.163 1.185-2.07-1.375Zm-.527.694-.188.138 2.269 1.224-2.08-1.362Zm.434-.504-.12.18 2.191 1.192-2.071-1.372Zm-.266.35-.168.154 2.245 1.21-2.077-1.365Zm.145-.17-.145.17 2.22 1.2-2.075-1.37Z" fill="#BF231B"/><path d="m72.275 10.218-.163-.105-.183-.083.346.188Zm.26.267-.118-.143-.142-.124.26.267Zm.152.335-.153-.335-.259-.267.412.602Zm0 0-.062-.176-.09-.16.152.336Zm1.282 18.67-1.694-19.272-17.243 3.007 18.937 16.266ZM32.138 51.793l.711.308 21.619-2.598-22.33 2.29Z" fill="#00AEF6"/><path d="m56.856 50.62 2.529 1.029.239-.042-2.768-.987Z" fill="#BF231B"/><path d="m55.603 33.57 18.366-4.079-18.937-16.266.571 20.346Z" fill="#00AEF6"/><path d="m57.098 50.576 2.524 1.03.228-.068-2.752-.962Zm17.386-18.18-16.355 2.533 18.54-1.127-2.185-1.406Z" fill="#BF231B"/><path d="m32.85 52.1.434.002 21.184-2.6L32.85 52.1Z" fill="#00AEF6"/><path d="m58.59 49.035 2.495 1.062.008-.213-2.503-.85Zm-1.26 1.471 2.521 1.033.216-.092-2.737-.94Zm1.219-1.26 2.497 1.06.04-.209-2.537-.85Zm-1 1.166 2.518 1.035.2-.114-2.718-.921Zm.93-.96 2.499 1.055.068-.202-2.568-.853Zm-.725.843 2.514 1.038.184-.134-2.698-.904Zm.626-.647 2.502 1.05.096-.191-2.598-.86Zm-.439.51 2.51 1.04.166-.151-2.676-.889Zm.316-.326 2.504 1.047.121-.18-2.625-.867Zm-2.654-16.261 2.526 1.359 16.355-2.534-18.881 1.175Zm2.506 16.432 2.508 1.044.144-.168-2.652-.876ZM72.718 11.01l1.29 18.056.885-16.254-2.175-1.802Zm1.767 21.386 2.186 1.406.25-.051-2.436-1.355Z" fill="#BF231B"/><path d="m32.138 51.792 23.187-2.719.278-15.503-23.465 18.222Z" fill="#00AEF6"/><path d="m74.738 32.342 2.182 1.408.238-.077-2.42-1.33ZM55.603 33.57 56 47.706l2.13-12.777-2.527-1.359ZM57.1 50.576l-.243.043 2.767.987-2.524-1.03Zm19.15-19.795 2.152 1.44v-.206L76.25 30.78Zm-1.27 1.483 2.179 1.41.223-.1-2.401-1.31Zm1.235-1.276 2.154 1.437.033-.204-2.187-1.233ZM58.6 48.818l-.009.216 2.504.85-2.495-1.067Zm-1.268 1.688-.232.07 2.753.962-2.521-1.032Zm17.876-18.344 2.174 1.412.207-.12-2.381-1.292Zm.94-.973 2.156 1.433.065-.197-2.22-1.235Zm-.73.85 2.17 1.416.19-.139-2.36-1.277ZM58.59 49.034l-.04.212 2.536.85-2.496-1.062Zm-1.04 1.377-.22.095 2.737.94-2.517-1.035Zm18.502-19.027 2.158 1.429.093-.19-2.251-1.24Zm-.443.514 2.167 1.418.168-.154-2.335-1.264Zm.32-.33 2.16 1.425.12-.18-2.28-1.245Zm-.148.172 2.163 1.422.145-.169-2.308-1.253ZM58.549 49.246l-.07.205 2.568.854-2.498-1.059Zm-.795 1.048-.204.117 2.718.92-2.514-1.037Zm.725-.843-.098.196 2.597.859-2.5-1.055Zm-.537.706-.188.137 2.698.904-2.51-1.04Zm.439-.51-.124.184 2.626.867-2.502-1.05Zm-.271.355-.168.155 2.676.889-2.508-1.044Zm.147-.17-.147.17 2.652.877-2.505-1.047ZM56 47.706l2.6 1.111-.47-13.888L56 47.706Zm-1.778 1.84-20.938 2.556 23.572-1.483-2.634-1.073Z" fill="#BF231B"/><path d="m73.968 29.49-1.281-18.67-.412-.602 1.693 19.273Zm.04-.424-1.29-18.056-.031-.19 1.32 18.246Z" fill="#00AEF6"/><path d="m74.739 32.342-.254.054 2.435 1.354-2.181-1.408Zm-.731-3.276 2.242 1.505-1.357-17.76-.885 16.255Zm2.242 1.505-.001.21 2.153 1.234-2.152-1.444Zm-1.27 1.692-.242.08 2.42 1.33-2.178-1.41Zm1.269-1.482-.035.207 2.187 1.233-2.152-1.44Zm-1.042 1.38-.227.102 2.4 1.311-2.173-1.412Zm1.007-1.173-.066.201 2.22 1.236-2.154-1.437Zm-.796 1.051-.211.123 2.38 1.293-2.17-1.416Zm.73-.85-.096.195 2.251 1.238-2.155-1.433Zm-.538.709-.192.141 2.358 1.277-2.166-1.418Zm.442-.514-.123.184 2.28 1.245-2.157-1.43Zm-.271.356-.172.158 2.335 1.264-2.163-1.422Zm.148-.172-.148.172 2.308 1.253-2.16-1.425Z" fill="#BF231B"/><path d="m32.138 51.791 22.33-2.29.857-.428-23.187 2.718Zm1.146.31 20.938-2.555.246-.045-21.184 2.6Z" fill="#00AEF6"/><path d="m54.222 49.547 2.634 1.073.243-.044-2.877-1.03Zm.246-.045 2.63 1.074.233-.07-2.863-1.004Zm17.738-18.571-16.603 2.64 18.882-1.175-2.279-1.465ZM55.99 47.928l2.601 1.107.01-.217-2.61-.89Zm-1.286 1.502 2.628 1.076.219-.094-2.847-.982Zm1.243-1.286 2.603 1.103.041-.212-2.644-.891Zm-1.02 1.19 2.624 1.078.204-.117-2.828-.962Zm.948-.981 2.605 1.099.07-.205-2.675-.894Zm-.74.86 2.62 1.082.188-.137-2.808-.944Zm.64-.66 2.606 1.095.099-.196-2.706-.9Zm-.449.52 2.617 1.085.168-.155-2.785-.93Zm.322-.332 2.61 1.091.123-.184-2.733-.907Zm-.15.174 2.613 1.088.147-.17-2.76-.918Z" fill="#BF231B"/><path d="m55.988 47.927.01-.22-.396-14.137.386 14.357Zm-.115.425.115-.425-.386-14.357.27 14.782Zm-.549.721.549-.72-.271-14.783-.278 15.503Z" fill="#00AEF6"/><path d="m72.206 30.93 2.278 1.466.254-.053-2.532-1.412Z" fill="#BF231B"/><path d="m73.968 29.49.04-.425-1.322-18.246 1.282 18.671Z" fill="#00AEF6"/><path d="m72.464 30.875 2.274 1.467.242-.078-2.516-1.39ZM54.468 49.502l-.246.044 2.877 1.03-2.631-1.074ZM74.005 29.28l2.244 1.501.001-.21-2.245-1.291Zm-1.296 1.514 2.27 1.47.228-.102-2.498-1.368Zm1.26-1.303 2.245 1.497.035-.207-2.28-1.29Zm-17.97 18.215-.01.221 2.61.89-2.6-1.11Zm-1.296 1.724-.235.072 2.863 1.004-2.628-1.076ZM72.94 30.69l2.267 1.472.21-.123-2.477-1.35Zm.96-.994 2.247 1.494.067-.202-2.314-1.292Zm-.745.868 2.262 1.475.192-.141-2.454-1.334Z" fill="#BF231B"/><path d="m55.602 33.57 16.604-2.64.503-.136-17.107 2.777Z" fill="#00AEF6"/><path d="m55.989 47.927-.043.216 2.644.891-2.601-1.107Zm-1.063 1.406-.223.097 2.846.981-2.623-1.078Zm18.876-19.439 2.25 1.49.095-.194-2.345-1.296Zm-.452.525 2.259 1.479.171-.158-2.43-1.32Zm.326-.337 2.252 1.486.123-.184-2.375-1.302Zm-.151.176 2.255 1.482.148-.172-2.403-1.31ZM55.946 48.143l-.072.21 2.675.893-2.603-1.103Zm-.812 1.07-.208.12 2.828.962-2.62-1.082Z" fill="#BF231B"/><path d="m55.602 33.57 17.107-2.776 1.26-1.303-18.366 4.08Z" fill="#00AEF6"/><path d="m55.873 48.353-.1.2 2.705.899-2.605-1.1Zm-.548.72-.191.14 2.807.945-2.616-1.084Zm.448-.52-.127.188 2.734.907-2.607-1.096Zm-.277.362-.171.159 2.784.929-2.613-1.088Zm.15-.174-.15.174 2.76.917-2.61-1.091Zm16.818-17.866-.258.056 2.532 1.412-2.274-1.468Zm1.543-1.809-.002.214 2.245 1.291-2.243-1.505Zm-1.298 1.728-.245.081 2.515 1.389-2.27-1.47Zm1.296-1.514-.037.21 2.28 1.291-2.243-1.501Zm-1.065 1.41-.231.104 2.497 1.368-2.266-1.472Z" fill="#BF231B"/><path d="m54.468 49.502.235-.072.223-.097-.458.169Z" fill="#00AEF6"/><path d="m73.969 29.491-.069.206 2.314 1.292-2.245-1.498Zm-.814 1.073-.215.126 2.477 1.35-2.262-1.476Z" fill="#BF231B"/><path d="m54.468 49.501.458-.168.399-.26-.857.428Z" fill="#00AEF6"/><path d="m73.9 29.696-.098.198 2.346 1.296-2.247-1.494Zm-.55.723-.195.145 2.455 1.334-2.26-1.479Z" fill="#BF231B"/><path d="m55.873 48.353.073-.21.042-.215-.115.425Z" fill="#00AEF6"/><path d="m73.802 29.894-.126.188 2.376 1.302-2.25-1.49Zm-.277.364-.174.161 2.43 1.321-2.256-1.482Zm.151-.176-.15.176 2.403 1.31-2.253-1.486Z" fill="#BF231B"/><path d="m54.926 49.333.208-.12.19-.14-.398.26Zm.399-.26.321-.332.227-.388-.548.72Zm.321-.332.127-.189.1-.2-.227.389Zm-.321.333.171-.159.15-.174-.321.333Zm16.88-18.143.258-.056.246-.08-.503.136Zm1.763-1.44.037-.211.002-.214-.039.425Zm-1.26 1.303.232-.104.214-.126-.445.23Zm0 0 .817-.536.443-.767-1.26 1.303Zm0 0 .446-.23.37-.306-.815.536Zm1.094-.9.098-.198.068-.205-.166.403Zm-.278.364.278-.364.166-.403-.444.767Zm-.37.306.196-.145.175-.16-.37.305Zm.37-.306.152-.176.126-.188-.278.364Z" fill="#00AEF6"/></g><mask id="j" style="mask-type:alpha" maskUnits="userSpaceOnUse" x="17" y="0" width="64" height="55"><path d="m23.418 41.66 2.79 1.055.16.053-2.95-1.107Zm.162.054 2.789 1.054.172.03-2.961-1.084Zm.174.031 2.787 1.054.184.008-2.97-1.062Zm.186.008 2.785 1.054.193-.016-2.978-1.038Z" fill="#BF231B"/><path d="m23.58 41.714-.162-.053 2.95 1.107-2.788-1.054Zm.174.031-.174-.031 2.962 1.085-2.788-1.054Zm.186.008-.186-.008 2.971 1.062-2.785-1.054Zm.194-.017-.194.017 2.978 1.038-2.784-1.055ZM59.08 4.227l2.191 1.734-.118-.106-2.072-1.628Zm.098.124 2.19 1.733-.097-.123-2.093-1.61ZM24.135 41.736l2.783 1.055 13.32-1.963-16.103.908ZM59.252 4.491l2.19 1.731-.074-.138-2.116-1.593Zm.049.154 2.19 1.73-.05-.153-2.14-1.577Zm.02.167 2.191 1.727-.022-.165-2.168-1.562ZM20.527 40.568l2.892 1.093.162.053-3.054-1.146ZM58.962 4.12l.12.107 2.072 1.628-2.192-1.735Z" fill="#BF231B"/><path d="m20.69 40.622 2.89 1.092.175.031-3.065-1.123ZM59.081 4.227l.097.124 2.093 1.61-2.19-1.734ZM20.866 40.653l2.89 1.092.184.008-3.074-1.1ZM59.178 4.351l.074.14 2.116 1.593-2.19-1.733Zm-38.124 36.31 2.887 1.092.194-.017-3.082-1.075ZM59.252 4.49l.049.154 2.141 1.577-2.19-1.731Zm.048.155.022.167 2.169 1.562-2.19-1.73Z" fill="#BF231B"/><path d="m20.69 40.622-.163-.054 3.054 1.146-2.89-1.092Zm.176.031-.175-.031 3.064 1.123-2.889-1.092Zm.188.007-.188-.007 3.075 1.1-2.887-1.093Zm.196-.018-.196.018 3.081 1.076-2.885-1.094Z" fill="#BF231B"/><path d="m37.608 39.701-13.473 2.035 16.104-.907-2.63-1.128ZM59.322 4.812l.46 11.718 1.73-9.99-2.19-1.728ZM56.81 2.43l2.27 1.798-.118-.107-2.152-1.69Zm.097.125 2.271 1.797-.097-.124-2.174-1.673ZM21.25 40.643l2.885 1.093 13.473-2.035-16.358.942Z" fill="#BF231B"/><path d="m56.981 2.696 2.271 1.795-.074-.14-2.197-1.655Z" fill="#BF231B"/><path d="m57.03 2.85 2.27 1.794-.048-.154-2.223-1.64Zm.02.17 2.271 1.792-.02-.168-2.251-1.623Zm2.732 13.51 2.245 1.561-.515-11.552-1.73 9.99Z" fill="#BF231B"/><path d="m17.528 39.435 3 1.133.162.054-3.162-1.187ZM56.69 2.32l.12.109 2.152 1.69L56.69 2.32ZM17.693 39.49l2.997 1.132.176.031-3.173-1.164ZM56.81 2.428l.097.125 2.174 1.673-2.272-1.798ZM17.87 39.52l2.996 1.133.187.007-3.183-1.14ZM56.907 2.554l.074.141 2.197 1.656-2.27-1.797ZM18.06 39.527l2.994 1.133.197-.018-3.191-1.115ZM56.981 2.695l.049.156 2.222 1.64-2.27-1.796Zm.049.156.02.17 2.25 1.624-2.27-1.794Z" fill="#BF231B"/><path d="m17.693 39.49-.165-.055 3.162 1.187-2.997-1.133Zm.177.03-.177-.03 3.173 1.163-2.996-1.133Zm.189.007-.189-.007 3.183 1.14-2.994-1.133Z" fill="#BF231B"/><path d="m18.257 39.508-.198.02 3.19 1.115-2.992-1.135Zm16.621-.977L21.25 40.642l16.358-.941-2.73-1.17ZM57.05 3.021l.402 11.888 1.87-10.097L57.05 3.02ZM54.453.563l2.357 1.866-.12-.109L54.453.563Z" fill="#BF231B"/><path d="m54.551.69 2.356 1.864-.097-.125-2.26-1.74ZM18.258 39.508l2.992 1.134 13.628-2.11-16.62.976ZM54.625.832l2.357 1.863-.075-.14L54.626.831Zm.048.158 2.357 1.861-.048-.156L54.673.99Zm.02.172 2.357 1.859-.02-.17-2.337-1.689Zm2.76 13.747 2.33 1.62-.461-11.717-1.87 10.097ZM54.332.454l.12.109L56.69 2.32 54.333.454Zm.12.109.098.127 2.259 1.739L54.453.563Zm.098.127.074.142 2.282 1.722L54.551.69Zm.074.142.048.158 2.309 1.705L54.625.832Zm.048.158.02.172 2.337 1.69L54.673.99Z" fill="#BF231B"/><path d="m32.043 37.316-13.785 2.192 16.62-.977-2.835-1.215Zm22.65-36.154.339 12.063L57.05 3.02l-2.357-1.859Zm-16.305 52.8 2.707.897.194.04-2.901-.938Zm.196.04 2.705.898.205.016-2.91-.914Zm.207.016 2.703.898.215-.011-2.918-.887Zm16.24-40.793 2.421 1.684L57.05 3.02l-2.018 10.204Z" fill="#BF231B"/><path d="m38.584 54.002-.197-.04 2.902.938-2.705-.898Zm.207.016-.207-.016 2.91.914-2.703-.898Zm.217-.011-.217.011 2.917.887-2.7-.898Zm37.677-40.113 2.011 1.674-.137-.12-1.874-1.554Zm.115.139 2.01 1.672-.114-.137-1.896-1.535Zm.09.155 2.01 1.67-.09-.153-1.92-1.517Zm.061.17 2.01 1.669-.061-.168-1.949-1.5Zm.032.185 2.01 1.666-.032-.182-1.978-1.484ZM39.008 54.007l2.7.898 20.104-2.268-22.804 1.37Zm37.538-40.235.139.122 1.874 1.554-2.013-1.676ZM35.574 53.03l2.813.932.197.041-3.01-.973Zm41.11-39.135.116.139 1.896 1.535-2.011-1.674ZM35.774 53.07l2.81.932.208.016-3.018-.948ZM76.8 14.033l.09.155 1.92 1.517-2.01-1.672ZM35.983 53.085l2.808.933.217-.011-3.026-.922ZM76.89 14.188l.061.17 1.949 1.5-2.01-1.67Zm.061.17.032.185 1.978 1.484-2.01-1.668ZM35.773 53.07l-.199-.041 3.01.973-2.811-.932Zm.21.015-.21-.015 3.018.948-2.808-.933Zm.22-.012-.22.012 3.025.922-2.806-.934Zm24.354-16.838 2.334 1.256 15.878-2.34-18.212 1.084Zm14.036-24.082 2.092 1.74-.14-.12-1.952-1.62Zm.116.141 2.09 1.739-.114-.14-1.976-1.599Zm.09.157 2.09 1.737-.09-.155-2-1.582Zm.062.173 2.09 1.735-.061-.17-2.029-1.565Zm.031.188 2.09 1.731-.03-.184-2.06-1.547Zm2.09 1.731 1.419 17.472.592-15.806-2.01-1.666Z" fill="#BF231B"/><path d="m60.557 36.236.536 13.648 1.798-12.393-2.334-1.255ZM36.202 53.074l2.806.933 20.376-2.358-23.182 1.425Z" fill="#BF231B"/><path d="m74.453 12.03.14.123 1.953 1.62-2.093-1.743ZM32.648 52.06l2.926.97.198.041-3.124-1.011Zm41.945-39.906.116.141 1.975 1.6-2.091-1.74ZM32.849 52.1l2.923.97.21.016-3.133-.986Zm41.86-39.806.09.158 2 1.581-2.09-1.739ZM33.061 52.115l2.921.97.22-.012-3.14-.958Zm28.032-2.231 2.396 1.024-.598-13.417-1.798 12.393Zm-1.71 1.765-20.375 2.358 22.804-1.37-2.428-.988ZM74.8 12.452l.062.172 2.028 1.564-2.09-1.736Zm.062.172.031.188 2.059 1.547-2.09-1.735Zm3.54 19.391 2.065 1.387-1.473-17.193-.592 15.806ZM32.849 52.1l-.2-.041 3.123 1.011-2.923-.97Z" fill="#BF231B"/><path d="m33.061 52.115-.212-.015 3.133.985-2.921-.97Zm.223-.013-.222.013 3.14.958-2.918-.97Zm26.101-.454 2.428.989.235-.04-2.663-.949Zm.239-.042 2.424.99.225-.066-2.65-.924ZM76.67 33.802l-16.113 2.433 18.212-1.083-2.099-1.35ZM61.086 50.097l2.397 1.02.007-.21-2.404-.81Z" fill="#BF231B"/><path d="m59.852 51.538 2.42.992.213-.09-2.633-.902Z" fill="#BF231B"/><path d="m61.046 50.305 2.398 1.016.038-.204-2.436-.812Zm-.98 1.141 2.418.994.198-.111-2.616-.883Zm.911-.94 2.4 1.013.067-.198-2.467-.815Zm-.71.826 2.415.996.18-.13-2.595-.866Z" fill="#BF231B"/><path d="m60.882 50.698 2.402 1.01.094-.19-2.496-.82Zm-.43.5 2.41 1 .163-.15-2.573-.85Zm.309-.32 2.405 1.007.118-.178-2.523-.828ZM58.129 34.93l2.428 1.306 16.113-2.433-18.541 1.127Zm2.488 16.117 2.408 1.002.141-.163-2.55-.839Zm11.8-40.705 2.176 1.811-.14-.123-2.036-1.688Zm.117.143 2.175 1.809-.116-.14-2.059-1.67Z" fill="#BF231B"/><path d="m72.624 10.645 2.175 1.807-.09-.158-2.085-1.65Zm.062.175 2.175 1.805-.062-.173-2.113-1.632Zm.03.19 2.176 1.802-.031-.187-2.144-1.615Zm2.176 1.802 1.357 17.76.733-16.028-2.09-1.732Zm1.778 20.99 2.099 1.35.245-.05-2.344-1.3Zm.25-.051 2.094 1.351.234-.074-2.329-1.277ZM58.128 34.93l.47 13.888 1.957-12.582-2.427-1.306Zm1.493 16.677-.239.042 2.664.948-2.425-.99ZM78.4 32.222l2.066 1.383v-.203l-2.066-1.18Zm-1.243 1.452 2.09 1.354.22-.097-2.31-1.257Zm1.21-1.249 2.067 1.38.032-.2-2.1-1.18Zm-17.274 17.46-.008.212 2.404.811-2.396-1.024Zm-1.242 1.654-.229.068 2.65.924-2.421-.992ZM77.38 33.575l2.087 1.356.204-.117-2.291-1.239ZM33.283 52.103l2.919.97 20.653-2.453-23.572 1.483Zm45.02-19.48L80.371 34l.062-.195-2.132-1.18Zm-.716.832 2.084 1.36.185-.136-2.27-1.224ZM61.085 50.097l-.04.208 2.437.813-2.397-1.02Zm-1.019 1.35-.215.092 2.633.902-2.418-.994ZM78.21 32.813l2.071 1.372.092-.186-2.163-1.186Zm-.434.504 2.08 1.362.165-.151-2.245-1.21Zm.313-.323 2.075 1.369.117-.178-2.192-1.191Zm-.145.169 2.077 1.365.143-.165-2.22-1.2ZM61.046 50.305l-.069.202 2.467.815-2.398-1.017Zm-.779 1.028-.2.114 2.615.882-2.415-.996Zm.71-.826-.095.192 2.496.82-2.4-1.012Zm-.525.692-.185.134 2.596.865-2.411-1Zm.43-.5-.121.18 2.523.829-2.402-1.01Zm-.265.348-.165.152 2.573.85-2.408-1.002Zm.144-.168-.144.168 2.549.838-2.405-1.006Zm11.514-40.66.141.123 2.037 1.689-2.178-1.813Zm.141.123.118.143 2.059 1.669-2.177-1.812Zm.118.143.09.16 2.085 1.65-2.175-1.81ZM58.598 48.818l2.495 1.066-.537-13.648-1.958 12.582Zm-1.743 1.802-20.653 2.454 23.181-1.425-2.528-1.03Zm15.77-39.975.061.175 2.113 1.632-2.175-1.807Zm.061.175.03.19 2.145 1.615-2.175-1.805Z" fill="#BF231B"/><path d="m76.92 33.75-.25.052 2.344 1.3-2.095-1.352Z" fill="#BF231B"/><path d="m76.249 30.57 2.151 1.445-1.418-17.472-.733 16.028Zm2.151 1.445v.206l2.066 1.18-2.066-1.386Zm-1.244 1.659-.237.076 2.329 1.277-2.092-1.353ZM78.4 32.22l-.034.204 2.1 1.18L78.4 32.22Zm-1.02 1.353-.224.1 2.311 1.257-2.087-1.357Z" fill="#BF231B"/><path d="m78.368 32.425-.065.198 2.132 1.181-2.067-1.38Zm-.78 1.03-.207.12 2.29 1.24-2.083-1.36Zm.715-.832-.093.19 2.163 1.185-2.07-1.375Zm-.527.694-.188.138 2.269 1.224-2.08-1.362Zm.434-.504-.12.18 2.191 1.192-2.071-1.372Zm-.266.35-.168.154 2.245 1.21-2.077-1.365Zm.145-.17-.145.17 2.22 1.2-2.075-1.37ZM56.856 50.62l2.529 1.029.239-.042-2.768-.987Zm.242-.044 2.524 1.03.228-.068-2.752-.962Zm17.386-18.18-16.355 2.533 18.54-1.127-2.185-1.406Z" fill="#BF231B"/><path d="m58.59 49.035 2.495 1.062.008-.213-2.503-.85Zm-1.26 1.471 2.521 1.033.216-.092-2.737-.94Zm1.219-1.26 2.497 1.06.04-.209-2.537-.85Zm-1 1.166 2.518 1.035.2-.114-2.718-.921Zm.93-.96 2.499 1.055.068-.202-2.568-.853Zm-.725.843 2.514 1.038.184-.134-2.698-.904Zm.626-.647 2.502 1.05.096-.191-2.598-.86Zm-.439.51 2.51 1.04.166-.151-2.676-.889Zm.316-.326 2.504 1.047.121-.18-2.625-.867Zm-2.654-16.261 2.526 1.359 16.355-2.534-18.881 1.175Zm2.506 16.432 2.508 1.044.144-.167-2.652-.877ZM72.718 11.01l1.29 18.056.885-16.254-2.175-1.802Zm1.767 21.386 2.186 1.406.25-.051-2.436-1.355Z" fill="#BF231B"/><path d="m74.737 32.342 2.182 1.408.238-.076-2.42-1.332ZM55.602 33.57 56 47.706l2.13-12.777-2.527-1.359Zm1.496 17.006-.243.043 2.767.987-2.524-1.03Zm19.15-19.795 2.152 1.44v-.206l-2.152-1.234Zm-1.27 1.483 2.179 1.41.223-.1-2.401-1.31Zm1.235-1.276 2.154 1.437.033-.204-2.187-1.233Zm-17.615 17.83-.009.216 2.504.85-2.495-1.067Zm-1.268 1.688-.232.07 2.753.962-2.521-1.032Zm17.876-18.344 2.174 1.413.207-.12-2.381-1.293Zm.94-.972 2.156 1.433.065-.198-2.22-1.235Zm-.73.85 2.17 1.415.19-.139-2.36-1.277ZM58.59 49.033l-.04.212 2.536.85-2.496-1.062Zm-1.04 1.377-.22.095 2.737.94-2.517-1.035Zm18.502-19.027 2.158 1.429.093-.19-2.251-1.24Zm-.442.514 2.166 1.418.168-.154-2.334-1.264Zm.319-.33 2.16 1.425.12-.18-2.28-1.245Zm-.148.172 2.163 1.422.145-.169-2.308-1.253ZM58.548 49.246l-.07.205 2.568.854-2.498-1.059Zm-.795 1.048-.204.117 2.718.921-2.514-1.038Zm.725-.843-.098.196 2.597.859-2.5-1.055Zm-.537.706-.188.137 2.699.904-2.511-1.04Zm.439-.51-.124.185 2.626.866-2.502-1.05Zm-.27.355-.17.155 2.677.89-2.508-1.045Zm.146-.17-.147.17 2.652.877-2.505-1.047ZM56 47.706l2.6 1.111-.47-13.888L56 47.706Zm-1.778 1.84-20.938 2.556 23.572-1.483-2.634-1.072Z" fill="#BF231B"/><path d="m74.739 32.342-.254.054 2.435 1.354-2.181-1.408Zm-.731-3.276 2.242 1.505-1.357-17.76-.885 16.255Zm2.242 1.505-.001.21 2.153 1.234-2.152-1.444Zm-1.27 1.693-.242.078 2.42 1.332-2.178-1.41Zm1.269-1.483-.035.207 2.187 1.233-2.152-1.44Zm-1.042 1.38-.227.103 2.4 1.31-2.173-1.412Zm1.007-1.173-.066.202 2.22 1.235-2.154-1.437Zm-.796 1.051-.211.123 2.38 1.293-2.17-1.416Zm.73-.85-.096.195 2.251 1.239-2.155-1.433Zm-.538.709-.192.141 2.358 1.277-2.166-1.418Zm.442-.514-.123.184 2.28 1.245-2.157-1.43Zm-.271.356-.172.158 2.335 1.264-2.163-1.422Zm.148-.172-.148.172 2.308 1.253-2.16-1.425ZM54.222 49.547l2.634 1.073.243-.044-2.877-1.029Zm.246-.045 2.63 1.074.233-.07-2.863-1.004Zm17.738-18.571-16.603 2.64 18.882-1.175-2.279-1.465ZM55.99 47.928l2.601 1.107.01-.217-2.61-.89Zm-1.286 1.502 2.628 1.076.219-.094-2.847-.982Zm1.243-1.286 2.603 1.103.041-.212-2.644-.891Zm-1.02 1.19 2.624 1.078.204-.117-2.828-.962Zm.948-.981 2.605 1.099.07-.205-2.675-.894Zm-.74.86 2.62 1.082.188-.137-2.808-.944Zm.64-.66 2.606 1.095.099-.196-2.706-.9Zm-.449.52 2.617 1.085.168-.155-2.785-.93Zm.322-.332 2.61 1.091.123-.184-2.733-.907Zm-.15.174 2.613 1.088.147-.17-2.76-.918Z" fill="#BF231B"/><path d="m72.206 30.93 2.278 1.466.254-.053-2.532-1.412Z" fill="#BF231B"/><path d="m72.464 30.875 2.274 1.468.242-.08-2.516-1.388ZM54.468 49.502l-.246.045 2.877 1.029-2.631-1.074ZM74.005 29.28l2.244 1.501.001-.21-2.245-1.291Zm-1.296 1.514 2.27 1.47.228-.102-2.498-1.368Zm1.26-1.303 2.245 1.497.035-.207-2.28-1.29Zm-17.97 18.215-.01.221 2.61.89-2.6-1.11Zm-1.296 1.724-.235.072 2.863 1.004-2.628-1.076ZM72.94 30.69l2.267 1.472.21-.123-2.477-1.35Zm.96-.994 2.247 1.494.067-.202-2.314-1.292Zm-.745.868 2.262 1.475.192-.14-2.454-1.335Z" fill="#BF231B"/><path d="m55.989 47.927-.043.216 2.644.891-2.601-1.107Zm-1.063 1.406-.223.097 2.846.981-2.623-1.078Zm18.876-19.439 2.25 1.49.095-.194-2.345-1.296Zm-.452.525 2.259 1.48.171-.159-2.43-1.32Zm.326-.337 2.252 1.486.123-.184-2.375-1.302Zm-.151.176 2.255 1.482.148-.172-2.403-1.31ZM55.946 48.143l-.072.21 2.675.893-2.603-1.103Zm-.812 1.07-.208.12 2.828.962-2.62-1.081Z" fill="#BF231B"/><path d="m55.873 48.353-.1.2 2.705.899-2.605-1.1Zm-.548.72-.191.14 2.807.945-2.616-1.084Zm.448-.52-.127.188 2.734.907-2.607-1.096Zm-.277.362-.171.159 2.784.929-2.613-1.088Zm.15-.174-.15.174 2.76.917-2.61-1.091Zm16.818-17.866-.258.056 2.532 1.412-2.274-1.468Zm1.543-1.809-.002.214 2.245 1.291-2.243-1.505Zm-1.298 1.728-.245.081 2.515 1.39-2.27-1.47Zm1.296-1.514-.037.211 2.28 1.29-2.243-1.5Zm-1.065 1.41-.231.104 2.497 1.368-2.266-1.472Z" fill="#BF231B"/><path d="m73.969 29.491-.069.206 2.314 1.292-2.245-1.498Zm-.814 1.073-.215.126 2.477 1.35-2.262-1.476Z" fill="#BF231B"/><path d="m73.9 29.696-.099.198 2.346 1.296-2.247-1.494Zm-.55.723-.196.145 2.455 1.334-2.26-1.479Z" fill="#BF231B"/><path d="m73.801 29.894-.126.188 2.376 1.302-2.25-1.49Zm-.277.364-.174.161 2.43 1.321-2.256-1.482Zm.151-.176-.15.176 2.403 1.31-2.253-1.486Z" fill="#BF231B"/></mask><g mask="url(#j)"><ellipse cx="73.761" cy="46.631" rx="26.352" ry="26.852" fill="url(#k)"/><ellipse cx="94.891" cy="17.389" rx="26.352" ry="26.852" fill="url(#l)"/></g><path d="M54.05 48.362h-.078l-.076.009-20.802 2.54a.482.482 0 0 1-.157-.028l-.003-.001c-.012-.02-.062-.114-.064-.345l.428-13.12.05-1.522-1.505.235-13.75 2.154v-.011l.982-16.023.002-.038v-.039c0-.011.003-.084.128-.186.128-.104.349-.2.636-.2h.13l.128-.027 12.704-2.657.978-.205.024-.998.283-11.62c.03-.062.2-.33.996-.478l.03-.005.028-.007 18.342-4.325a.19.19 0 0 1 .003 0c.007.086.007.212-.01.387l-.007.077.002.077.311 11.239.042 1.505 1.473-.306 15.893-3.294c.162.016.266.039.329.058.012.073.022.188.022.37v.046l.003.046 1.29 17.531c-.012.03-.057.133-.226.27a1.26 1.26 0 0 1-.747.283h-.099l-.098.015-16.236 2.573-1.095.174.033 1.108.423 14.222c-.003.051-.036.17-.175.298a.836.836 0 0 1-.566.218Z" fill="url(#m)" stroke="url(#n)" stroke-width="2.521"/><defs><linearGradient id="d" x1="66.153" y1="69.099" x2="30.328" y2="10.263" gradientUnits="userSpaceOnUse"><stop stop-color="#DCECF3"/><stop offset="1" stop-color="#fff"/></linearGradient><linearGradient id="e" x1="62.885" y1="65.833" x2="31.392" y2="14.285" gradientUnits="userSpaceOnUse"><stop stop-color="#DCECF3"/><stop offset="1" stop-color="#fff"/></linearGradient><linearGradient id="f" x1="63.774" y1="65.229" x2="6.793" y2="-5.496" gradientUnits="userSpaceOnUse"><stop stop-color="#FF5B53"/><stop offset="1" stop-color="#FF5B53" stop-opacity="0"/></linearGradient><linearGradient id="g" x1="66.153" y1="69.099" x2="30.328" y2="10.263" gradientUnits="userSpaceOnUse"><stop stop-color="#DCECF3"/><stop offset="1" stop-color="#fff"/></linearGradient><linearGradient id="m" x1="31.287" y1="8.343" x2="42.585" y2="52.902" gradientUnits="userSpaceOnUse"><stop stop-color="#FFA9A5"/><stop offset="1" stop-color="#FF5B53"/></linearGradient><linearGradient id="n" x1="72.386" y1="67.056" x2="32.648" y2="-8.149" gradientUnits="userSpaceOnUse"><stop stop-color="#FFA9A5"/><stop offset="1" stop-color="#FF5C54"/></linearGradient><radialGradient id="b" cx="0" cy="0" r="1" gradientUnits="userSpaceOnUse" gradientTransform="scale(44.0926 12.0359) rotate(90 0 1)"><stop stop-color="#fff"/><stop offset="1" stop-color="#CCCEF1" stop-opacity="0"/></radialGradient><radialGradient id="c" cx="0" cy="0" r="1" gradientUnits="userSpaceOnUse" gradientTransform="matrix(0 54.9981 -14.9516 0 87.561 29.577)"><stop stop-color="#fff"/><stop offset="1" stop-color="#CCCEF1" stop-opacity="0"/></radialGradient><radialGradient id="k" cx="0" cy="0" r="1" gradientUnits="userSpaceOnUse" gradientTransform="matrix(0 26.852 -26.3518 0 73.761 46.63)"><stop stop-color="#FFA9A5"/><stop offset="1" stop-color="#FFBFBC" stop-opacity="0"/></radialGradient><radialGradient id="l" cx="0" cy="0" r="1" gradientUnits="userSpaceOnUse" gradientTransform="matrix(0 26.852 -26.3518 0 94.89 17.39)"><stop stop-color="#FFA9A5"/><stop offset="1" stop-color="#FFBFBC" stop-opacity="0"/></radialGradient><filter id="h" x="13.097" y="-3.579" width="88.795" height="79.919" filterUnits="userSpaceOnUse" color-interpolation-filters="sRGB"><feFlood flood-opacity="0" result="BackgroundImageFix"/><feColorMatrix in="SourceAlpha" values="0 0 0 0 0 0 0 0 0 0 0 0 0 0 0 0 0 0 127 0" result="hardAlpha"/><feOffset dx="8.822" dy="8.822"/><feGaussianBlur stdDeviation="6.301"/><feColorMatrix values="0 0 0 0 0.486275 0 0 0 0 0.545098 0 0 0 0 0.690196 0 0 0 0.55 0"/><feBlend in2="BackgroundImageFix" result="effect1_dropShadow_1155_98123"/><feBlend in="SourceGraphic" in2="effect1_dropShadow_1155_98123" result="shape"/></filter></defs></svg>