<svg width="64" height="67" viewBox="0 0 64 67" fill="none" xmlns="http://www.w3.org/2000/svg">
<path d="M0.947052 28.9173L0.726562 33.1383L0.947052 37.3594V28.9173ZM2.63281 20.9777L0.947052 28.9173V37.3594L2.63281 20.9777ZM0.947052 37.3594L1.59075 41.4215L2.63281 45.2989L0.947052 37.3594ZM2.63281 20.9777L1.59075 24.8552L0.947052 28.9173L2.63281 20.9777ZM0.947052 37.3594L2.63281 45.2989L5.82193 52.3843L0.947052 37.3594ZM2.63281 45.2989L4.05034 48.9635L5.82193 52.3843L2.63281 45.2989ZM5.82193 13.8924L4.05034 17.3132L2.63281 20.9777L5.82193 13.8924ZM10.3464 7.92017L2.63281 20.9777L0.947052 37.3594L10.3464 7.92017ZM10.3464 7.92017L5.82193 13.8924L2.63281 20.9777L10.3464 7.92017ZM0.947052 37.3594L5.82193 52.3843L16.0483 62.909L0.947052 37.3594ZM10.3464 7.92017L7.92719 10.7492L5.82193 13.8924L10.3464 7.92017ZM5.82193 52.3843L7.92719 55.5275L10.3464 58.3565L5.82193 52.3843ZM10.3464 7.92017L0.947052 37.3594L16.0483 62.909L10.3464 7.92017ZM5.82193 52.3843L10.3464 58.3565L16.0483 62.909L5.82193 52.3843ZM10.3464 58.3565L13.0599 60.8314L16.0483 62.909L10.3464 58.3565ZM16.0483 3.36768L13.0599 5.4453L10.3464 7.92017L16.0483 3.36768Z" fill="#C4C4C4"/>
<path d="M35.9551 65.32L38.7057 64.865L42.2857 64.2715L35.9551 65.32Z" fill="#B0B0B0"/>
<path d="M22.7684 0.59375L16.0486 3.36804L10.3467 7.92053L22.7684 0.59375Z" fill="#C4C4C4"/>
<path d="M39.5635 1.55473L42.2857 2.00501L38.7057 1.41155L39.5635 1.55473ZM35.9551 0.956543L39.5635 1.55473L38.7057 1.41155L35.9551 0.956543ZM39.5635 64.7222L35.9551 65.3204L42.2857 64.2719L39.5635 64.7222ZM39.5635 64.7222L42.2857 64.2719L45.7359 63.1256L39.5635 64.7222Z" fill="#B0B0B0"/>
<path d="M16.0469 62.9094L19.2899 64.5433L22.7667 65.6836L16.0469 62.9094ZM22.7667 0.59375L19.2899 1.73411L16.0469 3.36804L22.7667 0.59375Z" fill="#C4C4C4"/>
<path d="M43.0436 2.71415L45.7375 3.15136L42.2872 2.00501L43.0436 2.71415ZM39.5651 1.55473L43.0436 2.71415L42.2872 2.00501L39.5651 1.55473ZM33.126 65.7886L35.9567 65.3204L39.5651 64.7222L33.126 65.7886ZM43.0436 63.5628L39.5651 64.7222L45.7375 63.1256L43.0436 63.5628ZM43.0436 63.5628L45.7375 63.1256L49.0163 61.4514L43.0436 63.5628ZM36.763 1.09124L39.5651 1.55473L35.9567 0.956543L36.763 1.09124Z" fill="#B0B0B0"/>
<path d="M16.0469 62.9092L22.7667 65.6835L30.2102 66.2708L16.0469 62.9092Z" fill="#C4C4C4"/>
<path d="M46.3499 4.40957L49.0163 4.82553L45.7375 3.15134L46.3499 4.40957ZM33.126 0.488281L36.763 1.09123L35.9567 0.956526L33.126 0.488281Z" fill="#B0B0B0"/>
<path d="M37.4132 1.80056L22.7684 0.59375L10.3467 7.92053L37.4132 1.80056Z" fill="#C4C4C4"/>
<path d="M43.0436 2.7141L46.3499 4.40954L45.7375 3.15131L43.0436 2.7141ZM36.763 65.1856L33.126 65.7886L39.5651 64.7221L36.763 65.1856ZM36.763 65.1856L39.5651 64.7221L43.0436 63.5627L36.763 65.1856ZM46.3499 61.8673L49.0163 61.4513L52.08 59.2772L46.3499 61.8673ZM46.3499 61.8673L43.0436 63.5627L49.0163 61.4513L46.3499 61.8673ZM40.2699 2.26395L43.0436 2.7141L39.5651 1.55469L40.2699 2.26395ZM49.4401 6.61289L52.08 6.99963L49.0163 4.8255L49.4401 6.61289Z" fill="#B0B0B0"/>
<path d="M22.7656 65.6834L26.4541 66.277L30.2092 66.2707L22.7656 65.6834ZM30.2092 0.00624731L26.4541 0L22.7656 0.593533L30.2092 0.00624731Z" fill="#C4C4C4"/>
<path d="M36.7627 1.09131L40.2696 2.26406L39.5648 1.5548L36.7627 1.09131ZM46.3496 4.40966L49.4398 6.613L49.016 4.82562L46.3496 4.40966Z" fill="#B0B0B0"/>
<path d="M10.3467 7.91992L16.0486 62.9087L55.5306 28.3273L10.3467 7.91992Z" fill="#C4C4C4"/>
<path d="M30.209 66.2708L33.1233 65.7887L36.7603 65.1858L30.209 66.2708ZM49.4374 59.6641L52.0773 59.2774L54.8809 56.6344L49.4374 59.6641ZM40.2672 64.013L36.7603 65.1858L43.0408 63.5629L40.2672 64.013ZM49.4374 59.6641L46.3472 61.8674L52.0773 59.2774L49.4374 59.6641ZM40.2672 64.013L43.0408 63.5629L46.3472 61.8674L40.2672 64.013ZM33.8747 0.614062L36.7603 1.09136L33.1233 0.48842L33.8747 0.614062ZM52.2657 9.29285L54.8809 9.64272L52.0773 6.99979L52.2657 9.29285ZM43.6014 3.98135L46.3472 4.40971L43.0408 2.71427L43.6014 3.98135ZM30.209 0.00634766L33.8747 0.614062L33.1233 0.48842L30.209 0.00634766ZM49.4374 6.61306L52.2657 9.29285L52.0773 6.99979L49.4374 6.61306Z" fill="#B0B0B0"/>
<path d="M16.0469 62.9092L30.2102 66.2708L43.9173 60.473L16.0469 62.9092ZM37.4115 1.80044L30.2102 0.00634766L22.7667 0.593633L37.4115 1.80044Z" fill="#C4C4C4"/>
<path d="M40.2672 2.26431L43.6014 3.98155L43.0408 2.71446L40.2672 2.26431ZM52.2657 56.9845L54.8809 56.6346L57.3782 53.5576L52.2657 56.9845ZM33.8747 65.6633L30.209 66.271L36.7603 65.186L33.8747 65.6633ZM52.2657 56.9845L49.4374 59.6643L54.8809 56.6346L52.2657 56.9845ZM33.8747 65.6633L36.7603 65.186L40.2672 64.0132L33.8747 65.6633ZM43.6014 62.296L46.3472 61.8676L49.4374 59.6643L43.6014 62.296ZM43.6014 62.296L40.2672 64.0132L46.3472 61.8676L43.6014 62.296ZM54.7855 12.4142L57.3782 12.72L54.8809 9.64292L54.7855 12.4142ZM37.4102 1.80064L40.2672 2.26431L36.7603 1.09156L37.4102 1.80064ZM46.7182 6.2149L49.4374 6.61326L46.3472 4.40991L46.7182 6.2149ZM52.2657 9.29305L54.7855 12.4142L54.8809 9.64292L52.2657 9.29305ZM54.7855 53.8633L57.3782 53.5576L59.5225 50.0847L54.7855 53.8633ZM33.8747 0.614258L37.4102 1.80064L36.7603 1.09156L33.8747 0.614258ZM43.6014 3.98155L46.7182 6.2149L46.3472 4.40991L43.6014 3.98155ZM54.7855 53.8633L52.2657 56.9845L57.3782 53.5576L54.7855 53.8633ZM56.9495 15.9378L59.5225 16.1928L57.3782 12.72L56.9495 15.9378Z" fill="#B0B0B0"/>
<path d="M30.209 66.2708L33.8747 65.6631L37.4102 64.4767L30.209 66.2708ZM37.4102 1.80044L33.8747 0.614062L30.209 0.00634766L37.4102 1.80044Z" fill="#C4C4C4"/>
<path d="M46.7204 60.0625L49.4396 59.6642L52.2679 56.9844L46.7204 60.0625ZM37.4125 64.4768L33.877 65.6632L40.2694 64.0131L37.4125 64.4768ZM46.7204 60.0625L43.6036 62.2959L49.4396 59.6642L46.7204 60.0625ZM37.4125 64.4768L40.2694 64.0131L43.6036 62.2959L37.4125 64.4768Z" fill="#B0B0B0"/>
<path d="M55.5306 28.3276L37.4132 1.80029L10.3467 7.92027L55.5306 28.3276Z" fill="#C4C4C4"/>
<path d="M56.9514 50.3394L59.5244 50.0844L61.2692 46.2581L56.9514 50.3394ZM54.7874 12.4139L56.9514 15.9374L57.3801 12.7196L54.7874 12.4139ZM49.5734 8.93225L52.2676 9.2927L49.4393 6.61291L49.5734 8.93225ZM58.7124 19.8205L61.2692 20.0187L59.5244 16.1925L58.7124 19.8205ZM40.7742 3.53987L43.6032 3.9812L40.2691 2.26397L40.7742 3.53987ZM56.9514 50.3394L54.7874 53.863L59.5244 50.0844L56.9514 50.3394ZM58.7124 46.4563L61.2692 46.2581L62.5686 42.1245L58.7124 46.4563ZM46.7201 6.21455L49.5734 8.93225L49.4393 6.61291L46.7201 6.21455ZM37.4121 1.80029L40.7742 3.53987L40.2691 2.26397L37.4121 1.80029ZM60.024 24.0162L62.5686 24.1524L61.2692 20.0187L60.024 24.0162ZM56.9514 15.9374L58.7124 19.8205L59.5244 16.1925L56.9514 15.9374ZM49.5734 57.3446L52.2676 56.9842L54.7874 53.863L49.5734 57.3446ZM49.5734 57.3446L46.7201 60.0623L52.2676 56.9842L49.5734 57.3446Z" fill="#B0B0B0"/>
<path d="M30.209 66.2705L37.4102 64.4764L43.9161 60.4727L30.209 66.2705Z" fill="#C4C4C4"/>
<path d="M60.024 42.2609L62.5686 42.1248L63.3785 37.7337L60.024 42.2609ZM58.7124 46.4566L56.9514 50.3397L61.2692 46.2584L58.7124 46.4566ZM60.8416 28.4739L63.3785 28.5437L62.5686 24.1526L60.8416 28.4739ZM40.7742 62.7373L43.6032 62.2959L46.7201 60.0626L40.7742 62.7373ZM40.7742 62.7373L37.4121 64.4768L43.6032 62.2959L40.7742 62.7373ZM52.1159 12.099L54.7874 12.4141L52.2676 9.29297L52.1159 12.099ZM60.8416 37.8035L63.3785 37.7337L63.6572 33.1387L60.8416 37.8035ZM61.123 33.1387H63.6572L63.3785 28.5437L61.123 33.1387ZM58.7124 19.8208L60.024 24.0165L61.2692 20.019L58.7124 19.8208Z" fill="#B0B0B0"/>
<path d="M16.0469 62.9091L43.9173 60.4728L55.5288 28.3276L16.0469 62.9091Z" fill="#C4C4C4"/>
<path d="M43.9171 5.80422L46.7192 6.21472L43.6024 3.98137L43.9171 5.80422ZM60.0232 42.2608L58.7116 46.4565L62.5678 42.1247L60.0232 42.2608ZM49.5725 8.93242L52.1151 12.0989L52.2668 9.29287L49.5725 8.93242ZM52.1151 54.1783L54.7866 53.8632L56.9506 50.3396L52.1151 54.1783ZM60.0232 24.0164L60.8408 28.4738L62.5678 24.1525L60.0232 24.0164ZM60.8408 37.8034L60.0232 42.2608L63.3777 37.7336L60.8408 37.8034ZM40.7734 3.54004L43.9171 5.80422L43.6024 3.98137L40.7734 3.54004ZM52.1151 54.1783L49.5725 57.3448L54.7866 53.8632L52.1151 54.1783ZM54.2989 15.6748L56.9506 15.9376L54.7866 12.414L54.2989 15.6748ZM60.8408 28.4738L61.1221 33.1386L63.3777 28.5436L60.8408 28.4738ZM61.1221 33.1386L60.8408 37.8034L63.6564 33.1386H61.1221ZM43.9171 60.473L46.7192 60.0625L49.5725 57.3448L43.9171 60.473ZM43.9171 60.473L40.7734 62.7371L46.7192 60.0625L43.9171 60.473Z" fill="#B0B0B0"/>
<path d="M37.4121 64.4766L40.7742 62.737L43.9179 60.4728L37.4121 64.4766ZM43.9179 5.80405L40.7742 3.53987L37.4121 1.80029L43.9179 5.80405Z" fill="#C4C4C4"/>
<path d="M54.2997 50.6019L56.9514 50.3391L58.7124 46.456L54.2997 50.6019ZM52.1159 12.0984L54.2997 15.6743L54.7874 12.4135L52.1159 12.0984ZM46.7965 8.56039L49.5734 8.93191L46.7201 6.21421L46.7965 8.56039ZM56.0771 19.6159L58.7124 19.8202L56.9514 15.9371L56.0771 19.6159ZM54.2997 50.6019L52.1159 54.1777L56.9514 50.3391L54.2997 50.6019ZM56.0771 46.6603L58.7124 46.456L60.024 42.2603L56.0771 46.6603ZM43.918 5.80371L46.7965 8.56039L46.7201 6.21421L43.918 5.80371ZM57.4011 23.8755L60.024 24.0159L58.7124 19.8202L57.4011 23.8755ZM54.2997 15.6743L56.0771 19.6159L56.9514 15.9371L54.2997 15.6743ZM46.7965 57.7158L49.5734 57.3443L52.1159 54.1777L46.7965 57.7158Z" fill="#B0B0B0"/>
<path d="M49.3619 11.774L43.9179 5.80405L37.4121 1.80029L49.3619 11.774Z" fill="#C4C4C4"/>
<path d="M46.7965 57.7164L43.918 60.4731L49.5734 57.3449L46.7965 57.7164ZM57.4011 42.4013L60.024 42.2609L60.8416 37.8035L57.4011 42.4013ZM56.0771 46.6609L54.2997 50.6025L58.7124 46.4566L56.0771 46.6609ZM58.2265 28.4021L60.8416 28.474L60.024 24.0165L58.2265 28.4021ZM49.3619 11.7743L52.1159 12.0991L49.5734 8.93255L49.3619 11.7743ZM58.2265 37.8754L60.8416 37.8035L61.123 33.1387L58.2265 37.8754ZM58.5105 33.1387H61.123L60.8416 28.474L58.5105 33.1387ZM56.0771 19.6165L57.4011 23.8762L58.7124 19.8208L56.0771 19.6165ZM57.4011 42.4013L56.0771 46.6609L60.024 42.2609L57.4011 42.4013ZM46.7965 8.56104L49.3619 11.7743L49.5734 8.93255L46.7965 8.56104ZM49.3619 54.5032L52.1159 54.1784L54.2997 50.6025L49.3619 54.5032ZM57.4011 23.8762L58.2265 28.4021L60.024 24.0165L57.4011 23.8762ZM58.2265 37.8754L57.4011 42.4013L60.8416 37.8035L58.2265 37.8754ZM49.3619 54.5032L46.7965 57.7164L52.1159 54.1784L49.3619 54.5032ZM51.5658 15.404L54.2997 15.6749L52.1159 12.0991L51.5658 15.404ZM58.2265 28.4021L58.5105 33.1387L60.8416 28.474L58.2265 28.4021ZM58.5105 33.1387L58.2265 37.8754L61.123 33.1387H58.5105Z" fill="#B0B0B0"/>
<path d="M43.9179 60.4728L46.7964 57.7161L49.3619 54.5029L43.9179 60.4728ZM49.3619 11.774L46.7964 8.56073L43.9179 5.80405L49.3619 11.774ZM55.5294 28.3276L49.3619 11.774L37.4121 1.80029L55.5294 28.3276Z" fill="#C4C4C4"/>
<path d="M51.5682 50.8731L54.3021 50.6022L56.0795 46.6606L51.5682 50.8731ZM49.3643 11.7739L51.5682 15.4036L52.1183 12.0987L49.3643 11.7739ZM53.3621 19.4055L56.0795 19.6162L54.3021 15.6746L53.3621 19.4055ZM51.5682 50.8731L49.3643 54.5029L54.3021 50.6022L51.5682 50.8731Z" fill="#B0B0B0"/>
<path d="M43.918 60.4731L49.3619 54.5032L53.3598 46.8716L43.918 60.4731Z" fill="#C4C4C4"/>
<path d="M53.3594 46.8714L56.0768 46.6607L57.4008 42.4011L53.3594 46.8714ZM54.6959 23.7313L57.4008 23.876L56.0768 19.6164L54.6959 23.7313ZM51.5654 15.4038L53.3594 19.4057L54.2994 15.6748L51.5654 15.4038ZM54.6959 42.5459L57.4008 42.4011L58.2261 37.8752L54.6959 42.5459ZM53.3594 46.8714L51.5654 50.8733L56.0768 46.6607L53.3594 46.8714ZM55.5291 28.3277L58.2261 28.4019L57.4008 23.876L55.5291 28.3277Z" fill="#B0B0B0"/>
<path d="M43.918 60.4728L53.3598 46.8713L55.5295 28.3276L43.918 60.4728Z" fill="#C4C4C4"/>
<path d="M55.5293 37.9494L58.2263 37.8752L58.5103 33.1385L55.5293 37.9494ZM55.816 33.1385H58.5103L58.2263 28.4019L55.816 33.1385Z" fill="#B0B0B0"/>
<path d="M49.3643 54.5029L51.5682 50.8731L53.3621 46.8712L49.3643 54.5029ZM53.3621 19.4055L51.5682 15.4036L49.3643 11.7739L53.3621 19.4055Z" fill="#C4C4C4"/>
<path d="M53.3594 19.4058L54.6959 23.7313L56.0767 19.6164L53.3594 19.4058ZM54.6959 42.5459L53.3594 46.8715L57.4007 42.4012L54.6959 42.5459ZM54.6959 23.7313L55.5291 28.3278L57.4007 23.876L54.6959 23.7313Z" fill="#B0B0B0"/>
<path d="M55.5318 28.3276L53.3621 19.4055L49.3643 11.7739L55.5318 28.3276Z" fill="#C4C4C4"/>
<path d="M55.5314 37.9493L54.6982 42.5458L58.2285 37.8751L55.5314 37.9493ZM55.5314 28.3276L55.8182 33.1385L58.2285 28.4018L55.5314 28.3276ZM55.8182 33.1385L55.5314 37.9493L58.5125 33.1385H55.8182Z" fill="#B0B0B0"/>
<path d="M53.3594 46.8715L54.6959 42.5459L55.5291 37.9494L53.3594 46.8715ZM55.5291 28.3278L54.6959 23.7313L53.3594 19.4058L55.5291 28.3278ZM53.3594 46.8715L55.5291 37.9494V28.3278L53.3594 46.8715ZM55.5291 37.9494L55.8158 33.1386L55.5291 28.3278V37.9494Z" fill="#C4C4C4"/>
<path d="M55.5787 33.2557C55.5787 51.4365 43.3416 66.0113 28.4305 66.0113C13.5194 66.0113 1.28223 51.4365 1.28223 33.2557C1.28223 15.0748 13.5194 0.5 28.4305 0.5C43.3416 0.5 55.5787 15.0748 55.5787 33.2557Z" fill="url(#paint0_linear_1115_95554)" stroke="url(#paint1_linear_1115_95554)"/>
<g filter="url(#filter0_d_1115_95554)">
<path d="M20.8818 27.242L25.1669 27.2971L25.3037 26.6886L20.8818 27.242ZM21.019 26.6278L25.3037 26.6886L25.4637 26.1325L21.019 26.6278ZM21.1795 26.0664L25.4637 26.1325L25.6468 25.6286L21.1795 26.0664ZM21.3631 25.5577L25.6468 25.6286L25.8532 25.177L21.3631 25.5577ZM21.57 25.1019L25.8532 25.177L26.0828 24.7777L21.57 25.1019ZM21.8002 24.6988L26.0828 24.7777L26.3357 24.4307L21.8002 24.6988Z" fill="#E5E5E5"/>
<path d="M18.3371 43.0311L17.7256 43.8021V47.5388L18.3371 43.0311ZM18.0627 24.5151L17.9628 25.01L17.8811 25.5231L18.0627 24.5151ZM18.317 23.5801L18.0627 24.5151L17.8811 25.5231L18.317 23.5801Z" fill="white"/>
<path d="M22.0537 24.3487L26.3355 24.4309L26.6118 24.1362L22.0537 24.3487Z" fill="#E5E5E5"/>
<path d="M18.317 23.5801L18.1807 24.0385L18.0627 24.5151L18.317 23.5801ZM18.9173 42.2948L18.3371 43.0311L17.7256 47.5388L18.9173 42.2948Z" fill="white"/>
<path d="M22.3311 24.0509L26.6121 24.1359L26.9118 23.8936L22.3311 24.0509Z" fill="#E5E5E5"/>
<path d="M19.0446 21.9272L18.3168 23.5797L17.8809 25.5227L19.0446 21.9272Z" fill="white"/>
<path d="M22.3936 43.2657L26.6744 43.1713L26.8486 42.9888L22.3936 43.2657Z" fill="#E5E5E5"/>
<path d="M18.6447 22.7173L18.4719 23.1394L18.3174 23.5797L18.6447 22.7173Z" fill="white"/>
<path d="M22.5674 43.0815L26.8478 42.9889L27.0138 42.814L22.5674 43.0815Z" fill="#E5E5E5"/>
<path d="M19.0452 21.9272L18.6447 22.7172L18.3174 23.5797L19.0452 21.9272Z" fill="white"/>
<path d="M22.6309 23.8062L26.9111 23.8936L27.2342 23.7036L22.6309 23.8062ZM22.7335 42.9046L27.0134 42.8136L27.1712 42.6464L22.7335 42.9046Z" fill="#E5E5E5"/>
<path d="M19.0441 21.9272L18.8346 22.3132L18.6436 22.7172L19.0441 21.9272Z" fill="white"/>
<path d="M22.8922 42.7361L27.1717 42.6467L27.3212 42.4872L22.8922 42.7361ZM21.019 26.6281L20.8818 27.2423L25.3037 26.6889L21.019 26.6281ZM22.9554 23.6147L27.2347 23.7039L27.5814 23.5664L22.9554 23.6147ZM23.0421 42.5751L27.3212 42.4872L27.4625 42.3353L23.0421 42.5751ZM21.1795 26.0667L21.019 26.6281L25.4637 26.1327L21.1795 26.0667ZM23.1838 42.4219L27.4625 42.3353L27.5955 42.1912L23.1838 42.4219Z" fill="#E5E5E5"/>
<path d="M19.5179 21.2095L19.2717 21.5593L19.0439 21.9271L19.5179 21.2095Z" fill="white"/>
<path d="M21.3633 25.5577L21.1797 26.0664L25.6471 25.6286L21.3633 25.5577ZM23.3174 42.2761L27.5957 42.1909L27.7204 42.0545L23.3174 42.2761ZM23.3033 23.4756L27.5817 23.5661L27.952 23.4811L23.3033 23.4756Z" fill="#E5E5E5"/>
<path d="M21.3498 19.5181L19.0446 21.9274L17.8809 25.5228L21.3498 19.5181Z" fill="white"/>
<path d="M23.4424 42.1386L27.7203 42.0547L27.8368 41.926L23.4424 42.1386ZM21.5702 25.1021L21.3633 25.5579L25.8534 25.1772L21.5702 25.1021Z" fill="#E5E5E5"/>
<path d="M20.0657 20.5645L19.5179 21.2099L19.0439 21.9275L20.0657 20.5645Z" fill="white"/>
<path d="M23.5586 42.0088L27.8362 41.926L27.9444 41.8051L23.5586 42.0088ZM23.667 41.8867L27.9444 41.8051L28.0442 41.6919L23.667 41.8867Z" fill="#E5E5E5"/>
<path d="M18.9173 42.2944L17.7256 47.5384L22.3931 43.2655L18.9173 42.2944Z" fill="white"/>
<path d="M21.7996 24.6987L21.5693 25.1018L26.0821 24.7776L21.7996 24.6987ZM23.7668 41.7722L28.0439 41.6916L28.1354 41.5862L23.7668 41.7722ZM23.6737 23.3896L27.9511 23.481L28.3451 23.4487L23.6737 23.3896Z" fill="#E5E5E5"/>
<path d="M20.0663 20.5645L19.7832 20.8781L19.5186 21.2099L20.0663 20.5645Z" fill="white"/>
<path d="M23.8594 41.666L28.1362 41.5864L28.2194 41.4888L23.8594 41.666Z" fill="#E5E5E5"/>
<path d="M17.8809 25.5229L20.8818 27.2423L21.019 26.6281L17.8809 25.5229Z" fill="white"/>
<path d="M23.9423 41.5675L28.2188 41.4888L28.3783 41.2978L23.9423 41.5675ZM22.0534 24.3486L21.7998 24.699L26.3352 24.4308L22.0534 24.3486Z" fill="#E5E5E5"/>
<path d="M17.8809 25.5229L21.019 26.6281L21.1794 26.0667L17.8809 25.5229Z" fill="white"/>
<path d="M24.0693 23.3569L28.3455 23.4487L28.5679 23.4521L24.0693 23.3569ZM24.1024 41.3744L28.3785 41.2975L28.5406 41.0997L24.1024 41.3744Z" fill="#E5E5E5"/>
<path d="M17.8809 25.5228L21.1794 26.0666L21.3631 25.5579L17.8809 25.5228ZM21.3498 19.5181L20.0663 20.5643L19.0446 21.9274L21.3498 19.5181Z" fill="white"/>
<path d="M22.3307 24.0508L22.0537 24.3483L26.6118 24.1358L22.3307 24.0508Z" fill="#E5E5E5"/>
<path d="M17.8809 25.5228L21.3631 25.5579L21.57 25.1021L17.8809 25.5228Z" fill="white"/>
<path d="M24.2646 41.1752L28.5403 41.1002L28.7052 40.8955L24.2646 41.1752Z" fill="#E5E5E5"/>
<path d="M20.6847 19.9912L20.3697 20.2653L20.0663 20.5644L20.6847 19.9912ZM17.8809 25.5229L21.57 25.1021L21.8002 24.699L17.8809 25.5229Z" fill="white"/>
<path d="M24.4307 40.9682L28.7059 40.8951L28.8735 40.6835L24.4307 40.9682ZM22.5677 43.0811L22.3931 43.2653L26.8482 42.9884L22.5677 43.0811ZM22.6316 23.8062L22.3311 24.0508L26.9118 23.8935L22.6316 23.8062Z" fill="#E5E5E5"/>
<path d="M17.8809 25.5228L21.8002 24.699L22.0538 24.3486L17.8809 25.5228Z" fill="white"/>
<path d="M24.5984 40.7548L28.8732 40.6837L29.0435 40.4653L24.5984 40.7548ZM22.7338 42.9047L22.5674 43.0812L27.0138 42.8137L22.7338 42.9047Z" fill="#E5E5E5"/>
<path d="M21.3498 19.5181L20.6847 19.9912L20.0663 20.5643L21.3498 19.5181ZM17.8809 25.5228L22.0538 24.3486L22.3308 24.0511L17.8809 25.5228ZM19.4658 41.5933L18.9171 42.2946L23.9427 41.5675L19.4658 41.5933Z" fill="white"/>
<path d="M24.7689 40.5346L29.0431 40.4656L29.2162 40.2403L24.7689 40.5346ZM22.8917 42.7362L22.7335 42.9049L27.1712 42.6467L22.8917 42.7362ZM22.9549 23.6147L22.6309 23.8065L27.2342 23.7039L22.9549 23.6147Z" fill="#E5E5E5"/>
<path d="M17.8809 25.5225L22.3308 24.0508L22.6313 23.8062L17.8809 25.5225Z" fill="white"/>
<path d="M24.9424 40.3069L29.2161 40.2399L29.3919 40.0078L24.9424 40.3069ZM23.0415 42.5747L22.8916 42.7358L27.3206 42.4868L23.0415 42.5747Z" fill="#E5E5E5"/>
<path d="M21.3496 19.5181L21.0112 19.7421L20.6846 19.9912L21.3496 19.5181Z" fill="white"/>
<path d="M23.1827 42.4217L23.041 42.575L27.4614 42.3352L23.1827 42.4217ZM25.1182 40.0728L29.3914 40.008L29.5699 39.769L25.1182 40.0728Z" fill="#E5E5E5"/>
<path d="M17.8809 25.5229L22.6313 23.8065L22.9554 23.6147L17.8809 25.5229Z" fill="white"/>
<path d="M23.3027 23.4756L22.9551 23.6145L27.5811 23.5662L23.3027 23.4756ZM25.4413 18.6709L29.7136 18.8068L29.2441 18.7713L25.4413 18.6709ZM23.3168 42.2762L23.1834 42.4216L27.5951 42.1909L23.3168 42.2762ZM25.298 39.8315L29.5707 39.7689L29.752 39.5231L25.298 39.8315Z" fill="#E5E5E5"/>
<path d="M17.8809 25.5226L22.9554 23.6144L23.3031 23.4756L17.8809 25.5226Z" fill="white"/>
<path d="M23.4415 42.1386L23.3164 42.2763L27.7194 42.0547L23.4415 42.1386Z" fill="#E5E5E5"/>
<path d="M18.917 42.2944L22.3928 43.2655L23.042 42.5749L18.917 42.2944Z" fill="white"/>
<path d="M25.4807 39.5832L29.7529 39.5229L29.937 39.2701L25.4807 39.5832ZM23.5596 42.0085L23.4428 42.1384L27.8372 41.9257L23.5596 42.0085ZM23.6751 23.3897L23.3037 23.4755L27.9524 23.4811L23.6751 23.3897ZM23.668 41.8864L23.5596 42.0085L27.9454 41.8048L23.668 41.8864ZM25.6653 39.328L29.937 39.2701L30.1237 39.0104L25.6653 39.328ZM25.8951 18.7378L30.1661 18.8731L29.7146 18.8067L25.8951 18.7378Z" fill="#E5E5E5"/>
<path d="M22.0616 19.145L21.6997 19.3189L21.3496 19.5179L22.0616 19.145Z" fill="white"/>
<path d="M23.7671 41.7722L23.667 41.8864L28.0442 41.6916L23.7671 41.7722ZM23.8589 41.6658L23.7671 41.7722L28.1357 41.5862L23.8589 41.6658ZM25.8516 39.0659L30.1227 39.0105L30.3122 38.7438L25.8516 39.0659ZM23.9423 41.5672L23.8589 41.6658L28.2189 41.4885L23.9423 41.5672ZM24.0692 23.3569L23.674 23.3897L28.3454 23.4487L24.0692 23.3569Z" fill="#E5E5E5"/>
<path d="M18.917 42.2945L23.042 42.575L23.9426 41.5674L18.917 42.2945Z" fill="white"/>
<path d="M24.1023 41.3745L23.9424 41.5673L28.3784 41.2977L24.1023 41.3745ZM26.0417 38.7969L30.3123 38.744L30.5327 38.4463L26.0417 38.7969Z" fill="#E5E5E5"/>
<path d="M22.8207 18.8726L22.0616 19.1449L21.3496 19.5178L22.8207 18.8726Z" fill="white"/>
<path d="M26.3292 18.8364L30.5989 18.9709L30.1653 18.8734L26.3292 18.8364ZM24.265 41.175L24.1024 41.3747L28.5406 41.1L24.265 41.175ZM24.2923 23.3606L24.0693 23.3572L28.5679 23.4524L24.2923 23.3606ZM26.2628 38.4965L30.5328 38.4464L30.7485 38.1474L26.2628 38.4965ZM24.4303 40.9684L24.265 41.175L28.7055 40.8953L24.4303 40.9684Z" fill="#E5E5E5"/>
<path d="M27.8875 19.5445L21.3498 19.5178L17.8809 25.5225L27.8875 19.5445ZM22.8209 18.8726L22.4354 18.9962L22.0617 19.1449L22.8209 18.8726Z" fill="white"/>
<path d="M26.4795 38.1947L30.7488 38.1474L30.9597 37.847L26.4795 38.1947ZM24.5987 40.755L24.4307 40.9685L28.8734 40.6839L24.5987 40.755ZM26.7463 18.9663L31.0149 19.0997L30.5993 18.971L26.7463 18.9663Z" fill="#E5E5E5"/>
<path d="M22.3936 43.2656L22.5682 43.0813L22.7347 42.9048L22.3936 43.2656Z" fill="white"/>
<path d="M26.6899 37.8911L30.9587 37.8467L31.1648 37.5449L26.6899 37.8911ZM24.7685 40.5342L24.5977 40.7546L29.0427 40.4651L24.7685 40.5342Z" fill="#E5E5E5"/>
<path d="M22.3936 43.2658L22.7347 42.905L23.0428 42.5752L22.3936 43.2658Z" fill="white"/>
<path d="M24.9441 40.3072L24.7705 40.5346L29.2178 40.2402L24.9441 40.3072Z" fill="#E5E5E5"/>
<path d="M24.482 18.6309L22.8207 18.8728L21.3496 19.518L24.482 18.6309Z" fill="white"/>
<path d="M26.8975 37.5869L31.1656 37.5453L31.367 37.2422L26.8975 37.5869Z" fill="#E5E5E5"/>
<path d="M22.7344 42.905L22.8926 42.7362L23.0425 42.5752L22.7344 42.905Z" fill="white"/>
<path d="M27.1455 19.1275L31.4129 19.2595L31.0154 19.0996L27.1455 19.1275Z" fill="#E5E5E5"/>
<path d="M19.9828 40.9274L19.4658 41.5935L29.5678 32.4022L19.9828 40.9274ZM27.8875 19.5449L17.8809 25.5229L23.3031 23.4759L27.8875 19.5449Z" fill="white"/>
<path d="M25.1187 40.0728L24.9424 40.3071L29.3919 40.008L25.1187 40.0728ZM27.0991 37.2808L31.3667 37.242L31.5634 36.9376L27.0991 37.2808ZM24.9702 18.6353L25.441 18.671L29.2439 18.7714L24.9702 18.6353Z" fill="#E5E5E5"/>
<path d="M23.041 42.5751L23.1827 42.4218L23.316 42.2764L23.041 42.5751Z" fill="white"/>
<path d="M25.2972 39.8316L25.1182 40.0728L29.5699 39.769L25.2972 39.8316Z" fill="#E5E5E5"/>
<path d="M23.627 18.7012L23.2177 18.7743L22.8203 18.8727L23.627 18.7012Z" fill="white"/>
<path d="M27.2969 36.9735L31.5638 36.9376L31.7558 36.6318L27.2969 36.9735Z" fill="#E5E5E5"/>
<path d="M23.041 42.5751L23.316 42.2763L23.5578 42.0088L23.041 42.5751Z" fill="white"/>
<path d="M27.5254 19.3206L31.7917 19.4509L31.4123 19.2598L27.5254 19.3206Z" fill="#E5E5E5"/>
<path d="M20.4676 40.2969L19.9824 40.9276L29.5674 32.4023L20.4676 40.2969Z" fill="white"/>
<path d="M25.4796 39.5837L25.2979 39.8319L29.7519 39.5234L25.4796 39.5837Z" fill="#E5E5E5"/>
<path d="M23.3164 42.2763L23.4415 42.1387L23.5582 42.0088L23.3164 42.2763Z" fill="white"/>
<path d="M27.4902 36.6648L31.7566 36.6319L31.9437 36.3247L27.4902 36.6648ZM22.3936 43.2656L31.7081 43.4114L26.6744 43.1713L22.3936 43.2656Z" fill="#E5E5E5"/>
<path d="M23.041 42.575L23.5578 42.0087L23.9416 41.5674L23.041 42.575Z" fill="white"/>
<path d="M25.4404 18.6709L25.8933 18.7379L29.7127 18.8068L25.4404 18.6709ZM25.6635 39.3281L25.4789 39.5833L29.9352 39.2703L25.6635 39.3281Z" fill="#E5E5E5"/>
<path d="M24.4816 18.6309L23.627 18.7013L22.8203 18.8728L24.4816 18.6309Z" fill="white"/>
<path d="M27.6768 36.3547L31.9426 36.3246L32.125 36.0161L27.6768 36.3547Z" fill="#E5E5E5"/>
<path d="M20.9209 39.7019L20.4678 40.2969L29.5676 32.4023L20.9209 39.7019ZM23.5588 42.009L23.6672 41.887L23.7673 41.7727L23.5588 42.009Z" fill="white"/>
<path d="M27.8867 19.5449L32.152 19.673L31.7908 19.4507L27.8867 19.5449Z" fill="#E5E5E5"/>
<path d="M23.5586 42.0087L23.7671 41.7724L23.9424 41.5674L23.5586 42.0087Z" fill="white"/>
<path d="M25.8524 39.0663L25.665 39.3284L30.1235 39.0109L25.8524 39.0663ZM27.8605 36.0435L32.1258 36.0163L32.3034 35.7065L27.8605 36.0435Z" fill="#E5E5E5"/>
<path d="M23.7677 41.7727L23.8595 41.6663L23.943 41.5677L23.7677 41.7727ZM17.7256 47.5388L31.7077 43.4116L22.3931 43.2659L17.7256 47.5388ZM21.3424 39.1425L20.9213 39.7019L29.568 32.4023L21.3424 39.1425Z" fill="white"/>
<path d="M26.0426 38.7967L25.8525 39.0659L30.3132 38.7438L26.0426 38.7967ZM28.0388 35.7303L32.3036 35.7061L32.4763 35.395L28.0388 35.7303ZM25.8951 18.7378L26.3299 18.8362L30.1661 18.8731L25.8951 18.7378ZM28.2319 19.8005L32.4961 19.9263L32.1533 19.6727L28.2319 19.8005Z" fill="#E5E5E5"/>
<path d="M24.4825 18.6309L24.0492 18.6534L23.6279 18.7013L24.4825 18.6309ZM23.9431 41.5674L24.103 41.3746L24.2656 41.175L23.9431 41.5674Z" fill="white"/>
<path d="M26.263 38.4967L26.042 38.7972L30.533 38.4466L26.263 38.4967ZM28.2114 35.4167L32.4757 35.3954L32.6437 35.083L28.2114 35.4167Z" fill="#E5E5E5"/>
<path d="M21.731 38.6191L21.3422 39.1425L29.5678 32.4023L21.731 38.6191ZM23.9427 41.5677L24.2652 41.1753L24.5987 40.7552L23.9427 41.5677ZM19.4658 41.5936L23.9427 41.5677L29.5678 32.4023L19.4658 41.5936Z" fill="white"/>
<path d="M28.3796 35.1008L32.6434 35.0825L32.8021 34.7787L28.3796 35.1008ZM28.5564 20.0881L32.8197 20.2112L32.4952 19.9263L28.5564 20.0881ZM26.479 38.1944L26.2627 38.4962L30.7483 38.1471L26.479 38.1944Z" fill="#E5E5E5"/>
<path d="M24.2646 41.175L24.43 40.9684L24.5981 40.7549L24.2646 41.175Z" fill="white"/>
<path d="M26.3281 18.8364L26.7449 18.9662L30.5979 18.9709L26.3281 18.8364Z" fill="#E5E5E5"/>
<path d="M22.0869 38.1317L21.7305 38.6191L29.5673 32.4023L22.0869 38.1317Z" fill="white"/>
<path d="M28.5382 34.7942L32.8016 34.7788L32.9572 34.4663L28.5382 34.7942ZM31.7065 43.4111L35.9604 43.3141L26.6729 43.1711L31.7065 43.4111Z" fill="#E5E5E5"/>
<path d="M27.8873 19.5447L24.482 18.6309L21.3496 19.518L27.8873 19.5447Z" fill="white"/>
<path d="M26.6901 37.8916L26.4785 38.1949L30.9588 37.8472L26.6901 37.8916Z" fill="#E5E5E5"/>
<path d="M23.9424 41.5674L24.5983 40.7548L25.298 39.8315L23.9424 41.5674Z" fill="white"/>
<path d="M28.6963 34.4788L32.9592 34.4664L33.1118 34.1452L28.6963 34.4788ZM28.8648 20.4075L33.1272 20.5277L32.8211 20.2114L28.8648 20.4075Z" fill="#E5E5E5"/>
<path d="M22.4118 37.6804L22.0879 38.1317L29.5683 32.4023L22.4118 37.6804ZM24.5992 40.7552L24.77 40.5348L24.9435 40.3074L24.5992 40.7552Z" fill="white"/>
<path d="M26.8962 37.5869L26.6895 37.8915L31.1644 37.5453L26.8962 37.5869ZM28.8469 34.1548L33.1093 34.1454L33.2589 33.8155L28.8469 34.1548ZM26.7447 18.9663L27.1434 19.1276L31.0133 19.0997L26.7447 18.9663Z" fill="#E5E5E5"/>
<path d="M22.7035 37.2655L22.4121 37.6804L29.5686 32.4023L22.7035 37.2655Z" fill="white"/>
<path d="M28.9971 33.8218L33.259 33.8156L33.4056 33.4771L28.9971 33.8218Z" fill="#E5E5E5"/>
<path d="M24.5977 40.7548L24.942 40.3071L25.2973 39.8315L24.5977 40.7548Z" fill="white"/>
<path d="M29.1533 20.7585L33.4148 20.8755L33.1272 20.5278L29.1533 20.7585Z" fill="#E5E5E5"/>
<path d="M27.8881 19.5447L23.3037 23.4757L23.6751 23.3899L27.8881 19.5447ZM25.4422 18.671L24.9714 18.6353L24.4828 18.6309L25.4422 18.671Z" fill="white"/>
<path d="M27.0995 37.2809L26.8975 37.5869L31.367 37.2422L27.0995 37.2809Z" fill="#E5E5E5"/>
<path d="M22.9608 36.887L22.7021 37.2655L29.5673 32.4023L22.9608 36.887Z" fill="white"/>
<path d="M29.1455 33.4801L33.407 33.4771L33.5505 33.1299L29.1455 33.4801Z" fill="#E5E5E5"/>
<path d="M24.9424 40.3071L25.1187 40.0728L25.2977 39.8315L24.9424 40.3071Z" fill="white"/>
<path d="M27.2979 36.9734L27.1006 37.2807L31.5648 36.9375L27.2979 36.9734Z" fill="#E5E5E5"/>
<path d="M27.8879 19.5449L23.6748 23.3901L24.0699 23.3573L27.8879 19.5449Z" fill="white"/>
<path d="M29.4206 21.1252L33.6813 21.2388L33.4144 20.8754L29.4206 21.1252ZM29.2899 33.1293L33.551 33.1296L33.6914 32.7737L29.2899 33.1293ZM27.1455 19.1274L27.526 19.3203L31.4129 19.2594L27.1455 19.1274ZM29.4307 32.77L33.6914 32.7737L33.8287 32.4091L29.4307 32.77Z" fill="#E5E5E5"/>
<path d="M23.5876 35.9333L22.9609 36.887L29.5674 32.4023L23.5876 35.9333ZM23.9423 41.5677L25.2979 39.8319L26.8973 37.5871L23.9423 41.5677Z" fill="white"/>
<path d="M27.4894 36.6648L27.2969 36.9735L31.7558 36.6318L27.4894 36.6648Z" fill="#E5E5E5"/>
<path d="M27.8873 19.5447L24.0693 23.3572L24.2923 23.3606L27.8873 19.5447ZM26.3292 18.8364L25.4414 18.671L24.4819 18.6309L26.3292 18.8364Z" fill="white"/>
<path d="M29.6641 21.506L33.9241 21.616L33.6802 21.2388L29.6641 21.506Z" fill="#E5E5E5"/>
<path d="M25.2979 39.8315L25.4796 39.5833L25.6642 39.3281L25.2979 39.8315Z" fill="white"/>
<path d="M29.5674 32.4023L33.8277 32.4094L33.9619 32.0361L29.5674 32.4023Z" fill="#E5E5E5"/>
<path d="M27.8869 19.5449L24.292 23.3608L24.5063 23.3781L27.8869 19.5449Z" fill="white"/>
<path d="M27.677 36.3547L27.4893 36.6647L31.9428 36.3246L27.677 36.3547ZM27.5251 19.3203L27.8873 19.5447L31.7914 19.4505L27.5251 19.3203ZM29.7022 32.0252L33.9621 32.0359L34.0933 31.6539L29.7022 32.0252Z" fill="#E5E5E5"/>
<path d="M25.2979 39.8315L25.6642 39.3281L26.0416 38.7969L25.2979 39.8315Z" fill="white"/>
<path d="M29.8857 21.9009L34.1451 22.0072L33.9243 21.6162L29.8857 21.9009Z" fill="#E5E5E5"/>
<path d="M27.8865 19.5449L24.5059 23.3781L24.7115 23.4092L27.8865 19.5449Z" fill="white"/>
<path d="M27.8597 36.0432L27.6768 36.3546L32.125 36.0161L27.8597 36.0432ZM29.8336 31.6395L34.0931 31.6538L34.2212 31.2632L29.8336 31.6395Z" fill="#E5E5E5"/>
<path d="M24.1611 35.0029L23.5879 35.9329L29.5677 32.4019L24.1611 35.0029ZM27.8874 19.5446L24.7124 23.4089L24.9093 23.4539L27.8874 19.5446ZM25.6646 39.3281L25.8519 39.066L26.042 38.7969L25.6646 39.3281ZM26.3293 18.8363L25.8944 18.7379L25.4415 18.6709L26.3293 18.8363Z" fill="white"/>
<path d="M29.9628 31.2454L34.2219 31.2635L34.3469 30.8641L29.9628 31.2454ZM30.0846 22.3095L34.3433 22.412L34.1456 22.0073L30.0846 22.3095ZM28.0385 35.7307L27.8604 36.0435L32.3033 35.7065L28.0385 35.7307ZM27.8878 19.5449L28.2316 19.8009L32.153 19.6731L27.8878 19.5449Z" fill="#E5E5E5"/>
<path d="M27.8863 19.5449L24.9082 23.4541L25.0964 23.513L27.8863 19.5449Z" fill="white"/>
<path d="M30.0879 30.8422L34.3466 30.8641L34.465 30.4487L30.0879 30.8422Z" fill="#E5E5E5"/>
<path d="M25.2979 39.8317L26.0416 38.7971L26.8972 37.5869L25.2979 39.8317Z" fill="white"/>
<path d="M30.2598 22.732L34.518 22.8306L34.3435 22.4121L30.2598 22.732Z" fill="#E5E5E5"/>
<path d="M27.8875 19.5449L25.0977 23.513L25.2771 23.5856L27.8875 19.5449Z" fill="white"/>
<path d="M28.2114 35.4166L28.0381 35.7306L32.4757 35.3953L28.2114 35.4166ZM30.2065 30.4228L34.4649 30.4486L34.573 30.0371L30.2065 30.4228Z" fill="#E5E5E5"/>
<path d="M24.6806 34.0972L24.1611 35.0032L29.5677 32.4022L24.6806 34.0972ZM27.8874 19.5449L25.277 23.5856L25.4477 23.6722L27.8874 19.5449Z" fill="white"/>
<path d="M30.3145 30.0072L34.5725 30.037L34.6703 29.6294L30.3145 30.0072Z" fill="#E5E5E5"/>
<path d="M27.8868 19.5447L26.3287 18.8364L24.4814 18.6309L27.8868 19.5447Z" fill="white"/>
<path d="M30.4121 23.1678L34.6699 23.2622L34.5185 22.8301L30.4121 23.1678Z" fill="#E5E5E5"/>
<path d="M26.042 38.7971L26.263 38.4967L26.4793 38.1948L26.042 38.7971Z" fill="white"/>
<path d="M28.3794 35.1011L28.2109 35.4165L32.6432 35.0829L28.3794 35.1011ZM28.2308 19.8008L28.5562 20.0884L32.495 19.9266L28.2308 19.8008Z" fill="#E5E5E5"/>
<path d="M27.8879 19.5449L25.4482 23.6722L25.6102 23.7726L27.8879 19.5449Z" fill="white"/>
<path d="M30.4131 29.5956L34.6708 29.6292L34.7584 29.2256L30.4131 29.5956ZM30.5396 23.6178L34.7969 23.708L34.6688 23.2622L30.5396 23.6178ZM30.5009 29.188L34.7584 29.2256L34.8357 28.8258L30.5009 29.188Z" fill="#E5E5E5"/>
<path d="M27.8871 19.5449L25.6094 23.7726L25.7626 23.8869L27.8871 19.5449Z" fill="white"/>
<path d="M28.5391 34.7947L28.3799 35.1014L32.8024 34.7793L28.5391 34.7947Z" fill="#E5E5E5"/>
<path d="M25.1452 33.2155L24.6797 34.0973L29.5668 32.4023L25.1452 33.2155ZM26.041 38.7973L26.4783 38.195L26.8967 37.5871L26.041 38.7973Z" fill="white"/>
<path d="M30.5781 28.7845L34.8354 28.8259L34.9024 28.4301L30.5781 28.7845ZM30.6444 24.0816L34.9015 24.1674L34.7966 23.708L30.6444 24.0816Z" fill="#E5E5E5"/>
<path d="M27.8872 19.5449L25.7627 23.8869L25.9071 24.0151L27.8872 19.5449Z" fill="white"/>
<path d="M30.6457 28.3852L34.9027 28.4303L34.9594 28.0385L30.6457 28.3852ZM30.7266 24.5592L34.9834 24.6405L34.9018 24.1676L30.7266 24.5592ZM28.6952 34.479L28.5391 34.7944L32.9581 34.4665L28.6952 34.479ZM30.7025 27.9896L34.9594 28.0385L35.0058 27.6508L30.7025 27.9896ZM28.5567 20.0884L28.8637 20.4076L32.82 20.2116L28.5567 20.0884Z" fill="#E5E5E5"/>
<path d="M27.8874 19.5449L25.9072 24.0151L26.0428 24.1572L27.8874 19.5449Z" fill="white"/>
<path d="M30.749 27.5983L35.0058 27.6509L35.0419 27.2672L30.749 27.5983ZM30.785 25.0504L35.0416 25.1271L34.9834 24.6406L30.785 25.0504ZM30.7852 27.2109L35.0419 27.2672L35.0676 26.8875L30.7852 27.2109ZM30.8201 25.5551L35.0766 25.627L35.0416 25.1271L30.8201 25.5551Z" fill="#E5E5E5"/>
<path d="M26.4785 38.1948L26.6901 37.8915L26.8969 37.5869L26.4785 38.1948Z" fill="white"/>
<path d="M30.8105 26.8275L35.0671 26.8873L35.0826 26.5117L30.8105 26.8275Z" fill="#E5E5E5"/>
<path d="M27.8865 19.5449L26.042 24.1572L26.1688 24.3132L27.8865 19.5449Z" fill="white"/>
<path d="M30.8323 26.0733L35.0888 26.1403L35.0772 25.627L30.8323 26.0733ZM30.8271 26.4484L35.0837 26.5118L35.0888 26.1403L30.8271 26.4484Z" fill="#E5E5E5"/>
<path d="M27.1436 19.1275L26.7449 18.9662L26.3281 18.8364L27.1436 19.1275Z" fill="white"/>
<path d="M28.8494 34.1544L28.6963 34.4786L33.1118 34.145L28.8494 34.1544Z" fill="#E5E5E5"/>
<path d="M25.5572 32.3581L25.1459 33.2154L29.5674 32.4022L25.5572 32.3581ZM27.8872 19.5449L26.1694 24.3132L26.2867 24.4816L27.8872 19.5449ZM23.9424 41.5676L26.8974 37.587L29.5674 32.4022L23.9424 41.5676ZM27.8872 19.5449L26.2867 24.4816L26.3938 24.6612L27.8872 19.5449Z" fill="white"/>
<path d="M28.9977 33.8218L28.8477 34.1548L33.2596 33.8156L28.9977 33.8218ZM28.8631 20.4077L29.1516 20.7586L33.1254 20.5279L28.8631 20.4077Z" fill="#E5E5E5"/>
<path d="M27.8866 19.5449L26.3933 24.6612L26.4902 24.8517L27.8866 19.5449ZM27.8866 19.5449L26.4902 24.8517L26.577 25.0534L27.8866 19.5449ZM25.9135 31.5255L25.5566 32.3581L29.5669 32.4022L25.9135 31.5255ZM27.8866 19.5449L26.577 25.0534L26.6536 25.266L27.8866 19.5449Z" fill="white"/>
<path d="M29.144 33.4801L28.9971 33.8218L33.4056 33.4771L29.144 33.4801Z" fill="#E5E5E5"/>
<path d="M17.7256 47.5385L31.7077 47.852V43.4113L17.7256 47.5385ZM27.8877 19.5448L26.6547 25.2659L26.7211 25.4896L27.8877 19.5448ZM26.8979 37.5868L27.1 37.2808L27.2972 36.9735L26.8979 37.5868ZM27.8877 19.5448L27.1451 19.1275L26.3296 18.8364L27.8877 19.5448ZM27.8877 19.5448L26.7211 25.4896L26.7773 25.7243L27.8877 19.5448ZM27.8877 19.5448L26.7773 25.7243L26.8233 25.9701L27.8877 19.5448ZM26.8775 27.7423L26.7948 28.4476L27.8877 19.5448L26.8775 27.7423Z" fill="white"/>
<path d="M29.2894 33.1292L29.1455 33.4797L33.5505 33.1295L29.2894 33.1292ZM29.1524 20.7583L29.4201 21.1251L33.414 20.8753L29.1524 20.7583Z" fill="#E5E5E5"/>
<path d="M26.8227 25.9703L26.8584 26.2271L27.8871 19.5449L26.8227 25.9703ZM26.8584 26.2271L26.884 26.4948L27.8871 19.5449L26.8584 26.2271ZM26.9044 27.0634L26.8769 27.7425L27.8871 19.5449L26.9044 27.0634ZM26.884 26.4948L26.8993 26.7736L27.8871 19.5449L26.884 26.4948ZM26.8993 26.7736L26.9044 27.0634L27.8871 19.5449L26.8993 26.7736ZM26.2164 30.7179L25.9141 31.5255L29.5674 32.4022L26.2164 30.7179ZM26.8973 37.587L27.2966 36.9737L27.6768 36.3549L26.8973 37.587Z" fill="white"/>
<path d="M29.4309 32.77L29.29 33.1293L33.6915 32.7737L29.4309 32.77Z" fill="#E5E5E5"/>
<path d="M26.4634 29.9355L26.2158 30.7178L29.5669 32.4021L26.4634 29.9355Z" fill="white"/>
<path d="M29.4189 21.1255L29.6636 21.5063L33.6797 21.239L29.4189 21.1255ZM29.5668 32.4022L29.429 32.7703L33.827 32.4093L29.5668 32.4022Z" fill="#E5E5E5"/>
<path d="M27.2956 36.9734L27.4881 36.6647L27.6758 36.3546L27.2956 36.9734ZM27.8861 19.5447L27.5239 19.3203L27.1435 19.1274L27.8861 19.5447ZM26.6556 29.1786L26.4629 29.9354L29.5664 32.4019L26.6556 29.1786Z" fill="white"/>
<path d="M31.707 47.8517L35.9609 47.7126V43.314L31.707 47.8517ZM29.702 32.0249L29.5674 32.4017L33.9619 32.0356L29.702 32.0249Z" fill="#E5E5E5"/>
<path d="M26.897 37.587L27.6765 36.3549L28.3793 35.1013L26.897 37.587ZM26.7939 28.4478L26.6562 29.1789L29.5671 32.4022L26.7939 28.4478Z" fill="white"/>
<path d="M29.6641 21.5059L29.8855 21.9005L33.9241 21.6159L29.6641 21.5059ZM29.8335 31.6393L29.7019 32.025L34.093 31.6537L29.8335 31.6393Z" fill="#E5E5E5"/>
<path d="M27.6768 36.3546L27.8597 36.0432L28.0378 35.7305L27.6768 36.3546Z" fill="white"/>
<path d="M29.9635 31.2453L29.835 31.6397L34.2226 31.2634L29.9635 31.2453ZM29.887 21.9009L30.0853 22.3094L34.1463 22.0072L29.887 21.9009ZM30.0889 30.8422L29.9635 31.2453L34.3476 30.8641L30.0889 30.8422Z" fill="#E5E5E5"/>
<path d="M27.6775 36.3549L28.0385 35.7307L28.3803 35.1013L27.6775 36.3549ZM26.7949 28.4477L29.5681 32.4022L27.8878 19.5449L26.7949 28.4477Z" fill="white"/>
<path d="M30.084 22.3091L30.259 22.7315L34.3427 22.4116L30.084 22.3091ZM30.2063 30.4224L30.0876 30.8418L34.4647 30.4483L30.2063 30.4224Z" fill="#E5E5E5"/>
<path d="M28.0381 35.7306L28.2114 35.4165L28.3799 35.1011L28.0381 35.7306Z" fill="white"/>
<path d="M30.3145 30.0073L30.2061 30.4228L34.5725 30.0371L30.3145 30.0073Z" fill="#E5E5E5"/>
<path d="M28.556 20.0885L28.2306 19.8009L27.8867 19.5449L28.556 20.0885Z" fill="white"/>
<path d="M30.2598 22.7319L30.4116 23.1682L34.518 22.8305L30.2598 22.7319Z" fill="#E5E5E5"/>
<path d="M26.8975 37.5871L28.3797 35.1014L29.5675 32.4023L26.8975 37.5871Z" fill="white"/>
<path d="M30.4126 29.5957L30.3145 30.0072L34.6703 29.6294L30.4126 29.5957ZM30.4106 23.168L30.5391 23.618L34.6683 23.2624L30.4106 23.168ZM30.5004 29.1882L30.4126 29.5957L34.7579 29.2257L30.5004 29.1882ZM30.5779 28.7847L30.5004 29.1882L34.8352 28.826L30.5779 28.7847ZM30.5391 23.618L30.6442 24.0817L34.7964 23.7082L30.5391 23.618Z" fill="#E5E5E5"/>
<path d="M29.1515 20.7587L28.556 20.0885L27.8867 19.5449L29.1515 20.7587ZM28.3792 35.1013L28.5384 34.7946L28.6945 34.4791L28.3792 35.1013Z" fill="white"/>
<path d="M30.6453 28.3854L30.5781 28.785L34.9024 28.4306L30.6453 28.3854ZM30.6444 24.082L30.7262 24.5595L34.9015 24.1678L30.6444 24.082ZM30.7022 27.9899L30.6453 28.3854L34.9591 28.0388L30.7022 27.9899ZM30.7487 27.5985L30.7022 27.9899L35.0055 27.651L30.7487 27.5985ZM30.7262 24.5595L30.7847 25.0505L34.9831 24.6408L30.7262 24.5595Z" fill="#E5E5E5"/>
<path d="M28.3799 35.1012L28.6952 34.479L28.9983 33.8218L28.3799 35.1012Z" fill="white"/>
<path d="M30.7852 27.2108L30.749 27.5982L35.0419 27.2671L30.7852 27.2108ZM30.785 25.0503L30.8201 25.555L35.0416 25.127L30.785 25.0503ZM30.8111 26.8275L30.7852 27.2108L35.0676 26.8874L30.8111 26.8275ZM30.8266 26.4483L30.8111 26.8275L35.0831 26.5117L30.8266 26.4483ZM30.8201 25.555L30.8318 26.0732L35.0766 25.6269L30.8201 25.555ZM30.8318 26.0732L30.8266 26.4483L35.0883 26.1402L30.8318 26.0732Z" fill="#E5E5E5"/>
<path d="M28.6945 34.4791L28.8476 34.1549L28.9976 33.8219L28.6945 34.4791ZM29.1515 20.7587L28.863 20.4078L28.556 20.0885L29.1515 20.7587ZM28.3792 35.1013L28.9976 33.8219L29.567 32.4022L28.3792 35.1013ZM30.0835 22.3095L29.1515 20.7587L27.8867 19.5449L30.0835 22.3095ZM28.9976 33.8219L29.1446 33.4801L29.2884 33.1296L28.9976 33.8219ZM28.9976 33.8219L29.2884 33.1296L29.567 32.4022L28.9976 33.8219ZM29.6638 21.5063L29.4192 21.1255L29.1515 20.7587L29.6638 21.5063ZM29.2884 33.1296L29.4293 32.7703L29.567 32.4022L29.2884 33.1296ZM29.567 32.4022L30.8311 26.0733L27.8867 19.5449L29.567 32.4022ZM30.8311 26.0733L30.0835 22.3095L27.8867 19.5449L30.8311 26.0733ZM30.0835 22.3095L29.6638 21.5063L29.1515 20.7587L30.0835 22.3095Z" fill="white"/>
<path d="M31.708 43.411V47.8517L35.9619 43.314L31.708 43.411Z" fill="#E5E5E5"/>
<path d="M29.5674 32.4018L29.702 32.025L29.8336 31.6393L29.5674 32.4018ZM29.5674 32.4018L29.8336 31.6393L30.0875 30.8418L29.5674 32.4018ZM30.0839 22.3091L29.8856 21.9005L29.6642 21.5059L30.0839 22.3091ZM29.8336 31.6393L29.9621 31.245L30.0875 30.8418L29.8336 31.6393ZM29.5674 32.4018L30.0875 30.8418L30.5006 29.188L29.5674 32.4018ZM30.0875 30.8418L30.2062 30.4225L30.3147 30.007L30.0875 30.8418ZM30.4108 23.1677L30.259 22.7315L30.0839 22.3091L30.4108 23.1677ZM29.5674 32.4018L30.5006 29.188L30.8315 26.0729L29.5674 32.4018ZM30.0875 30.8418L30.3147 30.007L30.5006 29.188L30.0875 30.8418ZM30.6444 24.0815L30.4108 23.1677L30.0839 22.3091L30.6444 24.0815ZM30.3147 30.007L30.4128 29.5955L30.5006 29.188L30.3147 30.007ZM30.8315 26.0729L30.6444 24.0815L30.0839 22.3091L30.8315 26.0729ZM30.6444 24.0815L30.5393 23.6177L30.4108 23.1677L30.6444 24.0815ZM30.5006 29.188L30.5781 28.7844L30.6453 28.3849L30.5006 29.188ZM30.5006 29.188L30.6453 28.3849L30.7487 27.5979L30.5006 29.188ZM30.5006 29.188L30.7487 27.5979L30.8315 26.0729L30.5006 29.188ZM30.6453 28.3849L30.7022 27.9894L30.7487 27.5979L30.6453 28.3849ZM30.7847 25.05L30.7263 24.5589L30.6444 24.0815L30.7847 25.05ZM30.8315 26.0729L30.7847 25.05L30.6444 24.0815L30.8315 26.0729ZM30.7487 27.5979L30.7849 27.2105L30.8108 26.8272L30.7487 27.5979ZM30.7487 27.5979L30.8108 26.8272L30.8315 26.0729L30.7487 27.5979ZM30.8315 26.0729L30.8198 25.5547L30.7847 25.05L30.8315 26.0729ZM30.8108 26.8272L30.8263 26.448L30.8315 26.0729L30.8108 26.8272Z" fill="white"/>
</g>
<path d="M31.6657 47.8718V43.4563L22.4004 43.2667C22.9365 42.8119 25.4635 39.9314 26.6883 37.9416C27.7905 36.562 29.0244 33.8167 29.5036 32.6165C29.9056 31.3721 30.7251 28.5991 30.7863 27.462C30.8629 26.0407 30.8246 24.9606 30.5757 23.7856C30.5374 22.9518 29.4844 20.8104 28.1633 19.7303C27.1573 18.9077 25.6426 18.638 24.9153 18.5977C24.8795 18.5962 24.8448 18.5947 24.8112 18.5933C24.8438 18.5942 24.8785 18.5956 24.9153 18.5977C26.1514 18.65 28.6642 18.7574 29.6169 18.8016C30.5971 18.8471 31.608 19.288 31.991 19.5028C32.4568 19.787 33.5839 20.7649 34.3651 22.4022C35.1462 24.0396 35.1883 25.9397 35.1118 26.6851C35.0607 27.4494 34.7901 29.5125 34.1162 31.6501C33.4422 33.7877 32.2654 35.9013 31.7612 36.6909C31.3272 37.3794 30.1606 39.1203 28.9659 40.5757C27.8018 41.9856 26.9625 42.8687 26.6883 43.1341L35.9741 43.3047V47.7201L31.6657 47.8718Z" fill="url(#paint2_linear_1115_95554)"/>
<path d="M31.6657 47.8718V43.4563L22.4004 43.2667C22.9365 42.8119 25.4635 39.9314 26.6883 37.9416C27.7905 36.562 29.0244 33.8167 29.5036 32.6165C29.9056 31.3721 30.7251 28.5991 30.7863 27.462C30.8629 26.0407 30.8246 24.9606 30.5757 23.7856C30.5374 22.9518 29.4844 20.8104 28.1633 19.7303C27.1573 18.9077 25.6426 18.638 24.9153 18.5977C24.8795 18.5962 24.8448 18.5947 24.8112 18.5933C24.8438 18.5942 24.8785 18.5956 24.9153 18.5977C26.1514 18.65 28.6642 18.7574 29.6169 18.8016C30.5971 18.8471 31.608 19.288 31.991 19.5028C32.4568 19.787 33.5839 20.7649 34.3651 22.4022C35.1462 24.0396 35.1883 25.9397 35.1118 26.6851C35.0607 27.4494 34.7901 29.5125 34.1162 31.6501C33.4422 33.7877 32.2654 35.9013 31.7612 36.6909C31.3272 37.3794 30.1606 39.1203 28.9659 40.5757C27.8018 41.9856 26.9625 42.8687 26.6883 43.1341L35.9741 43.3047V47.7201L31.6657 47.8718Z" fill="url(#paint3_linear_1115_95554)"/>
<path d="M25.1628 27.2987L20.8848 27.2408C20.9611 26.7949 21.2528 25.8968 21.3891 25.5035C21.5524 25.1416 21.9668 24.3453 22.3179 24.0558C22.6982 23.7735 23.0419 23.4406 24.0438 23.361C24.8453 23.2973 25.5674 23.7204 25.8282 23.9399C25.9647 24.0847 26.248 24.3989 26.289 24.4974C25.6015 25.3514 25.3188 26.6062 25.1628 27.2987Z" fill="url(#paint4_linear_1115_95554)"/>
<path d="M31.2287 0.235008L29.8799 0.0239258C30.3342 0.0850532 30.7839 0.155462 31.2287 0.235008L42.5426 2.00552C44.443 2.47926 49.1316 4.21928 52.6825 7.38939C56.2335 10.5595 58.9199 14.8265 59.8193 16.5638L61.7775 20.871C62.8074 24.1301 64.6061 31.8975 63.5617 36.8938C62.9351 41.9247 61.0377 46.8866 60.1674 48.7387C59.0795 51.3374 55.4589 57.422 49.6799 60.9712C46.6337 63.5124 40.1933 65.02 34.7972 65.5799C35.4644 65.4076 36.9382 64.9941 37.4952 64.7185C38.1915 64.3739 57.4941 56.0442 55.7794 30.279C54.4387 14.2515 45.2048 2.73414 31.2287 0.235008Z" fill="url(#paint5_linear_1115_95554)"/>
<defs>
<filter id="filter0_d_1115_95554" x="12.7256" y="10.6309" width="38.2363" height="49.2212" filterUnits="userSpaceOnUse" color-interpolation-filters="sRGB">
<feFlood flood-opacity="0" result="BackgroundImageFix"/>
<feColorMatrix in="SourceAlpha" type="matrix" values="0 0 0 0 0 0 0 0 0 0 0 0 0 0 0 0 0 0 127 0" result="hardAlpha"/>
<feOffset dx="5" dy="2"/>
<feGaussianBlur stdDeviation="5"/>
<feColorMatrix type="matrix" values="0 0 0 0 0.321569 0 0 0 0 0.156863 0 0 0 0 0.423529 0 0 0 0.3 0"/>
<feBlend mode="normal" in2="BackgroundImageFix" result="effect1_dropShadow_1115_95554"/>
<feBlend mode="normal" in="SourceGraphic" in2="effect1_dropShadow_1115_95554" result="shape"/>
</filter>
<linearGradient id="paint0_linear_1115_95554" x1="28.4305" y1="0" x2="40.5706" y2="67.9739" gradientUnits="userSpaceOnUse">
<stop stop-color="#DEE5F8"/>
<stop offset="1" stop-color="#BDBEE3"/>
</linearGradient>
<linearGradient id="paint1_linear_1115_95554" x1="38.8637" y1="53.3677" x2="-4.25285" y2="1.66266" gradientUnits="userSpaceOnUse">
<stop stop-color="white" stop-opacity="0.7"/>
<stop offset="1" stop-color="#A0A3CF"/>
</linearGradient>
<linearGradient id="paint2_linear_1115_95554" x1="29.1872" y1="18.5933" x2="29.1872" y2="47.8718" gradientUnits="userSpaceOnUse">
<stop stop-color="#E5E5E5"/>
<stop offset="1" stop-color="#E5E5E5" stop-opacity="0"/>
</linearGradient>
<linearGradient id="paint3_linear_1115_95554" x1="67.4373" y1="42.6702" x2="29.2101" y2="36.0242" gradientUnits="userSpaceOnUse">
<stop stop-color="#EFE6F6"/>
<stop offset="1" stop-color="#EEECF1"/>
</linearGradient>
<linearGradient id="paint4_linear_1115_95554" x1="23.5869" y1="23.3545" x2="23.5869" y2="27.2987" gradientUnits="userSpaceOnUse">
<stop stop-color="#E5E5E5"/>
<stop offset="1" stop-color="#E5E5E5" stop-opacity="0"/>
</linearGradient>
<linearGradient id="paint5_linear_1115_95554" x1="80.7688" y1="27.416" x2="13.2541" y2="39.5309" gradientUnits="userSpaceOnUse">
<stop stop-color="#BDBEE3"/>
<stop offset="1" stop-color="#DEE5F8"/>
</linearGradient>
</defs>
</svg>
