<svg width="64" height="67" viewBox="0 0 64 67" fill="none" xmlns="http://www.w3.org/2000/svg">
<path d="M0.947052 28.9173L0.726562 33.1383L0.947052 37.3594V28.9173ZM2.63281 20.9777L0.947052 28.9173V37.3594L2.63281 20.9777ZM0.947052 37.3594L1.59075 41.4215L2.63281 45.2989L0.947052 37.3594ZM2.63281 20.9777L1.59075 24.8552L0.947052 28.9173L2.63281 20.9777ZM0.947052 37.3594L2.63281 45.2989L5.82193 52.3843L0.947052 37.3594ZM2.63281 45.2989L4.05034 48.9635L5.82193 52.3843L2.63281 45.2989ZM5.82193 13.8924L4.05034 17.3132L2.63281 20.9777L5.82193 13.8924ZM10.3464 7.92017L2.63281 20.9777L0.947052 37.3594L10.3464 7.92017ZM10.3464 7.92017L5.82193 13.8924L2.63281 20.9777L10.3464 7.92017ZM0.947052 37.3594L5.82193 52.3843L16.0483 62.909L0.947052 37.3594ZM10.3464 7.92017L7.92719 10.7492L5.82193 13.8924L10.3464 7.92017ZM5.82193 52.3843L7.92719 55.5275L10.3464 58.3565L5.82193 52.3843ZM10.3464 7.92017L0.947052 37.3594L16.0483 62.909L10.3464 7.92017ZM5.82193 52.3843L10.3464 58.3565L16.0483 62.909L5.82193 52.3843ZM10.3464 58.3565L13.0599 60.8314L16.0483 62.909L10.3464 58.3565ZM16.0483 3.36768L13.0599 5.4453L10.3464 7.92017L16.0483 3.36768Z" fill="#C4C4C4"/>
<path d="M35.9551 65.32L38.7057 64.865L42.2857 64.2715L35.9551 65.32Z" fill="#B0B0B0"/>
<path d="M22.7684 0.59375L16.0486 3.36804L10.3467 7.92053L22.7684 0.59375Z" fill="#C4C4C4"/>
<path d="M39.5635 1.55473L42.2857 2.00501L38.7057 1.41155L39.5635 1.55473ZM35.9551 0.956543L39.5635 1.55473L38.7057 1.41155L35.9551 0.956543ZM39.5635 64.7222L35.9551 65.3204L42.2857 64.2719L39.5635 64.7222ZM39.5635 64.7222L42.2857 64.2719L45.7359 63.1256L39.5635 64.7222Z" fill="#B0B0B0"/>
<path d="M16.0469 62.9094L19.2899 64.5433L22.7667 65.6836L16.0469 62.9094ZM22.7667 0.59375L19.2899 1.73411L16.0469 3.36804L22.7667 0.59375Z" fill="#C4C4C4"/>
<path d="M43.0436 2.71415L45.7375 3.15136L42.2872 2.00501L43.0436 2.71415ZM39.5651 1.55473L43.0436 2.71415L42.2872 2.00501L39.5651 1.55473ZM33.126 65.7886L35.9567 65.3204L39.5651 64.7222L33.126 65.7886ZM43.0436 63.5628L39.5651 64.7222L45.7375 63.1256L43.0436 63.5628ZM43.0436 63.5628L45.7375 63.1256L49.0163 61.4514L43.0436 63.5628ZM36.763 1.09124L39.5651 1.55473L35.9567 0.956543L36.763 1.09124Z" fill="#B0B0B0"/>
<path d="M16.0469 62.9092L22.7667 65.6835L30.2102 66.2708L16.0469 62.9092Z" fill="#C4C4C4"/>
<path d="M46.3499 4.40957L49.0163 4.82553L45.7375 3.15134L46.3499 4.40957ZM33.126 0.488281L36.763 1.09123L35.9567 0.956526L33.126 0.488281Z" fill="#B0B0B0"/>
<path d="M37.4132 1.80056L22.7684 0.59375L10.3467 7.92053L37.4132 1.80056Z" fill="#C4C4C4"/>
<path d="M43.0436 2.7141L46.3499 4.40954L45.7375 3.15131L43.0436 2.7141ZM36.763 65.1856L33.126 65.7886L39.5651 64.7221L36.763 65.1856ZM36.763 65.1856L39.5651 64.7221L43.0436 63.5627L36.763 65.1856ZM46.3499 61.8673L49.0163 61.4513L52.08 59.2772L46.3499 61.8673ZM46.3499 61.8673L43.0436 63.5627L49.0163 61.4513L46.3499 61.8673ZM40.2699 2.26395L43.0436 2.7141L39.5651 1.55469L40.2699 2.26395ZM49.4401 6.61289L52.08 6.99963L49.0163 4.8255L49.4401 6.61289Z" fill="#B0B0B0"/>
<path d="M22.7656 65.6834L26.4541 66.277L30.2092 66.2707L22.7656 65.6834ZM30.2092 0.00624731L26.4541 0L22.7656 0.593533L30.2092 0.00624731Z" fill="#C4C4C4"/>
<path d="M36.7627 1.09131L40.2696 2.26406L39.5648 1.5548L36.7627 1.09131ZM46.3496 4.40966L49.4398 6.613L49.016 4.82562L46.3496 4.40966Z" fill="#B0B0B0"/>
<path d="M10.3467 7.91992L16.0486 62.9087L55.5306 28.3273L10.3467 7.91992Z" fill="#C4C4C4"/>
<path d="M30.209 66.2708L33.1233 65.7887L36.7603 65.1858L30.209 66.2708ZM49.4374 59.6641L52.0773 59.2774L54.8809 56.6344L49.4374 59.6641ZM40.2672 64.013L36.7603 65.1858L43.0408 63.5629L40.2672 64.013ZM49.4374 59.6641L46.3472 61.8674L52.0773 59.2774L49.4374 59.6641ZM40.2672 64.013L43.0408 63.5629L46.3472 61.8674L40.2672 64.013ZM33.8747 0.614062L36.7603 1.09136L33.1233 0.48842L33.8747 0.614062ZM52.2657 9.29285L54.8809 9.64272L52.0773 6.99979L52.2657 9.29285ZM43.6014 3.98135L46.3472 4.40971L43.0408 2.71427L43.6014 3.98135ZM30.209 0.00634766L33.8747 0.614062L33.1233 0.48842L30.209 0.00634766ZM49.4374 6.61306L52.2657 9.29285L52.0773 6.99979L49.4374 6.61306Z" fill="#B0B0B0"/>
<path d="M16.0469 62.9092L30.2102 66.2708L43.9173 60.473L16.0469 62.9092ZM37.4115 1.80044L30.2102 0.00634766L22.7667 0.593633L37.4115 1.80044Z" fill="#C4C4C4"/>
<path d="M40.2672 2.26431L43.6014 3.98155L43.0408 2.71446L40.2672 2.26431ZM52.2657 56.9845L54.8809 56.6346L57.3782 53.5576L52.2657 56.9845ZM33.8747 65.6633L30.209 66.271L36.7603 65.186L33.8747 65.6633ZM52.2657 56.9845L49.4374 59.6643L54.8809 56.6346L52.2657 56.9845ZM33.8747 65.6633L36.7603 65.186L40.2672 64.0132L33.8747 65.6633ZM43.6014 62.296L46.3472 61.8676L49.4374 59.6643L43.6014 62.296ZM43.6014 62.296L40.2672 64.0132L46.3472 61.8676L43.6014 62.296ZM54.7855 12.4142L57.3782 12.72L54.8809 9.64292L54.7855 12.4142ZM37.4102 1.80064L40.2672 2.26431L36.7603 1.09156L37.4102 1.80064ZM46.7182 6.2149L49.4374 6.61326L46.3472 4.40991L46.7182 6.2149ZM52.2657 9.29305L54.7855 12.4142L54.8809 9.64292L52.2657 9.29305ZM54.7855 53.8633L57.3782 53.5576L59.5225 50.0847L54.7855 53.8633ZM33.8747 0.614258L37.4102 1.80064L36.7603 1.09156L33.8747 0.614258ZM43.6014 3.98155L46.7182 6.2149L46.3472 4.40991L43.6014 3.98155ZM54.7855 53.8633L52.2657 56.9845L57.3782 53.5576L54.7855 53.8633ZM56.9495 15.9378L59.5225 16.1928L57.3782 12.72L56.9495 15.9378Z" fill="#B0B0B0"/>
<path d="M30.209 66.2708L33.8747 65.6631L37.4102 64.4767L30.209 66.2708ZM37.4102 1.80044L33.8747 0.614062L30.209 0.00634766L37.4102 1.80044Z" fill="#C4C4C4"/>
<path d="M46.7204 60.0625L49.4396 59.6642L52.2679 56.9844L46.7204 60.0625ZM37.4125 64.4768L33.877 65.6632L40.2694 64.0131L37.4125 64.4768ZM46.7204 60.0625L43.6036 62.2959L49.4396 59.6642L46.7204 60.0625ZM37.4125 64.4768L40.2694 64.0131L43.6036 62.2959L37.4125 64.4768Z" fill="#B0B0B0"/>
<path d="M55.5306 28.3276L37.4132 1.80029L10.3467 7.92027L55.5306 28.3276Z" fill="#C4C4C4"/>
<path d="M56.9514 50.3394L59.5244 50.0844L61.2692 46.2581L56.9514 50.3394ZM54.7874 12.4139L56.9514 15.9374L57.3801 12.7196L54.7874 12.4139ZM49.5734 8.93225L52.2676 9.2927L49.4393 6.61291L49.5734 8.93225ZM58.7124 19.8205L61.2692 20.0187L59.5244 16.1925L58.7124 19.8205ZM40.7742 3.53987L43.6032 3.9812L40.2691 2.26397L40.7742 3.53987ZM56.9514 50.3394L54.7874 53.863L59.5244 50.0844L56.9514 50.3394ZM58.7124 46.4563L61.2692 46.2581L62.5686 42.1245L58.7124 46.4563ZM46.7201 6.21455L49.5734 8.93225L49.4393 6.61291L46.7201 6.21455ZM37.4121 1.80029L40.7742 3.53987L40.2691 2.26397L37.4121 1.80029ZM60.024 24.0162L62.5686 24.1524L61.2692 20.0187L60.024 24.0162ZM56.9514 15.9374L58.7124 19.8205L59.5244 16.1925L56.9514 15.9374ZM49.5734 57.3446L52.2676 56.9842L54.7874 53.863L49.5734 57.3446ZM49.5734 57.3446L46.7201 60.0623L52.2676 56.9842L49.5734 57.3446Z" fill="#B0B0B0"/>
<path d="M30.209 66.2705L37.4102 64.4764L43.9161 60.4727L30.209 66.2705Z" fill="#C4C4C4"/>
<path d="M60.024 42.2609L62.5686 42.1248L63.3785 37.7337L60.024 42.2609ZM58.7124 46.4566L56.9514 50.3397L61.2692 46.2584L58.7124 46.4566ZM60.8416 28.4739L63.3785 28.5437L62.5686 24.1526L60.8416 28.4739ZM40.7742 62.7373L43.6032 62.2959L46.7201 60.0626L40.7742 62.7373ZM40.7742 62.7373L37.4121 64.4768L43.6032 62.2959L40.7742 62.7373ZM52.1159 12.099L54.7874 12.4141L52.2676 9.29297L52.1159 12.099ZM60.8416 37.8035L63.3785 37.7337L63.6572 33.1387L60.8416 37.8035ZM61.123 33.1387H63.6572L63.3785 28.5437L61.123 33.1387ZM58.7124 19.8208L60.024 24.0165L61.2692 20.019L58.7124 19.8208Z" fill="#B0B0B0"/>
<path d="M16.0469 62.9091L43.9173 60.4728L55.5288 28.3276L16.0469 62.9091Z" fill="#C4C4C4"/>
<path d="M43.9171 5.80422L46.7192 6.21472L43.6024 3.98137L43.9171 5.80422ZM60.0232 42.2608L58.7116 46.4565L62.5678 42.1247L60.0232 42.2608ZM49.5725 8.93242L52.1151 12.0989L52.2668 9.29287L49.5725 8.93242ZM52.1151 54.1783L54.7866 53.8632L56.9506 50.3396L52.1151 54.1783ZM60.0232 24.0164L60.8408 28.4738L62.5678 24.1525L60.0232 24.0164ZM60.8408 37.8034L60.0232 42.2608L63.3777 37.7336L60.8408 37.8034ZM40.7734 3.54004L43.9171 5.80422L43.6024 3.98137L40.7734 3.54004ZM52.1151 54.1783L49.5725 57.3448L54.7866 53.8632L52.1151 54.1783ZM54.2989 15.6748L56.9506 15.9376L54.7866 12.414L54.2989 15.6748ZM60.8408 28.4738L61.1221 33.1386L63.3777 28.5436L60.8408 28.4738ZM61.1221 33.1386L60.8408 37.8034L63.6564 33.1386H61.1221ZM43.9171 60.473L46.7192 60.0625L49.5725 57.3448L43.9171 60.473ZM43.9171 60.473L40.7734 62.7371L46.7192 60.0625L43.9171 60.473Z" fill="#B0B0B0"/>
<path d="M37.4121 64.4766L40.7742 62.737L43.9179 60.4728L37.4121 64.4766ZM43.9179 5.80405L40.7742 3.53987L37.4121 1.80029L43.9179 5.80405Z" fill="#C4C4C4"/>
<path d="M54.2997 50.6019L56.9514 50.3391L58.7124 46.456L54.2997 50.6019ZM52.1159 12.0984L54.2997 15.6743L54.7874 12.4135L52.1159 12.0984ZM46.7965 8.56039L49.5734 8.93191L46.7201 6.21421L46.7965 8.56039ZM56.0771 19.6159L58.7124 19.8202L56.9514 15.9371L56.0771 19.6159ZM54.2997 50.6019L52.1159 54.1777L56.9514 50.3391L54.2997 50.6019ZM56.0771 46.6603L58.7124 46.456L60.024 42.2603L56.0771 46.6603ZM43.918 5.80371L46.7965 8.56039L46.7201 6.21421L43.918 5.80371ZM57.4011 23.8755L60.024 24.0159L58.7124 19.8202L57.4011 23.8755ZM54.2997 15.6743L56.0771 19.6159L56.9514 15.9371L54.2997 15.6743ZM46.7965 57.7158L49.5734 57.3443L52.1159 54.1777L46.7965 57.7158Z" fill="#B0B0B0"/>
<path d="M49.3619 11.774L43.9179 5.80405L37.4121 1.80029L49.3619 11.774Z" fill="#C4C4C4"/>
<path d="M46.7965 57.7164L43.918 60.4731L49.5734 57.3449L46.7965 57.7164ZM57.4011 42.4013L60.024 42.2609L60.8416 37.8035L57.4011 42.4013ZM56.0771 46.6609L54.2997 50.6025L58.7124 46.4566L56.0771 46.6609ZM58.2265 28.4021L60.8416 28.474L60.024 24.0165L58.2265 28.4021ZM49.3619 11.7743L52.1159 12.0991L49.5734 8.93255L49.3619 11.7743ZM58.2265 37.8754L60.8416 37.8035L61.123 33.1387L58.2265 37.8754ZM58.5105 33.1387H61.123L60.8416 28.474L58.5105 33.1387ZM56.0771 19.6165L57.4011 23.8762L58.7124 19.8208L56.0771 19.6165ZM57.4011 42.4013L56.0771 46.6609L60.024 42.2609L57.4011 42.4013ZM46.7965 8.56104L49.3619 11.7743L49.5734 8.93255L46.7965 8.56104ZM49.3619 54.5032L52.1159 54.1784L54.2997 50.6025L49.3619 54.5032ZM57.4011 23.8762L58.2265 28.4021L60.024 24.0165L57.4011 23.8762ZM58.2265 37.8754L57.4011 42.4013L60.8416 37.8035L58.2265 37.8754ZM49.3619 54.5032L46.7965 57.7164L52.1159 54.1784L49.3619 54.5032ZM51.5658 15.404L54.2997 15.6749L52.1159 12.0991L51.5658 15.404ZM58.2265 28.4021L58.5105 33.1387L60.8416 28.474L58.2265 28.4021ZM58.5105 33.1387L58.2265 37.8754L61.123 33.1387H58.5105Z" fill="#B0B0B0"/>
<path d="M43.9179 60.4728L46.7964 57.7161L49.3619 54.5029L43.9179 60.4728ZM49.3619 11.774L46.7964 8.56073L43.9179 5.80405L49.3619 11.774ZM55.5294 28.3276L49.3619 11.774L37.4121 1.80029L55.5294 28.3276Z" fill="#C4C4C4"/>
<path d="M51.5682 50.8731L54.3021 50.6022L56.0795 46.6606L51.5682 50.8731ZM49.3643 11.7739L51.5682 15.4036L52.1183 12.0987L49.3643 11.7739ZM53.3621 19.4055L56.0795 19.6162L54.3021 15.6746L53.3621 19.4055ZM51.5682 50.8731L49.3643 54.5029L54.3021 50.6022L51.5682 50.8731Z" fill="#B0B0B0"/>
<path d="M43.918 60.4731L49.3619 54.5032L53.3598 46.8716L43.918 60.4731Z" fill="#C4C4C4"/>
<path d="M53.3594 46.8714L56.0768 46.6607L57.4008 42.4011L53.3594 46.8714ZM54.6959 23.7313L57.4008 23.876L56.0768 19.6164L54.6959 23.7313ZM51.5654 15.4038L53.3594 19.4057L54.2994 15.6748L51.5654 15.4038ZM54.6959 42.5459L57.4008 42.4011L58.2261 37.8752L54.6959 42.5459ZM53.3594 46.8714L51.5654 50.8733L56.0768 46.6607L53.3594 46.8714ZM55.5291 28.3277L58.2261 28.4019L57.4008 23.876L55.5291 28.3277Z" fill="#B0B0B0"/>
<path d="M43.918 60.4728L53.3598 46.8713L55.5295 28.3276L43.918 60.4728Z" fill="#C4C4C4"/>
<path d="M55.5293 37.9494L58.2263 37.8752L58.5103 33.1385L55.5293 37.9494ZM55.816 33.1385H58.5103L58.2263 28.4019L55.816 33.1385Z" fill="#B0B0B0"/>
<path d="M49.3643 54.5029L51.5682 50.8731L53.3621 46.8712L49.3643 54.5029ZM53.3621 19.4055L51.5682 15.4036L49.3643 11.7739L53.3621 19.4055Z" fill="#C4C4C4"/>
<path d="M53.3594 19.4058L54.6959 23.7313L56.0767 19.6164L53.3594 19.4058ZM54.6959 42.5459L53.3594 46.8715L57.4007 42.4012L54.6959 42.5459ZM54.6959 23.7313L55.5291 28.3278L57.4007 23.876L54.6959 23.7313Z" fill="#B0B0B0"/>
<path d="M55.5318 28.3276L53.3621 19.4055L49.3643 11.7739L55.5318 28.3276Z" fill="#C4C4C4"/>
<path d="M55.5314 37.9493L54.6982 42.5458L58.2285 37.8751L55.5314 37.9493ZM55.5314 28.3276L55.8182 33.1385L58.2285 28.4018L55.5314 28.3276ZM55.8182 33.1385L55.5314 37.9493L58.5125 33.1385H55.8182Z" fill="#B0B0B0"/>
<path d="M53.3594 46.8715L54.6959 42.5459L55.5291 37.9494L53.3594 46.8715ZM55.5291 28.3278L54.6959 23.7313L53.3594 19.4058L55.5291 28.3278ZM53.3594 46.8715L55.5291 37.9494V28.3278L53.3594 46.8715ZM55.5291 37.9494L55.8158 33.1386L55.5291 28.3278V37.9494Z" fill="#C4C4C4"/>
<path d="M55.5787 33.2557C55.5787 51.4365 43.3416 66.0113 28.4305 66.0113C13.5194 66.0113 1.28223 51.4365 1.28223 33.2557C1.28223 15.0748 13.5194 0.5 28.4305 0.5C43.3416 0.5 55.5787 15.0748 55.5787 33.2557Z" fill="url(#paint0_linear_1115_95793)" stroke="url(#paint1_linear_1115_95793)"/>
<g filter="url(#filter0_d_1115_95793)">
<path d="M19.4781 41.1091L24.4446 41.0368L24.0983 40.4148L19.4781 41.1091ZM19.841 41.6834L24.8065 41.6058L24.4446 41.0368L19.841 41.6834ZM19.6489 25.65L24.6149 25.7216L24.9152 25.1848L19.6489 25.65ZM19.95 25.1082L24.9152 25.1848L25.2301 24.6938L19.95 25.1082ZM20.2196 42.2042L25.1841 42.1216L24.8065 41.6058L20.2196 42.2042ZM20.2657 24.6126L25.2301 24.6938L25.5597 24.2487L20.2657 24.6126ZM20.614 42.6712L25.5774 42.5842L25.1841 42.1216L20.614 42.6712ZM20.5962 24.1632L25.5597 24.2487L25.9039 23.8495L20.5962 24.1632ZM21.0243 43.0845L25.9865 42.9937L25.5774 42.5842L21.0243 43.0845ZM20.9414 23.7602L25.9039 23.8495L26.2629 23.4962L20.9414 23.7602ZM21.4504 43.444L26.4115 43.3498L25.9865 42.9937L21.4504 43.444ZM21.3014 23.4036L26.2629 23.4962L26.6367 23.189L21.3014 23.4036ZM19.1309 40.4812L19.4781 41.1091L24.0983 40.4148L19.1309 40.4812ZM21.8925 43.7497L26.8524 43.6525L26.4115 43.3498L21.8925 43.7497ZM21.6762 23.0934L26.6367 23.189L27.0253 22.9277L21.6762 23.0934Z" fill="#E5E5E5"/>
<path d="M17.0566 44.6284L17.2383 45.0205L17.4344 45.3987L17.0566 44.6284Z" fill="white"/>
<path d="M19.4766 41.1094L19.8395 41.6837L24.4431 41.0371L19.4766 41.1094ZM19.9485 25.1085L19.6474 25.6503L24.9137 25.1851L19.9485 25.1085ZM22.349 44.0017L27.3077 43.9021L26.8509 43.6528L22.349 44.0017ZM22.0644 22.8299L27.0238 22.928L27.4273 22.7129L22.0644 22.8299ZM19.8395 41.6837L20.2181 42.2044L24.805 41.6061L19.8395 41.6837Z" fill="#E5E5E5"/>
<path d="M17.4366 45.399L17.6471 45.7633L17.872 46.1137L17.4366 45.399ZM19.1282 40.4817L16.8916 44.2228L17.0589 44.6288L19.1282 40.4817ZM18.1927 20.5366L17.7949 21.2563L17.4409 22.0425L18.1927 20.5366Z" fill="white"/>
<path d="M20.2669 24.6128L19.9512 25.1084L25.2313 24.694L20.2669 24.6128Z" fill="#E5E5E5"/>
<path d="M19.1259 40.4814L17.0566 44.6285L17.4344 45.3988L19.1259 40.4814ZM17.4344 45.3988L17.8698 46.1135L18.3631 46.7727L17.4344 45.3988Z" fill="white"/>
<path d="M22.4686 22.6128L27.4269 22.7129L27.8453 22.5439L22.4686 22.6128ZM22.8228 44.1994L27.7802 44.0979L27.3073 43.9022L22.8228 44.1994ZM20.2178 42.2045L20.6122 42.6715L25.1823 42.1219L20.2178 42.2045Z" fill="#E5E5E5"/>
<path d="M17.8711 46.1138L18.1105 46.4503L18.3644 46.773L17.8711 46.1138Z" fill="white"/>
<path d="M20.5951 24.1636L20.2646 24.6129L25.5586 24.249L20.5951 24.1636Z" fill="#E5E5E5"/>
<path d="M19.1214 19.2964L18.1936 20.5366L17.4418 22.0424L19.1214 19.2964ZM19.1291 40.4817L17.4375 45.399L18.3663 46.7729L19.1291 40.4817Z" fill="white"/>
<path d="M22.8866 22.4418L27.8437 22.5437L28.2771 22.4209L22.8866 22.4418ZM20.6106 42.6712L21.0208 43.0845L25.574 42.5843L20.6106 42.6712ZM23.3115 44.3427L28.2674 44.2398L27.7785 44.0977L23.3115 44.3427ZM20.938 23.7603L20.5928 24.1633L25.9005 23.8495L20.938 23.7603Z" fill="#E5E5E5"/>
<path d="M18.3641 46.7729L18.6325 47.0818L18.9155 47.3767L18.3641 46.7729ZM19.1192 19.2964L18.6332 19.8833L18.1914 20.5366L19.1192 19.2964Z" fill="white"/>
<path d="M23.3217 22.3179L28.2776 22.4209L28.7259 22.3444L23.3217 22.3179ZM21.0213 43.0845L21.4475 43.4441L25.9836 42.9937L21.0213 43.0845ZM21.2985 23.4037L20.9385 23.7603L26.26 23.4963L21.2985 23.4037Z" fill="#E5E5E5"/>
<path d="M18.3682 46.7729L18.9196 47.3768L19.5295 47.9252L18.3682 46.7729Z" fill="white"/>
<path d="M23.8193 44.4325L28.7739 44.3287L28.2689 44.2402L23.8193 44.4325Z" fill="#E5E5E5"/>
<path d="M19.4749 41.1096L19.1277 40.4817L18.3649 46.773L19.4749 41.1096ZM17.4404 22.0425L19.6458 25.6506L19.9469 25.1087L17.4404 22.0425ZM17.4404 22.0425L19.9469 25.1087L20.2626 24.6131L17.4404 22.0425ZM18.9164 47.3768L19.214 47.6579L19.5263 47.9252L18.9164 47.3768Z" fill="white"/>
<path d="M21.6746 23.0935L21.2998 23.4038L26.6351 23.1891L21.6746 23.0935ZM23.7726 22.2407L28.7273 22.3445L29.1907 22.3145L23.7726 22.2407ZM21.4488 43.4442L21.8909 43.7498L26.4099 43.3499L21.4488 43.4442Z" fill="#E5E5E5"/>
<path d="M21.509 17.6138L19.12 19.2963L17.4404 22.0424L21.509 17.6138ZM17.4404 22.0424L20.2626 24.613L20.5931 24.1637L17.4404 22.0424Z" fill="white"/>
<path d="M24.3418 44.4675L29.2948 44.3633L28.7737 44.3286L24.3418 44.4675Z" fill="#E5E5E5"/>
<path d="M18.3682 46.7729L19.5295 47.9252L20.917 48.8105L18.3682 46.7729Z" fill="white"/>
<path d="M22.0616 22.83L21.6719 23.0937L27.021 22.928L22.0616 22.83ZM24.2347 22.2104L29.188 22.3146L29.4333 22.3182L24.2347 22.2104Z" fill="#E5E5E5"/>
<path d="M17.4404 22.0422L20.5931 24.1635L20.9383 23.7605L17.4404 22.0422ZM20.2251 18.3218L19.6503 18.7757L19.12 19.2962L20.2251 18.3218Z" fill="white"/>
<path d="M21.8926 43.75L22.3506 44.0017L26.8525 43.6528L21.8926 43.75ZM24.6477 44.4635L29.5999 44.3593L29.2971 44.3632L24.6477 44.4635Z" fill="#E5E5E5"/>
<path d="M19.5263 47.9252L19.8532 48.1786L20.1977 48.4082L19.5263 47.9252ZM17.4404 22.0425L20.9383 23.7608L21.2982 23.4041L17.4404 22.0425Z" fill="white"/>
<path d="M22.47 22.6128L22.0654 22.83L27.4283 22.713L22.47 22.6128Z" fill="#E5E5E5"/>
<path d="M17.4404 22.0425L21.2982 23.4041L21.6731 23.0939L17.4404 22.0425Z" fill="white"/>
<path d="M22.3506 44.0019L22.8247 44.1996L27.3092 43.9023L22.3506 44.0019Z" fill="#E5E5E5"/>
<path d="M19.5263 47.9251L20.1977 48.4081L20.9137 48.8104L19.5263 47.9251ZM21.509 17.6138L20.2251 18.3219L19.12 19.2963L21.509 17.6138ZM17.4404 22.0424L21.6731 23.0938L22.0627 22.8301L17.4404 22.0424Z" fill="white"/>
<path d="M22.8883 22.4419L22.4688 22.6125L27.8454 22.5437L22.8883 22.4419Z" fill="#E5E5E5"/>
<path d="M20.2012 48.4077L20.5547 48.6183L20.9172 48.81L20.2012 48.4077Z" fill="white"/>
<path d="M25.1566 49.6705L30.1073 49.5174L30.66 49.4769L25.1566 49.6705ZM22.8223 44.1996L23.3125 44.3432L27.7796 44.0981L22.8223 44.1996Z" fill="#E5E5E5"/>
<path d="M17.4404 22.0425L22.0627 22.8302L22.4673 22.613L17.4404 22.0425ZM19.4749 41.1096L18.3649 46.773L24.1411 49.6563L19.4749 41.1096Z" fill="white"/>
<path d="M25.6524 17.0391L30.6017 17.1919L30.0972 17.1569L25.6524 17.0391ZM23.3242 22.3178L22.8896 22.4418L28.2801 22.4208L23.3242 22.3178Z" fill="#E5E5E5"/>
<path d="M21.509 17.6138L20.8446 17.9345L20.2251 18.3219L21.509 17.6138ZM17.4404 22.0424L22.4673 22.6129L22.8869 22.4422L17.4404 22.0424ZM18.3649 46.7729L20.9137 48.8104L24.1411 49.6562L18.3649 46.7729Z" fill="white"/>
<path d="M23.3145 44.3431L23.8209 44.4325L28.2704 44.2402L23.3145 44.3431Z" fill="#E5E5E5"/>
<path d="M19.8395 41.6832L19.4766 41.1089L24.1427 49.6555L19.8395 41.6832Z" fill="white"/>
<path d="M25.709 49.6296L30.6581 49.4768L31.1951 49.4009L25.709 49.6296Z" fill="#E5E5E5"/>
<path d="M17.4404 22.0425L22.8869 22.4423L23.3215 22.3183L17.4404 22.0425Z" fill="white"/>
<path d="M26.1434 17.106L31.0914 17.2583L30.6037 17.1923L26.1434 17.106ZM23.7758 22.2409L23.3262 22.3181L28.7305 22.3447L23.7758 22.2409Z" fill="#E5E5E5"/>
<path d="M20.9137 48.8105L21.2852 48.9831L21.6658 49.1366L20.9137 48.8105ZM20.2165 42.2047L19.8378 41.684L24.1411 49.6563L20.2165 42.2047ZM17.4404 22.0425L23.3215 22.3183L23.7711 22.2411L17.4404 22.0425Z" fill="white"/>
<path d="M23.8193 44.4324L24.342 44.4675L28.7739 44.3286L23.8193 44.4324Z" fill="#E5E5E5"/>
<path d="M20.6122 42.6711L20.2178 42.2041L24.1424 49.6557L20.6122 42.6711ZM20.915 48.8099L21.6671 49.136L22.4556 49.3859L20.915 48.8099Z" fill="white"/>
<path d="M26.251 49.5527L31.1986 49.4005L31.7197 49.2892L26.251 49.5527ZM24.2382 22.2102L23.7734 22.2407L29.1915 22.3144L24.2382 22.2102ZM26.6132 17.2036L31.5597 17.3551L31.089 17.258L26.6132 17.2036Z" fill="#E5E5E5"/>
<path d="M17.4404 22.042L23.7711 22.2407L24.2358 22.2102L17.4404 22.042ZM26.6108 17.2036L21.509 17.6134L17.4404 22.042L26.6108 17.2036ZM21.0211 43.0846L20.6109 42.6713L24.1411 49.6558L21.0211 43.0846ZM17.4404 22.042L24.2358 22.2102L24.4818 22.2138L17.4404 22.042Z" fill="white"/>
<path d="M24.4823 22.214L24.2363 22.2104L29.4349 22.3182L24.4823 22.214Z" fill="#E5E5E5"/>
<path d="M21.666 49.1362L22.0557 49.2707L22.4545 49.386L21.666 49.1362Z" fill="white"/>
<path d="M24.3418 44.4678L24.6455 44.4638L29.2948 44.3636L24.3418 44.4678ZM27.0668 17.3335L32.0121 17.4839L31.5584 17.3557L27.0668 17.3335Z" fill="#E5E5E5"/>
<path d="M21.4506 43.444L21.0244 43.0845L24.1444 49.6557L21.4506 43.444Z" fill="white"/>
<path d="M26.7715 49.4407L31.7176 49.2894L32.2228 49.1426L26.7715 49.4407Z" fill="#E5E5E5"/>
<path d="M22.9769 17.1724L22.2219 17.3594L21.5123 17.6134L22.9769 17.1724ZM21.8926 43.7497L21.4506 43.444L24.1444 49.6558L21.8926 43.7497ZM20.917 48.81L22.4576 49.3859L24.1444 49.6558L20.917 48.81ZM22.0066 30.4064V35.5929L23.7496 35.5981L22.0066 30.4064Z" fill="white"/>
<path d="M27.5042 17.4938L32.4482 17.6427L32.0115 17.4834L27.5042 17.4938ZM27.2783 49.2924L32.223 49.1424L32.7122 48.96L27.2783 49.2924Z" fill="#E5E5E5"/>
<path d="M22.3474 44.0015L21.8893 43.7498L24.1411 49.6558L22.3474 44.0015ZM26.6108 17.2036L17.4404 22.042L24.4818 22.2138L26.6108 17.2036ZM22.4543 49.386L22.8622 49.4822L23.2793 49.5593L22.4543 49.386Z" fill="white"/>
<path d="M25.1445 17.0044L25.6505 17.0397L30.0953 17.1575L25.1445 17.0044Z" fill="#E5E5E5"/>
<path d="M24.6226 17L22.9753 17.1726L21.5107 17.6136L24.6226 17Z" fill="white"/>
<path d="M27.9238 17.6859L32.8666 17.8331L32.447 17.6426L27.9238 17.6859Z" fill="#E5E5E5"/>
<path d="M22.8247 44.1997L22.3506 44.002L24.1443 49.6563L22.8247 44.1997Z" fill="white"/>
<path d="M25.7105 49.6295L25.1562 49.6704L30.6597 49.4767L25.7105 49.6295ZM27.769 49.1086L32.7122 48.9602L33.1855 48.7422L27.769 49.1086ZM27.928 32.7019L32.8707 32.7078V32.5728L27.928 32.7019Z" fill="#E5E5E5"/>
<path d="M22.0049 30.4062L23.7479 35.598L24.0968 35.6072L22.0049 30.4062ZM22.4558 49.3858L23.2809 49.5591L24.1427 49.6556L22.4558 49.3858Z" fill="white"/>
<path d="M27.9277 32.5652L32.8705 32.5724L33.473 32.1963L27.9277 32.5652Z" fill="#E5E5E5"/>
<path d="M23.3125 44.3428L22.8223 44.1992L24.1418 49.6559L23.3125 44.3428Z" fill="white"/>
<path d="M28.2916 32.7956L33.2333 32.8007L32.8701 32.7074L28.2916 32.7956ZM28.328 17.9096L33.2696 18.0548L32.8672 17.833L28.328 17.9096ZM25.6494 17.0391L26.1385 17.1056L30.5987 17.1919L25.6494 17.0391Z" fill="#E5E5E5"/>
<path d="M22.0049 30.4062L24.0968 35.6072L24.4328 35.6328L22.0049 30.4062Z" fill="white"/>
<path d="M28.2451 48.8883L33.1869 48.7419L33.6441 48.4883L28.2451 48.8883Z" fill="#E5E5E5"/>
<path d="M23.2812 49.5596L23.7075 49.6175L24.1431 49.6561L23.2812 49.5596Z" fill="white"/>
<path d="M26.2475 49.5531L25.709 49.6296L31.1951 49.4009L26.2475 49.5531Z" fill="#E5E5E5"/>
<path d="M22.0049 30.4066L24.4328 35.6331L24.756 35.6749L22.0049 30.4066ZM23.8197 44.4323L23.3133 44.3429L24.1427 49.656L23.8197 44.4323ZM24.6225 17L23.7758 17.0526L22.9751 17.1726L24.6225 17Z" fill="white"/>
<path d="M28.6426 32.9118L33.5832 32.9158L33.2334 32.8006L28.6426 32.9118ZM28.7144 18.1648L33.6548 18.3077L33.2696 18.0547L28.7144 18.1648Z" fill="#E5E5E5"/>
<path d="M22.0049 30.4062L24.756 35.6746L25.0664 35.7328L22.0049 30.4062Z" fill="white"/>
<path d="M26.1396 17.106L26.6117 17.2039L31.0876 17.2583L26.1396 17.106ZM28.5328 32.1857L33.4738 32.1965L34.0248 31.7748L28.5328 32.1857ZM28.7027 48.6325L33.6432 48.4885L34.0842 48.1991L28.7027 48.6325ZM28.9811 33.0508L33.9208 33.0535L33.5844 32.9163L28.9811 33.0508Z" fill="#E5E5E5"/>
<path d="M22.0049 30.4062L25.0664 35.7328L25.3638 35.8074L22.0049 30.4062Z" fill="white"/>
<path d="M29.0859 18.4522L34.0253 18.5924L33.6574 18.3081L29.0859 18.4522ZM26.7736 49.4406L26.251 49.5529L31.7197 49.2894L26.7736 49.4406Z" fill="#E5E5E5"/>
<path d="M26.6125 17.2038L24.6226 17L21.5107 17.6136L26.6125 17.2038ZM22.0051 30.4066L25.364 35.8077L25.6485 35.8986L22.0051 30.4066ZM23.5734 30.4004L22.0051 30.4066L27.4595 37.1983L23.5734 30.4004Z" fill="white"/>
<path d="M26.6123 17.2036L27.0674 17.3329L31.5589 17.3551L26.6123 17.2036ZM29.3056 33.2114L34.2443 33.2126L33.9214 33.0533L29.3056 33.2114ZM29.086 31.7597L34.0254 31.7745L34.5246 31.3072L29.086 31.7597Z" fill="#E5E5E5"/>
<path d="M22.0049 30.4062L25.6483 35.8983L25.9198 36.0056L22.0049 30.4062Z" fill="white"/>
<path d="M29.1455 48.3403L34.0847 48.199L34.5095 47.8739L29.1455 48.3403ZM29.4366 18.7706L34.3749 18.9079L34.0243 18.5923L29.4366 18.7706Z" fill="#E5E5E5"/>
<path d="M24.1427 49.6556L24.5874 49.6751L25.1574 49.6699L24.1427 49.6556ZM22.0049 30.4062L25.9198 36.0057L26.1784 36.1294L22.0049 30.4062Z" fill="white"/>
<path d="M27.2782 49.2929L26.7715 49.441L32.2228 49.1429L27.2782 49.2929ZM29.6148 33.3952L34.5526 33.3946L34.2431 33.2132L29.6148 33.3952ZM27.0661 17.3335L27.5041 17.4942L32.0114 17.4839L27.0661 17.3335Z" fill="#E5E5E5"/>
<path d="M22.0049 30.4062L26.1784 36.1294L26.4239 36.2696L22.0049 30.4062Z" fill="white"/>
<path d="M29.7734 19.1211L34.7107 19.2552L34.3775 18.9082L29.7734 19.1211ZM29.5742 48.0125L34.5122 47.8742L34.9207 47.5133L29.5742 48.0125ZM29.5893 31.2883L34.5271 31.3076L34.9744 30.7947L29.5893 31.2883Z" fill="#E5E5E5"/>
<path d="M24.1427 49.6557L25.1574 49.6699L25.7117 49.6291L24.1427 49.6557ZM22.0049 30.4063L26.4239 36.2696L26.6564 36.4262L22.0049 30.4063ZM23.8375 30.3906L23.5732 30.4001L27.7682 37.6654L23.8375 30.3906Z" fill="white"/>
<path d="M29.9141 33.6005L34.851 33.598L34.555 33.3945L29.9141 33.6005Z" fill="#E5E5E5"/>
<path d="M25.6512 17.0393L25.1453 17.004L24.6225 17L25.6512 17.0393ZM22.0049 30.4066L26.6564 36.4265L26.8758 36.5995L22.0049 30.4066Z" fill="white"/>
<path d="M30.083 19.4901L35.0194 19.6207L34.7083 19.2549L30.083 19.4901Z" fill="#E5E5E5"/>
<path d="M24.096 30.3643L23.8389 30.3907L27.7696 37.6655L24.096 30.3643Z" fill="white"/>
<path d="M27.769 49.1088L27.2783 49.2928L32.7122 48.9604L27.769 49.1088Z" fill="#E5E5E5"/>
<path d="M26.6114 17.2036L24.4824 22.2138L24.7188 22.232L26.6114 17.2036Z" fill="white"/>
<path d="M27.5029 17.4937L27.9237 17.6859L32.4469 17.6426L27.5029 17.4937Z" fill="#E5E5E5"/>
<path d="M22.0049 30.4062L26.8758 36.5992L27.0821 36.7886L22.0049 30.4062Z" fill="white"/>
<path d="M30.1952 33.8283L35.1312 33.8237L34.8488 33.5981L30.1952 33.8283ZM29.9805 47.6484L34.9172 47.5134L35.3095 47.1167L29.9805 47.6484ZM30.0343 30.7706L34.9708 30.7948L35.3659 30.2363L30.0343 30.7706Z" fill="#E5E5E5"/>
<path d="M26.6124 17.2036L24.7198 22.232L24.9466 22.2648L26.6124 17.2036ZM24.3446 30.3209L24.0946 30.3643L27.897 37.921L24.3446 30.3209ZM22.0049 30.4064L27.0821 36.7888L27.2792 36.9862L22.0049 30.4064Z" fill="white"/>
<path d="M30.3672 19.8809L35.3028 20.0079L35.0185 19.6206L30.3672 19.8809Z" fill="#E5E5E5"/>
<path d="M24.1436 49.6559L25.7126 49.6292L26.7737 49.4404L24.1436 49.6559Z" fill="white"/>
<path d="M27.9277 32.5654V32.7018L32.8705 32.5727L27.9277 32.5654Z" fill="#E5E5E5"/>
<path d="M26.6124 17.2036L24.9466 22.2648L25.1638 22.3122L26.6124 17.2036ZM22.0049 30.4064L27.2792 36.9862L27.4593 37.1981L22.0049 30.4064ZM24.5874 30.2605L24.3446 30.3209L27.897 37.921L24.5874 30.2605Z" fill="white"/>
<path d="M30.4648 34.0784L35.4001 34.0714L35.1313 33.8237L30.4648 34.0784Z" fill="#E5E5E5"/>
<path d="M26.612 17.2038L25.6508 17.0393L24.6221 17L26.612 17.2038Z" fill="white"/>
<path d="M27.9268 32.7017L28.2911 32.7958L32.8695 32.7077L27.9268 32.7017ZM27.9238 17.686L28.3274 17.9098L32.8666 17.8333L27.9238 17.686Z" fill="#E5E5E5"/>
<path d="M26.6107 17.2036L25.1621 22.3122L25.3697 22.3743L26.6107 17.2036Z" fill="white"/>
<path d="M28.2432 48.888L27.7686 49.1079L33.185 48.7416L28.2432 48.888ZM30.3734 47.247L35.3089 47.1158L35.6772 46.6812L30.3734 47.247Z" fill="#E5E5E5"/>
<path d="M24.8217 30.1831L24.5859 30.2605L27.8955 37.9209L24.8217 30.1831Z" fill="white"/>
<path d="M30.6253 20.2935L35.5602 20.4166L35.3028 20.0078L30.6253 20.2935ZM30.4307 30.2061L35.366 30.2357L35.7087 29.6316L30.4307 30.2061Z" fill="#E5E5E5"/>
<path d="M26.6121 17.2036L25.3711 22.3743L25.569 22.451L26.6121 17.2036Z" fill="white"/>
<path d="M30.7227 34.3507L35.6572 34.3411L35.4019 34.0713L30.7227 34.3507Z" fill="#E5E5E5"/>
<path d="M25.0508 30.0889L24.8223 30.1832L28.0077 38.191L25.0508 30.0889Z" fill="white"/>
<path d="M28.5321 32.1855L27.9277 32.5653L33.473 32.1964L28.5321 32.1855Z" fill="#E5E5E5"/>
<path d="M26.6105 17.2036L25.5674 22.451L25.7557 22.5424L26.6105 17.2036Z" fill="white"/>
<path d="M30.8569 20.7278L35.791 20.8469L35.5606 20.4167L30.8569 20.7278ZM28.293 32.7957L28.6439 32.912L33.2347 32.8008L28.293 32.7957ZM30.7439 46.8086L35.6784 46.6814L36.0149 46.222L30.7439 46.8086ZM28.3293 17.9097L28.7156 18.165L33.2709 18.0549L28.3293 17.9097Z" fill="#E5E5E5"/>
<path d="M26.6107 17.2036L25.7559 22.5424L25.9345 22.6485L26.6107 17.2036Z" fill="white"/>
<path d="M30.7744 29.5966L35.7088 29.6319L35.999 28.9824L30.7744 29.5966Z" fill="#E5E5E5"/>
<path d="M25.2722 29.9775L25.0508 30.0889L28.0077 38.1911L25.2722 29.9775Z" fill="white"/>
<path d="M30.9639 34.6451L35.8977 34.6328L35.6561 34.3408L30.9639 34.6451Z" fill="#E5E5E5"/>
<path d="M26.6106 17.2035L26.1385 17.1056L25.6494 17.0391L26.6106 17.2035Z" fill="white"/>
<path d="M28.7036 48.6323L28.2451 48.8883L33.6441 48.4883L28.7036 48.6323Z" fill="#E5E5E5"/>
<path d="M26.6124 17.2036L25.9362 22.6485L26.1051 22.7692L26.6124 17.2036ZM23.5732 30.4003L27.4593 37.1981L27.6223 37.4246L23.5732 30.4003Z" fill="white"/>
<path d="M31.0625 21.184L35.996 21.2988L35.7926 20.8472L31.0625 21.184Z" fill="#E5E5E5"/>
<path d="M25.7117 49.6292L26.2502 49.5527L26.7728 49.4404L25.7117 49.6292ZM25.4874 29.8491L25.2732 29.9775L28.0087 38.191L25.4874 29.8491ZM23.5732 30.4003L27.6223 37.4246L27.7682 37.6655L23.5732 30.4003ZM26.6124 17.2036L26.1051 22.7692L26.2644 22.9046L26.6124 17.2036Z" fill="white"/>
<path d="M31.1911 34.9619L36.1242 34.9466L35.8962 34.6325L31.1911 34.9619ZM31.0646 28.9405L35.9981 28.982L36.2357 28.2871L31.0646 28.9405ZM28.6426 32.9118L28.98 33.0504L33.5832 32.9158L28.6426 32.9118ZM31.2366 21.661L36.1696 21.7714L35.9932 21.2983L31.2366 21.661ZM31.0802 46.3446L36.0136 46.2218L36.3184 45.7375L31.0802 46.3446Z" fill="#E5E5E5"/>
<path d="M25.6934 29.7036L25.4863 29.8491L28.1021 38.4755L25.6934 29.7036ZM26.6113 17.2036L26.2633 22.9046L26.4128 23.0547L26.6113 17.2036Z" fill="white"/>
<path d="M28.7148 18.165L29.0838 18.452L33.6553 18.3079L28.7148 18.165Z" fill="#E5E5E5"/>
<path d="M26.6106 17.2036L26.4121 23.0547L26.5519 23.2195L26.6106 17.2036Z" fill="white"/>
<path d="M29.0858 31.7598L28.5332 32.1855L34.0252 31.7746L29.0858 31.7598Z" fill="#E5E5E5"/>
<path d="M24.1423 49.6557L26.7724 49.4402L28.7029 48.6321L24.1423 49.6557ZM23.8193 44.432L24.1423 49.6557L31.661 45.342L23.8193 44.432ZM25.8938 29.541L25.694 29.7035L28.1027 38.4753L25.8938 29.541Z" fill="white"/>
<path d="M31.4063 35.3015L36.3387 35.283L36.1245 34.9467L31.4063 35.3015ZM31.3867 22.1602L36.3192 22.2659L36.1699 21.7715L31.3867 22.1602Z" fill="#E5E5E5"/>
<path d="M24.0938 30.3643L27.7674 37.6655L27.8962 37.921L24.0938 30.3643Z" fill="white"/>
<path d="M31.3047 28.2393L36.2375 28.2875L36.4224 27.5474L31.3047 28.2393Z" fill="#E5E5E5"/>
<path d="M24.342 44.4672L23.8193 44.4321L31.661 45.3422L24.342 44.4672ZM26.612 17.2036L26.5533 23.2195L26.6826 23.3898L26.612 17.2036Z" fill="white"/>
<path d="M29.1464 48.3404L28.7041 48.6325L34.0856 48.1991L29.1464 48.3404ZM31.5115 22.6811L36.4437 22.7818L36.3214 22.2661L31.5115 22.6811Z" fill="#E5E5E5"/>
<path d="M26.6123 17.2036L26.683 23.3898L26.8011 23.5717L26.6123 17.2036Z" fill="white"/>
<path d="M31.3864 45.8562L36.3189 45.7379L36.5918 45.2289L31.3864 45.8562ZM28.9805 33.0508L29.3044 33.2116L33.9201 33.0535L28.9805 33.0508Z" fill="#E5E5E5"/>
<path d="M26.0862 29.3618L25.8936 29.5413L28.1798 38.7746L26.0862 29.3618Z" fill="white"/>
<path d="M31.4902 27.4923L36.4225 27.5475L36.5546 26.7622L31.4902 27.4923ZM31.6129 35.6514L36.5447 35.6295L36.3402 35.2834L31.6129 35.6514Z" fill="#E5E5E5"/>
<path d="M26.6123 17.2036L26.8011 23.5717L26.908 23.7651L26.6123 17.2036Z" fill="white"/>
<path d="M31.603 23.2232L36.5349 23.3188L36.4398 22.7818L31.603 23.2232ZM29.082 18.4521L29.4337 18.7707L34.0214 18.5924L29.082 18.4521Z" fill="#E5E5E5"/>
<path d="M26.6096 17.2036L26.9053 23.7651L27.001 23.9701L26.6096 17.2036ZM26.2694 29.1651L26.084 29.3616L28.1777 38.7744L26.2694 29.1651Z" fill="white"/>
<path d="M31.623 26.6994L36.5549 26.7622L36.6342 25.9319L31.623 26.6994ZM31.6746 23.7867L36.6063 23.877L36.5383 23.3188L31.6746 23.7867Z" fill="#E5E5E5"/>
<path d="M24.6455 44.4632L24.3418 44.4672L31.6608 45.3422L24.6455 44.4632ZM26.6118 17.2036L27.0032 23.9701L27.0877 24.1866L26.6118 17.2036ZM24.8226 30.1832L27.8964 37.921L28.0081 38.191L24.8226 30.1832Z" fill="white"/>
<path d="M31.715 24.3715L36.6466 24.4563L36.6058 23.877L31.715 24.3715ZM31.7021 25.8612L36.6337 25.9318L36.6602 25.0567L31.7021 25.8612ZM31.7287 24.9776L36.6602 25.0567L36.6466 24.4563L31.7287 24.9776Z" fill="#E5E5E5"/>
<path d="M26.6123 17.2036L27.0882 24.1866L27.1614 24.4147L26.6123 17.2036Z" fill="white"/>
<path d="M31.7999 36.014L36.7312 35.9887L36.5444 35.6299L31.7999 36.014ZM31.6611 45.3428L36.5928 45.2294L36.8338 44.6956L31.6611 45.3428Z" fill="#E5E5E5"/>
<path d="M26.4447 28.9552L26.2705 29.1651L28.1788 38.7744L26.4447 28.9552ZM26.6107 17.2036L27.1598 24.4147L27.2217 24.6543L26.6107 17.2036Z" fill="white"/>
<path d="M29.3047 33.2114L29.6151 33.3946L34.2434 33.2126L29.3047 33.2114Z" fill="#E5E5E5"/>
<path d="M26.6123 17.2036L27.2233 24.6543L27.274 24.9054L26.6123 17.2036Z" fill="white"/>
<path d="M29.5866 31.2881L29.0859 31.7599L34.5245 31.3074L29.5866 31.2881ZM29.5716 48.0123L29.1455 48.3404L34.5095 47.874L29.5716 48.0123Z" fill="#E5E5E5"/>
<path d="M27.5048 17.4937L27.0669 17.3329L26.6118 17.2036L27.5048 17.4937ZM26.6118 17.2036L27.2736 24.9054L27.313 25.168L26.6118 17.2036ZM24.9382 44.4421L24.6455 44.4632L31.6608 45.3422L24.9382 44.4421ZM26.6118 17.2036L27.313 25.168L27.3412 25.4421L26.6118 17.2036ZM26.605 28.7359L26.4458 28.9552L28.2401 39.0878L26.605 28.7359Z" fill="white"/>
<path d="M31.9686 36.3885L36.8993 36.3596L36.7303 35.9881L31.9686 36.3885ZM29.4355 18.7705L29.7697 19.1207L34.3739 18.9078L29.4355 18.7705ZM31.9019 44.8034L36.8328 44.695L37.0418 44.1365L31.9019 44.8034Z" fill="#E5E5E5"/>
<path d="M26.7463 28.5072L26.6023 28.736L28.2374 39.0879L26.7463 28.5072ZM25.4841 29.8492L28.0054 38.1911L28.0999 38.4755L25.4841 29.8492ZM25.2173 44.4039L24.9355 44.4422L31.6581 45.3423L25.2173 44.4039ZM26.7696 49.4405L27.2763 49.2923L27.767 49.1083L26.7696 49.4405ZM26.8753 28.269L26.7463 28.5072L28.2374 39.0879L26.8753 28.269Z" fill="white"/>
<path d="M32.1216 36.7768L37.052 36.7443L36.9006 36.3601L32.1216 36.7768ZM29.6162 33.3951L29.9131 33.6005L34.554 33.3945L29.6162 33.3951Z" fill="#E5E5E5"/>
<path d="M26.9907 28.0215L26.877 28.2691L28.2821 39.4158L26.9907 28.0215Z" fill="white"/>
<path d="M32.1133 44.2399L37.0436 44.1368L37.2205 43.5537L32.1133 44.2399Z" fill="#E5E5E5"/>
<path d="M25.8936 29.541L28.1025 38.4753L28.1798 38.7742L25.8936 29.541Z" fill="white"/>
<path d="M32.2529 37.1773L37.1828 37.141L37.0493 36.7441L32.2529 37.1773Z" fill="#E5E5E5"/>
<path d="M27.0901 27.7646L26.9915 28.0217L28.2828 39.416L27.0901 27.7646ZM25.4905 44.3487L25.2197 44.4042L31.6606 45.3426L25.4905 44.3487Z" fill="white"/>
<path d="M29.984 47.6482L29.5742 48.0124L34.9207 47.5132L29.984 47.6482Z" fill="#E5E5E5"/>
<path d="M28.3297 17.9097L27.5053 17.4937L26.6123 17.2036L28.3297 17.9097Z" fill="white"/>
<path d="M29.7691 19.1211L30.0811 19.4904L34.7064 19.2552L29.7691 19.1211ZM30.0335 30.7705L29.585 31.2883L34.9701 30.7947L30.0335 30.7705Z" fill="#E5E5E5"/>
<path d="M27.1724 27.498L27.0889 27.7645L28.2816 39.4159L27.1724 27.498Z" fill="white"/>
<path d="M32.3717 37.5903L37.3013 37.5501L37.1855 37.1406L32.3717 37.5903ZM32.29 43.6509L37.2198 43.5534L37.3646 42.9457L32.29 43.6509Z" fill="#E5E5E5"/>
<path d="M26.4473 28.9551L28.1814 38.7743L28.2415 39.0877L26.4473 28.9551Z" fill="white"/>
<path d="M29.9141 33.6001L30.1973 33.8279L34.851 33.5977L29.9141 33.6001Z" fill="#E5E5E5"/>
<path d="M25.7499 44.2759L25.4902 44.3486L31.6603 45.3424L25.7499 44.2759Z" fill="white"/>
<path d="M32.4697 38.0166L37.399 37.9724L37.301 37.5503L32.4697 38.0166Z" fill="#E5E5E5"/>
<path d="M27.9295 32.7018V32.5654L27.1748 27.498L27.9295 32.7018Z" fill="white"/>
<path d="M32.4336 43.0375L37.363 42.9457L37.4756 42.3135L32.4336 43.0375ZM32.5488 38.4552L37.4778 38.4068L37.3976 37.9722L32.5488 38.4552Z" fill="#E5E5E5"/>
<path d="M26.7715 49.4404L27.7689 49.1083L28.702 48.6323L26.7715 49.4404Z" fill="white"/>
<path d="M32.5469 42.3991L37.4759 42.3134L37.5564 41.6567L32.5469 42.3991Z" fill="#E5E5E5"/>
<path d="M27.1748 27.498L28.284 39.4159L27.9295 32.7018L27.1748 27.498Z" fill="white"/>
<path d="M30.083 19.4897L30.3681 19.8807L35.0194 19.6204L30.083 19.4897Z" fill="#E5E5E5"/>
<path d="M26.8775 28.269L28.2397 39.0879L28.2826 39.4157L26.8775 28.269ZM25.9987 44.1858L25.75 44.2757L31.6604 45.3423L25.9987 44.1858Z" fill="white"/>
<path d="M32.612 38.9071L37.5409 38.8544L37.4785 38.4072L32.612 38.9071ZM32.6567 39.3712L37.5854 39.3141L37.5409 38.8544L32.6567 39.3712ZM32.6279 41.7367L37.5567 41.6573L37.605 40.9762L32.6279 41.7367ZM30.3739 47.2477L29.9805 47.6482L35.3095 47.1164L30.3739 47.2477ZM32.6836 39.8479L37.6122 39.7863L37.5854 39.3141L32.6836 39.8479ZM32.6764 41.0492L37.605 40.9762L37.6211 40.2709L32.6764 41.0492ZM32.6925 40.3372L37.6211 40.2709L37.6122 39.7863L32.6925 40.3372ZM30.1952 33.8281L30.4648 34.0782L35.1312 33.8235L30.1952 33.8281ZM30.4305 30.2065L30.0343 30.7704L35.3659 30.2361L30.4305 30.2065Z" fill="#E5E5E5"/>
<path d="M28.3272 17.9097L27.9236 17.6859L27.5028 17.4937L28.3272 17.9097ZM26.2347 44.0786L25.9971 44.1857L31.6588 45.3422L26.2347 44.0786Z" fill="white"/>
<path d="M30.3672 19.8809L30.6253 20.2935L35.3028 20.0078L30.3672 19.8809Z" fill="#E5E5E5"/>
<path d="M26.4646 43.9546L26.2381 44.079L31.6622 45.3425L26.4646 43.9546ZM24.1436 49.6562L28.7042 48.6326L31.6622 45.3425L24.1436 49.6562Z" fill="white"/>
<path d="M30.4648 34.0783L30.7208 34.3507L35.4001 34.0713L30.4648 34.0783Z" fill="#E5E5E5"/>
<path d="M28.2835 39.4156L28.3093 39.7579L27.9291 32.7015L28.2835 39.4156ZM29.7708 19.1207L28.3297 17.9097L26.6123 17.2036L29.7708 19.1207Z" fill="white"/>
<path d="M30.7444 46.8083L30.375 47.247L35.6788 46.6812L30.7444 46.8083Z" fill="#E5E5E5"/>
<path d="M27.7684 49.1086L28.243 48.8886L28.7015 48.6326L27.7684 49.1086ZM26.6773 43.813L26.4619 43.9546L31.6595 45.3425L26.6773 43.813Z" fill="white"/>
<path d="M30.7744 29.5967L30.4307 30.2065L35.7087 29.632L30.7744 29.5967Z" fill="#E5E5E5"/>
<path d="M28.6429 32.9121L28.292 32.7958L27.9277 32.7017L28.6429 32.9121Z" fill="white"/>
<path d="M30.6279 20.2935L30.8591 20.7277L35.5627 20.4166L30.6279 20.2935Z" fill="#E5E5E5"/>
<path d="M26.88 43.6538L26.6758 43.8127L31.658 45.3422L26.88 43.6538Z" fill="white"/>
<path d="M30.7227 34.3504L30.965 34.6451L35.6572 34.3408L30.7227 34.3504Z" fill="#E5E5E5"/>
<path d="M31.5107 22.6809L26.6123 17.2036L27.3416 25.4421L31.5107 22.6809ZM27.9291 32.5652L28.5334 32.1854L29.086 31.7597L27.9291 32.5652ZM27.0764 43.4776L26.8833 43.6537L31.6613 45.3422L27.0764 43.4776Z" fill="white"/>
<path d="M30.8562 20.7275L31.0602 21.1835L35.7903 20.8466L30.8562 20.7275ZM31.0807 46.3446L30.7432 46.8083L36.0142 46.2217L31.0807 46.3446ZM31.0652 28.9404L30.7741 29.5961L35.9986 28.9819L31.0652 28.9404Z" fill="#E5E5E5"/>
<path d="M29.3061 33.2117L28.6447 32.9123L27.9295 32.7018L29.3061 33.2117ZM31.5111 22.6812L27.2431 27.2222L27.1748 27.4981L31.5111 22.6812Z" fill="white"/>
<path d="M30.9639 34.6452L31.1925 34.9623L35.8977 34.6328L30.9639 34.6452Z" fill="#E5E5E5"/>
<path d="M27.2591 43.2842L27.0771 43.4776L31.662 45.3422L27.2591 43.2842ZM31.5114 22.6809L27.2966 26.9367L27.2434 27.2219L31.5114 22.6809ZM29.0858 18.4519L28.7168 18.165L28.3304 17.9097L29.0858 18.4519ZM31.5114 22.6809L27.3345 26.6421L27.2966 26.9367L31.5114 22.6809ZM31.5114 22.6809L27.3573 26.3381L27.3345 26.6421L31.5114 22.6809Z" fill="white"/>
<path d="M31.0625 21.1841L31.2394 21.6616L35.996 21.2989L31.0625 21.1841Z" fill="#E5E5E5"/>
<path d="M31.5082 22.6812L27.3391 25.4424L27.356 25.728L31.5082 22.6812ZM31.5082 22.6812L27.3617 26.0251L27.3541 26.3384L31.5082 22.6812ZM31.5082 22.6812L27.356 25.728L27.3617 26.0251L31.5082 22.6812ZM27.4249 43.0772L27.2559 43.2845L31.6588 45.3424L27.4249 43.0772Z" fill="white"/>
<path d="M31.3047 28.2393L31.0664 28.9408L36.2375 28.2874L31.3047 28.2393Z" fill="#E5E5E5"/>
<path d="M27.9295 32.5654L31.5111 22.6812L27.1748 27.4981L27.9295 32.5654Z" fill="white"/>
<path d="M31.1924 34.9626L31.4073 35.3021L36.1255 34.9473L31.1924 34.9626Z" fill="#E5E5E5"/>
<path d="M27.5812 42.8589L27.4268 43.0765L31.6606 45.3417L27.5812 42.8589Z" fill="white"/>
<path d="M31.3867 45.8559L31.0811 46.3447L36.3193 45.7376L31.3867 45.8559ZM31.2375 21.6611L31.3872 22.1602L36.1704 21.7714L31.2375 21.6611Z" fill="#E5E5E5"/>
<path d="M29.3059 33.2114L28.9819 33.0506L28.6445 32.912L29.3059 33.2114ZM27.7218 42.6314L27.582 42.8593L31.6615 45.3422L27.7218 42.6314ZM27.9293 32.5652L29.0862 31.7597L30.0355 30.77L27.9293 32.5652Z" fill="white"/>
<path d="M31.4902 27.4918L31.3047 28.239L36.4224 27.547L31.4902 27.4918ZM31.3881 22.1602L31.5107 22.6807L36.3207 22.2658L31.3881 22.1602Z" fill="#E5E5E5"/>
<path d="M29.77 19.1207L29.0842 18.4519L28.3289 17.9097L29.77 19.1207ZM27.8458 42.393L27.7207 42.6314L31.6604 45.3422L27.8458 42.393Z" fill="white"/>
<path d="M31.4082 35.3018L31.6133 35.6512L36.3407 35.2832L31.4082 35.3018Z" fill="#E5E5E5"/>
<path d="M28.7033 48.6325L29.1456 48.3404L29.5717 48.0123L28.7033 48.6325ZM27.9571 42.1445L27.8467 42.3932L31.6613 45.3424L27.9571 42.1445Z" fill="white"/>
<path d="M31.5079 22.6812L31.6032 23.2232L36.44 22.7819L31.5079 22.6812ZM31.6585 45.3424L31.3848 45.8563L36.5902 45.229L31.6585 45.3424ZM31.6198 26.6994L31.4873 27.4922L36.5517 26.7621L31.6198 26.6994Z" fill="#E5E5E5"/>
<path d="M28.0514 41.8854L27.9557 42.1444L31.6599 45.3423L28.0514 41.8854ZM30.4645 34.078L29.3043 33.2116L27.9277 32.7017L30.4645 34.078Z" fill="white"/>
<path d="M31.6055 23.2227L31.6736 23.7861L36.5373 23.3183L31.6055 23.2227Z" fill="#E5E5E5"/>
<path d="M28.1337 41.6162L28.0527 41.8856L31.6613 45.3425L28.1337 41.6162Z" fill="white"/>
<path d="M31.7008 25.8608L31.6212 26.6991L36.6324 25.9315L31.7008 25.8608ZM31.6113 35.651L31.7987 36.0133L36.5432 35.6292L31.6113 35.651Z" fill="#E5E5E5"/>
<path d="M31.5107 22.6809L29.7708 19.1207L26.6123 17.2036L31.5107 22.6809ZM28.3093 39.7579L31.6613 45.3422L27.9291 32.7015L28.3093 39.7579Z" fill="white"/>
<path d="M31.6748 23.7861L31.7157 24.371L36.6065 23.8764L31.6748 23.7861ZM31.7157 24.371L31.7293 24.9771L36.6472 24.4557L31.7157 24.371ZM31.7293 24.9771L31.7028 25.8606L36.6608 25.0561L31.7293 24.9771Z" fill="#E5E5E5"/>
<path d="M28.1991 41.3364L28.1328 41.6161L31.6603 45.3424L28.1991 41.3364ZM28.2507 41.0464L28.1991 41.3364L31.6603 45.3424L28.2507 41.0464ZM28.2875 40.7462L28.2507 41.0464L31.6603 45.3424L28.2875 40.7462ZM28.3096 40.4356L28.2875 40.7462L31.6603 45.3424L28.3096 40.4356ZM28.3084 39.7581L28.317 40.1148L31.6603 45.3424L28.3084 39.7581ZM28.317 40.1148L28.3096 40.4356L31.6603 45.3424L28.317 40.1148ZM29.7699 19.1209L29.4357 18.7707L29.0841 18.4521L29.7699 19.1209Z" fill="white"/>
<path d="M31.9028 44.8036L31.6611 45.3424L36.8338 44.6952L31.9028 44.8036ZM31.7999 36.0136L31.9695 36.3887L36.7312 35.9883L31.7999 36.0136Z" fill="#E5E5E5"/>
<path d="M28.7041 48.6323L29.5725 48.0121L30.3758 47.2473L28.7041 48.6323ZM29.0869 31.7597L29.5876 31.2879L30.0361 30.77L29.0869 31.7597ZM29.9137 33.6L29.6169 33.3946L29.3065 33.2114L29.9137 33.6Z" fill="white"/>
<path d="M31.9681 36.3882L32.1199 36.7761L36.8989 36.3594L31.9681 36.3882ZM32.1109 44.2394L31.9014 44.8031L37.0413 44.1363L32.1109 44.2394Z" fill="#E5E5E5"/>
<path d="M27.9277 32.5653L30.0339 30.7701L31.3033 28.2393L27.9277 32.5653Z" fill="white"/>
<path d="M32.1222 36.7767L32.2562 37.1773L37.0525 36.7441L32.1222 36.7767ZM32.2907 43.6513L32.1133 44.2399L37.2205 43.5537L32.2907 43.6513Z" fill="#E5E5E5"/>
<path d="M30.4649 34.0778L29.912 33.6L29.3047 33.2114L30.4649 34.0778Z" fill="white"/>
<path d="M32.2529 37.1769L32.3691 37.5903L37.1828 37.1406L32.2529 37.1769Z" fill="#E5E5E5"/>
<path d="M29.5742 48.0123L29.984 47.648L30.3775 47.2476L29.5742 48.0123Z" fill="white"/>
<path d="M32.4353 43.0377L32.29 43.6511L37.3646 42.9459L32.4353 43.0377ZM32.3717 37.5905L32.47 38.0166L37.3013 37.5503L32.3717 37.5905Z" fill="#E5E5E5"/>
<path d="M30.3667 19.8813L30.0816 19.4904L29.7695 19.1211L30.3667 19.8813Z" fill="white"/>
<path d="M32.4684 38.0164L32.5488 38.4552L37.3976 37.9722L32.4684 38.0164ZM32.5466 42.3993L32.4336 43.0375L37.4756 42.3135L32.5466 42.3993Z" fill="#E5E5E5"/>
<path d="M32.1201 36.7765L30.4645 34.078L27.9277 32.7017L32.1201 36.7765Z" fill="white"/>
<path d="M32.5508 38.4552L32.6134 38.9066L37.4798 38.4067L32.5508 38.4552Z" fill="#E5E5E5"/>
<path d="M30.467 34.0779L30.1973 33.8278L29.9141 33.6001L30.467 34.0779Z" fill="white"/>
<path d="M32.6276 41.7364L32.5469 42.3993L37.5564 41.6569L32.6276 41.7364ZM32.6117 38.9067L32.6564 39.3708L37.5405 38.854L32.6117 38.9067Z" fill="#E5E5E5"/>
<path d="M28.7019 48.6325L30.3736 47.2476L31.6599 45.3424L28.7019 48.6325ZM27.9277 32.5654L31.3033 28.2394L31.5093 22.6812L27.9277 32.5654Z" fill="white"/>
<path d="M32.6783 41.0491L32.6299 41.7366L37.607 40.9761L32.6783 41.0491ZM32.6587 39.3711L32.6855 39.8478L37.5874 39.314L32.6587 39.3711ZM32.6855 39.8478L32.6945 40.3371L37.6142 39.7862L32.6855 39.8478ZM32.6945 40.3371L32.6783 41.0491L37.6231 40.2708L32.6945 40.3371Z" fill="#E5E5E5"/>
<path d="M30.8559 20.7283L30.3667 19.8813L29.7695 19.1211L30.8559 20.7283ZM30.0339 30.7705L30.4301 30.2066L30.7739 29.5968L30.0339 30.7705ZM31.6599 45.3426L32.1201 36.7768L27.9277 32.702L31.6599 45.3426ZM30.8559 20.7283L30.6248 20.294L30.3667 19.8813L30.8559 20.7283ZM30.0339 30.7705L30.7739 29.5968L31.3033 28.2396L30.0339 30.7705ZM31.5093 22.6813L30.8559 20.7283L29.7695 19.1211L31.5093 22.6813ZM30.9628 34.6454L30.7205 34.3507L30.4645 34.0783L30.9628 34.6454ZM30.3736 47.2478L30.743 46.8091L31.0805 46.3453L30.3736 47.2478ZM31.4063 35.302L30.9628 34.6454L30.4645 34.0783L31.4063 35.302ZM30.3736 47.2478L31.0805 46.3453L31.6599 45.3426L30.3736 47.2478ZM30.7739 29.5968L31.0649 28.9411L31.3033 28.2396L30.7739 29.5968ZM31.2369 21.6617L31.06 21.1842L30.8559 20.7283L31.2369 21.6617ZM31.4063 35.302L31.1914 34.9626L30.9628 34.6454L31.4063 35.302ZM31.5093 22.6813L31.2369 21.6617L30.8559 20.7283L31.5093 22.6813ZM32.1201 36.7768L31.4063 35.302L30.4645 34.0783L32.1201 36.7768ZM31.0805 46.3453L31.3862 45.8565L31.6599 45.3426L31.0805 46.3453ZM31.5093 22.6813L31.3867 22.1607L31.2369 21.6617L31.5093 22.6813ZM31.3033 28.2396L31.4888 27.4924L31.6213 26.6996L31.3033 28.2396ZM31.3033 28.2396L31.7273 24.9778L31.5093 22.6813L31.3033 28.2396ZM31.3033 28.2396L31.6213 26.6996L31.7273 24.9778L31.3033 28.2396ZM31.6728 23.7868L31.6047 23.2234L31.5093 22.6813L31.6728 23.7868ZM31.7987 36.0138L31.6114 35.6515L31.4063 35.302L31.7987 36.0138ZM31.7273 24.9778L31.6728 23.7868L31.5093 22.6813L31.7273 24.9778ZM31.6213 26.6996L31.7008 25.8613L31.7273 24.9778L31.6213 26.6996ZM31.7273 24.9778L31.7137 24.3717L31.6728 23.7868L31.7273 24.9778ZM32.1201 36.7768L31.7987 36.0138L31.4063 35.302L32.1201 36.7768ZM31.6599 45.3426L31.9016 44.8038L32.1112 44.24L31.6599 45.3426ZM32.1201 36.7768L31.9683 36.3889L31.7987 36.0138L32.1201 36.7768ZM31.6599 45.3426L32.1112 44.24L32.4339 43.0379L31.6599 45.3426ZM31.6599 45.3426L32.6922 40.3372L32.1201 36.7768L31.6599 45.3426ZM32.3703 37.5908L32.2541 37.1774L32.1201 36.7768L32.3703 37.5908ZM31.6599 45.3426L32.4339 43.0379L32.6922 40.3372L31.6599 45.3426ZM32.1112 44.24L32.2886 43.6514L32.4339 43.0379L32.1112 44.24ZM32.5491 38.4557L32.3703 37.5908L32.1201 36.7768L32.5491 38.4557ZM32.6922 40.3372L32.5491 38.4557L32.1201 36.7768L32.6922 40.3372ZM32.5491 38.4557L32.4686 38.0169L32.3703 37.5908L32.5491 38.4557ZM32.4339 43.0379L32.5469 42.3997L32.6276 41.7368L32.4339 43.0379ZM32.4339 43.0379L32.6276 41.7368L32.6922 40.3372L32.4339 43.0379ZM32.6564 39.3713L32.6117 38.9071L32.5491 38.4557L32.6564 39.3713ZM32.6922 40.3372L32.6564 39.3713L32.5491 38.4557L32.6922 40.3372ZM32.6276 41.7368L32.676 41.0493L32.6922 40.3372L32.6276 41.7368ZM32.6922 40.3372L32.6832 39.848L32.6564 39.3713L32.6922 40.3372Z" fill="white"/>
</g>
<path d="M30.4927 17.1671L25.1787 17.0015C26.4539 17.0578 27.3602 17.4315 27.9532 17.6998C28.5463 17.9682 29.1648 18.4461 29.8171 19.1418C30.339 19.6983 30.8084 20.587 30.9778 20.9618C31.0343 21.0708 31.2116 21.5203 31.4692 22.4461C31.7267 23.3719 31.7516 24.6319 31.7318 25.1463C31.7149 25.7081 31.6403 26.9911 31.4777 27.6284C31.2743 28.4251 31.0795 29.0959 30.5373 30.0435C29.995 30.9911 29.7663 31.1085 29.1478 31.7038C28.653 32.1801 28.134 32.4669 27.9363 32.5508V32.7017C30.0035 33.1126 31.1218 34.5801 31.7742 35.9721C32.4316 37.079 32.6525 38.8261 32.6807 39.5612C32.8163 41.4731 32.4689 42.9769 32.3503 43.4354C32.2317 43.8938 31.8742 45.0236 31.3929 45.8756C30.9117 46.7276 29.9329 47.6897 29.5036 48.0642C29.3709 48.1677 28.914 48.4886 28.1481 48.9447C27.1111 49.421 25.9143 49.6128 25.4455 49.6491C26.5271 49.6268 29.0919 49.5602 30.6982 49.473C32.0538 49.3456 33.0648 48.8553 33.4008 48.6261C33.7539 48.4556 34.6869 47.8529 35.5951 46.8064C36.5034 45.7599 37.0637 44.2292 37.2303 43.5947C37.3828 42.9686 37.6742 41.3306 37.62 39.7876C37.5658 38.2446 37.2303 37.1489 37.0693 36.7939C36.9676 36.3942 36.5254 35.3264 35.5697 34.2531C34.6141 33.1797 33.3641 32.7716 32.8586 32.7017V32.5508C33.2003 32.3943 34.0549 31.885 34.7395 31.1001C35.629 30.3286 36.2475 28.4167 36.3915 27.8464C36.5068 27.4574 36.6146 26.4097 36.6542 25.9345C36.6796 25.2609 36.6779 23.6939 36.4678 22.8151C36.2051 21.7165 36.0378 21.334 35.8231 20.8987C35.6399 20.4996 35.1582 19.7015 34.6188 19.1418C34.0795 18.5821 33.5873 18.1934 32.8019 17.7943C32.1191 17.4004 30.9779 17.212 30.4927 17.1671Z" fill="#C4C4C4"/>
<path d="M30.4927 17.1671L25.1787 17.0015C26.4539 17.0578 27.3602 17.4315 27.9532 17.6998C28.5463 17.9682 29.1648 18.4461 29.8171 19.1418C30.339 19.6983 30.8084 20.587 30.9778 20.9618C31.0343 21.0708 31.2116 21.5203 31.4692 22.4461C31.7267 23.3719 31.7516 24.6319 31.7318 25.1463C31.7149 25.7081 31.6403 26.9911 31.4777 27.6284C31.2743 28.4251 31.0795 29.0959 30.5373 30.0435C29.995 30.9911 29.7663 31.1085 29.1478 31.7038C28.653 32.1801 28.134 32.4669 27.9363 32.5508V32.7017C30.0035 33.1126 31.1218 34.5801 31.7742 35.9721C32.4316 37.079 32.6525 38.8261 32.6807 39.5612C32.8163 41.4731 32.4689 42.9769 32.3503 43.4354C32.2317 43.8938 31.8742 45.0236 31.3929 45.8756C30.9117 46.7276 29.9329 47.6897 29.5036 48.0642C29.3709 48.1677 28.914 48.4886 28.1481 48.9447C27.1111 49.421 25.9143 49.6128 25.4455 49.6491C26.5271 49.6268 29.0919 49.5602 30.6982 49.473C32.0538 49.3456 33.0648 48.8553 33.4008 48.6261C33.7539 48.4556 34.6869 47.8529 35.5951 46.8064C36.5034 45.7599 37.0637 44.2292 37.2303 43.5947C37.3828 42.9686 37.6742 41.3306 37.62 39.7876C37.5658 38.2446 37.2303 37.1489 37.0693 36.7939C36.9676 36.3942 36.5254 35.3264 35.5697 34.2531C34.6141 33.1797 33.3641 32.7716 32.8586 32.7017V32.5508C33.2003 32.3943 34.0549 31.885 34.7395 31.1001C35.629 30.3286 36.2475 28.4167 36.3915 27.8464C36.5068 27.4574 36.6146 26.4097 36.6542 25.9345C36.6796 25.2609 36.6779 23.6939 36.4678 22.8151C36.2051 21.7165 36.0378 21.334 35.8231 20.8987C35.6399 20.4996 35.1582 19.7015 34.6188 19.1418C34.0795 18.5821 33.5873 18.1934 32.8019 17.7943C32.1191 17.4004 30.9779 17.212 30.4927 17.1671Z" fill="url(#paint2_linear_1115_95793)"/>
<path d="M30.4927 17.1671L25.1787 17.0015C26.4539 17.0578 27.3602 17.4315 27.9532 17.6998C28.5463 17.9682 29.1648 18.4461 29.8171 19.1418C30.339 19.6983 30.8084 20.587 30.9778 20.9618C31.0343 21.0708 31.2116 21.5203 31.4692 22.4461C31.7267 23.3719 31.7516 24.6319 31.7318 25.1463C31.7149 25.7081 31.6403 26.9911 31.4777 27.6284C31.2743 28.4251 31.0795 29.0959 30.5373 30.0435C29.995 30.9911 29.7663 31.1085 29.1478 31.7038C28.653 32.1801 28.134 32.4669 27.9363 32.5508V32.7017C30.0035 33.1126 31.1218 34.5801 31.7742 35.9721C32.4316 37.079 32.6525 38.8261 32.6807 39.5612C32.8163 41.4731 32.4689 42.9769 32.3503 43.4354C32.2317 43.8938 31.8742 45.0236 31.3929 45.8756C30.9117 46.7276 29.9329 47.6897 29.5036 48.0642C29.3709 48.1677 28.914 48.4886 28.1481 48.9447C27.1111 49.421 25.9143 49.6128 25.4455 49.6491C26.5271 49.6268 29.0919 49.5602 30.6982 49.473C32.0538 49.3456 33.0648 48.8553 33.4008 48.6261C33.7539 48.4556 34.6869 47.8529 35.5951 46.8064C36.5034 45.7599 37.0637 44.2292 37.2303 43.5947C37.3828 42.9686 37.6742 41.3306 37.62 39.7876C37.5658 38.2446 37.2303 37.1489 37.0693 36.7939C36.9676 36.3942 36.5254 35.3264 35.5697 34.2531C34.6141 33.1797 33.3641 32.7716 32.8586 32.7017V32.5508C33.2003 32.3943 34.0549 31.885 34.7395 31.1001C35.629 30.3286 36.2475 28.4167 36.3915 27.8464C36.5068 27.4574 36.6146 26.4097 36.6542 25.9345C36.6796 25.2609 36.6779 23.6939 36.4678 22.8151C36.2051 21.7165 36.0378 21.334 35.8231 20.8987C35.6399 20.4996 35.1582 19.7015 34.6188 19.1418C34.0795 18.5821 33.5873 18.1934 32.8019 17.7943C32.1191 17.4004 30.9779 17.212 30.4927 17.1671Z" fill="url(#paint3_linear_1115_95793)"/>
<path d="M24.1324 40.3999L19.1309 40.4697C19.5738 41.4732 20.4888 42.5717 20.743 42.8316C20.887 43.0245 21.7257 43.7205 22.2171 43.9469C22.3527 43.9889 23.3863 44.5507 24.9113 44.4585C25.9415 44.3511 26.6453 43.8826 26.8684 43.6618C25.6907 42.8652 24.7673 41.7164 24.1324 40.3999Z" fill="#C4C4C4"/>
<path d="M24.1324 40.3999L19.1309 40.4697C19.5738 41.4732 20.4888 42.5717 20.743 42.8316C20.887 43.0245 21.7257 43.7205 22.2171 43.9469C22.3527 43.9889 23.3863 44.5507 24.9113 44.4585C25.9415 44.3511 26.6453 43.8826 26.8684 43.6618C25.6907 42.8652 24.7673 41.7164 24.1324 40.3999Z" fill="url(#paint4_linear_1115_95793)"/>
<path d="M26.5828 23.2573C23.6771 20.4255 20.3501 23.8725 19.6631 25.6722C20.624 25.7089 22.9718 25.7824 24.6752 25.7824C24.9946 24.6759 26.08 23.638 26.5828 23.2573Z" fill="#C4C4C4"/>
<path d="M26.5828 23.2573C23.6771 20.4255 20.3501 23.8725 19.6631 25.6722C20.624 25.7089 22.9718 25.7824 24.6752 25.7824C24.9946 24.6759 26.08 23.638 26.5828 23.2573Z" fill="url(#paint5_linear_1115_95793)"/>
<path d="M31.2287 0.235008L29.8799 0.0239258C30.3342 0.0850532 30.7839 0.155462 31.2287 0.235008L42.5426 2.00552C44.443 2.47926 49.1316 4.21928 52.6825 7.38939C56.2335 10.5595 58.9199 14.8265 59.8193 16.5638L61.7775 20.871C62.8074 24.1301 64.6061 31.8975 63.5617 36.8938C62.9351 41.9247 61.0377 46.8866 60.1674 48.7387C59.0795 51.3374 55.4589 57.422 49.6799 60.9712C46.6337 63.5124 40.1933 65.02 34.7972 65.5799C35.4644 65.4076 36.9382 64.9941 37.4952 64.7185C38.1915 64.3739 57.4941 56.0442 55.7794 30.279C54.4387 14.2515 45.2048 2.73414 31.2287 0.235008Z" fill="url(#paint6_linear_1115_95793)"/>
<defs>
<filter id="filter0_d_1115_95793" x="11.8916" y="9" width="40.7314" height="52.6753" filterUnits="userSpaceOnUse" color-interpolation-filters="sRGB">
<feFlood flood-opacity="0" result="BackgroundImageFix"/>
<feColorMatrix in="SourceAlpha" type="matrix" values="0 0 0 0 0 0 0 0 0 0 0 0 0 0 0 0 0 0 127 0" result="hardAlpha"/>
<feOffset dx="5" dy="2"/>
<feGaussianBlur stdDeviation="5"/>
<feColorMatrix type="matrix" values="0 0 0 0 0.321569 0 0 0 0 0.156863 0 0 0 0 0.423529 0 0 0 0.3 0"/>
<feBlend mode="normal" in2="BackgroundImageFix" result="effect1_dropShadow_1115_95793"/>
<feBlend mode="normal" in="SourceGraphic" in2="effect1_dropShadow_1115_95793" result="shape"/>
</filter>
<linearGradient id="paint0_linear_1115_95793" x1="28.4305" y1="0" x2="40.5706" y2="67.9739" gradientUnits="userSpaceOnUse">
<stop stop-color="#DEE5F8"/>
<stop offset="1" stop-color="#BDBEE3"/>
</linearGradient>
<linearGradient id="paint1_linear_1115_95793" x1="38.8637" y1="53.3677" x2="-4.25285" y2="1.66266" gradientUnits="userSpaceOnUse">
<stop stop-color="white" stop-opacity="0.7"/>
<stop offset="1" stop-color="#A0A3CF"/>
</linearGradient>
<linearGradient id="paint2_linear_1115_95793" x1="31.4027" y1="17.0015" x2="31.4027" y2="49.6491" gradientUnits="userSpaceOnUse">
<stop stop-color="#E5E5E5"/>
<stop offset="1" stop-color="#E5E5E5" stop-opacity="0"/>
</linearGradient>
<linearGradient id="paint3_linear_1115_95793" x1="54.4636" y1="38.6687" x2="31.4922" y2="49.8334" gradientUnits="userSpaceOnUse">
<stop stop-color="#EFE6F6"/>
<stop offset="1" stop-color="#EEECF0"/>
</linearGradient>
<linearGradient id="paint4_linear_1115_95793" x1="22.9536" y1="36.5" x2="22.9536" y2="52" gradientUnits="userSpaceOnUse">
<stop offset="0.161458" stop-color="#F4F4F4"/>
<stop offset="0.755208" stop-color="#E5E5E5" stop-opacity="0"/>
</linearGradient>
<linearGradient id="paint5_linear_1115_95793" x1="23.1229" y1="22.1807" x2="22.9575" y2="31.0001" gradientUnits="userSpaceOnUse">
<stop stop-color="#E5E5E5"/>
<stop offset="1" stop-color="#E5E5E5" stop-opacity="0"/>
</linearGradient>
<linearGradient id="paint6_linear_1115_95793" x1="80.7688" y1="27.416" x2="13.2541" y2="39.5309" gradientUnits="userSpaceOnUse">
<stop stop-color="#BDBEE3"/>
<stop offset="1" stop-color="#DEE5F8"/>
</linearGradient>
</defs>
</svg>
