<svg width="64" height="67" viewBox="0 0 64 67" fill="none" xmlns="http://www.w3.org/2000/svg">
<path d="M0.947052 28.9173L0.726562 33.1383L0.947052 37.3594V28.9173ZM2.63281 20.9777L0.947052 28.9173V37.3594L2.63281 20.9777ZM0.947052 37.3594L1.59075 41.4215L2.63281 45.2989L0.947052 37.3594ZM2.63281 20.9777L1.59075 24.8552L0.947052 28.9173L2.63281 20.9777ZM0.947052 37.3594L2.63281 45.2989L5.82193 52.3843L0.947052 37.3594ZM2.63281 45.2989L4.05034 48.9635L5.82193 52.3843L2.63281 45.2989ZM5.82193 13.8924L4.05034 17.3132L2.63281 20.9777L5.82193 13.8924ZM10.3464 7.92017L2.63281 20.9777L0.947052 37.3594L10.3464 7.92017ZM10.3464 7.92017L5.82193 13.8924L2.63281 20.9777L10.3464 7.92017ZM0.947052 37.3594L5.82193 52.3843L16.0483 62.909L0.947052 37.3594ZM10.3464 7.92017L7.92719 10.7492L5.82193 13.8924L10.3464 7.92017ZM5.82193 52.3843L7.92719 55.5275L10.3464 58.3565L5.82193 52.3843ZM10.3464 7.92017L0.947052 37.3594L16.0483 62.909L10.3464 7.92017ZM5.82193 52.3843L10.3464 58.3565L16.0483 62.909L5.82193 52.3843ZM10.3464 58.3565L13.0599 60.8314L16.0483 62.909L10.3464 58.3565ZM16.0483 3.36768L13.0599 5.4453L10.3464 7.92017L16.0483 3.36768Z" fill="#C4C4C4"/>
<path d="M35.9551 65.32L38.7057 64.865L42.2857 64.2715L35.9551 65.32Z" fill="#B0B0B0"/>
<path d="M22.7684 0.59375L16.0486 3.36804L10.3467 7.92053L22.7684 0.59375Z" fill="#C4C4C4"/>
<path d="M39.5635 1.55473L42.2857 2.00501L38.7057 1.41155L39.5635 1.55473ZM35.9551 0.956543L39.5635 1.55473L38.7057 1.41155L35.9551 0.956543ZM39.5635 64.7222L35.9551 65.3204L42.2857 64.2719L39.5635 64.7222ZM39.5635 64.7222L42.2857 64.2719L45.7359 63.1256L39.5635 64.7222Z" fill="#B0B0B0"/>
<path d="M16.0469 62.9094L19.2899 64.5433L22.7667 65.6836L16.0469 62.9094ZM22.7667 0.59375L19.2899 1.73411L16.0469 3.36804L22.7667 0.59375Z" fill="#C4C4C4"/>
<path d="M43.0436 2.71415L45.7375 3.15136L42.2872 2.00501L43.0436 2.71415ZM39.5651 1.55473L43.0436 2.71415L42.2872 2.00501L39.5651 1.55473ZM33.126 65.7886L35.9567 65.3204L39.5651 64.7222L33.126 65.7886ZM43.0436 63.5628L39.5651 64.7222L45.7375 63.1256L43.0436 63.5628ZM43.0436 63.5628L45.7375 63.1256L49.0163 61.4514L43.0436 63.5628ZM36.763 1.09124L39.5651 1.55473L35.9567 0.956543L36.763 1.09124Z" fill="#B0B0B0"/>
<path d="M16.0469 62.9092L22.7667 65.6835L30.2102 66.2708L16.0469 62.9092Z" fill="#C4C4C4"/>
<path d="M46.3499 4.40957L49.0163 4.82553L45.7375 3.15134L46.3499 4.40957ZM33.126 0.488281L36.763 1.09123L35.9567 0.956526L33.126 0.488281Z" fill="#B0B0B0"/>
<path d="M37.4132 1.80056L22.7684 0.59375L10.3467 7.92053L37.4132 1.80056Z" fill="#C4C4C4"/>
<path d="M43.0436 2.7141L46.3499 4.40954L45.7375 3.15131L43.0436 2.7141ZM36.763 65.1856L33.126 65.7886L39.5651 64.7221L36.763 65.1856ZM36.763 65.1856L39.5651 64.7221L43.0436 63.5627L36.763 65.1856ZM46.3499 61.8673L49.0163 61.4513L52.08 59.2772L46.3499 61.8673ZM46.3499 61.8673L43.0436 63.5627L49.0163 61.4513L46.3499 61.8673ZM40.2699 2.26395L43.0436 2.7141L39.5651 1.55469L40.2699 2.26395ZM49.4401 6.61289L52.08 6.99963L49.0163 4.8255L49.4401 6.61289Z" fill="#B0B0B0"/>
<path d="M22.7656 65.6834L26.4541 66.277L30.2092 66.2707L22.7656 65.6834ZM30.2092 0.00624731L26.4541 0L22.7656 0.593533L30.2092 0.00624731Z" fill="#C4C4C4"/>
<path d="M36.7627 1.09131L40.2696 2.26406L39.5648 1.5548L36.7627 1.09131ZM46.3496 4.40966L49.4398 6.613L49.016 4.82562L46.3496 4.40966Z" fill="#B0B0B0"/>
<path d="M10.3467 7.91992L16.0486 62.9087L55.5306 28.3273L10.3467 7.91992Z" fill="#C4C4C4"/>
<path d="M30.209 66.2708L33.1233 65.7887L36.7603 65.1858L30.209 66.2708ZM49.4374 59.6641L52.0773 59.2774L54.8809 56.6344L49.4374 59.6641ZM40.2672 64.013L36.7603 65.1858L43.0408 63.5629L40.2672 64.013ZM49.4374 59.6641L46.3472 61.8674L52.0773 59.2774L49.4374 59.6641ZM40.2672 64.013L43.0408 63.5629L46.3472 61.8674L40.2672 64.013ZM33.8747 0.614062L36.7603 1.09136L33.1233 0.48842L33.8747 0.614062ZM52.2657 9.29285L54.8809 9.64272L52.0773 6.99979L52.2657 9.29285ZM43.6014 3.98135L46.3472 4.40971L43.0408 2.71427L43.6014 3.98135ZM30.209 0.00634766L33.8747 0.614062L33.1233 0.48842L30.209 0.00634766ZM49.4374 6.61306L52.2657 9.29285L52.0773 6.99979L49.4374 6.61306Z" fill="#B0B0B0"/>
<path d="M16.0469 62.9092L30.2102 66.2708L43.9173 60.473L16.0469 62.9092ZM37.4115 1.80044L30.2102 0.00634766L22.7667 0.593633L37.4115 1.80044Z" fill="#C4C4C4"/>
<path d="M40.2672 2.26431L43.6014 3.98155L43.0408 2.71446L40.2672 2.26431ZM52.2657 56.9845L54.8809 56.6346L57.3782 53.5576L52.2657 56.9845ZM33.8747 65.6633L30.209 66.271L36.7603 65.186L33.8747 65.6633ZM52.2657 56.9845L49.4374 59.6643L54.8809 56.6346L52.2657 56.9845ZM33.8747 65.6633L36.7603 65.186L40.2672 64.0132L33.8747 65.6633ZM43.6014 62.296L46.3472 61.8676L49.4374 59.6643L43.6014 62.296ZM43.6014 62.296L40.2672 64.0132L46.3472 61.8676L43.6014 62.296ZM54.7855 12.4142L57.3782 12.72L54.8809 9.64292L54.7855 12.4142ZM37.4102 1.80064L40.2672 2.26431L36.7603 1.09156L37.4102 1.80064ZM46.7182 6.2149L49.4374 6.61326L46.3472 4.40991L46.7182 6.2149ZM52.2657 9.29305L54.7855 12.4142L54.8809 9.64292L52.2657 9.29305ZM54.7855 53.8633L57.3782 53.5576L59.5225 50.0847L54.7855 53.8633ZM33.8747 0.614258L37.4102 1.80064L36.7603 1.09156L33.8747 0.614258ZM43.6014 3.98155L46.7182 6.2149L46.3472 4.40991L43.6014 3.98155ZM54.7855 53.8633L52.2657 56.9845L57.3782 53.5576L54.7855 53.8633ZM56.9495 15.9378L59.5225 16.1928L57.3782 12.72L56.9495 15.9378Z" fill="#B0B0B0"/>
<path d="M30.209 66.2708L33.8747 65.6631L37.4102 64.4767L30.209 66.2708ZM37.4102 1.80044L33.8747 0.614062L30.209 0.00634766L37.4102 1.80044Z" fill="#C4C4C4"/>
<path d="M46.7204 60.0625L49.4396 59.6642L52.2679 56.9844L46.7204 60.0625ZM37.4125 64.4768L33.877 65.6632L40.2694 64.0131L37.4125 64.4768ZM46.7204 60.0625L43.6036 62.2959L49.4396 59.6642L46.7204 60.0625ZM37.4125 64.4768L40.2694 64.0131L43.6036 62.2959L37.4125 64.4768Z" fill="#B0B0B0"/>
<path d="M55.5306 28.3276L37.4132 1.80029L10.3467 7.92027L55.5306 28.3276Z" fill="#C4C4C4"/>
<path d="M56.9514 50.3394L59.5244 50.0844L61.2692 46.2581L56.9514 50.3394ZM54.7874 12.4139L56.9514 15.9374L57.3801 12.7196L54.7874 12.4139ZM49.5734 8.93225L52.2676 9.2927L49.4393 6.61291L49.5734 8.93225ZM58.7124 19.8205L61.2692 20.0187L59.5244 16.1925L58.7124 19.8205ZM40.7742 3.53987L43.6032 3.9812L40.2691 2.26397L40.7742 3.53987ZM56.9514 50.3394L54.7874 53.863L59.5244 50.0844L56.9514 50.3394ZM58.7124 46.4563L61.2692 46.2581L62.5686 42.1245L58.7124 46.4563ZM46.7201 6.21455L49.5734 8.93225L49.4393 6.61291L46.7201 6.21455ZM37.4121 1.80029L40.7742 3.53987L40.2691 2.26397L37.4121 1.80029ZM60.024 24.0162L62.5686 24.1524L61.2692 20.0187L60.024 24.0162ZM56.9514 15.9374L58.7124 19.8205L59.5244 16.1925L56.9514 15.9374ZM49.5734 57.3446L52.2676 56.9842L54.7874 53.863L49.5734 57.3446ZM49.5734 57.3446L46.7201 60.0623L52.2676 56.9842L49.5734 57.3446Z" fill="#B0B0B0"/>
<path d="M30.209 66.2705L37.4102 64.4764L43.9161 60.4727L30.209 66.2705Z" fill="#C4C4C4"/>
<path d="M60.024 42.2609L62.5686 42.1248L63.3785 37.7337L60.024 42.2609ZM58.7124 46.4566L56.9514 50.3397L61.2692 46.2584L58.7124 46.4566ZM60.8416 28.4739L63.3785 28.5437L62.5686 24.1526L60.8416 28.4739ZM40.7742 62.7373L43.6032 62.2959L46.7201 60.0626L40.7742 62.7373ZM40.7742 62.7373L37.4121 64.4768L43.6032 62.2959L40.7742 62.7373ZM52.1159 12.099L54.7874 12.4141L52.2676 9.29297L52.1159 12.099ZM60.8416 37.8035L63.3785 37.7337L63.6572 33.1387L60.8416 37.8035ZM61.123 33.1387H63.6572L63.3785 28.5437L61.123 33.1387ZM58.7124 19.8208L60.024 24.0165L61.2692 20.019L58.7124 19.8208Z" fill="#B0B0B0"/>
<path d="M16.0469 62.9091L43.9173 60.4728L55.5288 28.3276L16.0469 62.9091Z" fill="#C4C4C4"/>
<path d="M43.9171 5.80422L46.7192 6.21472L43.6024 3.98137L43.9171 5.80422ZM60.0232 42.2608L58.7116 46.4565L62.5678 42.1247L60.0232 42.2608ZM49.5725 8.93242L52.1151 12.0989L52.2668 9.29287L49.5725 8.93242ZM52.1151 54.1783L54.7866 53.8632L56.9506 50.3396L52.1151 54.1783ZM60.0232 24.0164L60.8408 28.4738L62.5678 24.1525L60.0232 24.0164ZM60.8408 37.8034L60.0232 42.2608L63.3777 37.7336L60.8408 37.8034ZM40.7734 3.54004L43.9171 5.80422L43.6024 3.98137L40.7734 3.54004ZM52.1151 54.1783L49.5725 57.3448L54.7866 53.8632L52.1151 54.1783ZM54.2989 15.6748L56.9506 15.9376L54.7866 12.414L54.2989 15.6748ZM60.8408 28.4738L61.1221 33.1386L63.3777 28.5436L60.8408 28.4738ZM61.1221 33.1386L60.8408 37.8034L63.6564 33.1386H61.1221ZM43.9171 60.473L46.7192 60.0625L49.5725 57.3448L43.9171 60.473ZM43.9171 60.473L40.7734 62.7371L46.7192 60.0625L43.9171 60.473Z" fill="#B0B0B0"/>
<path d="M37.4121 64.4766L40.7742 62.737L43.9179 60.4728L37.4121 64.4766ZM43.9179 5.80405L40.7742 3.53987L37.4121 1.80029L43.9179 5.80405Z" fill="#C4C4C4"/>
<path d="M54.2997 50.6019L56.9514 50.3391L58.7124 46.456L54.2997 50.6019ZM52.1159 12.0984L54.2997 15.6743L54.7874 12.4135L52.1159 12.0984ZM46.7965 8.56039L49.5734 8.93191L46.7201 6.21421L46.7965 8.56039ZM56.0771 19.6159L58.7124 19.8202L56.9514 15.9371L56.0771 19.6159ZM54.2997 50.6019L52.1159 54.1777L56.9514 50.3391L54.2997 50.6019ZM56.0771 46.6603L58.7124 46.456L60.024 42.2603L56.0771 46.6603ZM43.918 5.80371L46.7965 8.56039L46.7201 6.21421L43.918 5.80371ZM57.4011 23.8755L60.024 24.0159L58.7124 19.8202L57.4011 23.8755ZM54.2997 15.6743L56.0771 19.6159L56.9514 15.9371L54.2997 15.6743ZM46.7965 57.7158L49.5734 57.3443L52.1159 54.1777L46.7965 57.7158Z" fill="#B0B0B0"/>
<path d="M49.3619 11.774L43.9179 5.80405L37.4121 1.80029L49.3619 11.774Z" fill="#C4C4C4"/>
<path d="M46.7965 57.7164L43.918 60.4731L49.5734 57.3449L46.7965 57.7164ZM57.4011 42.4013L60.024 42.2609L60.8416 37.8035L57.4011 42.4013ZM56.0771 46.6609L54.2997 50.6025L58.7124 46.4566L56.0771 46.6609ZM58.2265 28.4021L60.8416 28.474L60.024 24.0165L58.2265 28.4021ZM49.3619 11.7743L52.1159 12.0991L49.5734 8.93255L49.3619 11.7743ZM58.2265 37.8754L60.8416 37.8035L61.123 33.1387L58.2265 37.8754ZM58.5105 33.1387H61.123L60.8416 28.474L58.5105 33.1387ZM56.0771 19.6165L57.4011 23.8762L58.7124 19.8208L56.0771 19.6165ZM57.4011 42.4013L56.0771 46.6609L60.024 42.2609L57.4011 42.4013ZM46.7965 8.56104L49.3619 11.7743L49.5734 8.93255L46.7965 8.56104ZM49.3619 54.5032L52.1159 54.1784L54.2997 50.6025L49.3619 54.5032ZM57.4011 23.8762L58.2265 28.4021L60.024 24.0165L57.4011 23.8762ZM58.2265 37.8754L57.4011 42.4013L60.8416 37.8035L58.2265 37.8754ZM49.3619 54.5032L46.7965 57.7164L52.1159 54.1784L49.3619 54.5032ZM51.5658 15.404L54.2997 15.6749L52.1159 12.0991L51.5658 15.404ZM58.2265 28.4021L58.5105 33.1387L60.8416 28.474L58.2265 28.4021ZM58.5105 33.1387L58.2265 37.8754L61.123 33.1387H58.5105Z" fill="#B0B0B0"/>
<path d="M43.9179 60.4728L46.7964 57.7161L49.3619 54.5029L43.9179 60.4728ZM49.3619 11.774L46.7964 8.56073L43.9179 5.80405L49.3619 11.774ZM55.5294 28.3276L49.3619 11.774L37.4121 1.80029L55.5294 28.3276Z" fill="#C4C4C4"/>
<path d="M51.5682 50.8731L54.3021 50.6022L56.0795 46.6606L51.5682 50.8731ZM49.3643 11.7739L51.5682 15.4036L52.1183 12.0987L49.3643 11.7739ZM53.3621 19.4055L56.0795 19.6162L54.3021 15.6746L53.3621 19.4055ZM51.5682 50.8731L49.3643 54.5029L54.3021 50.6022L51.5682 50.8731Z" fill="#B0B0B0"/>
<path d="M43.918 60.4731L49.3619 54.5032L53.3598 46.8716L43.918 60.4731Z" fill="#C4C4C4"/>
<path d="M53.3594 46.8714L56.0768 46.6607L57.4008 42.4011L53.3594 46.8714ZM54.6959 23.7313L57.4008 23.876L56.0768 19.6164L54.6959 23.7313ZM51.5654 15.4038L53.3594 19.4057L54.2994 15.6748L51.5654 15.4038ZM54.6959 42.5459L57.4008 42.4011L58.2261 37.8752L54.6959 42.5459ZM53.3594 46.8714L51.5654 50.8733L56.0768 46.6607L53.3594 46.8714ZM55.5291 28.3277L58.2261 28.4019L57.4008 23.876L55.5291 28.3277Z" fill="#B0B0B0"/>
<path d="M43.918 60.4728L53.3598 46.8713L55.5295 28.3276L43.918 60.4728Z" fill="#C4C4C4"/>
<path d="M55.5293 37.9494L58.2263 37.8752L58.5103 33.1385L55.5293 37.9494ZM55.816 33.1385H58.5103L58.2263 28.4019L55.816 33.1385Z" fill="#B0B0B0"/>
<path d="M49.3643 54.5029L51.5682 50.8731L53.3621 46.8712L49.3643 54.5029ZM53.3621 19.4055L51.5682 15.4036L49.3643 11.7739L53.3621 19.4055Z" fill="#C4C4C4"/>
<path d="M53.3594 19.4058L54.6959 23.7313L56.0767 19.6164L53.3594 19.4058ZM54.6959 42.5459L53.3594 46.8715L57.4007 42.4012L54.6959 42.5459ZM54.6959 23.7313L55.5291 28.3278L57.4007 23.876L54.6959 23.7313Z" fill="#B0B0B0"/>
<path d="M55.5318 28.3276L53.3621 19.4055L49.3643 11.7739L55.5318 28.3276Z" fill="#C4C4C4"/>
<path d="M55.5314 37.9493L54.6982 42.5458L58.2285 37.8751L55.5314 37.9493ZM55.5314 28.3276L55.8182 33.1385L58.2285 28.4018L55.5314 28.3276ZM55.8182 33.1385L55.5314 37.9493L58.5125 33.1385H55.8182Z" fill="#B0B0B0"/>
<path d="M53.3594 46.8715L54.6959 42.5459L55.5291 37.9494L53.3594 46.8715ZM55.5291 28.3278L54.6959 23.7313L53.3594 19.4058L55.5291 28.3278ZM53.3594 46.8715L55.5291 37.9494V28.3278L53.3594 46.8715ZM55.5291 37.9494L55.8158 33.1386L55.5291 28.3278V37.9494Z" fill="#C4C4C4"/>
<path d="M55.5787 33.2557C55.5787 51.4365 43.3416 66.0113 28.4305 66.0113C13.5194 66.0113 1.28223 51.4365 1.28223 33.2557C1.28223 15.0748 13.5194 0.5 28.4305 0.5C43.3416 0.5 55.5787 15.0748 55.5787 33.2557Z" fill="url(#paint0_linear_1115_95494)" stroke="url(#paint1_linear_1115_95494)"/>
<g filter="url(#filter0_d_1115_95494)">
<path d="M21.6826 28.441L24.7894 28.5039L27.9923 25.7174L21.6826 28.441ZM24.9115 25.6201L21.6826 28.441L27.9923 25.7174L24.9115 25.6201Z" fill="#E5E5E5"/>
<path d="M19.4072 24.395L21.6811 28.4407L24.91 25.6198L19.4072 24.395Z" fill="white"/>
<path d="M29.2715 48.8718L32.3166 48.6872V18.6577L29.2715 48.8718Z" fill="#E5E5E5"/>
<path d="M29.2716 18.4727L19.4082 24.3953L24.911 25.6201L29.2716 18.4727ZM29.2716 18.4727L26.1194 18.5347L19.4082 24.3953L29.2716 18.4727Z" fill="white"/>
<path d="M29.2715 18.4727V48.8714L32.3166 18.6573L29.2715 18.4727Z" fill="#E5E5E5"/>
<path fill-rule="evenodd" clip-rule="evenodd" d="M29.2719 48.8714V18.4727L32.317 18.6573L29.2719 48.8714ZM29.2719 48.8718L32.317 48.6872V18.6577L29.2719 48.8718ZM21.6826 28.441L24.7894 28.5039L27.9923 25.7174L24.9115 25.6201L21.6826 28.441Z" fill="url(#paint2_linear_1115_95494)"/>
<path d="M24.9121 25.6201V48.7855L29.2727 18.4727L24.9121 25.6201ZM24.9121 48.7855L29.2727 48.8714V18.4727L24.9121 48.7855Z" fill="white"/>
</g>
<path d="M31.2287 0.235008L29.8799 0.0239258C30.3342 0.0850532 30.7839 0.155462 31.2287 0.235008L42.5426 2.00552C44.443 2.47926 49.1316 4.21928 52.6825 7.38939C56.2335 10.5595 58.9199 14.8265 59.8193 16.5638L61.7775 20.871C62.8074 24.1301 64.6061 31.8975 63.5617 36.8938C62.9351 41.9247 61.0377 46.8866 60.1674 48.7387C59.0795 51.3374 55.4589 57.422 49.6799 60.9712C46.6337 63.5124 40.1933 65.02 34.7972 65.5799C35.4644 65.4076 36.9382 64.9941 37.4952 64.7185C38.1915 64.3739 57.4941 56.0442 55.7794 30.279C54.4387 14.2515 45.2048 2.73414 31.2287 0.235008Z" fill="url(#paint3_linear_1115_95494)"/>
<defs>
<filter id="filter0_d_1115_95494" x="14.4072" y="10.4727" width="32.9102" height="50.3994" filterUnits="userSpaceOnUse" color-interpolation-filters="sRGB">
<feFlood flood-opacity="0" result="BackgroundImageFix"/>
<feColorMatrix in="SourceAlpha" type="matrix" values="0 0 0 0 0 0 0 0 0 0 0 0 0 0 0 0 0 0 127 0" result="hardAlpha"/>
<feOffset dx="5" dy="2"/>
<feGaussianBlur stdDeviation="5"/>
<feColorMatrix type="matrix" values="0 0 0 0 0.32339 0 0 0 0 0.157604 0 0 0 0 0.425 0 0 0 0.3 0"/>
<feBlend mode="normal" in2="BackgroundImageFix" result="effect1_dropShadow_1115_95494"/>
<feBlend mode="normal" in="SourceGraphic" in2="effect1_dropShadow_1115_95494" result="shape"/>
</filter>
<linearGradient id="paint0_linear_1115_95494" x1="28.4305" y1="0" x2="40.5706" y2="67.9739" gradientUnits="userSpaceOnUse">
<stop stop-color="#DEE5F8"/>
<stop offset="1" stop-color="#BDBEE3"/>
</linearGradient>
<linearGradient id="paint1_linear_1115_95494" x1="38.8637" y1="53.3677" x2="-4.25285" y2="1.66266" gradientUnits="userSpaceOnUse">
<stop stop-color="white" stop-opacity="0.7"/>
<stop offset="1" stop-color="#A0A3CF"/>
</linearGradient>
<linearGradient id="paint2_linear_1115_95494" x1="28.5236" y1="1.5798" x2="29.6793" y2="51.1501" gradientUnits="userSpaceOnUse">
<stop stop-color="#F0E3FA"/>
<stop offset="1" stop-color="#EFEDF0"/>
</linearGradient>
<linearGradient id="paint3_linear_1115_95494" x1="80.7688" y1="27.416" x2="13.2541" y2="39.5309" gradientUnits="userSpaceOnUse">
<stop stop-color="#BDBEE3"/>
<stop offset="1" stop-color="#DEE5F8"/>
</linearGradient>
</defs>
</svg>
