<svg width="66" height="66" fill="none" xmlns="http://www.w3.org/2000/svg"><circle cx="33" cy="33" r="33" fill="#fff"/><g clip-path="url(#a)" filter="url(#b)"><path d="m23.679 39.3 3.38 3.373a.387.387 0 0 1 0 .547l-.012.013a.388.388 0 0 1-.549 0l-3.38-3.374a.386.386 0 0 1 0-.547l.012-.013a.389.389 0 0 1 .549 0Zm19.324-16.26a.304.304 0 0 1 .215.518l-4.138 4.13a.305.305 0 0 1-.43-.43l4.137-4.13a.307.307 0 0 1 .216-.088Z" fill="#737373"/><path d="m36.9 28.088.822-.819a.64.64 0 0 1 .904 0l.488.487c.25.25.25.653 0 .902l-.821.82" fill="#D7E4EF"/><path d="M33.287 29.457a4.564 4.564 0 0 1 3.579-1.32c.736.058 1.32.64 1.377 1.375a4.546 4.546 0 0 1-1.322 3.572l-6.473 6.46-3.634-3.627 6.473-6.46Z" fill="#D7E4EF"/><path d="m27.625 36.727 1.33-1.326.733-.732 4.41-4.402a4.565 4.565 0 0 1 3.58-1.32c.16.013.313.05.456.11a1.498 1.498 0 0 0-1.268-.92 4.565 4.565 0 0 0-3.58 1.32l-4.41 4.401-2.062 2.06.811.81Z" fill="#C1CCD6"/><path d="M30.898 31.841s1.134-.061 1.926 1.705c.791 1.767 1.817 1.814 1.817 1.814l2.28-2.276a4.546 4.546 0 0 0 1.322-3.572 1.496 1.496 0 0 0-1.377-1.375 4.565 4.565 0 0 0-3.579 1.32l-2.39 2.384Z" fill="#5B9ED6"/><path d="m32.009 32.352 2.09-2.085a4.565 4.565 0 0 1 3.578-1.32c.161.013.314.05.457.11a1.498 1.498 0 0 0-1.268-.92 4.565 4.565 0 0 0-3.58 1.32l-2.388 2.384s.526-.028 1.111.511Z" fill="#4F8ABA"/><path d="m26.263 35.367 4.736 4.727a.475.475 0 0 1 0 .674l-.016.015a.478.478 0 0 1-.675 0l-4.736-4.726a.476.476 0 0 1 0-.674l.016-.016a.478.478 0 0 1 .675 0Z" fill="#B1BAC4"/><path d="m26.073 36.557.691-.69-.493-.492a.49.49 0 0 0-.691.69l.493.492Z" fill="#8F969E"/><path d="m29.226 39.703-2.571 2.566-2.571-2.566 2.57-2.566 2.572 2.566Z" fill="#BDBDBD"/><path d="m26.655 42.27.436-.436-1.35-1.347a.714.714 0 0 1 0-1.012l1.628-1.625 1.857 1.853-2.571-2.566-2.571 2.566 2.57 2.566Z" fill="#A1A1A1"/><path d="M30.799 37.058c.078 0 .155.03.215.089l.896.894a.305.305 0 0 1-.43.43l-.897-.894a.303.303 0 0 1 .216-.52Zm1.07-1.068c.078 0 .156.03.215.089l.896.894a.305.305 0 0 1-.43.43l-.896-.895a.303.303 0 0 1 .215-.518Zm.264-1.872c.078 0 .156.03.215.089l1.702 1.698a.304.304 0 1 1-.43.43l-1.702-1.699a.303.303 0 0 1 .215-.518Zm1.876-.264c.078 0 .155.03.215.089l.896.894a.304.304 0 1 1-.43.43l-.897-.895a.304.304 0 0 1 .216-.518Zm1.069-1.068c.078 0 .156.03.216.09l.896.894a.305.305 0 0 1-.43.43l-.897-.895a.303.303 0 0 1 .215-.519Zm.265-1.872c.078 0 .156.03.215.089L37.26 32.7a.303.303 0 1 1-.43.43l-1.703-1.698a.303.303 0 0 1 .216-.52Z" fill="#737373"/></g><defs><clipPath id="a"><path fill="#fff" transform="rotate(-180 21.673 21.673)" d="M0 0h20.347v20.347H0z"/></clipPath><filter id="b" x="15" y="19" width="36.347" height="36.347" filterUnits="userSpaceOnUse" color-interpolation-filters="sRGB"><feFlood flood-opacity="0" result="BackgroundImageFix"/><feColorMatrix in="SourceAlpha" values="0 0 0 0 0 0 0 0 0 0 0 0 0 0 0 0 0 0 127 0" result="hardAlpha"/><feOffset dy="4"/><feGaussianBlur stdDeviation="4"/><feColorMatrix values="0 0 0 0 0 0 0 0 0 0 0 0 0 0 0 0 0 0 0.25 0"/><feBlend in2="BackgroundImageFix" result="effect1_dropShadow_1084_73716"/><feBlend in="SourceGraphic" in2="effect1_dropShadow_1084_73716" result="shape"/></filter></defs></svg>