<svg width="66" height="66" fill="none" xmlns="http://www.w3.org/2000/svg"><circle cx="33" cy="33" r="33" fill="#fff"/><g filter="url(#a)"><path d="M41.468 23.467v24.778a.367.367 0 0 1-.367.367H19.926a.366.366 0 0 1-.366-.367v-30.49a.367.367 0 0 1 .366-.367h15.098l2.89 2.23 1.856 2.01 1.698 1.839Z" fill="#E9E9FF"/><path d="M31.739 21.747v-1.594c0-.202-.142-.367-.317-.367h-1.817c-.175 0-.317.165-.317.367v1.594c0 .372-.26.673-.58.673-.32 0-.58.301-.58.673v6.28h4.77v-6.28c0-.372-.26-.673-.58-.673-.32 0-.58-.301-.58-.673Z" fill="#75580E"/><path d="M28.128 23.855h4.77v1.483h-4.77v-1.483Zm4.106 2.664 2.364 2.364-1.507 1.507a1.673 1.673 0 0 1-2.726-.543 1.671 1.671 0 0 1 .362-1.821l1.507-1.507Z" fill="#E34844"/><path d="M36.105 25.01a1.673 1.673 0 0 1 0 2.365l-1.507 1.507-2.364-2.364 1.508-1.507a1.671 1.671 0 0 1 2.363 0Zm-5.592 4.455a3.229 3.229 0 1 1-5.692-3.05 3.229 3.229 0 0 1 5.692 3.05Z" fill="#DAE4EB"/><path d="m29.714 25.444-2.988 5.59a3.252 3.252 0 0 1-1.114-.595l2.99-5.59c.405.123.784.326 1.112.595Z" fill="#B6BFD6"/><path d="M36.04 35.104h-7.276a.34.34 0 1 1 0-.68h7.275a.34.34 0 1 1 0 .68Zm-10.085 0h-1.148a.34.34 0 1 1 0-.68h1.148a.34.34 0 1 1 0 .68Zm6.886 6.41h-4.078a.34.34 0 1 1 0-.68h4.078a.34.34 0 1 1 0 .68Zm-6.886 0h-1.148a.34.34 0 1 1 0-.68h1.148a.34.34 0 1 1 0 .68ZM36.04 38.44h-7.276a.34.34 0 1 1 0-.68h7.276a.34.34 0 1 1 0 .68Zm-10.084 0h-1.148a.34.34 0 1 1 0-.68h1.148a.34.34 0 1 1 0 .68Z" fill="#3B4985"/><path d="M41.468 40.09v4.066l-2.242 2.242a2.54 2.54 0 0 1-3.595 0l-1.738-1.738a1.438 1.438 0 0 1 2.032-2.033l1.352 1.352a.213.213 0 0 0 .303 0l3.888-3.888Z" fill="#CFCFEB"/><path d="m44.343 34.709-8.017 8.017a.213.213 0 0 1-.302 0l-1.352-1.352a1.438 1.438 0 0 0-2.032 2.033l1.737 1.738a2.541 2.541 0 0 0 3.596 0l8.403-8.404a1.437 1.437 0 0 0-2.033-2.032Z" fill="#71CC77"/><path d="M41.467 23.467v1.014c-.873-1.62-3.867-1.336-3.867-1.336l2.17-1.517 1.697 1.839Z" fill="#CFCFEB"/><path d="M35.023 17.388s1.637 2.193 1.813 5.615a.365.365 0 0 0 .525.31c.835-.406 2.558-.98 4.107.154 0 0-.908-5.083-6.445-6.08Z" fill="#9696E5"/></g><defs><filter id="a" x="4" y="8" width="58" height="58" filterUnits="userSpaceOnUse" color-interpolation-filters="sRGB"><feFlood flood-opacity="0" result="BackgroundImageFix"/><feColorMatrix in="SourceAlpha" values="0 0 0 0 0 0 0 0 0 0 0 0 0 0 0 0 0 0 127 0" result="hardAlpha"/><feOffset dy="4"/><feGaussianBlur stdDeviation="6"/><feColorMatrix values="0 0 0 0 0 0 0 0 0 0 0 0 0 0 0 0 0 0 0.2 0"/><feBlend in2="BackgroundImageFix" result="effect1_dropShadow_1084_73837"/><feBlend in="SourceGraphic" in2="effect1_dropShadow_1084_73837" result="shape"/></filter></defs></svg>