<svg width="66" height="66" fill="none" xmlns="http://www.w3.org/2000/svg"><circle cx="33" cy="33" r="33" fill="#fff"/><g filter="url(#a)"><path d="M27.868 20.804v27.113l-.002-.001-10.011-2.653a.34.34 0 0 1-.253-.328v-26.41a.34.34 0 0 1 .427-.328l9.839 2.607Zm20.53.261v26.41a.34.34 0 0 1-.427.328l-9.84-2.606V18.084l10.014 2.653a.34.34 0 0 1 .253.328Z" fill="#F3F3FF"/><path d="m27.866 47.916 10.266-2.72V18.084l-10.266 2.72v27.112Z" fill="#9696E1"/><path d="M34.095 24.365v-1.724a.272.272 0 0 0-.342-.263l-1.646.436a.272.272 0 0 0-.203.263v1.754l-1.988.527a.271.271 0 0 0-.202.263v1.459a.272.272 0 0 0 .342.263l1.848-.49v1.829a.27.27 0 0 0 .342.263l1.646-.437a.272.272 0 0 0 .203-.263v-1.858l1.988-.527a.272.272 0 0 0 .202-.262v-1.46a.272.272 0 0 0-.341-.263l-1.85.49Zm8.127 15.811 2.085 2.085-1.33 1.33a1.475 1.475 0 0 1-2.084-2.085l1.329-1.33Z" fill="#ED524E"/><path d="M45.637 38.846a1.476 1.476 0 0 1 0 2.085l-1.33 1.33-2.085-2.086 1.33-1.329a1.474 1.474 0 0 1 2.085 0Z" fill="#DAE1E1"/><path d="M30.122 34.279a.34.34 0 0 1-.087-.669l5.754-1.525a.34.34 0 1 1 .174.658l-5.754 1.524a.339.339 0 0 1-.087.012Zm0 2.682a.34.34 0 0 1-.087-.668l5.754-1.525a.338.338 0 0 1 .418.24.34.34 0 0 1-.244.417L30.21 36.95a.338.338 0 0 1-.087.011Zm0 2.683a.34.34 0 0 1-.087-.669l5.754-1.524a.34.34 0 0 1 .174.657l-5.754 1.525a.338.338 0 0 1-.087.011Zm0 2.683a.34.34 0 0 1-.087-.67l5.754-1.524a.34.34 0 1 1 .174.657l-5.754 1.525a.338.338 0 0 1-.087.012Zm16.02-14.177a.338.338 0 0 1-.087-.011l-5.754-1.525a.34.34 0 0 1 .174-.657l5.754 1.525a.34.34 0 0 1-.087.668Zm0 2.683a.338.338 0 0 1-.087-.011l-5.754-1.525a.34.34 0 1 1 .174-.657l5.754 1.524a.34.34 0 0 1-.087.669Zm0 2.683a.338.338 0 0 1-.087-.012l-5.754-1.525a.34.34 0 0 1 .174-.657l5.754 1.525a.34.34 0 0 1-.087.669Zm0 2.682a.338.338 0 0 1-.087-.011l-5.754-1.525a.339.339 0 0 1-.085-.624.342.342 0 0 1 .259-.033l5.754 1.524a.34.34 0 0 1-.087.67Zm-20.855-8.555a.344.344 0 0 1-.087-.011l-5.755-1.525a.34.34 0 0 1 .175-.657l5.754 1.525a.34.34 0 0 1-.087.668Zm0 2.683a.344.344 0 0 1-.087-.012l-5.755-1.524a.34.34 0 0 1 .175-.657l5.754 1.524a.34.34 0 0 1-.087.669Zm0 2.683a.344.344 0 0 1-.087-.012l-5.755-1.525a.34.34 0 0 1 .175-.657l5.754 1.525a.34.34 0 0 1-.087.669Zm0 2.682a.34.34 0 0 1-.087-.011l-5.755-1.525a.34.34 0 0 1 .175-.657l5.754 1.524a.34.34 0 0 1-.087.67Z" fill="#3B4985"/><path d="M27.866 41.506v6.41l-10.011-2.652a.34.34 0 0 1-.253-.329v-2.377l5.348 1.212a4.303 4.303 0 0 0 4.306-1.503l.61-.761Zm20.532 1.953v4.016a.34.34 0 0 1-.427.328l-9.84-2.606v-1.718l5.554 1.412a4.3 4.3 0 0 0 3.441-.587l1.272-.845Z" fill="#BBBBE1"/><path d="M24.924 42.85a2.849 2.849 0 1 1-5.022-2.692 2.849 2.849 0 0 1 5.022 2.691Z" fill="#DAE1E1"/><path d="m24.22 39.303-2.637 4.93a2.869 2.869 0 0 1-.982-.524l2.636-4.931c.359.109.692.287.982.525Z" fill="#C0C9E0"/></g><defs><filter id="a" x="4" y="8" width="58" height="58" filterUnits="userSpaceOnUse" color-interpolation-filters="sRGB"><feFlood flood-opacity="0" result="BackgroundImageFix"/><feColorMatrix in="SourceAlpha" values="0 0 0 0 0 0 0 0 0 0 0 0 0 0 0 0 0 0 127 0" result="hardAlpha"/><feOffset dy="4"/><feGaussianBlur stdDeviation="6"/><feColorMatrix values="0 0 0 0 0 0 0 0 0 0 0 0 0 0 0 0 0 0 0.2 0"/><feBlend in2="BackgroundImageFix" result="effect1_dropShadow_1084_73779"/><feBlend in="SourceGraphic" in2="effect1_dropShadow_1084_73779" result="shape"/></filter></defs></svg>