<svg width="33" height="28" viewBox="0 0 33 28" fill="none" xmlns="http://www.w3.org/2000/svg">
<path d="M11.7457 0.5C13.1445 0.5 14.4814 0.82066 15.7192 1.45313C16.5618 1.88359 17.3359 2.45551 18 3.13406C18.6642 2.45551 19.4382 1.88359 20.2808 1.45313C21.5187 0.82066 22.8555 0.5 24.2544 0.5C29.0767 0.5 33 4.42332 33 9.24571C33 12.6613 31.1961 16.289 27.6385 20.028C24.668 23.1499 21.0313 25.7523 18.5036 27.3858L18 27.7112L17.4964 27.3858C14.9687 25.7524 11.332 23.1499 8.36146 20.028C4.80383 16.289 3 12.6613 3 9.24571C3 4.42332 6.92332 0.5 11.7457 0.5ZM9.70584 18.7488C12.3606 21.5389 15.5942 23.9108 18 25.4983C20.4058 23.9108 23.6394 21.5389 26.2941 18.7488C29.5125 15.3665 31.1443 12.1691 31.1443 9.24571C31.1443 5.44654 28.0535 2.35567 24.2543 2.35567C22.067 2.35567 20.0578 3.36039 18.7418 5.11214L18 6.09967L17.2582 5.11214C15.9422 3.36039 13.933 2.35567 11.7457 2.35567C7.94654 2.35567 4.85567 5.44654 4.85567 9.24571C4.85567 12.1691 6.48755 15.3665 9.70584 18.7488Z" fill="#A0A3CF"/>
<path d="M1 13.5889H5.83399C6.00638 13.5889 6.16662 13.5001 6.25799 13.3539L8.19416 10.256C8.4011 9.9249 8.89075 9.94816 9.06537 10.2974L12.3718 16.9103C12.5432 17.253 13.0204 17.2836 13.2341 16.9656L15.3542 13.81C15.4471 13.6718 15.6027 13.5889 15.7692 13.5889H19.9111" stroke="#A0A3CF" stroke-width="1.6" stroke-linecap="round"/>
</svg>
