<svg width="30" height="31" viewBox="0 0 30 31" fill="none" xmlns="http://www.w3.org/2000/svg">
<rect x="0.910937" y="5.7" width="28.1778" height="20" rx="1.8" stroke="#A0A3CF" stroke-width="1.6"/>
<path d="M5.7998 15.7002H10.6338C10.8062 15.7002 10.9664 15.6114 11.0578 15.4652L12.994 12.3673C13.2009 12.0362 13.6906 12.0595 13.8652 12.4087L17.1716 19.0217C17.343 19.3643 17.8202 19.3949 18.0339 19.0769L20.154 15.9214C20.2469 15.7831 20.4025 15.7002 20.569 15.7002H24.7109" stroke="#A0A3CF" stroke-width="1.6" stroke-linecap="round"/>
<path d="M15.8002 25.9224C15.8002 25.4805 15.442 25.1224 15.0002 25.1224C14.5583 25.1224 14.2002 25.4805 14.2002 25.9224H15.8002ZM15.0002 29.5001V30.3001H15.8002V29.5001H15.0002ZM9.37793 28.7001C8.9361 28.7001 8.57793 29.0583 8.57793 29.5001C8.57793 29.942 8.9361 30.3001 9.37793 30.3001V28.7001ZM20.6224 30.3001C21.0642 30.3001 21.4224 29.942 21.4224 29.5001C21.4224 29.0583 21.0642 28.7001 20.6224 28.7001V30.3001ZM14.2002 25.9224V29.5001H15.8002V25.9224H14.2002ZM15.0002 28.7001H9.37793V30.3001H15.0002V28.7001ZM9.37793 30.3001H20.6224V28.7001H9.37793V30.3001Z" fill="#A0A3CF"/>
</svg>
