<svg width="30" height="31" viewBox="0 0 30 31" fill="none" xmlns="http://www.w3.org/2000/svg">
<path d="M3.87318 24.9272C1.80664 22.8541 1.81201 19.4982 3.88518 17.4316L9.93374 11.4024L15.9823 5.37317C18.0555 3.30662 21.4114 3.31199 23.4779 5.38516C25.5445 7.45833 25.5391 10.8142 23.4659 12.8808L17.4174 18.91L11.3688 24.9392C9.29564 27.0058 5.93973 27.0004 3.87318 24.9272Z" stroke="#A0A3CF" stroke-width="1.6"/>
<path d="M18.7684 20.3468C20.7776 18.2948 24.0699 18.2601 26.1219 20.2693C28.1739 22.2786 28.2086 25.5708 26.1994 27.6228C24.1902 29.6748 20.8979 29.7095 18.8459 27.7003C16.7939 25.6911 16.7592 22.3988 18.7684 20.3468Z" stroke="#A0A3CF" stroke-width="1.6"/>
</svg>
