<svg width="63" height="67" fill="none" xmlns="http://www.w3.org/2000/svg"><path d="m.551 28.918-.218 4.22.218 4.222v-8.442Zm1.669-7.94-1.67 7.94v8.442l1.67-16.382ZM.55 37.36l.637 4.062 1.032 3.877L.55 37.36Zm1.67-16.382-1.032 3.877-.637 4.063 1.669-7.94ZM.55 37.36l1.67 7.94 3.156 7.085L.551 37.36Zm1.67 7.94 1.403 3.664 1.753 3.42L2.22 45.3Zm3.156-31.407-1.753 3.42-1.403 3.665 3.156-7.085ZM9.855 7.92 2.22 20.978.55 37.36 9.855 7.92Zm0 0-4.479 5.973-3.156 7.085L9.855 7.92ZM.55 37.36l4.825 15.025 10.122 10.524L.551 37.36ZM9.855 7.92 7.46 10.75l-2.084 3.143L9.855 7.92ZM5.376 52.385l2.084 3.143 2.395 2.829-4.479-5.972ZM9.855 7.92.55 37.36l14.947 25.55L9.855 7.92ZM5.376 52.385l4.479 5.972 5.643 4.552L5.376 52.385Zm4.479 5.972 2.685 2.475 2.958 2.077-5.643-4.552Zm5.643-54.99-2.958 2.08L9.855 7.92l5.643-4.552Z" fill="#C4C4C4"/><path d="m35.202 65.32 2.723-.455 3.543-.593-6.266 1.048Z" fill="#B0B0B0"/><path d="m22.15.594-6.652 2.774-5.644 4.553L22.15.594Z" fill="#C4C4C4"/><path d="m38.774 1.555 2.694.45-3.543-.593.849.143ZM35.202.957l3.572.598-.85-.143-2.722-.455Zm3.572 63.765-3.572.599 6.266-1.049-2.694.45Zm0 0 2.694-.45 3.415-1.146-6.11 1.596Z" fill="#B0B0B0"/><path d="m15.497 62.91 3.21 1.633 3.441 1.14-6.65-2.773ZM22.148.594l-3.441 1.14-3.21 1.634L22.148.594Z" fill="#C4C4C4"/><path d="m42.218 2.714 2.666.438-3.415-1.147.749.71Zm-3.443-1.159 3.443 1.16-.749-.71-2.694-.45ZM32.4 65.789l2.802-.468 3.572-.599L32.4 65.79Zm9.817-2.226-3.443 1.16 6.11-1.597-2.667.437Zm0 0 2.666-.437 3.245-1.674-5.911 2.111ZM36 1.091l2.774.464-3.572-.598.798.134Z" fill="#B0B0B0"/><path d="m15.497 62.91 6.651 2.774 7.368.587-14.019-3.362Z" fill="#C4C4C4"/><path d="m45.49 4.41 2.64.416-3.246-1.674.606 1.258ZM32.401.489l3.6.602-.798-.134-2.802-.468Z" fill="#B0B0B0"/><path d="M36.645 1.8 22.149.595 9.854 7.921l26.79-6.12Z" fill="#C4C4C4"/><path d="M42.218 2.714 45.49 4.41l-.606-1.258-2.666-.438ZM36 65.186l-3.6.603 6.374-1.067-2.774.464Zm0 0 2.774-.464 3.443-1.159L36 65.186Zm9.49-3.319 2.638-.415 3.033-2.175-5.672 2.59Zm0 0-3.273 1.696 5.911-2.111-2.639.416ZM39.471 2.264l2.746.45-3.443-1.16.697.71Zm9.077 4.35L51.162 7l-3.033-2.174.42 1.787Z" fill="#B0B0B0"/><path d="m22.146 65.684 3.651.593 3.717-.006-7.367-.587ZM29.514.006 25.797 0l-3.65.594 7.367-.588Z" fill="#C4C4C4"/><path d="m36.001 1.092 3.471 1.172-.698-.709-2.773-.463ZM45.49 4.41l3.059 2.203-.42-1.787-2.639-.416Z" fill="#B0B0B0"/><path d="m9.854 7.92 5.644 54.989 39.079-34.581L9.854 7.92Z" fill="#C4C4C4"/><path d="m29.515 66.27 2.884-.481 3.6-.603-6.484 1.085Zm19.032-6.606 2.613-.387 2.775-2.642-5.388 3.03Zm-9.077 4.35L36 65.185l6.216-1.623-2.745.45Zm9.077-4.35-3.059 2.203 5.672-2.59-2.613.387Zm-9.077 4.35 2.745-.451 3.273-1.696-6.018 2.146ZM33.143.613l2.856.477-3.6-.603.744.126Zm18.203 8.679 2.589.35L51.16 7l.186 2.293ZM42.77 3.98l2.718.429-3.273-1.696.555 1.267ZM29.515.006l3.628.608-.744-.126-2.884-.482Zm19.032 6.607 2.8 2.68L51.16 7l-2.613-.387Z" fill="#B0B0B0"/><path d="m15.497 62.91 14.019 3.361 13.567-5.798-27.586 2.437ZM36.644 1.8 29.516.008l-7.368.587L36.644 1.8Z" fill="#C4C4C4"/><path d="m39.47 2.264 3.3 1.718-.555-1.267-2.745-.45Zm11.876 54.72 2.589-.35 2.471-3.076-5.06 3.427Zm-18.203 8.68-3.628.607 6.484-1.085-2.856.477Zm18.203-8.68-2.8 2.68 5.389-3.03-2.589.35Zm-18.203 8.68 2.856-.478 3.471-1.173-6.327 1.65Zm9.627-3.368 2.718-.428 3.059-2.204-5.777 2.632Zm0 0-3.3 1.717 6.018-2.145-2.718.428Zm11.07-49.882 2.566.306-2.471-3.077-.095 2.771ZM36.642 1.801l2.828.463L36 1.092l.643.709Zm9.213 4.414 2.692.398-3.059-2.203.367 1.805Zm5.491 3.078 2.494 3.121.094-2.771-2.588-.35Zm2.494 44.57 2.566-.305 2.123-3.473-4.689 3.779ZM33.143.614l3.5 1.187-.644-.71-2.856-.477Zm9.627 3.368 3.085 2.233-.367-1.805-2.718-.428Zm11.07 49.882-2.494 3.12 5.06-3.426-2.566.306Zm2.142-37.926 2.547.255-2.123-3.473-.424 3.218Z" fill="#B0B0B0"/><path d="m29.515 66.27 3.628-.607 3.5-1.186-7.128 1.794ZM36.642 1.8l-3.5-1.186-3.627-.608 7.127 1.795Z" fill="#C4C4C4"/><path d="m45.857 60.063 2.691-.399 2.8-2.68-5.491 3.078Zm-9.213 4.414-3.5 1.186 6.328-1.65-2.828.464Zm9.213-4.415-3.085 2.234 5.776-2.632-2.691.398Zm-9.213 4.415 2.828-.464 3.3-1.717-6.128 2.18Z" fill="#B0B0B0"/><path d="M54.577 28.328 36.645 1.8 9.855 7.92l44.722 20.407Z" fill="#C4C4C4"/><path d="m55.983 50.34 2.547-.255 1.727-3.827-4.274 4.082Zm-2.142-37.926 2.142 3.524.425-3.218-2.567-.306Zm-5.16-3.481 2.666.36-2.8-2.68.134 2.32Zm9.045 10.888 2.53.198-1.726-3.826-.804 3.628ZM39.971 3.54l2.8.44-3.3-1.717.5 1.276Zm16.012 46.8-2.142 3.523 4.689-3.778-2.547.255Zm1.743-3.883 2.53-.199 1.287-4.133-3.817 4.332ZM45.856 6.215l2.825 2.718-.133-2.32-2.692-.398ZM36.644 1.8l3.327 1.74-.5-1.277-2.827-.463Zm22.38 22.216 2.52.136-1.287-4.134-1.232 3.998Zm-3.04-8.08 1.742 3.884.804-3.628-2.547-.255Zm-7.304 41.41 2.666-.36 2.494-3.122-5.16 3.482Zm0 0-2.825 2.718 5.491-3.079-2.666.361Z" fill="#B0B0B0"/><path d="m29.515 66.27 7.127-1.793 6.44-4.004-13.567 5.798Z" fill="#C4C4C4"/><path d="m59.025 42.26 2.518-.135.802-4.391-3.32 4.527Zm-1.299 4.197-1.743 3.883 4.274-4.082-2.53.199Zm2.108-17.983 2.51.07-.8-4.391-1.71 4.32ZM39.97 62.737l2.8-.441 3.085-2.233-5.885 2.674Zm0 0-3.327 1.74 6.127-2.181-2.8.441ZM51.197 12.1l2.644.315-2.494-3.121-.15 2.806Zm8.637 25.704 2.51-.07.277-4.594-2.787 4.664Zm.278-4.664h2.509l-.276-4.595-2.233 4.595Zm-2.386-13.32 1.299 4.195 1.232-3.997-2.53-.198Z" fill="#B0B0B0"/><path d="m15.497 62.91 27.586-2.437 11.493-32.145-39.079 34.581Z" fill="#C4C4C4"/><path d="m43.082 5.804 2.774.41-3.085-2.233.311 1.823Zm15.942 36.457-1.298 4.196 3.816-4.332-2.518.136ZM48.68 8.932l2.517 3.167.15-2.806-2.667-.36Zm2.517 45.246 2.644-.315 2.142-3.523-4.786 3.838Zm7.827-30.162.81 4.458 1.708-4.321-2.518-.137Zm.81 13.787-.81 4.458 3.32-4.527-2.51.07ZM39.97 3.54l3.111 2.264-.311-1.823-2.8-.44Zm11.226 50.638-2.517 3.167 5.16-3.482-2.644.315Zm2.161-38.503 2.625.263-2.142-3.524-.483 3.26Zm6.475 12.799.279 4.665 2.232-4.595-2.51-.07Zm.279 4.665-.279 4.664 2.787-4.664h-2.508Zm-17.03 27.334 2.774-.41 2.824-2.718-5.598 3.128Zm0 0-3.111 2.264 5.885-2.675-2.774.411Z" fill="#B0B0B0"/><path d="m36.644 64.477 3.327-1.74 3.112-2.264-6.44 4.004Zm6.439-58.673L39.97 3.54 36.644 1.8l6.439 4.004Z" fill="#C4C4C4"/><path d="m53.359 50.602 2.624-.263 1.743-3.883-4.367 4.146ZM51.197 12.1l2.162 3.576.482-3.261-2.644-.315Zm-5.265-3.54 2.749.371-2.825-2.717.076 2.346Zm9.186 11.055 2.608.205-1.743-3.884-.865 3.68Zm-1.76 30.986-2.16 3.576 4.785-3.839-2.624.263Zm1.76-3.941 2.608-.205 1.299-4.195-3.907 4.4ZM43.083 5.804l2.85 2.757-.077-2.346-2.773-.41Zm13.346 18.072 2.596.14-1.299-4.195-1.297 4.055Zm-3.07-8.201 1.759 3.941.865-3.678-2.624-.263Zm-7.427 42.041 2.749-.371 2.516-3.167-5.265 3.538Z" fill="#B0B0B0"/><path d="m48.471 11.774-5.388-5.97-6.44-4.003 11.828 9.973Z" fill="#C4C4C4"/><path d="m45.932 57.717-2.849 2.756 5.598-3.128-2.749.372ZM56.428 42.4l2.597-.14.809-4.457-3.406 4.597Zm-1.31 4.26-1.76 3.942 4.368-4.146-2.608.204Zm2.127-18.259 2.589.072-.81-4.457-1.779 4.385Zm-8.774-16.628 2.726.325-2.516-3.166-.21 2.841Zm8.774 26.102 2.589-.072.278-4.665-2.867 4.736Zm.282-4.737h2.585l-.278-4.665-2.308 4.665Zm-2.409-13.522 1.31 4.26 1.298-4.056-2.608-.204Zm1.31 22.784-1.31 4.26 3.907-4.4-2.596.14ZM45.932 8.561l2.54 3.213.209-2.841-2.749-.372Zm2.54 45.942 2.725-.325 2.162-3.575-4.888 3.9Zm7.956-30.627.817 4.526 1.78-4.385-2.596-.14Zm.817 14L56.43 42.4l3.405-4.597-2.589.072Zm-8.774 16.627-2.539 3.214 5.265-3.538-2.726.324Zm2.182-39.099 2.706.271-2.162-3.576-.544 3.305Zm6.592 12.998.282 4.737 2.307-4.665-2.589-.072Zm.282 4.737-.282 4.736 2.867-4.736h-2.586Z" fill="#B0B0B0"/><path d="m43.083 60.473 2.849-2.756 2.54-3.214-5.39 5.97Zm5.388-48.699-2.539-3.213-2.85-2.757 5.39 5.97Zm6.105 16.554L48.47 11.774 36.644 1.801l17.932 26.527Z" fill="#C4C4C4"/><path d="m50.655 50.873 2.706-.27 1.76-3.942-4.466 4.212Zm-2.181-39.099 2.181 3.63.544-3.305-2.725-.325Zm3.957 7.632 2.69.21-1.76-3.941-.93 3.73Zm-1.776 31.467-2.181 3.63 4.887-3.9-2.706.27Z" fill="#B0B0B0"/><path d="m43.083 60.473 5.388-5.97 3.957-7.631-9.345 13.601Z" fill="#C4C4C4"/><path d="m52.428 46.872 2.69-.21 1.31-4.26-4 4.47Zm1.323-23.14 2.677.144-1.31-4.26-1.367 4.116Zm-3.099-8.328 1.776 4.002.93-3.73-2.706-.272Zm3.099 27.142 2.677-.145.817-4.526-3.494 4.671Zm-1.323 4.326-1.776 4.002 4.466-4.213-2.69.21Zm2.148-18.544 2.669.074-.817-4.526-1.852 4.452Z" fill="#B0B0B0"/><path d="m43.083 60.473 9.345-13.602 2.148-18.543-11.493 32.145Z" fill="#C4C4C4"/><path d="m54.576 37.95 2.67-.075.28-4.736-2.95 4.81Zm.284-4.811h2.667l-.281-4.737-2.386 4.737Z" fill="#B0B0B0"/><path d="m48.474 54.503 2.181-3.63 1.776-4.002-3.957 7.632Zm3.957-35.097-1.776-4.002-2.181-3.63 3.957 7.632Z" fill="#C4C4C4"/><path d="m52.429 19.406 1.322 4.326 1.367-4.115-2.69-.21Zm1.322 23.14-1.322 4.326 4-4.47-2.678.144Zm0-18.814.825 4.596 1.853-4.452-2.678-.144Z" fill="#B0B0B0"/><path d="m54.578 28.328-2.147-8.922-3.957-7.632 6.104 16.554Z" fill="#C4C4C4"/><path d="m54.578 37.95-.825 4.596 3.494-4.67-2.67.074Zm0-9.622.283 4.81 2.386-4.736-2.67-.074Zm.283 4.81-.283 4.812 2.95-4.811h-2.667Z" fill="#B0B0B0"/><path d="m52.429 46.872 1.322-4.326.825-4.596-2.147 8.922Zm2.147-18.544-.825-4.596-1.322-4.326 2.147 8.922ZM52.43 46.872l2.147-8.922v-9.622L52.43 46.872Zm2.147-8.922.284-4.811-.284-4.81v9.62Z" fill="#C4C4C4"/><path d="M54.62 33.256c0 18.186-12.116 32.755-26.866 32.755-14.751 0-26.866-14.57-26.866-32.755C.888 15.07 13.003.5 27.753.5 42.505.5 54.62 15.07 54.62 33.256Z" fill="url(#a)" stroke="url(#b)"/><g filter="url(#c)"><path d="M30.118 24.785H19.533V19.71H38.95v3.398L28.005 50.6h-5.559L32.86 24.785h-2.742Z" fill="url(#d)"/><path d="M16.383 19.6v5.075l3.15.11V19.71l-3.15-.11Z" fill="url(#e)"/><path d="M16.383 24.675h2.741l3.15.11h-2.741l-3.15-.11Z" fill="url(#f)"/><path d="M20.377 19.6h-3.994l3.15.11h3.994l-3.15-.11Z" fill="url(#g)"/><path d="M19.295 50.49h1.144l3.15.11h-1.144l-3.15-.11Z" fill="url(#h)"/><path d="M20.44 50.49h3.272l3.15.11h-3.273l-3.15-.11Z" fill="url(#i)"/><path d="M19.124 24.675h7.844l3.15.11h-7.844l-3.15-.11Z" fill="url(#j)"/><path d="M29.71 24.675 19.295 50.49l3.15.11L32.86 24.785l-3.15-.11Z" fill="url(#k)"/><path d="M23.712 50.49h1.144l3.15.11h-1.144l-3.15-.11Z" fill="url(#l)"/><path d="M31.805 19.6H20.377l3.15.11h11.428l-3.15-.11Z" fill="url(#m)"/><path d="M26.968 24.675h2.742l3.15.11h-2.742l-3.15-.11Z" fill="url(#n)"/><path d="m24.856 50.49 10.943-27.492 3.15.11L28.007 50.6l-3.15-.11Z" fill="url(#o)"/><path d="M35.8 19.6h-3.995l3.15.11h3.995l-3.15-.11Z" fill="url(#p)"/><path d="M35.8 22.998V19.6l3.15.11v3.398l-3.15-.11Z" fill="url(#q)"/><path d="M16.383 24.675V19.6H35.8v3.398L24.855 50.49h-5.56L29.71 24.675H16.383Z" fill="#fff"/></g><path d="M30.523.235 29.19.024c.45.061.894.131 1.334.211l11.199 1.77c1.88.474 6.521 2.214 10.036 5.384 3.515 3.17 6.174 7.437 7.064 9.175l1.938 4.307c1.02 3.26 2.8 11.027 1.766 16.023-.62 5.03-2.498 9.993-3.36 11.845-1.076 2.598-4.66 8.683-10.38 12.232-3.015 2.541-9.39 4.049-14.73 4.609.66-.172 2.119-.586 2.67-.861.69-.345 19.795-8.675 18.098-34.44C53.495 14.252 44.357 2.734 30.524.235Z" fill="url(#r)"/><defs><linearGradient id="a" x1="27.753" y1="0" x2="40.011" y2="67.93" gradientUnits="userSpaceOnUse"><stop stop-color="#DEE5F8"/><stop offset="1" stop-color="#BDBEE3"/></linearGradient><linearGradient id="b" x1="38.08" y1="53.368" x2="-5.114" y2="2.099" gradientUnits="userSpaceOnUse"><stop stop-color="#fff" stop-opacity=".7"/><stop offset="1" stop-color="#A0A3CF"/></linearGradient><linearGradient id="d" x1="27.666" y1="19.6" x2="27.666" y2="50.6" gradientUnits="userSpaceOnUse"><stop stop-color="#EEEBF1"/><stop offset="1" stop-color="#EEECF1"/></linearGradient><linearGradient id="e" x1="27.666" y1="19.6" x2="27.666" y2="50.6" gradientUnits="userSpaceOnUse"><stop stop-color="#EEEBF1"/><stop offset="1" stop-color="#EEECF1"/></linearGradient><linearGradient id="f" x1="27.666" y1="19.6" x2="27.666" y2="50.6" gradientUnits="userSpaceOnUse"><stop stop-color="#EEEBF1"/><stop offset="1" stop-color="#EEECF1"/></linearGradient><linearGradient id="g" x1="27.666" y1="19.6" x2="27.666" y2="50.6" gradientUnits="userSpaceOnUse"><stop stop-color="#EEEBF1"/><stop offset="1" stop-color="#EEECF1"/></linearGradient><linearGradient id="h" x1="27.666" y1="19.6" x2="27.666" y2="50.6" gradientUnits="userSpaceOnUse"><stop stop-color="#EEEBF1"/><stop offset="1" stop-color="#EEECF1"/></linearGradient><linearGradient id="i" x1="27.666" y1="19.6" x2="27.666" y2="50.6" gradientUnits="userSpaceOnUse"><stop stop-color="#EEEBF1"/><stop offset="1" stop-color="#EEECF1"/></linearGradient><linearGradient id="j" x1="27.666" y1="19.6" x2="27.666" y2="50.6" gradientUnits="userSpaceOnUse"><stop stop-color="#EEEBF1"/><stop offset="1" stop-color="#EEECF1"/></linearGradient><linearGradient id="k" x1="27.666" y1="19.6" x2="27.666" y2="50.6" gradientUnits="userSpaceOnUse"><stop stop-color="#EEEBF1"/><stop offset="1" stop-color="#EEECF1"/></linearGradient><linearGradient id="l" x1="27.666" y1="19.6" x2="27.666" y2="50.6" gradientUnits="userSpaceOnUse"><stop stop-color="#EEEBF1"/><stop offset="1" stop-color="#EEECF1"/></linearGradient><linearGradient id="m" x1="27.666" y1="19.6" x2="27.666" y2="50.6" gradientUnits="userSpaceOnUse"><stop stop-color="#EEEBF1"/><stop offset="1" stop-color="#EEECF1"/></linearGradient><linearGradient id="n" x1="27.666" y1="19.6" x2="27.666" y2="50.6" gradientUnits="userSpaceOnUse"><stop stop-color="#EEEBF1"/><stop offset="1" stop-color="#EEECF1"/></linearGradient><linearGradient id="o" x1="27.666" y1="19.6" x2="27.666" y2="50.6" gradientUnits="userSpaceOnUse"><stop stop-color="#EEEBF1"/><stop offset="1" stop-color="#EEECF1"/></linearGradient><linearGradient id="p" x1="27.666" y1="19.6" x2="27.666" y2="50.6" gradientUnits="userSpaceOnUse"><stop stop-color="#EEEBF1"/><stop offset="1" stop-color="#EEECF1"/></linearGradient><linearGradient id="q" x1="27.666" y1="19.6" x2="27.666" y2="50.6" gradientUnits="userSpaceOnUse"><stop stop-color="#EEEBF1"/><stop offset="1" stop-color="#EEECF1"/></linearGradient><linearGradient id="r" x1="79.558" y1="27.416" x2="12.69" y2="39.292" gradientUnits="userSpaceOnUse"><stop stop-color="#BDBEE3"/><stop offset="1" stop-color="#DEE5F8"/></linearGradient><filter id="c" x="11.383" y="11.6" width="42.566" height="51" filterUnits="userSpaceOnUse" color-interpolation-filters="sRGB"><feFlood flood-opacity="0" result="BackgroundImageFix"/><feColorMatrix in="SourceAlpha" values="0 0 0 0 0 0 0 0 0 0 0 0 0 0 0 0 0 0 127 0" result="hardAlpha"/><feOffset dx="5" dy="2"/><feGaussianBlur stdDeviation="5"/><feComposite in2="hardAlpha" operator="out"/><feColorMatrix values="0 0 0 0 0.321569 0 0 0 0 0.156863 0 0 0 0 0.423529 0 0 0 0.25 0"/><feBlend in2="BackgroundImageFix" result="effect1_dropShadow_1115_102509"/><feBlend in="SourceGraphic" in2="effect1_dropShadow_1115_102509" result="shape"/></filter></defs></svg>