<svg width="63" height="67" fill="none" xmlns="http://www.w3.org/2000/svg"><path d="M.218 28.918 0 33.138l.218 4.222v-8.442Zm1.669-7.94-1.669 7.94v8.442l1.669-16.382ZM.218 37.36l.637 4.062 1.032 3.877-1.669-7.94Zm1.669-16.382L.855 24.855l-.637 4.063 1.669-7.94ZM.218 37.36l1.669 7.94 3.156 7.085L.218 37.36Zm1.669 7.94 1.403 3.664 1.753 3.42L1.887 45.3Zm3.156-31.407-1.753 3.42-1.403 3.665 3.156-7.085ZM9.522 7.92 1.887 20.978.218 37.36 9.522 7.92Zm0 0-4.479 5.973-3.156 7.085L9.522 7.92ZM.218 37.36l4.825 15.025 10.122 10.524L.218 37.36ZM9.522 7.92l-2.395 2.83-2.084 3.143L9.522 7.92ZM5.043 52.385l2.084 3.143 2.395 2.829-4.479-5.972ZM9.522 7.92.218 37.36l14.947 25.55L9.522 7.92ZM5.043 52.385l4.479 5.972 5.643 4.552L5.043 52.385Zm4.479 5.972 2.685 2.475 2.958 2.077-5.643-4.552Zm5.643-54.99-2.958 2.079L9.522 7.92l5.643-4.552Z" fill="#C4C4C4"/><path d="m34.87 65.32 2.722-.455 3.543-.593-6.266 1.048Z" fill="#B0B0B0"/><path d="m21.816.594-6.65 2.774L9.52 7.921 21.816.594Z" fill="#C4C4C4"/><path d="m38.44 1.555 2.695.45-3.543-.593.849.143ZM34.87.957l3.57.598-.848-.143-2.723-.455Zm3.57 63.765-3.57.599 6.265-1.049-2.694.45Zm0 0 2.695-.45 3.415-1.146-6.11 1.596Z" fill="#B0B0B0"/><path d="m15.164 62.91 3.21 1.633 3.441 1.14-6.65-2.773ZM21.815.594l-3.441 1.14-3.21 1.634L21.815.594Z" fill="#C4C4C4"/><path d="m41.885 2.714 2.666.438-3.415-1.147.749.71Zm-3.443-1.159 3.443 1.16-.749-.71-2.694-.45Zm-6.374 64.234 2.802-.468 3.572-.599-6.374 1.067Zm9.817-2.226-3.443 1.16 6.11-1.597-2.667.437Zm0 0 2.666-.437 3.245-1.674-5.911 2.111ZM35.668 1.091l2.774.464L34.87.957l.798.134Z" fill="#B0B0B0"/><path d="m15.164 62.91 6.651 2.774 7.368.587-14.019-3.362Z" fill="#C4C4C4"/><path d="m45.157 4.41 2.64.416-3.246-1.674.606 1.258ZM32.068.489l3.6.602-.798-.134-2.802-.468Z" fill="#B0B0B0"/><path d="M36.312 1.8 21.816.595 9.521 7.921l26.79-6.12Z" fill="#C4C4C4"/><path d="m41.885 2.714 3.272 1.696-.606-1.258-2.666-.438Zm-6.217 62.472-3.6.603 6.374-1.067-2.774.464Zm0 0 2.774-.464 3.443-1.159-6.217 1.623Zm9.49-3.319 2.638-.415 3.033-2.175-5.672 2.59Zm0 0-3.273 1.696 5.911-2.111-2.639.416Zm-6.02-59.603 2.746.45-3.443-1.16.697.71Zm9.077 4.35L50.829 7l-3.033-2.174.42 1.787Z" fill="#B0B0B0"/><path d="m21.814 65.684 3.65.593 3.717-.006-7.367-.587ZM29.18.006 25.464 0l-3.65.594L29.18.006Z" fill="#C4C4C4"/><path d="m35.668 1.092 3.471 1.172-.698-.709-2.773-.463Zm9.489 3.318 3.059 2.203-.42-1.787-2.639-.416Z" fill="#B0B0B0"/><path d="m9.521 7.92 5.644 54.989 39.079-34.581L9.52 7.92Z" fill="#C4C4C4"/><path d="m29.182 66.27 2.884-.481 3.6-.603-6.484 1.085Zm19.032-6.606 2.613-.387 2.775-2.642-5.388 3.03Zm-9.077 4.35-3.471 1.172 6.216-1.623-2.745.45Zm9.077-4.35-3.059 2.203 5.672-2.59-2.613.387Zm-9.077 4.35 2.745-.451 3.273-1.696-6.018 2.146ZM32.81.613l2.856.477-3.6-.603.744.126Zm18.203 8.679 2.589.35L50.827 7l.186 2.293ZM42.437 3.98l2.718.429-3.273-1.696.555 1.267ZM29.182.006l3.628.608-.744-.126-2.884-.482Zm19.032 6.607 2.8 2.68L50.826 7l-2.613-.387Z" fill="#B0B0B0"/><path d="m15.164 62.91 14.019 3.361 13.567-5.798-27.586 2.437ZM36.31 1.8 29.183.008l-7.368.587L36.31 1.8Z" fill="#C4C4C4"/><path d="m39.137 2.264 3.3 1.718-.555-1.267-2.745-.45Zm11.876 54.72 2.589-.35 2.471-3.076-5.06 3.427Zm-18.203 8.68-3.628.607 6.484-1.085-2.856.477Zm18.203-8.68-2.8 2.68 5.389-3.03-2.589.35Zm-18.203 8.68 2.856-.478 3.471-1.173-6.327 1.65Zm9.627-3.368 2.718-.428 3.059-2.204-5.777 2.632Zm0 0-3.3 1.717 6.018-2.145-2.718.428Zm11.07-49.882 2.566.306-2.471-3.077-.095 2.771ZM36.31 1.801l2.828.463-3.471-1.172.643.709Zm9.213 4.414 2.692.398-3.059-2.203.367 1.805Zm5.491 3.078 2.494 3.121.095-2.771-2.589-.35Zm2.494 44.57 2.566-.305 2.123-3.473-4.689 3.779ZM32.81.614l3.5 1.187-.644-.71L32.81.615Zm9.627 3.368 3.085 2.233-.367-1.805-2.718-.428Zm11.07 49.882-2.494 3.12 5.06-3.426-2.566.306Zm2.142-37.926 2.547.255-2.123-3.473-.424 3.218Z" fill="#B0B0B0"/><path d="m29.182 66.27 3.628-.607 3.5-1.186-7.128 1.794ZM36.309 1.8 32.81.615 29.183.006l7.127 1.795Z" fill="#C4C4C4"/><path d="m45.524 60.063 2.691-.399 2.8-2.68-5.491 3.078Zm-9.213 4.414-3.5 1.186 6.328-1.65-2.828.464Zm9.213-4.415-3.085 2.234 5.776-2.632-2.691.398Zm-9.213 4.415 2.828-.464 3.3-1.717-6.128 2.18Z" fill="#B0B0B0"/><path d="M54.244 28.328 36.312 1.8 9.522 7.92l44.722 20.407Z" fill="#C4C4C4"/><path d="m55.65 50.34 2.547-.255 1.727-3.827-4.274 4.082Zm-2.142-37.926 2.142 3.524.425-3.218-2.567-.306Zm-5.16-3.481 2.666.36-2.8-2.68.134 2.32Zm9.045 10.888 2.53.198-1.726-3.826-.804 3.628ZM39.638 3.54l2.8.44-3.3-1.717.5 1.276Zm16.012 46.8-2.142 3.523 4.689-3.778-2.547.255Zm1.743-3.883 2.53-.199 1.287-4.133-3.817 4.332ZM45.523 6.215l2.825 2.718-.133-2.32-2.692-.398ZM36.31 1.8l3.328 1.74-.5-1.277L36.31 1.8Zm22.381 22.216 2.52.136-1.287-4.134-1.233 3.998Zm-3.04-8.08 1.742 3.884.804-3.628-2.547-.255Zm-7.303 41.408 2.666-.36 2.494-3.122-5.16 3.482Zm0 0-2.825 2.718 5.491-3.079-2.666.361Z" fill="#B0B0B0"/><path d="m29.182 66.27 7.127-1.793 6.44-4.004-13.567 5.798Z" fill="#C4C4C4"/><path d="m58.691 42.26 2.52-.135.8-4.391-3.32 4.527Zm-1.298 4.197L55.65 50.34l4.274-4.082-2.53.199Zm2.108-17.983 2.51.07-.8-4.391-1.71 4.32ZM39.638 62.737l2.8-.441 3.085-2.233-5.885 2.674Zm0 0-3.328 1.74 6.128-2.181-2.8.441ZM50.864 12.1l2.644.315-2.494-3.121-.15 2.806Zm8.637 25.704 2.51-.07.277-4.594-2.787 4.664Zm.278-4.664h2.509l-.276-4.595-2.233 4.595Zm-2.386-13.32 1.298 4.195 1.233-3.997-2.53-.198Z" fill="#B0B0B0"/><path d="m15.164 62.91 27.586-2.437 11.493-32.145-39.079 34.581Z" fill="#C4C4C4"/><path d="m42.75 5.804 2.773.41-3.085-2.233.311 1.823Zm15.94 36.457-1.297 4.196 3.816-4.332-2.518.136ZM48.348 8.932l2.517 3.167.15-2.806-2.667-.36Zm2.517 45.246 2.644-.315 2.142-3.523-4.786 3.838Zm7.827-30.162.81 4.458 1.708-4.321-2.518-.137Zm.81 13.787-.81 4.458 3.32-4.527-2.51.07ZM39.637 3.54l3.111 2.264-.311-1.823-2.8-.44Zm11.226 50.638-2.517 3.167 5.16-3.482-2.643.315Zm2.161-38.503 2.625.263-2.142-3.524-.483 3.26ZM59.5 28.474l.279 4.665 2.232-4.595-2.51-.07Zm.279 4.665-.279 4.664 2.787-4.664h-2.508Zm-17.03 27.334 2.774-.41 2.824-2.718-5.598 3.128Zm0 0-3.111 2.264 5.885-2.675-2.774.411Z" fill="#B0B0B0"/><path d="m36.31 64.477 3.328-1.74 3.112-2.264-6.44 4.004Zm6.44-58.673L39.638 3.54 36.31 1.8l6.44 4.004Z" fill="#C4C4C4"/><path d="m53.026 50.602 2.624-.263 1.743-3.883-4.367 4.146ZM50.864 12.1l2.162 3.576.482-3.261-2.644-.315ZM45.6 8.56l2.749.371-2.825-2.717.076 2.346Zm9.186 11.055 2.608.205-1.743-3.884-.865 3.68Zm-1.76 30.986-2.16 3.576 4.785-3.839-2.624.263Zm1.76-3.941 2.608-.205 1.299-4.195-3.907 4.4ZM42.75 5.804l2.85 2.757-.077-2.346-2.773-.41Zm13.345 18.072 2.597.14-1.299-4.195-1.298 4.055Zm-3.07-8.201 1.76 3.941.865-3.678-2.624-.263ZM45.6 57.716l2.749-.371 2.516-3.167-5.265 3.538Z" fill="#B0B0B0"/><path d="m48.138 11.774-5.388-5.97-6.44-4.003 11.828 9.973Z" fill="#C4C4C4"/><path d="m45.6 57.717-2.85 2.756 5.598-3.128-2.749.372ZM56.094 42.4l2.597-.14.809-4.457-3.406 4.597Zm-1.31 4.26-1.76 3.942 4.368-4.146-2.608.204Zm2.127-18.259 2.589.072-.81-4.457-1.779 4.385Zm-8.774-16.628 2.726.325-2.516-3.166-.21 2.841Zm8.774 26.102 2.589-.072.278-4.665-2.867 4.736Zm.282-4.737h2.585l-.278-4.665-2.307 4.665Zm-2.409-13.522 1.31 4.26 1.298-4.056-2.608-.204Zm1.31 22.784-1.31 4.26 3.907-4.4-2.597.14ZM45.6 8.561l2.54 3.213.209-2.841-2.749-.372Zm2.54 45.942 2.725-.325 2.162-3.575-4.888 3.9Zm7.956-30.627.817 4.526 1.78-4.385-2.597-.14Zm.817 14-.817 4.525 3.406-4.597-2.589.072Zm-8.774 16.627L45.6 57.717l5.265-3.538-2.726.324Zm2.182-39.099 2.706.271-2.162-3.576-.544 3.305Zm6.592 12.998.282 4.737 2.307-4.665-2.589-.072Zm.282 4.737-.282 4.736 2.867-4.736h-2.586Z" fill="#B0B0B0"/><path d="m42.75 60.473 2.849-2.756 2.54-3.214-5.39 5.97Zm5.388-48.699L45.6 8.561l-2.85-2.757 5.39 5.97Zm6.105 16.554-6.105-16.554L36.31 1.801l17.933 26.527Z" fill="#C4C4C4"/><path d="m50.322 50.873 2.706-.27 1.76-3.942-4.466 4.212Zm-2.181-39.099 2.181 3.63.544-3.305-2.725-.325Zm3.957 7.632 2.69.21-1.76-3.941-.93 3.73Zm-1.776 31.467-2.181 3.63 4.887-3.9-2.706.27Z" fill="#B0B0B0"/><path d="m42.75 60.473 5.388-5.97 3.957-7.631-9.345 13.601Z" fill="#C4C4C4"/><path d="m52.095 46.872 2.69-.21 1.31-4.26-4 4.47Zm1.323-23.14 2.677.144-1.31-4.26-1.367 4.116Zm-3.099-8.328 1.776 4.002.93-3.73-2.706-.272Zm3.099 27.142 2.677-.145.817-4.526-3.494 4.671Zm-1.323 4.326-1.776 4.002 4.466-4.213-2.69.21Zm2.148-18.544 2.669.074-.817-4.526-1.852 4.452Z" fill="#B0B0B0"/><path d="m42.75 60.473 9.345-13.602 2.148-18.543L42.75 60.473Z" fill="#C4C4C4"/><path d="m54.243 37.95 2.67-.075.28-4.736-2.95 4.81Zm.284-4.811h2.667l-.281-4.737-2.386 4.737Z" fill="#B0B0B0"/><path d="m48.14 54.503 2.182-3.63 1.776-4.002-3.957 7.632Zm3.958-35.097-1.776-4.002-2.181-3.63 3.957 7.632Z" fill="#C4C4C4"/><path d="m52.096 19.406 1.323 4.326 1.366-4.115-2.69-.21Zm1.323 23.14-1.323 4.326 4-4.47-2.677.144Zm0-18.814.824 4.596 1.853-4.452-2.677-.144Z" fill="#B0B0B0"/><path d="m54.245 28.328-2.147-8.922-3.957-7.632 6.104 16.554Z" fill="#C4C4C4"/><path d="m54.245 37.95-.825 4.596 3.494-4.67-2.67.074Zm0-9.622.283 4.81 2.386-4.736-2.67-.074Zm.283 4.81-.283 4.812 2.95-4.811h-2.667Z" fill="#B0B0B0"/><path d="m52.096 46.872 1.323-4.326.824-4.596-2.147 8.922Zm2.147-18.544-.825-4.596-1.322-4.326 2.147 8.922Zm-2.147 18.544 2.147-8.922v-9.622l-2.147 18.544Zm2.147-8.922.284-4.811-.284-4.81v9.62Z" fill="#C4C4C4"/><path d="M54.286 33.256c0 18.186-12.115 32.755-26.866 32.755-14.75 0-26.865-14.57-26.865-32.755C.555 15.07 12.67.5 27.42.5c14.75 0 26.865 14.57 26.865 32.756Z" fill="url(#a)" stroke="url(#b)"/><g filter="url(#c)"><path d="M27.97 31.9c.136.013.274.019.415.019h.809c1.107 0 2.015-.384 2.724-1.15.738-.766 1.107-1.66 1.107-2.682 0-1.192-.397-2.114-1.192-2.767-.669-.573-1.52-.905-2.55-.996a6.839 6.839 0 0 0-.6-.025c-1.277 0-2.299.354-3.065 1.064-.766.71-1.15 1.617-1.15 2.724 0 1.022.37 1.916 1.108 2.682.646.671 1.444 1.048 2.395 1.132Zm1.83 4.94a6.943 6.943 0 0 0-.606-.026h-.723c-1.306 0-2.441.383-3.406 1.15-.937.766-1.405 1.787-1.405 3.065 0 1.22.454 2.227 1.362 3.022.762.667 1.754 1.054 2.976 1.161.234.02.477.03.728.03 1.703 0 2.994-.382 3.873-1.148.88-.795 1.306-1.817 1.278-3.066-.029-1.333-.483-2.37-1.363-3.107-.721-.625-1.626-.986-2.714-1.081Zm6.333 11c-1.93 1.532-4.385 2.298-7.365 2.298a16.6 16.6 0 0 1-1.442-.06c-2.343-.205-4.332-.923-5.965-2.153-1.958-1.504-2.937-3.491-2.937-5.96 0-1.845.468-3.434 1.405-4.768.965-1.334 2.2-2.256 3.703-2.767v-.127c-1.22-.511-2.242-1.391-3.065-2.64-.794-1.277-1.192-2.753-1.192-4.427 0-2.299.908-4.172 2.725-5.62 1.816-1.475 4.058-2.213 6.726-2.213.408 0 .806.017 1.195.05 2.174.19 4.032.912 5.573 2.164 1.845 1.447 2.767 3.32 2.767 5.619 0 1.476-.411 2.866-1.234 4.172a7.17 7.17 0 0 1-3.363 2.852v.128c1.532.312 2.81 1.12 3.831 2.426 1.05 1.277 1.575 2.852 1.575 4.725 0 2.668-.979 4.768-2.937 6.3Z" fill="url(#d)"/><path d="M16.246 26.971c0 1.675.397 3.15 1.192 4.427l3.03.265c-.796-1.277-1.193-2.753-1.193-4.427l-3.03-.265Z" fill="url(#e)"/><path d="M16.8 36.933c-.937 1.333-1.405 2.923-1.405 4.767l3.029.265c0-1.845.468-3.434 1.405-4.768l-3.03-.264Z" fill="url(#f)"/><path d="M18.97 21.352c-1.816 1.447-2.724 3.32-2.724 5.62l3.03.264c0-2.299.907-4.172 2.724-5.62l-3.03-.264Z" fill="url(#g)"/><path d="M15.395 41.7c0 2.47.979 4.456 2.937 5.96l3.03.265c-1.96-1.504-2.938-3.491-2.938-5.96l-3.03-.265Z" fill="url(#h)"/><path d="M20.503 34.166c-1.504.51-2.739 1.433-3.704 2.767l3.03.264c.965-1.334 2.2-2.256 3.703-2.767l-3.029-.264Z" fill="url(#i)"/><path d="M17.438 31.398c.823 1.25 1.845 2.13 3.065 2.64l3.03.265c-1.221-.511-2.243-1.391-3.066-2.64l-3.03-.265Z" fill="url(#j)"/><path d="M20.503 34.038v.128l3.03.264v-.127l-3.03-.265Z" fill="url(#k)"/><path d="M25.696 19.138c-2.668 0-4.91.738-6.726 2.214l3.03.265c1.816-1.476 4.058-2.214 6.726-2.214l-3.03-.265Z" fill="url(#l)"/><path d="M21.44 27.822c0-1.106.382-2.014 1.149-2.724l3.03.265c-.767.71-1.15 1.617-1.15 2.724l-3.03-.265Z" fill="url(#m)"/><path d="M22.546 30.504c-.738-.766-1.107-1.66-1.107-2.682l3.03.265c0 1.022.369 1.916 1.107 2.682l-3.03-.265Z" fill="url(#n)"/><path d="M20.63 40.764c0-1.277.469-2.299 1.405-3.065l3.03.265c-.937.766-1.405 1.787-1.405 3.065l-3.03-.265Z" fill="url(#o)"/><path d="M21.993 43.786c-.908-.795-1.362-1.802-1.362-3.022l3.029.264c0 1.22.454 2.228 1.362 3.023l-3.03-.265Z" fill="url(#p)"/><path d="M18.332 47.66c1.633 1.23 3.621 1.948 5.965 2.153l3.02.264c-2.34-.205-4.325-.923-5.956-2.152l-3.03-.265Z" fill="url(#q)"/><path d="M22.589 25.098c.766-.71 1.788-1.064 3.065-1.064l3.03.265c-1.278 0-2.3.354-3.066 1.064l-3.03-.265Z" fill="url(#r)"/><path d="M24.942 31.636c-.951-.084-1.75-.46-2.396-1.132l3.03.265c.646.671 1.444 1.048 2.395 1.132l-3.03-.265Z" fill="url(#s)"/><path d="M22.035 37.699c.965-.767 2.1-1.15 3.406-1.15l3.03.265c-1.306 0-2.441.383-3.406 1.15l-3.03-.265Z" fill="url(#t)"/><path d="M24.968 44.947c-1.221-.107-2.213-.494-2.975-1.16l3.03.264c.761.667 1.753 1.054 2.975 1.161l-3.03-.265Z" fill="url(#u)"/><path d="M25.356 31.654a4.63 4.63 0 0 1-.412-.018l3.027.265c.135.012.273.018.414.018l-3.029-.265Z" fill="url(#v)"/><path d="M26.891 19.19a13.297 13.297 0 0 0-1.195-.052l3.03.265c.408 0 .806.017 1.195.05l-3.03-.264Z" fill="url(#w)"/><path d="M25.654 24.034c.206 0 .406.008.599.025l3.026.265a6.838 6.838 0 0 0-.596-.025l-3.03-.265Z" fill="url(#x)"/><path d="M25.502 31.654h-.146l3.03.265h.145l-3.03-.265Z" fill="url(#y)"/><path d="M26.019 31.654h-.517l3.029.265h.517l-3.03-.265Z" fill="url(#z)"/><path d="M25.44 36.55h.131l3.03.264h-.13l-3.03-.264Z" fill="url(#A)"/><path d="M26.165 31.654h-.146l3.03.265h.145l-3.03-.265Z" fill="url(#B)"/><path d="M25.572 36.55h.462l3.03.264H28.6l-3.03-.264Z" fill="url(#C)"/><path d="M25.696 44.978c-.25 0-.49-.01-.723-.03l3.025.264c.234.02.477.03.728.03l-3.03-.264Z" fill="url(#D)"/><path d="M26.034 36.55h.13l3.03.264h-.13l-3.03-.264Z" fill="url(#E)"/><path d="M24.297 49.813c.466.04.947.06 1.442.06l3.03.265a16.6 16.6 0 0 1-1.443-.06l-3.03-.265Z" fill="url(#F)"/><path d="M26.165 36.55c.208 0 .41.008.606.025l3.026.265a6.933 6.933 0 0 0-.603-.026l-3.03-.264Z" fill="url(#G)"/><path d="M26.253 24.06c1.031.09 1.882.422 2.55.995l3.03.265c-.669-.573-1.52-.905-2.55-.996l-3.03-.265Z" fill="url(#H)"/><path d="M28.89 30.504c-.71.767-1.618 1.15-2.725 1.15l3.029.265c1.107 0 2.015-.384 2.724-1.15l-3.029-.265Z" fill="url(#I)"/><path d="M26.771 36.575c1.088.096 1.993.456 2.714 1.081l3.03.265c-.722-.625-1.627-.986-2.715-1.081l-3.029-.265Z" fill="url(#J)"/><path d="M32.465 21.352c-1.54-1.25-3.396-1.971-5.567-2.162l3.023.264c2.174.19 4.032.91 5.573 2.163l-3.03-.265Z" fill="url(#K)"/><path d="M29.57 43.829c-.88.766-2.171 1.149-3.874 1.149l3.03.265c1.703 0 2.994-.383 3.873-1.15l-3.029-.264Z" fill="url(#L)"/><path d="M28.804 25.055c.795.653 1.192 1.576 1.192 2.767l3.03.265c0-1.192-.398-2.114-1.193-2.767l-3.03-.265Z" fill="url(#M)"/><path d="M29.996 27.822c0 1.022-.37 1.916-1.107 2.682l3.03.265c.737-.766 1.106-1.66 1.106-2.682l-3.03-.265Z" fill="url(#N)"/><path d="M29.485 37.656c.88.738 1.334 1.774 1.362 3.108l3.03.264c-.029-1.333-.483-2.37-1.363-3.107l-3.03-.265Z" fill="url(#O)"/><path d="M30.635 34.123v-.128l3.029.265v.128l-3.03-.265Z" fill="url(#P)"/><path d="M25.739 49.873c2.98 0 5.435-.765 7.364-2.298l3.03.265c-1.93 1.532-4.385 2.298-7.365 2.298l-3.029-.264Z" fill="url(#Q)"/><path d="M30.847 40.764c.028 1.248-.397 2.27-1.277 3.065l3.03.264c.88-.794 1.305-1.816 1.277-3.065l-3.03-.264Z" fill="url(#R)"/><path d="M30.635 33.995a7.168 7.168 0 0 0 3.363-2.852l3.029.265a7.17 7.17 0 0 1-3.363 2.852l-3.03-.265Z" fill="url(#S)"/><path d="M34.466 36.55c-1.022-1.306-2.299-2.115-3.831-2.427l3.029.265c1.532.312 2.81 1.12 3.831 2.426l-3.03-.264Z" fill="url(#T)"/><path d="M35.232 26.971c0-2.299-.923-4.172-2.767-5.619l3.03.265c1.844 1.447 2.766 3.32 2.766 5.619l-3.03-.265Z" fill="url(#U)"/><path d="M33.998 31.143c.823-1.305 1.234-2.696 1.234-4.172l3.03.265c0 1.476-.412 2.866-1.235 4.172l-3.03-.265Z" fill="url(#V)"/><path d="M33.103 47.575c1.959-1.533 2.938-3.633 2.938-6.3l3.03.264c0 2.668-.98 4.768-2.938 6.3l-3.03-.264Z" fill="url(#W)"/><path d="M36.04 41.274c0-1.873-.524-3.447-1.574-4.724l3.029.264c1.05 1.277 1.575 2.852 1.575 4.725l-3.03-.265Z" fill="url(#X)"/><path d="M25.356 31.654h.809c1.106 0 2.015-.384 2.724-1.15.738-.766 1.107-1.66 1.107-2.682 0-1.192-.397-2.114-1.192-2.767-.795-.68-1.845-1.021-3.15-1.021-1.277 0-2.299.354-3.065 1.064-.766.71-1.15 1.618-1.15 2.724 0 1.022.37 1.916 1.107 2.682.738.766 1.675 1.15 2.81 1.15Zm.809 4.895h-.724c-1.305 0-2.44.383-3.406 1.15-.936.766-1.404 1.787-1.404 3.065 0 1.22.454 2.227 1.362 3.022.908.795 2.143 1.192 3.703 1.192 1.703 0 2.994-.383 3.874-1.15.88-.794 1.306-1.816 1.277-3.065-.028-1.333-.482-2.37-1.362-3.107-.851-.738-1.958-1.107-3.32-1.107Zm6.938 11.026c-1.93 1.532-4.384 2.298-7.364 2.298-2.98 0-5.449-.737-7.407-2.213-1.958-1.504-2.938-3.49-2.938-5.96 0-1.845.469-3.434 1.405-4.768.965-1.334 2.2-2.256 3.704-2.767v-.127c-1.22-.511-2.242-1.391-3.065-2.64-.795-1.277-1.192-2.753-1.192-4.427 0-2.299.908-4.172 2.724-5.62 1.817-1.475 4.059-2.213 6.726-2.213 2.696 0 4.953.738 6.769 2.214 1.845 1.447 2.767 3.32 2.767 5.619 0 1.476-.412 2.866-1.235 4.172a7.169 7.169 0 0 1-3.363 2.852v.128c1.533.312 2.81 1.12 3.832 2.426 1.05 1.277 1.575 2.852 1.575 4.725 0 2.668-.98 4.768-2.938 6.3Z" fill="#fff"/></g><path d="M30.19.235 28.855.024c.45.061.895.131 1.335.211l11.199 1.77c1.88.474 6.521 2.214 10.036 5.384 3.515 3.17 6.174 7.437 7.064 9.175l1.938 4.307c1.02 3.26 2.8 11.027 1.766 16.023-.62 5.03-2.498 9.993-3.36 11.845-1.076 2.598-4.66 8.683-10.38 12.232-3.015 2.541-9.39 4.049-14.73 4.609.66-.172 2.119-.586 2.67-.861.69-.345 19.795-8.675 18.097-34.44C53.163 14.252 44.024 2.734 30.19.235Z" fill="url(#Y)"/><defs><linearGradient id="a" x1="27.421" y1="0" x2="39.678" y2="67.93" gradientUnits="userSpaceOnUse"><stop stop-color="#DEE5F8"/><stop offset="1" stop-color="#BDBEE3"/></linearGradient><linearGradient id="b" x1="37.747" y1="53.368" x2="-5.447" y2="2.099" gradientUnits="userSpaceOnUse"><stop stop-color="#fff" stop-opacity=".7"/><stop offset="1" stop-color="#A0A3CF"/></linearGradient><linearGradient id="d" x1="27.232" y1="19.138" x2="27.232" y2="50.138" gradientUnits="userSpaceOnUse"><stop stop-color="#EEEBF1"/><stop offset="1" stop-color="#EEECF1"/></linearGradient><linearGradient id="e" x1="27.232" y1="19.138" x2="27.232" y2="50.138" gradientUnits="userSpaceOnUse"><stop stop-color="#EEEBF1"/><stop offset="1" stop-color="#EEECF1"/></linearGradient><linearGradient id="f" x1="27.232" y1="19.138" x2="27.232" y2="50.138" gradientUnits="userSpaceOnUse"><stop stop-color="#EEEBF1"/><stop offset="1" stop-color="#EEECF1"/></linearGradient><linearGradient id="g" x1="27.232" y1="19.138" x2="27.232" y2="50.138" gradientUnits="userSpaceOnUse"><stop stop-color="#EEEBF1"/><stop offset="1" stop-color="#EEECF1"/></linearGradient><linearGradient id="h" x1="27.232" y1="19.138" x2="27.232" y2="50.138" gradientUnits="userSpaceOnUse"><stop stop-color="#EEEBF1"/><stop offset="1" stop-color="#EEECF1"/></linearGradient><linearGradient id="i" x1="27.232" y1="19.138" x2="27.232" y2="50.138" gradientUnits="userSpaceOnUse"><stop stop-color="#EEEBF1"/><stop offset="1" stop-color="#EEECF1"/></linearGradient><linearGradient id="j" x1="27.232" y1="19.138" x2="27.232" y2="50.138" gradientUnits="userSpaceOnUse"><stop stop-color="#EEEBF1"/><stop offset="1" stop-color="#EEECF1"/></linearGradient><linearGradient id="k" x1="27.232" y1="19.138" x2="27.232" y2="50.138" gradientUnits="userSpaceOnUse"><stop stop-color="#EEEBF1"/><stop offset="1" stop-color="#EEECF1"/></linearGradient><linearGradient id="l" x1="27.232" y1="19.138" x2="27.232" y2="50.138" gradientUnits="userSpaceOnUse"><stop stop-color="#EEEBF1"/><stop offset="1" stop-color="#EEECF1"/></linearGradient><linearGradient id="m" x1="27.232" y1="19.138" x2="27.232" y2="50.138" gradientUnits="userSpaceOnUse"><stop stop-color="#EEEBF1"/><stop offset="1" stop-color="#EEECF1"/></linearGradient><linearGradient id="n" x1="27.232" y1="19.138" x2="27.232" y2="50.138" gradientUnits="userSpaceOnUse"><stop stop-color="#EEEBF1"/><stop offset="1" stop-color="#EEECF1"/></linearGradient><linearGradient id="o" x1="27.232" y1="19.138" x2="27.232" y2="50.138" gradientUnits="userSpaceOnUse"><stop stop-color="#EEEBF1"/><stop offset="1" stop-color="#EEECF1"/></linearGradient><linearGradient id="p" x1="27.232" y1="19.138" x2="27.232" y2="50.138" gradientUnits="userSpaceOnUse"><stop stop-color="#EEEBF1"/><stop offset="1" stop-color="#EEECF1"/></linearGradient><linearGradient id="q" x1="27.232" y1="19.138" x2="27.232" y2="50.138" gradientUnits="userSpaceOnUse"><stop stop-color="#EEEBF1"/><stop offset="1" stop-color="#EEECF1"/></linearGradient><linearGradient id="r" x1="27.232" y1="19.138" x2="27.232" y2="50.138" gradientUnits="userSpaceOnUse"><stop stop-color="#EEEBF1"/><stop offset="1" stop-color="#EEECF1"/></linearGradient><linearGradient id="s" x1="27.232" y1="19.138" x2="27.232" y2="50.138" gradientUnits="userSpaceOnUse"><stop stop-color="#EEEBF1"/><stop offset="1" stop-color="#EEECF1"/></linearGradient><linearGradient id="t" x1="27.232" y1="19.138" x2="27.232" y2="50.138" gradientUnits="userSpaceOnUse"><stop stop-color="#EEEBF1"/><stop offset="1" stop-color="#EEECF1"/></linearGradient><linearGradient id="u" x1="27.232" y1="19.138" x2="27.232" y2="50.138" gradientUnits="userSpaceOnUse"><stop stop-color="#EEEBF1"/><stop offset="1" stop-color="#EEECF1"/></linearGradient><linearGradient id="v" x1="27.232" y1="19.138" x2="27.232" y2="50.138" gradientUnits="userSpaceOnUse"><stop stop-color="#EEEBF1"/><stop offset="1" stop-color="#EEECF1"/></linearGradient><linearGradient id="w" x1="27.232" y1="19.138" x2="27.232" y2="50.138" gradientUnits="userSpaceOnUse"><stop stop-color="#EEEBF1"/><stop offset="1" stop-color="#EEECF1"/></linearGradient><linearGradient id="x" x1="27.232" y1="19.138" x2="27.232" y2="50.138" gradientUnits="userSpaceOnUse"><stop stop-color="#EEEBF1"/><stop offset="1" stop-color="#EEECF1"/></linearGradient><linearGradient id="y" x1="27.232" y1="19.138" x2="27.232" y2="50.138" gradientUnits="userSpaceOnUse"><stop stop-color="#EEEBF1"/><stop offset="1" stop-color="#EEECF1"/></linearGradient><linearGradient id="z" x1="27.232" y1="19.138" x2="27.232" y2="50.138" gradientUnits="userSpaceOnUse"><stop stop-color="#EEEBF1"/><stop offset="1" stop-color="#EEECF1"/></linearGradient><linearGradient id="A" x1="27.232" y1="19.138" x2="27.232" y2="50.138" gradientUnits="userSpaceOnUse"><stop stop-color="#EEEBF1"/><stop offset="1" stop-color="#EEECF1"/></linearGradient><linearGradient id="B" x1="27.232" y1="19.138" x2="27.232" y2="50.138" gradientUnits="userSpaceOnUse"><stop stop-color="#EEEBF1"/><stop offset="1" stop-color="#EEECF1"/></linearGradient><linearGradient id="C" x1="27.232" y1="19.138" x2="27.232" y2="50.138" gradientUnits="userSpaceOnUse"><stop stop-color="#EEEBF1"/><stop offset="1" stop-color="#EEECF1"/></linearGradient><linearGradient id="D" x1="27.232" y1="19.138" x2="27.232" y2="50.138" gradientUnits="userSpaceOnUse"><stop stop-color="#EEEBF1"/><stop offset="1" stop-color="#EEECF1"/></linearGradient><linearGradient id="E" x1="27.232" y1="19.138" x2="27.232" y2="50.138" gradientUnits="userSpaceOnUse"><stop stop-color="#EEEBF1"/><stop offset="1" stop-color="#EEECF1"/></linearGradient><linearGradient id="F" x1="27.232" y1="19.138" x2="27.232" y2="50.138" gradientUnits="userSpaceOnUse"><stop stop-color="#EEEBF1"/><stop offset="1" stop-color="#EEECF1"/></linearGradient><linearGradient id="G" x1="27.232" y1="19.138" x2="27.232" y2="50.138" gradientUnits="userSpaceOnUse"><stop stop-color="#EEEBF1"/><stop offset="1" stop-color="#EEECF1"/></linearGradient><linearGradient id="H" x1="27.232" y1="19.138" x2="27.232" y2="50.138" gradientUnits="userSpaceOnUse"><stop stop-color="#EEEBF1"/><stop offset="1" stop-color="#EEECF1"/></linearGradient><linearGradient id="I" x1="27.232" y1="19.138" x2="27.232" y2="50.138" gradientUnits="userSpaceOnUse"><stop stop-color="#EEEBF1"/><stop offset="1" stop-color="#EEECF1"/></linearGradient><linearGradient id="J" x1="27.232" y1="19.138" x2="27.232" y2="50.138" gradientUnits="userSpaceOnUse"><stop stop-color="#EEEBF1"/><stop offset="1" stop-color="#EEECF1"/></linearGradient><linearGradient id="K" x1="27.232" y1="19.138" x2="27.232" y2="50.138" gradientUnits="userSpaceOnUse"><stop stop-color="#EEEBF1"/><stop offset="1" stop-color="#EEECF1"/></linearGradient><linearGradient id="L" x1="27.232" y1="19.138" x2="27.232" y2="50.138" gradientUnits="userSpaceOnUse"><stop stop-color="#EEEBF1"/><stop offset="1" stop-color="#EEECF1"/></linearGradient><linearGradient id="M" x1="27.232" y1="19.138" x2="27.232" y2="50.138" gradientUnits="userSpaceOnUse"><stop stop-color="#EEEBF1"/><stop offset="1" stop-color="#EEECF1"/></linearGradient><linearGradient id="N" x1="27.232" y1="19.138" x2="27.232" y2="50.138" gradientUnits="userSpaceOnUse"><stop stop-color="#EEEBF1"/><stop offset="1" stop-color="#EEECF1"/></linearGradient><linearGradient id="O" x1="27.232" y1="19.138" x2="27.232" y2="50.138" gradientUnits="userSpaceOnUse"><stop stop-color="#EEEBF1"/><stop offset="1" stop-color="#EEECF1"/></linearGradient><linearGradient id="P" x1="27.232" y1="19.138" x2="27.232" y2="50.138" gradientUnits="userSpaceOnUse"><stop stop-color="#EEEBF1"/><stop offset="1" stop-color="#EEECF1"/></linearGradient><linearGradient id="Q" x1="27.232" y1="19.138" x2="27.232" y2="50.138" gradientUnits="userSpaceOnUse"><stop stop-color="#EEEBF1"/><stop offset="1" stop-color="#EEECF1"/></linearGradient><linearGradient id="R" x1="27.232" y1="19.138" x2="27.232" y2="50.138" gradientUnits="userSpaceOnUse"><stop stop-color="#EEEBF1"/><stop offset="1" stop-color="#EEECF1"/></linearGradient><linearGradient id="S" x1="27.232" y1="19.138" x2="27.232" y2="50.138" gradientUnits="userSpaceOnUse"><stop stop-color="#EEEBF1"/><stop offset="1" stop-color="#EEECF1"/></linearGradient><linearGradient id="T" x1="27.232" y1="19.138" x2="27.232" y2="50.138" gradientUnits="userSpaceOnUse"><stop stop-color="#EEEBF1"/><stop offset="1" stop-color="#EEECF1"/></linearGradient><linearGradient id="U" x1="27.232" y1="19.138" x2="27.232" y2="50.138" gradientUnits="userSpaceOnUse"><stop stop-color="#EEEBF1"/><stop offset="1" stop-color="#EEECF1"/></linearGradient><linearGradient id="V" x1="27.232" y1="19.138" x2="27.232" y2="50.138" gradientUnits="userSpaceOnUse"><stop stop-color="#EEEBF1"/><stop offset="1" stop-color="#EEECF1"/></linearGradient><linearGradient id="W" x1="27.232" y1="19.138" x2="27.232" y2="50.138" gradientUnits="userSpaceOnUse"><stop stop-color="#EEEBF1"/><stop offset="1" stop-color="#EEECF1"/></linearGradient><linearGradient id="X" x1="27.232" y1="19.138" x2="27.232" y2="50.138" gradientUnits="userSpaceOnUse"><stop stop-color="#EEEBF1"/><stop offset="1" stop-color="#EEECF1"/></linearGradient><linearGradient id="Y" x1="79.225" y1="27.416" x2="12.357" y2="39.292" gradientUnits="userSpaceOnUse"><stop stop-color="#BDBEE3"/><stop offset="1" stop-color="#DEE5F8"/></linearGradient><filter id="c" x="10.395" y="11.138" width="43.676" height="51" filterUnits="userSpaceOnUse" color-interpolation-filters="sRGB"><feFlood flood-opacity="0" result="BackgroundImageFix"/><feColorMatrix in="SourceAlpha" values="0 0 0 0 0 0 0 0 0 0 0 0 0 0 0 0 0 0 127 0" result="hardAlpha"/><feOffset dx="5" dy="2"/><feGaussianBlur stdDeviation="5"/><feComposite in2="hardAlpha" operator="out"/><feColorMatrix values="0 0 0 0 0.321569 0 0 0 0 0.156863 0 0 0 0 0.423529 0 0 0 0.25 0"/><feBlend in2="BackgroundImageFix" result="effect1_dropShadow_1115_102562"/><feBlend in="SourceGraphic" in2="effect1_dropShadow_1115_102562" result="shape"/></filter></defs></svg>