<svg width="64" height="67" fill="none" xmlns="http://www.w3.org/2000/svg"><path d="m.885 28.918-.218 4.22.218 4.222v-8.442Zm1.669-7.94-1.669 7.94v8.442l1.669-16.382ZM.885 37.36l.637 4.062 1.032 3.877-1.669-7.94Zm1.669-16.382-1.032 3.877-.637 4.063 1.669-7.94ZM.885 37.36l1.669 7.94 3.156 7.085L.885 37.36Zm1.669 7.94 1.403 3.664 1.753 3.42L2.554 45.3ZM5.71 13.892l-1.753 3.42-1.403 3.665 3.156-7.085Zm4.478-5.973L2.554 20.978.885 37.36l9.303-29.44Zm0 0L5.71 13.893l-3.156 7.085L10.188 7.92ZM.885 37.36 5.71 52.385l10.122 10.524L.885 37.36Zm9.303-29.44-2.394 2.83-2.084 3.143 4.478-5.973ZM5.71 52.385l2.084 3.143 2.394 2.829-4.478-5.972ZM10.188 7.92.885 37.36l14.947 25.55-5.644-54.99ZM5.71 52.385l4.478 5.972 5.644 4.552L5.71 52.385Zm4.478 5.972 2.686 2.475 2.958 2.077-5.644-4.552Zm5.644-54.99-2.958 2.079-2.686 2.474 5.644-4.552Z" fill="#C4C4C4"/><path d="m35.536 65.32 2.723-.455 3.543-.593-6.266 1.048Z" fill="#B0B0B0"/><path d="m22.483.594-6.65 2.774-5.645 4.553L22.483.594Z" fill="#C4C4C4"/><path d="m39.108 1.555 2.694.45-3.543-.593.849.143ZM35.536.957l3.572.598-.85-.143-2.722-.455Zm3.572 63.765-3.572.599 6.266-1.049-2.694.45Zm0 0 2.694-.45 3.415-1.146-6.11 1.596Z" fill="#B0B0B0"/><path d="m15.831 62.91 3.21 1.633 3.441 1.14-6.65-2.773ZM22.482.594l-3.441 1.14-3.21 1.634L22.482.594Z" fill="#C4C4C4"/><path d="m42.552 2.714 2.666.438-3.415-1.147.749.71Zm-3.443-1.159 3.443 1.16-.749-.71-2.694-.45Zm-6.374 64.234 2.802-.468 3.572-.599-6.374 1.067Zm9.817-2.226-3.443 1.16 6.11-1.597-2.667.437Zm0 0 2.666-.437 3.245-1.674-5.911 2.111ZM36.335 1.091l2.774.464-3.572-.598.798.134Z" fill="#B0B0B0"/><path d="m15.831 62.91 6.651 2.774 7.368.587-14.019-3.362Z" fill="#C4C4C4"/><path d="m45.824 4.41 2.64.416-3.246-1.674.606 1.258ZM32.735.489l3.6.602-.798-.134-2.802-.468Z" fill="#B0B0B0"/><path d="M36.978 1.8 22.483.595 10.188 7.921l26.79-6.12Z" fill="#C4C4C4"/><path d="m42.552 2.714 3.272 1.696-.606-1.258-2.666-.438Zm-6.217 62.472-3.6.603 6.374-1.067-2.774.464Zm0 0 2.774-.464 3.443-1.159-6.217 1.623Zm9.49-3.319 2.638-.415 3.033-2.175-5.672 2.59Zm0 0-3.273 1.696 5.911-2.111-2.639.416Zm-6.02-59.603 2.746.45-3.443-1.16.697.71Zm9.077 4.35L51.496 7l-3.033-2.174.42 1.787Z" fill="#B0B0B0"/><path d="m22.48 65.684 3.651.593 3.717-.006-7.367-.587ZM29.849.006 26.131 0l-3.65.594 7.367-.588Z" fill="#C4C4C4"/><path d="m36.335 1.092 3.471 1.172-.698-.709-2.773-.463Zm9.489 3.318 3.059 2.203-.42-1.787-2.639-.416Z" fill="#B0B0B0"/><path d="m10.188 7.92 5.644 54.989 39.079-34.581L10.188 7.92Z" fill="#C4C4C4"/><path d="m29.849 66.27 2.884-.481 3.6-.603-6.484 1.085Zm19.032-6.606 2.613-.386 2.775-2.643-5.388 3.03Zm-9.077 4.35-3.471 1.172 6.216-1.623-2.745.45Zm9.077-4.35-3.059 2.204 5.672-2.59-2.613.386Zm-9.077 4.35 2.745-.451 3.273-1.695-6.018 2.145ZM33.477.613l2.856.477-3.6-.602.744.125Zm18.203 8.68 2.589.35L51.494 7l.186 2.293Zm-8.576-5.312 2.718.429-3.273-1.696.555 1.267ZM29.85.006l3.628.608-.744-.125L29.85.006Zm19.03 6.607 2.8 2.68L51.493 7l-2.613-.387Z" fill="#B0B0B0"/><path d="m15.831 62.91 14.019 3.36 13.567-5.798L15.83 62.91ZM36.977 1.8 29.85.008l-7.368.587L36.977 1.8Z" fill="#C4C4C4"/><path d="m39.804 2.264 3.3 1.718-.555-1.267-2.745-.45Zm11.876 54.72 2.589-.35 2.471-3.076-5.06 3.427Zm-18.203 8.68-3.628.607 6.484-1.085-2.856.477Zm18.203-8.68-2.8 2.68 5.389-3.03-2.589.35Zm-18.203 8.68 2.856-.478 3.471-1.173-6.327 1.65Zm9.627-3.368 2.718-.428 3.059-2.204-5.777 2.632Zm0 0-3.3 1.717 6.018-2.145-2.718.428Zm11.07-49.882 2.566.306-2.471-3.077-.095 2.771ZM36.976 1.801l2.828.463-3.471-1.172.643.709Zm9.213 4.414 2.692.398-3.059-2.203.367 1.805Zm5.491 3.078 2.494 3.121.095-2.771-2.589-.35Zm2.494 44.57 2.566-.305 2.123-3.473-4.689 3.779ZM33.477.614l3.5 1.187-.644-.71-2.856-.477Zm9.627 3.368 3.085 2.233-.367-1.805-2.718-.428Zm11.07 49.882-2.494 3.12 5.06-3.426-2.566.306Zm2.142-37.926 2.547.255-2.123-3.473-.424 3.218Z" fill="#B0B0B0"/><path d="m29.849 66.27 3.628-.607 3.5-1.186-7.128 1.794ZM36.976 1.8l-3.5-1.186L29.85.006l7.127 1.795Z" fill="#C4C4C4"/><path d="m46.19 60.063 2.692-.399 2.8-2.68-5.491 3.078Zm-9.212 4.414-3.5 1.186 6.328-1.65-2.828.464Zm9.213-4.415-3.085 2.234 5.776-2.632-2.691.398Zm-9.213 4.415 2.828-.464 3.3-1.717-6.128 2.18Z" fill="#B0B0B0"/><path d="M54.91 28.328 36.98 1.8 10.19 7.92l44.72 20.408Z" fill="#C4C4C4"/><path d="m56.317 50.34 2.547-.255 1.727-3.827-4.274 4.082Zm-2.142-37.926 2.142 3.524.425-3.218-2.567-.306Zm-5.16-3.481 2.666.36-2.8-2.68.134 2.32ZM58.06 19.82l2.53.198-1.726-3.826-.804 3.628ZM40.305 3.54l2.8.44-3.3-1.717.5 1.276Zm16.012 46.8-2.142 3.523 4.689-3.778-2.547.255Zm1.743-3.883 2.53-.199 1.287-4.133-3.817 4.332ZM46.19 6.215l2.825 2.718-.133-2.32-2.692-.398ZM36.978 1.8l3.327 1.74-.5-1.277-2.828-.463Zm22.38 22.216 2.52.136-1.287-4.134-1.233 3.998Zm-3.04-8.08 1.742 3.884.804-3.628-2.547-.255Zm-7.303 41.408 2.666-.36 2.494-3.122-5.16 3.482Zm0 0-2.825 2.718 5.491-3.079-2.666.361Z" fill="#B0B0B0"/><path d="m29.849 66.27 7.127-1.793 6.44-4.004-13.567 5.798Z" fill="#C4C4C4"/><path d="m59.358 42.26 2.52-.135.8-4.391-3.32 4.527Zm-1.298 4.197-1.743 3.883 4.274-4.082-2.53.199Zm2.108-17.983 2.51.07-.8-4.391-1.71 4.32ZM40.305 62.737l2.8-.441 3.085-2.233-5.885 2.674Zm0 0-3.328 1.74 6.128-2.181-2.8.441ZM51.531 12.1l2.644.315-2.494-3.121-.15 2.806Zm8.637 25.704 2.51-.07.277-4.594-2.787 4.664Zm.278-4.664h2.509l-.276-4.595-2.233 4.595ZM58.06 19.82l1.298 4.195 1.233-3.997-2.53-.198Z" fill="#B0B0B0"/><path d="m15.831 62.91 27.586-2.437L54.91 28.328 15.83 62.909Z" fill="#C4C4C4"/><path d="m43.416 5.804 2.774.41-3.085-2.233.311 1.823Zm15.942 36.457-1.298 4.196 3.816-4.332-2.518.136ZM49.014 8.933l2.517 3.166.15-2.806-2.667-.36Zm2.517 45.245 2.644-.315 2.142-3.523-4.786 3.838Zm7.827-30.161.81 4.457 1.708-4.321-2.518-.136Zm.81 13.787-.81 4.457 3.32-4.527-2.51.07ZM40.304 3.54l3.111 2.264-.311-1.823-2.8-.44ZM51.53 54.178l-2.517 3.167 5.16-3.482-2.643.315Zm2.161-38.503 2.625.263-2.142-3.524-.483 3.26Zm6.475 12.799.279 4.665 2.232-4.595-2.51-.07Zm.279 4.665-.279 4.664 2.787-4.664h-2.508Zm-17.03 27.334 2.774-.41 2.824-2.718-5.598 3.128Zm0 0-3.111 2.264 5.885-2.674-2.774.41Z" fill="#B0B0B0"/><path d="m36.977 64.477 3.328-1.74 3.112-2.264-6.44 4.004Zm6.44-58.673L40.305 3.54 36.977 1.8l6.44 4.004Z" fill="#C4C4C4"/><path d="m53.693 50.602 2.624-.263 1.743-3.883-4.367 4.146ZM51.53 12.1l2.162 3.576.482-3.261-2.644-.315Zm-5.264-3.54 2.749.371-2.825-2.717.076 2.346Zm9.186 11.055 2.608.205-1.743-3.884-.865 3.68Zm-1.76 30.986-2.16 3.576 4.785-3.839-2.624.263Zm1.76-3.941 2.608-.205 1.298-4.195-3.906 4.4ZM43.417 5.804l2.85 2.757-.077-2.346-2.773-.41Zm13.345 18.072 2.596.14-1.298-4.195-1.298 4.055Zm-3.07-8.201 1.76 3.941.865-3.678-2.624-.263Zm-7.426 42.041 2.749-.371 2.516-3.167-5.265 3.538Z" fill="#B0B0B0"/><path d="m48.805 11.774-5.388-5.97-6.44-4.003 11.828 9.973Z" fill="#C4C4C4"/><path d="m46.266 57.717-2.849 2.756 5.598-3.128-2.749.372ZM56.762 42.4l2.596-.14.81-4.457-3.406 4.597Zm-1.31 4.26-1.76 3.942 4.368-4.146-2.608.204Zm2.127-18.259 2.589.072-.81-4.457-1.779 4.385Zm-8.774-16.628 2.726.325-2.516-3.166-.21 2.841Zm8.774 26.102 2.589-.072.278-4.665-2.867 4.736Zm.282-4.737h2.585l-.278-4.665-2.307 4.665Zm-2.409-13.522 1.31 4.26 1.298-4.056-2.608-.204Zm1.31 22.784-1.31 4.26 3.907-4.4-2.597.14ZM46.266 8.561l2.54 3.213.209-2.841-2.749-.372Zm2.54 45.942 2.725-.325 2.162-3.575-4.888 3.9Zm7.956-30.627.817 4.526 1.78-4.385-2.597-.14Zm.817 14-.817 4.525 3.406-4.597-2.589.072Zm-8.774 16.627-2.539 3.214 5.265-3.538-2.726.324Zm2.182-39.099 2.706.271L51.53 12.1l-.544 3.305Zm6.592 12.998.282 4.737 2.307-4.665-2.589-.072Zm.282 4.737-.282 4.736 2.867-4.736h-2.585Z" fill="#B0B0B0"/><path d="m43.417 60.473 2.849-2.756 2.54-3.214-5.39 5.97Zm5.388-48.699-2.539-3.213-2.85-2.757 5.39 5.97Zm6.105 16.554-6.105-16.554-11.828-9.973L54.91 28.328Z" fill="#C4C4C4"/><path d="m50.989 50.873 2.706-.27 1.76-3.942-4.466 4.212Zm-2.181-39.099 2.181 3.63.544-3.305-2.725-.325Zm3.957 7.632 2.69.21-1.76-3.941-.93 3.73Zm-1.776 31.467-2.181 3.63 4.887-3.9-2.706.27Z" fill="#B0B0B0"/><path d="m43.417 60.473 5.388-5.97 3.957-7.631-9.345 13.601Z" fill="#C4C4C4"/><path d="m52.762 46.872 2.69-.21 1.31-4.26-4 4.47Zm1.323-23.14 2.677.144-1.31-4.26-1.367 4.116Zm-3.099-8.328 1.776 4.002.93-3.73-2.706-.272Zm3.099 27.142 2.677-.145.817-4.525-3.494 4.67Zm-1.323 4.326-1.776 4.002 4.466-4.213-2.69.21Zm2.148-18.544 2.669.074-.817-4.526-1.852 4.452Z" fill="#B0B0B0"/><path d="m43.417 60.473 9.345-13.602 2.148-18.543-11.493 32.145Z" fill="#C4C4C4"/><path d="m54.91 37.95 2.67-.075.28-4.736-2.95 4.81Zm.284-4.811h2.667l-.281-4.737-2.386 4.737Z" fill="#B0B0B0"/><path d="m48.808 54.503 2.181-3.63 1.776-4.002-3.957 7.632Zm3.957-35.097-1.776-4.002-2.181-3.63 3.957 7.632Z" fill="#C4C4C4"/><path d="m52.763 19.406 1.323 4.326 1.366-4.115-2.69-.21Zm1.323 23.14-1.323 4.326 4-4.47-2.677.144Zm0-18.814.824 4.596 1.853-4.452-2.677-.144Z" fill="#B0B0B0"/><path d="m54.912 28.328-2.147-8.922-3.957-7.632 6.104 16.554Z" fill="#C4C4C4"/><path d="m54.912 37.95-.825 4.596 3.494-4.67-2.67.074Zm0-9.622.283 4.81 2.386-4.736-2.67-.074Zm.283 4.81-.283 4.812 2.95-4.811h-2.667Z" fill="#B0B0B0"/><path d="m52.763 46.872 1.323-4.326.824-4.596-2.147 8.922Zm2.147-18.544-.824-4.596-1.323-4.326 2.147 8.922Zm-2.147 18.544 2.147-8.922v-9.622l-2.147 18.544Zm2.147-8.922.284-4.811-.284-4.81v9.62Z" fill="#C4C4C4"/><path d="M54.953 33.256c0 18.186-12.115 32.755-26.866 32.755-14.75 0-26.865-14.57-26.865-32.755C1.222 15.07 13.337.5 28.087.5c14.751 0 26.866 14.57 26.866 32.756Z" fill="url(#a)" stroke="url(#b)"/><g filter="url(#c)"><path d="m20.616 27.242 4.242.055.135-.608-4.377.553Zm.136-.614 4.24.061.16-.556-4.4.495Zm.159-.561 4.24.066.181-.504-4.421.438Zm.182-.509 4.24.071.204-.452-4.444.381Zm.204-.456 4.24.075.227-.399-4.467.324Zm.228-.403 4.239.08.25-.348-4.489.268Z" fill="#E5E5E5"/><path d="m18.098 43.031-.606.771v3.737l.605-4.508Zm-.272-18.516-.099.495-.08.513.179-1.008Zm.252-.935-.252.935-.18 1.008.432-1.943Z" fill="#fff"/><path d="m21.776 24.349 4.239.082.273-.295-4.512.213Z" fill="#E5E5E5"/><path d="m18.078 23.58-.135.459-.117.476.252-.935Zm.594 18.715-.575.736-.605 4.508 1.18-5.244Z" fill="#fff"/><path d="m22.05 24.051 4.238.085.297-.242-4.534.157Z" fill="#E5E5E5"/><path d="m18.798 21.928-.72 1.652-.431 1.943 1.151-3.595Z" fill="#fff"/><path d="m22.112 43.266 4.238-.094.172-.183-4.41.277Z" fill="#E5E5E5"/><path d="m18.402 22.718-.17.422-.154.44.324-.862Z" fill="#fff"/><path d="m22.284 43.082 4.237-.093.164-.175-4.4.268Z" fill="#E5E5E5"/><path d="m18.799 21.928-.397.79-.324.862.72-1.652Z" fill="#fff"/><path d="m22.348 23.807 4.236.087.32-.19-4.556.103Zm.101 19.098 4.236-.09.157-.168-4.393.258Z" fill="#E5E5E5"/><path d="m18.797 21.928-.207.386-.19.404.397-.79Z" fill="#fff"/><path d="m22.606 42.736 4.236-.09.148-.159-4.384.25Zm-1.854-16.108-.136.614 4.377-.553-4.241-.06Zm1.917-3.013 4.235.089.343-.138-4.578.049Zm.085 18.96 4.236-.088.14-.152-4.376.24Zm-1.843-16.508-.159.561 4.4-.495-4.241-.066Zm1.984 16.355 4.235-.087.131-.144-4.366.23Z" fill="#E5E5E5"/><path d="m19.266 21.21-.244.35-.225.367.469-.717Z" fill="#fff"/><path d="m21.093 25.558-.182.509 4.422-.438-4.24-.07Zm1.934 16.719 4.235-.086.123-.136-4.358.222Zm-.014-18.8 4.235.09.366-.085-4.6-.006Z" fill="#E5E5E5"/><path d="m21.08 19.518-2.282 2.41-1.151 3.595 3.433-6.005Z" fill="#fff"/><path d="m23.15 42.139 4.235-.084.115-.129-4.35.213Zm-1.852-17.037-.205.456 4.444-.38-4.24-.076Z" fill="#E5E5E5"/><path d="m19.808 20.564-.542.646-.47.717 1.012-1.363Z" fill="#fff"/><path d="m23.266 42.009 4.234-.083.107-.12-4.341.203Zm.107-.122 4.234-.082.098-.113-4.332.195Z" fill="#E5E5E5"/><path d="m18.672 42.295-1.18 5.244 4.62-4.273-3.44-.971Z" fill="#fff"/><path d="m21.525 24.7-.228.402 4.466-.324-4.238-.079Zm1.947 17.073 4.233-.08.09-.106-4.323.186ZM23.38 23.39l4.233.091.39-.032-4.623-.059Z" fill="#E5E5E5"/><path d="m19.809 20.564-.28.314-.262.332.542-.646Z" fill="#fff"/><path d="m23.564 41.666 4.233-.08.082-.097-4.316.177Z" fill="#E5E5E5"/><path d="m17.646 25.523 2.97 1.72.137-.615-3.107-1.105Z" fill="#fff"/><path d="m23.645 41.568 4.233-.08.158-.19-4.391.27Zm-1.87-17.22-.25.351 4.489-.268-4.239-.082Z" fill="#E5E5E5"/><path d="m17.646 25.523 3.107 1.105.158-.561-3.265-.544Z" fill="#fff"/><path d="m23.771 23.357 4.233.092.22.004-4.453-.096Zm.033 18.018 4.233-.077.16-.198-4.393.275Z" fill="#E5E5E5"/><path d="m17.646 25.523 3.265.544.182-.509-3.447-.035Zm3.434-6.005-1.27 1.046-1.012 1.363 2.282-2.409Z" fill="#fff"/><path d="m22.05 24.051-.274.298 4.512-.213-4.237-.085Z" fill="#E5E5E5"/><path d="m17.646 25.523 3.447.035.205-.456-3.651.42Z" fill="#fff"/><path d="m23.964 41.175 4.232-.075.163-.204-4.395.28Z" fill="#E5E5E5"/><path d="m20.422 19.991-.312.274-.3.3.612-.574Zm-2.776 5.532 3.652-.42.228-.404-3.88.824Z" fill="#fff"/><path d="m24.129 40.968 4.231-.073.166-.211-4.397.285Zm-1.844 2.113-.173.185 4.41-.277-4.237.092Zm.063-19.275-.297.245 4.534-.157-4.237-.087Z" fill="#E5E5E5"/><path d="m17.646 25.523 3.88-.824.25-.35-4.13 1.174Z" fill="#fff"/><path d="m24.294 40.755 4.232-.07.168-.22-4.4.29Zm-1.845 2.15-.165.177 4.401-.268-4.236.091Z" fill="#E5E5E5"/><path d="m21.08 19.518-.658.473-.612.573 1.27-1.046Zm-3.433 6.005 4.13-1.174.274-.298-4.404 1.472Zm1.568 16.07-.543.702 4.974-.727-4.43.026Z" fill="#fff"/><path d="m24.464 40.535 4.23-.07.172-.225-4.402.295Zm-1.858 2.201-.157.17 4.393-.26-4.236.09Zm.062-19.121-.32.192 4.556-.103-4.236-.09Z" fill="#E5E5E5"/><path d="m17.646 25.523 4.405-1.472.297-.244-4.701 1.716Z" fill="#fff"/><path d="m24.635 40.307 4.23-.067.174-.232-4.404.3Zm-1.881 2.268-.149.161 4.384-.249-4.235.088Z" fill="#E5E5E5"/><path d="m21.08 19.518-.336.224-.323.25.658-.474Z" fill="#fff"/><path d="m22.894 42.422-.14.153 4.375-.24-4.235.087Zm1.916-2.349 4.23-.065.176-.239-4.406.304Z" fill="#E5E5E5"/><path d="m17.646 25.523 4.702-1.716.321-.192-5.023 1.908Z" fill="#fff"/><path d="m23.012 23.476-.344.139 4.579-.049-4.235-.09Zm2.117-4.805 4.228.136-.464-.035-3.764-.1Zm-2.103 23.605-.132.146 4.367-.23-4.235.084Zm1.96-2.444 4.23-.063.18-.246-4.41.309Z" fill="#E5E5E5"/><path d="m17.646 25.523 5.023-1.908.344-.139-5.367 2.047Z" fill="#fff"/><path d="m23.15 42.139-.124.138 4.358-.222-4.234.084Z" fill="#E5E5E5"/><path d="m18.67 42.295 3.441.97.643-.69-4.083-.28Z" fill="#fff"/><path d="m25.168 39.584 4.228-.06.182-.254-4.41.313Zm-1.902 2.425-.116.13 4.35-.213-4.234.083Zm.114-18.619-.367.086 4.6.005-4.233-.091Zm-.007 18.497-.107.122 4.34-.204-4.233.082Zm1.977-2.559 4.228-.058.185-.26-4.413.318Zm.228-20.59 4.227.136-.447-.067-3.78-.069Z" fill="#E5E5E5"/><path d="m21.784 19.145-.358.174-.347.2.705-.374Z" fill="#fff"/><path d="m23.472 41.773-.099.114 4.332-.195-4.233.08Zm.091-.107-.09.107 4.323-.186-4.233.08Zm1.972-2.6 4.228-.055.187-.267-4.415.322Zm-1.89 2.502-.082.098 4.315-.177-4.232.079Zm.126-18.21-.391.032 4.624.06-4.233-.093Z" fill="#E5E5E5"/><path d="m18.67 42.295 4.084.28.891-1.007-4.974.727Z" fill="#fff"/><path d="m23.804 41.375-.159.193 4.391-.27-4.232.077Zm1.92-2.578 4.226-.053.219-.297-4.446.35Z" fill="#E5E5E5"/><path d="m22.535 18.873-.751.272-.705.373 1.456-.645Z" fill="#fff"/><path d="m26.008 18.837 4.226.134-.429-.097-3.797-.037Zm-2.043 22.338-.16.2 4.392-.275-4.232.075Zm.027-17.814-.22-.004 4.452.096-4.232-.092Zm1.95 15.136 4.227-.05.213-.3-4.44.35Zm-1.813 2.472-.164.206 4.395-.28-4.231.074Z" fill="#E5E5E5"/><path d="m27.55 19.545-6.47-.027-3.433 6.005 9.904-5.978Zm-5.014-.672-.382.124-.37.148.752-.272Z" fill="#fff"/><path d="m26.157 38.195 4.226-.047.208-.3-4.434.347Zm-1.862 2.56-.166.214 4.397-.285-4.23.071Zm2.126-21.789 4.225.134-.412-.129-3.813-.005Z" fill="#E5E5E5"/><path d="m22.112 43.266.173-.184.165-.177-.338.36Z" fill="#fff"/><path d="m26.365 37.892 4.225-.045.204-.302-4.43.346Zm-1.902 2.643-.17.22 4.4-.29-4.23.07Z" fill="#E5E5E5"/><path d="m22.112 43.266.338-.361.305-.33-.643.69Z" fill="#fff"/><path d="m24.637 40.307-.172.228 4.402-.294-4.23.066Z" fill="#E5E5E5"/><path d="m24.18 18.631-1.645.242-1.456.645 3.1-.887Z" fill="#fff"/><path d="m26.57 37.587 4.225-.042.2-.303-4.425.345Z" fill="#E5E5E5"/><path d="m22.45 42.905.156-.169.148-.16-.305.329Z" fill="#fff"/><path d="m26.815 19.128 4.224.132-.393-.16-3.83.028Z" fill="#E5E5E5"/><path d="m19.727 40.928-.512.666 9.999-9.192-9.487 8.526Zm7.824-21.383-9.904 5.978 5.366-2.047 4.538-3.931Z" fill="#fff"/><path d="m24.81 40.073-.174.234 4.404-.299-4.23.065Zm1.96-2.792 4.224-.039.195-.304-4.419.343Zm-2.107-18.645.466.035 3.764.1-4.23-.136Z" fill="#E5E5E5"/><path d="m22.754 42.575.14-.153.132-.145-.272.298Z" fill="#fff"/><path d="m24.987 39.832-.177.241 4.406-.304-4.23.063Z" fill="#E5E5E5"/><path d="m23.334 18.701-.405.074-.394.098.799-.172Z" fill="#fff"/><path d="m26.966 36.974 4.223-.036.19-.306-4.413.342Z" fill="#E5E5E5"/><path d="m22.754 42.575.272-.298.24-.268-.512.566Z" fill="#fff"/><path d="m27.191 19.32 4.223.13-.375-.19-3.848.06Z" fill="#E5E5E5"/><path d="m20.207 40.297-.48.63 9.487-8.525-9.007 7.895Z" fill="#fff"/><path d="m25.167 39.584-.18.248 4.409-.309-4.229.06Z" fill="#E5E5E5"/><path d="m23.026 42.277.124-.138.116-.13-.24.268Z" fill="#fff"/><path d="m27.157 36.665 4.223-.033.185-.307-4.408.34Zm-5.045 6.6 9.22.147-4.983-.24-4.237.094Z" fill="#E5E5E5"/><path d="m22.754 42.575.511-.566.38-.441-.891 1.007Z" fill="#fff"/><path d="m25.129 18.671.448.067 3.78.069-4.228-.136Zm.22 20.657-.182.255 4.41-.313-4.227.058Z" fill="#E5E5E5"/><path d="m24.18 18.631-.846.07-.799.172 1.645-.242Z" fill="#fff"/><path d="m27.342 36.355 4.222-.03.18-.309-4.402.339Z" fill="#E5E5E5"/><path d="m20.655 39.702-.449.595 9.007-7.895-8.558 7.3Zm2.61 2.307.108-.122.099-.114-.207.236Z" fill="#fff"/><path d="m27.55 19.545 4.221.128-.357-.222-3.864.094Z" fill="#E5E5E5"/><path d="m23.266 42.009.206-.236.173-.205-.38.44Z" fill="#fff"/><path d="m25.536 39.066-.185.262 4.413-.317-4.228.055Zm1.988-3.022 4.221-.027.176-.31-4.397.337Z" fill="#E5E5E5"/><path d="m23.473 41.773.09-.107.083-.098-.173.205Zm-5.98 5.766 13.838-4.127-9.219-.146-4.62 4.273Zm3.579-8.397-.417.56 8.559-7.3-8.142 6.74Z" fill="#fff"/><path d="m25.724 38.797-.188.27 4.415-.323-4.227.053Zm1.976-3.066 4.221-.025.171-.31-4.392.335Zm-2.122-16.993.43.099 3.798.037-4.228-.136Zm2.313 1.063 4.22.126-.338-.254-3.882.128Z" fill="#E5E5E5"/><path d="m24.18 18.631-.429.023-.417.047.846-.07Zm-.534 22.937.158-.193.161-.2-.32.393Z" fill="#fff"/><path d="m25.942 38.497-.218.3 4.445-.35-4.227.05Zm1.929-3.08 4.22-.021.167-.313-4.387.334Z" fill="#E5E5E5"/><path d="m21.457 38.62-.385.523 8.142-6.74-7.757 6.216Zm2.189 2.948.32-.393.33-.42-.65.813Zm-4.431.026 4.431-.026 5.568-9.166-10 9.192Z" fill="#fff"/><path d="m28.038 35.101 4.22-.018.157-.304-4.377.322Zm.175-15.012 4.22.123-.322-.285-3.898.162Zm-2.056 18.106-.215.302 4.44-.35-4.226.048Z" fill="#E5E5E5"/><path d="m23.964 41.175.164-.206.166-.214-.33.42Z" fill="#fff"/><path d="m26.007 18.837.412.13 3.814.004-4.226-.134Z" fill="#E5E5E5"/><path d="m21.809 38.132-.353.487 7.757-6.217-7.404 5.73Z" fill="#fff"/><path d="m28.195 34.795 4.22-.016.154-.312-4.374.328Zm3.136 8.616 4.21-.097-9.192-.143 4.982.24Z" fill="#E5E5E5"/><path d="m27.55 19.545-3.37-.914-3.1.887 6.47.027Z" fill="#fff"/><path d="m26.365 37.892-.21.303 4.435-.348-4.225.045Z" fill="#E5E5E5"/><path d="m23.645 41.568.65-.813.692-.923-1.341 1.736Z" fill="#fff"/><path d="m28.35 34.48 4.22-.013.151-.321-4.37.333Zm.167-14.072 4.22.12-.304-.316-3.916.196Z" fill="#E5E5E5"/><path d="m22.13 37.68-.32.452 7.404-5.73-7.084 5.278Zm2.165 3.075.17-.22.171-.228-.34.448Z" fill="#fff"/><path d="m26.57 37.587-.205.305 4.43-.347-4.225.042Zm1.93-3.432 4.22-.01.148-.33-4.367.34Zm-2.08-15.189.395.162 3.83-.028-4.225-.134Z" fill="#E5E5E5"/><path d="m22.42 37.266-.29.414 7.084-5.278-6.795 4.864Z" fill="#fff"/><path d="m28.65 33.822 4.218-.006.145-.339-4.364.345Z" fill="#E5E5E5"/><path d="m24.294 40.755.34-.448.352-.475-.692.923Z" fill="#fff"/><path d="m28.803 20.759 4.218.117-.285-.348-3.933.23Z" fill="#E5E5E5"/><path d="m27.55 19.545-4.537 3.931.367-.086 4.17-3.845Zm-2.42-.874-.467-.035-.483-.005.95.04Z" fill="#fff"/><path d="m26.77 37.28-.2.307 4.424-.345-4.224.039Z" fill="#E5E5E5"/><path d="m22.674 36.887-.256.379 6.795-4.864-6.539 4.485Z" fill="#fff"/><path d="m28.796 33.48 4.218-.003.142-.347-4.36.35Z" fill="#E5E5E5"/><path d="m24.636 40.307.174-.234.177-.241-.351.475Z" fill="#fff"/><path d="m26.966 36.974-.196.307 4.42-.343-4.224.036Z" fill="#E5E5E5"/><path d="m27.55 19.545-4.17 3.845.391-.032 3.779-3.813Z" fill="#fff"/><path d="m29.067 21.125 4.218.114-.265-.363-3.953.25Zm-.13 12.005h4.219l.138-.356-4.356.356Zm-2.122-14.002.377.192 3.847-.06-4.224-.132Zm2.262 13.642 4.217.004.136-.365-4.353.361Z" fill="#E5E5E5"/><path d="m23.294 35.933-.62.954 6.539-4.485-5.919 3.531Zm.351 5.635 1.342-1.736 1.583-2.245-2.925 3.98Z" fill="#fff"/><path d="m27.156 36.665-.19.309 4.413-.342-4.223.033Z" fill="#E5E5E5"/><path d="m27.55 19.545-3.779 3.812.221.004 3.558-3.816Zm-1.542-.708-.878-.166-.95-.04 1.828.206Z" fill="#fff"/><path d="m29.309 21.506 4.216.11-.241-.377-3.975.267Z" fill="#E5E5E5"/><path d="m24.987 39.832.18-.248.183-.255-.363.503Z" fill="#fff"/><path d="m29.213 32.402 4.217.008.133-.374-4.35.366Z" fill="#E5E5E5"/><path d="m27.55 19.545-3.558 3.816.212.017 3.346-3.833Z" fill="#fff"/><path d="m27.342 36.355-.186.31 4.408-.34-4.222.03Zm-.15-17.034.358.224 3.864-.094-4.222-.13Zm2.155 12.704 4.216.011.13-.382-4.346.371Z" fill="#E5E5E5"/><path d="m24.987 39.832.363-.504.373-.53-.736 1.034Z" fill="#fff"/><path d="m29.527 21.901 4.216.106-.218-.39-3.998.284Z" fill="#E5E5E5"/><path d="m27.55 19.545-3.347 3.833.204.031 3.142-3.864Z" fill="#fff"/><path d="m27.523 36.044-.181.311 4.403-.339-4.222.028Zm1.954-4.404 4.216.014.126-.39-4.342.376Z" fill="#E5E5E5"/><path d="m23.862 35.003-.567.93 5.919-3.53-5.352 2.6Zm3.689-15.458-3.143 3.864.195.045 2.947-3.91Zm-2.2 19.783.185-.262.188-.269-.374.531Zm.657-20.492-.43-.098-.448-.067.878.166Z" fill="#fff"/><path d="m29.604 31.245 4.216.019.124-.4-4.34.381Zm.121-8.935 4.215.102-.195-.405-4.02.303ZM27.7 35.73l-.177.314 4.398-.337-4.221.024Zm-.15-16.185.34.256 3.882-.128-4.221-.128Z" fill="#E5E5E5"/><path d="m27.55 19.545-2.948 3.91.186.058 2.761-3.968Z" fill="#fff"/><path d="m29.727 30.842 4.216.022.117-.415-4.333.393Z" fill="#E5E5E5"/><path d="m24.987 39.832.737-1.035.846-1.21-1.583 2.245Z" fill="#fff"/><path d="m29.898 22.732 4.215.099-.173-.419-4.042.32Z" fill="#E5E5E5"/><path d="m27.55 19.545-2.76 3.968.177.073 2.583-4.041Z" fill="#fff"/><path d="m27.872 35.417-.172.314 4.393-.336-4.221.022Zm1.974-4.994 4.215.026.107-.412-4.322.386Z" fill="#E5E5E5"/><path d="m24.377 34.097-.515.906 5.352-2.6-4.837 1.694Zm3.174-14.552-2.584 4.04.169.087 2.415-4.127Z" fill="#fff"/><path d="m29.952 30.008 4.215.03.096-.408-4.31.378Z" fill="#E5E5E5"/><path d="m27.55 19.545-1.542-.708-1.828-.206 3.37.914Z" fill="#fff"/><path d="m30.049 23.168 4.214.095-.15-.433-4.064.338Z" fill="#E5E5E5"/><path d="m25.724 38.797.218-.3.215-.302-.433.602Z" fill="#fff"/><path d="m28.037 35.101-.167.316 4.387-.334-4.22.018Zm-.147-15.3.322.288 3.898-.162-4.22-.126Z" fill="#E5E5E5"/><path d="m27.55 19.545-2.414 4.127.16.1 2.255-4.227Z" fill="#fff"/><path d="m30.05 29.596 4.215.034.087-.404-4.301.37Zm.126-5.978 4.214.09-.127-.445-4.087.355Zm-.038 5.57 4.214.038.076-.4-4.29.362Z" fill="#E5E5E5"/><path d="m27.55 19.545-2.255 4.228.151.114 2.103-4.342Z" fill="#fff"/><path d="m28.195 34.795-.158.306 4.377-.322-4.22.016Z" fill="#E5E5E5"/><path d="m24.837 33.215-.461.882 4.837-1.695-4.376.813Zm.886 5.582.433-.602.414-.608-.847 1.21Z" fill="#fff"/><path d="m30.214 28.785 4.214.041.066-.395-4.28.354Zm.066-4.703 4.213.086-.104-.46-4.11.374Z" fill="#E5E5E5"/><path d="m27.55 19.545-2.103 4.342.143.128 1.96-4.47Z" fill="#fff"/><path d="m30.28 28.385 4.213.045.056-.391-4.27.346Zm.08-3.826 4.213.082-.08-.473-4.134.391Zm-2.011 9.92-.155.316 4.374-.328-4.22.012Zm1.987-6.49 4.213.05.046-.388-4.26.339Zm-2.124-7.9.304.319 3.916-.196-4.22-.123Z" fill="#E5E5E5"/><path d="m27.55 19.545-1.96 4.47.134.142 1.826-4.612Z" fill="#fff"/><path d="m30.383 27.598 4.213.053.036-.384-4.25.331Zm.035-2.547 4.214.076-.058-.486-4.156.41Zm0 2.16 4.214.056.025-.38-4.238.324Zm.035-1.656 4.213.072-.034-.5-4.179.428Z" fill="#E5E5E5"/><path d="m26.155 38.195.21-.303.204-.305-.414.608Z" fill="#fff"/><path d="m30.443 26.828 4.213.06.016-.376-4.229.316Z" fill="#E5E5E5"/><path d="m27.55 19.545-1.826 4.612.125.156 1.7-4.768Z" fill="#fff"/><path d="m30.465 26.073 4.213.067-.011-.513-4.202.446Zm-.005.375 4.213.064.005-.372-4.218.308Z" fill="#E5E5E5"/><path d="m26.814 19.128-.395-.162-.412-.13.807.292Z" fill="#fff"/><path d="m28.502 34.155-.151.324 4.37-.334-4.219.01Z" fill="#E5E5E5"/><path d="m25.244 32.358-.407.858 4.376-.814-3.97-.044Zm2.306-12.813-1.7 4.768.116.169 1.584-4.937Zm-3.905 22.023 2.925-3.98 2.643-5.186-5.568 9.166Zm3.905-22.023-1.584 4.937.106.18 1.478-5.117Z" fill="#fff"/><path d="m28.65 33.822-.149.333 4.367-.34-4.219.007Zm-.134-13.414.286.35 3.933-.23-4.219-.12Z" fill="#E5E5E5"/><path d="m27.55 19.545-1.479 5.116.096.19 1.382-5.306Zm0 0-1.383 5.307.086.201 1.296-5.508Zm-1.954 11.98-.353.833 3.97.044-3.617-.876Zm1.953-11.98-1.296 5.508.076.213 1.22-5.721Z" fill="#fff"/><path d="m28.795 33.48-.146.342 4.364-.345-4.218.003Z" fill="#E5E5E5"/><path d="m17.492 47.539 13.84.313v-4.44l-13.84 4.127ZM27.55 19.545l-1.22 5.721.066.224 1.154-5.945Zm-.98 18.042.2-.306.196-.307-.395.613Zm.98-18.042-.735-.417-.807-.291 1.543.708Zm0 0-1.154 5.945.055.235 1.1-6.18Zm0 0-1.099 6.18.046.245 1.053-6.425Zm-1 8.198-.081.705 1.081-8.903-1 8.198Z" fill="#fff"/><path d="m28.938 33.13-.142.35 4.36-.35h-4.218Zm-.135-12.371.265.366 3.953-.25-4.218-.116Z" fill="#E5E5E5"/><path d="m26.497 25.97.035.257 1.019-6.682-1.054 6.425Zm.035.257.026.268.993-6.95-1.019 6.682Zm.046.837-.027.679 1-8.198-.973 7.518Zm-.02-.569.015.279.978-7.229-.993 6.95Zm.015.279.005.29.973-7.519-.978 7.229Zm-.676 3.944-.3.808 3.617.876-3.317-1.684Zm.674 6.87.395-.614.376-.619-.771 1.232Z" fill="#fff"/><path d="m29.078 32.77-.14.36 4.357-.356-4.217-.004Z" fill="#E5E5E5"/><path d="m26.14 29.936-.245.782 3.317 1.684-3.072-2.466Z" fill="#fff"/><path d="m29.066 21.125.242.381 3.976-.267-4.218-.114Zm.147 11.277-.137.368 4.353-.36-4.216-.008Z" fill="#E5E5E5"/><path d="m26.965 36.974.19-.31.186-.31-.376.62Zm.584-17.43-.358-.224-.377-.192.735.417Zm-1.218 9.635-.19.757 3.071 2.466-2.88-3.223Z" fill="#fff"/><path d="m31.33 47.852 4.211-.139v-4.399l-4.21 4.538Zm-1.984-15.827-.133.377 4.35-.366-4.217-.01Z" fill="#E5E5E5"/><path d="m26.57 37.587.772-1.232.696-1.254-1.468 2.486Zm-.102-9.14-.136.732 2.881 3.223-2.745-3.954Z" fill="#fff"/><path d="m29.309 21.506.219.395 3.997-.285-4.216-.11Zm.167 10.134-.13.385 4.346-.37-4.216-.015Z" fill="#E5E5E5"/><path d="m27.342 36.355.18-.311.177-.313-.357.624Z" fill="#fff"/><path d="m29.605 31.245-.128.395 4.343-.377-4.215-.018Zm-.076-9.344.196.408 4.02-.302-4.216-.106Zm.2 8.941-.124.403 4.34-.38-4.216-.023Z" fill="#E5E5E5"/><path d="m27.342 36.355.358-.624.338-.63-.696 1.254Zm-.873-7.907 2.745 3.954-1.663-12.857-1.082 8.903Z" fill="#fff"/><path d="m29.725 22.31.173.422 4.042-.32-4.215-.103Zm.12 8.113-.117.42 4.332-.394-4.214-.026Z" fill="#E5E5E5"/><path d="m27.7 35.73.172-.313.166-.316-.338.63Z" fill="#fff"/><path d="m29.952 30.008-.107.415 4.322-.386-4.215-.03Z" fill="#E5E5E5"/><path d="m28.212 20.089-.322-.288-.34-.256.662.544Z" fill="#fff"/><path d="m29.898 22.732.15.436 4.065-.337-4.215-.1Z" fill="#E5E5E5"/><path d="m26.57 37.587 1.467-2.486 1.176-2.699-2.643 5.185Z" fill="#fff"/><path d="m30.05 29.596-.098.412 4.311-.378-4.214-.034Zm-.003-6.428.127.45 4.088-.355-4.215-.095Zm.09 6.02-.088.408 4.301-.37-4.214-.037Zm.076-.403-.077.404 4.29-.363-4.213-.041Zm-.039-5.167.105.464 4.11-.373-4.215-.09Z" fill="#E5E5E5"/><path d="m28.802 20.759-.59-.67-.662-.544 1.252 1.214ZM28.037 35.1l.158-.306.154-.316-.312.622Z" fill="#fff"/><path d="m30.28 28.385-.066.4 4.28-.354-4.214-.046Zm0-4.303.08.477 4.133-.391-4.214-.086Zm.057 3.908-.057.395 4.27-.346-4.213-.05Zm.046-.391-.046.39 4.259-.338-4.213-.052Zm-.023-3.04.058.491 4.156-.41-4.213-.08Z" fill="#E5E5E5"/><path d="m28.037 35.101.312-.622.3-.657-.612 1.28Z" fill="#fff"/><path d="m30.419 27.211-.036.387 4.249-.33-4.213-.057Zm0-2.16.034.504 4.179-.428-4.214-.076Zm.025 1.777-.025.383 4.238-.323-4.213-.06Zm.016-.38-.016.38 4.229-.316-4.213-.064Zm-.007-.893.012.518 4.201-.446-4.213-.072Zm.012.518-.005.375 4.218-.308-4.213-.067Z" fill="#E5E5E5"/><path d="m28.35 34.48.15-.325.15-.333-.3.657Zm.452-13.721-.286-.351-.304-.32.59.67ZM28.037 35.1l.612-1.279.564-1.42-1.176 2.7Zm1.687-12.791-.922-1.551-1.252-1.214 2.174 2.765ZM28.65 33.822l.146-.342.142-.35-.288.692Zm0 0 .288-.692.276-.728-.564 1.42Zm.66-12.316-.242-.38-.265-.367.507.747Zm-.372 11.624.14-.36.136-.368-.276.728Zm.276-.728 1.251-6.329-2.914-6.528 1.663 12.857Zm1.251-6.329-.74-3.763-2.174-2.765 2.914 6.528Zm-.74-3.763-.415-.804-.507-.747.922 1.55Z" fill="#fff"/><path d="M31.332 43.411v4.441l4.21-4.537-4.21.096Z" fill="#E5E5E5"/><path d="m29.213 32.402.133-.377.13-.385-.263.762Zm0 0 .263-.762.252-.798-.515 1.56Zm.511-10.093-.196-.408-.22-.395.416.803Zm-.248 9.33.128-.394.124-.403-.252.798Zm-.263.763.515-1.56.409-1.654-.924 3.214Zm.515-1.56.117-.42.108-.415-.225.835Zm.32-7.674-.15-.436-.174-.422.324.858Zm-.835 9.234.924-3.214.327-3.115-1.251 6.33Zm.515-1.56.224-.835.185-.819-.41 1.654Zm.551-6.76-.231-.914-.324-.858.555 1.772Zm-.326 5.925.097-.411.087-.408-.184.82Zm.511-3.934-.185-1.991-.555-1.773.74 3.764Zm-.185-1.991-.104-.464-.127-.45.231.914Zm-.142 5.106.076-.403.067-.4-.143.803Zm0 0 .143-.803.102-.787-.245 1.59Zm0 0 .245-1.59.082-1.525-.327 3.115Zm.143-.803.056-.395.046-.392-.102.787Zm.138-3.335-.058-.49-.081-.478.139.968Zm.046 1.023-.046-1.023-.139-.968.185 1.991Zm-.082 1.525.036-.387.026-.383-.062.77Zm0 0 .062-.77.02-.755-.082 1.525Zm.082-1.525-.011-.518-.035-.505.046 1.023Zm-.02.755.015-.38.005-.375-.02.755Z" fill="#fff"/></g><path d="M31.29 47.872v-4.416l-9.17-.19c.53-.454 3.031-3.335 4.243-5.324 1.091-1.38 2.313-4.125 2.787-5.325.398-1.245 1.209-4.018 1.27-5.155.075-1.421.037-2.501-.209-3.676-.038-.834-1.08-2.976-2.388-4.056-.995-.822-2.495-1.092-3.215-1.132l-.103-.005.103.005c1.224.052 3.71.16 4.654.204.97.045 1.97.486 2.35.7.46.285 1.576 1.263 2.35 2.9.773 1.638.814 3.538.739 4.283-.05.764-.319 2.828-.986 4.965-.667 2.138-1.832 4.251-2.33 5.04-.43.69-1.585 2.43-2.767 3.886-1.153 1.41-1.983 2.293-2.255 2.558l9.191.17v4.416l-4.264.152Z" fill="url(#d)"/><path d="M31.29 47.872v-4.416l-9.17-.19c.53-.454 3.031-3.335 4.243-5.324 1.091-1.38 2.313-4.125 2.787-5.325.398-1.245 1.209-4.018 1.27-5.155.075-1.421.037-2.501-.209-3.676-.038-.834-1.08-2.976-2.388-4.056-.995-.822-2.495-1.092-3.215-1.132l-.103-.005.103.005c1.224.052 3.71.16 4.654.204.97.045 1.97.486 2.35.7.46.285 1.576 1.263 2.35 2.9.773 1.638.814 3.538.739 4.283-.05.764-.319 2.828-.986 4.965-.667 2.138-1.832 4.251-2.33 5.04-.43.69-1.585 2.43-2.767 3.886-1.153 1.41-1.983 2.293-2.255 2.558l9.191.17v4.416l-4.264.152Z" fill="url(#e)"/><path d="m24.854 27.299-4.235-.058c.076-.446.364-1.344.5-1.738.161-.362.571-1.158.919-1.448.376-.282.716-.615 1.708-.694.793-.064 1.508.36 1.766.579.135.144.416.459.456.557-.68.854-.96 2.109-1.114 2.802Z" fill="url(#f)"/><path d="M30.858.235 29.523.024c.45.061.894.131 1.335.211l11.198 1.77c1.88.474 6.522 2.214 10.036 5.384 3.515 3.17 6.174 7.437 7.064 9.175l1.938 4.307c1.02 3.26 2.8 11.027 1.766 16.023-.62 5.03-2.498 9.993-3.36 11.845-1.076 2.598-4.66 8.683-10.38 12.232-3.015 2.541-9.39 4.049-14.73 4.609.66-.172 2.119-.586 2.67-.861.69-.345 19.795-8.675 18.097-34.44C53.831 14.252 44.691 2.734 30.857.235Z" fill="url(#g)"/><defs><linearGradient id="a" x1="28.087" y1="0" x2="40.345" y2="67.93" gradientUnits="userSpaceOnUse"><stop stop-color="#DEE5F8"/><stop offset="1" stop-color="#BDBEE3"/></linearGradient><linearGradient id="b" x1="38.414" y1="53.368" x2="-4.78" y2="2.099" gradientUnits="userSpaceOnUse"><stop stop-color="#fff" stop-opacity=".7"/><stop offset="1" stop-color="#A0A3CF"/></linearGradient><linearGradient id="d" x1="28.837" y1="18.593" x2="28.837" y2="47.872" gradientUnits="userSpaceOnUse"><stop stop-color="#E5E5E5"/><stop offset="1" stop-color="#E5E5E5" stop-opacity="0"/></linearGradient><linearGradient id="e" x1="66.696" y1="42.67" x2="28.837" y2="36.155" gradientUnits="userSpaceOnUse"><stop stop-color="#EFE6F6"/><stop offset="1" stop-color="#EEECF1"/></linearGradient><linearGradient id="f" x1="23.294" y1="23.354" x2="23.294" y2="27.299" gradientUnits="userSpaceOnUse"><stop stop-color="#E5E5E5"/><stop offset="1" stop-color="#E5E5E5" stop-opacity="0"/></linearGradient><linearGradient id="g" x1="79.892" y1="27.416" x2="13.024" y2="39.292" gradientUnits="userSpaceOnUse"><stop stop-color="#BDBEE3"/><stop offset="1" stop-color="#DEE5F8"/></linearGradient><filter id="c" x="12.492" y="10.631" width="38.05" height="49.221" filterUnits="userSpaceOnUse" color-interpolation-filters="sRGB"><feFlood flood-opacity="0" result="BackgroundImageFix"/><feColorMatrix in="SourceAlpha" values="0 0 0 0 0 0 0 0 0 0 0 0 0 0 0 0 0 0 127 0" result="hardAlpha"/><feOffset dx="5" dy="2"/><feGaussianBlur stdDeviation="5"/><feColorMatrix values="0 0 0 0 0.321569 0 0 0 0 0.156863 0 0 0 0 0.423529 0 0 0 0.3 0"/><feBlend in2="BackgroundImageFix" result="effect1_dropShadow_1115_101810"/><feBlend in="SourceGraphic" in2="effect1_dropShadow_1115_101810" result="shape"/></filter></defs></svg>