<svg width="64" height="67" fill="none" xmlns="http://www.w3.org/2000/svg"><path d="m.885 28.918-.218 4.22.218 4.222v-8.442Zm1.669-7.94-1.669 7.94v8.442l1.669-16.382ZM.885 37.36l.637 4.062 1.032 3.877-1.669-7.94Zm1.669-16.382-1.032 3.877-.637 4.063 1.669-7.94ZM.885 37.36l1.669 7.94 3.156 7.085L.885 37.36Zm1.669 7.94 1.403 3.664 1.753 3.42L2.554 45.3ZM5.71 13.892l-1.753 3.42-1.403 3.665 3.156-7.085Zm4.478-5.973L2.554 20.978.885 37.36l9.303-29.44Zm0 0L5.71 13.893l-3.156 7.085L10.188 7.92ZM.885 37.36 5.71 52.385l10.122 10.524L.885 37.36Zm9.303-29.44-2.394 2.83-2.084 3.143 4.478-5.973ZM5.71 52.385l2.084 3.143 2.394 2.829-4.478-5.972ZM10.188 7.92.885 37.36l14.947 25.55-5.644-54.99ZM5.71 52.385l4.478 5.972 5.644 4.552L5.71 52.385Zm4.478 5.972 2.686 2.475 2.958 2.077-5.644-4.552Zm5.644-54.99-2.958 2.079-2.686 2.474 5.644-4.552Z" fill="#C4C4C4"/><path d="m35.536 65.32 2.723-.455 3.543-.593-6.266 1.048Z" fill="#B0B0B0"/><path d="m22.483.594-6.65 2.774-5.645 4.553L22.483.594Z" fill="#C4C4C4"/><path d="m39.108 1.555 2.694.45-3.543-.593.849.143ZM35.536.957l3.572.598-.85-.143-2.722-.455Zm3.572 63.765-3.572.599 6.266-1.049-2.694.45Zm0 0 2.694-.45 3.415-1.146-6.11 1.596Z" fill="#B0B0B0"/><path d="m15.831 62.91 3.21 1.633 3.441 1.14-6.65-2.773ZM22.482.594l-3.441 1.14-3.21 1.634L22.482.594Z" fill="#C4C4C4"/><path d="m42.552 2.714 2.666.438-3.415-1.147.749.71Zm-3.443-1.159 3.443 1.16-.749-.71-2.694-.45Zm-6.374 64.234 2.802-.468 3.572-.599-6.374 1.067Zm9.817-2.226-3.443 1.16 6.11-1.597-2.667.437Zm0 0 2.666-.437 3.245-1.674-5.911 2.111ZM36.335 1.091l2.774.464-3.572-.598.798.134Z" fill="#B0B0B0"/><path d="m15.831 62.91 6.651 2.774 7.368.587-14.019-3.362Z" fill="#C4C4C4"/><path d="m45.824 4.41 2.64.416-3.246-1.674.606 1.258ZM32.735.489l3.6.602-.798-.134-2.802-.468Z" fill="#B0B0B0"/><path d="M36.978 1.8 22.483.595 10.188 7.921l26.79-6.12Z" fill="#C4C4C4"/><path d="m42.552 2.714 3.272 1.696-.606-1.258-2.666-.438Zm-6.217 62.472-3.6.603 6.374-1.067-2.774.464Zm0 0 2.774-.464 3.443-1.159-6.217 1.623Zm9.49-3.319 2.638-.415 3.033-2.175-5.672 2.59Zm0 0-3.273 1.696 5.911-2.111-2.639.416Zm-6.02-59.603 2.746.45-3.443-1.16.697.71Zm9.077 4.35L51.496 7l-3.033-2.174.42 1.787Z" fill="#B0B0B0"/><path d="m22.48 65.684 3.651.593 3.717-.006-7.367-.587ZM29.849.006 26.131 0l-3.65.594 7.367-.588Z" fill="#C4C4C4"/><path d="m36.335 1.092 3.471 1.172-.698-.709-2.773-.463Zm9.489 3.318 3.059 2.203-.42-1.787-2.639-.416Z" fill="#B0B0B0"/><path d="m10.188 7.92 5.644 54.989 39.079-34.581L10.188 7.92Z" fill="#C4C4C4"/><path d="m29.849 66.27 2.884-.481 3.6-.603-6.484 1.085Zm19.032-6.606 2.613-.387 2.775-2.642-5.388 3.03Zm-9.077 4.35-3.471 1.172 6.216-1.623-2.745.45Zm9.077-4.35-3.059 2.203 5.672-2.59-2.613.387Zm-9.077 4.35 2.745-.451 3.273-1.696-6.018 2.146ZM33.477.613l2.856.477-3.6-.603.744.126Zm18.203 8.68 2.589.35L51.494 7l.186 2.293ZM43.104 3.98l2.718.429-3.273-1.696.555 1.267ZM29.85.006l3.628.608-.744-.126L29.85.006Zm19.03 6.607 2.8 2.68L51.493 7l-2.613-.387Z" fill="#B0B0B0"/><path d="m15.831 62.91 14.019 3.36 13.567-5.798L15.83 62.91ZM36.977 1.8 29.85.008l-7.368.587L36.977 1.8Z" fill="#C4C4C4"/><path d="m39.804 2.264 3.3 1.718-.555-1.267-2.745-.45Zm11.876 54.72 2.589-.35 2.471-3.076-5.06 3.427Zm-18.203 8.68-3.628.607 6.484-1.085-2.856.477Zm18.203-8.68-2.8 2.68 5.389-3.03-2.589.35Zm-18.203 8.68 2.856-.478 3.471-1.173-6.327 1.65Zm9.627-3.368 2.718-.428 3.059-2.204-5.777 2.632Zm0 0-3.3 1.717 6.018-2.145-2.718.428Zm11.07-49.882 2.566.306-2.471-3.077-.095 2.771ZM36.976 1.801l2.828.463-3.471-1.172.643.709Zm9.213 4.414 2.692.398-3.059-2.203.367 1.805Zm5.491 3.078 2.494 3.121.095-2.771-2.589-.35Zm2.494 44.57 2.566-.305 2.123-3.473-4.689 3.779ZM33.477.614l3.5 1.187-.644-.71-2.856-.477Zm9.627 3.368 3.085 2.233-.367-1.805-2.718-.428Zm11.07 49.882-2.494 3.12 5.06-3.426-2.566.306Zm2.142-37.926 2.547.255-2.123-3.473-.424 3.218Z" fill="#B0B0B0"/><path d="m29.849 66.27 3.628-.607 3.5-1.186-7.128 1.794ZM36.976 1.8l-3.5-1.186L29.85.006l7.127 1.795Z" fill="#C4C4C4"/><path d="m46.19 60.063 2.692-.399 2.8-2.68-5.491 3.078Zm-9.212 4.414-3.5 1.186 6.328-1.65-2.828.464Zm9.213-4.415-3.085 2.234 5.776-2.632-2.691.398Zm-9.213 4.415 2.828-.464 3.3-1.717-6.128 2.18Z" fill="#B0B0B0"/><path d="M54.91 28.328 36.98 1.8 10.19 7.92l44.72 20.408Z" fill="#C4C4C4"/><path d="m56.317 50.34 2.547-.255 1.727-3.827-4.274 4.082Zm-2.142-37.926 2.142 3.524.425-3.218-2.567-.306Zm-5.16-3.481 2.666.36-2.8-2.68.134 2.32ZM58.06 19.82l2.53.198-1.726-3.826-.804 3.628ZM40.305 3.54l2.8.44-3.3-1.717.5 1.276Zm16.012 46.8-2.142 3.523 4.689-3.778-2.547.255Zm1.743-3.883 2.53-.199 1.287-4.133-3.817 4.332ZM46.19 6.215l2.825 2.718-.133-2.32-2.692-.398ZM36.978 1.8l3.327 1.74-.5-1.277-2.828-.463Zm22.38 22.216 2.52.136-1.287-4.134-1.233 3.998Zm-3.04-8.08 1.742 3.884.804-3.628-2.547-.255Zm-7.303 41.408 2.666-.36 2.494-3.122-5.16 3.482Zm0 0-2.825 2.718 5.491-3.079-2.666.361Z" fill="#B0B0B0"/><path d="m29.849 66.27 7.127-1.793 6.44-4.004-13.567 5.798Z" fill="#C4C4C4"/><path d="m59.358 42.26 2.52-.135.8-4.391-3.32 4.527Zm-1.298 4.197-1.743 3.883 4.274-4.082-2.53.199Zm2.108-17.983 2.51.07-.8-4.391-1.71 4.32ZM40.305 62.737l2.8-.441 3.085-2.233-5.885 2.674Zm0 0-3.328 1.74 6.128-2.181-2.8.441ZM51.531 12.1l2.644.315-2.494-3.121-.15 2.806Zm8.637 25.704 2.51-.07.277-4.594-2.787 4.664Zm.278-4.664h2.509l-.276-4.595-2.233 4.595ZM58.06 19.82l1.298 4.195 1.233-3.997-2.53-.198Z" fill="#B0B0B0"/><path d="m15.831 62.91 27.586-2.437L54.91 28.328 15.83 62.909Z" fill="#C4C4C4"/><path d="m43.416 5.804 2.774.41-3.085-2.233.311 1.823Zm15.942 36.457-1.298 4.196 3.816-4.332-2.518.136ZM49.014 8.932 51.53 12.1l.15-2.806-2.667-.36Zm2.517 45.246 2.644-.315 2.142-3.523-4.786 3.838Zm7.827-30.162.81 4.458 1.708-4.321-2.518-.137Zm.81 13.787-.81 4.458 3.32-4.527-2.51.07ZM40.304 3.54l3.111 2.264-.311-1.823-2.8-.44ZM51.53 54.178l-2.517 3.167 5.16-3.482-2.643.315Zm2.161-38.503 2.625.263-2.142-3.524-.483 3.26Zm6.475 12.799.279 4.665 2.232-4.595-2.51-.07Zm.279 4.665-.279 4.664 2.787-4.664h-2.508Zm-17.03 27.334 2.774-.41 2.824-2.718-5.598 3.128Zm0 0-3.111 2.264 5.885-2.675-2.774.411Z" fill="#B0B0B0"/><path d="m36.977 64.477 3.328-1.74 3.112-2.264-6.44 4.004Zm6.44-58.673L40.305 3.54 36.977 1.8l6.44 4.004Z" fill="#C4C4C4"/><path d="m53.693 50.602 2.624-.263 1.743-3.883-4.367 4.146ZM51.53 12.1l2.162 3.576.482-3.261-2.644-.315Zm-5.264-3.54 2.749.371-2.825-2.717.076 2.346Zm9.186 11.055 2.608.205-1.743-3.884-.865 3.68Zm-1.76 30.986-2.16 3.576 4.785-3.839-2.624.263Zm1.76-3.941 2.608-.205 1.298-4.195-3.906 4.4ZM43.417 5.804l2.85 2.757-.077-2.346-2.773-.41Zm13.345 18.072 2.596.14-1.298-4.195-1.298 4.055Zm-3.07-8.201 1.76 3.941.865-3.678-2.624-.263Zm-7.426 42.041 2.749-.371 2.516-3.167-5.265 3.538Z" fill="#B0B0B0"/><path d="m48.805 11.774-5.388-5.97-6.44-4.003 11.828 9.973Z" fill="#C4C4C4"/><path d="m46.266 57.717-2.849 2.756 5.598-3.128-2.749.372ZM56.762 42.4l2.596-.14.81-4.457-3.406 4.597Zm-1.31 4.26-1.76 3.942 4.368-4.146-2.608.204Zm2.127-18.259 2.589.072-.81-4.457-1.779 4.385Zm-8.774-16.628 2.726.325-2.516-3.166-.21 2.841Zm8.774 26.102 2.589-.072.278-4.665-2.867 4.736Zm.282-4.737h2.585l-.278-4.665-2.307 4.665Zm-2.409-13.522 1.31 4.26 1.298-4.056-2.608-.204Zm1.31 22.784-1.31 4.26 3.907-4.4-2.597.14ZM46.266 8.561l2.54 3.213.209-2.841-2.749-.372Zm2.54 45.942 2.725-.325 2.162-3.575-4.888 3.9Zm7.956-30.627.817 4.526 1.78-4.385-2.597-.14Zm.817 14-.817 4.525 3.406-4.597-2.589.072Zm-8.774 16.627-2.539 3.214 5.265-3.538-2.726.324Zm2.182-39.099 2.706.271L51.53 12.1l-.544 3.305Zm6.592 12.998.282 4.737 2.307-4.665-2.589-.072Zm.282 4.737-.282 4.736 2.867-4.736h-2.585Z" fill="#B0B0B0"/><path d="m43.417 60.473 2.849-2.756 2.54-3.214-5.39 5.97Zm5.388-48.699-2.539-3.213-2.85-2.757 5.39 5.97Zm6.105 16.554-6.105-16.554-11.828-9.973L54.91 28.328Z" fill="#C4C4C4"/><path d="m50.989 50.873 2.706-.27 1.76-3.942-4.466 4.212Zm-2.181-39.099 2.181 3.63.544-3.305-2.725-.325Zm3.957 7.632 2.69.21-1.76-3.941-.93 3.73Zm-1.776 31.467-2.181 3.63 4.887-3.9-2.706.27Z" fill="#B0B0B0"/><path d="m43.417 60.473 5.388-5.97 3.957-7.631-9.345 13.601Z" fill="#C4C4C4"/><path d="m52.762 46.872 2.69-.21 1.31-4.26-4 4.47Zm1.323-23.14 2.677.144-1.31-4.26-1.367 4.116Zm-3.099-8.328 1.776 4.002.93-3.73-2.706-.272Zm3.099 27.142 2.677-.145.817-4.526-3.494 4.671Zm-1.323 4.326-1.776 4.002 4.466-4.213-2.69.21Zm2.148-18.544 2.669.074-.817-4.526-1.852 4.452Z" fill="#B0B0B0"/><path d="m43.417 60.473 9.345-13.602 2.148-18.543-11.493 32.145Z" fill="#C4C4C4"/><path d="m54.91 37.95 2.67-.075.28-4.736-2.95 4.81Zm.284-4.811h2.667l-.281-4.737-2.386 4.737Z" fill="#B0B0B0"/><path d="m48.808 54.503 2.181-3.63 1.776-4.002-3.957 7.632Zm3.957-35.097-1.776-4.002-2.181-3.63 3.957 7.632Z" fill="#C4C4C4"/><path d="m52.763 19.406 1.323 4.326 1.366-4.115-2.69-.21Zm1.323 23.14-1.323 4.326 4-4.47-2.677.144Zm0-18.814.824 4.596 1.853-4.452-2.677-.144Z" fill="#B0B0B0"/><path d="m54.912 28.328-2.147-8.922-3.957-7.632 6.104 16.554Z" fill="#C4C4C4"/><path d="m54.912 37.95-.825 4.596 3.494-4.67-2.67.074Zm0-9.622.283 4.81 2.386-4.736-2.67-.074Zm.283 4.81-.283 4.812 2.95-4.811h-2.667Z" fill="#B0B0B0"/><path d="m52.763 46.872 1.323-4.326.824-4.596-2.147 8.922Zm2.147-18.544-.824-4.596-1.323-4.326 2.147 8.922Zm-2.147 18.544 2.147-8.922v-9.622l-2.147 18.544Zm2.147-8.922.284-4.811-.284-4.81v9.62Z" fill="#C4C4C4"/><path d="M54.953 33.256c0 18.186-12.115 32.755-26.866 32.755-14.75 0-26.865-14.57-26.865-32.755C1.222 15.07 13.337.5 28.087.5c14.751 0 26.866 14.57 26.866 32.756Z" fill="url(#a)" stroke="url(#b)"/><g filter="url(#c)"><path d="M17.649 38.815c0-2.681.466-5.217 1.399-7.607.933-2.42 2.142-4.46 3.629-6.12 1.486-1.691 3.09-3.09 4.809-4.198 1.748-1.108 3.483-1.88 5.202-2.317l2.055 3.803c-2.623.787-4.955 2.143-6.995 4.066-2.011 1.924-3.396 4.3-4.153 7.127 1.37-1.895 3.468-2.842 6.295-2.842.433 0 .854.029 1.263.086 1.85.26 3.454 1.105 4.814 2.537 1.662 1.749 2.492 3.993 2.492 6.733 0 3.06-.99 5.508-2.973 7.345-1.982 1.807-4.284 2.71-6.907 2.71-.653 0-1.28-.042-1.88-.126-2.459-.345-4.484-1.396-6.077-3.153-1.982-2.186-2.973-4.867-2.973-8.044Zm5.334.044c0 1.807.495 3.308 1.486 4.503.797.937 1.848 1.497 3.153 1.681.318.045.652.068 1 .068 1.341 0 2.42-.452 3.236-1.356.845-.933 1.268-2.04 1.268-3.323 0-1.457-.438-2.652-1.312-3.585-.67-.761-1.567-1.221-2.693-1.38a6.71 6.71 0 0 0-.936-.062c-1.253 0-2.317.335-3.191 1.005a6.78 6.78 0 0 0-2.011 2.449Z" fill="url(#d)"/><path d="M15.956 30.773c-.933 2.39-1.4 4.926-1.4 7.607l3.093.435c0-2.681.466-5.217 1.399-7.607l-3.092-.435Z" fill="url(#e)"/><path d="M19.585 24.652c-1.487 1.662-2.697 3.702-3.63 6.121l3.093.435c.933-2.42 2.142-4.46 3.629-6.12l-3.092-.436Z" fill="url(#f)"/><path d="M14.557 38.38c0 3.177.99 5.858 2.972 8.044l3.093.435c-1.982-2.186-2.973-4.867-2.973-8.044l-3.092-.434Z" fill="url(#g)"/><path d="M24.393 20.456c-1.72 1.107-3.322 2.506-4.808 4.196l3.092.435c1.486-1.69 3.09-3.09 4.809-4.197l-3.093-.434Z" fill="url(#h)"/><path d="M19.89 38.424a6.782 6.782 0 0 1 2.011-2.448l3.093.434a6.78 6.78 0 0 0-2.011 2.449l-3.093-.435Z" fill="url(#i)"/><path d="M21.377 42.927c-.991-1.195-1.487-2.696-1.487-4.503l3.093.435c0 1.807.495 3.308 1.486 4.503l-3.092-.435Z" fill="url(#j)"/><path d="M20.502 33.134c.758-2.827 2.143-5.203 4.154-7.126l3.092.434c-2.011 1.924-3.396 4.3-4.153 7.127l-3.093-.435Z" fill="url(#k)"/><path d="M17.53 46.425c1.592 1.756 3.618 2.807 6.077 3.152l3.086.434c-2.456-.346-4.48-1.397-6.071-3.152l-3.093-.434Z" fill="url(#l)"/><path d="M26.798 30.292c-2.827 0-4.926.948-6.296 2.842l3.093.435c1.37-1.895 3.468-2.842 6.295-2.842l-3.092-.435Z" fill="url(#m)"/><path d="M21.901 35.976c.875-.67 1.939-1.006 3.192-1.006l3.092.435c-1.253 0-2.317.335-3.191 1.005l-3.093-.434Z" fill="url(#n)"/><path d="M24.53 44.609c-1.306-.184-2.357-.745-3.153-1.682l3.092.435c.797.937 1.848 1.497 3.153 1.681l-3.093-.434Z" fill="url(#o)"/><path d="M29.596 18.138c-1.72.438-3.454 1.21-5.203 2.318l3.093.434c1.748-1.108 3.483-1.88 5.202-2.317l-3.092-.435Z" fill="url(#p)"/><path d="M25.093 34.97c.328 0 .64.021.936.063l3.09.434a6.72 6.72 0 0 0-.934-.062l-3.092-.435Z" fill="url(#q)"/><path d="M25.53 44.676c-.348 0-.68-.023-.997-.067l3.089.434c.318.045.652.068 1 .068l-3.092-.435Z" fill="url(#r)"/><path d="M24.656 26.008c2.04-1.924 4.372-3.28 6.995-4.066l3.092.434c-2.623.787-4.955 2.143-6.995 4.066l-3.092-.434Z" fill="url(#s)"/><path d="M23.607 49.577c.6.084 1.227.127 1.88.127l3.092.434c-.653 0-1.28-.042-1.88-.126l-3.092-.435Z" fill="url(#t)"/><path d="M28.06 30.378a9.092 9.092 0 0 0-1.262-.086l3.092.435c.433 0 .854.029 1.263.086l-3.092-.435Z" fill="url(#u)"/><path d="M26.029 35.033c1.126.158 2.023.618 2.693 1.38l3.092.434c-.67-.761-1.567-1.221-2.693-1.38l-3.092-.434Z" fill="url(#v)"/><path d="M28.765 43.32c-.816.904-1.894 1.356-3.235 1.356l3.092.434c1.341 0 2.42-.451 3.236-1.355l-3.093-.434Z" fill="url(#w)"/><path d="m31.651 21.942-2.055-3.804 3.092.435 2.055 3.803-3.092-.434Z" fill="url(#x)"/><path d="M28.722 36.413c.874.933 1.311 2.128 1.311 3.585l3.093.434c0-1.457-.438-2.652-1.312-3.585l-3.092-.434Z" fill="url(#y)"/><path d="M32.875 32.916c-1.36-1.431-2.963-2.277-4.81-2.537l3.088.434c1.85.26 3.454 1.105 4.814 2.537l-3.092-.434Z" fill="url(#z)"/><path d="M30.033 39.998c0 1.283-.422 2.39-1.268 3.323l3.093.434c.845-.933 1.268-2.04 1.268-3.323l-3.093-.434Z" fill="url(#A)"/><path d="M25.486 49.704c2.623 0 4.926-.904 6.908-2.71l3.092.434c-1.982 1.807-4.284 2.71-6.907 2.71l-3.093-.434Z" fill="url(#B)"/><path d="M35.367 39.648c0-2.74-.83-4.984-2.492-6.732l3.092.434c1.662 1.749 2.492 3.993 2.492 6.733l-3.092-.435Z" fill="url(#C)"/><path d="M32.394 46.993c1.982-1.836 2.973-4.285 2.973-7.345l3.092.435c0 3.06-.99 5.508-2.973 7.345l-3.092-.435Z" fill="url(#D)"/><path d="M14.557 38.38c0-2.681.466-5.217 1.399-7.607.932-2.42 2.142-4.46 3.628-6.12 1.487-1.691 3.09-3.09 4.81-4.198 1.748-1.107 3.482-1.88 5.202-2.317l2.055 3.804c-2.623.787-4.955 2.142-6.995 4.066-2.011 1.923-3.396 4.299-4.154 7.126 1.37-1.895 3.469-2.842 6.296-2.842 2.39 0 4.416.874 6.077 2.623 1.661 1.749 2.492 3.993 2.492 6.733 0 3.06-.991 5.509-2.973 7.345-1.982 1.807-4.284 2.71-6.908 2.71-3.322 0-5.974-1.093-7.957-3.279-1.981-2.185-2.972-4.867-2.972-8.044Zm5.333.044c0 1.807.496 3.308 1.487 4.503.99 1.166 2.375 1.749 4.153 1.749 1.34 0 2.42-.452 3.235-1.356.846-.932 1.268-2.04 1.268-3.322 0-1.457-.437-2.652-1.311-3.585-.846-.962-2.055-1.443-3.629-1.443-1.253 0-2.317.335-3.192 1.006a6.782 6.782 0 0 0-2.01 2.448Z" fill="#fff"/></g><path d="M30.858.235 29.523.024c.45.061.894.131 1.335.211l11.198 1.77c1.88.474 6.522 2.214 10.036 5.384 3.515 3.17 6.174 7.437 7.064 9.175l1.938 4.307c1.02 3.26 2.8 11.027 1.766 16.023-.62 5.03-2.498 9.993-3.36 11.845-1.076 2.598-4.66 8.683-10.38 12.232-3.015 2.541-9.39 4.049-14.73 4.609.66-.172 2.119-.586 2.67-.861.69-.345 19.795-8.675 18.097-34.44C53.831 14.252 44.691 2.734 30.857.235Z" fill="url(#E)"/><defs><linearGradient id="a" x1="28.087" y1="0" x2="40.345" y2="67.93" gradientUnits="userSpaceOnUse"><stop stop-color="#DEE5F8"/><stop offset="1" stop-color="#BDBEE3"/></linearGradient><linearGradient id="b" x1="38.414" y1="53.368" x2="-4.78" y2="2.099" gradientUnits="userSpaceOnUse"><stop stop-color="#fff" stop-opacity=".7"/><stop offset="1" stop-color="#A0A3CF"/></linearGradient><linearGradient id="d" x1="26.508" y1="18.138" x2="26.508" y2="50.138" gradientUnits="userSpaceOnUse"><stop stop-color="#EEEBF1"/><stop offset="1" stop-color="#EEECF1"/></linearGradient><linearGradient id="e" x1="26.508" y1="18.138" x2="26.508" y2="50.138" gradientUnits="userSpaceOnUse"><stop stop-color="#EEEBF1"/><stop offset="1" stop-color="#EEECF1"/></linearGradient><linearGradient id="f" x1="26.508" y1="18.138" x2="26.508" y2="50.138" gradientUnits="userSpaceOnUse"><stop stop-color="#EEEBF1"/><stop offset="1" stop-color="#EEECF1"/></linearGradient><linearGradient id="g" x1="26.508" y1="18.138" x2="26.508" y2="50.138" gradientUnits="userSpaceOnUse"><stop stop-color="#EEEBF1"/><stop offset="1" stop-color="#EEECF1"/></linearGradient><linearGradient id="h" x1="26.508" y1="18.138" x2="26.508" y2="50.138" gradientUnits="userSpaceOnUse"><stop stop-color="#EEEBF1"/><stop offset="1" stop-color="#EEECF1"/></linearGradient><linearGradient id="i" x1="26.508" y1="18.138" x2="26.508" y2="50.138" gradientUnits="userSpaceOnUse"><stop stop-color="#EEEBF1"/><stop offset="1" stop-color="#EEECF1"/></linearGradient><linearGradient id="j" x1="26.508" y1="18.138" x2="26.508" y2="50.138" gradientUnits="userSpaceOnUse"><stop stop-color="#EEEBF1"/><stop offset="1" stop-color="#EEECF1"/></linearGradient><linearGradient id="k" x1="26.508" y1="18.138" x2="26.508" y2="50.138" gradientUnits="userSpaceOnUse"><stop stop-color="#EEEBF1"/><stop offset="1" stop-color="#EEECF1"/></linearGradient><linearGradient id="l" x1="26.508" y1="18.138" x2="26.508" y2="50.138" gradientUnits="userSpaceOnUse"><stop stop-color="#EEEBF1"/><stop offset="1" stop-color="#EEECF1"/></linearGradient><linearGradient id="m" x1="26.508" y1="18.138" x2="26.508" y2="50.138" gradientUnits="userSpaceOnUse"><stop stop-color="#EEEBF1"/><stop offset="1" stop-color="#EEECF1"/></linearGradient><linearGradient id="n" x1="26.508" y1="18.138" x2="26.508" y2="50.138" gradientUnits="userSpaceOnUse"><stop stop-color="#EEEBF1"/><stop offset="1" stop-color="#EEECF1"/></linearGradient><linearGradient id="o" x1="26.508" y1="18.138" x2="26.508" y2="50.138" gradientUnits="userSpaceOnUse"><stop stop-color="#EEEBF1"/><stop offset="1" stop-color="#EEECF1"/></linearGradient><linearGradient id="p" x1="26.508" y1="18.138" x2="26.508" y2="50.138" gradientUnits="userSpaceOnUse"><stop stop-color="#EEEBF1"/><stop offset="1" stop-color="#EEECF1"/></linearGradient><linearGradient id="q" x1="26.508" y1="18.138" x2="26.508" y2="50.138" gradientUnits="userSpaceOnUse"><stop stop-color="#EEEBF1"/><stop offset="1" stop-color="#EEECF1"/></linearGradient><linearGradient id="r" x1="26.508" y1="18.138" x2="26.508" y2="50.138" gradientUnits="userSpaceOnUse"><stop stop-color="#EEEBF1"/><stop offset="1" stop-color="#EEECF1"/></linearGradient><linearGradient id="s" x1="26.508" y1="18.138" x2="26.508" y2="50.138" gradientUnits="userSpaceOnUse"><stop stop-color="#EEEBF1"/><stop offset="1" stop-color="#EEECF1"/></linearGradient><linearGradient id="t" x1="26.508" y1="18.138" x2="26.508" y2="50.138" gradientUnits="userSpaceOnUse"><stop stop-color="#EEEBF1"/><stop offset="1" stop-color="#EEECF1"/></linearGradient><linearGradient id="u" x1="26.508" y1="18.138" x2="26.508" y2="50.138" gradientUnits="userSpaceOnUse"><stop stop-color="#EEEBF1"/><stop offset="1" stop-color="#EEECF1"/></linearGradient><linearGradient id="v" x1="26.508" y1="18.138" x2="26.508" y2="50.138" gradientUnits="userSpaceOnUse"><stop stop-color="#EEEBF1"/><stop offset="1" stop-color="#EEECF1"/></linearGradient><linearGradient id="w" x1="26.508" y1="18.138" x2="26.508" y2="50.138" gradientUnits="userSpaceOnUse"><stop stop-color="#EEEBF1"/><stop offset="1" stop-color="#EEECF1"/></linearGradient><linearGradient id="x" x1="26.508" y1="18.138" x2="26.508" y2="50.138" gradientUnits="userSpaceOnUse"><stop stop-color="#EEEBF1"/><stop offset="1" stop-color="#EEECF1"/></linearGradient><linearGradient id="y" x1="26.508" y1="18.138" x2="26.508" y2="50.138" gradientUnits="userSpaceOnUse"><stop stop-color="#EEEBF1"/><stop offset="1" stop-color="#EEECF1"/></linearGradient><linearGradient id="z" x1="26.508" y1="18.138" x2="26.508" y2="50.138" gradientUnits="userSpaceOnUse"><stop stop-color="#EEEBF1"/><stop offset="1" stop-color="#EEECF1"/></linearGradient><linearGradient id="A" x1="26.508" y1="18.138" x2="26.508" y2="50.138" gradientUnits="userSpaceOnUse"><stop stop-color="#EEEBF1"/><stop offset="1" stop-color="#EEECF1"/></linearGradient><linearGradient id="B" x1="26.508" y1="18.138" x2="26.508" y2="50.138" gradientUnits="userSpaceOnUse"><stop stop-color="#EEEBF1"/><stop offset="1" stop-color="#EEECF1"/></linearGradient><linearGradient id="C" x1="26.508" y1="18.138" x2="26.508" y2="50.138" gradientUnits="userSpaceOnUse"><stop stop-color="#EEEBF1"/><stop offset="1" stop-color="#EEECF1"/></linearGradient><linearGradient id="D" x1="26.508" y1="18.138" x2="26.508" y2="50.138" gradientUnits="userSpaceOnUse"><stop stop-color="#EEEBF1"/><stop offset="1" stop-color="#EEECF1"/></linearGradient><linearGradient id="E" x1="79.892" y1="27.416" x2="13.024" y2="39.292" gradientUnits="userSpaceOnUse"><stop stop-color="#BDBEE3"/><stop offset="1" stop-color="#DEE5F8"/></linearGradient><filter id="c" x="9.557" y="10.138" width="43.902" height="52" filterUnits="userSpaceOnUse" color-interpolation-filters="sRGB"><feFlood flood-opacity="0" result="BackgroundImageFix"/><feColorMatrix in="SourceAlpha" values="0 0 0 0 0 0 0 0 0 0 0 0 0 0 0 0 0 0 127 0" result="hardAlpha"/><feOffset dx="5" dy="2"/><feGaussianBlur stdDeviation="5"/><feComposite in2="hardAlpha" operator="out"/><feColorMatrix values="0 0 0 0 0.321569 0 0 0 0 0.156863 0 0 0 0 0.423529 0 0 0 0.25 0"/><feBlend in2="BackgroundImageFix" result="effect1_dropShadow_1115_102456"/><feBlend in="SourceGraphic" in2="effect1_dropShadow_1115_102456" result="shape"/></filter></defs></svg>