<svg width="63" height="67" fill="none" xmlns="http://www.w3.org/2000/svg"><path d="m.551 28.918-.218 4.22.218 4.222v-8.442Zm1.669-7.94-1.67 7.94v8.442l1.67-16.382ZM.55 37.36l.637 4.062 1.032 3.877L.55 37.36Zm1.67-16.382-1.032 3.877-.637 4.063 1.669-7.94ZM.55 37.36l1.67 7.94 3.156 7.085L.551 37.36Zm1.67 7.94 1.403 3.664 1.753 3.42L2.22 45.3Zm3.156-31.407-1.753 3.42-1.403 3.665 3.156-7.085ZM9.855 7.92 2.22 20.978.55 37.36 9.855 7.92Zm0 0-4.479 5.973-3.156 7.085L9.855 7.92ZM.55 37.36l4.825 15.025 10.122 10.524L.551 37.36ZM9.855 7.92 7.46 10.75l-2.084 3.143L9.855 7.92ZM5.376 52.385l2.084 3.143 2.395 2.829-4.479-5.972ZM9.855 7.92.55 37.36l14.947 25.55L9.855 7.92ZM5.376 52.385l4.479 5.972 5.643 4.552L5.376 52.385Zm4.479 5.972 2.685 2.475 2.958 2.077-5.643-4.552Zm5.643-54.99-2.958 2.08L9.855 7.92l5.643-4.552Z" fill="#C4C4C4"/><path d="m35.202 65.32 2.723-.455 3.543-.593-6.266 1.048Z" fill="#B0B0B0"/><path d="m22.15.594-6.652 2.774-5.644 4.553L22.15.594Z" fill="#C4C4C4"/><path d="m38.774 1.555 2.694.45-3.543-.593.849.143ZM35.202.957l3.572.598-.85-.143-2.722-.455Zm3.572 63.765-3.572.599 6.266-1.049-2.694.45Zm0 0 2.694-.45 3.415-1.146-6.11 1.596Z" fill="#B0B0B0"/><path d="m15.497 62.91 3.21 1.633 3.441 1.14-6.65-2.773ZM22.148.594l-3.441 1.14-3.21 1.634L22.148.594Z" fill="#C4C4C4"/><path d="m42.218 2.714 2.666.438-3.415-1.147.749.71Zm-3.443-1.159 3.443 1.16-.749-.71-2.694-.45ZM32.4 65.789l2.802-.468 3.572-.599L32.4 65.79Zm9.817-2.226-3.443 1.16 6.11-1.597-2.667.437Zm0 0 2.666-.437 3.245-1.674-5.911 2.111ZM36 1.091l2.774.464-3.572-.598.798.134Z" fill="#B0B0B0"/><path d="m15.497 62.91 6.651 2.774 7.368.587-14.019-3.362Z" fill="#C4C4C4"/><path d="m45.49 4.41 2.64.416-3.246-1.674.606 1.258ZM32.401.489l3.6.602-.798-.134-2.802-.468Z" fill="#B0B0B0"/><path d="M36.645 1.8 22.149.595 9.854 7.921l26.79-6.12Z" fill="#C4C4C4"/><path d="M42.218 2.714 45.49 4.41l-.606-1.258-2.666-.438ZM36 65.186l-3.6.603 6.374-1.067-2.774.464Zm0 0 2.774-.464 3.443-1.159L36 65.186Zm9.49-3.319 2.638-.415 3.033-2.175-5.672 2.59Zm0 0-3.273 1.696 5.911-2.111-2.639.416ZM39.471 2.264l2.746.45-3.443-1.16.697.71Zm9.077 4.35L51.162 7l-3.033-2.174.42 1.787Z" fill="#B0B0B0"/><path d="m22.146 65.684 3.651.593 3.717-.006-7.367-.587ZM29.514.006 25.797 0l-3.65.594 7.367-.588Z" fill="#C4C4C4"/><path d="m36.001 1.092 3.471 1.172-.698-.709-2.773-.463ZM45.49 4.41l3.059 2.203-.42-1.787-2.639-.416Z" fill="#B0B0B0"/><path d="m9.854 7.92 5.644 54.989 39.079-34.581L9.854 7.92Z" fill="#C4C4C4"/><path d="m29.515 66.27 2.884-.481 3.6-.603-6.484 1.085Zm19.032-6.606 2.613-.386 2.775-2.643-5.388 3.03Zm-9.077 4.35L36 65.185l6.216-1.623-2.745.45Zm9.077-4.35-3.059 2.204 5.672-2.59-2.613.386Zm-9.077 4.35 2.745-.451 3.273-1.695-6.018 2.145ZM33.143.613l2.856.477-3.6-.602.744.125Zm18.203 8.679 2.589.35L51.16 7l.186 2.293ZM42.77 3.981l2.718.429-3.273-1.696.555 1.267ZM29.515.006l3.628.608-.744-.125-2.884-.483Zm19.032 6.607 2.8 2.68L51.16 7l-2.613-.387Z" fill="#B0B0B0"/><path d="m15.497 62.91 14.019 3.361 13.567-5.798-27.586 2.437ZM36.644 1.8 29.516.008l-7.368.587L36.644 1.8Z" fill="#C4C4C4"/><path d="m39.47 2.264 3.3 1.718-.555-1.267-2.745-.45Zm11.876 54.72 2.589-.35 2.471-3.076-5.06 3.427Zm-18.203 8.68-3.628.607 6.484-1.085-2.856.477Zm18.203-8.68-2.8 2.68 5.389-3.03-2.589.35Zm-18.203 8.68 2.856-.478 3.471-1.173-6.327 1.65Zm9.627-3.368 2.718-.428 3.059-2.204-5.777 2.632Zm0 0-3.3 1.717 6.018-2.145-2.718.428Zm11.07-49.882 2.566.306-2.471-3.077-.095 2.771ZM36.642 1.801l2.828.463L36 1.092l.643.709Zm9.213 4.414 2.692.398-3.059-2.203.367 1.805Zm5.491 3.078 2.494 3.121.094-2.771-2.588-.35Zm2.494 44.57 2.566-.305 2.123-3.473-4.689 3.779ZM33.143.614l3.5 1.187-.644-.71-2.856-.477Zm9.627 3.368 3.085 2.233-.367-1.805-2.718-.428Zm11.07 49.882-2.494 3.12 5.06-3.426-2.566.306Zm2.142-37.926 2.547.255-2.123-3.473-.424 3.218Z" fill="#B0B0B0"/><path d="m29.515 66.27 3.628-.607 3.5-1.186-7.128 1.794ZM36.642 1.8l-3.5-1.186-3.627-.608 7.127 1.795Z" fill="#C4C4C4"/><path d="m45.857 60.063 2.691-.399 2.8-2.68-5.491 3.078Zm-9.213 4.414-3.5 1.186 6.328-1.65-2.828.464Zm9.213-4.415-3.085 2.234 5.776-2.632-2.691.398Zm-9.213 4.415 2.828-.464 3.3-1.717-6.128 2.18Z" fill="#B0B0B0"/><path d="M54.577 28.328 36.645 1.8 9.855 7.92l44.722 20.407Z" fill="#C4C4C4"/><path d="m55.983 50.34 2.547-.255 1.727-3.827-4.274 4.082Zm-2.142-37.926 2.142 3.524.425-3.218-2.567-.306Zm-5.16-3.481 2.666.36-2.8-2.68.134 2.32Zm9.045 10.888 2.53.198-1.726-3.826-.804 3.628ZM39.971 3.54l2.8.44-3.3-1.717.5 1.276Zm16.012 46.8-2.142 3.523 4.689-3.778-2.547.255Zm1.743-3.883 2.53-.199 1.287-4.133-3.817 4.332ZM45.856 6.215l2.825 2.718-.133-2.32-2.692-.398ZM36.644 1.8l3.327 1.74-.5-1.277-2.827-.463Zm22.38 22.216 2.52.136-1.287-4.134-1.232 3.998Zm-3.04-8.08 1.742 3.884.804-3.628-2.547-.255Zm-7.304 41.41 2.666-.36 2.494-3.122-5.16 3.482Zm0 0-2.825 2.718 5.491-3.079-2.666.361Z" fill="#B0B0B0"/><path d="m29.515 66.27 7.127-1.793 6.44-4.004-13.567 5.798Z" fill="#C4C4C4"/><path d="m59.025 42.26 2.518-.135.802-4.391-3.32 4.527Zm-1.299 4.197-1.743 3.883 4.274-4.082-2.53.199Zm2.108-17.983 2.51.07-.8-4.391-1.71 4.32ZM39.97 62.737l2.8-.441 3.085-2.233-5.885 2.674Zm0 0-3.327 1.74 6.127-2.181-2.8.441ZM51.197 12.1l2.644.315-2.494-3.121-.15 2.806Zm8.637 25.704 2.51-.07.277-4.594-2.787 4.664Zm.278-4.664h2.509l-.276-4.595-2.233 4.595Zm-2.386-13.32 1.299 4.195 1.232-3.997-2.53-.198Z" fill="#B0B0B0"/><path d="m15.497 62.91 27.586-2.437 11.493-32.145-39.079 34.581Z" fill="#C4C4C4"/><path d="m43.082 5.804 2.774.41-3.085-2.233.311 1.823Zm15.942 36.457-1.298 4.196 3.816-4.332-2.518.136ZM48.68 8.933l2.517 3.166.15-2.806-2.667-.36Zm2.517 45.245 2.644-.315 2.142-3.523-4.786 3.838Zm7.827-30.161.81 4.457 1.708-4.321-2.518-.136Zm.81 13.787-.81 4.457 3.32-4.527-2.51.07ZM39.97 3.54l3.111 2.264-.311-1.823-2.8-.44Zm11.226 50.638-2.517 3.167 5.16-3.482-2.644.315Zm2.161-38.503 2.625.263-2.142-3.524-.483 3.26Zm6.475 12.799.279 4.665 2.232-4.595-2.51-.07Zm.279 4.665-.279 4.664 2.787-4.664h-2.508Zm-17.03 27.334 2.774-.41 2.824-2.718-5.598 3.128Zm0 0-3.111 2.264 5.885-2.674-2.774.41Z" fill="#B0B0B0"/><path d="m36.644 64.477 3.327-1.74 3.112-2.264-6.44 4.004Zm6.439-58.673L39.97 3.54 36.644 1.8l6.439 4.004Z" fill="#C4C4C4"/><path d="m53.359 50.602 2.624-.263 1.743-3.883-4.367 4.146ZM51.197 12.1l2.162 3.576.482-3.261-2.644-.315Zm-5.265-3.54 2.749.371-2.825-2.717.076 2.346Zm9.186 11.055 2.608.205-1.743-3.884-.865 3.68Zm-1.76 30.986-2.16 3.576 4.785-3.839-2.624.263Zm1.76-3.941 2.608-.205 1.299-4.195-3.907 4.4ZM43.083 5.804l2.85 2.757-.077-2.346-2.773-.41Zm13.346 18.072 2.596.14-1.299-4.195-1.297 4.055Zm-3.07-8.201 1.759 3.941.865-3.678-2.624-.263Zm-7.427 42.041 2.749-.371 2.516-3.167-5.265 3.538Z" fill="#B0B0B0"/><path d="m48.471 11.774-5.388-5.97-6.44-4.003 11.828 9.973Z" fill="#C4C4C4"/><path d="m45.932 57.717-2.849 2.756 5.598-3.128-2.749.372ZM56.428 42.4l2.597-.14.809-4.457-3.406 4.597Zm-1.31 4.26-1.76 3.942 4.368-4.146-2.608.204Zm2.127-18.259 2.589.072-.81-4.457-1.779 4.385Zm-8.774-16.628 2.726.325-2.516-3.166-.21 2.841Zm8.774 26.102 2.589-.072.278-4.665-2.867 4.736Zm.282-4.737h2.585l-.278-4.665-2.308 4.665Zm-2.409-13.522 1.31 4.26 1.298-4.056-2.608-.204Zm1.31 22.784-1.31 4.26 3.907-4.4-2.596.14ZM45.932 8.561l2.54 3.213.209-2.841-2.749-.372Zm2.54 45.942 2.725-.325 2.162-3.575-4.888 3.9Zm7.956-30.627.817 4.526 1.78-4.385-2.596-.14Zm.817 14L56.43 42.4l3.405-4.597-2.589.072Zm-8.774 16.627-2.539 3.214 5.265-3.538-2.726.324Zm2.182-39.099 2.706.271-2.162-3.576-.544 3.305Zm6.592 12.998.282 4.737 2.307-4.665-2.589-.072Zm.282 4.737-.282 4.736 2.867-4.736h-2.586Z" fill="#B0B0B0"/><path d="m43.083 60.473 2.849-2.756 2.54-3.214-5.39 5.97Zm5.388-48.699-2.539-3.213-2.85-2.757 5.39 5.97Zm6.105 16.554L48.47 11.774 36.644 1.801l17.932 26.527Z" fill="#C4C4C4"/><path d="m50.655 50.873 2.706-.27 1.76-3.942-4.466 4.212Zm-2.181-39.099 2.181 3.63.544-3.305-2.725-.325Zm3.957 7.632 2.69.21-1.76-3.941-.93 3.73Zm-1.776 31.467-2.181 3.63 4.887-3.9-2.706.27Z" fill="#B0B0B0"/><path d="m43.083 60.473 5.388-5.97 3.957-7.631-9.345 13.601Z" fill="#C4C4C4"/><path d="m52.428 46.872 2.69-.21 1.31-4.26-4 4.47Zm1.323-23.14 2.677.144-1.31-4.26-1.367 4.116Zm-3.099-8.328 1.776 4.002.93-3.73-2.706-.272Zm3.099 27.142 2.677-.145.817-4.525-3.494 4.67Zm-1.323 4.326-1.776 4.002 4.466-4.213-2.69.21Zm2.148-18.544 2.669.074-.817-4.526-1.852 4.452Z" fill="#B0B0B0"/><path d="m43.083 60.473 9.345-13.602 2.148-18.543-11.493 32.145Z" fill="#C4C4C4"/><path d="m54.576 37.95 2.67-.075.28-4.736-2.95 4.81Zm.284-4.811h2.667l-.281-4.737-2.386 4.737Z" fill="#B0B0B0"/><path d="m48.474 54.503 2.181-3.63 1.776-4.002-3.957 7.632Zm3.957-35.097-1.776-4.002-2.181-3.63 3.957 7.632Z" fill="#C4C4C4"/><path d="m52.429 19.406 1.322 4.326 1.367-4.115-2.69-.21Zm1.322 23.14-1.322 4.326 4-4.47-2.678.144Zm0-18.814.825 4.596 1.853-4.452-2.678-.144Z" fill="#B0B0B0"/><path d="m54.578 28.328-2.147-8.922-3.957-7.632 6.104 16.554Z" fill="#C4C4C4"/><path d="m54.578 37.95-.825 4.596 3.494-4.67-2.67.074Zm0-9.622.283 4.81 2.386-4.736-2.67-.074Zm.283 4.81-.283 4.812 2.95-4.811h-2.667Z" fill="#B0B0B0"/><path d="m52.429 46.872 1.322-4.326.825-4.596-2.147 8.922Zm2.147-18.544-.825-4.596-1.322-4.326 2.147 8.922ZM52.43 46.872l2.147-8.922v-9.622L52.43 46.872Zm2.147-8.922.284-4.811-.284-4.81v9.62Z" fill="#C4C4C4"/><path d="M54.62 33.256c0 18.186-12.116 32.755-26.866 32.755-14.751 0-26.866-14.57-26.866-32.755C.888 15.07 13.003.5 27.753.5 42.505.5 54.62 15.07 54.62 33.256Z" fill="url(#a)" stroke="url(#b)"/><g filter="url(#c)"><path d="m18.893 41.11 4.916-.073-.343-.622-4.573.694Zm.36.574 4.914-.078-.358-.569-4.556.647Zm-.19-16.034 4.915.072.297-.537-5.212.465Zm.298-.542 4.914.077.312-.491-5.226.414Zm.266 17.096 4.914-.082-.374-.516-4.54.598Zm.046-17.591 4.914.081.326-.445-5.24.364Zm.345 18.058 4.912-.087-.389-.462-4.523.55ZM20 24.163l4.913.086.34-.4-5.253.314Zm.424 18.922 4.912-.091-.405-.41-4.507.5Zm-.082-19.325 4.912.09.355-.354-5.267.265Zm.504 19.684 4.91-.094-.42-.356-4.49.45Zm-.148-20.04 4.911.093.37-.308-5.28.215ZM18.55 40.48l.343.628 4.573-.694-4.916.066Zm2.733 3.269 4.91-.097-.437-.303-4.473.4Zm-.214-20.656 4.91.095.385-.261-5.295.166Z" fill="#E5E5E5"/><path d="m16.496 44.629.18.392.194.378-.374-.77Z" fill="#fff"/><path d="m18.892 41.11.359.574 4.556-.647-4.915.072Zm.467-16.002-.298.542 5.212-.465-4.914-.076Zm2.376 18.894 4.908-.1-.452-.25-4.456.35Zm-.282-21.172 4.909.098.4-.215-5.309.117Zm-2.202 18.854.375.52 4.54-.598-4.915.078Z" fill="#E5E5E5"/><path d="m16.872 45.399.209.364.222.35-.43-.714Zm1.675-4.918-2.214 3.741.166.407 2.048-4.148Zm-.926-19.945-.394.72-.35.786.744-1.506Z" fill="#fff"/><path d="m19.674 24.613-.313.495 5.226-.414-4.913-.081Z" fill="#E5E5E5"/><path d="m18.544 40.481-2.048 4.148.374.77 1.674-4.918ZM16.87 45.4l.43.715.49.659-.92-1.374Z" fill="#fff"/><path d="m21.854 22.613 4.908.1.414-.17-5.322.07Zm.35 21.586 4.907-.101-.468-.196-4.439.297Zm-2.578-1.994.39.467 4.524-.55-4.914.083Z" fill="#E5E5E5"/><path d="m17.303 46.114.237.336.251.323-.488-.66Z" fill="#fff"/><path d="m19.998 24.163-.327.45 5.24-.364-4.913-.086Z" fill="#E5E5E5"/><path d="m18.54 19.296-.919 1.24-.744 1.506 1.663-2.746Zm.007 21.186-1.674 4.917.92 1.374.754-6.291Z" fill="#fff"/><path d="m22.267 22.442 4.906.102.429-.123-5.335.021Zm-2.253 20.23.406.413 4.506-.5-4.912.086Zm2.673 1.67 4.905-.102-.483-.142-4.422.245Zm-2.35-20.582-.34.403 5.253-.313-4.912-.09Z" fill="#E5E5E5"/><path d="m17.791 46.773.266.309.28.295-.546-.604Zm.747-27.477-.48.587-.438.654.918-1.24Z" fill="#fff"/><path d="m22.698 22.318 4.905.103.444-.076-5.35-.027ZM20.42 43.085l.422.36 4.49-.451-4.912.09Zm.274-19.681-.356.356 5.267-.264-4.91-.092Z" fill="#E5E5E5"/><path d="m17.795 46.773.546.603.603.549-1.15-1.152Z" fill="#fff"/><path d="m23.19 44.432 4.904-.103-.5-.089-4.404.192Z" fill="#E5E5E5"/><path d="m18.89 41.11-.343-.629-.755 6.292 1.099-5.664Zm-2.013-19.068 2.183 3.608.298-.542-2.481-3.066Zm0 0 2.48 3.066.313-.495-2.793-2.57Zm1.46 25.335.295.28.31.268-.604-.548Z" fill="#fff"/><path d="m21.067 23.094-.37.31 5.28-.215-4.91-.095Zm2.077-.853 4.904.104.459-.03-5.363-.074Zm-2.3 21.203.437.306 4.473-.4-4.91.094Z" fill="#E5E5E5"/><path d="m20.904 17.613-2.365 1.683-1.662 2.746 4.027-4.429Zm-4.027 4.43 2.793 2.57.327-.45-3.12-2.12Z" fill="#fff"/><path d="m23.707 44.467 4.902-.104-.515-.035-4.387.14Z" fill="#E5E5E5"/><path d="m17.795 46.773 1.15 1.152 1.373.885-2.523-2.037Z" fill="#fff"/><path d="m21.45 22.83-.386.264 5.295-.166-4.909-.098Zm2.151-.62 4.903.104.243.004-5.146-.108Z" fill="#E5E5E5"/><path d="m16.877 22.042 3.12 2.121.342-.403-3.462-1.718Zm2.756-3.72-.569.454-.525.52 1.094-.974Z" fill="#fff"/><path d="m21.283 43.75.454.252 4.455-.349-4.909.097Zm2.727.714 4.902-.105-.3.004-4.602.1Z" fill="#E5E5E5"/><path d="m18.942 47.925.323.253.341.23-.665-.483Zm-2.065-25.883 3.462 1.718.356-.356-3.818-1.362Z" fill="#fff"/><path d="m21.855 22.613-.4.217 5.307-.117-4.907-.1Z" fill="#E5E5E5"/><path d="m16.877 22.042 3.818 1.362.371-.31-4.189-1.052Z" fill="#fff"/><path d="m21.735 44.002.47.197 4.438-.297-4.908.1Z" fill="#E5E5E5"/><path d="m18.942 47.925.664.483.709.402-1.373-.885Zm1.962-30.311-1.27.708-1.095.974 2.365-1.683Zm-4.027 4.428 4.19 1.052.385-.264-4.575-.788Z" fill="#fff"/><path d="m22.269 22.442-.415.17 5.321-.068-4.906-.102Z" fill="#E5E5E5"/><path d="m19.608 48.408.35.21.36.192-.71-.402Z" fill="#fff"/><path d="m24.514 49.67 4.9-.153.547-.04-5.447.193Zm-2.31-5.47.484.143 4.422-.245-4.907.102Z" fill="#E5E5E5"/><path d="m16.877 22.042 4.575.788.4-.217-4.975-.57Zm2.014 19.067-1.099 5.664 5.717 2.883-4.618-8.547Z" fill="#fff"/><path d="m25.004 17.04 4.899.152-.5-.035-4.399-.118ZM22.7 22.317l-.43.124 5.335-.021-4.905-.103Z" fill="#E5E5E5"/><path d="m20.904 17.613-.658.321-.613.388 1.271-.709Zm-4.027 4.43 4.976.57.415-.171-5.391-.4Zm.915 24.73 2.523 2.037 3.194.846-5.717-2.883Z" fill="#fff"/><path d="m22.69 44.343.502.09 4.404-.193-4.906.103Z" fill="#E5E5E5"/><path d="m19.25 41.683-.358-.574 4.618 8.547-4.26-7.973Z" fill="#fff"/><path d="m25.06 49.63 4.9-.153.53-.076-5.43.229Z" fill="#E5E5E5"/><path d="m16.877 22.042 5.39.4.43-.124-5.82-.276Z" fill="#fff"/><path d="m25.49 17.106 4.897.152-.483-.066-4.414-.086Zm-2.344 5.135-.445.077 5.35.027-4.905-.104Z" fill="#E5E5E5"/><path d="m20.315 48.81.367.173.377.153-.744-.326Zm-.69-6.606-.375-.52 4.26 7.972-3.885-7.452Zm-2.748-20.162 5.82.276.446-.077-6.266-.199Z" fill="#fff"/><path d="m23.19 44.432.518.035 4.386-.139-4.904.104Z" fill="#E5E5E5"/><path d="m20.016 42.671-.39-.467 3.884 7.452-3.494-6.985Zm.3 6.14.745.325.78.25-1.525-.576Z" fill="#fff"/><path d="m25.597 49.553 4.897-.152.516-.112-5.413.264ZM23.605 22.21l-.46.03 5.362.074-4.902-.104Zm2.35-5.006 4.896.151-.466-.097-4.43-.054Z" fill="#E5E5E5"/><path d="m16.877 22.042 6.266.199.46-.03-6.726-.169Zm9.077-4.838-5.05.41-4.027 4.428 9.077-4.838Zm-5.533 25.88-.406-.413 3.494 6.985-3.088-6.571Zm-3.544-21.042 6.726.168.243.004-6.969-.172Z" fill="#fff"/><path d="m23.846 22.214-.244-.004 5.146.108-4.902-.104Z" fill="#E5E5E5"/><path d="m21.059 49.136.385.135.395.115-.78-.25Z" fill="#fff"/><path d="m23.707 44.468.3-.004 4.602-.1-4.902.104Zm2.697-27.135 4.895.15-.45-.127-4.445-.023Z" fill="#E5E5E5"/><path d="m20.846 43.444-.422-.36 3.088 6.572-2.666-6.212Z" fill="#fff"/><path d="m26.112 49.44 4.896-.15.5-.148-5.396.298Z" fill="#E5E5E5"/><path d="m22.356 17.172-.747.188-.702.253 1.45-.44ZM21.283 43.75l-.438-.306 2.667 6.212-2.229-5.906Zm-.966 5.06 1.525.576 1.67.27-3.195-.846Zm1.079-18.404v5.187l1.725.005-1.725-5.191Z" fill="#fff"/><path d="m26.838 17.494 4.893.149-.432-.16-4.461.01Zm-.224 31.798 4.894-.15.485-.182-5.379.332Z" fill="#E5E5E5"/><path d="m21.734 44.002-.454-.252 2.23 5.906-1.776-5.654Zm4.22-26.798-9.077 4.838 6.97.172 2.107-5.01ZM21.84 49.386l.403.096.413.077-.816-.173Z" fill="#fff"/><path d="m24.502 17.004.5.035 4.4.118-4.9-.153Z" fill="#E5E5E5"/><path d="m23.985 17-1.63.173-1.45.44 3.08-.613Z" fill="#fff"/><path d="m27.253 17.686 4.892.147-.415-.19-4.477.043Z" fill="#E5E5E5"/><path d="m22.205 44.2-.47-.198 1.776 5.654-1.306-5.457Z" fill="#fff"/><path d="m25.062 49.63-.548.04 5.447-.193-4.899.152Zm2.038-.522 4.892-.148.469-.218-5.361.366Zm.157-16.406 4.892.006v-.135l-4.892.129Z" fill="#E5E5E5"/><path d="m21.394 30.406 1.725 5.192.345.01-2.07-5.202Zm.446 18.98.817.173.852.097-1.67-.27Z" fill="#fff"/><path d="m27.257 32.565 4.892.007.596-.376-5.488.37Z" fill="#E5E5E5"/><path d="m22.688 44.343-.485-.144 1.306 5.457-.82-5.313Z" fill="#fff"/><path d="m27.617 32.796 4.891.005-.36-.093-4.53.088Zm.036-14.886 4.891.145-.398-.222-4.493.077Zm-2.651-.87.484.066 4.415.086-4.899-.153Z" fill="#E5E5E5"/><path d="m21.394 30.406 2.07 5.201.333.026-2.403-5.227Z" fill="#fff"/><path d="m27.57 48.888 4.892-.146.452-.254-5.344.4Z" fill="#E5E5E5"/><path d="m22.658 49.56.422.057.431.039-.853-.097Z" fill="#fff"/><path d="m25.593 49.553-.532.077 5.43-.229-4.898.152Z" fill="#E5E5E5"/><path d="m21.394 30.407 2.403 5.226.32.042-2.723-5.268Zm1.796 14.025-.501-.09.82 5.314-.32-5.224ZM23.984 17l-.838.053-.792.12 1.63-.173Z" fill="#fff"/><path d="m27.964 32.912 4.89.004-.346-.115-4.544.11Zm.07-14.747 4.89.143-.38-.253-4.51.11Z" fill="#E5E5E5"/><path d="m21.394 30.406 2.723 5.269.307.058-3.03-5.327Z" fill="#fff"/><path d="m25.486 17.106.468.098 4.43.054-4.898-.152Zm2.37 15.08 4.89.01.545-.421-5.436.41Zm.167 16.447 4.89-.145.437-.289-5.327.434ZM28.3 33.05l4.889.002-.333-.137-4.556.135Z" fill="#E5E5E5"/><path d="m21.394 30.406 3.03 5.327.294.075-3.324-5.402Z" fill="#fff"/><path d="m28.403 18.452 4.889.14-.365-.284-4.524.144ZM26.114 49.44l-.517.113 5.412-.264-4.895.151Z" fill="#E5E5E5"/><path d="M25.955 17.204 23.985 17l-3.08.614 5.05-.41Zm-4.56 13.203 3.324 5.4.282.092-3.607-5.492Zm1.552-.007-1.552.007 5.398 6.791-3.846-6.798Z" fill="#fff"/><path d="m25.954 17.204.45.129 4.446.022-4.896-.151ZM28.62 33.21l4.888.002-.32-.16-4.568.158Zm-.218-1.451 4.89.014.494-.467-5.384.453Z" fill="#E5E5E5"/><path d="M21.394 30.406 25 35.898l.268.108-3.874-5.6Z" fill="#fff"/><path d="m28.462 48.34 4.889-.14.42-.326-5.31.466Zm.288-29.57 4.888.138-.347-.316-4.541.179Z" fill="#E5E5E5"/><path d="m23.51 49.656.44.02.564-.006-1.005-.014Zm-2.116-19.25 3.875 5.6.255.123-4.13-5.723Z" fill="#fff"/><path d="m26.614 49.293-.502.148 5.396-.298-4.894.15Zm2.313-15.898h4.887l-.306-.182-4.581.182Zm-2.523-16.062.433.161 4.462-.01-4.895-.15Z" fill="#E5E5E5"/><path d="m21.394 30.406 4.13 5.724.243.14-4.373-5.864Z" fill="#fff"/><path d="m29.083 19.121 4.887.134-.33-.347-4.557.213Zm-.197 28.892 4.887-.139.405-.36-5.292.498Zm.015-16.725 4.887.02.443-.513-5.33.493Z" fill="#E5E5E5"/><path d="m23.51 49.656 1.004.014.549-.04-1.553.026Zm-2.116-19.25 4.373 5.864.23.156-4.603-6.02Zm1.813-.015-.261.01 4.152 7.265-3.89-7.275Z" fill="#fff"/><path d="m29.222 33.6 4.886-.002-.293-.204-4.593.206Z" fill="#E5E5E5"/><path d="m25.003 17.04-.501-.036-.518-.004 1.019.04Zm-3.61 13.367 4.604 6.02.218.172-4.821-6.192Z" fill="#fff"/><path d="m29.39 19.49 4.886.13-.308-.365-4.578.235Z" fill="#E5E5E5"/><path d="m23.463 30.364-.254.027 3.89 7.275-3.636-7.302Z" fill="#fff"/><path d="m27.1 49.109-.486.184 5.379-.333-4.893.149Z" fill="#E5E5E5"/><path d="m25.953 17.204-2.107 5.01.234.018 1.873-5.028Z" fill="#fff"/><path d="m26.836 17.494.416.192 4.477-.043-4.893-.15Z" fill="#E5E5E5"/><path d="m21.394 30.406 4.82 6.193.205.19-5.025-6.383Z" fill="#fff"/><path d="m29.502 33.828 4.885-.004-.28-.226-4.605.23Zm-.213 13.82 4.886-.135.389-.396-5.275.531Zm.053-16.877 4.886.024.391-.559-5.277.535Z" fill="#E5E5E5"/><path d="m25.954 17.204-1.873 5.028.224.033 1.649-5.061ZM23.709 30.32l-.247.043 3.764 7.557-3.517-7.6Zm-2.315.085 5.025 6.383.195.197-5.22-6.58Z" fill="#fff"/><path d="m29.67 19.881 4.886.127-.281-.387-4.604.26Z" fill="#E5E5E5"/><path d="m23.512 49.656 1.553-.027 1.05-.189-2.603.216Z" fill="#fff"/><path d="M27.257 32.565v.137l4.892-.13-4.892-.007Z" fill="#E5E5E5"/><path d="m25.954 17.204-1.649 5.06.215.048 1.434-5.108Zm-4.56 13.202 5.22 6.58.178.212-5.398-6.792Zm2.556-.145-.24.06 3.515 7.6-3.275-7.66Z" fill="#fff"/><path d="m29.768 34.078 4.884-.007-.266-.247-4.618.254Z" fill="#E5E5E5"/><path d="m25.954 17.204-.951-.165L23.984 17l1.97.204Z" fill="#fff"/><path d="m27.256 32.701.36.095 4.532-.089-4.892-.006Zm-.003-15.015.4.224 4.492-.077-4.892-.147Z" fill="#E5E5E5"/><path d="m25.952 17.204-1.433 5.108.205.062 1.228-5.17Z" fill="#fff"/><path d="m27.568 48.888-.47.22 5.362-.366-4.892.146Zm2.109-1.64 4.885-.132.364-.435-5.25.566Z" fill="#E5E5E5"/><path d="m24.182 30.183-.234.078 3.276 7.66-3.042-7.738Z" fill="#fff"/><path d="m29.926 20.294 4.884.123-.254-.41-4.63.287Zm-.193 9.912 4.885.03.34-.604-5.225.574Z" fill="#E5E5E5"/><path d="m25.955 17.204-1.228 5.17.195.077 1.033-5.247Z" fill="#fff"/><path d="m30.023 34.35 4.884-.009-.253-.27-4.632.28Z" fill="#E5E5E5"/><path d="m24.409 30.089-.226.094 3.153 8.008-2.927-8.102Z" fill="#fff"/><path d="m27.855 32.185-.598.38 5.488-.369-4.89-.01Z" fill="#E5E5E5"/><path d="M25.952 17.204 24.92 22.45l.186.091.846-5.338Z" fill="#fff"/><path d="m30.155 20.728 4.884.12-.229-.431-4.655.311Zm-2.538 12.068.348.116 4.543-.111-4.89-.005Zm2.426 14.013 4.884-.127.333-.46-5.217.587Zm-2.39-28.9.383.256 4.508-.11-4.89-.145Z" fill="#E5E5E5"/><path d="m25.953 17.204-.847 5.338.177.106.67-5.444Z" fill="#fff"/><path d="m30.074 29.597 4.884.035.287-.65-5.17.615Z" fill="#E5E5E5"/><path d="m24.627 29.978-.219.111 2.927 8.102-2.708-8.213Z" fill="#fff"/><path d="m30.262 34.645 4.883-.012-.239-.292-4.644.304Z" fill="#E5E5E5"/><path d="m25.953 17.204-.467-.098-.484-.067.951.165Z" fill="#fff"/><path d="m28.024 48.632-.454.256 5.344-.4-4.89.144Z" fill="#E5E5E5"/><path d="m25.954 17.204-.669 5.444.167.121.502-5.565ZM22.946 30.4l3.847 6.798.161.227-4.008-7.025Z" fill="#fff"/><path d="m30.36 21.184 4.883.115-.202-.452-4.682.337Z" fill="#E5E5E5"/><path d="m25.063 49.63.533-.077.517-.113-1.05.19Zm-.222-19.78-.212.127 2.707 8.214-2.495-8.342Zm-1.895.55 4.008 7.025.144.24-4.152-7.265Zm3.008-13.196-.502 5.565.158.136.344-5.701Z" fill="#fff"/><path d="m30.486 34.962 4.883-.015-.226-.314-4.657.33Zm-.125-6.021 4.883.041.236-.695-5.119.654Zm-2.397 3.97.334.14 4.556-.135-4.89-.004Zm2.567-11.25 4.883.11-.175-.473-4.708.363Zm-.154 24.684 4.883-.123.301-.484-5.184.607Z" fill="#E5E5E5"/><path d="m25.045 29.704-.205.145 2.589 8.626-2.384-8.771Zm.908-12.5-.344 5.7.148.15.196-5.85Z" fill="#fff"/><path d="m28.036 18.165.365.287 4.525-.144-4.89-.143Z" fill="#E5E5E5"/><path d="m25.953 17.204-.196 5.85.138.166.058-6.016Z" fill="#fff"/><path d="m28.402 31.76-.547.425 5.436-.41-4.889-.015Z" fill="#E5E5E5"/><path d="m23.51 49.656 2.603-.216 1.911-.808-4.514 1.024Zm-.32-5.224.32 5.224 7.442-4.314-7.762-.91Zm2.054-14.89-.198.162 2.384 8.771-2.186-8.934Z" fill="#fff"/><path d="m30.7 35.302 4.882-.019-.212-.336-4.67.355Zm-.02-13.142 4.883.106-.148-.494-4.734.388Z" fill="#E5E5E5"/><path d="m23.462 30.364 3.636 7.302.128.255-3.764-7.557Z" fill="#fff"/><path d="m30.599 28.24 4.882.047.183-.74-5.065.692Z" fill="#E5E5E5"/><path d="m23.708 44.467-.518-.035 7.762.91-7.244-.875Zm2.247-27.263-.058 6.015.128.17-.07-6.185Z" fill="#fff"/><path d="m28.462 48.34-.438.292 5.327-.433-4.889.141Zm2.341-25.659 4.882.1-.121-.515-4.76.415Z" fill="#E5E5E5"/><path d="m25.954 17.204.07 6.186.117.182-.187-6.368Z" fill="#fff"/><path d="m30.68 45.856 4.881-.118.27-.51-5.152.628Zm-2.382-12.805.32.16 4.57-.157-4.89-.003Z" fill="#E5E5E5"/><path d="m25.434 29.362-.19.18 2.262 9.233-2.072-9.413Z" fill="#fff"/><path d="m30.783 27.492 4.882.055.13-.785-5.012.73Zm.122 8.16 4.881-.023-.202-.346-4.68.368Z" fill="#E5E5E5"/><path d="m25.954 17.204.187 6.368.106.193-.293-6.561Z" fill="#fff"/><path d="m30.895 23.223 4.881.096-.094-.537-4.787.44Zm-2.496-4.771.348.318 4.541-.178-4.889-.14Z" fill="#E5E5E5"/><path d="m25.952 17.204.292 6.561.095.205-.387-6.766Zm-.337 11.961-.183.197 2.072 9.412-1.889-9.609Z" fill="#fff"/><path d="m30.914 26.7 4.881.062.079-.83-4.96.767Zm.051-2.913 4.881.09-.067-.558-4.814.468Z" fill="#E5E5E5"/><path d="m24.008 44.463-.301.004 7.244.875-6.943-.879Zm1.946-27.26.387 6.767.084.217-.471-6.983Zm-1.771 12.98 3.042 7.738.11.27-3.152-8.008Z" fill="#fff"/><path d="m31.005 24.372 4.881.084-.04-.579-4.841.495Zm-.013 1.49 4.881.07.027-.875-4.908.804Zm.026-.884 4.882.079-.014-.6-4.868.52Z" fill="#E5E5E5"/><path d="m25.954 17.204.471 6.983.073.228-.544-7.211Z" fill="#fff"/><path d="m31.09 36.014 4.88-.025-.184-.36-4.697.385Zm-.138 9.329 4.881-.114.239-.533-5.12.647Z" fill="#E5E5E5"/><path d="m25.789 28.955-.173.21 1.889 9.61-1.716-9.82Zm.164-11.751.543 7.21.062.24-.605-7.45Z" fill="#fff"/><path d="m28.62 33.212.306.183 4.581-.182-4.888-.001Z" fill="#E5E5E5"/><path d="m25.954 17.204.605 7.45.05.251-.655-7.701Z" fill="#fff"/><path d="m28.898 31.288-.496.472 5.383-.453-4.887-.019Zm-.015 16.724-.422.329 5.31-.467-4.888.138Z" fill="#E5E5E5"/><path d="m26.838 17.494-.434-.161-.45-.13.884.29Zm-.884-.29.655 7.701.039.263-.694-7.964Zm-1.657 27.238-.29.021 6.944.88-6.654-.9Zm1.657-27.238.694 7.964.028.274-.722-8.238Zm-.007 11.532-.157.22 1.776 10.132-1.619-10.352Z" fill="#fff"/><path d="m31.256 36.389 4.88-.03-.167-.37-4.713.4ZM28.75 18.77l.33.35 4.558-.213-4.888-.137Zm2.441 26.032 4.88-.108.208-.558-5.088.666Z" fill="#E5E5E5"/><path d="m26.087 28.507-.142.23 1.618 10.351-1.476-10.58Zm-1.25 1.342 2.496 8.342.094.285-2.59-8.627Zm-.263 14.555-.28.038 6.655.9-6.375-.938Zm1.536 5.037.502-.149.485-.184-.987.333Zm.105-21.172-.128.238 1.476 10.581-1.348-10.819Z" fill="#fff"/><path d="m31.408 36.777 4.88-.033-.15-.384-4.73.417Zm-2.48-3.382.294.205 4.593-.206h-4.887Z" fill="#E5E5E5"/><path d="m26.33 28.022-.113.247 1.39 11.147-1.278-11.394Z" fill="#fff"/><path d="m31.398 44.24 4.88-.103.175-.583-5.055.686Z" fill="#E5E5E5"/><path d="m25.243 29.541 2.187 8.934.076.3-2.263-9.234Z" fill="#fff"/><path d="m31.537 37.177 4.88-.036-.133-.397-4.747.433Z" fill="#E5E5E5"/><path d="m26.427 27.765-.097.257 1.278 11.394-1.18-11.651Zm-1.583 16.584-.268.055 6.375.939-6.107-.994Z" fill="#fff"/><path d="m29.291 47.648-.405.364 5.292-.5-4.887.136Z" fill="#E5E5E5"/><path d="m27.654 17.91-.816-.416-.884-.29 1.7.706Z" fill="#fff"/><path d="m29.08 19.12.309.37 4.578-.235-4.887-.134Zm.261 11.65-.444.518 5.33-.494-4.886-.024Z" fill="#E5E5E5"/><path d="m26.508 27.498-.082.266 1.18 11.652-1.098-11.918Z" fill="#fff"/><path d="m31.654 37.59 4.88-.04-.115-.41-4.765.45Zm-.08 6.061 4.879-.097.143-.608-5.023.705Z" fill="#E5E5E5"/><path d="m25.791 28.955 1.716 9.82.06.313-1.776-10.133Z" fill="#fff"/><path d="m29.222 33.6.28.228 4.606-.23-4.886.002Z" fill="#E5E5E5"/><path d="m25.1 44.276-.256.072 6.107.994-5.85-1.066Z" fill="#fff"/><path d="m31.752 38.016 4.879-.044-.097-.422-4.782.466Z" fill="#E5E5E5"/><path d="M27.258 32.702v-.137l-.747-5.067.747 5.204Z" fill="#fff"/><path d="m31.716 43.037 4.879-.091.111-.633-4.99.724Zm.114-4.582 4.879-.048-.08-.435-4.8.483Z" fill="#E5E5E5"/><path d="m26.112 49.44.988-.332.923-.476-1.91.809Z" fill="#fff"/><path d="m31.828 42.4 4.879-.087.08-.656-4.959.742Z" fill="#E5E5E5"/><path d="m26.51 27.498 1.099 11.918-.351-6.714-.747-5.204Z" fill="#fff"/><path d="m29.39 19.49.282.39 4.604-.26-4.886-.13Z" fill="#E5E5E5"/><path d="m26.217 28.27 1.348 10.818.042.328-1.39-11.147Zm-.87 15.916-.246.09 5.85 1.066-5.604-1.156Z" fill="#fff"/><path d="m31.894 38.907 4.878-.053-.061-.447-4.817.5Zm.044.464 4.878-.057-.044-.46-4.834.517Zm-.028 2.365 4.878-.079.048-.681-4.926.76Zm-2.232 5.511-.389.4 5.275-.53-4.886.13Zm2.287-7.4 4.878-.061-.027-.472-4.851.534Zm-.008 1.202 4.879-.073.016-.705-4.895.778Zm.016-.712 4.879-.066-.01-.485-4.869.55Zm-2.471-6.51.267.25 4.618-.254-4.885.005Zm.233-3.62-.393.563 5.277-.534-4.884-.03Z" fill="#E5E5E5"/><path d="m27.652 17.91-.4-.224-.416-.192.816.416Zm-2.071 26.169-.235.107 5.604 1.156-5.37-1.263Z" fill="#fff"/><path d="m29.67 19.881.256.413 4.63-.286-4.885-.127Z" fill="#E5E5E5"/><path d="m25.81 43.955-.225.124 5.369 1.263-5.145-1.387Zm-2.298 5.701 4.514-1.023 2.928-3.29-7.442 4.313Z" fill="#fff"/><path d="m29.768 34.078.253.273 4.631-.28-4.884.007Z" fill="#E5E5E5"/><path d="m27.608 39.416.026.342-.377-7.056.351 6.714ZM29.08 19.12l-1.426-1.211-1.7-.706 3.126 1.917Z" fill="#fff"/><path d="m30.044 46.809-.365.438 5.25-.566-4.885.128Z" fill="#E5E5E5"/><path d="m27.099 49.108.47-.22.453-.255-.923.475Zm-1.08-5.295-.213.142 5.144 1.387-4.931-1.53Z" fill="#fff"/><path d="m30.074 29.597-.34.61 5.224-.575-4.884-.035Z" fill="#E5E5E5"/><path d="m27.965 32.912-.348-.117-.36-.094.708.21Z" fill="#fff"/><path d="m29.93 20.294.229.434 4.655-.311-4.884-.123Z" fill="#E5E5E5"/><path d="m26.219 43.654-.202.159 4.93 1.53-4.728-1.69Z" fill="#fff"/><path d="m30.023 34.35.24.295 4.644-.304-4.884.01Z" fill="#E5E5E5"/><path d="m30.802 22.68-4.848-5.476.722 8.238 4.126-2.761Zm-3.545 9.885.599-.38.547-.425-1.146.805Zm-.844 10.913-.19.176 4.729 1.688-4.539-1.864Z" fill="#fff"/><path d="m30.155 20.728.202.456 4.681-.337-4.883-.12Zm.222 25.617-.334.464 5.217-.587-4.883.123Zm-.015-17.404-.288.655 5.17-.614-4.882-.041Z" fill="#E5E5E5"/><path d="m28.62 33.212-.654-.3-.708-.21 1.362.51Zm2.183-10.531-4.225 4.541-.067.276 4.292-4.817Z" fill="#fff"/><path d="m30.262 34.645.226.317 4.657-.33-4.883.013Z" fill="#E5E5E5"/><path d="m26.594 43.284-.18.194 4.538 1.864-4.358-2.058Zm4.209-20.603-4.172 4.256-.052.285 4.224-4.54Zm-2.4-4.229-.366-.287-.382-.255.747.542Zm2.4 4.23-4.134 3.96-.038.295 4.172-4.256Zm0 0-4.112 3.656-.022.304 4.134-3.96Z" fill="#fff"/><path d="m30.36 21.184.175.477 4.707-.362-4.883-.115Z" fill="#E5E5E5"/><path d="m30.8 22.681-4.127 2.761.017.286 4.11-3.047Zm0 0-4.104 3.344-.008.313 4.112-3.657Zm0 0-4.11 3.047.006.297 4.104-3.344Zm-4.042 20.396-.167.207 4.358 2.058-4.19-2.265Z" fill="#fff"/><path d="m30.598 28.24-.236.7 5.119-.653-4.883-.048Z" fill="#E5E5E5"/><path d="m27.258 32.565 3.545-9.884-4.292 4.817.747 5.067Z" fill="#fff"/><path d="m30.488 34.962.213.34 4.67-.355-4.883.015Z" fill="#E5E5E5"/><path d="m26.913 42.859-.153.218 4.19 2.265-4.037-2.483Z" fill="#fff"/><path d="m30.68 45.856-.302.489 5.185-.607-4.883.118Zm-.147-24.195.148.5 4.734-.39-4.882-.11Z" fill="#E5E5E5"/><path d="m28.62 33.212-.32-.161-.334-.139.654.3Zm-1.568 9.42-.138.228 4.038 2.482-3.9-2.71Zm.206-10.067 1.145-.805.94-.99-2.085 1.795Z" fill="#fff"/><path d="m30.782 27.492-.183.747 5.065-.692-4.882-.055Zm-.1-5.332.12.52 4.761-.414-4.882-.106Z" fill="#E5E5E5"/><path d="m29.08 19.12-.68-.668-.747-.542 1.426 1.21Zm-1.905 23.273-.124.239 3.9 2.71-3.776-2.949Z" fill="#fff"/><path d="m30.701 35.302.203.35 4.68-.369-4.883.019Z" fill="#E5E5E5"/><path d="m28.025 48.632.437-.292.422-.328-.86.62Zm-.739-6.488-.11.25 3.776 2.948-3.666-3.198Z" fill="#fff"/><path d="m30.8 22.681.095.542 4.787-.441-4.882-.101Zm.15 22.661-.271.514 5.152-.627-4.881.113ZM30.91 26.7l-.13.793 5.012-.73-4.882-.063Z" fill="#E5E5E5"/><path d="m27.38 41.885-.095.26 3.666 3.197-3.572-3.457Zm2.388-7.807-1.149-.867-1.362-.51 2.51 1.377Z" fill="#fff"/><path d="m30.896 23.223.068.563 4.814-.468-4.881-.095Z" fill="#E5E5E5"/><path d="m27.46 41.616-.08.27 3.572 3.456-3.492-3.726Z" fill="#fff"/><path d="m30.99 25.861-.078.838 4.96-.767-4.881-.071Zm-.088 9.79.186.362 4.696-.384-4.882.022Z" fill="#E5E5E5"/><path d="m30.802 22.68-1.722-3.56-3.126-1.916 4.848 5.477Zm-3.168 17.078 3.317 5.584-3.694-12.64.377 7.056Z" fill="#fff"/><path d="m30.966 23.786.04.585 4.841-.494-4.881-.09Zm.04.585.014.606 4.868-.521-4.882-.085Zm.014.606-.026.884 4.907-.805-4.881-.079Z" fill="#E5E5E5"/><path d="m27.526 41.336-.066.28 3.491 3.726-3.425-4.006Zm.05-.29-.05.29 3.425 4.006-3.374-4.296Zm.037-.3-.036.3 3.374 4.296-3.338-4.596Zm.022-.31-.022.31 3.338 4.596-3.316-4.907Zm-.001-.678.008.356 3.31 5.228-3.318-5.584Zm.008.356-.007.321 3.316 4.907-3.309-5.227Zm1.438-20.993-.33-.35-.349-.32.68.67Z" fill="#fff"/><path d="m31.191 44.803-.239.54 5.12-.648-4.88.108Zm-.101-8.79.167.376 4.713-.4-4.88.025Z" fill="#E5E5E5"/><path d="m28.024 48.633.86-.62.795-.765-1.655 1.385Zm.38-16.873.495-.472.444-.518-.94.99Zm.818 1.84-.294-.205-.307-.183.6.388Z" fill="#fff"/><path d="m31.256 36.388.15.388 4.73-.417-4.88.03Zm.14 7.852-.207.563 5.088-.667-4.88.103Z" fill="#E5E5E5"/><path d="m27.257 32.565 2.084-1.795 1.257-2.53-3.341 4.325Z" fill="#fff"/><path d="m31.407 36.776.133.401 4.747-.433-4.88.032Zm.167 6.875-.176.589 5.055-.686-4.879.097Z" fill="#E5E5E5"/><path d="m29.767 34.078-.547-.478-.6-.388 1.147.866Z" fill="#fff"/><path d="m31.537 37.177.115.414 4.765-.45-4.88.036Z" fill="#E5E5E5"/><path d="m28.886 48.012.405-.364.39-.4-.795.764Z" fill="#fff"/><path d="m31.717 43.037-.144.614 5.023-.705-4.879.091Zm-.063-5.447.097.426 4.782-.466-4.879.04Z" fill="#E5E5E5"/><path d="m29.67 19.881-.282-.39-.309-.37.591.76Z" fill="#fff"/><path d="m31.75 38.016.08.44 4.8-.484-4.88.044Zm.078 4.383-.112.638 4.99-.724-4.878.086Z" fill="#E5E5E5"/><path d="m31.406 36.776-1.638-2.698-2.511-1.377 4.15 4.075Z" fill="#fff"/><path d="m31.832 38.455.062.452 4.817-.5-4.879.048Z" fill="#E5E5E5"/><path d="m29.769 34.078-.267-.25-.28-.228.547.478Z" fill="#fff"/><path d="m31.908 41.736-.08.663 4.958-.742-4.878.08Zm-.016-2.83.045.465 4.834-.517-4.879.053Z" fill="#E5E5E5"/><path d="m28.023 48.632 1.655-1.384 1.273-1.906-2.928 3.29Zm-.766-16.067 3.34-4.326.205-5.558-3.545 9.884Z" fill="#fff"/><path d="m31.958 41.049-.048.687 4.926-.76-4.878.073Zm-.02-1.678.027.476 4.852-.533-4.878.057Zm.027.476.01.49 4.868-.551-4.878.061Zm.01.49-.017.712 4.894-.778-4.878.066Z" fill="#E5E5E5"/><path d="m30.155 20.728-.484-.847-.591-.76 1.075 1.607Zm-.814 10.042.393-.564.34-.61-.733 1.174Zm1.61 14.572.455-8.566-4.15-4.074 3.695 12.64Zm-.796-24.614-.229-.434-.255-.413.484.847Zm-.814 10.042.733-1.173.524-1.358-1.256 2.531Zm1.46-8.089-.646-1.953-1.075-1.607 1.722 3.56Zm-.54 11.964-.24-.295-.253-.272.493.567Zm-.583 12.602.365-.438.334-.464-.7.903ZM30.7 35.303l-.44-.657-.492-.567.932 1.224Zm-1.022 11.946.7-.903.573-1.003-1.273 1.906Zm.396-17.651.288-.656.236-.702-.524 1.358Zm.458-7.936-.175-.477-.202-.456.377.933Zm.168 13.64-.213-.339-.226-.317.439.657Zm.102-12.62-.27-1.02-.377-.933.647 1.953Zm.604 14.095-.706-1.474-.932-1.224 1.638 2.698Zm-1.029 9.569.303-.489.27-.514-.573 1.003Zm.425-23.664-.122-.52-.148-.5.27 1.02Zm-.204 5.558.184-.747.13-.793-.314 1.54Zm0 0 .42-3.262-.216-2.296-.204 5.558Zm0 0 .315-1.54.105-1.722-.42 3.262Zm.366-4.452-.068-.564-.094-.542.162 1.106Zm.124 12.227-.185-.363-.203-.35.388.713Zm-.07-11.037-.054-1.19-.162-1.106.216 2.296Zm-.105 1.722.078-.838.027-.884-.105 1.722Zm.105-1.722-.014-.606-.04-.584.054 1.19Zm.388 11.8-.318-.763-.388-.712.706 1.474Zm-.455 8.565.24-.538.207-.564-.447 1.102Zm.455-8.566-.15-.387-.168-.375.318.762Zm-.455 8.566.447-1.102.319-1.202-.766 2.304Zm0 0 1.022-5.005-.567-3.56-.455 8.565Zm.703-7.752-.115-.413-.133-.4.248.813Zm-.703 7.752.766-2.304.256-2.701-1.022 5.005Zm.447-1.102.175-.589.144-.613-.32 1.202Zm.433-5.785-.177-.864-.248-.815.425 1.68Zm.142 1.882-.142-1.882-.425-1.678.567 3.56Zm-.142-1.882-.08-.438-.097-.427.177.865Zm-.114 4.583.112-.638.08-.663-.192 1.3Zm0 0 .192-1.301.064-1.4-.256 2.7Zm.22-3.667-.044-.464-.062-.452.106.916Zm.036.966-.036-.966-.106-.916.142 1.882Zm-.064 1.4.048-.688.016-.712-.064 1.4Zm.064-1.4-.01-.49-.026-.476.036.966Z" fill="#fff"/></g><path d="m29.796 17.167-5.26-.166c1.262.057 2.16.43 2.746.699.587.268 1.2.746 1.845 1.442.517.556.981 1.445 1.149 1.82.056.109.231.558.486 1.484.255.926.28 2.186.26 2.7-.016.562-.09 1.845-.251 2.482-.201.797-.394 1.468-.931 2.415-.537.948-.763 1.065-1.375 1.66-.49.477-1.004.764-1.2.848v.15c2.047.411 3.154 1.879 3.8 3.271.65 1.107.869 2.854.896 3.59a12.567 12.567 0 0 1-.326 3.873c-.118.459-.472 1.588-.948 2.44-.476.852-1.445 1.815-1.87 2.19-.131.102-.584.423-1.342.88-1.026.476-2.21.668-2.675.704 1.07-.022 3.61-.089 5.2-.176 1.341-.128 2.342-.618 2.674-.847.35-.17 1.273-.773 2.172-1.82.9-1.046 1.454-2.577 1.619-3.211.15-.627.439-2.265.385-3.807-.053-1.543-.385-2.64-.545-2.994-.1-.4-.538-1.468-1.484-2.541s-2.183-1.481-2.683-1.551v-.151c.338-.157 1.184-.666 1.861-1.451.88-.772 1.493-2.684 1.635-3.254.114-.389.221-1.436.26-1.912.026-.673.024-2.24-.184-3.12-.26-1.098-.426-1.48-.638-1.915a7.396 7.396 0 0 0-1.192-1.757 6.172 6.172 0 0 0-1.799-1.348c-.675-.394-1.805-.582-2.285-.627Z" fill="#C4C4C4"/><path d="m29.796 17.167-5.26-.166c1.262.057 2.16.43 2.746.699.587.268 1.2.746 1.845 1.442.517.556.981 1.445 1.149 1.82.056.109.231.558.486 1.484.255.926.28 2.186.26 2.7-.016.562-.09 1.845-.251 2.482-.201.797-.394 1.468-.931 2.415-.537.948-.763 1.065-1.375 1.66-.49.477-1.004.764-1.2.848v.15c2.047.411 3.154 1.879 3.8 3.271.65 1.107.869 2.854.896 3.59a12.567 12.567 0 0 1-.326 3.873c-.118.459-.472 1.588-.948 2.44-.476.852-1.445 1.815-1.87 2.19-.131.102-.584.423-1.342.88-1.026.476-2.21.668-2.675.704 1.07-.022 3.61-.089 5.2-.176 1.341-.128 2.342-.618 2.674-.847.35-.17 1.273-.773 2.172-1.82.9-1.046 1.454-2.577 1.619-3.211.15-.627.439-2.265.385-3.807-.053-1.543-.385-2.64-.545-2.994-.1-.4-.538-1.468-1.484-2.541s-2.183-1.481-2.683-1.551v-.151c.338-.157 1.184-.666 1.861-1.451.88-.772 1.493-2.684 1.635-3.254.114-.389.221-1.436.26-1.912.026-.673.024-2.24-.184-3.12-.26-1.098-.426-1.48-.638-1.915a7.396 7.396 0 0 0-1.192-1.757 6.172 6.172 0 0 0-1.799-1.348c-.675-.394-1.805-.582-2.285-.627Z" fill="url(#d)"/><path d="m29.796 17.167-5.26-.166c1.262.057 2.16.43 2.746.699.587.268 1.2.746 1.845 1.442.517.556.981 1.445 1.149 1.82.056.109.231.558.486 1.484.255.926.28 2.186.26 2.7-.016.562-.09 1.845-.251 2.482-.201.797-.394 1.468-.931 2.415-.537.948-.763 1.065-1.375 1.66-.49.477-1.004.764-1.2.848v.15c2.047.411 3.154 1.879 3.8 3.271.65 1.107.869 2.854.896 3.59a12.567 12.567 0 0 1-.326 3.873c-.118.459-.472 1.588-.948 2.44-.476.852-1.445 1.815-1.87 2.19-.131.102-.584.423-1.342.88-1.026.476-2.21.668-2.675.704 1.07-.022 3.61-.089 5.2-.176 1.341-.128 2.342-.618 2.674-.847.35-.17 1.273-.773 2.172-1.82.9-1.046 1.454-2.577 1.619-3.211.15-.627.439-2.265.385-3.807-.053-1.543-.385-2.64-.545-2.994-.1-.4-.538-1.468-1.484-2.541s-2.183-1.481-2.683-1.551v-.151c.338-.157 1.184-.666 1.861-1.451.88-.772 1.493-2.684 1.635-3.254.114-.389.221-1.436.26-1.912.026-.673.024-2.24-.184-3.12-.26-1.098-.426-1.48-.638-1.915a7.396 7.396 0 0 0-1.192-1.757 6.172 6.172 0 0 0-1.799-1.348c-.675-.394-1.805-.582-2.285-.627Z" fill="url(#e)"/><path d="m23.5 40.4-4.95.07c.438 1.003 1.344 2.102 1.595 2.362.143.193.973.889 1.46 1.115.134.042 1.157.604 2.666.511 1.02-.107 1.716-.575 1.937-.796-1.165-.797-2.08-1.946-2.708-3.262Z" fill="#C4C4C4"/><path d="m23.5 40.4-4.95.07c.438 1.003 1.344 2.102 1.595 2.362.143.193.973.889 1.46 1.115.134.042 1.157.604 2.666.511 1.02-.107 1.716-.575 1.937-.796-1.165-.797-2.08-1.946-2.708-3.262Z" fill="url(#f)"/><path d="M25.925 23.257c-2.876-2.832-6.169.615-6.849 2.415.951.037 3.275.11 4.961.11.316-1.106 1.39-2.144 1.888-2.525Z" fill="#C4C4C4"/><path d="M25.925 23.257c-2.876-2.832-6.169.615-6.849 2.415.951.037 3.275.11 4.961.11.316-1.106 1.39-2.144 1.888-2.525Z" fill="url(#g)"/><path d="M30.523.235 29.19.024c.45.061.894.131 1.334.211l11.199 1.77c1.88.474 6.521 2.214 10.036 5.384 3.515 3.17 6.174 7.437 7.064 9.175l1.938 4.307c1.02 3.26 2.8 11.027 1.766 16.023-.62 5.03-2.498 9.993-3.36 11.845-1.076 2.598-4.66 8.683-10.38 12.232-3.015 2.541-9.39 4.049-14.73 4.609.66-.172 2.119-.586 2.67-.861.69-.345 19.795-8.675 18.098-34.44C53.495 14.252 44.357 2.734 30.524.235Z" fill="url(#h)"/><defs><linearGradient id="a" x1="27.753" y1="0" x2="40.011" y2="67.93" gradientUnits="userSpaceOnUse"><stop stop-color="#DEE5F8"/><stop offset="1" stop-color="#BDBEE3"/></linearGradient><linearGradient id="b" x1="38.08" y1="53.368" x2="-5.114" y2="2.099" gradientUnits="userSpaceOnUse"><stop stop-color="#fff" stop-opacity=".7"/><stop offset="1" stop-color="#A0A3CF"/></linearGradient><linearGradient id="d" x1="30.697" y1="17.001" x2="30.697" y2="49.649" gradientUnits="userSpaceOnUse"><stop stop-color="#E5E5E5"/><stop offset="1" stop-color="#E5E5E5" stop-opacity="0"/></linearGradient><linearGradient id="e" x1="53.522" y1="38.669" x2="30.697" y2="49.649" gradientUnits="userSpaceOnUse"><stop stop-color="#EFE6F6"/><stop offset="1" stop-color="#EEECF0"/></linearGradient><linearGradient id="f" x1="22.334" y1="36.5" x2="22.334" y2="52" gradientUnits="userSpaceOnUse"><stop offset=".161" stop-color="#F4F4F4"/><stop offset=".755" stop-color="#E5E5E5" stop-opacity="0"/></linearGradient><linearGradient id="g" x1="22.501" y1="22.18" x2="22.334" y2="31" gradientUnits="userSpaceOnUse"><stop stop-color="#E5E5E5"/><stop offset="1" stop-color="#E5E5E5" stop-opacity="0"/></linearGradient><linearGradient id="h" x1="79.558" y1="27.416" x2="12.69" y2="39.292" gradientUnits="userSpaceOnUse"><stop stop-color="#BDBEE3"/><stop offset="1" stop-color="#DEE5F8"/></linearGradient><filter id="c" x="11.333" y="9" width="40.52" height="52.675" filterUnits="userSpaceOnUse" color-interpolation-filters="sRGB"><feFlood flood-opacity="0" result="BackgroundImageFix"/><feColorMatrix in="SourceAlpha" values="0 0 0 0 0 0 0 0 0 0 0 0 0 0 0 0 0 0 127 0" result="hardAlpha"/><feOffset dx="5" dy="2"/><feGaussianBlur stdDeviation="5"/><feColorMatrix values="0 0 0 0 0.321569 0 0 0 0 0.156863 0 0 0 0 0.423529 0 0 0 0.3 0"/><feBlend in2="BackgroundImageFix" result="effect1_dropShadow_1115_102050"/><feBlend in="SourceGraphic" in2="effect1_dropShadow_1115_102050" result="shape"/></filter></defs></svg>