<svg width="48" height="48" viewBox="0 0 48 48" fill="none" xmlns="http://www.w3.org/2000/svg">
<circle cx="23.7159" cy="23.5909" r="23.5909" fill="#F8F8F8"/>
<g clip-path="url(#clip0_1150_650450)">
<path d="M22.5036 33.9436L13.8975 26.1528C11.5342 23.8413 11.5342 20.0803 13.8975 17.7688C16.2609 15.4573 20.1063 15.4573 22.4696 17.7688L22.5036 17.802L22.5495 17.7913C25.2858 15.7438 28.2337 15.4573 30.5971 17.7688C32.8598 19.9819 32.4558 23.0108 32.0891 23.5096C29.9443 26.4265 22.5338 33.912 22.5036 33.9436Z" fill="#FF8A85"/>
<path d="M32.6021 23.5085C32.9211 23.0746 32.8808 21.74 32.8808 21.74C32.687 16.5985 26.2723 14.1151 22.5379 17.7677L22.5039 17.801V33.9425L26.7036 30.1411C26.7035 30.1411 31.3768 25.1748 32.6021 23.5085Z" fill="#FF665E"/>
<path d="M23.9956 28.1405L29.9141 33.4979C34.6739 28.5742 36.5304 27.5972 36.5304 25.7529C36.5304 24.8473 36.3083 23.8226 35.5151 23.3555C33.8318 22.364 32.477 22.184 31.1254 23.5059L29.9141 24.3396L28.9079 23.3555C26.7377 21.2328 22.9902 22.7407 22.9902 25.7529C22.9902 26.6539 23.3472 27.5013 23.9956 28.1405Z" fill="#F6E486"/>
<path d="M35.8226 23.3547C34.4711 22.0328 32.2718 22.0328 30.9202 23.3547L29.9141 24.3389V33.4971L35.8326 28.1397C37.1768 26.8145 37.1748 24.6772 35.8226 23.3547Z" fill="#F0CE46"/>
</g>
<defs>
<clipPath id="clip0_1150_650450">
<rect width="24.7143" height="17.974" fill="white" transform="translate(12.125 16)"/>
</clipPath>
</defs>
</svg>
