<svg width="48" height="49" viewBox="0 0 48 49" fill="none" xmlns="http://www.w3.org/2000/svg">
<circle cx="23.7159" cy="24.2267" r="23.5909" fill="#F8F8F8"/>
<g clip-path="url(#clip0_1150_650433)" filter="url(#filter0_d_1150_650433)">
<path d="M22.2352 32.5093C22.0503 32.5872 21.8752 32.6504 21.7001 32.6796C21.6855 32.6844 21.6709 32.6844 21.6514 32.6844C21.5882 32.6942 21.5201 32.699 21.4569 32.699C21.4374 32.699 21.4131 32.699 21.3936 32.699C21.3158 32.6942 21.238 32.6844 21.165 32.6601C20.5716 32.4655 20.2505 31.7262 19.9149 31.0257C19.8614 30.9187 19.8078 30.8117 19.7543 30.7046C19.5695 30.3544 19.37 30.0382 19.1122 29.8485C19.015 29.7804 18.9079 29.7269 18.7863 29.6783C18.762 29.6685 18.7328 29.6588 18.7085 29.6491C18.5917 29.6053 18.4653 29.5713 18.3291 29.5421C18.3193 29.5421 18.3096 29.5372 18.2999 29.5372C18.1588 29.508 18.0129 29.4837 17.8621 29.4594C17.8572 29.4594 17.8524 29.4594 17.8475 29.4594C17.6578 29.4302 17.4632 29.4059 17.2735 29.3767C17.1908 29.3621 17.1081 29.3524 17.0254 29.3378C16.9719 29.328 16.9184 29.3183 16.8649 29.3086C16.8552 29.3086 16.8454 29.3037 16.8357 29.3037L16.539 29.8047L14.1992 33.74L18.4166 32.7817L19.5987 36.9408L21.8022 33.2292L22.2352 32.5093Z" fill="#FF7058"/>
<path d="M32.4149 29.795L32.1182 29.2988C32.1085 29.2988 32.0988 29.3037 32.089 29.3037C32.0355 29.3134 31.982 29.3231 31.9285 29.3329C31.8458 29.3475 31.7631 29.3621 31.6804 29.3718C31.4907 29.401 31.2961 29.4253 31.1064 29.4545C31.1016 29.4545 31.0967 29.4545 31.0918 29.4545C30.941 29.4739 30.7951 29.5031 30.6492 29.5323C30.6394 29.5323 30.6297 29.5372 30.62 29.5372C30.4886 29.5664 30.3622 29.6004 30.2406 29.6442C30.2162 29.6539 30.1871 29.6637 30.1627 29.6734C30.046 29.722 29.9341 29.7755 29.8368 29.8436C29.7347 29.9215 29.6374 30.0139 29.5498 30.1258C28.9369 30.8943 28.6596 32.3682 27.784 32.6504C27.7111 32.6747 27.6333 32.6844 27.5554 32.6893C27.536 32.6893 27.5116 32.6893 27.4922 32.6893C27.429 32.6893 27.3657 32.6844 27.2976 32.6747C27.283 32.6747 27.2684 32.6698 27.249 32.6698C27.0787 32.6407 26.8987 32.5823 26.7188 32.5045L27.142 33.2195L29.3455 36.931L30.5227 32.772L34.7401 33.7303L32.4149 29.795Z" fill="#FF7058"/>
<path d="M33.1648 19.6431C32.8388 18.6411 33.7582 17.0018 33.1502 16.1651C32.5372 15.3236 30.6888 15.6933 29.8472 15.0803C29.0154 14.4723 28.7965 12.5995 27.7945 12.2736C26.8265 11.9574 25.552 13.3389 24.4818 13.3389C23.4117 13.3389 22.1372 11.9623 21.1692 12.2736C20.1671 12.5995 19.9482 14.4723 19.1164 15.0803C18.2749 15.6933 16.4264 15.3236 15.8135 16.1651C15.2055 16.9969 16.1248 18.6411 15.7989 19.6431C15.4876 20.6063 13.7656 21.3943 13.7656 22.4645C13.7656 23.5346 15.4827 24.3178 15.7989 25.2858C16.1248 26.2879 15.2055 27.9272 15.8135 28.7638C16.4264 29.6054 18.2749 29.2357 19.1164 29.8486C19.9482 30.4566 20.1671 32.3294 21.1692 32.6553C22.1372 32.9667 23.4117 31.5852 24.4818 31.5852C25.552 31.5852 26.8265 32.9618 27.7945 32.6505C28.7965 32.3246 29.0154 30.4518 29.8472 29.8437C30.6888 29.2308 32.5372 29.6005 33.1502 28.759C33.7582 27.9272 32.8388 26.283 33.1648 25.2809C33.4761 24.3178 35.1981 23.5298 35.1981 22.4596C35.1932 21.3943 33.4761 20.6063 33.1648 19.6431Z" fill="#FFD15C"/>
<path d="M21.168 32.6504C20.166 32.3245 19.9471 30.4517 19.1153 29.8436C18.5753 29.4496 17.6219 29.4593 16.8436 29.2939L16.5469 29.795C16.8582 29.8777 17.189 29.9214 17.5052 29.9604C18.0062 30.0285 18.5267 30.0966 18.7894 30.2911C19.0472 30.4809 19.2709 30.9478 19.485 31.3954C19.8255 32.1104 20.2146 32.9228 20.9929 33.1757C21.1437 33.2244 21.3042 33.2487 21.4696 33.2487C21.5815 33.2487 21.6934 33.239 21.8053 33.2195L22.2285 32.5044C21.8588 32.6698 21.4939 32.7574 21.168 32.6504Z" fill="#F1543F"/>
<path d="M29.8466 29.8436C29.0148 30.4516 28.7959 32.3244 27.7938 32.6503C27.4679 32.7574 27.1079 32.6649 26.7285 32.5044L27.1517 33.2195C27.2636 33.2389 27.3755 33.2487 27.4874 33.2487C27.6527 33.2487 27.8133 33.2243 27.9641 33.1757C28.7424 32.9228 29.1315 32.1104 29.472 31.3953C29.6861 30.943 29.9098 30.476 30.1676 30.2863C30.4303 30.0965 30.9508 30.0284 31.4518 29.9603C31.768 29.9166 32.0988 29.8728 32.415 29.7901L32.1182 29.2891C31.3399 29.4593 30.3865 29.4545 29.8466 29.8436Z" fill="#F1543F"/>
<path d="M30.8938 22.464C30.8938 25.908 28.1794 28.7147 24.7792 28.8655C24.682 28.8704 24.5798 28.8752 24.4825 28.8752C20.9899 28.8752 18.1491 26.0831 18.0713 22.6099V22.5807C18.0664 22.5467 18.0664 22.5029 18.0664 22.464C18.0664 18.9227 20.9413 16.0527 24.4825 16.0527C28.0238 16.0479 30.8938 18.9179 30.8938 22.464Z" fill="#F8B64C"/>
</g>
<defs>
<filter id="filter0_d_1150_650433" x="4.125" y="8.22656" width="40.7148" height="40.7139" filterUnits="userSpaceOnUse" color-interpolation-filters="sRGB">
<feFlood flood-opacity="0" result="BackgroundImageFix"/>
<feColorMatrix in="SourceAlpha" type="matrix" values="0 0 0 0 0 0 0 0 0 0 0 0 0 0 0 0 0 0 127 0" result="hardAlpha"/>
<feOffset dy="4"/>
<feGaussianBlur stdDeviation="4"/>
<feColorMatrix type="matrix" values="0 0 0 0 0 0 0 0 0 0 0 0 0 0 0 0 0 0 0.2 0"/>
<feBlend mode="normal" in2="BackgroundImageFix" result="effect1_dropShadow_1150_650433"/>
<feBlend mode="normal" in="SourceGraphic" in2="effect1_dropShadow_1150_650433" result="shape"/>
</filter>
<clipPath id="clip0_1150_650433">
<rect width="24.7143" height="24.7143" fill="white" transform="translate(12.125 12.2266)"/>
</clipPath>
</defs>
</svg>
