<svg width="87" height="86" fill="none" xmlns="http://www.w3.org/2000/svg"><path d="m40.522 85.186-4.686.08.082-.001 4.604-.079Zm-.082 0-4.687.079h.083l4.604-.08Zm-.083-.004-4.687.08.083.003 4.604-.083Zm-.083-.006-4.686.08.082.005 4.604-.085Zm-.082-.008-4.687.08.083.007 4.604-.087Zm-.082-.01-4.687.08.082.01 4.605-.09Zm-.082-.013-4.686.08.081.012 4.605-.091Zm-.082-.014-4.686.079.082.015 4.604-.094Zm-.081-.017-4.686.079.08.017 4.606-.096Zm-.081-.02-4.686.08.08.019 4.606-.099Zm-.08-.021-4.687.079.08.021 4.606-.1Zm-.08-.024-4.687.079.08.024 4.606-.103Zm-.08-.027-4.686.08.08.026 4.606-.106Zm-8.206-3.42-4.681.08 8.2 3.42-3.519-3.5Zm-6.818-4.039-4.677.084 6.814 4.036-2.137-4.12Zm-5.558-4.57-4.674.086 5.555 4.568-.881-4.654Zm-4.425-5.016-4.671.089 4.422 5.013.25-5.102ZM11.12 62.6l-4.67.092 3.417 5.373L11.12 62.6Zm-2.537-5.65-4.668.096 2.536 5.646 2.132-5.741Zm-1.784-5.836-4.667.099 1.783 5.833 2.884-5.932Zm-1.157-5.939-4.666.103 1.156 5.935 3.51-6.038Zm-.656-5.954-4.666.106.656 5.95 4.01-6.056Zm-.283-5.884-4.666.11.283 5.88 4.383-5.99Zm-.036-5.727L0 27.724l.036 5.724 4.63-5.837Zm.084-5.484-4.666.116L0 27.723l4.75-5.596Zm.011-.571-4.666.116-.01.57 4.676-.686Zm.011-.566-4.666.117-.01.565 4.676-.682Zm.01-.56-4.666.116-.01.56 4.676-.677Zm.01-.557-4.666.117-.01.556 4.676-.673Zm.01-.551-4.667.117-.009.552 4.675-.67Zm.008-.547-4.666.117-.009.547 4.675-.665Zm.007-.544-4.666.118-.007.543 4.673-.66Zm.007-.539-4.666.119-.007.538 4.673-.657Zm.005-.535-4.666.118-.005.536 4.67-.654Zm.004-.532-4.666.119-.004.531 4.67-.65Zm.002-.53-4.666.12-.002.529 4.668-.648Zm0-.525-4.665.12v.525l4.666-.645Zm.028-.403-4.666.12-.027.403 4.693-.523Zm.08-.387-4.666.12-.08.387 4.746-.507Zm.128-.367-4.666.12-.128.367 4.794-.487Zm.173-.343-4.666.12-.173.344 4.839-.464Zm.215-.316-4.667.12-.214.316 4.88-.436Zm.252-.286-4.666.121-.253.286 4.92-.407Zm.287-.25-4.667.12-.286.251 4.953-.372Zm.318-.214-4.667.12-.318.214 4.985-.334Zm.345-.173-4.667.122-.345.172 5.012-.294Zm.369-.127-4.668.121-.368.128 5.036-.25Zm.389-.08-4.668.122-.389.08 5.057-.201Zm.405-.026-4.668.121-.405.027 5.073-.148Zm6.142-.307-4.672.121-3.008.23 7.68-.351Zm2.892-.387-4.673.122-2.89.386 7.563-.508Zm2.78-.544-4.674.122-2.779.544 7.453-.666Zm2.674-.704-4.677.122-2.671.704 7.348-.826Zm2.57-.866-4.677.123-2.57.865 7.247-.988Zm2.474-1.029-4.679.124-2.472 1.028 7.151-1.152Zm2.381-1.194-4.68.124-2.38 1.194 7.06-1.318Zm2.295-1.362-4.682.125-2.293 1.361 6.975-1.486Zm2.211-1.53L29.56 4.8l-2.21 1.53 6.893-1.656Zm2.134-1.702-4.684.127-2.133 1.7 6.817-1.827ZM38.44 1.1l-4.685.128-2.06 1.873 6.745-2Zm.304-.257L34.057.97l-.303.257 4.989-.385Zm.327-.21L34.384.76l-.327.21L39.07.632Zm.346-.164L34.73.596l-.346.164 5.032-.292Zm.361-.117L35.092.48l-.36.117 5.046-.245Zm.37-.07L35.462.41l-.37.07 5.056-.198Zm.375-.024-4.686.129-.375.023 5.061-.152Zm.083 84.928-.083.001-4.604.079 4.687-.08Zm-.083.001h-.082l-4.604.08 4.686-.08Zm-.082 0-.083-.004-4.604.083 4.687-.08Zm-.083-.004-.083-.006-4.604.085 4.687-.079Zm-.083-.006-.082-.008-4.604.087 4.686-.079Zm-.082-.008-.082-.01-4.605.09 4.687-.08Zm-.082-.01-.082-.013-4.605.092 4.687-.079Zm-.082-.013-.082-.014-4.604.094 4.686-.08Zm-.082-.014-.081-.017-4.605.096 4.686-.08Zm-.081-.017-.081-.02-4.605.099 4.686-.08Zm-.081-.02-.08-.021-4.606.1 4.686-.079Zm-.08-.021-.08-.024-4.607.103 4.686-.08Zm-.08-.024-.08-.027-4.607.106 4.686-.08Zm-.08-.027-8.206-3.42 3.52 3.5 4.686-.08Zm-8.206-3.42-6.818-4.039 2.137 4.12 4.681-.081Zm-6.818-4.039-5.558-4.57.88 4.654 4.678-.084Zm-5.558-4.57-4.425-5.016-.25 5.102 4.675-.086Zm-4.425-5.016L11.12 62.6l-1.253 5.465 4.671-.09ZM11.12 62.6l-2.537-5.65-2.132 5.742 4.67-.092Zm-2.537-5.65-1.784-5.836-2.884 5.932 4.668-.095Zm-1.784-5.836-1.157-5.939-3.51 6.038 4.667-.1Zm-1.157-5.939-.656-5.954-4.01 6.057 4.666-.103Zm-.656-5.954-.283-5.884-4.383 5.99 4.666-.106Zm-.283-5.884-.036-5.727-4.63 5.837 4.666-.11Zm-.036-5.727.084-5.484L0 27.724l4.666-.113Zm.084-5.484.011-.571-4.677.686 4.666-.115Zm.011-.571.011-.566-4.677.682 4.666-.116Zm.011-.566.01-.56-4.676.677 4.666-.117Zm.01-.56.01-.557-4.676.673 4.666-.116Zm.01-.557.01-.551-4.676.669 4.666-.118Zm.01-.551.008-.547-4.675.664 4.666-.117Zm.008-.547.007-.544-4.673.661 4.666-.117Zm.007-.544.007-.539-4.673.657 4.666-.118Zm.007-.539.005-.535-4.671.654 4.666-.119Zm.005-.535.004-.532-4.67.65 4.666-.118Zm.004-.532.002-.53-4.668.649 4.666-.12Zm.002-.53v-.525l-4.666.645 4.666-.12Zm0-.525.028-.403-4.693.523 4.666-.12Zm.028-.403.08-.387-4.746.507 4.666-.12Zm.08-.387.128-.367-4.794.487 4.666-.12Zm.128-.367.173-.343-4.84.464 4.667-.12Zm.173-.343.215-.316-4.881.437 4.666-.121Zm.215-.316.252-.286-4.919.407 4.667-.121Zm.252-.286.287-.25-4.953.371 4.666-.12Zm.287-.25.318-.214-4.985.334 4.667-.12Zm.318-.214.345-.173-5.012.294 4.667-.121Zm.345-.173.369-.127-5.036.248 4.667-.12Zm.369-.127.389-.08-5.057.201 4.668-.121Zm.389-.08.405-.026-5.073.148 4.668-.121Zm3.537-.103 3.01-.23-7.68.352 4.67-.122Zm3.01-.23 2.892-.387-7.564.508 4.671-.121Zm2.892-.387 2.78-.544-7.453.666 4.673-.122Zm2.78-.544 2.674-.704-7.348.826 4.674-.122Zm2.674-.704 2.57-.866-7.247.988 4.677-.122Zm2.57-.866 2.474-1.029-7.151 1.152 4.678-.123Zm2.474-1.029 2.381-1.194-7.06 1.318 4.68-.124Zm2.381-1.194 2.295-1.362-6.975 1.486 4.68-.124Zm2.295-1.362 2.211-1.53L27.35 6.33l4.681-.125Zm2.211-1.53 2.134-1.702L29.561 4.8l4.683-.126Zm2.134-1.702L38.44 1.1l-6.747 2 4.684-.127ZM38.44 1.1l.304-.257-4.99.385L38.44 1.1Zm.304-.257.327-.21-5.013.338 4.686-.128Zm.327-.21.346-.164-5.032.292L39.07.632Zm.346-.164.361-.117-5.047.245 4.686-.128Zm.361-.117.37-.07-5.056.198 4.686-.128Zm.37-.07.375-.024-5.061.152 4.686-.128Zm5.067 84.826-4.692.08.083-.002 4.61-.078Zm-.082 0-4.692.078.082.001 4.61-.08Zm-.083-.004-4.692.079.083.003 4.609-.082Zm-.083-.006-4.692.08.083.005 4.61-.085Zm-.082-.008-4.692.08.082.007 4.61-.087Zm-.082-.01-4.692.079.082.01 4.61-.09Zm-.082-.013-4.692.08.082.012 4.61-.092Zm-.082-.015-4.692.08.082.014 4.61-.094Zm-.081-.017-4.692.08.081.017 4.61-.097Zm-.082-.02-4.691.08.08.02 4.611-.1Zm-.08-.02-4.692.079.08.021 4.612-.1Zm-.08-.025-4.692.08.08.024 4.612-.104Zm-.08-.026-4.691.08.08.026 4.611-.106Zm-8.21-3.423-4.687.082 8.206 3.42-3.519-3.502Zm-6.822-4.04-4.683.083 6.818 4.039-2.135-4.123Zm-5.562-4.574-4.68.087 5.559 4.57-.879-4.657Zm-4.427-5.019-4.677.09 4.425 5.016.252-5.105Zm-3.42-5.378-4.675.092 3.418 5.376 1.257-5.468Zm-2.539-5.653-4.673.096 2.537 5.65 2.136-5.746Zm-1.785-5.84-4.672.099 1.784 5.837 2.888-5.936Zm-1.157-5.942-4.672.102 1.157 5.939 3.515-6.041Zm-.657-5.958-4.671.106.656 5.954 4.015-6.06Zm-.283-5.887-4.671.11.283 5.883 4.388-5.993Zm-.036-5.73-4.671.112.036 5.727 4.635-5.84Zm.085-5.488-4.672.116-.084 5.484 4.756-5.6Zm.01-.571-4.67.116-.012.57 4.683-.686Zm.011-.566-4.671.116-.01.566 4.681-.682Zm.01-.561-4.67.117-.011.56 4.682-.677Zm.01-.557-4.67.117-.01.556 4.68-.673Zm.01-.552-4.672.118-.009.551 4.68-.669Zm.008-.547-4.671.117-.009.548 4.68-.665Zm.007-.544-4.67.118-.008.543 4.678-.66Zm.007-.54-4.671.12-.007.538 4.678-.657Zm.005-.535-4.671.119-.005.535 4.676-.654Zm.004-.533-4.671.12-.004.532 4.675-.652Zm.002-.528-4.67.119-.003.529 4.673-.649Zm.001-.526-4.671.12v.525l4.671-.645Zm.028-.404-4.672.12-.027.403 4.699-.523Zm.08-.387-4.672.12-.08.387 4.751-.507Zm.127-.367-4.671.12-.128.367 4.8-.487Zm.173-.344-4.671.121-.173.343 4.844-.464Zm.215-.316-4.671.12-.215.317 4.886-.437Zm.253-.286-4.672.121-.252.286 4.924-.407Zm.287-.251-4.672.121-.287.251 4.96-.372Zm.318-.214-4.672.122-.318.213 4.99-.335Zm.345-.172-4.672.121-.345.173 5.017-.294Zm.37-.128-4.673.122-.37.127 5.042-.248Zm.388-.079-4.672.122-.39.079 5.062-.2Zm.406-.027-4.673.122-.405.027 5.078-.149Zm6.145-.307-4.676.122-3.01.23 7.686-.352Zm2.894-.387-4.678.122-2.893.387 7.571-.509Zm2.782-.544-4.68.122-2.78.544 7.46-.666Zm2.675-.705-4.681.123-2.674.704 7.355-.827Zm2.573-.866-4.683.123-2.571.866 7.253-.989Zm2.475-1.03-4.685.124-2.474 1.03 7.159-1.154Zm2.382-1.195-4.686.125-2.38 1.194 7.066-1.319ZM36.72 6.08l-4.688.125-2.293 1.362 6.98-1.487Zm2.213-1.531-4.689.126-2.212 1.53 6.9-1.656Zm2.135-1.703-4.69.127-2.134 1.702 6.824-1.829ZM43.13.971l-4.69.128-2.063 1.874L43.13.971Zm.304-.257-4.691.128-.304.257 4.995-.385Zm.327-.21L39.07.631l-.327.21L43.76.503Zm.347-.165-4.692.129-.346.164 5.038-.293Zm.36-.117-4.691.129-.36.117 5.052-.246Zm.371-.07-4.692.129-.37.07 5.062-.199Zm.375-.023-4.692.128-.375.024 5.067-.152Zm.083 84.977-.083.001-4.61.078 4.693-.079Zm-.083.001h-.082l-4.61.08 4.692-.08Zm-.082 0-.083-.004-4.61.082 4.693-.079Zm-.083-.004-.083-.006-4.61.085 4.693-.08Zm-.083-.006-.082-.008-4.61.087 4.692-.079Zm-.082-.008-.082-.01-4.61.09 4.692-.08Zm-.082-.01-.082-.013-4.61.092 4.692-.08Zm-.082-.013-.082-.015-4.61.094 4.692-.079Zm-.082-.015-.081-.017-4.61.097 4.69-.08Zm-.081-.017-.082-.02-4.61.1 4.691-.08Zm-.082-.02-.08-.02-4.611.1 4.691-.08Zm-.08-.02-.08-.025-4.612.104 4.692-.08Zm-.08-.025-.08-.026-4.612.106 4.692-.08Zm-.08-.026-8.21-3.423 3.519 3.502 4.691-.079Zm-8.21-3.423-6.822-4.04 2.135 4.122 4.687-.082Zm-6.822-4.04-5.562-4.574.879 4.657 4.683-.084Zm-5.562-4.574-4.427-5.019-.252 5.106 4.68-.087Zm-4.427-5.019-3.42-5.378-1.257 5.468 4.677-.09Zm-3.42-5.378-2.539-5.653-2.136 5.745 4.675-.092Zm-2.539-5.653-1.785-5.84-2.888 5.936 4.673-.096Zm-1.785-5.84-1.157-5.942-3.515 6.04 4.672-.098Zm-1.157-5.942-.657-5.958-4.015 6.06 4.672-.102Zm-.657-5.958-.283-5.887-4.388 5.993 4.671-.106Zm-.283-5.887-.036-5.73-4.635 5.84 4.671-.11Zm-.036-5.73.085-5.488-4.756 5.6 4.671-.113Zm.085-5.488.01-.571-4.682.687 4.672-.116Zm.01-.571.011-.566-4.682.682 4.672-.116Zm.011-.566.01-.561-4.681.677 4.671-.116Zm.01-.561.01-.557-4.68.674 4.67-.117Zm.01-.557.01-.552-4.68.67 4.67-.118Zm.01-.552.008-.547-4.68.665 4.672-.118Zm.008-.547.007-.544-4.678.662 4.671-.118Zm.007-.544.007-.54-4.678.658 4.671-.118Zm.007-.54.005-.535-4.676.654 4.67-.118Zm.005-.535.004-.533-4.675.652 4.671-.12Zm.004-.533.002-.528-4.673.648 4.671-.12Zm.002-.528.001-.526-4.672.645 4.671-.12Zm.001-.526.028-.404-4.7.523 4.672-.12Zm.028-.404.08-.387-4.752.507 4.672-.12Zm.08-.387.127-.367-4.8.487 4.672-.12Zm.127-.367.173-.344-4.844.464 4.671-.12Zm.173-.344.215-.316-4.886.437 4.671-.12Zm.215-.316.253-.286-4.924.407 4.671-.12Zm.253-.286.287-.251-4.959.372 4.672-.12Zm.287-.251.318-.214-4.99.335 4.672-.121Zm.318-.214.345-.172-5.017.294 4.672-.122Zm.345-.172.37-.128-5.042.25 4.672-.122Zm.37-.128.388-.079-5.061.2 4.672-.12Zm.388-.079.406-.027-5.078.149 4.672-.122Zm3.54-.103 3.011-.23-7.686.351 4.675-.121Zm3.011-.23 2.894-.388-7.57.509 4.676-.122Zm2.894-.388 2.782-.544-7.46.666 4.678-.122Zm2.782-.544 2.675-.705-7.355.827 4.68-.122Zm2.675-.705 2.573-.866-7.254.989 4.681-.123Zm2.573-.866 2.475-1.03-7.158 1.153 4.683-.123Zm2.475-1.03 2.382-1.195-7.067 1.32 4.685-.125Zm2.382-1.195L36.72 6.08l-6.982 1.487 4.686-.125ZM36.72 6.08l2.213-1.531-6.9 1.656 4.687-.125Zm2.213-1.531 2.135-1.703-6.824 1.829 4.689-.126Zm2.135-1.703L43.13.971l-6.753 2.002 4.69-.127ZM43.13.971l.304-.257-4.995.385L43.13.971Zm.304-.257.327-.21-5.018.338 4.69-.128Zm.327-.21.347-.165-5.038.293 4.691-.129Zm.347-.165.36-.117-5.052.246 4.692-.129Zm.36-.117.371-.07-5.062.199 4.692-.129Zm.371-.07.375-.023-5.067.152L44.84.152Zm5.073 84.876-4.698.08.083-.002 4.615-.078Zm-.083-.001-4.697.08h.082l4.615-.08Zm-.083-.004-4.697.08.083.003 4.614-.083Zm-.082-.005-4.698.079.083.006 4.615-.085Zm-.083-.008-4.697.079.082.008 4.615-.087ZM49.5 85l-4.697.079.082.01 4.615-.09Zm-.082-.013-4.697.08.082.012 4.615-.092Zm-.082-.015-4.697.08.082.014 4.615-.094Zm-.081-.017-4.697.08.08.016 4.617-.096Zm-.081-.02-4.698.08.081.02 4.617-.1Zm-.081-.021-4.697.08.08.02 4.617-.1Zm-.08-.024-4.697.08.08.023 4.617-.103Zm-.08-.026-4.697.08.08.025 4.617-.105Zm-8.215-3.425-4.692.081 8.21 3.423-3.518-3.504Zm-6.826-4.043-4.688.083 6.822 4.041-2.134-4.124Zm-5.565-4.576-4.685.086 5.562 4.573-.877-4.659Zm-4.43-5.022-4.682.09 4.427 5.018.256-5.108Zm-3.421-5.382-4.68.093 3.419 5.379 1.26-5.472Zm-2.54-5.656-4.68.096 2.54 5.653 2.14-5.749Zm-1.787-5.843-4.678.099 1.785 5.84 2.893-5.94ZM14.99 44.97l-4.677.103 1.157 5.942 3.52-6.045Zm-.657-5.961-4.677.106.657 5.958 4.02-6.064Zm-.283-5.89-4.677.109.283 5.887 4.394-5.997Zm-.036-5.734-4.677.113.036 5.73 4.64-5.843Zm.084-5.491-4.676.116-.085 5.488 4.761-5.604Zm.011-.572-4.676.117-.011.57 4.687-.687Zm.011-.566-4.677.117-.01.566 4.687-.683Zm.01-.562-4.676.118-.01.56 4.686-.678Zm.01-.556-4.677.117-.01.557 4.687-.674Zm.01-.552-4.677.117-.01.552 4.686-.67Zm.008-.548-4.677.118-.008.547 4.685-.665Zm.007-.544-4.677.118-.007.544 4.684-.662Zm.007-.54-4.677.119-.007.54 4.684-.66Zm.005-.536-4.677.119-.005.536 4.682-.655Zm.004-.533-4.677.12-.004.532 4.68-.652Zm.002-.53-4.677.12-.002.53 4.68-.65Zm.001-.525-4.677.12v.525l4.677-.645Zm.027-.404-4.676.12-.028.404 4.704-.524Zm.08-.387-4.677.12-.08.387 4.757-.507Zm.128-.368-4.677.12-.128.368 4.805-.488Zm.173-.343-4.677.12-.173.344 4.85-.464Zm.215-.317-4.677.121-.215.316 4.892-.437Zm.253-.286-4.677.121-.253.286 4.93-.407Zm.288-.251-4.678.121-.287.251 4.965-.372Zm.318-.214-4.678.121-.318.214 4.996-.335Zm.345-.172-4.678.121-.345.172 5.023-.293Zm.37-.128-4.679.121-.369.128 5.047-.25Zm.389-.08-4.679.122-.389.08 5.068-.201Zm.406-.026-4.679.121-.406.027 5.085-.148Zm6.148-.308-4.682.122-3.011.23 7.693-.352Zm2.896-.387-4.684.122-2.894.387 7.578-.509Zm2.784-.545-4.686.123-2.782.544 7.468-.667Zm2.676-.704-4.687.122-2.675.705 7.362-.827Zm2.574-.867-4.688.123-2.573.866 7.26-.99Zm2.477-1.03-4.69.123-2.475 1.03 7.165-1.153Zm2.384-1.196-4.692.124-2.382 1.195 7.074-1.32Zm2.296-1.363-4.692.125-2.296 1.362 6.988-1.487Zm2.215-1.532-4.694.126-2.213 1.531 6.907-1.657Zm2.136-1.704-4.695.127-2.135 1.703 6.83-1.83ZM47.827.843 43.13.97l-2.063 1.875 6.76-2.003Zm.303-.258-4.696.129-.304.257 5-.386Zm.328-.21-4.697.128-.327.21 5.024-.338Zm.347-.164-4.697.128-.347.164 5.044-.292Zm.36-.117L44.47.222l-.361.117 5.058-.245Zm.371-.07L44.84.151l-.37.07 5.067-.199ZM49.912 0l-4.698.129-.375.023L49.912 0Zm.083 85.027h-.083l-4.615.08 4.698-.08Zm-.083 0h-.083l-4.615.08 4.698-.08Zm-.083 0-.083-.004-4.614.083 4.697-.08Zm-.083-.004-.082-.005-4.615.085 4.697-.08Zm-.082-.005-.083-.008-4.615.087 4.698-.08Zm-.083-.008L49.5 85l-4.615.089 4.697-.08ZM49.5 85l-.082-.013-4.615.092 4.697-.08Zm-.082-.013-.082-.015-4.615.094 4.697-.08Zm-.082-.015-.081-.017-4.616.096 4.697-.079Zm-.081-.017-.081-.02-4.617.1 4.698-.08Zm-.081-.02-.081-.021-4.617.1 4.698-.078Zm-.081-.021-.08-.024-4.617.103 4.697-.08Zm-.08-.024-.08-.026-4.617.105 4.697-.08Zm-.08-.026-8.215-3.425 3.518 3.504 4.697-.08Zm-8.215-3.425-6.826-4.043 2.134 4.124 4.692-.081Zm-6.826-4.043-5.565-4.576.877 4.66 4.688-.084Zm-5.565-4.576-4.43-5.022-.255 5.108 4.685-.086Zm-4.43-5.022-3.421-5.382-1.261 5.472 4.683-.09Zm-3.421-5.382-2.54-5.656-2.14 5.749 4.68-.093Zm-2.54-5.656-1.787-5.843-2.893 5.939 4.68-.096Zm-1.787-5.843L14.99 44.97l-3.52 6.045 4.678-.1ZM14.99 44.97l-.657-5.961-4.02 6.064 4.677-.103Zm-.657-5.961-.283-5.89-4.394 5.996 4.677-.106Zm-.283-5.89-.036-5.734-4.641 5.843 4.677-.11Zm-.036-5.734.084-5.491-4.76 5.604 4.676-.113Zm.084-5.491.011-.572-4.687.688 4.676-.116Zm.011-.572.011-.566-4.687.683 4.676-.117Zm.011-.566.01-.562-4.687.679 4.677-.117Zm.01-.562.01-.556-4.686.674 4.676-.117Zm.01-.556.01-.552-4.687.67 4.677-.118Zm.01-.552.008-.548-4.685.665 4.676-.117Zm.008-.548.007-.544-4.684.662 4.677-.118Zm.007-.544.007-.54-4.684.658 4.677-.118Zm.007-.54.005-.536-4.682.655 4.677-.12Zm.005-.536.004-.533-4.68.652 4.676-.12Zm.004-.533.002-.53-4.679.65 4.677-.12Zm.002-.53.001-.525-4.678.646 4.677-.12Zm.001-.525.027-.404-4.704.524 4.677-.12Zm.027-.404.08-.387-4.756.507 4.676-.12Zm.08-.387.128-.368-4.805.488 4.677-.12Zm.128-.368.173-.343-4.85.464 4.677-.12Zm.173-.343.215-.317-4.892.437 4.678-.12Zm.215-.317.253-.286-4.93.407 4.677-.12Zm.253-.286.288-.251-4.965.372 4.677-.12Zm.288-.251.318-.214-4.996.335 4.678-.121Zm.318-.214.345-.172-5.023.293 4.678-.121Zm.345-.172.37-.128-5.048.249 4.678-.122Zm.37-.128.389-.08-5.068.201 4.678-.121Zm.389-.08.406-.026-5.085.148 4.679-.121Zm3.541-.103 3.013-.23-7.693.352 4.68-.122Zm3.013-.23 2.896-.388-7.578.51 4.682-.123Zm2.896-.388 2.784-.545-7.468.667 4.684-.122Zm2.784-.545 2.676-.704-7.362.827 4.686-.123Zm2.676-.704 2.574-.867-7.26.99 4.686-.123Zm2.574-.867 2.477-1.03-7.166 1.153 4.689-.123Zm2.477-1.03 2.384-1.196-7.074 1.32 4.69-.124Zm2.384-1.196 2.296-1.363-6.988 1.487 4.692-.124Zm2.296-1.363 2.215-1.532-6.907 1.657 4.692-.125Zm2.215-1.532 2.136-1.704-6.83 1.83 4.694-.126Zm2.136-1.704L47.827.843l-6.76 2.003 4.695-.127ZM47.827.843l.303-.258-5 .386 4.697-.128Zm.303-.258.328-.21-5.024.339L48.13.585Zm.328-.21.347-.164-5.044.292 4.697-.128Zm.347-.164.36-.117-5.057.245 4.697-.128Zm.36-.117.371-.07-5.067.198 4.697-.128Zm.371-.07L49.912 0l-5.073.152 4.697-.129Z" fill="#03A3E6"/><path d="m85.813 27.384-.084-5.49-.011-.572.095 6.062Zm-.319 11.625.283-5.89.036-5.735-.319 11.625Zm-1.816 11.907 1.159-5.946.657-5.961-1.816 11.907Zm-4.327 11.5 2.541-5.657 1.786-5.843-4.327 11.5ZM71.5 72.82l4.43-5.022 3.422-5.383L71.5 72.82Zm-12.392 8.619 6.827-4.044L71.5 72.82l-12.392 8.619Zm-8.295 3.45.08-.025 8.215-3.425-8.295 3.45Zm-.16.047.08-.022.08-.024-.16.046Zm-.163.036.081-.017.081-.02-.162.037Zm-.164.027.082-.012.082-.015-.164.027Zm-.165.019.082-.008.083-.01-.165.018Zm-.165.009.082-.004.083-.005-.165.009Zm-.166 0h.166-.166Zm-.165-.01.082.006.083.004-.165-.01ZM49.499 85l.082.01.083.009-.165-.019Zm-.164-.027.082.015.082.012-.164-.027Zm-.162-.036.08.019.082.017-.162-.036Zm-.161-.046.08.024.08.022-.16-.046Zm-8.295-3.451 8.215 3.425.08.026-8.295-3.451Zm-12.39-8.619 5.564 4.576 6.826 4.043-12.39-8.619Zm-7.852-10.404 3.421 5.382 4.43 5.022-7.851-10.404Zm-4.327-11.5 1.786 5.844 2.54 5.656-4.326-11.5ZM14.333 39.01l.657 5.961 1.158 5.946-1.815-11.907Zm-.32-11.624.037 5.733.283 5.89-.32-11.623Zm.096-6.063-.01.572-.085 5.49.095-6.062Zm.102-6.396-.027.404v.526l.027-.93Zm.208-.755-.128.368-.08.387.208-.755Zm.388-.66-.215.317-.173.343.388-.66Zm.54-.537-.287.251-.253.286.54-.537Zm.664-.386-.345.172-.319.214.664-.386Zm.759-.207-.39.079-.369.127.759-.206Zm3.541-.104-3.136.077-.405.027 3.541-.104ZM48.131.585l-.305.258-2.064 1.876L48.13.585Zm.674-.374-.347.164-.328.21.675-.374Zm.731-.188-.37.07-.361.118.731-.188Zm.751 0L49.912 0l-.376.023h.751Zm.732.188-.361-.117-.37-.07.731.187Zm.675.374-.328-.21-.347-.164.675.374Zm2.368 2.134L51.998.843l-.304-.258 2.368 2.134Zm28.996 9.663-.406-.027-3.136-.077 3.542.104Zm.758.207-.369-.128-.39-.08.76.207Zm.664.386-.318-.214-.346-.172.664.386Zm.54.537-.253-.286-.287-.251.54.537Zm.388.66-.173-.343-.215-.317.388.66Zm.208.755-.08-.387-.128-.368.208.755Zm.028.93v-.526l-.028-.404.028.93Zm.17 11.527-.096-6.062-.01-.566.105 6.628Zm-2.136 23.532 1.816-11.907.32-11.625-2.136 23.532ZM71.5 72.82l7.852-10.404 4.327-11.5L71.5 72.82ZM50.812 84.89l8.295-3.451 12.392-8.62-20.687 12.07Zm-.323.082.162-.036.16-.046-.322.082Zm-.33.046.166-.019.164-.027-.33.046Zm-.33.009h.166l.165-.01-.331.01Zm-.33-.028.165.019.165.009-.33-.028Zm-.326-.063.162.036.164.027-.326-.063Zm-8.456-3.497 8.295 3.45.16.047-8.455-3.497ZM20.475 62.416l7.851 10.404 12.391 8.619-20.242-19.023ZM14.333 39.01l1.815 11.907 4.327 11.5-6.142-23.407Zm-.224-17.687-.095 6.063.319 11.624-.224-17.687Zm.102-6.396-.028.93-.002.53.03-1.46Zm.596-1.415-.388.66-.208.755.596-1.415Zm1.204-.924-.663.387-.54.537 1.203-.924Zm4.3-.31-3.541.104-.759.207 4.3-.31ZM48.805.211l-.675.374-2.368 2.134L48.805.211Zm1.482-.188h-.75l-.732.188 1.482-.188Zm1.407.562-.675-.374-.732-.188 1.407.562ZM83.816 12.59l-.758-.207-3.542-.104 4.3.31Zm1.204.923-.54-.537-.664-.386 1.204.923Zm.596 1.415-.208-.755-.388-.66.596 1.415Zm.03 1.459-.002-.53-.028-.93.03 1.46Zm.167 10.998-.106-6.628-.01-.562.116 7.19ZM71.5 72.82l12.18-21.904 2.134-23.532L71.5 72.82ZM50.49 84.972l.323-.082L71.5 72.82 50.49 84.972Zm-.66.055.33-.01.33-.045-.66.055Zm-.656-.091.326.063.33.028-.656-.091Zm-28.698-22.52L40.717 81.44l8.456 3.497-28.698-22.52ZM14.11 21.323l.224 17.687 6.142 23.406-6.366-41.093Zm.102-6.396-.03 1.46-.004.532.034-1.992Zm1.8-2.338-1.204.923-.596 1.415 1.8-2.338ZM50.287.022 48.805.21l-3.043 2.508L50.287.023Zm3.775 2.696L51.694.585 50.287.023l3.775 2.696ZM85.02 13.512l-1.204-.924-4.3-.31 5.504 1.234Zm.626 2.874-.03-1.46-.596-1.414.626 2.874Zm.167 10.998-.116-7.19-.01-.556.126 7.746ZM50.49 84.972 71.5 72.82l14.314-45.436L50.49 84.972Zm-1.316-.036.656.09.66-.054-1.316-.036ZM14.109 21.323l6.366 41.093 28.698 22.52-35.064-63.613Zm.102-6.396-.034 1.992-.005.536.04-2.528Zm6.1-2.649-4.3.31-1.8 2.339 6.1-2.649ZM50.287.023 45.762 2.72l-2.137 1.704 6.662-4.4Zm5.912 4.4-2.137-1.704L50.287.023l5.912 4.4Zm28.82 9.09-5.503-1.235-3.014-.23 8.518 1.464Zm.631 3.405-.004-.532-.626-2.874.63 3.406Zm.163 10.466-.126-7.746-.009-.552.135 8.298Zm-36.64 57.552 1.316.036 35.324-57.588-36.64 57.552ZM14.12 20.755l-.01.567 35.063 63.612L14.12 20.758Zm.091-5.83-.04 2.529-.006.54.046-3.068Zm9.113-2.879-3.013.231-6.1 2.649 9.113-2.88ZM50.287.023l-6.662 4.4-2.214 1.532L50.287.023Zm34.733 13.49-8.517-1.466-2.897-.387 11.414 1.852Zm.636 3.941-.006-.536-.63-3.406.636 3.942ZM49.173 84.935l36.64-57.55-.135-8.3-36.505 65.85ZM14.13 20.195l-.01.562 35.053 64.178-35.043-64.74Zm.081-5.268-.046 3.068-.007.544.053-3.612Zm12.01-3.267-2.897.387-9.113 2.88 12.01-3.267Zm29.978-7.237-5.912-4.4-8.876 5.932L56.2 4.423Zm29.457 13.031-.636-3.942-11.414-1.852 12.05 5.794ZM49.173 84.935l36.505-65.85-.008-.547-36.497 66.398ZM14.14 19.64l-.01.556 35.043 64.74L14.14 19.64Zm12.08-7.979-12.009 3.267-.053 3.612 12.062-6.88ZM56.2 4.423 41.41 5.955l-2.297 1.363L56.2 4.423Zm29.457 13.031-12.05-5.794-2.784-.545 14.834 6.34ZM49.173 84.935 85.67 18.538l-.008-.544-36.49 66.942ZM14.149 19.086l-.009.553 35.033 65.297-35.024-65.85ZM26.22 11.66l-12.062 6.88-.009.547L26.22 11.66ZM56.2 4.423 39.115 7.318 36.73 8.514 56.2 4.423Zm29.457 13.031-14.834-6.339-2.676-.704 17.51 7.043ZM49.173 84.935l36.49-66.94-.007-.54-36.483 67.48ZM26.22 11.66l-12.07 7.427 35.023 65.849L26.22 11.66ZM56.2 4.423l-19.47 4.09-2.476 1.03 21.945-5.12Zm29.457 13.031-17.51-7.043-2.574-.867 20.084 7.91ZM26.22 11.66l22.953 73.276 36.483-67.482L26.22 11.66ZM56.2 4.423l-21.945 5.12-2.574.868L56.2 4.423ZM26.22 11.66l59.436 5.794-20.084-7.91L26.22 11.66ZM56.2 4.423 31.68 10.41l-2.676.704 27.195-6.692ZM26.22 11.66l39.352-2.116-2.477-1.03L26.22 11.66Zm32.193-5.705L56.2 4.423l-27.195 6.692 29.41-5.16ZM26.22 11.66l36.875-3.146-2.385-1.196-34.49 4.342Zm32.193-5.705-29.41 5.16-2.783.545 32.193-5.705ZM26.22 11.66l34.49-4.342-2.297-1.363L26.22 11.66Z" fill="#03A3E6"/><mask id="a" style="mask-type:alpha" maskUnits="userSpaceOnUse" x="0" y="0" width="86" height="86"><path d="m40.522 85.186-4.686.08.082-.001 4.604-.079Zm-.082 0-4.687.079h.083l4.604-.08Zm-.083-.004-4.687.08.083.003 4.604-.083Zm-.083-.006-4.686.08.082.005 4.604-.085Zm-.082-.008-4.687.08.083.007 4.604-.087Zm-.082-.01-4.687.08.082.01 4.605-.09Zm-.082-.013-4.686.08.081.012 4.605-.091Zm-.082-.014-4.686.079.082.015 4.604-.094Zm-.081-.017-4.686.079.08.017 4.606-.096Zm-.081-.02-4.686.08.08.019 4.606-.099Zm-.08-.021-4.687.079.08.021 4.606-.1Zm-.08-.024-4.687.079.08.024 4.606-.103Zm-.08-.027-4.686.08.08.026 4.606-.106Zm-8.206-3.42-4.681.08 8.2 3.42-3.519-3.5Zm-6.818-4.039-4.677.084 6.814 4.036-2.137-4.12Zm-5.558-4.57-4.674.086 5.555 4.568-.881-4.654Zm-4.425-5.016-4.671.089 4.422 5.013.25-5.102ZM11.12 62.6l-4.67.092 3.417 5.373L11.12 62.6Zm-2.537-5.65-4.668.096 2.536 5.646 2.132-5.741Zm-1.784-5.836-4.667.099 1.783 5.833 2.884-5.932Zm-1.157-5.939-4.666.103 1.156 5.935 3.51-6.038Zm-.656-5.954-4.666.106.656 5.95 4.01-6.056Zm-.283-5.884-4.666.11.283 5.88 4.383-5.99Zm-.036-5.727L0 27.724l.036 5.724 4.63-5.837Zm.084-5.484-4.666.116L0 27.723l4.75-5.596Zm.011-.571-4.666.116-.01.57 4.676-.686Zm.011-.566-4.666.117-.01.565 4.676-.682Zm.01-.56-4.666.116-.01.56 4.676-.677Zm.01-.557-4.666.117-.01.556 4.676-.673Zm.01-.551-4.667.117-.009.552 4.675-.67Zm.008-.547-4.666.117-.009.547 4.675-.665Zm.007-.544-4.666.118-.007.543 4.673-.66Zm.007-.539-4.666.119-.007.538 4.673-.657Zm.005-.535-4.666.118-.005.536 4.67-.654Zm.004-.532-4.666.119-.004.531 4.67-.65Zm.002-.53-4.666.12-.002.529 4.668-.648Zm0-.525-4.665.12v.525l4.666-.645Zm.028-.403-4.666.12-.027.403 4.693-.523Zm.08-.387-4.666.12-.08.387 4.746-.507Zm.128-.367-4.666.12-.128.367 4.794-.487Zm.173-.343-4.666.12-.173.344 4.839-.464Zm.215-.316-4.667.12-.214.316 4.88-.436Zm.252-.286-4.666.121-.253.286 4.92-.407Zm.287-.25-4.667.12-.286.251 4.953-.372Zm.318-.214-4.667.12-.318.214 4.985-.334Zm.345-.173-4.667.122-.345.172 5.012-.294Zm.369-.127-4.668.121-.368.128 5.036-.25Zm.389-.08-4.668.122-.389.08 5.057-.201Zm.405-.026-4.668.121-.405.027 5.073-.148Zm6.142-.307-4.672.121-3.008.23 7.68-.351Zm2.892-.387-4.673.122-2.89.386 7.563-.508Zm2.78-.544-4.674.122-2.779.544 7.453-.666Zm2.674-.704-4.677.122-2.671.704 7.348-.826Zm2.57-.866-4.677.123-2.57.865 7.247-.988Zm2.474-1.029-4.679.124-2.472 1.028 7.151-1.152Zm2.381-1.194-4.68.124-2.38 1.194 7.06-1.318Zm2.295-1.362-4.682.125-2.293 1.361 6.975-1.486Zm2.211-1.53L29.56 4.8l-2.21 1.53 6.893-1.656Zm2.134-1.702-4.684.127-2.133 1.7 6.817-1.827ZM38.44 1.1l-4.685.128-2.06 1.873 6.745-2Zm.304-.257L34.057.97l-.303.257 4.989-.385Zm.327-.21L34.384.76l-.327.21L39.07.632Zm.346-.164L34.73.596l-.346.164 5.032-.292Zm.361-.117L35.092.48l-.36.117 5.046-.245Zm.37-.07L35.462.41l-.37.07 5.056-.198Zm.375-.024-4.686.129-.375.023 5.061-.152Zm.083 84.928-.083.001-4.604.079 4.687-.08Zm-.083.001h-.082l-4.604.08 4.686-.08Zm-.082 0-.083-.004-4.604.083 4.687-.08Zm-.083-.004-.083-.006-4.604.085 4.687-.079Zm-.083-.006-.082-.008-4.604.087 4.686-.079Zm-.082-.008-.082-.01-4.605.09 4.687-.08Zm-.082-.01-.082-.013-4.605.092 4.687-.079Zm-.082-.013-.082-.014-4.604.094 4.686-.08Zm-.082-.014-.081-.017-4.605.096 4.686-.08Zm-.081-.017-.081-.02-4.605.099 4.686-.08Zm-.081-.02-.08-.021-4.606.1 4.686-.079Zm-.08-.021-.08-.024-4.607.103 4.686-.08Zm-.08-.024-.08-.027-4.607.106 4.686-.08Zm-.08-.027-8.206-3.42 3.52 3.5 4.686-.08Zm-8.206-3.42-6.818-4.039 2.137 4.12 4.681-.081Zm-6.818-4.039-5.558-4.57.88 4.654 4.678-.084Zm-5.558-4.57-4.425-5.016-.25 5.102 4.675-.086Zm-4.425-5.016L11.12 62.6l-1.253 5.465 4.671-.09ZM11.12 62.6l-2.537-5.65-2.132 5.742 4.67-.092Zm-2.537-5.65-1.784-5.836-2.884 5.932 4.668-.095Zm-1.784-5.836-1.157-5.939-3.51 6.038 4.667-.1Zm-1.157-5.939-.656-5.954-4.01 6.057 4.666-.103Zm-.656-5.954-.283-5.884-4.383 5.99 4.666-.106Zm-.283-5.884-.036-5.727-4.63 5.837 4.666-.11Zm-.036-5.727.084-5.484L0 27.724l4.666-.113Zm.084-5.484.011-.571-4.677.686 4.666-.115Zm.011-.571.011-.566-4.677.682 4.666-.116Zm.011-.566.01-.56-4.676.677 4.666-.117Zm.01-.56.01-.557-4.676.673 4.666-.116Zm.01-.557.01-.551-4.676.669 4.666-.118Zm.01-.551.008-.547-4.675.664 4.666-.117Zm.008-.547.007-.544-4.673.661 4.666-.117Zm.007-.544.007-.539-4.673.657 4.666-.118Zm.007-.539.005-.535-4.671.654 4.666-.119Zm.005-.535.004-.532-4.67.65 4.666-.118Zm.004-.532.002-.53-4.668.649 4.666-.12Zm.002-.53v-.525l-4.666.645 4.666-.12Zm0-.525.028-.403-4.693.523 4.666-.12Zm.028-.403.08-.387-4.746.507 4.666-.12Zm.08-.387.128-.367-4.794.487 4.666-.12Zm.128-.367.173-.343-4.84.464 4.667-.12Zm.173-.343.215-.316-4.881.437 4.666-.121Zm.215-.316.252-.286-4.919.407 4.667-.121Zm.252-.286.287-.25-4.953.371 4.666-.12Zm.287-.25.318-.214-4.985.334 4.667-.12Zm.318-.214.345-.173-5.012.294 4.667-.121Zm.345-.173.369-.127-5.036.248 4.667-.12Zm.369-.127.389-.08-5.057.201 4.668-.121Zm.389-.08.405-.026-5.073.148 4.668-.121Zm3.537-.103 3.01-.23-7.68.352 4.67-.122Zm3.01-.23 2.892-.387-7.564.508 4.671-.121Zm2.892-.387 2.78-.544-7.453.666 4.673-.122Zm2.78-.544 2.674-.704-7.348.826 4.674-.122Zm2.674-.704 2.57-.866-7.247.988 4.677-.122Zm2.57-.866 2.474-1.029-7.151 1.152 4.678-.123Zm2.474-1.029 2.381-1.194-7.06 1.318 4.68-.124Zm2.381-1.194 2.295-1.362-6.975 1.486 4.68-.124Zm2.295-1.362 2.211-1.53L27.35 6.33l4.681-.125Zm2.211-1.53 2.134-1.702L29.561 4.8l4.683-.126Zm2.134-1.702L38.44 1.1l-6.747 2 4.684-.127ZM38.44 1.1l.304-.257-4.99.385L38.44 1.1Zm.304-.257.327-.21-5.013.338 4.686-.128Zm.327-.21.346-.164-5.032.292L39.07.632Zm.346-.164.361-.117-5.047.245 4.686-.128Zm.361-.117.37-.07-5.056.198 4.686-.128Zm.37-.07.375-.024-5.061.152 4.686-.128Zm5.067 84.826-4.692.08.083-.002 4.61-.078Zm-.082 0-4.692.078.082.001 4.61-.08Zm-.083-.004-4.692.079.083.003 4.609-.082Zm-.083-.006-4.692.08.083.005 4.61-.085Zm-.082-.008-4.692.08.082.007 4.61-.087Zm-.082-.01-4.692.079.082.01 4.61-.09Zm-.082-.013-4.692.08.082.012 4.61-.092Zm-.082-.015-4.692.08.082.014 4.61-.094Zm-.081-.017-4.692.08.081.017 4.61-.097Zm-.082-.02-4.691.08.08.02 4.611-.1Zm-.08-.02-4.692.079.08.021 4.612-.1Zm-.08-.025-4.692.08.08.024 4.612-.104Zm-.08-.026-4.691.08.08.026 4.611-.106Zm-8.21-3.423-4.687.082 8.206 3.42-3.519-3.502Zm-6.822-4.04-4.683.083 6.818 4.039-2.135-4.123Zm-5.562-4.574-4.68.087 5.559 4.57-.879-4.657Zm-4.427-5.019-4.677.09 4.425 5.016.252-5.105Zm-3.42-5.378-4.675.092 3.418 5.376 1.257-5.468Zm-2.539-5.653-4.673.096 2.537 5.65 2.136-5.746Zm-1.785-5.84-4.672.099 1.784 5.837 2.888-5.936Zm-1.157-5.942-4.672.102 1.157 5.939 3.515-6.041Zm-.657-5.958-4.671.106.656 5.954 4.015-6.06Zm-.283-5.887-4.671.11.283 5.883 4.388-5.993Zm-.036-5.73-4.671.112.036 5.727 4.635-5.84Zm.085-5.488-4.672.116-.084 5.484 4.756-5.6Zm.01-.571-4.67.116-.012.57 4.683-.686Zm.011-.566-4.671.116-.01.566 4.681-.682Zm.01-.561-4.67.117-.011.56 4.682-.677Zm.01-.557-4.67.117-.01.556 4.68-.673Zm.01-.552-4.672.118-.009.551 4.68-.669Zm.008-.547-4.671.117-.009.548 4.68-.665Zm.007-.544-4.67.118-.008.543 4.678-.66Zm.007-.54-4.671.12-.007.538 4.678-.657Zm.005-.535-4.671.119-.005.535 4.676-.654Zm.004-.533-4.671.12-.004.532 4.675-.652Zm.002-.528-4.67.119-.003.529 4.673-.649Zm.001-.526-4.671.12v.525l4.671-.645Zm.028-.404-4.672.12-.027.403 4.699-.523Zm.08-.387-4.672.12-.08.387 4.751-.507Zm.127-.367-4.671.12-.128.367 4.8-.487Zm.173-.344-4.671.121-.173.343 4.844-.464Zm.215-.316-4.671.12-.215.317 4.886-.437Zm.253-.286-4.672.121-.252.286 4.924-.407Zm.287-.251-4.672.121-.287.251 4.96-.372Zm.318-.214-4.672.122-.318.213 4.99-.335Zm.345-.172-4.672.121-.345.173 5.017-.294Zm.37-.128-4.673.122-.37.127 5.042-.248Zm.388-.079-4.672.122-.39.079 5.062-.2Zm.406-.027-4.673.122-.405.027 5.078-.149Zm6.145-.307-4.676.122-3.01.23 7.686-.352Zm2.894-.387-4.678.122-2.893.387 7.571-.509Zm2.782-.544-4.68.122-2.78.544 7.46-.666Zm2.675-.705-4.681.123-2.674.704 7.355-.827Zm2.573-.866-4.683.123-2.571.866 7.253-.989Zm2.475-1.03-4.685.124-2.474 1.03 7.159-1.154Zm2.382-1.195-4.686.125-2.38 1.194 7.066-1.319ZM36.72 6.08l-4.688.125-2.293 1.362 6.98-1.487Zm2.213-1.531-4.689.126-2.212 1.53 6.9-1.656Zm2.135-1.703-4.69.127-2.134 1.702 6.824-1.829ZM43.13.971l-4.69.128-2.063 1.874L43.13.971Zm.304-.257-4.691.128-.304.257 4.995-.385Zm.327-.21L39.07.631l-.327.21L43.76.503Zm.347-.165-4.692.129-.346.164 5.038-.293Zm.36-.117-4.691.129-.36.117 5.052-.246Zm.371-.07-4.692.129-.37.07 5.062-.199Zm.375-.023-4.692.128-.375.024 5.067-.152Zm.083 84.977-.083.001-4.61.078 4.693-.079Zm-.083.001h-.082l-4.61.08 4.692-.08Zm-.082 0-.083-.004-4.61.082 4.693-.079Zm-.083-.004-.083-.006-4.61.085 4.693-.08Zm-.083-.006-.082-.008-4.61.087 4.692-.079Zm-.082-.008-.082-.01-4.61.09 4.692-.08Zm-.082-.01-.082-.013-4.61.092 4.692-.08Zm-.082-.013-.082-.015-4.61.094 4.692-.079Zm-.082-.015-.081-.017-4.61.097 4.69-.08Zm-.081-.017-.082-.02-4.61.1 4.691-.08Zm-.082-.02-.08-.02-4.611.1 4.691-.08Zm-.08-.02-.08-.025-4.612.104 4.692-.08Zm-.08-.025-.08-.026-4.612.106 4.692-.08Zm-.08-.026-8.21-3.423 3.519 3.502 4.691-.079Zm-8.21-3.423-6.822-4.04 2.135 4.122 4.687-.082Zm-6.822-4.04-5.562-4.574.879 4.657 4.683-.084Zm-5.562-4.574-4.427-5.019-.252 5.106 4.68-.087Zm-4.427-5.019-3.42-5.378-1.257 5.468 4.677-.09Zm-3.42-5.378-2.539-5.653-2.136 5.745 4.675-.092Zm-2.539-5.653-1.785-5.84-2.888 5.936 4.673-.096Zm-1.785-5.84-1.157-5.942-3.515 6.04 4.672-.098Zm-1.157-5.942-.657-5.958-4.015 6.06 4.672-.102Zm-.657-5.958-.283-5.887-4.388 5.993 4.671-.106Zm-.283-5.887-.036-5.73-4.635 5.84 4.671-.11Zm-.036-5.73.085-5.488-4.756 5.6 4.671-.113Zm.085-5.488.01-.571-4.682.687 4.672-.116Zm.01-.571.011-.566-4.682.682 4.672-.116Zm.011-.566.01-.561-4.681.677 4.671-.116Zm.01-.561.01-.557-4.68.674 4.67-.117Zm.01-.557.01-.552-4.68.67 4.67-.118Zm.01-.552.008-.547-4.68.665 4.672-.118Zm.008-.547.007-.544-4.678.662 4.671-.118Zm.007-.544.007-.54-4.678.658 4.671-.118Zm.007-.54.005-.535-4.676.654 4.67-.118Zm.005-.535.004-.533-4.675.652 4.671-.12Zm.004-.533.002-.528-4.673.648 4.671-.12Zm.002-.528.001-.526-4.672.645 4.671-.12Zm.001-.526.028-.404-4.7.523 4.672-.12Zm.028-.404.08-.387-4.752.507 4.672-.12Zm.08-.387.127-.367-4.8.487 4.672-.12Zm.127-.367.173-.344-4.844.464 4.671-.12Zm.173-.344.215-.316-4.886.437 4.671-.12Zm.215-.316.253-.286-4.924.407 4.671-.12Zm.253-.286.287-.251-4.959.372 4.672-.12Zm.287-.251.318-.214-4.99.335 4.672-.121Zm.318-.214.345-.172-5.017.294 4.672-.122Zm.345-.172.37-.128-5.042.25 4.672-.122Zm.37-.128.388-.079-5.061.2 4.672-.12Zm.388-.079.406-.027-5.078.149 4.672-.122Zm3.54-.103 3.011-.23-7.686.351 4.675-.121Zm3.011-.23 2.894-.388-7.57.509 4.676-.122Zm2.894-.388 2.782-.544-7.46.666 4.678-.122Zm2.782-.544 2.675-.705-7.355.827 4.68-.122Zm2.675-.705 2.573-.866-7.254.989 4.681-.123Zm2.573-.866 2.475-1.03-7.158 1.153 4.683-.123Zm2.475-1.03 2.382-1.195-7.067 1.32 4.685-.125Zm2.382-1.195L36.72 6.08l-6.982 1.487 4.686-.125ZM36.72 6.08l2.213-1.531-6.9 1.656 4.687-.125Zm2.213-1.531 2.135-1.703-6.824 1.829 4.689-.126Zm2.135-1.703L43.13.971l-6.753 2.002 4.69-.127ZM43.13.971l.304-.257-4.995.385L43.13.971Zm.304-.257.327-.21-5.018.338 4.69-.128Zm.327-.21.347-.165-5.038.293 4.691-.129Zm.347-.165.36-.117-5.052.246 4.692-.129Zm.36-.117.371-.07-5.062.199 4.692-.129Zm.371-.07.375-.023-5.067.152L44.84.152Zm5.073 84.876-4.698.08.083-.002 4.615-.078Zm-.083-.001-4.697.08h.082l4.615-.08Zm-.083-.004-4.697.08.083.003 4.614-.083Zm-.082-.005-4.698.079.083.006 4.615-.085Zm-.083-.008-4.697.079.082.008 4.615-.087ZM49.5 85l-4.697.079.082.01 4.615-.09Zm-.082-.013-4.697.08.082.012 4.615-.092Zm-.082-.015-4.697.08.082.014 4.615-.094Zm-.081-.017-4.697.08.08.016 4.617-.096Zm-.081-.02-4.698.08.081.02 4.617-.1Zm-.081-.021-4.697.08.08.02 4.617-.1Zm-.08-.024-4.697.08.08.023 4.617-.103Zm-.08-.026-4.697.08.08.025 4.617-.105Zm-8.215-3.425-4.692.081 8.21 3.423-3.518-3.504Zm-6.826-4.043-4.688.083 6.822 4.041-2.134-4.124Zm-5.565-4.576-4.685.086 5.562 4.573-.877-4.659Zm-4.43-5.022-4.682.09 4.427 5.018.256-5.108Zm-3.421-5.382-4.68.093 3.419 5.379 1.26-5.472Zm-2.54-5.656-4.68.096 2.54 5.653 2.14-5.749Zm-1.787-5.843-4.678.099 1.785 5.84 2.893-5.94ZM14.99 44.97l-4.677.103 1.157 5.942 3.52-6.045Zm-.657-5.961-4.677.106.657 5.958 4.02-6.064Zm-.283-5.89-4.677.109.283 5.887 4.394-5.997Zm-.036-5.734-4.677.113.036 5.73 4.64-5.843Zm.084-5.491-4.676.116-.085 5.488 4.761-5.604Zm.011-.572-4.676.117-.011.57 4.687-.687Zm.011-.566-4.677.117-.01.566 4.687-.683Zm.01-.562-4.676.118-.01.56 4.686-.678Zm.01-.556-4.677.117-.01.557 4.687-.674Zm.01-.552-4.677.117-.01.552 4.686-.67Zm.008-.548-4.677.118-.008.547 4.685-.665Zm.007-.544-4.677.118-.007.544 4.684-.662Zm.007-.54-4.677.119-.007.54 4.684-.66Zm.005-.536-4.677.119-.005.536 4.682-.655Zm.004-.533-4.677.12-.004.532 4.68-.652Zm.002-.53-4.677.12-.002.53 4.68-.65Zm.001-.525-4.677.12v.525l4.677-.645Zm.027-.404-4.676.12-.028.404 4.704-.524Zm.08-.387-4.677.12-.08.387 4.757-.507Zm.128-.368-4.677.12-.128.368 4.805-.488Zm.173-.343-4.677.12-.173.344 4.85-.464Zm.215-.317-4.677.121-.215.316 4.892-.437Zm.253-.286-4.677.121-.253.286 4.93-.407Zm.288-.251-4.678.121-.287.251 4.965-.372Zm.318-.214-4.678.121-.318.214 4.996-.335Zm.345-.172-4.678.121-.345.172 5.023-.293Zm.37-.128-4.679.121-.369.128 5.047-.25Zm.389-.08-4.679.122-.389.08 5.068-.201Zm.406-.026-4.679.121-.406.027 5.085-.148Zm6.148-.308-4.682.122-3.011.23 7.693-.352Zm2.896-.387-4.684.122-2.894.387 7.578-.509Zm2.784-.545-4.686.123-2.782.544 7.468-.667Zm2.676-.704-4.687.122-2.675.705 7.362-.827Zm2.574-.867-4.688.123-2.573.866 7.26-.99Zm2.477-1.03-4.69.123-2.475 1.03 7.165-1.153Zm2.384-1.196-4.692.124-2.382 1.195 7.074-1.32Zm2.296-1.363-4.692.125-2.296 1.362 6.988-1.487Zm2.215-1.532-4.694.126-2.213 1.531 6.907-1.657Zm2.136-1.704-4.695.127-2.135 1.703 6.83-1.83ZM47.827.843 43.13.97l-2.063 1.875 6.76-2.003Zm.303-.258-4.696.129-.304.257 5-.386Zm.328-.21-4.697.128-.327.21 5.024-.338Zm.347-.164-4.697.128-.347.164 5.044-.292Zm.36-.117L44.47.222l-.361.117 5.058-.245Zm.371-.07L44.84.151l-.37.07 5.067-.199ZM49.912 0l-4.698.129-.375.023L49.912 0Zm.083 85.027h-.083l-4.615.08 4.698-.08Zm-.083 0h-.083l-4.615.08 4.698-.08Zm-.083 0-.083-.004-4.614.083 4.697-.08Zm-.083-.004-.082-.005-4.615.085 4.697-.08Zm-.082-.005-.083-.008-4.615.087 4.698-.08Zm-.083-.008L49.5 85l-4.615.089 4.697-.08ZM49.5 85l-.082-.013-4.615.092 4.697-.08Zm-.082-.013-.082-.015-4.615.094 4.697-.08Zm-.082-.015-.081-.017-4.616.096 4.697-.079Zm-.081-.017-.081-.02-4.617.1 4.698-.08Zm-.081-.02-.081-.021-4.617.1 4.698-.078Zm-.081-.021-.08-.024-4.617.103 4.697-.08Zm-.08-.024-.08-.026-4.617.105 4.697-.08Zm-.08-.026-8.215-3.425 3.518 3.504 4.697-.08Zm-8.215-3.425-6.826-4.043 2.134 4.124 4.692-.081Zm-6.826-4.043-5.565-4.576.877 4.66 4.688-.084Zm-5.565-4.576-4.43-5.022-.255 5.108 4.685-.086Zm-4.43-5.022-3.421-5.382-1.261 5.472 4.683-.09Zm-3.421-5.382-2.54-5.656-2.14 5.749 4.68-.093Zm-2.54-5.656-1.787-5.843-2.893 5.939 4.68-.096Zm-1.787-5.843L14.99 44.97l-3.52 6.045 4.678-.1ZM14.99 44.97l-.657-5.961-4.02 6.064 4.677-.103Zm-.657-5.961-.283-5.89-4.394 5.996 4.677-.106Zm-.283-5.89-.036-5.734-4.641 5.843 4.677-.11Zm-.036-5.734.084-5.491-4.76 5.604 4.676-.113Zm.084-5.491.011-.572-4.687.688 4.676-.116Zm.011-.572.011-.566-4.687.683 4.676-.117Zm.011-.566.01-.562-4.687.679 4.677-.117Zm.01-.562.01-.556-4.686.674 4.676-.117Zm.01-.556.01-.552-4.687.67 4.677-.118Zm.01-.552.008-.548-4.685.665 4.676-.117Zm.008-.548.007-.544-4.684.662 4.677-.118Zm.007-.544.007-.54-4.684.658 4.677-.118Zm.007-.54.005-.536-4.682.655 4.677-.12Zm.005-.536.004-.533-4.68.652 4.676-.12Zm.004-.533.002-.53-4.679.65 4.677-.12Zm.002-.53.001-.525-4.678.646 4.677-.12Zm.001-.525.027-.404-4.704.524 4.677-.12Zm.027-.404.08-.387-4.756.507 4.676-.12Zm.08-.387.128-.368-4.805.488 4.677-.12Zm.128-.368.173-.343-4.85.464 4.677-.12Zm.173-.343.215-.317-4.892.437 4.678-.12Zm.215-.317.253-.286-4.93.407 4.677-.12Zm.253-.286.288-.251-4.965.372 4.677-.12Zm.288-.251.318-.214-4.996.335 4.678-.121Zm.318-.214.345-.172-5.023.293 4.678-.121Zm.345-.172.37-.128-5.048.249 4.678-.122Zm.37-.128.389-.08-5.068.201 4.678-.121Zm.389-.08.406-.026-5.085.148 4.679-.121Zm3.541-.103 3.013-.23-7.693.352 4.68-.122Zm3.013-.23 2.896-.388-7.578.51 4.682-.123Zm2.896-.388 2.784-.545-7.468.667 4.684-.122Zm2.784-.545 2.676-.704-7.362.827 4.686-.123Zm2.676-.704 2.574-.867-7.26.99 4.686-.123Zm2.574-.867 2.477-1.03-7.166 1.153 4.689-.123Zm2.477-1.03 2.384-1.196-7.074 1.32 4.69-.124Zm2.384-1.196 2.296-1.363-6.988 1.487 4.692-.124Zm2.296-1.363 2.215-1.532-6.907 1.657 4.692-.125Zm2.215-1.532 2.136-1.704-6.83 1.83 4.694-.126Zm2.136-1.704L47.827.843l-6.76 2.003 4.695-.127ZM47.827.843l.303-.258-5 .386 4.697-.128Zm.303-.258.328-.21-5.024.339L48.13.585Zm.328-.21.347-.164-5.044.292 4.697-.128Zm.347-.164.36-.117-5.057.245 4.697-.128Zm.36-.117.371-.07-5.067.198 4.697-.128Zm.371-.07L49.912 0l-5.073.152 4.697-.129Z" fill="#03A3E6"/><path d="m85.813 27.384-.084-5.49-.011-.572.095 6.062Zm-.319 11.625.283-5.89.036-5.735-.319 11.625Zm-1.816 11.907 1.159-5.946.657-5.961-1.816 11.907Zm-4.327 11.5 2.541-5.657 1.786-5.843-4.327 11.5ZM71.5 72.82l4.43-5.022 3.422-5.383L71.5 72.82Zm-12.392 8.619 6.827-4.044L71.5 72.82l-12.392 8.619Zm-8.295 3.45.08-.025 8.215-3.425-8.295 3.45Zm-.16.047.08-.022.08-.024-.16.046Zm-.163.036.081-.017.081-.02-.162.037Zm-.164.027.082-.012.082-.015-.164.027Zm-.165.019.082-.008.083-.01-.165.018Zm-.165.009.082-.004.083-.005-.165.009Zm-.166 0h.166-.166Zm-.165-.01.082.006.083.004-.165-.01ZM49.499 85l.082.01.083.009-.165-.019Zm-.164-.027.082.015.082.012-.164-.027Zm-.162-.036.08.019.082.017-.162-.036Zm-.161-.046.08.024.08.022-.16-.046Zm-8.295-3.451 8.215 3.425.08.026-8.295-3.451Zm-12.39-8.619 5.564 4.576 6.826 4.043-12.39-8.619Zm-7.852-10.404 3.421 5.382 4.43 5.022-7.851-10.404Zm-4.327-11.5 1.786 5.844 2.54 5.656-4.326-11.5ZM14.333 39.01l.657 5.961 1.158 5.946-1.815-11.907Zm-.32-11.624.037 5.733.283 5.89-.32-11.623Zm.096-6.063-.01.572-.085 5.49.095-6.062Zm.102-6.396-.027.404v.526l.027-.93Zm.208-.755-.128.368-.08.387.208-.755Zm.388-.66-.215.317-.173.343.388-.66Zm.54-.537-.287.251-.253.286.54-.537Zm.664-.386-.345.172-.319.214.664-.386Zm.759-.207-.39.079-.369.127.759-.206Zm3.541-.104-3.136.077-.405.027 3.541-.104ZM48.131.585l-.305.258-2.064 1.876L48.13.585Zm.674-.374-.347.164-.328.21.675-.374Zm.731-.188-.37.07-.361.118.731-.188Zm.751 0L49.912 0l-.376.023h.751Zm.732.188-.361-.117-.37-.07.731.187Zm.675.374-.328-.21-.347-.164.675.374Zm2.368 2.134L51.998.843l-.304-.258 2.368 2.134Zm28.996 9.663-.406-.027-3.136-.077 3.542.104Zm.758.207-.369-.128-.39-.08.76.207Zm.664.386-.318-.214-.346-.172.664.386Zm.54.537-.253-.286-.287-.251.54.537Zm.388.66-.173-.343-.215-.317.388.66Zm.208.755-.08-.387-.128-.368.208.755Zm.028.93v-.526l-.028-.404.028.93Zm.17 11.527-.096-6.062-.01-.566.105 6.628Zm-2.136 23.532 1.816-11.907.32-11.625-2.136 23.532ZM71.5 72.82l7.852-10.404 4.327-11.5L71.5 72.82ZM50.812 84.89l8.295-3.451 12.392-8.62-20.687 12.07Zm-.323.082.162-.036.16-.046-.322.082Zm-.33.046.166-.019.164-.027-.33.046Zm-.33.009h.166l.165-.01-.331.01Zm-.33-.028.165.019.165.009-.33-.028Zm-.326-.063.162.036.164.027-.326-.063Zm-8.456-3.497 8.295 3.45.16.047-8.455-3.497ZM20.475 62.416l7.851 10.404 12.391 8.619-20.242-19.023ZM14.333 39.01l1.815 11.907 4.327 11.5-6.142-23.407Zm-.224-17.687-.095 6.063.319 11.624-.224-17.687Zm.102-6.396-.028.93-.002.53.03-1.46Zm.596-1.415-.388.66-.208.755.596-1.415Zm1.204-.924-.663.387-.54.537 1.203-.924Zm4.3-.31-3.541.104-.759.207 4.3-.31ZM48.805.211l-.675.374-2.368 2.134L48.805.211Zm1.482-.188h-.75l-.732.188 1.482-.188Zm1.407.562-.675-.374-.732-.188 1.407.562ZM83.816 12.59l-.758-.207-3.542-.104 4.3.31Zm1.204.923-.54-.537-.664-.386 1.204.923Zm.596 1.415-.208-.755-.388-.66.596 1.415Zm.03 1.459-.002-.53-.028-.93.03 1.46Zm.167 10.998-.106-6.628-.01-.562.116 7.19ZM71.5 72.82l12.18-21.904 2.134-23.532L71.5 72.82ZM50.49 84.972l.323-.082L71.5 72.82 50.49 84.972Zm-.66.055.33-.01.33-.045-.66.055Zm-.656-.091.326.063.33.028-.656-.091Zm-28.698-22.52L40.717 81.44l8.456 3.497-28.698-22.52ZM14.11 21.323l.224 17.687 6.142 23.406-6.366-41.093Zm.102-6.396-.03 1.46-.004.532.034-1.992Zm1.8-2.338-1.204.923-.596 1.415 1.8-2.338ZM50.287.022 48.805.21l-3.043 2.508L50.287.023Zm3.775 2.696L51.694.585 50.287.023l3.775 2.696ZM85.02 13.512l-1.204-.924-4.3-.31 5.504 1.234Zm.626 2.874-.03-1.46-.596-1.414.626 2.874Zm.167 10.998-.116-7.19-.01-.556.126 7.746ZM50.49 84.972 71.5 72.82l14.314-45.436L50.49 84.972Zm-1.316-.036.656.09.66-.054-1.316-.036ZM14.109 21.323l6.366 41.093 28.698 22.52-35.064-63.613Zm.102-6.396-.034 1.992-.005.536.04-2.528Zm6.1-2.649-4.3.31-1.8 2.339 6.1-2.649ZM50.287.023 45.762 2.72l-2.137 1.704 6.662-4.4Zm5.912 4.4-2.137-1.704L50.287.023l5.912 4.4Zm28.82 9.09-5.503-1.235-3.014-.23 8.518 1.464Zm.631 3.405-.004-.532-.626-2.874.63 3.406Zm.163 10.466-.126-7.746-.009-.552.135 8.298Zm-36.64 57.552 1.316.036 35.324-57.588-36.64 57.552ZM14.12 20.755l-.01.567 35.063 63.612L14.12 20.758Zm.091-5.83-.04 2.529-.006.54.046-3.068Zm9.113-2.879-3.013.231-6.1 2.649 9.113-2.88ZM50.287.023l-6.662 4.4-2.214 1.532L50.287.023Zm34.733 13.49-8.517-1.466-2.897-.387 11.414 1.852Zm.636 3.941-.006-.536-.63-3.406.636 3.942ZM49.173 84.935l36.64-57.55-.135-8.3-36.505 65.85ZM14.13 20.195l-.01.562 35.053 64.178-35.043-64.74Zm.081-5.268-.046 3.068-.007.544.053-3.612Zm12.01-3.267-2.897.387-9.113 2.88 12.01-3.267Zm29.978-7.237-5.912-4.4-8.876 5.932L56.2 4.423Zm29.457 13.031-.636-3.942-11.414-1.852 12.05 5.794ZM49.173 84.935l36.505-65.85-.008-.547-36.497 66.398ZM14.14 19.64l-.01.556 35.043 64.74L14.14 19.64Zm12.08-7.979-12.009 3.267-.053 3.612 12.062-6.88ZM56.2 4.423 41.41 5.955l-2.297 1.363L56.2 4.423Zm29.457 13.031-12.05-5.794-2.784-.545 14.834 6.34ZM49.173 84.935 85.67 18.538l-.008-.544-36.49 66.942ZM14.149 19.086l-.009.553 35.033 65.297-35.024-65.85ZM26.22 11.66l-12.062 6.88-.009.547L26.22 11.66ZM56.2 4.423 39.115 7.318 36.73 8.514 56.2 4.423Zm29.457 13.031-14.834-6.339-2.676-.704 17.51 7.043ZM49.173 84.935l36.49-66.94-.007-.54-36.483 67.48ZM26.22 11.66l-12.07 7.427 35.023 65.849L26.22 11.66ZM56.2 4.423l-19.47 4.09-2.476 1.03 21.945-5.12Zm29.457 13.031-17.51-7.043-2.574-.867 20.084 7.91ZM26.22 11.66l22.953 73.276 36.483-67.482L26.22 11.66ZM56.2 4.423l-21.945 5.12-2.574.868L56.2 4.423ZM26.22 11.66l59.436 5.794-20.084-7.91L26.22 11.66ZM56.2 4.423 31.68 10.41l-2.676.704 27.195-6.692ZM26.22 11.66l39.352-2.116-2.477-1.03L26.22 11.66Zm32.193-5.705L56.2 4.423l-27.195 6.692 29.41-5.16ZM26.22 11.66l36.875-3.146-2.385-1.196-34.49 4.342Zm32.193-5.705-29.41 5.16-2.783.545 32.193-5.705ZM26.22 11.66l34.49-4.342-2.297-1.363L26.22 11.66Z" fill="#03A3E6"/></mask><g mask="url(#a)"><ellipse cx="79.327" cy="65.469" rx="79.327" ry="65.469" transform="rotate(2.462 -911.927 -1271.775) skewX(-.015)" fill="url(#b)"/><ellipse cx="62.017" cy="51.62" rx="62.017" ry="51.62" transform="rotate(2.462 1363.548 -461.323) skewX(-.015)" fill="url(#c)"/></g><path d="M86.26 21.877c-.044-2.294-.087-4.461-.087-6.558 0-1.642-1.356-2.974-3.03-2.974-12.954 0-22.817-3.655-31.039-11.503a3.069 3.069 0 0 0-4.223 0C39.66 8.69 29.798 12.345 16.844 12.345c-1.673 0-3.029 1.332-3.029 2.974 0 2.097-.042 4.265-.087 6.56C13.313 43.225 12.744 72.462 49 84.8a3.076 3.076 0 0 0 1.984 0C87.243 72.463 86.675 43.225 86.26 21.877Z" fill="url(#d)"/><path d="M51.072 79.855a2.715 2.715 0 0 1-1.752 0h1.752Zm0 0c32.006-10.891 31.505-36.7 31.138-55.544l-.001-.062M51.072 79.855 82.209 24.25m0 0a298.88 298.88 0 0 1-.075-5.726m.075 5.726-.075-5.726m0 0c0-1.45-1.197-2.625-2.674-2.625m2.674 2.625-2.674-2.625m0 0c-11.436 0-20.142-3.227-27.4-10.155l27.4 10.155Zm1.75 8.432c.184 9.454.386 20.423-3.365 30.383-3.72 9.88-11.365 18.843-27.096 24.195a1.716 1.716 0 0 1-1.106 0C33.912 73.556 26.27 64.593 22.55 54.714c-3.751-9.96-3.55-20.929-3.365-30.382.04-2.023.077-3.947.077-5.81 0-.88.732-1.624 1.674-1.624 11.653 0 20.618-3.301 28.087-10.431a1.709 1.709 0 0 1 2.347 0c7.47 7.13 16.436 10.43 28.09 10.43.942 0 1.674.745 1.674 1.626 0 1.841.036 3.742.075 5.74l.001.067Z" fill="url(#e)" stroke="url(#f)" stroke-width="2"/><g filter="url(#g)" fill="#00AEF7"><path d="m63.24 29.148-2.574-.06-.364.034 2.938.026Zm-.364.033-2.574-.06-.359.092 2.933-.032Zm-.36.09-2.573-.058-.35.148 2.924-.09Zm-.349.15-2.574-.06-.335.207 2.91-.148Zm-.335.206-2.574-.06-.316.265 2.89-.205Zm-.316.264-2.574-.06-.292.323 2.866-.263Zm1.36-.71.364-.033-2.938-.026 2.574.059Zm-.36.09.36-.09-2.933.032 2.574.059Zm-.349.15.35-.15-2.924.09 2.574.06Zm-.335.206.335-.206-2.909.147 2.574.059Zm-.316.264.316-.264-2.89.205 2.574.06Zm-.292.322.292-.322-2.866.263 2.574.06Zm4.592-1.006-2.576-.06-.364.034 2.94.026Zm-.364.033-2.576-.06-.36.092 2.936-.032Zm3.191 3.95.023-.455-.023-.454v.91Zm-.186.887.116-.438.07-.449-.186.887Zm.186-.887v-.91l-.186-.882.186 1.792Zm0-.91-.07-.447-.116-.435.186.883Zm-.557 2.615.371-.818.186-.887-.557 1.705Zm0 0 .557-1.705-.186-1.792-.371 3.497Z"/><path d="m65.092 29.33-2.575-.058-.35.148 2.925-.09Zm2.994 5.565.209-.397.162-.42-.371.817Zm.371-3.497-.162-.417-.209-.392.371.809Zm-3.714-1.918-2.576-.06-.335.207 2.91-.147Zm-3.52.733-2.573-.06-13.772 17.349 16.346-17.289Z"/><path d="m68.458 31.398-.371-.809-.547-.677.918 1.486Zm-.371-.809-.255-.361-.292-.316.547.677Zm-3.68-.903-2.575-.059-.316.264 2.891-.205Zm-.316.265-2.575-.06-.292.322 2.867-.262Zm4.366 1.447-.918-1.486-1.36-.68 2.278 2.166Zm-3.005-2.158.364-.033-2.94-.026 2.576.059Zm2.088.672-.316-.257-.335-.199.65.456Zm-2.448-.581.36-.09-2.935.031 2.575.06Z"/><path d="m67.54 29.912-.652-.456-.708-.224 1.36.68Zm-2.797-.432.35-.149-2.926.09 2.576.059Z"/><path d="m66.888 29.456-.35-.141-.358-.083.708.224Zm-2.48.23.335-.206-2.91.147 2.575.06Zm-.316.264.316-.264-2.891.205 2.575.06Zm2.088-.718-.364-.025-.364.033.728-.008Z"/><path d="m63.799 30.272.292-.322-2.867.263 2.575.06Zm2.381-1.04-.728.008-.709.24 1.437-.248Zm-.728.008-.36.09-.349.15.709-.24Zm-.709.24-.335.206-.316.265.651-.471ZM52.042 55.169l15.789-19.906.255-.368-16.044 20.274Z"/><path d="m63.8 30.272-2.576-.06L47.45 47.569 63.8 30.272ZM51.097 55.964l16.989-21.069.371-3.497-17.36 24.566Z"/><path d="m47.449 47.568 13.775-17.355-16.346 17.289 2.57.066Zm21.009-16.17-2.278-2.166-16.158 18.402 18.436-16.236Zm-2.278-2.166-1.437.248-14.72 18.154L66.18 29.232Zm-1.437.248-.65.47-14.07 17.684 14.72-18.154Zm-.65.47-.293.323-13.777 17.36 14.07-17.682ZM47.084 56.146l-2.57-.069.182.02 2.389.049Zm-.18-.034-2.571-.069.18.034 2.39.035Zm-.18-.048-2.57-.07.179.05 2.392.02ZM46.549 56l-2.57-.069.176.063 2.394.006Zm-.174-.078-2.57-.068.173.077 2.397-.009Zm-.17-.092-2.57-.068.17.092 2.4-.024Zm-.166-.106-2.57-.069.165.107 2.405-.038Zm-.16-.121-2.571-.069.16.121 2.41-.052Zm5.871-.112.292-.322 16.045-20.274L51.75 55.49Z"/><path d="m45.722 55.468-2.57-.068.155.135 2.415-.067Zm-.15-.15-2.57-.069.15.15 2.42-.081Zm5.525.646.652-.473 16.337-20.596-16.99 21.069Z"/><path d="m47.266 56.166-.182-.02-2.389-.05 2.571.07Zm-1.837-1.013-2.57-.068.142.165 2.428-.097Zm1.655.993-.18-.034-2.39-.035 2.57.07Zm-.18-.034-.18-.048-2.391-.02 2.57.068Zm4.193-.148 17.36-24.566-18.434 16.236 1.074 8.33Z"/><path d="M46.725 56.064 46.548 56l-2.394-.006 2.571.069ZM46.548 56l-.173-.078-2.398.009 2.571.069Zm3.474-8.368L63.8 30.273 47.45 47.568l2.572.065Zm-3.647 8.29-.17-.092-2.401.024 2.57.068Zm-.17-.092-.166-.106-2.405.038 2.57.068Zm-.166-.106-.161-.121-2.41.052 2.57.069Zm-.161-.121-.156-.136-2.415.067 2.57.069Zm-.156-.136-.15-.15-2.42.082 2.57.068Zm-.15-.15-.143-.165-2.427.096 2.57.069Zm4.086.897-2.573-.07.182.02 2.39.05Zm-.181-.034-2.573-.069.18.034 2.393.035Zm-.18-.049-2.572-.068.18.048 2.393.02Zm-.176-.063L46.548 56l.177.063 2.396.005Zm-.174-.077-2.572-.069.173.078 2.4-.009Zm-.17-.092-2.572-.069.17.092 2.402-.023Zm-3.348-.747-7.91-9.762 5.34 9.694 2.57.068Zm3.182.64-2.572-.068.166.106 2.406-.038Zm-.16-.12-2.573-.07.16.122 2.412-.053Zm3.299-.18.15-.154.143-.17-.293.324Z"/><path d="m48.294 55.537-2.572-.068.155.135 2.417-.067Zm-.15-.15-2.572-.069.15.15 2.423-.081Zm3.289.37.16-.126.156-.14-.316.266Zm-1.594.477-.182-.02-2.39-.048 2.572.068ZM48 55.222l-2.572-.069.143.165 2.43-.096Z"/><path d="m51.097 55.964.335-.207.317-.265-.652.472Zm-1.44.251-.18-.034-2.392-.035 2.572.07ZM37.52 45.391l-2.569-.065 7.909 9.76-5.34-9.695Zm13.577 10.573.17-.096.166-.111-.336.207Z"/><path d="m49.476 56.18-.179-.048-2.393-.02 2.572.069Zm-.179-.048-.176-.063-2.396-.006 2.572.07Zm1.45-.019.177-.067.173-.082-.35.15Z"/><path d="m49.12 56.07-.173-.078-2.4.009 2.574.069Zm1.267.135.36-.092.35-.15-.71.242Zm-1.44-.213-.17-.092-2.403.024 2.573.068Z"/><path d="m50.387 56.205.18-.039.18-.053-.36.092Zm-1.61-.305-.166-.106-2.407.037 2.573.069Z"/><path d="m49.657 56.215.73-.01.71-.241-1.44.25ZM39.541 39.28l-2.57-.063-.365.033 2.935.03Zm9.07 16.514-.161-.121-2.412.052 2.573.069Z"/><path d="m50.023 56.239.182-.01.182-.024-.364.034Zm-1.573-.566-.155-.136-2.417.067 2.572.069Z"/><path d="m49.657 56.215.365.024.365-.034-.73.01Zm-1.363-.678-.15-.15-2.422.081 2.572.069Zm-9.118-16.224-2.57-.063-.36.091 2.93-.028Z"/><path d="m49.657 56.215.182.02.183.004-.365-.024Zm-1.512-.829-.143-.164-2.43.096 2.573.069Zm.149.151 1.363.678 1.44-.25-2.803-.428Zm-9.478-16.133-2.57-.063-.35.15 2.92-.087Z"/><path d="m49.298 56.133.179.048.18.034-.36-.082Zm-.35-.14.35.14.36.082-.71-.223Zm-10.483-16.44-2.57-.063-.335.207 2.905-.144Z"/><path d="m48.947 55.992.173.078.177.063-.35-.14Zm-.653-.455.653.456.71.222-1.363-.678ZM38.128 39.76l-2.569-.063-.317.265 2.886-.202Z"/><path d="m48.611 55.794.166.106.17.092-.336-.198ZM37.812 40.025l-2.569-.063-.293.322 2.862-.26Z"/><path d="m48.294 55.537.317.257.336.199-.653-.456Zm-9.118-16.224.365-.034-2.935-.029 2.57.063Z"/><path d="m48.294 55.537.156.136.16.12-.316-.256ZM37.263 45.029l-2.57-.065.257.362 2.313-.297Zm.256-4.681-2.57-.063-.255.368 2.825-.305Zm-.465 4.288-2.57-.064.21.392 2.36-.328Zm.209-3.92-2.57-.063-.209.398 2.779-.335Zm10.739 14.506.143.164.15.15-.293-.314Z"/><path d="m38.816 39.404.36-.091-2.93.029 2.57.062ZM36.89 44.22l-2.57-.064.164.417 2.406-.353Zm.163-3.105-2.57-.063-.162.42 2.732-.357Zm-.28 2.67-2.569-.065.117.436 2.453-.372Zm.117-2.249-2.57-.063-.116.438 2.686-.375Zm1.574-1.981.35-.15-2.92.087 2.57.063Zm-1.76 3.78-2.57-.063.07.448 2.5-.384Zm.07-1.36-2.57-.064-.07.45 2.64-.386Zm-.094.906-2.569-.064.024.455 2.545-.391Zm.024-.456-2.57-.064-.023.456 2.593-.392Zm1.424-2.663.336-.208-2.905.145 2.569.063Zm-.317.264.317-.264-2.886.201 2.569.063Zm10.19 15.197-7.912-9.766 5.34 9.697 2.572.069Zm3.096.741-1.075-8.33-9.64-7.546 10.715 15.876Z"/><path d="m37.52 40.348.292-.323-2.862.26 2.57.063Zm0 5.043-.256-.362-2.314.297 2.57.065Zm-.257-4.675.257-.368-2.826.305 2.57.063Zm0 4.313-.209-.393-2.36.328 2.57.065Zm3.12-4.941 7.911 15.448 2.803.428-10.714-15.876Z"/><path d="m37.054 41.114.21-.398-2.78.335 2.57.063Zm0 3.522-.163-.417-2.406.353 2.569.064Zm-.163-3.1.163-.422-2.732.358 2.569.063Zm0 2.683-.116-.436-2.453.372 2.569.064Zm3.2 1.237-2.572-.065 7.91 9.762-5.339-9.697Zm-3.317-3.482.117-.439-2.686.375 2.57.064Zm0 1.81-.07-.45-2.499.385 2.57.064Zm-.07-1.36.07-.45-2.638.386 2.569.064Zm0 .91-.023-.454-2.545.39 2.569.065Zm-.023-.454.024-.456-2.593.392 2.57.064Zm13.341 4.754-5.887-7.271-.293-.316 6.18 7.587Zm0 0-6.18-7.587-.653-.456 6.833 8.043Zm-10.188-2.54 8.167 10.128.293.315-8.46-10.443Zm2.278-5.752-2.571-.063-.365.034 2.936.03Zm-.365.034-2.571-.063-.36.091 2.931-.029Zm-.36.09-2.572-.062-.35.15 2.922-.087Z"/><path d="m50.022 47.634-6.833-8.043-2.806.498 9.639 7.545Zm-8.986-8.018-2.571-.063-.337.207 2.908-.144Zm-.336.207-2.572-.063-.316.265 2.888-.202Zm-.317.265-2.572-.063-.292.322 2.864-.26Zm1.364-.713.365-.033-2.936-.03 2.571.063Zm-1.913 5.718-2.571-.065.256.363 2.315-.298Zm.256-4.682-2.571-.064-.256.369 2.827-.305Zm3.752-.364-.317-.257-.337-.2.654.457Z"/><path d="m39.625 44.701-2.57-.065.209.393 2.361-.328Zm.21-3.921-2.571-.064-.21.398 2.78-.334Zm1.553-1.313.36-.091-2.932.029 2.572.062Zm-1.926 4.817-2.57-.065.162.417 2.408-.352Zm.163-3.106-2.57-.064-.164.422 2.734-.358Zm-.28 2.67-2.57-.065.116.436 2.455-.371Zm.117-2.249-2.57-.063-.117.438 2.687-.375Zm1.575-1.982.35-.15-2.921.087 2.57.063Zm-1.761 3.782-2.57-.064.069.448 2.501-.384Zm.07-1.361-2.571-.064-.07.45 2.64-.386Zm.488 3.056.256.362 7.911 9.766-8.167-10.128Zm-.582-2.15-2.571-.065.023.455 2.547-.39Zm.023-.456-2.571-.064-.023.455 2.594-.391Z"/><path d="m43.189 39.59-.35-.14-.361-.083.71.224Zm-2.806.498L39.275 43.4l9.02 12.138-7.912-15.448ZM39.275 43.4l.56 1.695 8.46 10.443-9.02-12.138Zm1.425-3.577.336-.207-2.907.144 2.571.063Z"/><path d="m43.188 39.59-.71-.223-.73.009 1.44.215Zm-2.805.498.317-.265-2.889.202 2.572.063Zm2.094-.721-.365-.025-.365.034.73-.01Z"/><path d="m40.09 40.41.293-.322-2.864.26 2.572.063Zm0 5.046-.255-.363-2.315.297 2.57.066Zm3.099-5.866-1.442-.214-1.364.713 2.806-.498Z"/><path d="m39.834 40.78.256-.369-2.827.305 2.571.064Zm0 4.314-.21-.393-2.36.328 2.57.065Zm-.21-3.916.21-.398-2.78.334 2.57.064Zm0 3.523-.162-.417-2.408.352 2.57.065Zm2.123-5.325-.36.091-.35.15.71-.241Z"/><path d="m39.461 41.599.163-.422-2.734.358 2.571.064Zm0 2.684-.116-.436-2.455.372 2.571.064Zm-.116-2.245.116-.44-2.687.376 2.57.064Zm0 1.81-.07-.45-2.501.385 2.57.064Zm-.07-1.36.07-.45-2.641.386 2.57.064Zm0 .91-.023-.454-2.548.39 2.57.065Zm-.023-.454.023-.456-2.594.392 2.57.064Z"/><path d="m41.747 39.376-.71.24-.654.473 1.364-.713Zm-.71.24-.337.208-.317.265.653-.472Zm-.654.473-.293.322-.256.369.549-.691Zm0 0-.55.69-.372.82.922-1.51Zm-.922 4.195.163.417.21.393-.373-.81Zm.922-4.195-.922 1.51-.186 1.8 1.108-3.31Zm-.55.69-.209.399-.163.421.373-.82Zm-.558 2.62.187.885.372.81-.559-1.695Zm0 0 .07.449.117.436-.187-.885Zm.186-1.8-.116.439-.07.45.186-.889Zm0 0-.186.89v.91l.186-1.8Zm-.186.89-.023.455.023.455v-.91Z"/></g><mask id="h" style="mask-type:alpha" maskUnits="userSpaceOnUse" x="34" y="29" width="35" height="28"><path d="m63.24 29.148-2.574-.06-.364.034 2.938.026Zm-.364.033-2.574-.06-.359.092 2.933-.032Zm-.36.09-2.573-.058-.35.148 2.924-.09Zm-.349.15-2.574-.06-.335.207 2.91-.148Zm-.335.206-2.574-.06-.316.265 2.89-.205Zm-.316.264-2.574-.06-.292.323 2.866-.263Zm1.36-.71.364-.033-2.938-.026 2.574.059Zm-.36.09.36-.09-2.933.032 2.574.059Zm-.349.15.35-.15-2.924.09 2.574.06Zm-.335.206.335-.206-2.909.147 2.574.059Zm-.316.264.316-.264-2.89.205 2.574.06Zm-.292.322.292-.322-2.866.263 2.574.06Zm4.592-1.006-2.576-.06-.364.034 2.94.026Zm-.364.033-2.576-.06-.36.092 2.936-.032Zm3.191 3.95.023-.455-.023-.454v.91Zm-.186.887.116-.438.07-.449-.186.887Zm.186-.887v-.91l-.186-.882.186 1.792Zm0-.91-.07-.447-.116-.435.186.883Zm-.557 2.615.371-.818.186-.887-.557 1.705Zm0 0 .557-1.705-.186-1.792-.371 3.497Z" fill="#00AEF7"/><path d="m65.092 29.33-2.575-.058-.35.148 2.925-.09Zm2.994 5.565.209-.397.162-.42-.371.817Zm.371-3.497-.162-.417-.209-.392.371.809Zm-3.714-1.918-2.576-.06-.335.207 2.91-.147Zm-3.52.733-2.573-.06-13.772 17.349 16.346-17.289Z" fill="#00AEF7"/><path d="m68.458 31.398-.371-.809-.547-.677.918 1.486Zm-.371-.809-.255-.361-.292-.316.547.677Zm-3.68-.903-2.575-.059-.316.264 2.891-.205Zm-.316.265-2.575-.06-.292.322 2.867-.262Zm4.366 1.447-.918-1.486-1.36-.68 2.278 2.166Zm-3.005-2.158.364-.033-2.94-.026 2.576.059Zm2.088.672-.316-.257-.335-.199.65.456Zm-2.448-.581.36-.09-2.935.031 2.575.06Z" fill="#00AEF7"/><path d="m67.54 29.912-.652-.456-.708-.224 1.36.68Zm-2.797-.432.35-.149-2.926.09 2.576.059Z" fill="#00AEF7"/><path d="m66.888 29.456-.35-.141-.358-.083.708.224Zm-2.48.23.335-.206-2.91.147 2.575.06Zm-.316.264.316-.264-2.891.205 2.575.06Zm2.088-.718-.364-.025-.364.033.728-.008Z" fill="#00AEF7"/><path d="m63.799 30.272.292-.322-2.867.263 2.575.06Zm2.381-1.04-.728.008-.709.24 1.437-.248Zm-.728.008-.36.09-.349.15.709-.24Zm-.709.24-.335.206-.316.265.651-.471ZM52.042 55.169l15.789-19.906.255-.368-16.044 20.274Z" fill="#00AEF7"/><path d="m63.8 30.272-2.576-.06L47.45 47.569 63.8 30.272ZM51.097 55.964l16.989-21.069.371-3.497-17.36 24.566Z" fill="#00AEF7"/><path d="m47.449 47.568 13.775-17.355-16.346 17.289 2.57.066Zm21.009-16.17-2.278-2.166-16.158 18.402 18.436-16.236Zm-2.278-2.166-1.437.248-14.72 18.154L66.18 29.232Zm-1.437.248-.65.47-14.07 17.684 14.72-18.154Zm-.65.47-.293.323-13.777 17.36 14.07-17.682ZM47.084 56.146l-2.57-.069.182.02 2.389.049Zm-.18-.034-2.571-.069.18.034 2.39.035Zm-.18-.048-2.57-.07.179.05 2.392.02ZM46.549 56l-2.57-.069.176.063 2.394.006Zm-.174-.078-2.57-.068.173.077 2.397-.009Zm-.17-.092-2.57-.068.17.092 2.4-.024Zm-.166-.106-2.57-.069.165.107 2.405-.038Zm-.16-.121-2.571-.069.16.121 2.41-.052Zm5.871-.112.292-.322 16.045-20.274L51.75 55.49Z" fill="#00AEF7"/><path d="m45.722 55.468-2.57-.068.155.135 2.415-.067Zm-.15-.15-2.57-.069.15.15 2.42-.081Zm5.525.646.652-.473 16.337-20.596-16.99 21.069Z" fill="#00AEF7"/><path d="m47.266 56.166-.182-.02-2.389-.05 2.571.07Zm-1.837-1.013-2.57-.068.142.165 2.428-.097Zm1.655.993-.18-.034-2.39-.035 2.57.07Zm-.18-.034-.18-.048-2.391-.02 2.57.068Zm4.193-.148 17.36-24.566-18.434 16.236 1.074 8.33Z" fill="#00AEF7"/><path d="M46.725 56.064 46.548 56l-2.394-.006 2.571.069ZM46.548 56l-.173-.078-2.398.009 2.571.069Zm3.474-8.368L63.8 30.273 47.45 47.568l2.572.065Zm-3.647 8.29-.17-.092-2.401.024 2.57.068Zm-.17-.092-.166-.106-2.405.038 2.57.068Zm-.166-.106-.161-.121-2.41.052 2.57.069Zm-.161-.121-.156-.136-2.415.067 2.57.069Zm-.156-.136-.15-.15-2.42.082 2.57.068Zm-.15-.15-.143-.165-2.427.096 2.57.069Zm4.086.897-2.573-.07.182.02 2.39.05Zm-.181-.034-2.573-.069.18.034 2.393.035Zm-.18-.049-2.572-.068.18.048 2.393.02Zm-.176-.063L46.548 56l.177.063 2.396.005Zm-.174-.077-2.572-.069.173.078 2.4-.009Zm-.17-.092-2.572-.069.17.092 2.402-.023Zm-3.348-.747-7.91-9.762 5.34 9.694 2.57.068Zm3.182.64-2.572-.068.166.106 2.406-.038Zm-.16-.12-2.573-.07.16.122 2.412-.053Zm3.299-.18.15-.154.143-.17-.293.324Z" fill="#00AEF7"/><path d="m48.294 55.537-2.572-.068.155.135 2.417-.067Zm-.15-.15-2.572-.069.15.15 2.423-.081Zm3.289.37.16-.126.156-.14-.316.266Zm-1.594.477-.182-.02-2.39-.048 2.572.068ZM48 55.222l-2.572-.069.143.165 2.43-.096Z" fill="#00AEF7"/><path d="m51.097 55.964.335-.207.317-.265-.652.472Zm-1.44.251-.18-.034-2.392-.035 2.572.07ZM37.52 45.391l-2.569-.065 7.909 9.76-5.34-9.695Zm13.577 10.573.17-.096.166-.111-.336.207Z" fill="#00AEF7"/><path d="m49.476 56.18-.179-.048-2.393-.02 2.572.069Zm-.179-.048-.176-.063-2.396-.006 2.572.07Zm1.45-.019.177-.067.173-.082-.35.15Z" fill="#00AEF7"/><path d="m49.12 56.07-.173-.078-2.4.009 2.574.069Zm1.267.135.36-.092.35-.15-.71.242Zm-1.44-.213-.17-.092-2.403.024 2.573.068Z" fill="#00AEF7"/><path d="m50.387 56.205.18-.039.18-.053-.36.092Zm-1.61-.305-.166-.106-2.407.037 2.573.069Z" fill="#00AEF7"/><path d="m49.657 56.215.73-.01.71-.241-1.44.25ZM39.541 39.28l-2.57-.063-.365.033 2.935.03Zm9.07 16.514-.161-.121-2.412.052 2.573.069Z" fill="#00AEF7"/><path d="m50.023 56.239.182-.01.182-.024-.364.034Zm-1.573-.566-.155-.136-2.417.067 2.572.069Z" fill="#00AEF7"/><path d="m49.657 56.215.365.024.365-.034-.73.01Zm-1.363-.678-.15-.15-2.422.081 2.572.069Zm-9.118-16.224-2.57-.063-.36.091 2.93-.028Z" fill="#00AEF7"/><path d="m49.657 56.215.182.02.183.004-.365-.024Zm-1.512-.829-.143-.164-2.43.096 2.573.069Zm.149.151 1.363.678 1.44-.25-2.803-.428Zm-9.478-16.133-2.57-.063-.35.15 2.92-.087Z" fill="#00AEF7"/><path d="m49.298 56.133.179.048.18.034-.36-.082Zm-.35-.14.35.14.36.082-.71-.223Zm-10.483-16.44-2.57-.063-.335.207 2.905-.144Z" fill="#00AEF7"/><path d="m48.947 55.992.173.078.177.063-.35-.14Zm-.653-.455.653.456.71.222-1.363-.678ZM38.128 39.76l-2.569-.063-.317.265 2.886-.202Z" fill="#00AEF7"/><path d="m48.611 55.794.166.106.17.092-.336-.198ZM37.812 40.025l-2.569-.063-.293.322 2.862-.26Z" fill="#00AEF7"/><path d="m48.294 55.537.317.257.336.199-.653-.456Zm-9.118-16.224.365-.034-2.935-.029 2.57.063Z" fill="#00AEF7"/><path d="m48.294 55.537.156.136.16.12-.316-.256ZM37.263 45.029l-2.57-.065.257.362 2.313-.297Zm.256-4.681-2.57-.063-.255.368 2.825-.305Zm-.465 4.288-2.57-.064.21.392 2.36-.328Zm.209-3.92-2.57-.063-.209.398 2.779-.335Zm10.739 14.506.143.164.15.15-.293-.314Z" fill="#00AEF7"/><path d="m38.816 39.404.36-.091-2.93.029 2.57.062ZM36.89 44.22l-2.57-.064.164.417 2.406-.353Zm.163-3.105-2.57-.063-.162.42 2.732-.357Zm-.28 2.67-2.569-.065.117.436 2.453-.372Zm.117-2.249-2.57-.063-.116.438 2.686-.375Zm1.574-1.981.35-.15-2.92.087 2.57.063Zm-1.76 3.78-2.57-.063.07.448 2.5-.384Zm.07-1.36-2.57-.064-.07.45 2.64-.386Zm-.094.906-2.569-.064.024.455 2.545-.391Zm.024-.456-2.57-.064-.023.456 2.593-.392Zm1.424-2.663.336-.208-2.905.145 2.569.063Zm-.317.264.317-.264-2.886.201 2.569.063Zm10.19 15.197-7.912-9.766 5.34 9.697 2.572.069Zm3.096.741-1.075-8.33-9.64-7.546 10.715 15.876Z" fill="#00AEF7"/><path d="m37.52 40.348.292-.323-2.862.26 2.57.063Zm0 5.043-.256-.362-2.314.297 2.57.065Zm-.257-4.675.257-.368-2.826.305 2.57.063Zm0 4.313-.209-.393-2.36.328 2.57.065Zm3.12-4.941 7.911 15.448 2.803.428-10.714-15.876Z" fill="#00AEF7"/><path d="m37.054 41.114.21-.398-2.78.335 2.57.063Zm0 3.522-.163-.417-2.406.353 2.569.064Zm-.163-3.1.163-.422-2.732.358 2.569.063Zm0 2.683-.116-.436-2.453.372 2.569.064Zm3.2 1.237-2.572-.065 7.91 9.762-5.339-9.697Zm-3.317-3.482.117-.439-2.686.375 2.57.064Zm0 1.81-.07-.45-2.499.385 2.57.064Zm-.07-1.36.07-.45-2.638.386 2.569.064Zm0 .91-.023-.454-2.545.39 2.569.065Zm-.023-.454.024-.456-2.593.392 2.57.064Zm13.341 4.754-5.887-7.271-.293-.316 6.18 7.587Zm0 0-6.18-7.587-.653-.456 6.833 8.043Zm-10.188-2.54 8.167 10.128.293.315-8.46-10.443Zm2.278-5.752-2.571-.063-.365.034 2.936.03Zm-.365.034-2.571-.063-.36.091 2.931-.029Zm-.36.09-2.572-.062-.35.15 2.922-.087Z" fill="#00AEF7"/><path d="m50.022 47.634-6.833-8.043-2.806.498 9.639 7.545Zm-8.986-8.018-2.571-.063-.337.207 2.908-.144Zm-.336.207-2.572-.063-.316.265 2.888-.202Zm-.317.265-2.572-.063-.292.322 2.864-.26Zm1.364-.713.365-.033-2.936-.03 2.571.063Zm-1.913 5.718-2.571-.065.256.363 2.315-.298Zm.256-4.682-2.571-.064-.256.369 2.827-.305Zm3.752-.364-.317-.257-.337-.2.654.457Z" fill="#00AEF7"/><path d="m39.625 44.701-2.57-.065.209.393 2.361-.328Zm.21-3.921-2.571-.064-.21.398 2.78-.334Zm1.553-1.313.36-.091-2.932.029 2.572.062Zm-1.926 4.817-2.57-.065.162.417 2.408-.352Zm.163-3.106-2.57-.064-.164.422 2.734-.358Zm-.28 2.67-2.57-.065.116.436 2.455-.371Zm.117-2.249-2.57-.063-.117.438 2.687-.375Zm1.575-1.982.35-.15-2.921.087 2.57.063Zm-1.761 3.782-2.57-.064.069.448 2.501-.384Zm.07-1.361-2.571-.064-.07.45 2.64-.386Zm.488 3.056.256.362 7.911 9.766-8.167-10.128Zm-.582-2.15-2.571-.065.023.455 2.547-.39Zm.023-.456-2.571-.064-.023.455 2.594-.391Z" fill="#00AEF7"/><path d="m43.189 39.59-.35-.14-.361-.083.71.224Zm-2.806.498L39.275 43.4l9.02 12.138-7.912-15.448ZM39.275 43.4l.56 1.695 8.46 10.443-9.02-12.138Zm1.425-3.577.336-.207-2.907.144 2.571.063Z" fill="#00AEF7"/><path d="m43.188 39.59-.71-.223-.73.009 1.44.215Zm-2.805.498.317-.265-2.889.202 2.572.063Zm2.094-.721-.365-.025-.365.034.73-.01Z" fill="#00AEF7"/><path d="m40.09 40.41.293-.322-2.864.26 2.572.063Zm0 5.046-.255-.363-2.315.297 2.57.066Zm3.099-5.866-1.442-.214-1.364.713 2.806-.498Z" fill="#00AEF7"/><path d="m39.834 40.78.256-.369-2.827.305 2.571.064Zm0 4.314-.21-.393-2.36.328 2.57.065Zm-.21-3.916.21-.398-2.78.334 2.57.064Zm0 3.523-.162-.417-2.408.352 2.57.065Zm2.123-5.325-.36.091-.35.15.71-.241Z" fill="#00AEF7"/><path d="m39.461 41.599.163-.422-2.734.358 2.571.064Zm0 2.684-.116-.436-2.455.372 2.571.064Zm-.116-2.245.116-.44-2.687.376 2.57.064Zm0 1.81-.07-.45-2.501.385 2.57.064Zm-.07-1.36.07-.45-2.641.386 2.57.064Zm0 .91-.023-.454-2.548.39 2.57.065Zm-.023-.454.023-.456-2.594.392 2.57.064Z" fill="#00AEF7"/><path d="m41.747 39.376-.71.24-.654.473 1.364-.713Zm-.71.24-.337.208-.317.265.653-.472Zm-.654.473-.293.322-.256.369.549-.691Zm0 0-.55.69-.372.82.922-1.51Zm-.922 4.195.163.417.21.393-.373-.81Zm.922-4.195-.922 1.51-.186 1.8 1.108-3.31Zm-.55.69-.209.399-.163.421.373-.82Zm-.558 2.62.187.885.372.81-.559-1.695Zm0 0 .07.449.117.436-.187-.885Zm.186-1.8-.116.439-.07.45.186-.889Zm0 0-.186.89v.91l.186-1.8Zm-.186.89-.023.455.023.455v-.91Z" fill="#00AEF7"/></mask><g mask="url(#h)"><ellipse cx="32.33" cy="33.042" rx="32.33" ry="33.042" transform="rotate(2.462 122.768 804.442) skewX(-.015)" fill="url(#i)"/></g><path d="M64.414 29.379 50.571 46.797l-5.907-6.3c-1.12-1.41-3.776-1.69-4.896-.28s-1.416 3.975-.296 5.384l7.935 9.986c.56.704 2.43 1.056 3.164 1.056s1.468-.352 2.028-1.056l15.87-19.971c1.121-1.41 1.121-3.695.001-5.104-1.12-1.41-2.936-2.543-4.056-1.133Z" fill="url(#j)"/><defs><linearGradient id="d" x1="23.619" y1="-16.5" x2="99.637" y2="53.725" gradientUnits="userSpaceOnUse"><stop stop-color="#4CC5F8"/><stop offset="1" stop-color="#8AD9FC"/></linearGradient><linearGradient id="e" x1="50.198" y1="5" x2="50.198" y2="80" gradientUnits="userSpaceOnUse"><stop stop-color="#8AD9FC"/><stop offset="1" stop-color="#4CC5F8"/></linearGradient><linearGradient id="f" x1="32.646" y1="11.5" x2="50.1" y2="80.025" gradientUnits="userSpaceOnUse"><stop stop-color="#00A1E4"/><stop offset="1" stop-color="#ABE6FF"/></linearGradient><linearGradient id="j" x1="54.038" y1="28.732" x2="54.038" y2="56.643" gradientUnits="userSpaceOnUse"><stop stop-color="#fff"/><stop offset="1" stop-color="#E9F9FF"/></linearGradient><radialGradient id="b" cx="0" cy="0" r="1" gradientUnits="userSpaceOnUse" gradientTransform="scale(79.3272 65.4692) rotate(90 0 1)"><stop stop-color="#D9F3FF"/><stop offset="1" stop-color="#B7E9FF" stop-opacity="0"/></radialGradient><radialGradient id="c" cx="0" cy="0" r="1" gradientUnits="userSpaceOnUse" gradientTransform="matrix(0 51.6204 -62.0167 0 62.017 51.62)"><stop stop-color="#D9F3FF"/><stop offset="1" stop-color="#B7E9FF" stop-opacity="0"/></radialGradient><radialGradient id="i" cx="0" cy="0" r="1" gradientUnits="userSpaceOnUse" gradientTransform="scale(32.3296 33.0421) rotate(90 0 1)"><stop stop-color="#BFEBFF"/><stop offset="1" stop-color="#50C7FC" stop-opacity="0"/></radialGradient><filter id="g" x="21.112" y="23.089" width="54.554" height="47.15" filterUnits="userSpaceOnUse" color-interpolation-filters="sRGB"><feFlood flood-opacity="0" result="BackgroundImageFix"/><feColorMatrix in="SourceAlpha" values="0 0 0 0 0 0 0 0 0 0 0 0 0 0 0 0 0 0 127 0" result="hardAlpha"/><feOffset dx="-3" dy="4"/><feGaussianBlur stdDeviation="5"/><feColorMatrix values="0 0 0 0 0 0 0 0 0 0.611764 0 0 0 0 0.866667 0 0 0 1 0"/><feBlend in2="BackgroundImageFix" result="effect1_dropShadow_1150_648513"/><feBlend in="SourceGraphic" in2="effect1_dropShadow_1150_648513" result="shape"/></filter></defs></svg>