<svg width="31" height="28" fill="none" xmlns="http://www.w3.org/2000/svg"><path d="M8.979.395a8.962 8.962 0 0 1 6.377 2.634A8.979 8.979 0 0 1 21.733.395c4.917 0 8.917 3.923 8.917 8.745 0 3.416-1.839 7.043-5.466 10.783-3.03 3.122-6.737 5.724-9.315 7.357l-.513.326-.513-.326c-2.578-1.633-6.286-4.236-9.315-7.357C1.901 16.183.062 12.556.062 9.14c0-4.822 4-8.745 8.917-8.745Zm-2.08 18.248c2.707 2.79 6.004 5.162 8.457 6.75 2.453-1.588 5.75-3.96 8.457-6.75 3.282-3.382 4.945-6.58 4.945-9.503 0-3.799-3.151-6.89-7.025-6.89-2.23 0-4.279 1.005-5.62 2.757l-.757.987-.756-.987C13.258 3.255 11.21 2.25 8.979 2.25c-3.874 0-7.025 3.091-7.025 6.89 0 2.924 1.664 6.121 4.945 9.503Z" fill="#A0A3CF"/></svg>