<svg width="31" height="30" fill="none" xmlns="http://www.w3.org/2000/svg"><path d="M30.306 13.603 15.911.978a.403.403 0 0 0-.081-.061.864.864 0 0 0-1.152-.019L.284 13.523a.826.826 0 0 0-.07 1.178.86.86 0 0 0 .636.278.859.859 0 0 0 .566-.21l2.592-2.277v14.723c0 1.154.956 2.098 2.14 2.098h4.542c1.107 0 2.007-.883 2.007-1.969V19.86c0-.167.138-.303.308-.303h4.586c.17 0 .309.136.309.303v7.484c0 1.086.9 1.969 2.007 1.969h4.542c1.195 0 2.139-1.154 2.139-2.629V12.572l2.592 2.277a.86.86 0 0 0 .566.21.86.86 0 0 0 .636-.277.838.838 0 0 0-.076-1.179Zm-5.423 4.116v8.953c0 .598-.302.962-.44.962H19.9a.306.306 0 0 1-.308-.302V19.86c0-1.086-.9-1.969-2.007-1.969h-4.586c-1.108 0-2.007.883-2.007 1.969v7.484a.306.306 0 0 1-.309.303H6.141a.438.438 0 0 1-.44-.432V11l9.55-8.368 9.632 8.447v6.64Z" fill="#A0A3CF"/></svg>