<svg width="37" height="37" fill="none" xmlns="http://www.w3.org/2000/svg"><g clip-path="url(#a)" fill="#A0A3CF"><path d="M18.5 0C8.292 0 0 8.292 0 18.5S8.292 37 18.5 37 37 28.708 37 18.5 28.708 0 18.5 0Zm0 35.395c-9.317 0-16.895-7.578-16.895-16.895S9.183 1.605 18.5 1.605 35.395 9.183 35.395 18.5 27.817 35.395 18.5 35.395Z"/><path d="M28.129 14.488h-5.617V8.87a.8.8 0 0 0-.803-.803H15.29a.8.8 0 0 0-.802.803v5.617H8.87a.8.8 0 0 0-.803.802v6.42a.8.8 0 0 0 .803.802h5.617v5.617a.8.8 0 0 0 .802.802h6.42a.799.799 0 0 0 .802-.802v-5.617h5.617a.799.799 0 0 0 .802-.803V15.29c-.045-.446-.401-.802-.802-.802Zm-.758 6.419h-5.662a.799.799 0 0 0-.802.802v5.617h-4.814V21.71a.8.8 0 0 0-.803-.802H9.673v-4.814h5.617a.8.8 0 0 0 .803-.803V9.673h4.858v5.617a.8.8 0 0 0 .803.803h5.617v4.814Z"/></g><defs><clipPath id="a"><path fill="#fff" d="M0 0h37v37H0z"/></clipPath></defs></svg>