<svg width="27" height="30" fill="none" xmlns="http://www.w3.org/2000/svg"><path d="M13.727 16.165h.203c1.856-.031 3.357-.671 4.465-1.895 2.439-2.696 2.034-7.318 1.99-7.76-.16-3.31-1.755-4.895-3.073-5.634C16.33.323 15.184.025 13.904 0h-.108c-.703 0-2.083.112-3.407.851-1.33.74-2.952 2.324-3.11 5.66-.045.44-.45 5.063 1.988 7.759 1.103 1.224 2.604 1.864 4.46 1.895ZM8.97 6.666c0-.019.006-.037.006-.05.209-4.454 3.433-4.932 4.814-4.932h.076c1.71.037 4.618.72 4.814 4.932 0 .019 0 .038.007.05.006.043.45 4.268-1.565 6.492-.798.882-1.862 1.317-3.262 1.33h-.063c-1.394-.013-2.465-.448-3.256-1.33-2.008-2.212-1.578-6.455-1.571-6.492Z" fill="#A0A3CF"/><path d="M26.845 23.831v-.019c0-.05-.006-.099-.006-.155-.038-1.23-.12-4.106-2.87-5.026l-.063-.018c-2.857-.715-5.232-2.33-5.258-2.349a.865.865 0 0 0-1.19.205.828.828 0 0 0 .209 1.168c.107.075 2.628 1.796 5.783 2.59 1.476.516 1.64 2.063 1.685 3.48 0 .056 0 .105.006.155.007.56-.031 1.423-.133 1.92-1.026.571-5.048 2.547-11.167 2.547-6.094 0-10.142-1.982-11.174-2.553-.102-.497-.146-1.361-.133-1.92 0-.05.006-.1.006-.155.044-1.417.21-2.964 1.685-3.48 3.155-.795 5.676-2.522 5.783-2.59a.828.828 0 0 0 .21-1.168.865.865 0 0 0-1.191-.205c-.026.019-2.389 1.634-5.258 2.348l-.063.019c-2.75.926-2.832 3.802-2.87 5.026 0 .056 0 .105-.006.155v.019c-.006.323-.013 1.982.323 2.814a.801.801 0 0 0 .33.392C1.672 27.154 6.226 30 13.846 30c7.62 0 12.175-2.852 12.365-2.97a.836.836 0 0 0 .33-.39c.316-.827.31-2.486.303-2.809Z" fill="#A0A3CF"/></svg>