<svg width="32" height="32" viewBox="0 0 32 32" fill="none" xmlns="http://www.w3.org/2000/svg">
<path d="M27.64 21.8804C25.6954 20.3304 23.722 19.3914 21.8013 20.9392L20.6544 21.8746C19.8153 22.5536 18.2551 25.7264 12.223 19.2591C6.19219 12.8001 9.78106 11.7945 10.6214 11.1213L11.7746 10.1847C13.6852 8.63344 12.9642 6.68064 11.5862 4.67046L10.7546 3.45289C9.37029 1.4474 7.86289 0.130305 5.94724 1.6792L4.91216 2.52214C4.0655 3.09698 1.69889 4.96549 1.12482 8.5152C0.433931 12.7744 2.61338 17.6517 7.60663 23.0032C12.5936 28.357 17.4763 31.0462 22.1015 30.9994C25.9454 30.9608 28.2668 29.0384 28.9928 28.3395L30.0317 27.4954C31.9423 25.9476 30.7552 24.3718 28.8094 22.8182L27.64 21.8804Z" stroke="#A0A3CF" stroke-width="2"/>
</svg>
