<svg width="31" height="37" viewBox="0 0 31 37" fill="none" xmlns="http://www.w3.org/2000/svg">
<g clip-path="url(#clip0_1150_652074)">
<path d="M30.2206 4.39975L15.8091 0.0457441C15.6075 -0.015248 15.3923 -0.015248 15.1905 0.0457441L0.778825 4.39975C0.323513 4.53727 0.0117188 4.9593 0.0117188 5.43799V21.4026C0.0117188 23.4791 0.846422 25.6047 2.49265 27.7204C3.75002 29.3363 5.48946 30.9589 7.66276 32.5432C11.3137 35.2046 14.9087 36.8372 15.0599 36.9053C15.1999 36.9684 15.3498 37 15.4997 37C15.6496 37 15.7996 36.9685 15.9395 36.9053C16.0908 36.8372 19.6857 35.2046 23.3366 32.5432C25.5099 30.9589 27.2493 29.3363 28.5067 27.7204C30.1529 25.6048 30.9876 23.4792 30.9876 21.4026V5.43799C30.9877 4.9593 30.676 4.53727 30.2206 4.39975ZM28.8349 21.4026C28.8349 25.0775 25.1735 28.5232 22.102 30.7669C19.3483 32.7782 16.5557 34.2055 15.4998 34.7182C14.4439 34.2055 11.6512 32.7782 8.89752 30.7669C5.82594 28.5232 2.1645 25.0775 2.1645 21.4026V6.24447L15.4997 2.21566L28.8349 6.24447V21.4026Z" fill="#A0A3CF"/>
</g>
<defs>
<clipPath id="clip0_1150_652074">
<rect width="31" height="37" fill="white"/>
</clipPath>
</defs>
</svg>
