<svg width="42" height="28" viewBox="0 0 42 28" fill="none" xmlns="http://www.w3.org/2000/svg">
<g clip-path="url(#clip0_1150_652083)">
<path d="M38.5938 7.1H38.6937V7V4.45455C38.6937 3.34606 37.7861 2.44545 36.6719 2.44545H4.64062C3.52635 2.44545 2.61875 3.34606 2.61875 4.45455V7V7.1H2.71875H38.5938ZM2.71875 9.44545H2.61875V9.54545V23.5455C2.61875 24.6539 3.52635 25.5545 4.64062 25.5545H36.6719C37.7861 25.5545 38.6937 24.6539 38.6937 23.5455V9.54545V9.44545H38.5938H2.71875ZM4.64062 0.1H36.6719C39.0899 0.1 41.0563 2.0542 41.0563 4.45455V23.5455C41.0563 25.9458 39.0899 27.9 36.6719 27.9H4.64062C2.22257 27.9 0.25625 25.9458 0.25625 23.5455V4.45455C0.25625 2.0542 2.22257 0.1 4.64062 0.1Z" fill="#A0A3CF" stroke="white" stroke-width="0.2"/>
<path d="M9.125 21.5365H7.84375C7.19078 21.5365 6.6625 21.0108 6.6625 20.3638V19.0911C6.6625 18.4441 7.19078 17.9184 7.84375 17.9184H9.125C9.77797 17.9184 10.3063 18.4441 10.3063 19.0911V20.3638C10.3063 21.0108 9.77797 21.5365 9.125 21.5365Z" fill="#A0A3CF" stroke="white" stroke-width="0.2"/>
</g>
<defs>
<clipPath id="clip0_1150_652083">
<rect width="41" height="28" fill="white" transform="translate(0.15625)"/>
</clipPath>
</defs>
</svg>
