<svg width="33" height="28" viewBox="0 0 33 28" fill="none" xmlns="http://www.w3.org/2000/svg">
<path d="M22.2035 14.7597C22.1353 14.3838 22.1 13.9672 22.1 13.5079C22.1 11.7282 22.7775 9.95094 24.1886 8.16783C25.6733 6.37596 27.4074 5.07301 29.3921 4.24736L29.8885 4.04083L29.6465 3.56068L28.7465 1.77497L28.5297 1.34489L28.0918 1.54539C24.5573 3.16378 21.8765 5.33605 20.0818 8.07519L20.0817 8.07514L20.077 8.08269C18.3571 10.8127 17.5 13.8823 17.5 17.2778C17.5 19.9307 18.0833 22.2108 19.2773 24.0925C20.7065 26.3606 22.8367 27.5 25.6 27.5C27.5224 27.5 29.152 26.8591 30.4521 25.5692C31.8135 24.2187 32.5 22.5697 32.5 20.6508C32.5 18.616 31.8237 16.954 30.4423 15.7226C29.1438 14.4393 27.5176 13.8016 25.6 13.8016C24.3499 13.8016 23.2139 14.1212 22.2035 14.7597ZM5.20349 14.7597C5.13534 14.3838 5.1 13.9672 5.1 13.5079C5.1 11.7282 5.77754 9.95096 7.18859 8.16787C8.67329 6.37598 10.4074 5.07301 12.3921 4.24736L12.8885 4.04083L12.6465 3.56068L11.7465 1.77497L11.5297 1.34489L11.0918 1.54539C7.55727 3.16378 4.87646 5.33605 3.08178 8.07519L3.08171 8.07514L3.07695 8.08269C1.35706 10.8127 0.5 13.8823 0.5 17.2778C0.5 19.9307 1.08332 22.2108 2.27727 24.0924C3.70645 26.3606 5.83665 27.5 8.6 27.5C10.5224 27.5 12.152 26.8591 13.4521 25.5692C14.8135 24.2187 15.5 22.5697 15.5 20.6508C15.5 18.616 14.8237 16.954 13.4423 15.7226C12.1438 14.4393 10.5176 13.8016 8.6 13.8016C7.34993 13.8016 6.21393 14.1212 5.20349 14.7597Z" fill="url(#paint0_linear_1164_33672)"/>
<path d="M22.2035 14.7597C22.1353 14.3838 22.1 13.9672 22.1 13.5079C22.1 11.7282 22.7775 9.95094 24.1886 8.16783C25.6733 6.37596 27.4074 5.07301 29.3921 4.24736L29.8885 4.04083L29.6465 3.56068L28.7465 1.77497L28.5297 1.34489L28.0918 1.54539C24.5573 3.16378 21.8765 5.33605 20.0818 8.07519L20.0817 8.07514L20.077 8.08269C18.3571 10.8127 17.5 13.8823 17.5 17.2778C17.5 19.9307 18.0833 22.2108 19.2773 24.0925C20.7065 26.3606 22.8367 27.5 25.6 27.5C27.5224 27.5 29.152 26.8591 30.4521 25.5692C31.8135 24.2187 32.5 22.5697 32.5 20.6508C32.5 18.616 31.8237 16.954 30.4423 15.7226C29.1438 14.4393 27.5176 13.8016 25.6 13.8016C24.3499 13.8016 23.2139 14.1212 22.2035 14.7597ZM5.20349 14.7597C5.13534 14.3838 5.1 13.9672 5.1 13.5079C5.1 11.7282 5.77754 9.95096 7.18859 8.16787C8.67329 6.37598 10.4074 5.07301 12.3921 4.24736L12.8885 4.04083L12.6465 3.56068L11.7465 1.77497L11.5297 1.34489L11.0918 1.54539C7.55727 3.16378 4.87646 5.33605 3.08178 8.07519L3.08171 8.07514L3.07695 8.08269C1.35706 10.8127 0.5 13.8823 0.5 17.2778C0.5 19.9307 1.08332 22.2108 2.27727 24.0924C3.70645 26.3606 5.83665 27.5 8.6 27.5C10.5224 27.5 12.152 26.8591 13.4521 25.5692C14.8135 24.2187 15.5 22.5697 15.5 20.6508C15.5 18.616 14.8237 16.954 13.4423 15.7226C12.1438 14.4393 10.5176 13.8016 8.6 13.8016C7.34993 13.8016 6.21393 14.1212 5.20349 14.7597Z" fill="url(#paint1_linear_1164_33672)"/>
<path d="M22.2035 14.7597C22.1353 14.3838 22.1 13.9672 22.1 13.5079C22.1 11.7282 22.7775 9.95094 24.1886 8.16783C25.6733 6.37596 27.4074 5.07301 29.3921 4.24736L29.8885 4.04083L29.6465 3.56068L28.7465 1.77497L28.5297 1.34489L28.0918 1.54539C24.5573 3.16378 21.8765 5.33605 20.0818 8.07519L20.0817 8.07514L20.077 8.08269C18.3571 10.8127 17.5 13.8823 17.5 17.2778C17.5 19.9307 18.0833 22.2108 19.2773 24.0925C20.7065 26.3606 22.8367 27.5 25.6 27.5C27.5224 27.5 29.152 26.8591 30.4521 25.5692C31.8135 24.2187 32.5 22.5697 32.5 20.6508C32.5 18.616 31.8237 16.954 30.4423 15.7226C29.1438 14.4393 27.5176 13.8016 25.6 13.8016C24.3499 13.8016 23.2139 14.1212 22.2035 14.7597ZM5.20349 14.7597C5.13534 14.3838 5.1 13.9672 5.1 13.5079C5.1 11.7282 5.77754 9.95096 7.18859 8.16787C8.67329 6.37598 10.4074 5.07301 12.3921 4.24736L12.8885 4.04083L12.6465 3.56068L11.7465 1.77497L11.5297 1.34489L11.0918 1.54539C7.55727 3.16378 4.87646 5.33605 3.08178 8.07519L3.08171 8.07514L3.07695 8.08269C1.35706 10.8127 0.5 13.8823 0.5 17.2778C0.5 19.9307 1.08332 22.2108 2.27727 24.0924C3.70645 26.3606 5.83665 27.5 8.6 27.5C10.5224 27.5 12.152 26.8591 13.4521 25.5692C14.8135 24.2187 15.5 22.5697 15.5 20.6508C15.5 18.616 14.8237 16.954 13.4423 15.7226C12.1438 14.4393 10.5176 13.8016 8.6 13.8016C7.34993 13.8016 6.21393 14.1212 5.20349 14.7597Z" stroke="url(#paint2_linear_1164_33672)"/>
<path d="M22.2035 14.7597C22.1353 14.3838 22.1 13.9672 22.1 13.5079C22.1 11.7282 22.7775 9.95094 24.1886 8.16783C25.6733 6.37596 27.4074 5.07301 29.3921 4.24736L29.8885 4.04083L29.6465 3.56068L28.7465 1.77497L28.5297 1.34489L28.0918 1.54539C24.5573 3.16378 21.8765 5.33605 20.0818 8.07519L20.0817 8.07514L20.077 8.08269C18.3571 10.8127 17.5 13.8823 17.5 17.2778C17.5 19.9307 18.0833 22.2108 19.2773 24.0925C20.7065 26.3606 22.8367 27.5 25.6 27.5C27.5224 27.5 29.152 26.8591 30.4521 25.5692C31.8135 24.2187 32.5 22.5697 32.5 20.6508C32.5 18.616 31.8237 16.954 30.4423 15.7226C29.1438 14.4393 27.5176 13.8016 25.6 13.8016C24.3499 13.8016 23.2139 14.1212 22.2035 14.7597ZM5.20349 14.7597C5.13534 14.3838 5.1 13.9672 5.1 13.5079C5.1 11.7282 5.77754 9.95096 7.18859 8.16787C8.67329 6.37598 10.4074 5.07301 12.3921 4.24736L12.8885 4.04083L12.6465 3.56068L11.7465 1.77497L11.5297 1.34489L11.0918 1.54539C7.55727 3.16378 4.87646 5.33605 3.08178 8.07519L3.08171 8.07514L3.07695 8.08269C1.35706 10.8127 0.5 13.8823 0.5 17.2778C0.5 19.9307 1.08332 22.2108 2.27727 24.0924C3.70645 26.3606 5.83665 27.5 8.6 27.5C10.5224 27.5 12.152 26.8591 13.4521 25.5692C14.8135 24.2187 15.5 22.5697 15.5 20.6508C15.5 18.616 14.8237 16.954 13.4423 15.7226C12.1438 14.4393 10.5176 13.8016 8.6 13.8016C7.34993 13.8016 6.21393 14.1212 5.20349 14.7597Z" stroke="url(#paint3_linear_1164_33672)"/>
<defs>
<linearGradient id="paint0_linear_1164_33672" x1="29.0445" y1="27" x2="-23.6727" y2="26.8784" gradientUnits="userSpaceOnUse">
<stop stop-color="#00B4FF"/>
<stop offset="1" stop-color="#9ADEFC"/>
</linearGradient>
<linearGradient id="paint1_linear_1164_33672" x1="31.0584" y1="33.3524" x2="-124.387" y2="44.9438" gradientUnits="userSpaceOnUse">
<stop stop-color="#DEE5F8"/>
<stop offset="1" stop-color="white"/>
</linearGradient>
<linearGradient id="paint2_linear_1164_33672" x1="13.2407" y1="-8.04096" x2="31.1878" y2="16.0646" gradientUnits="userSpaceOnUse">
<stop stop-color="#01B5FF"/>
<stop offset="1" stop-color="white"/>
</linearGradient>
<linearGradient id="paint3_linear_1164_33672" x1="13.2407" y1="-8.04096" x2="31.1878" y2="16.0646" gradientUnits="userSpaceOnUse">
<stop stop-color="#DEE5F8"/>
<stop offset="1" stop-color="white"/>
</linearGradient>
</defs>
</svg>
