<svg width="41" height="43" viewBox="0 0 41 43" fill="none" xmlns="http://www.w3.org/2000/svg">
<g filter="url(#filter0_b_1150_653878)">
<ellipse cx="20.8902" cy="20" rx="19.941" ry="20" fill="white" fill-opacity="0.8"/>
<path d="M40.3311 20C40.3311 30.7709 31.6257 39.5 20.8902 39.5C10.1546 39.5 1.44922 30.7709 1.44922 20C1.44922 9.22905 10.1546 0.5 20.8902 0.5C31.6257 0.5 40.3311 9.22905 40.3311 20Z" stroke="white"/>
</g>
<g filter="url(#filter1_b_1150_653878)">
<ellipse cx="20.8133" cy="19.9229" rx="19.8641" ry="19.9229" fill="url(#paint0_linear_1150_653878)" fill-opacity="0.4"/>
<path d="M39.6775 19.9229C39.6775 30.3766 31.2289 38.8459 20.8133 38.8459C10.3978 38.8459 1.94922 30.3766 1.94922 19.9229C1.94922 9.46929 10.3978 1 20.8133 1C31.2289 1 39.6775 9.46929 39.6775 19.9229Z" stroke="url(#paint1_linear_1150_653878)" stroke-width="2"/>
</g>
<g clip-path="url(#clip0_1150_653878)" filter="url(#filter2_d_1150_653878)">
<path d="M9.9083 26.5629L13.2888 29.9369C13.4402 30.0879 13.4402 30.333 13.2888 30.4842L13.2759 30.4969C13.1246 30.6482 12.879 30.6482 12.7275 30.4969L9.34713 27.1232C9.19562 26.972 9.19562 26.7269 9.34713 26.5758L9.35985 26.5629C9.51136 26.4119 9.75694 26.4119 9.9083 26.5629Z" fill="#737373"/>
<path d="M29.2307 10.3033C29.3086 10.3033 29.3865 10.3331 29.446 10.3924C29.5649 10.5109 29.5649 10.7033 29.446 10.822L25.3079 14.952C25.189 15.0707 24.9962 15.0707 24.8773 14.952C24.7585 14.8333 24.7585 14.6409 24.8773 14.5224L29.0154 10.3924C29.0748 10.3331 29.1527 10.3033 29.2307 10.3033Z" fill="#737373"/>
<path d="M23.1273 15.3519L23.9481 14.5327C24.1979 14.2835 24.6026 14.2835 24.8522 14.5327L25.3401 15.0198C25.5897 15.2689 25.5897 15.6728 25.3401 15.9219L24.5193 16.7412" fill="#D7E4EF"/>
<path d="M19.5147 16.7202C20.4572 15.7796 21.7647 15.2976 23.0935 15.4011C23.829 15.4583 24.4133 16.0415 24.4706 16.7755C24.5741 18.1016 24.0912 19.4066 23.1488 20.3472L16.6757 26.8076L13.0416 23.1808L19.5147 16.7202Z" fill="#D7E4EF"/>
<path d="M13.855 23.9912L15.1838 22.665L15.9178 21.9326L20.3283 17.5307C21.2707 16.5902 22.5782 16.1082 23.9069 16.2115C24.0676 16.2241 24.2209 16.2616 24.3633 16.3203C24.1525 15.8121 23.67 15.446 23.0952 15.4014C21.7664 15.2979 20.4588 15.78 19.5164 16.7205L15.1061 21.1224L13.0433 23.1811L13.855 23.9912Z" fill="#C1CCD6"/>
<path d="M17.1254 19.1047C17.1254 19.1047 18.2597 19.0431 19.0512 20.8097C19.8426 22.5763 20.8681 22.623 20.8681 22.623L23.1488 20.347C24.0912 19.4064 24.5741 18.1014 24.4706 16.7752C24.4131 16.0411 23.829 15.458 23.0935 15.4008C21.7647 15.2975 20.4572 15.7794 19.5147 16.72L17.1254 19.1047Z" fill="#5B9ED6"/>
<path d="M18.2385 19.6162L20.3283 17.5307C21.2707 16.5901 22.5782 16.1081 23.9069 16.2114C24.0676 16.224 24.2209 16.2615 24.3633 16.3202C24.1525 15.812 23.67 15.4459 23.0952 15.4013C21.7664 15.2978 20.4588 15.78 19.5164 16.7204L17.127 19.1052C17.127 19.1051 17.653 19.0767 18.2385 19.6162Z" fill="#4F8ABA"/>
<path d="M12.4915 22.6309L17.2274 27.3577C17.4138 27.5438 17.4138 27.8454 17.2274 28.0313L17.2117 28.047C17.0252 28.233 16.723 28.233 16.5366 28.047L11.8007 23.3203C11.6143 23.1343 11.6143 22.8326 11.8007 22.6467L11.8164 22.6309C12.0028 22.445 12.305 22.445 12.4915 22.6309Z" fill="#B1BAC4"/>
<path d="M12.3014 23.8203L12.9922 23.1309L12.4987 22.6383C12.3079 22.4479 11.9987 22.4479 11.8079 22.6383C11.6171 22.8288 11.6171 23.1374 11.8079 23.3278L12.3014 23.8203Z" fill="#8F969E"/>
<path d="M15.4531 26.9661L12.882 29.5322L10.3108 26.9661L12.882 24.4L15.4531 26.9661Z" fill="#BDBDBD"/>
<path d="M12.882 29.5322L13.3183 29.0969L11.9686 27.7497C11.6887 27.4703 11.6887 27.0174 11.9686 26.738L13.5965 25.1131L15.4531 26.9661L12.882 24.4L10.3108 26.9661L12.882 29.5322Z" fill="#A1A1A1"/>
<path d="M17.0262 24.3213C17.1041 24.3213 17.1819 24.351 17.2414 24.4103L18.1374 25.3046C18.2563 25.4231 18.2563 25.6156 18.1374 25.7342C18.0185 25.8529 17.8258 25.8529 17.7069 25.7342L16.8109 24.84C16.692 24.7213 16.692 24.5289 16.8109 24.4103C16.8704 24.351 16.9483 24.3213 17.0262 24.3213Z" fill="#737373"/>
<path d="M18.0965 23.2531C18.1743 23.2531 18.2522 23.2827 18.3117 23.342L19.2077 24.2363C19.3266 24.3549 19.3266 24.5474 19.2077 24.6659C19.0888 24.7846 18.896 24.7846 18.7772 24.6659L17.8812 23.7716C17.7623 23.6529 17.7623 23.4607 17.8812 23.342C17.9407 23.2827 18.0184 23.2531 18.0965 23.2531Z" fill="#737373"/>
<path d="M18.3571 21.3814C18.4348 21.3814 18.5128 21.411 18.5722 21.4703L20.2742 23.1688C20.393 23.2875 20.393 23.4799 20.2742 23.5986C20.1553 23.7171 19.9625 23.7171 19.8436 23.5986L18.1418 21.8999C18.0229 21.7813 18.0229 21.589 18.1418 21.4703C18.2012 21.411 18.2791 21.3814 18.3571 21.3814Z" fill="#737373"/>
<path d="M20.2332 21.1181C20.3112 21.1181 20.3891 21.1479 20.4486 21.2072L21.3444 22.1013C21.4633 22.22 21.4633 22.4124 21.3444 22.5311C21.2257 22.6498 21.0329 22.6498 20.9139 22.5311L20.0179 21.6368C19.8992 21.5182 19.8992 21.3257 20.0179 21.2072C20.0774 21.1479 20.1553 21.1181 20.2332 21.1181Z" fill="#737373"/>
<path d="M21.3034 20.0499C21.3813 20.0499 21.4593 20.0795 21.5187 20.1389L22.4147 21.0331C22.5336 21.1518 22.5336 21.3442 22.4147 21.4628C22.2958 21.5814 22.103 21.5814 21.9843 21.4627L21.0882 20.5685C20.9693 20.45 20.9693 20.2575 21.0882 20.1389C21.1477 20.0795 21.2256 20.0499 21.3034 20.0499Z" fill="#737373"/>
<path d="M21.5679 18.1772C21.6458 18.1772 21.7238 18.2069 21.7832 18.2663L23.485 19.9648C23.6039 20.0834 23.6039 20.2759 23.485 20.3944C23.3661 20.5131 23.1733 20.5131 23.0544 20.3944L21.3526 18.6959C21.2337 18.5772 21.2337 18.3848 21.3526 18.2663C21.412 18.2069 21.49 18.1772 21.5679 18.1772Z" fill="#737373"/>
</g>
<defs>
<filter id="filter0_b_1150_653878" x="-3.05078" y="-4" width="47.8828" height="48" filterUnits="userSpaceOnUse" color-interpolation-filters="sRGB">
<feFlood flood-opacity="0" result="BackgroundImageFix"/>
<feGaussianBlur in="BackgroundImageFix" stdDeviation="2"/>
<feComposite in2="SourceAlpha" operator="in" result="effect1_backgroundBlur_1150_653878"/>
<feBlend mode="normal" in="SourceGraphic" in2="effect1_backgroundBlur_1150_653878" result="shape"/>
</filter>
<filter id="filter1_b_1150_653878" x="-14.0508" y="-15" width="69.7266" height="69.8457" filterUnits="userSpaceOnUse" color-interpolation-filters="sRGB">
<feFlood flood-opacity="0" result="BackgroundImageFix"/>
<feGaussianBlur in="BackgroundImageFix" stdDeviation="7.5"/>
<feComposite in2="SourceAlpha" operator="in" result="effect1_backgroundBlur_1150_653878"/>
<feBlend mode="normal" in="SourceGraphic" in2="effect1_backgroundBlur_1150_653878" result="shape"/>
</filter>
<filter id="filter2_d_1150_653878" x="0" y="6" width="39" height="37" filterUnits="userSpaceOnUse" color-interpolation-filters="sRGB">
<feFlood flood-opacity="0" result="BackgroundImageFix"/>
<feColorMatrix in="SourceAlpha" type="matrix" values="0 0 0 0 0 0 0 0 0 0 0 0 0 0 0 0 0 0 127 0" result="hardAlpha"/>
<feOffset dy="4"/>
<feGaussianBlur stdDeviation="4"/>
<feColorMatrix type="matrix" values="0 0 0 0 0 0 0 0 0 0 0 0 0 0 0 0 0 0 0.25 0"/>
<feBlend mode="normal" in2="BackgroundImageFix" result="effect1_dropShadow_1150_653878"/>
<feBlend mode="normal" in="SourceGraphic" in2="effect1_dropShadow_1150_653878" result="shape"/>
</filter>
<linearGradient id="paint0_linear_1150_653878" x1="27.4962" y1="15.2997" x2="-1.90574" y2="58.4316" gradientUnits="userSpaceOnUse">
<stop stop-color="white"/>
<stop offset="1" stop-color="#D1E4F0"/>
</linearGradient>
<linearGradient id="paint1_linear_1150_653878" x1="33.5547" y1="-9.82973" x2="18.8203" y2="36.6159" gradientUnits="userSpaceOnUse">
<stop stop-color="#DEE5F8"/>
<stop offset="1" stop-color="white"/>
</linearGradient>
<clipPath id="clip0_1150_653878">
<rect width="23" height="21" fill="white" transform="translate(31 31) rotate(-180)"/>
</clipPath>
</defs>
</svg>
