<svg width="48" height="48" fill="none" xmlns="http://www.w3.org/2000/svg"><circle cx="23.716" cy="23.591" r="23.591" fill="#F8F8F8"/><g clip-path="url(#a)"><path d="m22.504 33.944-8.607-7.791a5.843 5.843 0 0 1 0-8.384c2.364-2.312 6.21-2.312 8.573 0l.034.033.045-.01c2.737-2.048 5.685-2.335 8.048-.023 2.263 2.213 1.859 5.242 1.492 5.74-2.145 2.918-9.555 10.403-9.585 10.435Z" fill="#FF8A85"/><path d="M32.602 23.509c.32-.434.279-1.769.279-1.769-.194-5.141-6.609-7.625-10.343-3.972l-.034.033v16.142l4.2-3.802s4.673-4.966 5.898-6.632Z" fill="#FF665E"/><path d="m23.996 28.14 5.918 5.358c4.76-4.924 6.616-5.9 6.616-7.745 0-.906-.222-1.93-1.015-2.398-1.683-.991-3.038-1.171-4.39.15l-1.21.835-1.007-.985c-2.17-2.122-5.918-.614-5.918 2.398a3.33 3.33 0 0 0 1.006 2.387Z" fill="#F6E486"/><path d="M35.823 23.355a3.526 3.526 0 0 0-4.903 0l-1.006.984v9.158l5.919-5.357a3.336 3.336 0 0 0-.01-4.785Z" fill="#F0CE46"/></g><defs><clipPath id="a"><path fill="#fff" transform="translate(12.125 16)" d="M0 0h24.714v17.974H0z"/></clipPath></defs></svg>