<svg width="48" height="49" fill="none" xmlns="http://www.w3.org/2000/svg"><circle cx="23.716" cy="24.227" r="23.591" fill="#F8F8F8"/><g clip-path="url(#a)" filter="url(#b)"><path d="M22.235 32.51a2.52 2.52 0 0 1-.535.17c-.014.004-.03.004-.049.004a1.3 1.3 0 0 1-.194.015h-.063a.899.899 0 0 1-.229-.039c-.593-.194-.915-.934-1.25-1.634l-.16-.321c-.185-.35-.385-.667-.643-.856a1.58 1.58 0 0 0-.326-.17l-.078-.03a2.683 2.683 0 0 0-.379-.107c-.01 0-.02-.005-.03-.005-.14-.029-.286-.053-.437-.078h-.014c-.19-.029-.385-.053-.575-.082-.082-.015-.165-.025-.248-.04l-.16-.028c-.01 0-.02-.005-.03-.005l-.296.5-2.34 3.936 4.218-.958 1.182 4.159 2.203-3.712.433-.72Zm10.18-2.715-.297-.496c-.01 0-.02.005-.029.005l-.16.029c-.083.015-.166.03-.249.039-.19.029-.384.053-.574.082h-.014c-.151.02-.297.05-.443.078-.01 0-.02.005-.029.005-.131.03-.258.063-.38.107l-.077.03a1.72 1.72 0 0 0-.326.17c-.102.078-.2.17-.287.282-.613.768-.89 2.242-1.766 2.524a.902.902 0 0 1-.229.04h-.063a1.47 1.47 0 0 1-.194-.015c-.015 0-.03-.005-.049-.005-.17-.03-.35-.088-.53-.166l.423.715 2.204 3.712 1.177-4.159 4.217.958-2.325-3.935Z" fill="#FF7058"/><path d="M33.165 19.643c-.326-1.002.593-2.641-.015-3.478-.613-.841-2.461-.472-3.303-1.085-.832-.608-1.05-2.48-2.053-2.806-.968-.317-2.242 1.065-3.312 1.065-1.07 0-2.345-1.377-3.313-1.065-1.002.326-1.22 2.198-2.053 2.806-.841.613-2.69.244-3.303 1.085-.607.832.312 2.476-.014 3.478-.311.963-2.033 1.751-2.033 2.822 0 1.07 1.717 1.853 2.033 2.82.326 1.003-.593 2.642.014 3.479.613.841 2.462.472 3.303 1.085.832.608 1.051 2.48 2.053 2.806.968.312 2.243-1.07 3.313-1.07 1.07 0 2.345 1.377 3.313 1.066 1.002-.326 1.22-2.2 2.052-2.807.842-.613 2.69-.244 3.303-1.085.608-.832-.311-2.476.015-3.478.311-.963 2.033-1.751 2.033-2.821-.005-1.066-1.722-1.854-2.033-2.817Z" fill="#FFD15C"/><path d="M21.168 32.65c-1.002-.325-1.22-2.198-2.053-2.806-.54-.394-1.493-.385-2.271-.55l-.297.501c.311.083.642.126.958.165.501.069 1.022.137 1.284.331.258.19.482.657.696 1.104.34.715.73 1.528 1.508 1.78.15.05.311.074.477.074.111 0 .223-.01.335-.03l.424-.715c-.37.166-.735.253-1.061.146Zm8.679-2.806c-.832.608-1.051 2.48-2.053 2.806-.326.107-.686.015-1.066-.146l.424.715c.112.02.223.03.335.03.166 0 .326-.025.477-.073.778-.253 1.168-1.066 1.508-1.78.214-.453.438-.92.696-1.11.262-.19.783-.258 1.284-.326.316-.043.647-.087.963-.17l-.297-.5c-.778.17-1.732.165-2.271.554Z" fill="#F1543F"/><path d="M30.894 22.464a6.406 6.406 0 0 1-6.115 6.402c-.097.004-.2.01-.296.01a6.413 6.413 0 0 1-6.412-6.266v-.03c-.005-.033-.005-.077-.005-.116a6.415 6.415 0 0 1 6.417-6.411 6.405 6.405 0 0 1 6.41 6.411Z" fill="#F8B64C"/></g><defs><clipPath id="a"><path fill="#fff" transform="translate(12.125 12.227)" d="M0 0h24.714v24.714H0z"/></clipPath><filter id="b" x="4.125" y="8.227" width="40.715" height="40.714" filterUnits="userSpaceOnUse" color-interpolation-filters="sRGB"><feFlood flood-opacity="0" result="BackgroundImageFix"/><feColorMatrix in="SourceAlpha" values="0 0 0 0 0 0 0 0 0 0 0 0 0 0 0 0 0 0 127 0" result="hardAlpha"/><feOffset dy="4"/><feGaussianBlur stdDeviation="4"/><feColorMatrix values="0 0 0 0 0 0 0 0 0 0 0 0 0 0 0 0 0 0 0.2 0"/><feBlend in2="BackgroundImageFix" result="effect1_dropShadow_1150_650433"/><feBlend in="SourceGraphic" in2="effect1_dropShadow_1150_650433" result="shape"/></filter></defs></svg>