<svg width="112" height="114" fill="none" xmlns="http://www.w3.org/2000/svg"><path d="m12.284 29.665-1.892 2.006-1.69 2.15 3.582-4.156ZM8.701 33.82 7.23 36.094 5.998 38.47l2.704-4.648Zm3.582-4.156L8.701 33.82l-2.704 4.648 6.285-8.805Zm4.312-3.49-2.239 1.65-2.073 1.84 4.312-3.49ZM5.998 38.47l-.971 2.457-.688 2.518L6 38.469Zm15.507-14.92-4.91 2.627-4.311 3.489 9.221-6.116Zm0 0-2.521 1.192-2.388 1.435 4.909-2.627Zm-9.221 6.116L5.998 38.47.348 89.208l11.935-59.542ZM5.998 38.47 4.34 43.444.348 89.207l5.65-50.738ZM4.34 43.444l-.379 2.56L.349 89.207 4.34 43.444ZM76.502 8.2 21.505 23.55l-9.221 6.116L76.502 8.2ZM70.06 9.357 24.144 22.626l-2.639.923L70.06 9.357ZM12.284 29.665.348 89.207l1.839 10.996 10.097-70.538ZM76.502 8.2 70.06 9.357 21.505 23.549 76.502 8.2ZM25.871 112.342l3.57.781 2.75.378-6.32-1.159Z" fill="#C7CDDC"/><path d="m.348 89.207-.069 2.975.294 2.84-.225-5.815Zm28.304 23.515 3.538.779 2.918-.03-6.456-.749Zm0 0-2.78-.38 6.318 1.159-3.538-.779Z" fill="#C7CDDC"/><path d="M12.284 29.665 2.187 100.204l17.97 9.913-7.873-80.452ZM.348 89.207l.225 5.815 1.614 5.182-1.84-10.997Zm31.259 23.479-2.955.036 6.456.749-3.5-.785Z" fill="#C7CDDC"/><path d="m95.668 17.462-19.166-9.26-64.219 21.462 83.385-12.202ZM.572 95.022l.64 2.68.975 2.501-1.615-5.182Zm101.834-69.034 2.058 2.604-1.368-2.183-.69-.421ZM22.15 111.527l3.721.814 2.781.38-6.502-1.194Zm78.873-87.75 1.383 2.21.69.422-2.073-2.632Zm2.38 4.69 2.05 2.569-.989-2.444-1.061-.125Zm-78.44 83.442 3.69.812 2.954-.036-6.644-.776ZM76.503 8.201l-3.188.394-3.254.762L76.502 8.2Z" fill="#C7CDDC"/><path d="m24.963 111.909-2.813-.382 6.502 1.195-3.69-.813Zm77.443-85.92.997 2.478 1.061.126-2.058-2.605Zm1.565 5.21 2.051 2.527-.569-2.69-1.482.163ZM2.188 100.204l1.293 2.293 1.599 2.058-2.893-4.351Zm17.97 9.913 75.511-92.654-83.385 12.202 7.874 80.452Z" fill="#C7CDDC"/><path d="m27.955 111.867-2.992.042 6.644.777-3.652-.819Zm75.447-83.4.569 2.732 1.482-.162-2.051-2.57Zm-3.144-5.197 2.147 2.718-1.382-2.21-.765-.508Zm-81.99 87.407 3.882.85 2.813.382-6.695-1.232Zm-16.08-10.473 2.892 4.35 4.053 3.284-6.945-7.634ZM82.56 8.488l-2.966-.32-3.092.034 6.058.286Z" fill="#C7CDDC"/><path d="m98.863 21.032 1.396 2.238.766.508-2.162-2.746Zm2.4 4.753 2.141 2.682-.997-2.479-1.144-.203Zm-69.655 86.901 3.502.785 51.497-4.219-54.998 3.434Zm-10.495-1.625 3.851.848 2.992-.043-6.843-.805ZM5.08 104.555l1.89 1.791 2.164 1.493-4.054-3.284Z" fill="#C7CDDC"/><path d="m21.112 111.061-2.844-.384 6.695 1.232-3.851-.848Zm79.146-87.79 1.004 2.514 1.143.203-2.147-2.718Zm-12.28-13.106-5.417-1.677-6.059-.287 11.476 1.964ZM101.83 28.56l2.142 2.639-.568-2.732-1.574.093Zm-77.687 82.45-3.03.05 6.843.805-3.813-.855ZM2.188 100.204l6.945 7.635 11.025 2.278-17.97-9.913Z" fill="#C7CDDC"/><path d="m101.262 25.785.567 2.775 1.574-.092-2.141-2.683ZM87.978 10.166l-2.61-1.01-2.807-.668 5.417 1.678Zm10.036 10.265 2.244 2.84-1.396-2.239-.848-.6ZM14.213 109.79l4.055.888 2.844.384-6.9-1.272Zm82.391-91.624 1.41 2.266.848.601-2.258-2.867ZM9.133 107.838l2.421 1.16 2.66.791-5.081-1.951Zm89.892-84.856 2.237 2.803-1.004-2.514-1.233-.289Z" fill="#C7CDDC"/><path d="m95.668 17.462-7.69-7.297-11.476-1.964 19.166 9.261Zm-67.713 94.405 3.652.819 52.304-4.41-55.956 3.591Zm-10.866-1.692 4.023.886 3.03-.049-7.053-.837Zm0 0-2.876-.385 6.899 1.271-4.023-.886Zm80.925-89.743 1.01 2.55 1.234.289-2.244-2.84Zm5.957 10.767 5.763 48.45-3.712-45.922-2.051-2.528ZM9.133 107.838l5.08 1.951 5.944.328-11.024-2.279Zm90.459-82.036 2.238 2.758-.567-2.775-1.671.017Z" fill="#C7CDDC"/><path d="m92.459 13.18-2.103-1.67-2.377-1.344 4.48 3.014Zm-72.303 96.938-3.068.057 7.053.837-3.985-.894Zm78.868-87.136.566 2.82 1.671-.017-2.237-2.803Z" fill="#C7CDDC"/><path d="m14.213 109.789 2.876.386 3.068-.058-5.944-.328Zm81.455-92.326 2.346 2.968-1.41-2.266-.936-.702Zm.001 0-3.21-4.283-4.48-3.014 7.69 7.297Z" fill="#C7CDDC"/><path d="m94.243 15.168 1.424 2.294.936.703-2.36-2.997Zm2.441 4.882 2.34 2.931-1.01-2.55-1.33-.38ZM83.91 108.276l-52.304 4.409 54.998-3.433-2.694-.976Zm-59.77 2.735 3.814.855 53.132-4.614-56.945 3.759Z" fill="#C7CDDC"/><path d="m95.67 17.463-1.423-2.294-1.786-1.988 3.21 4.282Zm-.002 0 1.017 2.588 1.329.38-2.346-2.968Zm6.16 11.097 5.686 49.36-3.544-46.72-2.142-2.64Zm7.906 51.089 2.117 1.648-5.829-47.57 3.712 45.922ZM97.248 22.916l2.342 2.886-.566-2.82-1.776-.066Zm-.563-2.865.563 2.865 1.776.066-2.34-2.931Z" fill="#C7CDDC"/><path d="m97.248 22.916-.563-2.865-1.017-2.588 1.58 5.453Zm-16.16 84.337-53.132 4.614 55.957-3.591-2.825-1.023Zm-60.93 2.864 3.985.894 53.982-4.832-57.967 3.938Zm79.434-84.315 5.594 50.304-3.356-47.546-2.238-2.758Zm7.924 52.118 2.22 1.729-5.764-48.45 3.544 46.721Zm-23.603 30.356 2.694.976 3.655-.535-6.35-.441Zm3.723-.555 2.626.996 3.514-.981-6.14-.015Zm22.239-24.629L112 84.67l-.147-3.373-1.978 1.795Zm-22.24 24.629-3.722.555 6.349.441-2.626-.996Zm3.583-1.01 2.558 1.025 3.328-1.397-5.886.372Zm18.269-20.214L111.631 88l.369-3.33-2.513 1.827Zm.249-6.848.139 3.443 1.978-1.795-2.117-1.648Zm-31.611 26.53-53.982 4.832 56.945-3.758-2.963-1.074Zm13.093.532-3.582 1.01 6.14.015-2.558-1.025Zm3.396-1.435 2.49 1.063 3.099-1.781-5.589.718Zm13.983-15.462 2.172 1.432.862-3.245-3.034 1.813Zm-10.82 13.634 2.426 1.11 2.824-2.128-5.25 1.018Zm9.458-10.452 2.209 1.36 1.325-3.11-3.534 1.75Zm2.64-9.904-.388 3.405L112 84.67l-2.125-1.578Zm-15.261 22.184-3.396 1.435 5.886-.372-2.49-1.063Zm2.636-82.36 5.486 51.282-3.144-48.396-2.342-2.886Zm3.414 78.35 2.363 1.164 2.509-2.438-4.872 1.274Zm4.77-5.27 2.254 1.29 1.756-2.93-4.01 1.64Zm-2.204 2.771 2.306 1.225 2.152-2.706-4.458 1.481Zm1.956-22.661 2.33 1.814-5.686-49.36 3.356 47.546Z" fill="#C7CDDC"/><path d="m20.158 110.117 77.809-18.395-2.297-74.26-75.512 92.655Zm60.93-2.865 2.824 1.023 3.723-.555-6.547-.468Zm28.398-20.756-.89 3.317 3.034-1.812-2.144-1.505Zm-11.709 16.952-3.164 1.827 5.589-.717-2.425-1.11Z" fill="#C7CDDC"/><path d="m102.84 77.873-5.592-54.957-1.58-5.453 7.172 60.41Zm5.757 11.94-1.362 3.182 3.534-1.75-2.172-1.432Zm-7.933 11.452-2.886 2.182 5.249-1.018-2.363-1.164Zm6.571-8.27-1.801 3 4.01-1.64-2.209-1.36Zm-4.005 5.771-2.566 2.499 4.872-1.274-2.306-1.225Zm-18.348 7.91 2.754 1.044 3.582-1.01-6.336-.034Zm20.552-10.68-2.204 2.77 4.458-1.48-2.254-1.29Zm2.211-14.56 2.23 1.655-.139-3.443-2.091 1.789Zm-22.763 25.24-3.794.576 6.548.468-2.754-1.044Zm3.653-1.041 2.683 1.075 3.396-1.435-6.079.36Zm18.702-20.718 2.25 1.579.388-3.405-2.638 1.826Zm.279-6.998.129 3.518 2.091-1.79-2.22-1.728ZM75.011 105.05l-54.853 5.066 57.967-3.938-3.114-1.128Zm13.524.585-3.653 1.041 6.336.034-2.683-1.075Zm3.466-1.476 2.613 1.116 3.164-1.828-5.777.712Zm14.316-15.848 2.28 1.502.89-3.317-3.17 1.815Zm-11.084 13.971 2.545 1.165 2.886-2.182-5.43 1.017Zm9.683-10.714 2.319 1.427 1.362-3.182-3.681 1.755Zm2.729-10.131-.408 3.48 2.638-1.826-2.23-1.654Zm-15.644 22.722-3.466 1.476 6.079-.36-2.613-1.116Zm6.184-4.116 2.479 1.222 2.566-2.499-5.045 1.277Zm4.883-5.402 2.366 1.354 1.801-3-4.167 1.646Zm-2.257 2.84 2.419 1.285 2.204-2.77-4.623 1.485Zm1.925-23.284 2.45 1.908L99.592 25.8l3.144 48.396Zm-24.611 31.981 2.963 1.074 3.794-.576-6.757-.498Zm29.112-21.26-.92 3.393 3.17-1.815-2.25-1.579Zm-12.004 17.364-3.232 1.877 5.777-.712-2.545-1.165Z" fill="#C7CDDC"/><path d="m20.158 110.118 54.853-5.066 3.94-.622-58.793 5.688Zm86.159-21.807-1.401 3.258 3.68-1.755-2.279-1.503Zm-8.133 11.732-2.951 2.24 5.431-1.018-2.48-1.222Zm6.732-8.474-1.848 3.073 4.166-1.646-2.318-1.427Zm-4.106 5.913-2.626 2.561 5.046-1.276-2.42-1.285Zm-18.82 8.099 2.891 1.096 3.654-1.041-6.545-.055Zm21.078-10.94-2.258 2.84 4.623-1.485-2.365-1.354Zm2.236-14.941 2.341 1.737-.129-3.517-2.212 1.78Zm-85.146 30.417 58.794-5.688 7.418-2.673-66.212 8.361Z" fill="#C7CDDC"/><path d="m81.99 105.581-3.865.598 6.757.498-2.891-1.096Zm3.728-1.074 2.817 1.129 3.466-1.476-6.283.347Zm19.156-21.247 2.363 1.658.409-3.48-2.772 1.822Zm.312-7.154.118 3.594 2.213-1.78-2.331-1.814Zm-19.468 28.401-3.727 1.074 6.544.055-2.817-1.129Zm3.539-1.519L92 104.16l3.232-1.877-5.976.705Zm13.585-25.115-.106-3.675-5.486-51.282 5.592 54.957Zm-82.684 32.244 66.212-8.361 11.597-10.034-77.809 18.395Zm77.809-18.395 4.875-13.849-7.172-60.41 2.297 74.258Z" fill="#C7CDDC"/><path d="m103.919 86.733 2.395 1.578.92-3.394-3.315 1.816Zm-11.362 14.326 2.673 1.224 2.952-2.24-5.625 1.016Zm9.92-10.99 2.436 1.5 1.401-3.258-3.837 1.758Zm2.824-10.37-.43 3.56 2.772-1.822-2.342-1.737Zm-16.047 23.289-3.54 1.518 6.284-.347-2.744-1.171Zm6.322-4.229 2.606 1.284 2.626-2.562-5.232 1.278Zm5.003-5.54 2.486 1.422 1.848-3.073-4.334 1.65Zm-2.314 2.912 2.543 1.35 2.257-2.84-4.8 1.49Zm-23.257 8.919 3.114 1.129 3.866-.599-6.98-.53Zm29.863-21.791-.952 3.474 3.315-1.816-2.363-1.658Zm-12.314 17.8-3.303 1.929 5.976-.705-2.673-1.224Zm11.362-14.326-1.442 3.336 3.837-1.758-2.395-1.579Zm-8.343 12.026-3.02 2.3 5.626-1.016-2.606-1.284Zm6.901-8.69-1.898 3.15 4.334-1.65-2.436-1.5Zm-4.212 6.062-2.689 2.628 5.232-1.278-2.543-1.35Zm-19.316 8.298 3.039 1.151 3.727-1.074-6.766-.077Zm21.63-11.21-2.314 2.912 4.8-1.49-2.486-1.423Zm2.26-15.347 2.462 1.828-.118-3.595-2.344 1.767Zm-23.89 26.557-3.941.621 6.98.53-3.039-1.151Zm3.803-1.109 2.963 1.186 3.539-1.518-6.502.332Zm19.634-21.805 2.485 1.744.43-3.56-2.915 1.816Zm.348-7.318.105 3.675 2.344-1.767-2.449-1.908ZM82.752 103.32l-3.803 1.109 6.766.077-2.963-1.186Zm3.616-1.565 2.886 1.233 3.303-1.929-6.19.696ZM101.4 85.072l2.519 1.66.952-3.473-3.471 1.813Zm-11.655 14.7 2.812 1.287 3.02-2.3-5.832 1.013Zm10.169-11.28 2.563 1.577 1.442-3.337-4.005 1.76Zm2.925-10.62-.453 3.643 2.915-1.816-2.462-1.827Zm-16.471 23.883-3.616 1.565 6.502-.332-2.886-1.233Zm6.467-4.346 2.741 1.35 2.69-2.628-5.431 1.278Zm5.13-5.688 2.614 1.497 1.898-3.149-4.513 1.652ZM95.59 94.71l2.675 1.42 2.314-2.912-4.989 1.492Zm6.796-13.195-.986 3.557 3.471-1.813-2.485-1.744ZM89.745 99.772l-3.377 1.983 6.189-.696-2.812-1.287Z" fill="#C7CDDC"/><path d="m78.95 104.429 3.802-1.109 3.616-1.564-7.419 2.673Zm22.451-19.357-1.486 3.42 4.006-1.76-2.52-1.66ZM92.836 97.41l-3.09 2.363 5.832-1.013-2.742-1.35Zm7.08-8.917-1.95 3.229 4.512-1.652-2.563-1.577ZM95.59 94.71l-2.755 2.699 5.43-1.278-2.675-1.421Zm2.374-2.989L95.59 94.71l4.99-1.492-2.616-1.497Z" fill="#C7CDDC"/><path d="m101.402 85.073.985-3.557.454-3.643-1.439 7.2Zm-3.436 6.649 3.436-6.65 1.439-7.199-4.875 13.849Zm-11.597 10.034 3.377-1.984 3.09-2.363-6.467 4.347Zm0 0 6.468-4.347 5.129-5.688-11.597 10.035Zm11.597-10.034 1.95-3.23 1.486-3.42-3.436 6.65Zm-5.13 5.687 2.756-2.699 2.374-2.988-5.13 5.687Z" fill="#C7CDDC"/><mask id="a" style="mask-type:alpha" maskUnits="userSpaceOnUse" x="0" y="8" width="112" height="106"><path d="M12.282 29.665 10.39 31.67 8.7 33.82l3.582-4.156ZM8.7 33.82l-1.472 2.273-1.232 2.375L8.7 33.821Zm3.582-4.156L8.7 33.82l-2.704 4.648 6.286-8.805Zm4.312-3.49-2.239 1.65-2.073 1.84 4.312-3.49ZM5.996 38.47l-.971 2.457-.688 2.518 1.66-4.975Zm15.507-14.92-4.909 2.627-4.312 3.489 9.221-6.116Zm0 0-2.521 1.192-2.388 1.435 4.91-2.627Zm-9.221 6.116L5.996 38.47.346 89.208l11.936-59.542ZM5.996 38.47l-1.659 4.975L.346 89.207l5.65-50.738Zm-1.659 4.975-.378 2.56L.346 89.207l3.991-45.763ZM76.501 8.2 21.503 23.55l-9.221 6.116L76.5 8.2Zm-6.443 1.156-45.916 13.27-2.639.923L70.058 9.357ZM12.282 29.665.346 89.207l1.839 10.996 10.097-70.538ZM76.5 8.2l-6.443 1.156-48.555 14.192L76.501 8.2ZM25.87 112.342l3.568.781 2.75.378-6.319-1.159Z" fill="#C7CDDC"/><path d="m.346 89.207-.069 2.975.294 2.84-.225-5.815Zm28.304 23.515 3.538.779 2.918-.03-6.456-.749Zm0 0-2.78-.38 6.318 1.159-3.538-.779Z" fill="#C7CDDC"/><path d="M12.282 29.665 2.185 100.204l17.97 9.913-7.873-80.452ZM.346 89.207l.225 5.815 1.614 5.182-1.84-10.997Zm31.259 23.479-2.955.036 6.456.749-3.5-.785Z" fill="#C7CDDC"/><path d="M95.666 17.462 76.5 8.202 12.281 29.663l83.385-12.202ZM.57 95.022l.64 2.68.975 2.501L.57 95.021Zm101.834-69.034 2.058 2.604-1.368-2.183-.69-.421Zm-80.256 85.539 3.721.814 2.781.38-6.502-1.194Zm78.874-87.75 1.382 2.21.69.422-2.072-2.632Zm2.379 4.69 2.05 2.569-.989-2.444-1.061-.125Zm-78.44 83.442 3.69.812 2.954-.036-6.644-.776ZM76.501 8.201l-3.188.394-3.254.762L76.5 8.2Z" fill="#C7CDDC"/><path d="m24.96 111.909-2.812-.382 6.502 1.195-3.69-.813Zm77.444-85.92.997 2.478 1.061.126-2.058-2.605Zm1.565 5.21 2.051 2.527-.569-2.69-1.482.163ZM2.186 100.204l1.293 2.293 1.599 2.058-2.892-4.351Zm17.97 9.913 75.511-92.654-83.385 12.202 7.874 80.452Z" fill="#C7CDDC"/><path d="m27.953 111.867-2.992.042 6.644.777-3.652-.819Zm75.447-83.4.569 2.732 1.482-.162-2.051-2.57Zm-3.144-5.197 2.147 2.718-1.382-2.21-.765-.508Zm-81.99 87.407 3.882.85 2.813.382-6.695-1.232Zm-16.08-10.473 2.892 4.35 4.053 3.284-6.945-7.634ZM82.56 8.488l-2.967-.32-3.092.034 6.059.286Z" fill="#C7CDDC"/><path d="m98.861 21.032 1.396 2.238.766.508-2.162-2.746Zm2.4 4.753 2.141 2.682-.997-2.479-1.144-.203Zm-69.654 86.901 3.5.785 51.498-4.219-54.998 3.434Zm-10.496-1.625 3.851.848 2.992-.043-6.843-.805Zm-16.033-6.506 1.89 1.791 2.164 1.493-4.054-3.284Z" fill="#C7CDDC"/><path d="m21.11 111.061-2.844-.384 6.695 1.232-3.851-.848Zm79.146-87.79 1.004 2.514 1.143.203-2.147-2.718Zm-12.28-13.106-5.418-1.677L76.5 8.2l11.476 1.964Zm13.852 18.395 2.142 2.639-.568-2.732-1.574.093Zm-77.687 82.45-3.03.05 6.843.805-3.813-.855ZM2.186 100.204l6.945 7.635 11.025 2.278-17.97-9.913Z" fill="#C7CDDC"/><path d="m101.26 25.785.567 2.775 1.574-.092-2.141-2.683ZM87.976 10.166l-2.61-1.01-2.807-.668 5.417 1.678Zm10.036 10.265 2.244 2.84-1.396-2.239-.848-.6ZM14.211 109.79l4.055.888 2.844.384-6.9-1.272Zm82.391-91.624 1.41 2.266.848.601-2.258-2.867ZM9.13 107.838l2.422 1.16 2.66.791-5.081-1.951Zm89.893-84.856 2.237 2.803-1.004-2.514-1.233-.289Z" fill="#C7CDDC"/><path d="m95.666 17.462-7.69-7.297L76.5 8.201l19.166 9.261Zm-67.713 94.405 3.652.819 52.304-4.41-55.956 3.591Zm-10.866-1.692 4.023.886 3.03-.049-7.053-.837Zm0 0-2.876-.385 6.899 1.271-4.023-.886Zm80.925-89.743 1.01 2.55 1.234.289-2.244-2.84Zm5.957 10.767 5.764 48.45-3.713-45.922-2.051-2.528ZM9.13 107.838l5.081 1.951 5.944.328-11.024-2.279Zm90.46-82.036 2.239 2.758-.568-2.775-1.671.017Z" fill="#C7CDDC"/><path d="m92.457 13.18-2.103-1.67-2.377-1.344 4.48 3.014Zm-72.303 96.938-3.068.057 7.053.837-3.985-.894Zm78.868-87.136.566 2.82 1.671-.017-2.237-2.803Z" fill="#C7CDDC"/><path d="m14.21 109.789 2.877.386 3.068-.058-5.944-.328Zm81.456-92.326 2.346 2.968-1.41-2.266-.936-.702Zm.001 0-3.21-4.283-4.48-3.014 7.69 7.297Z" fill="#C7CDDC"/><path d="m94.241 15.168 1.424 2.294.936.703-2.36-2.997Zm2.441 4.882 2.34 2.931-1.01-2.55-1.33-.38Zm-12.774 88.226-52.304 4.409 54.998-3.433-2.694-.976Zm-59.77 2.735 3.814.855 53.132-4.614-56.945 3.759Z" fill="#C7CDDC"/><path d="m95.669 17.463-1.424-2.294-1.786-1.988 3.21 4.282Zm-.003 0 1.017 2.588 1.329.38-2.346-2.968Zm6.16 11.097 5.686 49.36-3.544-46.721-2.142-2.64Zm7.906 51.089 2.117 1.648-5.829-47.57 3.712 45.922ZM97.246 22.916l2.342 2.886-.566-2.82-1.776-.066Zm-.563-2.865.563 2.865 1.776.066-2.34-2.931Z" fill="#C7CDDC"/><path d="m97.246 22.916-.563-2.865-1.017-2.588 1.58 5.453Zm-16.159 84.337-53.133 4.614 55.957-3.591-2.824-1.023Zm-60.93 2.864 3.984.894 53.982-4.832-57.967 3.938ZM99.59 25.802l5.594 50.304-3.356-47.546-2.238-2.758Zm7.924 52.118 2.22 1.729-5.764-48.45 3.544 46.721Zm-23.603 30.356 2.694.976 3.655-.535-6.35-.441Zm3.723-.555 2.626.996 3.514-.981-6.14-.015Zm22.239-24.629 2.126 1.578-.148-3.373-1.978 1.795Zm-22.24 24.629-3.722.555 6.349.441-2.626-.996Zm3.583-1.01 2.558 1.025 3.329-1.397-5.887.372Zm18.269-20.214L111.629 88l.37-3.331-2.514 1.827Zm.249-6.848.139 3.443 1.978-1.795-2.117-1.648Zm-31.611 26.53-53.982 4.832 56.946-3.758-2.964-1.074Zm13.093.532-3.582 1.01 6.14.015-2.558-1.025Zm3.396-1.435 2.49 1.063 3.099-1.781-5.589.718Zm13.983-15.462 2.172 1.432.862-3.245-3.034 1.813Zm-10.82 13.634 2.426 1.11 2.825-2.128-5.25 1.018Zm9.458-10.452 2.209 1.36 1.325-3.11-3.534 1.75Zm2.64-9.904-.388 3.405 2.514-1.827-2.126-1.578Zm-15.261 22.184-3.396 1.435 5.887-.372-2.491-1.063Zm2.636-82.36 5.486 51.282-3.144-48.396-2.342-2.886Zm3.415 78.35 2.363 1.164 2.508-2.438-4.871 1.274Zm4.769-5.27 2.254 1.29 1.756-2.93-4.01 1.64Zm-2.204 2.771 2.306 1.225 2.152-2.706-4.458 1.481Zm1.956-22.661 2.33 1.814-5.686-49.36 3.356 47.546Z" fill="#C7CDDC"/><path d="m20.156 110.117 77.809-18.395-2.297-74.26-75.512 92.655Zm60.93-2.865 2.824 1.023 3.723-.555-6.547-.468Zm28.398-20.756-.89 3.317 3.034-1.812-2.144-1.505Zm-11.709 16.952-3.164 1.827 5.589-.717-2.425-1.11Z" fill="#C7CDDC"/><path d="m102.838 77.873-5.592-54.957-1.58-5.453 7.172 60.41Zm5.757 11.94-1.362 3.182 3.534-1.75-2.172-1.432Zm-7.932 11.452-2.887 2.182 5.25-1.018-2.363-1.164Zm6.57-8.27-1.801 3 4.01-1.64-2.209-1.36Zm-4.005 5.771-2.565 2.499 4.871-1.274-2.306-1.225Zm-18.348 7.91 2.754 1.044 3.582-1.01-6.336-.034Zm20.552-10.68-2.204 2.77 4.458-1.48-2.254-1.29Zm2.211-14.56 2.23 1.655-.139-3.443-2.091 1.789Zm-22.763 25.24-3.793.576 6.547.468-2.754-1.044Zm3.653-1.041 2.683 1.075 3.396-1.435-6.079.36Zm18.702-20.718 2.25 1.579.388-3.405-2.638 1.826Zm.279-6.998.129 3.518 2.091-1.79-2.22-1.728ZM75.009 105.05l-54.853 5.066 57.967-3.938-3.114-1.128Zm13.524.585-3.653 1.041 6.336.034-2.683-1.075Zm3.466-1.476 2.613 1.116 3.164-1.828-5.777.712Zm14.316-15.848 2.28 1.502.89-3.317-3.17 1.815Zm-11.084 13.971 2.545 1.165 2.887-2.182-5.432 1.017Zm9.683-10.714 2.319 1.427 1.362-3.182-3.681 1.755Zm2.729-10.131-.408 3.48 2.638-1.826-2.23-1.654Zm-15.644 22.722-3.466 1.476 6.079-.36-2.613-1.116Zm6.184-4.116 2.48 1.222 2.565-2.499-5.045 1.277Zm4.883-5.402 2.366 1.354 1.801-3-4.167 1.646Zm-2.257 2.84 2.419 1.285 2.204-2.77-4.623 1.485Zm1.925-23.284 2.45 1.908L99.59 25.8l3.144 48.396Zm-24.611 31.981 2.964 1.074 3.793-.576-6.757-.498Zm29.112-21.26-.92 3.393 3.17-1.815-2.25-1.579Zm-12.004 17.364L92 104.159l5.777-.712-2.545-1.165Z" fill="#C7CDDC"/><path d="m20.156 110.118 54.853-5.066 3.94-.622-58.793 5.688Zm86.159-21.807-1.401 3.258 3.68-1.755-2.279-1.503Zm-8.133 11.732-2.951 2.24 5.431-1.018-2.48-1.222Zm6.732-8.474-1.848 3.073 4.166-1.646-2.318-1.427Zm-4.106 5.913-2.626 2.561 5.046-1.276-2.42-1.285Zm-18.82 8.099 2.891 1.096 3.654-1.041-6.545-.055Zm21.078-10.94-2.258 2.84 4.623-1.485-2.365-1.354Zm2.236-14.941 2.341 1.737-.129-3.517-2.212 1.78Zm-85.146 30.417 58.794-5.688 7.418-2.673-66.212 8.361Z" fill="#C7CDDC"/><path d="m81.989 105.581-3.866.598 6.757.498-2.891-1.096Zm3.727-1.074 2.817 1.129L92 104.16l-6.283.347Zm19.156-21.247 2.363 1.658.409-3.48-2.772 1.822Zm.312-7.154.118 3.594 2.213-1.78-2.331-1.814Zm-19.468 28.401-3.727 1.074 6.544.055-2.817-1.129Zm3.539-1.519L92 104.16l3.231-1.877-5.976.705Zm13.585-25.115-.106-3.675-5.486-51.282 5.592 54.957Zm-82.684 32.244 66.212-8.361 11.597-10.034-77.809 18.395Zm77.809-18.395 4.875-13.849-7.172-60.41 2.297 74.258Z" fill="#C7CDDC"/><path d="m103.917 86.733 2.395 1.578.92-3.394-3.315 1.816Zm-11.362 14.326 2.673 1.224 2.952-2.24-5.625 1.016Zm9.92-10.99 2.436 1.5 1.401-3.258-3.837 1.758Zm2.824-10.37-.43 3.56 2.772-1.822-2.342-1.737Zm-16.047 23.289-3.54 1.518 6.284-.347-2.744-1.171Zm6.322-4.229 2.606 1.284 2.626-2.562-5.232 1.278Zm5.003-5.54 2.486 1.422 1.848-3.073-4.334 1.65Zm-2.314 2.912 2.543 1.35 2.257-2.84-4.8 1.49Zm-23.257 8.919 3.114 1.129 3.866-.599-6.98-.53Zm29.863-21.791-.952 3.474 3.315-1.816-2.363-1.658Zm-12.314 17.8-3.303 1.929 5.976-.705-2.673-1.224Zm11.362-14.326-1.442 3.336 3.837-1.758-2.395-1.579Zm-8.343 12.026-3.019 2.3 5.625-1.016-2.606-1.284Zm6.901-8.69-1.898 3.15 4.334-1.65-2.436-1.5Zm-4.212 6.062-2.689 2.628 5.232-1.278-2.543-1.35Zm-19.316 8.298 3.039 1.151 3.727-1.074-6.766-.077Zm21.63-11.21-2.314 2.912 4.8-1.49-2.486-1.423Zm2.26-15.347 2.462 1.828-.118-3.595-2.344 1.767Zm-23.89 26.557-3.941.621 6.98.53-3.039-1.151Zm3.803-1.109 2.963 1.186 3.539-1.518-6.502.332Zm19.634-21.805 2.485 1.744.43-3.56-2.915 1.816Zm.348-7.318.105 3.675 2.344-1.767-2.449-1.908ZM82.75 103.32l-3.803 1.109 6.766.077-2.963-1.186Zm3.615-1.565 2.887 1.233 3.303-1.929-6.19.696Zm15.033-16.683 2.519 1.66.952-3.473-3.471 1.813Zm-11.655 14.7 2.812 1.287 3.02-2.3-5.832 1.013Zm10.17-11.28 2.562 1.577 1.442-3.337-4.005 1.76Zm2.924-10.62-.453 3.643 2.915-1.816-2.462-1.827Zm-16.472 23.883-3.615 1.565 6.502-.332-2.886-1.233Zm6.468-4.346 2.741 1.35 2.69-2.628-5.431 1.278Zm5.13-5.688 2.614 1.497 1.898-3.149-4.513 1.652Zm-2.375 2.989 2.675 1.42 2.314-2.912-4.989 1.492Zm6.796-13.195-.986 3.557 3.471-1.813-2.485-1.744ZM89.743 99.772l-3.377 1.983 6.189-.696-2.812-1.287Z" fill="#C7CDDC"/><path d="m78.947 104.429 3.803-1.109 3.616-1.564-7.419 2.673Zm22.452-19.357-1.486 3.42 4.006-1.76-2.52-1.66ZM92.834 97.41l-3.09 2.363 5.832-1.013-2.742-1.35Zm7.08-8.917-1.95 3.229 4.512-1.652-2.563-1.577Zm-4.325 6.218-2.755 2.699 5.43-1.278-2.675-1.421Zm2.374-2.989L95.59 94.71l4.99-1.492-2.616-1.497Z" fill="#C7CDDC"/><path d="m101.4 85.073.985-3.557.454-3.643-1.439 7.2Zm-3.436 6.649 3.436-6.65 1.439-7.199-4.875 13.849Zm-11.597 10.034 3.377-1.984 3.09-2.363-6.467 4.347Zm0 0 6.468-4.347 5.129-5.688-11.597 10.035Zm11.597-10.034 1.95-3.23 1.486-3.42-3.436 6.65Zm-5.13 5.687 2.756-2.699 2.374-2.988-5.13 5.687Z" fill="#C7CDDC"/></mask><g mask="url(#a)"><ellipse cx="58.382" cy="17.281" rx="58.382" ry="17.281" transform="matrix(.99567 -.09296 .11872 .99293 -9.617 107.229)" fill="url(#b)" fill-opacity=".5"/><ellipse cx="115.386" cy="42.736" rx="19.784" ry="79.068" fill="url(#c)"/></g><path d="M3.739 44.222c1.186-8.95 7.64-17.476 17.222-20.559l45.323-13.539C84.088 4.397 98.215 10.5 97.85 27.24l4.946 50.063c-.249 11.393-10.957 25.268-23.655 27.248l-53.234 5.333C8.113 112.658-1.823 102.3.278 86.441l3.46-42.219Z" fill="url(#d)"/><path d="m64.844 17.313.01-.003.01-.003c7.646-2.468 14.336-2.33 19.016.056 4.605 2.347 7.46 6.973 7.307 14.003l-.002.06.006.059 4.321 43.882c-.12 4.709-2.395 10.02-6.032 14.386-3.644 4.374-8.553 7.683-13.798 8.512l-46.542 4.678-.027.003-.027.004c-7.578 1.186-13.3-.457-16.903-3.893-3.602-3.435-5.275-8.84-4.385-15.576l.003-.025.002-.025 3.025-37.03c.999-7.488 6.39-14.625 14.378-17.208l39.638-11.88Z" fill="url(#e)" fill-opacity=".28" stroke="url(#f)" stroke-width="1.977"/><path d="m30.512 60.105 3.691 1.516.213.076-3.904-1.592Zm.214.077 3.69 1.515.229.045-3.919-1.56Zm.23.045 3.689 1.515.243.012-3.931-1.527Zm.246.011 3.686 1.516.255-.024-3.94-1.492Z" fill="#BF231B"/><path d="m23.781 30.67-.167.212-.144.226.311-.438Zm.392-.372-.205.177-.187.195.392-.372Zm-.392.372-.311.438-.212.482.523-.92Zm-.311.438-.12.237-.092.245.212-.482Zm1.158-1.095-.455.285-.392.372.847-.657Zm0 0-.847.657-.523.92 1.37-1.577Zm0 0-.234.13-.22.155.454-.285Zm-1.37 1.577-.063.25-.03.255.093-.505Zm1.87-1.754-.255.074-.245.103.5-.177Z" fill="#00AEF6"/><path d="m30.726 60.182-.214-.077 3.904 1.592-3.69-1.515Zm.23.045-.23-.045 3.919 1.56-3.688-1.515Zm.246.011-.245-.011 3.93 1.527-3.685-1.516Zm.258-.024-.258.024 3.94 1.492-3.682-1.516Z" fill="#BF231B"/><path d="m43.792 7.662-.19.199-.168.213.358-.412Zm-.358.412-.144.225-.117.235.261-.46Zm.358-.412-.358.412-.261.46.619-.872Zm.436-.342-.227.16-.21.182.437-.342Zm-1.055 1.214-.089.241-.057.246.146-.487Zm1.551-1.466-.496.252-.436.342.932-.594Zm0 0-.254.113-.242.139.496-.252Z" fill="#00AEF6"/><path d="M77.702 6.29 80.6 8.781l-.156-.153-2.742-2.34Zm.129.177 2.897 2.492-.128-.177-2.77-2.315ZM31.46 60.214l3.683 1.516 17.627-2.82-21.31 1.305ZM77.928 6.668l2.898 2.49-.098-.2-2.8-2.29Zm.065.221 2.897 2.487-.064-.219-2.833-2.268Zm.028.241 2.898 2.483-.029-.237-2.87-2.246Z" fill="#BF231B"/><path d="m42.6 25.908-17.974 4.104-1.37 1.577 19.343-5.68Zm0 0-17.475 3.927-.5.177L42.6 25.908Z" fill="#00AEF6"/><path d="m26.688 58.535 3.825 1.57.215.078-4.04-1.648Zm50.857-52.4.157.154 2.742 2.34-2.9-2.494Z" fill="#BF231B"/><path d="m23.256 31.59-.094.505-1.303 23.521 1.397-24.026Z" fill="#00AEF6"/><path d="m26.902 58.612 3.825 1.57.23.045-4.055-1.615ZM77.701 6.29l.129.178 2.77 2.315-2.9-2.493ZM27.135 58.657l3.823 1.57.245.011-4.068-1.581ZM77.83 6.467l.098.201 2.8 2.29-2.898-2.49Zm-50.447 52.2 3.82 1.571.257-.024-4.077-1.547ZM77.928 6.668l.064.221 2.833 2.268-2.897-2.489Z" fill="#BF231B"/><path d="m43.79 7.662-.618.872L42.6 25.91l1.19-18.247Zm-.618.872-.146.487-.426 16.888.572-17.375Z" fill="#00AEF6"/><path d="m77.992 6.89.028.24 2.87 2.246-2.898-2.486Z" fill="#BF231B"/><path d="m43.026 9.021-.024.247L42.6 25.91l.426-16.889Z" fill="#00AEF6"/><path d="m26.903 58.612-.215-.077 4.04 1.647-3.825-1.57Zm.233.045-.233-.045 4.056 1.615-3.823-1.57Zm.248.01-.248-.01 4.068 1.581-3.82-1.57Zm.26-.025-.26.025 4.077 1.547-3.817-1.572Z" fill="#BF231B"/><path d="M70.276.503 44.723 7.068l-.932.594L70.276.502Zm-.569.081-24.72 6.4-.264.084L69.707.584Z" fill="#00AEF6"/><path d="M49.288 57.288 31.46 60.215l21.309-1.305-3.481-1.62ZM78.02 7.13l.61 16.846 2.288-14.363L78.02 7.13Zm-3.325-3.426 3.006 2.585-.157-.154-2.849-2.43Zm.13.18 3.004 2.584-.128-.179-2.876-2.405ZM27.643 58.642l3.817 1.572 17.828-2.925-21.645 1.353Z" fill="#BF231B"/><path d="m23.163 32.095-1.306 23.253.003.268 1.303-23.521Z" fill="#00AEF6"/><path d="m74.924 4.088 3.004 2.581-.097-.2-2.907-2.381Z" fill="#BF231B"/><path d="m23.256 31.59-1.397 24.026.332.882 1.065-24.908Z" fill="#00AEF6"/><path d="m74.988 4.31 3.005 2.579-.064-.222-2.94-2.356Zm.027.244 3.006 2.575-.028-.24-2.978-2.335Zm3.616 19.421 2.97 2.245-.681-16.607-2.29 14.363Z" fill="#BF231B"/><path d="M70.275.503 43.79 7.662 42.6 25.909 70.275.503Z" fill="#00AEF6"/><path d="m22.719 56.907 3.968 1.629.216.077-4.184-1.706ZM74.538 3.55l.158.156 2.848 2.43-3.006-2.586ZM22.936 56.985l3.967 1.628.233.045-4.2-1.673Zm51.76-53.28.13.18L77.7 6.29l-3.005-2.585ZM23.17 57.029l3.965 1.629.247.01-4.212-1.639ZM74.825 3.885l.098.203 2.907 2.38-3.005-2.583ZM23.421 57.039l3.962 1.63.26-.027-4.222-1.603ZM74.923 4.088l.064.224 2.941 2.357-3.005-2.581Zm.064.224.028.244 2.977 2.334-3.005-2.578Z" fill="#BF231B"/><path d="m70.275.503-.568.081-24.984 6.484L70.275.503Z" fill="#00AEF6"/><path d="m22.936 56.984-.217-.078 4.184 1.706-3.967-1.628Zm.235.044-.235-.044 4.2 1.673-3.965-1.629Zm.25.01-.25-.01 4.212 1.64-3.962-1.63Z" fill="#BF231B"/><path d="m42.6 25.908-19.344 5.68L41.923 53.86l.676-27.952Z" fill="#00AEF6"/><path d="m23.683 57.012-.263.027 4.222 1.603-3.96-1.63Z" fill="#BF231B"/><path d="m21.86 55.616.036.25.069.232-.106-.482Zm0 0 .105.482.226.4-.332-.882Zm.105.482.099.212.127.188-.226-.4Zm1.291-24.508-1.065 24.908 19.732-2.637L23.256 31.59Zm-1.065 24.908.152.164.177.137-.33-.301Zm0 0 .329.3.415.186-.744-.486Zm.329.3.198.109.217.078-.415-.186Z" fill="#00AEF6"/><path d="m45.675 55.606-18.032 3.035 21.645-1.353-3.613-1.681ZM75.014 4.555l.532 17.09L78.02 7.13l-3.006-2.575Zm-3.437-3.534 3.118 2.683-.158-.156-2.96-2.527Z" fill="#BF231B"/><path d="m22.936 56.984.234.045.25.01-.485-.055Z" fill="#00AEF6"/><path d="m71.707 1.204 3.118 2.681-.13-.18-2.988-2.5ZM23.684 57.012l3.959 1.63 18.033-3.035-21.992 1.405ZM71.805 1.41l3.118 2.678-.098-.203-3.02-2.475Zm.064.227 3.118 2.675-.064-.224-3.054-2.451Zm.026.247 3.12 2.672-.028-.244-3.092-2.428Zm3.651 19.763 3.083 2.33-.609-16.846-2.474 14.516ZM71.418.865l.16.157 2.96 2.527-3.12-2.684Zm.16.157.13.182 2.988 2.5-3.119-2.682Zm.13.182.097.206 3.02 2.475-3.118-2.68Zm.097.206.064.227 3.054 2.451-3.118-2.678Zm.064.227.026.247 3.092 2.428-3.118-2.675Z" fill="#BF231B"/><path d="m70.276.503-.279.023-.29.058.57-.081Zm.515.054-.25-.043-.265-.011.515.054Zm.441.177-.44-.177-.516-.054.956.23Zm0 0-.21-.103-.23-.074.44.177Zm-49.04 55.764.744.486 18.988-3.124-19.733 2.638ZM71.804 1.409l-.573-.675-.956-.231 1.53.906Zm-.228-.387-.159-.157-.186-.131.345.288Zm-48.64 55.962.484.054 18.503-3.178-18.988 3.124ZM71.804 1.41l-.228-.387-.345-.288.573.675ZM23.42 57.04l.263-.028 18.24-3.15-18.503 3.177ZM71.804 1.41l-.098-.205-.13-.182.228.387Zm.09.474-.026-.247-.064-.227.09.474Zm.448 17.342L70.276.503 42.6 25.909l29.743-6.684Z" fill="#00AEF6"/><path d="m41.924 53.86-18.24 3.15 21.992-1.404-3.752-1.746ZM71.895 1.883l.448 17.342 2.671-14.67-3.119-2.672ZM50.32 77.789l3.582 1.29.257.06-3.839-1.35Zm.26.06 3.58 1.29.271.022-3.85-1.312Zm.275.022 3.576 1.29.284-.015-3.86-1.275Zm21.49-58.646 3.202 2.42-.532-17.09-2.67 14.67Z" fill="#BF231B"/><path d="M72.343 19.225 71.805 1.41 70.276.503l2.067 18.722Zm0 0L42.6 25.91l-.676 27.951 30.42-34.635Zm0 0-.448-17.342-.09-.474.538 17.816Z" fill="#00AEF6"/><path d="m50.58 77.848-.26-.059 3.84 1.35-3.58-1.29Zm.275.023-.275-.023 3.85 1.313-3.575-1.29Zm.287-.017-.288.017 3.86 1.275-3.572-1.292Zm49.853-57.668 2.662 2.407-.182-.173-2.48-2.234Zm.153.2 2.66 2.404-.151-.197-2.509-2.207Zm.118.223 2.66 2.402-.118-.22-2.542-2.182Zm.082.245 2.66 2.399-.082-.242-2.578-2.156Zm.042.265 2.66 2.395-.042-.261-2.618-2.134ZM51.142 77.855l3.572 1.292 26.602-3.26-30.174 1.968Zm49.67-57.843.183.175 2.48 2.234-2.663-2.409ZM46.598 76.448l3.722 1.341.26.06-3.982-1.4Zm54.397-56.262.153.2 2.509 2.207-2.662-2.407ZM46.86 76.508l3.72 1.34.275.023-3.995-1.363Zm54.288-56.122.118.223 2.542 2.181-2.66-2.404ZM47.138 76.53l3.717 1.34.287-.016-4.004-1.324Zm54.128-55.92.082.245 2.578 2.156-2.66-2.402Zm.082.245.042.264 2.618 2.134-2.66-2.398ZM46.86 76.507l-.262-.06 3.982 1.4-3.72-1.34Zm.278.022-.278-.022 3.995 1.363-3.717-1.341Zm.29-.018-.29.018 4.004 1.324-3.714-1.342Zm32.227-24.207 3.089 1.806 21.009-3.363-24.098 1.557Zm18.573-34.621 2.767 2.502-.183-.175-2.584-2.327Zm.154.202 2.766 2.5-.153-.2-2.613-2.3Zm.119.226 2.765 2.497-.118-.223-2.647-2.274Zm.082.249 2.765 2.494-.082-.246-2.683-2.248Zm.04.269 2.767 2.49-.042-.265-2.724-2.225Zm2.767 2.49 1.876 25.118.784-22.724-2.66-2.395Z" fill="#BF231B"/><path d="m41.925 53.86-.468 19.336.063.575.405-19.91Z" fill="#00AEF6"/><path d="m79.656 52.307.71 19.621 2.38-17.816-3.09-1.805ZM47.43 76.513l3.713 1.343 26.961-3.39-30.674 2.047Z" fill="#BF231B"/><path d="m41.923 53.86-.405 19.911.53.9-.125-20.81Zm0 0 31.175-5.385-.756-29.25-30.42 34.636Z" fill="#00AEF6"/><path d="m98.04 17.508.186.177 2.584 2.327-2.77-2.504ZM42.725 75.055l3.87 1.394.263.06-4.133-1.454Zm55.5-57.37.155.202 2.613 2.3-2.767-2.503ZM42.99 75.114l3.868 1.394.278.022-4.146-1.417Zm55.39-57.228.12.226 2.646 2.274-2.766-2.5Zm-55.11 57.25 3.866 1.395.29-.018-4.155-1.377Zm37.093-3.208 3.17 1.472-.791-19.289-2.38 17.817ZM78.1 74.465l-26.961 3.39 30.174-1.969-3.213-1.42Zm20.4-56.352.082.249 2.684 2.248-2.766-2.497Zm.082.249.04.269 2.725 2.224-2.765-2.493Zm4.683 27.877 2.734 1.993-1.95-24.717-.784 22.724ZM42.99 75.114l-.265-.06 4.133 1.454-3.868-1.394Z" fill="#BF231B"/><path d="m41.924 53.86.126 20.81 31.049-26.195-31.175 5.385Z" fill="#00AEF6"/><path d="m43.271 75.136-.28-.022 4.145 1.416-3.865-1.394Z" fill="#BF231B"/><path d="m41.457 73.195.012.296.051.28-.063-.576Z" fill="#00AEF6"/><path d="m43.566 75.117-.294.019 4.155 1.377-3.861-1.396Z" fill="#BF231B"/><path d="m41.518 73.77.085.26.119.239-.204-.498Zm0 0 .204.499.326.402-.53-.9Zm52.018-59.289-.326.055-20.868 4.69 21.194-4.745ZM41.722 74.27l.15.214.176.188-.326-.402Zm52.43-59.783-.616-.005-21.194 4.744 21.81-4.739Z" fill="#00AEF6"/><path d="m78.102 74.465 3.212 1.421.312-.058-3.524-1.363Zm.316-.06 3.208 1.423.297-.096-3.505-1.327Zm22.557-25.597-21.322 3.498 24.099-1.558-2.777-1.94ZM80.353 72.234l3.171 1.467.01-.3-3.181-1.167Z" fill="#BF231B"/><path d="m42.05 74.67.204.16.226.129-.43-.288Z" fill="#00AEF6"/><path d="m78.72 74.307 3.204 1.425.281-.13-3.484-1.295Z" fill="#BF231B"/><path d="m95.159 14.902-1.008-.416-21.81 4.74 22.818-4.324Z" fill="#00AEF6"/><path d="m80.302 72.533 3.173 1.462.05-.294-3.223-1.168Zm-1.296 1.641 3.199 1.429.261-.16-3.46-1.269Zm1.205-1.352 3.176 1.456.088-.283-3.264-1.172Zm-.94 1.188 3.195 1.432.24-.188-3.434-1.244Z" fill="#BF231B"/><path d="m42.05 74.67.43.289.512.155-.941-.443Z" fill="#00AEF6"/><path d="m80.086 73.099 3.18 1.45.123-.27-3.303-1.18Zm-.57.718 3.191 1.437.215-.214-3.405-1.223Zm.41-.458 3.183 1.445.156-.255-3.34-1.19Zm-3.483-22.93 3.213 1.877 21.321-3.498-24.534 1.62Zm3.292 23.17 3.187 1.441.187-.236-3.374-1.205Z" fill="#BF231B"/><path d="m42.477 74.959.247.095.265.06-.512-.155Z" fill="#00AEF6"/><path d="m95.348 15.08 2.88 2.604-.186-.177-2.694-2.427Zm.155.205 2.878 2.601-.154-.202-2.724-2.4Z" fill="#BF231B"/><path d="m42.99 75.114.281.022.294-.019-.575-.003Z" fill="#00AEF6"/><path d="m95.623 15.515 2.877 2.598-.119-.226-2.758-2.372Zm.082.252 2.877 2.595-.081-.249-2.796-2.346Zm.04.273 2.878 2.59-.04-.268-2.838-2.322Zm2.878 2.59 1.796 25.533.97-23.043-2.766-2.49Zm2.353 30.178 2.777 1.94.325-.071-3.102-1.87Zm.33-.074 2.772 1.943.309-.107-3.081-1.836Zm-24.864 1.695.622 19.966 2.59-18.089-3.212-1.877Zm1.977 23.976-.316.06 3.524 1.363-3.208-1.423Zm24.846-27.87 2.735 1.99-.001-.292-2.734-1.696Zm-1.645 2.089 2.767 1.946.29-.139-3.057-1.807Zm1.601-1.796 2.736 1.983.043-.287-2.779-1.696Zm-22.857 25.1-.01.306 3.18 1.166-3.17-1.472Zm-1.643 2.379-.302.098 3.505 1.328-3.203-1.426Zm23.195-25.826 2.761 1.95.27-.168-3.031-1.782Zm-58.35 26.636 3.862 1.396 27.33-3.528-31.192 2.132Zm59.57-28.005 2.738 1.978.083-.28-2.821-1.698Zm-.947 1.197 2.758 1.954.244-.195-3.002-1.76ZM80.354 72.234l-.052.3 3.223 1.167-3.171-1.467Zm-1.348 1.94-.285.133 3.484 1.296-3.199-1.429Zm24.006-26.788 2.742 1.973.12-.269-2.862-1.704Zm-.573.724 2.752 1.958.218-.217-2.97-1.74Zm.414-.464 2.745 1.967.156-.254-2.901-1.713Zm-.192.242 2.748 1.963.189-.238-2.937-1.725ZM80.302 72.533l-.09.29 3.264 1.172-3.174-1.462Zm-1.03 1.477-.266.164 3.46 1.269-3.194-1.433Zm.94-1.187-.127.276 3.303 1.18-3.177-1.456Zm-.696.995-.244.192 3.434 1.244-3.19-1.437Zm.569-.72-.16.26 3.339 1.192-3.18-1.451Zm-.35.501-.22.218 3.406 1.223-3.187-1.44Zm.19-.24-.19.24 3.372 1.206-3.182-1.446ZM95.16 14.902l.187.179 2.694 2.427-2.881-2.606Zm.187.179.155.205 2.724 2.399-2.88-2.604Zm.155.205.12.23 2.758 2.37-2.878-2.6Zm-18.44 55.109 3.301 1.533-.71-19.622-2.59 18.089Zm-2.306 2.59-27.329 3.528 30.675-2.048-3.346-1.48Zm20.866-57.47.082.252 2.796 2.346-2.878-2.598Zm.082.252.04.273 2.837 2.322-2.877-2.595Z" fill="#BF231B"/><path d="m94.153 14.485-.301-.02-.315.016.616.004Z" fill="#00AEF6"/><path d="m101.305 48.733-.33.075 3.102 1.869-2.772-1.944Z" fill="#BF231B"/><path d="m94.702 14.631-.265-.089-.285-.056.55.145Z" fill="#00AEF6"/><path d="m100.42 44.163 2.846 2.076-1.876-25.119-.97 23.043Zm2.846 2.076v.297L106 48.231l-2.734-1.993Zm-1.645 2.384-.315.11 3.081 1.837-2.766-1.947Zm1.645-2.087-.044.292L106 48.524l-2.734-1.989Zm-1.35 1.945-.295.142 3.057 1.808-2.762-1.95Z" fill="#BF231B"/><path d="m95.16 14.902-.458-.27-.55-.146 1.008.416Z" fill="#00AEF6"/><path d="m103.22 46.828-.086.285 2.822 1.698-2.736-1.983Zm-1.032 1.481-.274.172 3.031 1.782-2.757-1.954Zm.946-1.196-.123.273 2.862 1.704-2.739-1.977Zm-.697.997-.249.2 3.002 1.758-2.753-1.958Zm.574-.724-.16.26 2.901 1.713-2.741-1.973Zm-.352.502-.222.222 2.971 1.741-2.749-1.963Zm.192-.242-.192.242 2.937 1.725-2.745-1.967Z" fill="#BF231B"/><path d="m95.162 14.902-.217-.15-.242-.121.459.27Zm.342.383-.155-.205-.188-.178.343.383Zm.202.482-.202-.482-.343-.383.545.865Zm0 0-.082-.252-.12-.23.202.482Zm1.696 26.842-2.24-27.707-22.818 4.323 25.058 23.384ZM42.05 74.671l.941.443 28.606-3.736-29.547 3.293Z" fill="#00AEF6"/><path d="m74.758 72.984 3.345 1.48.316-.06-3.661-1.42Z" fill="#BF231B"/><path d="M73.097 48.475 97.4 42.61 72.342 19.226l.755 29.25Z" fill="#00AEF6"/><path d="m75.076 72.923 3.34 1.481.303-.097-3.643-1.384Zm23.006-26.137L76.44 50.428l24.534-1.62-2.892-2.022Z" fill="#BF231B"/><path d="m42.99 75.115.575.002 28.031-3.738-28.606 3.736Z" fill="#00AEF6"/><path d="m77.052 70.706 3.302 1.528.011-.306-3.313-1.222Zm-1.666 2.116 3.336 1.484.285-.132-3.621-1.352Zm1.612-1.81 3.305 1.521.052-.3-3.357-1.222Zm-1.322 1.674 3.33 1.488.267-.164-3.597-1.324Zm1.229-1.38 3.307 1.516.09-.289-3.397-1.227Zm-.959 1.212 3.327 1.492.243-.193-3.57-1.299Zm.829-.93 3.31 1.51.127-.276-3.437-1.234Zm-.58.733 3.321 1.496.219-.218-3.54-1.278Zm.416-.468 3.314 1.505.16-.26-3.474-1.245ZM73.1 48.475l3.343 1.953 21.641-3.642L73.1 48.475Zm3.317 23.623 3.318 1.501.19-.24-3.508-1.26ZM95.746 16.04l1.707 25.959 1.17-23.368-2.877-2.591Zm2.338 30.746 2.892 2.021.331-.074-3.223-1.947Z" fill="#BF231B"/><path d="m42.05 74.67 30.682-3.908.368-22.287L42.05 74.67Z" fill="#00AEF6"/><path d="m98.419 46.71 2.887 2.023.314-.11-3.201-1.914Zm-25.32 1.765.525 20.322 2.818-18.368-3.343-1.954Zm1.98 24.448-.322.062 3.662 1.42-3.34-1.482Zm25.339-28.458 2.847 2.07.001-.296-2.848-1.774Zm-1.68 2.131 2.882 2.027.296-.142-3.178-1.885Zm1.633-1.834 2.85 2.066.044-.293-2.894-1.773ZM77.064 70.395l-.012.312 3.312 1.22-3.3-1.532Zm-1.679 2.427-.307.1 3.643 1.385-3.336-1.485ZM99.04 46.45l2.877 2.03.273-.171-3.15-1.859Zm1.245-1.398 2.852 2.06.085-.284-2.937-1.776Zm-.966 1.222 2.871 2.035.25-.199-3.121-1.836ZM77.052 70.707l-.055.304 3.357 1.223-3.302-1.527Zm-1.377 1.98-.29.135 3.621 1.352-3.33-1.488Zm24.482-27.356 2.855 2.055.124-.274-2.979-1.78Zm-.585.74 2.867 2.039.222-.222-3.09-1.817Zm.422-.475 2.859 2.05.159-.26-3.018-1.79Zm-.196.248 2.863 2.044.192-.243-3.055-1.801Zm-22.8 25.167-.094.295 3.398 1.227-3.305-1.522Zm-1.052 1.507-.27.168 3.596 1.324-3.326-1.492Zm.958-1.212-.13.282 3.438 1.234-3.308-1.516Zm-.71 1.015-.248.197 3.57 1.3-3.322-1.497Zm.58-.733-.163.265 3.474 1.246-3.31-1.511Zm-.358.51-.222.223 3.54 1.278-3.318-1.5Zm.195-.245-.195.246 3.509 1.26-3.314-1.506Zm-2.987-3.056 3.44 1.598-.622-19.966-2.818 18.368Zm-2.353 2.646-27.705 3.674 31.191-2.132-3.486-1.542Z" fill="#BF231B"/><path d="m97.402 42.61-1.696-26.843-.544-.865 2.24 27.708Zm.052-.61-1.707-25.96-.04-.273L97.453 42Z" fill="#00AEF6"/><path d="m98.42 46.71-.335.076 3.222 1.947-2.887-2.023ZM97.453 42l2.967 2.163-1.796-25.532-1.17 23.368Zm2.967 2.163-.001.302 2.848 1.774-2.847-2.076Zm-1.68 2.434-.32.113 3.201 1.914-2.882-2.028Zm1.679-2.132-.047.298 2.894 1.773-2.847-2.071Zm-1.38 1.985-.3.146 3.177 1.885-2.876-2.03Zm1.333-1.687-.088.29 2.938 1.775-2.85-2.065Zm-1.054 1.51-.278.177 3.15 1.859-2.872-2.035Zm.966-1.22-.126.279 2.979 1.78-2.853-2.06Zm-.712 1.018-.254.203 3.122 1.836-2.868-2.04Zm.586-.74-.163.265 3.018 1.79-2.855-2.055Zm-.36.513-.226.227 3.09 1.817-2.863-2.044Zm.197-.248-.196.248 3.055 1.802-2.86-2.05Z" fill="#BF231B"/><path d="m42.05 74.671 29.548-3.292 1.134-.616-30.681 3.908Zm1.517.446 27.705-3.674.326-.064-28.03 3.738Z" fill="#00AEF6"/><path d="m71.272 71.443 3.485 1.542.321-.062-3.806-1.48Zm.325-.064 3.481 1.544.307-.1-3.788-1.444Zm23.472-26.7-21.97 3.796 24.985-1.688-3.015-2.107ZM73.61 69.116l3.442 1.592.012-.312-3.454-1.28Zm-1.701 2.16 3.476 1.547.29-.135-3.766-1.412Zm1.645-1.85 3.444 1.587.054-.305-3.498-1.281Zm-1.35 1.711 3.471 1.55.27-.167-3.741-1.383Zm1.254-1.41 3.446 1.58.094-.294-3.54-1.285Zm-.979 1.238 3.467 1.555.248-.197-3.715-1.358Zm.845-.95 3.45 1.574.13-.281-3.58-1.293Zm-.593.749 3.463 1.559.222-.223-3.684-1.336Zm.426-.479 3.454 1.57.163-.266-3.617-1.304Zm-.198.251 3.457 1.564.195-.246-3.653-1.318Z" fill="#BF231B"/><path d="m73.611 69.115.014-.318-.525-20.322.511 20.64Zm-.153.611.153-.611-.511-20.64.358 21.251Zm-.726 1.036.726-1.036-.358-21.251-.368 22.287Z" fill="#00AEF6"/><path d="m95.068 44.68 3.015 2.107.335-.077-3.35-2.03Z" fill="#BF231B"/><path d="m97.4 42.61.05-.611-1.747-26.232L97.4 42.609Z" fill="#00AEF6"/><path d="m95.41 44.6 3.01 2.11.319-.113-3.33-1.997ZM71.597 71.379l-.325.064 3.806 1.48-3.48-1.544ZM97.45 42.307l2.969 2.158.002-.302-2.97-1.856Zm-1.714 2.176 3.004 2.114.3-.147-3.304-1.967ZM97.4 42.61l2.971 2.153.046-.298L97.4 42.61ZM73.624 68.797l-.014.318 3.454 1.28-3.44-1.598Zm-1.715 2.478-.312.104 3.788 1.443-3.476-1.547ZM96.04 44.333l2.999 2.117.279-.176-3.278-1.94Zm1.27-1.428 2.974 2.148.088-.29-3.062-1.858Zm-.986 1.248 2.994 2.121.254-.203-3.248-1.918Z" fill="#BF231B"/><path d="m73.1 48.475 21.97-3.796.665-.196L73.1 48.475Z" fill="#00AEF6"/><path d="m73.61 69.115-.057.31 3.498 1.282-3.442-1.592Zm-1.407 2.02-.295.14 3.767 1.411-3.472-1.55ZM97.18 43.19l2.976 2.142.127-.279-3.103-1.862Zm-.598.755 2.989 2.127.226-.227-3.215-1.9Zm.431-.484 2.98 2.136.163-.265-3.143-1.871Zm-.2.252 2.984 2.131.197-.247-3.18-1.883Zm-23.26 25.713-.096.301 3.54 1.285-3.444-1.585Zm-1.075 1.539-.275.172 3.742 1.382-3.467-1.554Z" fill="#BF231B"/><path d="m73.1 48.474 22.635-3.99 1.666-1.875L73.1 48.474Z" fill="#00AEF6"/><path d="m73.457 69.726-.133.287 3.58 1.293-3.447-1.58Zm-.726 1.037-.252.201 3.714 1.358-3.462-1.56Zm.593-.75-.167.271 3.617 1.304-3.45-1.575Zm-.366.522-.227.228 3.685 1.336-3.458-1.564Zm.199-.25-.199.25 3.652 1.318-3.453-1.569ZM95.409 44.6l-.34.08 3.35 2.03-3.01-2.11Zm2.043-2.601-.003.307 2.97 1.857-2.967-2.164Zm-1.718 2.484-.325.117 3.33 1.996-3.005-2.113Zm1.715-2.176-.049.303 3.017 1.855-2.968-2.159Zm-1.41 2.026-.305.15 3.305 1.967-3-2.117Z" fill="#BF231B"/><path d="m71.598 71.38.311-.104.295-.14-.606.243Z" fill="#00AEF6"/><path d="m97.4 42.61-.09.295 3.06 1.857-2.97-2.153Zm-1.077 1.542-.284.181 3.277 1.94-2.993-2.12Z" fill="#BF231B"/><path d="m71.598 71.379.606-.243.528-.373-1.134.616Z" fill="#00AEF6"/><path d="m97.31 42.904-.13.285 3.104 1.863-2.973-2.148Zm-.727 1.04-.259.208 3.248 1.918-2.989-2.126Z" fill="#BF231B"/><path d="m73.457 69.727.096-.301.057-.31-.153.61Z" fill="#00AEF6"/><path d="m97.18 43.19-.167.27 3.143 1.871-2.976-2.142Zm-.367.523-.231.231 3.215 1.9-2.984-2.132Zm.2-.253-.2.252 3.18 1.884-2.98-2.136Z" fill="#BF231B"/><path d="m72.203 71.136.275-.172.253-.201-.528.373Zm.528-.373.425-.479.3-.558-.725 1.037Zm.425-.479.168-.27.133-.288-.3.558Zm-.425.479.227-.228.198-.25-.425.478Zm22.337-26.084.341-.08.325-.116-.666.196Zm2.332-2.07.048-.303.004-.307-.052.61Zm-1.666 1.874.306-.15.283-.18-.59.33Zm0 0 1.08-.77.586-1.103-1.666 1.873Zm0 0 .59-.33.49-.44-1.08.77Zm1.446-1.293.13-.285.09-.295-.22.58Zm-.367.523.367-.523.22-.58-.587 1.103Zm-.49.44.26-.208.23-.232-.49.44Zm.49-.44.2-.253.167-.27-.367.523Z" fill="#00AEF6"/><mask id="i" style="mask-type:alpha" maskUnits="userSpaceOnUse" x="0" y="8" width="103" height="103"><path d="M3.739 44.222c1.186-8.95 7.64-17.476 17.222-20.559l45.323-13.539C84.088 4.397 98.215 10.5 97.85 27.24l4.946 50.063c-.249 11.393-10.957 25.268-23.655 27.248l-53.234 5.333C8.113 112.658-1.823 102.3.278 86.441l3.46-42.219Z" fill="url(#g)"/></mask><g filter="url(#h)" mask="url(#i)"><path d="m30.512 60.107 3.691 1.516.213.076-3.904-1.592Zm.214.077 3.69 1.515.229.045-3.919-1.56Zm.23.045 3.689 1.515.243.012-3.931-1.527Zm.246.011 3.686 1.516.255-.024-3.94-1.492Z" fill="#BF231B"/><path d="m23.781 30.67-.167.212-.144.226.311-.438Zm.392-.372-.205.177-.187.195.392-.372Zm-.392.372-.311.438-.212.482.523-.92Zm-.311.438-.12.237-.092.245.212-.482Zm1.158-1.095-.455.285-.392.372.847-.657Zm0 0-.847.657-.523.92 1.37-1.577Zm0 0-.234.13-.22.155.454-.285Zm-1.37 1.577-.063.25-.03.255.093-.505Zm1.87-1.754-.255.074-.245.103.5-.177Z" fill="#00AEF6"/><path d="m30.726 60.184-.214-.077 3.904 1.592-3.69-1.515Zm.23.045-.23-.045 3.919 1.56-3.688-1.515Zm.246.011-.245-.011 3.93 1.527-3.685-1.516Zm.258-.025-.258.025 3.94 1.492-3.682-1.517Z" fill="#BF231B"/><path d="m43.792 7.663-.19.198-.168.214.358-.412Zm-.358.412-.144.225-.117.235.261-.46Zm.358-.412-.358.412-.261.46.619-.872Zm.436-.342-.227.16-.21.182.437-.342Zm-1.055 1.214-.089.241-.057.246.146-.487Zm1.551-1.466-.496.252-.436.342.932-.594Zm0 0-.254.113-.242.139.496-.252Z" fill="#00AEF6"/><path d="M77.702 6.29 80.6 8.783l-.156-.153-2.742-2.34Zm.129.178 2.897 2.492-.128-.177-2.77-2.315ZM31.46 60.215l3.683 1.516L52.77 58.91l-21.31 1.305ZM77.928 6.669l2.898 2.49-.098-.2-2.8-2.29Zm.065.221 2.897 2.487-.064-.219-2.833-2.268Zm.028.241 2.898 2.483-.029-.237-2.87-2.246Z" fill="#BF231B"/><path d="m42.6 25.91-17.974 4.104-1.37 1.577 19.343-5.68Zm0 0-17.475 3.927-.5.177L42.6 25.91Z" fill="#00AEF6"/><path d="m26.688 58.535 3.825 1.57.215.078-4.04-1.648Zm50.857-52.4.157.154 2.742 2.34-2.9-2.494Z" fill="#BF231B"/><path d="m23.256 31.59-.094.505-1.303 23.521 1.397-24.026Z" fill="#00AEF6"/><path d="m26.902 58.613 3.825 1.57.23.045-4.055-1.615ZM77.701 6.29l.129.178 2.77 2.315-2.9-2.493ZM27.135 58.658l3.823 1.57.245.011-4.068-1.581ZM77.83 6.468l.098.201 2.8 2.29-2.898-2.49Zm-50.447 52.2 3.82 1.571.257-.024-4.077-1.547ZM77.928 6.67l.064.221 2.833 2.268-2.897-2.489Z" fill="#BF231B"/><path d="m43.79 7.663-.618.872L42.6 25.91l1.19-18.247Zm-.618.872-.146.487L42.6 25.91l.572-17.375Z" fill="#00AEF6"/><path d="m77.992 6.89.028.241 2.87 2.246-2.898-2.486Z" fill="#BF231B"/><path d="m43.026 9.021-.024.247L42.6 25.91l.426-16.889Z" fill="#00AEF6"/><path d="m26.903 58.613-.215-.077 4.04 1.647-3.825-1.57Zm.233.045-.233-.045 4.056 1.615-3.823-1.57Zm.248.01-.248-.01 4.068 1.581-3.82-1.57Zm.26-.025-.26.026 4.077 1.546-3.817-1.572Z" fill="#BF231B"/><path d="M49.288 57.29 31.46 60.214l21.309-1.305-3.481-1.62ZM78.02 7.13l.61 16.846 2.288-14.363L78.02 7.13Zm-3.325-3.426 3.006 2.585-.157-.154-2.849-2.43Zm.13.18 3.004 2.584-.128-.179-2.876-2.405ZM27.643 58.643l3.817 1.572 17.828-2.926-21.645 1.354Z" fill="#BF231B"/><path d="m23.163 32.096-1.306 23.253.003.268 1.303-23.521Z" fill="#00AEF6"/><path d="m23.256 31.59-1.397 24.026.332.882 1.065-24.908Z" fill="#00AEF6"/><path d="m74.988 4.313 3.005 2.578-.064-.222-2.94-2.356Zm.027.243 3.006 2.575-.028-.24-2.978-2.335Zm3.616 19.421 2.97 2.245-.681-16.607-2.29 14.362Z" fill="#BF231B"/><path d="M70.275.504 43.79 7.663 42.6 25.91 70.275.504Z" fill="#00AEF6"/><path d="m22.719 56.907 3.968 1.629.216.077-4.184-1.706ZM74.538 3.55l.158.156 2.848 2.43-3.006-2.586ZM22.936 56.985l3.967 1.628.233.045-4.2-1.673Zm51.76-53.28.13.18L77.7 6.29l-3.005-2.585ZM23.17 57.029l3.965 1.629.247.01-4.212-1.639ZM74.825 3.885l.098.203 2.907 2.38-3.005-2.583ZM23.421 57.039l3.962 1.63.26-.027-4.222-1.603ZM74.923 4.088l.064.224 2.941 2.357-3.005-2.581Zm.064.224.028.244 2.977 2.334-3.005-2.578Z" fill="#BF231B"/><path d="m22.936 56.986-.217-.078 4.184 1.706-3.967-1.628Zm.235.044-.235-.044 4.2 1.673-3.965-1.629Zm.25.01-.25-.01 4.212 1.64-3.962-1.63Z" fill="#BF231B"/><path d="m42.6 25.91-19.344 5.68 18.667 22.271.676-27.95Z" fill="#00AEF6"/><path d="m23.683 57.012-.263.027 4.222 1.603-3.96-1.63Z" fill="#BF231B"/><path d="m21.86 55.616.036.25.069.232-.106-.482Zm0 0 .105.482.226.4-.332-.882Zm.105.482.099.212.127.188-.226-.4Zm1.291-24.508-1.065 24.908 19.732-2.637L23.256 31.59Zm-1.065 24.908.152.164.177.137-.33-.301Zm0 0 .329.3.415.186-.744-.486Zm.329.3.198.109.217.078-.415-.186Z" fill="#00AEF6"/><path d="m45.675 55.608-18.032 3.035 21.645-1.354-3.613-1.681ZM75.014 4.556l.532 17.09L78.02 7.132l-3.006-2.575Zm-3.437-3.534 3.118 2.683-.158-.156-2.96-2.527Z" fill="#BF231B"/><path d="m22.936 56.985.234.045.25.01-.485-.055Z" fill="#00AEF6"/><path d="m71.707 1.204 3.118 2.681-.13-.18-2.988-2.5ZM23.684 57.012l3.959 1.63 18.033-3.035-21.992 1.405ZM71.805 1.41l3.118 2.678-.098-.203-3.02-2.475Zm.064.227 3.118 2.675-.064-.224-3.054-2.451Zm.026.247 3.12 2.672-.028-.244-3.092-2.428Zm3.651 19.763 3.083 2.33-.609-16.846-2.474 14.516ZM71.418.865l.16.157 2.96 2.527-3.12-2.684Zm.16.157.13.182 2.988 2.5-3.119-2.682Zm.13.182.097.206 3.02 2.475-3.118-2.68Zm.097.206.064.227 3.054 2.451-3.118-2.678Zm.064.227.026.247 3.092 2.428-3.118-2.675Z" fill="#BF231B"/><path d="m70.276.504-.279.023-.29.058.57-.081Zm.515.054-.25-.043-.265-.011.515.054Zm.441.177-.44-.177-.516-.054.956.23Zm0 0-.21-.103-.23-.074.44.177Zm-49.04 55.763.744.487 18.988-3.124-19.733 2.637ZM71.804 1.41l-.573-.675-.956-.231 1.53.906Zm-.228-.387-.159-.157-.186-.131.345.288Zm-48.64 55.962.484.054 18.503-3.178-18.988 3.124ZM71.804 1.41l-.228-.387-.345-.288.573.675ZM23.421 57.04l.263-.028 18.24-3.15-18.503 3.177ZM71.805 1.41l-.098-.205-.13-.182.228.387Zm.09.474-.026-.247-.064-.227.09.474Zm.448 17.342L70.276.504 42.6 25.91l29.743-6.684Z" fill="#00AEF6"/><path d="m41.924 53.86-18.24 3.152 21.992-1.405-3.752-1.746ZM71.895 1.885l.448 17.342 2.671-14.67-3.119-2.672ZM50.32 77.79l3.582 1.29.257.059-3.839-1.35Zm.26.059 3.58 1.29.271.022-3.85-1.313Zm.275.022 3.576 1.29.284-.015-3.86-1.275Zm21.49-58.646 3.202 2.42-.532-17.09-2.67 14.67Z" fill="#BF231B"/><path d="M72.343 19.226 71.805 1.41 70.276.504l2.067 18.722Zm0 0L42.6 25.91l-.676 27.951 30.42-34.635Zm0 0-.448-17.342-.09-.474.538 17.816Z" fill="#00AEF6"/><path d="m50.58 77.85-.26-.059 3.84 1.35-3.58-1.29Zm.275.023-.275-.023 3.85 1.313-3.575-1.29Zm.287-.017-.288.017 3.86 1.274-3.572-1.29Zm49.853-57.668 2.662 2.407-.182-.173-2.48-2.234Zm.153.2 2.66 2.404-.151-.197-2.509-2.207Zm.118.223 2.66 2.402-.118-.22-2.542-2.182Zm.082.245 2.66 2.399-.082-.242-2.578-2.157Zm.042.265 2.66 2.395-.042-.261-2.618-2.134ZM51.142 77.856l3.572 1.291 26.602-3.26-30.174 1.97Zm49.67-57.843.183.175 2.48 2.234-2.663-2.409ZM46.598 76.45l3.722 1.341.26.06-3.982-1.4Zm54.397-56.262.153.2 2.509 2.207-2.662-2.407ZM46.86 76.51l3.72 1.34.275.023-3.995-1.363Zm54.288-56.122.118.223 2.542 2.181-2.66-2.404Zm-54.01 56.144 3.717 1.34.287-.016-4.004-1.324Zm54.128-55.92.082.244 2.578 2.157-2.66-2.402Zm.082.244.042.265 2.618 2.134-2.66-2.399ZM46.86 76.51l-.262-.06 3.982 1.4-3.72-1.34Zm.278.022-.278-.022 3.995 1.363-3.717-1.341Zm.29-.018-.29.018 4.004 1.324-3.714-1.342Zm32.227-24.207 3.089 1.806 21.009-3.363-24.098 1.557Zm18.573-34.621 2.767 2.502-.183-.175-2.584-2.328Zm.154.202 2.766 2.5-.153-.2-2.613-2.3Zm.119.226 2.765 2.497-.118-.223-2.647-2.274Zm.082.249 2.765 2.493-.082-.245-2.683-2.248Zm.04.269 2.767 2.49-.042-.266-2.724-2.224Zm2.767 2.49 1.876 25.118.784-22.724-2.66-2.395Z" fill="#BF231B"/><path d="m41.925 53.861-.468 19.336.063.575.405-19.91Z" fill="#00AEF6"/><path d="m79.656 52.307.71 19.621 2.38-17.816-3.09-1.805ZM47.43 76.513l3.713 1.343 26.961-3.39-30.674 2.047Z" fill="#BF231B"/><path d="m41.923 53.862-.405 19.91.53.9-.125-20.81Zm0 0 31.175-5.386-.756-29.25-30.42 34.636Z" fill="#00AEF6"/><path d="m98.04 17.509.186.176 2.584 2.328-2.77-2.504ZM42.725 75.056l3.87 1.394.263.06-4.133-1.454Zm55.5-57.37.155.202 2.613 2.3-2.767-2.503ZM42.99 75.115l3.868 1.394.278.021-4.146-1.416Zm55.39-57.228.12.226 2.646 2.274-2.766-2.5Zm-55.11 57.25 3.866 1.394.29-.017-4.155-1.377Zm37.093-3.208 3.17 1.472-.791-19.289-2.38 17.817ZM78.1 74.466l-26.961 3.39 30.174-1.969-3.213-1.421Zm20.4-56.352.082.249 2.684 2.248-2.766-2.497Zm.082.249.04.269 2.725 2.224-2.765-2.493Zm4.683 27.877 2.734 1.993-1.95-24.717-.784 22.724ZM42.99 75.115l-.265-.06 4.133 1.454-3.868-1.394Z" fill="#BF231B"/><path d="m41.924 53.861.126 20.81 31.049-26.195-31.175 5.385Z" fill="#00AEF6"/><path d="m43.271 75.137-.28-.022 4.145 1.416-3.865-1.394Z" fill="#BF231B"/><path d="m41.457 73.197.012.296.051.28-.063-.576Z" fill="#00AEF6"/><path d="m43.566 75.118-.294.019 4.155 1.377-3.861-1.396Z" fill="#BF231B"/><path d="m41.518 73.772.085.26.119.238-.204-.498Zm0 0 .204.498.326.402-.53-.9Zm52.018-59.29-.326.055-20.868 4.69 21.194-4.745ZM41.722 74.27l.15.214.176.188-.326-.402Zm52.43-59.783-.616-.005-21.194 4.744 21.81-4.739Z" fill="#00AEF6"/><path d="m78.102 74.466 3.212 1.421.312-.058-3.524-1.363Zm.316-.06 3.208 1.423.297-.096-3.505-1.327Zm22.557-25.597-21.322 3.498 24.099-1.558-2.777-1.94ZM80.353 72.235l3.171 1.467.01-.3-3.181-1.167Z" fill="#BF231B"/><path d="m42.05 74.672.204.16.226.128-.43-.288Z" fill="#00AEF6"/><path d="m78.72 74.307 3.204 1.425.281-.13-3.484-1.295Z" fill="#BF231B"/><path d="m95.159 14.903-1.008-.416-21.81 4.74 22.818-4.324Z" fill="#00AEF6"/><path d="m80.302 72.533 3.173 1.462.05-.294-3.223-1.168Zm-1.296 1.641 3.199 1.429.261-.16-3.46-1.269Zm1.205-1.352 3.176 1.456.088-.283-3.264-1.172Zm-.94 1.188 3.195 1.432.24-.188-3.434-1.244Z" fill="#BF231B"/><path d="m42.05 74.672.43.288.512.155-.941-.443Z" fill="#00AEF6"/><path d="m80.086 73.1 3.18 1.45.123-.27-3.303-1.18Zm-.57.718 3.191 1.437.215-.214-3.405-1.223Zm.41-.459 3.183 1.446.156-.255-3.34-1.19Zm-3.483-22.93 3.213 1.878 21.321-3.498-24.534 1.62ZM79.735 73.6l3.187 1.441.187-.236-3.374-1.205Z" fill="#BF231B"/><path d="m42.477 74.96.247.095.265.06-.512-.155Z" fill="#00AEF6"/><path d="m95.348 15.082 2.88 2.604-.186-.177-2.694-2.427Zm.155.205 2.878 2.601-.154-.202-2.724-2.4Z" fill="#BF231B"/><path d="m42.99 75.115.281.022.294-.019-.575-.003Z" fill="#00AEF6"/><path d="m95.623 15.515 2.877 2.598-.119-.226-2.758-2.372Zm.082.252 2.877 2.595-.081-.249-2.796-2.346Zm.04.273 2.878 2.59-.04-.268-2.838-2.322Zm2.878 2.59 1.796 25.533.97-23.043-2.766-2.49Zm2.353 30.178 2.777 1.94.325-.071-3.102-1.87Zm.33-.074 2.772 1.943.309-.107-3.081-1.836Zm-24.864 1.695.622 19.966 2.59-18.089-3.212-1.877Zm1.977 23.976-.316.06 3.524 1.363-3.208-1.423Zm24.846-27.87 2.735 1.99-.001-.292-2.734-1.696Zm-1.645 2.089 2.767 1.946.29-.139-3.057-1.807Zm1.601-1.796 2.736 1.983.043-.287-2.779-1.696Zm-22.857 25.1-.01.306 3.18 1.166-3.17-1.472Zm-1.643 2.379-.302.098 3.505 1.328-3.203-1.426Zm23.195-25.826 2.761 1.95.27-.168-3.031-1.782Zm-58.35 26.636 3.862 1.396 27.33-3.528-31.192 2.132Zm59.57-28.005 2.738 1.978.083-.28-2.821-1.698Zm-.947 1.197 2.758 1.954.244-.195-3.002-1.76ZM80.354 72.234l-.052.3 3.223 1.167-3.171-1.467Zm-1.348 1.94-.285.133 3.484 1.296-3.199-1.429Zm24.006-26.788 2.742 1.973.12-.269-2.862-1.704Zm-.573.724 2.752 1.958.218-.217-2.97-1.74Zm.414-.464 2.745 1.967.156-.254-2.901-1.713Zm-.192.242 2.748 1.963.189-.238-2.937-1.725ZM80.302 72.533l-.09.29 3.264 1.172-3.174-1.462Zm-1.03 1.477-.266.164 3.46 1.269-3.194-1.433Zm.94-1.187-.127.276 3.303 1.18-3.177-1.456Zm-.696.995-.244.192 3.434 1.244-3.19-1.437Zm.569-.72-.16.26 3.339 1.192-3.18-1.451Zm-.35.501-.22.218 3.406 1.223-3.187-1.44Zm.19-.24-.19.24 3.372 1.206-3.182-1.446ZM95.16 14.902l.187.179 2.694 2.427-2.881-2.606Zm.187.179.155.205 2.724 2.399-2.88-2.604Zm.155.205.12.23 2.758 2.37-2.878-2.6Zm-18.44 55.109 3.301 1.533-.71-19.622-2.59 18.089Zm-2.306 2.59-27.329 3.528 30.675-2.048-3.346-1.48Zm20.866-57.47.082.252 2.796 2.346-2.878-2.598Zm.082.252.04.273 2.837 2.322-2.877-2.595Z" fill="#BF231B"/><path d="m94.153 14.487-.301-.02-.315.016.616.004Z" fill="#00AEF6"/><path d="m101.305 48.734-.33.075 3.102 1.869-2.772-1.944Z" fill="#BF231B"/><path d="m94.702 14.632-.265-.089-.285-.056.55.145Z" fill="#00AEF6"/><path d="m100.42 44.164 2.846 2.076-1.876-25.119-.97 23.043Zm2.846 2.076v.296L106 48.233l-2.734-1.993Zm-1.645 2.384-.315.11 3.081 1.837-2.766-1.947Zm1.645-2.088-.044.293L106 48.525l-2.734-1.989Zm-1.35 1.946-.295.142 3.057 1.808-2.762-1.95Z" fill="#BF231B"/><path d="m95.16 14.903-.458-.27-.55-.146 1.008.416Z" fill="#00AEF6"/><path d="m103.22 46.828-.086.285 2.822 1.698-2.736-1.983Zm-1.032 1.481-.274.172 3.031 1.782-2.757-1.954Zm.946-1.196-.123.273 2.862 1.704-2.739-1.977Zm-.697.997-.249.2 3.002 1.758-2.753-1.958Zm.574-.724-.16.26 2.901 1.713-2.741-1.973Zm-.352.502-.222.222 2.971 1.741-2.749-1.963Zm.192-.242-.192.242 2.937 1.725-2.745-1.967Z" fill="#BF231B"/><path d="m95.162 14.903-.217-.15-.242-.121.459.27Zm.342.383-.155-.205-.188-.178.343.383Zm.202.482-.202-.482-.343-.383.545.865Zm0 0-.082-.252-.12-.23.202.482Zm1.696 26.842-2.24-27.707-22.818 4.323L97.402 42.61ZM42.05 74.672l.941.443 28.606-3.736-29.547 3.293Z" fill="#00AEF6"/><path d="m74.758 72.986 3.345 1.48.316-.06-3.661-1.42Z" fill="#BF231B"/><path d="M73.097 48.476 97.4 42.611 72.342 19.227l.755 29.25Z" fill="#00AEF6"/><path d="m75.076 72.924 3.34 1.481.303-.097-3.643-1.384Zm23.006-26.137L76.44 50.43l24.534-1.62-2.892-2.022Z" fill="#BF231B"/><path d="m42.99 75.115.575.002 28.031-3.738-28.606 3.736Z" fill="#00AEF6"/><path d="m77.052 70.707 3.302 1.528.011-.306-3.313-1.222Zm-1.666 2.116 3.336 1.485.285-.133-3.621-1.352Zm1.612-1.81 3.305 1.521.052-.3-3.357-1.222Zm-1.322 1.674 3.33 1.488.267-.164-3.597-1.324Zm1.229-1.38 3.307 1.516.09-.289-3.397-1.227Zm-.959 1.212 3.327 1.492.243-.193-3.57-1.299Zm.829-.93 3.31 1.51.127-.276-3.437-1.234Zm-.58.733 3.321 1.496.219-.218-3.54-1.278Zm.416-.468 3.314 1.505.16-.26-3.474-1.245ZM73.1 48.476l3.343 1.953 21.641-3.642L73.1 48.476Zm3.317 23.623 3.318 1.5.19-.24-3.508-1.26Zm19.329-56.058L97.453 42l1.17-23.369-2.877-2.59Zm2.338 30.746 2.892 2.021.331-.074-3.223-1.947Z" fill="#BF231B"/><path d="m42.05 74.672 30.682-3.909.368-22.287-31.05 26.196Z" fill="#00AEF6"/><path d="m98.419 46.71 2.887 2.024.314-.11-3.201-1.914Zm-25.32 1.766.525 20.322 2.818-18.368-3.343-1.954Zm1.98 24.448-.322.062 3.662 1.42-3.34-1.482Zm25.339-28.458 2.847 2.07.001-.296-2.848-1.774Zm-1.68 2.131 2.882 2.027.296-.142-3.178-1.885Zm1.633-1.834 2.85 2.066.044-.293-2.894-1.773ZM77.064 70.396l-.012.311 3.312 1.222-3.3-1.533Zm-1.679 2.427-.307.1 3.643 1.385-3.336-1.485ZM99.04 46.451l2.877 2.03.273-.171-3.15-1.859Zm1.245-1.398 2.852 2.06.085-.284-2.937-1.776Zm-.966 1.222 2.871 2.035.25-.199-3.121-1.836ZM77.052 70.707l-.055.305 3.357 1.223-3.302-1.528Zm-1.377 1.98-.29.136 3.621 1.352-3.33-1.488Zm24.482-27.355 2.855 2.055.124-.274-2.979-1.78Zm-.585.74 2.867 2.039.222-.222-3.09-1.818Zm.422-.475 2.859 2.05.159-.26-3.018-1.79Zm-.196.247 2.863 2.045.192-.243-3.055-1.802Zm-22.8 25.168-.094.295 3.398 1.227-3.305-1.522Zm-1.052 1.507-.27.168 3.596 1.324-3.326-1.492Zm.958-1.212-.13.282 3.438 1.234-3.308-1.516Zm-.71 1.015-.248.197 3.57 1.3-3.322-1.497Zm.58-.733-.163.265 3.474 1.246-3.31-1.511Zm-.358.51-.222.223 3.54 1.278-3.318-1.5Zm.195-.245-.195.246 3.509 1.26-3.314-1.506Zm-2.987-3.056 3.44 1.598-.622-19.966-2.818 18.368Zm-2.353 2.646-27.705 3.674 31.191-2.132-3.486-1.542Z" fill="#BF231B"/><path d="m97.402 42.61-1.696-26.843-.544-.865 2.24 27.708Zm.052-.61-1.707-25.96-.04-.273L97.453 42Z" fill="#00AEF6"/><path d="m98.42 46.71-.335.076 3.222 1.947-2.887-2.023ZM97.453 42l2.967 2.163-1.796-25.532-1.17 23.368Zm2.967 2.163-.001.302 2.848 1.774-2.847-2.076Zm-1.68 2.434-.32.113 3.201 1.914-2.882-2.028Zm1.679-2.132-.047.298 2.894 1.773-2.847-2.071Zm-1.38 1.985-.3.146 3.177 1.885-2.876-2.03Zm1.333-1.687-.088.29 2.938 1.775-2.85-2.065Zm-1.054 1.51-.278.177 3.15 1.859-2.872-2.035Zm.966-1.22-.126.279 2.979 1.78-2.853-2.06Zm-.712 1.018-.254.203 3.122 1.836-2.868-2.04Zm.586-.74-.163.265 3.018 1.79-2.855-2.055Zm-.36.513-.226.227 3.09 1.817-2.863-2.044Zm.197-.248-.196.248 3.055 1.802-2.86-2.05Z" fill="#BF231B"/><path d="m42.05 74.672 29.548-3.292 1.134-.616-30.681 3.908Zm1.517.446 27.705-3.674.326-.064-28.03 3.738Z" fill="#00AEF6"/><path d="m71.272 71.443 3.485 1.542.321-.062-3.806-1.48Zm.325-.064 3.481 1.544.307-.1-3.788-1.444Zm23.472-26.7-21.97 3.796 24.985-1.688-3.015-2.107ZM73.61 69.116l3.442 1.592.012-.312-3.454-1.28Zm-1.701 2.16 3.476 1.547.29-.135-3.766-1.412Zm1.645-1.85 3.444 1.587.054-.305-3.498-1.281Zm-1.35 1.711 3.471 1.55.27-.167-3.741-1.383Zm1.254-1.41 3.446 1.58.094-.294-3.54-1.285Zm-.979 1.238 3.467 1.555.248-.197-3.715-1.358Zm.845-.95 3.45 1.574.13-.281-3.58-1.293Zm-.593.749 3.463 1.559.222-.223-3.684-1.336Zm.426-.479 3.454 1.57.163-.266-3.617-1.304Zm-.198.251 3.457 1.564.195-.246-3.653-1.318Z" fill="#BF231B"/><path d="m73.611 69.116.014-.318-.525-20.322.511 20.64Zm-.153.611.153-.611-.511-20.64.358 21.251Zm-.726 1.036.726-1.036-.358-21.251-.368 22.287Z" fill="#00AEF6"/><path d="m95.068 44.68 3.015 2.107.335-.077-3.35-2.03Z" fill="#BF231B"/><path d="m97.4 42.61.05-.61-1.747-26.232L97.4 42.61Z" fill="#00AEF6"/><path d="m95.41 44.6 3.01 2.11.319-.113-3.33-1.997ZM71.597 71.379l-.325.064 3.806 1.48-3.48-1.544ZM97.45 42.307l2.969 2.158.002-.302-2.97-1.856Zm-1.714 2.176 3.004 2.114.3-.147-3.304-1.967ZM97.4 42.61l2.971 2.153.046-.298L97.4 42.61ZM73.624 68.797l-.014.318 3.454 1.28-3.44-1.598Zm-1.715 2.478-.312.104 3.788 1.443-3.476-1.547ZM96.04 44.333l2.999 2.117.279-.176-3.278-1.94Zm1.27-1.428 2.974 2.148.088-.29-3.062-1.858Zm-.986 1.248 2.994 2.121.254-.203-3.248-1.918Z" fill="#BF231B"/><path d="m73.1 48.476 21.97-3.796.665-.196L73.1 48.476Z" fill="#00AEF6"/><path d="m73.61 69.116-.057.31 3.498 1.281-3.442-1.591Zm-1.407 2.02-.295.14 3.767 1.411-3.472-1.55ZM97.18 43.19l2.976 2.142.127-.279-3.103-1.863Zm-.598.755 2.989 2.127.226-.228-3.215-1.899Zm.431-.484 2.98 2.136.163-.265-3.143-1.871Zm-.2.253 2.984 2.13.197-.247-3.18-1.883Zm-23.26 25.712-.096.301 3.54 1.285-3.444-1.586Zm-1.075 1.539-.275.172 3.742 1.382-3.467-1.554Z" fill="#BF231B"/><path d="m73.1 48.477 22.635-3.992 1.666-1.874L73.1 48.477Z" fill="#00AEF6"/><path d="m73.457 69.727-.133.287 3.58 1.293-3.447-1.58Zm-.726 1.037-.252.201 3.714 1.358-3.462-1.56Zm.593-.75-.167.271 3.617 1.304-3.45-1.575Zm-.366.522-.227.228 3.685 1.336-3.458-1.564Zm.199-.25-.199.25 3.652 1.318-3.453-1.569ZM95.409 44.6l-.34.08 3.35 2.03-3.01-2.11Zm2.043-2.6-.003.307 2.97 1.857L97.452 42Zm-1.718 2.484-.325.117 3.33 1.996-3.005-2.113Zm1.715-2.177-.049.304 3.017 1.855-2.968-2.159Zm-1.41 2.027-.305.15 3.305 1.967-3-2.117Z" fill="#BF231B"/><path d="m71.598 71.38.311-.104.295-.14-.606.243Z" fill="#00AEF6"/><path d="m97.4 42.611-.09.296 3.06 1.857-2.97-2.153Zm-1.077 1.543-.284.18 3.277 1.941-2.993-2.12Z" fill="#BF231B"/><path d="m71.598 71.38.606-.243.528-.373-1.134.616Z" fill="#00AEF6"/><path d="m97.31 42.906-.13.285 3.104 1.863-2.973-2.148Zm-.727 1.04-.259.208 3.248 1.918-2.989-2.126Z" fill="#BF231B"/><path d="m73.457 69.728.096-.301.057-.31-.153.61Z" fill="#00AEF6"/><path d="m97.18 43.19-.167.27 3.143 1.872-2.976-2.142Zm-.367.524-.231.231 3.215 1.9-2.984-2.131Zm.2-.253-.2.253 3.18 1.883-2.98-2.136Z" fill="#BF231B"/><path d="m72.203 71.137.275-.172.253-.201-.528.373Zm.528-.373.425-.479.3-.558-.725 1.037Zm.425-.479.168-.27.133-.288-.3.558Zm-.425.479.227-.228.198-.25-.425.478ZM95.068 44.68l.341-.08.325-.116-.666.196Zm2.332-2.07.048-.303.004-.307-.052.61Zm-1.666 1.874.306-.15.283-.18-.59.33Zm0 0 1.08-.77.586-1.103-1.666 1.873Zm0 0 .59-.33.49-.44-1.08.77Zm1.446-1.293.13-.285.09-.295-.22.58Zm-.367.523.367-.523.22-.58-.587 1.103Zm-.49.44.26-.208.23-.232-.49.44Zm.49-.44.2-.253.167-.27-.367.523Z" fill="#00AEF6"/></g><mask id="j" style="mask-type:alpha" maskUnits="userSpaceOnUse" x="22" y="0" width="85" height="80"><path d="m30.512 60.106 3.691 1.516.213.076-3.904-1.592Zm.214.077 3.69 1.515.229.045-3.919-1.56Zm.23.045 3.689 1.515.243.012-3.931-1.527Zm.246.011 3.686 1.516.255-.024-3.94-1.492Z" fill="#BF231B"/><path d="m30.726 60.183-.214-.077 3.904 1.592-3.69-1.515Zm.23.045-.23-.045 3.919 1.56-3.688-1.515Zm.246.011-.245-.011 3.93 1.527-3.685-1.516Zm.258-.024-.258.024 3.94 1.492-3.682-1.517Z" fill="#BF231B"/><path d="M77.702 6.29 80.6 8.781l-.156-.153-2.742-2.34Zm.129.177 2.897 2.492-.128-.177-2.77-2.315ZM31.46 60.214l3.683 1.516 17.627-2.82-21.31 1.305ZM77.928 6.668l2.898 2.49-.098-.2-2.8-2.29Zm.065.221 2.897 2.487-.064-.219-2.833-2.268Zm.028.241 2.898 2.483-.029-.237-2.87-2.246Z" fill="#BF231B"/><path d="m26.688 58.535 3.825 1.57.215.078-4.04-1.648Zm50.857-52.4.157.154 2.742 2.34-2.9-2.494Z" fill="#BF231B"/><path d="m26.906 58.612 3.825 1.57.23.045-4.055-1.615ZM77.705 6.29l.129.178 2.77 2.315-2.9-2.493ZM27.139 58.657l3.823 1.57.245.011-4.068-1.581Zm50.695-52.19.098.201 2.8 2.29-2.898-2.49Zm-50.447 52.2 3.82 1.571.257-.024-4.077-1.547ZM77.932 6.668l.064.221 2.833 2.268-2.897-2.489Zm.062.222.028.241 2.87 2.246-2.898-2.486Z" fill="#BF231B"/><path d="m26.903 58.612-.215-.077 4.04 1.647-3.825-1.57Zm.233.045-.233-.045 4.056 1.615-3.823-1.57Zm.248.01-.248-.01 4.068 1.581-3.82-1.57Zm.26-.025-.26.025 4.077 1.547-3.817-1.572Z" fill="#BF231B"/><path d="m49.29 57.29-17.828 2.925L52.77 58.91l-3.481-1.62ZM78.022 7.13l.609 16.846 2.29-14.363-2.9-2.483Zm-3.325-3.426 3.006 2.585-.157-.154-2.849-2.43Zm.13.18 3.005 2.584-.13-.179-2.875-2.405ZM27.645 58.643l3.817 1.572 17.828-2.926-21.645 1.354ZM74.926 4.088l3.004 2.581-.098-.2-2.906-2.381Z" fill="#BF231B"/><path d="m74.988 4.313 3.005 2.578-.064-.222-2.94-2.356Zm.027.243 3.006 2.575-.028-.24-2.978-2.335Zm3.616 19.421 2.97 2.245-.681-16.607-2.29 14.362Z" fill="#BF231B"/><path d="m22.72 56.907 3.969 1.629.216.077-4.184-1.706ZM74.54 3.55l.158.156 2.848 2.43L74.54 3.55ZM22.938 56.985l3.967 1.628.232.045-4.199-1.673Zm51.76-53.28.13.18 2.875 2.405-3.005-2.585ZM23.173 57.029l3.964 1.629.248.01-4.212-1.639ZM74.827 3.885l.098.203 2.907 2.38-3.005-2.583ZM23.423 57.039l3.962 1.63.26-.027-4.222-1.603ZM74.925 4.088l.064.224 2.941 2.357-3.005-2.581Zm.064.224.027.244 2.978 2.334-3.005-2.578Z" fill="#BF231B"/><path d="m22.938 56.984-.217-.078 4.184 1.706-3.967-1.628Zm.235.044-.235-.044 4.2 1.673-3.965-1.629Zm.25.01-.25-.01 4.212 1.64-3.962-1.63Z" fill="#BF231B"/><path d="m23.685 57.012-.263.027 4.222 1.603-3.96-1.63Zm21.992-1.404-18.032 3.035 21.645-1.354-3.613-1.681ZM75.016 4.556l.532 17.09 2.474-14.515-3.006-2.575Zm-3.437-3.534 3.118 2.683-.158-.156-2.96-2.527Z" fill="#BF231B"/><path d="m71.707 1.204 3.118 2.681-.13-.18-2.988-2.5ZM23.684 57.012l3.959 1.63 18.033-3.035-21.992 1.405ZM71.805 1.41l3.118 2.678-.098-.203-3.02-2.475Zm.064.227 3.118 2.675-.064-.224-3.054-2.451Zm.026.247 3.12 2.672-.028-.244-3.092-2.428Zm3.651 19.763 3.083 2.33-.609-16.846-2.474 14.516ZM71.418.865l.16.157 2.96 2.527-3.12-2.684Zm.16.157.13.182 2.988 2.5-3.119-2.682Zm.13.182.097.206 3.02 2.475-3.118-2.68Zm.097.206.064.227 3.054 2.451-3.118-2.678Zm.064.227.026.247 3.092 2.428-3.118-2.675Z" fill="#BF231B"/><path d="m41.924 53.86-18.24 3.15 21.992-1.404-3.752-1.746ZM71.895 1.883l.448 17.342 2.671-14.67-3.119-2.672ZM50.32 77.789l3.582 1.29.257.06-3.839-1.35Zm.26.06 3.58 1.29.271.022-3.85-1.312Zm.275.022 3.576 1.29.284-.015-3.86-1.275Zm21.49-58.646 3.202 2.42-.532-17.09-2.67 14.67Z" fill="#BF231B"/><path d="m50.58 77.85-.26-.06 3.84 1.35-3.58-1.29Zm.275.022-.275-.023 3.85 1.313-3.575-1.29Zm.287-.017-.288.017 3.86 1.275-3.572-1.292Zm49.853-57.668 2.662 2.407-.182-.173-2.48-2.234Zm.153.2 2.66 2.404-.151-.197-2.509-2.207Zm.118.223 2.66 2.402-.118-.22-2.542-2.182Zm.082.245 2.66 2.399-.082-.242-2.578-2.157Zm.042.265 2.66 2.395-.042-.261-2.618-2.134ZM51.142 77.855l3.572 1.291 26.602-3.26-30.174 1.97Zm49.67-57.843.183.175 2.48 2.234-2.663-2.409ZM46.598 76.45l3.722 1.341.26.06-3.982-1.4Zm54.397-56.262.153.2 2.509 2.207-2.662-2.407ZM46.86 76.509l3.72 1.34.275.023-3.995-1.363Zm54.288-56.122.118.223 2.542 2.181-2.66-2.404ZM47.138 76.53l3.717 1.34.287-.016-4.004-1.324Zm54.128-55.92.082.244 2.578 2.157-2.66-2.402Zm.082.244.042.265 2.618 2.134-2.66-2.399ZM46.86 76.51l-.262-.06 3.982 1.4-3.72-1.34Zm.278.022-.278-.022 3.995 1.363-3.717-1.341Zm.29-.018-.29.018 4.004 1.324-3.714-1.342Zm32.227-24.207 3.089 1.806 21.009-3.363-24.098 1.557Zm18.573-34.621 2.767 2.502-.183-.175-2.584-2.327Zm.154.202 2.766 2.5-.153-.2-2.613-2.3Zm.119.226 2.765 2.497-.118-.223-2.647-2.274Zm.082.249 2.765 2.494-.082-.246-2.683-2.248Zm.04.269 2.767 2.49-.042-.265-2.724-2.225Zm2.767 2.49 1.876 25.118.784-22.724-2.66-2.395Z" fill="#BF231B"/><path d="m79.656 52.307.71 19.621 2.38-17.816-3.09-1.805ZM47.43 76.513l3.713 1.343 26.961-3.39-30.674 2.047Z" fill="#BF231B"/><path d="m98.042 17.508.186.177 2.584 2.327-2.77-2.504ZM42.727 75.055l3.87 1.394.263.06-4.133-1.454Zm55.5-57.37.155.202 2.613 2.3-2.767-2.503Zm-55.235 57.43 3.868 1.394.278.022-4.146-1.417Zm55.39-57.228.119.226 2.647 2.274-2.766-2.5Zm-55.11 57.249 3.866 1.395.29-.018-4.155-1.377Zm37.093-3.208 3.17 1.472-.791-19.289-2.38 17.817Zm-2.262 2.537-26.961 3.39 30.174-1.969-3.213-1.42Zm20.398-56.352.082.249 2.683 2.248-2.765-2.497Zm.082.249.04.269 2.725 2.224-2.765-2.493Zm4.683 27.877L106 48.232l-1.95-24.717-.784 22.724ZM42.992 75.114l-.265-.06 4.133 1.454-3.868-1.394Z" fill="#BF231B"/><path d="m43.275 75.137-.28-.022 4.145 1.416-3.865-1.394Zm.293-.02-.295.019 4.156 1.377-3.861-1.396Zm34.535-.651 3.213 1.421.312-.058-3.525-1.363Zm.317-.06 3.208 1.423.297-.096-3.505-1.327Zm22.557-25.597-21.322 3.498 24.099-1.558-2.777-1.94ZM80.355 72.235l3.171 1.467.01-.3-3.181-1.167Zm-1.632 2.072 3.203 1.425.281-.13-3.484-1.295Z" fill="#BF231B"/><path d="m80.304 72.533 3.173 1.462.05-.294-3.223-1.168Zm-1.296 1.641 3.199 1.429.261-.16-3.46-1.269Zm1.205-1.352 3.176 1.456.088-.283-3.264-1.172Zm-.94 1.188 3.195 1.432.24-.188-3.434-1.244Z" fill="#BF231B"/><path d="m80.086 73.1 3.18 1.45.123-.27-3.303-1.18Zm-.57.718 3.191 1.437.215-.214-3.405-1.223Zm.41-.459 3.183 1.446.156-.255-3.34-1.19Zm-3.483-22.93 3.213 1.878 21.321-3.498-24.534 1.62ZM79.735 73.6l3.187 1.441.187-.236-3.374-1.205ZM95.35 15.081l2.88 2.604-.186-.177-2.694-2.427Zm.155.205 2.878 2.601-.154-.202-2.724-2.4Z" fill="#BF231B"/><path d="m95.625 15.515 2.877 2.598-.119-.226-2.758-2.372Zm.082.252 2.877 2.595-.082-.249-2.795-2.346Zm.04.273 2.878 2.59-.04-.268-2.838-2.322Zm2.878 2.59 1.796 25.533.97-23.043-2.766-2.49Zm2.353 30.178 2.777 1.94.325-.071-3.102-1.87Zm.33-.074 2.772 1.943.309-.107-3.081-1.836Zm-24.864 1.695.622 19.966 2.59-18.089-3.212-1.877Zm1.977 23.976-.317.06 3.525 1.363-3.208-1.423Zm24.846-27.87 2.735 1.989-.001-.292-2.734-1.696Zm-1.645 2.089 2.767 1.946.29-.139-3.057-1.807Zm1.601-1.796 2.736 1.983.043-.287-2.779-1.696Zm-22.857 25.1-.01.306 3.18 1.166-3.17-1.472Zm-1.643 2.379-.302.098 3.505 1.328-3.203-1.426Zm23.194-25.826 2.762 1.95.269-.168-3.031-1.782ZM43.568 75.117l3.862 1.396 27.33-3.528-31.192 2.132Zm59.57-28.005 2.738 1.978.083-.28-2.821-1.698Zm-.947 1.197 2.757 1.954.245-.195-3.002-1.76ZM80.356 72.234l-.052.3 3.223 1.167-3.171-1.467Zm-1.348 1.94-.285.133 3.484 1.296-3.199-1.429Zm24.006-26.788 2.742 1.973.12-.269-2.862-1.704Zm-.573.724 2.752 1.958.218-.217-2.97-1.74Zm.414-.464 2.745 1.967.156-.254-2.901-1.713Zm-.192.242 2.748 1.963.189-.238-2.937-1.725ZM80.304 72.533l-.09.29 3.264 1.172-3.174-1.462Zm-1.03 1.477-.266.164 3.46 1.269-3.194-1.433Zm.94-1.187-.127.276 3.303 1.18-3.177-1.456Zm-.696.995-.244.192 3.434 1.244-3.19-1.437Zm.569-.72-.16.26 3.339 1.192-3.18-1.451Zm-.35.501-.22.218 3.406 1.223-3.187-1.44Zm.19-.24-.19.24 3.372 1.206-3.182-1.446Zm15.235-58.457.188.179 2.694 2.427-2.882-2.606Zm.188.179.155.205 2.724 2.399-2.88-2.604Zm.155.205.12.23 2.758 2.37-2.878-2.6Zm-18.44 55.109 3.301 1.533-.71-19.622-2.59 18.089Zm-2.306 2.59L47.43 76.513l30.675-2.048-3.346-1.48Zm20.866-57.47.082.252 2.796 2.346-2.878-2.598Zm.082.252.04.273 2.837 2.322-2.877-2.595Z" fill="#BF231B"/><path d="m101.307 48.733-.33.075 3.102 1.869-2.772-1.944Z" fill="#BF231B"/><path d="m100.42 44.164 2.846 2.076-1.876-25.119-.97 23.043Zm2.846 2.076v.296L106 48.233l-2.734-1.993Zm-1.645 2.384-.315.11 3.081 1.837-2.766-1.947Zm1.645-2.088-.044.293L106 48.525l-2.734-1.989Zm-1.35 1.946-.295.142 3.057 1.808-2.762-1.95Z" fill="#BF231B"/><path d="m103.224 46.828-.086.285 2.822 1.698-2.736-1.983Zm-1.032 1.481-.274.172 3.031 1.782-2.757-1.954Zm.946-1.196-.123.273 2.862 1.704-2.739-1.977Zm-.697.997-.249.2 3.002 1.758-2.753-1.958Zm.574-.724-.16.26 2.901 1.713-2.741-1.973Zm-.352.502-.222.222 2.971 1.741-2.749-1.963Zm.192-.242-.192.242 2.937 1.725-2.745-1.967ZM74.76 72.986l3.345 1.48.316-.06-3.661-1.42Z" fill="#BF231B"/><path d="m75.078 72.924 3.34 1.481.303-.097-3.643-1.384Zm23.005-26.137-21.64 3.642 24.533-1.62-2.892-2.022Z" fill="#BF231B"/><path d="m77.054 70.707 3.302 1.528.01-.306-3.312-1.222Zm-1.666 2.116 3.335 1.485.286-.133-3.621-1.352ZM77 71.013l3.305 1.521.051-.3L77 71.013Zm-1.322 1.674 3.33 1.488.267-.164-3.597-1.324Zm1.229-1.38 3.307 1.516.09-.289-3.397-1.227Zm-.959 1.212 3.327 1.492.243-.193-3.57-1.299Zm.829-.93 3.31 1.51.127-.276-3.437-1.234Zm-.58.733 3.321 1.496.219-.218-3.54-1.278Zm.416-.468 3.314 1.505.16-.26-3.474-1.245Zm-3.511-23.378 3.343 1.953 21.641-3.642-24.984 1.689Zm3.317 23.623 3.318 1.5.19-.24-3.508-1.26Zm19.329-56.058L97.455 42l1.17-23.369-2.877-2.59Zm2.338 30.746 2.892 2.021.331-.074-3.223-1.947Z" fill="#BF231B"/><path d="m98.421 46.71 2.887 2.023.314-.11-3.201-1.914Zm-25.32 1.765.525 20.322 2.818-18.368-3.343-1.954Zm1.98 24.448-.322.062 3.662 1.42-3.34-1.482Zm25.339-28.458 2.847 2.07.001-.296-2.848-1.774Zm-1.68 2.131 2.882 2.027.295-.142-3.177-1.885Zm1.633-1.834 2.85 2.066.044-.293-2.894-1.773ZM77.066 70.395l-.013.312 3.313 1.22-3.3-1.532Zm-1.679 2.427-.307.1 3.643 1.385-3.336-1.485ZM99.041 46.45l2.876 2.03.274-.171-3.15-1.859Zm1.245-1.398 2.852 2.06.085-.284-2.937-1.776Zm-.966 1.222 2.871 2.035.25-.199-3.121-1.836ZM77.054 70.707l-.055.304 3.357 1.223-3.302-1.527Zm-1.377 1.98-.29.135 3.621 1.352-3.33-1.488ZM100.16 45.33l2.855 2.055.124-.274-2.979-1.78Zm-.586.74 2.868 2.039.222-.222-3.09-1.817Zm.423-.475 2.859 2.05.159-.26-3.018-1.79Zm-.196.248 2.863 2.044.192-.243-3.055-1.801ZM77 71.01l-.094.295 3.398 1.227-3.305-1.522Zm-1.052 1.507-.27.168 3.596 1.324-3.326-1.492Zm.958-1.212-.13.282 3.437 1.234-3.307-1.516Zm-.71 1.015-.248.197 3.57 1.3-3.323-1.497Zm.58-.733-.163.265 3.474 1.246-3.31-1.511Zm-.358.51-.223.223 3.541 1.278-3.318-1.5Zm.195-.245-.195.246 3.509 1.26-3.314-1.506Zm-2.987-3.056 3.44 1.598-.622-19.966-2.818 18.368Zm-2.353 2.646-27.705 3.674 31.191-2.132-3.486-1.542Z" fill="#BF231B"/><path d="m98.422 46.71-.335.076 3.222 1.947-2.887-2.023ZM97.455 42l2.967 2.163-1.796-25.532-1.17 23.368Zm2.967 2.163-.002.302 2.849 1.774-2.847-2.076Zm-1.68 2.434-.32.113 3.201 1.914-2.882-2.028Zm1.678-2.132-.046.298 2.894 1.773-2.848-2.071Zm-1.378 1.985-.3.146 3.176 1.885-2.876-2.03Zm1.332-1.687-.088.29 2.938 1.775-2.85-2.065Zm-1.054 1.51-.278.177 3.15 1.859-2.872-2.035Zm.966-1.22-.126.279 2.979 1.78-2.853-2.06Zm-.712 1.018-.254.203 3.122 1.836-2.868-2.04Zm.586-.74-.163.265 3.018 1.79-2.855-2.055Zm-.36.513-.226.227 3.09 1.817-2.863-2.044Zm.197-.248-.196.248 3.055 1.802-2.86-2.05ZM71.273 71.443l3.486 1.542.321-.062-3.807-1.48Zm.326-.064 3.481 1.544.307-.1-3.788-1.444Zm23.472-26.7-21.97 3.796 24.985-1.688-3.015-2.107ZM73.612 69.116l3.442 1.592.012-.312-3.454-1.28Zm-1.701 2.16 3.476 1.547.29-.135-3.766-1.412Zm1.645-1.85L77 71.013l.054-.305-3.498-1.281Zm-1.35 1.711 3.471 1.55.27-.167-3.741-1.383Zm1.254-1.41 3.446 1.58.093-.294-3.54-1.285Zm-.98 1.238 3.468 1.555.248-.197-3.715-1.358Zm.846-.95 3.45 1.574.13-.281-3.58-1.293Zm-.593.749 3.463 1.559.222-.223-3.685-1.336Zm.426-.479 3.454 1.57.163-.266-3.617-1.304Zm-.199.251 3.458 1.564.195-.246-3.653-1.318Z" fill="#BF231B"/><path d="m95.07 44.68 3.015 2.107.335-.077-3.35-2.03Zm.342-.08 3.01 2.11.319-.113-3.33-1.997ZM71.599 71.379l-.326.064 3.807 1.48-3.48-1.544Zm25.852-29.072 2.969 2.158.001-.302-2.97-1.856Zm-1.714 2.176 3.004 2.114.3-.147-3.304-1.967Zm1.666-1.873 2.971 2.153.046-.298-3.017-1.855ZM73.626 68.797l-.014.318 3.454 1.28-3.44-1.598Zm-1.715 2.478-.312.104 3.788 1.443-3.476-1.547Zm24.131-26.942 2.999 2.117.279-.176-3.278-1.94Zm1.27-1.428 2.974 2.148.088-.29-3.062-1.858Zm-.986 1.248 2.994 2.121.254-.203-3.248-1.918Z" fill="#BF231B"/><path d="m73.611 69.116-.056.31 3.498 1.281-3.442-1.591Zm-1.406 2.02-.295.14 3.767 1.411-3.472-1.55ZM97.182 43.19l2.976 2.142.127-.279-3.103-1.863Zm-.598.755 2.989 2.127.226-.228-3.215-1.899Zm.431-.484 2.98 2.136.163-.265-3.143-1.871Zm-.2.253 2.984 2.13.196-.247-3.18-1.883Zm-23.26 25.712-.096.301 3.54 1.285-3.444-1.586Zm-1.075 1.539-.275.172 3.742 1.382-3.467-1.554Z" fill="#BF231B"/><path d="m73.457 69.727-.133.287 3.58 1.293-3.447-1.58Zm-.726 1.037-.252.201 3.714 1.358-3.462-1.56Zm.593-.75-.167.271 3.617 1.304-3.45-1.575Zm-.366.522-.227.228 3.685 1.336-3.458-1.564Zm.199-.25-.199.25 3.652 1.318-3.453-1.569ZM95.409 44.6l-.34.08 3.35 2.03-3.01-2.11Zm2.043-2.6-.003.307 2.97 1.857L97.452 42Zm-1.718 2.484-.325.117 3.33 1.996-3.005-2.113Zm1.715-2.177-.049.304 3.017 1.855-2.968-2.159Zm-1.41 2.027-.305.15 3.305 1.967-3-2.117Z" fill="#BF231B"/><path d="m97.402 42.61-.09.296 3.06 1.857-2.97-2.153Zm-1.077 1.543-.284.18 3.277 1.942-2.993-2.122Z" fill="#BF231B"/><path d="m97.31 42.905-.13.285 3.104 1.863-2.973-2.148Zm-.727 1.04-.259.208 3.248 1.918-2.989-2.126Z" fill="#BF231B"/><path d="m97.182 43.19-.167.27 3.143 1.872-2.976-2.142Zm-.367.524-.231.231 3.215 1.9-2.984-2.131Zm.2-.253-.2.253 3.18 1.883-2.98-2.136Z" fill="#BF231B"/></mask><g mask="url(#j)"><ellipse cx="97.127" cy="67.251" rx="34.869" ry="38.604" fill="url(#k)"/><ellipse cx="125.088" cy="25.212" rx="34.869" ry="38.604" fill="url(#l)"/></g><path d="M71.044 70.291h-.083l-.083.011-27.551 3.656c-.341-.014-.448-.127-.502-.199-.1-.13-.21-.412-.213-.9l.567-18.876.046-1.538-1.517.258-18.373 3.127a.374.374 0 0 1-.16-.04.162.162 0 0 1-.058-.067.641.641 0 0 1-.067-.215.784.784 0 0 1-.005-.169l.012-.07.004-.073L24.36 32.16l.002-.035v-.036c0-.47.484-1.107 1.418-1.107h.141l.138-.031 16.81-3.82.959-.219.022-.982.375-16.763V9.14c0-.057.118-.818 1.669-1.132l.031-.006.031-.008 24.315-6.23a.97.97 0 0 1 .306.056c.013.005.021.01.025.012l.005.003.003.004c.008.012.05.08.079.268.028.19.035.459.003.83l-.006.07.001.072.412 16.157.039 1.535 1.498-.337 21.073-4.746c.303.028.492.078.606.124.117.048.144.086.15.093.04.054.133.25.133.953v.042l.003.043 1.711 25.288c-.011.187-.138.5-.494.812-.364.319-.817.497-1.203.497h-.108l-.106.018-21.484 3.699-1.076.185.03 1.091L72.432 69c-.009.61-.612 1.291-1.388 1.291Z" fill="url(#m)" stroke="url(#n)" stroke-width="2.521"/><defs><linearGradient id="d" x1="87.058" y1="99.552" x2="33.705" y2="18.904" gradientUnits="userSpaceOnUse"><stop stop-color="#DCECF3"/><stop offset="1" stop-color="#fff"/></linearGradient><linearGradient id="e" x1="82.735" y1="94.859" x2="35.844" y2="24.216" gradientUnits="userSpaceOnUse"><stop stop-color="#DCECF3"/><stop offset="1" stop-color="#fff"/></linearGradient><linearGradient id="f" x1="83.912" y1="93.991" x2=".81" y2="-.944" gradientUnits="userSpaceOnUse"><stop stop-color="#FF5B53"/><stop offset="1" stop-color="#FF5B53" stop-opacity="0"/></linearGradient><linearGradient id="g" x1="87.058" y1="99.552" x2="33.705" y2="18.904" gradientUnits="userSpaceOnUse"><stop stop-color="#DCECF3"/><stop offset="1" stop-color="#fff"/></linearGradient><linearGradient id="m" x1="40.925" y1="12.207" x2="58.382" y2="75.577" gradientUnits="userSpaceOnUse"><stop stop-color="#FFA9A5"/><stop offset="1" stop-color="#FF5B53"/></linearGradient><linearGradient id="n" x1="95.307" y1="96.615" x2="35.59" y2="-7.406" gradientUnits="userSpaceOnUse"><stop stop-color="#FFA9A5"/><stop offset="1" stop-color="#FF5C54"/></linearGradient><radialGradient id="b" cx="0" cy="0" r="1" gradientUnits="userSpaceOnUse" gradientTransform="scale(58.3823 17.2814) rotate(90 0 1)"><stop stop-color="#fff"/><stop offset="1" stop-color="#CCCEF1" stop-opacity="0"/></radialGradient><radialGradient id="c" cx="0" cy="0" r="1" gradientUnits="userSpaceOnUse" gradientTransform="matrix(0 79.068 -19.7841 0 115.386 42.736)"><stop stop-color="#fff"/><stop offset="1" stop-color="#CCCEF1" stop-opacity="0"/></radialGradient><radialGradient id="k" cx="0" cy="0" r="1" gradientUnits="userSpaceOnUse" gradientTransform="matrix(0 38.6038 -34.869 0 97.127 67.251)"><stop stop-color="#FFA9A5"/><stop offset="1" stop-color="#FFBFBC" stop-opacity="0"/></radialGradient><radialGradient id="l" cx="0" cy="0" r="1" gradientUnits="userSpaceOnUse" gradientTransform="matrix(0 38.6038 -34.869 0 125.088 25.212)"><stop stop-color="#FFA9A5"/><stop offset="1" stop-color="#FFBFBC" stop-opacity="0"/></radialGradient><filter id="h" x="18.077" y="-3.277" width="109.348" height="103.865" filterUnits="userSpaceOnUse" color-interpolation-filters="sRGB"><feFlood flood-opacity="0" result="BackgroundImageFix"/><feColorMatrix in="SourceAlpha" values="0 0 0 0 0 0 0 0 0 0 0 0 0 0 0 0 0 0 127 0" result="hardAlpha"/><feOffset dx="8.822" dy="8.822"/><feGaussianBlur stdDeviation="6.301"/><feColorMatrix values="0 0 0 0 0.486275 0 0 0 0 0.545098 0 0 0 0 0.690196 0 0 0 0.55 0"/><feBlend in2="BackgroundImageFix" result="effect1_dropShadow_1150_650061"/><feBlend in="SourceGraphic" in2="effect1_dropShadow_1150_650061" result="shape"/></filter></defs></svg>