<svg width="66" height="69" viewBox="0 0 66 69" fill="none" xmlns="http://www.w3.org/2000/svg">
<circle cx="33" cy="33" r="33" fill="white"/>
<g clip-path="url(#clip0_1309_197369)" filter="url(#filter0_d_1309_197369)">
<path d="M33.2734 53C44.3191 53 53.2734 44.0457 53.2734 33C53.2734 21.9543 44.3191 13 33.2734 13C22.2277 13 13.2734 21.9543 13.2734 33C13.2734 44.0457 22.2277 53 33.2734 53Z" fill="#FFB31E"/>
<path d="M53.273 33.0001C53.273 32.3812 53.2449 31.7689 53.1899 31.1644L43.934 22.0527L22.5752 43.9079L31.5287 52.9251C32.1036 52.9748 32.6853 53.0001 33.273 53.0001C44.3187 53.0001 53.273 44.0458 53.273 33.0001Z" fill="#FF7B2D"/>
<path d="M33.2732 17.719C24.8337 17.719 17.9922 24.5606 17.9922 33C17.9922 41.4395 24.8337 48.281 33.2732 48.281C33.282 48.281 33.2906 48.2807 33.2993 48.2807V17.7193C33.2906 17.7193 33.282 17.719 33.2732 17.719Z" fill="white"/>
<path d="M33.2734 17.719C41.7129 17.719 48.5545 24.5606 48.5545 33C48.5545 41.4395 41.7129 48.281 33.2734 48.281V17.719Z" fill="#E9EDF5"/>
<path d="M31.9062 22.5234H33.2995V32.908H31.9062V22.5234Z" fill="#326EFA"/>
<path d="M33.2734 22.5234H34.6407V32.908H33.2734V22.5234Z" fill="#315299"/>
<path d="M33.0508 31.6328H43.4354V34.3672H33.0508V31.6328Z" fill="#315299"/>
<path d="M33.2728 30.5049C31.8946 30.5049 30.7773 31.6221 30.7773 33.0004C30.7773 34.3786 31.8946 35.4958 33.2728 35.4958C33.2816 35.4958 33.2902 35.4953 33.2989 35.4952V30.5056C33.2902 30.5054 33.2816 30.5049 33.2728 30.5049Z" fill="#54A2FF"/>
<path d="M33.2734 35.4958C34.6516 35.4958 35.7689 34.3786 35.7689 33.0004C35.7689 31.6221 34.6516 30.5049 33.2734 30.5049V35.4958Z" fill="#326EFA"/>
<path d="M31.1882 47.1287C29.6193 46.8995 28.1001 46.4087 26.6938 45.6766L27.7043 43.7337C28.8937 44.3529 30.1787 44.7681 31.5056 44.962L31.1882 47.1287ZM24.6906 44.4133C23.4251 43.461 22.3265 42.3053 21.4393 40.9934L23.253 39.7661C24.0048 40.8778 24.9357 41.8571 26.008 42.6641L24.6906 44.4133ZM20.28 38.9295C19.6209 37.488 19.2081 35.9463 19.0589 34.3683L21.2389 34.1608C21.365 35.4956 21.7141 36.7998 22.2716 38.0192L20.28 38.9295ZM21.213 32.154L19.0283 32.0033C19.1379 30.4151 19.5082 28.8701 20.1293 27.4111L22.1442 28.2687C21.619 29.5027 21.3057 30.8098 21.213 32.154ZM23.08 26.4961L21.235 25.3164C22.088 23.9816 23.1566 22.7977 24.3972 21.8129L25.7596 23.5274C24.7083 24.3619 23.8028 25.3651 23.08 26.4961ZM27.4273 22.4141L26.3665 20.4983C27.5652 19.8343 28.8538 19.3474 30.1921 19.0527L30.6629 21.1914C29.531 21.4406 28.4411 21.8524 27.4273 22.4141Z" fill="#6D7382"/>
<path d="M33.5491 47.278L33.5078 45.0886C34.8576 45.0631 36.1793 44.8165 37.436 44.3558L38.1897 46.4119C36.7041 46.9565 35.1427 47.2479 33.5491 47.278ZM40.338 45.4141L39.2534 43.5117C40.4195 42.8471 41.467 41.9935 42.3532 40.9856L43.9969 42.4326C42.9508 43.6222 41.7143 44.6298 40.338 45.4141ZM45.4092 40.5325L43.5497 39.3759C44.2587 38.2377 44.7717 36.9886 45.0673 35.6807L47.2032 36.1639C46.8537 37.7101 46.2473 39.1868 45.4092 40.5325Z" fill="#4B535C"/>
<path d="M47.5541 32.9995H45.3642C45.3642 26.3326 39.9403 20.9086 33.2734 20.9086V18.7188C41.1478 18.7188 47.5541 25.1251 47.5541 32.9995Z" fill="#4B535C"/>
</g>
<defs>
<filter id="filter0_d_1309_197369" x="1.27344" y="5" width="64" height="64" filterUnits="userSpaceOnUse" color-interpolation-filters="sRGB">
<feFlood flood-opacity="0" result="BackgroundImageFix"/>
<feColorMatrix in="SourceAlpha" type="matrix" values="0 0 0 0 0 0 0 0 0 0 0 0 0 0 0 0 0 0 127 0" result="hardAlpha"/>
<feOffset dy="4"/>
<feGaussianBlur stdDeviation="6"/>
<feColorMatrix type="matrix" values="0 0 0 0 0 0 0 0 0 0 0 0 0 0 0 0 0 0 0.2 0"/>
<feBlend mode="normal" in2="BackgroundImageFix" result="effect1_dropShadow_1309_197369"/>
<feBlend mode="normal" in="SourceGraphic" in2="effect1_dropShadow_1309_197369" result="shape"/>
</filter>
<clipPath id="clip0_1309_197369">
<rect width="40" height="40" fill="white" transform="translate(13.2734 13)"/>
</clipPath>
</defs>
</svg>
