<svg width="416" height="6277" viewBox="0 0 416 6277" fill="none" xmlns="http://www.w3.org/2000/svg">
<rect x="-288.034" y="-1176" width="1920" height="1373.76" transform="rotate(58.5738 -288.034 -1176)" fill="url(#paint0_linear_927_728062)"/>
<rect x="-288.034" y="-1176" width="1920" height="2163" transform="rotate(58.5738 -288.034 -1176)" fill="url(#paint1_radial_927_728062)"/>
<rect x="749.016" y="521.222" width="1898.93" height="2187" transform="rotate(148.574 749.016 521.222)" fill="url(#paint2_radial_927_728062)"/>
<path d="M71.4187 870.987C338.253 673.919 352.248 487.43 238.688 262.356C125.128 37.2807 266.849 -194.218 480.845 -302.189C694.841 -410.16 607.815 317.978 721.375 543.052C834.936 768.127 285.415 763.016 71.4187 870.987Z" fill="url(#paint3_radial_927_728062)"/>
<path d="M164.855 827.183C414.31 612.649 416.671 432.723 291.7 228.198C166.729 23.6726 291.499 -211.718 494.605 -335.822C697.712 -459.926 656.766 245.723 781.737 450.248C906.708 654.773 367.961 703.078 164.855 827.183Z" fill="url(#paint4_radial_927_728062)"/>
<rect x="124.347" y="1113.34" width="844.78" height="775.261" transform="rotate(37.2548 124.347 1113.34)" fill="url(#paint5_radial_927_728062)"/>
<rect x="21.002" y="1249.23" width="844.78" height="951.697" transform="rotate(37.2548 21.002 1249.23)" fill="url(#paint6_radial_927_728062)"/>
<rect x="804.154" y="1727.66" width="946.857" height="962.257" transform="rotate(127.255 804.154 1727.66)" fill="url(#paint7_radial_927_728062)"/>
<path d="M60.6806 1598.71C14.8822 1457.35 -119.832 1433 -181.464 1438.5L-318.302 1632.11C-230.657 1597.05 -17.3141 1533.21 56.0977 1657.05C146.434 1809.43 251.598 1806.25 340.714 1856.67C412.006 1897 451.365 2032.91 461.259 2097.83C497.181 2050.3 571.854 1949.27 583.168 1925.34C597.309 1895.41 470.389 1751.72 347.369 1759.95L347.134 1759.97C224.213 1768.19 117.892 1775.31 60.6806 1598.71Z" fill="url(#paint8_linear_927_728062)"/>
<path d="M104.003 1553.17C55.6827 1412.71 -116.475 1425.1 -178.024 1431.7L-311.455 1627.66C-224.412 1591.05 -12.1532 1523.43 63.4755 1645.87C156.54 1796.55 261.672 1791.5 351.704 1840.29C423.729 1879.32 465.512 2014.46 476.562 2079.16C511.648 2031.02 584.544 1928.7 595.434 1904.58C609.048 1874.42 474.395 1702.41 351.492 1712.84L351.421 1712.85C228.565 1723.28 164.392 1728.72 104.003 1553.17Z" fill="url(#paint9_linear_927_728062)"/>
<g filter="url(#filter0_d_927_728062)">
<path d="M328.845 1726.64C488.818 1716.6 578.69 1835.61 603.629 1896.37L482.583 2100.12C473.61 2003.37 430.865 1776.04 274.372 1753.13C81.8022 1724.95 33.2133 1623.63 -59.6001 1557.92C-133.851 1505.35 -285.36 1519.45 -353.347 1534.66C-324.783 1482.43 -263.226 1373 -245.508 1353.15C-223.359 1328.33 -21.2593 1394.63 31.1824 1514.88L31.2826 1515.11C83.6817 1635.26 129.005 1739.18 328.845 1726.64Z" fill="url(#paint10_linear_927_728062)"/>
</g>
<rect width="844.78" height="775.261" transform="matrix(-0.795951 0.605361 0.605361 0.795951 338.687 4830.34)" fill="url(#paint11_radial_927_728062)"/>
<rect width="844.78" height="951.697" transform="matrix(-0.795951 0.605361 0.605361 0.795951 442.032 4966.23)" fill="url(#paint12_radial_927_728062)"/>
<rect width="946.857" height="962.257" transform="matrix(0.605361 0.795951 0.795951 -0.605361 -341.121 5444.66)" fill="url(#paint13_radial_927_728062)"/>
<path d="M402.352 5315.71C448.15 5174.35 582.864 5150 644.496 5155.5L781.334 5349.11C693.69 5314.05 480.346 5250.21 406.935 5374.05C316.598 5526.43 211.434 5523.25 122.319 5573.67C51.0262 5614 11.6676 5749.92 1.77297 5814.83C-34.1493 5767.3 -108.822 5666.27 -120.135 5642.34C-134.277 5612.42 -7.35666 5468.72 115.664 5476.95L115.898 5476.97C238.819 5485.19 345.14 5492.31 402.352 5315.71Z" fill="url(#paint14_linear_927_728062)"/>
<path d="M359.029 5270.17C407.35 5129.71 579.507 5142.1 641.056 5148.7L774.487 5344.66C687.445 5308.05 475.185 5240.43 399.557 5362.87C306.493 5513.55 201.36 5508.5 111.328 5557.29C39.3027 5596.32 -2.47931 5731.46 -13.5294 5796.16C-48.6158 5748.02 -121.511 5645.7 -132.402 5621.58C-146.015 5591.42 -11.3626 5419.41 111.54 5429.84L111.611 5429.85C234.468 5440.28 298.641 5445.72 359.029 5270.17Z" fill="url(#paint15_linear_927_728062)"/>
<g filter="url(#filter1_d_927_728062)">
<path d="M134.188 5443.64C-25.7862 5433.6 -115.658 5552.61 -140.596 5613.37L-19.5504 5817.12C-10.5782 5720.37 32.1674 5493.03 188.66 5470.13C381.23 5441.95 429.819 5340.63 522.632 5274.92C596.883 5222.35 748.392 5236.45 816.379 5251.66C787.815 5199.43 726.258 5090 708.54 5070.15C686.392 5045.33 484.291 5111.63 431.85 5231.88L431.75 5232.11C379.351 5352.26 334.028 5456.18 134.188 5443.64Z" fill="url(#paint16_linear_927_728062)"/>
</g>
<defs>
<filter id="filter0_d_927_728062" x="-403.347" y="1327.98" width="1056.98" height="852.14" filterUnits="userSpaceOnUse" color-interpolation-filters="sRGB">
<feFlood flood-opacity="0" result="BackgroundImageFix"/>
<feColorMatrix in="SourceAlpha" type="matrix" values="0 0 0 0 0 0 0 0 0 0 0 0 0 0 0 0 0 0 127 0" result="hardAlpha"/>
<feOffset dy="30"/>
<feGaussianBlur stdDeviation="25"/>
<feColorMatrix type="matrix" values="0 0 0 0 0 0 0 0 0 0.108333 0 0 0 0 0.270833 0 0 0 0.07 0"/>
<feBlend mode="normal" in2="BackgroundImageFix" result="effect1_dropShadow_927_728062"/>
<feBlend mode="normal" in="SourceGraphic" in2="effect1_dropShadow_927_728062" result="shape"/>
</filter>
<filter id="filter1_d_927_728062" x="-190.597" y="5044.98" width="1056.98" height="852.139" filterUnits="userSpaceOnUse" color-interpolation-filters="sRGB">
<feFlood flood-opacity="0" result="BackgroundImageFix"/>
<feColorMatrix in="SourceAlpha" type="matrix" values="0 0 0 0 0 0 0 0 0 0 0 0 0 0 0 0 0 0 127 0" result="hardAlpha"/>
<feOffset dy="30"/>
<feGaussianBlur stdDeviation="25"/>
<feColorMatrix type="matrix" values="0 0 0 0 0 0 0 0 0 0.108333 0 0 0 0 0.270833 0 0 0 0.07 0"/>
<feBlend mode="normal" in2="BackgroundImageFix" result="effect1_dropShadow_927_728062"/>
<feBlend mode="normal" in="SourceGraphic" in2="effect1_dropShadow_927_728062" result="shape"/>
</filter>
<linearGradient id="paint0_linear_927_728062" x1="1631.97" y1="-1097.5" x2="871.993" y2="-976.684" gradientUnits="userSpaceOnUse">
<stop stop-color="white"/>
<stop offset="0.0001" stop-color="white"/>
<stop offset="1" stop-color="#DDF1FD" stop-opacity="0"/>
</linearGradient>
<radialGradient id="paint1_radial_927_728062" cx="0" cy="0" r="1" gradientUnits="userSpaceOnUse" gradientTransform="translate(-187.534 -259.664) rotate(21.9465) scale(647.956 1215.01)">
<stop stop-color="#CCCEF1"/>
<stop offset="1" stop-color="#DDF1FD" stop-opacity="0"/>
</radialGradient>
<radialGradient id="paint2_radial_927_728062" cx="0" cy="0" r="1" gradientUnits="userSpaceOnUse" gradientTransform="translate(489.396 2157.72) rotate(-16.6988) scale(1470.38 2805.68)">
<stop stop-color="#FADFFF"/>
<stop offset="1" stop-color="white" stop-opacity="0"/>
</radialGradient>
<radialGradient id="paint3_radial_927_728062" cx="0" cy="0" r="1" gradientUnits="userSpaceOnUse" gradientTransform="translate(245.321 -95.0227) rotate(94.6218) scale(920.195 967.813)">
<stop stop-color="#F1EFFF"/>
<stop offset="1" stop-color="#EDF8FF"/>
</radialGradient>
<radialGradient id="paint4_radial_927_728062" cx="0" cy="0" r="1" gradientUnits="userSpaceOnUse" gradientTransform="translate(301.549 199.339) rotate(4.14705) scale(468.42 471.69)">
<stop stop-color="white"/>
<stop offset="1" stop-color="#F3F4FC"/>
</radialGradient>
<radialGradient id="paint5_radial_927_728062" cx="0" cy="0" r="1" gradientUnits="userSpaceOnUse" gradientTransform="translate(373.161 1386.58) rotate(-48.7977) scale(288.887 319.712)">
<stop stop-color="white"/>
<stop offset="0.0001" stop-color="white"/>
<stop offset="1" stop-color="#DDF1FD" stop-opacity="0"/>
</radialGradient>
<radialGradient id="paint6_radial_927_728062" cx="0" cy="0" r="1" gradientUnits="userSpaceOnUse" gradientTransform="translate(-12.6569 1612.88) rotate(29.5519) scale(251.124 470.892)">
<stop stop-color="#CCCEF1"/>
<stop offset="1" stop-color="#DDF1FD" stop-opacity="0"/>
</radialGradient>
<radialGradient id="paint7_radial_927_728062" cx="0" cy="0" r="1" gradientUnits="userSpaceOnUse" gradientTransform="translate(1129.31 2580.36) rotate(-133.056) scale(339.316 581.956)">
<stop stop-color="#FADFFF"/>
<stop offset="1" stop-color="white" stop-opacity="0"/>
</radialGradient>
<linearGradient id="paint8_linear_927_728062" x1="446.645" y1="1769.69" x2="-40.2499" y2="1450.09" gradientUnits="userSpaceOnUse">
<stop stop-color="#DFF0FA"/>
<stop offset="1" stop-color="#FCF1FF"/>
</linearGradient>
<linearGradient id="paint9_linear_927_728062" x1="456.115" y1="1751.46" x2="-36.3298" y2="1440.38" gradientUnits="userSpaceOnUse">
<stop stop-color="#E8F6FE"/>
<stop offset="1" stop-color="#F7DEFF"/>
</linearGradient>
<linearGradient id="paint10_linear_927_728062" x1="-27.0634" y1="1424.06" x2="516.742" y2="1775.95" gradientUnits="userSpaceOnUse">
<stop stop-color="#FAE9FF"/>
<stop offset="1" stop-color="#E2F0F9"/>
</linearGradient>
<radialGradient id="paint11_radial_927_728062" cx="0" cy="0" r="1" gradientUnits="userSpaceOnUse" gradientTransform="translate(248.814 273.233) rotate(-48.7977) scale(288.887 319.712)">
<stop stop-color="white"/>
<stop offset="0.0001" stop-color="white"/>
<stop offset="1" stop-color="#DDF1FD" stop-opacity="0"/>
</radialGradient>
<radialGradient id="paint12_radial_927_728062" cx="0" cy="0" r="1" gradientUnits="userSpaceOnUse" gradientTransform="translate(-33.6589 363.651) rotate(29.5519) scale(251.124 470.892)">
<stop stop-color="#CCCEF1"/>
<stop offset="1" stop-color="#DDF1FD" stop-opacity="0"/>
</radialGradient>
<radialGradient id="paint13_radial_927_728062" cx="0" cy="0" r="1" gradientUnits="userSpaceOnUse" gradientTransform="translate(325.152 852.7) rotate(-133.056) scale(339.316 581.956)">
<stop stop-color="#FADFFF"/>
<stop offset="1" stop-color="white" stop-opacity="0"/>
</radialGradient>
<linearGradient id="paint14_linear_927_728062" x1="16.3872" y1="5486.69" x2="503.282" y2="5167.09" gradientUnits="userSpaceOnUse">
<stop stop-color="#DFF0FA"/>
<stop offset="1" stop-color="#FCF1FF"/>
</linearGradient>
<linearGradient id="paint15_linear_927_728062" x1="6.91728" y1="5468.46" x2="499.362" y2="5157.38" gradientUnits="userSpaceOnUse">
<stop stop-color="#E8F6FE"/>
<stop offset="1" stop-color="#F7DEFF"/>
</linearGradient>
<linearGradient id="paint16_linear_927_728062" x1="490.096" y1="5141.06" x2="-53.7099" y2="5492.95" gradientUnits="userSpaceOnUse">
<stop stop-color="#FAE9FF"/>
<stop offset="1" stop-color="#E2F0F9"/>
</linearGradient>
</defs>
</svg>
