<svg width="1920" height="9404" viewBox="0 0 1920 9404" fill="none" xmlns="http://www.w3.org/2000/svg">
<rect width="1920" height="1762" transform="matrix(-1 0 0 1 1942 3246)" fill="url(#paint0_radial_1103_359724)"/>
<rect width="1920" height="2163" transform="matrix(-1 0 0 1 1942 3634)" fill="url(#paint1_radial_1103_359724)"/>
<rect width="2152" height="2187" transform="matrix(4.37114e-08 1 1 -4.37114e-08 -133 3422)" fill="url(#paint2_radial_1103_359724)"/>
<rect x="-0.000976562" width="1920" height="1373.76" fill="url(#paint3_linear_1103_359724)"/>
<rect x="-0.000976562" width="1920" height="2163" fill="url(#paint4_radial_1103_359724)"/>
<rect x="1982" width="1898.93" height="2187" transform="rotate(90 1982 0)" fill="url(#paint5_radial_1103_359724)"/>
<path d="M1934.14 760.57C1905.1 430.126 1753.27 320.948 1502 300.497C1250.73 280.046 1127.08 38.4098 1146.53 -200.492C1165.97 -439.393 1741.92 14.5179 1993.19 34.9692C2244.46 55.4205 1953.58 521.668 1934.14 760.57Z" fill="url(#paint6_radial_1103_359724)"/>
<path d="M1945.48 658C1892.48 333.279 1740.17 237.451 1500.49 237.451C1260.81 237.451 1125 8.25122 1125 -229.77C1125 -467.791 1705.79 -64.9268 1945.47 -64.9268C2185.16 -64.9268 1945.48 419.979 1945.48 658Z" fill="url(#paint7_radial_1103_359724)"/>
<rect y="507" width="1920" height="1762" fill="url(#paint8_radial_1103_359724)"/>
<rect x="-0.000976562" y="895" width="1920" height="2163" fill="url(#paint9_radial_1103_359724)"/>
<rect x="1920" y="683" width="2152" height="1920" transform="rotate(90 1920 683)" fill="url(#paint10_radial_1103_359724)"/>
<path d="M552.624 1472.64C275.276 1279.92 -1.92515 1421.22 -105.857 1515.96L-87.0125 2054.48C23.303 1870.48 321.41 1461.46 624.588 1584.47C997.662 1735.84 1183.54 1585.41 1414.12 1554C1598.58 1528.88 1856.78 1720.6 1963.99 1824.41C1963.59 1689.02 1959.67 1403.51 1947.2 1344.64C1931.61 1271.06 1504.31 1185.73 1293.09 1369.88L1292.69 1370.23C1081.64 1554.24 899.088 1713.39 552.624 1472.64Z" fill="url(#paint11_linear_1103_359724)"/>
<path d="M568.339 1330.65C287.665 1143.03 -6.71722 1402.31 -108.984 1498.93L-80.7509 2037.01C26.3422 1851.02 317.279 1436.65 622.565 1554.11C998.233 1698.65 1181.47 1544.86 1411.47 1509.25C1595.46 1480.77 1856.97 1667.74 1965.98 1769.58C1963.22 1634.22 1954.32 1348.84 1940.83 1290.21C1923.96 1216.93 1443.72 1091.03 1235.74 1278.99L1235.62 1279.1C1027.71 1466.99 919.114 1565.14 568.339 1330.65Z" fill="url(#paint12_linear_1103_359724)"/>
<g filter="url(#filter0_d_1103_359724)">
<path d="M1213.74 1335.1C1489.32 1096.84 1815.65 1188.49 1944.36 1264.09L2005.71 1799.22C1856.37 1636.55 1466.26 1284.1 1151.66 1457.98C764.518 1671.95 537.213 1555.5 278.901 1564.32C72.2522 1571.38 -182.427 1805.35 -284.487 1926.41C-304.68 1792.62 -343.881 1509.97 -339.143 1449.67C-333.222 1374.3 123.61 1216.19 383.917 1361.57L384.414 1361.84C644.511 1507.1 869.482 1632.74 1213.74 1335.1Z" fill="url(#paint13_linear_1103_359724)"/>
</g>
<path d="M1367.38 4204.64C1644.72 4011.92 1921.93 4153.22 2025.86 4247.96L2007.01 4786.48C1896.7 4602.48 1598.59 4193.46 1295.41 4316.47C922.338 4467.84 736.458 4317.41 505.882 4286C321.422 4260.88 63.2236 4452.6 -43.9874 4556.41C-43.5861 4421.02 -39.6663 4135.51 -27.1987 4076.64C-11.6139 4003.06 415.692 3917.73 626.911 4101.88L627.315 4102.23C838.364 4286.24 1020.91 4445.39 1367.38 4204.64Z" fill="url(#paint14_linear_1103_359724)"/>
<path d="M1351.66 4062.65C1632.34 3875.03 1926.72 4134.31 2028.98 4230.93L2000.75 4769.01C1893.66 4583.02 1602.72 4168.65 1297.43 4286.11C921.767 4430.65 738.534 4276.86 508.535 4241.25C324.535 4212.77 63.0257 4399.74 -45.9824 4501.58C-43.22 4366.22 -34.322 4080.84 -20.8293 4022.21C-3.96324 3948.93 476.282 3823.03 684.264 4010.99L684.385 4011.1C892.289 4198.99 1000.89 4297.14 1351.66 4062.65Z" fill="url(#paint15_linear_1103_359724)"/>
<g filter="url(#filter1_d_1103_359724)">
<path d="M706.259 4067.1C430.677 3828.84 104.352 3920.49 -24.3624 3996.09L-85.7122 4531.22C63.6255 4368.55 453.736 4016.1 768.344 4189.98C1155.48 4403.95 1382.79 4287.5 1641.1 4296.32C1847.75 4303.38 2102.43 4537.35 2204.49 4658.41C2224.68 4524.62 2263.88 4241.97 2259.14 4181.67C2253.22 4106.3 1796.39 3948.19 1536.08 4093.57L1535.59 4093.84C1275.49 4239.1 1050.52 4364.74 706.259 4067.1Z" fill="url(#paint16_linear_1103_359724)"/>
</g>
<path d="M1250.09 8799.62C1527.44 8606.9 1804.64 8748.2 1908.57 8842.93L1889.72 9381.46C1779.41 9197.45 1481.3 8788.43 1178.12 8911.45C805.05 9062.82 619.169 8912.39 388.594 8880.98C204.134 8855.85 -54.0645 9047.57 -161.275 9151.39C-160.874 9016 -156.954 8730.49 -144.487 8671.62C-128.902 8598.04 298.404 8512.71 509.623 8696.86L510.027 8697.21C721.076 8881.21 903.624 9040.37 1250.09 8799.62Z" fill="url(#paint17_linear_1103_359724)"/>
<path d="M1267.12 8659.49C1554.22 8472.23 1855.9 8731.93 1960.72 8828.7L1932.48 9366.77C1822.62 9180.63 1524.26 8765.84 1211.88 8882.89C827.484 9026.93 639.712 8872.89 404.213 8836.97C215.813 8808.23 -51.6668 8994.87 -163.134 9096.57C-160.474 8961.2 -151.721 8675.81 -137.981 8617.2C-120.806 8543.93 370.675 8418.67 583.825 8606.93L583.948 8607.04C797.018 8795.23 908.313 8893.52 1267.12 8659.49Z" fill="url(#paint18_linear_1103_359724)"/>
<g filter="url(#filter2_d_1103_359724)">
<path d="M588.971 8662.08C313.389 8423.82 -12.9359 8515.46 -141.651 8591.07L-203 9126.2C-53.6625 8963.53 336.448 8611.08 651.056 8784.96C1038.19 8998.93 1265.5 8882.48 1523.81 8891.3C1730.46 8898.36 1985.14 9132.33 2087.2 9253.39C2107.39 9119.6 2146.59 8836.94 2141.86 8776.65C2135.93 8701.28 1679.1 8543.17 1418.79 8688.55L1418.3 8688.82C1158.2 8834.08 933.23 8959.72 588.971 8662.08Z" fill="url(#paint19_linear_1103_359724)"/>
</g>
<defs>
<filter id="filter0_d_1103_359724" x="-389.537" y="1161.77" width="2445.25" height="844.64" filterUnits="userSpaceOnUse" color-interpolation-filters="sRGB">
<feFlood flood-opacity="0" result="BackgroundImageFix"/>
<feColorMatrix in="SourceAlpha" type="matrix" values="0 0 0 0 0 0 0 0 0 0 0 0 0 0 0 0 0 0 127 0" result="hardAlpha"/>
<feOffset dy="30"/>
<feGaussianBlur stdDeviation="25"/>
<feColorMatrix type="matrix" values="0 0 0 0 0 0 0 0 0 0.108333 0 0 0 0 0.270833 0 0 0 0.07 0"/>
<feBlend mode="normal" in2="BackgroundImageFix" result="effect1_dropShadow_1103_359724"/>
<feBlend mode="normal" in="SourceGraphic" in2="effect1_dropShadow_1103_359724" result="shape"/>
</filter>
<filter id="filter1_d_1103_359724" x="-135.712" y="3893.77" width="2445.25" height="844.639" filterUnits="userSpaceOnUse" color-interpolation-filters="sRGB">
<feFlood flood-opacity="0" result="BackgroundImageFix"/>
<feColorMatrix in="SourceAlpha" type="matrix" values="0 0 0 0 0 0 0 0 0 0 0 0 0 0 0 0 0 0 127 0" result="hardAlpha"/>
<feOffset dy="30"/>
<feGaussianBlur stdDeviation="25"/>
<feColorMatrix type="matrix" values="0 0 0 0 0 0 0 0 0 0.108333 0 0 0 0 0.270833 0 0 0 0.07 0"/>
<feBlend mode="normal" in2="BackgroundImageFix" result="effect1_dropShadow_1103_359724"/>
<feBlend mode="normal" in="SourceGraphic" in2="effect1_dropShadow_1103_359724" result="shape"/>
</filter>
<filter id="filter2_d_1103_359724" x="-253" y="8488.75" width="2445.25" height="844.639" filterUnits="userSpaceOnUse" color-interpolation-filters="sRGB">
<feFlood flood-opacity="0" result="BackgroundImageFix"/>
<feColorMatrix in="SourceAlpha" type="matrix" values="0 0 0 0 0 0 0 0 0 0 0 0 0 0 0 0 0 0 127 0" result="hardAlpha"/>
<feOffset dy="30"/>
<feGaussianBlur stdDeviation="25"/>
<feColorMatrix type="matrix" values="0 0 0 0 0 0 0 0 0 0.108333 0 0 0 0 0.270833 0 0 0 0.07 0"/>
<feBlend mode="normal" in2="BackgroundImageFix" result="effect1_dropShadow_1103_359724"/>
<feBlend mode="normal" in="SourceGraphic" in2="effect1_dropShadow_1103_359724" result="shape"/>
</filter>
<radialGradient id="paint0_radial_1103_359724" cx="0" cy="0" r="1" gradientUnits="userSpaceOnUse" gradientTransform="translate(565.5 621) rotate(-48.7977) scale(656.576 726.636)">
<stop stop-color="white"/>
<stop offset="0.0001" stop-color="white"/>
<stop offset="1" stop-color="#DDF1FD" stop-opacity="0"/>
</radialGradient>
<radialGradient id="paint1_radial_1103_359724" cx="0" cy="0" r="1" gradientUnits="userSpaceOnUse" gradientTransform="translate(-76.4992 826.5) rotate(16.1108) scale(475.682 891.969)">
<stop stop-color="#CCCEF1"/>
<stop offset="1" stop-color="#DDF1FD" stop-opacity="0"/>
</radialGradient>
<radialGradient id="paint2_radial_1103_359724" cx="0" cy="0" r="1" gradientUnits="userSpaceOnUse" gradientTransform="translate(739 1938) rotate(-133.056) scale(771.19 1322.66)">
<stop stop-color="#FADFFF"/>
<stop offset="1" stop-color="white" stop-opacity="0"/>
</radialGradient>
<linearGradient id="paint3_linear_1103_359724" x1="1920" y1="78.5" x2="1160.03" y2="199.313" gradientUnits="userSpaceOnUse">
<stop stop-color="white"/>
<stop offset="0.0001" stop-color="white"/>
<stop offset="1" stop-color="#DDF1FD" stop-opacity="0"/>
</linearGradient>
<radialGradient id="paint4_radial_1103_359724" cx="0" cy="0" r="1" gradientUnits="userSpaceOnUse" gradientTransform="translate(100.499 916.333) rotate(21.9465) scale(647.956 1215.01)">
<stop stop-color="#CCCEF1"/>
<stop offset="1" stop-color="#DDF1FD" stop-opacity="0"/>
</radialGradient>
<radialGradient id="paint5_radial_1103_359724" cx="0" cy="0" r="1" gradientUnits="userSpaceOnUse" gradientTransform="translate(1722.38 1636.5) rotate(-16.6988) scale(1470.38 2805.68)">
<stop stop-color="#FADFFF"/>
<stop offset="1" stop-color="white" stop-opacity="0"/>
</radialGradient>
<radialGradient id="paint6_radial_1103_359724" cx="0" cy="0" r="1" gradientUnits="userSpaceOnUse" gradientTransform="translate(1200.5 108.5) rotate(36.048) scale(920.195 967.813)">
<stop stop-color="#F1EFFF"/>
<stop offset="1" stop-color="#EDF8FF"/>
</radialGradient>
<radialGradient id="paint7_radial_1103_359724" cx="0" cy="0" r="1" gradientUnits="userSpaceOnUse" gradientTransform="translate(1481 214) rotate(-54.4268) scale(468.42 471.69)">
<stop stop-color="white"/>
<stop offset="1" stop-color="#F3F4FC"/>
</radialGradient>
<radialGradient id="paint8_radial_1103_359724" cx="0" cy="0" r="1" gradientUnits="userSpaceOnUse" gradientTransform="translate(565.5 1128) rotate(-48.7977) scale(656.576 726.636)">
<stop stop-color="white"/>
<stop offset="0.0001" stop-color="white"/>
<stop offset="1" stop-color="#DDF1FD" stop-opacity="0"/>
</radialGradient>
<radialGradient id="paint9_radial_1103_359724" cx="0" cy="0" r="1" gradientUnits="userSpaceOnUse" gradientTransform="translate(-76.5002 1721.5) rotate(29.5519) scale(570.749 1070.23)">
<stop stop-color="#CCCEF1"/>
<stop offset="1" stop-color="#DDF1FD" stop-opacity="0"/>
</radialGradient>
<radialGradient id="paint10_radial_1103_359724" cx="0" cy="0" r="1" gradientUnits="userSpaceOnUse" gradientTransform="translate(2659 2384.4) rotate(-136.783) scale(722.451 1239.52)">
<stop stop-color="#FADFFF"/>
<stop offset="1" stop-color="white" stop-opacity="0"/>
</radialGradient>
<linearGradient id="paint11_linear_1103_359724" x1="1486.07" y1="1250.9" x2="165.553" y2="1342.64" gradientUnits="userSpaceOnUse">
<stop stop-color="#DFF0FA"/>
<stop offset="1" stop-color="#FCF1FF"/>
</linearGradient>
<linearGradient id="paint12_linear_1103_359724" x1="1478.13" y1="1204.9" x2="159.281" y2="1319.68" gradientUnits="userSpaceOnUse">
<stop stop-color="#E8F6FE"/>
<stop offset="1" stop-color="#F7DEFF"/>
</linearGradient>
<linearGradient id="paint13_linear_1103_359724" x1="153.592" y1="1277.41" x2="1621.5" y2="1165.79" gradientUnits="userSpaceOnUse">
<stop stop-color="#FAE9FF"/>
<stop offset="1" stop-color="#E2F0F9"/>
</linearGradient>
<linearGradient id="paint14_linear_1103_359724" x1="433.926" y1="3982.9" x2="1754.45" y2="4074.64" gradientUnits="userSpaceOnUse">
<stop stop-color="#DFF0FA"/>
<stop offset="1" stop-color="#FCF1FF"/>
</linearGradient>
<linearGradient id="paint15_linear_1103_359724" x1="441.873" y1="3936.9" x2="1760.72" y2="4051.68" gradientUnits="userSpaceOnUse">
<stop stop-color="#E8F6FE"/>
<stop offset="1" stop-color="#F7DEFF"/>
</linearGradient>
<linearGradient id="paint16_linear_1103_359724" x1="1766.41" y1="4009.41" x2="298.5" y2="3897.79" gradientUnits="userSpaceOnUse">
<stop stop-color="#FAE9FF"/>
<stop offset="1" stop-color="#E2F0F9"/>
</linearGradient>
<linearGradient id="paint17_linear_1103_359724" x1="316.638" y1="8577.88" x2="1637.16" y2="8669.62" gradientUnits="userSpaceOnUse">
<stop stop-color="#DFF0FA"/>
<stop offset="1" stop-color="#FCF1FF"/>
</linearGradient>
<linearGradient id="paint18_linear_1103_359724" x1="335.591" y1="8532.5" x2="1685.68" y2="8651.11" gradientUnits="userSpaceOnUse">
<stop stop-color="#E8F6FE"/>
<stop offset="1" stop-color="#F7DEFF"/>
</linearGradient>
<linearGradient id="paint19_linear_1103_359724" x1="1649.12" y1="8604.38" x2="181.212" y2="8492.77" gradientUnits="userSpaceOnUse">
<stop stop-color="#FAE9FF"/>
<stop offset="1" stop-color="#E2F0F9"/>
</linearGradient>
</defs>
</svg>
