<svg xmlns="http://www.w3.org/2000/svg" width="174" height="186" viewBox="0 0 174 186" fill="none">
    <g opacity="0.4" filter="url(#filter0_d_1182_228920)">
        <circle cx="71" cy="83" r="33" fill="white"/>
        <circle cx="71" cy="83" r="32.5" stroke="black"/>
        <circle cx="71" cy="83" r="32.5" stroke="url(#paint0_linear_1182_228920)"/>
    </g>
    <g filter="url(#filter1_d_1182_228920)">
        <path d="M84.7877 77.1647L68.6346 93.3142C68.4923 93.4565 68.262 93.4565 68.12 93.3142L58.9483 84.1442C58.8063 84.0026 58.8063 83.7723 58.9483 83.63L61.1769 81.4019C61.3191 81.26 61.5495 81.26 61.6915 81.4019L67.6706 87.3794C68.0611 87.7698 68.6941 87.7698 69.0846 87.3794L82.0448 74.4221C82.1874 74.2802 82.4172 74.2802 82.5594 74.4221L84.7877 76.6502C84.93 76.7921 84.93 77.0221 84.7877 77.1647Z" fill="url(#paint1_linear_1182_228920)"/>
        <path d="M85.2119 77.589L85.2124 77.5885L67.6958 93.7386C68.0725 94.1155 68.6827 94.1146 69.0588 93.7386L85.2119 77.589ZM58.5245 84.569L67.6953 93.7381L84.7877 76.6502L85.212 76.2259L85.2115 76.2255C85.2115 76.2255 85.2115 76.2254 85.2114 76.2254L82.9837 73.9978L82.9832 73.9973C82.6064 73.6215 81.998 73.6222 81.6216 73.9968L81.6206 73.9978L68.6604 86.9551C68.5042 87.1113 68.251 87.1113 68.0948 86.9551L62.1157 80.9776C62.1157 80.9776 62.1157 80.9776 62.1157 80.9776C61.7392 80.6012 61.1293 80.6019 60.7531 80.9771L60.7527 80.9776L58.524 83.2057L58.5235 83.2062C58.1484 83.5821 58.147 84.1924 58.5245 84.569Z" stroke="url(#paint2_linear_1182_228920)" stroke-width="1.2"/>
    </g>
    <defs>
        <filter id="filter0_d_1182_228920" x="-12" y="0" width="186" height="186" filterUnits="userSpaceOnUse" color-interpolation-filters="sRGB">
            <feFlood flood-opacity="0" result="BackgroundImageFix"/>
            <feColorMatrix in="SourceAlpha" type="matrix" values="0 0 0 0 0 0 0 0 0 0 0 0 0 0 0 0 0 0 127 0" result="hardAlpha"/>
            <feOffset dx="10" dy="10"/>
            <feGaussianBlur stdDeviation="30"/>
            <feColorMatrix type="matrix" values="0 0 0 0 0.481562 0 0 0 0 0.688006 0 0 0 0 0.8375 0 0 0 0.3 0"/>
            <feBlend mode="normal" in2="BackgroundImageFix" result="effect1_dropShadow_1182_228920"/>
            <feBlend mode="normal" in="SourceGraphic" in2="effect1_dropShadow_1182_228920" result="shape"/>
        </filter>
        <filter id="filter1_d_1182_228920" x="53.6426" y="73.1157" width="36.4512" height="29.5051" filterUnits="userSpaceOnUse" color-interpolation-filters="sRGB">
            <feFlood flood-opacity="0" result="BackgroundImageFix"/>
            <feColorMatrix in="SourceAlpha" type="matrix" values="0 0 0 0 0 0 0 0 0 0 0 0 0 0 0 0 0 0 127 0" result="hardAlpha"/>
            <feOffset dy="4"/>
            <feGaussianBlur stdDeviation="2"/>
            <feColorMatrix type="matrix" values="0 0 0 0 0 0 0 0 0 0 0 0 0 0 0 0 0 0 0.08 0"/>
            <feBlend mode="normal" in2="BackgroundImageFix" result="effect1_dropShadow_1182_228920"/>
            <feBlend mode="normal" in="SourceGraphic" in2="effect1_dropShadow_1182_228920" result="shape"/>
        </filter>
        <linearGradient id="paint0_linear_1182_228920" x1="64.0607" y1="23.4919" x2="113.361" y2="76.8924" gradientUnits="userSpaceOnUse">
            <stop stop-color="#DCD4FD"/>
            <stop offset="1" stop-color="#EBECFA"/>
        </linearGradient>
        <linearGradient id="paint1_linear_1182_228920" x1="81.4207" y1="74.3157" x2="70.1313" y2="98.6315" gradientUnits="userSpaceOnUse">
            <stop stop-color="#47BF0E"/>
            <stop offset="0.817708" stop-color="#8CE363"/>
            <stop offset="1" stop-color="#9CEB75"/>
        </linearGradient>
        <linearGradient id="paint2_linear_1182_228920" x1="94.4471" y1="62.1578" x2="70.1313" y2="98.6315" gradientUnits="userSpaceOnUse">
            <stop stop-color="#9CEB75"/>
            <stop offset="1" stop-color="#47BF0E"/>
        </linearGradient>
    </defs>
</svg>