<svg width="66" height="66" viewBox="0 0 66 66" fill="none" xmlns="http://www.w3.org/2000/svg">
<circle cx="33" cy="33" r="33" fill="#F8F8F8"/>
<g clip-path="url(#clip0_1103_14770)" filter="url(#filter0_d_1103_14770)">
<path d="M22.2414 25.1387H43.7586C44.4443 25.1387 45 25.6944 45 26.3801V42.1042C45 42.7898 44.4443 43.3456 43.7586 43.3456H22.2414C21.5557 43.3456 21 42.7898 21 42.1042V26.3801C21 25.6944 21.5557 25.1387 22.2414 25.1387Z" fill="#4398D1"/>
<path d="M43.7585 25.1387H43.2371C37.084 33.8532 27.062 39.5842 21.0537 42.4435C21.2047 42.9748 21.6889 43.3427 22.2413 43.3456H43.7585C44.4441 43.3456 44.9999 42.7899 44.9999 42.1042V26.3801C44.9999 25.6944 44.4442 25.1387 43.7585 25.1387Z" fill="#3E8CC7"/>
<path d="M32.9996 40.8624C36.6561 40.8624 39.6203 37.8983 39.6203 34.2418C39.6203 30.5853 36.6561 27.6211 32.9996 27.6211C29.3431 27.6211 26.3789 30.5853 26.3789 34.2418C26.3789 37.8983 29.3431 40.8624 32.9996 40.8624Z" fill="white"/>
<path d="M37.5517 25.1379V22.6552C37.5517 21.7411 36.8106 21 35.8965 21H30.1034C29.1893 21 28.4482 21.7411 28.4482 22.6552V25.1379H30.1034V23.069C30.1034 22.8405 30.2888 22.6552 30.5172 22.6552H35.4827C35.7112 22.6552 35.8965 22.8405 35.8965 23.069V25.1379H37.5517Z" fill="#215280"/>
<path d="M36.7241 33.0004H34.2414V30.5176H31.7586V33.0004H29.2759V35.4831H31.7586V37.9659H34.2414V35.4831H36.7241V33.0004Z" fill="#FF7872"/>
<path d="M24.0617 23.4824H26.2134C26.5333 23.4824 26.7927 23.7419 26.7927 24.0617V25.1376H23.4824V24.0617C23.4824 23.7418 23.7418 23.4824 24.0617 23.4824Z" fill="#D1D1D1"/>
<path d="M39.7859 23.4824H41.9376C42.2575 23.4824 42.5169 23.7419 42.5169 24.0617V25.1376H39.2065V24.0617C39.2066 23.7418 39.466 23.4824 39.7859 23.4824Z" fill="#D1D1D1"/>
<path d="M25.9656 43.3457H22.6553V45.0009H25.9656V43.3457Z" fill="#215280"/>
<path d="M43.345 43.3457H40.0347V45.0009H43.345V43.3457Z" fill="#215280"/>
</g>
<defs>
<filter id="filter0_d_1103_14770" x="9" y="13" width="48" height="48" filterUnits="userSpaceOnUse" color-interpolation-filters="sRGB">
<feFlood flood-opacity="0" result="BackgroundImageFix"/>
<feColorMatrix in="SourceAlpha" type="matrix" values="0 0 0 0 0 0 0 0 0 0 0 0 0 0 0 0 0 0 127 0" result="hardAlpha"/>
<feOffset dy="4"/>
<feGaussianBlur stdDeviation="6"/>
<feColorMatrix type="matrix" values="0 0 0 0 0 0 0 0 0 0 0 0 0 0 0 0 0 0 0.2 0"/>
<feBlend mode="normal" in2="BackgroundImageFix" result="effect1_dropShadow_1103_14770"/>
<feBlend mode="normal" in="SourceGraphic" in2="effect1_dropShadow_1103_14770" result="shape"/>
</filter>
<clipPath id="clip0_1103_14770">
<rect width="24" height="24" fill="white" transform="translate(21 21)"/>
</clipPath>
</defs>
</svg>
