<svg width="61" height="62" viewBox="0 0 61 62" fill="none" xmlns="http://www.w3.org/2000/svg">
<g clip-path="url(#clip0_1301_211826)" filter="url(#filter0_d_1301_211826)">
<path d="M30.4985 45.5C40.7158 45.5 48.9985 37.2173 48.9985 27C48.9985 16.7827 40.7158 8.5 30.4985 8.5C20.2813 8.5 11.9985 16.7827 11.9985 27C11.9985 37.2173 20.2813 45.5 30.4985 45.5Z" fill="#6AA9FF"/>
<path d="M48.9985 27C48.9985 16.8387 40.6598 8.5 30.4985 8.5V45.5C40.6598 45.5 48.9985 37.1613 48.9985 27Z" fill="#4895FF"/>
<path d="M30.4985 43.332C39.5185 43.332 46.8306 36.0199 46.8306 27C46.8306 17.9801 39.5185 10.668 30.4985 10.668C21.4786 10.668 14.1665 17.9801 14.1665 27C14.1665 36.0199 21.4786 43.332 30.4985 43.332Z" fill="#EDF5FF"/>
<path d="M46.8306 27C46.8306 18.0339 39.4647 10.668 30.4985 10.668V43.332C39.4647 43.332 46.8306 35.9661 46.8306 27Z" fill="#D5E8FE"/>
<path d="M21.3003 37.2822C21.899 37.2822 22.3843 36.7969 22.3843 36.1982C22.3843 35.5996 21.899 35.1143 21.3003 35.1143C20.7016 35.1143 20.2163 35.5996 20.2163 36.1982C20.2163 36.7969 20.7016 37.2822 21.3003 37.2822Z" fill="#47568C"/>
<path d="M39.6968 18.8857C40.2954 18.8857 40.7808 18.4004 40.7808 17.8018C40.7808 17.2031 40.2954 16.7178 39.6968 16.7178C39.0981 16.7178 38.6128 17.2031 38.6128 17.8018C38.6128 18.4004 39.0981 18.8857 39.6968 18.8857Z" fill="#29376D"/>
<path d="M21.3003 18.8857C21.899 18.8857 22.3843 18.4004 22.3843 17.8018C22.3843 17.2031 21.899 16.7178 21.3003 16.7178C20.7016 16.7178 20.2163 17.2031 20.2163 17.8018C20.2163 18.4004 20.7016 18.8857 21.3003 18.8857Z" fill="#47568C"/>
<path d="M39.6968 37.2822C40.2954 37.2822 40.7808 36.7969 40.7808 36.1982C40.7808 35.5996 40.2954 35.1143 39.6968 35.1143C39.0981 35.1143 38.6128 35.5996 38.6128 36.1982C38.6128 36.7969 39.0981 37.2822 39.6968 37.2822Z" fill="#29376D"/>
<path d="M19.6587 28.084H17.4907C16.8916 28.084 16.4067 27.5992 16.4067 27C16.4067 26.4008 16.8916 25.916 17.4907 25.916H19.6587C20.2578 25.916 20.7427 26.4008 20.7427 27C20.7427 27.5992 20.2578 28.084 19.6587 28.084Z" fill="#47568C"/>
<path d="M43.5063 28.084H41.3384C40.7392 28.084 40.2544 27.5992 40.2544 27C40.2544 26.4008 40.7392 25.916 41.3384 25.916H43.5063C44.1055 25.916 44.5903 26.4008 44.5903 27C44.5903 27.5992 44.1055 28.084 43.5063 28.084Z" fill="#29376D"/>
<path d="M29.4146 13.9922V16.1602C29.4146 16.7593 29.8994 17.2441 30.4985 17.2441V12.9082C29.8994 12.9082 29.4146 13.393 29.4146 13.9922Z" fill="#47568C"/>
<path d="M31.5825 16.1602V13.9922C31.5825 13.393 31.0977 12.9082 30.4985 12.9082V17.2441C31.0977 17.2441 31.5825 16.7593 31.5825 16.1602Z" fill="#FF7B4A"/>
<path d="M30.4985 36.7559C29.8994 36.7559 29.4146 37.2407 29.4146 37.8398V40.0078C29.4146 40.607 29.8994 41.0918 30.4985 41.0918C31.0977 41.0918 31.5825 40.607 31.5825 40.0078V37.8398C31.5825 37.2407 31.0977 36.7559 30.4985 36.7559ZM37.7688 32.7375L31.5825 26.5512V20.4961C31.5825 19.8969 31.0977 19.4121 30.4985 19.4121C29.8994 19.4121 29.4146 19.8969 29.4146 20.4961V27C29.4146 27.2879 29.5289 27.5632 29.7322 27.7664L30.4985 28.5328L36.2361 34.2704C36.6595 34.6938 37.3455 34.6938 37.7689 34.2704C38.1923 33.847 38.1923 33.1609 37.7688 32.7375Z" fill="#47568C"/>
<path d="M31.5825 16.1602V13.9922C31.5825 13.393 31.0977 12.9082 30.4985 12.9082V17.2441C31.0977 17.2441 31.5825 16.7593 31.5825 16.1602ZM31.5825 40.0078V37.8398C31.5825 37.2407 31.0977 36.7559 30.4985 36.7559V41.0918C31.0977 41.0918 31.5825 40.607 31.5825 40.0078ZM37.7688 34.2703C38.1922 33.8469 38.1922 33.1609 37.7688 32.7375L31.5825 26.5512V20.4961C31.5825 19.8969 31.0977 19.4121 30.4985 19.4121V28.5328L36.2361 34.2704C36.6595 34.6938 37.3454 34.6938 37.7688 34.2703Z" fill="#29376D"/>
</g>
<defs>
<filter id="filter0_d_1301_211826" x="-0.00146484" y="0.5" width="61" height="61" filterUnits="userSpaceOnUse" color-interpolation-filters="sRGB">
<feFlood flood-opacity="0" result="BackgroundImageFix"/>
<feColorMatrix in="SourceAlpha" type="matrix" values="0 0 0 0 0 0 0 0 0 0 0 0 0 0 0 0 0 0 127 0" result="hardAlpha"/>
<feOffset dy="4"/>
<feGaussianBlur stdDeviation="6"/>
<feColorMatrix type="matrix" values="0 0 0 0 0 0 0 0 0 0 0 0 0 0 0 0 0 0 0.2 0"/>
<feBlend mode="normal" in2="BackgroundImageFix" result="effect1_dropShadow_1301_211826"/>
<feBlend mode="normal" in="SourceGraphic" in2="effect1_dropShadow_1301_211826" result="shape"/>
</filter>
<clipPath id="clip0_1301_211826">
<rect width="37" height="37" fill="white" transform="translate(11.9985 8.5)"/>
</clipPath>
</defs>
</svg>
