<svg width="36" height="23" viewBox="0 0 36 23" fill="none" xmlns="http://www.w3.org/2000/svg">
<g clip-path="url(#clip0_1150_655516)">
<path d="M0.228863 10.8017C0.550472 10.3629 8.21334 0.0585938 18.0002 0.0585938C27.7871 0.0585938 35.4503 10.3629 35.7716 10.8013C36.0761 11.2175 36.0761 11.7821 35.7716 12.1983C35.4503 12.6371 27.7871 22.9414 18.0002 22.9414C8.21334 22.9414 0.550472 12.637 0.228863 12.1987C-0.0761528 11.7825 -0.0761528 11.2175 0.228863 10.8017ZM18.0002 20.5743C25.2093 20.5743 31.4531 13.735 33.3014 11.4992C31.4555 9.2614 25.2247 2.42577 18.0002 2.42577C10.7915 2.42577 4.54809 9.26379 2.69901 11.5008C4.54493 13.7385 10.7757 20.5743 18.0002 20.5743Z" fill="#A0A3CF"/>
<path d="M18.0002 4.39844C21.9266 4.39844 25.1211 7.58429 25.1211 11.5C25.1211 15.4158 21.9266 18.6016 18.0002 18.6016C14.0738 18.6016 10.8793 15.4158 10.8793 11.5C10.8793 7.58429 14.0738 4.39844 18.0002 4.39844ZM18.0002 16.2344C20.6179 16.2344 22.7474 14.1106 22.7474 11.5C22.7474 8.88947 20.6179 6.76568 18.0002 6.76568C15.3825 6.76568 13.253 8.88947 13.253 11.5C13.253 14.1106 15.3825 16.2344 18.0002 16.2344Z" fill="#A0A3CF"/>
</g>
<defs>
<clipPath id="clip0_1150_655516">
<rect width="36" height="23" fill="white" transform="matrix(-1 0 0 1 36 0)"/>
</clipPath>
</defs>
</svg>
