<svg width="86" height="86" viewBox="0 0 86 86" fill="none" xmlns="http://www.w3.org/2000/svg">
<path d="M39.1127 0.5C17.5475 0.5 0 19.4334 0 42.7067C0 65.98 17.5475 84.9135 39.1127 84.9135C60.682 84.9135 78.2267 65.98 78.2267 42.7067C78.2267 19.4334 60.682 0.5 39.1127 0.5Z" fill="url(#paint0_linear_1084_138828)"/>
<path d="M86 43.2933C86 66.5666 68.4553 85.5 46.8859 85.5L39.1127 84.9135C60.682 84.9135 78.2267 65.98 78.2267 42.7067L86 43.2933Z" fill="url(#paint1_linear_1084_138828)"/>
<path d="M46.8859 1.08654C68.4553 1.08654 86 20.02 86 43.2933L78.2267 42.7067C78.2267 21.4433 63.5814 3.80246 44.602 0.914199L39.1127 0.5C40.9754 0.5 42.808 0.641199 44.602 0.914199L46.8859 1.08654Z" fill="url(#paint2_linear_1084_138828)"/>
<path d="M7.77328 43.2933C7.77328 64.5571 22.4214 82.1981 41.3985 85.0859L46.8859 85.5C45.0239 85.5 43.1919 85.3588 41.3985 85.0859L39.1127 84.9135C17.5475 84.9135 0 65.98 0 42.7067L7.77328 43.2933Z" fill="url(#paint3_linear_1084_138828)"/>
<path d="M7.77328 43.2933C7.77328 20.02 25.3208 1.08654 46.8859 1.08654L39.1127 0.5C17.5475 0.5 0 19.4334 0 42.7067L7.77328 43.2933Z" fill="url(#paint4_linear_1084_138828)"/>
<path d="M61.5209 40.2378C61.5209 40.2378 57.33 40.2378 53.1392 40.2378C48.9484 40.2378 44.7575 40.2378 44.7575 40.2378V16.32C44.7575 15.5739 44.4829 14.8583 43.9941 14.3305C43.5053 13.8027 42.8422 13.5061 42.1508 13.5057C41.4595 13.5065 40.7968 13.8033 40.3083 14.331C39.8198 14.8588 39.5454 15.5741 39.5454 16.32V45.8635C39.5454 45.8635 45.0393 45.8635 50.5331 45.8635C56.027 45.8635 61.5209 45.8635 61.5209 45.8635C62.1974 45.8396 62.8388 45.5327 63.3096 45.0078C63.7803 44.4829 64.0435 43.7811 64.0435 43.0507C64.0435 42.3202 63.7803 41.6184 63.3096 41.0935C62.8388 40.5686 62.1974 40.2618 61.5209 40.2378Z" fill="url(#paint5_linear_1084_138828)"/>
<path d="M68.78 43.0507C68.78 43.7811 68.5168 44.4829 68.0461 45.0078L63.3096 45.0078C63.7803 44.4829 64.0435 43.7811 64.0435 43.0507L68.78 43.0507Z" fill="url(#paint6_linear_1084_138828)"/>
<path d="M68.0461 41.0935C68.5168 41.6184 68.78 42.3202 68.78 43.0507L64.0435 43.0507C64.0435 42.3202 63.7803 41.6184 63.3096 41.0935L68.0461 41.0935Z" fill="url(#paint7_linear_1084_138828)"/>
<path d="M68.0461 45.0078C67.5753 45.5327 66.9339 45.8396 66.2573 45.8636L61.5209 45.8635C62.1974 45.8396 62.8388 45.5327 63.3096 45.0078L68.0461 45.0078Z" fill="url(#paint8_linear_1084_138828)"/>
<path d="M66.2573 40.2378C66.9339 40.2618 67.5753 40.5686 68.0461 41.0935L63.3096 41.0935C62.8388 40.5686 62.1974 40.2618 61.5209 40.2378L66.2573 40.2378Z" fill="url(#paint9_linear_1084_138828)"/>
<path d="M49.494 16.32V40.2378L44.7575 40.2378V16.32L49.494 16.32Z" fill="url(#paint10_linear_1084_138828)"/>
<path d="M48.7306 14.3305C49.2194 14.8582 49.494 15.5739 49.494 16.32L44.7575 16.32C44.7575 15.5739 44.4829 14.8583 43.9941 14.3305L48.7306 14.3305Z" fill="url(#paint11_linear_1084_138828)"/>
<path d="M46.8872 13.5057C47.5787 13.5061 48.2417 13.8027 48.7306 14.3305L43.9941 14.3305C43.5053 13.8027 42.8422 13.5061 42.1508 13.5057H46.8872Z" fill="url(#paint12_linear_1084_138828)"/>
<path d="M46.8861 1.08594C25.321 1.08594 7.77344 20.0194 7.77344 43.2927C7.77344 66.566 25.321 85.4994 46.8861 85.4994C68.4555 85.4994 86.0002 66.566 86.0002 43.2927C86.0002 20.0194 68.4555 1.08594 46.8861 1.08594Z" fill="url(#paint13_linear_1084_138828)"/>
<path d="M12.4404 43.2928C12.4404 22.6807 27.9657 6.04297 46.8869 6.04297C65.8119 6.04297 81.3347 22.6807 81.3347 43.2928C81.3347 63.905 65.8119 80.5427 46.8869 80.5427C27.9657 80.5427 12.4404 63.905 12.4404 43.2928Z" stroke="url(#paint14_linear_1084_138828)" stroke-width="2"/>
<path d="M59.7429 41.3607C59.5186 41.2844 59.2839 41.2406 59.0448 41.2321H42.2815V17.3144C42.2815 16.5682 42.0069 15.8526 41.518 15.3249C41.2186 15.0015 40.8537 14.7649 40.457 14.6301C40.2061 14.5448 39.9426 14.5002 39.6747 14.5C38.9835 14.5008 38.3208 14.7977 37.8323 15.3254C37.3437 15.8531 37.0693 16.5685 37.0693 17.3144V46.8579H59.0448C59.7214 46.8339 60.3628 46.5271 60.8335 46.0022C61.3042 45.4773 61.5674 44.7754 61.5674 44.045C61.5674 43.3146 61.3042 42.6128 60.8335 42.0879C60.5291 41.7485 60.1534 41.5002 59.7429 41.3607Z" fill="#00AEF6"/>
<path d="M71.2558 47.3358C71.2558 48.0662 70.9926 48.768 70.5219 49.2929L60.8335 46.0022C61.3042 45.4773 61.5674 44.7754 61.5674 44.045L71.2558 47.3358Z" fill="#00AEF6"/>
<path d="M70.5219 45.3785C70.9926 45.9034 71.2558 46.6054 71.2558 47.3358L61.5674 44.045C61.5674 43.3146 61.3042 42.6128 60.8335 42.0879L70.5219 45.3785Z" fill="#00AEF6"/>
<path d="M70.5219 49.2929C70.0512 49.8178 69.4097 50.1246 68.7332 50.1486L59.0448 46.8579C59.7214 46.8339 60.3628 46.5271 60.8335 46.0022L70.5219 49.2929Z" fill="#00AEF6"/>
<path d="M69.4314 44.6515C69.8418 44.791 70.2175 45.0391 70.5219 45.3785L60.8335 42.0879C60.5291 41.7485 60.1534 41.5002 59.7429 41.3607L69.4314 44.6515Z" fill="#00AEF6"/>
<path d="M68.7332 44.5228C68.9718 44.5313 69.2061 44.5749 69.43 44.6509L59.7429 41.3607C59.5186 41.2844 59.2839 41.2406 59.0448 41.2321L68.7332 44.5228Z" fill="#00AEF6"/>
<path d="M51.9702 44.5228H68.7332L59.0448 41.2321H42.2815L51.9702 44.5228Z" fill="#00AEF6"/>
<path d="M68.7332 50.1486L46.7578 50.1485L37.0693 46.8579H59.0448L68.7332 50.1486Z" fill="#00AEF6"/>
<path d="M51.9702 20.6051V44.5228L42.2815 41.2321V17.3144L51.9702 20.6051Z" fill="#00AEF6"/>
<path d="M51.2064 18.6156C51.6952 19.1433 51.9702 19.8589 51.9702 20.6051L42.2815 17.3144C42.2815 16.5682 42.0069 15.8526 41.518 15.3249L51.2064 18.6156Z" fill="#00AEF6"/>
<path d="M46.7578 50.1485V20.6051L37.0693 17.3144V46.8579L46.7578 50.1485Z" fill="#00AEF6"/>
<path d="M50.1457 17.9208C50.5424 18.0556 50.9069 18.2923 51.2064 18.6156L41.518 15.3249C41.2186 15.0015 40.8537 14.7649 40.457 14.6301L50.1457 17.9208Z" fill="#00AEF6"/>
<path d="M49.3633 17.7909C49.6307 17.791 49.8939 17.8355 50.1443 17.9205L40.457 14.6301C40.2061 14.5448 39.9426 14.5002 39.6747 14.5L49.3633 17.7909Z" fill="#00AEF6"/>
<path d="M47.5207 18.6163C48.0092 18.0886 48.6721 17.7917 49.3633 17.7909L39.6747 14.5C38.9835 14.5008 38.3208 14.7977 37.8323 15.3254L47.5207 18.6163Z" fill="#00AEF6"/>
<path d="M46.7578 20.6051C46.7578 19.8592 47.0322 19.144 47.5207 18.6163L37.8323 15.3254C37.3437 15.8531 37.0693 16.5685 37.0693 17.3144L46.7578 20.6051Z" fill="#00AEF6"/>
<path d="M68.7333 44.5232H51.9699V20.6054C51.9699 19.8592 51.6953 19.1436 51.2065 18.6159C50.7177 18.0881 50.0547 17.7914 49.3632 17.791C48.6719 17.7918 48.0093 18.0887 47.5207 18.6164C47.0322 19.1441 46.7578 19.8595 46.7578 20.6054V50.1489H68.7333C69.4099 50.1249 70.0513 49.8181 70.522 49.2932C70.9927 48.7683 71.2559 48.0665 71.2559 47.336C71.2559 46.6056 70.9927 45.9038 70.522 45.3789C70.0513 44.854 69.4099 44.5471 68.7333 44.5232Z" fill="white"/>
<defs>
<linearGradient id="paint0_linear_1084_138828" x1="39.2479" y1="0.427064" x2="43.6152" y2="85.4684" gradientUnits="userSpaceOnUse">
<stop offset="0.0649122" stop-color="#87D5F7"/>
<stop offset="0.438098" stop-color="#11A8E8"/>
<stop offset="0.804469" stop-color="#6ECEF7"/>
</linearGradient>
<linearGradient id="paint1_linear_1084_138828" x1="39.2479" y1="0.427064" x2="43.6152" y2="85.4684" gradientUnits="userSpaceOnUse">
<stop offset="0.0649122" stop-color="#87D5F7"/>
<stop offset="0.438098" stop-color="#11A8E8"/>
<stop offset="0.804469" stop-color="#6ECEF7"/>
</linearGradient>
<linearGradient id="paint2_linear_1084_138828" x1="39.2479" y1="0.427064" x2="43.6152" y2="85.4684" gradientUnits="userSpaceOnUse">
<stop offset="0.0649122" stop-color="#87D5F7"/>
<stop offset="0.438098" stop-color="#11A8E8"/>
<stop offset="0.804469" stop-color="#6ECEF7"/>
</linearGradient>
<linearGradient id="paint3_linear_1084_138828" x1="39.2479" y1="0.427064" x2="43.6152" y2="85.4684" gradientUnits="userSpaceOnUse">
<stop offset="0.0649122" stop-color="#87D5F7"/>
<stop offset="0.438098" stop-color="#11A8E8"/>
<stop offset="0.804469" stop-color="#6ECEF7"/>
</linearGradient>
<linearGradient id="paint4_linear_1084_138828" x1="39.2479" y1="0.427064" x2="43.6152" y2="85.4684" gradientUnits="userSpaceOnUse">
<stop offset="0.0649122" stop-color="#87D5F7"/>
<stop offset="0.438098" stop-color="#11A8E8"/>
<stop offset="0.804469" stop-color="#6ECEF7"/>
</linearGradient>
<linearGradient id="paint5_linear_1084_138828" x1="39.2479" y1="0.427064" x2="43.6152" y2="85.4684" gradientUnits="userSpaceOnUse">
<stop offset="0.0649122" stop-color="#87D5F7"/>
<stop offset="0.438098" stop-color="#11A8E8"/>
<stop offset="0.804469" stop-color="#6ECEF7"/>
</linearGradient>
<linearGradient id="paint6_linear_1084_138828" x1="39.2479" y1="0.427064" x2="43.6152" y2="85.4684" gradientUnits="userSpaceOnUse">
<stop offset="0.0649122" stop-color="#87D5F7"/>
<stop offset="0.438098" stop-color="#11A8E8"/>
<stop offset="0.804469" stop-color="#6ECEF7"/>
</linearGradient>
<linearGradient id="paint7_linear_1084_138828" x1="39.2479" y1="0.427064" x2="43.6152" y2="85.4684" gradientUnits="userSpaceOnUse">
<stop offset="0.0649122" stop-color="#87D5F7"/>
<stop offset="0.438098" stop-color="#11A8E8"/>
<stop offset="0.804469" stop-color="#6ECEF7"/>
</linearGradient>
<linearGradient id="paint8_linear_1084_138828" x1="39.2479" y1="0.427064" x2="43.6152" y2="85.4684" gradientUnits="userSpaceOnUse">
<stop offset="0.0649122" stop-color="#87D5F7"/>
<stop offset="0.438098" stop-color="#11A8E8"/>
<stop offset="0.804469" stop-color="#6ECEF7"/>
</linearGradient>
<linearGradient id="paint9_linear_1084_138828" x1="39.2479" y1="0.427064" x2="43.6152" y2="85.4684" gradientUnits="userSpaceOnUse">
<stop offset="0.0649122" stop-color="#87D5F7"/>
<stop offset="0.438098" stop-color="#11A8E8"/>
<stop offset="0.804469" stop-color="#6ECEF7"/>
</linearGradient>
<linearGradient id="paint10_linear_1084_138828" x1="39.2479" y1="0.427064" x2="43.6152" y2="85.4684" gradientUnits="userSpaceOnUse">
<stop offset="0.0649122" stop-color="#87D5F7"/>
<stop offset="0.438098" stop-color="#11A8E8"/>
<stop offset="0.804469" stop-color="#6ECEF7"/>
</linearGradient>
<linearGradient id="paint11_linear_1084_138828" x1="39.2479" y1="0.427064" x2="43.6152" y2="85.4684" gradientUnits="userSpaceOnUse">
<stop offset="0.0649122" stop-color="#87D5F7"/>
<stop offset="0.438098" stop-color="#11A8E8"/>
<stop offset="0.804469" stop-color="#6ECEF7"/>
</linearGradient>
<linearGradient id="paint12_linear_1084_138828" x1="39.2479" y1="0.427064" x2="43.6152" y2="85.4684" gradientUnits="userSpaceOnUse">
<stop offset="0.0649122" stop-color="#87D5F7"/>
<stop offset="0.438098" stop-color="#11A8E8"/>
<stop offset="0.804469" stop-color="#6ECEF7"/>
</linearGradient>
<linearGradient id="paint13_linear_1084_138828" x1="18.7743" y1="8.9997" x2="75.7416" y2="79.8577" gradientUnits="userSpaceOnUse">
<stop stop-color="#04B5FF"/>
<stop offset="1" stop-color="#92DCFC"/>
</linearGradient>
<linearGradient id="paint14_linear_1084_138828" x1="36.6507" y1="7.02141" x2="48.5284" y2="81.2802" gradientUnits="userSpaceOnUse">
<stop stop-color="#00A1E4"/>
<stop offset="1" stop-color="#A7E4FE"/>
</linearGradient>
</defs>
</svg>
