<svg xmlns="http://www.w3.org/2000/svg" width="343" height="149" viewBox="0 0 343 149" fill="none">
    <g filter="url(#filter0_b_1171_91118)">
        <mask id="path-1-outside-1_1171_91118" maskUnits="userSpaceOnUse" x="0" y="0" width="343" height="149" fill="black">
            <rect fill="white" width="343" height="149"/>
            <path fill-rule="evenodd" clip-rule="evenodd" d="M8.22993 17.068C2 26.0604 2 38.7069 2 64C2 89.2931 2 101.94 8.22993 110.932C10.6218 114.384 13.6156 117.378 17.068 119.77C26.0604 126 38.7069 126 64 126H152L171.5 145.5L191 126H279C304.293 126 316.94 126 325.932 119.77C329.384 117.378 332.378 114.384 334.77 110.932C341 101.94 341 89.2931 341 64C341 38.7069 341 26.0604 334.77 17.068C332.378 13.6156 329.384 10.6218 325.932 8.22993C316.94 2 304.293 2 279 2H64C38.7069 2 26.0604 2 17.068 8.22993C13.6156 10.6218 10.6218 13.6156 8.22993 17.068Z"/>
        </mask>
        <path fill-rule="evenodd" clip-rule="evenodd" d="M8.22993 17.068C2 26.0604 2 38.7069 2 64C2 89.2931 2 101.94 8.22993 110.932C10.6218 114.384 13.6156 117.378 17.068 119.77C26.0604 126 38.7069 126 64 126H152L171.5 145.5L191 126H279C304.293 126 316.94 126 325.932 119.77C329.384 117.378 332.378 114.384 334.77 110.932C341 101.94 341 89.2931 341 64C341 38.7069 341 26.0604 334.77 17.068C332.378 13.6156 329.384 10.6218 325.932 8.22993C316.94 2 304.293 2 279 2H64C38.7069 2 26.0604 2 17.068 8.22993C13.6156 10.6218 10.6218 13.6156 8.22993 17.068Z" fill="url(#paint0_linear_1171_91118)" fill-opacity="0.4"/>
        <path d="M8.22993 17.068L9.87393 18.207L8.22993 17.068ZM8.22993 110.932L6.58592 112.071H6.58592L8.22993 110.932ZM17.068 119.77L18.207 118.126H18.207L17.068 119.77ZM152 126L153.414 124.586L152.828 124H152V126ZM171.5 145.5L170.086 146.914L171.5 148.328L172.914 146.914L171.5 145.5ZM191 126V124H190.172L189.586 124.586L191 126ZM325.932 119.77L324.793 118.126L325.932 119.77ZM334.77 110.932L336.414 112.071L334.77 110.932ZM334.77 17.068L336.414 15.9291V15.9291L334.77 17.068ZM325.932 8.22993L324.793 9.87393V9.87393L325.932 8.22993ZM17.068 8.22993L18.207 9.87393L17.068 8.22993ZM4 64C4 51.3106 4.00256 41.9484 4.7679 34.6293C5.52957 27.3452 7.02902 22.3134 9.87393 18.207L6.58592 15.9291C3.20091 20.8151 1.5854 26.6027 0.789586 34.2133C-0.00255561 41.7887 0 51.3963 0 64H4ZM9.87393 109.793C7.02902 105.687 5.52957 100.655 4.7679 93.3707C4.00256 86.0516 4 76.6894 4 64H0C0 76.6037 -0.00255561 86.2113 0.789586 93.7867C1.5854 101.397 3.20091 107.185 6.58592 112.071L9.87393 109.793ZM18.207 118.126C14.9518 115.871 12.1291 113.048 9.87393 109.793L6.58592 112.071C9.11448 115.721 12.2793 118.886 15.9291 121.414L18.207 118.126ZM64 124C51.3106 124 41.9484 123.997 34.6293 123.232C27.3452 122.47 22.3134 120.971 18.207 118.126L15.9291 121.414C20.8151 124.799 26.6027 126.415 34.2133 127.21C41.7887 128.003 51.3963 128 64 128V124ZM152 124H64V128H152V124ZM172.914 144.086L153.414 124.586L150.586 127.414L170.086 146.914L172.914 144.086ZM189.586 124.586L170.086 144.086L172.914 146.914L192.414 127.414L189.586 124.586ZM279 124H191V128H279V124ZM324.793 118.126C320.687 120.971 315.655 122.47 308.371 123.232C301.052 123.997 291.689 124 279 124V128C291.604 128 301.211 128.003 308.787 127.21C316.397 126.415 322.185 124.799 327.071 121.414L324.793 118.126ZM333.126 109.793C330.871 113.048 328.048 115.871 324.793 118.126L327.071 121.414C330.721 118.886 333.886 115.721 336.414 112.071L333.126 109.793ZM339 64C339 76.6894 338.997 86.0516 338.232 93.3707C337.47 100.655 335.971 105.687 333.126 109.793L336.414 112.071C339.799 107.185 341.415 101.397 342.21 93.7867C343.003 86.2113 343 76.6037 343 64H339ZM333.126 18.207C335.971 22.3134 337.47 27.3452 338.232 34.6293C338.997 41.9484 339 51.3106 339 64H343C343 51.3963 343.003 41.7887 342.21 34.2133C341.415 26.6027 339.799 20.8151 336.414 15.9291L333.126 18.207ZM324.793 9.87393C328.048 12.1291 330.871 14.9518 333.126 18.207L336.414 15.9291C333.886 12.2793 330.721 9.11448 327.071 6.58592L324.793 9.87393ZM279 4C291.689 4 301.052 4.00256 308.371 4.7679C315.655 5.52957 320.687 7.02902 324.793 9.87393L327.071 6.58593C322.185 3.20091 316.397 1.5854 308.787 0.789586C301.211 -0.00255561 291.604 0 279 0V4ZM64 4H279V0H64V4ZM18.207 9.87393C22.3134 7.02902 27.3452 5.52957 34.6293 4.7679C41.9484 4.00256 51.3106 4 64 4V0C51.3963 0 41.7887 -0.00255561 34.2133 0.789586C26.6027 1.5854 20.8151 3.20091 15.9291 6.58592L18.207 9.87393ZM9.87393 18.207C12.1291 14.9518 14.9518 12.1291 18.207 9.87393L15.9291 6.58592C12.2793 9.11448 9.11448 12.2793 6.58592 15.9291L9.87393 18.207Z" fill="white" mask="url(#path-1-outside-1_1171_91118)"/>
    </g>
    <defs>
        <filter id="filter0_b_1171_91118" x="-15" y="-15" width="373" height="178.328" filterUnits="userSpaceOnUse" color-interpolation-filters="sRGB">
            <feFlood flood-opacity="0" result="BackgroundImageFix"/>
            <feGaussianBlur in="BackgroundImageFix" stdDeviation="7.5"/>
            <feComposite in2="SourceAlpha" operator="in" result="effect1_backgroundBlur_1171_91118"/>
            <feBlend mode="normal" in="SourceGraphic" in2="effect1_backgroundBlur_1171_91118" result="shape"/>
        </filter>
        <linearGradient id="paint0_linear_1171_91118" x1="66.2045" y1="-11" x2="79.6205" y2="134.473" gradientUnits="userSpaceOnUse">
            <stop stop-color="#F0F4FA"/>
            <stop offset="1" stop-color="#F3F5F8"/>
        </linearGradient>
    </defs>
</svg>