<svg width="375" height="208" viewBox="0 0 375 208" fill="none" xmlns="http://www.w3.org/2000/svg">
<path d="M143.588 768.874C15.1985 530.062 69.8265 383.395 232.086 249.766C394.345 116.137 370.336 -107.285 249.927 -260.676C129.518 -414.067 -59.8616 169.36 -222.121 302.989C-384.38 436.618 23.1794 615.483 143.588 768.874Z" fill="url(#paint0_radial_1099_1118)"/>
<path d="M84.3524 680.255C-25.7428 438.922 36.019 303.886 201.321 191.963C366.623 80.0391 356.776 -136.251 249.284 -295.008C141.792 -453.765 -76.8235 86.148 -242.126 198.072C-407.428 309.995 -23.1397 521.498 84.3524 680.255Z" fill="url(#paint1_radial_1099_1118)"/>
<defs>
<radialGradient id="paint0_radial_1099_1118" cx="0" cy="0" r="1" gradientUnits="userSpaceOnUse" gradientTransform="translate(351.678 -24.5872) rotate(110.109) scale(770.06 784.303)">
<stop stop-color="#F1EFFF"/>
<stop offset="1" stop-color="#EDF8FF"/>
</radialGradient>
<radialGradient id="paint1_radial_1099_1118" cx="0" cy="0" r="1" gradientUnits="userSpaceOnUse" gradientTransform="translate(204.172 167.22) rotate(-160.586) scale(381.7 388.345)">
<stop stop-color="#F8F8FF"/>
<stop offset="1" stop-color="#F3F4FC"/>
</radialGradient>
</defs>
</svg>
