<svg width="18" height="19" viewBox="0 0 18 19" fill="none" xmlns="http://www.w3.org/2000/svg">
<path d="M17.9606 14.4467C17.9097 14.2933 17.5858 14.0673 16.9891 13.7693C16.8275 13.6754 16.5972 13.5477 16.2991 13.3857C16.0008 13.2238 15.7301 13.0745 15.4873 12.9382C15.2441 12.8018 15.0162 12.6697 14.8033 12.5421C14.7693 12.5165 14.6628 12.442 14.4838 12.3182C14.3047 12.1947 14.1536 12.103 14.0298 12.0433C13.9062 11.9838 13.7847 11.9539 13.6654 11.9539C13.495 11.9539 13.2821 12.0754 13.0265 12.3182C12.7709 12.5612 12.5365 12.8252 12.3235 13.111C12.1105 13.3966 11.8846 13.6606 11.6462 13.9035C11.4075 14.1465 11.2113 14.2679 11.0581 14.2679C10.9812 14.2679 10.8853 14.2465 10.7703 14.2042C10.6554 14.1616 10.568 14.1251 10.508 14.0957C10.4486 14.0656 10.3465 14.0062 10.2015 13.9164C10.0563 13.8269 9.9755 13.7778 9.95848 13.7693C8.79094 13.1214 7.78961 12.3799 6.9543 11.545C6.11927 10.7095 5.37768 9.7083 4.72999 8.54062C4.72149 8.52356 4.67237 8.44256 4.58295 8.29776C4.4934 8.15281 4.43371 8.05068 4.40389 7.99086C4.37407 7.93126 4.33784 7.84386 4.29531 7.72883C4.25277 7.6138 4.23141 7.51798 4.23141 7.44118C4.23141 7.28787 4.35289 7.09175 4.5958 6.85309C4.83867 6.61457 5.10294 6.38863 5.38834 6.17572C5.67397 5.9628 5.93797 5.72835 6.18093 5.47277C6.42379 5.21705 6.54523 5.0041 6.54523 4.83368C6.54523 4.71444 6.51541 4.59287 6.45581 4.46933C6.39617 4.34553 6.30455 4.19445 6.18093 4.01539C6.05725 3.83642 5.9827 3.72999 5.95709 3.69573C5.82939 3.48282 5.69743 3.25486 5.56091 3.01195C5.42439 2.76909 5.27537 2.49837 5.11337 2.20011C4.9515 1.90199 4.82376 1.6718 4.7299 1.50989C4.43178 0.91342 4.20598 0.589418 4.05253 0.538463C3.99284 0.512896 3.90329 0.5 3.78409 0.5C3.55385 0.5 3.25349 0.542538 2.88279 0.627881C2.51195 0.713091 2.22015 0.802464 2.00705 0.89636C1.58092 1.07524 1.12926 1.5951 0.651944 2.45574C0.2173 3.2567 0 4.04947 0 4.83345C0 5.06338 0.0149105 5.28708 0.0447316 5.50461C0.0745526 5.72191 0.127836 5.96697 0.204628 6.23975C0.281285 6.51243 0.343121 6.715 0.389868 6.84691C0.436659 6.97891 0.524018 7.21538 0.651899 7.55639C0.779601 7.89732 0.856392 8.10602 0.88196 8.18273C1.18021 9.01798 1.5339 9.76364 1.94294 10.4199C2.61592 11.5108 3.53433 12.6381 4.69762 13.8015C5.86095 14.9648 6.98807 15.8831 8.079 16.5564C8.73519 16.9654 9.48112 17.319 10.3162 17.6175C10.393 17.6429 10.6017 17.7195 10.9425 17.8477C11.2834 17.9755 11.52 18.0629 11.652 18.1097C11.784 18.1567 11.9866 18.2185 12.2591 18.2953C12.5321 18.3721 12.777 18.4254 12.9943 18.4554C13.2117 18.4849 13.4355 18.5 13.6654 18.5C14.4494 18.5 15.2422 18.2826 16.0433 17.848C16.9038 17.3709 17.4235 16.9191 17.6025 16.4927C17.6966 16.2798 17.7858 15.9879 17.871 15.6171C17.9565 15.2464 17.9989 14.9461 17.9989 14.7159C17.9992 14.5962 17.9863 14.5069 17.9606 14.4467Z" fill="#323232"/>
</svg>
