<svg width="21" height="22" viewBox="0 0 21 22" fill="none" xmlns="http://www.w3.org/2000/svg">
<path d="M18.375 19.2109L13.125 13.9609M2.625 9.58594C2.625 10.3903 2.78343 11.1868 3.09124 11.9299C3.39905 12.673 3.85021 13.3482 4.41897 13.917C4.98773 14.4857 5.66294 14.9369 6.40606 15.2447C7.14918 15.5525 7.94565 15.7109 8.75 15.7109C9.55435 15.7109 10.3508 15.5525 11.0939 15.2447C11.8371 14.9369 12.5123 14.4857 13.081 13.917C13.6498 13.3482 14.101 12.673 14.4088 11.9299C14.7166 11.1868 14.875 10.3903 14.875 9.58594C14.875 8.78159 14.7166 7.98512 14.4088 7.242C14.101 6.49888 13.6498 5.82367 13.081 5.25491C12.5123 4.68615 11.8371 4.23499 11.0939 3.92718C10.3508 3.61937 9.55435 3.46094 8.75 3.46094C7.94565 3.46094 7.14918 3.61937 6.40606 3.92718C5.66294 4.23499 4.98773 4.68615 4.41897 5.25491C3.85021 5.82367 3.39905 6.49888 3.09124 7.242C2.78343 7.98512 2.625 8.78159 2.625 9.58594Z" stroke="white" stroke-width="2" stroke-linecap="round" stroke-linejoin="round"/>
</svg>
