<svg width="78" height="89" viewBox="0 0 78 89" fill="none" xmlns="http://www.w3.org/2000/svg">
<path d="M2.53505 45.5182L3.14706 51.0438L4.28432 56.3669L2.53505 45.5182ZM3.00818 34.2507L2.48357 39.8431L2.53505 45.5182L3.00818 34.2507ZM2.53505 45.5182L4.28432 56.3669L7.995 66.1918L2.53505 45.5182ZM4.28432 56.3669L5.91187 61.4341L7.995 66.1918L4.28432 56.3669ZM5.64423 24.0316L3.00818 34.2507L2.53505 45.5182L5.64423 24.0316ZM5.64423 24.0316L4.07468 28.9659L3.00818 34.2507L5.64423 24.0316ZM7.995 66.1918L10.4992 70.5856L13.3901 74.5613L7.995 66.1918ZM2.53505 45.5182L7.995 66.1918L20.1947 81.0378L2.53505 45.5182ZM16.1806 8.66934L5.64423 24.0316L2.53505 45.5182L16.1806 8.66934ZM10.1379 15.3873L7.67814 19.4908L5.64423 24.0316L10.1379 15.3873ZM7.995 66.1918L13.3901 74.5613L20.1947 81.0378L7.995 66.1918ZM16.1806 8.66934L2.53505 45.5182L20.1947 81.0378L16.1806 8.66934ZM13.3901 74.5613L16.6334 78.0638L20.1947 81.0378L13.3901 74.5613ZM16.1806 8.66934L10.1379 15.3873L5.64423 24.0316L16.1806 8.66934ZM16.1806 8.66934L12.9849 11.7653L10.1379 15.3873L16.1806 8.66934ZM20.1947 81.0378L24.0399 83.4275L28.1344 85.1765L20.1947 81.0378ZM23.4634 4.23609L19.6863 6.14445L16.1806 8.66934L23.4634 4.23609ZM20.1947 81.0378L28.1344 85.1765L36.7936 86.5199L20.1947 81.0378Z" fill="#00A2E5"/>
<path d="M48.4241 85.2088L50.2738 84.9979L54.303 83.8217L48.4241 85.2088ZM39.1127 1.78316L43.466 1.99961L40.967 1.61649L39.1127 1.78316ZM43.466 1.99961L45.3197 1.83269L40.967 1.61649L43.466 1.99961Z" fill="#00A2E5"/>
<path d="M31.6747 2.45287L23.4631 4.23635L16.1803 8.66961L31.6747 2.45287ZM28.1341 85.1768L32.4435 86.2283L36.7933 86.5201L28.1341 85.1768Z" fill="#00A2E5"/>
<path d="M52.4539 84.0337L48.4242 85.2103L54.3031 83.8232L52.4539 84.0337ZM46.5725 85.4214L48.4242 85.2103L52.4539 84.0337L46.5725 85.4214ZM37.2565 1.95154L41.6105 2.16827L39.1128 1.78471L37.2565 1.95154ZM41.6105 2.16827L43.4661 2.00116L39.1128 1.78471L41.6105 2.16827ZM52.4539 84.0337L54.3031 83.8232L58.112 81.9768L52.4539 84.0337ZM43.4661 2.00116L47.7941 2.98174L45.3197 1.83424L43.4661 2.00116ZM50.6028 84.2443L46.5725 85.4214L52.4539 84.0337L50.6028 84.2443ZM47.7941 2.98174L49.6471 2.81414L45.3197 1.83424L47.7941 2.98174ZM44.7189 85.6328L46.5725 85.4214L50.6028 84.2443L44.7189 85.6328ZM35.3983 2.11856L39.7529 2.33555L37.2565 1.95154L35.3983 2.11856Z" fill="#00A2E5"/>
<path d="M31.6751 2.45186L27.4728 2.98933L23.4634 4.23534L31.6751 2.45186Z" fill="#00A2E5"/>
<path d="M39.7523 2.33469L41.6099 2.16741L37.2559 1.95068L39.7523 2.33469ZM56.2628 82.1856L52.4533 84.0328L58.1114 81.9759L56.2628 82.1856Z" fill="#00A2E5"/>
<path d="M20.1954 81.0364L36.7942 86.5185L52.3985 80.5454L20.1954 81.0364Z" fill="#00A2E5"/>
<path d="M50.6017 84.2427L52.4528 84.0321L56.2622 82.1848L50.6017 84.2427ZM41.6093 2.16666L45.9381 3.1479L43.4649 1.99956L41.6093 2.16666ZM48.7486 84.4536L44.7178 85.6312L50.6017 84.2427L48.7486 84.4536ZM45.9381 3.1479L47.793 2.98013L43.4649 1.99956L45.9381 3.1479ZM42.8622 85.8427L44.7178 85.6312L48.7486 84.4536L42.8622 85.8427ZM33.5369 2.28415L37.8922 2.5014L35.3971 2.11696L33.5369 2.28415ZM56.2622 82.1848L58.1109 81.9752L61.6582 79.501L56.2622 82.1848Z" fill="#00A2E5"/>
<path d="M16.1811 8.66943L20.1953 81.0379L66.3568 43.4701L16.1811 8.66943Z" fill="#00A2E5"/>
<path d="M37.893 2.5014L39.7526 2.33394L35.3979 2.11695L37.893 2.5014ZM47.7938 2.98013L51.9195 4.66889L49.6467 2.81253L47.7938 2.98013ZM54.4125 82.3947L50.6025 84.2427L56.2631 82.1848L54.4125 82.3947ZM51.9195 4.66889L53.7718 4.50026L49.6467 2.81253L51.9195 4.66889ZM48.7494 84.4536L50.6025 84.2427L54.4125 82.3947L48.7494 84.4536ZM39.7526 2.33394L44.082 3.31584L41.6102 2.16666L39.7526 2.33394Z" fill="#00A2E5"/>
<path d="M48.3787 7.69521L31.6747 2.45287L16.1803 8.6696L48.3787 7.69521Z" fill="#00A2E5"/>
<path d="M46.8942 84.6649L42.8628 85.8429L48.7492 84.4538L46.8942 84.6649ZM44.0818 3.31602L45.9386 3.14807L41.6099 2.16683L44.0818 3.31602ZM59.8106 79.7097L56.2628 82.185L61.6588 79.5012L59.8106 79.7097ZM41.0052 86.0547L42.8628 85.8429L46.8942 84.6649L41.0052 86.0547ZM31.6753 2.4517L36.0313 2.66921L33.5375 2.28432L31.6753 2.4517ZM54.4122 82.3949L56.2628 82.185L59.8106 79.7097L54.4122 82.3949Z" fill="#00A2E5"/>
<path d="M36.7938 86.52L41.0051 86.0558L45.0371 84.8773L36.7938 86.52Z" fill="#00A2E5"/>
<path d="M36.0306 2.66983L37.8922 2.5022L33.5369 2.28495L36.0306 2.66983ZM45.938 3.1487L50.0644 4.8385L47.7929 2.98093L45.938 3.1487ZM52.559 82.6056L48.7485 84.4544L54.4116 82.3955L52.559 82.6056ZM50.0644 4.8385L51.9186 4.66969L47.7929 2.98093L50.0644 4.8385ZM59.8099 79.7103L61.6581 79.5018L64.9022 76.4427L59.8099 79.7103ZM46.8935 84.6655L48.7485 84.4544L52.559 82.6056L46.8935 84.6655ZM37.8922 2.5022L42.2222 3.48477L39.7517 2.33474L37.8922 2.5022ZM51.9186 4.66969L55.8047 7.01286L53.7709 4.50107L51.9186 4.66969ZM45.0365 84.8769L41.0045 86.0553L46.8935 84.6655L45.0365 84.8769ZM42.2222 3.48477L44.0811 3.31665L39.7517 2.33474L42.2222 3.48477ZM55.8047 7.01286L57.6563 6.84287L53.7709 4.50107L55.8047 7.01286ZM57.9598 79.919L54.4116 82.3955L59.8099 79.7103L57.9598 79.919ZM52.559 82.6056L54.4116 82.3955L57.9598 79.919L52.559 82.6056ZM44.0811 3.31665L48.2082 5.00748L45.938 3.1487L44.0811 3.31665ZM63.0544 76.6497L59.8099 79.7103L64.9022 76.4427L63.0544 76.6497ZM50.7045 82.8159L46.8935 84.6655L52.559 82.6056L50.7045 82.8159Z" fill="#00A2E5"/>
<path d="M40.3624 3.65339L36.0316 2.67015L31.6757 2.45264L40.3624 3.65339Z" fill="#00A2E5"/>
<path d="M48.2084 5.00673L50.0646 4.83775L45.9382 3.14795L48.2084 5.00673ZM57.96 79.9183L59.8101 79.7096L63.0546 76.6489L57.96 79.9183ZM45.0367 84.8761L46.8937 84.6648L50.7047 82.8151L45.0367 84.8761Z" fill="#00A2E5"/>
<path d="M36.7941 86.5201L45.0373 84.8773L52.3983 80.5469L36.7941 86.5201Z" fill="#00A2E5"/>
<path d="M36.0314 2.6692L40.3622 3.65245L37.8929 2.50157L36.0314 2.6692ZM50.0652 4.83786L53.9519 7.18241L51.9194 4.66906L50.0652 4.83786ZM63.0552 76.6491L64.903 76.4421L67.8021 72.8411L63.0552 76.6491ZM40.3622 3.65245L42.223 3.48414L37.8929 2.50157L40.3622 3.65245ZM53.9519 7.18241L55.8055 7.01223L51.9194 4.66906L53.9519 7.18241ZM56.1084 80.1273L52.5598 82.6049L57.9606 79.9184L56.1084 80.1273ZM50.7053 82.8152L52.5598 82.6049L56.1084 80.1273L50.7053 82.8152ZM55.8055 7.01223L59.4144 9.95557L57.6571 6.84224L55.8055 7.01223ZM59.4144 9.95557L61.2654 9.78389L57.6571 6.84224L59.4144 9.95557ZM42.223 3.48414L46.3508 5.17601L44.0819 3.31601L42.223 3.48414ZM61.2054 76.8563L57.9606 79.9184L63.0552 76.6491L61.2054 76.8563ZM48.8488 83.0258L45.0373 84.8762L50.7053 82.8152L48.8488 83.0258ZM46.3508 5.17601L48.209 5.00685L44.0819 3.31601L46.3508 5.17601ZM56.1084 80.1273L57.9606 79.9184L61.2054 76.8563L56.1084 80.1273ZM65.9546 73.0464L63.0552 76.6491L67.8021 72.8411L65.9546 73.0464ZM48.209 5.00685L52.0964 7.35277L50.0652 4.83786L48.209 5.00685ZM61.2054 76.8563L63.0552 76.6491L65.9546 73.0464L61.2054 76.8563Z" fill="#00A2E5"/>
<path d="M20.1955 81.0385L52.3986 80.5474L66.3571 43.4707L20.1955 81.0385Z" fill="#00A2E5"/>
<path d="M52.0962 7.3523L53.9518 7.18195L50.065 4.8374L52.0962 7.3523ZM54.2542 80.336L50.7051 82.8148L56.1083 80.1268L54.2542 80.336Z" fill="#00A2E5"/>
<path d="M48.3796 7.69498L40.3624 3.65339L31.6757 2.45264L48.3796 7.69498Z" fill="#00A2E5"/>
<path d="M65.9538 73.0469L67.8013 72.8416L70.3136 68.7426L65.9538 73.0469ZM48.848 83.0263L50.7045 82.8157L54.2536 80.337L48.848 83.0263ZM53.9512 7.18291L57.5608 10.1279L55.8047 7.01273L53.9512 7.18291ZM57.5608 10.1279L59.4137 9.95607L55.8047 7.01273L57.5608 10.1279Z" fill="#00A2E5"/>
<path d="M45.0374 84.8765L48.8489 83.026L52.3984 80.5461L45.0374 84.8765Z" fill="#00A2E5"/>
<path d="M40.3615 3.65324L44.49 5.34615L42.2224 3.48494L40.3615 3.65324ZM59.353 77.0645L56.1078 80.1281L61.2048 76.8571L59.353 77.0645ZM59.4138 9.95636L62.7081 13.4451L61.2647 9.78468L59.4138 9.95636ZM62.7081 13.4451L64.5584 13.2715L61.2647 9.78468L62.7081 13.4451ZM44.49 5.34615L46.3501 5.1768L42.2224 3.48494L44.49 5.34615ZM54.2537 80.3372L56.1078 80.1281L59.353 77.0645L54.2537 80.3372ZM64.1045 73.2526L61.2048 76.8571L65.9539 73.0472L64.1045 73.2526Z" fill="#00A2E5"/>
<path d="M66.3561 43.4707L48.3788 7.69562L16.1804 8.67002L66.3561 43.4707Z" fill="#00A2E5"/>
<path d="M46.3509 5.17547L50.239 7.52276L48.2091 5.0063L46.3509 5.17547ZM68.4672 68.9447L65.9547 73.0458L70.3145 68.7415L68.4672 68.9447ZM59.3538 77.0632L61.2055 76.8557L64.1053 73.2513L59.3538 77.0632ZM50.239 7.52276L52.0965 7.35222L48.2091 5.0063L50.239 7.52276ZM52.3984 80.5453L48.8489 83.0252L54.2545 80.3359L52.3984 80.5453ZM64.1053 73.2513L65.9547 73.0458L68.4672 68.9447L64.1053 73.2513ZM52.0965 7.35222L55.7068 10.2989L53.9521 7.18186L52.0965 7.35222ZM68.4672 68.9447L70.3145 68.7415L72.398 64.1884L68.4672 68.9447ZM55.7068 10.2989L57.5617 10.1269L53.9521 7.18186L55.7068 10.2989ZM57.5001 77.2709L54.2545 80.3359L59.3538 77.0632L57.5001 77.2709ZM57.5617 10.1269L60.8566 13.6176L59.4146 9.95502L57.5617 10.1269ZM60.8566 13.6176L62.7089 13.4438L59.4146 9.95502L60.8566 13.6176ZM65.651 17.4228L67.5006 17.2469L64.5592 13.2702L65.651 17.4228ZM62.7089 13.4438L65.651 17.4228L64.5592 13.2702L62.7089 13.4438ZM52.3984 80.5453L54.2545 80.3359L57.5001 77.2709L52.3984 80.5453Z" fill="#00A2E5"/>
<path d="M48.3792 7.69441L44.4904 5.34574L40.3619 3.65283L48.3792 7.69441Z" fill="#00A2E5"/>
<path d="M62.2529 73.4578L59.3529 77.064L64.1043 73.2521L62.2529 73.4578ZM44.4898 5.34565L48.3786 7.69433L46.35 5.17631L44.4898 5.34565ZM66.617 69.1489L64.1043 73.2521L68.4663 68.9455L66.617 69.1489ZM70.5499 64.3901L68.4663 68.9455L72.3971 64.1893L70.5499 64.3901ZM57.4991 77.2717L59.3529 77.064L62.2529 73.4578L57.4991 77.2717ZM48.3786 7.69433L50.2381 7.52361L46.35 5.17631L48.3786 7.69433ZM70.5499 64.3901L72.3971 64.1893L74.0099 59.2267L70.5499 64.3901ZM62.2529 73.4578L64.1043 73.2521L66.617 69.1489L62.2529 73.4578ZM50.2381 7.52361L53.849 10.472L52.0956 7.35307L50.2381 7.52361ZM66.617 69.1489L68.4663 68.9455L70.5499 64.3901L66.617 69.1489ZM53.849 10.472L55.7059 10.2998L52.0956 7.35307L53.849 10.472ZM68.2023 21.8372L70.0514 21.6589L67.4997 17.2478L68.2023 21.8372ZM55.6434 77.4796L52.3975 80.5461L57.4991 77.2717L55.6434 77.4796ZM55.7059 10.2998L59.0015 13.7925L57.5607 10.1277L55.7059 10.2998ZM65.65 17.4236L68.2023 21.8372L67.4997 17.2478L65.65 17.4236ZM59.0015 13.7925L60.8557 13.6185L57.5607 10.1277L59.0015 13.7925ZM63.7984 17.5997L65.65 17.4236L62.7079 13.4446L63.7984 17.5997ZM60.8557 13.6185L63.7984 17.5997L62.7079 13.4446L60.8557 13.6185ZM60.3995 73.6637L57.4991 77.2717L62.2529 73.4578L60.3995 73.6637ZM72.1629 59.425L70.5499 64.3901L74.0099 59.2267L72.1629 59.425ZM64.7658 69.3525L62.2529 73.4578L66.617 69.1489L64.7658 69.3525ZM68.7008 64.5912L66.617 69.1489L70.5499 64.3901L68.7008 64.5912ZM72.1629 59.425L74.0099 59.2267L75.1104 53.8998L72.1629 59.425ZM55.6434 77.4796L57.4991 77.2717L60.3995 73.6637L55.6434 77.4796ZM70.3272 26.6293L72.1758 26.4484L70.0514 21.6589L70.3272 26.6293Z" fill="#00A2E5"/>
<path d="M52.3978 80.5464L55.6437 77.4799L58.5444 73.8701L52.3978 80.5464Z" fill="#00A2E5"/>
<path d="M68.7018 64.5915L70.5509 64.3905L72.1639 59.4254L68.7018 64.5915ZM60.4005 73.664L62.2539 73.4581L64.7668 69.3529L60.4005 73.664ZM68.2033 21.8375L70.3282 26.6296L70.0524 21.6593L68.2033 21.8375ZM48.3796 7.69465L51.9912 10.6447L50.2391 7.52393L48.3796 7.69465ZM64.7668 69.3529L66.618 69.1493L68.7018 64.5915L64.7668 69.3529ZM51.9912 10.6447L53.85 10.4723L50.2391 7.52393L51.9912 10.6447ZM66.3522 22.016L68.2033 21.8375L65.651 17.424L66.3522 22.016ZM53.85 10.4723L57.1463 13.967L55.7069 10.3001L53.85 10.4723ZM63.7994 17.6L66.3522 22.016L65.651 17.424L63.7994 17.6ZM73.2643 54.0956L72.1639 59.4254L75.1114 53.9001L73.2643 54.0956ZM73.2643 54.0956L75.1114 53.9001L75.6579 48.2542L73.2643 54.0956ZM57.1463 13.967L59.0025 13.7928L55.7069 10.3001L57.1463 13.967ZM61.9457 17.7762L63.7994 17.6L60.8567 13.6188L61.9457 17.7762ZM59.0025 13.7928L61.9457 17.7762L60.8567 13.6188L59.0025 13.7928ZM71.9884 31.7436L73.8366 31.56L72.1768 26.4487L71.9884 31.7436ZM58.5451 73.8701L55.6444 77.4799L60.4005 73.664L58.5451 73.8701ZM70.3282 26.6296L71.9884 31.7436L72.1768 26.4487L70.3282 26.6296ZM70.3148 59.6239L68.7018 64.5915L72.1639 59.4254L70.3148 59.6239ZM73.8107 48.4468L75.6579 48.2542L75.6139 42.5201L73.8107 48.4468ZM73.1468 37.1227L74.9946 36.9362L73.8366 31.56L73.1468 37.1227ZM62.9136 69.5567L60.4005 73.664L64.7668 69.3529L62.9136 69.5567ZM66.8508 64.7928L64.7668 69.3529L68.7018 64.5915L66.8508 64.7928ZM70.3148 59.6239L72.1639 59.4254L73.2643 54.0956L70.3148 59.6239ZM73.8107 48.4468L73.2643 54.0956L75.6579 48.2542L73.8107 48.4468ZM73.7664 42.7096L75.6139 42.5201L74.9946 36.9362L73.7664 42.7096ZM68.4776 26.8107L70.3282 26.6296L68.2033 21.8375L68.4776 26.8107ZM71.9884 31.7436L73.1468 37.1227L73.8366 31.56L71.9884 31.7436ZM66.8508 64.7928L68.7018 64.5915L70.3148 59.6239L66.8508 64.7928ZM58.5451 73.8701L60.4005 73.664L62.9136 69.5567L58.5451 73.8701ZM66.3522 22.016L68.4776 26.8107L68.2033 21.8375L66.3522 22.016ZM73.7664 42.7096L73.8107 48.4468L75.6139 42.5201L73.7664 42.7096ZM62.9136 69.5567L64.7668 69.3529L66.8508 64.7928L62.9136 69.5567Z" fill="#00A2E5"/>
<path d="M52.3979 80.5458L58.5445 73.8694L63.1421 65.1954L52.3979 80.5458Z" fill="#00A2E5"/>
<path d="M73.146 37.123L73.7656 42.7099L74.9937 36.9365L73.146 37.123Z" fill="#00A2E5"/>
<path d="M55.2879 14.1405L51.991 10.6439L48.3794 7.69385L55.2879 14.1405Z" fill="#00A2E5"/>
<path d="M64.4988 22.1955L66.3518 22.0168L63.799 17.6008L64.4988 22.1955ZM51.9909 10.6455L55.2877 14.1422L53.8497 10.4731L51.9909 10.6455ZM61.9454 17.777L64.4988 22.1955L63.799 17.6008L61.9454 17.777ZM71.4149 54.2921L70.3145 59.6247L73.264 54.0964L71.4149 54.2921ZM71.4149 54.2921L73.264 54.0964L73.8103 48.4476L71.4149 54.2921ZM55.2877 14.1422L57.1459 13.9678L53.8497 10.4731L55.2877 14.1422ZM60.0898 17.9534L61.9454 17.777L59.0021 13.7936L60.0898 17.9534ZM57.1459 13.9678L60.0898 17.9534L59.0021 13.7936L57.1459 13.9678ZM70.138 31.9283L71.9881 31.7444L70.3278 26.6304L70.138 31.9283ZM68.4773 26.8115L70.138 31.9283L70.3278 26.6304L68.4773 26.8115ZM68.4635 59.8234L66.8504 64.7936L70.3145 59.6247L68.4635 59.8234ZM71.9611 48.6404L73.8103 48.4476L73.7661 42.7104L71.9611 48.6404ZM71.2967 37.3103L73.1465 37.1235L71.9881 31.7444L71.2967 37.3103ZM61.0581 69.7615L58.5447 73.8709L62.9133 69.5575L61.0581 69.7615ZM64.9974 64.9951L62.9133 69.5575L66.8504 64.7936L64.9974 64.9951ZM68.4635 59.8234L70.3145 59.6247L71.4149 54.2921L68.4635 59.8234ZM71.9611 48.6404L71.4149 54.2921L73.8103 48.4476L71.9611 48.6404ZM71.9167 42.9001L73.7661 42.7104L73.1465 37.1235L71.9167 42.9001ZM66.6247 26.9928L68.4773 26.8115L66.3518 22.0168L66.6247 26.9928ZM70.138 31.9283L71.2967 37.3103L71.9881 31.7444L70.138 31.9283ZM64.9974 64.9951L66.8504 64.7936L68.4635 59.8234L64.9974 64.9951ZM64.4988 22.1955L66.6247 26.9928L66.3518 22.0168L64.4988 22.1955ZM71.9167 42.9001L71.9611 48.6404L73.7661 42.7104L71.9167 42.9001ZM61.0581 69.7615L62.9133 69.5575L64.9974 64.9951L61.0581 69.7615ZM71.2967 37.3103L71.9167 42.9001L73.1465 37.1235L71.2967 37.3103Z" fill="#00A2E5"/>
<path d="M60.7868 22.5517L55.2879 14.1405L48.3794 7.69385L60.7868 22.5517Z" fill="#00A2E5"/>
<path d="M62.644 22.3728L64.499 22.1939L61.9456 17.7755L62.644 22.3728ZM60.09 17.9519L62.644 22.3728L61.9456 17.7755L60.09 17.9519ZM69.5641 54.4866L68.4637 59.8218L71.4151 54.2906L69.5641 54.4866ZM69.5641 54.4866L71.4151 54.2906L71.9614 48.6388L69.5641 54.4866ZM58.2324 18.1285L60.09 17.9519L57.1461 13.9663L58.2324 18.1285ZM55.288 14.1406L58.2324 18.1285L57.1461 13.9663L55.288 14.1406Z" fill="#00A2E5"/>
<path d="M58.545 73.87L61.0584 69.7606L63.1426 65.1959L58.545 73.87Z" fill="#00A2E5"/>
<path d="M68.286 32.1109L70.1381 31.9269L68.4774 26.8101L68.286 32.1109Z" fill="#00A2E5"/>
<path d="M52.3976 80.5465L63.1418 65.1961L66.356 43.4698L52.3976 80.5465Z" fill="#00A2E5"/>
<path d="M66.625 26.9929L68.2862 32.1125L68.4776 26.8116L66.625 26.9929ZM66.6108 60.0225L64.9977 64.9953L68.4638 59.8235L66.6108 60.0225ZM70.1103 48.8335L71.9615 48.6405L71.917 42.9003L70.1103 48.8335ZM69.4454 37.4974L71.2971 37.3104L70.1383 31.9284L69.4454 37.4974ZM63.1427 65.197L61.0584 69.7617L64.9977 64.9953L63.1427 65.197ZM66.6108 60.0225L68.4638 59.8235L69.5642 54.4882L66.6108 60.0225ZM70.1103 48.8335L69.5642 54.4882L71.9615 48.6405L70.1103 48.8335ZM70.0656 43.0902L71.917 42.9003L71.2971 37.3104L70.0656 43.0902ZM64.7705 27.1744L66.625 26.9929L64.4991 22.1956L64.7705 27.1744ZM68.2862 32.1125L69.4454 37.4974L70.1383 31.9284L68.2862 32.1125ZM63.1427 65.197L64.9977 64.9953L66.6108 60.0225L63.1427 65.197ZM62.644 22.3744L64.7705 27.1744L64.4991 22.1956L62.644 22.3744ZM70.0656 43.0902L70.1103 48.8335L71.917 42.9003L70.0656 43.0902ZM69.4454 37.4974L70.0656 43.0902L71.2971 37.3104L69.4454 37.4974Z" fill="#00A2E5"/>
<path d="M66.3567 43.4689L60.7868 22.5517L48.3794 7.69385L66.3567 43.4689Z" fill="#00A2E5"/>
<path d="M60.7864 22.5515L62.6434 22.3725L60.0895 17.9516L60.7864 22.5515ZM58.2319 18.1282L60.7864 22.5515L60.0895 17.9516L58.2319 18.1282Z" fill="#00A2E5"/>
<path d="M60.7866 22.5542L58.2321 18.1309L55.2876 14.1431L60.7866 22.5542Z" fill="#00A2E5"/>
<path d="M67.7106 54.6824L66.6102 60.0205L69.5636 54.4862L67.7106 54.6824ZM67.7106 54.6824L69.5636 54.4862L70.1097 48.8315L67.7106 54.6824ZM66.4315 32.2947L68.2856 32.1105L66.6244 26.9909L66.4315 32.2947ZM64.7699 27.1724L66.4315 32.2947L66.6244 26.9909L64.7699 27.1724ZM64.7553 60.2196L63.1421 65.195L66.6102 60.0205L64.7553 60.2196ZM68.2565 49.0246L70.1097 48.8315L70.065 43.0882L68.2565 49.0246ZM67.5911 37.6825L69.4448 37.4954L68.2856 32.1105L67.5911 37.6825ZM64.7553 60.2196L66.6102 60.0205L67.7106 54.6824L64.7553 60.2196ZM68.2565 49.0246L67.7106 54.6824L70.1097 48.8315L68.2565 49.0246ZM68.2116 43.2783L70.065 43.0882L69.4448 37.4954L68.2116 43.2783ZM62.9134 27.354L64.7699 27.1724L62.6434 22.3724L62.9134 27.354ZM66.4315 32.2947L67.5911 37.6825L68.2856 32.1105L66.4315 32.2947ZM60.7864 22.5515L62.9134 27.354L62.6434 22.3724L60.7864 22.5515ZM68.2116 43.2783L68.2565 49.0246L70.065 43.0882L68.2116 43.2783ZM67.5911 37.6825L68.2116 43.2783L69.4448 37.4954L67.5911 37.6825Z" fill="#00A2E5"/>
<path d="M63.1426 65.1952L64.7558 60.2198L65.8561 54.8789L63.1426 65.1952Z" fill="#00A2E5"/>
<path d="M65.8557 54.8787L64.7554 60.2196L67.7107 54.6824L65.8557 54.8787ZM65.8557 54.8787L67.7107 54.6824L68.2566 49.0246L65.8557 54.8787ZM64.5756 32.4791L66.4316 32.2947L64.77 27.1724L64.5756 32.4791Z" fill="#00A2E5"/>
<path d="M63.1425 65.1955L65.856 54.8793L66.3567 43.4693L63.1425 65.1955Z" fill="#00A2E5"/>
<path d="M62.9142 27.3549L64.5762 32.48L64.7707 27.1732L62.9142 27.3549ZM66.4022 49.2189L68.2573 49.0255L68.2124 43.2792L66.4022 49.2189ZM65.7362 37.8707L67.5918 37.6833L66.4323 32.2955L65.7362 37.8707Z" fill="#00A2E5"/>
<path d="M64.5763 32.4789L62.9143 27.3538L60.7873 22.5513L64.5763 32.4789Z" fill="#00A2E5"/>
<path d="M66.4013 49.2178L65.8554 54.8785L68.2564 49.0244L66.4013 49.2178ZM66.3561 43.4685L68.2115 43.2781L67.5909 37.6823L66.3561 43.4685Z" fill="#00A2E5"/>
<path d="M66.3571 43.4685L64.5763 32.4789L60.7873 22.5513L66.3571 43.4685Z" fill="#00A2E5"/>
<path d="M64.5752 32.4797L65.7351 37.8704L66.4313 32.2952L64.5752 32.4797ZM66.356 43.4692L66.4011 49.2186L68.2113 43.2789L66.356 43.4692ZM65.7351 37.8704L66.356 43.4692L67.5908 37.683L65.7351 37.8704Z" fill="#00A2E5"/>
<path d="M65.8553 54.8796L66.4012 49.2189L66.356 43.4695L65.8553 54.8796ZM66.356 43.4695L65.7352 37.8707L64.5753 32.48L66.356 43.4695Z" fill="#00A2E5"/>
<mask id="mask0_1157_118187" style="mask-type:alpha" maskUnits="userSpaceOnUse" x="2" y="1" width="74" height="86">
<path d="M2.53505 45.5182L3.14706 51.0438L4.28432 56.3669L2.53505 45.5182ZM3.00818 34.2507L2.48357 39.8431L2.53505 45.5182L3.00818 34.2507ZM2.53505 45.5182L4.28432 56.3669L7.995 66.1918L2.53505 45.5182ZM4.28432 56.3669L5.91187 61.4341L7.995 66.1918L4.28432 56.3669ZM5.64423 24.0316L3.00818 34.2507L2.53505 45.5182L5.64423 24.0316ZM5.64423 24.0316L4.07468 28.9659L3.00818 34.2507L5.64423 24.0316ZM7.995 66.1918L10.4992 70.5856L13.3901 74.5613L7.995 66.1918ZM2.53505 45.5182L7.995 66.1918L20.1947 81.0378L2.53505 45.5182ZM16.1806 8.66934L5.64423 24.0316L2.53505 45.5182L16.1806 8.66934ZM10.1379 15.3873L7.67814 19.4908L5.64423 24.0316L10.1379 15.3873ZM7.995 66.1918L13.3901 74.5613L20.1947 81.0378L7.995 66.1918ZM16.1806 8.66934L2.53505 45.5182L20.1947 81.0378L16.1806 8.66934ZM13.3901 74.5613L16.6334 78.0638L20.1947 81.0378L13.3901 74.5613ZM16.1806 8.66934L10.1379 15.3873L5.64423 24.0316L16.1806 8.66934ZM16.1806 8.66934L12.9849 11.7653L10.1379 15.3873L16.1806 8.66934ZM20.1947 81.0378L24.0399 83.4275L28.1344 85.1765L20.1947 81.0378ZM23.4634 4.23609L19.6863 6.14445L16.1806 8.66934L23.4634 4.23609ZM20.1947 81.0378L28.1344 85.1765L36.7936 86.5199L20.1947 81.0378Z" fill="#00A2E5"/>
<path d="M48.4241 85.2088L50.2738 84.9979L54.303 83.8217L48.4241 85.2088ZM39.1127 1.78316L43.466 1.99961L40.967 1.61649L39.1127 1.78316ZM43.466 1.99961L45.3197 1.83269L40.967 1.61649L43.466 1.99961Z" fill="#00A2E5"/>
<path d="M31.6747 2.45287L23.4631 4.23635L16.1803 8.66961L31.6747 2.45287ZM28.1341 85.1768L32.4435 86.2283L36.7933 86.5201L28.1341 85.1768Z" fill="#00A2E5"/>
<path d="M52.4539 84.0337L48.4242 85.2103L54.3031 83.8232L52.4539 84.0337ZM46.5725 85.4214L48.4242 85.2103L52.4539 84.0337L46.5725 85.4214ZM37.2565 1.95154L41.6105 2.16827L39.1128 1.78471L37.2565 1.95154ZM41.6105 2.16827L43.4661 2.00116L39.1128 1.78471L41.6105 2.16827ZM52.4539 84.0337L54.3031 83.8232L58.112 81.9768L52.4539 84.0337ZM43.4661 2.00116L47.7941 2.98174L45.3197 1.83424L43.4661 2.00116ZM50.6028 84.2443L46.5725 85.4214L52.4539 84.0337L50.6028 84.2443ZM47.7941 2.98174L49.6471 2.81414L45.3197 1.83424L47.7941 2.98174ZM44.7189 85.6328L46.5725 85.4214L50.6028 84.2443L44.7189 85.6328ZM35.3983 2.11856L39.7529 2.33555L37.2565 1.95154L35.3983 2.11856Z" fill="#00A2E5"/>
<path d="M31.6751 2.45186L27.4728 2.98933L23.4634 4.23534L31.6751 2.45186Z" fill="#00A2E5"/>
<path d="M39.7523 2.33469L41.6099 2.16741L37.2559 1.95068L39.7523 2.33469ZM56.2628 82.1856L52.4533 84.0328L58.1114 81.9759L56.2628 82.1856Z" fill="#00A2E5"/>
<path d="M20.1954 81.0364L36.7942 86.5185L52.3985 80.5454L20.1954 81.0364Z" fill="#00A2E5"/>
<path d="M50.6017 84.2427L52.4528 84.0321L56.2622 82.1848L50.6017 84.2427ZM41.6093 2.16666L45.9381 3.1479L43.4649 1.99956L41.6093 2.16666ZM48.7486 84.4536L44.7178 85.6312L50.6017 84.2427L48.7486 84.4536ZM45.9381 3.1479L47.793 2.98013L43.4649 1.99956L45.9381 3.1479ZM42.8622 85.8427L44.7178 85.6312L48.7486 84.4536L42.8622 85.8427ZM33.5369 2.28415L37.8922 2.5014L35.3971 2.11696L33.5369 2.28415ZM56.2622 82.1848L58.1109 81.9752L61.6582 79.501L56.2622 82.1848Z" fill="#00A2E5"/>
<path d="M16.1811 8.66943L20.1953 81.0379L66.3568 43.4701L16.1811 8.66943Z" fill="#00A2E5"/>
<path d="M37.893 2.5014L39.7526 2.33394L35.3979 2.11695L37.893 2.5014ZM47.7938 2.98013L51.9195 4.66889L49.6467 2.81253L47.7938 2.98013ZM54.4125 82.3947L50.6025 84.2427L56.2631 82.1848L54.4125 82.3947ZM51.9195 4.66889L53.7718 4.50026L49.6467 2.81253L51.9195 4.66889ZM48.7494 84.4536L50.6025 84.2427L54.4125 82.3947L48.7494 84.4536ZM39.7526 2.33394L44.082 3.31584L41.6102 2.16666L39.7526 2.33394Z" fill="#00A2E5"/>
<path d="M48.3787 7.69521L31.6747 2.45287L16.1803 8.6696L48.3787 7.69521Z" fill="#00A2E5"/>
<path d="M46.8942 84.6649L42.8628 85.8429L48.7492 84.4538L46.8942 84.6649ZM44.0818 3.31602L45.9386 3.14807L41.6099 2.16683L44.0818 3.31602ZM59.8106 79.7097L56.2628 82.185L61.6588 79.5012L59.8106 79.7097ZM41.0052 86.0547L42.8628 85.8429L46.8942 84.6649L41.0052 86.0547ZM31.6753 2.4517L36.0313 2.66921L33.5375 2.28432L31.6753 2.4517ZM54.4122 82.3949L56.2628 82.185L59.8106 79.7097L54.4122 82.3949Z" fill="#00A2E5"/>
<path d="M36.7938 86.52L41.0051 86.0558L45.0371 84.8773L36.7938 86.52Z" fill="#00A2E5"/>
<path d="M36.0306 2.66983L37.8922 2.5022L33.5369 2.28495L36.0306 2.66983ZM45.938 3.1487L50.0644 4.8385L47.7929 2.98093L45.938 3.1487ZM52.559 82.6056L48.7485 84.4544L54.4116 82.3955L52.559 82.6056ZM50.0644 4.8385L51.9186 4.66969L47.7929 2.98093L50.0644 4.8385ZM59.8099 79.7103L61.6581 79.5018L64.9022 76.4427L59.8099 79.7103ZM46.8935 84.6655L48.7485 84.4544L52.559 82.6056L46.8935 84.6655ZM37.8922 2.5022L42.2222 3.48477L39.7517 2.33474L37.8922 2.5022ZM51.9186 4.66969L55.8047 7.01286L53.7709 4.50107L51.9186 4.66969ZM45.0365 84.8769L41.0045 86.0553L46.8935 84.6655L45.0365 84.8769ZM42.2222 3.48477L44.0811 3.31665L39.7517 2.33474L42.2222 3.48477ZM55.8047 7.01286L57.6563 6.84287L53.7709 4.50107L55.8047 7.01286ZM57.9598 79.919L54.4116 82.3955L59.8099 79.7103L57.9598 79.919ZM52.559 82.6056L54.4116 82.3955L57.9598 79.919L52.559 82.6056ZM44.0811 3.31665L48.2082 5.00748L45.938 3.1487L44.0811 3.31665ZM63.0544 76.6497L59.8099 79.7103L64.9022 76.4427L63.0544 76.6497ZM50.7045 82.8159L46.8935 84.6655L52.559 82.6056L50.7045 82.8159Z" fill="#00A2E5"/>
<path d="M40.3624 3.65339L36.0316 2.67015L31.6757 2.45264L40.3624 3.65339Z" fill="#00A2E5"/>
<path d="M48.2084 5.00673L50.0646 4.83775L45.9382 3.14795L48.2084 5.00673ZM57.96 79.9183L59.8101 79.7096L63.0546 76.6489L57.96 79.9183ZM45.0367 84.8761L46.8937 84.6648L50.7047 82.8151L45.0367 84.8761Z" fill="#00A2E5"/>
<path d="M36.7941 86.5201L45.0373 84.8773L52.3983 80.5469L36.7941 86.5201Z" fill="#00A2E5"/>
<path d="M36.0314 2.6692L40.3622 3.65245L37.8929 2.50157L36.0314 2.6692ZM50.0652 4.83786L53.9519 7.18241L51.9194 4.66906L50.0652 4.83786ZM63.0552 76.6491L64.903 76.4421L67.8021 72.8411L63.0552 76.6491ZM40.3622 3.65245L42.223 3.48414L37.8929 2.50157L40.3622 3.65245ZM53.9519 7.18241L55.8055 7.01223L51.9194 4.66906L53.9519 7.18241ZM56.1084 80.1273L52.5598 82.6049L57.9606 79.9184L56.1084 80.1273ZM50.7053 82.8152L52.5598 82.6049L56.1084 80.1273L50.7053 82.8152ZM55.8055 7.01223L59.4144 9.95557L57.6571 6.84224L55.8055 7.01223ZM59.4144 9.95557L61.2654 9.78389L57.6571 6.84224L59.4144 9.95557ZM42.223 3.48414L46.3508 5.17601L44.0819 3.31601L42.223 3.48414ZM61.2054 76.8563L57.9606 79.9184L63.0552 76.6491L61.2054 76.8563ZM48.8488 83.0258L45.0373 84.8762L50.7053 82.8152L48.8488 83.0258ZM46.3508 5.17601L48.209 5.00685L44.0819 3.31601L46.3508 5.17601ZM56.1084 80.1273L57.9606 79.9184L61.2054 76.8563L56.1084 80.1273ZM65.9546 73.0464L63.0552 76.6491L67.8021 72.8411L65.9546 73.0464ZM48.209 5.00685L52.0964 7.35277L50.0652 4.83786L48.209 5.00685ZM61.2054 76.8563L63.0552 76.6491L65.9546 73.0464L61.2054 76.8563Z" fill="#00A2E5"/>
<path d="M20.1955 81.0385L52.3986 80.5474L66.3571 43.4707L20.1955 81.0385Z" fill="#00A2E5"/>
<path d="M52.0962 7.3523L53.9518 7.18195L50.065 4.8374L52.0962 7.3523ZM54.2542 80.336L50.7051 82.8148L56.1083 80.1268L54.2542 80.336Z" fill="#00A2E5"/>
<path d="M48.3796 7.69498L40.3624 3.65339L31.6757 2.45264L48.3796 7.69498Z" fill="#00A2E5"/>
<path d="M65.9538 73.0469L67.8013 72.8416L70.3136 68.7426L65.9538 73.0469ZM48.848 83.0263L50.7045 82.8157L54.2536 80.337L48.848 83.0263ZM53.9512 7.18291L57.5608 10.1279L55.8047 7.01273L53.9512 7.18291ZM57.5608 10.1279L59.4137 9.95607L55.8047 7.01273L57.5608 10.1279Z" fill="#00A2E5"/>
<path d="M45.0374 84.8765L48.8489 83.026L52.3984 80.5461L45.0374 84.8765Z" fill="#00A2E5"/>
<path d="M40.3615 3.65324L44.49 5.34615L42.2224 3.48494L40.3615 3.65324ZM59.353 77.0645L56.1078 80.1281L61.2048 76.8571L59.353 77.0645ZM59.4138 9.95636L62.7081 13.4451L61.2647 9.78468L59.4138 9.95636ZM62.7081 13.4451L64.5584 13.2715L61.2647 9.78468L62.7081 13.4451ZM44.49 5.34615L46.3501 5.1768L42.2224 3.48494L44.49 5.34615ZM54.2537 80.3372L56.1078 80.1281L59.353 77.0645L54.2537 80.3372ZM64.1045 73.2526L61.2048 76.8571L65.9539 73.0472L64.1045 73.2526Z" fill="#00A2E5"/>
<path d="M66.3561 43.4707L48.3788 7.69562L16.1804 8.67002L66.3561 43.4707Z" fill="#00A2E5"/>
<path d="M46.3509 5.17547L50.239 7.52276L48.2091 5.0063L46.3509 5.17547ZM68.4672 68.9447L65.9547 73.0458L70.3145 68.7415L68.4672 68.9447ZM59.3538 77.0632L61.2055 76.8557L64.1053 73.2513L59.3538 77.0632ZM50.239 7.52276L52.0965 7.35222L48.2091 5.0063L50.239 7.52276ZM52.3984 80.5453L48.8489 83.0252L54.2545 80.3359L52.3984 80.5453ZM64.1053 73.2513L65.9547 73.0458L68.4672 68.9447L64.1053 73.2513ZM52.0965 7.35222L55.7068 10.2989L53.9521 7.18186L52.0965 7.35222ZM68.4672 68.9447L70.3145 68.7415L72.398 64.1884L68.4672 68.9447ZM55.7068 10.2989L57.5617 10.1269L53.9521 7.18186L55.7068 10.2989ZM57.5001 77.2709L54.2545 80.3359L59.3538 77.0632L57.5001 77.2709ZM57.5617 10.1269L60.8566 13.6176L59.4146 9.95502L57.5617 10.1269ZM60.8566 13.6176L62.7089 13.4438L59.4146 9.95502L60.8566 13.6176ZM65.651 17.4228L67.5006 17.2469L64.5592 13.2702L65.651 17.4228ZM62.7089 13.4438L65.651 17.4228L64.5592 13.2702L62.7089 13.4438ZM52.3984 80.5453L54.2545 80.3359L57.5001 77.2709L52.3984 80.5453Z" fill="#00A2E5"/>
<path d="M48.3792 7.69441L44.4904 5.34574L40.3619 3.65283L48.3792 7.69441Z" fill="#00A2E5"/>
<path d="M62.2529 73.4578L59.3529 77.064L64.1043 73.2521L62.2529 73.4578ZM44.4898 5.34565L48.3786 7.69433L46.35 5.17631L44.4898 5.34565ZM66.617 69.1489L64.1043 73.2521L68.4663 68.9455L66.617 69.1489ZM70.5499 64.3901L68.4663 68.9455L72.3971 64.1893L70.5499 64.3901ZM57.4991 77.2717L59.3529 77.064L62.2529 73.4578L57.4991 77.2717ZM48.3786 7.69433L50.2381 7.52361L46.35 5.17631L48.3786 7.69433ZM70.5499 64.3901L72.3971 64.1893L74.0099 59.2267L70.5499 64.3901ZM62.2529 73.4578L64.1043 73.2521L66.617 69.1489L62.2529 73.4578ZM50.2381 7.52361L53.849 10.472L52.0956 7.35307L50.2381 7.52361ZM66.617 69.1489L68.4663 68.9455L70.5499 64.3901L66.617 69.1489ZM53.849 10.472L55.7059 10.2998L52.0956 7.35307L53.849 10.472ZM68.2023 21.8372L70.0514 21.6589L67.4997 17.2478L68.2023 21.8372ZM55.6434 77.4796L52.3975 80.5461L57.4991 77.2717L55.6434 77.4796ZM55.7059 10.2998L59.0015 13.7925L57.5607 10.1277L55.7059 10.2998ZM65.65 17.4236L68.2023 21.8372L67.4997 17.2478L65.65 17.4236ZM59.0015 13.7925L60.8557 13.6185L57.5607 10.1277L59.0015 13.7925ZM63.7984 17.5997L65.65 17.4236L62.7079 13.4446L63.7984 17.5997ZM60.8557 13.6185L63.7984 17.5997L62.7079 13.4446L60.8557 13.6185ZM60.3995 73.6637L57.4991 77.2717L62.2529 73.4578L60.3995 73.6637ZM72.1629 59.425L70.5499 64.3901L74.0099 59.2267L72.1629 59.425ZM64.7658 69.3525L62.2529 73.4578L66.617 69.1489L64.7658 69.3525ZM68.7008 64.5912L66.617 69.1489L70.5499 64.3901L68.7008 64.5912ZM72.1629 59.425L74.0099 59.2267L75.1104 53.8998L72.1629 59.425ZM55.6434 77.4796L57.4991 77.2717L60.3995 73.6637L55.6434 77.4796ZM70.3272 26.6293L72.1758 26.4484L70.0514 21.6589L70.3272 26.6293Z" fill="#00A2E5"/>
<path d="M52.3978 80.5464L55.6437 77.4799L58.5444 73.8701L52.3978 80.5464Z" fill="#00A2E5"/>
<path d="M68.7018 64.5915L70.5509 64.3905L72.1639 59.4254L68.7018 64.5915ZM60.4005 73.664L62.2539 73.4581L64.7668 69.3529L60.4005 73.664ZM68.2033 21.8375L70.3282 26.6296L70.0524 21.6593L68.2033 21.8375ZM48.3796 7.69465L51.9912 10.6447L50.2391 7.52393L48.3796 7.69465ZM64.7668 69.3529L66.618 69.1493L68.7018 64.5915L64.7668 69.3529ZM51.9912 10.6447L53.85 10.4723L50.2391 7.52393L51.9912 10.6447ZM66.3522 22.016L68.2033 21.8375L65.651 17.424L66.3522 22.016ZM53.85 10.4723L57.1463 13.967L55.7069 10.3001L53.85 10.4723ZM63.7994 17.6L66.3522 22.016L65.651 17.424L63.7994 17.6ZM73.2643 54.0956L72.1639 59.4254L75.1114 53.9001L73.2643 54.0956ZM73.2643 54.0956L75.1114 53.9001L75.6579 48.2542L73.2643 54.0956ZM57.1463 13.967L59.0025 13.7928L55.7069 10.3001L57.1463 13.967ZM61.9457 17.7762L63.7994 17.6L60.8567 13.6188L61.9457 17.7762ZM59.0025 13.7928L61.9457 17.7762L60.8567 13.6188L59.0025 13.7928ZM71.9884 31.7436L73.8366 31.56L72.1768 26.4487L71.9884 31.7436ZM58.5451 73.8701L55.6444 77.4799L60.4005 73.664L58.5451 73.8701ZM70.3282 26.6296L71.9884 31.7436L72.1768 26.4487L70.3282 26.6296ZM70.3148 59.6239L68.7018 64.5915L72.1639 59.4254L70.3148 59.6239ZM73.8107 48.4468L75.6579 48.2542L75.6139 42.5201L73.8107 48.4468ZM73.1468 37.1227L74.9946 36.9362L73.8366 31.56L73.1468 37.1227ZM62.9136 69.5567L60.4005 73.664L64.7668 69.3529L62.9136 69.5567ZM66.8508 64.7928L64.7668 69.3529L68.7018 64.5915L66.8508 64.7928ZM70.3148 59.6239L72.1639 59.4254L73.2643 54.0956L70.3148 59.6239ZM73.8107 48.4468L73.2643 54.0956L75.6579 48.2542L73.8107 48.4468ZM73.7664 42.7096L75.6139 42.5201L74.9946 36.9362L73.7664 42.7096ZM68.4776 26.8107L70.3282 26.6296L68.2033 21.8375L68.4776 26.8107ZM71.9884 31.7436L73.1468 37.1227L73.8366 31.56L71.9884 31.7436ZM66.8508 64.7928L68.7018 64.5915L70.3148 59.6239L66.8508 64.7928ZM58.5451 73.8701L60.4005 73.664L62.9136 69.5567L58.5451 73.8701ZM66.3522 22.016L68.4776 26.8107L68.2033 21.8375L66.3522 22.016ZM73.7664 42.7096L73.8107 48.4468L75.6139 42.5201L73.7664 42.7096ZM62.9136 69.5567L64.7668 69.3529L66.8508 64.7928L62.9136 69.5567Z" fill="#00A2E5"/>
<path d="M52.3979 80.5458L58.5445 73.8694L63.1421 65.1954L52.3979 80.5458Z" fill="#00A2E5"/>
<path d="M73.146 37.123L73.7656 42.7099L74.9937 36.9365L73.146 37.123Z" fill="#00A2E5"/>
<path d="M55.2879 14.1405L51.991 10.6439L48.3794 7.69385L55.2879 14.1405Z" fill="#00A2E5"/>
<path d="M64.4988 22.1955L66.3518 22.0168L63.799 17.6008L64.4988 22.1955ZM51.9909 10.6455L55.2877 14.1422L53.8497 10.4731L51.9909 10.6455ZM61.9454 17.777L64.4988 22.1955L63.799 17.6008L61.9454 17.777ZM71.4149 54.2921L70.3145 59.6247L73.264 54.0964L71.4149 54.2921ZM71.4149 54.2921L73.264 54.0964L73.8103 48.4476L71.4149 54.2921ZM55.2877 14.1422L57.1459 13.9678L53.8497 10.4731L55.2877 14.1422ZM60.0898 17.9534L61.9454 17.777L59.0021 13.7936L60.0898 17.9534ZM57.1459 13.9678L60.0898 17.9534L59.0021 13.7936L57.1459 13.9678ZM70.138 31.9283L71.9881 31.7444L70.3278 26.6304L70.138 31.9283ZM68.4773 26.8115L70.138 31.9283L70.3278 26.6304L68.4773 26.8115ZM68.4635 59.8234L66.8504 64.7936L70.3145 59.6247L68.4635 59.8234ZM71.9611 48.6404L73.8103 48.4476L73.7661 42.7104L71.9611 48.6404ZM71.2967 37.3103L73.1465 37.1235L71.9881 31.7444L71.2967 37.3103ZM61.0581 69.7615L58.5447 73.8709L62.9133 69.5575L61.0581 69.7615ZM64.9974 64.9951L62.9133 69.5575L66.8504 64.7936L64.9974 64.9951ZM68.4635 59.8234L70.3145 59.6247L71.4149 54.2921L68.4635 59.8234ZM71.9611 48.6404L71.4149 54.2921L73.8103 48.4476L71.9611 48.6404ZM71.9167 42.9001L73.7661 42.7104L73.1465 37.1235L71.9167 42.9001ZM66.6247 26.9928L68.4773 26.8115L66.3518 22.0168L66.6247 26.9928ZM70.138 31.9283L71.2967 37.3103L71.9881 31.7444L70.138 31.9283ZM64.9974 64.9951L66.8504 64.7936L68.4635 59.8234L64.9974 64.9951ZM64.4988 22.1955L66.6247 26.9928L66.3518 22.0168L64.4988 22.1955ZM71.9167 42.9001L71.9611 48.6404L73.7661 42.7104L71.9167 42.9001ZM61.0581 69.7615L62.9133 69.5575L64.9974 64.9951L61.0581 69.7615ZM71.2967 37.3103L71.9167 42.9001L73.1465 37.1235L71.2967 37.3103Z" fill="#00A2E5"/>
<path d="M60.7868 22.5517L55.2879 14.1405L48.3794 7.69385L60.7868 22.5517Z" fill="#00A2E5"/>
<path d="M62.644 22.3728L64.499 22.1939L61.9456 17.7755L62.644 22.3728ZM60.09 17.9519L62.644 22.3728L61.9456 17.7755L60.09 17.9519ZM69.5641 54.4866L68.4637 59.8218L71.4151 54.2906L69.5641 54.4866ZM69.5641 54.4866L71.4151 54.2906L71.9614 48.6388L69.5641 54.4866ZM58.2324 18.1285L60.09 17.9519L57.1461 13.9663L58.2324 18.1285ZM55.288 14.1406L58.2324 18.1285L57.1461 13.9663L55.288 14.1406Z" fill="#00A2E5"/>
<path d="M58.545 73.87L61.0584 69.7606L63.1426 65.1959L58.545 73.87Z" fill="#00A2E5"/>
<path d="M68.286 32.1109L70.1381 31.9269L68.4774 26.8101L68.286 32.1109Z" fill="#00A2E5"/>
<path d="M52.3976 80.5465L63.1418 65.1961L66.356 43.4698L52.3976 80.5465Z" fill="#00A2E5"/>
<path d="M66.625 26.9929L68.2862 32.1125L68.4776 26.8116L66.625 26.9929ZM66.6108 60.0225L64.9977 64.9953L68.4638 59.8235L66.6108 60.0225ZM70.1103 48.8335L71.9615 48.6405L71.917 42.9003L70.1103 48.8335ZM69.4454 37.4974L71.2971 37.3104L70.1383 31.9284L69.4454 37.4974ZM63.1427 65.197L61.0584 69.7617L64.9977 64.9953L63.1427 65.197ZM66.6108 60.0225L68.4638 59.8235L69.5642 54.4882L66.6108 60.0225ZM70.1103 48.8335L69.5642 54.4882L71.9615 48.6405L70.1103 48.8335ZM70.0656 43.0902L71.917 42.9003L71.2971 37.3104L70.0656 43.0902ZM64.7705 27.1744L66.625 26.9929L64.4991 22.1956L64.7705 27.1744ZM68.2862 32.1125L69.4454 37.4974L70.1383 31.9284L68.2862 32.1125ZM63.1427 65.197L64.9977 64.9953L66.6108 60.0225L63.1427 65.197ZM62.644 22.3744L64.7705 27.1744L64.4991 22.1956L62.644 22.3744ZM70.0656 43.0902L70.1103 48.8335L71.917 42.9003L70.0656 43.0902ZM69.4454 37.4974L70.0656 43.0902L71.2971 37.3104L69.4454 37.4974Z" fill="#00A2E5"/>
<path d="M66.3567 43.4689L60.7868 22.5517L48.3794 7.69385L66.3567 43.4689Z" fill="#00A2E5"/>
<path d="M60.7864 22.5515L62.6434 22.3725L60.0895 17.9516L60.7864 22.5515ZM58.2319 18.1282L60.7864 22.5515L60.0895 17.9516L58.2319 18.1282Z" fill="#00A2E5"/>
<path d="M60.7866 22.5542L58.2321 18.1309L55.2876 14.1431L60.7866 22.5542Z" fill="#00A2E5"/>
<path d="M67.7106 54.6824L66.6102 60.0205L69.5636 54.4862L67.7106 54.6824ZM67.7106 54.6824L69.5636 54.4862L70.1097 48.8315L67.7106 54.6824ZM66.4315 32.2947L68.2856 32.1105L66.6244 26.9909L66.4315 32.2947ZM64.7699 27.1724L66.4315 32.2947L66.6244 26.9909L64.7699 27.1724ZM64.7553 60.2196L63.1421 65.195L66.6102 60.0205L64.7553 60.2196ZM68.2565 49.0246L70.1097 48.8315L70.065 43.0882L68.2565 49.0246ZM67.5911 37.6825L69.4448 37.4954L68.2856 32.1105L67.5911 37.6825ZM64.7553 60.2196L66.6102 60.0205L67.7106 54.6824L64.7553 60.2196ZM68.2565 49.0246L67.7106 54.6824L70.1097 48.8315L68.2565 49.0246ZM68.2116 43.2783L70.065 43.0882L69.4448 37.4954L68.2116 43.2783ZM62.9134 27.354L64.7699 27.1724L62.6434 22.3724L62.9134 27.354ZM66.4315 32.2947L67.5911 37.6825L68.2856 32.1105L66.4315 32.2947ZM60.7864 22.5515L62.9134 27.354L62.6434 22.3724L60.7864 22.5515ZM68.2116 43.2783L68.2565 49.0246L70.065 43.0882L68.2116 43.2783ZM67.5911 37.6825L68.2116 43.2783L69.4448 37.4954L67.5911 37.6825Z" fill="#00A2E5"/>
<path d="M63.1426 65.1952L64.7558 60.2198L65.8561 54.8789L63.1426 65.1952Z" fill="#00A2E5"/>
<path d="M65.8557 54.8787L64.7554 60.2196L67.7107 54.6824L65.8557 54.8787ZM65.8557 54.8787L67.7107 54.6824L68.2566 49.0246L65.8557 54.8787ZM64.5756 32.4791L66.4316 32.2947L64.77 27.1724L64.5756 32.4791Z" fill="#00A2E5"/>
<path d="M63.1425 65.1955L65.856 54.8793L66.3567 43.4693L63.1425 65.1955Z" fill="#00A2E5"/>
<path d="M62.9142 27.3549L64.5762 32.48L64.7707 27.1732L62.9142 27.3549ZM66.4022 49.2189L68.2573 49.0255L68.2124 43.2792L66.4022 49.2189ZM65.7362 37.8707L67.5918 37.6833L66.4323 32.2955L65.7362 37.8707Z" fill="#00A2E5"/>
<path d="M64.5763 32.4789L62.9143 27.3538L60.7873 22.5513L64.5763 32.4789Z" fill="#00A2E5"/>
<path d="M66.4013 49.2178L65.8554 54.8785L68.2564 49.0244L66.4013 49.2178ZM66.3561 43.4685L68.2115 43.2781L67.5909 37.6823L66.3561 43.4685Z" fill="#00A2E5"/>
<path d="M66.3571 43.4685L64.5763 32.4789L60.7873 22.5513L66.3571 43.4685Z" fill="#00A2E5"/>
<path d="M64.5752 32.4797L65.7351 37.8704L66.4313 32.2952L64.5752 32.4797ZM66.356 43.4692L66.4011 49.2186L68.2113 43.2789L66.356 43.4692ZM65.7351 37.8704L66.356 43.4692L67.5908 37.683L65.7351 37.8704Z" fill="#00A2E5"/>
<path d="M65.8553 54.8796L66.4012 49.2189L66.356 43.4695L65.8553 54.8796ZM66.356 43.4695L65.7352 37.8707L64.5753 32.48L66.356 43.4695Z" fill="#00A2E5"/>
</mask>
<g mask="url(#mask0_1157_118187)">
<ellipse cx="104.044" cy="80.6464" rx="104.044" ry="80.6464" transform="matrix(0.999063 0.0432797 -0.0428902 0.99908 -52.0063 -80.0552)" fill="url(#paint0_radial_1157_118187)"/>
</g>
<path d="M67.2761 45.6516C66.2738 68.9985 53.0459 87.3871 35.0685 86.6083C17.0912 85.8295 0.890023 64.3561 1.8923 41.0092C2.89457 17.6623 16.3891 1.45723 34.3665 2.23601C52.3438 3.0148 68.2784 22.3047 67.2761 45.6516Z" fill="url(#paint1_linear_1157_118187)"/>
<path d="M63.3035 45.4994C62.861 55.8079 59.7145 64.9991 54.7149 71.5172C49.7187 78.0309 42.8841 81.865 35.0296 81.5247C27.1746 81.1844 19.6632 76.3259 14.2141 68.9385C8.76825 61.5555 5.41346 51.6842 5.85484 41.4028C6.74061 20.7697 18.6581 6.63677 34.3663 7.31726C50.1069 7.99915 64.1876 24.9064 63.3035 45.4994Z" fill="url(#paint2_linear_1157_118187)" stroke="url(#paint3_linear_1157_118187)" stroke-width="0.750896"/>
<g filter="url(#filter0_d_1157_118187)">
<path d="M26.9642 62.8219L26.9553 63.1664L26.9642 63.5591L26.9642 62.8219ZM26.9642 63.5591L26.9911 63.9439L27.0358 64.3207L26.9642 63.5591ZM27.0358 62.1495L26.9642 62.8219L26.9642 63.5591L27.0358 62.1495ZM27.0358 62.1495L26.9911 62.483L26.9642 62.8219L27.0358 62.1495ZM26.9642 63.5591L27.0358 64.3207L27.179 65.0504L26.9642 63.5591ZM27.0358 64.3207L27.0985 64.6895L27.179 65.0504L27.0358 64.3207ZM27.179 61.4988L27.0984 61.8214L27.0358 62.1495L27.179 61.4988ZM27.3938 60.87L27.0358 62.1495L26.9642 63.5591L27.3938 60.87ZM26.9642 63.5591L27.179 65.0504L27.6802 66.4143L26.9642 63.5591ZM27.179 65.0504L27.2775 65.4033L27.3938 65.7483L27.179 65.0504ZM27.3938 60.87L27.179 61.4988L27.0358 62.1495L27.3938 60.87ZM27.3938 60.87L27.2774 61.1817L27.179 61.4988L27.3938 60.87ZM27.179 65.0504L27.3938 65.7483L27.6802 66.4143L27.179 65.0504ZM27.3938 65.7483L27.5281 66.0852L27.6802 66.4143L27.3938 65.7483ZM27.6802 60.263L27.528 60.5638L27.3938 60.87L27.6802 60.263ZM28.0382 59.6777L27.6802 60.263L27.3938 60.87L28.0382 59.6777ZM27.6802 66.4143L27.8503 66.7353L28.0383 67.0484L27.6802 66.4143ZM28.9399 58.6558L27.3938 60.87L26.9642 63.5591L28.9399 58.6558ZM28.0382 59.6777L27.8502 59.9676L27.6802 60.263L28.0382 59.6777ZM26.9642 63.5591L27.6802 66.4143L29.4608 68.5519L26.9642 63.5591ZM27.6802 66.4143L28.0383 67.0484L28.4647 67.6424L27.6802 66.4143ZM28.0383 67.0484L28.2441 67.3536L28.4647 67.6424L28.0383 67.0484ZM28.9399 58.6558L28.0382 59.6777L27.3938 60.87L28.9399 58.6558ZM28.4646 59.1235L28.2441 59.3933L28.0382 59.6777L28.4646 59.1235Z" fill="#3DBBF0"/>
<path d="M31.642 69.1972L35.114 69.1142L35.4128 69.1068L31.642 69.1972ZM31.642 57.7372L35.114 57.6587L34.7681 57.6651L31.642 57.7372Z" fill="#3DBBF0"/>
<path d="M27.9238 46.8506L28.0155 47.4405L28.1633 48.0007L27.9238 46.8506ZM27.8922 21.2046L27.8923 46.2366L27.9238 46.8506L27.8922 21.2046ZM27.6801 66.4147L28.4645 67.6429L29.4606 68.5523L27.6801 66.4147ZM27.9238 46.8506L28.1633 48.0007L28.6107 49.0105L27.9238 46.8506ZM28.9397 58.6562L28.4644 59.1239L28.038 59.6781L28.9397 58.6562ZM28.4645 67.6429L28.6964 67.9071L28.9398 68.1468L28.4645 67.6429Z" fill="#3DBBF0"/>
<path d="M31.9418 69.1885L35.4136 69.1066L35.7042 69.0747L31.9418 69.1885Z" fill="#3DBBF0"/>
<path d="M28.016 20.0044L27.8928 21.2049L27.9244 46.851L28.016 20.0044Z" fill="#3DBBF0"/>
<path d="M31.9418 57.7525L35.4137 57.6751L35.1149 57.6587L31.9418 57.7525Z" fill="#3DBBF0"/>
<path d="M28.1635 48.0011L28.3633 48.5262L28.611 49.0109L28.1635 48.0011ZM28.0156 20.0044L27.9241 46.851L28.611 49.0109L28.0156 20.0044Z" fill="#3DBBF0"/>
<path d="M31.5939 50.8139L35.0658 50.7392L35.5339 50.7056L31.5939 50.8139Z" fill="#3DBBF0"/>
<path d="M28.9404 58.6565L28.697 58.8784L28.4651 59.1242L28.9404 58.6565ZM28.016 20.0044L27.9243 20.5917L27.8928 21.2049L28.016 20.0044ZM28.4652 67.6432L28.9404 68.1471L29.4613 68.5527L28.4652 67.6432Z" fill="#3DBBF0"/>
<path d="M32.2327 69.1575L35.7046 69.0745L35.9871 69.0172L32.2327 69.1575ZM32.2327 57.7941L35.7047 57.7156L35.414 57.6753L32.2327 57.7941Z" fill="#3DBBF0"/>
<path d="M28.3628 18.9272L28.163 19.4469L28.0152 20.003L28.3628 18.9272ZM28.9396 68.1458L29.1944 68.3608L29.4605 68.5513L28.9396 68.1458Z" fill="#3DBBF0"/>
<path d="M32.0621 50.7805L35.5341 50.7048L35.9831 50.5915L32.0621 50.7805ZM31.5939 16.7288L35.0663 16.6667L34.8137 16.6636L31.5939 16.7288ZM32.5156 69.0994L35.9875 69.0164L36.2619 68.9342L32.5156 69.0994Z" fill="#3DBBF0"/>
<path d="M28.6104 49.0103L28.902 49.4493L29.2334 49.8368L28.6104 49.0103Z" fill="#3DBBF0"/>
<path d="M32.5147 57.8572L35.9867 57.7784L35.7042 57.7144L32.5147 57.8572Z" fill="#3DBBF0"/>
<path d="M29.461 58.2844L29.1948 58.4584L28.9401 58.6563L29.461 58.2844ZM28.9025 18.02L28.3633 18.9284L28.0157 20.0042L28.9025 18.02Z" fill="#3DBBF0"/>
<path d="M32.7893 69.0184L36.2612 68.9354L36.5274 68.8283L32.7893 69.0184ZM32.7893 57.9459L36.2613 57.8673L35.9869 57.7798L32.7893 57.9459Z" fill="#3DBBF0"/>
<path d="M28.9012 18.019L28.6098 18.4496L28.3621 18.9274L28.9012 18.019ZM28.6099 49.0097L29.2325 49.8357L29.9975 50.4343L28.6099 49.0097ZM30.0263 58.0072L29.4598 58.2834L28.9389 58.6554L30.0263 58.0072Z" fill="#3DBBF0"/>
<path d="M32.0615 16.7757L35.5337 16.7137L35.0656 16.6665L32.0615 16.7757ZM32.5104 50.6669L35.9825 50.5912L36.4082 50.4039L32.5104 50.6669Z" fill="#3DBBF0"/>
<path d="M29.461 68.5538L29.7386 68.7196L30.0275 68.8609L29.461 68.5538ZM30.4243 16.8774L28.0157 20.0055L28.6111 49.012L30.4243 16.8774Z" fill="#3DBBF0"/>
<path d="M33.0558 68.9106L36.5277 68.8276L36.7858 68.6956L33.0558 68.9106ZM33.0559 58.0565L36.5278 57.9779L36.2615 57.8667L33.0559 58.0565Z" fill="#3DBBF0"/>
<path d="M30.0265 58.0079L29.7376 58.1341L29.46 58.2841L30.0265 58.0079ZM29.2328 49.8364L29.5995 50.1669L29.9978 50.435L29.2328 49.8364Z" fill="#3DBBF0"/>
<path d="M31.2971 57.741L31.6431 57.7347L34.769 57.6636L31.2971 57.741Z" fill="#3DBBF0"/>
<path d="M33.5643 58.3501L28.9399 58.6566L26.9642 63.5599L33.5643 58.3501ZM29.4608 68.5527L30.0273 68.8599L30.6395 69.0686L29.4608 68.5527Z" fill="#3DBBF0"/>
<path d="M33.3141 68.7774L36.7859 68.6945L37.0359 68.5375L33.3141 68.7774ZM32.5107 16.9014L35.983 16.8393L35.534 16.7134L32.5107 16.9014Z" fill="#3DBBF0"/>
<path d="M30.4243 16.8774L28.9025 18.0213L28.0157 20.0055L30.4243 16.8774Z" fill="#3DBBF0"/>
<path d="M33.313 58.1905L36.7848 58.1118L36.5267 57.977L33.313 58.1905ZM32.9353 50.4794L36.4073 50.4039L36.8057 50.1479L32.9353 50.4794ZM31.9408 69.1886L31.642 69.196L35.4128 69.1056L31.9408 69.1886Z" fill="#3DBBF0"/>
<path d="M26.9635 63.5598L29.4601 68.5526L34.0392 68.2325L26.9635 63.5598ZM29.5995 17.3218L29.2327 17.642L28.9015 18.0201L29.5995 17.3218ZM31.2965 57.7432L30.0266 58.0083L28.9392 58.6564L31.2965 57.7432ZM30.0266 68.8597L30.327 68.9764L30.6387 69.0684L30.0266 68.8597Z" fill="#3DBBF0"/>
<path d="M31.642 57.7372L31.9408 57.7538L35.114 57.6587L31.642 57.7372ZM33.5629 68.6218L37.0347 68.5389L37.2766 68.357L33.5629 68.6218ZM33.563 58.3502L37.0348 58.2715L36.7848 58.113L33.563 58.3502Z" fill="#3DBBF0"/>
<path d="M28.6104 49.0103L29.998 50.4348L31.5931 50.8147L28.6104 49.0103Z" fill="#3DBBF0"/>
<path d="M32.2325 69.1572L31.9418 69.1895L35.7045 69.0741L32.2325 69.1572ZM33.3348 50.2243L36.8067 50.1488L37.1737 49.8296L33.3348 50.2243Z" fill="#3DBBF0"/>
<path d="M30.6393 57.8276L30.3273 57.9061L30.0267 58.0087L30.6393 57.8276Z" fill="#3DBBF0"/>
<path d="M32.937 17.1017L36.4091 17.0395L35.9834 16.8403L32.937 17.1017ZM33.8064 68.4394L37.2782 68.3566L37.5119 68.1498L33.8064 68.4394ZM31.9424 57.7534L32.2331 57.7937L35.4144 57.675L31.9424 57.7534ZM32.0621 50.781L31.5939 50.8151L35.5341 50.7053L32.0621 50.781ZM33.8065 58.5321L37.2783 58.4533L37.0364 58.2712L33.8065 58.5321Z" fill="#3DBBF0"/>
<path d="M29.4602 68.5528L30.6389 69.0686L31.9415 69.1898L29.4602 68.5528ZM30.4235 16.8765L29.5996 17.322L28.9017 18.0203L30.4235 16.8765Z" fill="#3DBBF0"/>
<path d="M32.5152 69.1003L32.2327 69.1578L35.9871 69.0171L32.5152 69.1003Z" fill="#3DBBF0"/>
<path d="M29.9982 50.436L30.4241 50.6371L30.8733 50.7647L29.9982 50.436Z" fill="#3DBBF0"/>
<path d="M34.0394 68.2319L37.5111 68.1492L37.7367 67.9174L34.0394 68.2319ZM31.3406 16.7256L31.5932 16.7288L34.813 16.6636L31.3406 16.7256Z" fill="#3DBBF0"/>
<path d="M31.2975 57.7427L30.6393 57.8276L30.0267 58.0086L31.2975 57.7427Z" fill="#3DBBF0"/>
<path d="M34.0398 58.7381L37.5116 58.6592L37.2779 58.4535L34.0398 58.7381ZM32.2327 57.794L32.5152 57.8579L35.7047 57.7155L32.2327 57.794ZM33.702 49.9052L37.1738 49.8298L37.5052 49.4526L33.702 49.9052Z" fill="#3DBBF0"/>
<path d="M30.6391 69.0679L30.9625 69.1345L31.2973 69.1768L30.6391 69.0679Z" fill="#3DBBF0"/>
<path d="M33.3346 17.3689L36.8067 17.3066L36.4082 17.0396L33.3346 17.3689ZM32.7891 69.0178L32.5147 69.1L36.261 68.9348L32.7891 69.0178ZM34.2649 68.0006L37.7366 67.918L37.9541 67.6612L34.2649 68.0006Z" fill="#3DBBF0"/>
<path d="M30.4247 16.8765L29.9988 17.0651L29.6002 17.3223L30.4247 16.8765Z" fill="#3DBBF0"/>
<path d="M32.5111 50.6669L32.0621 50.7803L35.9831 50.5912L32.5111 50.6669ZM34.2658 58.9666L37.7376 58.8876L37.512 58.6582L34.2658 58.9666ZM31.5939 16.7285L32.0621 16.7757L35.0663 16.6665L31.5939 16.7285ZM32.5156 57.8569L32.79 57.9445L35.9876 57.7784L32.5156 57.8569Z" fill="#3DBBF0"/>
<path d="M31.2969 57.744L30.9623 57.7743L30.6391 57.8286L31.2969 57.744ZM29.9982 50.436L30.8727 50.7636L31.5933 50.8159L29.9982 50.436Z" fill="#3DBBF0"/>
<path d="M34.0334 49.529L37.5053 49.4538L37.797 49.0239L34.0334 49.529Z" fill="#3DBBF0"/>
<path d="M30.6391 69.0679L31.2973 69.1768L31.9426 69.1875L30.6391 69.0679Z" fill="#3DBBF0"/>
<path d="M34.4826 67.7432L37.9542 67.6607L38.1636 67.379L34.4826 67.7432ZM33.0556 68.9101L32.7893 69.0173L36.5274 68.8272L33.0556 68.9101ZM34.4826 59.2201L37.9543 59.141L37.7369 58.888L34.4826 59.2201ZM33.7017 17.6981L37.1738 17.6356L36.8068 17.3062L33.7017 17.6981ZM32.7893 57.9448L33.0556 58.056L36.2613 57.8663L32.7893 57.9448Z" fill="#3DBBF0"/>
<path d="M33.5634 58.3494L31.2963 57.7427L28.939 58.6558L33.5634 58.3494Z" fill="#3DBBF0"/>
<path d="M34.6913 67.4618L38.1629 67.3795L38.3596 67.081L34.6913 67.4618ZM34.6913 59.4974L38.163 59.4182L37.9537 59.1415L34.6913 59.4974ZM32.9355 50.4803L32.5097 50.6677L36.4075 50.4047L32.9355 50.4803ZM34.3241 49.0976L37.7959 49.0226L38.0438 48.5454L34.3241 49.0976Z" fill="#3DBBF0"/>
<path d="M28.6104 49.0103L31.5931 50.8147L33.3345 50.2238L28.6104 49.0103Z" fill="#3DBBF0"/>
<path d="M33.314 68.7789L33.0558 68.9114L36.7858 68.6958L33.314 68.7789Z" fill="#3DBBF0"/>
<path d="M31.2973 69.179L31.6433 69.1973L31.9421 69.1899L31.2973 69.179ZM34.0399 68.2328L33.5643 58.3503L26.9642 63.5601L34.0399 68.2328ZM30.8731 50.7632L31.3412 50.8117L31.5937 50.8155L30.8731 50.7632Z" fill="#3DBBF0"/>
<path d="M32.0615 16.7754L32.5105 16.9014L35.5337 16.7134L32.0615 16.7754ZM34.0333 18.0841L37.5053 18.0215L37.1739 17.635L34.0333 18.0841ZM34.8887 67.1622L38.3604 67.0799L38.54 66.7729L34.8887 67.1622ZM33.0557 58.0554L33.3139 58.1903L36.5276 57.9768L33.0557 58.0554ZM34.8888 59.7874L38.3605 59.7081L38.1637 59.4171L34.8888 59.7874ZM34.5728 48.6192L38.0446 48.5443L38.2446 48.0252L34.5728 48.6192Z" fill="#3DBBF0"/>
<path d="M29.4608 68.553L31.9421 69.19L34.0399 68.2329L29.4608 68.553Z" fill="#3DBBF0"/>
<path d="M33.5636 68.6207L33.3136 68.7781L37.0354 68.5376L33.5636 68.6207Z" fill="#3DBBF0"/>
<path d="M31.9423 57.7518L31.6433 57.7358L31.2971 57.742L31.9423 57.7518Z" fill="#3DBBF0"/>
<path d="M35.0683 66.8552L38.5399 66.7731L38.7025 66.4575L35.0683 66.8552ZM35.0684 60.0836L38.54 60.0041L38.3604 59.7083L35.0684 60.0836ZM33.3347 50.2234L32.9362 50.4794L36.8066 50.1479L33.3347 50.2234Z" fill="#3DBBF0"/>
<path d="M31.3411 16.7251L30.8726 16.7606L30.4234 16.8756L31.3411 16.7251Z" fill="#3DBBF0"/>
<path d="M34.7725 48.1003L38.2443 48.0256L38.3922 47.4698L34.7725 48.1003ZM33.3136 58.1908L33.5636 58.3493L36.7855 58.1121L33.3136 58.1908ZM34.3247 18.5228L37.7967 18.46L37.505 18.022L34.3247 18.5228Z" fill="#3DBBF0"/>
<path d="M35.0439 46.3442L30.4236 16.8765L28.6104 49.011L35.0439 46.3442Z" fill="#3DBBF0"/>
<path d="M35.2311 66.5404L38.7027 66.4583L38.8481 66.1342L35.2311 66.5404ZM35.2312 60.3853L38.7028 60.3057L38.5403 60.005L35.2312 60.3853ZM32.5107 16.9024L32.9366 17.1017L35.983 16.8403L32.5107 16.9024ZM33.806 68.4394L33.5641 68.6214L37.2778 68.3566L33.806 68.4394ZM34.921 47.5448L38.3927 47.4704L38.4845 46.8832L34.921 47.5448Z" fill="#3DBBF0"/>
<path d="M32.516 57.8557L31.9424 57.7528L31.2971 57.7427L32.516 57.8557Z" fill="#3DBBF0"/>
<path d="M35.3763 66.2161L38.8479 66.1342L38.9762 65.8015L35.3763 66.2161ZM35.0125 46.9574L38.4843 46.8832L38.5158 46.27L35.0125 46.9574ZM35.3763 60.6911L38.8479 60.6114L38.7025 60.3058L35.3763 60.6911ZM33.5639 58.3499L33.8058 58.5321L37.0357 58.2712L33.5639 58.3499Z" fill="#3DBBF0"/>
<path d="M31.9418 69.1885L32.2327 69.1566L32.5154 69.1001L31.9418 69.1885Z" fill="#3DBBF0"/>
<path d="M34.5731 19.0075L38.0451 18.9446L37.7972 18.4604L34.5731 19.0075ZM35.5048 65.8831L38.9764 65.8014L39.0876 65.4601L35.5048 65.8831ZM33.7019 49.9048L33.3349 50.2241L37.1738 49.8295L33.7019 49.9048ZM34.0397 68.2323L33.806 68.4393L37.5115 68.1496L34.0397 68.2323ZM35.5049 61.0016L38.9765 60.9218L38.8482 60.6113L35.5049 61.0016Z" fill="#3DBBF0"/>
<path d="M32.0611 16.7756L31.3404 16.7251L30.4234 16.8755L32.0611 16.7756Z" fill="#3DBBF0"/>
<path d="M35.0441 46.3434L38.5158 46.2695L38.5161 21.2329L35.0441 46.3434ZM35.6159 65.5413L39.0874 65.4597L39.1815 65.1098L35.6159 65.5413Z" fill="#3DBBF0"/>
<path d="M31.5939 50.8155L32.0624 50.7813L32.5117 50.6675L31.5939 50.8155Z" fill="#3DBBF0"/>
<path d="M34.7726 19.5318L38.2445 19.4687L38.0445 18.9438L34.7726 19.5318ZM35.6155 61.3165L39.0871 61.2366L38.9759 60.9211L35.6155 61.3165ZM33.8054 58.5312L34.0392 58.737L37.2772 58.4524L33.8054 58.5312Z" fill="#3DBBF0"/>
<path d="M32.5155 57.8563L32.2327 57.7932L31.9418 57.7534L32.5155 57.8563Z" fill="#3DBBF0"/>
<path d="M32.9362 17.1019L33.3347 17.3698L36.4084 17.0396L32.9362 17.1019Z" fill="#3DBBF0"/>
<path d="M31.9418 69.1915L32.5155 69.1016L33.0566 68.9116L31.9418 69.1915Z" fill="#3DBBF0"/>
<path d="M35.71 65.1906L39.1816 65.1091L39.2586 64.7507L35.71 65.1906ZM35.71 61.6366L39.1816 61.5565L39.0875 61.2362L35.71 61.6366ZM34.2652 67.9993L34.0396 68.2312L37.7369 67.9167L34.2652 67.9993ZM34.921 20.0917L38.3929 20.0283L38.245 19.4683L34.921 20.0917ZM35.787 64.8321L39.2586 64.7507L39.3184 64.3838L35.787 64.8321ZM35.787 61.962L39.2586 61.8818L39.1816 61.5565L35.787 61.962ZM35.8469 64.465L39.3184 64.3838L39.3612 64.0083L35.8469 64.465ZM34.0332 49.5263L33.7018 49.9037L37.505 49.4511L34.0332 49.5263ZM35.8469 62.2922L39.3185 62.2119L39.2586 61.8818L35.8469 62.2922ZM34.0397 58.7366L34.2653 58.9661L37.5114 58.6578L34.0397 58.7366Z" fill="#3DBBF0"/>
<path d="M33.5642 58.3494L32.5152 57.8572L31.2971 57.7427L33.5642 58.3494Z" fill="#3DBBF0"/>
<path d="M35.0128 20.6822L38.4846 20.6186L38.3929 20.0288L35.0128 20.6822ZM35.8897 64.0899L39.3612 64.0088L39.3869 63.6248L35.8897 64.0899ZM35.8897 62.6279L39.3612 62.5475L39.3185 62.2124L35.8897 62.6279ZM35.0443 21.2966L38.5161 21.2327L38.4846 20.6186L35.0443 21.2966ZM35.9153 63.7057L39.3869 63.6248L39.3954 63.2322L35.9153 63.7057ZM35.9153 62.968L39.3869 62.8874L39.3612 62.5475L35.9153 62.968Z" fill="#3DBBF0"/>
<path d="M32.0618 16.7754L31.5933 16.7283L31.3406 16.7251L32.0618 16.7754Z" fill="#3DBBF0"/>
<path d="M35.924 63.3137L39.3955 63.233L39.387 62.8882L35.924 63.3137Z" fill="#3DBBF0"/>
<path d="M28.6104 49.01L33.3345 50.2236L35.0439 46.3433L28.6104 49.01ZM32.5148 69.0993L32.7892 69.0171L33.0555 68.9099L32.5148 69.0993Z" fill="#3DBBF0"/>
<path d="M34.4829 67.7443L34.2654 68.0019L37.9546 67.6616L34.4829 67.7443Z" fill="#3DBBF0"/>
<path d="M31.5939 50.815L32.5111 50.6675L33.3353 50.2241L31.5939 50.815Z" fill="#3DBBF0"/>
<path d="M33.3349 17.3684L33.7019 17.6981L36.807 17.3062L33.3349 17.3684ZM34.2653 58.967L34.4828 59.2201L37.7371 58.888L34.2653 58.967ZM34.325 49.0972L34.0332 49.5272L37.7968 49.0221L34.325 49.0972ZM34.6921 67.4614L34.4827 67.7432L38.1638 67.379L34.6921 67.4614Z" fill="#3DBBF0"/>
<path d="M33.0558 58.0567L32.7895 57.9455L32.5151 57.8579L33.0558 58.0567ZM31.9418 69.1897L33.0558 68.9108L34.0397 68.2327L31.9418 69.1897Z" fill="#3DBBF0"/>
<path d="M34.4834 59.2204L34.6927 59.498L37.9551 59.1411L34.4834 59.2204Z" fill="#3DBBF0"/>
<path d="M33.7015 17.6989L32.0611 16.7769L30.4234 16.8765L33.7015 17.6989Z" fill="#3DBBF0"/>
<path d="M34.8887 67.1624L34.692 67.461L38.3603 67.0802L34.8887 67.1624ZM33.7018 17.6977L34.0332 18.0843L37.1738 17.6353L33.7018 17.6977ZM34.5727 48.6194L34.3248 49.0968L38.0445 48.5446L34.5727 48.6194Z" fill="#3DBBF0"/>
<path d="M33.5644 58.3505L33.0558 58.0569L32.5147 57.8579L33.5644 58.3505Z" fill="#3DBBF0"/>
<path d="M34.6914 59.4969L34.8881 59.7888L38.1631 59.4175L34.6914 59.4969Z" fill="#3DBBF0"/>
<path d="M32.5097 50.6675L32.9355 50.4801L33.334 50.2241L32.5097 50.6675ZM33.0549 68.9104L33.3131 68.7783L33.5631 68.6213L33.0549 68.9104Z" fill="#3DBBF0"/>
<path d="M35.0676 66.8548L34.888 67.1619L38.5392 66.7726L35.0676 66.8548ZM34.772 48.0995L34.572 48.6189L38.2438 48.0249L34.772 48.0995ZM34.888 59.7871L35.0676 60.0831L38.3597 59.7078L34.888 59.7871Z" fill="#3DBBF0"/>
<path d="M33.5644 58.3506L33.3142 58.1915L33.0558 58.0562L33.5644 58.3506Z" fill="#3DBBF0"/>
<path d="M34.0334 18.0846L34.3252 18.5228L37.5055 18.022L34.0334 18.0846Z" fill="#3DBBF0"/>
<path d="M33.0557 68.9109L33.5639 68.6218L34.0395 68.2328L33.0557 68.9109ZM32.9363 17.1021L32.5105 16.9028L32.0615 16.7769L32.9363 17.1021Z" fill="#3DBBF0"/>
<path d="M35.2311 66.5402L35.0686 66.856L38.7027 66.4582L35.2311 66.5402ZM35.0686 60.0843L35.2312 60.3852L38.5403 60.0048L35.0686 60.0843ZM34.921 47.5447L34.773 48.1007L38.3927 47.4702L34.921 47.5447ZM35.3766 66.216L35.2311 66.5402L38.8481 66.1341L35.3766 66.216ZM35.0128 46.9572L34.921 47.5447L38.4845 46.8831L35.0128 46.9572ZM34.3253 18.5232L34.5732 19.0075L37.7972 18.4604L34.3253 18.5232ZM35.2312 60.3852L35.3766 60.691L38.7028 60.3056L35.2312 60.3852Z" fill="#3DBBF0"/>
<path d="M33.5639 68.6222L33.806 68.44L34.0399 68.2329L33.5639 68.6222Z" fill="#3DBBF0"/>
<path d="M35.0443 46.3439L35.0128 46.9574L38.516 46.27L35.0443 46.3439ZM35.5049 65.8833L35.3765 66.2161L38.9764 65.8015L35.5049 65.8833Z" fill="#3DBBF0"/>
<path d="M35.0437 46.3442L33.7015 17.6988L30.4234 16.8765L35.0437 46.3442Z" fill="#3DBBF0"/>
<path d="M35.3759 60.6905L35.5042 61.0012L38.8475 60.6108L35.3759 60.6905Z" fill="#3DBBF0"/>
<path d="M33.7018 17.6989L32.9363 17.1021L32.0615 16.7769L33.7018 17.6989Z" fill="#3DBBF0"/>
<path d="M35.6158 65.5421L35.5046 65.8835L39.0873 65.4604L35.6158 65.5421Z" fill="#3DBBF0"/>
<path d="M34.0399 58.7384L33.806 58.5324L33.5639 58.3501L34.0399 58.7384Z" fill="#3DBBF0"/>
<path d="M34.573 19.0068L34.773 19.5318L38.045 18.9438L34.573 19.0068ZM35.5047 61.0009L35.6159 61.3165L38.9763 60.9211L35.5047 61.0009Z" fill="#3DBBF0"/>
<path d="M33.3349 50.225L33.7022 49.9054L34.0338 49.5278L33.3349 50.225Z" fill="#3DBBF0"/>
<path d="M35.7095 65.1906L35.6154 65.5406L39.1811 65.1091L35.7095 65.1906ZM35.6154 61.3161L35.7095 61.6366L39.087 61.2362L35.6154 61.3161ZM34.7725 19.5314L34.9205 20.0917L38.2444 19.4683L34.7725 19.5314ZM35.7865 64.8321L35.7095 65.1906L39.2581 64.7507L35.7865 64.8321ZM35.0438 21.2961L35.0436 46.3427L38.5157 21.2322L35.0438 21.2961Z" fill="#3DBBF0"/>
<path d="M34.4833 59.2214L34.0399 58.7384L33.5639 58.3501L34.4833 59.2214Z" fill="#3DBBF0"/>
<path d="M35.7103 61.6372L35.7873 61.9626L39.1819 61.5571L35.7103 61.6372ZM35.8472 64.4656L35.7873 64.8327L39.3187 64.3844L35.8472 64.4656Z" fill="#3DBBF0"/>
<path d="M34.0397 68.2328L34.2655 68.0007L34.4831 67.7437L34.0397 68.2328Z" fill="#3DBBF0"/>
<path d="M35.7865 61.9625L35.8463 62.2928L39.258 61.8823L35.7865 61.9625ZM34.9204 20.0922L35.0122 20.6822L38.3923 20.0288L34.9204 20.0922ZM35.8891 64.0899L35.8463 64.4655L39.3606 64.0088L35.8891 64.0899ZM35.8463 62.2928L35.8891 62.6279L39.3179 62.2124L35.8463 62.2928ZM35.9148 63.7057L35.8891 64.0899L39.3863 63.6248L35.9148 63.7057ZM35.0122 20.6822L35.0437 21.2966L38.4841 20.6186L35.0122 20.6822ZM35.8891 62.6279L35.9148 62.968L39.3607 62.5475L35.8891 62.6279Z" fill="#3DBBF0"/>
<path d="M33.3349 50.2247L34.0333 49.528L34.573 48.6206L33.3349 50.2247Z" fill="#3DBBF0"/>
<path d="M35.9243 63.3136L35.9158 63.7064L39.3959 63.2329L35.9243 63.3136Z" fill="#3DBBF0"/>
<path d="M33.7023 17.6993L33.335 17.3694L32.9362 17.1021L33.7023 17.6993Z" fill="#3DBBF0"/>
<path d="M35.9158 62.9688L35.9243 63.3137L39.3873 62.8882L35.9158 62.9688Z" fill="#3DBBF0"/>
<path d="M34.4829 59.2198L34.2654 58.9667L34.0398 58.7372L34.4829 59.2198ZM34.0397 68.2317L34.4828 67.7429L34.8889 67.1625L34.0397 68.2317ZM35.2311 60.3846L34.4829 59.2198L33.5641 58.3491L35.2311 60.3846ZM34.0397 68.2317L35.9155 62.968L33.5641 58.3491L34.0397 68.2317ZM34.4828 67.7429L34.6922 67.4611L34.8889 67.1625L34.4828 67.7429ZM34.0333 49.5269L34.3251 49.0968L34.573 48.6195L34.0333 49.5269ZM33.3349 50.2235L34.573 48.6195L35.0442 46.3432L33.3349 50.2235ZM34.0397 68.2317L34.8889 67.1625L35.5048 65.8825L34.0397 68.2317ZM34.889 59.7877L34.6922 59.4966L34.4829 59.2198L34.889 59.7877ZM35.2311 60.3846L34.889 59.7877L34.4829 59.2198L35.2311 60.3846ZM34.3252 18.5226L34.0335 18.0844L33.702 17.6978L34.3252 18.5226ZM35.9155 62.968L35.2311 60.3846L33.5641 58.3491L35.9155 62.968ZM34.8889 67.1625L35.0686 66.8553L35.2311 66.5396L34.8889 67.1625ZM34.573 48.6195L34.773 48.1001L34.9209 47.544L34.573 48.6195ZM34.0397 68.2317L35.5048 65.8825L35.9155 62.968L34.0397 68.2317ZM35.2311 60.3846L35.0686 60.0837L34.889 59.7877L35.2311 60.3846ZM34.8889 67.1625L35.2311 66.5396L35.5048 65.8825L34.8889 67.1625ZM34.573 48.6195L34.9209 47.544L35.0442 46.3432L34.573 48.6195ZM34.7731 19.5319L34.3252 18.5226L33.702 17.6978L34.7731 19.5319ZM35.0442 46.3432L34.7731 19.5319L33.702 17.6978L35.0442 46.3432ZM35.2311 66.5396L35.3765 66.2153L35.5048 65.8825L35.2311 66.5396ZM34.9209 47.544L35.0127 46.9566L35.0442 46.3432L34.9209 47.544ZM35.5049 61.001L35.3765 60.6903L35.2311 60.3846L35.5049 61.001ZM34.7731 19.5319L34.5731 19.0069L34.3252 18.5226L34.7731 19.5319ZM35.7102 61.6371L35.5049 61.001L35.2311 60.3846L35.7102 61.6371ZM35.5048 65.8825L35.616 65.5411L35.7101 65.1911L35.5048 65.8825ZM35.5048 65.8825L35.7101 65.1911L35.847 64.4655L35.5048 65.8825ZM35.7102 61.6371L35.6161 61.3166L35.5049 61.001L35.7102 61.6371ZM35.9155 62.968L35.7102 61.6371L35.2311 60.3846L35.9155 62.968ZM35.0442 46.3432L35.0129 20.6822L34.7731 19.5319L35.0442 46.3432ZM35.5048 65.8825L35.847 64.4655L35.9155 62.968L35.5048 65.8825ZM35.0442 46.3432L35.0444 21.2966L35.0129 20.6822L35.0442 46.3432ZM35.7101 65.1911L35.7871 64.8326L35.847 64.4655L35.7101 65.1911ZM35.0129 20.6822L34.9211 20.0922L34.7731 19.5319L35.0129 20.6822ZM35.847 62.2928L35.7872 61.9625L35.7102 61.6371L35.847 62.2928ZM35.9155 62.968L35.847 62.2928L35.7102 61.6371L35.9155 62.968ZM35.847 64.4655L35.8898 64.0899L35.9155 63.7057L35.847 64.4655ZM35.847 64.4655L35.9155 63.7057L35.9155 62.968L35.847 64.4655ZM35.9155 62.968L35.8898 62.6279L35.847 62.2928L35.9155 62.968ZM35.9155 63.7057L35.924 63.3129L35.9155 62.968L35.9155 63.7057Z" fill="#3DBBF0"/>
</g>
<mask id="mask1_1157_118187" style="mask-type:alpha" maskUnits="userSpaceOnUse" x="26" y="16" width="14" height="54">
<path d="M26.9642 62.8219L26.9553 63.1664L26.9642 63.5591L26.9642 62.8219ZM26.9642 63.5591L26.9911 63.9439L27.0358 64.3207L26.9642 63.5591ZM27.0358 62.1495L26.9642 62.8219L26.9642 63.5591L27.0358 62.1495ZM27.0358 62.1495L26.9911 62.483L26.9642 62.8219L27.0358 62.1495ZM26.9642 63.5591L27.0358 64.3207L27.179 65.0504L26.9642 63.5591ZM27.0358 64.3207L27.0985 64.6895L27.179 65.0504L27.0358 64.3207ZM27.179 61.4988L27.0984 61.8214L27.0358 62.1495L27.179 61.4988ZM27.3938 60.87L27.0358 62.1495L26.9642 63.5591L27.3938 60.87ZM26.9642 63.5591L27.179 65.0504L27.6802 66.4143L26.9642 63.5591ZM27.179 65.0504L27.2775 65.4033L27.3938 65.7483L27.179 65.0504ZM27.3938 60.87L27.179 61.4988L27.0358 62.1495L27.3938 60.87ZM27.3938 60.87L27.2774 61.1817L27.179 61.4988L27.3938 60.87ZM27.179 65.0504L27.3938 65.7483L27.6802 66.4143L27.179 65.0504ZM27.3938 65.7483L27.5281 66.0852L27.6802 66.4143L27.3938 65.7483ZM27.6802 60.263L27.528 60.5638L27.3938 60.87L27.6802 60.263ZM28.0382 59.6777L27.6802 60.263L27.3938 60.87L28.0382 59.6777ZM27.6802 66.4143L27.8503 66.7353L28.0383 67.0484L27.6802 66.4143ZM28.9399 58.6558L27.3938 60.87L26.9642 63.5591L28.9399 58.6558ZM28.0382 59.6777L27.8502 59.9676L27.6802 60.263L28.0382 59.6777ZM26.9642 63.5591L27.6802 66.4143L29.4608 68.5519L26.9642 63.5591ZM27.6802 66.4143L28.0383 67.0484L28.4647 67.6424L27.6802 66.4143ZM28.0383 67.0484L28.2441 67.3536L28.4647 67.6424L28.0383 67.0484ZM28.9399 58.6558L28.0382 59.6777L27.3938 60.87L28.9399 58.6558ZM28.4646 59.1235L28.2441 59.3933L28.0382 59.6777L28.4646 59.1235Z" fill="#3DBBF0"/>
<path d="M31.642 69.1972L35.114 69.1142L35.4128 69.1068L31.642 69.1972ZM31.642 57.7372L35.114 57.6587L34.7681 57.6651L31.642 57.7372Z" fill="#3DBBF0"/>
<path d="M27.9238 46.8506L28.0155 47.4405L28.1633 48.0007L27.9238 46.8506ZM27.8922 21.2046L27.8923 46.2366L27.9238 46.8506L27.8922 21.2046ZM27.6801 66.4147L28.4645 67.6429L29.4606 68.5523L27.6801 66.4147ZM27.9238 46.8506L28.1633 48.0007L28.6107 49.0105L27.9238 46.8506ZM28.9397 58.6562L28.4644 59.1239L28.038 59.6781L28.9397 58.6562ZM28.4645 67.6429L28.6964 67.9071L28.9398 68.1468L28.4645 67.6429Z" fill="#3DBBF0"/>
<path d="M31.9418 69.1885L35.4136 69.1066L35.7042 69.0747L31.9418 69.1885Z" fill="#3DBBF0"/>
<path d="M28.016 20.0044L27.8928 21.2049L27.9244 46.851L28.016 20.0044Z" fill="#3DBBF0"/>
<path d="M31.9418 57.7525L35.4137 57.6751L35.1149 57.6587L31.9418 57.7525Z" fill="#3DBBF0"/>
<path d="M28.1635 48.0011L28.3633 48.5262L28.611 49.0109L28.1635 48.0011ZM28.0156 20.0044L27.9241 46.851L28.611 49.0109L28.0156 20.0044Z" fill="#3DBBF0"/>
<path d="M31.5939 50.8139L35.0658 50.7392L35.5339 50.7056L31.5939 50.8139Z" fill="#3DBBF0"/>
<path d="M28.9404 58.6565L28.697 58.8784L28.4651 59.1242L28.9404 58.6565ZM28.016 20.0044L27.9243 20.5917L27.8928 21.2049L28.016 20.0044ZM28.4652 67.6432L28.9404 68.1471L29.4613 68.5527L28.4652 67.6432Z" fill="#3DBBF0"/>
<path d="M32.2327 69.1575L35.7046 69.0745L35.9871 69.0172L32.2327 69.1575ZM32.2327 57.7941L35.7047 57.7156L35.414 57.6753L32.2327 57.7941Z" fill="#3DBBF0"/>
<path d="M28.3628 18.9272L28.163 19.4469L28.0152 20.003L28.3628 18.9272ZM28.9396 68.1458L29.1944 68.3608L29.4605 68.5513L28.9396 68.1458Z" fill="#3DBBF0"/>
<path d="M32.0621 50.7805L35.5341 50.7048L35.9831 50.5915L32.0621 50.7805ZM31.5939 16.7288L35.0663 16.6667L34.8137 16.6636L31.5939 16.7288ZM32.5156 69.0994L35.9875 69.0164L36.2619 68.9342L32.5156 69.0994Z" fill="#3DBBF0"/>
<path d="M28.6104 49.0103L28.902 49.4493L29.2334 49.8368L28.6104 49.0103Z" fill="#3DBBF0"/>
<path d="M32.5147 57.8572L35.9867 57.7784L35.7042 57.7144L32.5147 57.8572Z" fill="#3DBBF0"/>
<path d="M29.461 58.2844L29.1948 58.4584L28.9401 58.6563L29.461 58.2844ZM28.9025 18.02L28.3633 18.9284L28.0157 20.0042L28.9025 18.02Z" fill="#3DBBF0"/>
<path d="M32.7893 69.0184L36.2612 68.9354L36.5274 68.8283L32.7893 69.0184ZM32.7893 57.9459L36.2613 57.8673L35.9869 57.7798L32.7893 57.9459Z" fill="#3DBBF0"/>
<path d="M28.9012 18.019L28.6098 18.4496L28.3621 18.9274L28.9012 18.019ZM28.6099 49.0097L29.2325 49.8357L29.9975 50.4343L28.6099 49.0097ZM30.0263 58.0072L29.4598 58.2834L28.9389 58.6554L30.0263 58.0072Z" fill="#3DBBF0"/>
<path d="M32.0615 16.7757L35.5337 16.7137L35.0656 16.6665L32.0615 16.7757ZM32.5104 50.6669L35.9825 50.5912L36.4082 50.4039L32.5104 50.6669Z" fill="#3DBBF0"/>
<path d="M29.461 68.5538L29.7386 68.7196L30.0275 68.8609L29.461 68.5538ZM30.4243 16.8774L28.0157 20.0055L28.6111 49.012L30.4243 16.8774Z" fill="#3DBBF0"/>
<path d="M33.0558 68.9106L36.5277 68.8276L36.7858 68.6956L33.0558 68.9106ZM33.0559 58.0565L36.5278 57.9779L36.2615 57.8667L33.0559 58.0565Z" fill="#3DBBF0"/>
<path d="M30.0265 58.0079L29.7376 58.1341L29.46 58.2841L30.0265 58.0079ZM29.2328 49.8364L29.5995 50.1669L29.9978 50.435L29.2328 49.8364Z" fill="#3DBBF0"/>
<path d="M31.2971 57.741L31.6431 57.7347L34.769 57.6636L31.2971 57.741Z" fill="#3DBBF0"/>
<path d="M33.5643 58.3501L28.9399 58.6566L26.9642 63.5599L33.5643 58.3501ZM29.4608 68.5527L30.0273 68.8599L30.6395 69.0686L29.4608 68.5527Z" fill="#3DBBF0"/>
<path d="M33.3141 68.7774L36.7859 68.6945L37.0359 68.5375L33.3141 68.7774ZM32.5107 16.9014L35.983 16.8393L35.534 16.7134L32.5107 16.9014Z" fill="#3DBBF0"/>
<path d="M30.4243 16.8774L28.9025 18.0213L28.0157 20.0055L30.4243 16.8774Z" fill="#3DBBF0"/>
<path d="M33.313 58.1905L36.7848 58.1118L36.5267 57.977L33.313 58.1905ZM32.9353 50.4794L36.4073 50.4039L36.8057 50.1479L32.9353 50.4794ZM31.9408 69.1886L31.642 69.196L35.4128 69.1056L31.9408 69.1886Z" fill="#3DBBF0"/>
<path d="M26.9635 63.5598L29.4601 68.5526L34.0392 68.2325L26.9635 63.5598ZM29.5995 17.3218L29.2327 17.642L28.9015 18.0201L29.5995 17.3218ZM31.2965 57.7432L30.0266 58.0083L28.9392 58.6564L31.2965 57.7432ZM30.0266 68.8597L30.327 68.9764L30.6387 69.0684L30.0266 68.8597Z" fill="#3DBBF0"/>
<path d="M31.642 57.7372L31.9408 57.7538L35.114 57.6587L31.642 57.7372ZM33.5629 68.6218L37.0347 68.5389L37.2766 68.357L33.5629 68.6218ZM33.563 58.3502L37.0348 58.2715L36.7848 58.113L33.563 58.3502Z" fill="#3DBBF0"/>
<path d="M28.6104 49.0103L29.998 50.4348L31.5931 50.8147L28.6104 49.0103Z" fill="#3DBBF0"/>
<path d="M32.2325 69.1572L31.9418 69.1895L35.7045 69.0741L32.2325 69.1572ZM33.3348 50.2243L36.8067 50.1488L37.1737 49.8296L33.3348 50.2243Z" fill="#3DBBF0"/>
<path d="M30.6393 57.8276L30.3273 57.9061L30.0267 58.0087L30.6393 57.8276Z" fill="#3DBBF0"/>
<path d="M32.937 17.1017L36.4091 17.0395L35.9834 16.8403L32.937 17.1017ZM33.8064 68.4394L37.2782 68.3566L37.5119 68.1498L33.8064 68.4394ZM31.9424 57.7534L32.2331 57.7937L35.4144 57.675L31.9424 57.7534ZM32.0621 50.781L31.5939 50.8151L35.5341 50.7053L32.0621 50.781ZM33.8065 58.5321L37.2783 58.4533L37.0364 58.2712L33.8065 58.5321Z" fill="#3DBBF0"/>
<path d="M29.4602 68.5528L30.6389 69.0686L31.9415 69.1898L29.4602 68.5528ZM30.4235 16.8765L29.5996 17.322L28.9017 18.0203L30.4235 16.8765Z" fill="#3DBBF0"/>
<path d="M32.5152 69.1003L32.2327 69.1578L35.9871 69.0171L32.5152 69.1003Z" fill="#3DBBF0"/>
<path d="M29.9982 50.436L30.4241 50.6371L30.8733 50.7647L29.9982 50.436Z" fill="#3DBBF0"/>
<path d="M34.0394 68.2319L37.5111 68.1492L37.7367 67.9174L34.0394 68.2319ZM31.3406 16.7256L31.5932 16.7288L34.813 16.6636L31.3406 16.7256Z" fill="#3DBBF0"/>
<path d="M31.2975 57.7427L30.6393 57.8276L30.0267 58.0086L31.2975 57.7427Z" fill="#3DBBF0"/>
<path d="M34.0398 58.7381L37.5116 58.6592L37.2779 58.4535L34.0398 58.7381ZM32.2327 57.794L32.5152 57.8579L35.7047 57.7155L32.2327 57.794ZM33.702 49.9052L37.1738 49.8298L37.5052 49.4526L33.702 49.9052Z" fill="#3DBBF0"/>
<path d="M30.6391 69.0679L30.9625 69.1345L31.2973 69.1768L30.6391 69.0679Z" fill="#3DBBF0"/>
<path d="M33.3346 17.3689L36.8067 17.3066L36.4082 17.0396L33.3346 17.3689ZM32.7891 69.0178L32.5147 69.1L36.261 68.9348L32.7891 69.0178ZM34.2649 68.0006L37.7366 67.918L37.9541 67.6612L34.2649 68.0006Z" fill="#3DBBF0"/>
<path d="M30.4247 16.8765L29.9988 17.0651L29.6002 17.3223L30.4247 16.8765Z" fill="#3DBBF0"/>
<path d="M32.5111 50.6669L32.0621 50.7803L35.9831 50.5912L32.5111 50.6669ZM34.2658 58.9666L37.7376 58.8876L37.512 58.6582L34.2658 58.9666ZM31.5939 16.7285L32.0621 16.7757L35.0663 16.6665L31.5939 16.7285ZM32.5156 57.8569L32.79 57.9445L35.9876 57.7784L32.5156 57.8569Z" fill="#3DBBF0"/>
<path d="M31.2969 57.744L30.9623 57.7743L30.6391 57.8286L31.2969 57.744ZM29.9982 50.436L30.8727 50.7636L31.5933 50.8159L29.9982 50.436Z" fill="#3DBBF0"/>
<path d="M34.0334 49.529L37.5053 49.4538L37.797 49.0239L34.0334 49.529Z" fill="#3DBBF0"/>
<path d="M30.6391 69.0679L31.2973 69.1768L31.9426 69.1875L30.6391 69.0679Z" fill="#3DBBF0"/>
<path d="M34.4826 67.7432L37.9542 67.6607L38.1636 67.379L34.4826 67.7432ZM33.0556 68.9101L32.7893 69.0173L36.5274 68.8272L33.0556 68.9101ZM34.4826 59.2201L37.9543 59.141L37.7369 58.888L34.4826 59.2201ZM33.7017 17.6981L37.1738 17.6356L36.8068 17.3062L33.7017 17.6981ZM32.7893 57.9448L33.0556 58.056L36.2613 57.8663L32.7893 57.9448Z" fill="#3DBBF0"/>
<path d="M33.5634 58.3494L31.2963 57.7427L28.939 58.6558L33.5634 58.3494Z" fill="#3DBBF0"/>
<path d="M34.6913 67.4618L38.1629 67.3795L38.3596 67.081L34.6913 67.4618ZM34.6913 59.4974L38.163 59.4182L37.9537 59.1415L34.6913 59.4974ZM32.9355 50.4803L32.5097 50.6677L36.4075 50.4047L32.9355 50.4803ZM34.3241 49.0976L37.7959 49.0226L38.0438 48.5454L34.3241 49.0976Z" fill="#3DBBF0"/>
<path d="M28.6104 49.0103L31.5931 50.8147L33.3345 50.2238L28.6104 49.0103Z" fill="#3DBBF0"/>
<path d="M33.314 68.7789L33.0558 68.9114L36.7858 68.6958L33.314 68.7789Z" fill="#3DBBF0"/>
<path d="M31.2973 69.179L31.6433 69.1973L31.9421 69.1899L31.2973 69.179ZM34.0399 68.2328L33.5643 58.3503L26.9642 63.5601L34.0399 68.2328ZM30.8731 50.7632L31.3412 50.8117L31.5937 50.8155L30.8731 50.7632Z" fill="#3DBBF0"/>
<path d="M32.0615 16.7754L32.5105 16.9014L35.5337 16.7134L32.0615 16.7754ZM34.0333 18.0841L37.5053 18.0215L37.1739 17.635L34.0333 18.0841ZM34.8887 67.1622L38.3604 67.0799L38.54 66.7729L34.8887 67.1622ZM33.0557 58.0554L33.3139 58.1903L36.5276 57.9768L33.0557 58.0554ZM34.8888 59.7874L38.3605 59.7081L38.1637 59.4171L34.8888 59.7874ZM34.5728 48.6192L38.0446 48.5443L38.2446 48.0252L34.5728 48.6192Z" fill="#3DBBF0"/>
<path d="M29.4608 68.553L31.9421 69.19L34.0399 68.2329L29.4608 68.553Z" fill="#3DBBF0"/>
<path d="M33.5636 68.6207L33.3136 68.7781L37.0354 68.5376L33.5636 68.6207Z" fill="#3DBBF0"/>
<path d="M31.9423 57.7518L31.6433 57.7358L31.2971 57.742L31.9423 57.7518Z" fill="#3DBBF0"/>
<path d="M35.0683 66.8552L38.5399 66.7731L38.7025 66.4575L35.0683 66.8552ZM35.0684 60.0836L38.54 60.0041L38.3604 59.7083L35.0684 60.0836ZM33.3347 50.2234L32.9362 50.4794L36.8066 50.1479L33.3347 50.2234Z" fill="#3DBBF0"/>
<path d="M31.3411 16.7251L30.8726 16.7606L30.4234 16.8756L31.3411 16.7251Z" fill="#3DBBF0"/>
<path d="M34.7725 48.1003L38.2443 48.0256L38.3922 47.4698L34.7725 48.1003ZM33.3136 58.1908L33.5636 58.3493L36.7855 58.1121L33.3136 58.1908ZM34.3247 18.5228L37.7967 18.46L37.505 18.022L34.3247 18.5228Z" fill="#3DBBF0"/>
<path d="M35.0439 46.3442L30.4236 16.8765L28.6104 49.011L35.0439 46.3442Z" fill="#3DBBF0"/>
<path d="M35.2311 66.5404L38.7027 66.4583L38.8481 66.1342L35.2311 66.5404ZM35.2312 60.3853L38.7028 60.3057L38.5403 60.005L35.2312 60.3853ZM32.5107 16.9024L32.9366 17.1017L35.983 16.8403L32.5107 16.9024ZM33.806 68.4394L33.5641 68.6214L37.2778 68.3566L33.806 68.4394ZM34.921 47.5448L38.3927 47.4704L38.4845 46.8832L34.921 47.5448Z" fill="#3DBBF0"/>
<path d="M32.516 57.8557L31.9424 57.7528L31.2971 57.7427L32.516 57.8557Z" fill="#3DBBF0"/>
<path d="M35.3763 66.2161L38.8479 66.1342L38.9762 65.8015L35.3763 66.2161ZM35.0125 46.9574L38.4843 46.8832L38.5158 46.27L35.0125 46.9574ZM35.3763 60.6911L38.8479 60.6114L38.7025 60.3058L35.3763 60.6911ZM33.5639 58.3499L33.8058 58.5321L37.0357 58.2712L33.5639 58.3499Z" fill="#3DBBF0"/>
<path d="M31.9418 69.1885L32.2327 69.1566L32.5154 69.1001L31.9418 69.1885Z" fill="#3DBBF0"/>
<path d="M34.5731 19.0075L38.0451 18.9446L37.7972 18.4604L34.5731 19.0075ZM35.5048 65.8831L38.9764 65.8014L39.0876 65.4601L35.5048 65.8831ZM33.7019 49.9048L33.3349 50.2241L37.1738 49.8295L33.7019 49.9048ZM34.0397 68.2323L33.806 68.4393L37.5115 68.1496L34.0397 68.2323ZM35.5049 61.0016L38.9765 60.9218L38.8482 60.6113L35.5049 61.0016Z" fill="#3DBBF0"/>
<path d="M32.0611 16.7756L31.3404 16.7251L30.4234 16.8755L32.0611 16.7756Z" fill="#3DBBF0"/>
<path d="M35.0441 46.3434L38.5158 46.2695L38.5161 21.2329L35.0441 46.3434ZM35.6159 65.5413L39.0874 65.4597L39.1815 65.1098L35.6159 65.5413Z" fill="#3DBBF0"/>
<path d="M31.5939 50.8155L32.0624 50.7813L32.5117 50.6675L31.5939 50.8155Z" fill="#3DBBF0"/>
<path d="M34.7726 19.5318L38.2445 19.4687L38.0445 18.9438L34.7726 19.5318ZM35.6155 61.3165L39.0871 61.2366L38.9759 60.9211L35.6155 61.3165ZM33.8054 58.5312L34.0392 58.737L37.2772 58.4524L33.8054 58.5312Z" fill="#3DBBF0"/>
<path d="M32.5155 57.8563L32.2327 57.7932L31.9418 57.7534L32.5155 57.8563Z" fill="#3DBBF0"/>
<path d="M32.9362 17.1019L33.3347 17.3698L36.4084 17.0396L32.9362 17.1019Z" fill="#3DBBF0"/>
<path d="M31.9418 69.1915L32.5155 69.1016L33.0566 68.9116L31.9418 69.1915Z" fill="#3DBBF0"/>
<path d="M35.71 65.1906L39.1816 65.1091L39.2586 64.7507L35.71 65.1906ZM35.71 61.6366L39.1816 61.5565L39.0875 61.2362L35.71 61.6366ZM34.2652 67.9993L34.0396 68.2312L37.7369 67.9167L34.2652 67.9993ZM34.921 20.0917L38.3929 20.0283L38.245 19.4683L34.921 20.0917ZM35.787 64.8321L39.2586 64.7507L39.3184 64.3838L35.787 64.8321ZM35.787 61.962L39.2586 61.8818L39.1816 61.5565L35.787 61.962ZM35.8469 64.465L39.3184 64.3838L39.3612 64.0083L35.8469 64.465ZM34.0332 49.5263L33.7018 49.9037L37.505 49.4511L34.0332 49.5263ZM35.8469 62.2922L39.3185 62.2119L39.2586 61.8818L35.8469 62.2922ZM34.0397 58.7366L34.2653 58.9661L37.5114 58.6578L34.0397 58.7366Z" fill="#3DBBF0"/>
<path d="M33.5642 58.3494L32.5152 57.8572L31.2971 57.7427L33.5642 58.3494Z" fill="#3DBBF0"/>
<path d="M35.0128 20.6822L38.4846 20.6186L38.3929 20.0288L35.0128 20.6822ZM35.8897 64.0899L39.3612 64.0088L39.3869 63.6248L35.8897 64.0899ZM35.8897 62.6279L39.3612 62.5475L39.3185 62.2124L35.8897 62.6279ZM35.0443 21.2966L38.5161 21.2327L38.4846 20.6186L35.0443 21.2966ZM35.9153 63.7057L39.3869 63.6248L39.3954 63.2322L35.9153 63.7057ZM35.9153 62.968L39.3869 62.8874L39.3612 62.5475L35.9153 62.968Z" fill="#3DBBF0"/>
<path d="M32.0618 16.7754L31.5933 16.7283L31.3406 16.7251L32.0618 16.7754Z" fill="#3DBBF0"/>
<path d="M35.924 63.3137L39.3955 63.233L39.387 62.8882L35.924 63.3137Z" fill="#3DBBF0"/>
<path d="M28.6104 49.01L33.3345 50.2236L35.0439 46.3433L28.6104 49.01ZM32.5148 69.0993L32.7892 69.0171L33.0555 68.9099L32.5148 69.0993Z" fill="#3DBBF0"/>
<path d="M34.4829 67.7443L34.2654 68.0019L37.9546 67.6616L34.4829 67.7443Z" fill="#3DBBF0"/>
<path d="M31.5939 50.815L32.5111 50.6675L33.3353 50.2241L31.5939 50.815Z" fill="#3DBBF0"/>
<path d="M33.3349 17.3684L33.7019 17.6981L36.807 17.3062L33.3349 17.3684ZM34.2653 58.967L34.4828 59.2201L37.7371 58.888L34.2653 58.967ZM34.325 49.0972L34.0332 49.5272L37.7968 49.0221L34.325 49.0972ZM34.6921 67.4614L34.4827 67.7432L38.1638 67.379L34.6921 67.4614Z" fill="#3DBBF0"/>
<path d="M33.0558 58.0567L32.7895 57.9455L32.5151 57.8579L33.0558 58.0567ZM31.9418 69.1897L33.0558 68.9108L34.0397 68.2327L31.9418 69.1897Z" fill="#3DBBF0"/>
<path d="M34.4834 59.2204L34.6927 59.498L37.9551 59.1411L34.4834 59.2204Z" fill="#3DBBF0"/>
<path d="M33.7015 17.6989L32.0611 16.7769L30.4234 16.8765L33.7015 17.6989Z" fill="#3DBBF0"/>
<path d="M34.8887 67.1624L34.692 67.461L38.3603 67.0802L34.8887 67.1624ZM33.7018 17.6977L34.0332 18.0843L37.1738 17.6353L33.7018 17.6977ZM34.5727 48.6194L34.3248 49.0968L38.0445 48.5446L34.5727 48.6194Z" fill="#3DBBF0"/>
<path d="M33.5644 58.3505L33.0558 58.0569L32.5147 57.8579L33.5644 58.3505Z" fill="#3DBBF0"/>
<path d="M34.6914 59.4969L34.8881 59.7888L38.1631 59.4175L34.6914 59.4969Z" fill="#3DBBF0"/>
<path d="M32.5097 50.6675L32.9355 50.4801L33.334 50.2241L32.5097 50.6675ZM33.0549 68.9104L33.3131 68.7783L33.5631 68.6213L33.0549 68.9104Z" fill="#3DBBF0"/>
<path d="M35.0676 66.8548L34.888 67.1619L38.5392 66.7726L35.0676 66.8548ZM34.772 48.0995L34.572 48.6189L38.2438 48.0249L34.772 48.0995ZM34.888 59.7871L35.0676 60.0831L38.3597 59.7078L34.888 59.7871Z" fill="#3DBBF0"/>
<path d="M33.5644 58.3506L33.3142 58.1915L33.0558 58.0562L33.5644 58.3506Z" fill="#3DBBF0"/>
<path d="M34.0334 18.0846L34.3252 18.5228L37.5055 18.022L34.0334 18.0846Z" fill="#3DBBF0"/>
<path d="M33.0557 68.9109L33.5639 68.6218L34.0395 68.2328L33.0557 68.9109ZM32.9363 17.1021L32.5105 16.9028L32.0615 16.7769L32.9363 17.1021Z" fill="#3DBBF0"/>
<path d="M35.2311 66.5402L35.0686 66.856L38.7027 66.4582L35.2311 66.5402ZM35.0686 60.0843L35.2312 60.3852L38.5403 60.0048L35.0686 60.0843ZM34.921 47.5447L34.773 48.1007L38.3927 47.4702L34.921 47.5447ZM35.3766 66.216L35.2311 66.5402L38.8481 66.1341L35.3766 66.216ZM35.0128 46.9572L34.921 47.5447L38.4845 46.8831L35.0128 46.9572ZM34.3253 18.5232L34.5732 19.0075L37.7972 18.4604L34.3253 18.5232ZM35.2312 60.3852L35.3766 60.691L38.7028 60.3056L35.2312 60.3852Z" fill="#3DBBF0"/>
<path d="M33.5639 68.6222L33.806 68.44L34.0399 68.2329L33.5639 68.6222Z" fill="#3DBBF0"/>
<path d="M35.0443 46.3439L35.0128 46.9574L38.516 46.27L35.0443 46.3439ZM35.5049 65.8833L35.3765 66.2161L38.9764 65.8015L35.5049 65.8833Z" fill="#3DBBF0"/>
<path d="M35.0437 46.3442L33.7015 17.6988L30.4234 16.8765L35.0437 46.3442Z" fill="#3DBBF0"/>
<path d="M35.3759 60.6905L35.5042 61.0012L38.8475 60.6108L35.3759 60.6905Z" fill="#3DBBF0"/>
<path d="M33.7018 17.6989L32.9363 17.1021L32.0615 16.7769L33.7018 17.6989Z" fill="#3DBBF0"/>
<path d="M35.6158 65.5421L35.5046 65.8835L39.0873 65.4604L35.6158 65.5421Z" fill="#3DBBF0"/>
<path d="M34.0399 58.7384L33.806 58.5324L33.5639 58.3501L34.0399 58.7384Z" fill="#3DBBF0"/>
<path d="M34.573 19.0068L34.773 19.5318L38.045 18.9438L34.573 19.0068ZM35.5047 61.0009L35.6159 61.3165L38.9763 60.9211L35.5047 61.0009Z" fill="#3DBBF0"/>
<path d="M33.3349 50.225L33.7022 49.9054L34.0338 49.5278L33.3349 50.225Z" fill="#3DBBF0"/>
<path d="M35.7095 65.1906L35.6154 65.5406L39.1811 65.1091L35.7095 65.1906ZM35.6154 61.3161L35.7095 61.6366L39.087 61.2362L35.6154 61.3161ZM34.7725 19.5314L34.9205 20.0917L38.2444 19.4683L34.7725 19.5314ZM35.7865 64.8321L35.7095 65.1906L39.2581 64.7507L35.7865 64.8321ZM35.0438 21.2961L35.0436 46.3427L38.5157 21.2322L35.0438 21.2961Z" fill="#3DBBF0"/>
<path d="M34.4833 59.2214L34.0399 58.7384L33.5639 58.3501L34.4833 59.2214Z" fill="#3DBBF0"/>
<path d="M35.7103 61.6372L35.7873 61.9626L39.1819 61.5571L35.7103 61.6372ZM35.8472 64.4656L35.7873 64.8327L39.3187 64.3844L35.8472 64.4656Z" fill="#3DBBF0"/>
<path d="M34.0397 68.2328L34.2655 68.0007L34.4831 67.7437L34.0397 68.2328Z" fill="#3DBBF0"/>
<path d="M35.7865 61.9625L35.8463 62.2928L39.258 61.8823L35.7865 61.9625ZM34.9204 20.0922L35.0122 20.6822L38.3923 20.0288L34.9204 20.0922ZM35.8891 64.0899L35.8463 64.4655L39.3606 64.0088L35.8891 64.0899ZM35.8463 62.2928L35.8891 62.6279L39.3179 62.2124L35.8463 62.2928ZM35.9148 63.7057L35.8891 64.0899L39.3863 63.6248L35.9148 63.7057ZM35.0122 20.6822L35.0437 21.2966L38.4841 20.6186L35.0122 20.6822ZM35.8891 62.6279L35.9148 62.968L39.3607 62.5475L35.8891 62.6279Z" fill="#3DBBF0"/>
<path d="M33.3349 50.2247L34.0333 49.528L34.573 48.6206L33.3349 50.2247Z" fill="#3DBBF0"/>
<path d="M35.9243 63.3136L35.9158 63.7064L39.3959 63.2329L35.9243 63.3136Z" fill="#3DBBF0"/>
<path d="M33.7023 17.6993L33.335 17.3694L32.9362 17.1021L33.7023 17.6993Z" fill="#3DBBF0"/>
<path d="M35.9158 62.9688L35.9243 63.3137L39.3873 62.8882L35.9158 62.9688Z" fill="#3DBBF0"/>
<path d="M34.4829 59.2198L34.2654 58.9667L34.0398 58.7372L34.4829 59.2198ZM34.0397 68.2317L34.4828 67.7429L34.8889 67.1625L34.0397 68.2317ZM35.2311 60.3846L34.4829 59.2198L33.5641 58.3491L35.2311 60.3846ZM34.0397 68.2317L35.9155 62.968L33.5641 58.3491L34.0397 68.2317ZM34.4828 67.7429L34.6922 67.4611L34.8889 67.1625L34.4828 67.7429ZM34.0333 49.5269L34.3251 49.0968L34.573 48.6195L34.0333 49.5269ZM33.3349 50.2235L34.573 48.6195L35.0442 46.3432L33.3349 50.2235ZM34.0397 68.2317L34.8889 67.1625L35.5048 65.8825L34.0397 68.2317ZM34.889 59.7877L34.6922 59.4966L34.4829 59.2198L34.889 59.7877ZM35.2311 60.3846L34.889 59.7877L34.4829 59.2198L35.2311 60.3846ZM34.3252 18.5226L34.0335 18.0844L33.702 17.6978L34.3252 18.5226ZM35.9155 62.968L35.2311 60.3846L33.5641 58.3491L35.9155 62.968ZM34.8889 67.1625L35.0686 66.8553L35.2311 66.5396L34.8889 67.1625ZM34.573 48.6195L34.773 48.1001L34.9209 47.544L34.573 48.6195ZM34.0397 68.2317L35.5048 65.8825L35.9155 62.968L34.0397 68.2317ZM35.2311 60.3846L35.0686 60.0837L34.889 59.7877L35.2311 60.3846ZM34.8889 67.1625L35.2311 66.5396L35.5048 65.8825L34.8889 67.1625ZM34.573 48.6195L34.9209 47.544L35.0442 46.3432L34.573 48.6195ZM34.7731 19.5319L34.3252 18.5226L33.702 17.6978L34.7731 19.5319ZM35.0442 46.3432L34.7731 19.5319L33.702 17.6978L35.0442 46.3432ZM35.2311 66.5396L35.3765 66.2153L35.5048 65.8825L35.2311 66.5396ZM34.9209 47.544L35.0127 46.9566L35.0442 46.3432L34.9209 47.544ZM35.5049 61.001L35.3765 60.6903L35.2311 60.3846L35.5049 61.001ZM34.7731 19.5319L34.5731 19.0069L34.3252 18.5226L34.7731 19.5319ZM35.7102 61.6371L35.5049 61.001L35.2311 60.3846L35.7102 61.6371ZM35.5048 65.8825L35.616 65.5411L35.7101 65.1911L35.5048 65.8825ZM35.5048 65.8825L35.7101 65.1911L35.847 64.4655L35.5048 65.8825ZM35.7102 61.6371L35.6161 61.3166L35.5049 61.001L35.7102 61.6371ZM35.9155 62.968L35.7102 61.6371L35.2311 60.3846L35.9155 62.968ZM35.0442 46.3432L35.0129 20.6822L34.7731 19.5319L35.0442 46.3432ZM35.5048 65.8825L35.847 64.4655L35.9155 62.968L35.5048 65.8825ZM35.0442 46.3432L35.0444 21.2966L35.0129 20.6822L35.0442 46.3432ZM35.7101 65.1911L35.7871 64.8326L35.847 64.4655L35.7101 65.1911ZM35.0129 20.6822L34.9211 20.0922L34.7731 19.5319L35.0129 20.6822ZM35.847 62.2928L35.7872 61.9625L35.7102 61.6371L35.847 62.2928ZM35.9155 62.968L35.847 62.2928L35.7102 61.6371L35.9155 62.968ZM35.847 64.4655L35.8898 64.0899L35.9155 63.7057L35.847 64.4655ZM35.847 64.4655L35.9155 63.7057L35.9155 62.968L35.847 64.4655ZM35.9155 62.968L35.8898 62.6279L35.847 62.2928L35.9155 62.968ZM35.9155 63.7057L35.924 63.3129L35.9155 62.968L35.9155 63.7057Z" fill="#3DBBF0"/>
</mask>
<g mask="url(#mask1_1157_118187)">
<ellipse cx="51.303" cy="47.1936" rx="51.303" ry="47.1936" transform="matrix(0.999046 0.043279 -0.0428909 0.999097 -9.42725 -2.08154)" fill="url(#paint4_radial_1157_118187)"/>
</g>
<path d="M31.1357 50.4903C28.8529 50.4903 27.0024 48.6398 27.0024 46.3569L27.0024 20.797C27.0024 18.5142 28.8529 16.6636 31.1357 16.6636C33.4184 16.6636 35.269 18.5142 35.269 20.797L35.269 46.3569C35.269 48.6398 33.4184 50.4903 31.1357 50.4903ZM25.9183 62.8246C25.9183 61.4459 26.4152 60.1903 27.409 59.0578C28.4028 57.9253 29.7128 57.3591 31.339 57.3591C32.7393 57.3591 33.9138 57.9253 34.8624 59.0578C35.811 60.1903 36.2853 61.4459 36.2853 62.8246C36.2853 64.4002 35.811 65.7789 34.8624 66.9606C33.9138 68.1423 32.7393 68.7332 31.339 68.7332C29.7128 68.7332 28.4028 68.1423 27.409 66.9606C26.4152 65.7789 25.9183 64.4002 25.9183 62.8246Z" fill="url(#paint5_linear_1157_118187)"/>
<defs>
<filter id="filter0_d_1157_118187" x="21.9553" y="10.6636" width="32.4406" height="72.5337" filterUnits="userSpaceOnUse" color-interpolation-filters="sRGB">
<feFlood flood-opacity="0" result="BackgroundImageFix"/>
<feColorMatrix in="SourceAlpha" type="matrix" values="0 0 0 0 0 0 0 0 0 0 0 0 0 0 0 0 0 0 127 0" result="hardAlpha"/>
<feOffset dx="5" dy="4"/>
<feGaussianBlur stdDeviation="5"/>
<feColorMatrix type="matrix" values="0 0 0 0 0 0 0 0 0 0.547259 0 0 0 0 0.775 0 0 0 1 0"/>
<feBlend mode="normal" in2="BackgroundImageFix" result="effect1_dropShadow_1157_118187"/>
<feBlend mode="normal" in="SourceGraphic" in2="effect1_dropShadow_1157_118187" result="shape"/>
</filter>
<radialGradient id="paint0_radial_1157_118187" cx="0" cy="0" r="1" gradientUnits="userSpaceOnUse" gradientTransform="translate(104.044 80.6464) rotate(90) scale(80.6464 104.044)">
<stop stop-color="#BFEBFF"/>
<stop offset="1" stop-color="#50C7FC" stop-opacity="0"/>
</radialGradient>
<linearGradient id="paint1_linear_1157_118187" x1="0.842684" y1="-31.0707" x2="67.5775" y2="142.995" gradientUnits="userSpaceOnUse">
<stop stop-color="#33BDF7"/>
<stop offset="1" stop-color="#9ADEFC"/>
</linearGradient>
<linearGradient id="paint2_linear_1157_118187" x1="7.00934" y1="5.75635" x2="60.0665" y2="96.8488" gradientUnits="userSpaceOnUse">
<stop stop-color="#9ADEFC"/>
<stop offset="1" stop-color="#33BDF7"/>
</linearGradient>
<linearGradient id="paint3_linear_1157_118187" x1="30.2085" y1="6.76134" x2="46.8311" y2="71.8722" gradientUnits="userSpaceOnUse">
<stop stop-color="#0BA7E8"/>
<stop offset="1" stop-color="#8FDBFC"/>
</linearGradient>
<radialGradient id="paint4_radial_1157_118187" cx="0" cy="0" r="1" gradientUnits="userSpaceOnUse" gradientTransform="translate(51.303 47.1936) rotate(90) scale(47.1936 51.303)">
<stop stop-color="#BFEBFF"/>
<stop offset="1" stop-color="#50C7FC" stop-opacity="0"/>
</radialGradient>
<linearGradient id="paint5_linear_1157_118187" x1="31.1018" y1="16.6636" x2="31.1018" y2="68.7332" gradientUnits="userSpaceOnUse">
<stop stop-color="white"/>
<stop offset="1" stop-color="#E9F9FF"/>
</linearGradient>
</defs>
</svg>
