<svg width="166" height="196" fill="none" xmlns="http://www.w3.org/2000/svg"><path d="m6.01 101.194 1.199 12.235 2.309 11.779-3.508-24.014Zm1.185-24.975-1.199 12.4.014 12.575 1.185-24.975ZM6.01 101.194l3.508 24.014 7.66 21.714L6.01 101.194Zm3.508 24.014 3.347 11.203 4.312 10.511-7.66-21.714Zm3.405-71.675L7.195 76.219 6.01 101.194l6.913-47.662Zm0 0L9.532 64.49 7.195 76.22l5.728-22.686Zm4.254 93.389 5.206 9.698 6.029 8.765-11.235-18.463ZM6.01 101.194l11.167 45.728 25.473 32.71-36.64-78.438Zm29.381-81.867L12.923 53.534l-6.913 47.66 29.381-81.867ZM22.54 34.308l-5.254 9.132-4.363 10.093 9.617-19.224Zm-5.363 112.615 11.235 18.463 14.238 14.247-25.473-32.71ZM35.391 19.328l-29.38 81.866 36.639 78.438-7.26-160.305Zm-6.98 146.057 6.78 7.712 7.459 6.535-14.238-14.247Zm6.98-146.058L22.54 34.307l-9.617 19.225L35.39 19.328Zm0 0-6.789 6.91-6.062 8.07 12.851-14.98Zm7.259 160.305 8.066 5.236 8.603 3.813-16.67-9.049Zm8.169-170.24-7.995 4.286-7.433 5.65L50.82 9.39Zm-8.17 170.24 16.67 9.049 18.233 2.843-34.902-11.892Zm59.841 8.942 3.879-.496 8.459-2.667-12.338 3.163ZM84.366 3.979l9.116.412-5.229-.81-3.887.398Zm9.116.412 3.886-.398-9.115-.412 5.229.81Z" fill="#00A2E5"/><path d="M68.214 5.408 50.937 9.485l-15.37 9.932L68.215 5.408Zm-8.809 183.276 9.034 2.262 9.13.58-18.164-2.842Zm51.589-2.756-8.49 2.668 12.381-3.163-3.891.495Zm-12.386 3.164 3.896-.496 8.49-2.668-12.386 3.164ZM80.411 4.348l9.149.413-5.244-.811-3.905.398Zm9.149.413 3.903-.4-9.147-.411 5.244.81Zm21.434 181.167 3.891-.495 8.037-4.149-11.928 4.644ZM93.463 4.362l9.082 2.105-5.183-2.504-3.899.399ZM107.1 186.423l-8.492 2.669 12.386-3.164-3.894.495ZM102.545 6.467l3.897-.4-9.08-2.104 5.183 2.504ZM94.708 189.59l3.9-.497 8.492-2.669-12.392 3.166ZM76.502 4.746l9.15.414-5.241-.812-3.909.398Z" fill="#00A2E5"/><path d="m67.999 5.466-8.93 1.268-8.532 2.85L68 5.466Zm17.676-.294 3.905-.399-9.144-.413 5.239.812Zm33.366 176.61-8.035 4.151 11.923-4.644-3.888.493Zm-76.061-2.199 35.151 12.035 33.232-13.639-68.384 1.604Z" fill="#00A2E5"/><path d="m107.129 186.447 3.901-.496 8.052-4.151-11.953 4.647ZM89.56 4.747l9.098 2.108-5.188-2.506-3.91.399Zm13.664 182.196-8.506 2.671 12.411-3.167-3.905.496ZM98.658 6.855l3.908-.4-9.096-2.106 5.188 2.506Zm-7.85 183.256 3.91-.497 8.506-2.671-12.416 3.168ZM72.562 5.133l9.167.414-5.247-.813-3.92.399Zm46.52 176.667 3.895-.493 7.51-5.536-11.405 6.029ZM35.583 19.402l7.28 160.442 98.219-84.034L35.583 19.402Z" fill="#00A2E5"/><path d="m81.723 5.559 3.91-.4-9.146-.413 5.236.813Zm20.794.908 8.641 3.676-4.745-4.076-3.896.4Zm12.589 175.795-8.036 4.152 11.927-4.646-3.891.494Zm-3.948-172.119 3.894-.402-8.639-3.674 4.745 4.076Zm-7.985 176.766 3.897-.495 8.036-4.152-11.933 4.647ZM85.633 5.159l9.08 2.108-5.174-2.507-3.906.4Zm17.774 11.756L68.029 5.423 35.027 19.601l68.38-2.686Z" fill="#00A2E5"/><path d="m99.299 187.437-8.512 2.673 12.423-3.169-3.911.496ZM94.727 7.241l3.914-.4-9.102-2.108 5.188 2.508Zm31.861 169.018-7.514 5.539 11.411-6.03-3.897.491Zm-39.717 14.348 3.916-.497 8.511-2.673-12.427 3.17ZM68.608 5.517l9.172.415-5.246-.814-3.926.4Zm46.564 176.775 3.902-.494 7.514-5.539-11.416 6.033Zm-37.013 9.283 8.948-1.105 8.58-2.701-17.528 3.806Z" fill="#00A2E5"/><path d="m77.82 5.947 3.925-.4-9.174-.414 5.248.814Zm20.867.908 8.667 3.68-4.756-4.08-3.911.4Zm12.63 175.955-8.06 4.155 11.967-4.649-3.907.494Zm-3.963-172.274 3.909-.403-8.665-3.678 4.756 4.08Zm19.289 165.746 3.898-.49 6.886-6.828-10.784 7.318Zm-27.298 11.179 3.912-.496 8.06-4.155-11.972 4.651ZM81.745 5.547l9.107 2.11-5.186-2.51-3.921.4Zm29.518 4.586 8.15 5.132-4.244-5.534-3.906.402ZM95.428 187.958l-8.515 2.674 12.432-3.171-3.917.497Zm-4.576-180.3 3.92-.402-9.106-2.109 5.186 2.51Zm28.561 7.607 3.904-.405-8.148-5.13 4.244 5.535Zm3.328 161.508-7.517 5.543 11.419-6.034-3.902.491Zm-11.424 6.037 3.907-.494 7.517-5.543-11.424 6.037ZM94.772 7.256l8.668 3.683-4.753-4.084-3.915.401Zm38.758 162.195-6.887 6.831 10.784-7.318-3.897.487Zm-26.125 13.853-8.06 4.157 11.972-4.651-3.912.494ZM86.437 8.104l-9.183-2.162-9.25-.424 18.433 2.586Z" fill="#00A2E5"/><path d="m103.589 11.022 3.895-.403-8.626-3.679 4.731 4.082Zm19.209 165.747 3.883-.491 6.855-6.828-10.738 7.319Zm-27.184 11.178 3.897-.496 8.023-4.155-11.92 4.651Zm-17.454 3.68 17.515-3.789 15.688-9.763-33.204 13.552Z" fill="#00A2E5"/><path d="m77.855 5.963 9.111 2.112-5.185-2.512-3.926.4Zm29.54 4.589 8.152 5.135-4.241-5.538-3.911.403Zm26.182 158.921 3.898-.488 6.169-8.023-10.067 8.511ZM86.966 8.075l3.925-.401-9.11-2.11 5.185 2.511Zm28.581 7.612 3.91-.406-8.151-5.132 4.241 5.538Zm3.332 161.6-7.52 5.545 11.427-6.036-3.907.491Zm-11.432 6.04 3.912-.495 7.52-5.545-11.432 6.04Zm12.01-168.046 7.557 6.467-3.652-6.872-3.905.405Zm7.557 6.467 3.903-.41-7.555-6.462 3.652 6.872ZM90.891 7.673l8.67 3.686-4.75-4.087-3.92.401Zm38.784 162.287-6.889 6.836 10.791-7.323-3.902.487Zm-26.144 13.862-8.063 4.159 11.979-4.654-3.916.495Zm-3.97-172.463 3.919-.404-8.67-3.683 4.752 4.087Zm19.318 165.928 3.907-.491 6.889-6.836-10.796 7.327Zm20.868-15.842-6.17 8.028 10.067-8.511-3.897.483ZM103.48 10.955l8.154 5.138-4.239-5.541-3.915.403Zm26.195 159.005 3.902-.487 6.17-8.028-10.072 8.515Zm-86.736 9.879 68.212-1.59 30.182-82.55-98.394 84.14Z" fill="#00A2E5"/><path d="m111.679 16.182 3.854-.405-8.029-5.13 4.175 5.535Zm3.279 161.527-7.408 5.542 11.26-6.033-3.852.491ZM103.406 16.983 86.455 8.068l-18.42-2.55 35.371 11.465Z" fill="#00A2E5"/><path d="m139.876 161.48 3.882-.483 5.342-9.117-9.224 9.6ZM103.8 183.845l3.9-.494 7.492-5.545-11.392 6.039Zm11.97-168.053 7.529 6.467-3.634-6.872-3.895.405Zm7.529 6.467 3.893-.41-7.527-6.462 3.634 6.872ZM95.686 187.87l8.11-4.173 7.566-5.569-15.676 9.742Z" fill="#00A2E5"/><path d="m86.998 8.104 8.664 3.687-4.744-4.088-3.92.401Zm38.765 162.348-6.883 6.837 10.785-7.325-3.902.488Zm1.244-148.677 6.877 7.678-2.978-8.087-3.899.409Zm6.877 7.678 3.899-.413-6.877-7.674 2.978 8.087ZM95.662 11.791l3.92-.404-8.663-3.684 4.743 4.088Zm19.31 165.99 3.908-.492 6.883-6.837-10.791 7.329Zm20.858-15.847-6.165 8.03 10.063-8.514-3.898.484Zm5.224-65.924-37.506-79.25-68.262 2.666 105.768 76.583Z" fill="#00A2E5"/><path d="m99.72 11.426 8.145 5.14-4.231-5.543-3.915.403Zm45.496 140.935-5.357 9.124 9.249-9.603-3.892.479Zm-19.319 18.126 3.901-.488 6.164-8.03-10.065 8.518Zm-18.032-153.92 3.913-.407-8.144-5.137 4.231 5.544Zm3.332 161.742-7.513 5.549 11.424-6.042-3.911.493Zm24.765-16.34 3.897-.484 5.357-9.124-9.254 9.608ZM111.778 16.16l7.551 6.473-3.642-6.879-3.909.406Zm33.438 136.201 3.892-.479 4.462-10.119-8.354 10.598ZM119.329 22.633l3.908-.41-7.55-6.469 3.642 6.879Zm2.662 148.343-6.883 6.84 10.789-7.329-3.906.489Zm1.246-148.753 6.878 7.682-2.975-8.092-3.903.41Zm6.878 7.682 3.902-.413-6.877-7.679 2.975 8.092Zm10.029 8.356 3.896-.418-6.125-8.765 2.229 9.183Zm-6.127-8.77 6.127 8.77-2.229-9.183-3.898.414Zm-22.82 148.818 3.911-.493 6.883-6.84-10.794 7.333Zm-7.784-161.325-8.21-5.171-8.73-3.708 16.94 8.88Z" fill="#00A2E5"/><path d="m132.064 162.474-6.173 8.035 10.079-8.52-3.906.485ZM95.754 11.818l8.159 5.144-4.235-5.548-3.924.404Zm45.581 141.04-5.365 9.131 9.267-9.61-3.902.479Zm8.369-10.606-4.467 10.127 8.364-10.6-3.897.473Zm-27.724 28.746 3.911-.489 6.173-8.035-10.084 8.524ZM103.913 16.962l3.922-.407-8.157-5.141 4.235 5.548Zm45.791 125.29 3.897-.473 3.483-11.022-7.38 11.495Zm-17.64 20.222 3.906-.485 5.365-9.131-9.271 9.616ZM107.835 16.555l7.563 6.478-3.645-6.885-3.918.407Zm33.5 136.303 3.902-.479 4.467-10.127-8.369 10.606ZM115.398 23.033l3.916-.41-7.561-6.475 3.645 6.885Zm30.066 24.962 3.9-.423-5.305-9.736 1.405 10.16Zm-27.399 123.493-6.893 6.845 10.808-7.335-3.915.49Zm1.249-148.866 6.889 7.689-2.976-8.099-3.913.41Zm20.843 15.633 5.307 9.74-1.405-10.159-3.902.419Zm-13.954-7.944 3.912-.414-6.888-7.685 2.976 8.099Zm10.048 8.362 3.906-.419-6.135-8.771 2.229 9.19Zm-6.136-8.776 6.136 8.776-2.229-9.19-3.907.414Zm-1.961 133.061-6.174 8.04 10.084-8.524-3.91.484Zm25.033-31.733-3.483 11.027 7.38-11.495-3.897.468Zm-15.757 22.113-5.366 9.136 9.271-9.616-3.905.48Zm8.373-10.612-4.468 10.132 8.369-10.606-3.901.474Zm7.384-11.501 3.897-.468 2.408-11.821-6.305 12.289Zm-35.122 40.263 3.915-.49 6.174-8.04-10.089 8.53Zm31.798-112.907 3.9-.43-4.399-10.58.499 11.01Z" fill="#00A2E5"/><path d="m111.361 178.219 6.919-6.854 6.197-8.054-13.116 14.908Z" fill="#00A2E5"/><path d="m145.831 142.739 3.9-.474 3.481-11.026-7.381 11.5Zm-17.643 20.231 3.909-.485 5.363-9.135-9.272 9.62Zm17.304-114.956 4.398 10.585-.499-11.009-3.899.424Zm-41.537-31.031 7.561 6.48-3.64-6.887-3.921.407ZM137.46 153.35l3.904-.48 4.467-10.131-8.371 10.611ZM111.516 23.464l3.92-.411-7.56-6.477 3.64 6.888Zm30.072 24.974 3.904-.424-5.305-9.74 1.401 10.164Zm-26.152-25.385 6.887 7.692-2.972-8.102-3.915.41Zm20.846 15.64 5.306 9.745-1.401-10.164-3.905.419Zm19.338 80.719-2.408 11.827 6.303-12.288-3.895.461Zm0 0 3.895-.461 1.246-12.519-5.141 12.98Zm-33.297-88.667 3.915-.414-6.887-7.688 2.972 8.102Zm10.05 8.367 3.909-.42-6.134-8.776 2.225 9.196Zm-6.135-8.781 6.135 8.78-2.225-9.194-3.91.414Zm27.065 39.574 3.898-.435-3.413-11.3-.485 11.735Zm-29.028 93.55-6.173 8.044 10.086-8.529-3.913.485ZM149.89 58.599l3.413 11.306.485-11.735-3.898.43Zm-.577 73.108-3.482 11.032 7.381-11.5-3.899.468Zm7.552-24.82 3.896-.455.002-12.705-3.898 13.16Zm-1.21-25.08 3.896-.443-2.35-11.894-1.546 12.336Zm-22.103 72.023-5.364 9.14 9.272-9.62-3.908.48Zm8.375-10.616-4.467 10.136 8.371-10.611-3.904.475Zm7.386-11.507 3.899-.468 2.408-11.827-6.307 12.295Zm7.552-24.82-1.245 12.525 5.141-12.98-3.896.455Zm.002-12.711 3.896-.449-1.212-12.363-2.684 12.812Zm-10.88-35.147 3.903-.43-4.398-10.585.495 11.015Zm7.316 10.876 2.352 11.901 1.546-12.336-3.898.435Zm-11.376 73.309 3.904-.475 3.482-11.032-7.386 11.507Zm-17.652 20.241 3.913-.485 5.364-9.14-9.277 9.625Zm17.313-115.017 4.399 10.591-.495-11.015-3.904.424Zm15.279 45.738-.002 12.711 3.898-13.16-3.896.449Zm-23.315 59.654 3.908-.48 4.467-10.136-8.375 10.616Z" fill="#00A2E5"/><path d="m111.363 178.249 13.098-14.899 9.859-19.304-22.957 34.203Zm44.489-96.341 1.21 12.366 2.678-12.808-3.888.442Zm-37.835-50.714-6.925-7.715-7.601-6.496 14.526 14.211Z" fill="#00A2E5"/><path d="m137.689 48.879 3.904-.425-5.301-9.744 1.397 10.169Zm-26.141-25.396 6.883 7.696-2.967-8.106-3.916.41Zm20.839 15.646 5.302 9.75-1.397-10.169-3.905.42Zm19.329 80.752-2.405 11.83 6.301-12.293-3.896.463Zm0 0 3.896-.463 1.244-12.523-5.14 12.986Zm-33.285-88.702 3.915-.415-6.882-7.691 2.967 8.106Zm10.046 8.37 3.91-.42-6.13-8.78 2.22 9.2Zm-6.131-8.785 6.131 8.785-2.22-9.2-3.911.415Zm27.053 39.59 3.898-.436-3.41-11.304-.488 11.74Zm-3.411-11.31 3.411 11.31.488-11.74-3.899.43Zm-.578 73.136-3.478 11.036 7.379-11.505-3.901.469Zm7.55-24.829 3.896-.456.002-12.71-3.898 13.166Zm-1.211-25.091 3.898-.443-2.35-11.899-1.548 12.342Zm-22.094 72.052-5.36 9.143 9.269-9.624-3.909.481Zm8.372-10.621-4.463 10.14 8.368-10.615-3.905.475Zm7.383-11.511 3.901-.469 2.405-11.83-6.306 12.299Zm7.55-24.829-1.244 12.53 5.14-12.986-3.896.456Zm.002-12.717 3.896-.448-1.211-12.369-2.685 12.817Zm-10.877-35.16 3.903-.43-4.395-10.59.492 11.02Zm7.314 10.88 2.35 11.906 1.548-12.342-3.898.436Zm-11.372 73.337 3.905-.475 3.478-11.036-7.383 11.511Zm-.338-94.812 4.396 10.595-.492-11.02-3.904.425Zm15.273 45.755-.002 12.717 3.898-13.165-3.896.448Zm-23.307 59.678 3.909-.481 4.463-10.14-8.372 10.621Zm22.094-72.052 1.213 12.374 2.685-12.817-3.898.443Zm-22.185-32.496-11.497-18.58-14.513-14.2 26.01 32.78Zm4.192-.444 3.91-.425-5.305-9.75 1.395 10.175Zm-5.307-9.756 5.307 9.756-1.395-10.175-3.912.419Zm19.35 80.802-2.406 11.838 6.309-12.301-3.903.463Zm0 0 3.903-.463 1.245-12.53-5.148 12.993Zm-23.266-80.382 3.916-.42-6.135-8.785 2.219 9.205Zm-6.136-8.79 6.136 8.79-2.219-9.205-3.917.415Z" fill="#00A2E5"/><path d="m124.477 163.382 5.37-9.146 4.472-10.148-9.842 19.294Zm21.051-92.511 3.9-.436-3.409-11.31-.491 11.746Zm-34.166 107.395 22.85-34.17 7.121-48.176-29.971 82.346Z" fill="#00A2E5"/><path d="m142.203 59.518 3.394 11.311.489-11.741-3.883.43Zm-.576 73.14-3.461 11.036 7.345-11.505-3.884.469Zm7.513-24.831 3.88-.456.002-12.71-3.882 13.166Zm-1.204-25.092 3.88-.442-2.337-11.9-1.543 12.342Zm-13.657 61.434-4.441 10.141 8.328-10.616-3.887.475Zm7.348-11.511 3.884-.469 2.392-11.832-6.276 12.301Zm7.513-24.831-1.237 12.53 5.117-12.986-3.88.456Zm.002-12.717 3.88-.449-1.206-12.368-2.674 12.817Zm-10.825-35.162 3.886-.43-4.372-10.59.486 11.02Zm7.28 10.881 2.339 11.906 1.543-12.342-3.882.436Zm-11.318 73.34 3.887-.475 3.461-11.036-7.348 11.511Zm-.336-94.817 4.374 10.596-.486-11.02-3.888.424Zm15.199 45.758-.002 12.717 3.882-13.166-3.88.45Zm-1.206-12.375 1.206 12.375 2.674-12.817-3.88.442Zm-6.869 13.275-11.411-46.283-25.949-32.745 37.36 79.028Z" fill="#00A2E5"/><path d="m129.656 49.777 3.935-.426-5.333-9.774 1.398 10.2Zm-5.334-9.78 5.334 9.78-1.398-10.2-3.936.42Zm5.291 9.765-5.326-9.77-6.159-8.8 11.485 18.57Zm14.342 71.051-2.396 11.838 6.284-12.301-3.888.463Zm0 0 3.888-.463 1.239-12.531-5.127 12.994Zm-2.311-49.559 3.89-.437-3.398-11.311-.492 11.748Zm-3.4-11.318 3.4 11.318.492-11.749-3.892.43Zm-.578 73.185-3.465 11.043 7.358-11.513-3.893.47Zm7.527-24.846 3.889-.456.001-12.718-3.89 13.174Zm-1.207-25.107 3.89-.443-2.342-11.908-1.548 12.35Zm-6.32 49.953 3.893-.47 2.396-11.838-6.289 12.308Zm7.527-24.846-1.238 12.538 5.127-12.994-3.889.456Zm.001-12.725 3.889-.45-1.207-12.375-2.682 12.825Zm-10.845-35.183 3.895-.431-4.379-10.597.484 11.028Zm7.295 10.887 2.342 11.914 1.548-12.35-3.89.436Zm-11.676-21.49 4.381 10.603-.484-11.028-3.897.425Zm15.226 45.786-.001 12.725 3.89-13.174-3.889.45Zm-1.208-12.382 1.208 12.382 2.682-12.825-3.89.443Z" fill="#00A2E5"/><path d="m134.32 144.134 3.46-11.043 2.393-11.843-5.853 22.886Z" fill="#00A2E5"/><path d="m140.102 121.276-2.376 11.841 6.238-12.304-3.862.463Zm0 0 3.862-.463 1.228-12.533-5.09 12.996Zm-2.293-49.567 3.863-.437-3.371-11.314-.492 11.75Z" fill="#00A2E5"/><path d="m134.319 144.134 5.79-22.877 1.224-25.264-7.014 48.141Zm-.012-83.758 3.406 11.325.496-11.756-3.902.43Zm6.963 48.371 3.899-.457.001-12.726-3.9 13.183Zm-1.21-25.124 3.9-.444-2.346-11.915-1.554 12.359Zm-2.49-11.919-3.418-11.331-4.403-10.61 7.821 21.94Z" fill="#00A2E5"/><path d="m141.399 108.74-1.227 12.539 5.084-12.996-3.857.457Zm.001-12.727 3.857-.45-1.197-12.377-2.66 12.827Zm-.215-.003-3.561-24.315-7.8-21.931 11.361 46.246Z" fill="#00A2E5"/><path d="m137.757 71.704 2.343 11.92 1.551-12.357-3.894.437Zm3.551 24.309v12.731l3.894-13.181-3.894.45Zm-1.208-12.39 1.208 12.39 2.685-12.833-3.893.444Z" fill="#00A2E5"/><path d="m140.059 121.267 1.225-12.539.001-12.726-1.226 25.265Zm1.226-25.265-1.196-12.384-2.318-11.915 3.514 24.3Z" fill="#00A2E5"/><mask id="a" style="mask-type:alpha" maskUnits="userSpaceOnUse" x="6" y="3" width="155" height="189"><path d="m6.142 101.248 1.173 12.24 2.28 11.781-3.453-24.021Zm1.223-24.99L6.149 88.665l-.007 12.582 1.223-24.99Zm-1.223 24.99 3.454 24.021 7.595 21.715-11.05-45.736Zm3.454 24.021 3.316 11.205 4.279 10.51-7.595-21.715Zm3.514-71.718L7.365 76.257l-1.223 24.991 6.968-47.697Zm0 0-3.397 10.97-2.348 11.736 5.745-22.706Zm4.08 93.433 5.172 9.696 5.992 8.761-11.163-18.457ZM6.143 101.248l11.049 45.736 25.326 32.691-36.375-78.427Zm29.415-81.951L13.11 53.55l-6.968 47.697 29.415-81.951Zm-12.83 15.006-5.251 9.143-4.366 10.105 9.616-19.248ZM17.19 146.984l11.163 18.457 14.163 14.234-25.326-32.691ZM35.557 19.297 6.142 101.248l36.375 78.427-6.96-160.378ZM28.354 165.44l6.742 7.706 7.421 6.528-14.163-14.234Zm7.203-146.144-12.83 15.006L13.11 53.55l22.447-34.254Zm0 0-6.776 6.923-6.055 8.083 12.831-15.006Zm6.96 160.378 8.03 5.228 8.565 3.802-16.595-9.03Zm8.43-170.342-7.974 4.3-7.416 5.664 15.39-9.964Zm-8.43 170.342 16.595 9.03 18.164 2.819-34.759-11.849Zm59.797 8.917 3.854-.501 8.41-2.68-12.264 3.181ZM84.62 3.978l9.056.4-5.194-.803-3.862.403Zm9.056.4 3.861-.404-9.055-.4 5.194.803Z" fill="#00A2E5"/><path d="M68.311 5.363 51.12 9.465l-15.306 9.957 32.498-14.06Zm-9.073 183.346 8.982 2.25 9.082.567-18.064-2.817Zm51.548-2.767-8.453 2.682 12.326-3.182-3.873.5Zm-12.33 3.184 3.877-.502 8.453-2.682-12.33 3.184ZM80.66 4.342l9.103.4-5.217-.804-3.886.404Zm9.103.4 3.885-.405-9.102-.4 5.217.805Zm21.022 181.2 3.873-.5 8.005-4.161-11.878 4.661ZM93.649 4.337l9.034 2.094-5.153-2.498-3.88.404Zm13.261 182.106-8.455 2.683 12.331-3.184-3.876.501ZM102.683 6.431l3.879-.406-9.032-2.092 5.153 2.498Zm-8.11 183.197 3.882-.502 8.455-2.683-12.336 3.185ZM76.77 4.746l9.105.4-5.214-.804-3.89.404Z" fill="#00A2E5"/><path d="M67.999 5.444 59.07 6.73l-8.533 2.874 17.462-4.16Zm17.909-.28 3.887-.405-9.098-.4 5.211.805Zm32.898 176.622-8.002 4.163 11.87-4.662-3.868.499Zm-75.81-2.18 35.12 12.051 33.246-13.761-68.366 1.71Z" fill="#00A2E5"/><path d="m106.953 186.478 3.885-.502 8.025-4.164-11.91 4.666ZM89.766 4.724l9.056 2.096-5.162-2.5-3.894.404Zm13.297 182.255-8.476 2.684 12.366-3.185-3.89.501ZM98.822 6.819l3.893-.405L93.66 4.32l5.162 2.5Zm-8.13 183.347 3.895-.503 8.476-2.684-12.37 3.187ZM72.837 5.133l9.128.402-5.224-.806-3.904.404Zm46.026 176.679 3.881-.499 7.488-5.549-11.369 6.048ZM35.838 19.401l6.99 160.573 98.139-84.247L35.837 19.4Z" fill="#00A2E5"/><path d="m81.957 5.551 3.89-.405-9.098-.4 5.208.805Zm20.687.879 8.59 3.665-4.714-4.07-3.876.405Zm12.225 175.835-8.001 4.165 11.874-4.664-3.873.499Zm-3.635-172.17 3.875-.407-8.589-3.664 4.714 4.071Zm-8.244 176.836 3.878-.501 8.001-4.165-11.879 4.666ZM85.848 5.146l9.03 2.096-5.144-2.501-3.886.405Zm17.541 11.74L68.042 5.384l-33.016 14.3 68.363-2.798Z" fill="#00A2E5"/><path d="m99.146 187.479-8.483 2.686 12.379-3.188-3.896.502ZM94.899 7.206l3.9-.406-9.063-2.096L94.9 7.206Zm31.448 169.051-7.494 5.552 11.376-6.048-3.882.496Zm-39.585 14.411 3.901-.503 8.483-2.686-12.384 3.189ZM68.886 5.518l9.135.403-5.224-.808-3.911.406Zm46.08 176.791 3.887-.5 7.494-5.552-11.381 6.052Zm-36.808 9.288 8.947-1.123 8.58-2.726-17.527 3.849Z" fill="#00A2E5"/><path d="m78.078 5.94 3.91-.406-9.137-.402 5.227.808Zm20.786.879 8.628 3.67-4.731-4.077-3.897.407Zm12.282 176.021-8.036 4.169 11.929-4.669-3.893.5Zm-3.654-172.352 3.895-.408-8.626-3.668 4.731 4.077Zm18.934 165.8 3.884-.496 6.871-6.841-10.755 7.337Zm-27.214 11.223 3.898-.502 8.036-4.169-11.934 4.671ZM81.99 5.534l9.069 2.098-5.163-2.504-3.906.406Zm29.398 4.546 8.11 5.123-4.218-5.53-3.892.407ZM95.31 188.014l-8.488 2.687 12.39-3.19-3.902.503ZM91.058 7.632l3.905-.407-9.068-2.097 5.163 2.504Zm28.439 7.571 3.89-.41-8.108-5.12 4.218 5.53Zm3.041 161.582-7.499 5.555 11.387-6.052-3.888.497Zm-11.392 6.055 3.893-.5 7.499-5.555-11.392 6.055ZM94.963 7.225l8.629 3.672-4.728-4.078-3.9.406Zm38.335 162.219-6.872 6.844 10.755-7.337-3.883.493Zm-26.049 13.897-8.037 4.17 11.934-4.671-3.897.501ZM86.434 8.104l-9.178-2.17-9.247-.416 18.425 2.586Z" fill="#00A2E5"/><path d="m103.808 11.015 3.873-.408-8.568-3.668 4.695 4.076Zm18.814 165.764 3.862-.496 6.825-6.84-10.687 7.336Zm-27.041 11.22 3.876-.502 7.982-4.167-11.858 4.669Zm-17.421 3.67 17.509-3.823 15.694-9.814-33.204 13.637Z" fill="#00A2E5"/><path d="m78.13 5.963 9.073 2.1-5.161-2.506-3.912.406Zm29.422 4.549 8.114 5.126-4.217-5.534-3.897.408Zm25.814 158.963 3.885-.493 6.16-8.037-10.045 8.53ZM87.203 8.063l3.91-.408-9.071-2.098 5.161 2.506Zm28.463 7.575 3.895-.411-8.112-5.123 4.217 5.534Zm3.044 161.676-7.502 5.558 11.395-6.055-3.893.497Zm-11.4 6.059 3.898-.501 7.502-5.558-11.4 6.059Zm12.251-168.146 7.518 6.458-3.627-6.87-3.891.412Zm7.518 6.458 3.89-.414-7.517-6.455 3.627 6.87ZM91.114 7.655l8.632 3.675-4.726-4.082-3.906.407Zm38.364 162.313-6.875 6.849 10.763-7.342-3.888.493Zm-26.07 13.905-8.04 4.173 11.942-4.673-3.902.5ZM99.746 11.33l3.905-.41-8.63-3.672 4.725 4.082Zm18.964 165.984 3.893-.497 6.875-6.849-10.768 7.346Zm20.818-15.88-6.162 8.041 10.045-8.53-3.883.489ZM103.651 10.921l8.115 5.129-4.214-5.538-3.901.409Zm25.827 159.047 3.888-.493 6.162-8.041-10.05 8.534Zm-86.539 9.999 68.115-1.688 30.279-82.709-98.394 84.397Z" fill="#00A2E5"/><path d="m111.829 16.176 3.814-.411-7.936-5.12 4.122 5.531Zm2.973 161.538-7.339 5.552 11.152-6.049-3.813.497ZM103.389 16.983l-16.93-8.93-18.407-2.535 35.337 11.465Z" fill="#00A2E5"/><path d="m139.716 161.483 3.861-.489 5.328-9.127-9.189 9.616Zm-35.917 22.424 3.88-.501 7.461-5.557-11.341 6.058Zm12.19-168.121 7.477 6.458-3.603-6.87-3.874.412Zm7.477 6.458 3.872-.415-7.475-6.454 3.603 6.87ZM95.686 187.89l8.109-4.192 7.567-5.591-15.676 9.783Z" fill="#00A2E5"/><path d="m87.25 8.104 8.622 3.676-4.717-4.084-3.905.408Zm38.328 162.363-6.866 6.85 10.753-7.344-3.887.494Zm1.491-148.744 6.837 7.672-2.952-8.086-3.885.414Zm6.837 7.672 3.883-.418-6.835-7.668 2.952 8.086ZM95.872 11.78l3.903-.41-8.62-3.674 4.717 4.084Zm18.948 166.035 3.892-.498 6.866-6.85-10.758 7.348Zm20.798-15.884-6.153 8.042 10.035-8.532-3.882.49Zm5.307-65.922-37.328-79.34-68.191 2.766 105.519 76.574Z" fill="#00A2E5"/><path d="m99.975 11.426 8.103 5.13-4.204-5.54-3.899.41Zm45.065 140.929-5.35 9.136 9.226-9.62-3.876.484Zm-19.268 18.162 3.885-.494 6.152-8.042-10.037 8.536Zm-17.694-153.96 3.897-.413-8.101-5.128 4.204 5.54Zm3.043 161.805-7.491 5.562 11.386-6.06-3.895.498Zm24.688-16.381 3.881-.49 5.35-9.136-9.231 9.626ZM111.975 16.144l7.508 6.465-3.615-6.877-3.893.412Zm33.065 136.211 3.876-.484 4.46-10.13-8.336 10.614ZM119.483 22.609l3.892-.416-7.507-6.46 3.615 6.876Zm2.399 148.402-6.866 6.853 10.756-7.347-3.89.494Zm1.493-148.818 6.836 7.676-2.949-8.09-3.887.414Zm6.836 7.676 3.886-.419-6.835-7.672 2.949 8.091Zm9.972 8.346 3.881-.424-6.085-8.76 2.204 9.184Zm-6.086-8.765 6.086 8.765-2.204-9.184-3.882.42Zm-22.976 148.912 3.895-.498 6.866-6.853-10.761 7.351Zm-7.723-161.377-8.195-5.175-8.717-3.705 16.912 8.88Z" fill="#00A2E5"/><path d="m131.928 162.499-6.164 8.049 10.057-8.539-3.893.49ZM96.007 11.817l8.119 5.136-4.21-5.546-3.91.41Zm45.175 141.049-5.361 9.143 9.249-9.628-3.888.485Zm8.357-10.623-4.469 10.138 8.353-10.618-3.884.48Zm-27.673 28.799 3.898-.494 6.164-8.049-10.062 8.543Zm-17.74-154.09 3.909-.412-8.118-5.133 4.209 5.546Zm45.413 125.291 3.884-.48 3.488-11.032-7.372 11.512Zm-17.611 20.256 3.893-.49 5.361-9.143-9.254 9.633Zm-23.893-145.96 7.524 6.47-3.619-6.882-3.905.413Zm33.147 136.327 3.888-.485 4.469-10.138-8.357 10.623ZM115.559 23.01l3.904-.416-7.523-6.467 3.619 6.883Zm29.915 24.933 3.888-.43-5.27-9.732 1.382 10.162Zm-27.509 123.595-6.88 6.858 10.781-7.354-3.901.496Zm1.498-148.944 6.851 7.683-2.952-8.099-3.899.416Zm20.741 15.61 5.27 9.739-1.382-10.162-3.888.424Zm-13.89-7.927 3.897-.42-6.849-7.679 2.952 8.099Zm9.997 8.352 3.893-.424-6.099-8.768 2.206 9.192Zm-6.1-8.772 6.1 8.772-2.206-9.192-3.894.42Zm-2.18 133.133-6.165 8.052 10.062-8.543-3.897.491Zm24.997-31.785-3.489 11.038 7.372-11.512-3.883.474Zm-15.738 22.146-5.362 9.148 9.254-9.633-3.892.485Zm8.361-10.629-4.469 10.144 8.357-10.623-3.888.479Zm7.377-11.517 3.883-.474 2.42-11.83-6.303 12.304Zm-35.063 40.333 3.901-.496 6.165-8.052-10.066 8.548Zm31.875-113.01 3.886-.435-4.364-10.58.478 11.015Z" fill="#00A2E5"/><path d="m111.361 178.236 6.917-6.871 6.199-8.071-13.116 14.942Z" fill="#00A2E5"/><path d="m145.693 142.741 3.886-.48 3.487-11.036-7.373 11.516Zm-17.612 20.266 3.895-.491 5.359-9.147-9.254 9.638ZM145.516 47.97l4.363 10.584-.478-11.013-3.885.429Zm-41.328-30.988 7.522 6.473-3.615-6.886-3.907.413Zm33.147 136.387 3.891-.486 4.467-10.142-8.358 10.628ZM111.71 23.455l3.906-.416-7.521-6.47 3.615 6.886ZM141.626 48.4l3.89-.43-5.268-9.737 1.378 10.167Zm-26.01-25.361 6.848 7.686-2.947-8.102-3.901.416Zm20.741 15.618 5.269 9.743-1.378-10.167-3.891.424Zm19.127 80.732-2.418 11.836 6.3-12.304-3.882.468Zm0 0 3.882-.468 1.262-12.526-5.144 12.994Zm-33.02-88.663 3.9-.42-6.847-7.683 2.947 8.102Zm9.998 8.356 3.895-.425-6.097-8.772 2.202 9.197Zm-6.098-8.777 6.098 8.777-2.202-9.197-3.896.42Zm26.896 39.556 3.884-.442-3.38-11.3-.504 11.742Zm-29.078 93.637-6.162 8.056 10.061-8.547-3.899.491Zm25.697-104.944 3.381 11.307.504-11.742-3.885.435Zm-.699 73.145-3.487 11.042 7.373-11.516-3.886.474Zm7.566-24.843 3.882-.461.024-12.71-3.906 13.171Zm-1.163-25.092 3.883-.447-2.322-11.897-1.561 12.344Zm-22.142 72.091-5.36 9.152 9.254-9.638-3.894.486Zm8.362-10.634-4.468 10.148 8.358-10.628-3.89.48Zm7.377-11.522 3.886-.474 2.418-11.836-6.304 12.31Zm7.566-24.843-1.262 12.533 5.144-12.994-3.882.461Zm.024-12.718 3.882-.454-1.186-12.367-2.696 12.821ZM145.991 58.99l3.888-.436-4.363-10.584.475 11.02Zm7.269 10.87 2.323 11.904 1.561-12.344-3.884.44Zm-11.457 73.361 3.89-.48 3.487-11.042-7.377 11.522Zm-17.621 20.277 3.899-.491 5.36-9.152-9.259 9.643ZM141.626 48.4l4.365 10.59-.475-11.02-3.89.43Zm15.144 45.738-.024 12.718 3.906-13.172-3.882.454Zm-23.329 59.717 3.894-.486 4.468-10.148-8.362 10.634Z" fill="#00A2E5"/><path d="m111.362 178.278 13.091-14.928 9.867-19.334-22.958 34.262Zm44.508-96.37 1.183 12.369 2.687-12.816-3.87.447Zm-37.876-50.714-6.902-7.716-7.579-6.495 14.481 14.211Z" fill="#00A2E5"/><path d="m137.745 48.853 3.889-.43-5.262-9.741 1.373 10.17Zm-25.988-25.37 6.841 7.69-2.94-8.106-3.901.417Zm20.725 15.624 5.263 9.746-1.373-10.171-3.89.425Zm19.111 80.758-2.415 11.84 6.296-12.307-3.881.467Zm0 0 3.881-.467 1.26-12.531-5.141 12.998Zm-32.995-88.692 3.899-.42-6.839-7.686 2.94 8.106Zm9.99 8.359 3.894-.425-6.09-8.775 2.196 9.2Zm-6.091-8.78 6.091 8.78-2.196-9.2-3.895.42Zm26.873 39.57 3.883-.443-3.377-11.304-.506 11.746Zm-3.377-11.311 3.377 11.31.506-11.746-3.883.436Zm-.7 73.168-3.483 11.046 7.368-11.52-3.885.474Zm7.56-24.85 3.881-.462.024-12.715-3.905 13.177Zm-1.163-25.1 3.882-.448-2.319-11.902-1.563 12.35Zm-22.124 72.114-5.353 9.154 9.246-9.641-3.893.487Zm8.355-10.637-4.462 10.15 8.351-10.631-3.889.481Zm7.372-11.527 3.885-.474 2.415-11.84-6.3 12.314Zm7.56-24.85-1.26 12.536 5.141-12.998-3.881.462Zm.023-12.722 3.882-.455-1.186-12.371-2.696 12.826Zm-10.771-35.16 3.888-.436-4.359-10.588.471 11.023Zm7.265 10.874 2.32 11.907 1.563-12.349-3.883.442Zm-11.449 73.385 3.889-.481 3.483-11.046-7.372 11.527Zm-.176-94.853 4.36 10.593-.471-11.023-3.889.43Zm15.131 45.754-.023 12.722 3.905-13.177-3.882.455Zm-23.31 59.736 3.893-.487 4.462-10.15-8.355 10.637Zm22.124-72.114 1.186 12.378 2.696-12.826-3.882.447Zm-22.177-32.465L118.068 31.18l-14.463-14.196 25.908 32.781Zm4.302-.457 3.896-.43-5.268-9.748 1.372 10.178Zm-5.269-9.753 5.269 9.753-1.372-10.178-3.897.425Zm19.137 80.813-2.417 11.847 6.305-12.316-3.888.469Zm0 0 3.888-.469 1.261-12.538-5.149 13.007ZM124.645 39.98l3.901-.426-6.096-8.78 2.195 9.206Zm-6.098-8.786 6.098 8.786-2.195-9.207-3.903.421Z" fill="#00A2E5"/><path d="m124.477 163.395 5.368-9.159 4.474-10.161-9.842 19.32Zm21.05-92.518 3.885-.442-3.376-11.31-.509 11.752Zm-34.165 107.425 22.802-34.214 7.169-48.204-29.971 82.418Z" fill="#00A2E5"/><path d="m142.276 59.509 3.352 11.309.505-11.745-3.857.436Zm-.697 73.157-3.456 11.044 7.315-11.519-3.859.475Zm7.506-24.847 3.855-.461.023-12.713-3.878 13.174Zm-1.154-25.096 3.856-.448-2.302-11.9-1.554 12.348Zm-13.671 61.468-4.429 10.148 8.292-10.629-3.863.481Zm7.319-11.525 3.859-.475 2.397-11.837-6.256 12.312Zm7.506-24.847-1.25 12.535 5.105-12.996-3.855.461Zm.023-12.72 3.855-.454-1.176-12.37-2.679 12.824Zm-10.694-35.154 3.862-.436-4.326-10.587.464 11.023Zm7.214 10.873 2.303 11.905 1.554-12.347-3.857.442ZM134.26 144.19l3.863-.481 3.456-11.044-7.319 11.525Zm-.173-94.839 4.327 10.593-.464-11.023-3.863.43ZM149.108 95.1l-.023 12.72 3.878-13.174-3.855.454Zm-1.177-12.376 1.177 12.376 2.679-12.824-3.856.448Zm-6.985 13.286-11.3-46.297-25.818-32.73 37.118 79.027Z" fill="#00A2E5"/><path d="m129.646 49.782 3.928-.432-5.307-9.779 1.379 10.211Zm-5.309-9.784 5.309 9.784-1.379-10.21-3.93.426Zm5.248 9.764-5.298-9.772-6.13-8.798 11.428 18.57Zm14.297 71.049-2.401 11.845 6.267-12.314-3.866.469Zm0 0 3.866-.469 1.253-12.536-5.119 13.005Zm-2.213-49.569 3.868-.442-3.359-11.31-.509 11.752Zm-3.36-11.316 3.36 11.316.509-11.752-3.869.436Zm-.698 73.205-3.463 11.051 7.333-11.526-3.87.475Zm7.523-24.863 3.867-.462.023-12.721-3.89 13.183Zm-1.157-25.112 3.867-.449-2.307-11.907-1.56 12.356Zm-6.366 49.975 3.87-.475 2.401-11.845-6.271 12.32Zm7.523-24.863-1.252 12.543 5.119-13.005-3.867.462Zm.023-12.728 3.867-.455-1.18-12.378-2.687 12.833Zm-10.721-35.177 3.873-.437-4.334-10.593.461 11.03Zm7.233 10.88 2.308 11.913 1.56-12.356-3.868.442ZM130.1 49.762l4.336 10.6-.461-11.03-3.875.43Zm15.057 45.777-.023 12.728 3.89-13.183-3.867.455Zm-1.18-12.384 1.18 12.384 2.687-12.833-3.867.449Z" fill="#00A2E5"/><path d="m134.32 144.14 3.456-11.049 2.396-11.85-5.852 22.899Z" fill="#00A2E5"/><path d="m140.071 121.281-2.374 11.845 6.198-12.314-3.824.469Zm0 0 3.824-.469 1.238-12.536-5.062 13.005Zm-2.188-49.57 3.826-.442-3.319-11.311-.507 11.753Z" fill="#00A2E5"/><path d="m134.319 144.141 5.76-22.887 1.253-25.268-7.013 48.155Zm.058-83.765 3.368 11.324.514-11.76-3.882.436Zm6.844 48.377 3.879-.463.023-12.73-3.902 13.193Zm-1.162-25.13 3.881-.45-2.313-11.916-1.568 12.365Zm-2.522-11.919-3.387-11.332-4.369-10.608 7.756 21.94Z" fill="#00A2E5"/><path d="m141.407 108.744-1.236 12.543 5.054-13.005-3.818.462Zm.022-12.727 3.819-.456-1.164-12.377-2.655 12.833Zm-.311-.007-3.502-24.318-7.725-21.928 11.227 46.246Z" fill="#00A2E5"/><path d="m137.809 71.704 2.308 11.92 1.563-12.363-3.871.443Zm3.489 24.31-.022 12.735 3.892-13.19-3.87.455Zm-1.181-12.39 1.181 12.39 2.69-12.84-3.871.45Z" fill="#00A2E5"/><path d="m140.008 121.269 1.233-12.542.022-12.728-1.255 25.27Zm1.255-25.27-1.162-12.383-2.272-11.913L141.263 96Z" fill="#00A2E5"/></mask><g mask="url(#a)"><ellipse cx="220.322" cy="179.272" rx="220.322" ry="179.272" transform="matrix(.9993 .0381 -.0484 .99885 -107.809 -176.397)" fill="url(#b)"/></g><path d="M143.103 100.708c-2.421 51.746-30.693 92.652-68.789 91.143C36.22 190.342 2.151 142.955 4.572 91.21c2.42-51.745 31.23-87.816 69.325-86.308 38.096 1.51 71.627 44.06 69.206 95.806Z" fill="url(#c)"/><path d="M134.48 100.411c-1.068 22.829-7.849 43.205-18.507 57.678-10.65 14.463-25.125 22.986-41.67 22.331-16.546-.655-32.353-11.272-43.792-27.552-11.428-16.264-18.406-38.066-17.341-60.825 1.067-22.821 7.963-42.107 18.72-55.497C42.634 23.174 57.229 15.673 73.825 16.33c16.585.657 32.27 10.24 43.569 25.425 11.292 15.18 18.151 35.897 17.086 58.656Z" fill="url(#d)" stroke="url(#e)" stroke-width="2"/><g filter="url(#f)" fill="#00A2E5"><path d="m40.946 80.031.09 3.312.318 3.417-.408-6.729Zm.408 6.729.548 3.52.775 3.621-1.323-7.141Zm.1-13.033-.508 6.304.408 6.729.1-13.033Zm0 0-.368 3.099-.14 3.205.509-6.304Zm-.1 13.033 1.323 7.141 2.236 7.545-3.559-14.686Zm.1-13.033-.1 13.033 3.559 14.686-3.458-27.72ZM42.678 93.9l1.004 3.723 1.232 3.822-2.236-7.545Zm-.174-24.81-.581 2.21-.467 2.426 1.048-4.636Zm20.274 23.406 3.27-.37-.17-2.289-3.1 2.66Zm-.17-2.29 3.27-.369.18-1.832-3.45 2.201Zm.771 5.1 3.27-.371-.601-2.81-2.669 3.181Zm-.592-6.933 3.27-.368.446-1.441-3.716 1.809Z"/><path d="m43.856 65.298-1.423 3.796-1.054 4.637 2.477-8.433Zm20.65 33.403 3.264-.372-1.113-3.393-2.15 3.765Zm-1.26-11.766 3.265-.368.629-1.112-3.893 1.48Z"/><path d="m44.96 101.453 1.462 3.921 1.69 4.018-3.152-7.939Zm-.996-36.152-.743 1.797-.674 1.999 1.417-3.796Zm18.643 24.904.17 2.29 3.1-2.659-3.27.37Zm.17 2.29.601 2.81 2.669-3.18-3.27.37Zm.01-4.123-.18 1.833 3.45-2.202-3.27.369ZM47.114 60.003l-5.66 13.727 3.445 27.715 2.215-41.442Z"/><path d="m63.886 85.821 3.266-.367.73-.85-3.997 1.217Zm2.341 16.925 3.265-.374-1.71-4.043-1.555 4.417Zm-2.824-7.438 1.114 3.394 2.152-3.766-3.266.372Zm-.146-8.373-.445 1.441 3.71-1.809-3.265.368ZM47.114 60.003l-3.249 5.301-2.486 8.437 5.735-13.738Zm15.113-6.871 3.25-.352-.84-.074-2.41.426Zm2.297 31.856 3.249-.367.745-.65-3.994 1.017Zm-.726.85-.626 1.112 3.875-1.48-3.249.367ZM45.06 101.445l3.183 7.948 4.105 8.331-7.288-16.279Z"/><path d="m64.535 98.693 1.717 4.048 1.56-4.422-3.276.374ZM45.478 62.295l-.823 1.414-.799 1.602 1.622-3.016Zm17.602-8.836 3.252-.353-.801-.33-2.45.683Zm2.244 30.877 3.25-.366.682-.515-3.932.881Zm-.746.65-.727.85 3.977-1.216-3.25.366Zm3.981 22.522 3.25-.376-2.378-4.755-.872 5.131ZM61.44 53.056l.84.073 2.412-.426-3.252.353Zm4.566 30.766 3.25-.367.537-.443-3.787.81Zm-2.159-29.8 3.252-.353-.767-.563-2.485.916Zm-16.609 5.991-1.618 2.285-1.608 3.013 3.226-5.298Zm.926 49.39 1.92 4.114 2.147 4.209-4.067-8.323Z"/><path d="m65.305 84.332-.744.65 3.987-1.016-3.243.366Zm-5.79 8.542 3.245-.37-.168-2.288-3.077 2.658Zm-.169-2.289 3.246-.369.178-1.831-3.424 2.2Zm6.815 12.16 2.372 4.756.87-5.13-3.242.374Zm-6.05-7.062 3.246-.372-.597-2.807-2.649 3.179Zm2.157-42.553.8.33 2.444-.682-3.244.352Zm2.297 1.669 3.243-.353-.732-.776-2.511 1.129Zm-5.041 33.954 3.246-.368.441-1.44-3.687 1.808Zm-12.41-28.737-.808 1.057-.828 1.232 1.636-2.289Z"/><path d="m66.027 83.824-.683.515 3.938-.881-3.255.366Zm-4.786 15.263 3.258-.373-1.11-3.393-2.148 3.766Zm5.324-15.706 3.255-.366 2.406-2.393-5.66 2.759Zm-3.467-29.923.767.563 2.49-.916-3.257.353Zm2.21 2.306 3.255-.354-.706-.966-2.55 1.32ZM59.984 87.32l3.258-.368.626-1.113-3.884 1.481Zm6.58-3.938-.538.443 3.793-.81-3.255.367Zm4.615 28.686 3.254-.379-2.596-4.551-.658 4.93ZM59.363 90.593l.169 2.29 3.089-2.659-3.258.37Zm.169 2.29.599 2.809 2.659-3.18-3.258.37ZM65.988 56.9l3.255-.354-.68-1.136-2.575 1.49Zm-2.123-2.879.736.776 2.52-1.129-3.256.353Zm-4.324 34.74-.178 1.832 3.436-2.201-3.258.368Zm1.07-2.555 3.258-.368.728-.85-3.986 1.218Zm2.335 16.925 3.257-.375-1.704-4.042-1.553 4.417Zm-2.816-7.439 1.11 3.395 2.148-3.766-3.258.371Zm-15.022 5.752 7.296 16.284 9.177 14.457-16.473-30.741Z"/><path d="m68.567 107.505 2.59 4.553.657-4.93-3.247.377ZM66.63 58.182l3.25-.355-.656-1.282-2.594 1.637Zm-6.648 29.132-.443 1.44 3.695-1.808-3.252.368Zm4.608-32.517.705.967 2.545-1.32-3.25.353Zm-16.008 3.61-.701.73-.767.89 1.468-1.62Z"/><path d="m58.94 53.476 3.273-.353-.844-.074-2.428.427Zm8.28 6.115 3.27-.356-.64-1.41-2.63 1.766Zm-5.966 25.778 3.27-.367.75-.65-4.02 1.017Zm-.731.85-.63 1.115 3.901-1.482-3.271.368Zm4.715-30.459.683 1.137 2.586-1.49-3.27.353Zm3.679 25.238 3.268-.365.895-1.03-4.163 1.395ZM49.699 57.403l-1.117 1.006-1.468 1.62 2.585-2.626Z"/><path d="m61.24 99.084 1.701 4.044 1.55-4.417-3.251.373Zm6.648-37.976 3.25-.356-.62-1.512-2.63 1.868Zm1.067 19.88-2.401 2.392 5.65-2.757-3.249.365Zm-16.526 36.736 2.286 4.101 2.293 3.778-4.58-7.879Zm21.078-2.192 3.258-.38-2.308-3.458-.95 3.838ZM59.839 53.808l3.264-.353-.803-.33-2.46.683Zm2.251 30.9 3.263-.367.684-.515-3.947.882Zm3.907-27.81.659 1.283 2.602-1.638-3.26.355Zm-9.83 36.285-.17-2.295-10.992 10.596 11.162-8.301Zm.604 2.816-.604-2.816-11.162 8.301L56.771 96Zm-.774-5.11.18-1.838-11.172 12.433 10.992-10.596Zm5.281-5.554-.735.857 4.027-1.227-3.292.37Zm-11.58-27.926-.503.43-.614.576 1.117-1.006Zm15.594 50.48 3.26-.378-2.383-4.757-.877 5.135Zm-7.14-54.49.841.074 2.422-.427-3.263.353Zm11.68 26.553 3.259-.365.692-1.105-3.95 1.47Z"/><path d="m56.17 89.055.446-1.444-11.61 13.872 11.163-12.428Zm10.376-30.853.643 1.415 2.644-1.772-3.287.357Z"/><path d="m60.6 60.252-13.353-.23-2.242 41.47L60.6 60.252Zm-2.787 39.163-1.112-3.397-11.696 5.474 12.808-2.077Zm11.563-34.531 3.254-.358-1.47-3.779-1.784 4.137Zm-6.602 19.305 3.257-.367.538-.443-3.795.81Zm-2.163-29.816 3.259-.353-.768-.564-2.49.917Zm10.573 57.691 2.305 3.459.947-3.837-3.252.378Z"/><path d="m56.615 87.613.63-1.116-12.24 14.987 11.61-13.871Zm5.431-2.912-.748.65 4.011-1.017-3.263.367Zm-5.824 8.549 3.266-.37-.17-2.29-3.096 2.66ZM67.25 59.584l.62 1.513 2.64-1.869-3.26.356ZM56.053 90.96l3.266-.37.178-1.833-3.444 2.203Zm6.854 12.17 2.386 4.76.876-5.135-3.262.375Zm7.62-24.284 3.26-.364.505-1.174-3.764 1.538ZM56.823 96.061l3.266-.372-.6-2.81-2.666 3.182Zm2.17-42.59.803.33 2.46-.683-3.264.353Z"/><path d="m59.657 103.463-1.723-4.088-12.923 2.099 14.646 1.989Zm10.248-37.027 3.269-.36-.583-1.552-2.686 1.912Zm-.09 13.527-.896 1.031 4.165-1.396-3.269.365Zm-8.558-24.821 3.273-.355-.739-.776-2.534 1.13Zm-5.084 34 3.275-.37.446-1.442-3.72 1.811ZM70.42 67.968l3.27-.36-.516-1.532-2.754 1.892ZM54.679 53.715 49.7 57.417l-2.587 2.628 7.565-6.33Zm16.428 23.958 3.264-.364.33-1.239-3.594 1.603ZM67.94 61.095l1.474 3.782 1.79-4.138-3.264.356ZM62.793 84.19l-.685.515 3.953-.882-3.268.367Zm12.788 33.836 3.262-.382-2.04-2.489-1.222 2.871Zm-17.59-18.561 3.27-.374-1.114-3.395-2.157 3.769Zm-5.54 18.259 4.58 7.88 4.605 6.581-9.185-14.461Z"/><path d="m63.305 83.742 3.265-.367 2.41-2.393-5.675 2.76ZM59.83 53.799l.77.564 2.496-.917-3.266.353Zm11.083 15.67 3.26-.36-.433-1.506-2.827 1.867Zm-8.868-13.362 3.265-.354-.708-.967-2.557 1.321Zm9.36 20.325 3.26-.364.17-1.297-3.43 1.66ZM56.707 87.683l3.267-.368.629-1.114-3.896 1.482Zm13.859-8.837-.693 1.105 3.954-1.47-3.261.365Zm.684-7.9 3.262-.361-.34-1.476-2.922 1.837Zm.322 4.188 3.261-.363.023-1.35-3.284 1.713Zm-8.268 8.608-.539.444 3.804-.81-3.265.366Zm8.179-11.356 3.261-.362-.232-1.439-3.03 1.8Zm-3.553 40.061 3.263-.379-2.601-4.554-.662 4.933Zm3.665-38.663 3.26-.363-.111-1.397-3.15 1.76ZM56.085 90.96l.17 2.29 3.097-2.66-3.267.37Zm.17 2.29.6 2.812 2.667-3.182-3.267.37Zm6.47-36.006 3.265-.355-.681-1.136-2.584 1.49Zm6.657 7.632.581 1.553 2.68-1.91-3.261.357Zm-8.783-10.513.737.777 2.528-1.13-3.265.353Zm12.905 61.164 2.038 2.49 1.222-2.87-3.26.38Zm-17.24-26.402-.18 1.835 3.447-2.203-3.267.368ZM52.852 54.43l-.98.826-2.174 2.166 3.154-2.992Z"/><path d="m71.064 77.665-.506 1.175 3.774-1.54-3.267.365Zm-13.761 8.9 3.273-.367.73-.85-4.003 1.218Zm2.344 16.943 3.273-.375-1.712-4.047-1.561 4.422ZM69.954 66.42l.515 1.533 2.752-1.892-3.267.359ZM57.182 86.526l3.417-26.274-15.593 41.24 12.176-14.966Z"/><path d="m56.847 96.069 1.115 3.397 2.158-3.77-3.273.373Zm8.49 11.832 2.606 4.558.663-4.935-3.269.377Zm-1.949-49.377 3.271-.355-.66-1.284-2.61 1.639Zm-6.687 29.164-.446 1.442 3.719-1.81-3.273.368Zm4.635-32.553.71.968 2.562-1.322-3.272.354Zm10.085 21.298-.331 1.239 3.598-1.603-3.267.364Zm-.927-8.472.435 1.508 2.833-1.868-3.267.36Zm6.864 51.716 3.265-.383-1.79-1.645-1.475 2.028Zm-5.766-44.542-.17 1.298 3.437-1.661-3.267.363Zm-.663-5.666.34 1.476 2.927-1.837-3.267.36ZM55.747 53.817l3.275-.353-.844-.074-2.43.427Zm8.281 6.117 3.27-.356-.639-1.41-2.631 1.766Zm-5.967 25.788 3.273-.367.75-.65-4.023 1.017ZM54.84 53.723l-1.802.707-3.117 2.984 4.918-3.69Zm2.055 71.893 2.275 3.448 2.28 3.122-4.555-6.57Z"/><path d="m71.275 70.944.233 1.44 3.035-1.8-3.268.36Zm.345 2.84-.023 1.35 3.291-1.713-3.268.362Zm-14.291 12.79-.63 1.115 3.904-1.483-3.274.368Zm14.179-14.19.112 1.4 3.156-1.76-3.268.36ZM62.047 56.1l.683 1.137 2.589-1.492-3.273.355Zm3.68 25.25L69 80.984l.895-1.03-4.167 1.396Zm-7.766 18.118 1.713 4.049 1.562-4.422-3.275.373Zm6.692-38.021 3.272-.357-.623-1.514-2.65 1.87Zm1.074 19.903-2.416 2.396L69 80.984l-3.272.366Zm4.536 34.575 3.27-.381-2.316-3.461-.954 3.842ZM56.55 54.145l3.276-.354-.806-.33-2.47.683Zm19.025 63.889 1.79 1.647 1.477-2.028-3.267.381ZM58.81 85.072l3.274-.367.687-.516-3.961.883Zm3.92-27.835.66 1.285 2.612-1.64-3.272.355Zm-4.67 28.486-.731.85 4.005-1.217-3.274.367Zm4.006 22.559 3.274-.378-2.392-4.762-.882 5.14ZM54.901 53.74l.844.074 2.432-.427-3.276.353Zm11.722 26.578 3.271-.365.695-1.106-3.966 1.472ZM63.39 58.523l.64 1.41 2.632-1.766-3.272.356Zm15.534 62.088 3.266-.383-1.557-.929-1.709 1.312Zm-12.795-55.38 3.272-.359-1.476-3.782-1.796 4.141Zm-6.633 19.326 3.275-.368.54-.443-3.815.81Zm1.08-24.261-5.887-6.58-7.575 6.347 13.462.233Zm-5.887-6.58-.89.204-.935.506 1.825-.71Z"/><path d="m57.33 54.711 3.276-.354-.771-.564-2.505.918Zm10.625 57.755 2.316 3.462.955-3.842-3.27.38Zm-9.138-27.391-.75.651 4.025-1.018-3.275.367Zm5.22-25.14.624 1.514 2.65-1.87-3.273.356Zm-4.356 43.585 2.393 4.765.881-5.14-3.274.375Zm7.645-24.305 3.271-.365.507-1.175-3.778 1.54ZM55.752 53.817l.807.33 2.47-.684-3.277.354Zm10.968 12.97 3.272-.358-.583-1.554-2.689 1.913Zm-.089 13.534-.896 1.032 4.168-1.397-3.272.365ZM58.07 55.49l3.275-.355-.738-.777-2.537 1.132Zm19.306 64.196 1.558.928 1.709-1.311-3.267.383Zm-10.14-51.364 3.272-.36-.516-1.533-2.756 1.893Zm.596 9.717 3.272-.365.331-1.239-3.603 1.604Zm-3.171-16.59 1.476 3.785 1.796-4.142-3.272.357Zm-5.157 23.11-.687.516 3.961-.883-3.274.368Zm12.81 33.861 3.27-.382-2.043-2.491-1.226 2.873Zm7.964 2.53 3.266-.383-1.344-.337-1.922.72ZM60.044 84.115l3.275-.366 2.416-2.396-5.691 2.762Zm-3.485-29.968.77.564 2.506-.918-3.276.354ZM67.67 69.83l3.272-.36-.435-1.509-2.837 1.869Zm-8.893-13.374 3.276-.355-.71-.968-2.566 1.323Zm9.386 20.342 3.271-.364.17-1.298-3.441 1.662Zm-.838 2.416-.695 1.106 3.966-1.47-3.271.364Zm.686-7.907 3.271-.36-.34-1.478-2.931 1.838Zm.322 4.192 3.272-.363.022-1.351-3.294 1.714Zm-8.29 8.615-.54.445 3.815-.811-3.275.366Zm8.2-11.365 3.272-.362-.233-1.44-3.038 1.802Zm-3.562 40.095 3.273-.379-2.607-4.558-.666 4.937Zm3.675-38.696 3.271-.363-.112-1.398-3.16 1.76Z"/><path d="m56.57 54.117-.806-.33-.844-.073 1.65.403Zm-11.423 47.395 16.434 30.721 18.43 13.144-34.864-43.865Zm14.156-43.908 3.288-.356-.686-1.139-2.602 1.495Zm6.7 7.653.586 1.557 2.7-1.916-3.285.359Zm-8.84-10.542.741.78 2.547-1.134-3.289.354Zm2.594 48.702-14.602-1.973 35.009 43.933-20.407-41.96Zm10.59 12.517 2.04 2.491 1.225-2.872-3.265.381ZM67.91 78.055l-.506 1.176 3.773-1.54-3.267.364Zm11.085 42.563 1.342.336 1.92-.719-3.262.383ZM66.8 66.808l.515 1.533 2.752-1.893-3.267.36Zm14.687 54.018 3.261-.383-1.15.128-2.111.255ZM57.862 55.495l-1.519-1.349-1.66-.406 3.179 1.755Z"/><path d="m62.024 108.238 2.574 4.555.657-4.932-3.231.377Zm-1.925-49.35 3.233-.356-.652-1.283-2.581 1.639Zm-2.853 27.655.715-.85 2.638-25.402-3.353 26.252Zm.699-31.05.71.97 2.571-1.324-3.281.354Zm10.113 21.322-.332 1.241 3.61-1.604-3.278.364Zm-6.355 55.37 2.311 2.802 2.314 2.475-4.625-5.277Zm5.543-63.857.433 1.508 2.83-1.868-3.263.36Zm6.85 51.72 3.26-.383-1.786-1.646-1.475 2.029ZM68.34 75.502l-.17 1.298 3.432-1.66-3.262.362Zm-.662-5.666.34 1.477 2.923-1.838-3.263.36ZM60.791 60.3l3.266-.357-.638-1.41-2.628 1.767Zm7.228 11.012.232 1.44 3.03-1.802-3.262.362Z"/><path d="m57.979 85.693.729-.65 1.89-24.75-2.62 25.4ZM68.254 74.17l-.023 1.353 3.302-1.715-3.28.363Zm-.112-1.4.112 1.4 3.167-1.762-3.28.362Zm-9.49-16.305.686 1.138 2.598-1.493-3.283.355Zm-.789-.971-.742-.78-.774-.566 1.516 1.346Zm4.637 26.23 3.272-.365.895-1.032-4.167 1.397Zm-1.075-19.91 3.273-.356-.622-1.514-2.65 1.87Zm18.879 59.136 1.15-.129 2.114-.254-3.264.383ZM62.5 81.724l-2.415 2.397 5.687-2.762-3.272.365Z"/><path d="m58.65 85.044.681-.515 1.25-24.246-1.93 24.761Zm1.93-24.761-2.672-4.798-3.136-1.745 5.808 6.543Zm6.41 56.001 3.262-.381-2.308-3.46-.954 3.841Zm5.299 2.11 1.785 1.647 1.474-2.029-3.259.382Zm-12.81-60.793.658 1.285 2.607-1.64-3.265.355Zm-.058 26.937.543-.445 2.425-2.4-2.968 2.845Zm3.957-3.851 3.268-.366.693-1.106-3.96 1.472Zm-3.227-21.799.638 1.41 2.63-1.766-3.268.356Zm15.509 62.093 3.262-.383-1.554-.928-1.708 1.311ZM62.885 65.598l3.268-.359-1.473-3.783-1.795 4.142Z"/><path d="m59.272 57.602-.685-1.139-.712-.969 1.397 2.108Zm5.482 55.191 2.323 3.469.96-3.849-3.283.38Zm-3.037 19.392 4.627 5.279 4.635 3.961-9.262-9.24Zm-1.055-71.887.623 1.515 2.65-1.871-3.273.356Zm3.286 19.285 3.271-.365.506-1.176-3.777 1.54Z"/><path d="m60.583 60.3-1.303-2.7-1.395-2.107 2.698 4.805Zm2.912 6.855 3.264-.359-.58-1.553-2.684 1.912Zm-.088 13.532-.893 1.032 4.156-1.397-3.263.365Zm10.712 39.36 1.553.928 1.706-1.311-3.259.383ZM64.01 68.689l3.264-.36-.514-1.533-2.75 1.893Zm.595 9.716 3.263-.364.33-1.24-3.593 1.604Zm-5.184 6.138 2.967-2.845 1.595-2.141-4.562 4.986Zm1.987-22.73 1.47 3.783 1.787-4.14-3.257.357Zm7.613 56.953 3.254-.382-2.032-2.49-1.222 2.872ZM60.59 60.298l-.641-1.412-.66-1.285 1.3 2.697Z"/><path d="m77.046 121.322 3.263-.383-1.342-.337-1.92.72ZM64.458 70.198l3.269-.36-.434-1.509-2.835 1.87Zm.493 6.969 3.268-.364.17-1.298-3.438 1.662Zm-.837 2.416-.693 1.107 3.961-1.472-3.268.365Zm.684-7.907 3.269-.362-.34-1.477-2.928 1.839Zm-5.376 12.87 5.539-10.04-4.289-14.208-1.25 24.248Z"/><path d="m65.069 75.862 3.245-.363.022-1.35-3.267 1.713Zm-.09-2.749 3.246-.362-.23-1.44-3.015 1.802Zm.112 1.398 3.245-.362-.11-1.398-3.135 1.76Zm-2.2-8.91.578 1.553 2.668-1.912-3.246.359Zm4.098 50.669 2.026 2.491 1.218-2.872-3.244.381Zm-7.567-31.726 4.55-4.98 1.03-5.069-5.58 10.05Zm5.189-6.139-.505 1.177 3.772-1.54-3.267.363ZM75.69 120.98l1.342.337 1.92-.72-3.262.383ZM63.502 67.154l.514 1.535 2.753-1.894-3.267.36Zm2.701 70.323 2.285 2.139 2.287 1.81-4.572-3.949Zm-3.287-71.883-1.463-3.782-.617-1.514 2.08 5.296Zm-.399 16.11.888-1.03.688-1.106-1.576 2.136Z"/><path d="m78.201 121.198 3.265-.383-1.15.129-2.115.254Zm-13.25-44.03-.332 1.24 3.601-1.603-3.27.363Zm-.927-8.478.434 1.51 2.835-1.87-3.27.36Zm6.861 51.754 3.268-.383-1.788-1.647-1.48 2.03Zm9.287 24.932-17.966-37.148-2.395-4.766 20.361 41.914Z"/><path d="m64.984 75.872-.171 1.3 3.449-1.664-3.278.364Zm-.665-5.674.341 1.479 2.938-1.84-3.279.361Zm-.494-1.51-1.099-3.09-2.099-5.3 3.197 8.39Z"/><path d="m64.66 71.676.233 1.443 3.05-1.805-3.284.362Zm.345 2.844-.022 1.354 3.306-1.717-3.284.363Zm-.112-1.4.112 1.4 3.172-1.763-3.284.362Zm.063 1.393-1.119-5.827-3.193-8.388 4.312 14.215Zm12.232 46.806 1.16-.13 2.131-.259-3.29.389ZM63.842 68.688l-.515-1.535-.583-1.554 1.098 3.089Zm5.32 50.069 1.8 1.654 1.489-2.037-3.29.383Z"/><path d="m64.184 79.575.505-1.176.33-1.24-.835 2.416Zm0 0 .835-2.416.192-2.65-1.027 5.066Zm15.905 65.803L64.812 112.82l-2.597-4.558 17.874 37.116Zm-7.55-24.027 3.29-.386-1.566-.935-1.724 1.321Z"/><path d="m64.864 71.673-.34-1.477-.432-1.508.772 2.985Zm.343 2.84-.343-2.84-.772-2.986 1.115 5.826Zm-.192 2.65.17-1.3.022-1.35-.192 2.65Zm-3.299 55.075 9.18 9.216 9.178 3.922-18.358-13.138Zm3.491-57.725-.111-1.4-.232-1.44.343 2.84Zm5.843 45.895 1.564.931 1.72-1.315-3.284.384Zm19.393 24.298 3.277-.395 1.624-.26-4.901.655Zm-16.479-23.029 3.285-.385-1.35-.337-1.935.722Z"/><path d="m80.204 145.376-13.034-29.12-2.318-3.465 15.352 32.585Zm-9.23-3.925 2.31 1.48 2.31 1.149-4.62-2.629Zm1.644-20.109 1.35.338 1.935-.723-3.285.385Zm2.506.209 3.285-.385-1.156.129-2.129.256Zm16.95 22.901 3.278-.395 1.503-.414-4.78.809Zm-11.858.924-10.985-26.625-2.045-2.493 13.03 29.118Z"/><path d="m92.072 144.447-1.624.26 4.9-.655-3.276.395Zm-18.099-22.763 1.156-.129 2.128-.256-3.284.385Zm6.252 23.693-9.19-24.974-1.79-1.648 10.98 26.622Zm11.472-31.833 3.25-.38-.972.045-2.278.335Zm1.91 30.501 3.247-.393 1.368-.536-4.616.929Z"/><path d="m71.023 141.427 4.643 2.646 4.634 1.305-9.277-3.951Zm22.625 2.606-1.508.419 4.793-.817-3.285.398Z"/><path d="m80.23 145.377-7.625-24.04-1.557-.93 9.183 24.97Zm12.417-31.662 3.26-.381-.966-.181-2.294.562Zm-1.941-.137.975-.045 2.285-.335-3.26.38Zm4.263 29.933 3.259-.394 1.248-.626-4.507 1.02Zm-7.747 1.603 3.263-.395 1.616-.259-4.879.654Zm-6.987.263-6.275-23.699-1.343-.337 7.618 24.036Z"/><path d="m93.615 114.114 3.248-.38-.954-.389-2.294.769Zm1.36 29.396-1.369.535 4.616-.929-3.247.394Zm-3.278-29.966.963.181 2.286-.561-3.249.38Zm-11.46 31.832-5.119-23.823-1.148.129 6.267 23.694Zm-4.593-1.295 2.298.815 2.295.48-4.593-1.295Z"/><path d="m96.231 142.894 3.265-.393 1.123-.687-4.388 1.08Zm-1.666-28.212 3.265-.381-.951-.577-2.314.958Zm-5.725 30.183 3.267-.394 1.499-.414-4.766.808Zm3.814-31.15.96.389 2.306-.769-3.266.38Zm3.577 29.179-1.25.627 4.515-1.02-3.265.393Zm-7.391 1.971-1.62.26 4.888-.654-3.268.394Zm6.668-29.436 3.266-.381-.944-.747-2.322 1.128Zm1.847 26.778 3.264-.393.994-.715-4.258 1.108Zm-3.741-28.103.95.578 2.315-.958-3.265.38Zm-5.196-.19 3.269-.38-.977.044-2.292.336Zm8.027 2.412 3.265-.381-.936-.897-2.33 1.278Zm-6.107 28.126 3.268-.395 1.375-.536-4.643.931Zm7.017-2.245-1.124.687 4.388-1.08-3.264.393Zm.993-.715 3.265-.393.862-.711-4.126 1.104Zm-3.783-26.81.944.747 2.321-1.128-3.265.381Zm-4.227 29.77-1.498.413 4.766-.808-3.268.395Zm-11.723-26.081-.483.56-.577.727 1.06-1.287Z"/><path d="m97.37 117.352 3.27-.382-.93-1.029-2.34 1.411Zm-7.999-3.26 3.273-.381-.969-.182-2.303.563Zm8.975 27.407-.995.716 4.263-1.109-3.268.393Zm.864-.712 3.268-.393.73-.678-3.998 1.071Zm-11.785-26.832.978-.045 2.295-.336-3.273.381Zm8.077 1.47.938.898 2.332-1.279-3.27.381Zm-13.458-.281-4.488 4.521-.692.768 5.18-5.289Z"/><path d="m91.704 143.916 3.272-.394 1.252-.627-4.524 1.021Zm-7.774 1.605 3.275-.395 1.621-.26-4.896.655Zm14.367-27.035 3.269-.383-.924-1.141-2.345 1.524Zm1.646 21.616 3.268-.393.595-.612-3.863 1.005Zm-9.609-25.628 3.273-.382-.96-.389-2.313.771Zm1.37 29.442-1.377.537 4.65-.931-3.273.394Zm-9.66-28.769-3.428 3.233-1.06 1.288 4.488-4.521Zm14.439 1.202.925 1.028 2.326-1.41-3.251.382Zm2.754 24.438-.86.711 4.11-1.104-3.25.393Zm-18.924 4.593 1.867.148 1.75-.077-3.617-.071Z"/><path d="m88.412 113.913.969.182 2.303-.563-3.272.381Zm10.807 5.818 3.268-.384-.917-1.234-2.35 1.618Zm1.323 19.766 3.267-.392.457-.514-3.724.906Zm-7.579 3.799 3.27-.394 1.125-.687-4.395 1.081Zm-3.142-26.251-13.785 4.086-.983.472 14.768-4.558Z"/><path d="m91.292 115.059 3.27-.381-.952-.578-2.318.959Zm6.082 2.293.924 1.141 2.344-1.524-3.268.383Zm2.569 22.752-.73.678 3.996-1.07-3.266.392Zm-14.383 5.159 3.273-.395 1.5-.414-4.773.809Zm3.82-31.171.96.389 2.31-.77-3.27.381Zm-7.322 1.051-1.01.844-2.426 2.402 3.436-3.246Zm7.758 1.916-12.951 3.394-.829.684 13.78-4.078ZM93 143.262l-1.258.633 4.545-1.031-3.287.398Z"/><path d="m80.27 145.404 9.552-28.363-14.689 4.525 5.137 23.838Zm5.283-.134-1.623.26 4.9-.655-3.277.395Zm15.454-6.288 3.271-.392 2.195-2.153-5.466 2.545Zm-.457.515-.595.612 3.866-1.005-3.271.393Zm-8.312-23.698 3.275-.382-.946-.748-2.329 1.13Zm6.07 2.687.918 1.236 2.353-1.619-3.271.383Zm-17.994 26.908 3.615.068 3.139-.686-6.754.618Z"/><path d="m94.084 142.605 3.273-.393.996-.716-4.27 1.109Zm-3.75-28.133.954.579 2.321-.96-3.274.381Zm11.087 8.333 3.27-.385-2.201-3.083-1.069 3.468ZM101 138.978l-.457.515 3.727-.907-3.27.392Zm-15.874-24.696 3.278-.381-.978.045-2.3.336Zm8.046 2.415 3.274-.382-.939-.898-2.335 1.28Zm-6.12 28.155 3.276-.395 1.378-.536-4.655.931Zm7.032-2.247-1.126.688 4.399-1.081-3.273.393Zm.996-.716 3.273-.393.864-.713-4.137 1.106Zm-3.792-26.838.945.748 2.33-1.13-3.275.382Zm7.931 4.67 2.202 3.084 1.069-3.468-3.27.384Zm-12.168 25.131-1.501.414 4.778-.809-3.277.395Zm15.252-20.772 3.27-.386-.882-1.274-2.388 1.66Zm-8.2-6.353 3.274-.383-.931-1.029-2.343 1.412Zm-4.286-.666-7.76-1.916-5.193 5.312 12.953-3.396Zm-3.746-2.593 3.283-.382-.971-.182-2.312.564Zm17.127 22.385 3.275-.392.885-1.008-4.16 1.4Zm-19.268 8.613 1.63-.262 1.507-.418-3.137.68Z"/><path d="m95.058 141.882-.996.716 4.267-1.109-3.271.393Zm.864-.713 3.271-.393.73-.678-4.001 1.071Zm-11.79-26.843.978-.045 2.298-.337-3.276.382Zm8.081 1.471.938.898 2.334-1.28-3.272.382Zm-8.177-1.48-.99.292-1 .559 1.99-.851Z"/><path d="m103.118 125.354 3.271-.386-.802-1.265-2.469 1.651Zm.09 11.482-2.196 2.154 5.467-2.545-3.271.391Zm-14.772 7.492 3.278-.395 1.253-.628-4.53 1.023Zm6.601-25.451 3.275-.384-.925-1.142-2.35 1.526Zm9.054 16.952 3.271-.391.642-1.046-3.913 1.437Zm-7.406 4.681 3.274-.393.596-.612-3.87 1.005Zm-9.621-25.649 3.279-.382-.962-.389-2.317.771Zm14.369 7.953.882 1.274 2.39-1.66-3.272.386Zm-21.12 22.597 6.75-.611 4.771-2.587-11.521 3.198Z"/><path d="m103.818 126.602 3.272-.387-.707-1.253-2.565 1.64Zm-15.389 17.721-1.379.537 4.657-.932-3.278.395Zm4.745-27.624.931 1.03 2.344-1.412-3.275.382Zm2.773 24.485-.864.713 4.139-1.107-3.275.394Zm-10.822-26.9.97.182 2.309-.564-3.28.382Zm.87.173-1.957-.139-1.993.855 3.95-.716Z"/><path d="m95.955 120.11 3.276-.384-.919-1.236-2.357 1.62Zm1.325 19.788 3.275-.393.457-.515-3.732.908Zm7.142-12.055 3.272-.387-.595-1.238-2.677 1.625Zm.313 6.939 3.272-.391.417-1.083-3.689 1.474Zm-2.419-10.696.803 1.266 2.47-1.651-3.273.385Zm-12.629 19.615 3.279-.395 1.126-.687-4.405 1.082Zm-1.672-28.265 3.279-.382-.954-.578-2.326.96Zm16.078 20.393-.884 1.007 4.156-1.398-3.272.391Zm.797-6.766 3.271-.388-.467-1.219-2.804 1.607Zm-10.78-11.332.926 1.143 2.35-1.526-3.275.383Zm2.575 22.78-.731.678 4.006-1.071-3.275.393Zm8.467-6.812 3.272-.391.208-1.116-3.48 1.507Zm-19.053-19.231.962.39 2.317-.772-3.28.382Zm19.113 15.793 3.272-.388-.323-1.198-2.949 1.586Zm.148 2.321 3.272-.39.014-1.146-3.286 1.536Zm.015-1.147 3.271-.389-.162-1.173-3.109 1.562Zm-2.256-6.083.708 1.253 2.565-1.639-3.273.386Zm-13.432 18.349-1.254.628 4.533-1.023-3.279.395Zm-3.693-29.234-.975-.188-.983.047 1.958.141Z"/><path d="m97.742 139.385 3.274-.392 2.195-2.154-5.47 2.546Zm-.457.515-.596.613 3.87-1.006-3.274.393Zm7.452-5.115-.642 1.047 3.913-1.437-3.271.39Zm-15.769-18.593 3.278-.383-.945-.748-2.333 1.131Zm6.073 2.688.92 1.236 2.355-1.619-3.275.383Zm-4.22 24.134 3.277-.394.996-.716-4.273 1.11Zm13.008-16.404.595 1.238 2.676-1.625-3.271.387Zm-16.761 18.193 1.383-.539 1.257-.63-2.64 1.169Zm-.077-29.942.956.58 2.332-.963-3.288.383Zm11.125 8.365 3.284-.387-2.209-3.095-1.075 3.482Zm-8.303-6.136-3.814-2.635-3.949.715 7.763 1.92Z"/><path d="m97.742 139.385-.457.515 3.731-.907-3.274.392Zm7.414-5.684-.417 1.084 3.688-1.474-3.271.39Zm-.73-5.854.467 1.219 2.804-1.607-3.271.388Zm-14.52-10.759 3.278-.383-.939-.898-2.34 1.281Zm.913 25.927-1.126.688 4.404-1.082-3.278.394Zm14.544-10.43-.207 1.116 3.479-1.506-3.272.39Zm-.47-3.519.323 1.198 2.948-1.586-3.271.388Zm.485 2.372-.015 1.147 3.286-1.536-3.271.389Zm-.162-1.174.162 1.174 3.109-1.562-3.271.388Zm-13.4 12.035 3.277-.394.865-.713-4.142 1.107Zm-3.796-26.858.947.748 2.332-1.13-3.279.382Zm7.94 4.673 2.203 3.087 1.072-3.471-3.275.384Zm-8.892 24.697 2.64-1.168 2.127-1.409-4.767 2.577Zm11.962-20.308 3.284-.387-.885-1.28-2.399 1.667Zm-11.11-9.063-.957-.582-.965-.391 1.921.973Z"/><path d="m90.836 118.12 3.275-.383-.93-1.029-2.345 1.412Zm9.09 19.103 3.271-.392.883-1.007-4.153 1.399Zm-8.112 5.065-.996.716 4.27-1.11-3.274.394Zm.863-.713 3.274-.394.73-.678-4.004 1.072Zm-3.71-25.383.939.898 2.337-1.28-3.275.382Zm10.87 9.548 3.271-.386-.802-1.265-2.47 1.651Zm.09 11.483-2.194 2.153 5.464-2.545-3.27.392Zm-19.614 8.212 11.464-3.173 6.363-6.728-17.827 9.901Zm0 0 17.827-9.901-8.27-18.467-9.557 28.368Zm9.557-28.368-1.882-1.647-1.913-.968 3.795 2.615Z"/><path d="m91.77 119.268 3.274-.384-.924-1.142-2.35 1.526Zm9.049 16.952 3.27-.391.642-1.046-3.912 1.437Zm-7.402 4.681 3.274-.393.594-.612-3.868 1.005Zm-3.71 2.748 1.129-.69.999-.718-2.128 1.408Zm8.447-20.451.88 1.275 2.39-1.66-3.27.385Zm2.389 3.794 3.27-.387-.706-1.253-2.564 1.64Zm-10.635-9.902.93 1.03 2.344-1.413-3.274.383Zm2.771 24.482-.863.713 4.136-1.107-3.273.394Zm-2.863-24.481-.94-.901-.948-.75 1.888 1.651Z"/><path d="m92.686 120.5 3.275-.384-.918-1.236-2.357 1.62Zm1.324 19.788 3.275-.393.457-.515-3.732.908Zm7.139-12.054 3.272-.388-.595-1.237-2.677 1.625Zm.313 6.938 3.272-.391.416-1.082-3.688 1.473Zm-2.418-10.695.803 1.265 2.47-1.651-3.272.386Zm1.776 11.742-.883 1.008 4.155-1.399-3.272.391Zm.796-6.766 3.272-.388-.467-1.219-2.805 1.607Zm-10.773-11.332.924 1.143 2.352-1.526-3.276.383Zm2.572 22.78-.73.679 4.005-1.072-3.275.393Zm8.464-6.812 3.271-.39.208-1.116-3.479 1.506Zm.059-3.437 3.272-.389-.322-1.198-2.95 1.587Zm.148 2.32 3.272-.389.014-1.147-3.286 1.536Zm.015-1.146 3.271-.39-.162-1.173-3.109 1.563Zm-2.254-6.084.707 1.254 2.565-1.64-3.272.386Zm-5.38 14.031 3.275-.393 2.195-2.153-5.47 2.546Zm-.457.515-.595.613 3.87-1.006-3.275.393Zm7.452-5.116-.642 1.047 3.914-1.438-3.272.391Zm-9.695-15.908.919 1.236 2.357-1.62-3.276.384Zm8.787 7.732.595 1.238 2.677-1.625-3.272.387Zm-8.719 15.257.866-.714.732-.68-1.598 1.394Zm3.014-18.652 3.28-.386-2.205-3.089-1.076 3.475Zm-3.161-4.336-.926-1.144-.933-1.031 1.859 2.175Z"/><path d="m94.486 139.776-.458.515 3.737-.908-3.28.393Zm7.421-5.688-.418 1.084 3.693-1.475-3.275.391Zm-.731-5.859.467 1.22 2.809-1.608-3.276.388Zm-9.342 14.026 1.598-1.393 1.053-1.129-2.65 2.522Z"/><path d="m102.088 132.988-.208 1.117 3.485-1.508-3.277.391Zm-.471-3.523.323 1.199 2.954-1.588-3.277.389Zm.485 2.375-.014 1.148 3.292-1.538-3.278.39Zm-.162-1.176.162 1.176 3.115-1.565-3.277.389Zm-9.27-10.162 2.206 3.09 1.076-3.475-3.281.385Zm3.09 4.367 3.28-.386-.883-1.277-2.397 1.663Zm-2.327 15.999.595-.613.458-.516-1.053 1.129Zm3.251-3.255 3.288-.395.887-1.013-4.175 1.408Zm-.164-11.48-4.81-6.869-1.857-2.174 6.667 9.043Z"/><path d="m96.582 126.131 3.262-.387-.8-1.264-2.462 1.651Zm.09 11.478-2.186 2.153 5.447-2.544-3.261.391Zm-1.798-14.025-2.19-3.084-.915-1.234 3.105 4.318Zm-3.052 18.685 2.634-2.516 3.702-4.206-6.336 6.722Z"/><path d="m97.55 136.612 3.272-.392.641-1.046-3.913 1.438Zm-2.657-13.02.882 1.275 2.391-1.661-3.273.386Zm2.39 3.795 3.273-.388-.707-1.253-2.566 1.641Zm.595 1.238 3.272-.388-.594-1.238-2.678 1.626Zm.313 6.94 3.272-.391.417-1.083-3.689 1.474Zm-2.416-10.698.802 1.266 2.47-1.652-3.272.386Zm.753 1.267-1.686-2.543-3.123-4.325 4.809 6.868Z"/><path d="m97.566 136.608-.882 1.008 4.152-1.399-3.27.391Zm.795-6.765 3.269-.388-.466-1.219-2.803 1.607Zm-.212 5.711-1.614-9.43-6.651-9.034 8.265 18.464Zm.464-1.069 3.276-.391.207-1.116-3.483 1.507Zm.06-3.439 3.276-.389-.323-1.199-2.953 1.588Zm.148 2.322 3.275-.39.015-1.147-3.29 1.537Zm.014-1.147 3.276-.39-.162-1.174-3.114 1.564Zm-2.254-6.087.707 1.254 2.569-1.641-3.276.387Zm-2.095 13.62 2.197-2.155 1.527-2.057-3.724 4.212Z"/><path d="m98.204 135.563-.64 1.046 3.909-1.437-3.269.391Zm-.906-8.176.594 1.238 2.675-1.625-3.27.387Zm-.756-1.253-.803-1.267-.883-1.276 1.686 2.543Z"/><path d="m98.623 134.482-.417 1.083 3.69-1.474-3.273.391Zm-.73-5.857.467 1.22 2.806-1.608-3.273.388Zm-1.208 8.98.883-1.008.643-1.048-1.526 2.056Z"/><path d="m98.83 133.368-.207 1.117 3.485-1.507-3.277.39Zm-.47-3.522.323 1.199 2.954-1.588-3.277.389Zm.485 2.374-.014 1.148 3.292-1.538-3.278.39Zm-.162-1.175.162 1.175 3.115-1.564-3.277.389Zm-.808-2.423-.591-1.237-.703-1.252 1.294 2.489Zm.312 6.933.473-4.517-2.079-4.905 1.606 9.422Zm.473-4.517-.785-2.416-1.294-2.489 2.08 4.905Zm-.473 4.517.414-1.082.206-1.116-.62 2.198Zm0 0 .62-2.198-.147-2.319-.473 4.517Zm.473-4.517-.32-1.197-.465-1.219.785 2.416Zm.147 2.319.014-1.145-.16-1.174.146 2.319Z"/></g><mask id="g" style="mask-type:alpha" maskUnits="userSpaceOnUse" x="40" y="52" width="69" height="94"><path d="m40.972 80.033.083 3.312.31 3.417-.393-6.73Zm.393 6.729.537 3.52.764 3.62-1.3-7.14Zm.122-13.035-.515 6.306.393 6.729.122-13.035Zm0 0-.371 3.1-.144 3.206.515-6.306Zm-.122 13.035 1.3 7.14 2.205 7.543-3.505-14.683Zm.122-13.035-.122 13.035 3.505 14.683-3.383-27.718Zm1.179 20.175.989 3.722 1.215 3.821-2.204-7.543Zm-.132-24.813-.58 2.21-.467 2.428 1.047-4.638ZM62.78 92.5l3.26-.375-.165-2.29L62.78 92.5Zm-.165-2.291 3.26-.374.182-1.834-3.442 2.208Zm.76 5.102 3.26-.376-.595-2.81-2.665 3.186Zm-.578-6.937 3.26-.373.447-1.443-3.708 1.816Z" fill="#00A2E5"/><path d="m43.856 65.295-1.421 3.8-1.056 4.64 2.477-8.44Zm20.641 33.411 3.252-.378-1.103-3.392-2.149 3.77Zm-1.234-11.77 3.252-.372.628-1.115-3.88 1.487Z" fill="#00A2E5"/><path d="m44.94 101.456 1.444 3.919 1.67 4.016-3.114-7.935Zm-.928-36.157-.74 1.797-.672 2 1.412-3.797Zm18.602 24.908.166 2.29 3.094-2.664-3.26.374Zm.166 2.29.594 2.811 2.666-3.185-3.26.374Zm.016-4.125-.182 1.835 3.442-2.208-3.26.373ZM47.114 59.995l-5.627 13.736 3.364 27.714 2.263-41.45Z" fill="#00A2E5"/><path d="m63.907 85.822 3.255-.372.729-.851-3.984 1.223Zm2.304 16.93 3.254-.379-1.696-4.043-1.558 4.422Zm-2.8-7.439 1.103 3.395 2.15-3.77-3.254.375Zm-.132-8.376-.446 1.442 3.7-1.815-3.254.373ZM47.113 59.996l-3.244 5.308-2.49 8.444 5.734-13.752Zm15.16-6.864 3.23-.357-.833-.072-2.397.43Zm2.23 31.861 3.23-.371.741-.651-3.971 1.022Zm-.724.85-.623 1.115 3.853-1.486-3.23.372Zm-18.695 15.601 3.16 7.948 4.079 8.331-7.239-16.279Z" fill="#00A2E5"/><path d="m64.541 98.692 1.706 4.05 1.565-4.428-3.27.378ZM45.478 62.294l-.824 1.415-.799 1.604 1.623-3.02Zm17.668-8.837 3.233-.358-.796-.328-2.437.686Zm2.177 30.882 3.232-.37.68-.516-3.912.886Zm-.742.652-.724.85 3.956-1.222-3.232.372Zm3.92 22.522 3.23-.381-2.355-4.753-.875 5.134Zm-6.986-54.457.835.072 2.399-.43-3.233.358Zm4.488 30.768 3.232-.371.534-.444-3.766.815Zm-2.096-29.805 3.233-.357-.761-.563-2.472.92Zm-16.614 5.989-1.61 2.288-1.602 3.015 3.212-5.303Zm.836 49.399 1.899 4.112 2.125 4.206-4.024-8.318Z" fill="#00A2E5"/><path d="m65.296 84.333-.74.651 3.961-1.022-3.22.371Zm-5.765 8.552 3.224-.375-.163-2.288-3.06 2.663Zm-.163-2.29 3.224-.373.18-1.832-3.404 2.206Zm6.747 12.153 2.348 4.754.872-5.133-3.22.379Zm-5.996-7.055 3.224-.376-.588-2.807-2.636 3.183Zm2.214-42.564.793.328 2.429-.686-3.222.358Zm2.278 1.666 3.222-.358-.726-.775-2.496 1.133Zm-5.064 33.968 3.225-.373.44-1.441-3.665 1.814ZM47.113 60.014l-.808 1.06-.828 1.233 1.636-2.293Z" fill="#00A2E5"/><path d="m66.034 83.827-.68.516 3.919-.887-3.24.371Zm-4.788 15.274 3.242-.377-1.099-3.393-2.143 3.77Zm5.324-15.718 3.239-.371 2.397-2.396-5.636 2.767Zm-3.4-29.928.764.563 2.477-.92-3.24.357Zm2.195 2.304 3.24-.358-.701-.966-2.539 1.324Zm-5.348 31.573 3.241-.373.626-1.114-3.867 1.487Zm6.553-3.95-.536.445 3.774-.815-3.238.37Zm4.542 28.69 3.238-.384-2.575-4.549-.663 4.933Zm-11.72-21.464.165 2.29 3.077-2.664-3.242.374Zm.165 2.29.59 2.81 2.651-3.185-3.241.375Zm6.483-36.003 3.24-.36-.675-1.134-2.565 1.494Zm-2.106-2.877.73.775 2.51-1.133-3.24.358Zm-4.361 34.756-.18 1.834 3.422-2.207-3.242.373Zm1.069-2.557 3.242-.372.725-.85-3.967 1.222Zm2.294 16.928 3.24-.38-1.688-4.041-1.552 4.421Zm-2.788-7.438 1.098 3.394 2.143-3.77-3.242.376Zm-14.993 5.737 7.25 16.286 9.128 14.455-16.378-30.741Z" fill="#00A2E5"/><path d="m68.512 107.508 2.568 4.551.661-4.932-3.229.381Zm-1.84-49.332 3.23-.36-.65-1.282-2.58 1.642Zm-6.657 29.148-.443 1.442 3.675-1.814-3.233.372Zm4.634-32.532.7.966 2.531-1.324-3.23.358Zm-16.068 3.612-.701.732-.767.892 1.468-1.623Z" fill="#00A2E5"/><path d="m58.993 53.476 3.262-.358-.841-.073-2.421.431Zm8.241 6.107 3.259-.36-.635-1.41-2.624 1.77Zm-5.99 25.801 3.26-.372.749-.652-4.01 1.024Zm-.73.852-.63 1.116 3.89-1.488-3.26.372Zm4.75-30.483.68 1.136 2.58-1.495-3.26.36ZM68.889 81l3.258-.37.894-1.032L68.888 81ZM49.698 57.4l-1.116 1.009-1.468 1.624 2.584-2.633Z" fill="#00A2E5"/><path d="m61.245 99.097 1.684 4.042 1.548-4.42-3.232.378Zm6.673-37.995 3.23-.36-.613-1.512-2.617 1.872Zm1.026 19.883-2.39 2.397 5.62-2.767-3.23.37ZM52.44 117.724l2.274 4.101 2.281 3.778-4.555-7.879Zm20.99-2.187 3.244-.385-2.292-3.456-.952 3.841Zm-13.5-61.729 3.249-.358-.8-.328-2.45.686Zm2.187 30.908 3.249-.371.682-.516-3.93.888Zm3.937-27.825.653 1.283 2.594-1.642-3.247.359ZM56.16 93.172l-.165-2.297L45.004 101.5l11.157-8.327Zm.599 2.82-.598-2.82-11.157 8.327 11.755-5.508Zm-.764-5.117.182-1.84L45.004 101.5l10.99-10.624Zm5.283-5.538-.736.86 4.027-1.236-3.291.376Zm-11.581-27.93-.503.432-.614.578 1.117-1.01Zm15.547 50.492 3.246-.382-2.365-4.756-.881 5.138Zm-7.015-54.5.838.073 2.41-.43-3.248.357Zm11.582 26.546 3.243-.37.69-1.106-3.933 1.476Zm-13.643 9.096.448-1.446-11.611 13.902 11.163-12.456Zm10.379-30.839.64 1.418 2.645-1.78-3.285.362Z" fill="#00A2E5"/><path d="m60.6 60.233-13.293-.212-2.302 41.49L60.6 60.234Zm-2.84 39.182-1.103-3.397-11.652 5.493 12.754-2.096Zm11.638-34.54 3.238-.363-1.455-3.777-1.783 4.14Zm-6.6 19.32 3.242-.371.535-.444-3.776.815Zm-2.1-29.822 3.242-.358-.763-.562-2.48.92Zm10.419 57.695 2.287 3.456.95-3.84-3.237.384Z" fill="#00A2E5"/><path d="m56.614 87.599.632-1.118L45.005 101.5l11.609-13.901Zm5.44-2.892-.746.652 3.994-1.023-3.248.371Zm-5.812 8.56 3.251-.374-.164-2.29-3.087 2.665Zm11.034-33.694.616 1.513 2.63-1.873-3.246.36Zm-11.2 31.404 3.253-.374.18-1.835-3.432 2.209Zm6.804 12.165 2.366 4.759.882-5.139-3.248.38Zm7.627-24.303 3.245-.37.505-1.175-3.75 1.544Zm-13.673 17.24 3.251-.376-.592-2.81-2.66 3.186Zm2.232-42.609.8.329 2.45-.687-3.25.358Z" fill="#00A2E5"/><path d="m59.65 103.462-1.716-4.103-12.921 2.125 14.637 1.978Zm10.248-37.036 3.259-.364-.578-1.553-2.681 1.917Zm-.112 13.536-.895 1.033 4.153-1.403-3.258.37Zm-8.489-24.825 3.263-.358-.735-.776-2.528 1.135Zm-5.125 34.027 3.266-.374.446-1.443-3.712 1.817ZM70.41 67.96l3.26-.365-.512-1.533-2.748 1.898ZM54.678 53.704 49.7 57.418l-2.587 2.636 7.565-6.35Zm16.44 23.961 3.252-.368.332-1.24-3.584 1.608Zm-3.125-16.58 1.462 3.78 1.79-4.142-3.252.361Zm-5.167 23.11-.683.517 3.939-.888-3.256.372Zm12.681 33.835 3.25-.387-2.028-2.487-1.222 2.874Zm-17.49-18.545 3.257-.379-1.104-3.395-2.154 3.774Zm-5.544 18.239 4.557 7.881 4.583 6.581-9.14-14.462Z" fill="#00A2E5"/><path d="m63.325 83.747 3.251-.371 2.404-2.398-5.655 2.769Zm-3.41-29.95.765.563 2.487-.922-3.252.358Zm11.008 15.66 3.248-.364-.43-1.507-2.818 1.872Zm-8.807-13.354 3.252-.36-.704-.966-2.548 1.325Zm9.285 20.32 3.247-.369.172-1.298-3.42 1.666ZM56.75 87.698l3.254-.373.627-1.115-3.881 1.49Zm13.814-8.86-.692 1.106 3.94-1.476-3.248.37Zm.695-7.905 3.248-.365-.336-1.476-2.912 1.841Zm.313 4.19 3.248-.368.025-1.35-3.273 1.718Zm-8.247 8.623-.537.445 3.788-.816-3.25.37Zm8.163-11.373 3.248-.366-.23-1.44-3.018 1.806Zm-3.606 40.084 3.25-.384-2.583-4.553-.667 4.937Zm3.715-38.685 3.248-.367-.11-1.398-3.138 1.765ZM56.124 90.978l.164 2.291 3.09-2.666-3.254.375Zm.164 2.291.593 2.812 2.661-3.187-3.254.375Zm6.505-36.03 3.251-.36-.676-1.135-2.575 1.495Zm6.615 7.626.576 1.553 2.672-1.916-3.248.363ZM60.68 54.36l.733.776L63.931 54l-3.252.359Zm12.746 61.171 2.026 2.488 1.22-2.873-3.246.385ZM56.304 89.142l-.18 1.836 3.435-2.209-3.255.373Zm-3.452-34.716-.98.828-2.174 2.172 3.154-3Z" fill="#00A2E5"/><path d="m71.057 77.653-.507 1.177 3.763-1.546-3.256.37Zm-13.73 8.926 3.263-.373.73-.852-3.993 1.225Zm2.307 16.948 3.263-.38-1.699-4.047-1.564 4.427ZM69.97 66.404l.51 1.533 2.747-1.897-3.257.364ZM57.153 86.522l3.446-26.289-15.594 41.278 12.148-14.989Z" fill="#00A2E5"/><path d="m56.87 96.089 1.105 3.398 2.157-3.775-3.262.377Zm8.44 11.827 2.589 4.556.669-4.938-3.258.382Zm-1.858-49.4 3.26-.361-.656-1.284-2.604 1.644Zm-6.714 29.188-.446 1.444L60 87.33l-3.262.373Zm4.674-32.577.706.967 2.555-1.326-3.26.359Zm10.014 21.295-.332 1.24 3.588-1.608-3.256.368Zm-.91-8.475.431 1.508 2.826-1.873-3.256.365Zm6.752 51.734 3.254-.388-1.78-1.644-1.474 2.032Zm-5.67-44.558-.172 1.299 3.428-1.666-3.256.367Zm-.65-5.668.336 1.477 2.92-1.842-3.257.365ZM55.844 53.816l3.264-.358-.841-.072-2.423.43Zm8.242 6.11 3.26-.362-.636-1.41-2.624 1.771Zm-5.99 25.81 3.261-.373.749-.652-4.01 1.025Zm-3.184-32.02-1.79.71-3.1 2.988 4.89-3.698Zm1.92 71.905 2.254 3.445 2.26 3.12-4.514-6.565Z" fill="#00A2E5"/><path d="m71.292 70.93.23 1.441 3.028-1.806-3.258.366Zm.339 2.84-.025 1.352 3.283-1.718-3.258.367ZM57.365 86.59l-.63 1.116 3.894-1.49-3.264.374Zm14.157-14.22.109 1.4 3.149-1.766-3.258.367Zm-9.403-16.28.679 1.136 2.583-1.496-3.262.36Zm3.626 25.259 3.26-.37.896-1.033-4.156 1.403Zm-7.772 18.14 1.7 4.048 1.565-4.427-3.264.379Zm6.734-38.053 3.262-.362-.618-1.514-2.644 1.876Zm1.038 19.913-2.413 2.4 5.674-2.77-3.261.37Zm4.462 34.588 3.26-.386-2.302-3.459-.958 3.845ZM56.645 54.142l3.266-.359-.803-.329-2.463.688ZM75.5 118.04l1.782 1.646 1.474-2.032-3.256.386ZM58.844 85.084l3.264-.372.685-.517-3.95.889Zm3.954-27.857.656 1.285 2.606-1.644-3.262.36Zm-4.703 28.51-.73.852 3.994-1.225-3.264.372Zm3.955 22.565 3.263-.382-2.376-4.762-.887 5.144ZM55 53.74l.842.072 2.424-.43-3.265.358Zm11.64 26.577 3.26-.37.695-1.108-3.956 1.478Zm-3.186-21.805.635 1.41 2.627-1.77-3.262.36Zm15.378 62.102 3.256-.388-1.551-.927-1.706 1.315Zm-12.66-55.393 3.263-.363-1.466-3.783-1.796 4.146ZM59.53 84.567l3.264-.372.54-.445-3.804.817Zm1.035-24.273-5.87-6.589-7.581 6.375 13.451.214Zm-5.87-6.589-.891.207-.935.508 1.825-.715Z" fill="#00A2E5"/><path d="m57.424 54.71 3.266-.359-.768-.563-2.498.922Zm10.493 57.773 2.303 3.461.958-3.845-3.26.384Zm-9.062-27.394-.749.653 4.014-1.025-3.265.372ZM64.1 59.927l.619 1.514 2.644-1.875-3.263.36Zm-4.416 43.617 2.377 4.764.887-5.144-3.264.38Zm7.66-24.33 3.262-.37.507-1.177-3.768 1.547Zm-11.49-25.397.803.33 2.463-.688-3.266.358Zm10.91 12.963 3.263-.364-.579-1.553-2.683 1.917Zm-.111 13.542-.895 1.033 4.156-1.403-3.261.37ZM58.16 55.487l3.266-.36-.735-.776-2.53 1.136Zm19.135 64.206 1.551.927 1.706-1.315-3.257.388Zm-10.02-51.378 3.262-.365-.511-1.534-2.751 1.899Zm.578 9.721 3.261-.369.333-1.24-3.594 1.61ZM64.72 61.441l1.465 3.785 1.797-4.146-3.262.361Zm-5.18 23.131-.685.517 3.95-.888-3.265.371Zm12.712 33.863 3.26-.387-2.032-2.49-1.228 2.877Zm7.933 2.52 3.256-.388-1.34-.335-1.916.723ZM60.08 84.127l3.264-.371 2.413-2.4-5.678 2.771Zm-3.424-29.98.768.563 2.498-.922-3.266.358Zm11.05 15.677 3.262-.366-.431-1.508-2.831 1.874Zm-8.841-13.37 3.266-.359-.706-.967-2.56 1.327Zm9.32 20.34 3.262-.368.172-1.299-3.433 1.668Zm-.84 2.42-.693 1.108 3.955-1.478-3.261.37Zm.698-7.912 3.262-.367-.337-1.477-2.925 1.844Zm.314 4.193 3.262-.368.025-1.351-3.287 1.72Zm-8.277 8.632-.54.445 3.804-.816-3.264.371Zm8.193-11.384 3.262-.367-.23-1.44-3.032 1.807Zm-3.62 40.125 3.264-.385-2.591-4.557-.672 4.942Zm3.73-38.725 3.26-.367-.108-1.4-3.153 1.767Z" fill="#00A2E5"/><path d="m56.672 54.105-.802-.33-.841-.072 1.643.402ZM45.21 101.539l16.321 30.714 18.341 13.125-34.662-43.839Zm14.103-43.933 3.284-.361-.683-1.14-2.6 1.5Zm6.678 7.653.582 1.559 2.698-1.923-3.28.364Zm-8.81-10.543.74.779 2.544-1.139-3.284.36Zm2.614 48.683-14.572-1.955 34.87 43.933-20.298-41.978Zm10.535 12.553 2.028 2.489 1.225-2.875-3.253.386Zm-2.362-37.893-.506 1.177 3.76-1.546-3.254.37Zm10.97 42.567 1.336.335 1.913-.723-3.25.388ZM66.88 66.808l.51 1.533 2.745-1.897-3.255.364Zm14.54 54.022 3.25-.388-1.145.13-2.105.258ZM57.86 55.495l-1.516-1.35-1.657-.405 3.172 1.755Z" fill="#00A2E5"/><path d="m61.989 108.242 2.542 4.552.66-4.934-3.203.382Zm-1.825-49.354 3.204-.36-.644-1.282-2.56 1.642Zm-2.918 27.658.707-.851 2.645-25.407-3.352 26.258Zm.733-31.052.708.969 2.566-1.328-3.274.359Zm10.053 21.325-.334 1.242 3.604-1.61-3.27.368Zm-6.322 55.366 2.304 2.803 2.306 2.474-4.61-5.277Zm5.579-63.863.429 1.507 2.819-1.872-3.248.365Zm6.73 51.73 3.246-.388-1.774-1.644-1.472 2.032Zm-5.652-44.555-.172 1.299 3.42-1.666-3.248.367Zm-.649-5.668.336 1.478 2.912-1.843-3.248.365Zm-6.84-9.528 3.25-.361-.632-1.41-2.619 1.77Zm7.176 11.005.228 1.441 3.02-1.806-3.248.365ZM57.978 85.695l.719-.651 1.901-24.753-2.62 25.404Zm10.253-11.521-.024 1.354 3.297-1.722-3.273.368Zm-.11-1.401.11 1.401 3.164-1.769-3.273.368Zm-9.44-16.308.682 1.139 2.595-1.499-3.277.36Zm-.82-.971-.74-.78-.772-.566 1.512 1.346Zm4.689 26.239 3.26-.37.894-1.034-4.155 1.404Zm-1.038-19.918 3.262-.362-.618-1.514-2.644 1.876Zm18.71 59.139 1.147-.131 2.107-.257-3.253.388ZM62.55 81.733l-2.41 2.4 5.671-2.77-3.26.37Z" fill="#00A2E5"/><path d="m58.612 85.046.677-.517 1.282-24.253-1.96 24.77Zm1.959-24.77-2.646-4.795-3.111-1.74 5.757 6.535Zm6.373 56.019 3.248-.385-2.292-3.459-.956 3.844Zm5.27 2.103 1.774 1.645 1.47-2.031-3.243.386ZM59.569 57.602l.653 1.284 2.597-1.644-3.25.36Zm-.147 26.94.542-.446 2.425-2.407-2.968 2.853Zm3.997-3.85 3.255-.37.692-1.108-3.947 1.478Zm-3.177-21.804.634 1.41 2.621-1.77-3.255.36Zm15.339 62.098 3.25-.388-1.547-.926-1.703 1.314ZM62.953 65.597l3.256-.363-1.462-3.783-1.794 4.146Z" fill="#00A2E5"/><path d="m59.268 57.601-.682-1.139-.708-.969 1.39 2.108Zm5.491 55.193 2.313 3.469.965-3.854-3.278.385Zm-3.029 19.391 4.612 5.28 4.622 3.96-9.233-9.24Zm-1.04-71.887.618 1.515 2.644-1.876-3.261.361Zm3.242 19.29 3.26-.37.505-1.177-3.765 1.547Z" fill="#00A2E5"/><path d="M60.575 60.298 59.28 57.6l-1.388-2.107 2.683 4.805Zm2.996 6.858 3.249-.364-.576-1.553-2.673 1.917Zm-.111 13.537-.89 1.033 4.138-1.403-3.248.37Zm10.595 39.358 1.543.927 1.7-1.314-3.243.387ZM64.08 68.69l3.249-.365-.51-1.533-2.739 1.898Zm.575 9.718 3.248-.369.332-1.24-3.58 1.61Zm-5.235 6.141 2.966-2.852 1.596-2.146-4.561 4.998Zm2.067-22.736 1.453 3.782 1.785-4.143-3.238.361Zm7.471 56.958 3.236-.387-2.016-2.488-1.22 2.875Zm-8.374-58.473-.636-1.412-.657-1.285 1.293 2.697Z" fill="#00A2E5"/><path d="m76.98 121.327 3.25-.388-1.336-.335-1.914.723ZM64.53 70.198l3.256-.365-.43-1.508-2.826 1.873Zm.479 6.971 3.255-.368.172-1.3-3.427 1.668Zm-.838 2.419-.692 1.108 3.948-1.478-3.256.37Zm.695-7.912 3.256-.366-.336-1.477-2.92 1.843Zm-5.445 12.877 5.52-10.05-4.237-14.205-1.283 24.255Z" fill="#00A2E5"/><path d="m65.106 75.86 3.223-.367.024-1.35-3.247 1.717Zm-.083-2.75 3.222-.366-.227-1.44-2.995 1.807Zm.108 1.4 3.222-.368-.108-1.398-3.114 1.765Zm-2.17-8.91.572 1.553 2.652-1.916-3.224.363Zm3.984 50.673 2.007 2.488 1.214-2.874-3.221.386ZM59.42 84.551l4.544-4.99 1.037-5.073-5.58 10.063Zm5.246-6.142-.505 1.177 3.757-1.546-3.252.369Zm10.957 42.576 1.335.335 1.913-.723-3.248.388ZM63.58 67.155l.51 1.534 2.743-1.898-3.253.364Zm2.557 70.328 2.264 2.136 2.266 1.807-4.53-3.943Zm-3.142-71.891-1.445-3.781-.61-1.513 2.055 5.294Zm-.422 16.114.882-1.032.685-1.108-1.567 2.14Z" fill="#00A2E5"/><path d="m78.136 121.202 3.252-.388-1.145.13-2.107.258ZM65.01 77.17l-.332 1.242 3.59-1.61-3.258.368Zm-.91-8.48.431 1.509 2.828-1.874-3.258.365Zm6.749 51.768 3.255-.388-1.779-1.645-1.476 2.033Zm9.259 24.918-17.853-37.149-2.38-4.766 20.233 41.915Z" fill="#00A2E5"/><path d="m64.982 75.876-.172 1.3 3.442-1.669-3.27.368Zm-.653-5.677.338 1.479 2.933-1.845-3.27.366Zm-.518-1.511-1.09-3.09-2.082-5.3 3.172 8.39Z" fill="#00A2E5"/><path d="m64.665 71.676.231 1.445 3.047-1.812-3.278.367Zm.34 2.847-.024 1.356 3.303-1.724-3.278.368Zm-.109-1.402.11 1.402 3.168-1.77-3.278.368Zm.039 1.392-1.105-5.828-3.165-8.387 4.27 14.215Zm12.253 46.81 1.16-.133 2.131-.264-3.29.397ZM63.837 68.688l-.511-1.535-.578-1.554 1.089 3.089Zm5.326 50.07 1.796 1.655 1.49-2.044-3.286.389Z" fill="#00A2E5"/><path d="m64.274 79.575.504-1.177.331-1.24-.835 2.417Zm0 0 .835-2.418.196-2.65-1.03 5.068Zm15.713 65.803L64.843 112.83l-2.577-4.555 17.721 37.103Zm-7.449-24.023 3.29-.392-1.565-.935-1.725 1.327Z" fill="#00A2E5"/><path d="m64.962 71.672-.335-1.477-.428-1.508.763 2.985Zm.337 2.84-.337-2.84-.763-2.986 1.1 5.826Zm-.196 2.65.171-1.299.025-1.351-.196 2.65ZM61.73 132.26l9.115 9.205 9.12 3.911L61.73 132.26Zm3.57-57.748-.109-1.4-.228-1.44.337 2.84Zm5.787 45.896 1.56.931 1.72-1.32-3.28.389Zm19.323 24.305 3.273-.4 1.622-.263-4.895.663Zm-16.415-23.038 3.28-.389-1.347-.337-1.933.726Z" fill="#00A2E5"/><path d="m80.153 145.377-12.947-29.122-2.306-3.464 15.253 32.586Zm-9.196-3.916 2.3 1.479 2.301 1.146-4.601-2.625Zm1.697-20.118 1.348.336 1.934-.726-3.282.39Zm2.503.205 3.28-.389-1.154.13-2.126.259Zm16.887 22.911 3.273-.4 1.503-.417-4.776.817Zm-11.874.917L69.264 118.75l-2.035-2.492 12.943 29.118Z" fill="#00A2E5"/><path d="m92.04 144.451-1.622.263 4.894-.663-3.272.4Zm-18.03-22.767 1.154-.13 2.125-.259-3.28.389Zm6.174 23.693-9.117-24.975-1.783-1.647 10.9 26.622Zm11.556-31.833 3.232-.385-.966.046-2.266.339Zm1.847 30.508 3.23-.399 1.362-.537-4.593.936Z" fill="#00A2E5"/><path d="m71.03 141.427 4.635 2.648 4.63 1.303-9.266-3.951Zm22.618 2.607-1.508.423 4.793-.828-3.285.405Z" fill="#00A2E5"/><path d="m80.193 145.377-7.558-24.042-1.55-.928 9.108 24.97Zm12.485-31.667 3.248-.386-.962-.18-2.286.566Zm-1.933-.135.971-.046 2.277-.339-3.248.385Zm4.196 29.941 3.246-.398 1.245-.629-4.491 1.027Zm-7.72 1.615 3.25-.399 1.61-.262-4.86.661Zm-7.023.246-6.21-23.701-1.337-.335 7.547 24.036Z" fill="#00A2E5"/><path d="m93.645 114.112 3.232-.385-.949-.388-2.283.773Zm1.303 29.402-1.361.538 4.592-.936-3.23.398Zm-3.208-29.97.957.18 2.275-.565-3.232.385Zm-11.538 31.833-5.055-23.825-1.143.13 6.198 23.695Zm-4.57-1.29 2.286.812 2.284.478-4.57-1.29Z" fill="#00A2E5"/><path d="m96.204 142.901 3.254-.398 1.121-.689-4.375 1.087Zm-1.613-28.227 3.255-.385-.947-.577-2.308.962Zm-5.758 30.21 3.258-.4 1.494-.415-4.752.815Zm3.855-31.174.955.388 2.3-.774-3.255.386Zm3.516 29.191-1.248.629 4.502-1.027-3.254.398Zm-7.371 1.983-1.615.262 4.873-.662-3.258.4Zm6.697-29.463 3.255-.387-.939-.745-2.316 1.132Zm1.795 26.791 3.254-.398.992-.716-4.246 1.114Zm-3.682-28.114.948.576 2.308-.962-3.256.386Zm-5.178-.183 3.258-.386-.973.047-2.285.339Zm7.997 2.402 3.255-.386-.931-.897-2.324 1.283Zm-6.135 28.151 3.258-.399 1.371-.539-4.63.938Zm6.998-2.256-1.121.689 4.375-1.087-3.254.398Zm.992-.717 3.254-.397.861-.714-4.115 1.111Zm-3.726-26.821.939.747 2.316-1.132-3.255.385Zm-4.264 29.794-1.495.416 4.753-.815-3.258.399ZM78.615 118.37l-.483.56-.577.729 1.06-1.289Z" fill="#00A2E5"/><path d="m97.382 117.341 3.262-.387-.927-1.028-2.335 1.415Zm-7.973-3.251 3.265-.386-.966-.181-2.299.567Zm8.905 27.415-.994.718 4.255-1.116-3.26.398Zm.863-.714 3.261-.398.729-.679-3.99 1.077Zm-11.71-26.836.976-.046 2.29-.339-3.265.385Zm8.055 1.461.934.897 2.328-1.284-3.262.387Zm-13.478-.278-4.488 4.532-.692.77 5.18-5.302Z" fill="#00A2E5"/><path d="m91.687 143.931 3.264-.399 1.25-.63-4.514 1.029Zm-7.758 1.617 3.268-.4 1.617-.262-4.885.662Zm14.377-27.076 3.262-.388-.92-1.141-2.342 1.529Zm1.605 21.63 3.261-.397.594-.614-3.855 1.011Zm-9.541-25.634 3.265-.387-.957-.388-2.308.775Zm1.317 29.463-1.375.539 4.639-.938-3.264.399Zm-9.643-28.79-3.428 3.242-1.061 1.29 4.489-4.532Zm14.474 1.208.919 1.027 2.316-1.413-3.235.386Zm2.699 24.442-.856.713 4.09-1.11-3.234.397Zm-18.904 4.591 1.867.148 1.75-.082-3.617-.066Z" fill="#00A2E5"/><path d="m88.457 113.913.966.181 2.298-.566-3.264.385Zm10.769 5.807 3.26-.388-.913-1.234-2.347 1.622Zm1.285 19.779 3.259-.397.456-.515-3.715.912Zm-7.565 3.813 3.263-.399 1.123-.689-4.386 1.088Zm-3.126-26.286-13.784 4.121-.984.474 14.769-4.595Z" fill="#00A2E5"/><path d="m91.326 115.054 3.262-.387-.948-.576-2.314.963Zm6.062 2.285.919 1.141 2.34-1.528-3.26.387Zm2.522 22.765-.729.679 3.987-1.077-3.258.398Zm-14.351 5.182 3.264-.4 1.497-.416-4.761.816Zm3.862-31.198.956.389 2.306-.775-3.262.386Zm-7.358 1.048-1.01.847-2.43 2.413 3.44-3.26Zm7.75 1.909-12.948 3.422-.83.688 13.778-4.11ZM93 143.263l-1.26.638 4.546-1.042-3.287.404Z" fill="#00A2E5"/><path d="m80.25 145.416 9.571-28.395-14.652 4.549 5.081 23.846Zm5.3-.118-1.62.263 4.89-.663-3.27.4Zm15.431-6.316 3.264-.397 2.195-2.157-5.459 2.554Zm-.457.516-.595.614 3.859-1.011-3.264.397Zm-8.253-23.707 3.268-.387-.942-.747-2.326 1.134Zm6.051 2.681.915 1.235 2.351-1.623-3.266.388Zm-18.009 26.929 3.615.064 3.14-.696-6.755.632Z" fill="#00A2E5"/><path d="m94.063 142.616 3.266-.398.995-.718-4.261 1.116Zm-3.693-28.151.95.577 2.318-.963-3.268.386Zm11.047 8.324 3.263-.39-2.191-3.083-1.072 3.473Zm-.448 16.187-.457.516 3.72-.913-3.263.397Zm-15.794-24.694 3.27-.386-.976.046-2.294.34Zm8.022 2.405 3.267-.387-.934-.898-2.333 1.285Zm-6.154 28.188 3.27-.4 1.375-.539-4.645.939Zm7.02-2.259-1.124.69 4.39-1.088-3.266.398Zm.995-.718 3.266-.398.864-.714-4.13 1.112Zm-3.738-26.856.942.747 2.326-1.133-3.268.386Zm7.906 4.663 2.191 3.084 1.072-3.473-3.264.389Zm-12.183 25.17-1.499.416 4.768-.816-3.27.4Zm15.251-20.812 3.263-.39-.877-1.274-2.386 1.664Zm-8.17-6.346 3.267-.388-.927-1.029-2.34 1.417Zm-4.311-.667-7.752-1.911-5.198 5.335 12.95-3.424Zm-3.707-2.581 3.279-.387-.97-.181-2.309.568Zm17.062 22.39 3.271-.397.885-1.011-4.156 1.408ZM83.93 145.47l1.629-.266 1.508-.422-3.137.688Z" fill="#00A2E5"/><path d="m95.026 141.887-.994.718 4.258-1.116-3.264.398Zm.863-.714 3.264-.398.73-.68-3.994 1.078Zm-11.714-26.848.975-.046 2.293-.34-3.268.386Zm8.058 1.461.934.897 2.33-1.284-3.264.387Zm-8.197-1.471-.99.294-1.001.561 1.99-.855Z" fill="#00A2E5"/><path d="m103.112 125.342 3.265-.391-.799-1.265-2.466 1.656Zm.07 11.493-2.195 2.158 5.46-2.554-3.265.396Zm-14.752 7.519 3.271-.4 1.252-.63-4.523 1.03Zm6.63-25.484 3.268-.388-.92-1.142-2.348 1.53Zm9.006 16.955 3.264-.396.643-1.048-3.907 1.444Zm-7.398 4.696 3.267-.398.595-.613-3.862 1.011Zm-9.558-25.659 3.273-.387-.96-.388-2.313.775Zm14.325 7.94.878 1.274 2.387-1.664-3.265.39Zm-21.122 22.623 6.747-.622 4.774-2.605-11.521 3.227Z" fill="#00A2E5"/><path d="m103.806 126.587 3.265-.392-.704-1.253-2.561 1.645Zm-15.387 17.759-1.376.539 4.647-.939-3.27.4Zm4.781-27.657.928 1.03 2.341-1.417-3.269.387Zm2.727 24.504-.865.715 4.133-1.113-3.268.398Zm-10.754-26.91.968.181 2.304-.567-3.272.386Zm.821.169-1.956-.136-1.993.862 3.949-.726Z" fill="#00A2E5"/><path d="m95.973 120.102 3.27-.389-.915-1.235-2.355 1.624Zm1.288 19.806 3.27-.398.457-.516-3.727.914Zm7.149-12.077 3.266-.392-.592-1.238-2.674 1.63Zm.3 6.945 3.266-.395.418-1.085-3.684 1.48Zm-2.396-10.702.8 1.266 2.467-1.657-3.267.391Zm-12.637 19.651 3.273-.399 1.125-.69-4.398 1.089Zm-1.62-28.29 3.272-.387-.95-.578-2.323.965Zm16.011 20.39-.884 1.01 4.149-1.406-3.265.396Zm.806-6.773 3.266-.393-.464-1.22-2.802 1.613Zm-10.738-11.328.922 1.142 2.348-1.53-3.27.388Zm2.53 22.798-.73.681 4-1.079-3.27.398Zm8.462-6.831 3.266-.395.209-1.117-3.475 1.512Zm-18.982-19.223.959.389 2.314-.775-3.273.386Zm19.048 15.783 3.266-.394-.32-1.198-2.946 1.592Zm.144 2.323 3.265-.395.017-1.148-3.282 1.543Zm.016-1.148 3.266-.395-.16-1.174-3.106 1.569Zm-2.24-6.086.704 1.253 2.562-1.645-3.266.392Zm-13.437 18.385-1.252.631 4.525-1.03-3.273.399Zm-3.685-29.259-.974-.188-.983.048 1.957.14Z" fill="#00A2E5"/><path d="m97.725 139.395 3.268-.397 2.194-2.159-5.462 2.556Zm-.457.516-.595.614 3.863-1.011-3.268.397Zm7.445-5.13-.642 1.049 3.907-1.444-3.265.395ZM89.01 116.193l3.272-.387-.942-.748-2.33 1.135Zm6.056 2.682.914 1.236 2.354-1.624-3.268.388Zm-4.253 24.163 3.27-.4.996-.718-4.266 1.118ZM103.82 126.6l.592 1.238 2.672-1.63-3.264.392Zm-16.754 18.207 1.383-.543 1.258-.634-2.64 1.177Zm-.063-29.945.954.581 2.331-.969-3.285.388Zm11.101 8.368 3.282-.392-2.202-3.099-1.08 3.491Zm-8.296-6.14L86 114.45l-3.947.723 7.755 1.917Z" fill="#00A2E5"/><path d="m97.726 139.395-.457.516 3.725-.914-3.268.398Zm7.408-5.7-.418 1.085 3.683-1.48-3.265.395Zm-.718-5.859.464 1.22 2.801-1.612-3.265.392Zm-14.472-10.748 3.272-.388-.935-.898-2.337 1.286Zm.867 25.95-1.125.69 4.397-1.089-3.272.399Zm14.532-10.46-.209 1.117 3.474-1.512-3.265.395Zm-.463-3.522.32 1.199 2.945-1.592-3.265.393Zm.48 2.374-.017 1.148 3.282-1.542-3.265.394Zm-.16-1.175.16 1.175 3.105-1.569-3.265.394ZM91.807 142.32l3.272-.399.864-.715-4.136 1.114Zm-3.742-26.879.943.748 2.33-1.135-3.272.387Zm7.916 4.667 2.193 3.086 1.076-3.475-3.27.389Zm-8.915 24.708 2.639-1.174 2.129-1.415-4.768 2.589Zm11.964-20.308 3.282-.393-.882-1.282-2.4 1.675Zm-11.112-9.069-.956-.582-.963-.391 1.919.973Z" fill="#00A2E5"/><path d="m90.868 118.12 3.267-.388-.926-1.029-2.34 1.417Zm9.035 19.103 3.262-.396.883-1.009-4.145 1.405Zm-8.101 5.081-.994.718 4.26-1.117-3.266.399Zm.863-.715 3.266-.398.73-.68-3.996 1.078Zm-3.657-25.397.934.898 2.333-1.285-3.267.387Zm10.825 9.54 3.263-.391-.798-1.265-2.465 1.656Zm.07 11.491-2.192 2.159 5.454-2.555-3.262.396Zm-19.591 8.236 11.438-3.192 6.357-6.741-17.795 9.933Zm0 0 17.795-9.933-8.216-18.469-9.579 28.402Zm9.579-28.402-1.874-1.644-1.906-.966 3.78 2.61Z" fill="#00A2E5"/><path d="m91.802 119.269 3.267-.389-.92-1.141-2.347 1.53Zm8.997 16.952 3.263-.396.642-1.048-3.905 1.444Zm-7.39 4.695 3.265-.398.594-.613-3.86 1.011Zm-3.702 2.735 1.128-.692 1-.72-2.128 1.412Zm8.453-20.459.876 1.274 2.385-1.665-3.262.391Zm2.376 3.792 3.261-.392-.702-1.252-2.559 1.644Zm-10.59-9.894.927 1.029 2.339-1.416-3.266.387Zm2.722 24.496-.862.714 4.127-1.113-3.265.399Zm-2.855-24.495-.938-.901-.945-.75 1.883 1.651Z" fill="#00A2E5"/><path d="m92.713 120.5 3.269-.389-.914-1.235-2.355 1.624Zm1.288 19.802 3.268-.398.456-.516-3.724.914Zm7.142-12.074 3.265-.393-.592-1.237-2.673 1.63Zm.301 6.944 3.264-.396.417-1.084-3.681 1.48Zm-2.394-10.701.799 1.265 2.466-1.656-3.265.391Zm1.751 11.749-.882 1.01 4.147-1.406-3.265.396Zm.806-6.772 3.264-.393-.463-1.22-2.801 1.613Zm-10.728-11.326.92 1.142 2.349-1.53-3.27.388Zm2.527 22.794-.73.68 3.998-1.078-3.268.398Zm8.455-6.829 3.264-.395.209-1.118-3.473 1.513Zm.066-3.44 3.264-.394-.32-1.198-2.944 1.592Zm.143 2.322 3.264-.395.017-1.147-3.281 1.542Zm.016-1.148 3.265-.394-.16-1.174-3.105 1.568Zm-2.237-6.085.703 1.254 2.561-1.645-3.264.391Zm-5.391 14.05 3.267-.398 2.194-2.158-5.461 2.556Zm-.457.516-.595.614 3.863-1.012-3.268.398Zm7.443-5.13-.643 1.048 3.907-1.444-3.264.396Zm-9.645-15.908.914 1.236 2.355-1.624-3.269.388Zm8.753 7.726.591 1.238 2.673-1.63-3.264.392Zm-8.718 15.265.866-.717.732-.681-1.599 1.398Zm3.014-18.65 3.276-.391-2.196-3.089-1.08 3.48Zm-3.165-4.34-.923-1.144-.929-1.031 1.852 2.175Z" fill="#00A2E5"/><path d="m94.486 139.789-.458.517 3.731-.915-3.273.398Zm7.416-5.704-.418 1.085 3.689-1.481-3.271.396Zm-.719-5.865.465 1.221 2.806-1.614-3.271.393Zm-9.349 14.039 1.597-1.398 1.054-1.131-2.651 2.529Z" fill="#00A2E5"/><path d="m102.071 132.991-.21 1.119 3.483-1.515-3.273.396Zm-.464-3.527.32 1.201 2.953-1.595-3.273.394Zm.48 2.377-.016 1.15 3.289-1.545-3.273.395Zm-.16-1.176.16 1.176 3.113-1.571-3.273.395Zm-9.237-10.162 2.197 3.091 1.08-3.481-3.277.39Zm3.077 4.368 3.276-.392-.88-1.276-2.396 1.668Zm-2.335 15.998.595-.614.458-.517-1.053 1.131Zm3.252-3.251 3.287-.4.888-1.019-4.174 1.419Zm-.178-11.485-4.79-6.869-1.85-2.174 6.64 9.043Z" fill="#00A2E5"/><path d="m96.596 126.13 3.248-.391-.793-1.264-2.455 1.655Zm.07 11.483-2.18 2.156 5.428-2.553-3.248.397Zm-1.78-14.033-2.176-3.081-.907-1.234 3.083 4.315Zm-3.07 18.697 2.626-2.522 3.692-4.212-6.318 6.734Z" fill="#00A2E5"/><path d="m97.539 136.617 3.264-.396.641-1.048-3.905 1.444Zm-2.627-13.025.877 1.275 2.388-1.665-3.265.39Zm2.377 3.794 3.264-.392-.702-1.253-2.562 1.645Zm.59 1.239 3.265-.393-.591-1.238-2.673 1.631Zm.301 6.944 3.264-.396.417-1.084-3.68 1.48Zm-2.391-10.702.797 1.266 2.467-1.657-3.264.391Zm.727 1.266-1.678-2.543-3.11-4.325 4.788 6.868Z" fill="#00A2E5"/><path d="m97.565 136.613-.88 1.009 4.14-1.406-3.26.397Zm.803-6.771 3.26-.393-.463-1.219-2.797 1.612Zm-.248 5.712-1.593-9.434-6.616-9.03 8.209 18.464Zm.486-1.063 3.269-.396.209-1.118-3.478 1.514Zm.066-3.442 3.268-.394-.32-1.199-2.948 1.593Zm.143 2.323 3.269-.395.016-1.148-3.285 1.543Zm.017-1.148 3.268-.395-.16-1.174-3.108 1.569Zm-2.24-6.089.704 1.255 2.566-1.646-3.27.391Zm-2.106 13.624 2.197-2.161 1.527-2.061-3.724 4.222Z" fill="#00A2E5"/><path d="m98.201 135.567-.64 1.048 3.899-1.444-3.258.396Zm-.89-8.179.59 1.237 2.67-1.63-3.26.393Zm-.773-1.255-.8-1.267-.878-1.276 1.678 2.543Z" fill="#00A2E5"/><path d="m98.62 134.486-.416 1.085 3.682-1.48-3.265.395Zm-.717-5.859.464 1.22 2.801-1.613-3.265.393Zm-1.219 8.98.884-1.01.642-1.05-1.525 2.06Z" fill="#00A2E5"/><path d="m98.83 133.371-.208 1.119 3.48-1.514-3.271.395Zm-.463-3.525.32 1.2 2.951-1.593-3.271.393Zm.48 2.376-.016 1.149 3.288-1.543-3.272.394Zm-.16-1.176.16 1.176 3.112-1.57-3.272.394Zm-.81-2.425-.586-1.236-.697-1.252 1.283 2.488Zm.298 6.935.479-4.519-2.06-4.904 1.581 9.423Zm.479-4.519-.777-2.416-1.283-2.488 2.06 4.904Zm-.479 4.519.414-1.083.207-1.116-.62 2.199Zm0 0 .621-2.199-.142-2.32-.479 4.519Zm.479-4.519-.317-1.197-.46-1.219.777 2.416Zm.142 2.32.016-1.147-.158-1.173.142 2.32Z" fill="#00A2E5"/></mask><g mask="url(#g)"><ellipse cx="108.58" cy="104.846" rx="108.58" ry="104.846" transform="matrix(.9993 .0381 -.0484 .99885 -22.043 -2.17)" fill="url(#h)"/></g><path d="M91.83 119.524c-3.977-5.16-7.27-7.908-11.726-2.469l-2.807 2.834c-2.31 1.619-4.996 6.709-16.6-14.03-8.032-14.354-3.209-19.778-1.627-20.918l2.73-2.654c5.261-3.7 3.079-10.694.662-16.951l-1.456-3.79c-2.433-6.246-4.047-10.267-9.319-6.574l-2.8 2.696c-3.257 4.282-5.657 6.594-7.175 14.555-3.292 11.099 2.425 29.773 9.099 42.255 9.59 17.166 17.24 29.393 28.343 31.013 9.227 1.347 13.486-3.682 15.533-5.401l1.2-1.156c4.8-4.622 3.827-10.121-.151-15.291l-3.906-4.119Z" fill="url(#i)"/><defs><linearGradient id="c" x1="3.262" y1="-68.496" x2="156.978" y2="310.534" gradientUnits="userSpaceOnUse"><stop stop-color="#33BDF7"/><stop offset="1" stop-color="#9ADEFC"/></linearGradient><linearGradient id="d" x1="15.865" y1="13.033" x2="135.842" y2="208.931" gradientUnits="userSpaceOnUse"><stop stop-color="#9ADEFC"/><stop offset="1" stop-color="#33BDF7"/></linearGradient><linearGradient id="e" x1="65.027" y1="14.98" x2="103.907" y2="157.839" gradientUnits="userSpaceOnUse"><stop stop-color="#0BA7E8"/><stop offset="1" stop-color="#8FDBFC"/></linearGradient><linearGradient id="i" x1="53.031" y1="67.056" x2="65.99" y2="142.767" gradientUnits="userSpaceOnUse"><stop stop-color="#fff"/><stop offset="1" stop-color="#E9F8FF"/></linearGradient><radialGradient id="b" cx="0" cy="0" r="1" gradientUnits="userSpaceOnUse" gradientTransform="scale(220.322 179.272) rotate(90 0 1)"><stop stop-color="#BFEBFF"/><stop offset="1" stop-color="#50C7FC" stop-opacity="0"/></radialGradient><radialGradient id="h" cx="0" cy="0" r="1" gradientUnits="userSpaceOnUse" gradientTransform="scale(108.58 104.846) rotate(90 0 1)"><stop stop-color="#BFEBFF"/><stop offset="1" stop-color="#50C7FC" stop-opacity="0"/></radialGradient><filter id="f" x="35.946" y="37.703" width="117.703" height="142.827" filterUnits="userSpaceOnUse" color-interpolation-filters="sRGB"><feFlood flood-opacity="0" result="BackgroundImageFix"/><feColorMatrix in="SourceAlpha" values="0 0 0 0 0 0 0 0 0 0 0 0 0 0 0 0 0 0 127 0" result="hardAlpha"/><feOffset dx="20" dy="10"/><feGaussianBlur stdDeviation="12.5"/><feColorMatrix values="0 0 0 0 0.126319 0 0 0 0 0.667579 0 0 0 0 0.891667 0 0 0 1 0"/><feBlend in2="BackgroundImageFix" result="effect1_dropShadow_1401_348950"/><feBlend in="SourceGraphic" in2="effect1_dropShadow_1401_348950" result="shape"/></filter></defs></svg>