<svg width="64" height="67" fill="none" xmlns="http://www.w3.org/2000/svg"><path d="m.296 28.917-.22 4.22.22 4.222v-8.442Zm1.685-7.94-1.685 7.94v8.442L1.98 20.977ZM.296 37.36l.643 4.062 1.042 3.877-1.685-7.94ZM1.98 20.977.94 24.855l-.643 4.062 1.685-7.94ZM.296 37.36l1.685 7.94 3.19 7.085L.296 37.359Zm1.685 7.94L3.4 48.962l1.772 3.42-3.19-7.085Zm3.19-31.407-1.772 3.42-1.418 3.665 3.19-7.085ZM9.695 7.92 1.981 20.977.296 37.36 9.695 7.92Zm0 0-4.524 5.972-3.19 7.085L9.695 7.92Zm-9.4 29.439 4.876 15.025 10.226 10.524L.296 37.358Zm9.4-29.44-2.42 2.83-2.104 3.143L9.695 7.92ZM5.171 52.385l2.105 3.143 2.419 2.829-4.524-5.972ZM9.695 7.92l-9.4 29.439 15.102 25.55-5.702-54.99ZM5.171 52.384l4.524 5.972 5.702 4.552L5.17 52.384Zm4.524 5.972 2.714 2.475 2.988 2.077-5.702-4.552Zm5.702-54.989-2.988 2.078L9.695 7.92l5.702-4.553Z" fill="#C4C4C4"/><path d="m35.304 65.32 2.75-.455 3.58-.593-6.33 1.048Z" fill="#B0B0B0"/><path d="m22.116.594-6.72 2.774-5.701 4.553L22.116.594Z" fill="#C4C4C4"/><path d="m38.913 1.555 2.722.45-3.58-.593.858.143ZM35.304.957l3.609.598-.858-.143-2.75-.455Zm3.609 63.766-3.609.598 6.33-1.049-2.721.45Zm0 0 2.722-.45 3.45-1.147-6.172 1.597Z" fill="#B0B0B0"/><path d="m15.396 62.91 3.242 1.633 3.477 1.14-6.72-2.774ZM22.116.593l-3.477 1.14-3.243 1.634 6.72-2.774Z" fill="#C4C4C4"/><path d="m42.392 2.715 2.694.437-3.45-1.147.756.71Zm-3.478-1.16 3.478 1.16-.756-.71-2.722-.45Zm-6.44 64.234 2.831-.468 3.609-.598-6.44 1.066Zm9.918-2.226-3.478 1.16 6.172-1.597-2.694.437Zm0 0 2.694-.437 3.279-1.674-5.973 2.111Zm-6.28-62.471 2.802.463-3.609-.598.807.135Z" fill="#B0B0B0"/><path d="m15.396 62.91 6.72 2.774 7.443.588-14.164-3.362Z" fill="#C4C4C4"/><path d="m45.699 4.41 2.666.416-3.279-1.675.613 1.259ZM32.475.488l3.637.603-.807-.134-2.83-.469Z" fill="#B0B0B0"/><path d="M36.761 1.8 22.116.595 9.695 7.92 36.76 1.8Z" fill="#C4C4C4"/><path d="M42.392 2.714 45.7 4.41l-.613-1.259-2.694-.437Zm-6.28 62.472-3.637.603 6.439-1.067-2.802.464Zm0 0 2.802-.464 3.478-1.16-6.28 1.624Zm9.587-3.319 2.666-.416 3.064-2.174-5.73 2.59Zm0 0-3.307 1.696 5.973-2.112-2.666.416Zm-6.08-59.603 2.773.45-3.478-1.16.704.71Zm9.17 4.349 2.64.387-3.064-2.175.424 1.788Z" fill="#B0B0B0"/><path d="m22.114 65.683 3.688.594 3.755-.006-7.443-.588ZM29.557.006 25.802 0l-3.688.594 7.443-.588Z" fill="#C4C4C4"/><path d="m36.111 1.092 3.507 1.173-.705-.71-2.802-.463Zm9.587 3.318 3.09 2.203-.423-1.787-2.667-.416Z" fill="#B0B0B0"/><path d="m9.695 7.92 5.702 54.989 39.482-34.582L9.695 7.92Z" fill="#C4C4C4"/><path d="m29.558 66.27 2.914-.482 3.637-.603-6.551 1.085Zm19.228-6.606 2.64-.387 2.803-2.643-5.443 3.03Zm-9.17 4.349-3.507 1.172 6.28-1.623-2.773.45Zm9.17-4.35-3.09 2.204 5.73-2.59-2.64.387Zm-9.17 4.35 2.773-.45 3.307-1.696-6.08 2.146ZM33.223.613l2.886.478-3.637-.603.751.126Zm18.391 8.68 2.616.35-2.804-2.644.188 2.293ZM42.95 3.98l2.746.428-3.306-1.695.56 1.267ZM29.558.006l3.665.608-.751-.126-2.914-.482Zm19.228 6.607 2.828 2.68-.188-2.294-2.64-.386Z" fill="#B0B0B0"/><path d="m15.396 62.909 14.163 3.361 13.707-5.797-27.87 2.436ZM36.76 1.8 29.56.006l-7.444.587L36.76 1.8Z" fill="#C4C4C4"/><path d="m39.616 2.263 3.334 1.718-.56-1.268-2.774-.45Zm11.998 54.72 2.616-.35 2.497-3.076-5.113 3.426Zm-18.39 8.68-3.666.607 6.55-1.085-2.885.477Zm18.39-8.68-2.828 2.68 5.444-3.03-2.616.35Zm-18.39 8.68 2.885-.478 3.507-1.173-6.393 1.65Zm9.726-3.368 2.746-.428 3.09-2.204-5.836 2.632Zm0 0-3.334 1.717 6.08-2.145-2.746.428Zm11.184-49.882 2.593.306-2.497-3.077-.096 2.771ZM36.76 1.8l2.857.463-3.507-1.172.65.709Zm9.308 4.414 2.719.398-3.09-2.203.37 1.805Zm5.547 3.078 2.52 3.121.096-2.771-2.616-.35Zm2.52 44.57 2.593-.305 2.144-3.473-4.737 3.778ZM33.224.613 36.758 1.8l-.65-.71-2.886-.477Zm9.726 3.368 3.117 2.233-.371-1.805-2.746-.428Zm11.184 49.881-2.52 3.121 5.113-3.426-2.593.305Zm2.164-37.925 2.573.255-2.144-3.473-.429 3.218Z" fill="#B0B0B0"/><path d="m29.558 66.27 3.665-.607 3.536-1.187-7.201 1.794Zm7.2-64.47L33.224.614 29.558.006l7.2 1.794Z" fill="#C4C4C4"/><path d="m46.069 60.063 2.72-.399 2.828-2.68-5.548 3.078Zm-9.308 4.414-3.535 1.186 6.392-1.65-2.857.464Zm9.308-4.415-3.117 2.234 5.836-2.632-2.719.398Zm-9.308 4.415 2.857-.464 3.334-1.717-6.19 2.18Z" fill="#B0B0B0"/><path d="M54.879 28.328 36.76 1.801 9.695 7.92l45.184 20.407Z" fill="#C4C4C4"/><path d="m56.3 50.34 2.573-.255 1.744-3.826-4.317 4.08Zm-2.164-37.926 2.163 3.524.43-3.218-2.593-.306ZM48.92 8.933l2.695.36-2.829-2.68.135 2.32Zm9.14 10.888 2.556.198-1.744-3.826-.813 3.628ZM40.121 3.541l2.83.44-3.335-1.717.505 1.276ZM56.3 50.34l-2.164 3.523 4.736-3.778-2.572.255Zm1.76-3.883 2.557-.198 1.3-4.134-3.857 4.332ZM46.069 6.215l2.854 2.718-.135-2.32-2.719-.398ZM36.76 1.801l3.362 1.74-.505-1.277-2.857-.463Zm22.612 22.216 2.545.136-1.3-4.134-1.245 3.998Zm-3.072-8.08 1.76 3.884.813-3.628-2.573-.255Zm-7.378 41.408 2.694-.36 2.52-3.121-5.215 3.481Zm0 0-2.854 2.718 5.548-3.078-2.694.36Z" fill="#B0B0B0"/><path d="m29.558 66.27 7.2-1.794 6.507-4.003-13.707 5.797Z" fill="#C4C4C4"/><path d="m59.372 42.26 2.545-.135.81-4.391-3.355 4.527Zm-1.312 4.197L56.3 50.34l4.317-4.082-2.556.199Zm2.13-17.983 2.537.07-.81-4.391-1.727 4.32ZM40.122 62.737l2.83-.441 3.116-2.233-5.946 2.674Zm0 0-3.362 1.74 6.191-2.181-2.829.441ZM51.464 12.1l2.672.315-2.52-3.121-.152 2.806Zm8.726 25.704 2.537-.07.278-4.594-2.815 4.664Zm.281-4.664h2.534l-.278-4.595-2.256 4.595Zm-2.41-13.318 1.311 4.195 1.245-3.997-2.556-.198Z" fill="#B0B0B0"/><path d="m15.396 62.91 27.87-2.437 11.611-32.145L15.395 62.91Z" fill="#C4C4C4"/><path d="m43.266 5.803 2.802.41L42.95 3.98l.315 1.823ZM59.372 42.26l-1.312 4.196 3.856-4.332-2.544.136ZM48.922 8.93l2.542 3.167.151-2.806-2.694-.36Zm2.542 45.246 2.671-.315L56.3 50.34l-4.835 3.838Zm7.908-30.162.817 4.458 1.727-4.321-2.544-.137Zm.817 13.787-.817 4.458 3.354-4.527-2.537.07ZM40.122 3.54l3.144 2.264-.315-1.823-2.829-.44Zm11.342 50.638-2.543 3.167 5.214-3.482-2.671.315Zm2.184-38.503 2.651.263-2.164-3.524-.487 3.26Zm6.541 12.799.282 4.665 2.255-4.595-2.537-.07Zm.282 4.665-.282 4.664 2.816-4.664h-2.534ZM43.266 60.472l2.802-.41 2.853-2.718-5.655 3.128Zm0 0-3.144 2.264 5.946-2.674-2.802.41Z" fill="#B0B0B0"/><path d="m36.76 64.477 3.362-1.74 3.144-2.264-6.506 4.004Zm6.506-58.672L40.122 3.54 36.76 1.8l6.506 4.005Z" fill="#C4C4C4"/><path d="m53.648 50.603 2.651-.263 1.761-3.883-4.412 4.146Zm-2.184-38.504 2.184 3.576.488-3.26-2.672-.316Zm-5.32-3.538 2.778.372-2.854-2.718.077 2.346Zm9.281 11.056 2.636.204-1.761-3.883-.875 3.679Zm-1.777 30.986-2.184 3.576L56.3 50.34l-2.652.263Zm1.777-3.942 2.636-.204 1.311-4.196-3.947 4.4ZM43.266 5.805l2.879 2.756-.077-2.346-2.802-.41ZM56.75 23.877l2.623.14-1.312-4.196-1.31 4.055Zm-3.101-8.202 1.777 3.942.875-3.679-2.652-.263Zm-7.503 42.042 2.776-.372 2.543-3.166-5.32 3.538Z" fill="#B0B0B0"/><path d="m48.71 11.774-5.444-5.97-6.506-4.003 11.95 9.973Z" fill="#C4C4C4"/><path d="m46.145 57.716-2.879 2.757 5.656-3.129-2.777.372ZM56.749 42.4l2.623-.14.818-4.458-3.44 4.598Zm-1.324 4.26-1.777 3.941 4.412-4.146-2.635.204Zm2.15-18.26 2.615.073-.818-4.458-1.797 4.386ZM48.71 11.775l2.754.325-2.542-3.167-.212 2.842Zm8.865 26.1 2.615-.071.281-4.665-2.896 4.737Zm.284-4.736h2.612l-.281-4.664-2.331 4.664Zm-2.434-13.522 1.324 4.26 1.311-4.056-2.635-.204Zm1.324 22.785-1.324 4.26 3.947-4.4-2.623.14ZM46.145 8.56l2.565 3.213.212-2.842-2.777-.371Zm2.565 45.942 2.754-.325 2.184-3.576-4.938 3.9Zm8.04-30.627.825 4.526 1.797-4.386-2.623-.14Zm.825 13.999-.826 4.526 3.44-4.598-2.614.072ZM48.71 54.503l-2.565 3.213 5.32-3.538-2.755.325Zm2.204-39.1 2.734.271-2.184-3.575-.55 3.304Zm6.66 12.999.285 4.736 2.33-4.664-2.614-.072Zm.285 4.736-.284 4.737 2.896-4.737H57.86Z" fill="#B0B0B0"/><path d="m43.266 60.473 2.879-2.756 2.565-3.214-5.444 5.97Zm5.444-48.699-2.565-3.213-2.879-2.756 5.444 5.97Zm6.168 16.554L48.71 11.774 36.76 1.801l18.118 26.527Z" fill="#C4C4C4"/><path d="m50.916 50.873 2.734-.271 1.778-3.942-4.512 4.213Zm-2.204-39.1 2.204 3.63.55-3.305-2.754-.325Zm3.998 7.632 2.718.21-1.778-3.94-.94 3.73Zm-1.794 31.468-2.204 3.63 4.938-3.901-2.734.27Z" fill="#B0B0B0"/><path d="m43.266 60.473 5.444-5.97 3.998-7.632-9.442 13.602Z" fill="#C4C4C4"/><path d="m52.708 46.872 2.717-.21 1.324-4.26-4.041 4.47Zm1.337-23.14 2.704.145-1.324-4.26-1.38 4.115Zm-3.13-8.328 1.793 4.002.94-3.73-2.734-.272Zm3.13 27.142 2.704-.144.826-4.526-3.53 4.67Zm-1.337 4.326-1.794 4.002 4.511-4.213-2.717.21Zm2.17-18.544 2.697.074-.826-4.526-1.871 4.452Z" fill="#B0B0B0"/><path d="m43.266 60.473 9.442-13.601 2.17-18.544-11.612 32.145Z" fill="#C4C4C4"/><path d="m54.878 37.95 2.697-.074.284-4.737-2.98 4.81Zm.287-4.811h2.694l-.284-4.737-2.41 4.737Z" fill="#B0B0B0"/><path d="m48.712 54.502 2.204-3.63 1.794-4.001-3.998 7.631Zm3.998-35.097-1.794-4.002-2.204-3.63 3.998 7.632Z" fill="#C4C4C4"/><path d="m52.709 19.406 1.336 4.326 1.38-4.115-2.716-.21Zm1.336 23.14-1.337 4.326 4.042-4.47-2.705.144Zm0-18.814.833 4.596 1.872-4.451-2.705-.145Z" fill="#B0B0B0"/><path d="m54.88 28.327-2.17-8.922-3.998-7.632 6.168 16.554Z" fill="#C4C4C4"/><path d="m54.88 37.95-.834 4.596 3.53-4.67-2.696.074Zm0-9.622.286 4.81 2.41-4.736-2.696-.074Zm.286 4.81-.286 4.812 2.98-4.811h-2.694Z" fill="#B0B0B0"/><path d="m52.709 46.872 1.336-4.326.833-4.596-2.17 8.922Zm2.17-18.544-.834-4.596-1.337-4.326 2.17 8.922Zm-2.17 18.544 2.17-8.922v-9.622l-2.17 18.544Zm2.17-8.922.286-4.81-.287-4.812v9.622Z" fill="#C4C4C4"/><path d="M54.927 33.256c0 18.18-12.237 32.755-27.148 32.755C12.867 66.011.63 51.437.63 33.256.63 15.075 12.867.5 27.78.5c14.91 0 27.148 14.575 27.148 32.756Z" fill="url(#a)" stroke="url(#b)"/><g filter="url(#c)"><path d="m18.827 41.11 4.966-.073-.346-.622-4.62.694Zm.363.573 4.965-.077-.362-.57-4.603.647Zm-.193-16.033 4.967.072.3-.537-5.267.465Zm.302-.542 4.965.077.315-.491-5.28.414Zm.27 17.096 4.964-.082-.378-.516-4.587.598Zm.045-17.591 4.965.08.33-.444-5.295.364Zm.349 18.058 4.963-.087-.393-.462-4.57.55Zm-.018-18.508 4.963.086.345-.4-5.308.314Zm.428 18.921 4.962-.09-.409-.41-4.553.5ZM20.29 23.76l4.963.09.358-.354-5.321.264Zm.509 19.684 4.961-.094-.425-.356-4.536.45Zm-.149-20.04 4.962.092.373-.307-5.335.215ZM18.48 40.48l.347.628 4.62-.694-4.967.066Zm2.761 3.269 4.96-.097-.44-.303-4.52.4Zm-.216-20.657 4.96.096.389-.261-5.35.165Z" fill="#E5E5E5"/><path d="m16.405 44.629.182.392.196.378-.378-.77Z" fill="#fff"/><path d="m18.826 41.11.363.574 4.603-.647-4.966.072Zm.472-16.002-.301.542 5.266-.465-4.965-.076Zm2.4 18.894 4.959-.1-.457-.25-4.502.35Zm-.285-21.172 4.96.098.403-.215-5.363.117ZM19.19 41.684l.378.52 4.587-.598-4.965.078Z" fill="#E5E5E5"/><path d="m16.785 45.4.21.364.226.35-.436-.714Zm1.692-4.918-2.237 3.741.168.406 2.069-4.147Zm-.936-19.945-.398.72-.354.786.752-1.506Z" fill="#fff"/><path d="m19.616 24.613-.316.496 5.28-.415-4.964-.08Z" fill="#E5E5E5"/><path d="m18.475 40.482-2.07 4.148.378.77 1.692-4.918ZM16.783 45.4l.435.714.494.66-.929-1.374Z" fill="#fff"/><path d="m21.818 22.612 4.958.1.419-.169-5.377.069Zm.354 21.586 4.957-.101-.473-.196-4.484.297Zm-2.605-1.995.394.467 4.57-.549-4.964.082Z" fill="#E5E5E5"/><path d="m17.22 46.113.24.337.253.322-.493-.659Z" fill="#fff"/><path d="m19.943 24.164-.33.45 5.294-.364-4.964-.086Z" fill="#E5E5E5"/><path d="m18.47 19.297-.928 1.24-.752 1.506 1.68-2.746Zm.007 21.185L16.786 45.4l.928 1.373.763-6.29Z" fill="#fff"/><path d="m22.235 22.443 4.957.102.434-.123-5.39.02Zm-2.276 20.23.41.413 4.554-.5-4.964.086Zm2.701 1.67 4.956-.102-.489-.142-4.467.245Zm-2.373-20.582-.346.403 5.308-.314-4.962-.089Z" fill="#E5E5E5"/><path d="m17.713 46.773.269.31.283.294-.552-.604Zm.755-27.476-.486.587-.441.653.927-1.24Z" fill="#fff"/><path d="m22.67 22.318 4.956.103.449-.076-5.405-.027Zm-2.3 20.767.426.36 4.536-.45-4.962.09Zm.277-19.68-.36.356 5.322-.264-4.962-.093Z" fill="#E5E5E5"/><path d="m17.717 46.773.552.604.61.549-1.162-1.153Z" fill="#fff"/><path d="m23.168 44.432 4.954-.103-.505-.089-4.449.192Z" fill="#E5E5E5"/><path d="m18.824 41.11-.347-.628-.763 6.291 1.11-5.663ZM16.79 22.043l2.205 3.608.301-.542-2.506-3.066Zm0 0 2.506 3.066.316-.495-2.822-2.571Zm1.476 25.334.297.281.312.268-.61-.549Z" fill="#fff"/><path d="m21.023 23.093-.375.31 5.335-.214-4.96-.096Zm2.098-.853 4.954.104.464-.03-5.418-.074Zm-2.324 21.204.442.305 4.52-.4-4.962.095Z" fill="#E5E5E5"/><path d="m20.858 17.613-2.389 1.683-1.68 2.746 4.07-4.429Zm-4.068 4.429 2.822 2.57.33-.449-3.152-2.121Z" fill="#fff"/><path d="m23.69 44.467 4.953-.104-.52-.035-4.433.139Z" fill="#E5E5E5"/><path d="m17.717 46.773 1.162 1.153 1.387.885-2.549-2.038Z" fill="#fff"/><path d="m21.41 22.83-.389.264 5.35-.166-4.96-.098Zm2.174-.62 4.953.105.245.004-5.198-.108Z" fill="#E5E5E5"/><path d="m16.79 22.043 3.152 2.121.345-.403-3.497-1.718Zm2.784-3.72-.575.453-.53.52 1.105-.974Z" fill="#fff"/><path d="m21.242 43.75.458.25 4.502-.349-4.96.097Zm2.755.713 4.952-.104-.303.004-4.65.1Z" fill="#E5E5E5"/><path d="m18.875 47.926.327.253.345.23-.672-.483ZM16.79 22.043l3.497 1.718.36-.356-3.857-1.362Z" fill="#fff"/><path d="m21.82 22.613-.405.218 5.362-.118-4.958-.1Z" fill="#E5E5E5"/><path d="m16.79 22.043 3.857 1.362.375-.31-4.232-1.052Z" fill="#fff"/><path d="m21.699 44.002.474.198 4.484-.298-4.958.1Z" fill="#E5E5E5"/><path d="m18.875 47.925.672.483.716.402-1.388-.885Zm1.983-30.312-1.284.708-1.105.975 2.39-1.683Zm-4.068 4.429 4.232 1.051.39-.263-4.622-.788Z" fill="#fff"/><path d="m22.237 22.441-.42.171 5.378-.069-4.958-.102Z" fill="#E5E5E5"/><path d="m19.55 48.408.353.21.362.192-.716-.402Z" fill="#fff"/><path d="m24.506 49.67 4.95-.153.553-.04-5.503.193ZM22.17 44.2l.49.143 4.468-.245-4.958.101Z" fill="#E5E5E5"/><path d="m16.79 22.043 4.622.788.404-.218-5.026-.57Zm2.034 19.067-1.11 5.663 5.776 2.884-4.666-8.547Z" fill="#fff"/><path d="m25.001 17.04 4.95.152-.505-.035L25 17.039Zm-2.328 5.278-.435.124 5.39-.021-4.955-.103Z" fill="#E5E5E5"/><path d="m20.858 17.613-.664.321-.62.387 1.284-.708Zm-4.068 4.429 5.026.57.42-.17-5.446-.4Zm.924 24.73 2.549 2.038 3.227.846-5.776-2.884Z" fill="#fff"/><path d="m22.663 44.343.506.09 4.45-.193-4.956.103Z" fill="#E5E5E5"/><path d="m19.189 41.684-.363-.575 4.666 8.547-4.303-7.972Z" fill="#fff"/><path d="m25.058 49.63 4.95-.154.536-.076-5.486.23Z" fill="#E5E5E5"/><path d="m16.79 22.043 5.446.4.435-.124-5.881-.276Z" fill="#fff"/><path d="m25.492 17.105 4.947.153-.487-.066-4.46-.087Zm-2.368 5.135-.45.078 5.405.026-4.955-.104Z" fill="#E5E5E5"/><path d="m20.263 48.811.371.173.38.153-.751-.326Zm-.697-6.606-.38-.52 4.304 7.972-3.924-7.452ZM16.79 22.043l5.88.276.45-.077-6.33-.199Z" fill="#fff"/><path d="m23.168 44.432.523.035 4.431-.139-4.954.104Z" fill="#E5E5E5"/><path d="m19.961 42.672-.394-.467 3.924 7.452-3.53-6.985Zm.303 6.139.752.326.789.25-1.54-.576Z" fill="#fff"/><path d="m25.6 49.552 4.947-.152.521-.111-5.468.263ZM23.587 22.21l-.465.03 5.418.074-4.953-.104Zm2.375-5.007 4.946.152-.47-.097-4.476-.055Z" fill="#E5E5E5"/><path d="m16.79 22.041 6.33.2.465-.031-6.795-.169Zm9.17-4.838-5.102.41-4.068 4.428 9.17-4.838Zm-5.59 25.881-.41-.413 3.53 6.984-3.12-6.57Zm-3.58-21.043 6.795.169.246.003-7.041-.172Z" fill="#fff"/><path d="m23.83 22.215-.245-.004 5.199.108-4.953-.104Z" fill="#E5E5E5"/><path d="m21.015 49.137.39.134.399.115-.789-.25Z" fill="#fff"/><path d="m23.69 44.468.304-.004 4.65-.1-4.954.104Zm2.726-27.134 4.945.15-.454-.128-4.491-.022Z" fill="#E5E5E5"/><path d="m20.8 43.444-.427-.36 3.12 6.571-2.693-6.212Z" fill="#fff"/><path d="m26.12 49.44 4.946-.15.505-.147-5.45.298Z" fill="#E5E5E5"/><path d="m22.326 17.172-.755.187-.71.254 1.465-.441Zm-1.084 26.577-.442-.306 2.694 6.212-2.252-5.906Zm-.976 5.06 1.54.576 1.688.27-3.228-.846Zm1.09-18.403v5.186l1.743.006-1.743-5.192Z" fill="#fff"/><path d="m26.853 17.493 4.944.149-.437-.16-4.507.01Zm-.226 31.798 4.945-.15.489-.182-5.434.332Z" fill="#E5E5E5"/><path d="m21.697 44.001-.459-.252 2.252 5.906-1.793-5.654Zm4.263-26.798-9.17 4.838 7.04.172 2.13-5.01Zm-4.157 32.183.408.096.417.077-.825-.173Z" fill="#fff"/><path d="m24.493 17.004.506.035 4.445.118-4.95-.153Z" fill="#E5E5E5"/><path d="m23.971 17-1.647.173-1.465.44L23.971 17Z" fill="#fff"/><path d="m27.273 17.686 4.942.147-.42-.19-4.523.043Z" fill="#E5E5E5"/><path d="m22.173 44.2-.474-.198 1.793 5.654-1.32-5.456Z" fill="#fff"/><path d="m25.06 49.629-.555.04 5.503-.193-4.949.153Zm2.058-.52 4.943-.15.473-.217-5.416.366Zm.159-16.408 4.942.006v-.135l-4.942.13Z" fill="#E5E5E5"/><path d="m21.353 30.406 1.743 5.192.349.01-2.092-5.202Zm.451 18.98.825.173.862.097-1.687-.27Z" fill="#fff"/><path d="m27.276 32.564 4.943.008.603-.377-5.546.37Z" fill="#E5E5E5"/><path d="m22.662 44.343-.49-.144 1.319 5.457-.83-5.313Z" fill="#fff"/><path d="m27.64 32.796 4.942.005-.363-.094-4.578.089Zm.037-14.886 4.942.145-.403-.222-4.539.077ZM25 17.04l.489.066 4.46.086-4.95-.153Z" fill="#E5E5E5"/><path d="m21.353 30.406 2.092 5.201.336.026-2.428-5.227Z" fill="#fff"/><path d="m27.593 48.888 4.942-.146.457-.254-5.399.4Z" fill="#E5E5E5"/><path d="m22.63 49.559.427.058.435.038-.862-.096Z" fill="#fff"/><path d="m25.597 49.553-.539.076 5.486-.229-4.947.153Z" fill="#E5E5E5"/><path d="m21.353 30.407 2.428 5.226.323.042-2.751-5.268Zm1.815 14.025-.506-.09.829 5.314-.323-5.224ZM23.97 17l-.847.053-.8.12L23.97 17Z" fill="#fff"/><path d="m27.99 32.912 4.941.004-.35-.115-4.59.11Zm.073-14.747 4.94.143-.385-.253-4.556.11Z" fill="#E5E5E5"/><path d="m21.353 30.406 2.751 5.269.31.058-3.061-5.327Z" fill="#fff"/><path d="m25.488 17.105.472.098 4.476.055-4.948-.152Zm2.393 15.08 4.941.011.551-.422-5.491.411Zm.17 16.447 4.94-.144.442-.29-5.382.434Zm.279-15.582 4.94.003-.337-.137-4.603.134Z" fill="#E5E5E5"/><path d="m21.353 30.406 3.061 5.327.298.074-3.359-5.4Z" fill="#fff"/><path d="m28.434 18.453 4.94.14-.368-.284-4.572.144ZM26.122 49.44l-.522.112 5.468-.263-4.946.151Z" fill="#E5E5E5"/><path d="M25.961 17.204 23.971 17l-3.112.614 5.102-.41Zm-4.607 13.203 3.359 5.4.284.092-3.643-5.492Zm1.568-.007-1.568.007 5.454 6.791-3.886-6.798Z" fill="#fff"/><path d="m25.96 17.203.456.13 4.491.022-4.946-.152Zm2.694 16.008 4.939.001-.323-.16-4.616.159Zm-.22-1.452 4.94.015.5-.467-5.44.452Z" fill="#E5E5E5"/><path d="m21.353 30.406 3.643 5.492.272.108-3.915-5.6Z" fill="#fff"/><path d="m28.494 48.34 4.94-.142.424-.325-5.364.467Zm.291-29.57 4.939.137-.351-.315-4.588.178Z" fill="#E5E5E5"/><path d="m23.49 49.656.446.02.57-.006-1.015-.014Zm-2.137-19.25 3.915 5.6.258.123-4.173-5.723Z" fill="#fff"/><path d="m26.627 49.293-.507.148 5.451-.298-4.944.15Zm2.336-15.897h4.938l-.31-.182-4.628.182Zm-2.548-16.062.438.16 4.507-.01-4.945-.15Z" fill="#E5E5E5"/><path d="m21.353 30.406 4.173 5.723.246.14-4.419-5.863Z" fill="#fff"/><path d="m29.122 19.121 4.937.134-.333-.347-4.604.213Zm-.2 28.892 4.938-.139.409-.36-5.347.498Zm.015-16.725 4.938.02.447-.513-5.385.493Z" fill="#E5E5E5"/><path d="m23.49 49.656 1.016.014.554-.04-1.57.026Zm-2.137-19.25 4.42 5.864.232.156-4.652-6.02Zm1.833-.015-.265.01 4.195 7.264-3.93-7.274Z" fill="#fff"/><path d="m29.262 33.6 4.937-.002-.296-.203-4.64.205Z" fill="#E5E5E5"/><path d="m25 17.04-.507-.036-.522-.004 1.028.04Zm-3.647 13.367 4.651 6.02.22.172-4.871-6.192Z" fill="#fff"/><path d="m29.431 19.49 4.937.13-.312-.366-4.625.235Z" fill="#E5E5E5"/><path d="m23.445 30.365-.258.027 3.931 7.274-3.673-7.3Z" fill="#fff"/><path d="m27.118 49.11-.491.183 5.434-.332-4.943.148Z" fill="#E5E5E5"/><path d="m25.96 17.203-2.13 5.01.237.018 1.893-5.028Z" fill="#fff"/><path d="m26.852 17.494.42.192 4.524-.043-4.944-.149Z" fill="#E5E5E5"/><path d="m21.353 30.406 4.87 6.193.207.19-5.077-6.383Z" fill="#fff"/><path d="m29.544 33.828 4.936-.004-.282-.226-4.654.23Zm-.214 13.82 4.936-.135.393-.396-5.33.531Zm.053-16.877 4.937.024.395-.559-5.332.535Z" fill="#E5E5E5"/><path d="m25.96 17.203-1.892 5.029.227.032 1.665-5.06ZM23.694 30.32l-.25.044 3.802 7.556-3.552-7.6Zm-2.34.086 5.077 6.382.197.198-5.274-6.58Z" fill="#fff"/><path d="m29.716 19.881 4.935.127-.284-.387-4.651.26Z" fill="#E5E5E5"/><path d="m23.493 49.655 1.569-.027 1.06-.188-2.63.215Z" fill="#fff"/><path d="M27.276 32.565v.136l4.943-.13-4.943-.006Z" fill="#E5E5E5"/><path d="m25.96 17.203-1.665 5.061.217.048 1.448-5.109Zm-4.607 13.203 5.274 6.58.18.212-5.454-6.792Zm2.583-.146-.243.06 3.552 7.6-3.31-7.66Z" fill="#fff"/><path d="m29.814 34.079 4.935-.007-.27-.248-4.665.255Z" fill="#E5E5E5"/><path d="m25.96 17.204-.96-.165L23.97 17l1.99.204Z" fill="#fff"/><path d="m27.275 32.701.365.094 4.578-.088-4.943-.006Zm-.002-15.015.403.223 4.54-.076-4.944-.147Z" fill="#E5E5E5"/><path d="m25.96 17.203-1.45 5.109.208.062 1.241-5.17Z" fill="#fff"/><path d="m27.592 48.889-.475.22 5.417-.367-4.942.147Zm2.13-1.642 4.935-.13.369-.435-5.304.566Z" fill="#E5E5E5"/><path d="m24.17 30.184-.235.077 3.31 7.66-3.075-7.737Z" fill="#fff"/><path d="m29.974 20.294 4.934.123-.257-.41-4.678.287Zm-.195 9.912 4.935.03.343-.604-5.278.574Z" fill="#E5E5E5"/><path d="m25.96 17.203-1.24 5.17.198.078 1.043-5.248Z" fill="#fff"/><path d="m30.07 34.35 4.935-.01-.255-.27-4.68.28Z" fill="#E5E5E5"/><path d="m24.4 30.088-.23.094 3.186 8.008-2.957-8.102Z" fill="#fff"/><path d="m27.88 32.185-.604.38 5.546-.369-4.941-.01Z" fill="#E5E5E5"/><path d="m25.96 17.203-1.044 5.248.188.09.855-5.338Z" fill="#fff"/><path d="m30.205 20.728 4.934.12-.23-.43-4.704.31Zm-2.564 12.068.351.117 4.59-.112-4.94-.005Zm2.451 14.013 4.934-.127.337-.46-5.271.587ZM27.677 17.91l.387.256 4.555-.11-4.942-.146Z" fill="#E5E5E5"/><path d="m25.959 17.203-.855 5.339.179.106.676-5.445Z" fill="#fff"/><path d="m30.123 29.597 4.934.035.29-.65-5.224.615Z" fill="#E5E5E5"/><path d="m24.62 29.979-.22.11 2.956 8.103-2.735-8.213Z" fill="#fff"/><path d="m30.313 34.644 4.934-.012-.242-.292-4.692.304Z" fill="#E5E5E5"/><path d="m25.96 17.203-.472-.097-.49-.067.962.164Z" fill="#fff"/><path d="m28.052 48.632-.459.256 5.4-.4-4.941.144Z" fill="#E5E5E5"/><path d="m25.962 17.203-.677 5.445.17.12.507-5.565ZM22.922 30.4l3.886 6.798.163.226-4.049-7.024Z" fill="#fff"/><path d="m30.411 21.184 4.934.115-.204-.451-4.73.337Z" fill="#E5E5E5"/><path d="m25.06 49.629.54-.077.522-.112-1.061.189Zm-.223-19.78-.215.128 2.736 8.213-2.521-8.341Zm-1.915.55 4.05 7.025.145.241-4.195-7.265Zm3.04-13.196-.508 5.566.16.135.348-5.7Z" fill="#fff"/><path d="m30.54 34.962 4.932-.015-.228-.314-4.705.33Zm-.127-6.021 4.933.042.238-.695-5.171.653Zm-2.422 3.971.337.139 4.603-.135-4.94-.004Zm2.594-11.25 4.933.11-.177-.473-4.756.363Zm-.157 24.683 4.934-.123.305-.484-5.239.607Z" fill="#E5E5E5"/><path d="m25.043 29.703-.208.146 2.616 8.626-2.409-8.772Zm.918-12.5-.349 5.701.15.15.198-5.85Z" fill="#fff"/><path d="m28.064 18.166.369.287 4.571-.144-4.94-.143Z" fill="#E5E5E5"/><path d="m25.96 17.203-.2 5.851.14.165.06-6.016Z" fill="#fff"/><path d="m28.434 31.76-.553.425 5.492-.41-4.939-.015Z" fill="#E5E5E5"/><path d="m23.49 49.656 2.631-.216 1.93-.808-4.56 1.024Zm-.322-5.224.323 5.224 7.519-4.314-7.842-.91Zm2.074-14.891-.2.162 2.41 8.772-2.21-8.934Z" fill="#fff"/><path d="m30.755 35.301 4.932-.018-.214-.336-4.718.354Zm-.02-13.14 4.933.105-.15-.494-4.783.388Z" fill="#E5E5E5"/><path d="m23.443 30.365 3.673 7.301.13.256-3.803-7.557Z" fill="#fff"/><path d="m30.653 28.239 4.933.048.184-.74-5.117.692Z" fill="#E5E5E5"/><path d="m23.69 44.467-.522-.035 7.842.91-7.32-.875Zm2.27-27.264-.058 6.016.13.17-.071-6.186Z" fill="#fff"/><path d="m28.495 48.34-.443.292 5.382-.433-4.94.14Zm2.365-25.66 4.932.101-.122-.515-4.81.415Z" fill="#E5E5E5"/><path d="m25.96 17.203.072 6.186.118.182-.19-6.368Z" fill="#fff"/><path d="m30.735 45.856 4.932-.118.273-.51-5.205.628Zm-2.406-12.805.324.16 4.616-.157-4.94-.003Z" fill="#E5E5E5"/><path d="m25.435 29.361-.193.18 2.287 9.233-2.094-9.413Z" fill="#fff"/><path d="m30.84 27.492 4.932.055.132-.785-5.065.73Zm.122 8.159 4.932-.022-.205-.346-4.727.368Z" fill="#E5E5E5"/><path d="m25.96 17.203.19 6.368.107.194-.296-6.562Z" fill="#fff"/><path d="m30.952 23.222 4.931.096-.095-.537-4.836.441Zm-2.521-4.77.351.318 4.588-.179-4.94-.14Z" fill="#E5E5E5"/><path d="m25.958 17.203.296 6.562.096.205-.392-6.767Zm-.34 11.962-.185.196 2.093 9.413-1.908-9.61Z" fill="#fff"/><path d="m30.972 26.699 4.931.063.08-.83-5.011.767Zm.051-2.913 4.932.09-.068-.558-4.864.468Z" fill="#E5E5E5"/><path d="m23.994 44.463-.304.004 7.32.875-7.016-.88Zm1.966-27.26.392 6.767.084.216-.476-6.983Zm-1.789 12.98 3.074 7.737.112.27-3.186-8.007Z" fill="#fff"/><path d="m31.063 24.372 4.932.084-.041-.579-4.89.495Zm-.013 1.49 4.932.07.026-.875-4.958.804Zm.027-.884 4.931.079-.013-.6-4.918.52Z" fill="#E5E5E5"/><path d="m25.96 17.203.477 6.983.073.228-.55-7.21Z" fill="#fff"/><path d="m31.149 36.013 4.931-.025-.186-.36-4.745.385Zm-.139 9.329 4.932-.114.24-.533-5.172.647Z" fill="#E5E5E5"/><path d="m25.793 28.955-.174.21 1.908 9.609-1.734-9.82Zm.166-11.752.549 7.211.062.24-.611-7.45Z" fill="#fff"/><path d="m28.653 33.21.31.184 4.629-.182-4.939-.001Z" fill="#E5E5E5"/><path d="m25.96 17.203.612 7.45.05.252-.661-7.702Z" fill="#fff"/><path d="m28.935 31.29-.5.47 5.438-.452-4.938-.019Zm-.015 16.723-.426.328 5.364-.466-4.938.138Z" fill="#E5E5E5"/><path d="m26.854 17.493-.438-.16-.456-.13.893.29Zm-.893-.29.661 7.702.04.262-.701-7.964Zm-1.674 27.239-.293.02 7.015.88-6.722-.9Zm1.674-27.239.7 7.965.029.274-.73-8.239Zm-.007 11.532-.16.22 1.795 10.132-1.635-10.352Z" fill="#fff"/><path d="m31.317 36.39 4.931-.03-.17-.37-4.76.4Zm-2.533-17.62.334.35 4.604-.212-4.938-.137Zm2.466 26.033 4.931-.108.21-.558-5.14.666Z" fill="#E5E5E5"/><path d="m26.095 28.508-.144.229 1.635 10.351-1.491-10.58Zm-1.262 1.342 2.521 8.342.095.284-2.616-8.626Zm-.267 14.554-.282.039 6.723.9-6.441-.939Zm1.552 5.037.507-.148.49-.184-.997.332Zm.106-21.172-.129.239 1.491 10.58-1.362-10.819Z" fill="#fff"/><path d="m31.47 36.777 4.93-.033-.15-.384-4.78.417Zm-2.505-3.382.297.205 4.64-.206-4.937.001Z" fill="#E5E5E5"/><path d="m26.34 28.021-.114.248 1.405 11.147-1.292-11.394Z" fill="#fff"/><path d="m31.461 44.239 4.93-.103.178-.583-5.108.686Z" fill="#E5E5E5"/><path d="m25.242 29.541 2.21 8.934.076.3-2.286-9.234Z" fill="#fff"/><path d="m31.602 37.177 4.93-.036-.134-.397-4.796.433Z" fill="#E5E5E5"/><path d="m26.439 27.766-.099.257 1.291 11.394-1.192-11.651Zm-1.6 16.584-.27.055 6.44.938-6.17-.993Z" fill="#fff"/><path d="m29.332 47.649-.41.364 5.347-.5-4.937.136Z" fill="#E5E5E5"/><path d="m27.678 17.91-.824-.417-.893-.29 1.717.706Z" fill="#fff"/><path d="m29.118 19.121.312.37 4.626-.236-4.938-.134Zm.265 11.65-.449.517 5.385-.493-4.936-.025Z" fill="#E5E5E5"/><path d="m26.52 27.498-.083.267 1.193 11.65-1.11-11.917Z" fill="#fff"/><path d="m31.72 37.59 4.93-.04-.116-.41-4.814.45Zm-.082 6.06 4.93-.097.145-.607-5.075.705Z" fill="#E5E5E5"/><path d="m25.795 28.955 1.734 9.82.06.313-1.794-10.133Z" fill="#fff"/><path d="m29.262 33.6.284.228 4.653-.23-4.937.002Z" fill="#E5E5E5"/><path d="m25.099 44.275-.26.073 6.17.994-5.91-1.067Z" fill="#fff"/><path d="m31.819 38.017 4.93-.044-.099-.422-4.831.466Z" fill="#E5E5E5"/><path d="M27.278 32.702v-.137l-.755-5.067.755 5.204Z" fill="#fff"/><path d="m31.782 43.038 4.93-.092.112-.632-5.042.724Zm.116-4.582 4.929-.049-.08-.434-4.85.483Z" fill="#E5E5E5"/><path d="m26.12 49.44.997-.331.934-.476-1.93.808Z" fill="#fff"/><path d="m31.895 42.399 4.93-.086.08-.657-5.01.743Z" fill="#E5E5E5"/><path d="m26.523 27.498 1.11 11.918-.355-6.714-.755-5.204Z" fill="#fff"/><path d="m29.431 19.49.285.391 4.652-.26-4.937-.13Z" fill="#E5E5E5"/><path d="m26.226 28.27 1.362 10.818.043.328-1.405-11.146Zm-.88 15.916-.248.09 5.91 1.067-5.661-1.157Z" fill="#fff"/><path d="m31.961 38.908 4.929-.053-.062-.447-4.867.5Zm.045.464 4.929-.057-.045-.46-4.884.517Zm-.029 2.365 4.929-.08.048-.68-4.977.76Zm-2.254 5.511-.393.4 5.329-.531-4.936.131Zm2.31-7.4 4.928-.061-.026-.472-4.902.533Zm-.008 1.202 4.93-.073.015-.706-4.944.779Zm.017-.712 4.928-.067-.009-.484-4.92.55Zm-2.498-6.51.27.25 4.666-.254-4.936.005Zm.236-3.621-.397.564 5.332-.534-4.935-.03Z" fill="#E5E5E5"/><path d="m27.676 17.91-.403-.224-.421-.192.824.416Zm-2.092 26.17-.238.106 5.662 1.157-5.424-1.264Z" fill="#fff"/><path d="m29.716 19.88.258.414 4.677-.286-4.935-.127Z" fill="#E5E5E5"/><path d="m25.814 43.955-.227.124 5.424 1.264-5.197-1.388Zm-2.321 5.702 4.56-1.024 2.958-3.29-7.518 4.314Z" fill="#fff"/><path d="m29.814 34.077.256.273 4.679-.28-4.936.007Z" fill="#E5E5E5"/><path d="m27.632 39.415.026.342-.38-7.056.354 6.714ZM29.12 19.12l-1.44-1.21-1.718-.707 3.159 1.917Z" fill="#fff"/><path d="m30.093 46.809-.37.439 5.304-.566-4.934.127Z" fill="#E5E5E5"/><path d="m27.117 49.108.475-.22.459-.256-.933.476Zm-1.09-5.295-.216.141 5.198 1.388-4.983-1.53Z" fill="#fff"/><path d="m30.122 29.598-.343.61 5.278-.575-4.935-.035Z" fill="#E5E5E5"/><path d="m27.991 32.912-.35-.117-.365-.094.715.21Z" fill="#fff"/><path d="m29.977 20.293.231.434 4.704-.31-4.935-.124Z" fill="#E5E5E5"/><path d="m26.228 43.654-.204.16 4.982 1.529-4.778-1.689Z" fill="#fff"/><path d="m30.07 34.35.243.294 4.692-.304-4.934.01Z" fill="#E5E5E5"/><path d="m30.86 22.68-4.9-5.477.73 8.239 4.17-2.762Zm-3.582 9.885.604-.38.553-.426-1.157.806Zm-.853 10.912-.193.176 4.778 1.689-4.585-1.865Z" fill="#fff"/><path d="m30.205 20.729.204.455 4.73-.336-4.934-.12Zm.225 25.617-.338.463 5.271-.586-4.933.123Zm-.016-17.405-.29.656 5.224-.614-4.934-.042Z" fill="#E5E5E5"/><path d="m28.655 33.212-.662-.3-.715-.21 1.377.51Zm2.205-10.53-4.268 4.54-.069.277 4.337-4.817Z" fill="#fff"/><path d="m30.313 34.645.229.317 4.705-.33-4.934.013Z" fill="#E5E5E5"/><path d="m26.607 43.285-.182.193 4.585 1.865-4.403-2.058ZM30.86 22.68l-4.215 4.256-.053.285 4.268-4.54Zm-2.426-4.229-.37-.287-.385-.255.755.542Zm2.425 4.23-4.176 3.96-.038.295 4.215-4.256Zm0 0-4.154 3.657-.022.304 4.177-3.962Z" fill="#fff"/><path d="m30.411 21.184.177.477 4.757-.363-4.934-.114Z" fill="#E5E5E5"/><path d="m30.856 22.682-4.169 2.76.017.287 4.152-3.047Zm0 0-4.146 3.344-.008.313 4.154-3.657Zm0 0-4.152 3.047.006.297 4.146-3.344Zm-4.083 20.396-.169.207 4.403 2.058-4.234-2.265Z" fill="#fff"/><path d="m30.653 28.238-.238.702 5.17-.654-4.932-.048Z" fill="#E5E5E5"/><path d="m27.278 32.566 3.582-9.884-4.337 4.817.755 5.067Z" fill="#fff"/><path d="m30.541 34.963.215.34 4.719-.356-4.934.016Z" fill="#E5E5E5"/><path d="m26.93 42.86-.155.217 4.234 2.265-4.08-2.483Z" fill="#fff"/><path d="m30.736 45.857-.306.489 5.238-.607-4.932.118Zm-.15-24.195.15.5 4.784-.39-4.933-.11Z" fill="#E5E5E5"/><path d="m28.654 33.21-.323-.16-.338-.139.662.3Zm-1.584 9.42-.14.229 4.08 2.483-3.94-2.711Zm.208-10.065 1.157-.806.95-.99-2.107 1.796Z" fill="#fff"/><path d="m30.838 27.492-.185.747 5.117-.692-4.932-.055Zm-.102-5.332.123.52 4.81-.414-4.933-.106Z" fill="#E5E5E5"/><path d="m29.118 19.121-.686-.669-.755-.542 1.441 1.211Zm-1.924 23.273-.125.238 3.94 2.71-3.815-2.948Z" fill="#fff"/><path d="m30.757 35.302.205.35 4.727-.369-4.932.019Z" fill="#E5E5E5"/><path d="m28.052 48.633.443-.293.426-.328-.869.62Zm-.746-6.489-.11.25 3.814 2.948-3.704-3.197Z" fill="#fff"/><path d="m30.857 22.682.095.542 4.837-.442-4.933-.1Zm.15 22.66-.274.515 5.206-.627-4.932.113ZM30.968 26.7l-.132.793 5.064-.73-4.931-.063Z" fill="#E5E5E5"/><path d="m27.4 41.885-.096.259 3.705 3.198-3.609-3.457Zm2.413-7.807-1.16-.867-1.377-.51 2.537 1.377Z" fill="#fff"/><path d="m30.955 23.223.068.563 4.863-.468-4.931-.095Z" fill="#E5E5E5"/><path d="m27.482 41.615-.08.27 3.608 3.457-3.528-3.727Z" fill="#fff"/><path d="m31.05 25.861-.08.839 5.011-.768-4.932-.07Zm-.09 9.79.187.363 4.745-.384-4.932.021Z" fill="#E5E5E5"/><path d="m30.86 22.68-1.74-3.56-3.16-1.917 4.9 5.477Zm-3.202 17.077 3.352 5.585L27.278 32.7l.38 7.056Z" fill="#fff"/><path d="m31.023 23.787.041.585 4.891-.495-4.932-.09Zm.041.585.014.606 4.918-.521-4.932-.085Zm.014.606-.027.884 4.959-.805-4.932-.079Z" fill="#E5E5E5"/><path d="m27.548 41.336-.066.28 3.527 3.725-3.46-4.005Zm.052-.29-.052.29 3.462 4.005-3.41-4.296Zm.037-.3-.037.3 3.41 4.295-3.373-4.596Zm.022-.311-.022.31 3.372 4.596-3.35-4.906Zm-.002-.678.01.357 3.342 5.227-3.352-5.584Zm.01.357-.008.32 3.35 4.907-3.343-5.227Zm1.452-20.994-.334-.35-.352-.319.686.669Z" fill="#fff"/><path d="m31.252 44.804-.242.538 5.173-.647-4.931.109Zm-.103-8.79.17.375 4.761-.4-4.931.025Z" fill="#E5E5E5"/><path d="m28.052 48.632.869-.62.803-.765-1.672 1.385Zm.383-16.873.5-.472.45-.517-.95.99Zm.827 1.84-.297-.205-.31-.183.607.389Z" fill="#fff"/><path d="m31.317 36.388.151.388 4.78-.417-4.931.03Zm.143 7.851-.21.564 5.14-.667-4.93.103Z" fill="#E5E5E5"/><path d="m27.276 32.564 2.107-1.795 1.269-2.53-3.376 4.325Z" fill="#fff"/><path d="m31.47 36.777.134.4 4.797-.433-4.93.033Zm.169 6.874-.178.589 5.108-.686-4.93.097Z" fill="#E5E5E5"/><path d="m29.814 34.077-.553-.477-.608-.39 1.16.867Z" fill="#fff"/><path d="m31.602 37.177.116.413 4.814-.45-4.93.037Z" fill="#E5E5E5"/><path d="m28.922 48.013.41-.364.394-.401-.804.765Z" fill="#fff"/><path d="m31.783 43.038-.145.614 5.075-.706-4.93.092Zm-.063-5.447.098.426 4.831-.466-4.93.04Z" fill="#E5E5E5"/><path d="m29.715 19.881-.285-.39-.312-.37.597.76Z" fill="#fff"/><path d="m31.817 38.017.08.439 4.85-.483-4.93.044Zm.078 4.383-.113.638 5.042-.724-4.929.086Z" fill="#E5E5E5"/><path d="m31.469 36.776-1.656-2.699-2.537-1.376 4.193 4.075Z" fill="#fff"/><path d="m31.9 38.455.062.451 4.866-.5-4.929.049Z" fill="#E5E5E5"/><path d="m29.815 34.077-.27-.25-.283-.227.553.477Z" fill="#fff"/><path d="m31.976 41.736-.08.663 5.009-.743-4.929.08Zm-.016-2.83.045.464 4.884-.517-4.929.053Z" fill="#E5E5E5"/><path d="m28.05 48.633 1.672-1.385 1.287-1.905-2.959 3.29Zm-.774-16.067 3.376-4.326.206-5.558-3.582 9.884Z" fill="#fff"/><path d="m32.026 41.05-.048.687 4.977-.76-4.928.073Zm-.02-1.678.028.476 4.901-.533-4.928.057Zm.028.476.009.49 4.92-.551-4.93.061Zm.009.49-.017.712 4.945-.779-4.928.067Z" fill="#E5E5E5"/><path d="m30.205 20.728-.49-.847-.597-.76 1.087 1.607Zm-.822 10.042.396-.563.343-.61-.74 1.173Zm1.626 14.573.46-8.566-4.193-4.075 3.733 12.64Zm-.804-24.615-.232-.434-.258-.413.49.847Zm-.822 10.042.74-1.173.529-1.357-1.27 2.53Zm1.475-8.089-.653-1.953-1.087-1.607 1.74 3.56Zm-.547 11.964-.242-.294-.256-.273.498.567Zm-.589 12.603.37-.439.337-.464-.707.903Zm1.033-11.946-.444-.657-.498-.567.942 1.224Zm-1.033 11.946.707-.903.58-1.002-1.287 1.905Zm.4-17.651.292-.656.238-.701-.53 1.357Zm.464-7.935-.177-.478-.204-.456.38.934Zm.169 13.64-.215-.34-.229-.317.444.657Zm.103-12.62-.272-1.02-.381-.934.653 1.953Zm.61 14.095-.713-1.475-.942-1.224 1.656 2.699Zm-1.039 9.568.306-.489.274-.513-.58 1.002Zm.429-23.664-.123-.52-.15-.5.273 1.02Zm-.206 5.559.185-.748.133-.792-.318 1.54Zm0 0 .424-3.262-.218-2.297-.206 5.559Zm0 0 .318-1.54.106-1.722-.424 3.262Zm.37-4.453-.069-.564-.095-.542.163 1.106Zm.125 12.227-.187-.363-.205-.349.392.712Zm-.071-11.036-.055-1.191-.163-1.106.218 2.297ZM30.97 26.7l.08-.839.026-.883-.106 1.722Zm.106-1.722-.014-.606-.04-.585.054 1.19Zm.393 11.799-.322-.763-.392-.712.714 1.475Zm-.46 8.566.241-.54.21-.563-.451 1.103Zm.46-8.566-.152-.388-.17-.375.322.763Zm-.46 8.566.45-1.103.323-1.202-.773 2.305Zm0 0 1.032-5.006-.572-3.56-.46 8.566Zm.71-7.752-.116-.414-.134-.4.25.814Zm-.71 7.752.773-2.305.259-2.7-1.032 5.005Zm.45-1.103.178-.589.145-.613-.322 1.202Zm.439-5.784-.18-.865-.25-.814.43 1.679Zm.143 1.881-.143-1.881-.43-1.68.573 3.561Zm-.143-1.881-.08-.44-.1-.425.18.865Zm-.116 4.582.113-.638.081-.663-.194 1.3Zm0 0 .194-1.301.065-1.4-.258 2.7Zm.223-3.667-.045-.464-.062-.451.107.915Zm.036.966-.036-.966-.107-.915.143 1.881Zm-.065 1.4.049-.688.016-.712-.065 1.4Zm.065-1.4-.01-.489-.026-.477.036.966Z" fill="#fff"/></g><path d="m29.842 17.168-5.314-.166c1.275.056 2.181.43 2.774.698.593.269 1.212.747 1.864 1.442.522.557.991 1.445 1.16 1.82.057.11.235.559.492 1.485.258.925.283 2.185.263 2.7-.017.562-.091 1.845-.254 2.482-.204.796-.398 1.467-.94 2.415-.543.948-.772 1.065-1.39 1.66-.495.477-1.014.763-1.212.847v.151c2.068.411 3.186 1.879 3.838 3.27.658 1.108.879 2.855.907 3.59a12.443 12.443 0 0 1-.33 3.874c-.12.458-.477 1.588-.958 2.44-.481.852-1.46 1.814-1.89 2.189-.132.103-.589.424-1.355.88-1.037.477-2.234.668-2.702.705 1.081-.023 3.646-.09 5.252-.176 1.356-.128 2.367-.618 2.703-.847.353-.17 1.286-.774 2.194-1.82.908-1.047 1.469-2.577 1.635-3.212.153-.626.444-2.264.39-3.807-.054-1.543-.39-2.639-.55-2.994-.102-.4-.544-1.467-1.5-2.54-.956-1.074-2.206-1.482-2.711-1.552v-.15c.342-.157 1.196-.666 1.88-1.451.89-.772 1.509-2.684 1.653-3.254.115-.39.223-1.437.262-1.912.026-.674.024-2.24-.186-3.12-.263-1.098-.43-1.48-.645-1.916a7.392 7.392 0 0 0-1.204-1.757 6.232 6.232 0 0 0-1.817-1.347c-.683-.394-1.824-.583-2.31-.627Z" fill="#C4C4C4"/><path d="m29.842 17.168-5.314-.166c1.275.056 2.181.43 2.774.698.593.269 1.212.747 1.864 1.442.522.557.991 1.445 1.16 1.82.057.11.235.559.492 1.485.258.925.283 2.185.263 2.7-.017.562-.091 1.845-.254 2.482-.204.796-.398 1.467-.94 2.415-.543.948-.772 1.065-1.39 1.66-.495.477-1.014.763-1.212.847v.151c2.068.411 3.186 1.879 3.838 3.27.658 1.108.879 2.855.907 3.59a12.443 12.443 0 0 1-.33 3.874c-.12.458-.477 1.588-.958 2.44-.481.852-1.46 1.814-1.89 2.189-.132.103-.589.424-1.355.88-1.037.477-2.234.668-2.702.705 1.081-.023 3.646-.09 5.252-.176 1.356-.128 2.367-.618 2.703-.847.353-.17 1.286-.774 2.194-1.82.908-1.047 1.469-2.577 1.635-3.212.153-.626.444-2.264.39-3.807-.054-1.543-.39-2.639-.55-2.994-.102-.4-.544-1.467-1.5-2.54-.956-1.074-2.206-1.482-2.711-1.552v-.15c.342-.157 1.196-.666 1.88-1.451.89-.772 1.509-2.684 1.653-3.254.115-.39.223-1.437.262-1.912.026-.674.024-2.24-.186-3.12-.263-1.098-.43-1.48-.645-1.916a7.392 7.392 0 0 0-1.204-1.757 6.232 6.232 0 0 0-1.817-1.347c-.683-.394-1.824-.583-2.31-.627Z" fill="url(#d)"/><path d="m29.842 17.168-5.314-.166c1.275.056 2.181.43 2.774.698.593.269 1.212.747 1.864 1.442.522.557.991 1.445 1.16 1.82.057.11.235.559.492 1.485.258.925.283 2.185.263 2.7-.017.562-.091 1.845-.254 2.482-.204.796-.398 1.467-.94 2.415-.543.948-.772 1.065-1.39 1.66-.495.477-1.014.763-1.212.847v.151c2.068.411 3.186 1.879 3.838 3.27.658 1.108.879 2.855.907 3.59a12.443 12.443 0 0 1-.33 3.874c-.12.458-.477 1.588-.958 2.44-.481.852-1.46 1.814-1.89 2.189-.132.103-.589.424-1.355.88-1.037.477-2.234.668-2.702.705 1.081-.023 3.646-.09 5.252-.176 1.356-.128 2.367-.618 2.703-.847.353-.17 1.286-.774 2.194-1.82.908-1.047 1.469-2.577 1.635-3.212.153-.626.444-2.264.39-3.807-.054-1.543-.39-2.639-.55-2.994-.102-.4-.544-1.467-1.5-2.54-.956-1.074-2.206-1.482-2.711-1.552v-.15c.342-.157 1.196-.666 1.88-1.451.89-.772 1.509-2.684 1.653-3.254.115-.39.223-1.437.262-1.912.026-.674.024-2.24-.186-3.12-.263-1.098-.43-1.48-.645-1.916a7.392 7.392 0 0 0-1.204-1.757 6.232 6.232 0 0 0-1.817-1.347c-.683-.394-1.824-.583-2.31-.627Z" fill="url(#e)"/><path d="m23.481 40.4-5.002.07c.443 1.004 1.358 2.102 1.613 2.362.144.193.982.889 1.474 1.115.135.042 1.169.604 2.694.512 1.03-.107 1.734-.576 1.957-.797-1.178-.796-2.101-1.945-2.736-3.262Z" fill="#C4C4C4"/><path d="m23.481 40.4-5.002.07c.443 1.004 1.358 2.102 1.613 2.362.144.193.982.889 1.474 1.115.135.042 1.169.604 2.694.512 1.03-.107 1.734-.576 1.957-.797-1.178-.796-2.101-1.945-2.736-3.262Z" fill="url(#f)"/><path d="M25.931 23.258c-2.905-2.831-6.232.616-6.92 2.415.962.037 3.31.11 5.013.11.32-1.106 1.405-2.144 1.907-2.525Z" fill="#C4C4C4"/><path d="M25.931 23.258c-2.905-2.831-6.232.616-6.92 2.415.962.037 3.31.11 5.013.11.32-1.106 1.405-2.144 1.907-2.525Z" fill="url(#g)"/><path d="M30.577.235 29.228.023a31.6 31.6 0 0 1 1.35.212l11.313 1.77c1.9.474 6.59 2.214 10.14 5.384 3.551 3.17 6.238 7.437 7.137 9.174l1.958 4.308c1.03 3.259 2.829 11.026 1.784 16.022-.626 5.031-2.524 9.993-3.394 11.845-1.088 2.599-4.709 8.684-10.487 12.233-3.047 2.54-9.487 4.048-14.883 4.608.667-.172 2.14-.585 2.698-.861.696-.345 19.999-8.674 18.284-34.44C53.788 14.252 44.553 2.735 30.578.236Z" fill="url(#h)"/><defs><linearGradient id="a" x1="27.779" y1="0" x2="39.919" y2="67.974" gradientUnits="userSpaceOnUse"><stop stop-color="#DEE5F8"/><stop offset="1" stop-color="#BDBEE3"/></linearGradient><linearGradient id="b" x1="38.212" y1="53.368" x2="-4.905" y2="1.663" gradientUnits="userSpaceOnUse"><stop stop-color="#fff" stop-opacity=".7"/><stop offset="1" stop-color="#A0A3CF"/></linearGradient><linearGradient id="d" x1="30.752" y1="17.002" x2="30.752" y2="49.65" gradientUnits="userSpaceOnUse"><stop stop-color="#E5E5E5"/><stop offset="1" stop-color="#E5E5E5" stop-opacity="0"/></linearGradient><linearGradient id="e" x1="53.813" y1="38.669" x2="30.841" y2="49.834" gradientUnits="userSpaceOnUse"><stop stop-color="#EFE6F6"/><stop offset="1" stop-color="#EEECF0"/></linearGradient><linearGradient id="f" x1="22.302" y1="36.501" x2="22.302" y2="52.001" gradientUnits="userSpaceOnUse"><stop offset=".161" stop-color="#F4F4F4"/><stop offset=".755" stop-color="#E5E5E5" stop-opacity="0"/></linearGradient><linearGradient id="g" x1="22.472" y1="22.182" x2="22.306" y2="31.001" gradientUnits="userSpaceOnUse"><stop stop-color="#E5E5E5"/><stop offset="1" stop-color="#E5E5E5" stop-opacity="0"/></linearGradient><linearGradient id="h" x1="80.118" y1="27.416" x2="12.603" y2="39.53" gradientUnits="userSpaceOnUse"><stop stop-color="#BDBEE3"/><stop offset="1" stop-color="#DEE5F8"/></linearGradient><filter id="c" x="11.24" y="9" width="40.731" height="52.676" filterUnits="userSpaceOnUse" color-interpolation-filters="sRGB"><feFlood flood-opacity="0" result="BackgroundImageFix"/><feColorMatrix in="SourceAlpha" values="0 0 0 0 0 0 0 0 0 0 0 0 0 0 0 0 0 0 127 0" result="hardAlpha"/><feOffset dx="5" dy="2"/><feGaussianBlur stdDeviation="5"/><feColorMatrix values="0 0 0 0 0.321569 0 0 0 0 0.156863 0 0 0 0 0.423529 0 0 0 0.3 0"/><feBlend in2="BackgroundImageFix" result="effect1_dropShadow_1155_429041"/><feBlend in="SourceGraphic" in2="effect1_dropShadow_1155_429041" result="shape"/></filter></defs></svg>