<svg width="64" height="67" fill="none" xmlns="http://www.w3.org/2000/svg"><path d="m.995 28.917-.22 4.22.22 4.222v-8.442Zm1.686-7.94-1.686 7.94v8.442L2.68 20.977ZM.995 37.36l.644 4.062 1.042 3.877-1.686-7.94ZM2.68 20.977l-1.042 3.878-.644 4.062 1.686-7.94ZM.995 37.36l1.686 7.94 3.189 7.085L.995 37.359Zm1.686 7.94 1.417 3.664 1.772 3.42-3.19-7.085ZM5.87 13.891l-1.772 3.42-1.417 3.665 3.189-7.085Zm4.524-5.972L2.681 20.977.995 37.36l9.4-29.44Zm0 0L5.87 13.892l-3.19 7.085L10.395 7.92Zm-9.4 29.439L5.87 52.384l10.226 10.524L.995 37.358Zm9.4-29.44-2.419 2.83-2.105 3.143 4.524-5.972ZM5.87 52.385l2.105 3.143 2.42 2.829-4.525-5.972ZM10.394 7.92l-9.4 29.439 15.102 25.55-5.702-54.99ZM5.87 52.384l4.524 5.972 5.702 4.552L5.87 52.384Zm4.524 5.972 2.714 2.475 2.988 2.077-5.702-4.552Zm5.702-54.989-2.988 2.078-2.714 2.475 5.702-4.553Z" fill="#C4C4C4"/><path d="m36.003 65.32 2.75-.455 3.58-.593-6.33 1.048Z" fill="#B0B0B0"/><path d="m22.816.594-6.72 2.774-5.701 4.553L22.816.594Z" fill="#C4C4C4"/><path d="m39.611 1.555 2.723.45-3.58-.593.857.143ZM36.003.957l3.608.598-.857-.143-2.751-.455Zm3.608 63.766-3.608.598 6.33-1.049-2.722.45Zm0 0 2.723-.45 3.45-1.147-6.173 1.597Z" fill="#B0B0B0"/><path d="m16.095 62.91 3.243 1.633 3.476 1.14-6.72-2.774ZM22.815.593l-3.477 1.14-3.243 1.634 6.72-2.774Z" fill="#C4C4C4"/><path d="m43.091 2.715 2.694.437-3.45-1.147.756.71Zm-3.478-1.16 3.478 1.16-.756-.71-2.722-.45Zm-6.44 64.234 2.831-.468 3.609-.598-6.44 1.066Zm9.918-2.226-3.478 1.16 6.172-1.597-2.694.437Zm0 0 2.694-.437 3.28-1.674-5.974 2.111Zm-6.28-62.471 2.802.463-3.608-.598.806.135Z" fill="#B0B0B0"/><path d="m16.095 62.91 6.72 2.774 7.443.588-14.163-3.362Z" fill="#C4C4C4"/><path d="m46.398 4.41 2.666.416-3.279-1.675.613 1.259ZM33.174.488l3.637.603-.806-.134-2.831-.469Z" fill="#B0B0B0"/><path d="M37.461 1.8 22.816.595 10.395 7.92 37.46 1.8Z" fill="#C4C4C4"/><path d="m43.091 2.714 3.307 1.696-.613-1.259-2.694-.437Zm-6.28 62.472-3.637.603 6.439-1.067-2.802.464Zm0 0 2.802-.464 3.478-1.16-6.28 1.624Zm9.587-3.319 2.666-.416 3.064-2.174-5.73 2.59Zm0 0-3.307 1.696 5.973-2.112-2.666.416Zm-6.08-59.603 2.773.45-3.478-1.16.705.71Zm9.17 4.349 2.64.387-3.064-2.175.424 1.788Z" fill="#B0B0B0"/><path d="m22.814 65.683 3.688.594 3.755-.006-7.444-.588ZM30.257.006 26.502 0l-3.688.594 7.443-.588Z" fill="#C4C4C4"/><path d="m36.81 1.092 3.508 1.173-.705-.71-2.803-.463Zm9.587 3.318 3.09 2.203-.423-1.787-2.666-.416Z" fill="#B0B0B0"/><path d="m10.395 7.92 5.701 54.989 39.482-34.582L10.394 7.92Z" fill="#C4C4C4"/><path d="m30.257 66.27 2.914-.482 3.637-.603-6.551 1.085Zm19.228-6.606 2.64-.387 2.804-2.643-5.444 3.03Zm-9.17 4.349-3.507 1.172 6.28-1.623-2.773.45Zm9.17-4.35-3.09 2.204 5.73-2.59-2.64.387Zm-9.17 4.35 2.774-.45 3.306-1.696-6.08 2.146ZM33.923.613l2.885.478-3.637-.603.752.126Zm18.39 8.68 2.616.35-2.804-2.644.189 2.293ZM43.65 3.98l2.746.428-3.306-1.695.56 1.267ZM30.257.006l3.666.608-.752-.126-2.914-.482Zm19.228 6.607 2.829 2.68-.189-2.294-2.64-.386Z" fill="#B0B0B0"/><path d="m16.095 62.909 14.163 3.361 13.707-5.797-27.87 2.436ZM37.459 1.8 30.26.006l-7.445.587L37.46 1.8Z" fill="#C4C4C4"/><path d="m40.315 2.263 3.334 1.718-.56-1.268-2.774-.45Zm11.999 54.72 2.615-.35 2.497-3.076-5.112 3.426Zm-18.391 8.68-3.666.607 6.551-1.085-2.885.477Zm18.39-8.68-2.828 2.68 5.444-3.03-2.615.35Zm-18.39 8.68 2.885-.478 3.507-1.173-6.392 1.65Zm9.726-3.368 2.746-.428 3.09-2.204-5.836 2.632Zm0 0-3.334 1.717 6.08-2.145-2.746.428Zm11.184-49.882 2.593.306-2.497-3.077-.096 2.771ZM37.458 1.8l2.857.463-3.507-1.172.65.709Zm9.308 4.414 2.72.398-3.09-2.203.37 1.805Zm5.548 3.078 2.52 3.121.095-2.771-2.615-.35Zm2.52 44.57 2.592-.305 2.144-3.473-4.737 3.778ZM33.922.613 37.458 1.8l-.65-.71-2.885-.477Zm9.726 3.368 3.117 2.233-.37-1.805-2.747-.428Zm11.184 49.881-2.52 3.121 5.113-3.426-2.593.305Zm2.164-37.925 2.573.255-2.144-3.473-.429 3.218Z" fill="#B0B0B0"/><path d="m30.257 66.27 3.666-.607 3.535-1.187-7.201 1.794ZM37.458 1.8 33.923.614 30.257.006 37.458 1.8Z" fill="#C4C4C4"/><path d="m46.768 60.063 2.72-.399 2.828-2.68-5.548 3.078Zm-9.308 4.414-3.535 1.186 6.392-1.65-2.857.464Zm9.308-4.415-3.117 2.234 5.836-2.632-2.719.398Zm-9.308 4.415 2.857-.464 3.334-1.717-6.19 2.18Z" fill="#B0B0B0"/><path d="M55.578 28.328 37.461 1.801 10.395 7.92l45.183 20.407Z" fill="#C4C4C4"/><path d="m57 50.34 2.572-.255 1.745-3.826-4.318 4.08Zm-2.165-37.926L57 15.938l.429-3.218-2.593-.306Zm-5.214-3.481 2.694.36-2.828-2.68.134 2.32Zm9.14 10.888 2.556.198-1.745-3.826-.812 3.628Zm-17.94-16.28 2.83.44-3.335-1.717.505 1.276ZM57 50.34l-2.164 3.523 4.737-3.778L57 50.34Zm1.761-3.883 2.557-.198 1.3-4.134-3.857 4.332ZM46.768 6.215l2.853 2.718-.134-2.32-2.72-.398ZM37.46 1.801l3.362 1.74-.505-1.277-2.857-.463Zm22.612 22.216 2.544.136-1.299-4.134-1.245 3.998Zm-3.073-8.08 1.761 3.884.812-3.628L57 15.938Zm-7.378 41.408 2.694-.36 2.52-3.121-5.214 3.481Zm0 0-2.853 2.718 5.547-3.078-2.694.36Z" fill="#B0B0B0"/><path d="m30.257 66.27 7.201-1.794 6.506-4.003-13.707 5.797Z" fill="#C4C4C4"/><path d="m60.072 42.26 2.544-.135.81-4.391-3.354 4.527Zm-1.312 4.197L57 50.34l4.317-4.082-2.557.199Zm2.13-17.983 2.536.07-.81-4.391-1.727 4.32ZM40.822 62.737l2.83-.441 3.116-2.233-5.946 2.674Zm0 0-3.362 1.74 6.191-2.181-2.829.441ZM52.164 12.1l2.671.315-2.52-3.121-.151 2.806Zm8.725 25.704 2.537-.07.28-4.594-2.817 4.664Zm.282-4.664h2.534l-.279-4.595-2.255 4.595ZM58.76 19.82l1.31 4.195 1.246-3.997-2.557-.198Z" fill="#B0B0B0"/><path d="m16.095 62.91 27.87-2.437 11.612-32.145L16.095 62.91Z" fill="#C4C4C4"/><path d="m43.965 5.803 2.802.41L43.65 3.98l.315 1.823ZM60.071 42.26l-1.312 4.196 3.857-4.332-2.545.136ZM49.621 8.93l2.542 3.167.152-2.806-2.695-.36Zm2.542 45.246 2.671-.315 2.164-3.523-4.835 3.838Zm7.908-30.162.818 4.458 1.727-4.321-2.545-.137Zm.818 13.787-.818 4.458 3.355-4.527-2.537.07ZM40.82 3.54l3.144 2.264-.315-1.823-2.829-.44Zm11.342 50.638-2.543 3.167 5.214-3.482-2.671.315Zm2.184-38.503 2.651.263-2.164-3.524-.487 3.26Zm6.542 12.799.281 4.665 2.256-4.595-2.537-.07Zm.281 4.665-.281 4.664 2.815-4.664H61.17ZM43.965 60.472l2.802-.41 2.853-2.718-5.655 3.128Zm0 0-3.144 2.264 5.946-2.674-2.802.41Z" fill="#B0B0B0"/><path d="m37.46 64.477 3.362-1.74 3.144-2.264-6.506 4.004Zm6.506-58.672L40.822 3.54 37.46 1.8l6.506 4.005Z" fill="#C4C4C4"/><path d="m54.348 50.603 2.651-.263 1.761-3.883-4.412 4.146Zm-2.184-38.504 2.184 3.576.487-3.26-2.671-.316Zm-5.32-3.538 2.777.372-2.853-2.718.076 2.346Zm9.281 11.056 2.635.204L57 15.938l-.875 3.679Zm-1.777 30.986-2.184 3.576 4.835-3.839-2.651.263Zm1.777-3.942 2.635-.204 1.312-4.196-3.947 4.4ZM43.965 5.805l2.88 2.756-.077-2.346-2.802-.41ZM57.45 23.877l2.623.14-1.312-4.196-1.311 4.055Zm-3.101-8.202 1.777 3.942.874-3.679-2.651-.263Zm-7.504 42.042 2.777-.372 2.543-3.166-5.32 3.538Z" fill="#B0B0B0"/><path d="m49.41 11.774-5.444-5.97-6.506-4.003 11.95 9.973Z" fill="#C4C4C4"/><path d="m46.844 57.716-2.878 2.757 5.655-3.129-2.777.372ZM57.45 42.4l2.623-.14.817-4.458-3.44 4.598Zm-1.324 4.26-1.777 3.941 4.412-4.146-2.635.204Zm2.15-18.26 2.614.073-.817-4.458-1.798 4.386ZM49.41 11.775l2.754.325-2.543-3.167-.211 2.842Zm8.864 26.1 2.615-.071.282-4.665-2.897 4.737Zm.284-4.736h2.613l-.282-4.664-2.33 4.664Zm-2.433-13.522 1.324 4.26 1.311-4.056-2.635-.204Zm1.324 22.785-1.324 4.26 3.947-4.4-2.623.14ZM46.844 8.56l2.566 3.213.211-2.842-2.777-.371Zm2.566 45.942 2.754-.325 2.184-3.576-4.938 3.9Zm8.039-30.627.825 4.526 1.798-4.386-2.623-.14Zm.825 13.999L57.45 42.4l3.44-4.598-2.615.072ZM49.41 54.503l-2.566 3.213 5.32-3.538-2.754.325Zm2.204-39.1 2.734.271-2.184-3.575-.55 3.304Zm6.66 12.999.284 4.736 2.331-4.664-2.615-.072Zm.284 4.736-.284 4.737 2.897-4.737h-2.613Z" fill="#B0B0B0"/><path d="m43.966 60.473 2.878-2.756 2.566-3.214-5.444 5.97Zm5.444-48.699-2.566-3.213-2.878-2.756 5.444 5.97Zm6.167 16.554L49.41 11.774 37.46 1.801l18.117 26.527Z" fill="#C4C4C4"/><path d="m51.616 50.873 2.734-.271 1.777-3.942-4.511 4.213Zm-2.204-39.1 2.204 3.63.55-3.305-2.754-.325Zm3.998 7.632 2.717.21-1.777-3.94-.94 3.73Zm-1.794 31.468-2.204 3.63 4.938-3.901-2.734.27Z" fill="#B0B0B0"/><path d="m43.966 60.473 5.444-5.97 3.998-7.632-9.442 13.602Z" fill="#C4C4C4"/><path d="m53.407 46.872 2.718-.21 1.324-4.26-4.042 4.47Zm1.337-23.14 2.705.145-1.324-4.26-1.381 4.115Zm-3.13-8.328 1.793 4.002.94-3.73-2.734-.272Zm3.13 27.142 2.705-.144.825-4.526-3.53 4.67Zm-1.337 4.326-1.794 4.002 4.512-4.213-2.718.21Zm2.17-18.544 2.697.074-.825-4.526-1.872 4.452Z" fill="#B0B0B0"/><path d="m43.966 60.473 9.442-13.601 2.17-18.544-11.612 32.145Z" fill="#C4C4C4"/><path d="m55.577 37.95 2.697-.074.284-4.737-2.98 4.81Zm.287-4.811h2.694l-.284-4.737-2.41 4.737Z" fill="#B0B0B0"/><path d="m49.412 54.502 2.204-3.63 1.794-4.001-3.998 7.631Zm3.998-35.097-1.794-4.002-2.204-3.63 3.998 7.632Z" fill="#C4C4C4"/><path d="m53.407 19.406 1.337 4.326 1.38-4.115-2.717-.21Zm1.337 23.14-1.337 4.326 4.042-4.47-2.705.144Zm0-18.814.833 4.596 1.872-4.451-2.705-.145Z" fill="#B0B0B0"/><path d="m55.58 28.327-2.17-8.922-3.998-7.632 6.168 16.554Z" fill="#C4C4C4"/><path d="m55.58 37.95-.834 4.596 3.53-4.67-2.697.074Zm0-9.622.286 4.81 2.41-4.736-2.697-.074Zm.286 4.81-.287 4.812 2.981-4.811h-2.694Z" fill="#B0B0B0"/><path d="m53.407 46.872 1.337-4.326.833-4.596-2.17 8.922Zm2.17-18.544-.833-4.596-1.337-4.326 2.17 8.922Zm-2.17 18.544 2.17-8.922v-9.622l-2.17 18.544Zm2.17-8.922.287-4.81-.287-4.812v9.622Z" fill="#C4C4C4"/><path d="M55.627 33.256c0 18.18-12.238 32.755-27.149 32.755-14.91 0-27.148-14.574-27.148-32.755C1.33 15.075 13.567.5 28.478.5s27.149 14.575 27.149 32.756Z" fill="url(#a)" stroke="url(#b)"/><g filter="url(#c)"><path d="m21.73 28.44 3.107.063 3.203-2.787-6.31 2.724Zm3.23-2.82-3.23 2.82 6.31-2.724-3.08-.097Z" fill="#E5E5E5"/><path d="m19.455 24.395 2.274 4.045 3.229-2.82-5.503-1.226Z" fill="#fff"/><path d="m29.32 48.872 3.044-.184v-30.03L29.32 48.872Z" fill="#E5E5E5"/><path d="m29.32 18.473-9.864 5.922 5.503 1.225 4.36-7.147Zm0 0-3.153.062-6.71 5.86 9.862-5.922Z" fill="#fff"/><path d="M29.32 18.473V48.87l3.044-30.214-3.045-.184Z" fill="#E5E5E5"/><path fill-rule="evenodd" clip-rule="evenodd" d="M29.32 48.871V18.473l3.045.184-3.045 30.214Zm0 0 3.045-.184v-30.03L29.32 48.873Zm-7.59-20.43 3.107.063 3.203-2.787-3.08-.097-3.23 2.821Z" fill="url(#d)"/><path d="M24.96 25.62v23.165l4.36-30.312-4.36 7.147Zm0 23.165 4.36.086V18.473l-4.36 30.313Z" fill="#fff"/></g><path d="m31.277.235-1.35-.212a31.6 31.6 0 0 1 1.35.212l11.313 1.77c1.9.474 6.59 2.214 10.14 5.384 3.551 3.17 6.238 7.437 7.137 9.174l1.958 4.308c1.03 3.259 2.829 11.026 1.785 16.022-.627 5.031-2.524 9.993-3.395 11.845-1.088 2.599-4.708 8.684-10.487 12.233-3.046 2.54-9.487 4.048-14.883 4.608.667-.172 2.141-.585 2.698-.861.696-.345 19.999-8.674 18.284-34.44C54.487 14.252 45.253 2.735 31.277.236Z" fill="url(#e)"/><defs><linearGradient id="a" x1="28.478" y1="0" x2="40.618" y2="67.974" gradientUnits="userSpaceOnUse"><stop stop-color="#DEE5F8"/><stop offset="1" stop-color="#BDBEE3"/></linearGradient><linearGradient id="b" x1="38.912" y1="53.368" x2="-4.205" y2="1.663" gradientUnits="userSpaceOnUse"><stop stop-color="#fff" stop-opacity=".7"/><stop offset="1" stop-color="#A0A3CF"/></linearGradient><linearGradient id="d" x1="28.571" y1="1.58" x2="29.727" y2="51.15" gradientUnits="userSpaceOnUse"><stop stop-color="#F0E3FA"/><stop offset="1" stop-color="#EFEDF0"/></linearGradient><linearGradient id="e" x1="80.817" y1="27.416" x2="13.302" y2="39.53" gradientUnits="userSpaceOnUse"><stop stop-color="#BDBEE3"/><stop offset="1" stop-color="#DEE5F8"/></linearGradient><filter id="c" x="14.455" y="10.473" width="32.91" height="50.4" filterUnits="userSpaceOnUse" color-interpolation-filters="sRGB"><feFlood flood-opacity="0" result="BackgroundImageFix"/><feColorMatrix in="SourceAlpha" values="0 0 0 0 0 0 0 0 0 0 0 0 0 0 0 0 0 0 127 0" result="hardAlpha"/><feOffset dx="5" dy="2"/><feGaussianBlur stdDeviation="5"/><feColorMatrix values="0 0 0 0 0.32339 0 0 0 0 0.157604 0 0 0 0 0.425 0 0 0 0.3 0"/><feBlend in2="BackgroundImageFix" result="effect1_dropShadow_1133_514853"/><feBlend in="SourceGraphic" in2="effect1_dropShadow_1133_514853" result="shape"/></filter></defs></svg>