<svg width="65" height="67" fill="none" xmlns="http://www.w3.org/2000/svg"><path d="m1.145 28.917-.22 4.22.22 4.222v-8.442Zm1.686-7.94-1.686 7.94v8.442l1.686-16.382ZM1.145 37.36l.644 4.062 1.042 3.877-1.686-7.94Zm1.686-16.382-1.042 3.878-.644 4.062 1.686-7.94ZM1.145 37.36l1.686 7.94 3.19 7.085L1.145 37.36Zm1.686 7.94 1.418 3.664 1.771 3.42-3.189-7.085Zm3.19-31.407-1.772 3.42-1.418 3.665 3.19-7.085Zm4.524-5.972L2.83 20.977 1.145 37.36l9.4-29.44Zm0 0L6.02 13.892l-3.189 7.085L10.545 7.92Zm-9.4 29.439L6.02 52.384l10.227 10.524-15.102-25.55Zm9.4-29.44-2.42 2.83-2.105 3.143 4.525-5.972ZM6.02 52.385l2.105 3.143 2.42 2.829-4.525-5.972ZM10.545 7.92l-9.4 29.439 15.102 25.55-5.702-54.99ZM6.02 52.384l4.525 5.972 5.702 4.552L6.02 52.384Zm4.525 5.972 2.713 2.475 2.989 2.077-5.702-4.552Zm5.702-54.989-2.989 2.078-2.713 2.475 5.702-4.553Z" fill="#C4C4C4" fill-opacity=".5"/><path d="m36.153 65.32 2.751-.455 3.58-.593-6.33 1.048Z" fill="#B0B0B0" fill-opacity=".5"/><path d="m22.967.594-6.72 2.774-5.702 4.553L22.967.594Z" fill="#C4C4C4" fill-opacity=".5"/><path d="m39.762 1.555 2.722.45-3.58-.593.858.143ZM36.153.957l3.609.598-.858-.143-2.75-.455Zm3.609 63.766-3.609.598 6.33-1.049-2.721.45Zm0 0 2.722-.45 3.45-1.147-6.172 1.597Z" fill="#B0B0B0" fill-opacity=".5"/><path d="m16.245 62.91 3.243 1.633 3.477 1.14-6.72-2.774ZM22.965.593l-3.477 1.14-3.243 1.634 6.72-2.774Z" fill="#C4C4C4" fill-opacity=".5"/><path d="m43.242 2.715 2.694.437-3.45-1.147.756.71Zm-3.479-1.16 3.479 1.16-.756-.71-2.723-.45ZM33.324 65.79l2.83-.468 3.61-.598-6.44 1.066Zm9.918-2.226-3.479 1.16 6.173-1.597-2.694.437Zm0 0 2.694-.437 3.279-1.674-5.973 2.111Zm-6.28-62.471 2.801.463-3.608-.598.806.135Z" fill="#B0B0B0" fill-opacity=".5"/><path d="m16.245 62.91 6.72 2.774 7.444.588-14.164-3.362Z" fill="#C4C4C4" fill-opacity=".5"/><path d="m46.548 4.41 2.666.416-3.278-1.675.612 1.259ZM33.324.488l3.637.603-.806-.134-2.83-.469Z" fill="#B0B0B0" fill-opacity=".5"/><path d="M37.611 1.8 22.968.595 10.545 7.92 37.612 1.8Z" fill="#C4C4C4" fill-opacity=".5"/><path d="m43.242 2.714 3.306 1.696-.612-1.259-2.694-.437Zm-6.28 62.472-3.638.603 6.44-1.067-2.803.464Zm0 0 2.801-.464 3.479-1.16-6.28 1.624Zm9.586-3.319 2.666-.416 3.064-2.174-5.73 2.59Zm0 0-3.306 1.696 5.973-2.112-2.667.416Zm-6.08-59.603 2.774.45-3.479-1.16.705.71Zm9.17 4.349 2.64.387-3.063-2.175.423 1.788Z" fill="#B0B0B0" fill-opacity=".5"/><path d="m22.964 65.683 3.688.594 3.755-.006-7.443-.588ZM30.407.006 26.652 0l-3.688.594 7.443-.588Z" fill="#C4C4C4" fill-opacity=".5"/><path d="m36.96 1.092 3.508 1.173-.705-.71-2.802-.463Zm9.588 3.318 3.09 2.203-.424-1.787-2.666-.416Z" fill="#B0B0B0" fill-opacity=".5"/><path d="m10.545 7.92 5.702 54.989 39.482-34.582L10.545 7.92Z" fill="#C4C4C4" fill-opacity=".5"/><path d="m30.407 66.27 2.915-.482 3.636-.603-6.55 1.085Zm19.229-6.606 2.64-.387 2.803-2.643-5.443 3.03Zm-9.17 4.349-3.508 1.172 6.281-1.623-2.774.45Zm9.17-4.35-3.09 2.204 5.73-2.59-2.64.387Zm-9.17 4.35 2.773-.45 3.306-1.696-6.08 2.146ZM34.072.613l2.886.478L33.32.488l.752.126Zm18.39 8.68 2.616.35-2.803-2.644.188 2.293ZM43.8 3.98l2.745.428-3.306-1.695.56 1.267ZM30.407.006l3.666.608-.752-.126-2.914-.482Zm19.229 6.607 2.828 2.68-.188-2.294-2.64-.386Z" fill="#B0B0B0" fill-opacity=".5"/><path d="m16.245 62.909 14.163 3.361 13.708-5.797-27.87 2.436ZM37.61 1.8 30.409.006l-7.444.587L37.61 1.8Z" fill="#C4C4C4" fill-opacity=".5"/><path d="M40.465 2.263 43.8 3.981l-.56-1.268-2.775-.45Zm11.999 54.72 2.615-.35 2.497-3.076-5.112 3.426Zm-18.391 8.68-3.666.607 6.552-1.085-2.886.477Zm18.39-8.68-2.827 2.68 5.443-3.03-2.615.35Zm-18.39 8.68 2.886-.478 3.506-1.173-6.392 1.65Zm9.727-3.368 2.745-.428 3.09-2.204-5.835 2.632Zm0 0-3.335 1.717 6.08-2.145-2.745.428Zm11.184-49.882 2.592.306-2.497-3.077-.095 2.771ZM37.608 1.8l2.857.463-3.507-1.172.65.709Zm9.308 4.414 2.72.398-3.09-2.203.37 1.805Zm5.548 3.078 2.52 3.121.095-2.771-2.615-.35Zm2.52 44.57 2.592-.305 2.145-3.473-4.737 3.778ZM34.073.613 37.608 1.8l-.65-.71-2.885-.477ZM43.8 3.981l3.116 2.233-.37-1.805L43.8 3.98Zm11.184 49.881-2.52 3.121 5.112-3.426-2.592.305Zm2.164-37.925 2.573.255-2.145-3.473-.428 3.218Z" fill="#B0B0B0" fill-opacity=".5"/><path d="m30.407 66.27 3.666-.607 3.535-1.187-7.2 1.794ZM37.608 1.8 34.073.614 30.407.006 37.608 1.8Z" fill="#C4C4C4" fill-opacity=".5"/><path d="m46.919 60.063 2.719-.399 2.828-2.68-5.547 3.078Zm-9.308 4.414-3.536 1.186 6.393-1.65-2.857.464Zm9.308-4.415-3.117 2.234 5.836-2.632-2.72.398Zm-9.308 4.415 2.857-.464 3.334-1.717-6.191 2.18Z" fill="#B0B0B0" fill-opacity=".5"/><path d="M55.729 28.328 37.612 1.801 10.544 7.92l45.184 20.407Z" fill="#C4C4C4" fill-opacity=".5"/><path d="m57.15 50.34 2.573-.255 1.744-3.826-4.317 4.08Zm-2.164-37.926 2.164 3.524.428-3.218-2.592-.306Zm-5.214-3.481 2.694.36-2.828-2.68.134 2.32ZM58.91 19.82l2.556.198-1.744-3.826-.812 3.628ZM40.972 3.541l2.83.44-3.335-1.717.505 1.276ZM57.15 50.34l-2.164 3.523 4.737-3.778-2.573.255Zm1.76-3.883 2.557-.198 1.3-4.134-3.856 4.332ZM46.919 6.215l2.854 2.718-.134-2.32-2.72-.398ZM37.61 1.801l3.362 1.74-.505-1.277-2.857-.463Zm22.612 22.216 2.545.136-1.3-4.134-1.245 3.998Zm-3.072-8.08 1.76 3.884.813-3.628-2.573-.255Zm-7.378 41.408 2.694-.36 2.52-3.121-5.214 3.481Zm0 0-2.854 2.718 5.548-3.078-2.694.36Z" fill="#B0B0B0" fill-opacity=".5"/><path d="m30.407 66.27 7.201-1.794 6.506-4.003-13.707 5.797Z" fill="#C4C4C4" fill-opacity=".5"/><path d="m60.222 42.26 2.545-.135.81-4.391-3.355 4.527Zm-1.311 4.197L57.15 50.34l4.317-4.082-2.556.199Zm2.129-17.983 2.537.07-.81-4.391-1.727 4.32ZM40.972 62.737l2.83-.441 3.116-2.233-5.946 2.674Zm0 0-3.362 1.74 6.191-2.181-2.829.441ZM52.314 12.1l2.672.315-2.52-3.121-.152 2.806Zm8.726 25.704 2.537-.07.279-4.594-2.816 4.664Zm.281-4.664h2.535l-.28-4.595-2.255 4.595Zm-2.41-13.318 1.311 4.195 1.245-3.997-2.556-.198Z" fill="#B0B0B0" fill-opacity=".5"/><path d="m16.245 62.91 27.87-2.437 11.612-32.145L16.245 62.91Z" fill="#C4C4C4" fill-opacity=".5"/><path d="m44.115 5.803 2.802.41-3.116-2.233.314 1.823ZM60.221 42.26l-1.311 4.196 3.856-4.332-2.545.136ZM49.771 8.93l2.542 3.167.152-2.806-2.694-.36Zm2.542 45.246 2.672-.315 2.164-3.523-4.836 3.838Zm7.908-30.162.818 4.458 1.727-4.321-2.545-.137Zm.818 13.787-.818 4.458 3.355-4.527-2.537.07ZM40.972 3.54l3.143 2.264-.314-1.823-2.83-.44Zm11.341 50.638-2.542 3.167 5.214-3.482-2.672.315Zm2.184-38.503 2.652.263-2.164-3.524-.488 3.26Zm6.542 12.799.281 4.665 2.256-4.595-2.537-.07Zm.281 4.665-.281 4.664 2.816-4.664H61.32ZM44.115 60.472l2.802-.41 2.854-2.718-5.656 3.128Zm0 0-3.143 2.264 5.945-2.674-2.802.41Z" fill="#B0B0B0" fill-opacity=".5"/><path d="m37.61 64.477 3.362-1.74 3.144-2.264-6.506 4.004Zm6.506-58.672L40.972 3.54 37.61 1.8l6.506 4.005Z" fill="#C4C4C4" fill-opacity=".5"/><path d="m54.498 50.603 2.652-.263 1.76-3.883-4.412 4.146Zm-2.184-38.504 2.184 3.576.488-3.26-2.672-.316Zm-5.32-3.538 2.778.372-2.854-2.718.077 2.346Zm9.281 11.056 2.636.204-1.761-3.883-.875 3.679Zm-1.777 30.986-2.184 3.576 4.836-3.839-2.652.263Zm1.777-3.942 2.636-.204 1.311-4.196-3.947 4.4ZM44.116 5.805l2.879 2.756-.077-2.346-2.802-.41ZM57.6 23.877l2.623.14-1.311-4.196-1.312 4.055Zm-3.101-8.202 1.777 3.942.875-3.679-2.652-.263Zm-7.503 42.042 2.777-.372 2.542-3.166-5.32 3.538Z" fill="#B0B0B0" fill-opacity=".5"/><path d="m49.56 11.774-5.444-5.97-6.506-4.003 11.95 9.973Z" fill="#C4C4C4" fill-opacity=".5"/><path d="m46.995 57.716-2.879 2.757 5.656-3.129-2.777.372ZM57.599 42.4l2.623-.14.818-4.458L57.6 42.4Zm-1.324 4.26-1.777 3.941 4.413-4.146-2.636.204Zm2.15-18.26 2.615.073-.818-4.458-1.797 4.386ZM49.56 11.775l2.754.325-2.542-3.167-.212 2.842Zm8.865 26.1 2.615-.071.281-4.665-2.896 4.737Zm.284-4.736h2.612l-.281-4.664-2.331 4.664Zm-2.434-13.522 1.324 4.26 1.312-4.056-2.636-.204ZM57.6 42.401l-1.324 4.26 3.947-4.4-2.623.14ZM46.995 8.56l2.565 3.213.212-2.842-2.777-.371Zm2.565 45.942 2.754-.325 2.184-3.576-4.938 3.9Zm8.04-30.627.825 4.526 1.797-4.386-2.623-.14Zm.825 13.999-.826 4.526 3.44-4.598-2.614.072ZM49.56 54.503l-2.565 3.213 5.32-3.538-2.755.325Zm2.204-39.1 2.734.271-2.184-3.575-.55 3.304Zm6.66 12.999.285 4.736 2.33-4.664-2.614-.072Zm.285 4.736-.284 4.737 2.896-4.737H58.71Z" fill="#B0B0B0" fill-opacity=".5"/><path d="m44.116 60.473 2.879-2.756 2.565-3.214-5.444 5.97Zm5.444-48.699-2.565-3.213-2.879-2.756 5.444 5.97Zm6.168 16.554L49.56 11.774 37.61 1.801l18.118 26.527Z" fill="#C4C4C4" fill-opacity=".5"/><path d="m51.766 50.873 2.734-.271 1.778-3.942-4.512 4.213Zm-2.203-39.1 2.203 3.63.55-3.305-2.754-.325Zm3.997 7.632 2.718.21-1.778-3.94-.94 3.73Zm-1.794 31.468-2.203 3.63 4.937-3.901-2.734.27Z" fill="#B0B0B0" fill-opacity=".5"/><path d="m44.116 60.473 5.444-5.97 3.998-7.632-9.442 13.602Z" fill="#C4C4C4" fill-opacity=".5"/><path d="m53.558 46.872 2.717-.21 1.324-4.26-4.041 4.47Zm1.336-23.14 2.705.145-1.324-4.26-1.38 4.115Zm-3.13-8.328 1.794 4.002.94-3.73-2.734-.272Zm3.13 27.142 2.705-.144.825-4.526-3.53 4.67Zm-1.336 4.326-1.794 4.002 4.511-4.213-2.717.21Zm2.17-18.544 2.696.074-.825-4.526-1.872 4.452Z" fill="#B0B0B0" fill-opacity=".5"/><path d="m44.116 60.473 9.442-13.601 2.17-18.544-11.612 32.145Z" fill="#C4C4C4" fill-opacity=".5"/><path d="m55.727 37.95 2.698-.074.284-4.737-2.982 4.81Zm.287-4.811h2.695l-.284-4.737-2.41 4.737Z" fill="#B0B0B0" fill-opacity=".5"/><path d="m49.563 54.502 2.203-3.63 1.794-4.001-3.998 7.631Zm3.997-35.097-1.794-4.002-2.203-3.63 3.997 7.632Z" fill="#C4C4C4" fill-opacity=".5"/><path d="m53.558 19.406 1.336 4.326 1.381-4.115-2.717-.21Zm1.336 23.14-1.336 4.326 4.041-4.47-2.705.144Zm0-18.814.833 4.596 1.872-4.451-2.705-.145Z" fill="#B0B0B0" fill-opacity=".5"/><path d="m55.73 28.327-2.17-8.922-3.998-7.632 6.168 16.554Z" fill="#C4C4C4" fill-opacity=".5"/><path d="m55.73 37.95-.833 4.596 3.53-4.67-2.697.074Zm0-9.622.286 4.81 2.41-4.736-2.696-.074Zm.286 4.81-.286 4.812 2.98-4.811h-2.694Z" fill="#B0B0B0" fill-opacity=".5"/><path d="m53.558 46.872 1.336-4.326.833-4.596-2.17 8.922Zm2.17-18.544-.834-4.596-1.336-4.326 2.17 8.922Zm-2.17 18.544 2.17-8.922v-9.622l-2.17 18.544Zm2.17-8.922.286-4.81-.287-4.812v9.622Z" fill="#C4C4C4" fill-opacity=".5"/><ellipse cx="28.629" cy="33.256" rx="27.648" ry="33.256" fill="url(#a)" fill-opacity=".5"/><path d="M55.777 33.256c0 18.18-12.237 32.755-27.148 32.755S1.48 51.437 1.48 33.256C1.48 15.075 13.718.5 28.63.5c14.91 0 27.148 14.575 27.148 32.756Z" stroke="url(#b)" stroke-opacity=".5"/><g filter="url(#c)" fill-opacity=".5"><path d="m21.08 27.243 4.285.055.137-.608-4.422.553Zm.137-.614 4.285.06.16-.556-4.445.496Zm.16-.562 4.285.066.183-.503-4.467.437Zm.184-.508 4.284.07.206-.451-4.49.38Zm.207-.456 4.283.075.23-.4-4.513.325Zm.23-.403 4.283.079.253-.347-4.535.268Z" fill="#E5E5E5"/><path d="m18.535 43.031-.611.771v3.737l.611-4.508Zm-.274-18.516-.1.495-.082.513.182-1.008Zm.254-.935-.254.935-.182 1.008.436-1.943Z" fill="#fff"/><path d="m22.252 24.35 4.282.081.276-.294-4.558.212Z" fill="#E5E5E5"/><path d="m18.515 23.58-.136.459-.118.476.254-.935Zm.6 18.715-.58.736-.611 4.508 1.192-5.244Z" fill="#fff"/><path d="m22.53 24.052 4.28.085.3-.242-4.58.157Z" fill="#E5E5E5"/><path d="m19.243 21.928-.728 1.652-.436 1.943 1.164-3.595Z" fill="#fff"/><path d="m22.592 43.265 4.28-.094.175-.183-4.455.277Z" fill="#E5E5E5"/><path d="m18.843 22.717-.173.422-.154.44.327-.862Z" fill="#fff"/><path d="m22.766 43.082 4.28-.093.166-.174-4.446.267Z" fill="#E5E5E5"/><path d="m19.243 21.928-.4.79-.327.862.727-1.652Z" fill="#fff"/><path d="m22.83 23.806 4.28.087.323-.19-4.604.103Zm.102 19.098 4.28-.09.157-.168-4.437.258Z" fill="#E5E5E5"/><path d="m19.242 21.928-.21.386-.19.404.4-.79Z" fill="#fff"/><path d="m23.09 42.736 4.28-.09.15-.159-4.43.25Zm-1.873-16.108-.137.614 4.422-.553-4.285-.06Zm1.937-3.013 4.279.089.347-.138-4.626.049Zm.086 18.96 4.28-.088.14-.152-4.42.24Zm-1.862-16.508-.16.561 4.444-.495-4.284-.066Zm2.004 16.355 4.279-.087.133-.144-4.412.23Z" fill="#E5E5E5"/><path d="m19.716 21.209-.246.35-.228.368.474-.718Z" fill="#fff"/><path d="m21.562 25.559-.184.508 4.467-.437-4.283-.071Zm1.954 16.718 4.278-.085.125-.136-4.403.221Zm-.014-18.8 4.278.09.37-.085-4.648-.005Z" fill="#E5E5E5"/><path d="m21.548 19.518-2.305 2.409-1.164 3.595 3.469-6.004Z" fill="#fff"/><path d="m23.64 42.138 4.279-.084.116-.129-4.394.213Zm-1.872-17.036-.207.455 4.49-.38-4.283-.075Z" fill="#E5E5E5"/><path d="m20.264 20.564-.548.646-.474.717 1.022-1.363Z" fill="#fff"/><path d="m23.757 42.008 4.277-.083.109-.12-4.386.203Zm.108-.122 4.278-.081.1-.114-4.378.195Z" fill="#E5E5E5"/><path d="m19.116 42.295-1.192 5.244 4.667-4.273-3.475-.971Z" fill="#fff"/><path d="m21.998 24.7-.23.403 4.512-.324-4.282-.08Zm1.967 17.073 4.277-.08.092-.106-4.369.186Zm-.093-18.382 4.277.091.394-.032-4.671-.06Z" fill="#E5E5E5"/><path d="m20.265 20.564-.284.314-.264.332.548-.646Z" fill="#fff"/><path d="m24.058 41.666 4.276-.08.084-.098-4.36.178Z" fill="#E5E5E5"/><path d="m18.08 25.523 3 1.72.137-.614-3.138-1.106Z" fill="#fff"/><path d="m24.14 41.566 4.277-.078.16-.191-4.437.27Zm-1.888-17.218-.254.35 4.535-.268-4.281-.082Z" fill="#E5E5E5"/><path d="m18.08 25.523 3.137 1.106.16-.562-3.298-.544Z" fill="#fff"/><path d="m24.268 23.357 4.276.092.222.004-4.498-.096Zm.033 18.018 4.276-.077.162-.198-4.438.275Z" fill="#E5E5E5"/><path d="m18.08 25.522 3.298.544.183-.508-3.482-.036Zm3.468-6.004-1.283 1.046-1.022 1.363 2.305-2.41Z" fill="#fff"/><path d="m22.529 24.05-.277.298 4.558-.212-4.281-.085Z" fill="#E5E5E5"/><path d="m18.08 25.522 3.481.035.207-.455-3.689.42Z" fill="#fff"/><path d="m24.463 41.174 4.275-.075.165-.204-4.44.28Z" fill="#E5E5E5"/><path d="m20.883 19.99-.315.274-.303.3.618-.574Zm-2.804 5.532 3.69-.42.23-.404-3.92.824Z" fill="#fff"/><path d="m24.629 40.969 4.275-.074.168-.211-4.443.285Zm-1.863 2.113-.175.184 4.455-.277-4.28.093Zm.064-19.275-.3.244 4.58-.157-4.28-.087Z" fill="#E5E5E5"/><path d="m18.08 25.522 3.919-.824.253-.35-4.173 1.174Z" fill="#fff"/><path d="m24.797 40.754 4.274-.07.17-.22-4.444.29Zm-1.865 2.15-.166.177 4.446-.268-4.28.091Z" fill="#E5E5E5"/><path d="m21.548 19.518-.665.473-.618.573 1.283-1.046Zm-3.469 6.004 4.173-1.174.277-.297-4.45 1.471Zm1.585 16.07-.549.702 5.026-.727-4.477.026Z" fill="#fff"/><path d="m24.967 40.535 4.274-.069.173-.225-4.447.294Zm-1.877 2.202-.158.168 4.437-.258-4.28.09Zm.063-19.122-.324.192 4.604-.103-4.28-.089Z" fill="#E5E5E5"/><path d="m18.08 25.523 4.45-1.472.3-.244-4.75 1.716Z" fill="#fff"/><path d="m25.14 40.307 4.274-.067.176-.232-4.45.299Zm-1.9 2.268-.15.16 4.429-.248-4.28.088Z" fill="#E5E5E5"/><path d="m21.548 19.518-.338.224-.327.249.665-.473Z" fill="#fff"/><path d="m23.38 42.422-.14.154 4.42-.24-4.28.086Zm1.936-2.349 4.274-.065.178-.239-4.452.304Z" fill="#E5E5E5"/><path d="m18.08 25.523 4.75-1.716.324-.192-5.075 1.908Z" fill="#fff"/><path d="m23.501 23.477-.348.139 4.626-.049-4.278-.09Zm2.139-4.805 4.272.136-.47-.036-3.802-.1Zm-2.125 23.605-.133.146 4.411-.231-4.278.085Zm1.981-2.444 4.273-.063.181-.246-4.454.309Z" fill="#E5E5E5"/><path d="m18.08 25.524 5.074-1.909.347-.138-5.422 2.047Z" fill="#fff"/><path d="m23.64 42.139-.125.137 4.403-.221-4.278.084Z" fill="#E5E5E5"/><path d="m19.115 42.295 3.476.971.65-.69-4.126-.281Z" fill="#fff"/><path d="m25.679 39.584 4.272-.06.184-.253-4.456.313Zm-1.921 2.425-.117.13 4.395-.213-4.278.083Zm.115-18.619-.371.086 4.649.006-4.278-.092Zm-.007 18.497-.108.122 4.386-.204-4.278.082Zm1.997-2.559 4.272-.057.187-.26-4.459.317Zm.23-20.59 4.271.136-.451-.067-3.82-.069Z" fill="#E5E5E5"/><path d="m22.26 19.145-.362.173-.35.2.712-.373Z" fill="#fff"/><path d="m23.965 41.773-.1.114 4.377-.195-4.277.08Zm.092-.107-.092.107 4.369-.186-4.277.08Zm1.993-2.6 4.271-.055.19-.267-4.461.322Zm-1.91 2.502-.083.098 4.36-.177-4.276.079Zm.127-18.21-.395.032 4.672.06-4.277-.093Z" fill="#E5E5E5"/><path d="m19.115 42.294 4.125.28.9-1.008-5.025.727Z" fill="#fff"/><path d="m24.3 41.376-.16.192 4.437-.27-4.277.078Zm1.94-2.578 4.27-.053.22-.298-4.49.35Z" fill="#E5E5E5"/><path d="m23.019 18.873-.76.272-.711.373 1.471-.645Z" fill="#fff"/><path d="m26.527 18.836 4.27.135-.434-.098-3.836-.037Zm-2.064 22.339-.162.2 4.438-.276-4.276.076Zm.028-17.815-.223-.003 4.498.095-4.275-.092Zm1.97 15.136 4.27-.05.216-.3-4.486.35Zm-1.832 2.472-.166.206 4.44-.28-4.274.074Z" fill="#E5E5E5"/><path d="m28.086 19.545-6.538-.027-3.469 6.005 10.007-5.978Zm-5.067-.672-.385.124-.374.148.76-.272Z" fill="#fff"/><path d="m26.678 38.195 4.269-.047.211-.3-4.48.347Zm-1.881 2.56-.168.214 4.443-.285-4.275.072Zm2.148-21.788 4.268.133-.416-.129-3.852-.004Z" fill="#E5E5E5"/><path d="m22.592 43.265.175-.184.166-.177-.341.361Z" fill="#fff"/><path d="m26.888 37.891 4.269-.044.206-.302-4.475.346Zm-1.921 2.643-.171.22 4.445-.289-4.274.07Z" fill="#E5E5E5"/><path d="m22.592 43.265.34-.361.31-.33-.65.69Z" fill="#fff"/><path d="m25.142 40.307-.173.228 4.447-.295-4.274.067Z" fill="#E5E5E5"/><path d="m24.68 18.63-1.661.243-1.471.645 3.132-.887Z" fill="#fff"/><path d="m27.096 37.587 4.268-.042.201-.303-4.47.345Z" fill="#E5E5E5"/><path d="m22.933 42.904.158-.169.15-.16-.308.329Z" fill="#fff"/><path d="m27.344 19.128 4.267.131-.397-.16-3.87.029Z" fill="#E5E5E5"/><path d="m20.181 40.927-.517.666 10.102-9.19-9.585 8.524Zm7.905-21.382-10.007 5.978 5.422-2.047 4.585-3.931Z" fill="#fff"/><path d="m25.317 40.072-.176.235 4.45-.3-4.274.065Zm1.98-2.792 4.268-.038.197-.305-4.465.343ZM25.17 18.635l.47.035 3.803.1-4.273-.135Z" fill="#E5E5E5"/><path d="m23.24 42.574.14-.153.134-.146-.275.3Z" fill="#fff"/><path d="m25.495 39.832-.179.241 4.452-.303-4.273.062Z" fill="#E5E5E5"/><path d="m23.825 18.701-.41.073-.396.099.806-.172Z" fill="#fff"/><path d="m27.495 36.972 4.267-.035.192-.306-4.459.341Z" fill="#E5E5E5"/><path d="m23.24 42.576.274-.299.242-.267-.517.566Z" fill="#fff"/><path d="m27.724 19.32 4.266.13-.38-.19-3.886.06Z" fill="#E5E5E5"/><path d="m20.666 40.297-.485.63 9.585-8.525-9.1 7.895Z" fill="#fff"/><path d="m25.678 39.584-.182.248 4.454-.309-4.272.06Z" fill="#E5E5E5"/><path d="m23.515 42.277.125-.137.116-.13-.241.267Z" fill="#fff"/><path d="m27.688 36.664 4.267-.033.187-.307-4.454.34Zm-5.096 6.601 9.314.146-5.033-.24-4.281.094Z" fill="#E5E5E5"/><path d="m23.24 42.574.516-.566.384-.442-.9 1.008Z" fill="#fff"/><path d="m25.639 18.672.453.067 3.819.069-4.272-.136Zm.223 20.657-.185.255 4.456-.313-4.271.058Z" fill="#E5E5E5"/><path d="m24.68 18.63-.855.071-.806.172 1.66-.242Z" fill="#fff"/><path d="m27.875 36.354 4.266-.03.182-.308-4.448.338Z" fill="#E5E5E5"/><path d="m21.12 39.702-.454.595 9.1-7.895-8.647 7.3Zm2.637 2.307.108-.122.1-.114-.208.236Z" fill="#fff"/><path d="m28.085 19.545 4.265.128-.36-.222-3.905.094Z" fill="#E5E5E5"/><path d="m23.757 42.008.208-.237.176-.205-.384.442Z" fill="#fff"/><path d="m26.05 39.067-.187.262 4.459-.318-4.271.056Zm2.009-3.023 4.265-.027.178-.31-4.443.337Z" fill="#E5E5E5"/><path d="m23.966 41.773.092-.107.083-.098-.175.205Zm-6.042 5.766 13.982-4.127-9.315-.146-4.667 4.273Zm3.617-8.397-.421.56 8.646-7.3-8.225 6.74Z" fill="#fff"/><path d="m26.24 38.797-.19.27 4.462-.323-4.271.053Zm1.997-3.066 4.265-.024.173-.312-4.438.336Zm-2.144-16.993.435.099 3.836.037-4.27-.136Zm2.337 1.063 4.264.126-.343-.254-3.92.128Z" fill="#E5E5E5"/><path d="m24.68 18.63-.433.023-.42.048.854-.07Zm-.539 22.937.16-.192.163-.2-.323.392Z" fill="#fff"/><path d="m26.461 38.496-.22.3 4.49-.35-4.27.05Zm1.949-3.08 4.264-.021.168-.313-4.432.334Z" fill="#E5E5E5"/><path d="m21.93 38.62-.39.523 8.226-6.74-7.837 6.216Zm2.211 2.948.323-.393.333-.42-.656.813Zm-4.477.026 4.477-.026 5.625-9.166-10.102 9.192Z" fill="#fff"/><path d="m28.578 35.1 4.264-.018.158-.304-4.422.322Zm.177-15.012 4.263.123-.325-.285-3.938.162Zm-2.078 18.106-.216.302 4.486-.35-4.27.048Z" fill="#E5E5E5"/><path d="m24.463 41.176.165-.207.168-.213-.333.42Z" fill="#fff"/><path d="m26.526 18.836.417.13 3.853.005-4.27-.135Z" fill="#E5E5E5"/><path d="m22.285 38.132-.356.487 7.837-6.217-7.48 5.73Z" fill="#fff"/><path d="M28.736 34.795 33 34.779l.156-.312-4.42.328Zm3.169 8.617 4.254-.097-9.288-.143 5.034.24Z" fill="#E5E5E5"/><path d="m28.086 19.545-3.406-.914-3.132.887 6.538.027Z" fill="#fff"/><path d="m26.888 37.892-.211.303 4.48-.347-4.269.044Z" fill="#E5E5E5"/><path d="m24.14 41.568.657-.813.7-.923-1.356 1.736Z" fill="#fff"/><path d="m28.895 34.478 4.262-.012.153-.321-4.416.333Zm.168-14.071 4.262.12-.306-.316-3.956.196Z" fill="#E5E5E5"/><path d="m22.61 37.68-.324.452 7.48-5.73-7.156 5.278Zm2.187 3.075.171-.22.174-.228-.345.448Z" fill="#fff"/><path d="m27.096 37.587-.207.305 4.475-.346-4.268.041Zm1.95-3.432 4.263-.01.15-.329-4.413.34Zm-2.102-15.188.399.161 3.87-.028-4.269-.133Z" fill="#E5E5E5"/><path d="m22.902 37.266-.292.414 7.157-5.278-6.865 4.864Z" fill="#fff"/><path d="m29.195 33.821 4.262-.006.147-.338-4.409.344Z" fill="#E5E5E5"/><path d="m24.796 40.755.344-.447.356-.476-.7.923Z" fill="#fff"/><path d="m29.352 20.758 4.261.117-.288-.348-3.973.231Z" fill="#E5E5E5"/><path d="m28.086 19.545-4.584 3.93.371-.085 4.213-3.845Zm-2.445-.874-.471-.036-.489-.004.96.04Z" fill="#fff"/><path d="m27.298 37.28-.202.307 4.47-.345-4.268.039Z" fill="#E5E5E5"/><path d="m23.16 36.887-.26.379 6.866-4.864-6.607 4.485Z" fill="#fff"/><path d="m29.344 33.48 4.261-.004.144-.347-4.405.35Z" fill="#E5E5E5"/><path d="m25.14 40.308.177-.235.179-.241-.355.476Z" fill="#fff"/><path d="m27.496 36.973-.197.308 4.464-.343-4.267.035Z" fill="#E5E5E5"/><path d="m28.086 19.545-4.213 3.845.395-.033 3.818-3.812Z" fill="#fff"/><path d="m29.619 21.125 4.26.113-.266-.363-3.994.25Zm-.13 12.004h4.26l.14-.356-4.4.356Zm-2.145-14.002.38.193 3.887-.061-4.267-.132Zm2.285 13.643 4.26.003.138-.364-4.398.36Z" fill="#E5E5E5"/><path d="m23.786 35.933-.627.954 6.607-4.485-5.98 3.531Zm.355 5.635 1.355-1.736 1.6-2.245-2.955 3.98Z" fill="#fff"/><path d="m27.688 36.664-.193.308 4.459-.341-4.266.033Z" fill="#E5E5E5"/><path d="m28.085 19.545-3.817 3.812.223.004 3.595-3.816Zm-1.558-.709-.887-.165-.96-.04 1.847.205Z" fill="#fff"/><path d="m29.862 21.506 4.26.11-.244-.378-4.016.268Z" fill="#E5E5E5"/><path d="m25.496 39.831.182-.248.184-.255-.366.503Z" fill="#fff"/><path d="m29.766 32.401 4.26.007.134-.373-4.394.366Z" fill="#E5E5E5"/><path d="M28.085 19.545 24.49 23.36l.215.017 3.38-3.833Z" fill="#fff"/><path d="m27.875 36.355-.188.31 4.454-.34-4.266.03Zm-.152-17.035.363.225 3.904-.095-4.267-.13Zm2.178 12.705 4.26.01.13-.381-4.39.371Z" fill="#E5E5E5"/><path d="m25.496 39.831.366-.503.378-.531-.744 1.035Z" fill="#fff"/><path d="m30.084 21.9 4.26.106-.221-.39-4.039.284Z" fill="#E5E5E5"/><path d="m28.085 19.545-3.38 3.833.205.031 3.175-3.864Z" fill="#fff"/><path d="m28.058 36.044-.183.311 4.448-.338-4.265.027Zm1.974-4.404 4.26.014.127-.39-4.387.376Z" fill="#E5E5E5"/><path d="m24.36 35.004-.574.93 5.98-3.531-5.407 2.6Zm3.726-15.458L24.91 23.41l.197.045 2.978-3.91Zm-2.223 19.783.187-.262.19-.27-.377.532Zm.665-20.492-.435-.098-.453-.067.887.165Z" fill="#fff"/><path d="m30.161 31.245 4.26.018.124-.399-4.384.381Zm.122-8.936 4.259.103-.198-.405-4.061.302Zm-2.046 13.422-.178.313 4.442-.337-4.264.024Zm-.151-16.186.344.256 3.921-.128-4.265-.128Z" fill="#E5E5E5"/><path d="m28.084 19.545-2.978 3.91.189.058 2.79-3.968Z" fill="#fff"/><path d="m30.286 30.843 4.259.022.118-.416-4.377.394Z" fill="#E5E5E5"/><path d="m25.496 39.83.744-1.034.856-1.21-1.6 2.245Z" fill="#fff"/><path d="m30.458 22.732 4.258.099-.174-.419-4.084.32Z" fill="#E5E5E5"/><path d="m28.086 19.545-2.79 3.968.18.073 2.61-4.041Z" fill="#fff"/><path d="m28.41 35.417-.174.314 4.438-.336-4.264.022Zm1.995-4.994 4.258.026.108-.412-4.366.386Z" fill="#E5E5E5"/><path d="m24.879 34.097-.52.906 5.407-2.6-4.887 1.694Zm3.207-14.552-2.61 4.04.17.087 2.44-4.127Z" fill="#fff"/><path d="m30.513 30.007 4.258.03.098-.408-4.356.378Z" fill="#E5E5E5"/><path d="m28.085 19.545-1.558-.709-1.847-.205 3.405.914Z" fill="#fff"/><path d="m30.61 23.168 4.258.094-.151-.432-4.107.338Z" fill="#E5E5E5"/><path d="m26.24 38.798.221-.3.216-.303-.437.603Z" fill="#fff"/><path d="m28.578 35.101-.169.316 4.433-.334-4.264.018Zm-.149-15.3.326.287 3.938-.161-4.264-.126Z" fill="#E5E5E5"/><path d="m28.086 19.545-2.44 4.127.162.1 2.278-4.227Z" fill="#fff"/><path d="m30.611 29.595 4.258.034.088-.404-4.346.37Zm.127-5.978 4.257.09-.128-.445-4.13.355Zm-.039 5.57 4.258.038.077-.4-4.335.363Z" fill="#E5E5E5"/><path d="m28.085 19.545-2.277 4.228.153.114 2.124-4.342Z" fill="#fff"/><path d="m28.737 34.795-.159.306 4.423-.322-4.264.016Z" fill="#E5E5E5"/><path d="m25.343 33.215-.465.882 4.887-1.695-4.422.813Zm.896 5.582.438-.602.418-.608-.856 1.21Z" fill="#fff"/><path d="m30.776 28.785 4.258.042.067-.396-4.325.354Zm.067-4.703 4.257.086-.105-.459-4.152.373Z" fill="#E5E5E5"/><path d="m28.085 19.545-2.124 4.342.144.128 1.98-4.47Z" fill="#fff"/><path d="m30.844 28.385 4.257.045.057-.392-4.314.347Zm.08-3.826 4.258.081-.082-.473-4.175.392Zm-2.03 9.92-.157.315 4.42-.328-4.264.012Zm2.007-6.49 4.257.049.046-.388-4.303.34Zm-2.146-7.901.307.32 3.956-.197-4.263-.123Z" fill="#E5E5E5"/><path d="m28.086 19.545-1.98 4.47.135.142 1.845-4.612Z" fill="#fff"/><path d="m30.947 27.598 4.257.053.036-.384-4.293.331Zm.036-2.548 4.257.077-.058-.486-4.199.41Zm0 2.16 4.257.057.026-.38-4.282.324Zm.035-1.655 4.257.072-.035-.5-4.222.428Z" fill="#E5E5E5"/><path d="m26.677 38.194.211-.303.207-.305-.418.608Z" fill="#fff"/><path d="m31.009 26.828 4.256.06.016-.376-4.272.316Z" fill="#E5E5E5"/><path d="m28.085 19.545-1.845 4.612.127.156 1.718-4.768Z" fill="#fff"/><path d="m31.03 26.073 4.257.067-.012-.513-4.244.446Zm-.005.375 4.257.064.005-.372-4.262.308Z" fill="#E5E5E5"/><path d="m27.342 19.127-.399-.161-.417-.13.816.291Z" fill="#fff"/><path d="m29.048 34.154-.153.324 4.415-.334-4.262.01Z" fill="#E5E5E5"/><path d="m25.755 32.358-.41.857 4.42-.813-4.01-.044Zm2.33-12.813-1.717 4.768.117.169 1.6-4.937Zm-3.944 22.023 2.955-3.981 2.67-5.185-5.625 9.166Zm3.944-22.023-1.6 4.937.107.18 1.493-5.117Z" fill="#fff"/><path d="m29.196 33.822-.15.333 4.412-.339-4.262.006Zm-.135-13.414.289.351 3.974-.23-4.263-.12Z" fill="#E5E5E5"/><path d="M28.085 19.545 26.59 24.66l.098.19 1.396-5.306Zm0 0-1.396 5.307.086.201 1.31-5.508Zm-1.973 11.98-.357.833 4.01.044-3.653-.877Zm1.973-11.98-1.31 5.508.077.213 1.233-5.721Z" fill="#fff"/><path d="m29.342 33.48-.147.341 4.409-.344-4.262.003Z" fill="#E5E5E5"/><path d="m17.924 47.538 13.982.314V43.41l-13.982 4.127Zm10.162-27.994-1.233 5.721.066.224 1.167-5.945Zm-.99 18.042.202-.306.198-.307-.4.613Zm.99-18.042-.743-.417-.815-.291 1.558.708Zm0 0-1.167 5.945.056.235 1.111-6.18Zm0 0-1.11 6.18.046.246 1.064-6.426Zm-1.01 8.198-.083.705 1.093-8.903-1.01 8.198Z" fill="#fff"/><path d="m29.488 33.129-.144.35 4.405-.35h-4.261Zm-.137-12.371.267.367 3.994-.25-4.261-.117Z" fill="#E5E5E5"/><path d="m27.02 25.97.037.257 1.028-6.682-1.064 6.425Zm.037.257.025.268 1.003-6.95-1.028 6.682Zm.046.836-.028.68 1.01-8.198-.982 7.518Zm-.02-.568.015.279.987-7.23-1.003 6.95Zm.015.279.005.29.982-7.52-.987 7.23Zm-.683 3.944-.303.808 3.654.876-3.351-1.684Zm.68 6.869.4-.613.38-.62-.78 1.233Z" fill="#fff"/><path d="m29.63 32.77-.142.359 4.402-.356-4.26-.004Z" fill="#E5E5E5"/><path d="m26.662 29.936-.248.782 3.351 1.684-3.103-2.466Z" fill="#fff"/><path d="m29.617 21.125.245.38 4.016-.266-4.26-.114Zm.148 11.277-.138.368 4.398-.361-4.26-.007Z" fill="#E5E5E5"/><path d="m27.494 36.973.192-.309.188-.31-.38.619Zm.59-17.429-.362-.224-.38-.193.742.417Zm-1.23 9.634-.193.757 3.104 2.466-2.911-3.223Z" fill="#fff"/><path d="m31.905 47.852 4.254-.139v-4.399l-4.254 4.538ZM29.9 32.025l-.134.377 4.394-.366-4.26-.01Z" fill="#E5E5E5"/><path d="m27.095 37.587.78-1.233.703-1.253-1.483 2.486Zm-.103-9.14-.137.731 2.91 3.224-2.773-3.955Z" fill="#fff"/><path d="m29.862 21.506.222.395 4.038-.285-4.26-.11Zm.17 10.133-.132.386 4.391-.371-4.26-.015Z" fill="#E5E5E5"/><path d="m27.875 36.355.183-.312.178-.313-.361.625Z" fill="#fff"/><path d="m30.162 31.245-.129.394 4.388-.376-4.26-.018Zm-.077-9.345.198.409 4.062-.302-4.26-.107Zm.202 8.942-.125.403 4.384-.381-4.259-.022Z" fill="#E5E5E5"/><path d="m27.876 36.355.36-.624.342-.63-.702 1.254Zm-.883-7.907 2.773 3.954-1.68-12.857-1.093 8.903Z" fill="#fff"/><path d="m30.282 22.309.175.422 4.084-.32-4.259-.102Zm.122 8.113-.118.42 4.377-.394-4.258-.026Z" fill="#E5E5E5"/><path d="m28.236 35.731.174-.314.168-.315-.342.629Z" fill="#fff"/><path d="m30.513 30.008-.109.415 4.367-.385-4.258-.03Z" fill="#E5E5E5"/><path d="m28.754 20.088-.325-.287-.344-.256.67.543Z" fill="#fff"/><path d="m30.458 22.732.152.437 4.106-.338-4.258-.099Z" fill="#E5E5E5"/><path d="m27.096 37.587 1.482-2.486 1.188-2.699-2.67 5.185Z" fill="#fff"/><path d="m30.61 29.596-.097.411 4.356-.378-4.258-.033Zm-.001-6.428.128.45 4.13-.356-4.258-.094Zm.09 6.02-.088.408 4.345-.37-4.257-.038Zm.077-.403-.077.403 4.334-.362-4.257-.041Zm-.039-5.167.106.464 4.152-.374-4.258-.09Z" fill="#E5E5E5"/><path d="m29.35 20.759-.596-.67-.669-.544 1.265 1.214ZM28.577 35.1l.16-.306.156-.316-.316.622Z" fill="#fff"/><path d="m30.844 28.385-.068.4 4.325-.354-4.257-.046Zm-.001-4.303.081.477 4.176-.391-4.257-.086Zm.057 3.908-.056.395 4.313-.346-4.257-.05Zm.047-.391-.047.39 4.304-.338-4.257-.052Zm-.023-3.04.059.491 4.198-.41-4.256-.08Z" fill="#E5E5E5"/><path d="m28.578 35.102.315-.622.303-.658-.618 1.28Z" fill="#fff"/><path d="m30.983 27.211-.036.388 4.293-.332-4.257-.056Zm0-2.16.035.505 4.222-.428-4.257-.077Zm.026 1.777-.026.383 4.283-.323-4.257-.06Zm.016-.38-.016.38 4.272-.316-4.256-.063Zm-.007-.893.012.519 4.245-.447-4.257-.072Zm.012.519-.005.375 4.261-.308-4.256-.067Z" fill="#E5E5E5"/><path d="m28.893 34.48.153-.325.15-.333-.303.657Zm.457-13.721-.289-.351-.307-.32.596.67ZM28.577 35.1l.619-1.28.57-1.419-1.189 2.7Zm1.705-12.791-.932-1.551-1.265-1.214 2.197 2.764Zm-1.086 11.512.147-.342.144-.35-.291.692Zm0 0 .29-.692.28-.728-.57 1.42Zm.666-12.316-.245-.38-.267-.367.512.747Zm-.375 11.624.14-.36.138-.368-.278.728Zm.278-.728 1.264-6.329-2.944-6.528 1.68 12.857Zm1.264-6.329-.747-3.764-2.197-2.764 2.944 6.528Zm-.747-3.764-.42-.803-.512-.747.932 1.55Z" fill="#fff"/><path d="M31.906 43.411v4.441l4.254-4.537-4.254.096Z" fill="#E5E5E5"/><path d="m29.766 32.402.134-.377.132-.386-.266.763Zm0 0 .266-.763.254-.797-.52 1.56Zm.516-10.093-.198-.409-.222-.394.42.803Zm-.25 9.33.128-.394.126-.403-.254.797Zm-.266.763.52-1.56.413-1.654-.933 3.214Zm.52-1.56.118-.42.109-.415-.227.835Zm.323-7.674-.152-.436-.175-.423.327.859Zm-.843 9.234.933-3.214.33-3.115-1.263 6.329Zm.52-1.56.227-.835.186-.819-.413 1.654Zm.557-6.76-.234-.914-.327-.859.56 1.772Zm-.33 5.925.098-.412.088-.407-.186.819Zm.517-3.934-.187-1.992-.56-1.772.747 3.764Zm-.187-1.992-.105-.463-.129-.45.234.913Zm-.144 5.107.077-.404.068-.4-.145.804Zm0 0 .145-.803.103-.787-.248 1.59Zm0 0 .248-1.59.083-1.525-.331 3.115Zm.145-.803.056-.396.047-.391-.103.787Zm.139-3.335-.059-.491-.081-.478.14.969Zm.047 1.023-.047-1.023-.14-.969.187 1.992Zm-.083 1.525.036-.387.026-.384-.062.77Zm0 0 .062-.77.02-.755-.082 1.525Zm.083-1.525-.012-.518-.035-.505.047 1.023Zm-.021.754.016-.379.005-.375-.021.754Z" fill="#fff"/></g><path d="M31.864 47.872v-4.415l-9.265-.19c.536-.455 3.063-3.335 4.288-5.325 1.102-1.38 2.336-4.125 2.815-5.325.402-1.244 1.221-4.017 1.283-5.154.076-1.422.038-2.502-.211-3.677-.038-.834-1.091-2.975-2.412-4.055-1.006-.823-2.521-1.093-3.248-1.133l-.105-.004c.033 0 .068.002.104.004 1.237.053 3.75.16 4.702.204.98.046 1.991.486 2.374.701.466.285 1.593 1.262 2.374 2.9.781 1.637.824 3.537.747 4.283-.051.764-.322 2.827-.996 4.965-.673 2.137-1.85 4.25-2.355 5.04-.433.689-1.6 2.43-2.795 3.885-1.164 1.41-2.003 2.293-2.277 2.559l9.285.17v4.416l-4.308.151Z" fill="url(#d)" fill-opacity=".5"/><path d="M31.864 47.872v-4.415l-9.265-.19c.536-.455 3.063-3.335 4.288-5.325 1.102-1.38 2.336-4.125 2.815-5.325.402-1.244 1.221-4.017 1.283-5.154.076-1.422.038-2.502-.211-3.677-.038-.834-1.091-2.975-2.412-4.055-1.006-.823-2.521-1.093-3.248-1.133l-.105-.004c.033 0 .068.002.104.004 1.237.053 3.75.16 4.702.204.98.046 1.991.486 2.374.701.466.285 1.593 1.262 2.374 2.9.781 1.637.824 3.537.747 4.283-.051.764-.322 2.827-.996 4.965-.673 2.137-1.85 4.25-2.355 5.04-.433.689-1.6 2.43-2.795 3.885-1.164 1.41-2.003 2.293-2.277 2.559l9.285.17v4.416l-4.308.151Z" fill="url(#e)" fill-opacity=".5"/><path d="m25.361 27.3-4.278-.058c.076-.446.368-1.344.504-1.738.164-.361.578-1.158.93-1.447.38-.282.723-.615 1.725-.695.802-.064 1.524.36 1.784.579.137.145.42.459.461.557-.687.854-.97 2.11-1.126 2.802Z" fill="url(#f)" fill-opacity=".5"/><path d="M31.427.235 30.078.023a31.6 31.6 0 0 1 1.349.212l11.314 1.77c1.9.474 6.589 2.214 10.14 5.384 3.55 3.17 6.237 7.437 7.136 9.174l1.959 4.308c1.03 3.259 2.828 11.026 1.784 16.022-.627 5.031-2.524 9.993-3.394 11.845-1.088 2.599-4.709 8.684-10.488 12.233-3.046 2.54-9.486 4.048-14.883 4.608.668-.172 2.141-.585 2.699-.861.696-.345 19.998-8.674 18.284-34.44C54.637 14.252 45.403 2.735 31.427.236Z" fill="url(#g)" fill-opacity=".5"/><defs><linearGradient id="a" x1="28.629" y1="0" x2="40.769" y2="67.974" gradientUnits="userSpaceOnUse"><stop stop-color="#DEE5F8"/><stop offset="1" stop-color="#BDBEE3"/></linearGradient><linearGradient id="b" x1="39.062" y1="53.368" x2="-4.055" y2="1.663" gradientUnits="userSpaceOnUse"><stop stop-color="#fff" stop-opacity=".7"/><stop offset="1" stop-color="#A0A3CF"/></linearGradient><linearGradient id="d" x1="29.386" y1="18.594" x2="29.386" y2="47.872" gradientUnits="userSpaceOnUse"><stop stop-color="#E5E5E5"/><stop offset="1" stop-color="#E5E5E5" stop-opacity="0"/></linearGradient><linearGradient id="e" x1="67.636" y1="42.671" x2="29.408" y2="36.025" gradientUnits="userSpaceOnUse"><stop stop-color="#EFE6F6"/><stop offset="1" stop-color="#EEECF1"/></linearGradient><linearGradient id="f" x1="23.785" y1="23.355" x2="23.785" y2="27.3" gradientUnits="userSpaceOnUse"><stop stop-color="#E5E5E5"/><stop offset="1" stop-color="#E5E5E5" stop-opacity="0"/></linearGradient><linearGradient id="g" x1="80.967" y1="27.416" x2="13.452" y2="39.53" gradientUnits="userSpaceOnUse"><stop stop-color="#BDBEE3"/><stop offset="1" stop-color="#DEE5F8"/></linearGradient><filter id="c" x="12.924" y="10.631" width="38.236" height="49.221" filterUnits="userSpaceOnUse" color-interpolation-filters="sRGB"><feFlood flood-opacity="0" result="BackgroundImageFix"/><feColorMatrix in="SourceAlpha" values="0 0 0 0 0 0 0 0 0 0 0 0 0 0 0 0 0 0 127 0" result="hardAlpha"/><feOffset dx="5" dy="2"/><feGaussianBlur stdDeviation="5"/><feColorMatrix values="0 0 0 0 0.321569 0 0 0 0 0.156863 0 0 0 0 0.423529 0 0 0 0.3 0"/><feBlend in2="BackgroundImageFix" result="effect1_dropShadow_1133_514855"/><feBlend in="SourceGraphic" in2="effect1_dropShadow_1133_514855" result="shape"/></filter></defs></svg>