<svg width="158" height="60" fill="none" xmlns="http://www.w3.org/2000/svg"><g opacity=".4" filter="url(#a)"><circle cx="69" cy="30" r="19" fill="#fff"/><circle cx="69" cy="30" r="18.5" stroke="#000"/><circle cx="69" cy="30" r="18.5" stroke="url(#b)"/></g><g filter="url(#c)"><path d="m74.191 25.75-3.62 3.62a.5.5 0 0 0 0 .708l3.62 3.62a1.055 1.055 0 1 1-1.493 1.492l-3.62-3.62a.5.5 0 0 0-.707 0l-3.62 3.62a1.055 1.055 0 0 1-1.493 0l10.933-9.44Zm0 0a1.055 1.055 0 0 0 0-1.492l-.351.351m.351 1.141-.351-1.14m0 0 .351-.352a1.055 1.055 0 0 0-1.492 0l-3.62 3.62a.5.5 0 0 1-.708 0l-3.62-3.62a1.055 1.055 0 0 0-1.493 1.492l3.62 3.62a.5.5 0 0 1 0 .708l-3.62 3.62.351.352m10.23-9.44-10.23 9.44m0 0-.35-.352a1.055 1.055 0 0 0 0 1.493l.35-1.142Z" fill="url(#d)" stroke="url(#e)" stroke-miterlimit="16"/></g><defs><linearGradient id="b" x1="65.005" y1="-4.262" x2="93.389" y2="26.483" gradientUnits="userSpaceOnUse"><stop stop-color="#DCD4FD"/><stop offset="1" stop-color="#EBECFA"/></linearGradient><linearGradient id="d" x1="66.114" y1="26.102" x2="68.61" y2="35.032" gradientUnits="userSpaceOnUse"><stop stop-color="#FC8F89"/><stop offset="1" stop-color="#E33930"/></linearGradient><linearGradient id="e" x1="66.114" y1="26.102" x2="68.61" y2="35.032" gradientUnits="userSpaceOnUse"><stop stop-color="#FFA9A5"/><stop offset="1" stop-color="#FF5B53"/></linearGradient><filter id="a" x="0" y="-39" width="158" height="158" filterUnits="userSpaceOnUse" color-interpolation-filters="sRGB"><feFlood flood-opacity="0" result="BackgroundImageFix"/><feColorMatrix in="SourceAlpha" values="0 0 0 0 0 0 0 0 0 0 0 0 0 0 0 0 0 0 127 0" result="hardAlpha"/><feOffset dx="10" dy="10"/><feGaussianBlur stdDeviation="30"/><feColorMatrix values="0 0 0 0 0.481562 0 0 0 0 0.688006 0 0 0 0 0.8375 0 0 0 0.3 0"/><feBlend in2="BackgroundImageFix" result="effect1_dropShadow_1219_45709"/><feBlend in="SourceGraphic" in2="effect1_dropShadow_1219_45709" result="shape"/></filter><filter id="c" x="58.449" y="23.449" width="20.552" height="20.551" filterUnits="userSpaceOnUse" color-interpolation-filters="sRGB"><feFlood flood-opacity="0" result="BackgroundImageFix"/><feColorMatrix in="SourceAlpha" values="0 0 0 0 0 0 0 0 0 0 0 0 0 0 0 0 0 0 127 0" result="hardAlpha"/><feOffset dy="4"/><feGaussianBlur stdDeviation="2"/><feColorMatrix values="0 0 0 0 0 0 0 0 0 0 0 0 0 0 0 0 0 0 0.07 0"/><feBlend in2="BackgroundImageFix" result="effect1_dropShadow_1219_45709"/><feBlend in="SourceGraphic" in2="effect1_dropShadow_1219_45709" result="shape"/></filter></defs></svg>