<svg width="88" height="94" fill="none" xmlns="http://www.w3.org/2000/svg"><path d="M9.646 27.465 8.16 29.057l-1.328 1.707 2.814-3.3Zm-2.814 3.299-1.156 1.804-.969 1.884 2.125-3.688Zm2.814-3.3-2.814 3.3-2.125 3.688 4.94-6.987Zm3.389-2.768-1.76 1.309-1.629 1.46 3.389-2.77Zm-8.328 9.756-.763 1.95-.54 1.999 1.303-3.949Zm12.185-11.84-3.857 2.084-3.389 2.769 7.246-4.854Zm0 0-1.98.946-1.877 1.138 3.857-2.085Zm-7.246 4.853-4.939 6.987L.267 74.72l9.38-47.255Zm-4.939 6.987-1.303 3.949L.268 74.72l4.44-40.268Zm-1.303 3.949-.298 2.032L.268 74.72 3.404 38.4Zm56.703-27.97L16.892 22.61l-7.246 4.854 50.46-17.034Zm-5.063.917-36.078 10.53-2.074.733 38.152-11.263ZM9.646 27.465.268 74.72l1.445 8.727 7.933-55.982Zm50.46-17.034-5.062.917L16.892 22.61l43.215-12.18ZM20.322 93.08l2.805.62 2.16.3-4.965-.92ZM.268 74.72l-.053 2.362.23 2.253-.177-4.614Zm22.239 18.662 2.78.618 2.293-.023-5.073-.595Zm0 0-2.185-.302 4.965.92-2.78-.618Z" fill="#C7CDDC"/><path d="M9.648 27.465 1.715 83.447l14.12 7.868-6.187-63.85ZM.27 74.72l.176 4.614 1.269 4.113L.27 74.72Zm24.56 18.633-2.322.03 5.073.594-2.752-.624ZM75.166 17.78l-15.06-7.35-50.46 17.035 65.52-9.684ZM.443 79.335l.504 2.129.765 1.984-1.269-4.113ZM80.46 24.547l1.617 2.067-1.075-1.732-.542-.335ZM17.398 92.434l2.924.647 2.185.301-5.109-.948Zm61.975-69.641 1.087 1.754.542.335-1.629-2.089Zm1.87 3.722 1.611 2.039-.777-1.94-.834-.1ZM19.608 92.736l2.9.645 2.321-.028-5.22-.617Z" fill="#C7CDDC"/><path d="m60.107 10.432-2.505.312-2.557.605 5.062-.917ZM19.608 92.737l-2.21-.303 5.11.948-2.9-.645Zm60.852-68.19.783 1.967.834.1-1.617-2.067Zm1.23 4.135 1.611 2.006-.447-2.134-1.165.128ZM1.715 83.448l1.016 1.82L3.987 86.9l-2.272-3.453Zm14.12 7.867 59.334-73.534-65.52 9.684 6.186 63.85Z" fill="#C7CDDC"/><path d="m21.961 92.703-2.35.034 5.22.616-2.87-.65Zm59.284-66.189.446 2.168 1.165-.129-1.611-2.039Zm-2.471-4.124 1.687 2.157-1.086-1.755-.601-.402ZM14.35 91.76l3.05.674 2.21.303-5.26-.978ZM1.715 83.448 3.987 86.9l3.186 2.607-5.458-6.06Zm63.154-72.79-2.33-.254-2.43.027 4.76.228Z" fill="#C7CDDC"/><path d="m77.676 20.614 1.097 1.776.602.403-1.699-2.179Zm1.886 3.772 1.682 2.129-.783-1.968-.899-.161ZM24.831 93.354l2.75.623 40.465-3.348-43.215 2.725Zm-8.247-1.29 3.026.674 2.351-.034-5.377-.64ZM3.984 86.9l1.485 1.422 1.7 1.185L3.984 86.9Z" fill="#C7CDDC"/><path d="m16.584 92.064-2.234-.305 5.26.978-3.026-.673Zm62.19-69.674.789 1.995.898.162-1.687-2.157Zm-9.651-10.4-4.257-1.33-4.76-.228 9.017 1.559Z" fill="#C7CDDC"/><path d="m80.008 26.588 1.683 2.095-.447-2.168-1.236.073ZM18.965 92.025l-2.381.04 5.377.639-2.996-.68Zm-17.25-8.578 5.458 6.06 8.662 1.808-14.12-7.868Z" fill="#C7CDDC"/><path d="m79.563 24.386.445 2.202 1.237-.073-1.683-2.13ZM69.128 11.99l-2.052-.8-2.205-.53 4.257 1.33Zm7.882 8.147 1.762 2.253-1.097-1.776-.665-.477ZM11.162 91.055l3.186.705 2.235.305-5.42-1.01Zm64.74-72.716 1.108 1.798.665.477-1.773-2.275ZM7.172 89.507l1.902.92 2.09.628-3.992-1.548Z" fill="#C7CDDC"/><path d="m77.807 22.161 1.757 2.224-.788-1.995-.97-.229Zm-2.642-4.379-6.042-5.791-9.018-1.56 15.06 7.35Z" fill="#C7CDDC"/><path d="m21.96 92.703 2.87.65 41.098-3.5-43.968 2.85Zm-8.538-1.342 3.161.703 2.38-.04-5.541-.663Zm0 0-2.26-.306 5.421 1.009-3.161-.703Zm63.587-71.224.794 2.024.97.229-1.763-2.253Zm4.68 8.545 4.53 38.452-2.917-36.446-1.612-2.006ZM7.172 89.507l3.992 1.548 4.67.26-8.662-1.808ZM78.248 24.4l1.76 2.188-.447-2.202-1.313.013ZM72.65 14.383l-1.653-1.326-1.868-1.067 3.52 2.393Z" fill="#C7CDDC"/><path d="m15.835 91.315-2.411.046 5.542.663-3.131-.709Zm61.97-69.154.445 2.238 1.313-.014-1.757-2.224ZM11.162 91.055l2.26.306 2.41-.046-4.67-.26Zm64.006-73.274 1.843 2.356-1.108-1.798-.735-.558Zm.003 0-2.522-3.398-3.52-2.393 6.042 5.791Z" fill="#C7CDDC"/><path d="m74.048 15.96 1.12 1.82.734.558-1.854-2.378Zm1.918 3.875 1.839 2.326-.794-2.024-1.045-.302ZM65.93 89.854l-41.098 3.5 43.215-2.726-2.117-.774Zm-46.964 2.17 2.996.68 41.749-3.662-44.745 2.983Z" fill="#C7CDDC"/><path d="M75.168 17.782 74.05 15.96l-1.403-1.578 2.521 3.399Zm0-.001.799 2.054 1.044.302-1.843-2.356Zm4.84 8.807 4.468 39.175-2.784-37.08-1.683-2.095Zm6.212 40.546 1.664 1.308-4.58-37.753 2.916 36.445ZM76.41 22.11l1.84 2.29-.445-2.238-1.396-.052Zm-.443-2.274.442 2.274 1.396.052-1.838-2.326Z" fill="#C7CDDC"/><path d="m76.41 22.109-.443-2.274-.799-2.054 1.241 4.328ZM63.712 89.043l-41.749 3.661 43.968-2.85-2.219-.811Zm-47.876 2.273 3.131.71 42.416-3.836-45.547 3.126ZM78.25 24.4l4.396 39.923-2.637-37.734-1.759-2.19Zm6.227 41.363 1.744 1.372-4.529-38.452 2.785 37.08ZM65.931 89.854l2.117.775 2.872-.425-4.989-.35Zm2.926-.44 2.063.79 2.762-.778-4.825-.012ZM86.33 69.868 88 71.12l-.116-2.677-1.554 1.425ZM68.857 89.414l-2.926.44 4.99.35-2.064-.79Zm2.815-.802 2.01.814 2.615-1.109-4.625.295ZM86.026 72.57l1.685 1.194.29-2.644-1.975 1.45Zm.196-5.435.11 2.733 1.553-1.425-1.663-1.308ZM61.383 88.19l-42.416 3.835 44.745-2.983-2.329-.852Zm10.289.422-2.815.802 4.825.012-2.01-.814Zm2.668-1.139 1.957.844 2.434-1.413-4.391.57Zm10.987-12.27 1.707 1.135.677-2.574-2.384 1.438Zm-8.501 10.82 1.905.88 2.22-1.688-4.125.808Zm7.43-8.295 1.737 1.079 1.041-2.469-2.777 1.39Zm2.075-7.86-.305 2.702 1.975-1.45-1.67-1.252ZM74.34 87.473l-2.668 1.14 4.625-.296-1.957-.844Zm2.07-65.364 4.312 40.7-2.47-38.41-1.841-2.29Zm2.684 62.182 1.857.924 1.971-1.935-3.828 1.01Zm3.748-4.182 1.77 1.024 1.38-2.326-3.15 1.302Zm-1.732 2.199 1.812.972 1.69-2.147-3.502 1.175Zm1.537-17.985 1.831 1.44-4.468-39.174 2.637 37.734Z" fill="#C7CDDC"/><path d="m15.836 91.315 61.139-14.6-1.805-58.934-59.334 73.534Zm47.877-2.273 2.219.812 2.925-.44-5.144-.372ZM86.027 72.57l-.7 2.633 2.385-1.439-1.685-1.194Zm-9.2 13.454-2.486 1.45 4.391-.57-1.905-.88Z" fill="#C7CDDC"/><path d="M80.803 65.725 76.41 22.11l-1.241-4.328 5.635 47.944Zm4.524 9.477-1.07 2.526 2.777-1.39-1.707-1.136Zm-6.233 9.088-2.268 1.733 4.125-.808-1.857-.925Zm5.163-6.562-1.415 2.38 3.15-1.301-1.735-1.08Zm-3.147 4.58-2.016 1.982 3.828-1.01-1.812-.972Zm-14.417 6.277 2.164.829 2.815-.802-4.98-.027Zm16.149-8.476-1.732 2.199 3.503-1.175-1.771-1.024Zm1.737-11.555 1.752 1.314-.109-2.733-1.642 1.42ZM66.694 88.585l-2.98.457 5.144.372-2.164-.829Zm2.87-.826 2.109.853 2.668-1.139-4.777.286ZM84.26 71.317l1.767 1.252.305-2.701-2.072 1.449Zm.22-5.554.1 2.791 1.643-1.42-1.744-1.371ZM58.936 87.295l-43.101 4.02 45.547-3.125-2.447-.895Zm10.626.464-2.87.826 4.979.027-2.109-.853Zm2.724-1.171 2.053.885 2.486-1.45-4.54.565Zm11.25-12.578 1.791 1.192.7-2.633-2.491 1.44Zm-8.71 11.088 2 .925 2.268-1.733-4.268.808Zm7.609-8.503 1.822 1.133 1.07-2.526-2.892 1.393Zm2.144-8.04-.32 2.761 2.072-1.448-1.752-1.314ZM72.287 86.587l-2.724 1.171 4.777-.286-2.053-.885Zm4.859-3.267 1.948.97 2.016-1.983-3.964 1.013Zm3.837-4.287 1.859 1.075 1.415-2.381-3.274 1.306Zm-1.774 2.254 1.901 1.02 1.732-2.2-3.633 1.18Zm1.513-18.48 1.925 1.515-4.396-39.924 2.471 38.41ZM61.383 88.19l2.33.852 2.98-.457-5.31-.395ZM84.26 71.317l-.723 2.693 2.49-1.44-1.767-1.253Zm-9.433 13.781-2.54 1.49 4.54-.565-2-.925Z" fill="#C7CDDC"/><path d="m15.836 91.315 43.1-4.02 3.097-.494-46.197 4.514ZM83.537 74.01l-1.101 2.585 2.892-1.393-1.791-1.192Zm-6.39 9.31-2.32 1.778 4.268-.808-1.949-.97Zm5.289-6.725-1.453 2.439 3.274-1.306-1.821-1.133Zm-3.226 4.693-2.064 2.033 3.965-1.013-1.901-1.02Zm-14.788 6.428 2.272.87 2.87-.827-5.142-.043Zm16.562-8.682-1.774 2.254 3.632-1.18-1.858-1.074Zm1.757-11.859 1.84 1.38-.102-2.792-1.739 1.412Zm-66.905 24.14L62.033 86.8l5.83-2.121-52.027 6.636Zm48.582-3.6-3.037.475 5.31.395-2.273-.87Zm2.929-.852 2.214.896 2.723-1.172-4.937.276ZM82.399 70l1.857 1.316.321-2.762L82.399 70Zm.245-5.678.093 2.853 1.739-1.412-1.832-1.44Zm-15.297 22.54-2.928.853 5.142.044-2.214-.896Zm2.78-1.205 2.157.93 2.54-1.489-4.696.56Z" fill="#C7CDDC"/><path d="m80.805 65.725-.083-2.917-4.311-40.699 4.394 43.616Zm-64.97 25.59 52.027-6.635 9.113-7.964-61.14 14.6Zm61.14-14.6 3.83-10.99-5.635-47.944 1.805 58.935Z" fill="#C7CDDC"/><path d="m81.649 72.757 1.882 1.253.723-2.694-2.605 1.441Zm-8.928 11.37 2.1.971 2.32-1.777-4.42.806Zm7.795-8.722 1.914 1.19 1.101-2.585-3.015 1.395Zm2.219-8.23L82.397 70l2.178-1.446-1.84-1.379Zm-12.61 18.483-2.78 1.205 4.937-.275-2.156-.93Zm4.968-3.356 2.048 1.019 2.063-2.033-4.11 1.014Zm3.932-4.398 1.953 1.13 1.452-2.439-3.405 1.31Zm-1.819 2.312 1.998 1.072 1.774-2.254-3.772 1.182Zm-18.274 7.079 2.447.895 3.037-.474-5.484-.421ZM82.397 70l-.748 2.757 2.605-1.44L82.397 70ZM72.72 84.127l-2.596 1.53 4.697-.559-2.101-.971Zm8.928-11.37-1.133 2.648 3.015-1.395-1.882-1.253Zm-6.556 9.545-2.372 1.825 4.42-.806-2.048-1.02Zm5.423-6.897-1.491 2.5 3.405-1.31-1.914-1.19Zm-3.31 4.81-2.113 2.087 4.111-1.014-1.998-1.072Zm-15.178 6.586 2.388.915 2.929-.853-5.317-.062Zm16.997-8.897-1.819 2.312 3.772-1.182-1.953-1.13ZM80.8 65.725l1.935 1.45-.093-2.852-1.842 1.402ZM62.028 86.801l-3.096.494 5.484.42-2.388-.914Zm2.989-.88 2.328.942 2.78-1.205-5.108.263Zm15.427-17.305L82.397 70l.338-2.825-2.291 1.441Zm.273-5.807.083 2.916 1.842-1.402-1.925-1.514Zm-15.7 23.112-2.989.88 5.317.062-2.328-.942Zm2.84-1.241 2.269.978 2.595-1.531-4.863.553ZM79.67 71.44l1.98 1.317.748-2.757-2.728 1.44Zm-9.158 11.665 2.21 1.022 2.372-1.825-4.582.803Zm7.99-8.952 2.015 1.252 1.133-2.648-3.147 1.396Zm2.3-8.428-.357 2.891 2.29-1.44-1.934-1.45ZM67.857 84.68l-2.841 1.241 5.109-.263-2.268-.978Zm5.081-3.45 2.154 1.072 2.113-2.086-4.267 1.014Zm4.03-4.514 2.056 1.188 1.49-2.499-3.545 1.311Zm-1.865 2.372 2.102 1.128 1.819-2.312-3.92 1.184Zm5.34-10.472-.775 2.823L82.397 70l-1.953-1.384Zm-9.933 14.49-2.653 1.574 4.863-.553-2.21-1.022ZM62.027 86.8l2.989-.88 2.84-1.241-5.829 2.121Z" fill="#C7CDDC"/><path d="m79.674 71.44-1.168 2.713 3.147-1.396-1.98-1.318Zm-6.73 9.79-2.428 1.876 4.582-.804-2.154-1.072Zm5.562-7.077-1.532 2.563 3.546-1.31-2.014-1.253Zm-3.397 4.935-2.165 2.142 4.266-1.014-2.101-1.128Zm1.865-2.372-1.865 2.372 3.92-1.184-2.055-1.188Z" fill="#C7CDDC"/><path d="m79.675 71.439.775-2.824.356-2.89-1.13 5.714Zm-2.7 5.276 2.7-5.276 1.131-5.714-3.83 10.99Zm-9.112 7.964 2.654-1.574 2.428-1.876-5.082 3.45Zm0 0 5.082-3.45 4.03-4.514-9.112 7.964Zm9.112-7.964 1.533-2.563 1.167-2.713-2.7 5.276Zm-4.03 4.514 2.165-2.142 1.865-2.372-4.03 4.514Z" fill="#C7CDDC"/><mask id="a" style="mask-type:alpha" maskUnits="userSpaceOnUse" x="0" y="10" width="88" height="84"><path d="m9.644 27.465-1.486 1.592-1.328 1.707 2.814-3.3ZM6.83 30.764l-1.156 1.804-.968 1.884 2.124-3.688Zm2.814-3.3-2.814 3.3-2.124 3.688 4.938-6.987Zm3.389-2.768-1.76 1.309-1.629 1.46 3.389-2.77Zm-8.327 9.756-.764 1.95-.54 1.999 1.304-3.949Zm12.184-11.84-3.857 2.084-3.389 2.769 7.246-4.854Zm0 0-1.98.946-1.877 1.138 3.857-2.085Zm-7.246 4.853-4.938 6.987L.266 74.72l9.378-47.255Zm-4.938 6.987-1.304 3.949L.266 74.72l4.44-40.268Zm-1.304 3.949-.298 2.032L.266 74.72 3.402 38.4Zm56.703-27.97L16.89 22.61l-7.246 4.854 50.46-17.034Zm-5.063.917-36.078 10.53-2.074.733 38.152-11.263ZM9.644 27.465.266 74.72l1.445 8.727 7.933-55.982Zm50.46-17.034-5.062.917L16.89 22.61l43.215-12.18ZM20.32 93.08l2.805.62 2.16.3-4.965-.92ZM.266 74.72l-.053 2.362.23 2.253-.177-4.614Z" fill="#C7CDDC"/><path d="m22.506 93.382 2.78.618 2.292-.023-5.072-.595Zm0 0-2.186-.302 4.965.92-2.78-.618ZM9.646 27.465 1.713 83.447l14.12 7.868-6.187-63.85ZM.268 74.72l.176 4.614 1.269 4.113L.268 74.72Z" fill="#C7CDDC"/><path d="m24.828 93.353-2.322.03 5.073.594-2.751-.624ZM75.164 17.78l-15.06-7.35-50.46 17.035 65.52-9.684ZM.44 79.335l.504 2.129.765 1.984L.44 79.334Zm80.017-54.788 1.618 2.067L81 24.882l-.543-.335Zm-63.06 67.887 2.923.647 2.185.301-5.108-.948ZM79.37 22.793l1.087 1.754.542.335-1.629-2.089Zm1.87 3.722 1.611 2.039-.777-1.94-.834-.1ZM19.606 92.736l2.9.645 2.321-.028-5.22-.617Z" fill="#C7CDDC"/><path d="m60.105 10.432-2.504.312-2.558.605 5.062-.917ZM19.606 92.737l-2.21-.303 5.11.948-2.9-.645Zm60.851-68.19.784 1.967.834.1-1.618-2.067Zm1.23 4.135 1.612 2.006-.447-2.134-1.165.128ZM1.713 83.448l1.016 1.82L3.985 86.9l-2.272-3.453Zm14.12 7.867 59.334-73.534-65.52 9.684 6.186 63.85Z" fill="#C7CDDC"/><path d="m21.96 92.703-2.352.034 5.221.616-2.87-.65Zm59.283-66.189.446 2.168 1.165-.129-1.611-2.039Zm-2.471-4.124 1.687 2.157-1.086-1.755-.601-.402ZM14.348 91.76l3.05.674 2.21.303-5.26-.978ZM1.713 83.448 3.985 86.9l3.186 2.607-5.458-6.06Zm63.154-72.79-2.33-.254-2.43.027 4.76.228Z" fill="#C7CDDC"/><path d="m77.674 20.614 1.097 1.776.602.403-1.699-2.179Zm1.886 3.772 1.683 2.129-.784-1.968-.899-.161ZM24.83 93.354l2.75.623 40.465-3.348-43.215 2.725Zm-8.247-1.29 3.026.674 2.351-.034-5.377-.64ZM3.982 86.9l1.485 1.422 1.7 1.185L3.983 86.9Z" fill="#C7CDDC"/><path d="m16.582 92.064-2.234-.305 5.26.978-3.026-.673Zm62.19-69.674.789 1.995.898.162-1.687-2.157Zm-9.651-10.4-4.257-1.33-4.76-.228 9.017 1.559Z" fill="#C7CDDC"/><path d="m80.006 26.588 1.683 2.095-.446-2.168-1.237.073ZM18.963 92.025l-2.381.04 5.377.639-2.996-.68Zm-17.25-8.578 5.458 6.06 8.662 1.808-14.12-7.868ZM79.56 24.386l.446 2.202 1.237-.073-1.682-2.13ZM69.126 11.99l-2.052-.8-2.205-.53 4.257 1.33Zm7.882 8.147 1.763 2.253-1.098-1.776-.665-.477ZM11.16 91.055l3.186.705 2.235.305-5.42-1.01ZM75.9 18.34l1.108 1.798.665.477L75.9 18.34ZM7.17 89.507l1.902.92 2.09.628-3.992-1.548Z" fill="#C7CDDC"/><path d="m77.805 22.161 1.757 2.224-.788-1.995-.97-.229Zm-2.641-4.379L69.12 11.99l-9.017-1.56 15.06 7.35Z" fill="#C7CDDC"/><path d="m21.958 92.703 2.87.65 41.098-3.5-43.968 2.85Zm-8.538-1.342 3.161.703 2.38-.04-5.541-.663Zm0 0-2.26-.306 5.421 1.009-3.161-.703Zm63.588-71.224.794 2.024.968.229-1.762-2.253Zm4.68 8.545 4.529 38.452L83.3 30.688l-1.612-2.006ZM7.17 89.507l3.992 1.548 4.67.26-8.662-1.808ZM78.246 24.4l1.76 2.188-.447-2.202-1.313.013Zm-5.599-10.017-1.652-1.326-1.868-1.067 3.52 2.393Z" fill="#C7CDDC"/><path d="m15.833 91.315-2.411.046 5.542.663-3.131-.709Zm61.97-69.154.445 2.238 1.313-.014-1.757-2.224ZM11.16 91.055l2.26.306 2.41-.046-4.67-.26Zm64.006-73.274 1.843 2.356-1.108-1.798-.735-.558Zm.004 0-2.523-3.398-3.52-2.393 6.042 5.791Z" fill="#C7CDDC"/><path d="m74.046 15.96 1.12 1.82.735.558-1.855-2.378Zm1.918 3.875 1.839 2.326-.794-2.024-1.045-.302ZM65.927 89.854l-41.098 3.5 43.215-2.726-2.117-.774Zm-46.964 2.17 2.996.68 41.749-3.662-44.745 2.983Z" fill="#C7CDDC"/><path d="m75.167 17.782-1.12-1.821-1.403-1.578 2.523 3.399Zm-.001-.001.799 2.054 1.044.302-1.843-2.356Zm4.84 8.807 4.468 39.175-2.784-37.08-1.683-2.095Zm6.213 40.546 1.663 1.308-4.58-37.753 2.916 36.445ZM76.407 22.11l1.84 2.29-.444-2.238-1.396-.052Zm-.442-2.274.442 2.274 1.396.052-1.838-2.326Z" fill="#C7CDDC"/><path d="m76.407 22.109-.442-2.274-.799-2.054 1.241 4.328ZM63.71 89.043l-41.748 3.661 43.967-2.85-2.219-.811Zm-47.876 2.273 3.131.71 42.416-3.836-45.547 3.126ZM78.249 24.4l4.396 39.923-2.637-37.734-1.759-2.19Zm6.227 41.363 1.744 1.372-4.529-38.452 2.785 37.08ZM65.93 89.854l2.117.775 2.872-.425-4.989-.35Zm2.926-.44 2.063.79 2.762-.778-4.825-.012ZM86.33 69.868 88 71.12l-.116-2.677-1.553 1.425ZM68.855 89.414l-2.926.44 4.99.35-2.064-.79Zm2.815-.802 2.01.814 2.615-1.109-4.625.295ZM86.024 72.57l1.685 1.194.29-2.644-1.975 1.45Zm.196-5.435.11 2.733 1.553-1.425-1.663-1.308ZM61.382 88.19l-42.417 3.835 44.745-2.983-2.328-.852Zm10.288.422-2.815.802 4.825.012-2.01-.814Zm2.668-1.139 1.957.844 2.434-1.413-4.391.57Zm10.987-12.27 1.707 1.135.677-2.574-2.384 1.438Zm-8.501 10.82 1.906.88 2.219-1.688-4.125.808Zm7.43-8.295 1.737 1.079 1.041-2.469-2.777 1.39Zm2.075-7.86-.305 2.702L88 71.12l-1.67-1.252ZM74.338 87.473l-2.668 1.14 4.625-.296-1.957-.844Zm2.071-65.364 4.311 40.7-2.47-38.41-1.841-2.29Zm2.683 62.182 1.857.924 1.971-1.935-3.828 1.01Zm3.748-4.182 1.77 1.024 1.38-2.326-3.15 1.302Zm-1.732 2.199 1.812.972 1.69-2.147-3.502 1.175Zm1.537-17.985 1.831 1.44-4.468-39.174 2.637 37.734Z" fill="#C7CDDC"/><path d="m15.834 91.315 61.138-14.6-1.804-58.934-59.334 73.534Zm47.876-2.273 2.22.812 2.925-.44-5.144-.372ZM86.026 72.57l-.7 2.633 2.385-1.439-1.685-1.194Zm-9.2 13.454-2.486 1.45 4.391-.57-1.905-.88Zm3.975-20.299L76.407 22.11l-1.241-4.328 5.635 47.944Z" fill="#C7CDDC"/><path d="m85.325 75.202-1.07 2.526 2.777-1.39-1.707-1.136Zm-6.233 9.088-2.268 1.733 4.125-.808-1.857-.925Zm5.163-6.562-1.415 2.38 3.15-1.301-1.735-1.08Zm-3.147 4.58-2.016 1.982 3.828-1.01-1.812-.972Zm-14.417 6.277 2.164.829 2.815-.802-4.98-.027ZM82.84 80.11l-1.732 2.199 3.503-1.175-1.771-1.024Zm1.738-11.555 1.751 1.314-.109-2.733-1.642 1.42ZM66.69 88.585l-2.98.457 5.144.372-2.164-.829Zm2.87-.826 2.109.853 2.668-1.139-4.777.286Zm14.696-16.442 1.767 1.252.305-2.701-2.072 1.449Zm.22-5.554.1 2.791 1.643-1.42-1.744-1.371ZM58.933 87.295l-43.1 4.02L61.38 88.19l-2.447-.895Zm10.627.464-2.87.826 4.979.027-2.109-.853Zm2.724-1.171 2.053.885 2.486-1.45-4.539.565Zm11.25-12.578 1.791 1.192.7-2.633-2.491 1.44Zm-8.71 11.088 2 .925 2.268-1.733-4.267.808Zm7.609-8.503 1.822 1.133 1.07-2.526-2.892 1.393Zm2.145-8.04-.321 2.761 2.072-1.448-1.751-1.314ZM72.285 86.587l-2.724 1.171 4.777-.286-2.053-.885Zm4.859-3.267 1.948.97 2.016-1.983-3.964 1.013Zm3.837-4.287 1.859 1.075 1.415-2.381-3.274 1.306Zm-1.774 2.254 1.901 1.02 1.732-2.2-3.633 1.18Zm1.513-18.48 1.925 1.515-4.396-39.924 2.471 38.41ZM61.382 88.19l2.328.852 2.98-.457-5.308-.395Zm22.875-16.873-.723 2.693 2.49-1.44-1.767-1.253Zm-9.433 13.781-2.539 1.49 4.539-.565-2-.925Z" fill="#C7CDDC"/><path d="m15.834 91.315 43.1-4.02 3.097-.494-46.197 4.514ZM83.535 74.01l-1.101 2.585 2.892-1.393-1.791-1.192Zm-6.39 9.31-2.32 1.778 4.268-.808-1.949-.97Zm5.289-6.725-1.452 2.439 3.274-1.306-1.822-1.133Zm-3.226 4.693-2.064 2.033 3.965-1.013-1.901-1.02ZM64.42 87.716l2.272.87 2.87-.827-5.142-.043Zm16.562-8.682-1.774 2.254 3.632-1.18-1.858-1.074Zm1.757-11.859 1.84 1.38-.102-2.792-1.739 1.412Z" fill="#C7CDDC"/><path d="M15.834 91.315 62.031 86.8l5.83-2.121-52.027 6.636Zm48.583-3.6-3.038.475 5.31.395-2.272-.87Zm2.928-.852 2.214.896 2.723-1.172-4.937.276ZM82.397 70l1.857 1.316.321-2.762L82.397 70Zm.245-5.678.093 2.853 1.739-1.412-1.832-1.44Zm-15.297 22.54-2.928.853 5.142.044-2.214-.896Zm2.78-1.205 2.157.93 2.54-1.489-4.696.56Z" fill="#C7CDDC"/><path d="m80.803 65.725-.083-2.917-4.31-40.698 4.394 43.616Zm-64.969 25.59L67.86 84.68l9.112-7.964-61.138 14.6Zm61.138-14.6 3.831-10.99-5.635-47.944 1.804 58.935Z" fill="#C7CDDC"/><path d="m81.647 72.757 1.882 1.253.723-2.694-2.605 1.441Zm-8.928 11.37 2.1.971 2.32-1.777-4.42.806Zm7.795-8.722 1.914 1.19 1.101-2.585-3.015 1.395Zm2.219-8.23L82.395 70l2.178-1.446-1.84-1.379Zm-12.61 18.483-2.78 1.205 4.937-.275-2.156-.93Zm4.968-3.356 2.048 1.019 2.063-2.033-4.11 1.014Zm3.932-4.398 1.953 1.13 1.452-2.439-3.405 1.31Zm-1.819 2.312 1.998 1.072 1.774-2.254-3.772 1.182ZM58.93 87.295l2.447.895 3.037-.474-5.484-.421ZM82.395 70l-.748 2.757 2.605-1.44L82.395 70Zm-9.676 14.127-2.595 1.53 4.696-.559-2.101-.971Zm8.928-11.37-1.133 2.648 3.015-1.395-1.882-1.253Zm-6.556 9.545-2.372 1.825 4.42-.806-2.048-1.02Zm5.423-6.897-1.491 2.5 3.405-1.31-1.914-1.19Zm-3.31 4.81-2.113 2.087 4.111-1.014-1.998-1.072Zm-15.177 6.586 2.387.915 2.929-.853-5.317-.062Zm16.996-8.897-1.819 2.312 3.772-1.182-1.953-1.13Zm1.775-12.179 1.935 1.45-.093-2.852-1.842 1.402ZM62.026 86.801l-3.096.494 5.484.42-2.388-.914Zm2.989-.88 2.328.942 2.78-1.205-5.108.263Zm15.427-17.305L82.395 70l.338-2.825-2.291 1.441Zm.273-5.807.083 2.916 1.842-1.402-1.925-1.514Zm-15.7 23.112-2.989.88 5.317.062-2.328-.942Zm2.84-1.241 2.269.978 2.595-1.531-4.863.553Zm11.812-13.24 1.98 1.317.748-2.757-2.728 1.44ZM70.51 83.104l2.21 1.022 2.372-1.825-4.582.803Zm7.99-8.952 2.015 1.252 1.133-2.648-3.147 1.396Zm2.3-8.428-.357 2.891 2.29-1.44-1.934-1.45ZM67.855 84.68l-2.841 1.241 5.109-.263-2.268-.978Zm5.081-3.45 2.154 1.072 2.113-2.086-4.267 1.014Zm4.03-4.514 2.056 1.188 1.49-2.499-3.545 1.311Zm-1.865 2.372 2.102 1.128 1.819-2.312-3.92 1.184Zm5.34-10.472-.775 2.823L82.395 70l-1.953-1.384Zm-9.933 14.49-2.653 1.574 4.863-.553-2.21-1.022ZM62.025 86.8l2.989-.88 2.84-1.241-5.829 2.121Z" fill="#C7CDDC"/><path d="m79.672 71.44-1.168 2.713 3.147-1.396-1.98-1.318Zm-6.73 9.79-2.428 1.876 4.582-.804-2.154-1.072Zm5.562-7.077-1.532 2.563 3.546-1.31-2.014-1.253Zm-3.397 4.935-2.165 2.142 4.267-1.014-2.102-1.128Zm1.865-2.372-1.865 2.372 3.92-1.184-2.055-1.188Z" fill="#C7CDDC"/><path d="m79.673 71.439.775-2.824.356-2.89-1.13 5.714Zm-2.7 5.276 2.7-5.276 1.131-5.714-3.83 10.99Zm-9.112 7.964 2.654-1.574 2.428-1.876-5.082 3.45Zm0 0 5.082-3.45 4.03-4.514-9.112 7.964Zm9.112-7.964 1.533-2.563 1.167-2.713-2.7 5.276Zm-4.03 4.514 2.165-2.142 1.865-2.372-4.03 4.514Z" fill="#C7CDDC"/></mask><g mask="url(#a)"><ellipse cx="45.878" cy="13.713" rx="45.878" ry="13.713" transform="matrix(.99558 -.09389 .11756 .99307 -7.56 89.023)" fill="url(#b)" fill-opacity=".5"/><ellipse cx="90.661" cy="37.838" rx="15.546" ry="62.752" fill="url(#c)"/></g><path d="M2.938 39.018C3.87 31.914 8.94 25.148 16.47 22.7l35.612-10.745c13.99-4.545 25.09.298 24.803 13.583l3.886 39.732c-.195 9.042-8.609 20.053-18.587 21.625l-41.828 4.233C6.375 93.33-1.433 85.11.218 72.524l2.72-33.506Z" fill="url(#d)"/><path d="m50.955 17.66.008-.002.007-.002c6.006-1.958 11.258-1.848 14.93.043 3.616 1.862 5.861 5.532 5.741 11.116v.047l.004.046 3.395 34.827c-.095 3.74-1.883 7.956-4.74 11.421-2.864 3.471-6.72 6.095-10.836 6.752l-36.57 3.713-.022.003-.022.003c-5.95.94-10.441-.363-13.27-3.088-2.83-2.725-4.147-7.016-3.447-12.365l.003-.02.001-.019 2.377-29.39C9.3 34.8 13.538 29.137 19.808 27.09l31.147-9.43Z" fill="url(#e)" fill-opacity=".28" stroke="url(#f)" stroke-width="1.569"/><mask id="i" style="mask-type:alpha" maskUnits="userSpaceOnUse" x="0" y="7" width="81" height="82"><path d="M3.415 36.435c.923-7.057 5.944-13.779 13.4-16.21L52.076 9.552c13.852-4.516 24.844.295 24.56 13.494l3.847 39.472C80.291 71.5 71.96 82.44 62.08 84.001l-41.417 4.205C6.818 90.394-.913 82.226.723 69.723l2.692-33.288Z" fill="url(#g)"/></mask><g filter="url(#h)" mask="url(#i)"><path d="M49.69 0C33.513 0 19.067 14.716 18.015 28.986c0 22.269 24.764 38.958 24.764 38.958S67.07 44.73 70.482 22.763C71.376 10.294 63.822 0 49.69 0Zm-8.448 36.247c-7.612 0-10.316-3.147-10.316-10.222 0-7.074 7.635-12.831 14.49-13.225 5.654.466 9.959 2.309 9.959 9.383 0 7.155-6.58 12.832-14.133 14.064Z" fill="#000"/><path d="M49.69 0C33.513 0 19.067 14.716 18.015 28.986c0 22.269 24.764 38.958 24.764 38.958S67.07 44.73 70.482 22.763C71.376 10.294 63.822 0 49.69 0Zm-8.448 36.247c-7.612 0-10.316-3.147-10.316-10.222 0-7.074 7.635-12.831 14.49-13.225 5.654.466 9.959 2.309 9.959 9.383 0 7.155-6.58 12.832-14.133 14.064Z" fill="url(#j)"/><path d="M43.12 66.2c-.167.169-.316.318-.445.446l-.365-.267a66.545 66.545 0 0 1-2.764-2.162 76.5 76.5 0 0 1-8.401-8.066c-6.123-6.88-12.116-16.373-12.13-27.129.515-6.826 4.242-13.836 9.854-19.154C34.486 4.545 41.905 1 49.689 1c6.809 0 11.94 2.47 15.273 6.357 3.335 3.89 4.947 9.291 4.526 15.293-1.677 10.715-8.464 21.827-14.932 30.336a141.555 141.555 0 0 1-8.661 10.309A119.72 119.72 0 0 1 43.12 66.2Zm-1.878-28.953h.08l.08-.013c7.846-1.28 14.973-7.234 14.973-15.05 0-3.758-1.156-6.316-3.241-7.956-2.022-1.591-4.76-2.187-7.636-2.425l-.07-.006-.07.005c-3.665.21-7.492 1.845-10.408 4.346-2.917 2.503-5.024 5.966-5.024 9.877 0 3.628.686 6.51 2.587 8.462 1.906 1.957 4.818 2.76 8.729 2.76Z" stroke="url(#k)" stroke-width="2"/></g><path d="m25.685 11.997-2.04 2.62-1.756 2.776 3.796-5.396Zm4.85-4.671-4.85 4.671-3.796 5.397 8.646-10.068Zm0 0-2.547 2.232-2.303 2.44 4.85-4.672ZM21.89 17.394l-1.448 2.908-1.114 3.016 2.562-5.924Z" fill="#F7E067"/><path d="m30.532 7.326-8.646 10.068-3.673 12.194L30.532 7.326Zm5.75-3.726-2.979 1.73-2.771 1.996 5.75-3.726ZM21.886 17.394l-2.562 5.925-1.111 6.269 3.673-12.194Zm-2.562 5.924-.752 3.103-.36 3.167 1.112-6.27ZM42.797 1.067 36.283 3.6l-5.75 3.727 12.264-6.259Zm0 0-3.344 1.1-3.17 1.432 6.514-2.532Z" fill="#F7E067"/><path d="m30.532 7.326-12.32 22.262 18.591-13.656-6.271-8.606Z" fill="#F7E067"/><path d="m18.213 29.588.235 4.7 1.07 4.586-1.305-9.286ZM30.532 7.326l6.271 8.606 1.366-.962-7.637-7.644Z" fill="#F7E067"/><path d="m30.532 7.326 7.637 7.644 1.461-.823-9.098-6.82Zm-12.32 22.262 15.191-10.09 1.005-1.287-16.195 11.377Zm0 0 14.331-8.725.86-1.365-15.19 10.09Z" fill="#F7E067"/><path d="m18.213 29.588 16.195-11.377 1.138-1.193-17.333 12.57Zm0 0 13.628-7.295.702-1.43-14.33 8.725Zm12.32-22.262 9.099 6.821 1.546-.666-10.645-6.155Z" fill="#F7E067"/><path d="m18.213 29.588 17.333-12.57 1.257-1.086-18.59 13.656Zm0 0 13.098-5.815.53-1.48-13.628 7.295ZM49.499.073 46.19.361l-3.393.707 6.702-.995Z" fill="#F7E067"/><path d="m30.532 7.326 10.644 6.155 1.62-.494-12.264-5.66Zm-12.32 22.262 12.756-4.299.343-1.516-13.098 5.815Z" fill="#F7E067"/><path d="m18.213 29.588 12.613-2.76.142-1.539-12.755 4.299Zm12.32-22.262 12.264 5.66 1.631-.294-13.895-5.366Z" fill="#F7E067"/><path d="m30.898 28.328-.072-1.5-12.613 2.76 12.685-1.26Zm-.365-21.002 13.895 5.366 1.579-.088-15.474-5.278Z" fill="#F7E067"/><path d="m31.178 29.733-.28-1.405-12.685 1.26 12.965.145Z" fill="#F7E067"/><path d="m30.532 7.326 15.473 5.277 1.512.113-16.985-5.39Zm-12.32 22.261 1.305 9.287 4.124 8.73-5.428-18.017ZM55.743.72 49.498.072l-6.702.995L55.742.72ZM65.77 6.665 42.798 1.067 30.533 7.326l35.238-.661Z" fill="#F7E067"/><path d="m30.533 7.326 16.986 5.39 1.43.305-18.416-5.695Zm.645 22.407-12.965-.145 5.428 18.016 7.537-17.871ZM55.742.721l-3.05-.525-3.194-.123 6.244.648Z" fill="#F7E067"/><path d="m19.518 38.874 1.775 4.45 2.349 4.28-4.124-8.73ZM65.77 6.665l-35.237.661 18.415 5.695 16.823-6.356Zm0 0L55.743.721l-12.946.347L65.77 6.665Zm-4.498-3.722-2.655-1.304-2.87-.918 5.525 2.222Zm4.5 3.722-16.823 6.356 1.332.49 15.49-6.846Zm0 0L61.27 2.943 55.744.72l10.028 5.944Zm.001 0-15.49 6.846 1.218.667 14.273-7.513Z" fill="#F7E067"/><path d="m23.643 47.604 2.778 4.063 3.053 3.79-5.831-7.853ZM65.77 6.665l-14.273 7.513 1.087.837 13.186-8.35Z" fill="#F7E067"/><path d="m65.77 6.665-13.186 8.35.938 1 12.248-9.35Zm.003 0L63.672 4.62l-2.4-1.679 4.501 3.723ZM31.658 31.032l-.476-1.3L42.8 67.945 31.658 31.032ZM65.773 6.665l-12.248 9.35.77 1.151L65.773 6.665Z" fill="#F7E067"/><path d="m32.316 32.215-.661-1.183 11.142 36.912-10.481-35.73ZM65.77 6.665 54.293 17.167l.584 1.295L65.771 6.665ZM31.179 29.733l-7.536 17.87 19.154 20.341L31.18 29.733Z" fill="#F7E067"/><path d="m33.148 33.269-.834-1.054 10.482 35.73-9.648-34.676ZM65.774 6.665 54.881 18.462l.38 1.43L65.774 6.665Z" fill="#F7E067"/><path d="m34.145 34.18-.995-.912 9.647 34.676-8.652-33.763ZM65.77 6.666 55.258 19.892l.157 1.554L65.772 6.665ZM23.643 47.604l5.831 7.852 6.222 6.464-12.053-14.316Zm31.772-26.158-.08 1.63 10.437-16.41-10.356 14.78ZM35.293 34.94l-1.145-.76 8.653 33.764-7.508-33.005Z" fill="#F7E067"/><path d="m55.335 23.077-.31 1.62L65.77 6.664 55.335 23.077Zm-.307 1.619-.526 1.588 11.27-19.619-10.744 18.031ZM36.57 35.53l-1.28-.59 7.507 33.005L36.57 35.53Z" fill="#F7E067"/><path d="m54.5 26.284-.727 1.537L65.771 6.665 54.5 26.285Z" fill="#F7E067"/><path d="m37.978 35.94-1.406-.41 6.226 32.414-4.82-32.004ZM68.9 11.793 67.53 9.06l-1.76-2.395 3.13 5.128Z" fill="#F7E067"/><path d="m39.492 36.155-1.515-.215 4.82 32.004-3.305-31.789Zm1.613.005-1.612-.005 3.305 31.79-1.693-31.784Zm-11.63 19.296 3.155 3.445 3.067 3.02-6.222-6.465Zm40.808-37.264-1.382-6.4-3.13-5.127 4.512 11.527Zm-27.485 17.75-1.693.219 1.693 31.783V35.943Z" fill="#F7E067"/><path d="m44.502 35.503-1.705.44v32.001l1.705-32.441Zm-20.86 12.1L35.697 61.92l7.101 6.024-19.154-20.34Z" fill="#F7E067"/><path d="m46.149 34.865-1.647.638-1.705 32.441 3.352-33.079Z" fill="#F7E067"/><path d="M53.773 27.82 42.797 67.945 65.77 6.665 53.773 27.821Zm-6.054 6.224-1.57.821-3.352 33.08 4.922-33.9Z" fill="#F7E067"/><path d="m49.194 33.059-1.475.986-4.922 33.9 6.397-34.886Z" fill="#F7E067"/><path d="m70.282 18.193-.448-3.349-.934-3.051 1.382 6.4ZM50.555 31.924l-1.361 1.135-6.397 34.886 7.758-36.02Z" fill="#F7E067"/><path d="m51.784 30.66-1.23 1.264-7.757 36.02 8.987-37.283Zm1.99-2.839-.912 1.466-10.065 38.658L53.773 27.82Zm-.912 1.466-1.078 1.374-8.987 37.284 10.065-38.658ZM63.67 40.565l6.613-22.373-4.511-11.527-2.102 33.9Z" fill="#F7E067"/><path d="m42.797 67.944 20.872-27.379 2.101-33.9-22.973 61.28Zm-7.1-6.024 2.773 2.507 2.258 1.9-5.03-4.406Zm32.966-32.738 1.327-5.619.293-5.37-1.62 10.99Z" fill="#F7E067"/><path d="m35.697 61.92 5.031 4.406 2.07 1.618-7.1-6.024ZM63.67 40.565l4.993-11.383 1.62-10.99-6.613 22.373Z" fill="#F7E067"/><path d="m63.67 40.565 2.82-5.666 2.173-5.717-4.993 11.383ZM40.725 66.326l1.517 1.2.553.418-2.07-1.618Zm2.07 1.618.554-.557 1.535-1.598-2.09 2.155Zm0 0 7.324-8.044 13.547-19.335-20.871 27.379Zm0 0 2.089-2.155 5.235-5.889-7.324 8.044Zm14.132-16.778 3.483-5.132 3.257-5.47-6.74 10.602ZM44.884 65.79l2.321-2.532L50.12 59.9l-5.235 5.89Zm5.235-5.889 6.808-8.733 6.74-10.602L50.118 59.9Zm0 0 3.308-4.07 3.5-4.663-6.808 8.733Z" fill="#F7E067"/><mask id="l" style="mask-type:alpha" maskUnits="userSpaceOnUse" x="30" y="4" width="48" height="68"><path d="m39.239 23.283 2.769 1.794.953-1.219-3.722-.575Zm.97-1.24 2.752 1.815 1.083-1.128-3.835-.688Zm-1.797 2.559 2.785 1.771.811-1.296-3.596-.475Zm2.897-3.709 2.735 1.837 1.2-1.022-3.935-.814Zm-3.568 5.092 2.8 1.749.656-1.36-3.456-.39Zm4.787-6.134 2.717 1.857 1.307-.902-4.024-.955Zm-5.29 7.566 2.813 1.727.49-1.41-3.302-.317Zm6.617-8.487 2.697 1.876 1.403-.767-4.1-1.11Zm-6.935 9.957 2.824 1.704.307-1.447-3.13-.257Zm3.289-6.845-.97 1.241 3.722.575-2.752-1.816Zm-.97 1.241-.827 1.319 3.596.475-2.77-1.794Zm2.07-2.39-1.1 1.15 3.835.687-2.735-1.837Zm3.967-2.748 2.679 1.894 1.486-.617-4.165-1.277Zm-6.864 6.457-.671 1.383 3.456.389-2.785-1.772Zm-1.613 5.778 2.833 1.682.112-1.47-2.945-.212Zm5.73-10.529-1.22 1.043 3.936.814-2.717-1.857Zm-4.788 6.134-.502 1.432 3.301.317-2.8-1.75Zm6.114-7.055-1.327.921 4.024.955-2.697-1.876Zm2.927-1.417 2.66 1.91 1.559-.45-4.219-1.46Zm-9.543 9.904-.319 1.47 3.131.257-2.812-1.727Zm-.352 4.42 2.84 1.662-.095-1.437-2.745-.225Zm8.39-13.692-1.422.785 4.1 1.109-2.679-1.894Z" fill="#DEBD0B"/><path d="m36.92 28.887-.12 1.493 2.945.212-2.824-1.705ZM48.361 17.05l2.64 1.924 1.573-.259-4.213-1.665ZM37.177 33.204l2.844 1.643-.294-1.348-2.55-.295Zm9.605-15.691-1.506.632 4.165 1.277-2.659-1.91ZM36.8 30.38l.088 1.457 2.745.225L36.8 30.38Z" fill="#DEBD0B"/><path d="m49.958 16.78 2.62 1.935 1.525-.06-4.145-1.876Zm-1.592.27-1.58.463 4.22 1.46-2.64-1.924ZM37.662 34.468l2.846 1.627-.482-1.25-2.364-.377Zm-.77-2.632.29 1.367 2.55.295-2.84-1.662Zm-.518-10.412 2.87 1.858.97-1.24-3.84-.618Zm.988-1.264 2.852 1.881 1.1-1.149-3.952-.732Zm-1.83 2.605 2.885 1.836.827-1.319-3.713-.517Z" fill="#DEBD0B"/><path d="m38.479 18.99 2.834 1.903 1.219-1.042-4.053-.86Zm-3.635 5.182 2.9 1.812.671-1.382-3.571-.43Z" fill="#DEBD0B"/><path d="m49.955 16.779-1.592.27 4.213 1.665-2.62-1.935Zm1.543-.069 2.603 1.944 1.463.13-4.066-2.074Zm-11.782 1.216 2.815 1.925 1.326-.922-4.142-1.002Zm-5.39 7.702 2.915 1.789.502-1.433-3.416-.356Zm3.994 9.993 2.845 1.613-.66-1.139-2.185-.474Zm-1.141-2.418.48 1.265 2.364.378-2.844-1.643Zm3.882-16.218 2.796 1.944 1.421-.784-4.217-1.16ZM33.996 27.12l2.926 1.767.32-1.47-3.246-.297Z" fill="#DEBD0B"/><path d="m51.496 16.71-1.542.07 4.145 1.874-2.603-1.944Zm-14.139 3.451-.987 1.264 3.84.618-2.853-1.881Zm-.987 1.264-.843 1.342 3.712.517-2.869-1.86Zm16.605-4.59 2.587 1.95 1.386.313-3.973-2.263Zm-14.5 2.156-1.118 1.17 3.953.733-2.834-1.903Zm4.026-2.808 2.776 1.962 1.506-.632-4.282-1.33ZM39.147 36.65l2.842 1.6-.825-1.017-2.017-.583Zm-3.62-13.884-.686 1.405 3.572.43-2.886-1.835Zm-1.664 5.869L36.8 30.38l.122-1.493-3.058-.251Z" fill="#DEBD0B"/><path d="m37.658 34.469.66 1.153 2.186.474-2.846-1.627Zm2.056-16.542-1.238 1.063 4.053.86-2.815-1.923Zm-4.873 6.245-.516 1.456 3.416.356-2.9-1.812Zm6.218-7.187-1.345.942 4.141 1.003-2.796-1.945Zm2.968-1.452 2.756 1.98 1.579-.464-4.335-1.516Zm8.948 1.302-1.479-.125 4.066 2.074-2.587-1.95Zm-18.65 8.793-.33 1.492 3.244.297-2.914-1.789Zm-.382 4.486 2.944 1.723-.088-1.458-2.856-.265Zm20.433-12.968 2.572 1.951 1.294.49-3.866-2.441ZM40.13 37.544l2.836 1.592-.978-.885-1.858-.707Zm2.37-21.362-1.442.803 4.218 1.16-2.776-1.963Zm-4.183 19.44.829 1.029 2.017.583-2.846-1.612Z" fill="#DEBD0B"/><path d="m33.995 27.12-.132 1.515 3.058.251-2.926-1.766Zm11.63-12.065 2.737 1.994 1.592-.27-4.328-1.724ZM34.23 31.5l2.948 1.703-.29-1.366-2.658-.337Z" fill="#DEBD0B"/><path d="m44.03 15.533-1.526.649 4.282 1.33-2.756-1.98Zm10.349 1.612-1.4-.31 3.972 2.262-2.572-1.952Zm1.306.49 2.56 1.95 1.185.658-3.745-2.608Zm-21.819 11 .08 1.479 2.857.265-2.937-1.744Zm7.396 9.654 2.828 1.584-1.12-.738-1.708-.846ZM39.15 36.65l.984.894 1.858.707-2.842-1.6Zm8.09-21.878 2.717 2.007 1.542-.07-4.259-1.937Zm-1.611.283-1.6.478 4.336 1.516-2.736-1.994ZM34.71 32.782l2.951 1.686-.48-1.265-2.47-.421Zm20.975-15.147-1.306-.49 3.866 2.44-2.56-1.95ZM33.946 30.114l.286 1.386 2.658.337-2.944-1.723Zm-.548-10.617 2.975 1.927.987-1.263-3.962-.664Zm1.005-1.287 2.957 1.95 1.119-1.17-4.076-.78Zm-1.865 2.653 2.992 1.903.843-1.342-3.835-.561Zm3.003-3.846 2.938 1.973 1.238-1.064-4.176-.91Zm-3.705 5.275 3.008 1.88.686-1.406-3.694-.474Zm8.298 15.252 1.128.745 1.708.846-2.836-1.591Zm7.106-22.772-1.611.283 4.328 1.724-2.717-2.007Zm1.56-.078 2.7 2.016 1.478.124-4.178-2.14Zm-12.002 1.237 2.919 1.995 1.346-.94-4.265-1.055Zm-5.491 7.841 3.021 1.856.516-1.456-3.537-.4ZM35.37 33.95l2.95 1.672-.66-1.153-2.29-.519Z" fill="#DEBD0B"/><path d="m34.23 31.5.478 1.282 2.47.422-2.949-1.704Zm22.65-13.204-1.197-.66 3.745 2.607-2.549-1.947ZM38.16 14.97l2.9 2.015 1.44-.803-4.34-1.212Zm-7.2 10.319 3.034 1.831.331-1.492-3.365-.34Zm17.839-10.595-1.56.078 4.259 1.938-2.7-2.016ZM34.4 18.21l-1.005 1.288 3.962.663-2.957-1.95Z" fill="#DEBD0B"/><path d="m33.397 19.498-.86 1.365 3.835.562-2.975-1.927Z" fill="#DEBD0B"/><path d="m50.295 14.814 2.683 2.021 1.4.31-4.083-2.331ZM35.54 17.017l-1.137 1.194 4.075.78-2.938-1.974Zm4.085-2.87 2.878 2.036 1.526-.65-4.404-1.385Zm-3.423 20.844 2.947 1.66-.828-1.03-2.12-.63Zm-3.664-14.128-.702 1.43 3.694.474-2.992-1.904Z" fill="#DEBD0B"/><path d="m30.818 26.827 3.045 1.809.132-1.516-3.177-.293Zm3.89 5.955.66 1.167 2.29.52-2.95-1.687Zm2.087-16.85-1.257 1.085 4.176.91-2.919-1.995Zm-4.959 6.361-.53 1.48 3.538.4-3.008-1.88Z" fill="#DEBD0B"/><path d="m38.16 14.97-1.365.962 4.264 1.054-2.899-2.016Zm3.008-1.49 2.858 2.053 1.6-.478-4.458-1.575Zm9.124 1.333-1.495-.118 4.178 2.14-2.683-2.022Zm-18.988 8.96-.343 1.516 3.365.339-3.022-1.855Zm-.413 4.554 3.053 1.787-.08-1.479-2.973-.308Zm20.817-13.206 2.668 2.024 1.307.49-3.975-2.514ZM37.19 35.894l2.942 1.65-.984-.893-1.958-.757Zm2.433-21.746-1.461.822 4.34 1.213-2.879-2.035ZM35.37 33.95l.831 1.041 2.12.63-2.95-1.671Zm-4.41-8.661-.142 1.538 3.177.293-3.035-1.831Zm11.828-12.303 2.838 2.069 1.611-.282-4.449-1.787Z" fill="#DEBD0B"/><path d="M31.172 29.733 34.23 31.5l-.285-1.386-2.774-.381ZM41.17 13.48l-1.547.667 4.405 1.386-2.858-2.053Zm10.539 1.641-1.415-.308 4.083 2.333-2.668-2.025Zm1.318.49 2.655 2.024 1.197.66-3.852-2.684ZM30.818 26.827l.072 1.5 2.973.309-3.045-1.809Zm7.508 9.819 2.933 1.643-1.128-.745-1.805-.898Zm-2.127-1.655.99.903 1.958.757-2.948-1.66Z" fill="#DEBD0B"/><path d="m44.423 12.692 2.819 2.081 1.56-.078-4.379-2.003Zm-1.63.295-1.62.494 4.457 1.574-2.837-2.068ZM31.65 31.032l3.062 1.75-.479-1.282-2.583-.468Zm39.084-19.88 2.346 2.12-2.05-1.989-.296-.13Zm-17.706 4.459-1.32-.49 3.975 2.514-2.655-2.024ZM30.89 28.327l.28 1.405 2.773.382-3.053-1.787Z" fill="#DEBD0B"/><path d="m37.191 35.893 1.137.752 1.805.899-2.942-1.65Zm7.23-23.202-1.63.295 4.448 1.786-2.818-2.081Zm24.243-3.546 2.067 2.007.297.13-2.364-2.137ZM46 12.604l2.8 2.09 1.495.12-4.296-2.21Zm-13.691 19.61 3.061 1.735-.66-1.167-2.401-.568Zm-1.137-2.481.476 1.299 2.583.468-3.06-1.767Zm23.064-13.458-1.207-.664 3.852 2.685-2.645-2.02ZM46 12.604l-1.578.087 4.379 2.004-2.8-2.091Z" fill="#DEBD0B"/><path d="m47.514 12.716 2.783 2.097 1.416.308-4.2-2.405ZM33.145 33.268l3.059 1.723-.831-1.042-2.228-.681Zm39.324-19.773 2.334 2.094-1.723-2.318-.61.224ZM31.65 31.032l.661 1.182 2.4.568-3.06-1.75Zm15.864-18.316-1.512-.112 4.295 2.21-2.783-2.098Z" fill="#DEBD0B"/><path d="m48.94 13.02 2.768 2.102 1.32.49-4.089-2.591Zm21.79-1.868 1.735 2.344.61-.224-2.346-2.12ZM34.135 34.181l3.053 1.713-.99-.903-2.063-.81Zm-1.83-1.966.835 1.053 2.227.682-3.061-1.735Z" fill="#DEBD0B"/><path d="m48.94 13.02-1.43-.304 4.198 2.405-2.769-2.1Zm1.332.49 2.756 2.101 1.207.664-3.963-2.764ZM35.28 34.94l3.045 1.706-1.137-.752-1.908-.955Zm38.543-18.78 2.327 2.06-1.352-2.63-.975.57ZM33.14 33.268l.995.913 2.063.81-3.058-1.723Z" fill="#DEBD0B"/><path d="m68.294 8.951 2.436 2.2-2.067-2.006-.37-.194Zm-18.022 4.56-1.332-.49 4.088 2.59-2.756-2.1Zm22.194-.016 1.359 2.664.975-.57-2.334-2.094ZM34.136 34.18l1.145.759 1.91.954-3.054-1.713ZM66.21 6.926l2.085 2.025.369.194-2.454-2.22Zm-14.72 7.252-1.218-.668 3.963 2.765-2.745-2.097Zm23.27 4.949 2.328 2.02-.936-2.927-1.392.907Zm-4.721-7.807 2.424 2.175-1.736-2.343-.688.168Zm3.783 4.84.935 2.967 1.392-.906-2.327-2.061ZM68.29 8.95l1.748 2.37.688-.17-2.436-2.2Zm6.932 13.425 2.334 1.972-.472-3.2-1.862 1.228Z" fill="#DEBD0B"/><path d="m74.762 19.127.465 3.249 1.862-1.229-2.327-2.02Zm-3.354-5.109 2.418 2.142-1.358-2.665-1.06.523ZM65.76 6.665l2.531 2.287-2.085-2.026-.446-.261Zm4.279 4.656 1.365 2.698 1.059-.523-2.424-2.175Zm4.946 16.253 2.36 1.89.212-5.115-2.572 3.225Z" fill="#DEBD0B"/><path d="m63.662 4.621 2.102 2.044.447.26-2.549-2.304Zm11.565 17.755-.238 5.197 2.573-3.225-2.335-1.972Zm-2.887-5.349 2.419 2.1-.936-2.968-1.483.868Z" fill="#DEBD0B"/><path d="m67.525 9.06 2.52 2.26-1.748-2.369-.772.109Zm6.225 23.938 2.399 1.798 1.201-5.333-3.6 3.535Zm-2.34-18.98.935 3.009 1.483-.867-2.418-2.142Z" fill="#DEBD0B"/><path d="m65.76 6.665 1.76 2.395.771-.108-2.531-2.287Zm7.037 13.66 2.427 2.05-.466-3.248-1.961 1.198Zm2.189 7.248L73.745 33l3.6-3.536-2.36-1.89Zm-3.298 10.935 2.45 1.7 2.01-5.412-4.46 3.712Z" fill="#DEBD0B"/><path d="m72.342 17.027.457 3.298 1.961-1.198-2.418-2.1Zm-3.45-5.235 2.515 2.226-1.365-2.698-1.15.472Zm.102 32.17 2.511 1.599 2.63-5.353-5.14 3.754ZM48.947 70.253l2.9 1.087.526-.523-3.426-.564Zm24.797-37.255-2.063 5.51 4.462-3.712-2.4-1.798Z" fill="#DEBD0B"/><path d="m49.484 69.72 2.892 1.098 1.45-1.502-4.342.404Zm1.478-1.533 2.865 1.129 2.194-2.381-5.059 1.252Zm16.56-59.126 1.37 2.732 1.15-.472-2.52-2.26Zm-1.644 40.16 2.577 1.5 3.05-5.16-5.627 3.66Zm6.659-23.613 2.454 1.965.238-5.197-2.692 3.232Zm-19.34 40.15 2.824 1.177 2.75-3.158-5.574 1.981Z" fill="#DEBD0B"/><path d="m62.539 54.152 2.644 1.405 3.272-4.837-5.916 3.432ZM56 62.536l2.771 1.241 3.119-3.83-5.89 2.59Zm3.18-3.906 2.71 1.318 3.293-4.391-6.004 3.073Zm12.503-20.12-2.69 5.453 5.14-3.754-2.45-1.7Z" fill="#DEBD0B"/><path d="m72.796 20.325-.265 5.283 2.692-3.232-2.427-2.05Zm-2.973-5.482 2.516 2.184-.935-3.008-1.58.824ZM49.482 69.72l-.535.534 3.426.564-2.892-1.097Zm1.477-1.532-1.478 1.532 4.343-.404-2.864-1.128Zm18.033-24.225-3.117 5.258 5.628-3.659-2.511-1.6Z" fill="#DEBD0B"/><path d="m53.196 65.758-2.235 2.43 5.058-1.253-2.823-1.177Zm2.803-3.221-2.803 3.221 5.574-1.98-2.771-1.241Zm9.878-13.316-3.34 4.931 5.917-3.431-2.577-1.5Zm5.373-18.092L73.745 33l1.241-5.425-3.736 3.555ZM59.178 58.631l-3.18 3.906 5.89-2.589-2.71-1.317Zm3.36-4.479-3.36 4.479 6.004-3.074-2.645-1.405Zm6.353-42.359.933 3.051 1.581-.825-2.514-2.226Z" fill="#DEBD0B"/><path d="m70.274 18.192 2.525 2.133-.457-3.298-2.068 1.165Zm2.26 7.416-1.283 5.52 3.737-3.554-2.454-1.966Zm-3.4 11.132 2.55 1.769 2.063-5.51-4.612 3.741Zm.69-21.897.448 3.348 2.068-1.164-2.516-2.184Zm-3.445 27.455 2.613 1.664 2.69-5.453-5.303 3.789Z" fill="#DEBD0B"/><path d="m45.932 69.123 3.018 1.13.534-.533-3.552-.597ZM71.25 31.129l-2.117 5.612 4.612-3.742-2.495-1.87ZM46.476 68.578l3.008 1.142 1.478-1.533-4.486.39Zm1.508-1.565 2.98 1.174 2.236-2.43-5.216 1.256ZM63.2 47.66l2.682 1.56 3.116-5.258L63.2 47.66Zm6.781-24.097 2.554 2.045.264-5.283-2.818 3.238ZM50.26 64.532l2.938 1.225L56 62.536l-5.741 1.997Z" fill="#DEBD0B"/><path d="m59.788 52.69 2.752 1.462 3.339-4.931-6.091 3.47Zm-6.67 8.556L56 62.536l3.179-3.906-6.063 2.616Zm3.242-3.987 2.82 1.371 3.36-4.478-6.18 3.107Zm12.775-20.518-2.753 5.557 5.303-3.789-2.55-1.768Zm1.14-18.549-.294 5.371 2.819-3.237-2.525-2.134Z" fill="#DEBD0B"/><path d="m46.476 68.577-.544.545 3.552.597-3.008-1.142Zm1.505-1.565-1.505 1.565 4.486-.39-2.98-1.175Zm18.4-24.714-3.185 5.361 5.798-3.697-2.613-1.664ZM50.26 64.533l-2.278 2.48 5.216-1.255-2.938-1.225Zm2.857-3.288-2.857 3.288L56 62.536l-2.883-1.29Zm10.08-13.585-3.41 5.03 6.092-3.47-2.682-1.56Zm5.457-18.478 2.598 1.946 1.283-5.52-3.88 3.574ZM56.36 57.259l-3.243 3.986 6.063-2.615-2.82-1.371Zm3.428-4.57-3.428 4.57 6.18-3.107-2.752-1.462ZM69.98 23.563l-1.328 5.62 3.88-3.574-2.552-2.046ZM66.478 34.9l2.655 1.84 2.117-5.611-4.772 3.77Z" fill="#DEBD0B"/><path d="m63.659 40.565 2.72 1.733 2.754-5.558-5.474 3.825ZM42.787 67.944l3.143 1.178.544-.545-3.687-.633Zm25.864-38.762-2.173 5.717 4.771-3.77-2.597-1.947Zm-25.31 38.205 3.133 1.19 1.506-1.565-4.638.375Zm1.535-1.597 3.104 1.222 2.277-2.479-5.381 1.257Zm15.526-19.756 2.793 1.625 3.185-5.361-5.978 3.736ZM47.197 63.258l3.06 1.275 2.857-3.288-5.917 2.013Z" fill="#DEBD0B"/><path d="m56.919 51.166 2.866 1.523 3.41-5.03-6.276 3.507ZM50.112 59.9l3.002 1.345 3.243-3.987-6.245 2.642Zm3.308-4.07 2.937 1.428 3.428-4.569-6.365 3.141Zm13.058-20.932-2.82 5.666 5.475-3.824-2.655-1.842ZM43.342 67.387l-.555.557 3.687.633-3.132-1.19Zm1.534-1.598-1.534 1.598 4.638-.375-3.104-1.223Zm18.783-25.225-3.257 5.47 5.978-3.737-2.721-1.733ZM47.197 63.257l-2.321 2.532 5.381-1.257-3.06-1.275Zm2.914-3.357-2.913 3.357 5.916-2.012-3.002-1.345Zm10.291-13.866-3.483 5.132 6.276-3.507-2.793-1.625Z" fill="#DEBD0B"/><path d="m53.421 55.83-3.308 4.07 6.246-2.641-2.938-1.428Zm3.5-4.663-3.5 4.664 6.366-3.141-2.866-1.523Z" fill="#DEBD0B"/></mask><g mask="url(#l)"><path d="m39.239 23.283 2.769 1.794.953-1.219-3.722-.575Zm.97-1.24 2.752 1.815 1.083-1.128-3.835-.688Zm-1.797 2.559 2.785 1.771.811-1.296-3.596-.475Zm2.897-3.709 2.735 1.837 1.2-1.022-3.935-.814Zm-3.568 5.092 2.8 1.749.656-1.36-3.456-.39Zm4.787-6.134 2.717 1.857 1.307-.902-4.024-.955Zm-5.29 7.566 2.813 1.727.49-1.41-3.302-.317Zm6.617-8.487 2.697 1.876 1.403-.767-4.1-1.11Zm-6.935 9.957 2.824 1.704.307-1.447-3.13-.257Zm3.289-6.845-.97 1.241 3.722.575-2.752-1.816Zm-.97 1.241-.827 1.319 3.596.475-2.77-1.794Zm2.07-2.39-1.1 1.15 3.835.687-2.735-1.837Zm3.967-2.748 2.679 1.894 1.486-.617-4.165-1.277Zm-6.864 6.457-.671 1.383 3.456.389-2.785-1.772Zm-1.613 5.778 2.833 1.682.112-1.47-2.945-.212Zm5.73-10.529-1.22 1.043 3.936.814-2.717-1.857Zm-4.788 6.134-.502 1.432 3.301.317-2.8-1.75Zm6.114-7.055-1.327.921 4.024.955-2.697-1.876Zm2.927-1.417 2.66 1.91 1.559-.45-4.219-1.46Zm-9.543 9.904-.319 1.47 3.131.257-2.812-1.727Zm-.352 4.42 2.84 1.662-.095-1.437-2.745-.225Zm8.39-13.692-1.422.785 4.1 1.109-2.679-1.894Z" fill="#DEBD0B"/><path d="m36.92 28.887-.12 1.493 2.945.212-2.824-1.705ZM48.361 17.05l2.64 1.924 1.573-.259-4.213-1.665ZM37.177 33.204l2.844 1.643-.294-1.348-2.55-.295Zm9.605-15.691-1.506.632 4.165 1.277-2.659-1.91ZM36.8 30.38l.088 1.457 2.745.225L36.8 30.38Z" fill="#DEBD0B"/><path d="m49.958 16.78 2.62 1.935 1.525-.06-4.145-1.876Zm-1.592.27-1.58.463 4.22 1.46-2.64-1.924ZM37.662 34.468l2.846 1.627-.482-1.25-2.364-.377Zm-.77-2.632.29 1.367 2.55.295-2.84-1.662Zm-.518-10.412 2.87 1.858.97-1.24-3.84-.618Zm.988-1.264 2.852 1.881 1.1-1.149-3.952-.732Zm-1.83 2.605 2.885 1.836.827-1.319-3.713-.517Z" fill="#DEBD0B"/><path d="m38.479 18.99 2.834 1.903 1.219-1.042-4.053-.86Zm-3.635 5.182 2.9 1.812.671-1.382-3.571-.43Z" fill="#DEBD0B"/><path d="m49.955 16.779-1.592.27 4.213 1.665-2.62-1.935Zm1.543-.069 2.603 1.944 1.463.13-4.066-2.074Zm-11.782 1.216 2.815 1.925 1.326-.922-4.142-1.002Zm-5.39 7.702 2.915 1.789.502-1.433-3.416-.356Zm3.994 9.993 2.845 1.613-.66-1.139-2.185-.474Zm-1.141-2.418.48 1.265 2.364.378-2.844-1.643Zm3.882-16.218 2.796 1.944 1.421-.784-4.217-1.16ZM33.996 27.12l2.926 1.767.32-1.47-3.246-.297Z" fill="#DEBD0B"/><path d="m51.496 16.71-1.542.07 4.145 1.874-2.603-1.944Zm-14.139 3.451-.987 1.264 3.84.618-2.853-1.881Zm-.987 1.264-.843 1.342 3.712.517-2.869-1.86Zm16.605-4.59 2.587 1.95 1.386.313-3.973-2.263Zm-14.5 2.156-1.118 1.17 3.953.733-2.834-1.903Zm4.026-2.808 2.776 1.962 1.506-.632-4.282-1.33ZM39.147 36.65l2.842 1.6-.825-1.017-2.017-.583Zm-3.62-13.884-.686 1.405 3.572.43-2.886-1.835Zm-1.664 5.869L36.8 30.38l.122-1.493-3.058-.251Z" fill="#DEBD0B"/><path d="m37.658 34.469.66 1.153 2.186.474-2.846-1.627Zm2.056-16.542-1.238 1.063 4.053.86-2.815-1.923Zm-4.873 6.245-.516 1.456 3.416.356-2.9-1.812Zm6.218-7.187-1.345.942 4.141 1.003-2.796-1.945Zm2.968-1.452 2.756 1.98 1.579-.464-4.335-1.516Zm8.948 1.302-1.479-.125 4.066 2.074-2.587-1.95Zm-18.65 8.793-.33 1.492 3.244.297-2.914-1.789Zm-.382 4.486 2.944 1.723-.088-1.458-2.856-.265Zm20.433-12.968 2.572 1.951 1.294.49-3.866-2.441ZM40.13 37.544l2.836 1.592-.978-.885-1.858-.707Zm2.37-21.362-1.442.803 4.218 1.16-2.776-1.963Zm-4.183 19.44.829 1.029 2.017.583-2.846-1.612Z" fill="#DEBD0B"/><path d="m33.995 27.12-.132 1.515 3.058.251-2.926-1.766Zm11.63-12.065 2.737 1.994 1.592-.27-4.328-1.724ZM34.23 31.5l2.948 1.703-.29-1.366-2.658-.337Z" fill="#DEBD0B"/><path d="m44.03 15.533-1.526.649 4.282 1.33-2.756-1.98Zm10.349 1.612-1.4-.31 3.972 2.262-2.572-1.952Zm1.306.49 2.56 1.95 1.185.658-3.745-2.608Zm-21.819 11 .08 1.479 2.857.265-2.937-1.744Zm7.396 9.654 2.828 1.584-1.12-.738-1.708-.846ZM39.15 36.65l.984.894 1.858.707-2.842-1.6Zm8.09-21.878 2.717 2.007 1.542-.07-4.259-1.937Zm-1.611.283-1.6.478 4.336 1.516-2.736-1.994ZM34.71 32.782l2.951 1.686-.48-1.265-2.47-.421Zm20.975-15.147-1.306-.49 3.866 2.44-2.56-1.95ZM33.946 30.114l.286 1.386 2.658.337-2.944-1.723Zm-.548-10.617 2.975 1.927.987-1.263-3.962-.664Zm1.005-1.287 2.957 1.95 1.119-1.17-4.076-.78Zm-1.865 2.653 2.992 1.903.843-1.342-3.835-.561Zm3.003-3.846 2.938 1.973 1.238-1.064-4.176-.91Zm-3.705 5.275 3.008 1.88.686-1.406-3.694-.474Zm8.298 15.252 1.128.745 1.708.846-2.836-1.591Zm7.106-22.772-1.611.283 4.328 1.724-2.717-2.007Zm1.56-.078 2.7 2.016 1.478.124-4.178-2.14Zm-12.002 1.237 2.919 1.995 1.346-.94-4.265-1.055Zm-5.491 7.841 3.021 1.856.516-1.456-3.537-.4ZM35.37 33.95l2.95 1.672-.66-1.153-2.29-.519Z" fill="#DEBD0B"/><path d="m34.23 31.5.478 1.282 2.47.422-2.949-1.704Zm22.65-13.204-1.197-.66 3.745 2.607-2.549-1.947ZM38.16 14.97l2.9 2.015 1.44-.803-4.34-1.212Zm-7.2 10.319 3.034 1.831.331-1.492-3.365-.34Zm17.839-10.595-1.56.078 4.259 1.938-2.7-2.016ZM34.4 18.21l-1.005 1.288 3.962.663-2.957-1.95Z" fill="#DEBD0B"/><path d="m33.397 19.498-.86 1.365 3.835.562-2.975-1.927Z" fill="#DEBD0B"/><path d="m50.295 14.814 2.683 2.021 1.4.31-4.083-2.331ZM35.54 17.017l-1.137 1.194 4.075.78-2.938-1.974Zm4.085-2.87 2.878 2.036 1.526-.65-4.404-1.385Zm-3.423 20.844 2.947 1.66-.828-1.03-2.12-.63Zm-3.664-14.128-.702 1.43 3.694.474-2.992-1.904Z" fill="#DEBD0B"/><path d="m30.818 26.827 3.045 1.809.132-1.516-3.177-.293Zm3.89 5.955.66 1.167 2.29.52-2.95-1.687Zm2.087-16.85-1.257 1.085 4.176.91-2.919-1.995Zm-4.959 6.361-.53 1.48 3.538.4-3.008-1.88Z" fill="#DEBD0B"/><path d="m38.16 14.97-1.365.962 4.264 1.054-2.899-2.016Zm3.008-1.49 2.858 2.053 1.6-.478-4.458-1.575Zm9.124 1.333-1.495-.118 4.178 2.14-2.683-2.022Zm-18.988 8.96-.343 1.516 3.365.339-3.022-1.855Zm-.413 4.554 3.053 1.787-.08-1.479-2.973-.308Zm20.817-13.206 2.668 2.024 1.307.49-3.975-2.514ZM37.19 35.894l2.942 1.65-.984-.893-1.958-.757Zm2.433-21.746-1.461.822 4.34 1.213-2.879-2.035ZM35.37 33.95l.831 1.041 2.12.63-2.95-1.671Zm-4.41-8.661-.142 1.538 3.177.293-3.035-1.831Zm11.828-12.303 2.838 2.069 1.611-.282-4.449-1.787Z" fill="#DEBD0B"/><path d="M31.172 29.733 34.23 31.5l-.285-1.386-2.774-.381ZM41.17 13.48l-1.547.667 4.405 1.386-2.858-2.053Zm10.539 1.641-1.415-.308 4.083 2.333-2.668-2.025Zm1.318.49 2.655 2.024 1.197.66-3.852-2.684ZM30.818 26.827l.072 1.5 2.973.309-3.045-1.809Zm7.508 9.819 2.933 1.643-1.128-.745-1.805-.898Zm-2.127-1.655.99.903 1.958.757-2.948-1.66Z" fill="#DEBD0B"/><path d="m44.423 12.692 2.819 2.081 1.56-.078-4.379-2.003Zm-1.63.295-1.62.494 4.457 1.574-2.837-2.068ZM31.65 31.032l3.062 1.75-.479-1.282-2.583-.468Zm39.084-19.88 2.346 2.12-2.05-1.989-.296-.13Zm-17.706 4.459-1.32-.49 3.975 2.514-2.655-2.024ZM30.89 28.327l.28 1.405 2.773.382-3.053-1.787Z" fill="#DEBD0B"/><path d="m37.191 35.893 1.137.752 1.805.899-2.942-1.65Zm7.23-23.202-1.63.295 4.448 1.786-2.818-2.081Zm24.243-3.546 2.067 2.007.297.13-2.364-2.137ZM46 12.604l2.8 2.09 1.495.12-4.296-2.21Zm-13.691 19.61 3.061 1.735-.66-1.167-2.401-.568Zm-1.137-2.481.476 1.299 2.583.468-3.06-1.767Zm23.064-13.458-1.207-.664 3.852 2.685-2.645-2.02ZM46 12.604l-1.578.087 4.379 2.004-2.8-2.091Z" fill="#DEBD0B"/><path d="m47.514 12.716 2.783 2.097 1.416.308-4.2-2.405ZM33.145 33.268l3.059 1.723-.831-1.042-2.228-.681Zm39.324-19.773 2.334 2.094-1.723-2.318-.61.224ZM31.65 31.032l.661 1.182 2.4.568-3.06-1.75Zm15.864-18.316-1.512-.112 4.295 2.21-2.783-2.098Z" fill="#DEBD0B"/><path d="m48.94 13.02 2.768 2.102 1.32.49-4.089-2.591Zm21.79-1.868 1.735 2.344.61-.224-2.346-2.12ZM34.135 34.181l3.053 1.713-.99-.903-2.063-.81Zm-1.83-1.966.835 1.053 2.227.682-3.061-1.735Z" fill="#DEBD0B"/><path d="m48.94 13.02-1.43-.304 4.198 2.405-2.769-2.1Zm1.332.49 2.756 2.101 1.207.664-3.963-2.764ZM35.28 34.94l3.045 1.706-1.137-.752-1.908-.955Zm38.543-18.78 2.327 2.06-1.352-2.63-.975.57ZM33.14 33.268l.995.913 2.063.81-3.058-1.723Z" fill="#DEBD0B"/><path d="m68.294 8.951 2.436 2.2-2.067-2.006-.37-.194Zm-18.022 4.56-1.332-.49 4.088 2.59-2.756-2.1Zm22.194-.016 1.359 2.664.975-.57-2.334-2.094ZM34.136 34.18l1.145.759 1.91.954-3.054-1.713ZM66.21 6.926l2.085 2.025.369.194-2.454-2.22Zm-14.72 7.252-1.218-.668 3.963 2.765-2.745-2.097Zm23.27 4.949 2.328 2.02-.936-2.927-1.392.907Zm-4.721-7.807 2.424 2.175-1.736-2.343-.688.168Zm3.783 4.84.935 2.967 1.392-.906-2.327-2.061ZM68.29 8.95l1.748 2.37.688-.17-2.436-2.2Zm6.932 13.425 2.334 1.972-.472-3.2-1.862 1.228Z" fill="#DEBD0B"/><path d="m74.762 19.127.465 3.249 1.862-1.229-2.327-2.02Zm-3.354-5.109 2.418 2.142-1.358-2.665-1.06.523ZM65.76 6.665l2.531 2.287-2.085-2.026-.446-.261Zm4.279 4.656 1.365 2.698 1.059-.523-2.424-2.175Zm4.946 16.253 2.36 1.89.212-5.115-2.572 3.225Z" fill="#DEBD0B"/><path d="m63.662 4.621 2.102 2.044.447.26-2.549-2.304Zm11.565 17.755-.238 5.197 2.573-3.225-2.335-1.972Zm-2.887-5.349 2.419 2.1-.936-2.968-1.483.868Z" fill="#DEBD0B"/><path d="m67.525 9.06 2.52 2.26-1.748-2.369-.772.109Zm6.225 23.938 2.399 1.798 1.201-5.333-3.6 3.535Zm-2.34-18.98.935 3.009 1.483-.867-2.418-2.142Z" fill="#DEBD0B"/><path d="m65.76 6.665 1.76 2.395.771-.108-2.531-2.287Zm7.037 13.66 2.427 2.05-.466-3.248-1.961 1.198Zm2.189 7.248L73.745 33l3.6-3.536-2.36-1.89Zm-3.298 10.935 2.45 1.7 2.01-5.412-4.46 3.712Z" fill="#DEBD0B"/><path d="m72.342 17.027.457 3.298 1.961-1.198-2.418-2.1Zm-3.45-5.235 2.515 2.226-1.365-2.698-1.15.472Zm.102 32.17 2.511 1.599 2.63-5.353-5.14 3.754ZM48.947 70.253l2.9 1.087.526-.523-3.426-.564Zm24.797-37.255-2.063 5.51 4.462-3.712-2.4-1.798Z" fill="#DEBD0B"/><path d="m49.484 69.72 2.892 1.098 1.45-1.502-4.342.404Zm1.478-1.533 2.865 1.129 2.194-2.381-5.059 1.252Zm16.56-59.126 1.37 2.732 1.15-.472-2.52-2.26Zm-1.644 40.16 2.577 1.5 3.05-5.16-5.627 3.66Zm6.659-23.613 2.454 1.965.238-5.197-2.692 3.232Zm-19.34 40.15 2.824 1.177 2.75-3.158-5.574 1.981Z" fill="#DEBD0B"/><path d="m62.539 54.152 2.644 1.405 3.272-4.837-5.916 3.432ZM56 62.536l2.771 1.241 3.119-3.83-5.89 2.59Zm3.18-3.906 2.71 1.318 3.293-4.391-6.004 3.073Zm12.503-20.12-2.69 5.453 5.14-3.754-2.45-1.7Z" fill="#DEBD0B"/><path d="m72.796 20.325-.265 5.283 2.692-3.232-2.427-2.05Zm-2.973-5.482 2.516 2.184-.935-3.008-1.58.824ZM49.482 69.72l-.535.534 3.426.564-2.892-1.097Zm1.477-1.532-1.478 1.532 4.343-.404-2.864-1.128Zm18.033-24.225-3.117 5.258 5.628-3.659-2.511-1.6Z" fill="#DEBD0B"/><path d="m53.196 65.758-2.235 2.43 5.058-1.253-2.823-1.177Zm2.803-3.221-2.803 3.221 5.574-1.98-2.771-1.241Zm9.878-13.316-3.34 4.931 5.917-3.431-2.577-1.5Zm5.373-18.092L73.745 33l1.241-5.425-3.736 3.555ZM59.178 58.631l-3.18 3.906 5.89-2.589-2.71-1.317Zm3.36-4.479-3.36 4.479 6.004-3.074-2.645-1.405Zm6.353-42.359.933 3.051 1.581-.825-2.514-2.226Z" fill="#DEBD0B"/><path d="m70.274 18.192 2.525 2.133-.457-3.298-2.068 1.165Zm2.26 7.416-1.283 5.52 3.737-3.554-2.454-1.966Zm-3.4 11.132 2.55 1.769 2.063-5.51-4.612 3.741Zm.69-21.897.448 3.348 2.068-1.164-2.516-2.184Zm-3.445 27.455 2.613 1.664 2.69-5.453-5.303 3.789Z" fill="#DEBD0B"/><path d="m45.932 69.123 3.018 1.13.534-.533-3.552-.597ZM71.25 31.129l-2.117 5.612 4.612-3.742-2.495-1.87ZM46.476 68.578l3.008 1.142 1.478-1.533-4.486.39Zm1.508-1.565 2.98 1.174 2.236-2.43-5.216 1.256ZM63.2 47.66l2.682 1.56 3.116-5.258L63.2 47.66Zm6.781-24.097 2.554 2.045.264-5.283-2.818 3.238ZM50.26 64.532l2.938 1.225L56 62.536l-5.741 1.997Z" fill="#DEBD0B"/><path d="m59.788 52.69 2.752 1.462 3.339-4.931-6.091 3.47Zm-6.67 8.556L56 62.536l3.179-3.906-6.063 2.616Zm3.242-3.987 2.82 1.371 3.36-4.478-6.18 3.107Zm12.775-20.518-2.753 5.557 5.303-3.789-2.55-1.768Zm1.14-18.549-.294 5.371 2.819-3.237-2.525-2.134Z" fill="#DEBD0B"/><path d="m46.476 68.577-.544.545 3.552.597-3.008-1.142Zm1.505-1.565-1.505 1.565 4.486-.39-2.98-1.175Zm18.4-24.714-3.185 5.361 5.798-3.697-2.613-1.664ZM50.26 64.533l-2.278 2.48 5.216-1.255-2.938-1.225Zm2.857-3.288-2.857 3.288L56 62.536l-2.883-1.29Zm10.08-13.585-3.41 5.03 6.092-3.47-2.682-1.56Zm5.457-18.478 2.598 1.946 1.283-5.52-3.88 3.574ZM56.36 57.259l-3.243 3.986 6.063-2.615-2.82-1.371Zm3.428-4.57-3.428 4.57 6.18-3.107-2.752-1.462ZM69.98 23.563l-1.328 5.62 3.88-3.574-2.552-2.046ZM66.478 34.9l2.655 1.84 2.117-5.611-4.772 3.77Z" fill="#DEBD0B"/><path d="m63.659 40.565 2.72 1.733 2.754-5.558-5.474 3.825ZM42.787 67.944l3.143 1.178.544-.545-3.687-.633Zm25.864-38.762-2.173 5.717 4.771-3.77-2.597-1.947Zm-25.31 38.205 3.133 1.19 1.506-1.565-4.638.375Zm1.535-1.597 3.104 1.222 2.277-2.479-5.381 1.257Zm15.526-19.756 2.793 1.625 3.185-5.361-5.978 3.736ZM47.197 63.258l3.06 1.275 2.857-3.288-5.917 2.013Z" fill="#DEBD0B"/><path d="m56.919 51.166 2.866 1.523 3.41-5.03-6.276 3.507ZM50.112 59.9l3.002 1.345 3.243-3.987-6.245 2.642Zm3.308-4.07 2.937 1.428 3.428-4.569-6.365 3.141Zm13.058-20.932-2.82 5.666 5.475-3.824-2.655-1.842ZM43.342 67.387l-.555.557 3.687.633-3.132-1.19Zm1.534-1.598-1.534 1.598 4.638-.375-3.104-1.223Zm18.783-25.225-3.257 5.47 5.978-3.737-2.721-1.733ZM47.197 63.257l-2.321 2.532 5.381-1.257-3.06-1.275Zm2.914-3.357-2.913 3.357 5.916-2.012-3.002-1.345Zm10.291-13.866-3.483 5.132 6.276-3.507-2.793-1.625Z" fill="#DEBD0B"/><path d="m53.421 55.83-3.308 4.07 6.246-2.641-2.938-1.428Zm3.5-4.663-3.5 4.664 6.366-3.141-2.866-1.523Z" fill="#DEBD0B"/><ellipse cx="61.997" cy="34.827" rx="61.997" ry="34.827" transform="matrix(-.18737 .98229 -.98865 -.15022 100.318 -16.035)" fill="url(#m)" fill-opacity=".5"/></g><path d="M43.12 66.2c-.167.169-.316.318-.445.446l-.365-.267a66.545 66.545 0 0 1-2.764-2.162 76.5 76.5 0 0 1-8.401-8.066c-6.123-6.88-12.116-16.373-12.13-27.129.515-6.826 4.242-13.836 9.854-19.154C34.486 4.545 41.905 1 49.689 1c6.809 0 11.94 2.47 15.273 6.357 3.335 3.89 4.947 9.291 4.526 15.293-1.677 10.715-8.464 21.827-14.932 30.336a141.555 141.555 0 0 1-8.661 10.309A119.72 119.72 0 0 1 43.12 66.2Zm-1.878-28.953h.08l.08-.013c7.846-1.28 14.973-7.234 14.973-15.05 0-3.758-1.156-6.316-3.241-7.956-2.022-1.591-4.76-2.187-7.636-2.425l-.07-.006-.07.005c-3.665.21-7.492 1.845-10.408 4.346-2.917 2.503-5.024 5.966-5.024 9.877 0 3.628.686 6.51 2.587 8.462 1.906 1.957 4.818 2.76 8.729 2.76Z" fill="#000"/><path d="M43.12 66.2c-.167.169-.316.318-.445.446l-.365-.267a66.545 66.545 0 0 1-2.764-2.162 76.5 76.5 0 0 1-8.401-8.066c-6.123-6.88-12.116-16.373-12.13-27.129.515-6.826 4.242-13.836 9.854-19.154C34.486 4.545 41.905 1 49.689 1c6.809 0 11.94 2.47 15.273 6.357 3.335 3.89 4.947 9.291 4.526 15.293-1.677 10.715-8.464 21.827-14.932 30.336a141.555 141.555 0 0 1-8.661 10.309A119.72 119.72 0 0 1 43.12 66.2Zm-1.878-28.953h.08l.08-.013c7.846-1.28 14.973-7.234 14.973-15.05 0-3.758-1.156-6.316-3.241-7.956-2.022-1.591-4.76-2.187-7.636-2.425l-.07-.006-.07.005c-3.665.21-7.492 1.845-10.408 4.346-2.917 2.503-5.024 5.966-5.024 9.877 0 3.628.686 6.51 2.587 8.462 1.906 1.957 4.818 2.76 8.729 2.76Z" fill="url(#n)"/><path d="M43.12 66.2c-.167.169-.316.318-.445.446l-.365-.267a66.545 66.545 0 0 1-2.764-2.162 76.5 76.5 0 0 1-8.401-8.066c-6.123-6.88-12.116-16.373-12.13-27.129.515-6.826 4.242-13.836 9.854-19.154C34.486 4.545 41.905 1 49.689 1c6.809 0 11.94 2.47 15.273 6.357 3.335 3.89 4.947 9.291 4.526 15.293-1.677 10.715-8.464 21.827-14.932 30.336a141.555 141.555 0 0 1-8.661 10.309A119.72 119.72 0 0 1 43.12 66.2Zm-1.878-28.953h.08l.08-.013c7.846-1.28 14.973-7.234 14.973-15.05 0-3.758-1.156-6.316-3.241-7.956-2.022-1.591-4.76-2.187-7.636-2.425l-.07-.006-.07.005c-3.665.21-7.492 1.845-10.408 4.346-2.917 2.503-5.024 5.966-5.024 9.877 0 3.628.686 6.51 2.587 8.462 1.906 1.957 4.818 2.76 8.729 2.76Z" stroke="url(#o)" stroke-width="2"/><defs><linearGradient id="d" x1="68.407" y1="82.93" x2="25.899" y2="19.315" gradientUnits="userSpaceOnUse"><stop stop-color="#DCECF3"/><stop offset="1" stop-color="#fff"/></linearGradient><linearGradient id="e" x1="65.007" y1="79.206" x2="27.65" y2="23.483" gradientUnits="userSpaceOnUse"><stop stop-color="#DCECF3"/><stop offset="1" stop-color="#fff"/></linearGradient><linearGradient id="f" x1="65.933" y1="78.516" x2="21.351" y2="20.996" gradientUnits="userSpaceOnUse"><stop stop-color="#DCB900"/><stop offset="1" stop-color="#FFF6C7"/></linearGradient><linearGradient id="g" x1="68.24" y1="80.061" x2="25.957" y2="16.991" gradientUnits="userSpaceOnUse"><stop stop-color="#DCECF3"/><stop offset="1" stop-color="#fff"/></linearGradient><linearGradient id="j" x1="38.472" y1="13.107" x2="67.547" y2="86.526" gradientUnits="userSpaceOnUse"><stop stop-color="#FFEF99"/><stop offset="1" stop-color="#F0D33D"/></linearGradient><linearGradient id="k" x1="75.394" y1="66.472" x2="1.727" y2="-14.529" gradientUnits="userSpaceOnUse"><stop stop-color="#FFF5BF"/><stop offset="1" stop-color="#DFBC00"/></linearGradient><linearGradient id="n" x1="38.472" y1="13.107" x2="67.547" y2="86.526" gradientUnits="userSpaceOnUse"><stop stop-color="#FFEF99"/><stop offset="1" stop-color="#F0D33D"/></linearGradient><linearGradient id="o" x1="75.394" y1="66.472" x2="1.727" y2="-14.529" gradientUnits="userSpaceOnUse"><stop stop-color="#FFF5BF"/><stop offset="1" stop-color="#DFBC00"/></linearGradient><radialGradient id="b" cx="0" cy="0" r="1" gradientUnits="userSpaceOnUse" gradientTransform="scale(45.8782 13.7133) rotate(90 0 1)"><stop stop-color="#fff"/><stop offset="1" stop-color="#CCCEF1" stop-opacity="0"/></radialGradient><radialGradient id="c" cx="0" cy="0" r="1" gradientUnits="userSpaceOnUse" gradientTransform="matrix(0 62.7515 -15.5455 0 90.66 37.838)"><stop stop-color="#fff"/><stop offset="1" stop-color="#CCCEF1" stop-opacity="0"/></radialGradient><radialGradient id="m" cx="0" cy="0" r="1" gradientUnits="userSpaceOnUse" gradientTransform="matrix(0 34.8272 -61.9967 0 61.997 34.827)"><stop stop-color="#FFFDEB"/><stop offset="1" stop-color="#FEFFBC" stop-opacity="0"/></radialGradient><filter id="h" x="15.016" y="-3" width="72.537" height="87.944" filterUnits="userSpaceOnUse" color-interpolation-filters="sRGB"><feFlood flood-opacity="0" result="BackgroundImageFix"/><feColorMatrix in="SourceAlpha" values="0 0 0 0 0 0 0 0 0 0 0 0 0 0 0 0 0 0 127 0" result="hardAlpha"/><feOffset dx="7" dy="7"/><feGaussianBlur stdDeviation="5"/><feColorMatrix values="0 0 0 0 0.487049 0 0 0 0 0.544761 0 0 0 0 0.691667 0 0 0 0.58 0"/><feBlend in2="BackgroundImageFix" result="effect1_dropShadow_1150_656202"/><feColorMatrix in="SourceAlpha" values="0 0 0 0 0 0 0 0 0 0 0 0 0 0 0 0 0 0 127 0" result="hardAlpha"/><feOffset dx="7" dy="7"/><feGaussianBlur stdDeviation="5"/><feColorMatrix values="0 0 0 0 0.487049 0 0 0 0 0.544761 0 0 0 0 0.691667 0 0 0 0.58 0"/><feBlend in2="effect1_dropShadow_1150_656202" result="effect2_dropShadow_1150_656202"/><feBlend in="SourceGraphic" in2="effect2_dropShadow_1150_656202" result="shape"/></filter></defs></svg>