<svg width="88" height="94" viewBox="0 0 88 94" fill="none" xmlns="http://www.w3.org/2000/svg">
<path d="M9.64627 27.4648L8.16039 29.057L6.83192 30.7636L9.64627 27.4648ZM6.83192 30.7636L5.6757 32.5676L4.70748 34.4524L6.83192 30.7636ZM9.64627 27.4648L6.83192 30.7636L4.70748 34.4524L9.64627 27.4648ZM13.0347 24.6959L11.2755 26.0049L9.64627 27.4648L13.0347 24.6959ZM4.70748 34.4524L3.94417 36.4021L3.40392 38.4007L4.70748 34.4524ZM16.8921 22.6111L13.0347 24.6959L9.64627 27.4648L16.8921 22.6111ZM16.8921 22.6111L14.9111 23.5577L13.0347 24.6959L16.8921 22.6111ZM9.64627 27.4648L4.70748 34.4524L0.267578 74.7198L9.64627 27.4648ZM4.70748 34.4524L3.40392 38.4007L0.267578 74.7198L4.70748 34.4524ZM3.40392 38.4007L3.10639 40.4326L0.267578 74.7198L3.40392 38.4007ZM60.1066 10.4307L16.8921 22.6111L9.64627 27.4648L60.1066 10.4307ZM55.0442 11.3477L18.9656 21.8786L16.8921 22.6111L55.0442 11.3477ZM9.64627 27.4648L0.267578 74.7198L1.71281 83.4472L9.64627 27.4648ZM60.1066 10.4307L55.0442 11.3477L16.8921 22.6111L60.1066 10.4307Z" fill="#C7CDDC"/>
<path d="M20.3223 93.0801L23.1268 93.7003L25.2874 94.0002L20.3223 93.0801Z" fill="#C7CDDC"/>
<path d="M0.268447 74.7207L0.214844 77.0819L0.445283 79.3353L0.268447 74.7207Z" fill="#C7CDDC"/>
<path d="M22.5074 93.3817L25.2874 94.0002L27.5802 93.9765L22.5074 93.3817ZM22.5074 93.3817L20.3223 93.0801L25.2874 94.0002L22.5074 93.3817Z" fill="#C7CDDC"/>
<path d="M9.64822 27.4648L1.71477 83.4473L15.8349 91.3148L9.64822 27.4648ZM0.269531 74.7199L0.446368 79.3344L1.71477 83.4473L0.269531 74.7199Z" fill="#C7CDDC"/>
<path d="M24.8295 93.3535L22.5078 93.3821L27.5805 93.9768L24.8295 93.3535Z" fill="#C7CDDC"/>
<path d="M75.1656 17.7806L60.1056 10.4307L9.64521 27.4648L75.1656 17.7806ZM0.443359 79.3344L0.946595 81.4627L1.71176 83.4472L0.443359 79.3344Z" fill="#C7CDDC"/>
<path d="M80.4595 24.5471L82.0766 26.614L81.0017 24.8816L80.4595 24.5471ZM17.3984 92.4342L20.3222 93.0807L22.5074 93.3824L17.3984 92.4342ZM79.3734 22.793L80.4595 24.5471L81.0017 24.8816L79.3734 22.793ZM81.2428 26.5145L82.8543 28.5537L82.0766 26.614L81.2428 26.5145ZM19.6083 92.7374L22.5074 93.3824L24.8291 93.3538L19.6083 92.7374Z" fill="#C7CDDC"/>
<path d="M60.1074 10.4316L57.6025 10.7443L55.0449 11.3486L60.1074 10.4316Z" fill="#C7CDDC"/>
<path d="M19.6083 92.7372L17.3984 92.434L22.5074 93.3822L19.6083 92.7372ZM80.4595 24.5469L81.2428 26.5143L82.0766 26.6138L80.4595 24.5469ZM81.6893 28.6823L83.3011 30.6881L82.8543 28.5535L81.6893 28.6823Z" fill="#C7CDDC"/>
<path d="M1.71484 83.4478L2.73112 85.2677L3.98741 86.9006L1.71484 83.4478ZM15.8349 91.3154L75.1687 17.7812L9.6483 27.4654L15.8349 91.3154Z" fill="#C7CDDC"/>
<path d="M21.9613 92.7032L19.6102 92.737L24.831 93.3534L21.9613 92.7032ZM81.2447 26.514L81.6912 28.6821L82.8562 28.5533L81.2447 26.514ZM78.7737 22.3896L80.4614 24.5466L79.3753 22.7925L78.7737 22.3896ZM14.3496 91.7591L17.4004 92.4337L19.6102 92.737L14.3496 91.7591Z" fill="#C7CDDC"/>
<path d="M1.71484 83.4475L3.98741 86.9003L7.17251 89.5066L1.71484 83.4475ZM64.8692 10.6585L62.5385 10.4043L60.1086 10.431L64.8692 10.6585Z" fill="#C7CDDC"/>
<path d="M77.6763 20.6143L78.7734 22.3904L79.375 22.7933L77.6763 20.6143ZM79.5622 24.386L81.2444 26.5148L80.4611 24.5474L79.5622 24.386ZM24.8307 93.3541L27.5817 93.9774L68.0458 90.6289L24.8307 93.3541ZM16.584 92.0645L19.6099 92.7377L21.961 92.7039L16.584 92.0645Z" fill="#C7CDDC"/>
<path d="M3.98438 86.9004L5.46902 88.322L7.16947 89.5067L3.98438 86.9004Z" fill="#C7CDDC"/>
<path d="M16.5843 92.0638L14.3496 91.7591L19.6102 92.737L16.5843 92.0638ZM78.7737 22.3896L79.5626 24.3852L80.4614 24.5466L78.7737 22.3896Z" fill="#C7CDDC"/>
<path d="M69.1231 11.9905L64.866 10.6592L60.1055 10.4316L69.1231 11.9905Z" fill="#C7CDDC"/>
<path d="M80.0079 26.5883L81.6909 28.6827L81.2444 26.5146L80.0079 26.5883ZM18.9648 92.0249L16.584 92.0644L21.961 92.7038L18.9648 92.0249Z" fill="#C7CDDC"/>
<path d="M1.71484 83.4473L7.17251 89.5063L15.8349 91.3148L1.71484 83.4473Z" fill="#C7CDDC"/>
<path d="M79.5625 24.3857L80.0081 26.5882L81.2447 26.5145L79.5625 24.3857Z" fill="#C7CDDC"/>
<path d="M69.1281 11.9905L67.0764 11.1894L64.8711 10.6592L69.1281 11.9905Z" fill="#C7CDDC"/>
<path d="M77.0095 20.1373L78.7724 22.3904L77.6753 20.6143L77.0095 20.1373ZM11.1621 91.0553L14.3483 91.7599L16.583 92.0646L11.1621 91.0553ZM75.9015 18.3389L77.0095 20.1373L77.6753 20.6143L75.9015 18.3389Z" fill="#C7CDDC"/>
<path d="M7.17188 89.5068L9.07442 90.4272L11.1639 91.055L7.17188 89.5068Z" fill="#C7CDDC"/>
<path d="M77.8066 22.1611L79.5643 24.3855L78.7755 22.3899L77.8066 22.1611Z" fill="#C7CDDC"/>
<path d="M75.1655 17.7816L69.1231 11.9905L60.1055 10.4316L75.1655 17.7816Z" fill="#C7CDDC"/>
<path d="M21.96 92.7034L24.8297 93.3536L65.9279 89.8538L21.96 92.7034ZM13.4217 91.3606L16.583 92.064L18.9638 92.0245L13.4217 91.3606ZM13.4217 91.3606L11.1621 91.0547L16.583 92.064L13.4217 91.3606ZM77.0095 20.1367L77.8035 22.1611L78.7724 22.3898L77.0095 20.1367ZM81.6899 28.6823L86.2187 67.134L83.3017 30.6881L81.6899 28.6823Z" fill="#C7CDDC"/>
<path d="M7.17188 89.5068L11.1639 91.055L15.8343 91.3153L7.17188 89.5068Z" fill="#C7CDDC"/>
<path d="M78.248 24.3992L80.0071 26.5882L79.5614 24.3857L78.248 24.3992Z" fill="#C7CDDC"/>
<path d="M72.6493 14.3827L70.997 13.0568L69.1289 11.9902L72.6493 14.3827Z" fill="#C7CDDC"/>
<path d="M15.8347 91.315L13.4238 91.3607L18.966 92.0245L15.8347 91.315ZM77.8057 22.1611L78.25 24.3989L79.5634 24.3855L77.8057 22.1611Z" fill="#C7CDDC"/>
<path d="M11.1621 91.0547L13.4217 91.3606L15.8325 91.315L11.1621 91.0547Z" fill="#C7CDDC"/>
<path d="M75.168 17.7812L77.0112 20.1371L75.9031 18.3386L75.168 17.7812Z" fill="#C7CDDC"/>
<path d="M75.1714 17.7814L72.6493 14.3827L69.1289 11.9902L75.1714 17.7814Z" fill="#C7CDDC"/>
<path d="M74.0484 15.96L75.1674 17.7809L75.9025 18.3383L74.0484 15.96ZM75.9662 19.8346L77.8046 22.1611L77.0106 20.1367L75.9662 19.8346ZM65.929 89.8538L24.8308 93.3536L68.0459 90.6284L65.929 89.8538ZM18.9648 92.0245L21.9611 92.7034L63.7099 89.0418L18.9648 92.0245Z" fill="#C7CDDC"/>
<path d="M75.1685 17.7815L74.0496 15.9606L72.6465 14.3828L75.1685 17.7815Z" fill="#C7CDDC"/>
<path d="M75.168 17.7812L75.9668 19.835L77.0112 20.1371L75.168 17.7812ZM80.0086 26.5882L84.4763 65.7625L81.6916 28.6827L80.0086 26.5882ZM86.2204 67.1343L87.8836 68.4425L83.3034 30.6885L86.2204 67.1343ZM76.4092 22.109L78.2495 24.3992L77.8052 22.1615L76.4092 22.109ZM75.9668 19.835L76.4092 22.109L77.8052 22.1615L75.9668 19.835Z" fill="#C7CDDC"/>
<path d="M76.4092 22.109L75.9668 19.835L75.168 17.7812L76.4092 22.109Z" fill="#C7CDDC"/>
<path d="M63.7123 89.0425L21.9634 92.7041L65.9314 89.8545L63.7123 89.0425ZM15.8359 91.3157L18.9672 92.0252L61.3834 88.1904L15.8359 91.3157ZM78.2513 24.3996L82.647 64.3227L80.0103 26.5886L78.2513 24.3996ZM84.4781 65.7629L86.2222 67.1347L81.6933 28.683L84.4781 65.7629ZM65.9314 89.8545L68.0483 90.6291L70.9204 90.2041L65.9314 89.8545ZM68.8568 89.414L70.9204 90.2041L73.6816 89.4257L68.8568 89.414ZM86.3314 69.8677L88.0015 71.1195L87.8853 68.4428L86.3314 69.8677ZM68.8568 89.414L65.9314 89.8545L70.9204 90.2041L68.8568 89.414ZM71.6716 88.6124L73.6816 89.4257L76.2969 88.317L71.6716 88.6124ZM86.0264 72.5695L87.7112 73.7637L88.0015 71.1195L86.0264 72.5695ZM86.2222 67.1347L86.3314 69.8677L87.8853 68.4428L86.2222 67.1347ZM61.3834 88.1904L18.9672 92.0252L63.7123 89.0425L61.3834 88.1904ZM71.6716 88.6124L68.8568 89.414L73.6816 89.4257L71.6716 88.6124ZM74.34 87.4731L76.2969 88.317L78.7314 86.9039L74.34 87.4731ZM85.3271 75.2023L87.034 76.3385L87.7112 73.7637L85.3271 75.2023ZM76.826 86.0229L78.7314 86.9039L80.9509 85.2147L76.826 86.0229ZM84.2567 77.7278L85.9927 78.807L87.034 76.3385L84.2567 77.7278ZM86.3314 69.8677L86.0264 72.5695L88.0015 71.1195L86.3314 69.8677ZM74.34 87.4731L71.6716 88.6124L76.2969 88.317L74.34 87.4731ZM76.4109 22.1094L80.7222 62.8088L78.2513 24.3996L76.4109 22.1094ZM79.0942 84.2907L80.9509 85.2147L82.922 83.2801L79.0942 84.2907ZM82.8416 80.1087L84.6126 81.1327L85.9927 78.807L82.8416 80.1087ZM81.1104 82.308L82.922 83.2801L84.6126 81.1327L81.1104 82.308ZM82.647 64.3227L84.4781 65.7629L80.0103 26.5886L82.647 64.3227Z" fill="#C7CDDC"/>
<path d="M15.8359 91.3154L76.9745 76.7158L75.1697 17.7812L15.8359 91.3154Z" fill="#C7CDDC"/>
<path d="M63.7129 89.0423L65.932 89.8543L68.8574 89.4138L63.7129 89.0423ZM86.027 72.5693L85.3277 75.2021L87.7118 73.7635L86.027 72.5693ZM76.8266 86.0227L74.3406 87.4729L78.7321 86.9037L76.8266 86.0227Z" fill="#C7CDDC"/>
<path d="M80.8034 65.7251L76.4092 22.109L75.168 17.7812L80.8034 65.7251Z" fill="#C7CDDC"/>
<path d="M85.3271 75.2021L84.2567 77.7277L87.034 76.3383L85.3271 75.2021ZM79.0942 84.2905L76.8259 86.0227L80.9509 85.2145L79.0942 84.2905ZM84.2567 77.7277L82.8416 80.1085L85.9927 78.8068L84.2567 77.7277ZM81.1104 82.3079L79.0942 84.2905L82.922 83.2799L81.1104 82.3079ZM66.6928 88.5854L68.8568 89.4138L71.6716 88.6122L66.6928 88.5854ZM82.8416 80.1085L81.1104 82.3079L84.6126 81.1326L82.8416 80.1085ZM84.5795 68.5544L86.3314 69.8675L86.2222 67.1345L84.5795 68.5544ZM66.6928 88.5854L63.7123 89.0424L68.8568 89.4138L66.6928 88.5854ZM69.5634 87.7591L71.6716 88.6122L74.34 87.473L69.5634 87.7591ZM84.2586 71.3165L86.0264 72.5694L86.3314 69.8675L84.2586 71.3165ZM84.4781 65.7627L84.5795 68.5544L86.2222 67.1345L84.4781 65.7627ZM58.9365 87.2949L15.8359 91.3156L61.3834 88.1903L58.9365 87.2949ZM69.5634 87.7591L66.6928 88.5854L71.6716 88.6122L69.5634 87.7591ZM72.2869 86.5876L74.34 87.473L76.8259 86.0227L72.2869 86.5876ZM83.5358 74.0098L85.3271 75.2021L86.0264 72.5694L83.5358 74.0098ZM74.8264 85.0983L76.8259 86.0227L79.0942 84.2905L74.8264 85.0983ZM82.4349 76.5951L84.2567 77.7277L85.3271 75.2021L82.4349 76.5951ZM84.5795 68.5544L84.2586 71.3165L86.3314 69.8675L84.5795 68.5544ZM72.2869 86.5876L69.5634 87.7591L74.34 87.473L72.2869 86.5876ZM77.1456 83.3208L79.0942 84.2905L81.1104 82.3079L77.1456 83.3208ZM80.9828 79.0337L82.8416 80.1085L84.2567 77.7277L80.9828 79.0337ZM79.209 81.2878L81.1104 82.3079L82.8416 80.1085L79.209 81.2878ZM80.7221 62.8086L82.6469 64.3225L78.2513 24.3994L80.7221 62.8086ZM61.3834 88.1903L63.7123 89.0424L66.6928 88.5854L61.3834 88.1903ZM84.2586 71.3165L83.5358 74.0098L86.0264 72.5694L84.2586 71.3165ZM74.8264 85.0983L72.2869 86.5876L76.8259 86.0227L74.8264 85.0983Z" fill="#C7CDDC"/>
<path d="M15.8359 91.315L58.9365 87.2944L62.0333 86.8008L15.8359 91.315Z" fill="#C7CDDC"/>
<path d="M83.5366 74.0097L82.4357 76.595L85.3278 75.2021L83.5366 74.0097ZM77.1464 83.3208L74.8272 85.0982L79.095 84.2905L77.1464 83.3208ZM82.4357 76.595L80.9835 79.0336L84.2575 77.7276L82.4357 76.595ZM79.2098 81.2877L77.1464 83.3208L81.1111 82.3078L79.2098 81.2877ZM64.4219 87.7155L66.6936 88.5853L69.5642 87.759L64.4219 87.7155ZM80.9835 79.0336L79.2098 81.2877L82.8423 80.1084L80.9835 79.0336ZM82.7405 67.1753L84.5803 68.5543L84.4788 65.7627L82.7405 67.1753Z" fill="#C7CDDC"/>
<path d="M15.8359 91.3146L62.0333 86.8004L67.8624 84.6787L15.8359 91.3146Z" fill="#C7CDDC"/>
<path d="M64.4185 87.7153L61.3809 88.19L66.6903 88.5851L64.4185 87.7153ZM67.3469 86.8629L69.5608 87.7588L72.2843 86.5874L67.3469 86.8629ZM82.3991 70.0001L84.2561 71.3162L84.577 68.5542L82.3991 70.0001ZM82.6444 64.3223L82.7371 67.1751L84.4755 65.7625L82.6444 64.3223ZM67.3469 86.8629L64.4185 87.7153L69.5608 87.7588L67.3469 86.8629ZM70.1278 85.6574L72.2843 86.5874L74.8239 85.098L70.1278 85.6574Z" fill="#C7CDDC"/>
<path d="M80.8051 65.7251L80.7221 62.8084L76.4109 22.109L80.8051 65.7251ZM15.8359 91.3154L67.8624 84.6795L76.9745 76.7158L15.8359 91.3154ZM76.9745 76.7158L80.8051 65.7251L75.1697 17.7812L76.9745 76.7158Z" fill="#C7CDDC"/>
<path d="M81.649 72.7571L83.531 74.0098L84.2538 71.3165L81.649 72.7571ZM72.7209 84.127L74.8216 85.0983L77.1407 83.3208L72.7209 84.127ZM80.5158 75.4051L82.43 76.5951L83.531 74.0098L80.5158 75.4051ZM82.7349 67.1754L82.3969 70.0004L84.5747 68.5544L82.7349 67.1754ZM70.1255 85.6577L67.3446 86.8631L72.2821 86.5876L70.1255 85.6577ZM75.0933 82.3019L77.1407 83.3208L79.2041 81.2878L75.0933 82.3019ZM79.0247 77.9043L80.9779 79.0337L82.43 76.5951L79.0247 77.9043ZM77.2062 80.2158L79.2041 81.2878L80.9779 79.0337L77.2062 80.2158ZM58.9316 87.2949L61.3786 88.1903L64.4162 87.7156L58.9316 87.2949ZM82.3969 70.0004L81.649 72.7571L84.2538 71.3165L82.3969 70.0004ZM72.7209 84.127L70.1255 85.6577L74.8216 85.0983L72.7209 84.127ZM81.649 72.7571L80.5158 75.4051L83.531 74.0098L81.649 72.7571ZM75.0933 82.3019L72.7209 84.127L77.1407 83.3208L75.0933 82.3019ZM80.5158 75.4051L79.0247 77.9043L82.43 76.5951L80.5158 75.4051ZM77.2062 80.2158L75.0933 82.3019L79.2041 81.2878L77.2062 80.2158ZM62.0284 86.8013L64.4162 87.7156L67.3446 86.8631L62.0284 86.8013ZM79.0247 77.9043L77.2062 80.2158L80.9779 79.0337L79.0247 77.9043ZM80.8003 65.7254L82.7349 67.1754L82.6421 64.3225L80.8003 65.7254ZM62.0284 86.8013L58.9316 87.2949L64.4162 87.7156L62.0284 86.8013ZM65.0168 85.9212L67.3446 86.8631L70.1255 85.6577L65.0168 85.9212ZM80.4439 68.6162L82.3969 70.0004L82.7349 67.1754L80.4439 68.6162ZM80.7173 62.8086L80.8003 65.7254L82.6421 64.3225L80.7173 62.8086ZM65.0168 85.9212L62.0284 86.8013L67.3446 86.8631L65.0168 85.9212ZM67.8576 84.6797L70.1255 85.6577L72.7209 84.127L67.8576 84.6797ZM79.6694 71.4393L81.649 72.7571L82.3969 70.0004L79.6694 71.4393ZM70.5113 83.1054L72.7209 84.127L75.0933 82.3019L70.5113 83.1054ZM78.5018 74.1531L80.5158 75.4051L81.649 72.7571L78.5018 74.1531ZM80.8003 65.7254L80.4439 68.6162L82.7349 67.1754L80.8003 65.7254ZM67.8576 84.6797L65.0168 85.9212L70.1255 85.6577L67.8576 84.6797ZM72.9394 81.23L75.0933 82.3019L77.2062 80.2158L72.9394 81.23ZM76.9696 76.7161L79.0247 77.9043L80.5158 75.4051L76.9696 76.7161ZM75.1042 79.088L77.2062 80.2158L79.0247 77.9043L75.1042 79.088ZM80.4439 68.6162L79.6694 71.4393L82.3969 70.0004L80.4439 68.6162ZM70.5113 83.1054L67.8576 84.6797L72.7209 84.127L70.5113 83.1054Z" fill="#C7CDDC"/>
<path d="M62.0273 86.8004L65.0158 85.9202L67.8565 84.6787L62.0273 86.8004Z" fill="#C7CDDC"/>
<path d="M79.6737 71.4395L78.5062 74.1532L81.6534 72.7572L79.6737 71.4395ZM72.9437 81.2302L70.5156 83.1055L75.0977 82.3021L72.9437 81.2302ZM78.5062 74.1532L76.974 76.7162L80.5201 75.4052L78.5062 74.1532ZM75.1085 79.0881L72.9437 81.2302L77.2105 80.2159L75.1085 79.0881ZM76.974 76.7162L75.1085 79.0881L79.029 77.9044L76.974 76.7162Z" fill="#C7CDDC"/>
<path d="M79.6751 71.4386L80.4496 68.6154L80.806 65.7246L79.6751 71.4386ZM76.9754 76.7153L79.6751 71.4386L80.806 65.7246L76.9754 76.7153ZM67.8633 84.6789L70.517 83.1047L72.9451 81.2293L67.8633 84.6789ZM67.8633 84.6789L72.9451 81.2293L76.9754 76.7153L67.8633 84.6789ZM76.9754 76.7153L78.5076 74.1523L79.6751 71.4386L76.9754 76.7153ZM72.9451 81.2293L75.1099 79.0872L76.9754 76.7153L72.9451 81.2293Z" fill="#C7CDDC"/>
<mask id="mask0_1150_656202" style="mask-type:alpha" maskUnits="userSpaceOnUse" x="0" y="10" width="88" height="84">
<path d="M9.64432 27.4648L8.15844 29.057L6.82997 30.7636L9.64432 27.4648ZM6.82997 30.7636L5.67374 32.5676L4.70553 34.4524L6.82997 30.7636ZM9.64432 27.4648L6.82997 30.7636L4.70553 34.4524L9.64432 27.4648ZM13.0328 24.6959L11.2736 26.0049L9.64432 27.4648L13.0328 24.6959ZM4.70553 34.4524L3.94222 36.4021L3.40196 38.4007L4.70553 34.4524ZM16.8902 22.6111L13.0328 24.6959L9.64432 27.4648L16.8902 22.6111ZM16.8902 22.6111L14.9091 23.5577L13.0328 24.6959L16.8902 22.6111ZM9.64432 27.4648L4.70553 34.4524L0.265625 74.7198L9.64432 27.4648ZM4.70553 34.4524L3.40196 38.4007L0.265625 74.7198L4.70553 34.4524ZM3.40196 38.4007L3.10444 40.4326L0.265625 74.7198L3.40196 38.4007ZM60.1047 10.4307L16.8902 22.6111L9.64432 27.4648L60.1047 10.4307ZM55.0422 11.3477L18.9637 21.8786L16.8902 22.6111L55.0422 11.3477ZM9.64432 27.4648L0.265625 74.7198L1.71086 83.4472L9.64432 27.4648ZM60.1047 10.4307L55.0422 11.3477L16.8902 22.6111L60.1047 10.4307Z" fill="#C7CDDC"/>
<path d="M20.3203 93.0801L23.1249 93.7003L25.2855 94.0002L20.3203 93.0801Z" fill="#C7CDDC"/>
<path d="M0.266494 74.7207L0.212891 77.0819L0.44333 79.3353L0.266494 74.7207Z" fill="#C7CDDC"/>
<path d="M22.5055 93.3817L25.2855 94.0002L27.5782 93.9765L22.5055 93.3817ZM22.5055 93.3817L20.3203 93.0801L25.2855 94.0002L22.5055 93.3817Z" fill="#C7CDDC"/>
<path d="M9.64627 27.4648L1.71281 83.4473L15.8329 91.3148L9.64627 27.4648ZM0.267578 74.7199L0.444414 79.3344L1.71281 83.4473L0.267578 74.7199Z" fill="#C7CDDC"/>
<path d="M24.8276 93.3535L22.5059 93.3821L27.5786 93.9768L24.8276 93.3535Z" fill="#C7CDDC"/>
<path d="M75.1637 17.7806L60.1036 10.4307L9.64326 27.4648L75.1637 17.7806ZM0.441406 79.3344L0.944642 81.4627L1.70981 83.4472L0.441406 79.3344Z" fill="#C7CDDC"/>
<path d="M80.4575 24.5471L82.0747 26.614L80.9997 24.8816L80.4575 24.5471ZM17.3965 92.4342L20.3203 93.0807L22.5054 93.3824L17.3965 92.4342ZM79.3715 22.793L80.4575 24.5471L80.9997 24.8816L79.3715 22.793ZM81.2409 26.5145L82.8523 28.5537L82.0747 26.614L81.2409 26.5145ZM19.6064 92.7374L22.5054 93.3824L24.8271 93.3538L19.6064 92.7374Z" fill="#C7CDDC"/>
<path d="M60.1054 10.4316L57.6006 10.7443L55.043 11.3486L60.1054 10.4316Z" fill="#C7CDDC"/>
<path d="M19.6064 92.7372L17.3965 92.434L22.5054 93.3822L19.6064 92.7372ZM80.4575 24.5469L81.2409 26.5143L82.0747 26.6138L80.4575 24.5469ZM81.6873 28.6823L83.2991 30.6881L82.8523 28.5535L81.6873 28.6823Z" fill="#C7CDDC"/>
<path d="M1.71289 83.4478L2.72916 85.2677L3.98546 86.9006L1.71289 83.4478ZM15.833 91.3154L75.1668 17.7812L9.64635 27.4654L15.833 91.3154Z" fill="#C7CDDC"/>
<path d="M21.9594 92.7032L19.6083 92.737L24.8291 93.3534L21.9594 92.7032ZM81.2428 26.514L81.6892 28.6821L82.8542 28.5533L81.2428 26.514ZM78.7718 22.3896L80.4594 24.5466L79.3734 22.7925L78.7718 22.3896ZM14.3477 91.7591L17.3984 92.4337L19.6083 92.737L14.3477 91.7591Z" fill="#C7CDDC"/>
<path d="M1.71289 83.4475L3.98546 86.9003L7.17055 89.5066L1.71289 83.4475ZM64.8672 10.6585L62.5366 10.4043L60.1067 10.431L64.8672 10.6585Z" fill="#C7CDDC"/>
<path d="M77.6744 20.6143L78.7715 22.3904L79.3731 22.7933L77.6744 20.6143ZM79.5603 24.386L81.2425 26.5148L80.4591 24.5474L79.5603 24.386ZM24.8287 93.3541L27.5798 93.9774L68.0439 90.6289L24.8287 93.3541ZM16.582 92.0645L19.608 92.7377L21.959 92.7039L16.582 92.0645Z" fill="#C7CDDC"/>
<path d="M3.98242 86.9004L5.46707 88.322L7.16752 89.5067L3.98242 86.9004Z" fill="#C7CDDC"/>
<path d="M16.5824 92.0638L14.3477 91.7591L19.6083 92.737L16.5824 92.0638ZM78.7718 22.3896L79.5606 24.3852L80.4594 24.5466L78.7718 22.3896Z" fill="#C7CDDC"/>
<path d="M69.1211 11.9905L64.864 10.6592L60.1035 10.4316L69.1211 11.9905Z" fill="#C7CDDC"/>
<path d="M80.0059 26.5883L81.6889 28.6827L81.2425 26.5146L80.0059 26.5883ZM18.9628 92.0249L16.582 92.0644L21.959 92.7038L18.9628 92.0249Z" fill="#C7CDDC"/>
<path d="M1.71289 83.4473L7.17055 89.5063L15.833 91.3148L1.71289 83.4473Z" fill="#C7CDDC"/>
<path d="M79.5605 24.3857L80.0062 26.5882L81.2427 26.5145L79.5605 24.3857Z" fill="#C7CDDC"/>
<path d="M69.1262 11.9905L67.0744 11.1894L64.8691 10.6592L69.1262 11.9905Z" fill="#C7CDDC"/>
<path d="M77.0076 20.1373L78.7705 22.3904L77.6734 20.6143L77.0076 20.1373ZM11.1602 91.0553L14.3464 91.7599L16.5811 92.0646L11.1602 91.0553ZM75.8995 18.3389L77.0076 20.1373L77.6734 20.6143L75.8995 18.3389Z" fill="#C7CDDC"/>
<path d="M7.16992 89.5068L9.07247 90.4272L11.1619 91.055L7.16992 89.5068Z" fill="#C7CDDC"/>
<path d="M77.8047 22.1611L79.5624 24.3855L78.7736 22.3899L77.8047 22.1611Z" fill="#C7CDDC"/>
<path d="M75.1636 17.7816L69.1211 11.9905L60.1035 10.4316L75.1636 17.7816Z" fill="#C7CDDC"/>
<path d="M21.9581 92.7034L24.8278 93.3536L65.926 89.8538L21.9581 92.7034ZM13.4197 91.3606L16.5811 92.064L18.9618 92.0245L13.4197 91.3606ZM13.4197 91.3606L11.1602 91.0547L16.5811 92.064L13.4197 91.3606ZM77.0076 20.1367L77.8016 22.1611L78.7705 22.3898L77.0076 20.1367ZM81.688 28.6823L86.2168 67.134L83.2998 30.6881L81.688 28.6823Z" fill="#C7CDDC"/>
<path d="M7.16992 89.5068L11.1619 91.055L15.8323 91.3153L7.16992 89.5068Z" fill="#C7CDDC"/>
<path d="M78.2461 24.3992L80.0051 26.5882L79.5595 24.3857L78.2461 24.3992Z" fill="#C7CDDC"/>
<path d="M72.6474 14.3827L70.995 13.0568L69.127 11.9902L72.6474 14.3827Z" fill="#C7CDDC"/>
<path d="M15.8327 91.315L13.4219 91.3607L18.964 92.0245L15.8327 91.315ZM77.8038 22.1611L78.2481 24.3989L79.5615 24.3855L77.8038 22.1611Z" fill="#C7CDDC"/>
<path d="M11.1602 91.0547L13.4197 91.3606L15.8306 91.315L11.1602 91.0547Z" fill="#C7CDDC"/>
<path d="M75.166 17.7812L77.0093 20.1371L75.9012 18.3386L75.166 17.7812Z" fill="#C7CDDC"/>
<path d="M75.1694 17.7814L72.6474 14.3827L69.127 11.9902L75.1694 17.7814Z" fill="#C7CDDC"/>
<path d="M74.0465 15.96L75.1654 17.7809L75.9006 18.3383L74.0465 15.96ZM75.9642 19.8346L77.8026 22.1611L77.0086 20.1367L75.9642 19.8346ZM65.927 89.8538L24.8288 93.3536L68.0439 90.6284L65.927 89.8538ZM18.9629 92.0245L21.9591 92.7034L63.7079 89.0418L18.9629 92.0245Z" fill="#C7CDDC"/>
<path d="M75.1666 17.7815L74.0477 15.9606L72.6445 14.3828L75.1666 17.7815Z" fill="#C7CDDC"/>
<path d="M75.166 17.7812L75.9648 19.835L77.0093 20.1371L75.166 17.7812ZM80.0066 26.5882L84.4743 65.7625L81.6896 28.6827L80.0066 26.5882ZM86.2185 67.1343L87.8816 68.4425L83.3014 30.6885L86.2185 67.1343ZM76.4072 22.109L78.2476 24.3992L77.8033 22.1615L76.4072 22.109ZM75.9648 19.835L76.4072 22.109L77.8033 22.1615L75.9648 19.835Z" fill="#C7CDDC"/>
<path d="M76.4072 22.109L75.9648 19.835L75.166 17.7812L76.4072 22.109Z" fill="#C7CDDC"/>
<path d="M63.7103 89.0425L21.9615 92.7041L65.9294 89.8545L63.7103 89.0425ZM15.834 91.3157L18.9653 92.0252L61.3815 88.1904L15.834 91.3157ZM78.2493 24.3996L82.645 64.3227L80.0084 26.5886L78.2493 24.3996ZM84.4761 65.7629L86.2202 67.1347L81.6914 28.683L84.4761 65.7629ZM65.9294 89.8545L68.0463 90.6291L70.9184 90.2041L65.9294 89.8545ZM68.8548 89.414L70.9184 90.2041L73.6796 89.4257L68.8548 89.414ZM86.3295 69.8677L87.9996 71.1195L87.8834 68.4428L86.3295 69.8677ZM68.8548 89.414L65.9294 89.8545L70.9184 90.2041L68.8548 89.414ZM71.6697 88.6124L73.6796 89.4257L76.2949 88.317L71.6697 88.6124ZM86.0244 72.5695L87.7093 73.7637L87.9996 71.1195L86.0244 72.5695ZM86.2202 67.1347L86.3295 69.8677L87.8834 68.4428L86.2202 67.1347ZM61.3815 88.1904L18.9653 92.0252L63.7103 89.0425L61.3815 88.1904ZM71.6697 88.6124L68.8548 89.414L73.6796 89.4257L71.6697 88.6124ZM74.338 87.4731L76.2949 88.317L78.7295 86.9039L74.338 87.4731ZM85.3251 75.2023L87.0321 76.3385L87.7093 73.7637L85.3251 75.2023ZM76.824 86.0229L78.7295 86.9039L80.949 85.2147L76.824 86.0229ZM84.2548 77.7278L85.9907 78.807L87.0321 76.3385L84.2548 77.7278ZM86.3295 69.8677L86.0244 72.5695L87.9996 71.1195L86.3295 69.8677ZM74.338 87.4731L71.6697 88.6124L76.2949 88.317L74.338 87.4731ZM76.409 22.1094L80.7202 62.8088L78.2493 24.3996L76.409 22.1094ZM79.0922 84.2907L80.949 85.2147L82.92 83.2801L79.0922 84.2907ZM82.8396 80.1087L84.6107 81.1327L85.9907 78.807L82.8396 80.1087ZM81.1084 82.308L82.92 83.2801L84.6107 81.1327L81.1084 82.308ZM82.645 64.3227L84.4761 65.7629L80.0084 26.5886L82.645 64.3227Z" fill="#C7CDDC"/>
<path d="M15.834 91.3154L76.9725 76.7158L75.1678 17.7812L15.834 91.3154Z" fill="#C7CDDC"/>
<path d="M63.7109 89.0423L65.93 89.8543L68.8554 89.4138L63.7109 89.0423ZM86.025 72.5693L85.3257 75.2021L87.7099 73.7635L86.025 72.5693ZM76.8246 86.0227L74.3386 87.4729L78.7301 86.9037L76.8246 86.0227Z" fill="#C7CDDC"/>
<path d="M80.8014 65.7251L76.4072 22.109L75.166 17.7812L80.8014 65.7251Z" fill="#C7CDDC"/>
<path d="M85.3251 75.2021L84.2548 77.7277L87.0321 76.3383L85.3251 75.2021ZM79.0922 84.2905L76.824 86.0227L80.949 85.2145L79.0922 84.2905ZM84.2548 77.7277L82.8396 80.1085L85.9907 78.8068L84.2548 77.7277ZM81.1084 82.3079L79.0922 84.2905L82.92 83.2799L81.1084 82.3079ZM66.6909 88.5854L68.8548 89.4138L71.6697 88.6122L66.6909 88.5854ZM82.8396 80.1085L81.1084 82.3079L84.6107 81.1326L82.8396 80.1085ZM84.5776 68.5544L86.3295 69.8675L86.2202 67.1345L84.5776 68.5544ZM66.6909 88.5854L63.7103 89.0424L68.8548 89.4138L66.6909 88.5854ZM69.5614 87.7591L71.6697 88.6122L74.338 87.473L69.5614 87.7591ZM84.2567 71.3165L86.0244 72.5694L86.3295 69.8675L84.2567 71.3165ZM84.4761 65.7627L84.5776 68.5544L86.2202 67.1345L84.4761 65.7627ZM58.9345 87.2949L15.834 91.3156L61.3815 88.1903L58.9345 87.2949ZM69.5614 87.7591L66.6909 88.5854L71.6697 88.6122L69.5614 87.7591ZM72.285 86.5876L74.338 87.473L76.824 86.0227L72.285 86.5876ZM83.5339 74.0098L85.3251 75.2021L86.0244 72.5694L83.5339 74.0098ZM74.8245 85.0983L76.824 86.0227L79.0922 84.2905L74.8245 85.0983ZM82.4329 76.5951L84.2548 77.7277L85.3251 75.2021L82.4329 76.5951ZM84.5776 68.5544L84.2567 71.3165L86.3295 69.8675L84.5776 68.5544ZM72.285 86.5876L69.5614 87.7591L74.338 87.473L72.285 86.5876ZM77.1436 83.3208L79.0922 84.2905L81.1084 82.3079L77.1436 83.3208ZM80.9808 79.0337L82.8396 80.1085L84.2548 77.7277L80.9808 79.0337ZM79.207 81.2878L81.1084 82.3079L82.8396 80.1085L79.207 81.2878ZM80.7202 62.8086L82.645 64.3225L78.2493 24.3994L80.7202 62.8086ZM61.3815 88.1903L63.7103 89.0424L66.6909 88.5854L61.3815 88.1903ZM84.2567 71.3165L83.5339 74.0098L86.0244 72.5694L84.2567 71.3165ZM74.8245 85.0983L72.285 86.5876L76.824 86.0227L74.8245 85.0983Z" fill="#C7CDDC"/>
<path d="M15.834 91.315L58.9345 87.2944L62.0313 86.8008L15.834 91.315Z" fill="#C7CDDC"/>
<path d="M83.5346 74.0097L82.4337 76.595L85.3259 75.2021L83.5346 74.0097ZM77.1444 83.3208L74.8253 85.0982L79.093 84.2905L77.1444 83.3208ZM82.4337 76.595L80.9816 79.0336L84.2556 77.7276L82.4337 76.595ZM79.2078 81.2877L77.1444 83.3208L81.1092 82.3078L79.2078 81.2877ZM64.4199 87.7155L66.6917 88.5853L69.5622 87.759L64.4199 87.7155ZM80.9816 79.0336L79.2078 81.2877L82.8404 80.1084L80.9816 79.0336ZM82.7385 67.1753L84.5784 68.5543L84.4769 65.7627L82.7385 67.1753Z" fill="#C7CDDC"/>
<path d="M15.834 91.3146L62.0313 86.8004L67.8605 84.6787L15.834 91.3146Z" fill="#C7CDDC"/>
<path d="M64.4166 87.7153L61.3789 88.19L66.6883 88.5851L64.4166 87.7153ZM67.3449 86.8629L69.5589 87.7588L72.2824 86.5874L67.3449 86.8629ZM82.3972 70.0001L84.2541 71.3162L84.575 68.5542L82.3972 70.0001ZM82.6424 64.3223L82.7352 67.1751L84.4735 65.7625L82.6424 64.3223ZM67.3449 86.8629L64.4166 87.7153L69.5589 87.7588L67.3449 86.8629ZM70.1259 85.6574L72.2824 86.5874L74.8219 85.098L70.1259 85.6574Z" fill="#C7CDDC"/>
<path d="M80.8032 65.7251L80.7202 62.8084L76.409 22.109L80.8032 65.7251ZM15.834 91.3154L67.8605 84.6795L76.9725 76.7158L15.834 91.3154ZM76.9725 76.7158L80.8032 65.7251L75.1678 17.7812L76.9725 76.7158Z" fill="#C7CDDC"/>
<path d="M81.6471 72.7571L83.529 74.0098L84.2518 71.3165L81.6471 72.7571ZM72.719 84.127L74.8196 85.0983L77.1388 83.3208L72.719 84.127ZM80.5138 75.4051L82.4281 76.5951L83.529 74.0098L80.5138 75.4051ZM82.7329 67.1754L82.3949 70.0004L84.5727 68.5544L82.7329 67.1754ZM70.1236 85.6577L67.3427 86.8631L72.2801 86.5876L70.1236 85.6577ZM75.0914 82.3019L77.1388 83.3208L79.2022 81.2878L75.0914 82.3019ZM79.0227 77.9043L80.976 79.0337L82.4281 76.5951L79.0227 77.9043ZM77.2043 80.2158L79.2022 81.2878L80.976 79.0337L77.2043 80.2158ZM58.9297 87.2949L61.3766 88.1903L64.4143 87.7156L58.9297 87.2949ZM82.3949 70.0004L81.6471 72.7571L84.2518 71.3165L82.3949 70.0004ZM72.719 84.127L70.1236 85.6577L74.8196 85.0983L72.719 84.127ZM81.6471 72.7571L80.5138 75.4051L83.529 74.0098L81.6471 72.7571ZM75.0914 82.3019L72.719 84.127L77.1388 83.3208L75.0914 82.3019ZM80.5138 75.4051L79.0227 77.9043L82.4281 76.5951L80.5138 75.4051ZM77.2043 80.2158L75.0914 82.3019L79.2022 81.2878L77.2043 80.2158ZM62.0265 86.8013L64.4143 87.7156L67.3427 86.8631L62.0265 86.8013ZM79.0227 77.9043L77.2043 80.2158L80.976 79.0337L79.0227 77.9043ZM80.7983 65.7254L82.7329 67.1754L82.6401 64.3225L80.7983 65.7254ZM62.0265 86.8013L58.9297 87.2949L64.4143 87.7156L62.0265 86.8013ZM65.0149 85.9212L67.3427 86.8631L70.1236 85.6577L65.0149 85.9212ZM80.4419 68.6162L82.3949 70.0004L82.7329 67.1754L80.4419 68.6162ZM80.7153 62.8086L80.7983 65.7254L82.6401 64.3225L80.7153 62.8086ZM65.0149 85.9212L62.0265 86.8013L67.3427 86.8631L65.0149 85.9212ZM67.8556 84.6797L70.1236 85.6577L72.719 84.127L67.8556 84.6797ZM79.6674 71.4393L81.6471 72.7571L82.3949 70.0004L79.6674 71.4393ZM70.5093 83.1054L72.719 84.127L75.0914 82.3019L70.5093 83.1054ZM78.4999 74.1531L80.5138 75.4051L81.6471 72.7571L78.4999 74.1531ZM80.7983 65.7254L80.4419 68.6162L82.7329 67.1754L80.7983 65.7254ZM67.8556 84.6797L65.0149 85.9212L70.1236 85.6577L67.8556 84.6797ZM72.9374 81.23L75.0914 82.3019L77.2043 80.2158L72.9374 81.23ZM76.9677 76.7161L79.0227 77.9043L80.5138 75.4051L76.9677 76.7161ZM75.1022 79.088L77.2043 80.2158L79.0227 77.9043L75.1022 79.088ZM80.4419 68.6162L79.6674 71.4393L82.3949 70.0004L80.4419 68.6162ZM70.5093 83.1054L67.8556 84.6797L72.719 84.127L70.5093 83.1054Z" fill="#C7CDDC"/>
<path d="M62.0254 86.8004L65.0138 85.9202L67.8545 84.6787L62.0254 86.8004Z" fill="#C7CDDC"/>
<path d="M79.6717 71.4395L78.5042 74.1532L81.6514 72.7572L79.6717 71.4395ZM72.9418 81.2302L70.5137 83.1055L75.0957 82.3021L72.9418 81.2302ZM78.5042 74.1532L76.972 76.7162L80.5181 75.4052L78.5042 74.1532ZM75.1066 79.0881L72.9418 81.2302L77.2086 80.2159L75.1066 79.0881ZM76.972 76.7162L75.1066 79.0881L79.027 77.9044L76.972 76.7162Z" fill="#C7CDDC"/>
<path d="M79.6731 71.4386L80.4476 68.6154L80.8041 65.7246L79.6731 71.4386ZM76.9734 76.7153L79.6731 71.4386L80.8041 65.7246L76.9734 76.7153ZM67.8613 84.6789L70.5151 83.1047L72.9432 81.2293L67.8613 84.6789ZM67.8613 84.6789L72.9432 81.2293L76.9734 76.7153L67.8613 84.6789ZM76.9734 76.7153L78.5056 74.1523L79.6731 71.4386L76.9734 76.7153ZM72.9432 81.2293L75.1079 79.0872L76.9734 76.7153L72.9432 81.2293Z" fill="#C7CDDC"/>
</mask>
<g mask="url(#mask0_1150_656202)">
<ellipse cx="45.8782" cy="13.7133" rx="45.8782" ry="13.7133" transform="matrix(0.995583 -0.0938852 0.11756 0.993066 -7.56055 89.0234)" fill="url(#paint0_radial_1150_656202)" fill-opacity="0.5"/>
<ellipse cx="90.6607" cy="37.8384" rx="15.5455" ry="62.7515" fill="url(#paint1_radial_1150_656202)"/>
</g>
<path d="M2.93775 39.0177C3.86989 31.9141 8.94057 25.1479 16.4706 22.7012L52.0829 11.9563C66.0727 7.41063 77.1733 12.2537 76.8859 25.5391L80.7723 65.2713C80.5767 74.3127 72.1632 85.3244 62.1852 86.8959L20.3569 91.1286C6.37473 93.3309 -1.43308 85.1102 0.218487 72.5239L2.93775 39.0177Z" fill="url(#paint2_linear_1150_656202)"/>
<path d="M50.9545 17.6609L50.9625 17.6584L50.9704 17.6559C56.9756 15.6981 62.2278 15.8081 65.9009 17.6994C69.5159 19.5608 71.7615 23.2309 71.6411 28.8152L71.6401 28.8618L71.6446 28.9082L75.0399 63.7351C74.9455 67.4749 73.1566 71.6905 70.2991 75.156C67.4365 78.6275 63.5808 81.2509 59.4637 81.9084L22.8935 85.6213L22.8718 85.6235L22.8503 85.6269C16.9 86.5672 12.4088 85.2644 9.57936 82.5394C6.74934 79.8139 5.43344 75.5229 6.13304 70.1737L6.13555 70.1545L6.13712 70.1352L8.5144 40.7454C9.29946 34.7995 13.5379 29.1372 19.8082 27.0895L50.9545 17.6609Z" fill="url(#paint3_linear_1150_656202)" fill-opacity="0.28" stroke="url(#paint4_linear_1150_656202)" stroke-width="1.56894"/>
<mask id="mask1_1150_656202" style="mask-type:alpha" maskUnits="userSpaceOnUse" x="0" y="7" width="81" height="82">
<path d="M3.41473 36.4354C4.33771 29.3782 9.35855 22.6562 16.8145 20.2255L52.0768 9.55089C65.9291 5.03494 76.9206 9.84634 76.6361 23.0449L80.4843 62.5173C80.2906 71.4997 71.9598 82.4393 62.0799 84.0006L20.6627 88.2056C6.81794 90.3935 -0.913136 82.2265 0.722199 69.7226L3.41473 36.4354Z" fill="url(#paint5_linear_1150_656202)"/>
</mask>
<g mask="url(#mask1_1150_656202)">
<g filter="url(#filter0_dd_1150_656202)">
<path d="M49.6891 0C33.514 0 19.0677 14.7163 18.0156 28.9856C18.0156 51.2548 42.7799 67.9441 42.7799 67.9441C42.7799 67.9441 67.071 44.7289 70.4824 22.7626C71.3758 10.2942 63.822 0 49.6891 0ZM41.2418 36.2471C33.63 36.2471 30.9263 33.1001 30.9263 26.0254C30.9263 18.9507 38.5614 13.194 45.4158 12.7999C51.0699 13.2665 55.3747 15.1086 55.3747 22.1832C55.3747 29.3383 48.7956 35.0147 41.2418 36.2471Z" fill="black"/>
<path d="M49.6891 0C33.514 0 19.0677 14.7163 18.0156 28.9856C18.0156 51.2548 42.7799 67.9441 42.7799 67.9441C42.7799 67.9441 67.071 44.7289 70.4824 22.7626C71.3758 10.2942 63.822 0 49.6891 0ZM41.2418 36.2471C33.63 36.2471 30.9263 33.1001 30.9263 26.0254C30.9263 18.9507 38.5614 13.194 45.4158 12.7999C51.0699 13.2665 55.3747 15.1086 55.3747 22.1832C55.3747 29.3383 48.7956 35.0147 41.2418 36.2471Z" fill="url(#paint6_linear_1150_656202)"/>
<path d="M43.1196 66.2002C42.9525 66.369 42.8039 66.5178 42.675 66.6461C42.5655 66.5668 42.4435 66.4777 42.3097 66.3789C41.6452 65.8884 40.692 65.1604 39.5463 64.2166C37.2536 62.3279 34.1978 59.5813 31.1447 56.151C25.0219 49.2716 19.0293 39.7778 19.0156 29.0225C19.5304 22.1957 23.2567 15.1858 28.869 9.8677C34.4863 4.54497 41.9054 1 49.6891 1C56.4979 1 61.6293 3.47076 64.9615 7.3566C68.2975 11.2469 69.9088 16.6483 69.4878 22.65C67.811 33.3647 61.0236 44.4773 54.5558 52.9856C51.3301 57.2289 48.209 60.7923 45.8946 63.2945C44.7377 64.5452 43.7834 65.5296 43.1196 66.2002ZM41.2418 37.2471H41.3228L41.4028 37.2341C49.2484 35.9541 56.3747 30.0004 56.3747 22.1832C56.3747 18.4262 55.2188 15.8684 53.134 14.2277C51.1122 12.6366 48.3748 12.0407 45.498 11.8033L45.4282 11.7975L45.3584 11.8015C41.6925 12.0123 37.8656 13.6465 34.9495 16.1485C32.0333 18.6505 29.9263 22.1145 29.9263 26.0254C29.9263 29.653 30.6124 32.535 32.5132 34.487C34.4193 36.4442 37.3313 37.2471 41.2418 37.2471Z" stroke="url(#paint7_linear_1150_656202)" stroke-width="2"/>
</g>
</g>
<path d="M25.6847 11.9971L23.6444 14.6173L21.8887 17.3935L25.6847 11.9971Z" fill="#F7E067"/>
<path d="M30.5349 7.32617L25.6847 11.9971L21.8887 17.3936L30.5349 7.32617ZM30.5349 7.32617L27.9882 9.55792L25.6847 11.9971L30.5349 7.32617Z" fill="#F7E067"/>
<path d="M21.8896 17.3936L20.442 20.3016L19.3281 23.3184L21.8896 17.3936Z" fill="#F7E067"/>
<path d="M30.5318 7.32617L21.8856 17.3936L18.2129 29.588L30.5318 7.32617Z" fill="#F7E067"/>
<path d="M36.2816 3.59961L33.3031 5.33011L30.5318 7.32626L36.2816 3.59961ZM21.8856 17.3937L19.3241 23.3185L18.2129 29.588L21.8856 17.3937Z" fill="#F7E067"/>
<path d="M19.3241 23.3184L18.5721 26.4212L18.2129 29.5879L19.3241 23.3184Z" fill="#F7E067"/>
<path d="M42.7973 1.06738L36.2831 3.59931L30.5332 7.32596L42.7973 1.06738Z" fill="#F7E067"/>
<path d="M42.7975 1.06738L39.4527 2.16682L36.2832 3.59931L42.7975 1.06738Z" fill="#F7E067"/>
<path d="M30.5318 7.32617L18.2129 29.588L36.8031 15.9319L30.5318 7.32617Z" fill="#F7E067"/>
<path d="M18.2129 29.588L18.4477 34.2881L19.5175 38.8743L18.2129 29.588ZM30.5318 7.32617L36.8031 15.9319L38.1685 14.97L30.5318 7.32617Z" fill="#F7E067"/>
<path d="M30.5318 7.32617L38.1685 14.97L39.6302 14.1474L30.5318 7.32617ZM18.2129 29.588L33.4031 19.4979L34.4082 18.211L18.2129 29.588ZM18.2129 29.588L32.5431 20.8633L33.4031 19.4979L18.2129 29.588Z" fill="#F7E067"/>
<path d="M18.2129 29.5881L34.4082 18.2112L35.5457 17.0176L18.2129 29.5881ZM18.2129 29.5881L31.8413 22.2933L32.5431 20.8635L18.2129 29.5881Z" fill="#F7E067"/>
<path d="M30.5332 7.32617L39.6316 14.1474L41.1779 13.4806L30.5332 7.32617Z" fill="#F7E067"/>
<path d="M18.2129 29.5877L35.5457 17.0171L36.8031 15.9316L18.2129 29.5877Z" fill="#F7E067"/>
<path d="M18.2129 29.5879L31.3115 23.7729L31.8413 22.293L18.2129 29.5879Z" fill="#F7E067"/>
<path d="M49.4987 0.0732422L46.1905 0.360782L42.7969 1.06805L49.4987 0.0732422Z" fill="#F7E067"/>
<path d="M30.5318 7.32617L41.1765 13.4806L42.7959 12.9868L30.5318 7.32617ZM18.2129 29.588L30.9681 25.2891L31.3115 23.773L18.2129 29.588Z" fill="#F7E067"/>
<path d="M18.2129 29.5879L30.8262 26.8274L30.9681 25.2891L18.2129 29.5879Z" fill="#F7E067"/>
<path d="M30.5332 7.32617L42.7973 12.9868L44.4281 12.6916L30.5332 7.32617Z" fill="#F7E067"/>
<path d="M30.8981 28.3276L30.8262 26.8271L18.2129 29.5877L30.8981 28.3276Z" fill="#F7E067"/>
<path d="M30.5332 7.32617L44.4281 12.6916L46.0067 12.6039L30.5332 7.32617Z" fill="#F7E067"/>
<path d="M31.1778 29.7333L30.8981 28.3281L18.2129 29.5883L31.1778 29.7333Z" fill="#F7E067"/>
<path d="M30.5318 7.32565L46.0053 12.6033L47.5171 12.7155L30.5318 7.32565ZM18.2129 29.5874L19.5175 38.8737L23.6414 47.6034L18.2129 29.5874ZM55.742 0.720169L49.4977 0.0722656L42.7959 1.06707L55.742 0.720169Z" fill="#F7E067"/>
<path d="M65.7709 6.6649L42.7973 1.06738L30.5332 7.32596L65.7709 6.6649Z" fill="#F7E067"/>
<path d="M30.5332 7.32617L47.5185 12.716L48.9484 13.0208L30.5332 7.32617Z" fill="#F7E067"/>
<path d="M31.1778 29.7329L18.2129 29.5879L23.6414 47.6039L31.1778 29.7329Z" fill="#F7E067"/>
<path d="M55.7423 0.721146L52.6926 0.196211L49.498 0.0732422L55.7423 0.721146Z" fill="#F7E067"/>
<path d="M19.5176 38.874L21.2932 43.324L23.6415 47.6037L19.5176 38.874Z" fill="#F7E067"/>
<path d="M65.7709 6.66504L30.5332 7.3261L48.9484 13.0207L65.7709 6.66504Z" fill="#F7E067"/>
<path d="M65.7704 6.66512L55.7429 0.720703L42.7969 1.06761L65.7704 6.66512Z" fill="#F7E067"/>
<path d="M61.2721 2.94273L58.617 1.63925L55.7461 0.720703L61.2721 2.94273Z" fill="#F7E067"/>
<path d="M65.7717 6.66512L48.9492 13.0208L50.2814 13.5107L65.7717 6.66512ZM65.7717 6.66512L61.2702 2.94273L55.7442 0.720703L65.7717 6.66512Z" fill="#F7E067"/>
<path d="M65.7735 6.66504L50.2832 13.5106L51.5011 14.1781L65.7735 6.66504Z" fill="#F7E067"/>
<path d="M23.6426 47.6039L26.4211 51.6674L29.474 55.4563L23.6426 47.6039ZM65.7707 6.66504L51.4982 14.1781L52.5847 15.0155L65.7707 6.66504Z" fill="#F7E067"/>
<path d="M65.7699 6.66504L52.584 15.0155L53.5215 16.0145L65.7699 6.66504Z" fill="#F7E067"/>
<path d="M65.7733 6.66478L63.6715 4.62129L61.2718 2.94238L65.7733 6.66478ZM31.6576 31.0319L31.1816 29.7326L42.7998 67.9441L31.6576 31.0319ZM65.7733 6.66478L53.5249 16.0143L54.2953 17.1663L65.7733 6.66478Z" fill="#F7E067"/>
<path d="M32.3156 32.2145L31.6549 31.0322L42.7971 67.9443L32.3156 32.2145ZM65.7707 6.66504L54.2926 17.1666L54.8774 18.4625L65.7707 6.66504ZM31.179 29.7328L23.6426 47.6039L42.7971 67.9443L31.179 29.7328Z" fill="#F7E067"/>
<path d="M33.1484 33.2685L32.3145 32.2148L42.796 67.9446L33.1484 33.2685Z" fill="#F7E067"/>
<path d="M65.7741 6.66504L54.8809 18.4625L55.2614 19.8925L65.7741 6.66504Z" fill="#F7E067"/>
<path d="M34.1448 34.1807L33.1495 33.2682L42.7971 67.9443L34.1448 34.1807ZM65.7707 6.66504L55.2579 19.8925L55.4155 21.4459L65.7707 6.66504ZM23.6426 47.6039L29.474 55.4563L35.6961 61.9204L23.6426 47.6039Z" fill="#F7E067"/>
<path d="M55.4154 21.4459L55.3359 23.0766L65.7706 6.66504L55.4154 21.4459Z" fill="#F7E067"/>
<path d="M35.2932 34.9392L34.1484 34.1807L42.8007 67.9443L35.2932 34.9392Z" fill="#F7E067"/>
<path d="M55.3354 23.0766L55.0254 24.6961L65.77 6.66504L55.3354 23.0766Z" fill="#F7E067"/>
<path d="M55.0279 24.6961L54.502 26.2842L65.7725 6.66504L55.0279 24.6961Z" fill="#F7E067"/>
<path d="M36.5707 35.5306L35.2891 34.9395L42.7966 67.9446L36.5707 35.5306Z" fill="#F7E067"/>
<path d="M54.5 26.2842L53.7734 27.8209L65.7706 6.66504L54.5 26.2842Z" fill="#F7E067"/>
<path d="M37.9778 35.9404L36.5723 35.5304L42.7981 67.9443L37.9778 35.9404ZM68.9014 11.7925L67.531 9.06039L65.7717 6.66504L68.9014 11.7925Z" fill="#F7E067"/>
<path d="M39.4924 36.1553L37.9766 35.9404L42.7969 67.9444L39.4924 36.1553Z" fill="#F7E067"/>
<path d="M41.105 36.1607L39.4932 36.1552L42.7977 67.9443L41.105 36.1607ZM29.4746 55.4563L32.6296 58.9008L35.6967 61.9204L29.4746 55.4563ZM70.2826 18.1921L68.901 11.7925L65.7712 6.66504L70.2826 18.1921ZM42.7977 35.9426L41.105 36.1607L42.7977 67.9443L42.7977 35.9426Z" fill="#F7E067"/>
<path d="M44.5022 35.5029L42.7971 35.9422V67.944L44.5022 35.5029ZM23.6426 47.6035L35.6961 61.92L42.7971 67.944L23.6426 47.6035Z" fill="#F7E067"/>
<path d="M46.149 34.8652L44.502 35.5033L42.7969 67.9444L46.149 34.8652Z" fill="#F7E067"/>
<path d="M53.7732 27.8209L42.7969 67.9443L65.7704 6.66504L53.7732 27.8209ZM47.7192 34.0444L46.149 34.8652L42.7969 67.9443L47.7192 34.0444Z" fill="#F7E067"/>
<path d="M49.194 33.0586L47.7192 34.0449L42.7969 67.9448L49.194 33.0586Z" fill="#F7E067"/>
<path d="M70.2818 18.1926L69.8336 14.844L68.9001 11.793L70.2818 18.1926ZM50.5549 31.9244L49.194 33.0586L42.7969 67.9448L50.5549 31.9244Z" fill="#F7E067"/>
<path d="M51.7836 30.6607L50.5549 31.9243L42.7969 67.9447L51.7836 30.6607ZM53.7732 27.8213L52.8622 29.2866L42.7969 67.9447L53.7732 27.8213ZM52.8622 29.2866L51.7836 30.6607L42.7969 67.9447L52.8622 29.2866Z" fill="#F7E067"/>
<path d="M63.6699 40.5651L70.2833 18.1921L65.7719 6.66504L63.6699 40.5651Z" fill="#F7E067"/>
<path d="M42.7969 67.9443L63.6685 40.5651L65.7704 6.66504L42.7969 67.9443Z" fill="#F7E067"/>
<path d="M35.6973 61.9206L38.4698 64.4268L40.728 66.3265L35.6973 61.9206ZM68.6626 29.1822L69.99 23.563L70.2832 18.1924L68.6626 29.1822Z" fill="#F7E067"/>
<path d="M35.6973 61.9199L40.728 66.3258L42.7982 67.9439L35.6973 61.9199Z" fill="#F7E067"/>
<path d="M63.6699 40.5654L68.6627 29.1822L70.2833 18.1924L63.6699 40.5654Z" fill="#F7E067"/>
<path d="M63.6699 40.5649L66.4891 34.8989L68.6627 29.1816L63.6699 40.5649Z" fill="#F7E067"/>
<path d="M40.7246 66.3255L42.2418 67.5265L42.7949 67.9436L40.7246 66.3255ZM42.7949 67.9436L43.3493 67.387L44.8838 65.7891L42.7949 67.9436ZM42.7949 67.9436L50.1193 59.9L63.6665 40.5645L42.7949 67.9436ZM42.7949 67.9436L44.8838 65.7891L50.1193 59.9L42.7949 67.9436ZM56.9266 51.1665L60.4098 46.0336L63.6665 40.5645L56.9266 51.1665ZM44.8838 65.7891L47.2053 63.2571L50.1193 59.9L44.8838 65.7891ZM50.1193 59.9L56.9266 51.1665L63.6665 40.5645L50.1193 59.9ZM50.1193 59.9L53.4273 55.8303L56.9266 51.1665L50.1193 59.9Z" fill="#F7E067"/>
<mask id="mask2_1150_656202" style="mask-type:alpha" maskUnits="userSpaceOnUse" x="30" y="4" width="48" height="68">
<path d="M39.2388 23.2833L42.008 25.077L42.9612 23.858L39.2388 23.2833ZM40.2087 22.0425L42.9612 23.858L44.0441 22.7301L40.2087 22.0425ZM38.412 24.602L41.1968 26.3735L42.008 25.077L38.412 24.602ZM41.3092 20.8935L44.0441 22.7301L45.2449 21.7078L41.3092 20.8935ZM37.7409 25.9846L40.5401 27.7337L41.1968 26.3735L37.7409 25.9846ZM42.5283 19.851L45.2449 21.7078L46.5522 20.8056L42.5283 19.851ZM37.2389 27.4174L40.0512 29.144L40.5401 27.7337L37.2389 27.4174ZM43.8545 18.9297L46.5522 20.8056L47.9546 20.0386L43.8545 18.9297ZM36.9201 28.8869L39.7436 30.5913L40.0512 29.144L36.9201 28.8869ZM40.2087 22.0425L39.2388 23.2833L42.9612 23.858L40.2087 22.0425ZM39.2388 23.2833L38.412 24.602L42.008 25.077L39.2388 23.2833ZM41.3092 20.8935L40.2087 22.0425L44.0441 22.7301L41.3092 20.8935ZM45.2761 18.145L47.9546 20.0386L49.4411 19.4224L45.2761 18.145ZM38.412 24.602L37.7409 25.9846L41.1968 26.3735L38.412 24.602ZM36.7988 30.3796L39.6317 32.0621L39.7436 30.5913L36.7988 30.3796ZM42.5283 19.851L41.3092 20.8935L45.2449 21.7078L42.5283 19.851ZM37.7409 25.9846L37.2389 27.4174L40.5401 27.7337L37.7409 25.9846ZM43.8545 18.9297L42.5283 19.851L46.5522 20.8056L43.8545 18.9297ZM46.7821 17.5127L49.4411 19.4224L51.0006 18.9732L46.7821 17.5127ZM37.2389 27.4174L36.9201 28.8869L40.0512 29.144L37.2389 27.4174ZM36.8866 31.8372L39.7265 33.4991L39.6317 32.0621L36.8866 31.8372ZM45.2761 18.145L43.8545 18.9297L47.9546 20.0386L45.2761 18.145Z" fill="#DEBD0B"/>
<path d="M36.9201 28.8873L36.7988 30.38L39.7436 30.5917L36.9201 28.8873ZM48.3612 17.0498L51.0006 18.9736L52.5736 18.7151L48.3612 17.0498ZM37.1767 33.2041L40.021 34.8474L39.7265 33.4995L37.1767 33.2041Z" fill="#DEBD0B"/>
<path d="M46.7821 17.5127L45.2761 18.145L49.4411 19.4224L46.7821 17.5127ZM36.7988 30.3796L36.8866 31.8372L39.6317 32.0621L36.7988 30.3796Z" fill="#DEBD0B"/>
<path d="M49.958 16.7793L52.5785 18.7146L54.1035 18.6542L49.958 16.7793ZM48.366 17.0493L46.7869 17.5126L51.0055 18.9732L48.366 17.0493ZM37.6624 34.4688L40.5085 36.0956L40.0258 34.8469L37.6624 34.4688ZM36.8914 31.8371L37.1815 33.2036L39.7313 33.499L36.8914 31.8371ZM36.3744 21.4247L39.2437 23.2833L40.2135 22.0424L36.3744 21.4247ZM37.3616 20.1613L40.2135 22.0424L41.314 20.8935L37.3616 20.1613ZM35.5312 22.7664L38.4168 24.6019L39.2437 23.2833L35.5312 22.7664Z" fill="#DEBD0B"/>
<path d="M38.4788 18.9902L41.3126 20.8933L42.5318 19.8507L38.4788 18.9902ZM34.8438 24.172L37.7443 25.9843L38.4154 24.6017L34.8438 24.172Z" fill="#DEBD0B"/>
<path d="M49.9552 16.7789L48.3633 17.049L52.5758 18.7143L49.9552 16.7789ZM51.4979 16.71L54.1008 18.6538L55.5637 18.7839L51.4979 16.71ZM39.7155 17.9265L42.5305 19.8505L43.8566 18.9292L39.7155 17.9265ZM34.3269 25.6278L37.2411 27.417L37.743 25.9842L34.3269 25.6278ZM38.32 35.6214L41.1653 37.2339L40.5058 36.0952L38.32 35.6214ZM37.1788 33.2032L37.6597 34.4684L40.0231 34.8465L37.1788 33.2032ZM41.061 16.9853L43.8566 18.9292L45.2783 18.1445L41.061 16.9853ZM33.9961 27.1202L36.9222 28.8865L37.2411 27.417L33.9961 27.1202Z" fill="#DEBD0B"/>
<path d="M51.4963 16.7105L49.9537 16.7795L54.0992 18.6544L51.4963 16.7105ZM37.3573 20.1615L36.3701 21.4249L40.2092 22.0426L37.3573 20.1615ZM36.3701 21.4249L35.5269 22.7666L39.2394 23.2835L36.3701 21.4249ZM52.9753 16.8351L55.5621 18.7844L56.9482 19.0976L52.9753 16.8351ZM38.4759 18.9906L37.3573 20.1615L41.3097 20.8937L38.4759 18.9906ZM42.5008 16.1826L45.2767 18.1451L46.7826 17.5128L42.5008 16.1826ZM39.1466 36.6512L41.9885 38.2518L41.1638 37.2345L39.1466 36.6512ZM35.5269 22.7666L34.8408 24.1724L38.4125 24.6021L35.5269 22.7666ZM33.8633 28.636L36.7994 30.3798L36.9206 28.8871L33.8633 28.636Z" fill="#DEBD0B"/>
<path d="M37.6581 34.4687L38.3184 35.6216L40.5042 36.0955L37.6581 34.4687ZM39.7139 17.9267L38.4759 18.9903L42.5288 19.8508L39.7139 17.9267ZM34.8408 24.1721L34.3253 25.6281L37.7414 25.9844L34.8408 24.1721ZM41.0594 16.9855L39.7139 17.9267L43.855 18.9295L41.0594 16.9855ZM44.0267 15.5332L46.7826 17.5125L48.3617 17.0492L44.0267 15.5332ZM52.9753 16.8348L51.4962 16.7102L55.5621 18.7841L52.9753 16.8348ZM34.3253 25.6281L33.9945 27.1205L37.2394 27.4172L34.3253 25.6281ZM33.9434 30.1143L36.8871 31.837L36.7993 30.3794L33.9434 30.1143ZM54.3758 17.1456L56.9481 19.0973L58.2418 19.5861L54.3758 17.1456ZM40.1308 37.5443L42.9669 39.1355L41.9885 38.2515L40.1308 37.5443ZM42.5008 16.1823L41.0594 16.9855L45.2766 18.1448L42.5008 16.1823ZM38.3184 35.6216L39.1465 36.6509L41.1637 37.2342L38.3184 35.6216Z" fill="#DEBD0B"/>
<path d="M33.9945 27.1201L33.8633 28.6353L36.9206 28.8864L33.9945 27.1201ZM45.6258 15.0547L48.3617 17.0489L49.9537 16.7788L45.6258 15.0547ZM34.2286 31.4996L37.1772 33.2031L36.8871 31.8366L34.2286 31.4996Z" fill="#DEBD0B"/>
<path d="M44.0298 15.5328L42.5039 16.1819L46.7857 17.5121L44.0298 15.5328ZM54.3789 17.1452L52.9784 16.8344L56.9512 19.0969L54.3789 17.1452ZM55.6854 17.6347L58.2449 19.5857L59.4304 20.2426L55.6854 17.6347ZM33.8664 28.6352L33.9465 30.1139L36.8025 30.379L33.8664 28.6352ZM41.2623 38.2889L44.0899 39.8733L42.97 39.135L41.2623 38.2889ZM39.1497 36.6504L40.1339 37.5438L41.9916 38.251L39.1497 36.6504ZM47.2401 14.7724L49.9567 16.7788L51.4994 16.7098L47.2401 14.7724ZM45.6289 15.0546L44.0298 15.5328L48.3648 17.0488L45.6289 15.0546ZM34.7103 32.7816L37.6612 34.4682L37.1803 33.203L34.7103 32.7816ZM55.6854 17.6347L54.3789 17.1452L58.2449 19.5857L55.6854 17.6347ZM33.9465 30.1139L34.2317 31.4995L36.8902 31.8365L33.9465 30.1139ZM33.3983 19.4972L36.3732 21.4242L37.3603 20.1607L33.3983 19.4972ZM34.4034 18.2104L37.3603 20.1607L38.479 18.9899L34.4034 18.2104ZM32.5382 20.8627L35.53 22.7658L36.3732 21.4242L32.5382 20.8627ZM35.5408 17.0168L38.479 18.9899L39.717 17.9263L35.5408 17.0168ZM31.8364 22.2924L34.8439 24.1716L35.53 22.7658L31.8364 22.2924ZM40.1339 37.5438L41.2623 38.2889L42.97 39.135L40.1339 37.5438ZM47.2401 14.7724L45.6289 15.0546L49.9567 16.7788L47.2401 14.7724ZM48.8005 14.6943L51.4994 16.7098L52.9784 16.8344L48.8005 14.6943ZM36.7983 15.9313L39.717 17.9263L41.0625 16.9851L36.7983 15.9313ZM31.3066 23.7724L34.3284 25.6276L34.8439 24.1716L31.3066 23.7724ZM35.371 33.9491L38.3215 35.6212L37.6612 34.4682L35.371 33.9491Z" fill="#DEBD0B"/>
<path d="M34.2293 31.4999L34.708 32.782L37.178 33.2035L34.2293 31.4999ZM56.8793 18.2957L55.6831 17.6351L59.4281 20.243L56.8793 18.2957ZM38.1614 14.9697L41.0602 16.9855L42.5016 16.1823L38.1614 14.9697ZM30.9609 25.2889L33.9953 27.1205L34.3261 25.628L30.9609 25.2889Z" fill="#DEBD0B"/>
<path d="M48.7987 14.6943L47.2383 14.7724L51.4976 16.7098L48.7987 14.6943Z" fill="#DEBD0B"/>
<path d="M34.3996 18.2109L33.3945 19.4978L37.3566 20.1613L34.3996 18.2109Z" fill="#DEBD0B"/>
<path d="M33.3972 19.498L32.5371 20.8635L36.3721 21.425L33.3972 19.498Z" fill="#DEBD0B"/>
<path d="M50.2954 14.8137L52.9779 16.8351L54.3784 17.1459L50.2954 14.8137ZM35.5403 17.0175L34.4029 18.2111L38.4785 18.9906L35.5403 17.0175ZM39.6248 14.1475L42.5034 16.1826L44.0293 15.5335L39.6248 14.1475ZM36.2018 34.9911L39.1492 36.6511L38.321 35.6219L36.2018 34.9911ZM32.5377 20.8634L31.8359 22.2932L35.5295 22.7666L32.5377 20.8634Z" fill="#DEBD0B"/>
<path d="M30.8184 26.8271L33.8634 28.6356L33.9946 27.1204L30.8184 26.8271ZM34.7074 32.7819L35.3681 33.9494L37.6582 34.4686L34.7074 32.7819ZM36.7953 15.9316L35.5378 17.0171L39.714 17.9267L36.7953 15.9316Z" fill="#DEBD0B"/>
<path d="M31.8364 22.293L31.3066 23.7729L34.8439 24.1721L31.8364 22.293Z" fill="#DEBD0B"/>
<path d="M38.1603 14.9698L36.7949 15.9318L41.0592 16.9856L38.1603 14.9698ZM41.1682 13.4805L44.0265 15.5333L45.6255 15.0551L41.1682 13.4805ZM50.2925 14.8135L48.7972 14.6948L52.9751 16.8349L50.2925 14.8135Z" fill="#DEBD0B"/>
<path d="M31.304 23.7725L30.9606 25.2886L34.3258 25.6277L31.304 23.7725ZM30.8906 28.3273L33.9439 30.114L33.8638 28.6353L30.8906 28.3273ZM51.7084 15.1211L54.3763 17.1453L55.6828 17.6348L51.7084 15.1211Z" fill="#DEBD0B"/>
<path d="M37.1903 35.894L40.132 37.5445L39.1478 36.6511L37.1903 35.894ZM39.6234 14.1475L38.1618 14.97L42.502 16.1826L39.6234 14.1475ZM35.3691 33.9498L36.2003 34.9911L38.3196 35.6219L35.3691 33.9498Z" fill="#DEBD0B"/>
<path d="M30.9603 25.2886L30.8184 26.8269L33.9946 27.1202L30.9603 25.2886ZM42.7881 12.9863L45.6259 15.0548L47.2371 14.7725L42.7881 12.9863Z" fill="#DEBD0B"/>
<path d="M31.1719 29.7328L34.2306 31.5L33.9455 30.1144L31.1719 29.7328ZM41.1706 13.4805L39.6243 14.1472L44.0288 15.5333L41.1706 13.4805ZM51.71 15.1215L50.2948 14.8135L54.3779 17.1457L51.71 15.1215Z" fill="#DEBD0B"/>
<path d="M53.0273 15.6113L55.6824 17.6352L56.8786 18.2958L53.0273 15.6113ZM30.8184 26.8272L30.8902 28.3277L33.8634 28.6357L30.8184 26.8272ZM38.3259 36.6456L41.2593 38.2894L40.131 37.5443L38.3259 36.6456ZM36.1993 34.9909L37.1892 35.8938L39.1467 36.6509L36.1993 34.9909Z" fill="#DEBD0B"/>
<path d="M44.4234 12.6917L47.2416 14.7731L48.8021 14.695L44.4234 12.6917ZM42.7926 12.9869L41.1732 13.4807L45.6305 15.0553L42.7926 12.9869ZM31.6504 31.0323L34.7119 32.7822L34.2332 31.5002L31.6504 31.0323ZM70.7337 11.1523L73.0801 13.2719L71.0301 11.2831L70.7337 11.1523Z" fill="#DEBD0B"/>
<path d="M53.0277 15.611L51.7084 15.1211L55.6828 17.6348L53.0277 15.611ZM30.8906 28.3273L31.1703 29.7324L33.9439 30.114L30.8906 28.3273Z" fill="#DEBD0B"/>
<path d="M37.1914 35.8932L38.3281 36.645L40.1331 37.5437L37.1914 35.8932ZM44.421 12.6909L42.7902 12.9861L47.2393 14.7723L44.421 12.6909ZM68.6639 9.14453L70.7314 11.1516L71.0278 11.2823L68.6639 9.14453Z" fill="#DEBD0B"/>
<path d="M45.9994 12.6035L48.7995 14.6946L50.2948 14.8133L45.9994 12.6035ZM32.3085 32.2143L35.37 33.9493L34.7093 32.7818L32.3085 32.2143ZM31.1719 29.7326L31.6478 31.0319L34.2306 31.4998L31.1719 29.7326ZM54.2364 16.2753L53.0293 15.6111L56.8806 18.2956L54.2364 16.2753ZM45.9994 12.6035L44.4208 12.6913L48.7995 14.6946L45.9994 12.6035Z" fill="#DEBD0B"/>
<path d="M47.5138 12.7157L50.2974 14.8133L51.7126 15.1212L47.5138 12.7157ZM33.145 33.2679L36.2038 34.9907L35.3726 33.9493L33.145 33.2679ZM72.4694 13.4953L74.8034 15.5892L73.0801 13.2714L72.4694 13.4953ZM31.6504 31.0319L32.3111 32.2143L34.7119 32.7818L31.6504 31.0319ZM47.5138 12.7157L46.002 12.6035L50.2974 14.8133L47.5138 12.7157Z" fill="#DEBD0B"/>
<path d="M48.9393 13.0208L51.7082 15.1216L53.0274 15.6115L48.9393 13.0208ZM70.7293 11.1523L72.4649 13.4957L73.0757 13.2719L70.7293 11.1523ZM34.1359 34.1808L37.1893 35.894L36.1994 34.9911L34.1359 34.1808ZM32.3066 32.2147L33.1405 33.2683L35.3682 33.9497L32.3066 32.2147Z" fill="#DEBD0B"/>
<path d="M48.9394 13.0206L47.5095 12.7158L51.7082 15.1214L48.9394 13.0206ZM50.2715 13.5105L53.0275 15.6112L54.2346 16.2754L50.2715 13.5105ZM35.2808 34.9391L38.3261 36.6455L37.1894 35.8937L35.2808 34.9391ZM73.8238 16.1598L76.1512 18.2207L74.7991 15.5894L73.8238 16.1598ZM33.1406 33.268L34.136 34.1805L36.1995 34.9908L33.1406 33.268Z" fill="#DEBD0B"/>
<path d="M68.2939 8.95108L70.7301 11.1517L68.6626 9.1447L68.2939 8.95108ZM50.2722 13.5101L48.9401 13.0202L53.0283 15.6109L50.2722 13.5101ZM72.4658 13.4951L73.8245 16.1594L74.7998 15.589L72.4658 13.4951ZM34.1367 34.1802L35.2815 34.9387L37.1902 35.8934L34.1367 34.1802ZM66.2091 6.92578L68.2939 8.95108L68.6626 9.1447L66.2091 6.92578ZM51.4901 14.1777L50.2722 13.5101L54.2353 16.2751L51.4901 14.1777ZM74.7601 19.1267L77.0875 21.1471L76.152 18.2204L74.7601 19.1267Z" fill="#DEBD0B"/>
<path d="M70.0387 11.3204L72.4629 13.4952L70.7273 11.1518L70.0387 11.3204ZM73.8217 16.1595L74.7572 19.1267L76.1491 18.2205L73.8217 16.1595ZM68.291 8.95117L70.0387 11.3204L70.7273 11.1518L68.291 8.95117ZM75.2227 22.3757L77.5573 24.3483L77.0846 21.1472L75.2227 22.3757Z" fill="#DEBD0B"/>
<path d="M74.7619 19.1267L75.2274 22.3756L77.0893 21.1471L74.7619 19.1267ZM71.4082 14.0183L73.8263 16.1595L72.4675 13.4951L71.4082 14.0183Z" fill="#DEBD0B"/>
<path d="M65.7598 6.66504L68.2911 8.95158L66.2063 6.92627L65.7598 6.66504ZM70.0388 11.3208L71.4036 14.0188L72.463 13.4956L70.0388 11.3208ZM74.9848 27.5736L77.3442 29.4636L77.5574 24.3487L74.9848 27.5736Z" fill="#DEBD0B"/>
<path d="M63.6621 4.62109L65.764 6.66458L66.2105 6.92581L63.6621 4.62109ZM75.227 22.3756L74.989 27.5731L77.5616 24.3482L75.227 22.3756Z" fill="#DEBD0B"/>
<path d="M72.3398 17.0266L74.7586 19.1264L73.823 16.1592L72.3398 17.0266Z" fill="#DEBD0B"/>
<path d="M67.5254 9.05999L70.045 11.3204L68.2973 8.95117L67.5254 9.05999ZM73.7499 32.9984L76.149 34.7962L77.3504 29.4632L73.7499 32.9984ZM71.4099 14.0184L72.3448 17.027L73.828 16.1595L71.4099 14.0184Z" fill="#DEBD0B"/>
<path d="M65.7598 6.66504L67.5191 9.06039L68.2911 8.95157L65.7598 6.66504Z" fill="#DEBD0B"/>
<path d="M72.7969 20.3253L75.2238 22.3759L74.7582 19.127L72.7969 20.3253ZM74.9857 27.5734L73.7446 32.9986L77.3451 29.4634L74.9857 27.5734Z" fill="#DEBD0B"/>
<path d="M71.6875 38.508L74.1382 40.2078L76.1488 34.7959L71.6875 38.508Z" fill="#DEBD0B"/>
<path d="M72.3416 17.0269L72.799 20.3249L74.7604 19.1266L72.3416 17.0269ZM68.8926 11.792L71.4067 14.0182L70.0419 11.3203L68.8926 11.792Z" fill="#DEBD0B"/>
<path d="M68.9941 43.9615L71.5053 45.5607L74.1346 40.208L68.9941 43.9615Z" fill="#DEBD0B"/>
<path d="M48.9473 70.2529L51.8479 71.3401L52.3726 70.817L48.9473 70.2529ZM73.7438 32.998L71.6815 38.508L76.1428 34.7959L73.7438 32.998Z" fill="#DEBD0B"/>
<path d="M49.4844 69.7199L52.3755 70.8178L53.8267 69.3157L49.4844 69.7199ZM50.9624 68.1872L53.8267 69.3157L56.0205 66.935L50.9624 68.1872ZM67.5221 9.06055L68.8924 11.7927L70.0417 11.321L67.5221 9.06055ZM65.8783 49.2206L68.4553 50.7205L71.5058 45.5613L65.8783 49.2206Z" fill="#DEBD0B"/>
<path d="M72.5371 25.6081L74.9906 27.5735L75.2286 22.376L72.5371 25.6081Z" fill="#DEBD0B"/>
<path d="M53.1973 65.758L56.0207 66.9349L58.7713 63.7773L53.1973 65.758Z" fill="#DEBD0B"/>
<path d="M62.5388 54.1519L65.1833 55.5568L68.4552 50.7203L62.5388 54.1519ZM56 62.5365L58.771 63.7773L61.8896 59.9479L56 62.5365ZM59.1793 58.6303L61.8896 59.9479L65.1833 55.5568L59.1793 58.6303ZM71.6842 38.5088L68.9945 43.962L74.1349 40.2085L71.6842 38.5088Z" fill="#DEBD0B"/>
<path d="M72.796 20.3252L72.5314 25.608L75.2229 22.3759L72.796 20.3252ZM69.8231 14.8433L72.3386 17.0272L71.4037 14.0186L69.8231 14.8433ZM49.4815 69.7195L48.9473 70.2534L52.3726 70.8175L49.4815 69.7195ZM50.9595 68.1868L49.4815 69.7195L53.8239 69.3154L50.9595 68.1868ZM68.9918 43.9618L65.8755 49.2203L71.503 45.561L68.9918 43.9618Z" fill="#DEBD0B"/>
<path d="M53.1957 65.7584L50.9609 68.1874L56.0191 66.9353L53.1957 65.7584ZM55.9987 62.5369L53.1957 65.7584L58.7697 63.7777L55.9987 62.5369ZM65.8769 49.2209L62.5375 54.1523L68.4539 50.7208L65.8769 49.2209ZM71.2498 31.1291L73.7452 32.9992L74.9863 27.574L71.2498 31.1291ZM59.178 58.6307L55.9987 62.5369L61.8883 59.9483L59.178 58.6307ZM62.5375 54.1523L59.178 58.6307L65.182 55.5572L62.5375 54.1523ZM68.891 11.793L69.8245 14.844L71.4052 14.0192L68.891 11.793Z" fill="#DEBD0B"/>
<path d="M70.2742 18.1921L72.799 20.3254L72.3416 17.0273L70.2742 18.1921ZM72.5343 25.6081L71.2513 31.1286L74.9878 27.5736L72.5343 25.6081ZM69.1348 36.7404L71.6844 38.5087L73.7467 32.9987L69.1348 36.7404Z" fill="#DEBD0B"/>
<path d="M69.8242 14.8428L70.2724 18.1914L72.3398 17.0266L69.8242 14.8428Z" fill="#DEBD0B"/>
<path d="M66.3789 42.298L68.9918 43.962L71.6815 38.5088L66.3789 42.298Z" fill="#DEBD0B"/>
<path d="M45.9316 69.1226L48.9497 70.2538L49.484 69.72L45.9316 69.1226ZM71.2508 31.1289L69.1343 36.7406L73.7462 32.999L71.2508 31.1289ZM46.4758 68.5776L49.484 69.72L50.962 68.1872L46.4758 68.5776Z" fill="#DEBD0B"/>
<path d="M47.9844 67.0126L50.9649 68.187L53.1996 65.7579L47.9844 67.0126ZM63.1993 47.6597L65.8808 49.2204L68.9971 43.9619L63.1993 47.6597Z" fill="#DEBD0B"/>
<path d="M69.9815 23.5625L72.5348 25.6079L72.7995 20.3252L69.9815 23.5625ZM50.2598 64.533L53.1977 65.7577L56.0007 62.5363L50.2598 64.533Z" fill="#DEBD0B"/>
<path d="M59.7876 52.6901L62.5395 54.1521L65.8789 49.2207L59.7876 52.6901ZM53.1172 61.2456L56.0007 62.5368L59.18 58.6305L53.1172 61.2456ZM56.3596 57.2593L59.18 58.6305L62.5395 54.1521L56.3596 57.2593ZM69.1352 36.7406L66.3823 42.2982L71.6849 38.509L69.1352 36.7406ZM70.2747 18.1924L69.9815 23.563L72.7995 20.3257L70.2747 18.1924Z" fill="#DEBD0B"/>
<path d="M46.4758 68.5771L45.9316 69.1221L49.484 69.7195L46.4758 68.5771ZM47.9815 67.0124L46.4758 68.5771L50.962 68.1867L47.9815 67.0124ZM66.3813 42.2977L63.1964 47.6595L68.9943 43.9617L66.3813 42.2977ZM50.2588 64.533L47.9815 67.0124L53.1968 65.7577L50.2588 64.533ZM53.1162 61.2451L50.2588 64.533L55.9998 62.5363L53.1162 61.2451ZM63.1964 47.6595L59.7866 52.6896L65.878 49.2202L63.1964 47.6595ZM68.6531 29.1817L71.2508 31.1284L72.5339 25.6079L68.6531 29.1817ZM56.3587 57.2588L53.1162 61.2451L59.1791 58.63L56.3587 57.2588ZM59.7866 52.6896L56.3587 57.2588L62.5386 54.1516L59.7866 52.6896ZM69.9805 23.5625L68.6531 29.1817L72.5339 25.6079L69.9805 23.5625Z" fill="#DEBD0B"/>
<path d="M66.4785 34.8994L69.1332 36.7406L71.2498 31.1289L66.4785 34.8994Z" fill="#DEBD0B"/>
<path d="M63.6587 40.5649L66.3797 42.2977L69.1326 36.7401L63.6587 40.5649ZM42.7871 67.944L45.93 69.122L46.4741 68.577L42.7871 67.944ZM68.6515 29.1816L66.4779 34.8989L71.2491 31.1284L68.6515 29.1816ZM43.3415 67.3874L46.4741 68.577L47.9798 67.0124L43.3415 67.3874ZM44.876 65.7895L47.9798 67.0124L50.2571 64.533L44.876 65.7895ZM60.402 46.034L63.1947 47.6594L66.3797 42.2977L60.402 46.034Z" fill="#DEBD0B"/>
<path d="M47.1973 63.2576L50.2569 64.533L53.1143 61.2451L47.1973 63.2576Z" fill="#DEBD0B"/>
<path d="M56.9188 51.1664L59.7849 52.6891L63.1947 47.659L56.9188 51.1664ZM50.1115 59.8999L53.1145 61.2446L56.357 57.2583L50.1115 59.8999ZM53.4196 55.8303L56.357 57.2583L59.7849 52.6891L53.4196 55.8303ZM66.4779 34.8984L63.6587 40.5644L69.1326 36.7397L66.4779 34.8984ZM43.3415 67.3869L42.7871 67.9436L46.4741 68.5766L43.3415 67.3869ZM44.876 65.789L43.3415 67.3869L47.9798 67.0119L44.876 65.789ZM63.6587 40.5644L60.402 46.0336L66.3797 42.2972L63.6587 40.5644ZM47.1975 63.2571L44.876 65.789L50.2571 64.5325L47.1975 63.2571ZM50.1115 59.8999L47.1975 63.2571L53.1145 61.2446L50.1115 59.8999ZM60.402 46.0336L56.9188 51.1664L63.1947 47.659L60.402 46.0336Z" fill="#DEBD0B"/>
<path d="M53.4214 55.8309L50.1133 59.9005L56.3588 57.2589L53.4214 55.8309ZM56.9207 51.167L53.4214 55.8309L59.7867 52.6897L56.9207 51.167Z" fill="#DEBD0B"/>
</mask>
<g mask="url(#mask2_1150_656202)">
<path d="M39.2388 23.2833L42.008 25.077L42.9612 23.858L39.2388 23.2833ZM40.2087 22.0425L42.9612 23.858L44.0441 22.7301L40.2087 22.0425ZM38.412 24.602L41.1968 26.3735L42.008 25.077L38.412 24.602ZM41.3092 20.8935L44.0441 22.7301L45.2449 21.7078L41.3092 20.8935ZM37.7409 25.9846L40.5401 27.7337L41.1968 26.3735L37.7409 25.9846ZM42.5283 19.851L45.2449 21.7078L46.5522 20.8056L42.5283 19.851ZM37.2389 27.4174L40.0512 29.144L40.5401 27.7337L37.2389 27.4174ZM43.8545 18.9297L46.5522 20.8056L47.9546 20.0386L43.8545 18.9297ZM36.9201 28.8869L39.7436 30.5913L40.0512 29.144L36.9201 28.8869ZM40.2087 22.0425L39.2388 23.2833L42.9612 23.858L40.2087 22.0425ZM39.2388 23.2833L38.412 24.602L42.008 25.077L39.2388 23.2833ZM41.3092 20.8935L40.2087 22.0425L44.0441 22.7301L41.3092 20.8935ZM45.2761 18.145L47.9546 20.0386L49.4411 19.4224L45.2761 18.145ZM38.412 24.602L37.7409 25.9846L41.1968 26.3735L38.412 24.602ZM36.7988 30.3796L39.6317 32.0621L39.7436 30.5913L36.7988 30.3796ZM42.5283 19.851L41.3092 20.8935L45.2449 21.7078L42.5283 19.851ZM37.7409 25.9846L37.2389 27.4174L40.5401 27.7337L37.7409 25.9846ZM43.8545 18.9297L42.5283 19.851L46.5522 20.8056L43.8545 18.9297ZM46.7821 17.5127L49.4411 19.4224L51.0006 18.9732L46.7821 17.5127ZM37.2389 27.4174L36.9201 28.8869L40.0512 29.144L37.2389 27.4174ZM36.8866 31.8372L39.7265 33.4991L39.6317 32.0621L36.8866 31.8372ZM45.2761 18.145L43.8545 18.9297L47.9546 20.0386L45.2761 18.145Z" fill="#DEBD0B"/>
<path d="M36.9201 28.8873L36.7988 30.38L39.7436 30.5917L36.9201 28.8873ZM48.3612 17.0498L51.0006 18.9736L52.5736 18.7151L48.3612 17.0498ZM37.1767 33.2041L40.021 34.8474L39.7265 33.4995L37.1767 33.2041Z" fill="#DEBD0B"/>
<path d="M46.7821 17.5127L45.2761 18.145L49.4411 19.4224L46.7821 17.5127ZM36.7988 30.3796L36.8866 31.8372L39.6317 32.0621L36.7988 30.3796Z" fill="#DEBD0B"/>
<path d="M49.958 16.7793L52.5785 18.7146L54.1035 18.6542L49.958 16.7793ZM48.366 17.0493L46.7869 17.5126L51.0055 18.9732L48.366 17.0493ZM37.6624 34.4688L40.5085 36.0956L40.0258 34.8469L37.6624 34.4688ZM36.8914 31.8371L37.1815 33.2036L39.7313 33.499L36.8914 31.8371ZM36.3744 21.4247L39.2437 23.2833L40.2135 22.0424L36.3744 21.4247ZM37.3616 20.1613L40.2135 22.0424L41.314 20.8935L37.3616 20.1613ZM35.5312 22.7664L38.4168 24.6019L39.2437 23.2833L35.5312 22.7664Z" fill="#DEBD0B"/>
<path d="M38.4788 18.9902L41.3126 20.8933L42.5318 19.8507L38.4788 18.9902ZM34.8438 24.172L37.7443 25.9843L38.4154 24.6017L34.8438 24.172Z" fill="#DEBD0B"/>
<path d="M49.9552 16.7789L48.3633 17.049L52.5758 18.7143L49.9552 16.7789ZM51.4979 16.71L54.1008 18.6538L55.5637 18.7839L51.4979 16.71ZM39.7155 17.9265L42.5305 19.8505L43.8566 18.9292L39.7155 17.9265ZM34.3269 25.6278L37.2411 27.417L37.743 25.9842L34.3269 25.6278ZM38.32 35.6214L41.1653 37.2339L40.5058 36.0952L38.32 35.6214ZM37.1788 33.2032L37.6597 34.4684L40.0231 34.8465L37.1788 33.2032ZM41.061 16.9853L43.8566 18.9292L45.2783 18.1445L41.061 16.9853ZM33.9961 27.1202L36.9222 28.8865L37.2411 27.417L33.9961 27.1202Z" fill="#DEBD0B"/>
<path d="M51.4963 16.7105L49.9537 16.7795L54.0992 18.6544L51.4963 16.7105ZM37.3573 20.1615L36.3701 21.4249L40.2092 22.0426L37.3573 20.1615ZM36.3701 21.4249L35.5269 22.7666L39.2394 23.2835L36.3701 21.4249ZM52.9753 16.8351L55.5621 18.7844L56.9482 19.0976L52.9753 16.8351ZM38.4759 18.9906L37.3573 20.1615L41.3097 20.8937L38.4759 18.9906ZM42.5008 16.1826L45.2767 18.1451L46.7826 17.5128L42.5008 16.1826ZM39.1466 36.6512L41.9885 38.2518L41.1638 37.2345L39.1466 36.6512ZM35.5269 22.7666L34.8408 24.1724L38.4125 24.6021L35.5269 22.7666ZM33.8633 28.636L36.7994 30.3798L36.9206 28.8871L33.8633 28.636Z" fill="#DEBD0B"/>
<path d="M37.6581 34.4687L38.3184 35.6216L40.5042 36.0955L37.6581 34.4687ZM39.7139 17.9267L38.4759 18.9903L42.5288 19.8508L39.7139 17.9267ZM34.8408 24.1721L34.3253 25.6281L37.7414 25.9844L34.8408 24.1721ZM41.0594 16.9855L39.7139 17.9267L43.855 18.9295L41.0594 16.9855ZM44.0267 15.5332L46.7826 17.5125L48.3617 17.0492L44.0267 15.5332ZM52.9753 16.8348L51.4962 16.7102L55.5621 18.7841L52.9753 16.8348ZM34.3253 25.6281L33.9945 27.1205L37.2394 27.4172L34.3253 25.6281ZM33.9434 30.1143L36.8871 31.837L36.7993 30.3794L33.9434 30.1143ZM54.3758 17.1456L56.9481 19.0973L58.2418 19.5861L54.3758 17.1456ZM40.1308 37.5443L42.9669 39.1355L41.9885 38.2515L40.1308 37.5443ZM42.5008 16.1823L41.0594 16.9855L45.2766 18.1448L42.5008 16.1823ZM38.3184 35.6216L39.1465 36.6509L41.1637 37.2342L38.3184 35.6216Z" fill="#DEBD0B"/>
<path d="M33.9945 27.1201L33.8633 28.6353L36.9206 28.8864L33.9945 27.1201ZM45.6258 15.0547L48.3617 17.0489L49.9537 16.7788L45.6258 15.0547ZM34.2286 31.4996L37.1772 33.2031L36.8871 31.8366L34.2286 31.4996Z" fill="#DEBD0B"/>
<path d="M44.0298 15.5328L42.5039 16.1819L46.7857 17.5121L44.0298 15.5328ZM54.3789 17.1452L52.9784 16.8344L56.9512 19.0969L54.3789 17.1452ZM55.6854 17.6347L58.2449 19.5857L59.4304 20.2426L55.6854 17.6347ZM33.8664 28.6352L33.9465 30.1139L36.8025 30.379L33.8664 28.6352ZM41.2623 38.2889L44.0899 39.8733L42.97 39.135L41.2623 38.2889ZM39.1497 36.6504L40.1339 37.5438L41.9916 38.251L39.1497 36.6504ZM47.2401 14.7724L49.9567 16.7788L51.4994 16.7098L47.2401 14.7724ZM45.6289 15.0546L44.0298 15.5328L48.3648 17.0488L45.6289 15.0546ZM34.7103 32.7816L37.6612 34.4682L37.1803 33.203L34.7103 32.7816ZM55.6854 17.6347L54.3789 17.1452L58.2449 19.5857L55.6854 17.6347ZM33.9465 30.1139L34.2317 31.4995L36.8902 31.8365L33.9465 30.1139ZM33.3983 19.4972L36.3732 21.4242L37.3603 20.1607L33.3983 19.4972ZM34.4034 18.2104L37.3603 20.1607L38.479 18.9899L34.4034 18.2104ZM32.5382 20.8627L35.53 22.7658L36.3732 21.4242L32.5382 20.8627ZM35.5408 17.0168L38.479 18.9899L39.717 17.9263L35.5408 17.0168ZM31.8364 22.2924L34.8439 24.1716L35.53 22.7658L31.8364 22.2924ZM40.1339 37.5438L41.2623 38.2889L42.97 39.135L40.1339 37.5438ZM47.2401 14.7724L45.6289 15.0546L49.9567 16.7788L47.2401 14.7724ZM48.8005 14.6943L51.4994 16.7098L52.9784 16.8344L48.8005 14.6943ZM36.7983 15.9313L39.717 17.9263L41.0625 16.9851L36.7983 15.9313ZM31.3066 23.7724L34.3284 25.6276L34.8439 24.1716L31.3066 23.7724ZM35.371 33.9491L38.3215 35.6212L37.6612 34.4682L35.371 33.9491Z" fill="#DEBD0B"/>
<path d="M34.2293 31.4999L34.708 32.782L37.178 33.2035L34.2293 31.4999ZM56.8793 18.2957L55.6831 17.6351L59.4281 20.243L56.8793 18.2957ZM38.1614 14.9697L41.0602 16.9855L42.5016 16.1823L38.1614 14.9697ZM30.9609 25.2889L33.9953 27.1205L34.3261 25.628L30.9609 25.2889Z" fill="#DEBD0B"/>
<path d="M48.7987 14.6943L47.2383 14.7724L51.4976 16.7098L48.7987 14.6943Z" fill="#DEBD0B"/>
<path d="M34.3996 18.2109L33.3945 19.4978L37.3566 20.1613L34.3996 18.2109Z" fill="#DEBD0B"/>
<path d="M33.3972 19.498L32.5371 20.8635L36.3721 21.425L33.3972 19.498Z" fill="#DEBD0B"/>
<path d="M50.2954 14.8137L52.9779 16.8351L54.3784 17.1459L50.2954 14.8137ZM35.5403 17.0175L34.4029 18.2111L38.4785 18.9906L35.5403 17.0175ZM39.6248 14.1475L42.5034 16.1826L44.0293 15.5335L39.6248 14.1475ZM36.2018 34.9911L39.1492 36.6511L38.321 35.6219L36.2018 34.9911ZM32.5377 20.8634L31.8359 22.2932L35.5295 22.7666L32.5377 20.8634Z" fill="#DEBD0B"/>
<path d="M30.8184 26.8271L33.8634 28.6356L33.9946 27.1204L30.8184 26.8271ZM34.7074 32.7819L35.3681 33.9494L37.6582 34.4686L34.7074 32.7819ZM36.7953 15.9316L35.5378 17.0171L39.714 17.9267L36.7953 15.9316Z" fill="#DEBD0B"/>
<path d="M31.8364 22.293L31.3066 23.7729L34.8439 24.1721L31.8364 22.293Z" fill="#DEBD0B"/>
<path d="M38.1603 14.9698L36.7949 15.9318L41.0592 16.9856L38.1603 14.9698ZM41.1682 13.4805L44.0265 15.5333L45.6255 15.0551L41.1682 13.4805ZM50.2925 14.8135L48.7972 14.6948L52.9751 16.8349L50.2925 14.8135Z" fill="#DEBD0B"/>
<path d="M31.304 23.7725L30.9606 25.2886L34.3258 25.6277L31.304 23.7725ZM30.8906 28.3273L33.9439 30.114L33.8638 28.6353L30.8906 28.3273ZM51.7084 15.1211L54.3763 17.1453L55.6828 17.6348L51.7084 15.1211Z" fill="#DEBD0B"/>
<path d="M37.1903 35.894L40.132 37.5445L39.1478 36.6511L37.1903 35.894ZM39.6234 14.1475L38.1618 14.97L42.502 16.1826L39.6234 14.1475ZM35.3691 33.9498L36.2003 34.9911L38.3196 35.6219L35.3691 33.9498Z" fill="#DEBD0B"/>
<path d="M30.9603 25.2886L30.8184 26.8269L33.9946 27.1202L30.9603 25.2886ZM42.7881 12.9863L45.6259 15.0548L47.2371 14.7725L42.7881 12.9863Z" fill="#DEBD0B"/>
<path d="M31.1719 29.7328L34.2306 31.5L33.9455 30.1144L31.1719 29.7328ZM41.1706 13.4805L39.6243 14.1472L44.0288 15.5333L41.1706 13.4805ZM51.71 15.1215L50.2948 14.8135L54.3779 17.1457L51.71 15.1215Z" fill="#DEBD0B"/>
<path d="M53.0273 15.6113L55.6824 17.6352L56.8786 18.2958L53.0273 15.6113ZM30.8184 26.8272L30.8902 28.3277L33.8634 28.6357L30.8184 26.8272ZM38.3259 36.6456L41.2593 38.2894L40.131 37.5443L38.3259 36.6456ZM36.1993 34.9909L37.1892 35.8938L39.1467 36.6509L36.1993 34.9909Z" fill="#DEBD0B"/>
<path d="M44.4234 12.6917L47.2416 14.7731L48.8021 14.695L44.4234 12.6917ZM42.7926 12.9869L41.1732 13.4807L45.6305 15.0553L42.7926 12.9869ZM31.6504 31.0323L34.7119 32.7822L34.2332 31.5002L31.6504 31.0323ZM70.7337 11.1523L73.0801 13.2719L71.0301 11.2831L70.7337 11.1523Z" fill="#DEBD0B"/>
<path d="M53.0277 15.611L51.7084 15.1211L55.6828 17.6348L53.0277 15.611ZM30.8906 28.3273L31.1703 29.7324L33.9439 30.114L30.8906 28.3273Z" fill="#DEBD0B"/>
<path d="M37.1914 35.8932L38.3281 36.645L40.1331 37.5437L37.1914 35.8932ZM44.421 12.6909L42.7902 12.9861L47.2393 14.7723L44.421 12.6909ZM68.6639 9.14453L70.7314 11.1516L71.0278 11.2823L68.6639 9.14453Z" fill="#DEBD0B"/>
<path d="M45.9994 12.6035L48.7995 14.6946L50.2948 14.8133L45.9994 12.6035ZM32.3085 32.2143L35.37 33.9493L34.7093 32.7818L32.3085 32.2143ZM31.1719 29.7326L31.6478 31.0319L34.2306 31.4998L31.1719 29.7326ZM54.2364 16.2753L53.0293 15.6111L56.8806 18.2956L54.2364 16.2753ZM45.9994 12.6035L44.4208 12.6913L48.7995 14.6946L45.9994 12.6035Z" fill="#DEBD0B"/>
<path d="M47.5138 12.7157L50.2974 14.8133L51.7126 15.1212L47.5138 12.7157ZM33.145 33.2679L36.2038 34.9907L35.3726 33.9493L33.145 33.2679ZM72.4694 13.4953L74.8034 15.5892L73.0801 13.2714L72.4694 13.4953ZM31.6504 31.0319L32.3111 32.2143L34.7119 32.7818L31.6504 31.0319ZM47.5138 12.7157L46.002 12.6035L50.2974 14.8133L47.5138 12.7157Z" fill="#DEBD0B"/>
<path d="M48.9393 13.0208L51.7082 15.1216L53.0274 15.6115L48.9393 13.0208ZM70.7293 11.1523L72.4649 13.4957L73.0757 13.2719L70.7293 11.1523ZM34.1359 34.1808L37.1893 35.894L36.1994 34.9911L34.1359 34.1808ZM32.3066 32.2147L33.1405 33.2683L35.3682 33.9497L32.3066 32.2147Z" fill="#DEBD0B"/>
<path d="M48.9394 13.0206L47.5095 12.7158L51.7082 15.1214L48.9394 13.0206ZM50.2715 13.5105L53.0275 15.6112L54.2346 16.2754L50.2715 13.5105ZM35.2808 34.9391L38.3261 36.6455L37.1894 35.8937L35.2808 34.9391ZM73.8238 16.1598L76.1512 18.2207L74.7991 15.5894L73.8238 16.1598ZM33.1406 33.268L34.136 34.1805L36.1995 34.9908L33.1406 33.268Z" fill="#DEBD0B"/>
<path d="M68.2939 8.95108L70.7301 11.1517L68.6626 9.1447L68.2939 8.95108ZM50.2722 13.5101L48.9401 13.0202L53.0283 15.6109L50.2722 13.5101ZM72.4658 13.4951L73.8245 16.1594L74.7998 15.589L72.4658 13.4951ZM34.1367 34.1802L35.2815 34.9387L37.1902 35.8934L34.1367 34.1802ZM66.2091 6.92578L68.2939 8.95108L68.6626 9.1447L66.2091 6.92578ZM51.4901 14.1777L50.2722 13.5101L54.2353 16.2751L51.4901 14.1777ZM74.7601 19.1267L77.0875 21.1471L76.152 18.2204L74.7601 19.1267Z" fill="#DEBD0B"/>
<path d="M70.0387 11.3204L72.4629 13.4952L70.7273 11.1518L70.0387 11.3204ZM73.8217 16.1595L74.7572 19.1267L76.1491 18.2205L73.8217 16.1595ZM68.291 8.95117L70.0387 11.3204L70.7273 11.1518L68.291 8.95117ZM75.2227 22.3757L77.5573 24.3483L77.0846 21.1472L75.2227 22.3757Z" fill="#DEBD0B"/>
<path d="M74.7619 19.1267L75.2274 22.3756L77.0893 21.1471L74.7619 19.1267ZM71.4082 14.0183L73.8263 16.1595L72.4675 13.4951L71.4082 14.0183Z" fill="#DEBD0B"/>
<path d="M65.7598 6.66504L68.2911 8.95158L66.2063 6.92627L65.7598 6.66504ZM70.0388 11.3208L71.4036 14.0188L72.463 13.4956L70.0388 11.3208ZM74.9848 27.5736L77.3442 29.4636L77.5574 24.3487L74.9848 27.5736Z" fill="#DEBD0B"/>
<path d="M63.6621 4.62109L65.764 6.66458L66.2105 6.92581L63.6621 4.62109ZM75.227 22.3756L74.989 27.5731L77.5616 24.3482L75.227 22.3756Z" fill="#DEBD0B"/>
<path d="M72.3398 17.0266L74.7586 19.1264L73.823 16.1592L72.3398 17.0266Z" fill="#DEBD0B"/>
<path d="M67.5254 9.05999L70.045 11.3204L68.2973 8.95117L67.5254 9.05999ZM73.7499 32.9984L76.149 34.7962L77.3504 29.4632L73.7499 32.9984ZM71.4099 14.0184L72.3448 17.027L73.828 16.1595L71.4099 14.0184Z" fill="#DEBD0B"/>
<path d="M65.7598 6.66504L67.5191 9.06039L68.2911 8.95157L65.7598 6.66504Z" fill="#DEBD0B"/>
<path d="M72.7969 20.3253L75.2238 22.3759L74.7582 19.127L72.7969 20.3253ZM74.9857 27.5734L73.7446 32.9986L77.3451 29.4634L74.9857 27.5734Z" fill="#DEBD0B"/>
<path d="M71.6875 38.508L74.1382 40.2078L76.1488 34.7959L71.6875 38.508Z" fill="#DEBD0B"/>
<path d="M72.3416 17.0269L72.799 20.3249L74.7604 19.1266L72.3416 17.0269ZM68.8926 11.792L71.4067 14.0182L70.0419 11.3203L68.8926 11.792Z" fill="#DEBD0B"/>
<path d="M68.9941 43.9615L71.5053 45.5607L74.1346 40.208L68.9941 43.9615Z" fill="#DEBD0B"/>
<path d="M48.9473 70.2529L51.8479 71.3401L52.3726 70.817L48.9473 70.2529ZM73.7438 32.998L71.6815 38.508L76.1428 34.7959L73.7438 32.998Z" fill="#DEBD0B"/>
<path d="M49.4844 69.7199L52.3755 70.8178L53.8267 69.3157L49.4844 69.7199ZM50.9624 68.1872L53.8267 69.3157L56.0205 66.935L50.9624 68.1872ZM67.5221 9.06055L68.8924 11.7927L70.0417 11.321L67.5221 9.06055ZM65.8783 49.2206L68.4553 50.7205L71.5058 45.5613L65.8783 49.2206Z" fill="#DEBD0B"/>
<path d="M72.5371 25.6081L74.9906 27.5735L75.2286 22.376L72.5371 25.6081Z" fill="#DEBD0B"/>
<path d="M53.1973 65.758L56.0207 66.9349L58.7713 63.7773L53.1973 65.758Z" fill="#DEBD0B"/>
<path d="M62.5388 54.1519L65.1833 55.5568L68.4552 50.7203L62.5388 54.1519ZM56 62.5365L58.771 63.7773L61.8896 59.9479L56 62.5365ZM59.1793 58.6303L61.8896 59.9479L65.1833 55.5568L59.1793 58.6303ZM71.6842 38.5088L68.9945 43.962L74.1349 40.2085L71.6842 38.5088Z" fill="#DEBD0B"/>
<path d="M72.796 20.3252L72.5314 25.608L75.2229 22.3759L72.796 20.3252ZM69.8231 14.8433L72.3386 17.0272L71.4037 14.0186L69.8231 14.8433ZM49.4815 69.7195L48.9473 70.2534L52.3726 70.8175L49.4815 69.7195ZM50.9595 68.1868L49.4815 69.7195L53.8239 69.3154L50.9595 68.1868ZM68.9918 43.9618L65.8755 49.2203L71.503 45.561L68.9918 43.9618Z" fill="#DEBD0B"/>
<path d="M53.1957 65.7584L50.9609 68.1874L56.0191 66.9353L53.1957 65.7584ZM55.9987 62.5369L53.1957 65.7584L58.7697 63.7777L55.9987 62.5369ZM65.8769 49.2209L62.5375 54.1523L68.4539 50.7208L65.8769 49.2209ZM71.2498 31.1291L73.7452 32.9992L74.9863 27.574L71.2498 31.1291ZM59.178 58.6307L55.9987 62.5369L61.8883 59.9483L59.178 58.6307ZM62.5375 54.1523L59.178 58.6307L65.182 55.5572L62.5375 54.1523ZM68.891 11.793L69.8245 14.844L71.4052 14.0192L68.891 11.793Z" fill="#DEBD0B"/>
<path d="M70.2742 18.1921L72.799 20.3254L72.3416 17.0273L70.2742 18.1921ZM72.5343 25.6081L71.2513 31.1286L74.9878 27.5736L72.5343 25.6081ZM69.1348 36.7404L71.6844 38.5087L73.7467 32.9987L69.1348 36.7404Z" fill="#DEBD0B"/>
<path d="M69.8242 14.8428L70.2724 18.1914L72.3398 17.0266L69.8242 14.8428Z" fill="#DEBD0B"/>
<path d="M66.3789 42.298L68.9918 43.962L71.6815 38.5088L66.3789 42.298Z" fill="#DEBD0B"/>
<path d="M45.9316 69.1226L48.9497 70.2538L49.484 69.72L45.9316 69.1226ZM71.2508 31.1289L69.1343 36.7406L73.7462 32.999L71.2508 31.1289ZM46.4758 68.5776L49.484 69.72L50.962 68.1872L46.4758 68.5776Z" fill="#DEBD0B"/>
<path d="M47.9844 67.0126L50.9649 68.187L53.1996 65.7579L47.9844 67.0126ZM63.1993 47.6597L65.8808 49.2204L68.9971 43.9619L63.1993 47.6597Z" fill="#DEBD0B"/>
<path d="M69.9815 23.5625L72.5348 25.6079L72.7995 20.3252L69.9815 23.5625ZM50.2598 64.533L53.1977 65.7577L56.0007 62.5363L50.2598 64.533Z" fill="#DEBD0B"/>
<path d="M59.7876 52.6901L62.5395 54.1521L65.8789 49.2207L59.7876 52.6901ZM53.1172 61.2456L56.0007 62.5368L59.18 58.6305L53.1172 61.2456ZM56.3596 57.2593L59.18 58.6305L62.5395 54.1521L56.3596 57.2593ZM69.1352 36.7406L66.3823 42.2982L71.6849 38.509L69.1352 36.7406ZM70.2747 18.1924L69.9815 23.563L72.7995 20.3257L70.2747 18.1924Z" fill="#DEBD0B"/>
<path d="M46.4758 68.5771L45.9316 69.1221L49.484 69.7195L46.4758 68.5771ZM47.9815 67.0124L46.4758 68.5771L50.962 68.1867L47.9815 67.0124ZM66.3813 42.2977L63.1964 47.6595L68.9943 43.9617L66.3813 42.2977ZM50.2588 64.533L47.9815 67.0124L53.1968 65.7577L50.2588 64.533ZM53.1162 61.2451L50.2588 64.533L55.9998 62.5363L53.1162 61.2451ZM63.1964 47.6595L59.7866 52.6896L65.878 49.2202L63.1964 47.6595ZM68.6531 29.1817L71.2508 31.1284L72.5339 25.6079L68.6531 29.1817ZM56.3587 57.2588L53.1162 61.2451L59.1791 58.63L56.3587 57.2588ZM59.7866 52.6896L56.3587 57.2588L62.5386 54.1516L59.7866 52.6896ZM69.9805 23.5625L68.6531 29.1817L72.5339 25.6079L69.9805 23.5625Z" fill="#DEBD0B"/>
<path d="M66.4785 34.8994L69.1332 36.7406L71.2498 31.1289L66.4785 34.8994Z" fill="#DEBD0B"/>
<path d="M63.6587 40.5649L66.3797 42.2977L69.1326 36.7401L63.6587 40.5649ZM42.7871 67.944L45.93 69.122L46.4741 68.577L42.7871 67.944ZM68.6515 29.1816L66.4779 34.8989L71.2491 31.1284L68.6515 29.1816ZM43.3415 67.3874L46.4741 68.577L47.9798 67.0124L43.3415 67.3874ZM44.876 65.7895L47.9798 67.0124L50.2571 64.533L44.876 65.7895ZM60.402 46.034L63.1947 47.6594L66.3797 42.2977L60.402 46.034Z" fill="#DEBD0B"/>
<path d="M47.1973 63.2576L50.2569 64.533L53.1143 61.2451L47.1973 63.2576Z" fill="#DEBD0B"/>
<path d="M56.9188 51.1664L59.7849 52.6891L63.1947 47.659L56.9188 51.1664ZM50.1115 59.8999L53.1145 61.2446L56.357 57.2583L50.1115 59.8999ZM53.4196 55.8303L56.357 57.2583L59.7849 52.6891L53.4196 55.8303ZM66.4779 34.8984L63.6587 40.5644L69.1326 36.7397L66.4779 34.8984ZM43.3415 67.3869L42.7871 67.9436L46.4741 68.5766L43.3415 67.3869ZM44.876 65.789L43.3415 67.3869L47.9798 67.0119L44.876 65.789ZM63.6587 40.5644L60.402 46.0336L66.3797 42.2972L63.6587 40.5644ZM47.1975 63.2571L44.876 65.789L50.2571 64.5325L47.1975 63.2571ZM50.1115 59.8999L47.1975 63.2571L53.1145 61.2446L50.1115 59.8999ZM60.402 46.0336L56.9188 51.1664L63.1947 47.659L60.402 46.0336Z" fill="#DEBD0B"/>
<path d="M53.4214 55.8309L50.1133 59.9005L56.3588 57.2589L53.4214 55.8309ZM56.9207 51.167L53.4214 55.8309L59.7867 52.6897L56.9207 51.167Z" fill="#DEBD0B"/>
<ellipse cx="61.9967" cy="34.8272" rx="61.9967" ry="34.8272" transform="matrix(-0.187365 0.98229 -0.988652 -0.150221 100.318 -16.0352)" fill="url(#paint8_radial_1150_656202)" fill-opacity="0.5"/>
</g>
<path d="M43.1196 66.2002C42.9525 66.369 42.8039 66.5178 42.675 66.6461C42.5655 66.5668 42.4435 66.4777 42.3097 66.3789C41.6452 65.8884 40.692 65.1604 39.5463 64.2166C37.2536 62.3279 34.1978 59.5813 31.1447 56.151C25.0219 49.2716 19.0293 39.7778 19.0156 29.0225C19.5304 22.1957 23.2567 15.1858 28.869 9.8677C34.4863 4.54497 41.9054 1 49.6891 1C56.4979 1 61.6293 3.47076 64.9615 7.3566C68.2975 11.2469 69.9088 16.6483 69.4878 22.65C67.811 33.3647 61.0236 44.4773 54.5558 52.9856C51.3301 57.2289 48.209 60.7923 45.8946 63.2945C44.7377 64.5452 43.7834 65.5296 43.1196 66.2002ZM41.2418 37.2471H41.3228L41.4028 37.2341C49.2484 35.9541 56.3747 30.0004 56.3747 22.1832C56.3747 18.4262 55.2188 15.8684 53.134 14.2277C51.1122 12.6366 48.3748 12.0407 45.498 11.8033L45.4282 11.7975L45.3584 11.8015C41.6925 12.0123 37.8656 13.6465 34.9495 16.1485C32.0333 18.6505 29.9263 22.1145 29.9263 26.0254C29.9263 29.653 30.6124 32.535 32.5132 34.487C34.4193 36.4442 37.3313 37.2471 41.2418 37.2471Z" fill="black"/>
<path d="M43.1196 66.2002C42.9525 66.369 42.8039 66.5178 42.675 66.6461C42.5655 66.5668 42.4435 66.4777 42.3097 66.3789C41.6452 65.8884 40.692 65.1604 39.5463 64.2166C37.2536 62.3279 34.1978 59.5813 31.1447 56.151C25.0219 49.2716 19.0293 39.7778 19.0156 29.0225C19.5304 22.1957 23.2567 15.1858 28.869 9.8677C34.4863 4.54497 41.9054 1 49.6891 1C56.4979 1 61.6293 3.47076 64.9615 7.3566C68.2975 11.2469 69.9088 16.6483 69.4878 22.65C67.811 33.3647 61.0236 44.4773 54.5558 52.9856C51.3301 57.2289 48.209 60.7923 45.8946 63.2945C44.7377 64.5452 43.7834 65.5296 43.1196 66.2002ZM41.2418 37.2471H41.3228L41.4028 37.2341C49.2484 35.9541 56.3747 30.0004 56.3747 22.1832C56.3747 18.4262 55.2188 15.8684 53.134 14.2277C51.1122 12.6366 48.3748 12.0407 45.498 11.8033L45.4282 11.7975L45.3584 11.8015C41.6925 12.0123 37.8656 13.6465 34.9495 16.1485C32.0333 18.6505 29.9263 22.1145 29.9263 26.0254C29.9263 29.653 30.6124 32.535 32.5132 34.487C34.4193 36.4442 37.3313 37.2471 41.2418 37.2471Z" fill="url(#paint9_linear_1150_656202)"/>
<path d="M43.1196 66.2002C42.9525 66.369 42.8039 66.5178 42.675 66.6461C42.5655 66.5668 42.4435 66.4777 42.3097 66.3789C41.6452 65.8884 40.692 65.1604 39.5463 64.2166C37.2536 62.3279 34.1978 59.5813 31.1447 56.151C25.0219 49.2716 19.0293 39.7778 19.0156 29.0225C19.5304 22.1957 23.2567 15.1858 28.869 9.8677C34.4863 4.54497 41.9054 1 49.6891 1C56.4979 1 61.6293 3.47076 64.9615 7.3566C68.2975 11.2469 69.9088 16.6483 69.4878 22.65C67.811 33.3647 61.0236 44.4773 54.5558 52.9856C51.3301 57.2289 48.209 60.7923 45.8946 63.2945C44.7377 64.5452 43.7834 65.5296 43.1196 66.2002ZM41.2418 37.2471H41.3228L41.4028 37.2341C49.2484 35.9541 56.3747 30.0004 56.3747 22.1832C56.3747 18.4262 55.2188 15.8684 53.134 14.2277C51.1122 12.6366 48.3748 12.0407 45.498 11.8033L45.4282 11.7975L45.3584 11.8015C41.6925 12.0123 37.8656 13.6465 34.9495 16.1485C32.0333 18.6505 29.9263 22.1145 29.9263 26.0254C29.9263 29.653 30.6124 32.535 32.5132 34.487C34.4193 36.4442 37.3313 37.2471 41.2418 37.2471Z" stroke="url(#paint10_linear_1150_656202)" stroke-width="2"/>
<defs>
<filter id="filter0_dd_1150_656202" x="15.0156" y="-3" width="72.5371" height="87.9443" filterUnits="userSpaceOnUse" color-interpolation-filters="sRGB">
<feFlood flood-opacity="0" result="BackgroundImageFix"/>
<feColorMatrix in="SourceAlpha" type="matrix" values="0 0 0 0 0 0 0 0 0 0 0 0 0 0 0 0 0 0 127 0" result="hardAlpha"/>
<feOffset dx="7" dy="7"/>
<feGaussianBlur stdDeviation="5"/>
<feColorMatrix type="matrix" values="0 0 0 0 0.487049 0 0 0 0 0.544761 0 0 0 0 0.691667 0 0 0 0.58 0"/>
<feBlend mode="normal" in2="BackgroundImageFix" result="effect1_dropShadow_1150_656202"/>
<feColorMatrix in="SourceAlpha" type="matrix" values="0 0 0 0 0 0 0 0 0 0 0 0 0 0 0 0 0 0 127 0" result="hardAlpha"/>
<feOffset dx="7" dy="7"/>
<feGaussianBlur stdDeviation="5"/>
<feColorMatrix type="matrix" values="0 0 0 0 0.487049 0 0 0 0 0.544761 0 0 0 0 0.691667 0 0 0 0.58 0"/>
<feBlend mode="normal" in2="effect1_dropShadow_1150_656202" result="effect2_dropShadow_1150_656202"/>
<feBlend mode="normal" in="SourceGraphic" in2="effect2_dropShadow_1150_656202" result="shape"/>
</filter>
<radialGradient id="paint0_radial_1150_656202" cx="0" cy="0" r="1" gradientUnits="userSpaceOnUse" gradientTransform="translate(45.8782 13.7133) rotate(90) scale(13.7133 45.8782)">
<stop stop-color="white"/>
<stop offset="1" stop-color="#CCCEF1" stop-opacity="0"/>
</radialGradient>
<radialGradient id="paint1_radial_1150_656202" cx="0" cy="0" r="1" gradientUnits="userSpaceOnUse" gradientTransform="translate(90.6607 37.8384) rotate(90) scale(62.7515 15.5455)">
<stop stop-color="white"/>
<stop offset="1" stop-color="#CCCEF1" stop-opacity="0"/>
</radialGradient>
<linearGradient id="paint2_linear_1150_656202" x1="68.4066" y1="82.9299" x2="25.8991" y2="19.3149" gradientUnits="userSpaceOnUse">
<stop stop-color="#DCECF3"/>
<stop offset="1" stop-color="white"/>
</linearGradient>
<linearGradient id="paint3_linear_1150_656202" x1="65.0075" y1="79.2056" x2="27.6502" y2="23.4835" gradientUnits="userSpaceOnUse">
<stop stop-color="#DCECF3"/>
<stop offset="1" stop-color="white"/>
</linearGradient>
<linearGradient id="paint4_linear_1150_656202" x1="65.9327" y1="78.516" x2="21.3512" y2="20.9959" gradientUnits="userSpaceOnUse">
<stop stop-color="#DCB900"/>
<stop offset="1" stop-color="#FFF6C7"/>
</linearGradient>
<linearGradient id="paint5_linear_1150_656202" x1="68.2401" y1="80.0605" x2="25.957" y2="16.9911" gradientUnits="userSpaceOnUse">
<stop stop-color="#DCECF3"/>
<stop offset="1" stop-color="white"/>
</linearGradient>
<linearGradient id="paint6_linear_1150_656202" x1="38.4721" y1="13.1065" x2="67.5468" y2="86.5261" gradientUnits="userSpaceOnUse">
<stop stop-color="#FFEF99"/>
<stop offset="1" stop-color="#F0D33D"/>
</linearGradient>
<linearGradient id="paint7_linear_1150_656202" x1="75.3935" y1="66.4722" x2="1.72669" y2="-14.5291" gradientUnits="userSpaceOnUse">
<stop stop-color="#FFF5BF"/>
<stop offset="1" stop-color="#DFBC00"/>
</linearGradient>
<radialGradient id="paint8_radial_1150_656202" cx="0" cy="0" r="1" gradientUnits="userSpaceOnUse" gradientTransform="translate(61.9967 34.8272) rotate(90) scale(34.8272 61.9967)">
<stop stop-color="#FFFDEB"/>
<stop offset="1" stop-color="#FEFFBC" stop-opacity="0"/>
</radialGradient>
<linearGradient id="paint9_linear_1150_656202" x1="38.4721" y1="13.1065" x2="67.5468" y2="86.5261" gradientUnits="userSpaceOnUse">
<stop stop-color="#FFEF99"/>
<stop offset="1" stop-color="#F0D33D"/>
</linearGradient>
<linearGradient id="paint10_linear_1150_656202" x1="75.3935" y1="66.4722" x2="1.72669" y2="-14.5291" gradientUnits="userSpaceOnUse">
<stop stop-color="#FFF5BF"/>
<stop offset="1" stop-color="#DFBC00"/>
</linearGradient>
</defs>
</svg>
