<svg width="158" height="158" fill="none" xmlns="http://www.w3.org/2000/svg"><g opacity=".4" filter="url(#a)"><circle cx="69" cy="69" r="19" fill="#fff"/><circle cx="69" cy="69" r="18.5" stroke="#000"/><circle cx="69" cy="69" r="18.5" stroke="url(#b)"/></g><g filter="url(#c)"><path d="m76.939 65.64-4.65 4.65-4.65 4.649a.21.21 0 0 1-.297 0l-5.28-5.28a.21.21 0 0 1 0-.296l1.282-1.283a.21.21 0 0 1 .297 0l3.142 3.142a1 1 0 0 0 1.414 0l3.228-3.227 3.934-3.934a.21.21 0 0 1 .297 0l1.283 1.283a.21.21 0 0 1 0 .296Z" fill="url(#d)"/><path d="m77.363 66.064-4.65 4.65-4.65 4.649a.81.81 0 0 1-1.145 0l-5.28-5.28 15.725-4.019Zm0 0a.81.81 0 0 0 0-1.144v1.144ZM61.637 68.94l1.283-1.283a.81.81 0 0 1 1.145 0l3.142 3.141a.4.4 0 0 0 .566 0l3.228-3.226 3.934-3.934.001-.001a.81.81 0 0 1 1.143 0v.001l1.283 1.282-15.725 4.02Zm0 0a.81.81 0 0 0 0 1.144V68.94Z" stroke="url(#e)" stroke-width="1.2"/></g><defs><linearGradient id="b" x1="65.005" y1="34.738" x2="93.389" y2="65.484" gradientUnits="userSpaceOnUse"><stop stop-color="#DCD4FD"/><stop offset="1" stop-color="#EBECFA"/></linearGradient><linearGradient id="d" x1="75" y1="64" x2="68.5" y2="78" gradientUnits="userSpaceOnUse"><stop stop-color="#47BF0E"/><stop offset=".818" stop-color="#8CE363"/><stop offset="1" stop-color="#9CEB75"/></linearGradient><linearGradient id="e" x1="82.5" y1="57" x2="68.5" y2="78" gradientUnits="userSpaceOnUse"><stop stop-color="#9CEB75"/><stop offset="1" stop-color="#47BF0E"/></linearGradient><filter id="a" x="0" y="0" width="158" height="158" filterUnits="userSpaceOnUse" color-interpolation-filters="sRGB"><feFlood flood-opacity="0" result="BackgroundImageFix"/><feColorMatrix in="SourceAlpha" values="0 0 0 0 0 0 0 0 0 0 0 0 0 0 0 0 0 0 127 0" result="hardAlpha"/><feOffset dx="10" dy="10"/><feGaussianBlur stdDeviation="30"/><feColorMatrix values="0 0 0 0 0.481562 0 0 0 0 0.688006 0 0 0 0 0.8375 0 0 0 0.3 0"/><feBlend in2="BackgroundImageFix" result="effect1_dropShadow_993_61572"/><feBlend in="SourceGraphic" in2="effect1_dropShadow_993_61572" result="shape"/></filter><filter id="c" x="56.8" y="62.8" width="25.4" height="21.4" filterUnits="userSpaceOnUse" color-interpolation-filters="sRGB"><feFlood flood-opacity="0" result="BackgroundImageFix"/><feColorMatrix in="SourceAlpha" values="0 0 0 0 0 0 0 0 0 0 0 0 0 0 0 0 0 0 127 0" result="hardAlpha"/><feOffset dy="4"/><feGaussianBlur stdDeviation="2"/><feColorMatrix values="0 0 0 0 0 0 0 0 0 0 0 0 0 0 0 0 0 0 0.08 0"/><feBlend in2="BackgroundImageFix" result="effect1_dropShadow_993_61572"/><feBlend in="SourceGraphic" in2="effect1_dropShadow_993_61572" result="shape"/></filter></defs></svg>