<svg width="1920" height="9404" fill="none" xmlns="http://www.w3.org/2000/svg"><path transform="matrix(-1 0 0 1 1942 3246)" fill="url(#a)" d="M0 0h1920v1762H0z"/><path transform="matrix(-1 0 0 1 1942 3634)" fill="url(#b)" d="M0 0h1920v2163H0z"/><path transform="matrix(0 1 1 0 -133 3422)" fill="url(#c)" d="M0 0h2152v2187H0z"/><path fill="url(#d)" d="M-.001 0h1920v1373.76h-1920z"/><path fill="url(#e)" d="M-.001 0h1920v2163h-1920z"/><path transform="rotate(90 1982 0)" fill="url(#f)" d="M1982 0h1898.93v2187H1982z"/><path d="M1934.14 760.57C1905.1 430.126 1753.27 320.948 1502 300.497c-251.27-20.451-374.92-262.087-355.47-500.989 19.44-238.901 595.39 215.01 846.66 235.461 251.27 20.451-39.61 486.699-59.05 725.601Z" fill="url(#g)"/><path d="M1945.48 658c-53-324.721-205.31-420.549-444.99-420.549S1125 8.251 1125-229.77c0-238.021 580.79 164.843 820.47 164.843 239.69 0 .01 484.906.01 722.927Z" fill="url(#h)"/><path fill="url(#i)" d="M0 507h1920v1762H0z"/><path fill="url(#j)" d="M-.001 895h1920v2163h-1920z"/><path transform="rotate(90 1920 683)" fill="url(#k)" d="M1920 683h2152v1920H1920z"/><path d="M552.624 1472.64c-277.348-192.72-554.55-51.42-658.481 43.32l18.844 538.52c110.316-184 408.423-593.02 711.601-470.01 373.074 151.37 558.952.94 789.532-30.47 184.46-25.12 442.66 166.6 549.87 270.41-.4-135.39-4.32-420.9-16.79-479.77-15.59-73.58-442.89-158.91-654.11 25.24l-.4.35c-211.05 184.01-393.602 343.16-740.066 102.41Z" fill="url(#l)"/><path d="M568.339 1330.65c-280.674-187.62-575.056 71.66-677.323 168.28l28.233 538.08c107.093-185.99 398.03-600.36 703.316-482.9 375.668 144.54 558.905-9.25 788.905-44.86 183.99-28.48 445.5 158.49 554.51 260.33-2.76-135.36-11.66-420.74-25.15-479.37-16.87-73.28-497.11-199.18-705.09-11.22l-.12.11c-207.91 187.89-316.506 286.04-667.281 51.55Z" fill="url(#m)"/><g filter="url(#n)"><path d="M1213.74 1335.1c275.58-238.26 601.91-146.61 730.62-71.01l61.35 535.13c-149.34-162.67-539.45-515.12-854.05-341.24-387.142 213.97-614.447 97.52-872.759 106.34-206.649 7.06-461.328 241.03-563.388 362.09-20.193-133.79-59.394-416.44-54.656-476.74 5.921-75.37 462.753-233.48 723.06-88.1l.497.27c260.097 145.26 485.068 270.9 829.326-26.74Z" fill="url(#o)"/></g><path d="M1367.38 4204.64c277.34-192.72 554.55-51.42 658.48 43.32l-18.85 538.52c-110.31-184-408.42-593.02-711.6-470.01-373.072 151.37-558.952.94-789.528-30.47-184.46-25.12-442.658 166.6-549.87 270.41.402-135.39 4.322-420.9 16.79-479.77 15.584-73.58 442.89-158.91 654.109 25.24l.404.35c211.049 184.01 393.595 343.16 740.065 102.41Z" fill="url(#p)"/><path d="M1351.66 4062.65c280.68-187.62 575.06 71.66 677.32 168.28l-28.23 538.08c-107.09-185.99-398.03-600.36-703.32-482.9-375.663 144.54-558.896-9.25-788.895-44.86-184-28.48-445.51 158.49-554.517 260.33 2.762-135.36 11.66-420.74 25.153-479.37 16.866-73.28 497.111-199.18 705.093-11.22l.121.11c207.904 187.89 316.505 286.04 667.275 51.55Z" fill="url(#q)"/><g filter="url(#r)"><path d="M706.259 4067.1c-275.582-238.26-601.907-146.61-730.621-71.01l-61.35 535.13c149.337-162.67 539.448-515.12 854.056-341.24 387.136 213.97 614.446 97.52 872.756 106.34 206.65 7.06 461.33 241.03 563.39 362.09 20.19-133.79 59.39-416.44 54.65-476.74-5.92-75.37-462.75-233.48-723.06-88.1l-.49.27c-260.1 145.26-485.07 270.9-829.331-26.74Z" fill="url(#s)"/></g><path d="M1250.09 8799.62c277.35-192.72 554.55-51.42 658.48 43.31l-18.85 538.53c-110.31-184.01-408.42-593.03-711.6-470.01-373.07 151.37-558.951.94-789.526-30.47-184.46-25.13-442.659 166.59-549.869 270.41.401-135.39 4.321-420.9 16.788-479.77 15.585-73.58 442.891-158.91 654.11 25.24l.404.35c211.049 184 393.597 343.16 740.063 102.41Z" fill="url(#t)"/><path d="M1267.12 8659.49c287.1-187.26 588.78 72.44 693.6 169.21l-28.24 538.07c-109.86-186.14-408.22-600.93-720.6-483.88-384.396 144.04-572.168-10-807.667-45.92-188.4-28.74-455.88 157.9-567.347 259.6 2.66-135.37 11.413-420.76 25.153-479.37 17.175-73.27 508.656-198.53 721.806-10.27l.123.11c213.07 188.19 324.365 286.48 683.172 52.45Z" fill="url(#u)"/><g filter="url(#v)"><path d="M588.971 8662.08c-275.582-238.26-601.907-146.62-730.622-71.01L-203 9126.2c149.338-162.67 539.448-515.12 854.056-341.24 387.134 213.97 614.444 97.52 872.754 106.34 206.65 7.06 461.33 241.03 563.39 362.09 20.19-133.79 59.39-416.45 54.66-476.74-5.93-75.37-462.76-233.48-723.07-88.1l-.49.27c-260.1 145.26-485.07 270.9-829.329-26.74Z" fill="url(#w)"/></g><defs><radialGradient id="a" cx="0" cy="0" r="1" gradientUnits="userSpaceOnUse" gradientTransform="rotate(-48.798 967.28 -312.852) scale(656.576 726.636)"><stop stop-color="#fff"/><stop offset="0" stop-color="#fff"/><stop offset="1" stop-color="#DDF1FD" stop-opacity="0"/></radialGradient><radialGradient id="b" cx="0" cy="0" r="1" gradientUnits="userSpaceOnUse" gradientTransform="matrix(457.00048 131.99973 -247.5176 856.93858 -76.5 826.5)"><stop stop-color="#CCCEF1"/><stop offset="1" stop-color="#DDF1FD" stop-opacity="0"/></radialGradient><radialGradient id="c" cx="0" cy="0" r="1" gradientUnits="userSpaceOnUse" gradientTransform="matrix(-526.50132 -563.49834 966.45017 -902.99698 739 1938)"><stop stop-color="#FADFFF"/><stop offset="1" stop-color="#fff" stop-opacity="0"/></radialGradient><radialGradient id="e" cx="0" cy="0" r="1" gradientUnits="userSpaceOnUse" gradientTransform="rotate(21.947 -2312.702 717.324) scale(647.956 1215.01)"><stop stop-color="#CCCEF1"/><stop offset="1" stop-color="#DDF1FD" stop-opacity="0"/></radialGradient><radialGradient id="f" cx="0" cy="0" r="1" gradientUnits="userSpaceOnUse" gradientTransform="matrix(1408.37189 -422.49966 806.18538 2687.3603 1722.38 1636.5)"><stop stop-color="#FADFFF"/><stop offset="1" stop-color="#fff" stop-opacity="0"/></radialGradient><radialGradient id="g" cx="0" cy="0" r="1" gradientUnits="userSpaceOnUse" gradientTransform="rotate(36.048 433.523 1899) scale(920.195 967.813)"><stop stop-color="#F1EFFF"/><stop offset="1" stop-color="#EDF8FF"/></radialGradient><radialGradient id="h" cx="0" cy="0" r="1" gradientUnits="userSpaceOnUse" gradientTransform="rotate(-54.427 948.58 -1333.029) scale(468.42 471.69)"><stop stop-color="#fff"/><stop offset="1" stop-color="#F3F4FC"/></radialGradient><radialGradient id="i" cx="0" cy="0" r="1" gradientUnits="userSpaceOnUse" gradientTransform="rotate(-48.798 1526.147 -59.352) scale(656.576 726.636)"><stop stop-color="#fff"/><stop offset="0" stop-color="#fff"/><stop offset="1" stop-color="#DDF1FD" stop-opacity="0"/></radialGradient><radialGradient id="j" cx="0" cy="0" r="1" gradientUnits="userSpaceOnUse" gradientTransform="matrix(496.49986 281.50011 -527.85001 931.00302 -76.5 1721.5)"><stop stop-color="#CCCEF1"/><stop offset="1" stop-color="#DDF1FD" stop-opacity="0"/></radialGradient><radialGradient id="k" cx="0" cy="0" r="1" gradientUnits="userSpaceOnUse" gradientTransform="rotate(-136.783 1801.73 665.586) scale(722.451 1239.52)"><stop stop-color="#FADFFF"/><stop offset="1" stop-color="#fff" stop-opacity="0"/></radialGradient><linearGradient id="d" x1="1920" y1="78.5" x2="1160.03" y2="199.313" gradientUnits="userSpaceOnUse"><stop stop-color="#fff"/><stop offset="0" stop-color="#fff"/><stop offset="1" stop-color="#DDF1FD" stop-opacity="0"/></linearGradient><linearGradient id="l" x1="1486.07" y1="1250.9" x2="165.553" y2="1342.64" gradientUnits="userSpaceOnUse"><stop stop-color="#DFF0FA"/><stop offset="1" stop-color="#FCF1FF"/></linearGradient><linearGradient id="m" x1="1478.13" y1="1204.9" x2="159.281" y2="1319.68" gradientUnits="userSpaceOnUse"><stop stop-color="#E8F6FE"/><stop offset="1" stop-color="#F7DEFF"/></linearGradient><linearGradient id="o" x1="153.592" y1="1277.41" x2="1621.5" y2="1165.79" gradientUnits="userSpaceOnUse"><stop stop-color="#FAE9FF"/><stop offset="1" stop-color="#E2F0F9"/></linearGradient><linearGradient id="p" x1="433.926" y1="3982.9" x2="1754.45" y2="4074.64" gradientUnits="userSpaceOnUse"><stop stop-color="#DFF0FA"/><stop offset="1" stop-color="#FCF1FF"/></linearGradient><linearGradient id="q" x1="441.873" y1="3936.9" x2="1760.72" y2="4051.68" gradientUnits="userSpaceOnUse"><stop stop-color="#E8F6FE"/><stop offset="1" stop-color="#F7DEFF"/></linearGradient><linearGradient id="s" x1="1766.41" y1="4009.41" x2="298.5" y2="3897.79" gradientUnits="userSpaceOnUse"><stop stop-color="#FAE9FF"/><stop offset="1" stop-color="#E2F0F9"/></linearGradient><linearGradient id="t" x1="316.638" y1="8577.88" x2="1637.16" y2="8669.62" gradientUnits="userSpaceOnUse"><stop stop-color="#DFF0FA"/><stop offset="1" stop-color="#FCF1FF"/></linearGradient><linearGradient id="u" x1="335.591" y1="8532.5" x2="1685.68" y2="8651.11" gradientUnits="userSpaceOnUse"><stop stop-color="#E8F6FE"/><stop offset="1" stop-color="#F7DEFF"/></linearGradient><linearGradient id="w" x1="1649.12" y1="8604.38" x2="181.212" y2="8492.77" gradientUnits="userSpaceOnUse"><stop stop-color="#FAE9FF"/><stop offset="1" stop-color="#E2F0F9"/></linearGradient><filter id="n" x="-389.537" y="1161.77" width="2445.25" height="844.64" filterUnits="userSpaceOnUse" color-interpolation-filters="sRGB"><feFlood flood-opacity="0" result="BackgroundImageFix"/><feColorMatrix in="SourceAlpha" values="0 0 0 0 0 0 0 0 0 0 0 0 0 0 0 0 0 0 127 0" result="hardAlpha"/><feOffset dy="30"/><feGaussianBlur stdDeviation="25"/><feColorMatrix values="0 0 0 0 0 0 0 0 0 0.108333 0 0 0 0 0.270833 0 0 0 0.07 0"/><feBlend in2="BackgroundImageFix" result="effect1_dropShadow_1103_359724"/><feBlend in="SourceGraphic" in2="effect1_dropShadow_1103_359724" result="shape"/></filter><filter id="r" x="-135.712" y="3893.77" width="2445.25" height="844.639" filterUnits="userSpaceOnUse" color-interpolation-filters="sRGB"><feFlood flood-opacity="0" result="BackgroundImageFix"/><feColorMatrix in="SourceAlpha" values="0 0 0 0 0 0 0 0 0 0 0 0 0 0 0 0 0 0 127 0" result="hardAlpha"/><feOffset dy="30"/><feGaussianBlur stdDeviation="25"/><feColorMatrix values="0 0 0 0 0 0 0 0 0 0.108333 0 0 0 0 0.270833 0 0 0 0.07 0"/><feBlend in2="BackgroundImageFix" result="effect1_dropShadow_1103_359724"/><feBlend in="SourceGraphic" in2="effect1_dropShadow_1103_359724" result="shape"/></filter><filter id="v" x="-253" y="8488.75" width="2445.25" height="844.639" filterUnits="userSpaceOnUse" color-interpolation-filters="sRGB"><feFlood flood-opacity="0" result="BackgroundImageFix"/><feColorMatrix in="SourceAlpha" values="0 0 0 0 0 0 0 0 0 0 0 0 0 0 0 0 0 0 127 0" result="hardAlpha"/><feOffset dy="30"/><feGaussianBlur stdDeviation="25"/><feColorMatrix values="0 0 0 0 0 0 0 0 0 0.108333 0 0 0 0 0.270833 0 0 0 0.07 0"/><feBlend in2="BackgroundImageFix" result="effect1_dropShadow_1103_359724"/><feBlend in="SourceGraphic" in2="effect1_dropShadow_1103_359724" result="shape"/></filter></defs></svg>