<svg width="66" height="70" fill="none" xmlns="http://www.w3.org/2000/svg"><circle cx="33" cy="33" r="33" fill="#fff"/><g filter="url(#a)"><path d="m25.086 22.798 3.543-3.543 6.832 6.831-3.544 3.544-6.831-6.832Z" fill="#807DD7"/><path d="m23.053 22.485 5.262-5.262 2.344 2.344-5.262 5.262-2.344-2.344Z" fill="#99C6FC"/><path d="M36.145 40.988a4.716 4.716 0 0 1-4.711-4.711 4.688 4.688 0 0 1 2.978-4.383L32.318 26.6a10.389 10.389 0 0 0-4.732 3.76 10.348 10.348 0 0 0-1.846 5.917c0 5.737 4.668 10.404 10.405 10.404l1.312-2.812-1.313-2.881Z" fill="#A2A0E1"/><path d="M36.145 46.68h3.496l-2.184-5.693h-1.313v5.694Z" fill="#807DD7"/><path d="M37.453 51.998h6.242v-9.57l-6.242 1.44v8.13Z" fill="#6863D0"/><path d="M37.453 40.987h10.041v2.881h-10.04v-2.88Z" fill="#474D52"/><path d="M36.14 50.559h-9.848v2.88h9.847L37.453 52l-1.313-1.44Z" fill="#5D6368"/><path d="m33.35 31.063 3.543-3.543 7.027 7.027-3.543 3.543-7.027-7.027Z" fill="#6863D0"/><path d="m36.14 25.044-3.428-3.428-5.264 5.263 8.692 8.691 1.748-4.452-1.748-6.074Z" fill="#99C6FC"/><path d="m36.145 35.57 1.622 1.623 5.263-5.263-6.886-6.886V35.57Z" fill="#79B6FC"/></g><defs><filter id="a" x="3.273" y="7" width="64" height="64" filterUnits="userSpaceOnUse" color-interpolation-filters="sRGB"><feFlood flood-opacity="0" result="BackgroundImageFix"/><feColorMatrix in="SourceAlpha" values="0 0 0 0 0 0 0 0 0 0 0 0 0 0 0 0 0 0 127 0" result="hardAlpha"/><feOffset dy="4"/><feGaussianBlur stdDeviation="6"/><feColorMatrix values="0 0 0 0 0 0 0 0 0 0 0 0 0 0 0 0 0 0 0.2 0"/><feBlend in2="BackgroundImageFix" result="effect1_dropShadow_1309_197393"/><feBlend in="SourceGraphic" in2="effect1_dropShadow_1309_197393" result="shape"/></filter></defs></svg>