<svg width="66" height="67" fill="none" xmlns="http://www.w3.org/2000/svg"><circle cx="33" cy="33" r="33" fill="#fff"/><g filter="url(#a)"><path d="m33.282 40.55-5.003 10.006c-5.526 0-10.006-4.48-10.006-10.006 0-5.525 4.48-10.005 10.006-10.005l5.003 10.005Z" fill="#fff"/><path d="M38.288 40.55c0 5.526-4.48 10.006-10.006 10.006V30.545c5.526 0 10.006 4.48 10.006 10.005Z" fill="#F0F0F2"/><path d="m30.25 42.746-1.968 4.681a4.68 4.68 0 0 1-4.68-4.68c0-2.586 4.68-9.28 4.68-9.28l1.968 9.28Z" fill="#FF3D4F"/><path d="M32.962 42.746a4.68 4.68 0 0 1-4.68 4.681v-13.96s4.68 6.694 4.68 9.28Z" fill="#EB363A"/><path d="m41.758 17.315 2.459 11.162-2.459 6.191-4.916-4.916V17.315h4.916Z" fill="#fff"/><path d="M41.754 17.315v17.353l4.916-4.916V17.315h-4.916Z" fill="#F0F0F2"/><path d="M41.756 19.632h-6.13V15h6.13l3.065 2.561-3.065 2.07Z" fill="#FFE78D"/><path d="M41.755 15h6.13v4.632h-6.13V15Z" fill="#FFEE52"/><path d="m41.758 29.752 2.459 6.3-2.459 14.504a4.917 4.917 0 0 1-4.916-4.917V29.752h4.916Z" fill="#FF909E"/><path d="M41.755 29.752v20.804a4.917 4.917 0 0 0 4.916-4.917V29.752h-4.916Z" fill="#FF3D4F"/><path d="M41.757 39.98H39.3V25.816h2.458l1.23 7.834-1.23 6.332Z" fill="#9491EB"/><path d="M41.754 25.814h2.458v14.167h-2.458V25.814Z" fill="#7C77E4"/></g><defs><filter id="a" x="1.273" y="5" width="64" height="64" filterUnits="userSpaceOnUse" color-interpolation-filters="sRGB"><feFlood flood-opacity="0" result="BackgroundImageFix"/><feColorMatrix in="SourceAlpha" values="0 0 0 0 0 0 0 0 0 0 0 0 0 0 0 0 0 0 127 0" result="hardAlpha"/><feOffset dy="4"/><feGaussianBlur stdDeviation="6"/><feColorMatrix values="0 0 0 0 0 0 0 0 0 0 0 0 0 0 0 0 0 0 0.2 0"/><feBlend in2="BackgroundImageFix" result="effect1_dropShadow_1309_197411"/><feBlend in="SourceGraphic" in2="effect1_dropShadow_1309_197411" result="shape"/></filter></defs></svg>