<svg width="66" height="69" fill="none" xmlns="http://www.w3.org/2000/svg"><circle cx="33" cy="33" r="33" fill="#fff"/><g clip-path="url(#a)" filter="url(#b)"><path d="M33.273 53c11.046 0 20-8.954 20-20s-8.954-20-20-20c-11.045 0-20 8.954-20 20s8.955 20 20 20Z" fill="#FFB31E"/><path d="M53.273 33c0-.619-.028-1.231-.083-1.836l-9.256-9.111-21.359 21.855 8.954 9.017c.575.05 1.156.075 1.744.075 11.046 0 20-8.954 20-20Z" fill="#FF7B2D"/><path d="M33.273 17.719c-8.44 0-15.28 6.842-15.28 15.281 0 8.44 6.84 15.281 15.28 15.281h.026V17.719h-.026Z" fill="#fff"/><path d="M33.273 17.719c8.44 0 15.281 6.842 15.281 15.281 0 8.44-6.841 15.281-15.28 15.281V17.719Z" fill="#E9EDF5"/><path d="M31.906 22.523H33.3v10.385h-1.394V22.523Z" fill="#326EFA"/><path d="M33.273 22.523h1.368v10.385h-1.368V22.523Z" fill="#315299"/><path d="M33.05 31.633h10.385v2.734H33.051v-2.734Z" fill="#315299"/><path d="M33.273 30.505a2.495 2.495 0 1 0 0 4.99h.026v-4.99h-.026Z" fill="#54A2FF"/><path d="M33.273 35.496a2.495 2.495 0 1 0 0-4.991v4.99Z" fill="#326EFA"/><path d="M31.188 47.129a14.168 14.168 0 0 1-4.494-1.452l1.01-1.943a12 12 0 0 0 3.802 1.228l-.318 2.167Zm-6.497-2.716a14.318 14.318 0 0 1-3.252-3.42l1.814-1.227a12.134 12.134 0 0 0 2.755 2.898l-1.317 1.75ZM20.28 38.93a14.178 14.178 0 0 1-1.221-4.562l2.18-.207a11.992 11.992 0 0 0 1.033 3.858l-1.992.91Zm.933-6.776-2.185-.15a14.19 14.19 0 0 1 1.101-4.593l2.015.858a12.007 12.007 0 0 0-.931 3.885Zm1.867-5.658-1.845-1.18a14.315 14.315 0 0 1 3.162-3.503l1.363 1.714a12.13 12.13 0 0 0-2.68 2.97Zm4.347-4.082-1.06-1.916a14.195 14.195 0 0 1 3.825-1.445l.47 2.138a12 12 0 0 0-3.235 1.223Z" fill="#6D7382"/><path d="m33.55 47.278-.042-2.19a12.047 12.047 0 0 0 3.928-.732l.754 2.056a14.232 14.232 0 0 1-4.64.866Zm6.788-1.864-1.085-1.902a12.116 12.116 0 0 0 3.1-2.526l1.644 1.447a14.302 14.302 0 0 1-3.659 2.981Zm5.071-4.882-1.86-1.156a11.987 11.987 0 0 0 1.518-3.695l2.136.483a14.176 14.176 0 0 1-1.794 4.368ZM47.554 33h-2.19c0-6.667-5.424-12.091-12.09-12.091v-2.19c7.874 0 14.28 6.406 14.28 14.28Z" fill="#4B535C"/></g><defs><clipPath id="a"><path fill="#fff" transform="translate(13.273 13)" d="M0 0h40v40H0z"/></clipPath><filter id="b" x="1.273" y="5" width="64" height="64" filterUnits="userSpaceOnUse" color-interpolation-filters="sRGB"><feFlood flood-opacity="0" result="BackgroundImageFix"/><feColorMatrix in="SourceAlpha" values="0 0 0 0 0 0 0 0 0 0 0 0 0 0 0 0 0 0 127 0" result="hardAlpha"/><feOffset dy="4"/><feGaussianBlur stdDeviation="6"/><feColorMatrix values="0 0 0 0 0 0 0 0 0 0 0 0 0 0 0 0 0 0 0.2 0"/><feBlend in2="BackgroundImageFix" result="effect1_dropShadow_1309_197369"/><feBlend in="SourceGraphic" in2="effect1_dropShadow_1309_197369" result="shape"/></filter></defs></svg>