<svg width="41" height="43" fill="none" xmlns="http://www.w3.org/2000/svg"><g filter="url(#a)"><ellipse cx="20.89" cy="20" rx="19.941" ry="20" fill="#fff" fill-opacity=".8"/><path d="M40.331 20c0 10.77-8.705 19.5-19.44 19.5-10.736 0-19.442-8.73-19.442-19.5S10.155.5 20.89.5C31.626.5 40.331 9.23 40.331 20Z" stroke="#fff"/></g><g filter="url(#b)"><ellipse cx="20.813" cy="19.923" rx="19.864" ry="19.923" fill="url(#c)" fill-opacity=".4"/><path d="M39.678 19.923c0 10.454-8.45 18.923-18.865 18.923S1.95 30.376 1.95 19.923C1.95 9.469 10.398 1 20.813 1 31.23 1 39.678 9.47 39.678 19.923Z" stroke="url(#d)" stroke-width="2"/></g><g clip-path="url(#e)" filter="url(#f)"><path d="m9.908 26.563 3.38 3.374a.387.387 0 0 1 0 .547l-.012.013a.388.388 0 0 1-.549 0l-3.38-3.374a.386.386 0 0 1 0-.547l.013-.013a.389.389 0 0 1 .548 0Zm19.322-16.26a.304.304 0 0 1 .216.519l-4.138 4.13a.305.305 0 0 1-.43-.43l4.137-4.13a.308.308 0 0 1 .216-.089Z" fill="#737373"/><path d="m23.127 15.352.821-.82a.64.64 0 0 1 .904 0l.488.488c.25.249.25.653 0 .902l-.82.82" fill="#D7E4EF"/><path d="M19.515 16.72a4.565 4.565 0 0 1 3.578-1.319c.736.057 1.32.64 1.378 1.375a4.546 4.546 0 0 1-1.322 3.571l-6.473 6.46-3.634-3.626 6.473-6.46Z" fill="#D7E4EF"/><path d="m13.855 23.991 1.329-1.326.734-.732 4.41-4.402a4.565 4.565 0 0 1 3.579-1.32c.16.013.314.05.456.11a1.498 1.498 0 0 0-1.268-.92 4.565 4.565 0 0 0-3.579 1.32l-4.41 4.401-2.063 2.06.812.81Z" fill="#C1CCD6"/><path d="M17.125 19.105s1.135-.062 1.926 1.705c.792 1.766 1.817 1.813 1.817 1.813l2.28-2.276a4.546 4.546 0 0 0 1.323-3.572 1.497 1.497 0 0 0-1.378-1.374 4.565 4.565 0 0 0-3.578 1.319l-2.39 2.385Z" fill="#5B9ED6"/><path d="m18.238 19.616 2.09-2.085a4.565 4.565 0 0 1 3.579-1.32c.16.013.314.05.456.11a1.498 1.498 0 0 0-1.268-.92 4.565 4.565 0 0 0-3.579 1.32l-2.389 2.384s.526-.028 1.111.511Z" fill="#4F8ABA"/><path d="m12.492 22.63 4.735 4.728a.476.476 0 0 1 0 .673l-.015.016a.478.478 0 0 1-.675 0L11.8 23.32a.476.476 0 0 1 0-.673l.015-.016a.478.478 0 0 1 .675 0Z" fill="#B1BAC4"/><path d="m12.301 23.82.691-.69-.493-.492a.49.49 0 0 0-.691.69l.493.492Z" fill="#8F969E"/><path d="m15.453 26.966-2.571 2.566-2.571-2.566 2.571-2.566 2.571 2.566Z" fill="#BDBDBD"/><path d="m12.882 29.532.436-.435-1.35-1.347a.714.714 0 0 1 0-1.012l1.629-1.625 1.856 1.853-2.571-2.566-2.571 2.566 2.571 2.566Z" fill="#A1A1A1"/><path d="M17.026 24.321a.3.3 0 0 1 .215.09l.896.894a.305.305 0 0 1-.43.43l-.896-.895a.303.303 0 0 1 .215-.519Zm1.07-1.068c.078 0 .156.03.216.089l.896.894a.305.305 0 0 1-.43.43l-.897-.894a.303.303 0 0 1 .215-.519Zm.261-1.872a.3.3 0 0 1 .215.09l1.702 1.698a.304.304 0 1 1-.43.43l-1.702-1.7a.303.303 0 0 1 .215-.518Zm1.876-.263c.078 0 .156.03.216.09l.895.893a.304.304 0 1 1-.43.43l-.896-.894a.304.304 0 0 1 .215-.519Zm1.07-1.068c.078 0 .156.03.216.089l.896.894a.303.303 0 1 1-.43.43l-.897-.895a.303.303 0 0 1 .215-.518Zm.265-1.873a.3.3 0 0 1 .215.09l1.702 1.698a.305.305 0 0 1-.43.43l-1.702-1.7a.303.303 0 0 1 .215-.518Z" fill="#737373"/></g><defs><filter id="a" x="-3.051" y="-4" width="47.883" height="48" filterUnits="userSpaceOnUse" color-interpolation-filters="sRGB"><feFlood flood-opacity="0" result="BackgroundImageFix"/><feGaussianBlur in="BackgroundImageFix" stdDeviation="2"/><feComposite in2="SourceAlpha" operator="in" result="effect1_backgroundBlur_1150_653878"/><feBlend in="SourceGraphic" in2="effect1_backgroundBlur_1150_653878" result="shape"/></filter><filter id="b" x="-14.051" y="-15" width="69.727" height="69.846" filterUnits="userSpaceOnUse" color-interpolation-filters="sRGB"><feFlood flood-opacity="0" result="BackgroundImageFix"/><feGaussianBlur in="BackgroundImageFix" stdDeviation="7.5"/><feComposite in2="SourceAlpha" operator="in" result="effect1_backgroundBlur_1150_653878"/><feBlend in="SourceGraphic" in2="effect1_backgroundBlur_1150_653878" result="shape"/></filter><filter id="f" x="0" y="6" width="39" height="37" filterUnits="userSpaceOnUse" color-interpolation-filters="sRGB"><feFlood flood-opacity="0" result="BackgroundImageFix"/><feColorMatrix in="SourceAlpha" values="0 0 0 0 0 0 0 0 0 0 0 0 0 0 0 0 0 0 127 0" result="hardAlpha"/><feOffset dy="4"/><feGaussianBlur stdDeviation="4"/><feColorMatrix values="0 0 0 0 0 0 0 0 0 0 0 0 0 0 0 0 0 0 0.25 0"/><feBlend in2="BackgroundImageFix" result="effect1_dropShadow_1150_653878"/><feBlend in="SourceGraphic" in2="effect1_dropShadow_1150_653878" result="shape"/></filter><linearGradient id="c" x1="27.496" y1="15.3" x2="-1.906" y2="58.432" gradientUnits="userSpaceOnUse"><stop stop-color="#fff"/><stop offset="1" stop-color="#D1E4F0"/></linearGradient><linearGradient id="d" x1="33.555" y1="-9.83" x2="18.82" y2="36.616" gradientUnits="userSpaceOnUse"><stop stop-color="#DEE5F8"/><stop offset="1" stop-color="#fff"/></linearGradient><clipPath id="e"><path fill="#fff" transform="rotate(-180 15.5 15.5)" d="M0 0h23v21H0z"/></clipPath></defs></svg>