<svg width="158" height="60" viewBox="0 0 158 60" fill="none" xmlns="http://www.w3.org/2000/svg">
<g opacity="0.4" filter="url(#filter0_d_1219_45695)">
<circle cx="69" cy="30" r="19" fill="white"/>
<circle cx="69" cy="30" r="18.5" stroke="black"/>
<circle cx="69" cy="30" r="18.5" stroke="url(#paint0_linear_1219_45695)"/>
</g>
<g filter="url(#filter1_d_1219_45695)">
<path d="M76.9386 26.6404L67.6383 35.9386C67.5564 36.0205 67.4237 36.0205 67.342 35.9386L62.0613 30.6588C61.9796 30.5773 61.9796 30.4447 62.0613 30.3628L63.3444 29.08C63.4264 28.9983 63.559 28.9983 63.6407 29.08L66.7833 32.2217C67.1738 32.6121 67.8068 32.6121 68.1973 32.2217L75.3593 25.0613C75.4414 24.9796 75.5737 24.9796 75.6556 25.0613L76.9386 26.3441C77.0205 26.4258 77.0205 26.5583 76.9386 26.6404Z" fill="url(#paint1_linear_1219_45695)"/>
<path d="M77.3633 27.0642L77.3628 27.0647L68.0625 36.3629C67.7467 36.6786 67.2342 36.6795 66.9178 36.3629C66.9177 36.3628 66.9177 36.3628 66.9176 36.3627C66.9175 36.3626 66.9174 36.3625 66.9173 36.3624L61.6376 31.0837L77.3633 27.0642ZM77.3633 27.0642C77.6783 26.7485 77.6798 26.2363 77.3625 25.9196C77.3624 25.9195 77.3624 25.9194 77.3623 25.9193L76.0799 24.637L76.0793 24.6365C75.7629 24.3209 75.252 24.3216 74.9361 24.636L74.9351 24.637L67.7731 31.7974C67.6169 31.9535 67.3637 31.9535 67.2075 31.7974L64.0649 28.6557C64.0649 28.6557 64.0649 28.6556 64.0649 28.6556C63.7486 28.3394 63.2365 28.3401 62.9207 28.6552L62.9202 28.6557L61.6371 29.9385L61.6366 29.939M77.3633 27.0642L61.6366 29.939M61.6366 29.939C61.3219 30.2544 61.3203 30.7666 61.6371 31.0832L61.6366 29.939Z" stroke="url(#paint2_linear_1219_45695)" stroke-width="1.2"/>
</g>
<defs>
<filter id="filter0_d_1219_45695" x="0" y="-39" width="158" height="158" filterUnits="userSpaceOnUse" color-interpolation-filters="sRGB">
<feFlood flood-opacity="0" result="BackgroundImageFix"/>
<feColorMatrix in="SourceAlpha" type="matrix" values="0 0 0 0 0 0 0 0 0 0 0 0 0 0 0 0 0 0 127 0" result="hardAlpha"/>
<feOffset dx="10" dy="10"/>
<feGaussianBlur stdDeviation="30"/>
<feColorMatrix type="matrix" values="0 0 0 0 0.481562 0 0 0 0 0.688006 0 0 0 0 0.8375 0 0 0 0.3 0"/>
<feBlend mode="normal" in2="BackgroundImageFix" result="effect1_dropShadow_1219_45695"/>
<feBlend mode="normal" in="SourceGraphic" in2="effect1_dropShadow_1219_45695" result="shape"/>
</filter>
<filter id="filter1_d_1219_45695" x="56.7998" y="23.8" width="25.4004" height="21.3999" filterUnits="userSpaceOnUse" color-interpolation-filters="sRGB">
<feFlood flood-opacity="0" result="BackgroundImageFix"/>
<feColorMatrix in="SourceAlpha" type="matrix" values="0 0 0 0 0 0 0 0 0 0 0 0 0 0 0 0 0 0 127 0" result="hardAlpha"/>
<feOffset dy="4"/>
<feGaussianBlur stdDeviation="2"/>
<feColorMatrix type="matrix" values="0 0 0 0 0 0 0 0 0 0 0 0 0 0 0 0 0 0 0.08 0"/>
<feBlend mode="normal" in2="BackgroundImageFix" result="effect1_dropShadow_1219_45695"/>
<feBlend mode="normal" in="SourceGraphic" in2="effect1_dropShadow_1219_45695" result="shape"/>
</filter>
<linearGradient id="paint0_linear_1219_45695" x1="65.0047" y1="-4.26226" x2="93.3894" y2="26.4835" gradientUnits="userSpaceOnUse">
<stop stop-color="#DCD4FD"/>
<stop offset="1" stop-color="#EBECFA"/>
</linearGradient>
<linearGradient id="paint1_linear_1219_45695" x1="75" y1="25" x2="68.5" y2="39" gradientUnits="userSpaceOnUse">
<stop stop-color="#47BF0E"/>
<stop offset="0.817708" stop-color="#8CE363"/>
<stop offset="1" stop-color="#9CEB75"/>
</linearGradient>
<linearGradient id="paint2_linear_1219_45695" x1="82.5" y1="18" x2="68.5" y2="39" gradientUnits="userSpaceOnUse">
<stop stop-color="#9CEB75"/>
<stop offset="1" stop-color="#47BF0E"/>
</linearGradient>
</defs>
</svg>
