<svg width="48" height="48" viewBox="0 0 48 48" fill="none" xmlns="http://www.w3.org/2000/svg">
<g clip-path="url(#clip0_1221_45614)" filter="url(#filter0_d_1221_45614)">
<path d="M13.2414 12.1379H34.7586C35.4443 12.1379 36 12.6936 36 13.3793V29.1035C36 29.7891 35.4443 30.3448 34.7586 30.3448H13.2414C12.5557 30.3448 12 29.7891 12 29.1035V13.3793C12 12.6936 12.5557 12.1379 13.2414 12.1379Z" fill="#4398D1"/>
<path d="M34.7585 12.1379H34.2371C28.084 20.8524 18.062 26.5835 12.0537 29.4428C12.2047 29.9741 12.6889 30.3419 13.2413 30.3448H34.7585C35.4441 30.3448 35.9999 29.7891 35.9999 29.1035V13.3793C35.9999 12.6936 35.4442 12.1379 34.7585 12.1379Z" fill="#3E8CC7"/>
<path d="M23.9996 27.8624C27.6561 27.8624 30.6203 24.8983 30.6203 21.2418C30.6203 17.5853 27.6561 14.6211 23.9996 14.6211C20.3431 14.6211 17.3789 17.5853 17.3789 21.2418C17.3789 24.8983 20.3431 27.8624 23.9996 27.8624Z" fill="white"/>
<path d="M28.5517 12.1379V9.65516C28.5517 8.74109 27.8106 8 26.8965 8H21.1034C20.1893 8 19.4482 8.74109 19.4482 9.65516V12.1379H21.1034V10.069C21.1034 9.84055 21.2888 9.65516 21.5172 9.65516H26.4827C26.7112 9.65516 26.8965 9.84055 26.8965 10.069V12.1379H28.5517Z" fill="#215280"/>
<path d="M27.7236 20.0004H25.2409V17.5176H22.7581V20.0004H20.2754V22.4831H22.7581V24.9659H25.2409V22.4831H27.7236V20.0004Z" fill="#FF7872"/>
<path d="M15.0617 10.4824H17.2134C17.5333 10.4824 17.7927 10.7419 17.7927 11.0617V12.1376H14.4824V11.0617C14.4824 10.7418 14.7418 10.4824 15.0617 10.4824Z" fill="#D1D1D1"/>
<path d="M30.7864 10.4824H32.9381C33.2579 10.4824 33.5174 10.7419 33.5174 11.0617V12.1376H30.207V11.0617C30.2071 10.7418 30.4665 10.4824 30.7864 10.4824Z" fill="#D1D1D1"/>
<path d="M16.9656 30.345H13.6553V32.0001H16.9656V30.345Z" fill="#215280"/>
<path d="M34.3445 30.345H31.0342V32.0001H34.3445V30.345Z" fill="#215280"/>
</g>
<defs>
<filter id="filter0_d_1221_45614" x="0" y="0" width="48" height="48" filterUnits="userSpaceOnUse" color-interpolation-filters="sRGB">
<feFlood flood-opacity="0" result="BackgroundImageFix"/>
<feColorMatrix in="SourceAlpha" type="matrix" values="0 0 0 0 0 0 0 0 0 0 0 0 0 0 0 0 0 0 127 0" result="hardAlpha"/>
<feOffset dy="4"/>
<feGaussianBlur stdDeviation="6"/>
<feColorMatrix type="matrix" values="0 0 0 0 0 0 0 0 0 0 0 0 0 0 0 0 0 0 0.2 0"/>
<feBlend mode="normal" in2="BackgroundImageFix" result="effect1_dropShadow_1221_45614"/>
<feBlend mode="normal" in="SourceGraphic" in2="effect1_dropShadow_1221_45614" result="shape"/>
</filter>
<clipPath id="clip0_1221_45614">
<rect width="24" height="24" fill="white" transform="translate(12 8)"/>
</clipPath>
</defs>
</svg>
