<svg width="66" height="66" viewBox="0 0 66 66" fill="none" xmlns="http://www.w3.org/2000/svg">
<circle cx="33" cy="33" r="33" fill="white"/>
<g clip-path="url(#clip0_1084_73716)" filter="url(#filter0_d_1084_73716)">
<path d="M23.6788 39.2991L27.0593 42.6731C27.2107 42.8241 27.2107 43.0692 27.0593 43.2204L27.0465 43.2331C26.8951 43.3844 26.6495 43.3844 26.498 43.2331L23.1176 39.8594C22.9661 39.7082 22.9661 39.4631 23.1176 39.312L23.1304 39.2991C23.2819 39.1481 23.5275 39.1481 23.6788 39.2991Z" fill="#737373"/>
<path d="M43.0026 23.0395C43.0806 23.0395 43.1585 23.0693 43.2179 23.1286C43.3369 23.2471 43.3369 23.4395 43.2179 23.5582L39.0799 27.6882C38.961 27.8069 38.7682 27.8069 38.6493 27.6882C38.5305 27.5695 38.5305 27.3771 38.6493 27.2586L42.7873 23.1286C42.8468 23.0693 42.9247 23.0395 43.0026 23.0395Z" fill="#737373"/>
<path d="M36.9007 28.0883L37.7216 27.269C37.9714 27.0199 38.3761 27.0199 38.6257 27.269L39.1136 27.7561C39.3632 28.0052 39.3632 28.4091 39.1136 28.6583L38.2927 29.4775" fill="#D7E4EF"/>
<path d="M33.2872 29.4566C34.2296 28.516 35.5372 28.034 36.866 28.1375C37.6015 28.1946 38.1858 28.7778 38.243 29.5119C38.3466 30.8379 37.8636 32.1429 36.9212 33.0835L30.4481 39.5439L26.8141 35.9172L33.2872 29.4566Z" fill="#D7E4EF"/>
<path d="M27.6255 36.7273L28.9543 35.4011L29.6883 34.6687L34.0988 30.2668C35.0412 29.3262 36.3488 28.8443 37.6774 28.9476C37.8381 28.9601 37.9914 28.9976 38.1338 29.0564C37.923 28.5482 37.4405 28.1821 36.8657 28.1375C35.5369 28.034 34.2293 28.5161 33.2869 29.4565L28.8766 33.8584L26.8138 35.9172L27.6255 36.7273Z" fill="#C1CCD6"/>
<path d="M30.8978 31.8413C30.8978 31.8413 32.0321 31.7796 32.8237 33.5463C33.615 35.3128 34.6405 35.3596 34.6405 35.3596L36.9212 33.0835C37.8636 32.1429 38.3466 30.838 38.243 29.5118C38.1856 28.7777 37.6015 28.1945 36.866 28.1374C35.5372 28.034 34.2296 28.516 33.2872 29.4566L30.8978 31.8413Z" fill="#5B9ED6"/>
<path d="M32.009 32.3524L34.0988 30.2669C35.0412 29.3263 36.3488 28.8443 37.6774 28.9477C37.8381 28.9602 37.9914 28.9977 38.1338 29.0564C37.923 28.5482 37.4405 28.1821 36.8657 28.1375C35.5369 28.034 34.2293 28.5162 33.2869 29.4566L30.8976 31.8415C30.8976 31.8413 31.4235 31.8129 32.009 32.3524Z" fill="#4F8ABA"/>
<path d="M26.263 35.3672L30.9988 40.094C31.1853 40.2801 31.1853 40.5817 30.9988 40.7676L30.9832 40.7833C30.7967 40.9694 30.4945 40.9694 30.3081 40.7833L25.5722 36.0567C25.3857 35.8706 25.3857 35.5689 25.5722 35.383L25.5879 35.3672C25.7743 35.1813 26.0765 35.1813 26.263 35.3672Z" fill="#B1BAC4"/>
<path d="M26.0734 36.5566L26.7642 35.8672L26.2707 35.3747C26.0799 35.1843 25.7707 35.1843 25.5799 35.3747C25.3891 35.5651 25.3891 35.8737 25.5799 36.0641L26.0734 36.5566Z" fill="#8F969E"/>
<path d="M29.2261 39.7034L26.6549 42.2695L24.0838 39.7034L26.6549 37.1373L29.2261 39.7034Z" fill="#BDBDBD"/>
<path d="M26.6549 42.2695L27.0913 41.8342L25.7415 40.4871C25.4616 40.2076 25.4616 39.7547 25.7415 39.4754L27.3695 37.8504L29.2261 39.7034L26.6549 37.1373L24.0838 39.7034L26.6549 42.2695Z" fill="#A1A1A1"/>
<path d="M30.7987 37.0578C30.8766 37.0578 30.9544 37.0876 31.0138 37.1469L31.9098 38.0412C32.0288 38.1597 32.0288 38.3521 31.9098 38.4708C31.7909 38.5895 31.5983 38.5895 31.4794 38.4708L30.5834 37.5765C30.4645 37.4579 30.4645 37.2654 30.5834 37.1469C30.6428 37.0876 30.7208 37.0578 30.7987 37.0578Z" fill="#737373"/>
<path d="M31.869 35.9896C31.9468 35.9896 32.0247 36.0192 32.0841 36.0786L32.9802 36.9728C33.0991 37.0915 33.0991 37.2839 32.9802 37.4024C32.8612 37.5211 32.6684 37.5211 32.5497 37.4024L31.6537 36.5082C31.5348 36.3895 31.5348 36.1972 31.6537 36.0786C31.7131 36.0192 31.7909 35.9896 31.869 35.9896Z" fill="#737373"/>
<path d="M32.133 34.1178C32.2107 34.1178 32.2887 34.1474 32.3481 34.2068L34.0501 35.9053C34.1688 36.024 34.1688 36.2164 34.0501 36.3351C33.9312 36.4536 33.7384 36.4536 33.6195 36.3351L31.9176 34.6364C31.7987 34.5177 31.7987 34.3254 31.9176 34.2068C31.9771 34.1474 32.055 34.1178 32.133 34.1178Z" fill="#737373"/>
<path d="M34.0086 33.8537C34.0866 33.8537 34.1645 33.8835 34.2239 33.9428L35.1198 34.8369C35.2387 34.9556 35.2387 35.148 35.1198 35.2667C35.001 35.3854 34.8082 35.3854 34.6893 35.2667L33.7933 34.3724C33.6746 34.2538 33.6746 34.0613 33.7933 33.9428C33.8528 33.8835 33.9307 33.8537 34.0086 33.8537Z" fill="#737373"/>
<path d="M35.0783 32.7864C35.1562 32.7864 35.2342 32.816 35.2936 32.8753L36.1896 33.7696C36.3085 33.8883 36.3085 34.0807 36.1896 34.1992C36.0707 34.3179 35.8779 34.3179 35.7592 34.1992L34.8632 33.3049C34.7442 33.1864 34.7442 32.994 34.8632 32.8753C34.9226 32.816 35.0005 32.7864 35.0783 32.7864Z" fill="#737373"/>
<path d="M35.3428 30.9137C35.4207 30.9137 35.4987 30.9435 35.5581 31.0028L37.2599 32.7013C37.3788 32.82 37.3788 33.0124 37.2599 33.131C37.141 33.2496 36.9482 33.2496 36.8293 33.131L35.1275 31.4325C35.0086 31.3138 35.0086 31.1214 35.1275 31.0028C35.1869 30.9435 35.2649 30.9137 35.3428 30.9137Z" fill="#737373"/>
</g>
<defs>
<filter id="filter0_d_1084_73716" x="15" y="18.9999" width="36.3467" height="36.3468" filterUnits="userSpaceOnUse" color-interpolation-filters="sRGB">
<feFlood flood-opacity="0" result="BackgroundImageFix"/>
<feColorMatrix in="SourceAlpha" type="matrix" values="0 0 0 0 0 0 0 0 0 0 0 0 0 0 0 0 0 0 127 0" result="hardAlpha"/>
<feOffset dy="4"/>
<feGaussianBlur stdDeviation="4"/>
<feColorMatrix type="matrix" values="0 0 0 0 0 0 0 0 0 0 0 0 0 0 0 0 0 0 0.25 0"/>
<feBlend mode="normal" in2="BackgroundImageFix" result="effect1_dropShadow_1084_73716"/>
<feBlend mode="normal" in="SourceGraphic" in2="effect1_dropShadow_1084_73716" result="shape"/>
</filter>
<clipPath id="clip0_1084_73716">
<rect width="20.3468" height="20.3468" fill="white" transform="translate(43.3467 43.3467) rotate(-180)"/>
</clipPath>
</defs>
</svg>
