<svg width="66" height="66" viewBox="0 0 66 66" fill="none" xmlns="http://www.w3.org/2000/svg">
<circle cx="33" cy="33" r="33" fill="white"/>
<g filter="url(#filter0_d_1084_73837)">
<path d="M41.4678 23.467V48.2449C41.4678 48.3423 41.4291 48.4356 41.3603 48.5045C41.2914 48.5734 41.198 48.6121 41.1006 48.6121H19.9261C19.8779 48.6121 19.8302 48.6026 19.7857 48.5841C19.7411 48.5657 19.7007 48.5386 19.6666 48.5045C19.6326 48.4704 19.6056 48.4299 19.5872 48.3854C19.5689 48.3408 19.5595 48.2931 19.5596 48.2449V17.755C19.5595 17.7068 19.569 17.6591 19.5873 17.6146C19.6057 17.5701 19.6327 17.5296 19.6668 17.4955C19.7008 17.4614 19.7412 17.4343 19.7857 17.4159C19.8302 17.3974 19.8779 17.3879 19.9261 17.3878H35.0235L37.9148 19.6182L39.7705 21.6283L41.4678 23.467Z" fill="#E9E9FF"/>
<path d="M31.7386 21.7473V20.1533C31.7386 19.9506 31.5969 19.7861 31.4221 19.7861H29.6048C29.4299 19.7861 29.2882 19.9505 29.2882 20.1533V21.7473C29.2882 22.1188 29.0286 22.42 28.7083 22.42C28.388 22.42 28.1284 22.7211 28.1284 23.0926V29.3738H32.8985V23.0926C32.8985 22.7211 32.6389 22.42 32.3186 22.42C31.9983 22.42 31.7386 22.1188 31.7386 21.7473Z" fill="#75580E"/>
<path d="M28.1284 23.8553H32.8985V25.338H28.1284V23.8553ZM32.2343 26.5188L34.5982 28.8827L33.091 30.3898C32.9358 30.545 32.7515 30.6681 32.5487 30.7522C32.3459 30.8362 32.1286 30.8794 31.909 30.8794C31.6895 30.8794 31.4722 30.8362 31.2694 30.7522C31.0666 30.6681 30.8823 30.545 30.7271 30.3898C30.5719 30.2346 30.4488 30.0503 30.3648 29.8475C30.2808 29.6447 30.2375 29.4274 30.2375 29.2079C30.2375 28.9884 30.2808 28.771 30.3648 28.5682C30.4488 28.3654 30.5719 28.1811 30.7271 28.0259L32.2343 26.5188Z" fill="#E34844"/>
<path d="M36.1052 25.0108C36.2604 25.166 36.3836 25.3502 36.4677 25.5531C36.5517 25.7559 36.595 25.9733 36.595 26.1928C36.595 26.4123 36.5518 26.6297 36.4678 26.8326C36.3838 27.0354 36.2606 27.2197 36.1054 27.3749L34.5983 28.8819L32.2345 26.518L33.7417 25.0108C34.0551 24.6975 34.4802 24.5215 34.9234 24.5215C35.3666 24.5215 35.7916 24.6975 36.1051 25.0108L36.1052 25.0108ZM30.5126 29.4652C30.1983 30.0518 29.7105 30.5269 29.1158 30.8256C28.5211 31.1243 27.8487 31.232 27.1905 31.1339C26.5323 31.0358 25.9205 30.7368 25.4387 30.2777C24.957 29.8185 24.6289 29.2218 24.4993 28.5691C24.3697 27.9163 24.445 27.2395 24.7148 26.6312C24.9846 26.0229 25.4358 25.5128 26.0066 25.1707C26.5774 24.8286 27.24 24.6712 27.9036 24.7201C28.5673 24.769 29.1997 25.0217 29.7142 25.4438C30.2918 25.9183 30.6871 26.5784 30.8327 27.3117C30.9783 28.0449 30.8651 28.806 30.5126 29.4652Z" fill="#DAE4EB"/>
<path d="M29.7143 25.4437L26.7255 31.0343C26.3192 30.9106 25.941 30.7084 25.6123 30.4392L28.6011 24.8486C29.0075 24.9724 29.3857 25.1746 29.7143 25.4438V25.4437Z" fill="#B6BFD6"/>
<path d="M36.0395 35.1038H28.7635C28.6733 35.1038 28.5869 35.068 28.5231 35.0042C28.4593 34.9405 28.4235 34.854 28.4235 34.7638C28.4235 34.6737 28.4593 34.5872 28.5231 34.5234C28.5869 34.4596 28.6733 34.4238 28.7635 34.4238H36.0395C36.1297 34.4238 36.2162 34.4596 36.2799 34.5234C36.3437 34.5872 36.3795 34.6737 36.3795 34.7638C36.3795 34.854 36.3437 34.9405 36.2799 35.0042C36.2162 35.068 36.1297 35.1038 36.0395 35.1038ZM25.9551 35.1038H24.8068C24.7166 35.1038 24.6301 35.068 24.5664 35.0042C24.5026 34.9405 24.4668 34.854 24.4668 34.7638C24.4668 34.6737 24.5026 34.5872 24.5664 34.5234C24.6301 34.4596 24.7166 34.4238 24.8068 34.4238H25.9551C26.0453 34.4238 26.1318 34.4596 26.1955 34.5234C26.2593 34.5872 26.2951 34.6737 26.2951 34.7638C26.2951 34.854 26.2593 34.9405 26.1955 35.0042C26.1318 35.068 26.0453 35.1038 25.9551 35.1038ZM32.8409 41.5135H28.7635C28.6733 41.5135 28.5869 41.4777 28.5231 41.4139C28.4593 41.3502 28.4235 41.2637 28.4235 41.1735C28.4235 41.0833 28.4593 40.9969 28.5231 40.9331C28.5869 40.8693 28.6733 40.8335 28.7635 40.8335H32.841C32.9312 40.8335 33.0177 40.8693 33.0814 40.9331C33.1452 40.9969 33.181 41.0833 33.181 41.1735C33.181 41.2637 33.1452 41.3502 33.0814 41.4139C33.0177 41.4777 32.9312 41.5135 32.841 41.5135H32.8409ZM25.9551 41.5135H24.8068C24.7166 41.5135 24.6301 41.4777 24.5664 41.4139C24.5026 41.3502 24.4668 41.2637 24.4668 41.1735C24.4668 41.0833 24.5026 40.9969 24.5664 40.9331C24.6301 40.8693 24.7166 40.8335 24.8068 40.8335H25.9551C26.0453 40.8335 26.1318 40.8693 26.1955 40.9331C26.2593 40.9969 26.2951 41.0833 26.2951 41.1735C26.2951 41.2637 26.2593 41.3502 26.1955 41.4139C26.1318 41.4777 26.0453 41.5135 25.9551 41.5135ZM36.0395 38.4407H28.7635C28.6733 38.4407 28.5869 38.4049 28.5231 38.3411C28.4593 38.2774 28.4235 38.1909 28.4235 38.1007C28.4235 38.0106 28.4593 37.9241 28.5231 37.8603C28.5869 37.7965 28.6733 37.7607 28.7635 37.7607H36.0395C36.1297 37.7607 36.2162 37.7965 36.2799 37.8603C36.3437 37.9241 36.3795 38.0106 36.3795 38.1007C36.3795 38.1909 36.3437 38.2774 36.2799 38.3411C36.2162 38.4049 36.1297 38.4407 36.0395 38.4407ZM25.9551 38.4407H24.8068C24.7166 38.4407 24.6301 38.4049 24.5664 38.3411C24.5026 38.2774 24.4668 38.1909 24.4668 38.1007C24.4668 38.0106 24.5026 37.9241 24.5664 37.8603C24.6301 37.7965 24.7166 37.7607 24.8068 37.7607H25.9551C26.0453 37.7607 26.1318 37.7965 26.1955 37.8603C26.2593 37.9241 26.2951 38.0106 26.2951 38.1007C26.2951 38.1909 26.2593 38.2774 26.1955 38.3411C26.1318 38.4049 26.0453 38.4407 25.9551 38.4407Z" fill="#3B4985"/>
<path d="M41.4678 40.0909V44.156L39.2259 46.3979C38.9898 46.634 38.7096 46.8213 38.4011 46.949C38.0927 47.0768 37.7621 47.1425 37.4283 47.1425C37.0944 47.1425 36.7639 47.0768 36.4554 46.949C36.147 46.8213 35.8668 46.634 35.6307 46.3979L33.8926 44.6599C33.7592 44.5264 33.6533 44.368 33.5811 44.1936C33.5089 44.0192 33.4717 43.8323 33.4717 43.6436C33.4717 43.4549 33.5089 43.268 33.5811 43.0936C33.6533 42.9192 33.7592 42.7608 33.8926 42.6273C34.0261 42.4939 34.1845 42.388 34.3589 42.3158C34.5333 42.2436 34.7202 42.2064 34.9089 42.2064C35.0976 42.2064 35.2845 42.2436 35.4589 42.3158C35.6333 42.388 35.7917 42.4939 35.9251 42.6273L37.277 43.9792C37.2968 43.9991 37.3204 44.0148 37.3464 44.0256C37.3724 44.0364 37.4002 44.0419 37.4283 44.0419C37.4564 44.0419 37.4842 44.0364 37.5102 44.0256C37.5361 44.0148 37.5597 43.9991 37.5796 43.9792L41.4678 40.0909Z" fill="#CFCFEB"/>
<path d="M44.3431 34.7088L36.3259 42.726C36.3061 42.7458 36.2825 42.7616 36.2566 42.7723C36.2306 42.7831 36.2028 42.7886 36.1748 42.7886C36.1467 42.7886 36.1189 42.7831 36.093 42.7723C36.067 42.7616 36.0435 42.7458 36.0236 42.726L34.6724 41.3742C34.4028 41.1047 34.0372 40.9533 33.656 40.9533C33.2748 40.9533 32.9093 41.1047 32.6397 41.3742C32.3702 41.6438 32.2188 42.0094 32.2188 42.3905C32.2188 42.7717 32.3702 43.1373 32.6397 43.4069L34.3772 45.1447C34.6132 45.3808 34.8935 45.5681 35.202 45.6959C35.5104 45.8236 35.841 45.8894 36.1749 45.8894C36.5087 45.8894 36.8393 45.8236 37.1478 45.6959C37.4563 45.5681 37.7365 45.3808 37.9726 45.1447L46.3758 36.7414C46.6453 36.4719 46.7967 36.1063 46.7967 35.7251C46.7967 35.3439 46.6453 34.9783 46.3758 34.7088C46.1062 34.4393 45.7406 34.2878 45.3594 34.2878C44.9782 34.2878 44.6127 34.4393 44.3431 34.7088Z" fill="#71CC77"/>
<path d="M41.4674 23.4667V24.4812C40.5936 22.8615 37.5996 23.145 37.5996 23.145L39.7702 21.6279L41.4674 23.4667Z" fill="#CFCFEB"/>
<path d="M35.0234 17.3877C35.0234 17.3877 36.6597 19.5814 36.8355 23.003C36.8388 23.0632 36.857 23.1216 36.8884 23.1731C36.9198 23.2246 36.9634 23.2676 37.0153 23.2982C37.0673 23.3287 37.126 23.346 37.1863 23.3484C37.2465 23.3509 37.3064 23.3384 37.3607 23.3121C38.1962 22.9068 39.9192 22.3322 41.4679 23.4668C41.4677 23.4668 40.5598 18.3844 35.0234 17.3877Z" fill="#9696E5"/>
</g>
<defs>
<filter id="filter0_d_1084_73837" x="4" y="8" width="58" height="58" filterUnits="userSpaceOnUse" color-interpolation-filters="sRGB">
<feFlood flood-opacity="0" result="BackgroundImageFix"/>
<feColorMatrix in="SourceAlpha" type="matrix" values="0 0 0 0 0 0 0 0 0 0 0 0 0 0 0 0 0 0 127 0" result="hardAlpha"/>
<feOffset dy="4"/>
<feGaussianBlur stdDeviation="6"/>
<feColorMatrix type="matrix" values="0 0 0 0 0 0 0 0 0 0 0 0 0 0 0 0 0 0 0.2 0"/>
<feBlend mode="normal" in2="BackgroundImageFix" result="effect1_dropShadow_1084_73837"/>
<feBlend mode="normal" in="SourceGraphic" in2="effect1_dropShadow_1084_73837" result="shape"/>
</filter>
</defs>
</svg>
