<svg width="66" height="66" viewBox="0 0 66 66" fill="none" xmlns="http://www.w3.org/2000/svg">
<circle cx="33" cy="33" r="33" fill="white"/>
<g filter="url(#filter0_d_1084_73779)">
<path d="M27.868 20.8042V47.9165L27.866 47.9158L17.855 45.2631C17.7825 45.244 17.7184 45.2013 17.6727 45.1419C17.6269 45.0825 17.6021 45.0097 17.6021 44.9347V18.5255C17.6021 18.4735 17.6141 18.4222 17.6371 18.3755C17.6601 18.3288 17.6935 18.288 17.7348 18.2563C17.776 18.2245 17.824 18.2027 17.875 18.1924C17.9261 18.1822 17.9788 18.1838 18.0291 18.1971L27.868 20.8042ZM48.3979 21.0653V47.4745C48.3979 47.5266 48.3859 47.5779 48.3629 47.6246C48.3399 47.6713 48.3064 47.7121 48.2652 47.7438C48.2239 47.7755 48.1759 47.7974 48.1249 47.8076C48.0739 47.8179 48.0212 47.8163 47.9709 47.8029L38.1319 45.1965V18.0842L48.1449 20.7369C48.2174 20.7562 48.2814 20.7988 48.3272 20.8582C48.3729 20.9176 48.3978 20.9904 48.3979 21.0653Z" fill="#F3F3FF"/>
<path d="M27.8662 47.9162L38.132 45.1962V18.084L27.8662 20.804V47.9162Z" fill="#9696E1"/>
<path d="M34.0949 24.365V22.6412C34.0949 22.5995 34.0853 22.5584 34.0669 22.521C34.0485 22.4836 34.0218 22.451 33.9888 22.4256C33.9558 22.4002 33.9174 22.3827 33.8765 22.3745C33.8357 22.3663 33.7935 22.3675 33.7532 22.3782L32.1067 22.8145C32.0487 22.8299 31.9974 22.864 31.9608 22.9115C31.9242 22.9591 31.9044 23.0174 31.9044 23.0774V24.831L29.9162 25.3578C29.8582 25.3731 29.8069 25.4072 29.7703 25.4548C29.7337 25.5023 29.7139 25.5607 29.7139 25.6207V27.0797C29.7139 27.1213 29.7234 27.1624 29.7418 27.1998C29.7602 27.2372 29.787 27.2699 29.82 27.2953C29.853 27.3207 29.8914 27.3382 29.9323 27.3464C29.9731 27.3546 30.0153 27.3533 30.0556 27.3426L31.9044 26.853V28.6816C31.9043 28.7233 31.9139 28.7644 31.9323 28.8018C31.9507 28.8392 31.9774 28.8718 32.0105 28.8972C32.0435 28.9226 32.0819 28.9401 32.1227 28.9483C32.1636 28.9565 32.2058 28.9553 32.2461 28.9446L33.8925 28.5083C33.9505 28.4929 34.0018 28.4588 34.0384 28.4113C34.075 28.3637 34.0949 28.3054 34.0949 28.2454V26.3868L36.083 25.8604C36.141 25.845 36.1923 25.8109 36.2289 25.7633C36.2655 25.7158 36.2854 25.6575 36.2854 25.5975V24.1381C36.2854 24.0965 36.2758 24.0554 36.2574 24.018C36.239 23.9806 36.2123 23.9479 36.1793 23.9225C36.1463 23.8971 36.1078 23.8796 36.067 23.8714C36.0261 23.8632 35.984 23.8645 35.9437 23.8752L34.0949 24.365ZM42.2219 40.1761L44.3071 42.2614L42.9777 43.5908C42.8408 43.7277 42.6782 43.8363 42.4994 43.9104C42.3205 43.9845 42.1288 44.0226 41.9351 44.0226C41.7415 44.0226 41.5498 43.9845 41.3709 43.9104C41.192 43.8363 41.0295 43.7277 40.8926 43.5908C40.7557 43.4538 40.6471 43.2913 40.573 43.1124C40.4989 42.9336 40.4608 42.7418 40.4608 42.5482C40.4608 42.3546 40.4989 42.1629 40.573 41.984C40.6471 41.8051 40.7557 41.6426 40.8926 41.5057L42.222 40.1763L42.2219 40.1761Z" fill="#ED524E"/>
<path d="M45.6367 38.8461C45.7736 38.9831 45.8822 39.1456 45.9563 39.3245C46.0304 39.5033 46.0685 39.6951 46.0685 39.8887C46.0685 40.0823 46.0304 40.274 45.9563 40.4529C45.8822 40.6318 45.7736 40.7943 45.6367 40.9312L44.3073 42.2606L42.2222 40.1755L43.5516 38.8461C43.6885 38.7092 43.851 38.6006 44.0299 38.5265C44.2088 38.4524 44.4005 38.4143 44.5941 38.4143C44.7877 38.4143 44.9794 38.4524 45.1583 38.5265C45.3372 38.6006 45.4997 38.7092 45.6367 38.8461Z" fill="#DAE1E1"/>
<path d="M30.1217 34.2788C30.0391 34.2789 29.9592 34.2488 29.8972 34.1943C29.8351 34.1398 29.7949 34.0645 29.7843 33.9826C29.7737 33.9006 29.7932 33.8176 29.8393 33.7491C29.8855 33.6805 29.955 33.6311 30.0349 33.61L35.7892 32.0854C35.8324 32.0736 35.8776 32.0705 35.9221 32.0762C35.9665 32.082 36.0094 32.0965 36.0483 32.1189C36.0871 32.1413 36.1212 32.1711 36.1484 32.2067C36.1757 32.2423 36.1956 32.283 36.2071 32.3263C36.2186 32.3697 36.2214 32.4149 36.2154 32.4593C36.2093 32.5037 36.1946 32.5465 36.1719 32.5852C36.1492 32.6239 36.1191 32.6578 36.0834 32.6848C36.0476 32.7118 36.0068 32.7315 35.9634 32.7427L30.209 34.2672C30.1805 34.2749 30.1512 34.2787 30.1217 34.2788ZM30.1217 36.9613C30.0391 36.9613 29.9594 36.9313 29.8973 36.8767C29.8353 36.8222 29.7952 36.747 29.7846 36.6651C29.7739 36.5832 29.7935 36.5003 29.8395 36.4317C29.8856 36.3632 29.955 36.3137 30.0349 36.2926L35.7892 34.7679C35.8324 34.7561 35.8776 34.753 35.9221 34.7588C35.9665 34.7645 36.0094 34.779 36.0483 34.8014C36.0871 34.8238 36.1212 34.8537 36.1484 34.8893C36.1757 34.9249 36.1956 34.9655 36.2071 35.0089C36.2186 35.0522 36.2214 35.0974 36.2154 35.1418C36.2093 35.1863 36.1946 35.2291 36.1719 35.2678C36.1492 35.3065 36.1191 35.3403 36.0834 35.3673C36.0476 35.3943 36.0068 35.414 35.9634 35.4252L30.209 36.9499C30.1805 36.9575 30.1512 36.9613 30.1217 36.9613ZM30.1217 39.644C30.0391 39.644 29.9594 39.6139 29.8973 39.5594C29.8353 39.5049 29.7952 39.4297 29.7846 39.3478C29.7739 39.2659 29.7935 39.1829 29.8395 39.1144C29.8856 39.0458 29.955 38.9964 30.0349 38.9753L35.7892 37.4506C35.8761 37.4282 35.9683 37.4411 36.0458 37.4864C36.1233 37.5318 36.1797 37.6059 36.2027 37.6927C36.2257 37.7795 36.2134 37.8718 36.1686 37.9496C36.1238 38.0274 36.05 38.0843 35.9634 38.1079L30.209 39.6326C30.1805 39.6402 30.1512 39.644 30.1217 39.644ZM30.1217 42.3265C30.0391 42.3265 29.9594 42.2965 29.8973 42.2419C29.8353 42.1874 29.7952 42.1122 29.7846 42.0303C29.7739 41.9484 29.7935 41.8655 29.8395 41.7969C29.8856 41.7284 29.955 41.6789 30.0349 41.6578L35.7892 40.1332C35.8324 40.1214 35.8776 40.1183 35.9221 40.124C35.9665 40.1298 36.0094 40.1443 36.0483 40.1667C36.0871 40.1891 36.1212 40.2189 36.1484 40.2545C36.1757 40.2901 36.1956 40.3308 36.2071 40.3741C36.2186 40.4175 36.2214 40.4627 36.2154 40.5071C36.2093 40.5515 36.1946 40.5943 36.1719 40.633C36.1492 40.6717 36.1191 40.7056 36.0834 40.7326C36.0476 40.7596 36.0068 40.7793 35.9634 40.7905L30.209 42.3151C30.1805 42.3227 30.1512 42.3265 30.1217 42.3265ZM46.1423 28.1503C46.1128 28.1503 46.0835 28.1465 46.055 28.1389L40.3006 26.6142C40.214 26.5906 40.1402 26.5337 40.0954 26.4559C40.0505 26.3781 40.0383 26.2858 40.0613 26.199C40.0843 26.1122 40.1407 26.0381 40.2182 25.9927C40.2956 25.9474 40.3879 25.9345 40.4748 25.9569L46.2291 27.4816C46.309 27.5027 46.3784 27.5521 46.4245 27.6207C46.4705 27.6892 46.49 27.7722 46.4794 27.8541C46.4688 27.936 46.4287 28.0112 46.3667 28.0657C46.3046 28.1202 46.2249 28.1503 46.1423 28.1503ZM46.1423 30.8329C46.1128 30.8329 46.0835 30.8291 46.055 30.8215L40.3006 29.2968C40.2572 29.2856 40.2164 29.2659 40.1806 29.2389C40.1448 29.2119 40.1147 29.178 40.0921 29.1393C40.0694 29.1006 40.0546 29.0578 40.0486 29.0134C40.0425 28.969 40.0453 28.9238 40.0568 28.8804C40.0683 28.8371 40.0883 28.7964 40.1155 28.7608C40.1428 28.7252 40.1768 28.6954 40.2157 28.673C40.2545 28.6506 40.2974 28.6361 40.3419 28.6303C40.3864 28.6246 40.4316 28.6277 40.4748 28.6395L46.2291 30.1642C46.309 30.1853 46.3784 30.2347 46.4245 30.3033C46.4705 30.3718 46.49 30.4548 46.4794 30.5367C46.4688 30.6186 46.4287 30.6938 46.3667 30.7483C46.3046 30.8028 46.2249 30.8329 46.1423 30.8329ZM46.1423 33.5155C46.1128 33.5155 46.0835 33.5117 46.055 33.5041L40.3006 31.9794C40.214 31.9558 40.1402 31.8989 40.0954 31.8211C40.0505 31.7433 40.0383 31.651 40.0613 31.5642C40.0843 31.4774 40.1407 31.4033 40.2182 31.3579C40.2956 31.3126 40.3879 31.2997 40.4748 31.3221L46.2291 32.8468C46.309 32.8679 46.3784 32.9173 46.4245 32.9859C46.4705 33.0544 46.49 33.1374 46.4794 33.2193C46.4688 33.3012 46.4287 33.3764 46.3667 33.4309C46.3046 33.4854 46.2249 33.5155 46.1423 33.5155ZM46.1423 36.1981C46.1128 36.1981 46.0835 36.1943 46.055 36.1867L40.3006 34.662C40.2572 34.6509 40.2164 34.6312 40.1806 34.6042C40.1448 34.5771 40.1147 34.5433 40.0921 34.5046C40.0694 34.4659 40.0546 34.4231 40.0486 34.3787C40.0425 34.3342 40.0453 34.2891 40.0568 34.2457C40.0683 34.2024 40.0883 34.1617 40.1155 34.1261C40.1428 34.0905 40.1768 34.0606 40.2157 34.0382C40.2545 34.0159 40.2974 34.0014 40.3419 33.9956C40.3864 33.9899 40.4316 33.993 40.4748 34.0048L46.2291 35.5294C46.309 35.5505 46.3784 35.5999 46.4245 35.6685C46.4705 35.737 46.49 35.82 46.4794 35.9019C46.4688 35.9838 46.4287 36.059 46.3667 36.1135C46.3046 36.168 46.2249 36.1981 46.1423 36.1981ZM25.2872 27.6434C25.2577 27.6433 25.2283 27.6395 25.1998 27.6319L19.4455 26.1072C19.3591 26.0834 19.2856 26.0265 19.241 25.9488C19.1964 25.8711 19.1842 25.779 19.2071 25.6924C19.2301 25.6058 19.2863 25.5317 19.3635 25.4863C19.4408 25.4409 19.5328 25.4279 19.6196 25.45L25.374 26.9746C25.4539 26.9956 25.5234 27.0451 25.5695 27.1136C25.6156 27.1822 25.6352 27.2652 25.6245 27.3471C25.6139 27.4291 25.5738 27.5043 25.5117 27.5589C25.4496 27.6134 25.3698 27.6434 25.2872 27.6434ZM25.2872 30.326C25.2577 30.3259 25.2283 30.3221 25.1998 30.3145L19.4455 28.7898C19.3591 28.766 19.2856 28.7091 19.241 28.6314C19.1964 28.5537 19.1842 28.4616 19.2071 28.375C19.2301 28.2884 19.2863 28.2143 19.3635 28.1689C19.4408 28.1235 19.5328 28.1105 19.6196 28.1326L25.374 29.6572C25.4539 29.6782 25.5234 29.7277 25.5695 29.7962C25.6156 29.8648 25.6352 29.9478 25.6245 30.0297C25.6139 30.1117 25.5738 30.1869 25.5117 30.2415C25.4496 30.296 25.3698 30.326 25.2872 30.326ZM25.2872 33.0086C25.2577 33.0085 25.2283 33.0047 25.1998 32.9971L19.4455 31.4724C19.3591 31.4486 19.2856 31.3917 19.241 31.314C19.1964 31.2363 19.1842 31.1442 19.2071 31.0576C19.2301 30.971 19.2863 30.8969 19.3635 30.8515C19.4408 30.8061 19.5328 30.7931 19.6196 30.8152L25.374 32.3398C25.4538 32.3609 25.5233 32.4104 25.5693 32.4789C25.6154 32.5475 25.6349 32.6304 25.6243 32.7123C25.6137 32.7942 25.5736 32.8695 25.5115 32.924C25.4495 32.9785 25.3697 33.0085 25.2872 33.0086ZM25.2872 35.6912C25.2577 35.6912 25.2283 35.6873 25.1998 35.6797L19.4455 34.155C19.3591 34.1312 19.2856 34.0743 19.241 33.9966C19.1964 33.9189 19.1842 33.8268 19.2071 33.7402C19.2301 33.6536 19.2863 33.5795 19.3635 33.5341C19.4408 33.4887 19.5328 33.4757 19.6196 33.4978L25.374 35.0224C25.4538 35.0435 25.5233 35.093 25.5693 35.1615C25.6154 35.2301 25.6349 35.313 25.6243 35.3949C25.6137 35.4768 25.5736 35.5521 25.5115 35.6066C25.4495 35.6611 25.3697 35.6911 25.2872 35.6912Z" fill="#3B4985"/>
<path d="M27.866 41.5059V47.9162L17.855 45.2635C17.7825 45.2443 17.7184 45.2017 17.6727 45.1423C17.6269 45.0829 17.6021 45.0101 17.6021 44.9351V42.5578L22.9496 43.7696C23.736 43.9478 24.5567 43.9014 25.3181 43.6357C26.0794 43.37 26.7508 42.8957 27.2555 42.2668L27.866 41.5059ZM48.3979 43.4588V47.4749C48.3979 47.5269 48.3859 47.5783 48.3629 47.625C48.3399 47.6717 48.3064 47.7124 48.2652 47.7442C48.2239 47.7759 48.1759 47.7977 48.1249 47.808C48.0739 47.8183 48.0212 47.8167 47.9709 47.8033L38.1319 45.1969V43.4792L43.6847 44.8909C44.2675 45.0391 44.8749 45.0634 45.4677 44.9623C46.0605 44.8613 46.6256 44.637 47.1264 44.3041L48.3979 43.4588Z" fill="#BBBBE1"/>
<path d="M24.9236 42.8492C24.6464 43.3665 24.2161 43.7856 23.6916 44.0491C23.1671 44.3125 22.5741 44.4075 21.9935 44.321C21.413 44.2344 20.8734 43.9707 20.4485 43.5657C20.0236 43.1608 19.7342 42.6344 19.62 42.0587C19.5057 41.483 19.572 40.8861 19.81 40.3495C20.0479 39.813 20.4459 39.3631 20.9493 39.0614C21.4528 38.7596 22.0371 38.6208 22.6225 38.6639C23.2078 38.707 23.7656 38.93 24.2194 39.3022C24.7289 39.7207 25.0776 40.303 25.206 40.9497C25.3344 41.5965 25.2346 42.2678 24.9236 42.8492Z" fill="#DAE1E1"/>
<path d="M24.2194 39.3025L21.583 44.2337C21.2246 44.1245 20.891 43.9462 20.6011 43.7087L23.2374 38.7776C23.5958 38.8868 23.9294 39.0651 24.2193 39.3025L24.2194 39.3025Z" fill="#C0C9E0"/>
</g>
<defs>
<filter id="filter0_d_1084_73779" x="4" y="8" width="58" height="58" filterUnits="userSpaceOnUse" color-interpolation-filters="sRGB">
<feFlood flood-opacity="0" result="BackgroundImageFix"/>
<feColorMatrix in="SourceAlpha" type="matrix" values="0 0 0 0 0 0 0 0 0 0 0 0 0 0 0 0 0 0 127 0" result="hardAlpha"/>
<feOffset dy="4"/>
<feGaussianBlur stdDeviation="6"/>
<feColorMatrix type="matrix" values="0 0 0 0 0 0 0 0 0 0 0 0 0 0 0 0 0 0 0.2 0"/>
<feBlend mode="normal" in2="BackgroundImageFix" result="effect1_dropShadow_1084_73779"/>
<feBlend mode="normal" in="SourceGraphic" in2="effect1_dropShadow_1084_73779" result="shape"/>
</filter>
</defs>
</svg>
