<svg width="30" height="31" fill="none" xmlns="http://www.w3.org/2000/svg"><rect x=".911" y="5.7" width="28.178" height="20" rx="1.8" stroke="#A0A3CF" stroke-width="1.6"/><path d="M5.8 15.7h4.834a.5.5 0 0 0 .424-.235l1.936-3.098a.5.5 0 0 1 .871.042l3.307 6.613a.5.5 0 0 0 .862.055l2.12-3.156a.5.5 0 0 1 .415-.22h4.142" stroke="#A0A3CF" stroke-width="1.6" stroke-linecap="round"/><path d="M15.8 25.922a.8.8 0 1 0-1.6 0h1.6ZM15 29.5v.8h.8v-.8H15Zm-5.622-.8a.8.8 0 0 0 0 1.6v-1.6Zm11.244 1.6a.8.8 0 1 0 0-1.6v1.6ZM14.2 25.922V29.5h1.6v-3.578h-1.6ZM15 28.7H9.378v1.6H15v-1.6Zm-5.622 1.6h11.244v-1.6H9.378v1.6Z" fill="#A0A3CF"/></svg>