<svg width="33" height="28" fill="none" xmlns="http://www.w3.org/2000/svg"><path d="M11.746.5c1.399 0 2.735.32 3.973.953A8.813 8.813 0 0 1 18 3.134a8.815 8.815 0 0 1 2.28-1.68A8.652 8.652 0 0 1 24.255.5C29.077.5 33 4.423 33 9.246c0 3.415-1.804 7.043-5.361 10.782-2.971 3.122-6.608 5.724-9.135 7.358L18 27.71l-.504-.325c-2.527-1.634-6.164-4.236-9.135-7.358C4.804 16.289 3 12.661 3 9.246 3 4.423 6.923.5 11.746.5Zm-2.04 18.249c2.655 2.79 5.888 5.162 8.294 6.75 2.406-1.588 5.64-3.96 8.294-6.75 3.218-3.382 4.85-6.58 4.85-9.503 0-3.8-3.09-6.89-6.89-6.89a6.839 6.839 0 0 0-5.512 2.756L18 6.1l-.742-.988a6.839 6.839 0 0 0-5.512-2.756c-3.8 0-6.89 3.09-6.89 6.89 0 2.923 1.632 6.12 4.85 9.503Z" fill="#A0A3CF"/><path d="M1 13.589h4.834a.5.5 0 0 0 .424-.235l1.936-3.098a.5.5 0 0 1 .871.041l3.307 6.613a.5.5 0 0 0 .862.056l2.12-3.156a.5.5 0 0 1 .415-.221h4.142" stroke="#A0A3CF" stroke-width="1.6" stroke-linecap="round"/></svg>