<svg width="33" height="28" fill="none" xmlns="http://www.w3.org/2000/svg"><path d="M22.203 14.76a7.026 7.026 0 0 1-.103-1.252c0-1.78.677-3.557 2.089-5.34 1.484-1.792 3.218-3.095 5.203-3.92l.497-.207-.242-.48-.9-1.786-.217-.43-.438.2c-3.535 1.619-6.215 3.791-8.01 6.53l-.005.008c-1.72 2.73-2.577 5.8-2.577 9.195 0 2.653.583 4.933 1.777 6.815 1.43 2.268 3.56 3.407 6.323 3.407 1.922 0 3.552-.64 4.852-1.93 1.361-1.351 2.048-3 2.048-4.92 0-2.034-.676-3.696-2.058-4.927-1.298-1.284-2.924-1.921-4.842-1.921-1.25 0-2.386.32-3.397.958Zm-17 0a7.03 7.03 0 0 1-.103-1.252c0-1.78.678-3.557 2.089-5.34 1.484-1.792 3.218-3.095 5.203-3.92l.497-.207-.242-.48-.9-1.786-.217-.43-.438.2c-3.535 1.619-6.216 3.791-8.01 6.53l-.005.008C1.357 10.813.5 13.883.5 17.278c0 2.653.583 4.933 1.777 6.814C3.707 26.361 5.837 27.5 8.6 27.5c1.922 0 3.552-.64 4.852-1.93 1.361-1.351 2.048-3 2.048-4.92 0-2.034-.676-3.696-2.058-4.927-1.298-1.284-2.924-1.921-4.842-1.921-1.25 0-2.386.32-3.397.958Z" fill="url(#a)"/><path d="M22.203 14.76a7.026 7.026 0 0 1-.103-1.252c0-1.78.677-3.557 2.089-5.34 1.484-1.792 3.218-3.095 5.203-3.92l.497-.207-.242-.48-.9-1.786-.217-.43-.438.2c-3.535 1.619-6.215 3.791-8.01 6.53l-.005.008c-1.72 2.73-2.577 5.8-2.577 9.195 0 2.653.583 4.933 1.777 6.815 1.43 2.268 3.56 3.407 6.323 3.407 1.922 0 3.552-.64 4.852-1.93 1.361-1.351 2.048-3 2.048-4.92 0-2.034-.676-3.696-2.058-4.927-1.298-1.284-2.924-1.921-4.842-1.921-1.25 0-2.386.32-3.397.958Zm-17 0a7.03 7.03 0 0 1-.103-1.252c0-1.78.678-3.557 2.089-5.34 1.484-1.792 3.218-3.095 5.203-3.92l.497-.207-.242-.48-.9-1.786-.217-.43-.438.2c-3.535 1.619-6.216 3.791-8.01 6.53l-.005.008C1.357 10.813.5 13.883.5 17.278c0 2.653.583 4.933 1.777 6.814C3.707 26.361 5.837 27.5 8.6 27.5c1.922 0 3.552-.64 4.852-1.93 1.361-1.351 2.048-3 2.048-4.92 0-2.034-.676-3.696-2.058-4.927-1.298-1.284-2.924-1.921-4.842-1.921-1.25 0-2.386.32-3.397.958Z" fill="url(#b)"/><path d="M22.203 14.76a7.026 7.026 0 0 1-.103-1.252c0-1.78.677-3.557 2.089-5.34 1.484-1.792 3.218-3.095 5.203-3.92l.497-.207-.242-.48-.9-1.786-.217-.43-.438.2c-3.535 1.619-6.215 3.791-8.01 6.53l-.005.008c-1.72 2.73-2.577 5.8-2.577 9.195 0 2.653.583 4.933 1.777 6.815 1.43 2.268 3.56 3.407 6.323 3.407 1.922 0 3.552-.64 4.852-1.93 1.361-1.351 2.048-3 2.048-4.92 0-2.034-.676-3.696-2.058-4.927-1.298-1.284-2.924-1.921-4.842-1.921-1.25 0-2.386.32-3.397.958Zm-17 0a7.03 7.03 0 0 1-.103-1.252c0-1.78.678-3.557 2.089-5.34 1.484-1.792 3.218-3.095 5.203-3.92l.497-.207-.242-.48-.9-1.786-.217-.43-.438.2c-3.535 1.619-6.216 3.791-8.01 6.53l-.005.008C1.357 10.813.5 13.883.5 17.278c0 2.653.583 4.933 1.777 6.814C3.707 26.361 5.837 27.5 8.6 27.5c1.922 0 3.552-.64 4.852-1.93 1.361-1.351 2.048-3 2.048-4.92 0-2.034-.676-3.696-2.058-4.927-1.298-1.284-2.924-1.921-4.842-1.921-1.25 0-2.386.32-3.397.958Z" stroke="url(#c)"/><path d="M22.203 14.76a7.026 7.026 0 0 1-.103-1.252c0-1.78.677-3.557 2.089-5.34 1.484-1.792 3.218-3.095 5.203-3.92l.497-.207-.242-.48-.9-1.786-.217-.43-.438.2c-3.535 1.619-6.215 3.791-8.01 6.53l-.005.008c-1.72 2.73-2.577 5.8-2.577 9.195 0 2.653.583 4.933 1.777 6.815 1.43 2.268 3.56 3.407 6.323 3.407 1.922 0 3.552-.64 4.852-1.93 1.361-1.351 2.048-3 2.048-4.92 0-2.034-.676-3.696-2.058-4.927-1.298-1.284-2.924-1.921-4.842-1.921-1.25 0-2.386.32-3.397.958Zm-17 0a7.03 7.03 0 0 1-.103-1.252c0-1.78.678-3.557 2.089-5.34 1.484-1.792 3.218-3.095 5.203-3.92l.497-.207-.242-.48-.9-1.786-.217-.43-.438.2c-3.535 1.619-6.216 3.791-8.01 6.53l-.005.008C1.357 10.813.5 13.883.5 17.278c0 2.653.583 4.933 1.777 6.814C3.707 26.361 5.837 27.5 8.6 27.5c1.922 0 3.552-.64 4.852-1.93 1.361-1.351 2.048-3 2.048-4.92 0-2.034-.676-3.696-2.058-4.927-1.298-1.284-2.924-1.921-4.842-1.921-1.25 0-2.386.32-3.397.958Z" stroke="url(#d)"/><defs><linearGradient id="a" x1="29.044" y1="27" x2="-23.673" y2="26.878" gradientUnits="userSpaceOnUse"><stop stop-color="#00B4FF"/><stop offset="1" stop-color="#9ADEFC"/></linearGradient><linearGradient id="b" x1="31.058" y1="33.352" x2="-124.387" y2="44.944" gradientUnits="userSpaceOnUse"><stop stop-color="#DEE5F8"/><stop offset="1" stop-color="#fff"/></linearGradient><linearGradient id="c" x1="13.241" y1="-8.041" x2="31.188" y2="16.065" gradientUnits="userSpaceOnUse"><stop stop-color="#01B5FF"/><stop offset="1" stop-color="#fff"/></linearGradient><linearGradient id="d" x1="13.241" y1="-8.041" x2="31.188" y2="16.065" gradientUnits="userSpaceOnUse"><stop stop-color="#DEE5F8"/><stop offset="1" stop-color="#fff"/></linearGradient></defs></svg>