<svg width="31" height="28" viewBox="0 0 31 28" fill="none" xmlns="http://www.w3.org/2000/svg">
<path d="M8.97904 0.394531C10.4052 0.394531 11.7684 0.715191 13.0305 1.34767C13.8896 1.77812 14.6789 2.35004 15.3561 3.02859C16.0333 2.35004 16.8225 1.77812 17.6816 1.34767C18.9438 0.715191 20.3069 0.394531 21.7331 0.394531C26.6501 0.394531 30.6504 4.31785 30.6504 9.14024C30.6504 12.5559 28.8111 16.1835 25.1837 19.9226C22.1549 23.0445 18.4468 25.6469 15.8695 27.2803L15.3561 27.6057L14.8426 27.2803C12.2653 25.6469 8.55717 23.0445 5.52838 19.9226C1.90094 16.1835 0.0617123 12.5559 0.0617123 9.14024C0.0617123 4.31785 4.06202 0.394531 8.97904 0.394531ZM6.89913 18.6434C9.60595 21.4334 12.9031 23.8054 15.3561 25.3928C17.809 23.8053 21.1062 21.4334 23.8129 18.6434C27.0945 15.261 28.7583 12.0637 28.7583 9.14024C28.7583 5.34107 25.6068 2.2502 21.7331 2.2502C19.5029 2.2502 17.4542 3.25492 16.1124 5.00668L15.3561 5.9942L14.5997 5.00668C13.2579 3.25492 11.2092 2.2502 8.97904 2.2502C5.10531 2.2502 1.95379 5.34107 1.95379 9.14024C1.95379 12.0637 3.61769 15.261 6.89913 18.6434Z" fill="#A0A3CF"/>
</svg>
