<svg width="31" height="30" viewBox="0 0 31 30" fill="none" xmlns="http://www.w3.org/2000/svg">
<path d="M30.3063 13.603L15.9115 0.97843C15.8863 0.953749 15.8612 0.935238 15.8297 0.916726C15.5151 0.62055 15.0118 0.608209 14.6784 0.898215L0.283591 13.5228C-0.0687285 13.8313 -0.0938942 14.3558 0.214386 14.7013C0.384254 14.8864 0.617037 14.979 0.84982 14.979C1.05115 14.979 1.25247 14.9111 1.41605 14.7692L4.00812 12.4923V12.9366V19.5265V27.2148C4.00812 28.3686 4.96441 29.3127 6.1472 29.3127C6.16607 29.3127 6.17866 29.3127 6.19753 29.3127C6.21641 29.3127 6.22899 29.3127 6.24786 29.3127H10.6896C11.7969 29.3127 12.6966 28.4303 12.6966 27.3443V19.8597C12.6966 19.6931 12.835 19.5574 13.0049 19.5574H17.5913C17.7612 19.5574 17.8996 19.6931 17.8996 19.8597V27.3443C17.8996 28.4303 18.7993 29.3127 19.9065 29.3127H24.449C25.6443 29.3127 26.588 28.1588 26.588 26.6841V19.8227V17.7248V12.5725L29.1801 14.8494C29.3437 14.9913 29.545 15.0592 29.7463 15.0592C29.9791 15.0592 30.2119 14.9666 30.3818 14.7815C30.6838 14.436 30.6523 13.9115 30.3063 13.603ZM24.8831 17.7186V19.8165V26.6718C24.8831 27.2703 24.5811 27.6343 24.4427 27.6343H19.9003C19.7304 27.6343 19.592 27.4986 19.592 27.332V19.8597C19.592 18.7737 18.6923 17.8914 17.585 17.8914H12.9986C11.8913 17.8914 10.9916 18.7737 10.9916 19.8597V27.3443C10.9916 27.5109 10.8532 27.6467 10.6833 27.6467H6.24157C6.2227 27.6467 6.21011 27.6467 6.19124 27.6467C6.17237 27.6467 6.15978 27.6467 6.14091 27.6467C5.90183 27.6467 5.70051 27.4554 5.70051 27.2148V19.5203V12.9304V10.9991L15.2509 2.63208L24.8831 11.0793V17.7186Z" fill="#A0A3CF"/>
</svg>
