<svg width="37" height="37" viewBox="0 0 37 37" fill="none" xmlns="http://www.w3.org/2000/svg">
<g clip-path="url(#clip0_1115_57517)">
<path d="M18.5 0C8.29157 0 0 8.29157 0 18.5C0 28.7084 8.29157 37 18.5 37C28.7084 37 37 28.7084 37 18.5C37 8.29157 28.7084 0 18.5 0ZM18.5 35.3952C9.18313 35.3952 1.60482 27.8169 1.60482 18.5C1.60482 9.18313 9.18313 1.60482 18.5 1.60482C27.8169 1.60482 35.3952 9.18313 35.3952 18.5C35.3952 27.8169 27.8169 35.3952 18.5 35.3952Z" fill="#A0A3CF"/>
<path d="M28.1286 14.4876H22.5117V8.87077C22.5117 8.42499 22.1551 8.06836 21.7093 8.06836H15.29C14.8443 8.06836 14.4876 8.42499 14.4876 8.87077V14.4876H8.87077C8.42499 14.4876 8.06836 14.8443 8.06836 15.29V21.7093C8.06836 22.1551 8.42499 22.5117 8.87077 22.5117H14.4876V28.1286C14.4876 28.5744 14.8443 28.931 15.29 28.931H21.7093C22.1551 28.931 22.5117 28.5744 22.5117 28.1286V22.5117H28.1286C28.5744 22.5117 28.931 22.1551 28.931 21.7093V15.29C28.8864 14.8443 28.5298 14.4876 28.1286 14.4876ZM27.3708 20.9069H27.3262H21.7093C21.2635 20.9069 20.9069 21.2635 20.9069 21.7093V27.3262H16.0925V21.7093C16.0925 21.2635 15.7358 20.9069 15.29 20.9069H9.67318V16.0925H15.29C15.7358 16.0925 16.0925 15.7358 16.0925 15.29V9.67318H20.9515V15.29C20.9515 15.7358 21.3081 16.0925 21.7539 16.0925H27.3708V20.9069Z" fill="#A0A3CF"/>
</g>
<defs>
<clipPath id="clip0_1115_57517">
<rect width="37" height="37" fill="white"/>
</clipPath>
</defs>
</svg>
