<svg width="27" height="30" viewBox="0 0 27 30" fill="none" xmlns="http://www.w3.org/2000/svg">
<path d="M13.7268 16.1648C13.7585 16.1648 13.7901 16.1648 13.8281 16.1648C13.8408 16.1648 13.8535 16.1648 13.8661 16.1648C13.8851 16.1648 13.9105 16.1648 13.9295 16.1648C15.7855 16.1338 17.2867 15.4939 18.3952 14.27C20.8339 11.5738 20.4285 6.95175 20.3842 6.51066C20.2258 3.19942 18.6296 1.61524 17.312 0.875958C16.3302 0.323048 15.1837 0.0248499 13.9042 0H13.8598C13.8535 0 13.8408 0 13.8345 0H13.7965C13.0934 0 11.7125 0.111824 10.3886 0.851108C9.05836 1.59039 7.43676 3.17457 7.2784 6.51066C7.23406 6.95175 6.82866 11.5738 9.26739 14.27C10.3696 15.4939 11.8708 16.1338 13.7268 16.1648ZM8.96968 6.66598C8.96968 6.64734 8.97601 6.6287 8.97601 6.61628C9.18505 2.16194 12.4092 1.68358 13.7901 1.68358H13.8155C13.8281 1.68358 13.8471 1.68358 13.8661 1.68358C15.5764 1.72085 18.4839 2.40422 18.6803 6.61628C18.6803 6.63491 18.6803 6.65355 18.6866 6.66598C18.6929 6.70946 19.1363 10.9339 17.122 13.158C16.3239 14.0402 15.2597 14.475 13.8598 14.4875C13.8471 14.4875 13.8408 14.4875 13.8281 14.4875C13.8155 14.4875 13.8091 14.4875 13.7965 14.4875C12.4029 14.475 11.3324 14.0402 10.5406 13.158C8.53261 10.9464 8.96334 6.70325 8.96968 6.66598Z" fill="#A0A3CF"/>
<path d="M26.8451 23.831C26.8451 23.8248 26.8451 23.8186 26.8451 23.8124C26.8451 23.7627 26.8388 23.713 26.8388 23.6571C26.8008 22.427 26.7184 19.5506 23.9693 18.6312C23.9503 18.625 23.925 18.6188 23.906 18.6126C21.0492 17.8981 18.6738 16.2829 18.6484 16.2643C18.262 15.9971 17.73 16.0903 17.4576 16.4693C17.1852 16.8482 17.2802 17.3701 17.6666 17.6372C17.7743 17.7118 20.2954 19.4326 23.4499 20.2278C24.9258 20.7434 25.0905 22.2903 25.1348 23.7068C25.1348 23.7627 25.1348 23.8124 25.1412 23.8621C25.1475 24.4212 25.1095 25.2848 25.0081 25.7818C23.982 26.3533 19.9597 28.3289 13.8406 28.3289C7.74698 28.3289 3.69932 26.3471 2.66682 25.7755C2.56547 25.2785 2.52113 24.415 2.5338 23.8559C2.5338 23.8062 2.54013 23.7565 2.54013 23.7006C2.58447 22.2841 2.74916 20.7372 4.22507 20.2216C7.37959 19.4264 9.90067 17.6993 10.0084 17.631C10.3948 17.3639 10.4898 16.842 10.2174 16.4631C9.94501 16.0841 9.41292 15.9909 9.02653 16.258C9.00119 16.2767 6.63847 17.8919 3.769 18.6064C3.74366 18.6126 3.72466 18.6188 3.70565 18.625C0.956537 19.5506 0.87419 22.427 0.836184 23.6509C0.836184 23.7068 0.836183 23.7565 0.829849 23.8062C0.829849 23.8124 0.829849 23.8186 0.829849 23.8248C0.823515 24.1479 0.81718 25.8066 1.1529 26.6391C1.21625 26.8006 1.33026 26.9373 1.48229 27.0305C1.67232 27.1547 6.22673 30 13.847 30C21.4672 30 26.0216 27.1485 26.2117 27.0305C26.3574 26.9373 26.4777 26.8006 26.5411 26.6391C26.8578 25.8128 26.8514 24.1541 26.8451 23.831Z" fill="#A0A3CF"/>
</svg>
