<svg width="64" height="67" viewBox="0 0 64 67" fill="none" xmlns="http://www.w3.org/2000/svg">
<path d="M0.885229 28.9175L0.666992 33.1386L0.885229 37.3597V28.9175ZM2.55377 20.978L0.885229 28.9175V37.3597L2.55377 20.978ZM0.885229 37.3597L1.52235 41.4218L2.55377 45.2992L0.885229 37.3597ZM2.55377 20.978L1.52235 24.8554L0.885229 28.9175L2.55377 20.978ZM0.885229 37.3597L2.55377 45.2992L5.71031 52.3845L0.885229 37.3597ZM2.55377 45.2992L3.95682 48.9637L5.71031 52.3845L2.55377 45.2992ZM5.71031 13.8927L3.95682 17.3134L2.55377 20.978L5.71031 13.8927ZM10.1885 7.92042L2.55377 20.978L0.885229 37.3597L10.1885 7.92042ZM10.1885 7.92042L5.71031 13.8927L2.55377 20.978L10.1885 7.92042ZM0.885229 37.3597L5.71031 52.3845L15.8322 62.9092L0.885229 37.3597ZM10.1885 7.92042L7.79406 10.7494L5.71031 13.8927L10.1885 7.92042ZM5.71031 52.3845L7.79406 55.5278L10.1885 58.3567L5.71031 52.3845ZM10.1885 7.92042L0.885229 37.3597L15.8322 62.9092L10.1885 7.92042ZM5.71031 52.3845L10.1885 58.3567L15.8322 62.9092L5.71031 52.3845ZM10.1885 58.3567L12.8744 60.8316L15.8322 62.9092L10.1885 58.3567ZM15.8322 3.36792L12.8744 5.44555L10.1885 7.92042L15.8322 3.36792Z" fill="#C4C4C4"/>
<path d="M35.5361 65.3202L38.2587 64.8652L41.8021 64.2717L35.5361 65.3202Z" fill="#B0B0B0"/>
<path d="M22.4833 0.593994L15.8322 3.36828L10.1885 7.92078L22.4833 0.593994Z" fill="#C4C4C4"/>
<path d="M39.1077 1.55498L41.8021 2.00526L38.2587 1.41179L39.1077 1.55498ZM35.5361 0.956787L39.1077 1.55498L38.2587 1.41179L35.5361 0.956787ZM39.1077 64.7224L35.5361 65.3206L41.8021 64.2721L39.1077 64.7224ZM39.1077 64.7224L41.8021 64.2721L45.2171 63.1258L39.1077 64.7224Z" fill="#B0B0B0"/>
<path d="M15.8311 62.9096L19.0409 64.5435L22.4822 65.6839L15.8311 62.9096ZM22.4822 0.593994L19.0409 1.73436L15.8311 3.36828L22.4822 0.593994Z" fill="#C4C4C4"/>
<path d="M42.5516 2.71439L45.2181 3.1516L41.803 2.00526L42.5516 2.71439ZM39.1087 1.55498L42.5516 2.71439L41.803 2.00526L39.1087 1.55498ZM32.7354 65.7889L35.5371 65.3206L39.1087 64.7224L32.7354 65.7889ZM42.5516 63.563L39.1087 64.7224L45.2181 63.1258L42.5516 63.563ZM42.5516 63.563L45.2181 63.1258L48.4633 61.4516L42.5516 63.563ZM36.3352 1.09149L39.1087 1.55498L35.5371 0.956787L36.3352 1.09149Z" fill="#B0B0B0"/>
<path d="M15.8311 62.9094L22.4822 65.6837L29.8497 66.271L15.8311 62.9094Z" fill="#C4C4C4"/>
<path d="M45.8242 4.40982L48.4633 4.82578L45.2181 3.15159L45.8242 4.40982ZM32.7354 0.488525L36.3352 1.09147L35.5371 0.95677L32.7354 0.488525Z" fill="#B0B0B0"/>
<path d="M36.9785 1.8008L22.4833 0.593994L10.1885 7.92078L36.9785 1.8008Z" fill="#C4C4C4"/>
<path d="M42.5516 2.71434L45.8242 4.40979L45.2181 3.15155L42.5516 2.71434ZM36.3352 65.1859L32.7354 65.7888L39.1087 64.7224L36.3352 65.1859ZM36.3352 65.1859L39.1087 64.7224L42.5516 63.563L36.3352 65.1859ZM45.8242 61.8675L48.4633 61.4516L51.4958 59.2774L45.8242 61.8675ZM45.8242 61.8675L42.5516 63.563L48.4633 61.4516L45.8242 61.8675ZM39.8063 2.26419L42.5516 2.71434L39.1087 1.55493L39.8063 2.26419ZM48.8828 6.61314L51.4958 6.99987L48.4633 4.82575L48.8828 6.61314Z" fill="#B0B0B0"/>
<path d="M22.4805 65.6837L26.1313 66.2772L29.848 66.271L22.4805 65.6837ZM29.848 0.00649145L26.1313 0.000244141L22.4805 0.593777L29.848 0.00649145Z" fill="#C4C4C4"/>
<path d="M36.335 1.09155L39.8061 2.26431L39.1084 1.55504L36.335 1.09155ZM45.824 4.4099L48.8826 6.61325L48.4631 4.82586L45.824 4.4099Z" fill="#B0B0B0"/>
<path d="M10.1885 7.92017L15.8322 62.909L54.9108 28.3275L10.1885 7.92017Z" fill="#C4C4C4"/>
<path d="M29.8486 66.2709L32.7331 65.7888L36.333 65.1859L29.8486 66.2709ZM48.8806 59.6642L51.4936 59.2774L54.2685 56.6345L48.8806 59.6642ZM39.8041 64.0131L36.333 65.1859L42.5494 63.563L39.8041 64.0131ZM48.8806 59.6642L45.822 61.8675L51.4936 59.2774L48.8806 59.6642ZM39.8041 64.0131L42.5494 63.563L45.822 61.8675L39.8041 64.0131ZM33.4769 0.614123L36.333 1.09142L32.7331 0.488481L33.4769 0.614123ZM51.6801 9.29291L54.2685 9.64279L51.4936 6.99986L51.6801 9.29291ZM43.1042 3.98141L45.822 4.40977L42.5494 2.71433L43.1042 3.98141ZM29.8486 0.00640869L33.4769 0.614123L32.7331 0.488481L29.8486 0.00640869ZM48.8806 6.61312L51.6801 9.29291L51.4936 6.99986L48.8806 6.61312Z" fill="#B0B0B0"/>
<path d="M15.8311 62.9095L29.8497 66.2711L43.4168 60.4732L15.8311 62.9095ZM36.9774 1.80069L29.8497 0.0065918L22.4822 0.593878L36.9774 1.80069Z" fill="#C4C4C4"/>
<path d="M39.8041 2.26443L43.1042 3.98167L42.5494 2.71459L39.8041 2.26443ZM51.6801 56.9846L54.2685 56.6348L56.7403 53.5577L51.6801 56.9846ZM33.4769 65.6634L29.8486 66.2711L36.333 65.1861L33.4769 65.6634ZM51.6801 56.9846L48.8806 59.6644L54.2685 56.6348L51.6801 56.9846ZM33.4769 65.6634L36.333 65.1861L39.8041 64.0134L33.4769 65.6634ZM43.1042 62.2961L45.822 61.8678L48.8806 59.6644L43.1042 62.2961ZM43.1042 62.2961L39.8041 64.0134L45.822 61.8678L43.1042 62.2961ZM54.1741 12.4143L56.7403 12.7201L54.2685 9.64304L54.1741 12.4143ZM36.9763 1.80076L39.8041 2.26443L36.333 1.09168L36.9763 1.80076ZM46.1892 6.21502L48.8806 6.61338L45.822 4.41003L46.1892 6.21502ZM51.6801 9.29317L54.1741 12.4143L54.2685 9.64304L51.6801 9.29317ZM54.1741 53.8635L56.7403 53.5577L58.8627 50.0849L54.1741 53.8635ZM33.4769 0.61438L36.9763 1.80076L36.333 1.09168L33.4769 0.61438ZM43.1042 3.98167L46.1892 6.21502L45.822 4.41003L43.1042 3.98167ZM54.1741 53.8635L51.6801 56.9846L56.7403 53.5577L54.1741 53.8635ZM56.316 15.9379L58.8627 16.1929L56.7403 12.7201L56.316 15.9379Z" fill="#B0B0B0"/>
<path d="M29.8486 66.2709L33.4769 65.6632L36.9763 64.4768L29.8486 66.2709ZM36.9763 1.80051L33.4769 0.614123L29.8486 0.00640869L36.9763 1.80051Z" fill="#C4C4C4"/>
<path d="M46.1908 60.0625L48.8822 59.6642L51.6816 56.9844L46.1908 60.0625ZM36.9779 64.4768L33.4785 65.6632L39.8057 64.0131L36.9779 64.4768ZM46.1908 60.0625L43.1058 62.2959L48.8822 59.6642L46.1908 60.0625ZM36.9779 64.4768L39.8057 64.0131L43.1058 62.2959L36.9779 64.4768Z" fill="#B0B0B0"/>
<path d="M54.9108 28.3278L36.9785 1.80054L10.1885 7.92051L54.9108 28.3278Z" fill="#C4C4C4"/>
<path d="M56.3172 50.3398L58.864 50.0848L60.5909 46.2585L56.3172 50.3398ZM54.1753 12.4142L56.3172 15.9378L56.7415 12.72L54.1753 12.4142ZM49.0146 8.93262L51.6813 9.29307L48.8818 6.61328L49.0146 8.93262ZM58.0602 19.8209L60.5909 20.0191L58.864 16.1928L58.0602 19.8209ZM40.3053 3.54024L43.1054 3.98157L39.8053 2.26433L40.3053 3.54024ZM56.3172 50.3398L54.1753 53.8634L58.864 50.0848L56.3172 50.3398ZM58.0602 46.4567L60.5909 46.2585L61.8771 42.1249L58.0602 46.4567ZM46.1904 6.21492L49.0146 8.93262L48.8818 6.61328L46.1904 6.21492ZM36.9775 1.80066L40.3053 3.54024L39.8053 2.26433L36.9775 1.80066ZM59.3585 24.0166L61.8771 24.1527L60.5909 20.0191L59.3585 24.0166ZM56.3172 15.9378L58.0602 19.8209L58.864 16.1928L56.3172 15.9378ZM49.0146 57.345L51.6813 56.9845L54.1753 53.8634L49.0146 57.345ZM49.0146 57.345L46.1904 60.0627L51.6813 56.9845L49.0146 57.345Z" fill="#B0B0B0"/>
<path d="M29.8486 66.2706L36.9763 64.4765L43.4157 60.4728L29.8486 66.2706Z" fill="#C4C4C4"/>
<path d="M59.3585 42.2609L61.8771 42.1248L62.6787 37.7337L59.3585 42.2609ZM58.0602 46.4566L56.3172 50.3397L60.5909 46.2584L58.0602 46.4566ZM60.1677 28.4739L62.6787 28.5437L61.8771 24.1526L60.1677 28.4739ZM40.3053 62.7373L43.1054 62.2959L46.1904 60.0626L40.3053 62.7373ZM40.3053 62.7373L36.9775 64.4768L43.1054 62.2959L40.3053 62.7373ZM51.5311 12.099L54.1753 12.4141L51.6813 9.29297L51.5311 12.099ZM60.1677 37.8035L62.6787 37.7337L62.9546 33.1387L60.1677 37.8035ZM60.4462 33.1387H62.9546L62.6787 28.5437L60.4462 33.1387ZM58.0602 19.8208L59.3585 24.0165L60.5909 20.019L58.0602 19.8208Z" fill="#B0B0B0"/>
<path d="M15.8311 62.9094L43.4168 60.4731L54.9097 28.3279L15.8311 62.9094Z" fill="#C4C4C4"/>
<path d="M43.4163 5.80428L46.1898 6.21478L43.1048 3.98143L43.4163 5.80428ZM59.3578 42.2609L58.0596 46.4566L61.8764 42.1247L59.3578 42.2609ZM49.0139 8.93248L51.5305 12.099L51.6806 9.29293L49.0139 8.93248ZM51.5305 54.1783L54.1747 53.8632L56.3166 50.3396L51.5305 54.1783ZM59.3578 24.0164L60.1671 28.4739L61.8764 24.1526L59.3578 24.0164ZM60.1671 37.8034L59.3578 42.2609L62.6781 37.7337L60.1671 37.8034ZM40.3047 3.5401L43.4163 5.80428L43.1048 3.98143L40.3047 3.5401ZM51.5305 54.1783L49.0139 57.3448L54.1747 53.8632L51.5305 54.1783ZM53.692 15.6749L56.3166 15.9377L54.1747 12.4141L53.692 15.6749ZM60.1671 28.4739L60.4455 33.1387L62.6781 28.5436L60.1671 28.4739ZM60.4455 33.1387L60.1671 37.8034L62.9539 33.1387H60.4455ZM43.4163 60.473L46.1898 60.0625L49.0139 57.3448L43.4163 60.473ZM43.4163 60.473L40.3047 62.7372L46.1898 60.0625L43.4163 60.473Z" fill="#B0B0B0"/>
<path d="M36.9775 64.4769L40.3053 62.7373L43.4169 60.4732L36.9775 64.4769ZM43.4169 5.80442L40.3053 3.54024L36.9775 1.80066L43.4169 5.80442Z" fill="#C4C4C4"/>
<path d="M53.6927 50.6022L56.3173 50.3394L58.0603 46.4563L53.6927 50.6022ZM51.5312 12.0988L53.6927 15.6747L54.1754 12.4139L51.5312 12.0988ZM46.2661 8.56076L49.0147 8.93227L46.1905 6.21458L46.2661 8.56076ZM55.452 19.6163L58.0603 19.8206L56.3173 15.9375L55.452 19.6163ZM53.6927 50.6022L51.5312 54.1781L56.3173 50.3394L53.6927 50.6022ZM55.452 46.6606L58.0603 46.4563L59.3585 42.2607L55.452 46.6606ZM43.417 5.80408L46.2661 8.56076L46.1905 6.21458L43.417 5.80408ZM56.7624 23.8759L59.3585 24.0162L58.0603 19.8206L56.7624 23.8759ZM53.6927 15.6747L55.452 19.6163L56.3173 15.9375L53.6927 15.6747ZM46.2661 57.7161L49.0147 57.3446L51.5312 54.1781L46.2661 57.7161Z" fill="#B0B0B0"/>
<path d="M48.8052 11.7743L43.4169 5.80442L36.9775 1.80066L48.8052 11.7743Z" fill="#C4C4C4"/>
<path d="M46.2661 57.7165L43.417 60.4732L49.0147 57.345L46.2661 57.7165ZM56.7624 42.4014L59.3585 42.2611L60.1678 37.8036L56.7624 42.4014ZM55.452 46.661L53.6927 50.6026L58.0603 46.4567L55.452 46.661ZM57.5794 28.4022L60.1678 28.4741L59.3585 24.0166L57.5794 28.4022ZM48.8053 11.7744L51.5312 12.0992L49.0147 8.93267L48.8053 11.7744ZM57.5794 37.8755L60.1678 37.8036L60.4463 33.1389L57.5794 37.8755ZM57.8605 33.1389H60.4463L60.1678 28.4741L57.8605 33.1389ZM55.452 19.6167L56.7624 23.8763L58.0603 19.821L55.452 19.6167ZM56.7624 42.4014L55.452 46.661L59.3585 42.2611L56.7624 42.4014ZM46.2661 8.56116L48.8053 11.7744L49.0147 8.93267L46.2661 8.56116ZM48.8053 54.5033L51.5312 54.1785L53.6927 50.6026L48.8053 54.5033ZM56.7624 23.8763L57.5794 28.4022L59.3585 24.0166L56.7624 23.8763ZM57.5794 37.8755L56.7624 42.4014L60.1678 37.8036L57.5794 37.8755ZM48.8053 54.5033L46.2661 57.7165L51.5312 54.1785L48.8053 54.5033ZM50.9867 15.4041L53.6927 15.6751L51.5312 12.0992L50.9867 15.4041ZM57.5794 28.4022L57.8605 33.1389L60.1678 28.4741L57.5794 28.4022ZM57.8605 33.1389L57.5794 37.8755L60.4463 33.1389H57.8605Z" fill="#B0B0B0"/>
<path d="M43.4169 60.4732L46.266 57.7165L48.8052 54.5033L43.4169 60.4732ZM48.8052 11.7743L46.266 8.5611L43.4169 5.80442L48.8052 11.7743ZM54.9098 28.328L48.8052 11.7743L36.9775 1.80066L54.9098 28.328Z" fill="#C4C4C4"/>
<path d="M50.989 50.8734L53.695 50.6024L55.4543 46.6608L50.989 50.8734ZM48.8076 11.7742L50.989 15.4039L51.5335 12.099L48.8076 11.7742ZM52.7647 19.4058L55.4543 19.6165L53.695 15.6748L52.7647 19.4058ZM50.989 50.8734L48.8076 54.5031L53.695 50.6024L50.989 50.8734Z" fill="#B0B0B0"/>
<path d="M43.417 60.4732L48.8053 54.5033L52.7624 46.8717L43.417 60.4732Z" fill="#C4C4C4"/>
<path d="M52.762 46.8717L55.4516 46.6611L56.7621 42.4014L52.762 46.8717ZM54.0848 23.7316L56.7621 23.8763L55.4516 19.6167L54.0848 23.7316ZM50.9863 15.4041L52.762 19.406L53.6923 15.6751L50.9863 15.4041ZM54.0848 42.5462L56.7621 42.4014L57.579 37.8755L54.0848 42.5462ZM52.762 46.8717L50.9863 50.8736L55.4516 46.6611L52.762 46.8717ZM54.9095 28.328L57.579 28.4022L56.7621 23.8763L54.9095 28.328Z" fill="#B0B0B0"/>
<path d="M43.417 60.4729L52.7624 46.8714L54.9099 28.3277L43.417 60.4729Z" fill="#C4C4C4"/>
<path d="M54.9102 37.9495L57.5796 37.8754L57.8608 33.1387L54.9102 37.9495ZM55.194 33.1387H57.8608L57.5796 28.402L55.194 33.1387Z" fill="#B0B0B0"/>
<path d="M48.8076 54.5031L50.989 50.8734L52.7647 46.8715L48.8076 54.5031ZM52.7647 19.4058L50.989 15.4039L48.8076 11.7742L52.7647 19.4058Z" fill="#C4C4C4"/>
<path d="M52.7627 19.4061L54.0855 23.7317L55.4523 19.6168L52.7627 19.4061ZM54.0855 42.5463L52.7627 46.8718L56.7628 42.4015L54.0855 42.5463ZM54.0855 23.7317L54.9102 28.3281L56.7628 23.8764L54.0855 23.7317Z" fill="#B0B0B0"/>
<path d="M54.9122 28.3278L52.7647 19.4058L48.8076 11.7742L54.9122 28.3278Z" fill="#C4C4C4"/>
<path d="M54.9116 37.9495L54.0869 42.546L57.5811 37.8754L54.9116 37.9495ZM54.9116 28.3279L55.1954 33.1387L57.5811 28.402L54.9116 28.3279ZM55.1954 33.1387L54.9116 37.9495L57.8622 33.1387H55.1954Z" fill="#B0B0B0"/>
<path d="M52.7627 46.8718L54.0855 42.5463L54.9102 37.9498L52.7627 46.8718ZM54.9102 28.3281L54.0855 23.7317L52.7627 19.4061L54.9102 28.3281ZM52.7627 46.8718L54.9102 37.9498V28.3281L52.7627 46.8718ZM54.9102 37.9498L55.194 33.139L54.9102 28.3281V37.9498Z" fill="#C4C4C4"/>
<path d="M54.9534 33.2557C54.9534 51.4417 42.8384 66.0113 28.0875 66.0113C13.3367 66.0113 1.22168 51.4417 1.22168 33.2557C1.22168 15.0696 13.3367 0.5 28.0875 0.5C42.8384 0.5 54.9534 15.0696 54.9534 33.2557Z" fill="url(#paint0_linear_1115_102456)" stroke="url(#paint1_linear_1115_102456)"/>
<g filter="url(#filter0_d_1115_102456)">
<path d="M17.6489 38.8149C17.6489 36.1335 18.1153 33.5978 19.048 31.2078C19.9806 28.7886 21.1902 26.7484 22.6766 25.0871C24.1631 23.3966 25.7661 21.9976 27.4858 20.8901C29.2345 19.7825 30.9687 19.0101 32.6883 18.5729L34.7431 22.3765C32.12 23.1634 29.7883 24.5187 27.7481 26.4424C25.737 28.366 24.3525 30.7414 23.5947 33.5686C24.9646 31.6741 27.0631 30.7269 29.8903 30.7269C30.3232 30.7269 30.7442 30.7556 31.1532 30.8129C33.0022 31.0723 34.6069 31.918 35.9673 33.35C37.6286 35.0988 38.4593 37.343 38.4593 40.0828C38.4593 43.1431 37.4683 45.5914 35.4864 47.4276C33.5044 49.2346 31.2019 50.1382 28.5787 50.1382C27.9264 50.1382 27.2999 50.096 26.6993 50.0118C24.2405 49.6669 22.2147 48.616 20.6218 46.8592C18.6399 44.6733 17.6489 41.9918 17.6489 38.8149ZM22.9827 38.8586C22.9827 40.6657 23.4782 42.1667 24.4691 43.3617C25.2658 44.2989 26.3167 44.8594 27.6219 45.0432C27.9403 45.0881 28.2738 45.1105 28.6225 45.1105C29.9632 45.1105 31.0416 44.6587 31.8577 43.7552C32.7029 42.8225 33.1255 41.7149 33.1255 40.4325C33.1255 38.9752 32.6883 37.7802 31.814 36.8475C31.1447 36.086 30.247 35.6259 29.121 35.4674C28.8249 35.4257 28.513 35.4048 28.1853 35.4048C26.932 35.4048 25.8681 35.74 24.9938 36.4104C24.1194 37.0807 23.449 37.8968 22.9827 38.8586Z" fill="url(#paint2_linear_1115_102456)"/>
<path d="M15.9557 30.7734C15.023 33.1634 14.5566 35.6991 14.5566 38.3805L17.6489 38.8149C17.6489 36.1335 18.1153 33.5978 19.048 31.2078L15.9557 30.7734Z" fill="url(#paint3_linear_1115_102456)"/>
<path d="M19.5846 24.6523C18.0981 26.3137 16.8883 28.3543 15.9557 30.7734L19.048 31.2078C19.9806 28.7886 21.1902 26.7484 22.6766 25.0871L19.5846 24.6523Z" fill="url(#paint4_linear_1115_102456)"/>
<path d="M14.5566 38.3805C14.5566 41.5575 15.5476 44.2385 17.5295 46.4245L20.6218 46.8592C18.6399 44.6733 17.6489 41.9918 17.6489 38.8149L14.5566 38.3805Z" fill="url(#paint5_linear_1115_102456)"/>
<path d="M24.3935 20.4556C22.6739 21.5631 21.071 22.9619 19.5846 24.6523L22.6766 25.0871C24.1631 23.3966 25.7661 21.9976 27.4858 20.8901L24.3935 20.4556Z" fill="url(#paint6_linear_1115_102456)"/>
<path d="M19.8904 38.4243C20.3567 37.4625 21.0271 36.6464 21.9015 35.976L24.9938 36.4104C24.1194 37.0807 23.449 37.8968 22.9827 38.8586L19.8904 38.4243Z" fill="url(#paint7_linear_1115_102456)"/>
<path d="M21.3769 42.9269C20.3859 41.7319 19.8904 40.2314 19.8904 38.4243L22.9827 38.8586C22.9827 40.6657 23.4782 42.1667 24.4691 43.3617L21.3769 42.9269Z" fill="url(#paint8_linear_1115_102456)"/>
<path d="M20.5024 33.1341C21.2602 30.3069 22.6446 27.9315 24.6557 26.0079L27.7481 26.4424C25.737 28.366 24.3525 30.7414 23.5947 33.5686L20.5024 33.1341Z" fill="url(#paint9_linear_1115_102456)"/>
<path d="M17.5295 46.4245C19.1224 48.1813 21.1481 49.2321 23.6069 49.577L26.693 50.0108C24.2371 49.6649 22.2133 48.6145 20.6218 46.8592L17.5295 46.4245Z" fill="url(#paint10_linear_1115_102456)"/>
<path d="M26.7979 30.2921C23.9707 30.2921 21.8722 31.2396 20.5024 33.1341L23.5947 33.5686C24.9646 31.6741 27.0631 30.7269 29.8903 30.7269L26.7979 30.2921Z" fill="url(#paint11_linear_1115_102456)"/>
<path d="M21.9015 35.976C22.7759 35.3057 23.8398 34.9702 25.0931 34.9702L28.1853 35.4048C26.932 35.4048 25.8681 35.74 24.9938 36.4104L21.9015 35.976Z" fill="url(#paint12_linear_1115_102456)"/>
<path d="M24.5293 44.6086C23.2241 44.4248 22.1735 43.8641 21.3769 42.9269L24.4691 43.3617C25.2658 44.2989 26.3167 44.8594 27.6219 45.0432L24.5293 44.6086Z" fill="url(#paint13_linear_1115_102456)"/>
<path d="M29.5962 18.1384C27.8766 18.5756 26.1423 19.348 24.3935 20.4556L27.4858 20.8901C29.2345 19.7825 30.9687 19.0101 32.6883 18.5729L29.5962 18.1384Z" fill="url(#paint14_linear_1115_102456)"/>
<path d="M25.0931 34.9702C25.4208 34.9702 25.7326 34.991 26.0287 35.0327L29.1181 35.4669C28.8229 35.4255 28.5118 35.4048 28.1853 35.4048L25.0931 34.9702Z" fill="url(#paint15_linear_1115_102456)"/>
<path d="M25.5299 44.6757C25.1825 44.6757 24.8501 44.6534 24.5328 44.6089L27.6219 45.0432C27.9403 45.0881 28.2738 45.1105 28.6225 45.1105L25.5299 44.6757Z" fill="url(#paint16_linear_1115_102456)"/>
<path d="M24.6557 26.0079C26.6959 24.0842 29.0278 22.7287 31.651 21.9417L34.7431 22.3765C32.12 23.1634 29.7883 24.5187 27.7481 26.4424L24.6557 26.0079Z" fill="url(#paint17_linear_1115_102456)"/>
<path d="M23.6069 49.577C24.2076 49.6613 24.834 49.7037 25.4863 49.7037L28.5787 50.1382C27.9264 50.1382 27.2999 50.096 26.6993 50.0118L23.6069 49.577Z" fill="url(#paint18_linear_1115_102456)"/>
<path d="M28.0606 30.3781C27.6516 30.3208 27.2308 30.2921 26.7979 30.2921L29.8903 30.7269C30.3232 30.7269 30.7442 30.7556 31.1532 30.8129L28.0606 30.3781Z" fill="url(#paint19_linear_1115_102456)"/>
<path d="M26.0287 35.0327C27.1548 35.1913 28.0525 35.6513 28.7217 36.4129L31.814 36.8475C31.1447 36.086 30.247 35.6259 29.121 35.4674L26.0287 35.0327Z" fill="url(#paint20_linear_1115_102456)"/>
<path d="M28.7654 43.3205C27.9493 44.224 26.8707 44.6757 25.5299 44.6757L28.6225 45.1105C29.9632 45.1105 31.0416 44.6587 31.8577 43.7552L28.7654 43.3205Z" fill="url(#paint21_linear_1115_102456)"/>
<path d="M31.651 21.9417L29.5962 18.1384L32.6883 18.5729L34.7431 22.3765L31.651 21.9417Z" fill="url(#paint22_linear_1115_102456)"/>
<path d="M28.7217 36.4129C29.5961 37.3455 30.0331 38.5408 30.0331 39.9981L33.1255 40.4325C33.1255 38.9752 32.6883 37.7802 31.814 36.8475L28.7217 36.4129Z" fill="url(#paint23_linear_1115_102456)"/>
<path d="M32.8749 32.9156C31.5156 31.4847 29.9123 30.6392 28.0651 30.3791L31.1532 30.8129C33.0022 31.0723 34.6069 31.918 35.9673 33.35L32.8749 32.9156Z" fill="url(#paint24_linear_1115_102456)"/>
<path d="M30.0331 39.9981C30.0331 41.2805 29.6106 42.3878 28.7654 43.3205L31.8577 43.7552C32.7029 42.8225 33.1255 41.7149 33.1255 40.4325L30.0331 39.9981Z" fill="url(#paint25_linear_1115_102456)"/>
<path d="M25.4863 49.7037C28.1095 49.7037 30.4121 48.8003 32.3941 46.9932L35.4864 47.4276C33.5044 49.2346 31.2019 50.1382 28.5787 50.1382L25.4863 49.7037Z" fill="url(#paint26_linear_1115_102456)"/>
<path d="M35.3671 39.648C35.3671 36.9083 34.5363 34.6643 32.8749 32.9156L35.9673 33.35C37.6286 35.0988 38.4593 37.343 38.4593 40.0828L35.3671 39.648Z" fill="url(#paint27_linear_1115_102456)"/>
<path d="M32.3941 46.9932C34.376 45.157 35.3671 42.7083 35.3671 39.648L38.4593 40.0828C38.4593 43.1431 37.4683 45.5914 35.4864 47.4276L32.3941 46.9932Z" fill="url(#paint28_linear_1115_102456)"/>
<path d="M14.5566 38.3802C14.5566 35.6987 15.023 33.163 15.9557 30.773C16.8883 28.3539 18.0979 26.3137 19.5843 24.6523C21.0708 22.9619 22.6738 21.5629 24.3935 20.4553C26.1422 19.3477 27.8764 18.5754 29.596 18.1382L31.6508 21.9418C29.0277 22.7287 26.696 24.084 24.6558 26.0076C22.6447 27.9313 21.2602 30.3067 20.5024 33.1339C21.8723 31.2394 23.9708 30.2921 26.798 30.2921C29.188 30.2921 31.2136 31.1665 32.875 32.9153C34.5363 34.664 35.367 36.9083 35.367 39.648C35.367 42.7084 34.376 45.1566 32.3941 46.9928C30.4121 48.7999 28.1096 49.7034 25.4864 49.7034C22.1638 49.7034 19.5115 48.6104 17.5295 46.4245C15.5476 44.2385 14.5566 41.5571 14.5566 38.3802ZM19.8904 38.4239C19.8904 40.2309 20.3859 41.732 21.3768 42.927C22.3678 44.0928 23.7522 44.6757 25.5302 44.6757C26.8709 44.6757 27.9493 44.224 28.7654 43.3204C29.6106 42.3877 30.0332 41.2802 30.0332 39.9978C30.0332 38.5405 29.596 37.3455 28.7217 36.4128C27.8764 35.451 26.6669 34.9701 25.093 34.9701C23.8397 34.9701 22.7758 35.3052 21.9015 35.9756C21.0271 36.646 20.3567 37.4621 19.8904 38.4239Z" fill="white"/>
</g>
<path d="M30.8575 0.235008L29.5225 0.0239258C29.9722 0.0850532 30.4172 0.155462 30.8575 0.235008L42.0558 2.00552C43.9368 2.47926 48.5775 4.21928 52.0922 7.38939C55.6069 10.5595 58.2659 14.8265 59.156 16.5638L61.0943 20.871C62.1137 24.1301 63.894 31.8975 62.8602 36.8938C62.24 41.9247 60.3621 46.8866 59.5006 48.7387C58.4238 51.3374 54.8402 57.422 49.1202 60.9712C46.1052 63.5124 39.7305 65.02 34.3895 65.5799C35.05 65.4076 36.5087 64.9941 37.06 64.7185C37.7492 64.3739 56.8547 56.0442 55.1574 30.279C53.8305 14.2515 44.6908 2.73414 30.8575 0.235008Z" fill="url(#paint29_linear_1115_102456)"/>
<defs>
<filter id="filter0_d_1115_102456" x="9.55664" y="10.1382" width="43.9023" height="52" filterUnits="userSpaceOnUse" color-interpolation-filters="sRGB">
<feFlood flood-opacity="0" result="BackgroundImageFix"/>
<feColorMatrix in="SourceAlpha" type="matrix" values="0 0 0 0 0 0 0 0 0 0 0 0 0 0 0 0 0 0 127 0" result="hardAlpha"/>
<feOffset dx="5" dy="2"/>
<feGaussianBlur stdDeviation="5"/>
<feComposite in2="hardAlpha" operator="out"/>
<feColorMatrix type="matrix" values="0 0 0 0 0.321569 0 0 0 0 0.156863 0 0 0 0 0.423529 0 0 0 0.25 0"/>
<feBlend mode="normal" in2="BackgroundImageFix" result="effect1_dropShadow_1115_102456"/>
<feBlend mode="normal" in="SourceGraphic" in2="effect1_dropShadow_1115_102456" result="shape"/>
</filter>
<linearGradient id="paint0_linear_1115_102456" x1="28.0875" y1="0" x2="40.345" y2="67.9304" gradientUnits="userSpaceOnUse">
<stop stop-color="#DEE5F8"/>
<stop offset="1" stop-color="#BDBEE3"/>
</linearGradient>
<linearGradient id="paint1_linear_1115_102456" x1="38.4142" y1="53.3677" x2="-4.77979" y2="2.09893" gradientUnits="userSpaceOnUse">
<stop stop-color="white" stop-opacity="0.7"/>
<stop offset="1" stop-color="#A0A3CF"/>
</linearGradient>
<linearGradient id="paint2_linear_1115_102456" x1="26.508" y1="18.1384" x2="26.508" y2="50.1382" gradientUnits="userSpaceOnUse">
<stop stop-color="#EEEBF1"/>
<stop offset="1" stop-color="#EEECF1"/>
</linearGradient>
<linearGradient id="paint3_linear_1115_102456" x1="26.508" y1="18.1384" x2="26.508" y2="50.1382" gradientUnits="userSpaceOnUse">
<stop stop-color="#EEEBF1"/>
<stop offset="1" stop-color="#EEECF1"/>
</linearGradient>
<linearGradient id="paint4_linear_1115_102456" x1="26.508" y1="18.1384" x2="26.508" y2="50.1382" gradientUnits="userSpaceOnUse">
<stop stop-color="#EEEBF1"/>
<stop offset="1" stop-color="#EEECF1"/>
</linearGradient>
<linearGradient id="paint5_linear_1115_102456" x1="26.508" y1="18.1384" x2="26.508" y2="50.1382" gradientUnits="userSpaceOnUse">
<stop stop-color="#EEEBF1"/>
<stop offset="1" stop-color="#EEECF1"/>
</linearGradient>
<linearGradient id="paint6_linear_1115_102456" x1="26.508" y1="18.1384" x2="26.508" y2="50.1382" gradientUnits="userSpaceOnUse">
<stop stop-color="#EEEBF1"/>
<stop offset="1" stop-color="#EEECF1"/>
</linearGradient>
<linearGradient id="paint7_linear_1115_102456" x1="26.508" y1="18.1384" x2="26.508" y2="50.1382" gradientUnits="userSpaceOnUse">
<stop stop-color="#EEEBF1"/>
<stop offset="1" stop-color="#EEECF1"/>
</linearGradient>
<linearGradient id="paint8_linear_1115_102456" x1="26.508" y1="18.1384" x2="26.508" y2="50.1382" gradientUnits="userSpaceOnUse">
<stop stop-color="#EEEBF1"/>
<stop offset="1" stop-color="#EEECF1"/>
</linearGradient>
<linearGradient id="paint9_linear_1115_102456" x1="26.508" y1="18.1384" x2="26.508" y2="50.1382" gradientUnits="userSpaceOnUse">
<stop stop-color="#EEEBF1"/>
<stop offset="1" stop-color="#EEECF1"/>
</linearGradient>
<linearGradient id="paint10_linear_1115_102456" x1="26.508" y1="18.1384" x2="26.508" y2="50.1382" gradientUnits="userSpaceOnUse">
<stop stop-color="#EEEBF1"/>
<stop offset="1" stop-color="#EEECF1"/>
</linearGradient>
<linearGradient id="paint11_linear_1115_102456" x1="26.508" y1="18.1384" x2="26.508" y2="50.1382" gradientUnits="userSpaceOnUse">
<stop stop-color="#EEEBF1"/>
<stop offset="1" stop-color="#EEECF1"/>
</linearGradient>
<linearGradient id="paint12_linear_1115_102456" x1="26.508" y1="18.1384" x2="26.508" y2="50.1382" gradientUnits="userSpaceOnUse">
<stop stop-color="#EEEBF1"/>
<stop offset="1" stop-color="#EEECF1"/>
</linearGradient>
<linearGradient id="paint13_linear_1115_102456" x1="26.508" y1="18.1384" x2="26.508" y2="50.1382" gradientUnits="userSpaceOnUse">
<stop stop-color="#EEEBF1"/>
<stop offset="1" stop-color="#EEECF1"/>
</linearGradient>
<linearGradient id="paint14_linear_1115_102456" x1="26.508" y1="18.1384" x2="26.508" y2="50.1382" gradientUnits="userSpaceOnUse">
<stop stop-color="#EEEBF1"/>
<stop offset="1" stop-color="#EEECF1"/>
</linearGradient>
<linearGradient id="paint15_linear_1115_102456" x1="26.508" y1="18.1384" x2="26.508" y2="50.1382" gradientUnits="userSpaceOnUse">
<stop stop-color="#EEEBF1"/>
<stop offset="1" stop-color="#EEECF1"/>
</linearGradient>
<linearGradient id="paint16_linear_1115_102456" x1="26.508" y1="18.1384" x2="26.508" y2="50.1382" gradientUnits="userSpaceOnUse">
<stop stop-color="#EEEBF1"/>
<stop offset="1" stop-color="#EEECF1"/>
</linearGradient>
<linearGradient id="paint17_linear_1115_102456" x1="26.508" y1="18.1384" x2="26.508" y2="50.1382" gradientUnits="userSpaceOnUse">
<stop stop-color="#EEEBF1"/>
<stop offset="1" stop-color="#EEECF1"/>
</linearGradient>
<linearGradient id="paint18_linear_1115_102456" x1="26.508" y1="18.1384" x2="26.508" y2="50.1382" gradientUnits="userSpaceOnUse">
<stop stop-color="#EEEBF1"/>
<stop offset="1" stop-color="#EEECF1"/>
</linearGradient>
<linearGradient id="paint19_linear_1115_102456" x1="26.508" y1="18.1384" x2="26.508" y2="50.1382" gradientUnits="userSpaceOnUse">
<stop stop-color="#EEEBF1"/>
<stop offset="1" stop-color="#EEECF1"/>
</linearGradient>
<linearGradient id="paint20_linear_1115_102456" x1="26.508" y1="18.1384" x2="26.508" y2="50.1382" gradientUnits="userSpaceOnUse">
<stop stop-color="#EEEBF1"/>
<stop offset="1" stop-color="#EEECF1"/>
</linearGradient>
<linearGradient id="paint21_linear_1115_102456" x1="26.508" y1="18.1384" x2="26.508" y2="50.1382" gradientUnits="userSpaceOnUse">
<stop stop-color="#EEEBF1"/>
<stop offset="1" stop-color="#EEECF1"/>
</linearGradient>
<linearGradient id="paint22_linear_1115_102456" x1="26.508" y1="18.1384" x2="26.508" y2="50.1382" gradientUnits="userSpaceOnUse">
<stop stop-color="#EEEBF1"/>
<stop offset="1" stop-color="#EEECF1"/>
</linearGradient>
<linearGradient id="paint23_linear_1115_102456" x1="26.508" y1="18.1384" x2="26.508" y2="50.1382" gradientUnits="userSpaceOnUse">
<stop stop-color="#EEEBF1"/>
<stop offset="1" stop-color="#EEECF1"/>
</linearGradient>
<linearGradient id="paint24_linear_1115_102456" x1="26.508" y1="18.1384" x2="26.508" y2="50.1382" gradientUnits="userSpaceOnUse">
<stop stop-color="#EEEBF1"/>
<stop offset="1" stop-color="#EEECF1"/>
</linearGradient>
<linearGradient id="paint25_linear_1115_102456" x1="26.508" y1="18.1384" x2="26.508" y2="50.1382" gradientUnits="userSpaceOnUse">
<stop stop-color="#EEEBF1"/>
<stop offset="1" stop-color="#EEECF1"/>
</linearGradient>
<linearGradient id="paint26_linear_1115_102456" x1="26.508" y1="18.1384" x2="26.508" y2="50.1382" gradientUnits="userSpaceOnUse">
<stop stop-color="#EEEBF1"/>
<stop offset="1" stop-color="#EEECF1"/>
</linearGradient>
<linearGradient id="paint27_linear_1115_102456" x1="26.508" y1="18.1384" x2="26.508" y2="50.1382" gradientUnits="userSpaceOnUse">
<stop stop-color="#EEEBF1"/>
<stop offset="1" stop-color="#EEECF1"/>
</linearGradient>
<linearGradient id="paint28_linear_1115_102456" x1="26.508" y1="18.1384" x2="26.508" y2="50.1382" gradientUnits="userSpaceOnUse">
<stop stop-color="#EEEBF1"/>
<stop offset="1" stop-color="#EEECF1"/>
</linearGradient>
<linearGradient id="paint29_linear_1115_102456" x1="79.8916" y1="27.416" x2="13.0241" y2="39.2922" gradientUnits="userSpaceOnUse">
<stop stop-color="#BDBEE3"/>
<stop offset="1" stop-color="#DEE5F8"/>
</linearGradient>
</defs>
</svg>
