<svg width="63" height="67" viewBox="0 0 63 67" fill="none" xmlns="http://www.w3.org/2000/svg">
<path d="M0.218237 28.9175L0 33.1386L0.218237 37.3597V28.9175ZM1.88678 20.978L0.218237 28.9175V37.3597L1.88678 20.978ZM0.218237 37.3597L0.855362 41.4218L1.88678 45.2992L0.218237 37.3597ZM1.88678 20.978L0.855362 24.8554L0.218237 28.9175L1.88678 20.978ZM0.218237 37.3597L1.88678 45.2992L5.04332 52.3845L0.218237 37.3597ZM1.88678 45.2992L3.28983 48.9637L5.04332 52.3845L1.88678 45.2992ZM5.04332 13.8927L3.28983 17.3134L1.88678 20.978L5.04332 13.8927ZM9.52154 7.92042L1.88678 20.978L0.218237 37.3597L9.52154 7.92042ZM9.52154 7.92042L5.04332 13.8927L1.88678 20.978L9.52154 7.92042ZM0.218237 37.3597L5.04332 52.3845L15.1652 62.9092L0.218237 37.3597ZM9.52154 7.92042L7.12707 10.7494L5.04332 13.8927L9.52154 7.92042ZM5.04332 52.3845L7.12707 55.5278L9.52154 58.3567L5.04332 52.3845ZM9.52154 7.92042L0.218237 37.3597L15.1652 62.9092L9.52154 7.92042ZM5.04332 52.3845L9.52154 58.3567L15.1652 62.9092L5.04332 52.3845ZM9.52154 58.3567L12.2074 60.8316L15.1652 62.9092L9.52154 58.3567ZM15.1652 3.36792L12.2074 5.44555L9.52154 7.92042L15.1652 3.36792Z" fill="#C4C4C4"/>
<path d="M34.8691 65.3202L37.5917 64.8652L41.1351 64.2717L34.8691 65.3202Z" fill="#B0B0B0"/>
<path d="M21.8163 0.593994L15.1652 3.36828L9.52148 7.92078L21.8163 0.593994Z" fill="#C4C4C4"/>
<path d="M38.4407 1.55498L41.1351 2.00526L37.5917 1.41179L38.4407 1.55498ZM34.8691 0.956787L38.4407 1.55498L37.5917 1.41179L34.8691 0.956787ZM38.4407 64.7224L34.8691 65.3206L41.1351 64.2721L38.4407 64.7224ZM38.4407 64.7224L41.1351 64.2721L44.5501 63.1258L38.4407 64.7224Z" fill="#B0B0B0"/>
<path d="M15.1641 62.9096L18.374 64.5435L21.8152 65.6839L15.1641 62.9096ZM21.8152 0.593994L18.374 1.73436L15.1641 3.36828L21.8152 0.593994Z" fill="#C4C4C4"/>
<path d="M41.8846 2.71439L44.5511 3.1516L41.1361 2.00526L41.8846 2.71439ZM38.4417 1.55498L41.8846 2.71439L41.1361 2.00526L38.4417 1.55498ZM32.0684 65.7889L34.8701 65.3206L38.4417 64.7224L32.0684 65.7889ZM41.8846 63.563L38.4417 64.7224L44.5511 63.1258L41.8846 63.563ZM41.8846 63.563L44.5511 63.1258L47.7963 61.4516L41.8846 63.563ZM35.6682 1.09149L38.4417 1.55498L34.8701 0.956787L35.6682 1.09149Z" fill="#B0B0B0"/>
<path d="M15.1641 62.9094L21.8152 65.6837L29.1828 66.271L15.1641 62.9094Z" fill="#C4C4C4"/>
<path d="M45.1572 4.40982L47.7963 4.82578L44.5511 3.15159L45.1572 4.40982ZM32.0684 0.488525L35.6682 1.09147L34.8701 0.95677L32.0684 0.488525Z" fill="#B0B0B0"/>
<path d="M36.3116 1.8008L21.8163 0.593994L9.52148 7.92078L36.3116 1.8008Z" fill="#C4C4C4"/>
<path d="M41.8846 2.71434L45.1572 4.40979L44.5511 3.15155L41.8846 2.71434ZM35.6682 65.1859L32.0684 65.7888L38.4417 64.7224L35.6682 65.1859ZM35.6682 65.1859L38.4417 64.7224L41.8846 63.563L35.6682 65.1859ZM45.1572 61.8675L47.7963 61.4516L50.8288 59.2774L45.1572 61.8675ZM45.1572 61.8675L41.8846 63.563L47.7963 61.4516L45.1572 61.8675ZM39.1393 2.26419L41.8846 2.71434L38.4417 1.55493L39.1393 2.26419ZM48.2158 6.61314L50.8288 6.99987L47.7963 4.82575L48.2158 6.61314Z" fill="#B0B0B0"/>
<path d="M21.8135 65.6837L25.4643 66.2772L29.181 66.271L21.8135 65.6837ZM29.181 0.00649145L25.4643 0.000244141L21.8135 0.593777L29.181 0.00649145Z" fill="#C4C4C4"/>
<path d="M35.668 1.09155L39.1391 2.26431L38.4414 1.55504L35.668 1.09155ZM45.157 4.4099L48.2156 6.61325L47.7961 4.82586L45.157 4.4099Z" fill="#B0B0B0"/>
<path d="M9.52148 7.92017L15.1652 62.909L54.2438 28.3275L9.52148 7.92017Z" fill="#C4C4C4"/>
<path d="M29.1816 66.2709L32.0661 65.7888L35.666 65.1859L29.1816 66.2709ZM48.2136 59.6642L50.8266 59.2774L53.6015 56.6345L48.2136 59.6642ZM39.1371 64.0131L35.666 65.1859L41.8824 63.563L39.1371 64.0131ZM48.2136 59.6642L45.155 61.8675L50.8266 59.2774L48.2136 59.6642ZM39.1371 64.0131L41.8824 63.563L45.155 61.8675L39.1371 64.0131ZM32.8099 0.614123L35.666 1.09142L32.0661 0.488481L32.8099 0.614123ZM51.0131 9.29291L53.6015 9.64279L50.8266 6.99986L51.0131 9.29291ZM42.4372 3.98141L45.155 4.40977L41.8824 2.71433L42.4372 3.98141ZM29.1816 0.00640869L32.8099 0.614123L32.0661 0.488481L29.1816 0.00640869ZM48.2136 6.61312L51.0131 9.29291L50.8266 6.99986L48.2136 6.61312Z" fill="#B0B0B0"/>
<path d="M15.1641 62.9095L29.1828 66.2711L42.7498 60.4732L15.1641 62.9095ZM36.3104 1.80069L29.1828 0.0065918L21.8152 0.593878L36.3104 1.80069Z" fill="#C4C4C4"/>
<path d="M39.1371 2.26443L42.4372 3.98167L41.8824 2.71459L39.1371 2.26443ZM51.0131 56.9846L53.6015 56.6348L56.0733 53.5577L51.0131 56.9846ZM32.8099 65.6634L29.1816 66.2711L35.666 65.1861L32.8099 65.6634ZM51.0131 56.9846L48.2136 59.6644L53.6015 56.6348L51.0131 56.9846ZM32.8099 65.6634L35.666 65.1861L39.1371 64.0134L32.8099 65.6634ZM42.4372 62.2961L45.155 61.8678L48.2136 59.6644L42.4372 62.2961ZM42.4372 62.2961L39.1371 64.0134L45.155 61.8678L42.4372 62.2961ZM53.5071 12.4143L56.0733 12.7201L53.6015 9.64304L53.5071 12.4143ZM36.3093 1.80076L39.1371 2.26443L35.666 1.09168L36.3093 1.80076ZM45.5222 6.21502L48.2136 6.61338L45.155 4.41003L45.5222 6.21502ZM51.0131 9.29317L53.5071 12.4143L53.6015 9.64304L51.0131 9.29317ZM53.5071 53.8635L56.0733 53.5577L58.1957 50.0849L53.5071 53.8635ZM32.8099 0.61438L36.3093 1.80076L35.666 1.09168L32.8099 0.61438ZM42.4372 3.98167L45.5222 6.21502L45.155 4.41003L42.4372 3.98167ZM53.5071 53.8635L51.0131 56.9846L56.0733 53.5577L53.5071 53.8635ZM55.649 15.9379L58.1957 16.1929L56.0733 12.7201L55.649 15.9379Z" fill="#B0B0B0"/>
<path d="M29.1816 66.2709L32.8099 65.6632L36.3093 64.4768L29.1816 66.2709ZM36.3093 1.80051L32.8099 0.614123L29.1816 0.00640869L36.3093 1.80051Z" fill="#C4C4C4"/>
<path d="M45.5238 60.0625L48.2152 59.6642L51.0146 56.9844L45.5238 60.0625ZM36.3109 64.4768L32.8115 65.6632L39.1387 64.0131L36.3109 64.4768ZM45.5238 60.0625L42.4388 62.2959L48.2152 59.6642L45.5238 60.0625ZM36.3109 64.4768L39.1387 64.0131L42.4388 62.2959L36.3109 64.4768Z" fill="#B0B0B0"/>
<path d="M54.2438 28.3278L36.3116 1.80054L9.52148 7.92051L54.2438 28.3278Z" fill="#C4C4C4"/>
<path d="M55.6502 50.3398L58.197 50.0848L59.9239 46.2585L55.6502 50.3398ZM53.5083 12.4142L55.6502 15.9378L56.0745 12.72L53.5083 12.4142ZM48.3476 8.93262L51.0143 9.29307L48.2148 6.61328L48.3476 8.93262ZM57.3932 19.8209L59.9239 20.0191L58.197 16.1928L57.3932 19.8209ZM39.6383 3.54024L42.4384 3.98157L39.1383 2.26433L39.6383 3.54024ZM55.6502 50.3398L53.5083 53.8634L58.197 50.0848L55.6502 50.3398ZM57.3932 46.4567L59.9239 46.2585L61.2101 42.1249L57.3932 46.4567ZM45.5234 6.21492L48.3476 8.93262L48.2148 6.61328L45.5234 6.21492ZM36.3105 1.80066L39.6383 3.54024L39.1383 2.26433L36.3105 1.80066ZM58.6915 24.0166L61.2101 24.1527L59.9239 20.0191L58.6915 24.0166ZM55.6502 15.9378L57.3932 19.8209L58.197 16.1928L55.6502 15.9378ZM48.3476 57.345L51.0143 56.9845L53.5083 53.8634L48.3476 57.345ZM48.3476 57.345L45.5234 60.0627L51.0143 56.9845L48.3476 57.345Z" fill="#B0B0B0"/>
<path d="M29.1816 66.2706L36.3093 64.4765L42.7487 60.4728L29.1816 66.2706Z" fill="#C4C4C4"/>
<path d="M58.6915 42.2609L61.2101 42.1248L62.0117 37.7337L58.6915 42.2609ZM57.3932 46.4566L55.6502 50.3397L59.9239 46.2584L57.3932 46.4566ZM59.5007 28.4739L62.0117 28.5437L61.2101 24.1526L59.5007 28.4739ZM39.6383 62.7373L42.4384 62.2959L45.5234 60.0626L39.6383 62.7373ZM39.6383 62.7373L36.3105 64.4768L42.4384 62.2959L39.6383 62.7373ZM50.8641 12.099L53.5083 12.4141L51.0143 9.29297L50.8641 12.099ZM59.5007 37.8035L62.0117 37.7337L62.2876 33.1387L59.5007 37.8035ZM59.7792 33.1387H62.2876L62.0117 28.5437L59.7792 33.1387ZM57.3932 19.8208L58.6915 24.0165L59.9239 20.019L57.3932 19.8208Z" fill="#B0B0B0"/>
<path d="M15.1641 62.9094L42.7498 60.4731L54.2427 28.3279L15.1641 62.9094Z" fill="#C4C4C4"/>
<path d="M42.7493 5.80428L45.5228 6.21478L42.4378 3.98143L42.7493 5.80428ZM58.6908 42.2609L57.3926 46.4566L61.2094 42.1247L58.6908 42.2609ZM48.3469 8.93248L50.8635 12.099L51.0136 9.29293L48.3469 8.93248ZM50.8635 54.1783L53.5077 53.8632L55.6496 50.3396L50.8635 54.1783ZM58.6908 24.0164L59.5001 28.4739L61.2094 24.1526L58.6908 24.0164ZM59.5001 37.8034L58.6908 42.2609L62.0111 37.7337L59.5001 37.8034ZM39.6377 3.5401L42.7493 5.80428L42.4378 3.98143L39.6377 3.5401ZM50.8635 54.1783L48.3469 57.3448L53.5077 53.8632L50.8635 54.1783ZM53.025 15.6749L55.6496 15.9377L53.5077 12.4141L53.025 15.6749ZM59.5001 28.4739L59.7785 33.1387L62.0111 28.5436L59.5001 28.4739ZM59.7785 33.1387L59.5001 37.8034L62.2869 33.1387H59.7785ZM42.7493 60.473L45.5228 60.0625L48.3469 57.3448L42.7493 60.473ZM42.7493 60.473L39.6377 62.7372L45.5228 60.0625L42.7493 60.473Z" fill="#B0B0B0"/>
<path d="M36.3105 64.4769L39.6383 62.7373L42.7499 60.4732L36.3105 64.4769ZM42.7499 5.80442L39.6383 3.54024L36.3105 1.80066L42.7499 5.80442Z" fill="#C4C4C4"/>
<path d="M53.0257 50.6022L55.6503 50.3394L57.3933 46.4563L53.0257 50.6022ZM50.8642 12.0988L53.0257 15.6747L53.5084 12.4139L50.8642 12.0988ZM45.5991 8.56076L48.3477 8.93227L45.5235 6.21458L45.5991 8.56076ZM54.785 19.6163L57.3933 19.8206L55.6503 15.9375L54.785 19.6163ZM53.0257 50.6022L50.8642 54.1781L55.6503 50.3394L53.0257 50.6022ZM54.785 46.6606L57.3933 46.4563L58.6916 42.2607L54.785 46.6606ZM42.75 5.80408L45.5991 8.56076L45.5235 6.21458L42.75 5.80408ZM56.0954 23.8759L58.6916 24.0162L57.3933 19.8206L56.0954 23.8759ZM53.0257 15.6747L54.785 19.6163L55.6503 15.9375L53.0257 15.6747ZM45.5991 57.7161L48.3477 57.3446L50.8642 54.1781L45.5991 57.7161Z" fill="#B0B0B0"/>
<path d="M48.1383 11.7743L42.7499 5.80442L36.3105 1.80066L48.1383 11.7743Z" fill="#C4C4C4"/>
<path d="M45.5991 57.7165L42.75 60.4732L48.3477 57.345L45.5991 57.7165ZM56.0954 42.4014L58.6916 42.2611L59.5008 37.8036L56.0954 42.4014ZM54.785 46.661L53.0257 50.6026L57.3933 46.4567L54.785 46.661ZM56.9124 28.4022L59.5008 28.4741L58.6916 24.0166L56.9124 28.4022ZM48.1383 11.7744L50.8642 12.0992L48.3477 8.93267L48.1383 11.7744ZM56.9124 37.8755L59.5008 37.8036L59.7793 33.1389L56.9124 37.8755ZM57.1935 33.1389H59.7793L59.5008 28.4741L57.1935 33.1389ZM54.785 19.6167L56.0954 23.8763L57.3933 19.821L54.785 19.6167ZM56.0954 42.4014L54.785 46.661L58.6916 42.2611L56.0954 42.4014ZM45.5991 8.56116L48.1383 11.7744L48.3477 8.93267L45.5991 8.56116ZM48.1383 54.5033L50.8642 54.1785L53.0257 50.6026L48.1383 54.5033ZM56.0954 23.8763L56.9124 28.4022L58.6916 24.0166L56.0954 23.8763ZM56.9124 37.8755L56.0954 42.4014L59.5008 37.8036L56.9124 37.8755ZM48.1383 54.5033L45.5991 57.7165L50.8642 54.1785L48.1383 54.5033ZM50.3197 15.4041L53.0257 15.6751L50.8642 12.0992L50.3197 15.4041ZM56.9124 28.4022L57.1935 33.1389L59.5008 28.4741L56.9124 28.4022ZM57.1935 33.1389L56.9124 37.8755L59.7793 33.1389H57.1935Z" fill="#B0B0B0"/>
<path d="M42.7499 60.4732L45.599 57.7165L48.1383 54.5033L42.7499 60.4732ZM48.1383 11.7743L45.599 8.5611L42.7499 5.80442L48.1383 11.7743ZM54.2428 28.328L48.1383 11.7743L36.3105 1.80066L54.2428 28.328Z" fill="#C4C4C4"/>
<path d="M50.322 50.8734L53.028 50.6024L54.7873 46.6608L50.322 50.8734ZM48.1406 11.7742L50.322 15.4039L50.8665 12.099L48.1406 11.7742ZM52.0977 19.4058L54.7873 19.6165L53.028 15.6748L52.0977 19.4058ZM50.322 50.8734L48.1406 54.5031L53.028 50.6024L50.322 50.8734Z" fill="#B0B0B0"/>
<path d="M42.75 60.4732L48.1383 54.5033L52.0954 46.8717L42.75 60.4732Z" fill="#C4C4C4"/>
<path d="M52.095 46.8717L54.7846 46.6611L56.0951 42.4014L52.095 46.8717ZM53.4178 23.7316L56.0951 23.8763L54.7846 19.6167L53.4178 23.7316ZM50.3193 15.4041L52.095 19.406L53.0253 15.6751L50.3193 15.4041ZM53.4178 42.5462L56.0951 42.4014L56.912 37.8755L53.4178 42.5462ZM52.095 46.8717L50.3193 50.8736L54.7846 46.6611L52.095 46.8717ZM54.2425 28.328L56.912 28.4022L56.0951 23.8763L54.2425 28.328Z" fill="#B0B0B0"/>
<path d="M42.75 60.4729L52.0954 46.8714L54.2429 28.3277L42.75 60.4729Z" fill="#C4C4C4"/>
<path d="M54.2432 37.9495L56.9126 37.8754L57.1938 33.1387L54.2432 37.9495ZM54.527 33.1387H57.1938L56.9126 28.402L54.527 33.1387Z" fill="#B0B0B0"/>
<path d="M48.1406 54.5031L50.322 50.8734L52.0977 46.8715L48.1406 54.5031ZM52.0977 19.4058L50.322 15.4039L48.1406 11.7742L52.0977 19.4058Z" fill="#C4C4C4"/>
<path d="M52.0957 19.4061L53.4185 23.7317L54.7853 19.6168L52.0957 19.4061ZM53.4185 42.5463L52.0957 46.8718L56.0958 42.4015L53.4185 42.5463ZM53.4185 23.7317L54.2432 28.3281L56.0958 23.8764L53.4185 23.7317Z" fill="#B0B0B0"/>
<path d="M54.2452 28.3278L52.0977 19.4058L48.1406 11.7742L54.2452 28.3278Z" fill="#C4C4C4"/>
<path d="M54.2446 37.9495L53.4199 42.546L56.9141 37.8754L54.2446 37.9495ZM54.2446 28.3279L54.5284 33.1387L56.9141 28.402L54.2446 28.3279ZM54.5284 33.1387L54.2446 37.9495L57.1952 33.1387H54.5284Z" fill="#B0B0B0"/>
<path d="M52.0957 46.8718L53.4185 42.5463L54.2432 37.9498L52.0957 46.8718ZM54.2432 28.3281L53.4185 23.7317L52.0957 19.4061L54.2432 28.3281ZM52.0957 46.8718L54.2432 37.9498V28.3281L52.0957 46.8718ZM54.2432 37.9498L54.527 33.139L54.2432 28.3281V37.9498Z" fill="#C4C4C4"/>
<path d="M54.2864 33.2557C54.2864 51.4417 42.1714 66.0113 27.4205 66.0113C12.6697 66.0113 0.554688 51.4417 0.554688 33.2557C0.554688 15.0696 12.6697 0.5 27.4205 0.5C42.1714 0.5 54.2864 15.0696 54.2864 33.2557Z" fill="url(#paint0_linear_1115_102562)" stroke="url(#paint1_linear_1115_102562)"/>
<g filter="url(#filter0_d_1115_102562)">
<path d="M27.9708 31.9008C28.1059 31.9127 28.2439 31.9186 28.3851 31.9186C28.3851 31.9186 28.4444 31.9186 28.5309 31.9186C28.6773 31.9186 28.9017 31.9186 29.0482 31.9186C29.1346 31.9186 29.1939 31.9186 29.1939 31.9186C30.3007 31.9186 31.2089 31.5355 31.9184 30.7692C32.6563 30.003 33.0252 29.109 33.0252 28.0873C33.0252 26.8954 32.6279 25.973 31.8332 25.3203C31.164 24.7467 30.3136 24.4146 29.2821 24.3241C29.0888 24.3071 28.8891 24.2986 28.6831 24.2986C27.406 24.2986 26.3843 24.6534 25.6181 25.3629C24.8518 26.0724 24.4687 26.9805 24.4687 28.0873C24.4687 29.109 24.8376 30.003 25.5755 30.7692C26.2216 31.4402 27.0201 31.8174 27.9708 31.9008ZM29.8003 36.8399C29.6041 36.8227 29.402 36.8141 29.1939 36.8141C29.1939 36.8141 29.1409 36.8141 29.0635 36.8141C28.9325 36.8141 28.7317 36.8141 28.6007 36.8141C28.5233 36.8141 28.4703 36.8141 28.4703 36.8141C27.1648 36.8141 26.0296 37.1972 25.0647 37.9635C24.1282 38.7297 23.6599 39.7514 23.6599 41.0285C23.6599 42.2488 24.114 43.2563 25.0221 44.0509C25.7842 44.7178 26.7762 45.1048 27.9979 45.212C28.2321 45.2326 28.4747 45.2429 28.7257 45.2429C30.4285 45.2429 31.7197 44.8597 32.5995 44.0935C33.4793 43.2989 33.905 42.2772 33.8766 41.0285C33.8482 39.6946 33.3941 38.6588 32.5144 37.9209C31.793 37.2957 30.8883 36.9354 29.8003 36.8399ZM36.1328 47.8396C34.203 49.3721 31.7481 50.1384 28.7682 50.1384C28.2734 50.1384 27.7927 50.118 27.326 50.0773C24.9825 49.873 22.9942 49.1554 21.3611 47.9247C19.4029 46.4206 18.4238 44.434 18.4238 41.965C18.4238 40.1203 18.8921 38.5311 19.8286 37.1972C20.7935 35.8634 22.0281 34.941 23.5322 34.4302V34.3025C22.3119 33.7917 21.2902 32.9119 20.4672 31.6632C19.6725 30.3861 19.2752 28.9103 19.2752 27.2359C19.2752 24.9372 20.1834 23.0641 21.9997 21.6168C23.816 20.141 26.058 19.4031 28.7257 19.4031C29.1341 19.4031 29.5324 19.4201 29.9206 19.4539C32.0952 19.6436 33.9531 20.3646 35.4942 21.6168C37.3389 23.0641 38.2613 24.9372 38.2613 27.2359C38.2613 28.7117 37.8497 30.1023 37.0267 31.4078C36.2037 32.7132 35.0827 33.6639 33.6637 34.2599V34.3876C35.1962 34.6998 36.4733 35.5086 37.495 36.8141C38.545 38.0912 39.0701 39.6663 39.0701 41.5393C39.0701 44.207 38.091 46.3071 36.1328 47.8396Z" fill="url(#paint2_linear_1115_102562)"/>
<path d="M16.2458 26.9712C16.2458 28.6456 16.6431 30.1213 17.4377 31.3984L20.4672 31.6632C19.6725 30.3861 19.2752 28.9103 19.2752 27.2359L16.2458 26.9712Z" fill="url(#paint3_linear_1115_102562)"/>
<path d="M16.7993 36.9326C15.8628 38.2664 15.3945 39.8557 15.3945 41.7004L18.4238 41.965C18.4238 40.1203 18.8921 38.5311 19.8286 37.1972L16.7993 36.9326Z" fill="url(#paint4_linear_1115_102562)"/>
<path d="M18.9702 21.3521C17.1539 22.7994 16.2458 24.6724 16.2458 26.9712L19.2752 27.2359C19.2752 24.9372 20.1834 23.0641 21.9997 21.6168L18.9702 21.3521Z" fill="url(#paint5_linear_1115_102562)"/>
<path d="M15.3945 41.7004C15.3945 44.1694 16.3736 46.1556 18.3318 47.6597L21.3611 47.9247C19.4029 46.4206 18.4238 44.434 18.4238 41.965L15.3945 41.7004Z" fill="url(#paint6_linear_1115_102562)"/>
<path d="M20.5031 34.1656C18.999 34.6764 17.7642 35.5988 16.7993 36.9326L19.8286 37.1972C20.7935 35.8634 22.0281 34.941 23.5322 34.4302L20.5031 34.1656Z" fill="url(#paint7_linear_1115_102562)"/>
<path d="M17.4377 31.3984C18.2607 32.6471 19.2827 33.5271 20.503 34.0379L23.5322 34.3025C22.3119 33.7917 21.2902 32.9119 20.4672 31.6632L17.4377 31.3984Z" fill="url(#paint8_linear_1115_102562)"/>
<path d="M20.503 34.0379L20.5031 34.1656L23.5322 34.4302V34.3025L20.503 34.0379Z" fill="url(#paint9_linear_1115_102562)"/>
<path d="M25.6962 19.1384C23.0285 19.1384 20.7865 19.8763 18.9702 21.3521L21.9997 21.6168C23.816 20.141 26.058 19.4031 28.7257 19.4031L25.6962 19.1384Z" fill="url(#paint10_linear_1115_102562)"/>
<path d="M21.4393 27.8224C21.4393 26.7156 21.8224 25.8075 22.5887 25.098L25.6181 25.3629C24.8518 26.0724 24.4687 26.9805 24.4687 28.0873L21.4393 27.8224Z" fill="url(#paint11_linear_1115_102562)"/>
<path d="M22.5461 30.5043C21.8082 29.7381 21.4393 28.8441 21.4393 27.8224L24.4687 28.0873C24.4687 29.109 24.8376 30.003 25.5755 30.7692L22.5461 30.5043Z" fill="url(#paint12_linear_1115_102562)"/>
<path d="M20.6306 40.7637C20.6306 39.4866 21.0989 38.465 22.0354 37.6987L25.0647 37.9635C24.1282 38.7297 23.6599 39.7514 23.6599 41.0285L20.6306 40.7637Z" fill="url(#paint13_linear_1115_102562)"/>
<path d="M21.9928 43.7861C21.0847 42.9914 20.6306 41.984 20.6306 40.7637L23.6599 41.0285C23.6599 42.2488 24.114 43.2563 25.0221 44.0509L21.9928 43.7861Z" fill="url(#paint14_linear_1115_102562)"/>
<path d="M18.3318 47.6597C19.9649 48.8904 21.9531 49.6083 24.2967 49.8127L27.3171 50.0769C24.9773 49.8716 22.9921 49.1539 21.3611 47.9247L18.3318 47.6597Z" fill="url(#paint15_linear_1115_102562)"/>
<path d="M22.5887 25.098C23.3549 24.3885 24.3769 24.0339 25.6539 24.0339L28.6831 24.2986C27.406 24.2986 26.3843 24.6534 25.6181 25.3629L22.5887 25.098Z" fill="url(#paint16_linear_1115_102562)"/>
<path d="M24.9417 31.6359C23.9909 31.5525 23.1922 31.1753 22.5461 30.5043L25.5755 30.7692C26.2216 31.4402 27.0201 31.8174 27.9708 31.9008L24.9417 31.6359Z" fill="url(#paint17_linear_1115_102562)"/>
<path d="M22.0354 37.6987C23.0003 36.9325 24.1352 36.5495 25.4407 36.5495L28.4703 36.8141C27.1648 36.8141 26.0296 37.1972 25.0647 37.9635L22.0354 37.6987Z" fill="url(#paint18_linear_1115_102562)"/>
<path d="M24.9684 44.9471C23.7466 44.8399 22.7549 44.4529 21.9928 43.7861L25.0221 44.0509C25.7842 44.7178 26.7762 45.1048 27.9979 45.212L24.9684 44.9471Z" fill="url(#paint19_linear_1115_102562)"/>
<path d="M25.356 31.6539C25.2156 31.6539 25.0783 31.6481 24.9441 31.6364L27.9708 31.9008C28.1059 31.9127 28.2439 31.9186 28.3851 31.9186L25.356 31.6539Z" fill="url(#paint20_linear_1115_102562)"/>
<path d="M26.8914 19.1892C26.5032 19.1553 26.1046 19.1384 25.6962 19.1384L28.7257 19.4031C29.1341 19.4031 29.5324 19.4201 29.9206 19.4539L26.8914 19.1892Z" fill="url(#paint21_linear_1115_102562)"/>
<path d="M25.6539 24.0339C25.86 24.0339 26.0596 24.0424 26.2529 24.0594L29.2786 24.3241C29.0864 24.3073 28.8879 24.2986 28.6831 24.2986L25.6539 24.0339Z" fill="url(#paint22_linear_1115_102562)"/>
<path d="M25.5017 31.654L25.356 31.6539L28.3851 31.9186H28.5309L25.5017 31.654Z" fill="url(#paint23_linear_1115_102562)"/>
<path d="M26.0188 31.654H25.5017L28.5309 31.9186H29.0482L26.0188 31.654Z" fill="url(#paint24_linear_1115_102562)"/>
<path d="M25.4407 36.5495H25.5715L28.6007 36.8141H28.4703L25.4407 36.5495Z" fill="url(#paint25_linear_1115_102562)"/>
<path d="M26.1649 31.654H26.0188L29.0482 31.9186H29.1939L26.1649 31.654Z" fill="url(#paint26_linear_1115_102562)"/>
<path d="M25.5715 36.5495H26.0341L29.0635 36.8141H28.6007L25.5715 36.5495Z" fill="url(#paint27_linear_1115_102562)"/>
<path d="M25.6962 44.9779C25.4467 44.9779 25.2055 44.9677 24.9727 44.9474L27.9979 45.212C28.2321 45.2326 28.4747 45.2429 28.7257 45.2429L25.6962 44.9779Z" fill="url(#paint28_linear_1115_102562)"/>
<path d="M26.0341 36.5495H26.1649L29.1939 36.8141H29.0635L26.0341 36.5495Z" fill="url(#paint29_linear_1115_102562)"/>
<path d="M24.2967 49.8127C24.7633 49.8534 25.2442 49.8735 25.739 49.8735L28.7682 50.1384C28.2734 50.1384 27.7927 50.118 27.326 50.0773L24.2967 49.8127Z" fill="url(#paint30_linear_1115_102562)"/>
<path d="M26.1649 36.5495C26.3729 36.5495 26.5748 36.5582 26.771 36.5754L29.7965 36.8401C29.6015 36.8231 29.4008 36.8141 29.1939 36.8141L26.1649 36.5495Z" fill="url(#paint31_linear_1115_102562)"/>
<path d="M26.2529 24.0594C27.2844 24.1499 28.1346 24.4818 28.8039 25.0554L31.8332 25.3203C31.164 24.7467 30.3136 24.4146 29.2821 24.3241L26.2529 24.0594Z" fill="url(#paint32_linear_1115_102562)"/>
<path d="M28.8891 30.5043C28.1796 31.2706 27.2717 31.654 26.1649 31.654L29.1939 31.9186C30.3007 31.9186 31.2089 31.5355 31.9184 30.7692L28.8891 30.5043Z" fill="url(#paint33_linear_1115_102562)"/>
<path d="M26.771 36.5754C27.859 36.6709 28.7636 37.0311 29.4849 37.6563L32.5144 37.9209C31.793 37.2957 30.8883 36.9354 29.8003 36.8399L26.771 36.5754Z" fill="url(#paint34_linear_1115_102562)"/>
<path d="M32.4647 21.3522C30.9251 20.1012 29.0695 19.3805 26.8977 19.1899L29.9206 19.4539C32.0952 19.6436 33.9531 20.3646 35.4942 21.6168L32.4647 21.3522Z" fill="url(#paint35_linear_1115_102562)"/>
<path d="M29.5703 43.8286C28.6905 44.5948 27.3989 44.9779 25.6962 44.9779L28.7257 45.2429C30.4285 45.2429 31.7197 44.8597 32.5995 44.0935L29.5703 43.8286Z" fill="url(#paint36_linear_1115_102562)"/>
<path d="M28.8039 25.0554C29.5985 25.7081 29.9959 26.6305 29.9959 27.8224L33.0252 28.0873C33.0252 26.8954 32.6279 25.973 31.8332 25.3203L28.8039 25.0554Z" fill="url(#paint37_linear_1115_102562)"/>
<path d="M29.9959 27.8224C29.9959 28.8441 29.6269 29.7381 28.8891 30.5043L31.9184 30.7692C32.6563 30.003 33.0252 29.109 33.0252 28.0873L29.9959 27.8224Z" fill="url(#paint38_linear_1115_102562)"/>
<path d="M29.4849 37.6563C30.3647 38.3941 30.8188 39.4299 30.8471 40.7637L33.8766 41.0285C33.8482 39.6946 33.3941 38.6588 32.5144 37.9209L29.4849 37.6563Z" fill="url(#paint39_linear_1115_102562)"/>
<path d="M30.6346 34.1231V33.9953L33.6637 34.2599V34.3876L30.6346 34.1231Z" fill="url(#paint40_linear_1115_102562)"/>
<path d="M25.739 49.8735C28.7189 49.8735 31.1737 49.1075 33.1035 47.575L36.1328 47.8396C34.203 49.3721 31.7481 50.1384 28.7682 50.1384L25.739 49.8735Z" fill="url(#paint41_linear_1115_102562)"/>
<path d="M30.8471 40.7637C30.8755 42.0124 30.45 43.0339 29.5703 43.8286L32.5995 44.0935C33.4793 43.2989 33.905 42.2772 33.8766 41.0285L30.8471 40.7637Z" fill="url(#paint42_linear_1115_102562)"/>
<path d="M30.6346 33.9953C32.0536 33.3994 33.1746 32.4487 33.9976 31.1432L37.0267 31.4078C36.2037 32.7132 35.0827 33.6639 33.6637 34.2599L30.6346 33.9953Z" fill="url(#paint43_linear_1115_102562)"/>
<path d="M34.4658 36.5495C33.4442 35.244 32.1671 34.4352 30.6346 34.1231L33.6637 34.3876C35.1962 34.6998 36.4733 35.5086 37.495 36.8141L34.4658 36.5495Z" fill="url(#paint44_linear_1115_102562)"/>
<path d="M35.2317 26.9713C35.2317 24.6725 34.3094 22.7995 32.4647 21.3522L35.4942 21.6168C37.3389 23.0641 38.2613 24.9372 38.2613 27.2359L35.2317 26.9713Z" fill="url(#paint45_linear_1115_102562)"/>
<path d="M33.9976 31.1432C34.8206 29.8378 35.2317 28.447 35.2317 26.9713L38.2613 27.2359C38.2613 28.7117 37.8497 30.1023 37.0267 31.4078L33.9976 31.1432Z" fill="url(#paint46_linear_1115_102562)"/>
<path d="M33.1035 47.575C35.0617 46.0425 36.0409 43.9421 36.0409 41.2744L39.0701 41.5393C39.0701 44.207 38.091 46.3071 36.1328 47.8396L33.1035 47.575Z" fill="url(#paint47_linear_1115_102562)"/>
<path d="M36.0409 41.2744C36.0409 39.4013 35.5159 37.8266 34.4658 36.5495L37.495 36.8141C38.545 38.0912 39.0701 39.6663 39.0701 41.5393L36.0409 41.2744Z" fill="url(#paint48_linear_1115_102562)"/>
<path d="M25.3558 31.6536H26.1646C27.2714 31.6536 28.1796 31.2705 28.8891 30.5043C29.627 29.738 29.9959 28.844 29.9959 27.8224C29.9959 26.6304 29.5986 25.7081 28.8039 25.0554C28.0093 24.3742 26.9593 24.0337 25.6538 24.0337C24.3767 24.0337 23.355 24.3884 22.5888 25.0979C21.8225 25.8074 21.4394 26.7156 21.4394 27.8224C21.4394 28.844 21.8083 29.738 22.5462 30.5043C23.2841 31.2705 24.2206 31.6536 25.3558 31.6536ZM26.1646 36.5491H25.4409C24.1355 36.5491 23.0003 36.9323 22.0354 37.6985C21.0989 38.4648 20.6306 39.4864 20.6306 40.7635C20.6306 41.9839 21.0847 42.9913 21.9928 43.786C22.901 44.5806 24.1355 44.9779 25.6964 44.9779C27.3991 44.9779 28.6904 44.5948 29.5702 43.8285C30.45 43.0339 30.8757 42.0122 30.8473 40.7635C30.8189 39.4297 30.3648 38.3938 29.4851 37.6559C28.6337 36.9181 27.5269 36.5491 26.1646 36.5491ZM33.1035 47.5747C31.1737 49.1072 28.7188 49.8734 25.7389 49.8734C22.7591 49.8734 20.29 49.1355 18.3318 47.6598C16.3736 46.1557 15.3945 44.1691 15.3945 41.7001C15.3945 39.8554 15.8628 38.2661 16.7993 36.9323C17.7642 35.5984 18.9988 34.6761 20.5029 34.1652V34.0375C19.2826 33.5267 18.2609 32.6469 17.4379 31.3982C16.6432 30.1211 16.2459 28.6454 16.2459 26.971C16.2459 24.6722 17.1541 22.7992 18.9704 21.3518C20.7867 19.8761 23.0287 19.1382 25.6964 19.1382C28.3924 19.1382 30.6486 19.8761 32.4649 21.3518C34.3096 22.7992 35.232 24.6722 35.232 26.971C35.232 28.4467 34.8204 29.8373 33.9974 31.1428C33.1744 32.4483 32.0534 33.399 30.6344 33.995V34.1227C32.1669 34.4348 33.444 35.2437 34.4657 36.5491C35.5157 37.8262 36.0408 39.4013 36.0408 41.2744C36.0408 43.9421 35.0617 46.0422 33.1035 47.5747Z" fill="white"/>
</g>
<path d="M30.1905 0.235008L28.8555 0.0239258C29.3052 0.0850532 29.7502 0.155462 30.1905 0.235008L41.3888 2.00552C43.2698 2.47926 47.9105 4.21928 51.4252 7.38939C54.9399 10.5595 57.5989 14.8265 58.489 16.5638L60.4273 20.871C61.4467 24.1301 63.227 31.8975 62.1932 36.8938C61.573 41.9247 59.6951 46.8866 58.8336 48.7387C57.7568 51.3374 54.1732 57.422 48.4532 60.9712C45.4382 63.5124 39.0635 65.02 33.7225 65.5799C34.383 65.4076 35.8417 64.9941 36.393 64.7185C37.0822 64.3739 56.1877 56.0442 54.4905 30.279C53.1635 14.2515 44.0238 2.73414 30.1905 0.235008Z" fill="url(#paint49_linear_1115_102562)"/>
<defs>
<filter id="filter0_d_1115_102562" x="10.3945" y="11.1382" width="43.6758" height="51.0002" filterUnits="userSpaceOnUse" color-interpolation-filters="sRGB">
<feFlood flood-opacity="0" result="BackgroundImageFix"/>
<feColorMatrix in="SourceAlpha" type="matrix" values="0 0 0 0 0 0 0 0 0 0 0 0 0 0 0 0 0 0 127 0" result="hardAlpha"/>
<feOffset dx="5" dy="2"/>
<feGaussianBlur stdDeviation="5"/>
<feComposite in2="hardAlpha" operator="out"/>
<feColorMatrix type="matrix" values="0 0 0 0 0.321569 0 0 0 0 0.156863 0 0 0 0 0.423529 0 0 0 0.25 0"/>
<feBlend mode="normal" in2="BackgroundImageFix" result="effect1_dropShadow_1115_102562"/>
<feBlend mode="normal" in="SourceGraphic" in2="effect1_dropShadow_1115_102562" result="shape"/>
</filter>
<linearGradient id="paint0_linear_1115_102562" x1="27.4205" y1="0" x2="39.678" y2="67.9304" gradientUnits="userSpaceOnUse">
<stop stop-color="#DEE5F8"/>
<stop offset="1" stop-color="#BDBEE3"/>
</linearGradient>
<linearGradient id="paint1_linear_1115_102562" x1="37.7472" y1="53.3677" x2="-5.44678" y2="2.09893" gradientUnits="userSpaceOnUse">
<stop stop-color="white" stop-opacity="0.7"/>
<stop offset="1" stop-color="#A0A3CF"/>
</linearGradient>
<linearGradient id="paint2_linear_1115_102562" x1="27.2323" y1="19.1384" x2="27.2323" y2="50.1384" gradientUnits="userSpaceOnUse">
<stop stop-color="#EEEBF1"/>
<stop offset="1" stop-color="#EEECF1"/>
</linearGradient>
<linearGradient id="paint3_linear_1115_102562" x1="27.2323" y1="19.1384" x2="27.2323" y2="50.1384" gradientUnits="userSpaceOnUse">
<stop stop-color="#EEEBF1"/>
<stop offset="1" stop-color="#EEECF1"/>
</linearGradient>
<linearGradient id="paint4_linear_1115_102562" x1="27.2323" y1="19.1384" x2="27.2323" y2="50.1384" gradientUnits="userSpaceOnUse">
<stop stop-color="#EEEBF1"/>
<stop offset="1" stop-color="#EEECF1"/>
</linearGradient>
<linearGradient id="paint5_linear_1115_102562" x1="27.2323" y1="19.1384" x2="27.2323" y2="50.1384" gradientUnits="userSpaceOnUse">
<stop stop-color="#EEEBF1"/>
<stop offset="1" stop-color="#EEECF1"/>
</linearGradient>
<linearGradient id="paint6_linear_1115_102562" x1="27.2323" y1="19.1384" x2="27.2323" y2="50.1384" gradientUnits="userSpaceOnUse">
<stop stop-color="#EEEBF1"/>
<stop offset="1" stop-color="#EEECF1"/>
</linearGradient>
<linearGradient id="paint7_linear_1115_102562" x1="27.2323" y1="19.1384" x2="27.2323" y2="50.1384" gradientUnits="userSpaceOnUse">
<stop stop-color="#EEEBF1"/>
<stop offset="1" stop-color="#EEECF1"/>
</linearGradient>
<linearGradient id="paint8_linear_1115_102562" x1="27.2323" y1="19.1384" x2="27.2323" y2="50.1384" gradientUnits="userSpaceOnUse">
<stop stop-color="#EEEBF1"/>
<stop offset="1" stop-color="#EEECF1"/>
</linearGradient>
<linearGradient id="paint9_linear_1115_102562" x1="27.2323" y1="19.1384" x2="27.2323" y2="50.1384" gradientUnits="userSpaceOnUse">
<stop stop-color="#EEEBF1"/>
<stop offset="1" stop-color="#EEECF1"/>
</linearGradient>
<linearGradient id="paint10_linear_1115_102562" x1="27.2323" y1="19.1384" x2="27.2323" y2="50.1384" gradientUnits="userSpaceOnUse">
<stop stop-color="#EEEBF1"/>
<stop offset="1" stop-color="#EEECF1"/>
</linearGradient>
<linearGradient id="paint11_linear_1115_102562" x1="27.2323" y1="19.1384" x2="27.2323" y2="50.1384" gradientUnits="userSpaceOnUse">
<stop stop-color="#EEEBF1"/>
<stop offset="1" stop-color="#EEECF1"/>
</linearGradient>
<linearGradient id="paint12_linear_1115_102562" x1="27.2323" y1="19.1384" x2="27.2323" y2="50.1384" gradientUnits="userSpaceOnUse">
<stop stop-color="#EEEBF1"/>
<stop offset="1" stop-color="#EEECF1"/>
</linearGradient>
<linearGradient id="paint13_linear_1115_102562" x1="27.2323" y1="19.1384" x2="27.2323" y2="50.1384" gradientUnits="userSpaceOnUse">
<stop stop-color="#EEEBF1"/>
<stop offset="1" stop-color="#EEECF1"/>
</linearGradient>
<linearGradient id="paint14_linear_1115_102562" x1="27.2323" y1="19.1384" x2="27.2323" y2="50.1384" gradientUnits="userSpaceOnUse">
<stop stop-color="#EEEBF1"/>
<stop offset="1" stop-color="#EEECF1"/>
</linearGradient>
<linearGradient id="paint15_linear_1115_102562" x1="27.2323" y1="19.1384" x2="27.2323" y2="50.1384" gradientUnits="userSpaceOnUse">
<stop stop-color="#EEEBF1"/>
<stop offset="1" stop-color="#EEECF1"/>
</linearGradient>
<linearGradient id="paint16_linear_1115_102562" x1="27.2323" y1="19.1384" x2="27.2323" y2="50.1384" gradientUnits="userSpaceOnUse">
<stop stop-color="#EEEBF1"/>
<stop offset="1" stop-color="#EEECF1"/>
</linearGradient>
<linearGradient id="paint17_linear_1115_102562" x1="27.2323" y1="19.1384" x2="27.2323" y2="50.1384" gradientUnits="userSpaceOnUse">
<stop stop-color="#EEEBF1"/>
<stop offset="1" stop-color="#EEECF1"/>
</linearGradient>
<linearGradient id="paint18_linear_1115_102562" x1="27.2323" y1="19.1384" x2="27.2323" y2="50.1384" gradientUnits="userSpaceOnUse">
<stop stop-color="#EEEBF1"/>
<stop offset="1" stop-color="#EEECF1"/>
</linearGradient>
<linearGradient id="paint19_linear_1115_102562" x1="27.2323" y1="19.1384" x2="27.2323" y2="50.1384" gradientUnits="userSpaceOnUse">
<stop stop-color="#EEEBF1"/>
<stop offset="1" stop-color="#EEECF1"/>
</linearGradient>
<linearGradient id="paint20_linear_1115_102562" x1="27.2323" y1="19.1384" x2="27.2323" y2="50.1384" gradientUnits="userSpaceOnUse">
<stop stop-color="#EEEBF1"/>
<stop offset="1" stop-color="#EEECF1"/>
</linearGradient>
<linearGradient id="paint21_linear_1115_102562" x1="27.2323" y1="19.1384" x2="27.2323" y2="50.1384" gradientUnits="userSpaceOnUse">
<stop stop-color="#EEEBF1"/>
<stop offset="1" stop-color="#EEECF1"/>
</linearGradient>
<linearGradient id="paint22_linear_1115_102562" x1="27.2323" y1="19.1384" x2="27.2323" y2="50.1384" gradientUnits="userSpaceOnUse">
<stop stop-color="#EEEBF1"/>
<stop offset="1" stop-color="#EEECF1"/>
</linearGradient>
<linearGradient id="paint23_linear_1115_102562" x1="27.2323" y1="19.1384" x2="27.2323" y2="50.1384" gradientUnits="userSpaceOnUse">
<stop stop-color="#EEEBF1"/>
<stop offset="1" stop-color="#EEECF1"/>
</linearGradient>
<linearGradient id="paint24_linear_1115_102562" x1="27.2323" y1="19.1384" x2="27.2323" y2="50.1384" gradientUnits="userSpaceOnUse">
<stop stop-color="#EEEBF1"/>
<stop offset="1" stop-color="#EEECF1"/>
</linearGradient>
<linearGradient id="paint25_linear_1115_102562" x1="27.2323" y1="19.1384" x2="27.2323" y2="50.1384" gradientUnits="userSpaceOnUse">
<stop stop-color="#EEEBF1"/>
<stop offset="1" stop-color="#EEECF1"/>
</linearGradient>
<linearGradient id="paint26_linear_1115_102562" x1="27.2323" y1="19.1384" x2="27.2323" y2="50.1384" gradientUnits="userSpaceOnUse">
<stop stop-color="#EEEBF1"/>
<stop offset="1" stop-color="#EEECF1"/>
</linearGradient>
<linearGradient id="paint27_linear_1115_102562" x1="27.2323" y1="19.1384" x2="27.2323" y2="50.1384" gradientUnits="userSpaceOnUse">
<stop stop-color="#EEEBF1"/>
<stop offset="1" stop-color="#EEECF1"/>
</linearGradient>
<linearGradient id="paint28_linear_1115_102562" x1="27.2323" y1="19.1384" x2="27.2323" y2="50.1384" gradientUnits="userSpaceOnUse">
<stop stop-color="#EEEBF1"/>
<stop offset="1" stop-color="#EEECF1"/>
</linearGradient>
<linearGradient id="paint29_linear_1115_102562" x1="27.2323" y1="19.1384" x2="27.2323" y2="50.1384" gradientUnits="userSpaceOnUse">
<stop stop-color="#EEEBF1"/>
<stop offset="1" stop-color="#EEECF1"/>
</linearGradient>
<linearGradient id="paint30_linear_1115_102562" x1="27.2323" y1="19.1384" x2="27.2323" y2="50.1384" gradientUnits="userSpaceOnUse">
<stop stop-color="#EEEBF1"/>
<stop offset="1" stop-color="#EEECF1"/>
</linearGradient>
<linearGradient id="paint31_linear_1115_102562" x1="27.2323" y1="19.1384" x2="27.2323" y2="50.1384" gradientUnits="userSpaceOnUse">
<stop stop-color="#EEEBF1"/>
<stop offset="1" stop-color="#EEECF1"/>
</linearGradient>
<linearGradient id="paint32_linear_1115_102562" x1="27.2323" y1="19.1384" x2="27.2323" y2="50.1384" gradientUnits="userSpaceOnUse">
<stop stop-color="#EEEBF1"/>
<stop offset="1" stop-color="#EEECF1"/>
</linearGradient>
<linearGradient id="paint33_linear_1115_102562" x1="27.2323" y1="19.1384" x2="27.2323" y2="50.1384" gradientUnits="userSpaceOnUse">
<stop stop-color="#EEEBF1"/>
<stop offset="1" stop-color="#EEECF1"/>
</linearGradient>
<linearGradient id="paint34_linear_1115_102562" x1="27.2323" y1="19.1384" x2="27.2323" y2="50.1384" gradientUnits="userSpaceOnUse">
<stop stop-color="#EEEBF1"/>
<stop offset="1" stop-color="#EEECF1"/>
</linearGradient>
<linearGradient id="paint35_linear_1115_102562" x1="27.2323" y1="19.1384" x2="27.2323" y2="50.1384" gradientUnits="userSpaceOnUse">
<stop stop-color="#EEEBF1"/>
<stop offset="1" stop-color="#EEECF1"/>
</linearGradient>
<linearGradient id="paint36_linear_1115_102562" x1="27.2323" y1="19.1384" x2="27.2323" y2="50.1384" gradientUnits="userSpaceOnUse">
<stop stop-color="#EEEBF1"/>
<stop offset="1" stop-color="#EEECF1"/>
</linearGradient>
<linearGradient id="paint37_linear_1115_102562" x1="27.2323" y1="19.1384" x2="27.2323" y2="50.1384" gradientUnits="userSpaceOnUse">
<stop stop-color="#EEEBF1"/>
<stop offset="1" stop-color="#EEECF1"/>
</linearGradient>
<linearGradient id="paint38_linear_1115_102562" x1="27.2323" y1="19.1384" x2="27.2323" y2="50.1384" gradientUnits="userSpaceOnUse">
<stop stop-color="#EEEBF1"/>
<stop offset="1" stop-color="#EEECF1"/>
</linearGradient>
<linearGradient id="paint39_linear_1115_102562" x1="27.2323" y1="19.1384" x2="27.2323" y2="50.1384" gradientUnits="userSpaceOnUse">
<stop stop-color="#EEEBF1"/>
<stop offset="1" stop-color="#EEECF1"/>
</linearGradient>
<linearGradient id="paint40_linear_1115_102562" x1="27.2323" y1="19.1384" x2="27.2323" y2="50.1384" gradientUnits="userSpaceOnUse">
<stop stop-color="#EEEBF1"/>
<stop offset="1" stop-color="#EEECF1"/>
</linearGradient>
<linearGradient id="paint41_linear_1115_102562" x1="27.2323" y1="19.1384" x2="27.2323" y2="50.1384" gradientUnits="userSpaceOnUse">
<stop stop-color="#EEEBF1"/>
<stop offset="1" stop-color="#EEECF1"/>
</linearGradient>
<linearGradient id="paint42_linear_1115_102562" x1="27.2323" y1="19.1384" x2="27.2323" y2="50.1384" gradientUnits="userSpaceOnUse">
<stop stop-color="#EEEBF1"/>
<stop offset="1" stop-color="#EEECF1"/>
</linearGradient>
<linearGradient id="paint43_linear_1115_102562" x1="27.2323" y1="19.1384" x2="27.2323" y2="50.1384" gradientUnits="userSpaceOnUse">
<stop stop-color="#EEEBF1"/>
<stop offset="1" stop-color="#EEECF1"/>
</linearGradient>
<linearGradient id="paint44_linear_1115_102562" x1="27.2323" y1="19.1384" x2="27.2323" y2="50.1384" gradientUnits="userSpaceOnUse">
<stop stop-color="#EEEBF1"/>
<stop offset="1" stop-color="#EEECF1"/>
</linearGradient>
<linearGradient id="paint45_linear_1115_102562" x1="27.2323" y1="19.1384" x2="27.2323" y2="50.1384" gradientUnits="userSpaceOnUse">
<stop stop-color="#EEEBF1"/>
<stop offset="1" stop-color="#EEECF1"/>
</linearGradient>
<linearGradient id="paint46_linear_1115_102562" x1="27.2323" y1="19.1384" x2="27.2323" y2="50.1384" gradientUnits="userSpaceOnUse">
<stop stop-color="#EEEBF1"/>
<stop offset="1" stop-color="#EEECF1"/>
</linearGradient>
<linearGradient id="paint47_linear_1115_102562" x1="27.2323" y1="19.1384" x2="27.2323" y2="50.1384" gradientUnits="userSpaceOnUse">
<stop stop-color="#EEEBF1"/>
<stop offset="1" stop-color="#EEECF1"/>
</linearGradient>
<linearGradient id="paint48_linear_1115_102562" x1="27.2323" y1="19.1384" x2="27.2323" y2="50.1384" gradientUnits="userSpaceOnUse">
<stop stop-color="#EEEBF1"/>
<stop offset="1" stop-color="#EEECF1"/>
</linearGradient>
<linearGradient id="paint49_linear_1115_102562" x1="79.2246" y1="27.416" x2="12.3571" y2="39.2922" gradientUnits="userSpaceOnUse">
<stop stop-color="#BDBEE3"/>
<stop offset="1" stop-color="#DEE5F8"/>
</linearGradient>
</defs>
</svg>
