<svg width="63" height="67" viewBox="0 0 63 67" fill="none" xmlns="http://www.w3.org/2000/svg">
<path d="M0.551245 28.9175L0.333008 33.1386L0.551245 37.3597V28.9175ZM2.21978 20.978L0.551245 28.9175V37.3597L2.21978 20.978ZM0.551245 37.3597L1.18837 41.4218L2.21978 45.2992L0.551245 37.3597ZM2.21978 20.978L1.18837 24.8554L0.551245 28.9175L2.21978 20.978ZM0.551245 37.3597L2.21978 45.2992L5.37632 52.3845L0.551245 37.3597ZM2.21978 45.2992L3.62283 48.9637L5.37632 52.3845L2.21978 45.2992ZM5.37632 13.8927L3.62283 17.3134L2.21978 20.978L5.37632 13.8927ZM9.85455 7.92042L2.21978 20.978L0.551245 37.3597L9.85455 7.92042ZM9.85455 7.92042L5.37632 13.8927L2.21978 20.978L9.85455 7.92042ZM0.551245 37.3597L5.37632 52.3845L15.4982 62.9092L0.551245 37.3597ZM9.85455 7.92042L7.46008 10.7494L5.37632 13.8927L9.85455 7.92042ZM5.37632 52.3845L7.46008 55.5278L9.85455 58.3567L5.37632 52.3845ZM9.85455 7.92042L0.551245 37.3597L15.4982 62.9092L9.85455 7.92042ZM5.37632 52.3845L9.85455 58.3567L15.4982 62.9092L5.37632 52.3845ZM9.85455 58.3567L12.5404 60.8316L15.4982 62.9092L9.85455 58.3567ZM15.4982 3.36792L12.5404 5.44555L9.85455 7.92042L15.4982 3.36792Z" fill="#C4C4C4"/>
<path d="M35.2021 65.3202L37.9247 64.8652L41.4681 64.2717L35.2021 65.3202Z" fill="#B0B0B0"/>
<path d="M22.1493 0.593994L15.4982 3.36828L9.85449 7.92078L22.1493 0.593994Z" fill="#C4C4C4"/>
<path d="M38.7737 1.55498L41.4681 2.00526L37.9247 1.41179L38.7737 1.55498ZM35.2021 0.956787L38.7737 1.55498L37.9247 1.41179L35.2021 0.956787ZM38.7737 64.7224L35.2021 65.3206L41.4681 64.2721L38.7737 64.7224ZM38.7737 64.7224L41.4681 64.2721L44.8831 63.1258L38.7737 64.7224Z" fill="#B0B0B0"/>
<path d="M15.4971 62.9096L18.707 64.5435L22.1482 65.6839L15.4971 62.9096ZM22.1482 0.593994L18.707 1.73436L15.4971 3.36828L22.1482 0.593994Z" fill="#C4C4C4"/>
<path d="M42.2176 2.71439L44.8841 3.1516L41.4691 2.00526L42.2176 2.71439ZM38.7747 1.55498L42.2176 2.71439L41.4691 2.00526L38.7747 1.55498ZM32.4014 65.7889L35.2031 65.3206L38.7747 64.7224L32.4014 65.7889ZM42.2176 63.563L38.7747 64.7224L44.8841 63.1258L42.2176 63.563ZM42.2176 63.563L44.8841 63.1258L48.1294 61.4516L42.2176 63.563ZM36.0012 1.09149L38.7747 1.55498L35.2031 0.956787L36.0012 1.09149Z" fill="#B0B0B0"/>
<path d="M15.4971 62.9094L22.1482 65.6837L29.5158 66.271L15.4971 62.9094Z" fill="#C4C4C4"/>
<path d="M45.4902 4.40982L48.1294 4.82578L44.8841 3.15159L45.4902 4.40982ZM32.4014 0.488525L36.0012 1.09147L35.2031 0.95677L32.4014 0.488525Z" fill="#B0B0B0"/>
<path d="M36.6446 1.8008L22.1493 0.593994L9.85449 7.92078L36.6446 1.8008Z" fill="#C4C4C4"/>
<path d="M42.2176 2.71434L45.4902 4.40979L44.8841 3.15155L42.2176 2.71434ZM36.0012 65.1859L32.4014 65.7888L38.7747 64.7224L36.0012 65.1859ZM36.0012 65.1859L38.7747 64.7224L42.2176 63.563L36.0012 65.1859ZM45.4902 61.8675L48.1294 61.4516L51.1618 59.2774L45.4902 61.8675ZM45.4902 61.8675L42.2176 63.563L48.1294 61.4516L45.4902 61.8675ZM39.4723 2.26419L42.2176 2.71434L38.7747 1.55493L39.4723 2.26419ZM48.5488 6.61314L51.1618 6.99987L48.1294 4.82575L48.5488 6.61314Z" fill="#B0B0B0"/>
<path d="M22.1465 65.6837L25.7973 66.2772L29.514 66.271L22.1465 65.6837ZM29.514 0.00649145L25.7973 0.000244141L22.1465 0.593777L29.514 0.00649145Z" fill="#C4C4C4"/>
<path d="M36.001 1.09155L39.4721 2.26431L38.7744 1.55504L36.001 1.09155ZM45.49 4.4099L48.5486 6.61325L48.1291 4.82586L45.49 4.4099Z" fill="#B0B0B0"/>
<path d="M9.85449 7.92017L15.4982 62.909L54.5768 28.3275L9.85449 7.92017Z" fill="#C4C4C4"/>
<path d="M29.5146 66.2709L32.3992 65.7889L35.999 65.1859L29.5146 66.2709ZM48.5466 59.6642L51.1596 59.2775L53.9345 56.6346L48.5466 59.6642ZM39.4701 64.0132L35.999 65.1859L42.2154 63.563L39.4701 64.0132ZM48.5466 59.6642L45.488 61.8676L51.1596 59.2775L48.5466 59.6642ZM39.4701 64.0132L42.2154 63.563L45.488 61.8676L39.4701 64.0132ZM33.1429 0.614184L35.999 1.09149L32.3992 0.488542L33.1429 0.614184ZM51.3461 9.29297L53.9345 9.64285L51.1596 6.99992L51.3461 9.29297ZM42.7702 3.98147L45.488 4.40984L42.2154 2.71439L42.7702 3.98147ZM29.5146 0.00646973L33.1429 0.614184L32.3992 0.488542L29.5146 0.00646973ZM48.5466 6.61318L51.3461 9.29297L51.1596 6.99992L48.5466 6.61318Z" fill="#B0B0B0"/>
<path d="M15.4971 62.9095L29.5158 66.2711L43.0828 60.4732L15.4971 62.9095ZM36.6435 1.80069L29.5158 0.0065918L22.1482 0.593878L36.6435 1.80069Z" fill="#C4C4C4"/>
<path d="M39.4701 2.26443L42.7702 3.98167L42.2154 2.71459L39.4701 2.26443ZM51.3461 56.9846L53.9345 56.6348L56.4063 53.5577L51.3461 56.9846ZM33.1429 65.6634L29.5146 66.2711L35.999 65.1861L33.1429 65.6634ZM51.3461 56.9846L48.5466 59.6644L53.9345 56.6348L51.3461 56.9846ZM33.1429 65.6634L35.999 65.1861L39.4701 64.0134L33.1429 65.6634ZM42.7702 62.2961L45.488 61.8678L48.5466 59.6644L42.7702 62.2961ZM42.7702 62.2961L39.4701 64.0134L45.488 61.8678L42.7702 62.2961ZM53.8401 12.4143L56.4063 12.7201L53.9345 9.64304L53.8401 12.4143ZM36.6423 1.80076L39.4701 2.26443L35.999 1.09168L36.6423 1.80076ZM45.8552 6.21502L48.5466 6.61338L45.488 4.41003L45.8552 6.21502ZM51.3461 9.29317L53.8401 12.4143L53.9345 9.64304L51.3461 9.29317ZM53.8401 53.8635L56.4063 53.5577L58.5287 50.0849L53.8401 53.8635ZM33.1429 0.61438L36.6423 1.80076L35.999 1.09168L33.1429 0.61438ZM42.7702 3.98167L45.8552 6.21502L45.488 4.41003L42.7702 3.98167ZM53.8401 53.8635L51.3461 56.9846L56.4063 53.5577L53.8401 53.8635ZM55.982 15.9379L58.5287 16.1929L56.4063 12.7201L55.982 15.9379Z" fill="#B0B0B0"/>
<path d="M29.5146 66.2709L33.1429 65.6632L36.6423 64.4768L29.5146 66.2709ZM36.6423 1.80057L33.1429 0.614184L29.5146 0.00646973L36.6423 1.80057Z" fill="#C4C4C4"/>
<path d="M45.8568 60.0625L48.5482 59.6642L51.3477 56.9844L45.8568 60.0625ZM36.6439 64.4768L33.1445 65.6632L39.4717 64.0131L36.6439 64.4768ZM45.8568 60.0625L42.7718 62.2959L48.5482 59.6642L45.8568 60.0625ZM36.6439 64.4768L39.4717 64.0131L42.7718 62.2959L36.6439 64.4768Z" fill="#B0B0B0"/>
<path d="M54.5768 28.3278L36.6446 1.80054L9.85449 7.92051L54.5768 28.3278Z" fill="#C4C4C4"/>
<path d="M55.9832 50.3398L58.53 50.0848L60.2569 46.2585L55.9832 50.3398ZM53.8413 12.4142L55.9832 15.9378L56.4075 12.72L53.8413 12.4142ZM48.6806 8.93262L51.3473 9.29307L48.5478 6.61328L48.6806 8.93262ZM57.7262 19.8209L60.2569 20.0191L58.53 16.1928L57.7262 19.8209ZM39.9714 3.54024L42.7714 3.98157L39.4713 2.26433L39.9714 3.54024ZM55.9832 50.3398L53.8413 53.8634L58.53 50.0848L55.9832 50.3398ZM57.7262 46.4567L60.2569 46.2585L61.5431 42.1249L57.7262 46.4567ZM45.8564 6.21492L48.6806 8.93262L48.5478 6.61328L45.8564 6.21492ZM36.6436 1.80066L39.9714 3.54024L39.4713 2.26433L36.6436 1.80066ZM59.0245 24.0166L61.5431 24.1527L60.2569 20.0191L59.0245 24.0166ZM55.9832 15.9378L57.7262 19.8209L58.53 16.1928L55.9832 15.9378ZM48.6806 57.345L51.3473 56.9845L53.8413 53.8634L48.6806 57.345ZM48.6806 57.345L45.8564 60.0627L51.3473 56.9845L48.6806 57.345Z" fill="#B0B0B0"/>
<path d="M29.5146 66.2706L36.6423 64.4765L43.0817 60.4728L29.5146 66.2706Z" fill="#C4C4C4"/>
<path d="M59.0245 42.2609L61.5431 42.1248L62.3447 37.7337L59.0245 42.2609ZM57.7262 46.4566L55.9832 50.3397L60.2569 46.2584L57.7262 46.4566ZM59.8337 28.4739L62.3447 28.5437L61.5431 24.1526L59.8337 28.4739ZM39.9714 62.7373L42.7714 62.2959L45.8564 60.0626L39.9714 62.7373ZM39.9714 62.7373L36.6436 64.4768L42.7714 62.2959L39.9714 62.7373ZM51.1971 12.099L53.8413 12.4141L51.3473 9.29297L51.1971 12.099ZM59.8337 37.8035L62.3447 37.7337L62.6206 33.1387L59.8337 37.8035ZM60.1122 33.1387H62.6206L62.3447 28.5437L60.1122 33.1387ZM57.7262 19.8208L59.0245 24.0165L60.2569 20.019L57.7262 19.8208Z" fill="#B0B0B0"/>
<path d="M15.4971 62.9094L43.0828 60.4731L54.5757 28.3279L15.4971 62.9094Z" fill="#C4C4C4"/>
<path d="M43.0823 5.80434L45.8558 6.21485L42.7708 3.98149L43.0823 5.80434ZM59.0238 42.2609L57.7256 46.4566L61.5424 42.1248L59.0238 42.2609ZM48.6799 8.93254L51.1965 12.0991L51.3466 9.29299L48.6799 8.93254ZM51.1965 54.1784L53.8407 53.8633L55.9826 50.3397L51.1965 54.1784ZM59.0238 24.0165L59.8331 28.4739L61.5424 24.1527L59.0238 24.0165ZM59.8331 37.8035L59.0238 42.2609L62.3441 37.7337L59.8331 37.8035ZM39.9707 3.54016L43.0823 5.80434L42.7708 3.98149L39.9707 3.54016ZM51.1965 54.1784L48.6799 57.3449L53.8407 53.8633L51.1965 54.1784ZM53.358 15.6749L55.9826 15.9377L53.8407 12.4141L53.358 15.6749ZM59.8331 28.4739L60.1116 33.1387L62.3441 28.5437L59.8331 28.4739ZM60.1116 33.1387L59.8331 37.8035L62.6199 33.1387H60.1116ZM43.0823 60.4731L45.8558 60.0626L48.6799 57.3449L43.0823 60.4731ZM43.0823 60.4731L39.9707 62.7373L45.8558 60.0626L43.0823 60.4731Z" fill="#B0B0B0"/>
<path d="M36.6436 64.4769L39.9714 62.7373L43.0829 60.4732L36.6436 64.4769ZM43.0829 5.80442L39.9714 3.54024L36.6436 1.80066L43.0829 5.80442Z" fill="#C4C4C4"/>
<path d="M53.3587 50.6022L55.9833 50.3394L57.7263 46.4563L53.3587 50.6022ZM51.1972 12.0988L53.3587 15.6747L53.8414 12.4139L51.1972 12.0988ZM45.9321 8.56076L48.6807 8.93227L45.8565 6.21458L45.9321 8.56076ZM55.118 19.6163L57.7263 19.8206L55.9833 15.9375L55.118 19.6163ZM53.3587 50.6022L51.1972 54.1781L55.9833 50.3394L53.3587 50.6022ZM55.118 46.6606L57.7263 46.4563L59.0246 42.2607L55.118 46.6606ZM43.083 5.80408L45.9321 8.56076L45.8565 6.21458L43.083 5.80408ZM56.4285 23.8759L59.0246 24.0162L57.7263 19.8206L56.4285 23.8759ZM53.3587 15.6747L55.118 19.6163L55.9833 15.9375L53.3587 15.6747ZM45.9321 57.7161L48.6807 57.3446L51.1972 54.1781L45.9321 57.7161Z" fill="#B0B0B0"/>
<path d="M48.4713 11.7743L43.0829 5.80442L36.6436 1.80066L48.4713 11.7743Z" fill="#C4C4C4"/>
<path d="M45.9321 57.7165L43.083 60.4732L48.6807 57.345L45.9321 57.7165ZM56.4285 42.4014L59.0246 42.2611L59.8338 37.8036L56.4285 42.4014ZM55.118 46.661L53.3587 50.6026L57.7263 46.4567L55.118 46.661ZM57.2454 28.4022L59.8338 28.4741L59.0246 24.0166L57.2454 28.4022ZM48.4713 11.7744L51.1972 12.0992L48.6807 8.93267L48.4713 11.7744ZM57.2454 37.8755L59.8338 37.8036L60.1123 33.1389L57.2454 37.8755ZM57.5265 33.1389H60.1123L59.8338 28.4741L57.5265 33.1389ZM55.118 19.6167L56.4285 23.8763L57.7263 19.821L55.118 19.6167ZM56.4285 42.4014L55.118 46.661L59.0246 42.2611L56.4285 42.4014ZM45.9321 8.56116L48.4713 11.7744L48.6807 8.93267L45.9321 8.56116ZM48.4713 54.5033L51.1972 54.1785L53.3587 50.6026L48.4713 54.5033ZM56.4285 23.8763L57.2454 28.4022L59.0246 24.0166L56.4285 23.8763ZM57.2454 37.8755L56.4285 42.4014L59.8338 37.8036L57.2454 37.8755ZM48.4713 54.5033L45.9321 57.7165L51.1972 54.1785L48.4713 54.5033ZM50.6527 15.4041L53.3587 15.6751L51.1972 12.0992L50.6527 15.4041ZM57.2454 28.4022L57.5265 33.1389L59.8338 28.4741L57.2454 28.4022ZM57.5265 33.1389L57.2454 37.8755L60.1123 33.1389H57.5265Z" fill="#B0B0B0"/>
<path d="M43.0829 60.4732L45.932 57.7165L48.4713 54.5033L43.0829 60.4732ZM48.4713 11.7743L45.932 8.5611L43.0829 5.80442L48.4713 11.7743ZM54.5758 28.328L48.4713 11.7743L36.6436 1.80066L54.5758 28.328Z" fill="#C4C4C4"/>
<path d="M50.655 50.8734L53.361 50.6024L55.1203 46.6608L50.655 50.8734ZM48.4736 11.7742L50.655 15.4039L51.1995 12.099L48.4736 11.7742ZM52.4307 19.4058L55.1203 19.6165L53.361 15.6748L52.4307 19.4058ZM50.655 50.8734L48.4736 54.5031L53.361 50.6024L50.655 50.8734Z" fill="#B0B0B0"/>
<path d="M43.083 60.4732L48.4713 54.5033L52.4284 46.8717L43.083 60.4732Z" fill="#C4C4C4"/>
<path d="M52.428 46.8718L55.1176 46.6611L56.4281 42.4015L52.428 46.8718ZM53.7508 23.7316L56.4281 23.8764L55.1176 19.6167L53.7508 23.7316ZM50.6523 15.4042L52.428 19.4061L53.3584 15.6751L50.6523 15.4042ZM53.7508 42.5462L56.4281 42.4015L57.245 37.8756L53.7508 42.5462ZM52.428 46.8718L50.6523 50.8737L55.1176 46.6611L52.428 46.8718ZM54.5755 28.3281L57.245 28.4023L56.4281 23.8764L54.5755 28.3281Z" fill="#B0B0B0"/>
<path d="M43.083 60.473L52.4284 46.8714L54.5759 28.3278L43.083 60.473Z" fill="#C4C4C4"/>
<path d="M54.5762 37.9495L57.2456 37.8753L57.5268 33.1387L54.5762 37.9495ZM54.86 33.1387H57.5268L57.2456 28.402L54.86 33.1387Z" fill="#B0B0B0"/>
<path d="M48.4736 54.5031L50.655 50.8734L52.4307 46.8715L48.4736 54.5031ZM52.4307 19.4058L50.655 15.4039L48.4736 11.7742L52.4307 19.4058Z" fill="#C4C4C4"/>
<path d="M52.4287 19.4061L53.7515 23.7317L55.1183 19.6168L52.4287 19.4061ZM53.7515 42.5463L52.4287 46.8718L56.4288 42.4015L53.7515 42.5463ZM53.7515 23.7317L54.5762 28.3281L56.4288 23.8764L53.7515 23.7317Z" fill="#B0B0B0"/>
<path d="M54.5782 28.3278L52.4307 19.4058L48.4736 11.7742L54.5782 28.3278Z" fill="#C4C4C4"/>
<path d="M54.5776 37.9495L53.7529 42.546L57.2471 37.8754L54.5776 37.9495ZM54.5776 28.3279L54.8614 33.1387L57.2471 28.402L54.5776 28.3279ZM54.8614 33.1387L54.5776 37.9495L57.5282 33.1387H54.8614Z" fill="#B0B0B0"/>
<path d="M52.4287 46.8718L53.7515 42.5463L54.5762 37.9498L52.4287 46.8718ZM54.5762 28.3281L53.7515 23.7317L52.4287 19.4061L54.5762 28.3281ZM52.4287 46.8718L54.5762 37.9498V28.3281L52.4287 46.8718ZM54.5762 37.9498L54.8601 33.139L54.5762 28.3281V37.9498Z" fill="#C4C4C4"/>
<path d="M54.6194 33.2557C54.6194 51.4417 42.5044 66.0113 27.7535 66.0113C13.0027 66.0113 0.887695 51.4417 0.887695 33.2557C0.887695 15.0696 13.0027 0.5 27.7535 0.5C42.5044 0.5 54.6194 15.0696 54.6194 33.2557Z" fill="url(#paint0_linear_1115_102050)" stroke="url(#paint1_linear_1115_102050)"/>
<g filter="url(#filter0_d_1115_102050)">
<path d="M18.8935 41.1094L23.8092 41.0371L23.4665 40.415L18.8935 41.1094ZM19.2527 41.6837L24.1674 41.606L23.8092 41.0371L19.2527 41.6837ZM19.0626 25.6503L23.9779 25.7218L24.2751 25.185L19.0626 25.6503ZM19.3606 25.1084L24.2751 25.185L24.5867 24.694L19.3606 25.1084ZM19.6274 42.2044L24.5412 42.1218L24.1674 41.606L19.6274 42.2044ZM19.6731 24.6128L24.5867 24.694L24.9129 24.2489L19.6731 24.6128ZM20.0178 42.6714L24.9305 42.5845L24.5412 42.1218L20.0178 42.6714ZM20.0002 24.1635L24.9129 24.2489L25.2537 23.8497L20.0002 24.1635ZM20.4239 43.0847L25.3355 42.9939L24.9305 42.5845L20.4239 43.0847ZM20.3419 23.7605L25.2537 23.8497L25.609 23.4965L20.3419 23.7605ZM20.8457 43.4443L25.7561 43.35L25.3355 42.9939L20.8457 43.4443ZM20.6982 23.4039L25.609 23.4965L25.979 23.1892L20.6982 23.4039ZM18.5498 40.4814L18.8935 41.1094L23.4665 40.415L18.5498 40.4814ZM21.2832 43.7499L26.1924 43.6528L25.7561 43.35L21.2832 43.7499ZM21.0691 23.0936L25.979 23.1892L26.3636 22.928L21.0691 23.0936Z" fill="#E5E5E5"/>
<path d="M16.4961 44.6287L16.6759 45.0207L16.87 45.3989L16.4961 44.6287Z" fill="white"/>
<path d="M18.8916 41.1094L19.2508 41.6837L23.8074 41.0371L18.8916 41.1094ZM19.3587 25.1085L19.0607 25.6503L24.2732 25.1851L19.3587 25.1085ZM21.7347 44.0017L26.6427 43.9021L26.1906 43.6528L21.7347 44.0017ZM21.453 22.8299L26.3617 22.928L26.7611 22.7129L21.453 22.8299ZM19.2508 41.6837L19.6256 42.2044L24.1656 41.6061L19.2508 41.6837Z" fill="#E5E5E5"/>
<path d="M16.8724 45.3988L17.0808 45.7631L17.3034 46.1135L16.8724 45.3988ZM18.5467 40.4815L16.333 44.2225L16.4986 44.6285L18.5467 40.4815ZM17.6208 20.5364L17.2271 21.2561L16.8767 22.0422L17.6208 20.5364Z" fill="white"/>
<path d="M19.6739 24.6128L19.3613 25.1084L24.5875 24.694L19.6739 24.6128Z" fill="#E5E5E5"/>
<path d="M18.5443 40.4814L16.4961 44.6285L16.87 45.3988L18.5443 40.4814ZM16.87 45.3988L17.3009 46.1135L17.7892 46.7727L16.87 45.3988Z" fill="white"/>
<path d="M21.8539 22.6128L26.7615 22.7129L27.1756 22.5439L21.8539 22.6128ZM22.2044 44.1994L27.1111 44.0979L26.6431 43.9022L22.2044 44.1994ZM19.626 42.2045L20.0164 42.6715L24.5397 42.1219L19.626 42.2045Z" fill="#E5E5E5"/>
<path d="M17.3027 46.1135L17.5397 46.4501L17.791 46.7728L17.3027 46.1135Z" fill="white"/>
<path d="M19.998 24.1633L19.6709 24.6127L24.9107 24.2488L19.998 24.1633Z" fill="#E5E5E5"/>
<path d="M18.5398 19.2963L17.6214 20.5365L16.8773 22.0423L18.5398 19.2963ZM18.5474 40.4816L16.873 45.3989L17.7923 46.7728L18.5474 40.4816Z" fill="white"/>
<path d="M22.2665 22.442L27.173 22.5438L27.6019 22.421L22.2665 22.442ZM20.0137 42.6714L20.4198 43.0847L24.9264 42.5844L20.0137 42.6714ZM22.687 44.3428L27.5923 44.24L27.1085 44.0978L22.687 44.3428ZM20.3378 23.7604L19.9961 24.1634L25.2496 23.8497L20.3378 23.7604Z" fill="#E5E5E5"/>
<path d="M17.791 46.7728L18.0567 47.0816L18.3368 47.3766L17.791 46.7728ZM18.5384 19.2963L18.0574 19.8832L17.6201 20.5365L18.5384 19.2963Z" fill="white"/>
<path d="M22.6977 22.318L27.603 22.421L28.0468 22.3446L22.6977 22.318ZM20.4209 43.0847L20.8427 43.4442L25.3325 42.9938L20.4209 43.0847ZM20.6952 23.4038L20.3389 23.7604L25.606 23.4964L20.6952 23.4038Z" fill="#E5E5E5"/>
<path d="M17.7949 46.7727L18.3408 47.3765L18.9444 47.9249L17.7949 46.7727Z" fill="white"/>
<path d="M23.1904 44.4324L28.0943 44.3286L27.5945 44.2401L23.1904 44.4324Z" fill="#E5E5E5"/>
<path d="M18.8907 41.1094L18.547 40.4815L17.792 46.7727L18.8907 41.1094ZM16.877 22.0422L19.0598 25.6503L19.3578 25.1084L16.877 22.0422ZM16.877 22.0422L19.3578 25.1084L19.6703 24.6128L16.877 22.0422ZM18.3378 47.3766L18.6324 47.6577L18.9415 47.925L18.3378 47.3766Z" fill="white"/>
<path d="M21.0673 23.0938L20.6963 23.404L25.9771 23.1894L21.0673 23.0938ZM23.1439 22.241L28.0479 22.3448L28.5066 22.3147L23.1439 22.241ZM20.8438 43.4444L21.2813 43.7501L25.7542 43.3502L20.8438 43.4444Z" fill="#E5E5E5"/>
<path d="M20.904 17.6135L18.5394 19.2961L16.877 22.0421L20.904 17.6135ZM16.877 22.0421L19.6703 24.6127L19.9974 24.1634L16.877 22.0421Z" fill="white"/>
<path d="M23.707 44.4673L28.6095 44.3632L28.0936 44.3285L23.707 44.4673Z" fill="#E5E5E5"/>
<path d="M17.7949 46.7727L18.9444 47.9249L20.3177 48.8102L17.7949 46.7727Z" fill="white"/>
<path d="M21.4502 22.8298L21.0645 23.0936L26.3589 22.9279L21.4502 22.8298ZM23.6011 22.2103L28.5038 22.3145L28.7466 22.3181L23.6011 22.2103Z" fill="#E5E5E5"/>
<path d="M16.877 22.0421L19.9974 24.1634L20.3391 23.7604L16.877 22.0421ZM19.6332 18.3217L19.0643 18.7756L18.5394 19.2961L19.6332 18.3217Z" fill="white"/>
<path d="M21.2832 43.7501L21.7366 44.0018L26.1924 43.653L21.2832 43.7501ZM24.0102 44.4636L28.9118 44.3594L28.6121 44.3634L24.0102 44.4636Z" fill="#E5E5E5"/>
<path d="M18.9415 47.925L19.2651 48.1784L19.6061 48.408L18.9415 47.925ZM16.877 22.0422L20.3391 23.7605L20.6954 23.4039L16.877 22.0422Z" fill="white"/>
<path d="M21.8546 22.6128L21.4541 22.83L26.7622 22.713L21.8546 22.6128Z" fill="#E5E5E5"/>
<path d="M16.877 22.0422L20.6954 23.4039L21.0663 23.0937L16.877 22.0422Z" fill="white"/>
<path d="M21.7354 44.0018L22.2046 44.1995L26.6433 43.9022L21.7354 44.0018Z" fill="#E5E5E5"/>
<path d="M18.9415 47.9249L19.6061 48.4079L20.3147 48.8101L18.9415 47.9249ZM20.904 17.6135L19.6332 18.3217L18.5394 19.2961L20.904 17.6135ZM16.877 22.0421L21.0663 23.0936L21.452 22.8298L16.877 22.0421Z" fill="white"/>
<path d="M22.2688 22.442L21.8535 22.6126L27.1753 22.5438L22.2688 22.442Z" fill="#E5E5E5"/>
<path d="M19.6084 48.4078L19.9583 48.6185L20.3171 48.8101L19.6084 48.4078Z" fill="white"/>
<path d="M24.5136 49.6704L29.4138 49.5173L29.9608 49.4767L24.5136 49.6704ZM22.2031 44.1995L22.6884 44.3431L27.1098 44.098L22.2031 44.1995Z" fill="#E5E5E5"/>
<path d="M16.877 22.0422L21.452 22.8299L21.8525 22.6127L16.877 22.0422ZM18.8907 41.1094L17.792 46.7727L23.5092 49.656L18.8907 41.1094Z" fill="white"/>
<path d="M25.0041 17.0392L29.9028 17.192L29.4035 17.157L25.0041 17.0392ZM22.6997 22.3179L22.2695 22.4419L27.6049 22.421L22.6997 22.3179Z" fill="#E5E5E5"/>
<path d="M20.904 17.6135L20.2463 17.9343L19.6332 18.3217L20.904 17.6135ZM16.877 22.0421L21.8525 22.6126L22.2678 22.442L16.877 22.0421ZM17.792 46.7726L20.3147 48.8101L23.5092 49.6559L17.792 46.7726Z" fill="white"/>
<path d="M22.6904 44.343L23.1917 44.4324L27.5957 44.2401L22.6904 44.343Z" fill="#E5E5E5"/>
<path d="M19.2508 41.6833L18.8916 41.109L23.5101 49.6556L19.2508 41.6833Z" fill="white"/>
<path d="M25.0605 49.6297L29.9591 49.4769L30.4906 49.401L25.0605 49.6297Z" fill="#E5E5E5"/>
<path d="M16.877 22.0422L22.2678 22.4421L22.6979 22.3181L16.877 22.0422Z" fill="white"/>
<path d="M25.4897 17.106L30.387 17.2583L29.9044 17.1923L25.4897 17.106ZM23.1462 22.2409L22.7012 22.3181L28.0503 22.3447L23.1462 22.2409Z" fill="#E5E5E5"/>
<path d="M20.3147 48.8102L20.6825 48.9828L21.0592 49.1364L20.3147 48.8102ZM19.6246 42.2044L19.2499 41.6837L23.5092 49.656L19.6246 42.2044ZM16.877 22.0422L22.6979 22.3181L23.1429 22.2409L16.877 22.0422Z" fill="white"/>
<path d="M23.1904 44.4323L23.7077 44.4673L28.0943 44.3285L23.1904 44.4323Z" fill="#E5E5E5"/>
<path d="M20.0164 42.6714L19.626 42.2043L23.5105 49.6559L20.0164 42.6714ZM20.3161 48.8102L21.0605 49.1363L21.8409 49.3861L20.3161 48.8102Z" fill="white"/>
<path d="M25.5968 49.5527L30.4938 49.4005L31.0096 49.2892L25.5968 49.5527ZM23.6045 22.2102L23.1445 22.2407L28.5073 22.3144L23.6045 22.2102ZM25.9552 17.2036L30.8513 17.3551L30.3854 17.258L25.9552 17.2036Z" fill="#E5E5E5"/>
<path d="M16.877 22.042L23.1429 22.2407L23.6029 22.2102L16.877 22.042ZM25.9537 17.2036L20.904 17.6134L16.877 22.042L25.9537 17.2036ZM20.4211 43.0846L20.015 42.6713L23.5092 49.6558L20.4211 43.0846ZM16.877 22.042L23.6029 22.2102L23.8464 22.2138L16.877 22.042Z" fill="white"/>
<path d="M23.846 22.2139L23.6025 22.2103L28.748 22.3181L23.846 22.2139Z" fill="#E5E5E5"/>
<path d="M21.0586 49.1362L21.4443 49.2707L21.839 49.386L21.0586 49.1362Z" fill="white"/>
<path d="M23.707 44.4677L24.0076 44.4637L28.6095 44.3635L23.707 44.4677ZM26.4042 17.3334L31.299 17.4838L30.8499 17.3556L26.4042 17.3334Z" fill="#E5E5E5"/>
<path d="M20.8456 43.444L20.4238 43.0845L23.5119 49.6557L20.8456 43.444Z" fill="white"/>
<path d="M26.1123 49.4405L31.0079 49.2893L31.508 49.1425L26.1123 49.4405Z" fill="#E5E5E5"/>
<path d="M22.3562 17.1725L21.6089 17.3595L20.9066 17.6135L22.3562 17.1725ZM21.2831 43.7498L20.8455 43.4441L23.5118 49.6559L21.2831 43.7498ZM20.3174 48.8101L21.8422 49.386L23.5118 49.6559L20.3174 48.8101ZM21.3959 30.4065V35.593L23.1211 35.5982L21.3959 30.4065Z" fill="white"/>
<path d="M26.8379 17.4938L31.7313 17.6427L31.2991 17.4834L26.8379 17.4938ZM26.6143 49.2924L31.5084 49.1424L31.9927 48.96L26.6143 49.2924Z" fill="#E5E5E5"/>
<path d="M21.7338 44.0015L21.2804 43.7498L23.5092 49.6558L21.7338 44.0015ZM25.9537 17.2036L16.877 22.042L23.8464 22.2138L25.9537 17.2036ZM21.8396 49.386L22.2433 49.4822L22.6562 49.5593L21.8396 49.386Z" fill="white"/>
<path d="M24.502 17.0043L25.0027 17.0395L29.4022 17.1574L24.502 17.0043Z" fill="#E5E5E5"/>
<path d="M23.9854 17L22.3549 17.1726L20.9053 17.6136L23.9854 17Z" fill="white"/>
<path d="M27.2529 17.6861L32.1452 17.8333L31.7299 17.6428L27.2529 17.6861Z" fill="#E5E5E5"/>
<path d="M22.2046 44.1994L21.7354 44.0017L23.5107 49.6561L22.2046 44.1994Z" fill="white"/>
<path d="M25.0623 49.6294L24.5137 49.6702L29.9609 49.4766L25.0623 49.6294ZM27.0997 49.1084L31.9925 48.9601L32.4609 48.7421L27.0997 49.1084ZM27.2571 32.7017L32.1493 32.7077V32.5726L27.2571 32.7017Z" fill="#E5E5E5"/>
<path d="M21.3936 30.4064L23.1188 35.5981L23.4641 35.6073L21.3936 30.4064ZM21.8399 49.3859L22.6565 49.5592L23.5095 49.6558L21.8399 49.3859Z" fill="white"/>
<path d="M27.2568 32.5652L32.1491 32.5724L32.7455 32.1963L27.2568 32.5652Z" fill="#E5E5E5"/>
<path d="M22.6884 44.343L22.2031 44.1995L23.5092 49.6561L22.6884 44.343Z" fill="white"/>
<path d="M27.6172 32.7957L32.5084 32.8008L32.1489 32.7075L27.6172 32.7957ZM27.6532 17.9097L32.5443 18.0549L32.146 17.8332L27.6532 17.9097ZM25.002 17.0392L25.486 17.1057L29.9007 17.192L25.002 17.0392Z" fill="#E5E5E5"/>
<path d="M21.3936 30.4064L23.4641 35.6073L23.7967 35.6329L21.3936 30.4064Z" fill="white"/>
<path d="M27.5703 48.8884L32.4617 48.7421L32.9142 48.4884L27.5703 48.8884Z" fill="#E5E5E5"/>
<path d="M22.6582 49.5594L23.0801 49.6173L23.5112 49.656L22.6582 49.5594Z" fill="white"/>
<path d="M25.5935 49.5532L25.0605 49.6297L30.4906 49.401L25.5935 49.5532Z" fill="#E5E5E5"/>
<path d="M21.3936 30.4066L23.7967 35.6331L24.1166 35.6749L21.3936 30.4066ZM23.1899 44.4323L22.6886 44.3429L23.5095 49.656L23.1899 44.4323ZM23.9844 17L23.1464 17.0526L22.3539 17.1726L23.9844 17Z" fill="white"/>
<path d="M27.9639 32.9119L32.8541 32.916L32.5078 32.8007L27.9639 32.9119ZM28.0349 18.1649L32.9249 18.3078L32.5437 18.0548L28.0349 18.1649Z" fill="#E5E5E5"/>
<path d="M21.3936 30.4064L24.1166 35.6747L24.4238 35.7329L21.3936 30.4064Z" fill="white"/>
<path d="M25.4863 17.106L25.9536 17.2039L30.3837 17.2583L25.4863 17.106ZM27.8551 32.1857L32.7456 32.1965L33.291 31.7748L27.8551 32.1857ZM28.0232 48.6325L32.9132 48.4885L33.3497 48.1991L28.0232 48.6325ZM28.2988 33.0508L33.188 33.0535L32.855 32.9163L28.2988 33.0508Z" fill="#E5E5E5"/>
<path d="M21.3936 30.4064L24.4238 35.7329L24.7182 35.8075L21.3936 30.4064Z" fill="white"/>
<path d="M28.4026 18.4519L33.2916 18.5922L32.9274 18.3079L28.4026 18.4519ZM26.114 49.4404L25.5967 49.5527L31.0095 49.2891L26.114 49.4404Z" fill="#E5E5E5"/>
<path d="M25.955 17.2038L23.9854 17L20.9053 17.6136L25.955 17.2038ZM21.3945 30.4066L24.7191 35.8077L25.0007 35.8986L21.3945 30.4066ZM22.9469 30.4004L21.3945 30.4066L26.7933 37.1983L22.9469 30.4004Z" fill="white"/>
<path d="M25.9541 17.2036L26.4045 17.3329L30.8501 17.3551L25.9541 17.2036ZM28.6199 33.2114L33.5082 33.2126L33.1885 33.0533L28.6199 33.2114ZM28.4025 31.7597L33.2915 31.7745L33.7856 31.3072L28.4025 31.7597Z" fill="#E5E5E5"/>
<path d="M21.3936 30.4064L24.9998 35.8984L25.2685 36.0058L21.3936 30.4064Z" fill="white"/>
<path d="M28.4619 48.3405L33.3507 48.1991L33.7711 47.874L28.4619 48.3405ZM28.75 18.7707L33.6379 18.908L33.2909 18.5924L28.75 18.7707Z" fill="#E5E5E5"/>
<path d="M23.5095 49.6558L23.9497 49.6752L24.5139 49.67L23.5095 49.6558ZM21.3936 30.4064L25.2685 36.0058L25.5244 36.1295L21.3936 30.4064Z" fill="white"/>
<path d="M26.6138 49.2927L26.1123 49.4409L31.508 49.1428L26.6138 49.2927ZM28.9266 33.395L33.8139 33.3945L33.5076 33.2131L28.9266 33.395ZM26.4039 17.3334L26.8374 17.4941L31.2987 17.4838L26.4039 17.3334Z" fill="#E5E5E5"/>
<path d="M21.3936 30.4064L25.5244 36.1295L25.7674 36.2697L21.3936 30.4064Z" fill="white"/>
<path d="M29.0829 19.1211L33.9698 19.2552L33.64 18.9082L29.0829 19.1211ZM28.8857 48.0125L33.7732 47.8742L34.1776 47.5133L28.8857 48.0125ZM28.9006 31.2883L33.7881 31.3076L34.2307 30.7947L28.9006 31.2883Z" fill="#E5E5E5"/>
<path d="M23.5095 49.6558L24.5139 49.67L25.0625 49.6292L23.5095 49.6558ZM21.3936 30.4064L25.7674 36.2697L25.9975 36.4263L21.3936 30.4064ZM23.2074 30.3907L22.9459 30.4003L27.098 37.6655L23.2074 30.3907Z" fill="white"/>
<path d="M29.2217 33.6004L34.1082 33.5979L33.8152 33.3944L29.2217 33.6004Z" fill="#E5E5E5"/>
<path d="M25.0026 17.0393L24.5019 17.004L23.9844 17L25.0026 17.0393ZM21.3936 30.4066L25.9975 36.4265L26.2147 36.5995L21.3936 30.4066Z" fill="white"/>
<path d="M29.3896 19.4901L34.2756 19.6207L33.9677 19.2549L29.3896 19.4901Z" fill="#E5E5E5"/>
<path d="M23.4635 30.3644L23.209 30.3908L27.0996 37.6656L23.4635 30.3644Z" fill="white"/>
<path d="M27.0999 49.1086L26.6143 49.2927L31.9927 48.9603L27.0999 49.1086Z" fill="#E5E5E5"/>
<path d="M25.953 17.2036L23.8457 22.2138L24.0797 22.232L25.953 17.2036Z" fill="white"/>
<path d="M26.8359 17.4938L27.2524 17.686L31.7294 17.6427L26.8359 17.4938Z" fill="#E5E5E5"/>
<path d="M21.3936 30.4064L26.2147 36.5993L26.4189 36.7887L21.3936 30.4064Z" fill="white"/>
<path d="M29.5016 33.8283L34.3872 33.8237L34.1077 33.5981L29.5016 33.8283ZM29.2891 47.6484L34.1754 47.5134L34.5636 47.1167L29.2891 47.6484ZM29.3423 30.7706L34.2284 30.7948L34.6194 30.2363L29.3423 30.7706Z" fill="#E5E5E5"/>
<path d="M25.954 17.2036L24.0807 22.232L24.3052 22.2648L25.954 17.2036ZM23.7093 30.3209L23.4619 30.3643L27.2255 37.921L23.7093 30.3209ZM21.3936 30.4064L26.4189 36.7888L26.614 36.9862L21.3936 30.4064Z" fill="white"/>
<path d="M29.6709 19.8812L34.5561 20.0082L34.2747 19.6208L29.6709 19.8812Z" fill="#E5E5E5"/>
<path d="M23.5117 49.6559L25.0647 49.6292L26.115 49.4404L23.5117 49.6559Z" fill="white"/>
<path d="M27.2568 32.5653V32.7017L32.1491 32.5726L27.2568 32.5653Z" fill="#E5E5E5"/>
<path d="M25.954 17.2036L24.3052 22.2648L24.5202 22.3122L25.954 17.2036ZM21.3936 30.4064L26.614 36.9862L26.7923 37.1981L21.3936 30.4064ZM23.9497 30.2605L23.7093 30.3209L27.2255 37.921L23.9497 30.2605Z" fill="white"/>
<path d="M29.7676 34.0782L34.6524 34.0712L34.3864 33.8235L29.7676 34.0782Z" fill="#E5E5E5"/>
<path d="M25.954 17.2038L25.0026 17.0393L23.9844 17L25.954 17.2038Z" fill="white"/>
<path d="M27.2558 32.7014L27.6164 32.7956L32.1481 32.7074L27.2558 32.7014ZM27.2529 17.6858L27.6524 17.9096L32.1452 17.833L27.2529 17.6858Z" fill="#E5E5E5"/>
<path d="M25.9524 17.2036L24.5186 22.3122L24.724 22.3743L25.9524 17.2036Z" fill="white"/>
<path d="M27.5684 48.8881L27.0986 49.1081L32.4598 48.7418L27.5684 48.8881ZM29.6768 47.2472L34.562 47.1159L34.9265 46.6813L29.6768 47.2472Z" fill="#E5E5E5"/>
<path d="M24.1816 30.1832L23.9482 30.2606L27.224 37.9211L24.1816 30.1832Z" fill="white"/>
<path d="M29.9261 20.2936L34.8105 20.4167L34.5557 20.0079L29.9261 20.2936ZM29.7334 30.2062L34.6184 30.2358L34.9576 29.6317L29.7334 30.2062Z" fill="#E5E5E5"/>
<path d="M25.9549 17.2036L24.7266 22.3743L24.9225 22.451L25.9549 17.2036Z" fill="white"/>
<path d="M30.0225 34.3506L34.9066 34.341L34.654 34.0712L30.0225 34.3506Z" fill="#E5E5E5"/>
<path d="M24.4089 30.0887L24.1826 30.1831L27.3356 38.1909L24.4089 30.0887Z" fill="white"/>
<path d="M27.855 32.1855L27.2568 32.5653L32.7455 32.1964L27.855 32.1855Z" fill="#E5E5E5"/>
<path d="M25.9524 17.2036L24.9199 22.451L25.1063 22.5424L25.9524 17.2036Z" fill="white"/>
<path d="M30.1549 20.7281L35.0386 20.8471L34.8105 20.4169L30.1549 20.7281ZM27.6172 32.7959L27.9645 32.9122L32.5084 32.801L27.6172 32.7959ZM30.0431 46.8089L34.9271 46.6817L35.2603 46.2222L30.0431 46.8089ZM27.6532 17.9099L28.0355 18.1652L32.5443 18.0551L27.6532 17.9099Z" fill="#E5E5E5"/>
<path d="M25.9525 17.2036L25.1064 22.5424L25.2832 22.6485L25.9525 17.2036Z" fill="white"/>
<path d="M30.0742 29.5967L34.9582 29.632L35.2454 28.9825L30.0742 29.5967Z" fill="#E5E5E5"/>
<path d="M24.6273 29.9778L24.4082 30.0892L27.3349 38.1913L24.6273 29.9778Z" fill="white"/>
<path d="M30.2617 34.6449L35.1451 34.6326L34.906 34.3406L30.2617 34.6449Z" fill="#E5E5E5"/>
<path d="M25.9533 17.2036L25.486 17.1057L25.002 17.0392L25.9533 17.2036Z" fill="white"/>
<path d="M28.0241 48.6324L27.5703 48.8884L32.9142 48.4884L28.0241 48.6324Z" fill="#E5E5E5"/>
<path d="M25.9544 17.2036L25.2851 22.6485L25.4523 22.7692L25.9544 17.2036ZM22.9463 30.4003L26.7927 37.1981L26.954 37.4246L22.9463 30.4003Z" fill="white"/>
<path d="M30.3594 21.1839L35.2425 21.2987L35.0411 20.847L30.3594 21.1839Z" fill="#E5E5E5"/>
<path d="M25.0629 49.6292L25.5959 49.5527L26.1132 49.4404L25.0629 49.6292ZM24.8409 29.8491L24.6288 29.9775L27.3364 38.191L24.8409 29.8491ZM22.9463 30.4003L26.954 37.4246L27.0984 37.6655L22.9463 30.4003ZM25.9544 17.2036L25.4523 22.7692L25.6099 22.9046L25.9544 17.2036Z" fill="white"/>
<path d="M30.4863 34.9621L35.369 34.9467L35.1434 34.6326L30.4863 34.9621ZM30.3612 28.9406L35.2443 28.9821L35.4795 28.2873L30.3612 28.9406ZM27.9639 32.9119L28.2978 33.0505L32.8541 32.9159L27.9639 32.9119ZM30.5314 21.6612L35.414 21.7715L35.2394 21.2985L30.5314 21.6612ZM30.3766 46.3448L35.2596 46.2219L35.5613 45.7377L30.3766 46.3448Z" fill="#E5E5E5"/>
<path d="M25.0448 29.7036L24.8398 29.8491L27.4289 38.4755L25.0448 29.7036ZM25.9534 17.2036L25.6089 22.9046L25.7569 23.0547L25.9534 17.2036Z" fill="white"/>
<path d="M28.0361 18.1652L28.4014 18.4521L32.9261 18.308L28.0361 18.1652Z" fill="#E5E5E5"/>
<path d="M25.9533 17.2036L25.7568 23.0547L25.8952 23.2195L25.9533 17.2036Z" fill="white"/>
<path d="M28.4024 31.7598L27.8555 32.1855L33.2914 31.7746L28.4024 31.7598Z" fill="#E5E5E5"/>
<path d="M23.5101 49.6558L26.1133 49.4404L28.0241 48.6322L23.5101 49.6558ZM23.1904 44.4321L23.5101 49.6558L30.9519 45.3421L23.1904 44.4321ZM25.2437 29.5411L25.0459 29.7036L27.4301 38.4754L25.2437 29.5411Z" fill="white"/>
<path d="M30.7 35.3016L35.5821 35.2831L35.3701 34.9468L30.7 35.3016ZM30.6807 22.1604L35.5628 22.266L35.415 21.7716L30.6807 22.1604Z" fill="#E5E5E5"/>
<path d="M23.4619 30.3644L27.098 37.6656L27.2255 37.9211L23.4619 30.3644Z" fill="white"/>
<path d="M30.5986 28.2392L35.481 28.2874L35.6641 27.5472L30.5986 28.2392Z" fill="#E5E5E5"/>
<path d="M23.7077 44.4672L23.1904 44.4321L30.9519 45.3422L23.7077 44.4672ZM25.9545 17.2036L25.8965 23.2195L26.0245 23.3898L25.9545 17.2036Z" fill="white"/>
<path d="M28.4622 48.3404L28.0244 48.6325L33.351 48.1991L28.4622 48.3404ZM30.8031 22.6811L35.6849 22.7818L35.5639 22.2661L30.8031 22.6811Z" fill="#E5E5E5"/>
<path d="M25.9541 17.2036L26.024 23.3898L26.141 23.5717L25.9541 17.2036Z" fill="white"/>
<path d="M30.6792 45.8562L35.5613 45.7379L35.8314 45.2289L30.6792 45.8562ZM28.2979 33.0508L28.6185 33.2116L33.1871 33.0535L28.2979 33.0508Z" fill="#E5E5E5"/>
<path d="M25.4338 29.3618L25.2432 29.5413L27.5061 38.7746L25.4338 29.3618Z" fill="white"/>
<path d="M30.7832 27.4921L35.665 27.5474L35.7958 26.7621L30.7832 27.4921ZM30.9046 35.6513L35.7861 35.6294L35.5837 35.2833L30.9046 35.6513Z" fill="#E5E5E5"/>
<path d="M25.9541 17.2036L26.141 23.5717L26.2468 23.7651L25.9541 17.2036Z" fill="white"/>
<path d="M30.8947 23.2229L35.7761 23.3185L35.682 22.7816L30.8947 23.2229ZM28.3994 18.4519L28.7474 18.7705L33.2883 18.5921L28.3994 18.4519Z" fill="#E5E5E5"/>
<path d="M25.9518 17.2036L26.2445 23.7651L26.3393 23.9701L25.9518 17.2036ZM25.6151 29.1651L25.4316 29.3616L27.5039 38.7744L25.6151 29.1651Z" fill="white"/>
<path d="M30.9141 26.6994L35.7955 26.7622L35.874 25.9319L30.9141 26.6994ZM30.9651 23.7867L35.8464 23.877L35.7791 23.3188L30.9651 23.7867Z" fill="#E5E5E5"/>
<path d="M24.0076 44.4632L23.707 44.4672L30.9512 45.3422L24.0076 44.4632ZM25.9538 17.2036L26.3413 23.9701L26.4248 24.1866L25.9538 17.2036ZM24.1829 30.1832L27.2253 37.921L27.3359 38.191L24.1829 30.1832Z" fill="white"/>
<path d="M31.0049 24.3716L35.8861 24.4564L35.8458 23.8771L31.0049 24.3716ZM30.9922 25.8613L35.8734 25.932L35.8996 25.0568L30.9922 25.8613ZM31.0184 24.9777L35.8996 25.0568L35.8861 24.4564L31.0184 24.9777Z" fill="#E5E5E5"/>
<path d="M25.9541 17.2036L26.4251 24.1866L26.4976 24.4147L25.9541 17.2036Z" fill="white"/>
<path d="M31.0895 36.0139L35.9704 35.9886L35.7856 35.6298L31.0895 36.0139ZM30.9521 45.3427L35.8335 45.2293L36.072 44.6955L30.9521 45.3427Z" fill="#E5E5E5"/>
<path d="M25.7886 28.9552L25.6162 29.1651L27.505 38.7744L25.7886 28.9552ZM25.9529 17.2036L26.4964 24.4147L26.5577 24.6543L25.9529 17.2036Z" fill="white"/>
<path d="M28.6191 33.2117L28.9264 33.3948L33.5074 33.2129L28.6191 33.2117Z" fill="#E5E5E5"/>
<path d="M25.9541 17.2036L26.5589 24.6543L26.6091 24.9054L25.9541 17.2036Z" fill="white"/>
<path d="M28.8979 31.2882L28.4023 31.76L33.7854 31.3075L28.8979 31.2882ZM28.883 48.0124L28.4613 48.3406L33.7705 47.8741L28.883 48.0124Z" fill="#E5E5E5"/>
<path d="M26.8379 17.4937L26.4045 17.3329L25.954 17.2036L26.8379 17.4937ZM25.954 17.2036L26.609 24.9054L26.648 25.168L25.954 17.2036ZM24.2975 44.4421L24.0078 44.4632L30.9514 45.3422L24.2975 44.4421ZM25.954 17.2036L26.648 25.168L26.6759 25.4421L25.954 17.2036ZM25.9473 28.7359L25.7898 28.9552L27.5657 39.0878L25.9473 28.7359Z" fill="white"/>
<path d="M31.2562 36.3886L36.1366 36.3598L35.9692 35.9882L31.2562 36.3886ZM28.749 18.7706L29.0798 19.1208L33.6369 18.9079L28.749 18.7706ZM31.1901 44.8035L36.0708 44.6951L36.2776 44.1367L31.1901 44.8035Z" fill="#E5E5E5"/>
<path d="M26.0872 28.5074L25.9446 28.7361L27.5631 39.088L26.0872 28.5074ZM24.8379 29.8493L27.3334 38.1912L27.427 38.4757L24.8379 29.8493ZM24.5738 44.404L24.2949 44.4423L30.9488 45.3424L24.5738 44.404ZM26.1102 49.4406L26.6117 49.2925L27.0974 49.1084L26.1102 49.4406ZM26.2148 28.2692L26.0872 28.5074L27.5631 39.088L26.2148 28.2692Z" fill="white"/>
<path d="M31.4076 36.7767L36.2875 36.7442L36.1377 36.36L31.4076 36.7767ZM28.9277 33.3949L29.2216 33.6004L33.8151 33.3944L28.9277 33.3949Z" fill="#E5E5E5"/>
<path d="M26.3294 28.0216L26.2168 28.2692L27.6076 39.4159L26.3294 28.0216Z" fill="white"/>
<path d="M31.3984 44.2398L36.2784 44.1367L36.4535 43.5536L31.3984 44.2398Z" fill="#E5E5E5"/>
<path d="M25.2432 29.5411L27.4295 38.4754L27.5061 38.7744L25.2432 29.5411Z" fill="white"/>
<path d="M31.5371 37.1772L36.4167 37.1409L36.2844 36.744L31.5371 37.1772Z" fill="#E5E5E5"/>
<path d="M26.4275 27.7646L26.3298 28.0217L27.608 39.416L26.4275 27.7646ZM24.8441 44.3487L24.5762 44.4042L30.9512 45.3426L24.8441 44.3487Z" fill="white"/>
<path d="M29.2914 47.6479L28.8857 48.0122L34.1776 47.5129L29.2914 47.6479Z" fill="#E5E5E5"/>
<path d="M27.654 17.9097L26.838 17.4937L25.9541 17.2036L27.654 17.9097Z" fill="white"/>
<path d="M29.0797 19.1208L29.3886 19.4901L33.9666 19.2549L29.0797 19.1208ZM29.3414 30.7702L28.8975 31.2881L34.2276 30.7944L29.3414 30.7702Z" fill="#E5E5E5"/>
<path d="M26.5084 27.4978L26.4258 27.7643L27.6063 39.4156L26.5084 27.4978Z" fill="white"/>
<path d="M31.6541 37.5906L36.5333 37.5503L36.4187 37.1409L31.6541 37.5906ZM31.5732 43.6512L36.4527 43.5536L36.596 42.946L31.5732 43.6512Z" fill="#E5E5E5"/>
<path d="M25.791 28.9552L27.5074 38.7744L27.5669 39.0878L25.791 28.9552Z" fill="white"/>
<path d="M29.2217 33.6002L29.5021 33.828L34.1082 33.5978L29.2217 33.6002Z" fill="#E5E5E5"/>
<path d="M25.1008 44.2758L24.8438 44.3484L30.9508 45.3423L25.1008 44.2758Z" fill="white"/>
<path d="M31.752 38.0164L36.6309 37.9721L36.5338 37.55L31.752 38.0164Z" fill="#E5E5E5"/>
<path d="M27.2578 32.7015V32.5652L26.5107 27.4978L27.2578 32.7015Z" fill="white"/>
<path d="M31.7158 43.0374L36.5948 42.9456L36.7063 42.3134L31.7158 43.0374ZM31.8299 38.4551L36.7085 38.4067L36.6291 37.972L31.8299 38.4551Z" fill="#E5E5E5"/>
<path d="M26.1123 49.4406L27.0995 49.1084L28.0231 48.6324L26.1123 49.4406Z" fill="white"/>
<path d="M31.8281 42.3991L36.7068 42.3134L36.7865 41.6567L31.8281 42.3991Z" fill="#E5E5E5"/>
<path d="M26.5107 27.4978L27.6086 39.4156L27.2578 32.7015L26.5107 27.4978Z" fill="white"/>
<path d="M29.3896 19.4899L29.6719 19.8808L34.2756 19.6205L29.3896 19.4899Z" fill="#E5E5E5"/>
<path d="M26.2166 28.2692L27.5648 39.088L27.6074 39.4158L26.2166 28.2692ZM25.3467 44.1859L25.1006 44.2758L30.9506 45.3424L25.3467 44.1859Z" fill="white"/>
<path d="M31.8937 38.9068L36.7722 38.8541L36.7105 38.4069L31.8937 38.9068ZM31.938 39.3709L36.8164 39.3138L36.7722 38.8541L31.938 39.3709ZM31.9095 41.7365L36.7879 41.657L36.8357 40.976L31.9095 41.7365ZM29.6785 47.2474L29.2891 47.6479L34.5636 47.1162L29.6785 47.2474ZM31.9646 39.8476L36.8428 39.786L36.8164 39.3138L31.9646 39.8476ZM31.9574 41.049L36.8357 40.976L36.8517 40.2707L31.9574 41.049ZM31.9734 40.3369L36.8517 40.2707L36.8428 39.786L31.9734 40.3369ZM29.5016 33.8279L29.7685 34.0779L34.3872 33.8232L29.5016 33.8279ZM29.7345 30.2063L29.3423 30.7701L34.6194 30.2359L29.7345 30.2063Z" fill="#E5E5E5"/>
<path d="M27.652 17.9098L27.2526 17.686L26.8361 17.4938L27.652 17.9098ZM25.5809 44.0787L25.3457 44.1858L30.9496 45.3423L25.5809 44.0787Z" fill="white"/>
<path d="M29.6709 19.881L29.9264 20.2936L34.5561 20.008L29.6709 19.881Z" fill="#E5E5E5"/>
<path d="M25.8091 43.9545L25.5849 44.0788L30.9536 45.3424L25.8091 43.9545ZM23.5117 49.6561L28.0258 48.6325L30.9536 45.3424L23.5117 49.6561Z" fill="white"/>
<path d="M29.7676 34.0781L30.021 34.3506L34.6524 34.0712L29.7676 34.0781Z" fill="#E5E5E5"/>
<path d="M27.6083 39.4156L27.6338 39.7579L27.2574 32.7015L27.6083 39.4156ZM29.0804 19.1207L27.654 17.9097L25.9541 17.2036L29.0804 19.1207Z" fill="white"/>
<path d="M30.0443 46.8085L29.6787 47.2472L34.9284 46.6813L30.0443 46.8085Z" fill="#E5E5E5"/>
<path d="M27.0988 49.1085L27.5685 48.8885L28.0224 48.6325L27.0988 49.1085ZM26.0189 43.8129L25.8057 43.9545L30.9502 45.3424L26.0189 43.8129Z" fill="white"/>
<path d="M30.0736 29.5968L29.7334 30.2066L34.9576 29.6321L30.0736 29.5968Z" fill="#E5E5E5"/>
<path d="M27.9647 32.9119L27.6174 32.7955L27.2568 32.7014L27.9647 32.9119Z" fill="white"/>
<path d="M29.9297 20.2936L30.1585 20.7279L34.8141 20.4167L29.9297 20.2936Z" fill="#E5E5E5"/>
<path d="M26.2188 43.6538L26.0166 43.8127L30.9479 45.3422L26.2188 43.6538Z" fill="white"/>
<path d="M30.0225 34.3501L30.2623 34.6449L34.9066 34.3406L30.0225 34.3501Z" fill="#E5E5E5"/>
<path d="M30.8024 22.6809L25.9541 17.2036L26.676 25.4421L30.8024 22.6809ZM27.2574 32.5652L27.8556 32.1854L28.4026 31.7597L27.2574 32.5652ZM26.4135 43.4776L26.2223 43.6537L30.9515 45.3422L26.4135 43.4776Z" fill="white"/>
<path d="M30.1548 20.7277L30.3568 21.1836L35.0385 20.8467L30.1548 20.7277ZM30.3771 46.3447L30.043 46.8085L35.2601 46.2218L30.3771 46.3447ZM30.3617 28.9405L30.0736 29.5962L35.2448 28.982L30.3617 28.9405Z" fill="#E5E5E5"/>
<path d="M28.6202 33.2116L27.9656 32.9121L27.2578 32.7017L28.6202 33.2116ZM30.8027 22.681L26.5784 27.2221L26.5107 27.4979L30.8027 22.681Z" fill="white"/>
<path d="M30.2617 34.645L30.488 34.9622L35.1451 34.6327L30.2617 34.645Z" fill="#E5E5E5"/>
<path d="M26.5941 43.2844L26.4141 43.4779L30.9521 45.3424L26.5941 43.2844ZM30.803 22.6811L26.6312 26.9369L26.5786 27.2222L30.803 22.6811ZM28.4022 18.4522L28.0369 18.1652L27.6546 17.9099L28.4022 18.4522ZM30.803 22.6811L26.6688 26.6423L26.6312 26.9369L30.803 22.6811ZM30.803 22.6811L26.6914 26.3384L26.6688 26.6423L30.803 22.6811Z" fill="white"/>
<path d="M30.3594 21.184L30.5345 21.6615L35.2425 21.2988L30.3594 21.184Z" fill="#E5E5E5"/>
<path d="M30.7997 22.681L26.6733 25.4423L26.69 25.7279L30.7997 22.681ZM30.7997 22.681L26.6956 26.025L26.688 26.3383L30.7997 22.681ZM30.7997 22.681L26.69 25.7279L26.6956 26.025L30.7997 22.681ZM26.7581 43.0771L26.5908 43.2843L30.9488 45.3423L26.7581 43.0771Z" fill="white"/>
<path d="M30.5982 28.2393L30.3623 28.9408L35.4806 28.2874L30.5982 28.2393Z" fill="#E5E5E5"/>
<path d="M27.2578 32.5653L30.8027 22.681L26.5107 27.4979L27.2578 32.5653Z" fill="white"/>
<path d="M30.4883 34.9624L30.701 35.3018L35.371 34.947L30.4883 34.9624Z" fill="#E5E5E5"/>
<path d="M26.9126 42.859L26.7598 43.0766L30.9504 45.3418L26.9126 42.859Z" fill="white"/>
<path d="M30.6805 45.8561L30.3779 46.345L35.5626 45.7379L30.6805 45.8561ZM30.5327 21.6614L30.681 22.1604L35.4153 21.7717L30.5327 21.6614Z" fill="#E5E5E5"/>
<path d="M28.6203 33.2117L28.2996 33.0508L27.9657 32.9122L28.6203 33.2117ZM27.0524 42.6316L26.9141 42.8596L30.9519 45.3424L27.0524 42.6316ZM27.2578 32.5654L28.4029 31.7599L29.3425 30.7703L27.2578 32.5654Z" fill="white"/>
<path d="M30.7822 27.4918L30.5986 28.239L35.6641 27.547L30.7822 27.4918ZM30.6812 22.1602L30.8026 22.6807L35.5634 22.2658L30.6812 22.1602Z" fill="#E5E5E5"/>
<path d="M29.0791 19.1209L28.4003 18.4522L27.6527 17.9099L29.0791 19.1209ZM27.1746 42.3933L27.0508 42.6316L30.9503 45.3424L27.1746 42.3933Z" fill="white"/>
<path d="M30.7012 35.3016L30.9042 35.6511L35.5833 35.2831L30.7012 35.3016Z" fill="#E5E5E5"/>
<path d="M28.0246 48.6324L28.4624 48.3403L28.8842 48.0122L28.0246 48.6324ZM27.286 42.1444L27.1768 42.3931L30.9524 45.3423L27.286 42.1444Z" fill="white"/>
<path d="M30.8005 22.681L30.8949 23.2231L35.6823 22.7817L30.8005 22.681ZM30.9496 45.3423L30.6787 45.8562L35.831 45.2289L30.9496 45.3423ZM30.9114 26.6993L30.7802 27.4921L35.7928 26.762L30.9114 26.6993Z" fill="#E5E5E5"/>
<path d="M27.3793 41.8852L27.2845 42.1442L30.9509 45.3421L27.3793 41.8852ZM29.7677 34.0777L28.6193 33.2113L27.2568 32.7014L29.7677 34.0777Z" fill="white"/>
<path d="M30.8965 23.2228L30.9639 23.7862L35.778 23.3184L30.8965 23.2228Z" fill="#E5E5E5"/>
<path d="M27.4601 41.6162L27.3799 41.8856L30.9515 45.3425L27.4601 41.6162Z" fill="white"/>
<path d="M30.9909 25.861L30.9122 26.6992L35.8721 25.9316L30.9909 25.861ZM30.9023 35.6511L31.0878 36.0134L35.7838 35.6293L30.9023 35.6511Z" fill="#E5E5E5"/>
<path d="M30.8024 22.6809L29.0804 19.1207L25.9541 17.2036L30.8024 22.6809ZM27.6338 39.7579L30.9515 45.3422L27.2574 32.7015L27.6338 39.7579Z" fill="white"/>
<path d="M30.9658 23.7863L31.0063 24.3711L35.8471 23.8765L30.9658 23.7863ZM31.0063 24.3711L31.0198 24.9772L35.8875 24.4558L31.0063 24.3711ZM31.0198 24.9772L30.9935 25.8607L35.9009 25.0563L31.0198 24.9772Z" fill="#E5E5E5"/>
<path d="M27.5256 41.3362L27.46 41.6159L30.9514 45.3422L27.5256 41.3362ZM27.5766 41.0462L27.5256 41.3362L30.9514 45.3422L27.5766 41.0462ZM27.6131 40.7459L27.5766 41.0462L30.9514 45.3422L27.6131 40.7459ZM27.635 40.4353L27.6131 40.7459L30.9514 45.3422L27.635 40.4353ZM27.6337 39.7579L27.6422 40.1145L30.9514 45.3422L27.6337 39.7579ZM27.6422 40.1145L27.635 40.4353L30.9514 45.3422L27.6422 40.1145ZM29.0803 19.1206L28.7495 18.7705L28.4015 18.4519L29.0803 19.1206Z" fill="white"/>
<path d="M31.1914 44.8034L30.9521 45.3423L36.072 44.695L31.1914 44.8034ZM31.0895 36.0135L31.2574 36.3885L35.9704 35.9882L31.0895 36.0135Z" fill="#E5E5E5"/>
<path d="M28.0244 48.6325L28.884 48.0123L29.679 47.2476L28.0244 48.6325ZM28.4033 31.7599L28.8988 31.2881L29.3428 30.7703L28.4033 31.7599ZM29.2217 33.6002L28.9279 33.3948L28.6206 33.2117L29.2217 33.6002Z" fill="white"/>
<path d="M31.2555 36.3883L31.4057 36.7762L36.1359 36.3595L31.2555 36.3883ZM31.3969 44.2395L31.1895 44.8032L36.2769 44.1364L31.3969 44.2395Z" fill="#E5E5E5"/>
<path d="M27.2568 32.5653L29.3415 30.7701L30.5979 28.2393L27.2568 32.5653Z" fill="white"/>
<path d="M31.4073 36.7765L31.5399 37.1772L36.2872 36.744L31.4073 36.7765ZM31.5741 43.6512L31.3984 44.2398L36.4535 43.5536L31.5741 43.6512Z" fill="#E5E5E5"/>
<path d="M29.7675 34.0781L29.2202 33.6002L28.6191 33.2117L29.7675 34.0781Z" fill="white"/>
<path d="M31.5371 37.1772L31.6521 37.5906L36.4167 37.1409L31.5371 37.1772Z" fill="#E5E5E5"/>
<path d="M28.8857 48.0123L29.2914 47.648L29.6808 47.2476L28.8857 48.0123Z" fill="white"/>
<path d="M31.717 43.0374L31.5732 43.6509L36.596 42.9457L31.717 43.0374ZM31.6541 37.5903L31.7514 38.0164L36.5333 37.55L31.6541 37.5903Z" fill="#E5E5E5"/>
<path d="M29.6702 19.8811L29.3879 19.4901L29.0791 19.1208L29.6702 19.8811Z" fill="white"/>
<path d="M31.7502 38.0163L31.8299 38.4551L36.6291 37.972L31.7502 38.0163ZM31.8277 42.3992L31.7158 43.0374L36.7063 42.3134L31.8277 42.3992Z" fill="#E5E5E5"/>
<path d="M31.4064 36.7762L29.7677 34.0777L27.2568 32.7014L31.4064 36.7762Z" fill="white"/>
<path d="M31.832 38.4554L31.894 38.9069L36.7107 38.407L31.832 38.4554Z" fill="#E5E5E5"/>
<path d="M29.7689 34.078L29.5021 33.828L29.2217 33.6002L29.7689 34.078Z" fill="white"/>
<path d="M31.908 41.7365L31.8281 42.3994L36.7865 41.657L31.908 41.7365ZM31.8923 38.9068L31.9366 39.3709L36.7708 38.8541L31.8923 38.9068Z" fill="#E5E5E5"/>
<path d="M28.0231 48.6324L29.6777 47.2475L30.9509 45.3423L28.0231 48.6324ZM27.2568 32.5653L30.5979 28.2393L30.8018 22.681L27.2568 32.5653Z" fill="white"/>
<path d="M31.9581 41.0489L31.9102 41.7364L36.8364 40.9759L31.9581 41.0489ZM31.9387 39.3708L31.9652 39.8475L36.817 39.3137L31.9387 39.3708ZM31.9652 39.8475L31.9741 40.3368L36.8435 39.7859L31.9652 39.8475ZM31.9741 40.3368L31.9581 41.0489L36.8523 40.2706L31.9741 40.3368Z" fill="#E5E5E5"/>
<path d="M30.1551 20.728L29.6709 19.8811L29.0798 19.1208L30.1551 20.728ZM29.3415 30.7702L29.7337 30.2064L30.0739 29.5966L29.3415 30.7702ZM30.9509 45.3424L31.4064 36.7765L27.2568 32.7017L30.9509 45.3424ZM30.1551 20.728L29.9264 20.2937L29.6709 19.8811L30.1551 20.728ZM29.3415 30.7702L30.0739 29.5966L30.5979 28.2393L29.3415 30.7702ZM30.8018 22.6811L30.1551 20.728L29.0798 19.1208L30.8018 22.6811ZM30.2609 34.6452L30.021 34.3504L29.7677 34.078L30.2609 34.6452ZM29.6777 47.2475L30.0433 46.8088L30.3774 46.345L29.6777 47.2475ZM30.6998 35.3018L30.2609 34.6452L29.7677 34.078L30.6998 35.3018ZM29.6777 47.2475L30.3774 46.345L30.9509 45.3424L29.6777 47.2475ZM30.0739 29.5966L30.362 28.9409L30.5979 28.2393L30.0739 29.5966ZM30.5322 21.6614L30.3571 21.1839L30.1551 20.728L30.5322 21.6614ZM30.6998 35.3018L30.4872 34.9623L30.2609 34.6452L30.6998 35.3018ZM30.8018 22.6811L30.5322 21.6614L30.1551 20.728L30.8018 22.6811ZM31.4064 36.7765L30.6998 35.3018L29.7677 34.078L31.4064 36.7765ZM30.3774 46.345L30.68 45.8562L30.9509 45.3424L30.3774 46.345ZM30.8018 22.6811L30.6805 22.1605L30.5322 21.6614L30.8018 22.6811ZM30.5979 28.2393L30.7815 27.4921L30.9127 26.6993L30.5979 28.2393ZM30.5979 28.2393L31.0176 24.9775L30.8018 22.6811L30.5979 28.2393ZM30.5979 28.2393L30.9127 26.6993L31.0176 24.9775L30.5979 28.2393ZM30.9637 23.7866L30.8962 23.2231L30.8018 22.6811L30.9637 23.7866ZM31.0883 36.0136L30.9029 35.6513L30.6998 35.3018L31.0883 36.0136ZM31.0176 24.9775L30.9637 23.7866L30.8018 22.6811L31.0176 24.9775ZM30.9127 26.6993L30.9914 25.8611L31.0176 24.9775L30.9127 26.6993ZM31.0176 24.9775L31.0041 24.3714L30.9637 23.7866L31.0176 24.9775ZM31.4064 36.7765L31.0883 36.0136L30.6998 35.3018L31.4064 36.7765ZM30.9509 45.3424L31.1901 44.8035L31.3976 44.2398L30.9509 45.3424ZM31.4064 36.7765L31.2562 36.3886L31.0883 36.0136L31.4064 36.7765ZM30.9509 45.3424L31.3976 44.2398L31.7169 43.0377L30.9509 45.3424ZM30.9509 45.3424L31.9726 40.337L31.4064 36.7765L30.9509 45.3424ZM31.654 37.5905L31.539 37.1772L31.4064 36.7765L31.654 37.5905ZM30.9509 45.3424L31.7169 43.0377L31.9726 40.337L30.9509 45.3424ZM31.3976 44.2398L31.5732 43.6512L31.7169 43.0377L31.3976 44.2398ZM31.831 38.4554L31.654 37.5905L31.4064 36.7765L31.831 38.4554ZM31.9726 40.337L31.831 38.4554L31.4064 36.7765L31.9726 40.337ZM31.831 38.4554L31.7513 38.0166L31.654 37.5905L31.831 38.4554ZM31.7169 43.0377L31.8288 42.3995L31.9087 41.7366L31.7169 43.0377ZM31.7169 43.0377L31.9087 41.7366L31.9726 40.337L31.7169 43.0377ZM31.9372 39.371L31.8929 38.9069L31.831 38.4554L31.9372 39.371ZM31.9726 40.337L31.9372 39.371L31.831 38.4554L31.9726 40.337ZM31.9087 41.7366L31.9566 41.0491L31.9726 40.337L31.9087 41.7366ZM31.9726 40.337L31.9638 39.8477L31.9372 39.371L31.9726 40.337Z" fill="white"/>
</g>
<path d="M29.7958 17.167L24.5361 17.0013C25.7983 17.0577 26.6953 17.4314 27.2823 17.6997C27.8693 17.968 28.4815 18.446 29.1272 19.1417C29.6437 19.6982 30.1083 20.5869 30.276 20.9617C30.3319 21.0707 30.5074 21.5202 30.7624 22.446C31.0173 23.3717 31.0419 24.6318 31.0223 25.1461C31.0055 25.708 30.9317 26.991 30.7707 27.6283C30.5695 28.4249 30.3766 29.0958 29.8399 30.0434C29.3033 30.9909 29.0768 31.1083 28.4647 31.7037C27.975 32.18 27.4612 32.4668 27.2655 32.5507V32.7016C29.3116 33.1125 30.4185 34.58 31.0642 35.972C31.715 37.0789 31.9336 38.8259 31.9615 39.5611C32.0957 41.473 31.7519 42.9768 31.6345 43.4352C31.5171 43.8937 31.1632 45.0235 30.6869 45.8755C30.2106 46.7274 29.2418 47.6896 28.8169 48.0641C28.6855 48.1675 28.2332 48.4884 27.4752 48.9446C26.4488 49.4209 25.2642 49.6127 24.8002 49.649C25.8707 49.6266 28.4093 49.5601 29.9993 49.4729C31.341 49.3454 32.3417 48.8552 32.6743 48.626C33.0237 48.4554 33.9472 47.8528 34.8462 46.8063C35.7451 45.7597 36.2997 44.2291 36.4646 43.5946C36.6155 42.9684 36.904 41.3304 36.8503 39.7875C36.7967 38.2445 36.4646 37.1488 36.3053 36.7938C36.2046 36.3941 35.7669 35.3263 34.821 34.253C33.8751 33.1796 32.6379 32.7715 32.1376 32.7016V32.5507C32.4758 32.3941 33.3217 31.8849 33.9992 31.1C34.8797 30.3285 35.4919 28.4165 35.6344 27.8463C35.7485 27.4572 35.8552 26.4096 35.8944 25.9344C35.9195 25.2607 35.9179 23.6938 35.7099 22.8149C35.4499 21.7164 35.2843 21.3339 35.0718 20.8986C34.8904 20.4995 34.4136 19.7014 33.8798 19.1417C33.346 18.5819 32.8588 18.1932 32.0814 17.7942C31.4056 17.4003 30.2761 17.2119 29.7958 17.167Z" fill="#C4C4C4"/>
<path d="M29.7958 17.167L24.5361 17.0013C25.7983 17.0577 26.6953 17.4314 27.2823 17.6997C27.8693 17.968 28.4815 18.446 29.1272 19.1417C29.6437 19.6982 30.1083 20.5869 30.276 20.9617C30.3319 21.0707 30.5074 21.5202 30.7624 22.446C31.0173 23.3717 31.0419 24.6318 31.0223 25.1461C31.0055 25.708 30.9317 26.991 30.7707 27.6283C30.5695 28.4249 30.3766 29.0958 29.8399 30.0434C29.3033 30.9909 29.0768 31.1083 28.4647 31.7037C27.975 32.18 27.4612 32.4668 27.2655 32.5507V32.7016C29.3116 33.1125 30.4185 34.58 31.0642 35.972C31.715 37.0789 31.9336 38.8259 31.9615 39.5611C32.0957 41.473 31.7519 42.9768 31.6345 43.4352C31.5171 43.8937 31.1632 45.0235 30.6869 45.8755C30.2106 46.7274 29.2418 47.6896 28.8169 48.0641C28.6855 48.1675 28.2332 48.4884 27.4752 48.9446C26.4488 49.4209 25.2642 49.6127 24.8002 49.649C25.8707 49.6266 28.4093 49.5601 29.9993 49.4729C31.341 49.3454 32.3417 48.8552 32.6743 48.626C33.0237 48.4554 33.9472 47.8528 34.8462 46.8063C35.7451 45.7597 36.2997 44.2291 36.4646 43.5946C36.6155 42.9684 36.904 41.3304 36.8503 39.7875C36.7967 38.2445 36.4646 37.1488 36.3053 36.7938C36.2046 36.3941 35.7669 35.3263 34.821 34.253C33.8751 33.1796 32.6379 32.7715 32.1376 32.7016V32.5507C32.4758 32.3941 33.3217 31.8849 33.9992 31.1C34.8797 30.3285 35.4919 28.4165 35.6344 27.8463C35.7485 27.4572 35.8552 26.4096 35.8944 25.9344C35.9195 25.2607 35.9179 23.6938 35.7099 22.8149C35.4499 21.7164 35.2843 21.3339 35.0718 20.8986C34.8904 20.4995 34.4136 19.7014 33.8798 19.1417C33.346 18.5819 32.8588 18.1932 32.0814 17.7942C31.4056 17.4003 30.2761 17.2119 29.7958 17.167Z" fill="url(#paint2_linear_1115_102050)"/>
<path d="M29.7958 17.167L24.5361 17.0013C25.7983 17.0577 26.6953 17.4314 27.2823 17.6997C27.8693 17.968 28.4815 18.446 29.1272 19.1417C29.6437 19.6982 30.1083 20.5869 30.276 20.9617C30.3319 21.0707 30.5074 21.5202 30.7624 22.446C31.0173 23.3717 31.0419 24.6318 31.0223 25.1461C31.0055 25.708 30.9317 26.991 30.7707 27.6283C30.5695 28.4249 30.3766 29.0958 29.8399 30.0434C29.3033 30.9909 29.0768 31.1083 28.4647 31.7037C27.975 32.18 27.4612 32.4668 27.2655 32.5507V32.7016C29.3116 33.1125 30.4185 34.58 31.0642 35.972C31.715 37.0789 31.9336 38.8259 31.9615 39.5611C32.0957 41.473 31.7519 42.9768 31.6345 43.4352C31.5171 43.8937 31.1632 45.0235 30.6869 45.8755C30.2106 46.7274 29.2418 47.6896 28.8169 48.0641C28.6855 48.1675 28.2332 48.4884 27.4752 48.9446C26.4488 49.4209 25.2642 49.6127 24.8002 49.649C25.8707 49.6266 28.4093 49.5601 29.9993 49.4729C31.341 49.3454 32.3417 48.8552 32.6743 48.626C33.0237 48.4554 33.9472 47.8528 34.8462 46.8063C35.7451 45.7597 36.2997 44.2291 36.4646 43.5946C36.6155 42.9684 36.904 41.3304 36.8503 39.7875C36.7967 38.2445 36.4646 37.1488 36.3053 36.7938C36.2046 36.3941 35.7669 35.3263 34.821 34.253C33.8751 33.1796 32.6379 32.7715 32.1376 32.7016V32.5507C32.4758 32.3941 33.3217 31.8849 33.9992 31.1C34.8797 30.3285 35.4919 28.4165 35.6344 27.8463C35.7485 27.4572 35.8552 26.4096 35.8944 25.9344C35.9195 25.2607 35.9179 23.6938 35.7099 22.8149C35.4499 21.7164 35.2843 21.3339 35.0718 20.8986C34.8904 20.4995 34.4136 19.7014 33.8798 19.1417C33.346 18.5819 32.8588 18.1932 32.0814 17.7942C31.4056 17.4003 30.2761 17.2119 29.7958 17.167Z" fill="url(#paint3_linear_1115_102050)"/>
<path d="M23.5003 40.3999L18.5498 40.4697C18.9882 41.4732 19.8939 42.5717 20.1454 42.8316C20.288 43.0245 21.1182 43.7205 21.6045 43.9469C21.7387 43.9889 22.7618 44.5507 24.2712 44.4585C25.2909 44.3511 25.9874 43.8826 26.2083 43.6618C25.0427 42.8652 24.1286 41.7164 23.5003 40.3999Z" fill="#C4C4C4"/>
<path d="M23.5003 40.3999L18.5498 40.4697C18.9882 41.4732 19.8939 42.5717 20.1454 42.8316C20.288 43.0245 21.1182 43.7205 21.6045 43.9469C21.7387 43.9889 22.7618 44.5507 24.2712 44.4585C25.2909 44.3511 25.9874 43.8826 26.2083 43.6618C25.0427 42.8652 24.1286 41.7164 23.5003 40.3999Z" fill="url(#paint4_linear_1115_102050)"/>
<path d="M25.9252 23.2572C23.0492 20.4254 19.7562 23.8724 19.0762 25.672C20.0273 25.7088 22.3511 25.7822 24.0371 25.7822C24.3533 24.6758 25.4276 23.6379 25.9252 23.2572Z" fill="#C4C4C4"/>
<path d="M25.9252 23.2572C23.0492 20.4254 19.7562 23.8724 19.0762 25.672C20.0273 25.7088 22.3511 25.7822 24.0371 25.7822C24.3533 24.6758 25.4276 23.6379 25.9252 23.2572Z" fill="url(#paint5_linear_1115_102050)"/>
<path d="M30.5235 0.235008L29.1885 0.0239258C29.6382 0.0850532 30.0832 0.155462 30.5235 0.235008L41.7218 2.00552C43.6028 2.47926 48.2435 4.21928 51.7582 7.38939C55.2729 10.5595 57.9319 14.8265 58.8221 16.5638L60.7603 20.871C61.7797 24.1301 63.56 31.8975 62.5263 36.8938C61.906 41.9247 60.0281 46.8866 59.1666 48.7387C58.0898 51.3374 54.5062 57.422 48.7862 60.9712C45.7712 63.5124 39.3965 65.02 34.0556 65.5799C34.716 65.4076 36.1747 64.9941 36.726 64.7185C37.4152 64.3739 56.5207 56.0442 54.8235 30.279C53.4965 14.2515 44.3568 2.73414 30.5235 0.235008Z" fill="url(#paint6_linear_1115_102050)"/>
<defs>
<filter id="filter0_d_1115_102050" x="11.333" y="9" width="40.5195" height="52.6752" filterUnits="userSpaceOnUse" color-interpolation-filters="sRGB">
<feFlood flood-opacity="0" result="BackgroundImageFix"/>
<feColorMatrix in="SourceAlpha" type="matrix" values="0 0 0 0 0 0 0 0 0 0 0 0 0 0 0 0 0 0 127 0" result="hardAlpha"/>
<feOffset dx="5" dy="2"/>
<feGaussianBlur stdDeviation="5"/>
<feColorMatrix type="matrix" values="0 0 0 0 0.321569 0 0 0 0 0.156863 0 0 0 0 0.423529 0 0 0 0.3 0"/>
<feBlend mode="normal" in2="BackgroundImageFix" result="effect1_dropShadow_1115_102050"/>
<feBlend mode="normal" in="SourceGraphic" in2="effect1_dropShadow_1115_102050" result="shape"/>
</filter>
<linearGradient id="paint0_linear_1115_102050" x1="27.7535" y1="0" x2="40.011" y2="67.9304" gradientUnits="userSpaceOnUse">
<stop stop-color="#DEE5F8"/>
<stop offset="1" stop-color="#BDBEE3"/>
</linearGradient>
<linearGradient id="paint1_linear_1115_102050" x1="38.0802" y1="53.3677" x2="-5.11377" y2="2.09893" gradientUnits="userSpaceOnUse">
<stop stop-color="white" stop-opacity="0.7"/>
<stop offset="1" stop-color="#A0A3CF"/>
</linearGradient>
<linearGradient id="paint2_linear_1115_102050" x1="30.6965" y1="17.0013" x2="30.6965" y2="49.649" gradientUnits="userSpaceOnUse">
<stop stop-color="#E5E5E5"/>
<stop offset="1" stop-color="#E5E5E5" stop-opacity="0"/>
</linearGradient>
<linearGradient id="paint3_linear_1115_102050" x1="53.5219" y1="38.6686" x2="30.6965" y2="49.649" gradientUnits="userSpaceOnUse">
<stop stop-color="#EFE6F6"/>
<stop offset="1" stop-color="#EEECF0"/>
</linearGradient>
<linearGradient id="paint4_linear_1115_102050" x1="22.3335" y1="36.5" x2="22.3335" y2="52" gradientUnits="userSpaceOnUse">
<stop offset="0.161458" stop-color="#F4F4F4"/>
<stop offset="0.755208" stop-color="#E5E5E5" stop-opacity="0"/>
</linearGradient>
<linearGradient id="paint5_linear_1115_102050" x1="22.5007" y1="22.1805" x2="22.3335" y2="30.9999" gradientUnits="userSpaceOnUse">
<stop stop-color="#E5E5E5"/>
<stop offset="1" stop-color="#E5E5E5" stop-opacity="0"/>
</linearGradient>
<linearGradient id="paint6_linear_1115_102050" x1="79.5576" y1="27.416" x2="12.6901" y2="39.2922" gradientUnits="userSpaceOnUse">
<stop stop-color="#BDBEE3"/>
<stop offset="1" stop-color="#DEE5F8"/>
</linearGradient>
</defs>
</svg>
