<svg width="64" height="67" viewBox="0 0 64 67" fill="none" xmlns="http://www.w3.org/2000/svg">
<path d="M0.885229 28.9175L0.666992 33.1386L0.885229 37.3597V28.9175ZM2.55377 20.978L0.885229 28.9175V37.3597L2.55377 20.978ZM0.885229 37.3597L1.52235 41.4218L2.55377 45.2992L0.885229 37.3597ZM2.55377 20.978L1.52235 24.8554L0.885229 28.9175L2.55377 20.978ZM0.885229 37.3597L2.55377 45.2992L5.71031 52.3845L0.885229 37.3597ZM2.55377 45.2992L3.95682 48.9637L5.71031 52.3845L2.55377 45.2992ZM5.71031 13.8927L3.95682 17.3134L2.55377 20.978L5.71031 13.8927ZM10.1885 7.92042L2.55377 20.978L0.885229 37.3597L10.1885 7.92042ZM10.1885 7.92042L5.71031 13.8927L2.55377 20.978L10.1885 7.92042ZM0.885229 37.3597L5.71031 52.3845L15.8322 62.9092L0.885229 37.3597ZM10.1885 7.92042L7.79406 10.7494L5.71031 13.8927L10.1885 7.92042ZM5.71031 52.3845L7.79406 55.5278L10.1885 58.3567L5.71031 52.3845ZM10.1885 7.92042L0.885229 37.3597L15.8322 62.9092L10.1885 7.92042ZM5.71031 52.3845L10.1885 58.3567L15.8322 62.9092L5.71031 52.3845ZM10.1885 58.3567L12.8744 60.8316L15.8322 62.9092L10.1885 58.3567ZM15.8322 3.36792L12.8744 5.44555L10.1885 7.92042L15.8322 3.36792Z" fill="#C4C4C4"/>
<path d="M35.5361 65.3202L38.2587 64.8652L41.8021 64.2717L35.5361 65.3202Z" fill="#B0B0B0"/>
<path d="M22.4833 0.593994L15.8322 3.36828L10.1885 7.92078L22.4833 0.593994Z" fill="#C4C4C4"/>
<path d="M39.1077 1.55498L41.8021 2.00526L38.2587 1.41179L39.1077 1.55498ZM35.5361 0.956787L39.1077 1.55498L38.2587 1.41179L35.5361 0.956787ZM39.1077 64.7224L35.5361 65.3206L41.8021 64.2721L39.1077 64.7224ZM39.1077 64.7224L41.8021 64.2721L45.2171 63.1258L39.1077 64.7224Z" fill="#B0B0B0"/>
<path d="M15.8311 62.9096L19.0409 64.5435L22.4822 65.6839L15.8311 62.9096ZM22.4822 0.593994L19.0409 1.73436L15.8311 3.36828L22.4822 0.593994Z" fill="#C4C4C4"/>
<path d="M42.5516 2.71439L45.2181 3.1516L41.803 2.00526L42.5516 2.71439ZM39.1087 1.55498L42.5516 2.71439L41.803 2.00526L39.1087 1.55498ZM32.7354 65.7889L35.5371 65.3206L39.1087 64.7224L32.7354 65.7889ZM42.5516 63.563L39.1087 64.7224L45.2181 63.1258L42.5516 63.563ZM42.5516 63.563L45.2181 63.1258L48.4633 61.4516L42.5516 63.563ZM36.3352 1.09149L39.1087 1.55498L35.5371 0.956787L36.3352 1.09149Z" fill="#B0B0B0"/>
<path d="M15.8311 62.9094L22.4822 65.6837L29.8497 66.271L15.8311 62.9094Z" fill="#C4C4C4"/>
<path d="M45.8242 4.40982L48.4633 4.82578L45.2181 3.15159L45.8242 4.40982ZM32.7354 0.488525L36.3352 1.09147L35.5371 0.95677L32.7354 0.488525Z" fill="#B0B0B0"/>
<path d="M36.9785 1.8008L22.4833 0.593994L10.1885 7.92078L36.9785 1.8008Z" fill="#C4C4C4"/>
<path d="M42.5516 2.71434L45.8242 4.40979L45.2181 3.15155L42.5516 2.71434ZM36.3352 65.1859L32.7354 65.7888L39.1087 64.7224L36.3352 65.1859ZM36.3352 65.1859L39.1087 64.7224L42.5516 63.563L36.3352 65.1859ZM45.8242 61.8675L48.4633 61.4516L51.4958 59.2774L45.8242 61.8675ZM45.8242 61.8675L42.5516 63.563L48.4633 61.4516L45.8242 61.8675ZM39.8063 2.26419L42.5516 2.71434L39.1087 1.55493L39.8063 2.26419ZM48.8828 6.61314L51.4958 6.99987L48.4633 4.82575L48.8828 6.61314Z" fill="#B0B0B0"/>
<path d="M22.4805 65.6837L26.1313 66.2772L29.848 66.271L22.4805 65.6837ZM29.848 0.00649145L26.1313 0.000244141L22.4805 0.593777L29.848 0.00649145Z" fill="#C4C4C4"/>
<path d="M36.335 1.09155L39.8061 2.26431L39.1084 1.55504L36.335 1.09155ZM45.824 4.4099L48.8826 6.61325L48.4631 4.82586L45.824 4.4099Z" fill="#B0B0B0"/>
<path d="M10.1885 7.92017L15.8322 62.909L54.9108 28.3275L10.1885 7.92017Z" fill="#C4C4C4"/>
<path d="M29.8486 66.2709L32.7331 65.7889L36.333 65.1859L29.8486 66.2709ZM48.8806 59.6642L51.4936 59.2775L54.2685 56.6346L48.8806 59.6642ZM39.8041 64.0132L36.333 65.1859L42.5494 63.563L39.8041 64.0132ZM48.8806 59.6642L45.822 61.8676L51.4936 59.2775L48.8806 59.6642ZM39.8041 64.0132L42.5494 63.563L45.822 61.8676L39.8041 64.0132ZM33.4769 0.614184L36.333 1.09149L32.7331 0.488542L33.4769 0.614184ZM51.6801 9.29297L54.2685 9.64285L51.4936 6.99992L51.6801 9.29297ZM43.1042 3.98147L45.822 4.40984L42.5494 2.71439L43.1042 3.98147ZM29.8486 0.00646973L33.4769 0.614184L32.7331 0.488542L29.8486 0.00646973ZM48.8806 6.61318L51.6801 9.29297L51.4936 6.99992L48.8806 6.61318Z" fill="#B0B0B0"/>
<path d="M15.8311 62.9095L29.8497 66.2711L43.4168 60.4732L15.8311 62.9095ZM36.9774 1.80069L29.8497 0.0065918L22.4822 0.593878L36.9774 1.80069Z" fill="#C4C4C4"/>
<path d="M39.8041 2.26443L43.1042 3.98167L42.5494 2.71459L39.8041 2.26443ZM51.6801 56.9846L54.2685 56.6348L56.7403 53.5577L51.6801 56.9846ZM33.4769 65.6634L29.8486 66.2711L36.333 65.1861L33.4769 65.6634ZM51.6801 56.9846L48.8806 59.6644L54.2685 56.6348L51.6801 56.9846ZM33.4769 65.6634L36.333 65.1861L39.8041 64.0134L33.4769 65.6634ZM43.1042 62.2961L45.822 61.8678L48.8806 59.6644L43.1042 62.2961ZM43.1042 62.2961L39.8041 64.0134L45.822 61.8678L43.1042 62.2961ZM54.1741 12.4143L56.7403 12.7201L54.2685 9.64304L54.1741 12.4143ZM36.9763 1.80076L39.8041 2.26443L36.333 1.09168L36.9763 1.80076ZM46.1892 6.21502L48.8806 6.61338L45.822 4.41003L46.1892 6.21502ZM51.6801 9.29317L54.1741 12.4143L54.2685 9.64304L51.6801 9.29317ZM54.1741 53.8635L56.7403 53.5577L58.8627 50.0849L54.1741 53.8635ZM33.4769 0.61438L36.9763 1.80076L36.333 1.09168L33.4769 0.61438ZM43.1042 3.98167L46.1892 6.21502L45.822 4.41003L43.1042 3.98167ZM54.1741 53.8635L51.6801 56.9846L56.7403 53.5577L54.1741 53.8635ZM56.316 15.9379L58.8627 16.1929L56.7403 12.7201L56.316 15.9379Z" fill="#B0B0B0"/>
<path d="M29.8486 66.2709L33.4769 65.6632L36.9763 64.4768L29.8486 66.2709ZM36.9763 1.80057L33.4769 0.614184L29.8486 0.00646973L36.9763 1.80057Z" fill="#C4C4C4"/>
<path d="M46.1908 60.0625L48.8822 59.6642L51.6816 56.9844L46.1908 60.0625ZM36.9779 64.4768L33.4785 65.6632L39.8057 64.0131L36.9779 64.4768ZM46.1908 60.0625L43.1058 62.2959L48.8822 59.6642L46.1908 60.0625ZM36.9779 64.4768L39.8057 64.0131L43.1058 62.2959L36.9779 64.4768Z" fill="#B0B0B0"/>
<path d="M54.9108 28.3278L36.9785 1.80054L10.1885 7.92051L54.9108 28.3278Z" fill="#C4C4C4"/>
<path d="M56.3172 50.3398L58.864 50.0848L60.5909 46.2585L56.3172 50.3398ZM54.1753 12.4142L56.3172 15.9378L56.7415 12.72L54.1753 12.4142ZM49.0146 8.93262L51.6813 9.29307L48.8818 6.61328L49.0146 8.93262ZM58.0602 19.8209L60.5909 20.0191L58.864 16.1928L58.0602 19.8209ZM40.3053 3.54024L43.1054 3.98157L39.8053 2.26433L40.3053 3.54024ZM56.3172 50.3398L54.1753 53.8634L58.864 50.0848L56.3172 50.3398ZM58.0602 46.4567L60.5909 46.2585L61.8771 42.1249L58.0602 46.4567ZM46.1904 6.21492L49.0146 8.93262L48.8818 6.61328L46.1904 6.21492ZM36.9775 1.80066L40.3053 3.54024L39.8053 2.26433L36.9775 1.80066ZM59.3585 24.0166L61.8771 24.1527L60.5909 20.0191L59.3585 24.0166ZM56.3172 15.9378L58.0602 19.8209L58.864 16.1928L56.3172 15.9378ZM49.0146 57.345L51.6813 56.9845L54.1753 53.8634L49.0146 57.345ZM49.0146 57.345L46.1904 60.0627L51.6813 56.9845L49.0146 57.345Z" fill="#B0B0B0"/>
<path d="M29.8486 66.2706L36.9763 64.4765L43.4157 60.4728L29.8486 66.2706Z" fill="#C4C4C4"/>
<path d="M59.3585 42.2609L61.8771 42.1248L62.6787 37.7337L59.3585 42.2609ZM58.0602 46.4566L56.3172 50.3397L60.5909 46.2584L58.0602 46.4566ZM60.1677 28.4739L62.6787 28.5437L61.8771 24.1526L60.1677 28.4739ZM40.3053 62.7373L43.1054 62.2959L46.1904 60.0626L40.3053 62.7373ZM40.3053 62.7373L36.9775 64.4768L43.1054 62.2959L40.3053 62.7373ZM51.5311 12.099L54.1753 12.4141L51.6813 9.29297L51.5311 12.099ZM60.1677 37.8035L62.6787 37.7337L62.9546 33.1387L60.1677 37.8035ZM60.4462 33.1387H62.9546L62.6787 28.5437L60.4462 33.1387ZM58.0602 19.8208L59.3585 24.0165L60.5909 20.019L58.0602 19.8208Z" fill="#B0B0B0"/>
<path d="M15.8311 62.9094L43.4168 60.4731L54.9097 28.3279L15.8311 62.9094Z" fill="#C4C4C4"/>
<path d="M43.4163 5.80434L46.1898 6.21485L43.1048 3.98149L43.4163 5.80434ZM59.3578 42.2609L58.0596 46.4566L61.8764 42.1248L59.3578 42.2609ZM49.0139 8.93254L51.5305 12.0991L51.6806 9.29299L49.0139 8.93254ZM51.5305 54.1784L54.1747 53.8633L56.3166 50.3397L51.5305 54.1784ZM59.3578 24.0165L60.1671 28.4739L61.8764 24.1527L59.3578 24.0165ZM60.1671 37.8035L59.3578 42.2609L62.6781 37.7337L60.1671 37.8035ZM40.3047 3.54016L43.4163 5.80434L43.1048 3.98149L40.3047 3.54016ZM51.5305 54.1784L49.0139 57.3449L54.1747 53.8633L51.5305 54.1784ZM53.692 15.6749L56.3166 15.9377L54.1747 12.4141L53.692 15.6749ZM60.1671 28.4739L60.4455 33.1387L62.6781 28.5437L60.1671 28.4739ZM60.4455 33.1387L60.1671 37.8035L62.9539 33.1387H60.4455ZM43.4163 60.4731L46.1898 60.0626L49.0139 57.3449L43.4163 60.4731ZM43.4163 60.4731L40.3047 62.7373L46.1898 60.0626L43.4163 60.4731Z" fill="#B0B0B0"/>
<path d="M36.9775 64.4769L40.3053 62.7373L43.4169 60.4732L36.9775 64.4769ZM43.4169 5.80442L40.3053 3.54024L36.9775 1.80066L43.4169 5.80442Z" fill="#C4C4C4"/>
<path d="M53.6927 50.6022L56.3173 50.3394L58.0603 46.4563L53.6927 50.6022ZM51.5312 12.0988L53.6927 15.6747L54.1754 12.4139L51.5312 12.0988ZM46.2661 8.56076L49.0147 8.93227L46.1905 6.21458L46.2661 8.56076ZM55.452 19.6163L58.0603 19.8206L56.3173 15.9375L55.452 19.6163ZM53.6927 50.6022L51.5312 54.1781L56.3173 50.3394L53.6927 50.6022ZM55.452 46.6606L58.0603 46.4563L59.3585 42.2607L55.452 46.6606ZM43.417 5.80408L46.2661 8.56076L46.1905 6.21458L43.417 5.80408ZM56.7624 23.8759L59.3585 24.0162L58.0603 19.8206L56.7624 23.8759ZM53.6927 15.6747L55.452 19.6163L56.3173 15.9375L53.6927 15.6747ZM46.2661 57.7161L49.0147 57.3446L51.5312 54.1781L46.2661 57.7161Z" fill="#B0B0B0"/>
<path d="M48.8052 11.7743L43.4169 5.80442L36.9775 1.80066L48.8052 11.7743Z" fill="#C4C4C4"/>
<path d="M46.2661 57.7165L43.417 60.4732L49.0147 57.345L46.2661 57.7165ZM56.7624 42.4014L59.3585 42.2611L60.1678 37.8036L56.7624 42.4014ZM55.452 46.661L53.6927 50.6026L58.0603 46.4567L55.452 46.661ZM57.5794 28.4022L60.1678 28.4741L59.3585 24.0166L57.5794 28.4022ZM48.8053 11.7744L51.5312 12.0992L49.0147 8.93267L48.8053 11.7744ZM57.5794 37.8755L60.1678 37.8036L60.4463 33.1389L57.5794 37.8755ZM57.8605 33.1389H60.4463L60.1678 28.4741L57.8605 33.1389ZM55.452 19.6167L56.7624 23.8763L58.0603 19.821L55.452 19.6167ZM56.7624 42.4014L55.452 46.661L59.3585 42.2611L56.7624 42.4014ZM46.2661 8.56116L48.8053 11.7744L49.0147 8.93267L46.2661 8.56116ZM48.8053 54.5033L51.5312 54.1785L53.6927 50.6026L48.8053 54.5033ZM56.7624 23.8763L57.5794 28.4022L59.3585 24.0166L56.7624 23.8763ZM57.5794 37.8755L56.7624 42.4014L60.1678 37.8036L57.5794 37.8755ZM48.8053 54.5033L46.2661 57.7165L51.5312 54.1785L48.8053 54.5033ZM50.9867 15.4041L53.6927 15.6751L51.5312 12.0992L50.9867 15.4041ZM57.5794 28.4022L57.8605 33.1389L60.1678 28.4741L57.5794 28.4022ZM57.8605 33.1389L57.5794 37.8755L60.4463 33.1389H57.8605Z" fill="#B0B0B0"/>
<path d="M43.4169 60.4732L46.266 57.7165L48.8052 54.5033L43.4169 60.4732ZM48.8052 11.7743L46.266 8.5611L43.4169 5.80442L48.8052 11.7743ZM54.9098 28.328L48.8052 11.7743L36.9775 1.80066L54.9098 28.328Z" fill="#C4C4C4"/>
<path d="M50.989 50.8734L53.695 50.6024L55.4543 46.6608L50.989 50.8734ZM48.8076 11.7742L50.989 15.4039L51.5335 12.099L48.8076 11.7742ZM52.7647 19.4058L55.4543 19.6165L53.695 15.6748L52.7647 19.4058ZM50.989 50.8734L48.8076 54.5031L53.695 50.6024L50.989 50.8734Z" fill="#B0B0B0"/>
<path d="M43.417 60.4732L48.8053 54.5033L52.7624 46.8717L43.417 60.4732Z" fill="#C4C4C4"/>
<path d="M52.762 46.8718L55.4516 46.6611L56.7621 42.4015L52.762 46.8718ZM54.0848 23.7316L56.7621 23.8764L55.4516 19.6167L54.0848 23.7316ZM50.9863 15.4042L52.762 19.4061L53.6923 15.6751L50.9863 15.4042ZM54.0848 42.5462L56.7621 42.4015L57.579 37.8756L54.0848 42.5462ZM52.762 46.8718L50.9863 50.8737L55.4516 46.6611L52.762 46.8718ZM54.9095 28.3281L57.579 28.4023L56.7621 23.8764L54.9095 28.3281Z" fill="#B0B0B0"/>
<path d="M43.417 60.473L52.7624 46.8714L54.9099 28.3278L43.417 60.473Z" fill="#C4C4C4"/>
<path d="M54.9102 37.9495L57.5796 37.8753L57.8608 33.1387L54.9102 37.9495ZM55.194 33.1387H57.8608L57.5796 28.402L55.194 33.1387Z" fill="#B0B0B0"/>
<path d="M48.8076 54.5031L50.989 50.8734L52.7647 46.8715L48.8076 54.5031ZM52.7647 19.4058L50.989 15.4039L48.8076 11.7742L52.7647 19.4058Z" fill="#C4C4C4"/>
<path d="M52.7627 19.4061L54.0855 23.7317L55.4523 19.6168L52.7627 19.4061ZM54.0855 42.5463L52.7627 46.8718L56.7628 42.4015L54.0855 42.5463ZM54.0855 23.7317L54.9102 28.3281L56.7628 23.8764L54.0855 23.7317Z" fill="#B0B0B0"/>
<path d="M54.9122 28.3278L52.7647 19.4058L48.8076 11.7742L54.9122 28.3278Z" fill="#C4C4C4"/>
<path d="M54.9116 37.9495L54.0869 42.546L57.5811 37.8754L54.9116 37.9495ZM54.9116 28.3279L55.1954 33.1387L57.5811 28.402L54.9116 28.3279ZM55.1954 33.1387L54.9116 37.9495L57.8622 33.1387H55.1954Z" fill="#B0B0B0"/>
<path d="M52.7627 46.8718L54.0855 42.5463L54.9102 37.9498L52.7627 46.8718ZM54.9102 28.3281L54.0855 23.7317L52.7627 19.4061L54.9102 28.3281ZM52.7627 46.8718L54.9102 37.9498V28.3281L52.7627 46.8718ZM54.9102 37.9498L55.194 33.139L54.9102 28.3281V37.9498Z" fill="#C4C4C4"/>
<path d="M54.9534 33.2557C54.9534 51.4417 42.8384 66.0113 28.0875 66.0113C13.3367 66.0113 1.22168 51.4417 1.22168 33.2557C1.22168 15.0696 13.3367 0.5 28.0875 0.5C42.8384 0.5 54.9534 15.0696 54.9534 33.2557Z" fill="url(#paint0_linear_1115_101810)" stroke="url(#paint1_linear_1115_101810)"/>
<g filter="url(#filter0_d_1115_101810)">
<path d="M20.6162 27.2423L24.8575 27.2975L24.9929 26.689L20.6162 27.2423ZM20.752 26.6281L24.9929 26.689L25.1513 26.1328L20.752 26.6281ZM20.9108 26.0667L25.1513 26.1328L25.3325 25.629L20.9108 26.0667ZM21.0926 25.5581L25.3325 25.629L25.5368 25.1774L21.0926 25.5581ZM21.2974 25.1022L25.5368 25.1774L25.764 24.7781L21.2974 25.1022ZM21.5252 24.6991L25.764 24.7781L26.0143 24.431L21.5252 24.6991Z" fill="#E5E5E5"/>
<path d="M18.0975 43.0311L17.4922 43.8021V47.5388L18.0975 43.0311ZM17.8258 24.5151L17.727 25.01L17.6461 25.5231L17.8258 24.5151ZM18.0776 23.5801L17.8258 24.5151L17.6461 25.5231L18.0776 23.5801Z" fill="white"/>
<path d="M21.7764 24.3487L26.0145 24.4309L26.2879 24.1362L21.7764 24.3487Z" fill="#E5E5E5"/>
<path d="M18.0776 23.5801L17.9427 24.0385L17.8258 24.5151L18.0776 23.5801ZM18.6718 42.2948L18.0975 43.0311L17.4922 47.5388L18.6718 42.2948Z" fill="white"/>
<path d="M22.0508 24.0513L26.2881 24.1363L26.5847 23.8939L22.0508 24.0513Z" fill="#E5E5E5"/>
<path d="M18.7983 21.9276L18.0779 23.58L17.6465 25.523L18.7983 21.9276Z" fill="white"/>
<path d="M22.1123 43.2658L26.3495 43.1715L26.5219 42.9889L22.1123 43.2658Z" fill="#E5E5E5"/>
<path d="M18.4021 22.7175L18.2311 23.1397L18.0781 23.58L18.4021 22.7175Z" fill="white"/>
<path d="M22.2842 43.0816L26.5209 42.989L26.6852 42.8141L22.2842 43.0816Z" fill="#E5E5E5"/>
<path d="M18.7985 21.9276L18.4021 22.7176L18.0781 23.58L18.7985 21.9276Z" fill="white"/>
<path d="M22.3477 23.8067L26.5842 23.8941L26.904 23.7041L22.3477 23.8067ZM22.4492 42.9051L26.6855 42.8141L26.8416 42.6469L22.4492 42.9051Z" fill="#E5E5E5"/>
<path d="M18.7968 21.9276L18.5895 22.3136L18.4004 22.7176L18.7968 21.9276Z" fill="white"/>
<path d="M22.606 42.7361L26.8418 42.6467L26.9898 42.4872L22.606 42.7361ZM20.752 26.6281L20.6162 27.2423L24.9929 26.6889L20.752 26.6281ZM22.6686 23.6147L26.9042 23.7039L27.2474 23.5664L22.6686 23.6147ZM22.7544 42.5751L26.9898 42.4872L27.1296 42.3353L22.7544 42.5751ZM20.9108 26.0667L20.752 26.6281L25.1513 26.1327L20.9108 26.0667ZM22.8946 42.4219L27.1296 42.3353L27.2613 42.1912L22.8946 42.4219Z" fill="#E5E5E5"/>
<path d="M19.266 21.2098L19.0223 21.5596L18.7969 21.9275L19.266 21.2098Z" fill="white"/>
<path d="M21.0929 25.5582L20.9111 26.0668L25.3329 25.6291L21.0929 25.5582ZM23.027 42.2766L27.2616 42.1914L27.385 42.055L23.027 42.2766ZM23.0131 23.4761L27.2477 23.5666L27.6142 23.4816L23.0131 23.4761Z" fill="#E5E5E5"/>
<path d="M21.08 19.5182L18.7983 21.9275L17.6465 25.5229L21.08 19.5182Z" fill="white"/>
<path d="M23.1506 42.1387L27.3849 42.0548L27.5001 41.9261L23.1506 42.1387ZM21.2976 25.1022L21.0928 25.558L25.537 25.1773L21.2976 25.1022Z" fill="#E5E5E5"/>
<path d="M19.8082 20.5645L19.266 21.2099L18.7969 21.9275L19.8082 20.5645Z" fill="white"/>
<path d="M23.2656 42.0089L27.4996 41.9261L27.6066 41.8052L23.2656 42.0089ZM23.373 41.8868L27.6066 41.8052L27.7054 41.692L23.373 41.8868Z" fill="#E5E5E5"/>
<path d="M18.6718 42.2948L17.4922 47.5388L22.112 43.2659L18.6718 42.2948Z" fill="white"/>
<path d="M21.5248 24.6992L21.2969 25.1023L25.7635 24.7781L21.5248 24.6992ZM23.4719 41.7726L27.7053 41.6921L27.7959 41.5867L23.4719 41.7726ZM23.3798 23.3901L27.6134 23.4815L28.0034 23.4491L23.3798 23.3901Z" fill="#E5E5E5"/>
<path d="M19.8088 20.5645L19.5285 20.8781L19.2666 21.2099L19.8088 20.5645Z" fill="white"/>
<path d="M23.5635 41.6663L27.7966 41.5867L27.8789 41.489L23.5635 41.6663Z" fill="#E5E5E5"/>
<path d="M17.6465 25.5229L20.6168 27.2423L20.7526 26.6281L17.6465 25.5229Z" fill="white"/>
<path d="M23.645 41.5676L27.8779 41.4889L28.0357 41.2979L23.645 41.5676ZM21.7754 24.3488L21.5244 24.6991L26.0135 24.431L21.7754 24.3488Z" fill="#E5E5E5"/>
<path d="M17.6465 25.5229L20.7526 26.6281L20.9114 26.0667L17.6465 25.5229Z" fill="white"/>
<path d="M23.7715 23.3574L28.004 23.4492L28.2241 23.4526L23.7715 23.3574ZM23.8042 41.3749L28.0366 41.298L28.1971 41.1002L23.8042 41.3749Z" fill="#E5E5E5"/>
<path d="M17.6465 25.5229L20.9114 26.0667L21.0931 25.5581L17.6465 25.5229ZM21.08 19.5182L19.8096 20.5644L18.7983 21.9275L21.08 19.5182Z" fill="white"/>
<path d="M22.0506 24.0513L21.7764 24.3488L26.2879 24.1363L22.0506 24.0513Z" fill="#E5E5E5"/>
<path d="M17.6465 25.5229L21.0931 25.558L21.2979 25.1022L17.6465 25.5229Z" fill="white"/>
<path d="M23.9639 41.1753L28.1958 41.1003L28.359 40.8956L23.9639 41.1753Z" fill="#E5E5E5"/>
<path d="M20.4217 19.9915L20.1099 20.2655L19.8096 20.5646L20.4217 19.9915ZM17.6465 25.5231L21.2979 25.1024L21.5258 24.6993L17.6465 25.5231Z" fill="white"/>
<path d="M24.129 40.9685L28.3605 40.8954L28.5264 40.6839L24.129 40.9685ZM22.2851 43.0814L22.1122 43.2657L26.5217 42.9888L22.2851 43.0814ZM22.3482 23.8065L22.0508 24.0512L26.5847 23.8939L22.3482 23.8065Z" fill="#E5E5E5"/>
<path d="M17.6465 25.5229L21.5258 24.6991L21.7768 24.3488L17.6465 25.5229Z" fill="white"/>
<path d="M24.2945 40.7552L28.5255 40.6841L28.6941 40.4657L24.2945 40.7552ZM22.4489 42.9051L22.2842 43.0816L26.6852 42.8141L22.4489 42.9051Z" fill="#E5E5E5"/>
<path d="M21.08 19.5182L20.4217 19.9913L19.8096 20.5644L21.08 19.5182ZM17.6465 25.5229L21.7768 24.3488L22.051 24.0513L17.6465 25.5229ZM19.2152 41.5935L18.6721 42.2947L23.6464 41.5676L19.2152 41.5935Z" fill="white"/>
<path d="M24.4639 40.5348L28.6944 40.4657L28.8657 40.2404L24.4639 40.5348ZM22.6058 42.7363L22.4492 42.9051L26.8416 42.6468L22.6058 42.7363ZM22.6684 23.6149L22.3477 23.8067L26.904 23.7041L22.6684 23.6149Z" fill="#E5E5E5"/>
<path d="M17.6465 25.5229L22.051 24.0512L22.3484 23.8065L17.6465 25.5229Z" fill="white"/>
<path d="M24.6353 40.3074L28.8654 40.2404L29.0394 40.0083L24.6353 40.3074ZM22.7539 42.5752L22.6055 42.7363L26.9892 42.4873L22.7539 42.5752Z" fill="#E5E5E5"/>
<path d="M21.0792 19.5182L20.7442 19.7422L20.4209 19.9913L21.0792 19.5182Z" fill="white"/>
<path d="M22.8941 42.422L22.7539 42.5752L27.1291 42.3354L22.8941 42.422ZM24.8098 40.0731L29.0394 40.0083L29.2161 39.7693L24.8098 40.0731Z" fill="#E5E5E5"/>
<path d="M17.6465 25.523L22.3484 23.8067L22.6692 23.6149L17.6465 25.523Z" fill="white"/>
<path d="M23.0121 23.4759L22.668 23.6147L27.2467 23.5664L23.0121 23.4759ZM25.1288 18.6711L29.3574 18.807L28.8928 18.7716L25.1288 18.6711ZM23.026 42.2764L22.894 42.4219L27.2606 42.1912L23.026 42.2764ZM24.9869 39.8317L29.216 39.7692L29.3954 39.5233L24.9869 39.8317Z" fill="#E5E5E5"/>
<path d="M17.6465 25.5231L22.6692 23.6149L23.0133 23.4761L17.6465 25.5231Z" fill="white"/>
<path d="M23.1502 42.1389L23.0264 42.2766L27.3844 42.0549L23.1502 42.1389Z" fill="#E5E5E5"/>
<path d="M18.6709 42.2948L22.1112 43.2659L22.7538 42.5753L18.6709 42.2948Z" fill="white"/>
<path d="M25.1675 39.5835L29.396 39.5233L29.5782 39.2705L25.1675 39.5835ZM23.266 42.0089L23.1504 42.1387L27.4999 41.9261L23.266 42.0089ZM23.3803 23.39L23.0127 23.4759L27.6139 23.4814L23.3803 23.39ZM23.3733 41.8868L23.266 42.0089L27.6069 41.8052L23.3733 41.8868ZM25.3501 39.3284L29.5782 39.2705L29.7631 39.0108L25.3501 39.3284ZM25.5776 18.7382L29.805 18.8735L29.3581 18.807L25.5776 18.7382Z" fill="#E5E5E5"/>
<path d="M21.7838 19.1454L21.4256 19.3193L21.0791 19.5182L21.7838 19.1454Z" fill="white"/>
<path d="M23.4721 41.7727L23.373 41.8869L27.7055 41.6921L23.4721 41.7727ZM23.563 41.6663L23.4721 41.7727L27.7961 41.5867L23.563 41.6663ZM25.5353 39.0664L29.7628 39.0109L29.9504 38.7443L25.5353 39.0664ZM23.6456 41.5677L23.563 41.6663L27.8784 41.489L23.6456 41.5677ZM23.7711 23.3574L23.38 23.3902L28.0036 23.4492L23.7711 23.3574Z" fill="#E5E5E5"/>
<path d="M18.6709 42.2947L22.7538 42.5752L23.6452 41.5676L18.6709 42.2947Z" fill="white"/>
<path d="M23.8038 41.3748L23.6455 41.5676L28.0362 41.2979L23.8038 41.3748ZM25.7234 38.7971L29.9504 38.7442L30.1685 38.4465L25.7234 38.7971Z" fill="#E5E5E5"/>
<path d="M22.5352 18.873L21.7838 19.1454L21.0791 19.5182L22.5352 18.873Z" fill="white"/>
<path d="M26.0082 18.8367L30.2344 18.9712L29.8052 18.8736L26.0082 18.8367ZM23.9651 41.1752L23.8042 41.3749L28.1971 41.1002L23.9651 41.1752ZM23.9922 23.3609L23.7715 23.3574L28.2241 23.4526L23.9922 23.3609ZM25.9426 38.4968L30.1689 38.4467L30.3824 38.1476L25.9426 38.4968ZM24.1288 40.9687L23.9651 41.1752L28.3603 40.8955L24.1288 40.9687Z" fill="#E5E5E5"/>
<path d="M27.5509 19.545L21.08 19.5182L17.6465 25.523L27.5509 19.545ZM22.536 18.873L22.1545 18.9966L21.7846 19.1454L22.536 18.873Z" fill="white"/>
<path d="M26.1568 38.1948L30.3825 38.1476L30.5913 37.8472L26.1568 38.1948ZM24.2953 40.7551L24.1289 40.9686L28.5263 40.684L24.2953 40.7551ZM26.4209 18.9664L30.6459 19.0998L30.2345 18.9711L26.4209 18.9664Z" fill="#E5E5E5"/>
<path d="M22.1123 43.2658L22.2852 43.0816L22.45 42.905L22.1123 43.2658Z" fill="white"/>
<path d="M26.3648 37.8915L30.59 37.8471L30.7941 37.5453L26.3648 37.8915ZM24.463 40.5346L24.2939 40.755L28.6936 40.4655L24.463 40.5346Z" fill="#E5E5E5"/>
<path d="M22.1123 43.2658L22.45 42.905L22.7549 42.5752L22.1123 43.2658Z" fill="white"/>
<path d="M24.6366 40.3074L24.4648 40.5348L28.8667 40.2405L24.6366 40.3074Z" fill="#E5E5E5"/>
<path d="M24.1795 18.6311L22.5352 18.873L21.0791 19.5182L24.1795 18.6311Z" fill="white"/>
<path d="M26.5703 37.5869L30.7948 37.5453L30.9942 37.2422L26.5703 37.5869Z" fill="#E5E5E5"/>
<path d="M22.4492 42.905L22.6058 42.7362L22.7542 42.5752L22.4492 42.905Z" fill="white"/>
<path d="M26.8154 19.1278L31.0392 19.2597L30.6458 19.0999L26.8154 19.1278Z" fill="#E5E5E5"/>
<path d="M19.7269 40.9276L19.2152 41.5936L29.214 32.4023L19.7269 40.9276ZM27.5509 19.545L17.6465 25.5231L23.0133 23.476L27.5509 19.545Z" fill="white"/>
<path d="M24.8102 40.073L24.6357 40.3073L29.0398 40.0082L24.8102 40.073ZM26.7705 37.281L30.9944 37.2423L31.1891 36.9378L26.7705 37.281ZM24.6633 18.6355L25.1293 18.6712L28.8933 18.7716L24.6633 18.6355Z" fill="#E5E5E5"/>
<path d="M22.7539 42.5752L22.8941 42.422L23.0261 42.2765L22.7539 42.5752Z" fill="white"/>
<path d="M24.9868 39.8318L24.8096 40.0731L29.2159 39.7693L24.9868 39.8318Z" fill="#E5E5E5"/>
<path d="M23.3336 18.7015L22.9285 18.7747L22.5352 18.8731L23.3336 18.7015Z" fill="white"/>
<path d="M26.9658 36.9738L31.1892 36.9379L31.3792 36.6321L26.9658 36.9738Z" fill="#E5E5E5"/>
<path d="M22.7539 42.5753L23.0261 42.2766L23.2655 42.009L22.7539 42.5753Z" fill="white"/>
<path d="M27.1914 19.3206L31.4141 19.4509L31.0387 19.2598L27.1914 19.3206Z" fill="#E5E5E5"/>
<path d="M20.2068 40.2969L19.7266 40.9276L29.2136 32.4023L20.2068 40.2969Z" fill="white"/>
<path d="M25.1672 39.5837L24.9873 39.8319L29.3958 39.5234L25.1672 39.5837Z" fill="#E5E5E5"/>
<path d="M23.0264 42.2766L23.1502 42.1389L23.2657 42.009L23.0264 42.2766Z" fill="white"/>
<path d="M27.1568 36.6651L31.3797 36.6321L31.5649 36.325L27.1568 36.6651ZM22.1123 43.2659L31.3317 43.4116L26.3495 43.1715L22.1123 43.2659Z" fill="#E5E5E5"/>
<path d="M22.7539 42.5752L23.2655 42.0089L23.6453 41.5676L22.7539 42.5752Z" fill="white"/>
<path d="M25.1289 18.6711L25.5772 18.7382L29.3576 18.807L25.1289 18.6711ZM25.3497 39.3284L25.167 39.5835L29.5777 39.2705L25.3497 39.3284Z" fill="#E5E5E5"/>
<path d="M24.1795 18.6311L23.3336 18.7015L22.5352 18.873L24.1795 18.6311Z" fill="white"/>
<path d="M27.3418 36.3549L31.5641 36.3248L31.7446 36.0164L27.3418 36.3549Z" fill="#E5E5E5"/>
<path d="M20.6546 39.7019L20.2061 40.2969L29.2129 32.4023L20.6546 39.7019ZM23.2655 42.009L23.3728 41.887L23.4719 41.7727L23.2655 42.009Z" fill="white"/>
<path d="M27.5498 19.545L31.7715 19.6732L31.414 19.4508L27.5498 19.545Z" fill="#E5E5E5"/>
<path d="M23.2656 42.0089L23.472 41.7726L23.6455 41.5676L23.2656 42.0089Z" fill="white"/>
<path d="M25.536 39.0664L25.3506 39.3285L29.7635 39.011L25.536 39.0664ZM27.5236 36.0436L31.7453 36.0165L31.9211 35.7067L27.5236 36.0436Z" fill="#E5E5E5"/>
<path d="M23.4726 41.7727L23.5635 41.6663L23.646 41.5677L23.4726 41.7727ZM17.4922 47.5388L31.3314 43.4116L22.112 43.2659L17.4922 47.5388ZM21.072 39.1425L20.6553 39.7019L29.2137 32.4023L21.072 39.1425Z" fill="white"/>
<path d="M25.7243 38.7971L25.5361 39.0662L29.9512 38.7442L25.7243 38.7971ZM27.7 35.7307L31.9213 35.7065L32.0923 35.3954L27.7 35.7307ZM25.5782 18.7382L26.0087 18.8365L29.8056 18.8735L25.5782 18.7382ZM27.8912 19.8009L32.1119 19.9267L31.7725 19.673L27.8912 19.8009Z" fill="#E5E5E5"/>
<path d="M24.1798 18.6311L23.751 18.6536L23.334 18.7015L24.1798 18.6311ZM23.6459 41.5677L23.8042 41.3749L23.9651 41.1752L23.6459 41.5677Z" fill="white"/>
<path d="M25.9424 38.4968L25.7236 38.7973L30.1687 38.4467L25.9424 38.4968ZM27.8709 35.4168L32.0916 35.3956L32.2579 35.0831L27.8709 35.4168Z" fill="#E5E5E5"/>
<path d="M21.4568 38.6191L21.072 39.1425L29.2136 32.4023L21.4568 38.6191ZM23.646 41.5677L23.9652 41.1753L24.2952 40.7552L23.646 41.5677ZM19.2148 41.5936L23.646 41.5677L29.2136 32.4023L19.2148 41.5936Z" fill="white"/>
<path d="M28.0376 35.1013L32.2579 35.083L32.415 34.7792L28.0376 35.1013ZM28.2127 20.0885L32.4324 20.2117L32.1112 19.9268L28.2127 20.0885ZM26.1565 38.1949L25.9424 38.4967L30.3822 38.1476L26.1565 38.1949Z" fill="#E5E5E5"/>
<path d="M23.9639 41.1752L24.1275 40.9686L24.2939 40.7551L23.9639 41.1752Z" fill="white"/>
<path d="M26.0068 18.8367L26.4194 18.9665L30.233 18.9712L26.0068 18.8367Z" fill="#E5E5E5"/>
<path d="M21.8088 38.1317L21.4561 38.6191L29.2129 32.4023L21.8088 38.1317Z" fill="white"/>
<path d="M28.195 34.7946L32.4147 34.7792L32.5688 34.4667L28.195 34.7946ZM31.3309 43.4115L35.5413 43.3144L26.3486 43.1714L31.3309 43.4115Z" fill="#E5E5E5"/>
<path d="M27.55 19.545L24.1795 18.6311L21.0791 19.5182L27.55 19.545Z" fill="white"/>
<path d="M26.3647 37.8917L26.1553 38.195L30.5898 37.8473L26.3647 37.8917Z" fill="#E5E5E5"/>
<path d="M23.6455 41.5677L24.2947 40.7552L24.9873 39.8319L23.6455 41.5677Z" fill="white"/>
<path d="M28.3506 34.4792L32.5699 34.4668L32.721 34.1456L28.3506 34.4792ZM28.5174 20.4079L32.7362 20.5281L32.4332 20.2118L28.5174 20.4079Z" fill="#E5E5E5"/>
<path d="M22.1302 37.6804L21.8096 38.1317L29.2136 32.4023L22.1302 37.6804ZM24.2952 40.7552L24.4643 40.5348L24.636 40.3074L24.2952 40.7552Z" fill="white"/>
<path d="M26.5699 37.587L26.3652 37.8916L30.7944 37.5454L26.5699 37.587ZM28.5007 34.1549L32.7195 34.1455L32.8676 33.8157L28.5007 34.1549ZM26.42 18.9664L26.8146 19.1277L30.6449 19.0998L26.42 18.9664Z" fill="#E5E5E5"/>
<path d="M22.4192 37.2655L22.1309 37.6804L29.2143 32.4023L22.4192 37.2655Z" fill="white"/>
<path d="M28.6494 33.8219L32.8679 33.8157L33.0129 33.4772L28.6494 33.8219Z" fill="#E5E5E5"/>
<path d="M24.2939 40.7552L24.6348 40.3074L24.9865 39.8319L24.2939 40.7552Z" fill="white"/>
<path d="M28.8027 20.7588L33.0207 20.8757L32.736 20.5281L28.8027 20.7588Z" fill="#E5E5E5"/>
<path d="M27.5503 19.545L23.0127 23.476L23.3803 23.3901L27.5503 19.545ZM25.1294 18.6712L24.6634 18.6355L24.1797 18.6311L25.1294 18.6712Z" fill="white"/>
<path d="M26.7703 37.2809L26.5703 37.5869L30.9942 37.2422L26.7703 37.2809Z" fill="#E5E5E5"/>
<path d="M22.674 36.887L22.418 37.2655L29.213 32.4023L22.674 36.887Z" fill="white"/>
<path d="M28.7959 33.4802L33.0139 33.4772L33.1559 33.13L28.7959 33.4802Z" fill="#E5E5E5"/>
<path d="M24.6357 40.3074L24.8102 40.0732L24.9874 39.8319L24.6357 40.3074Z" fill="white"/>
<path d="M26.9658 36.9738L26.7705 37.2812L31.1891 36.938L26.9658 36.9738Z" fill="#E5E5E5"/>
<path d="M27.5499 19.545L23.3799 23.3902L23.771 23.3575L27.5499 19.545Z" fill="white"/>
<path d="M29.0673 21.1255L33.2845 21.239L33.0203 20.8756L29.0673 21.1255ZM28.9379 33.1296L33.1555 33.1298L33.2944 32.7739L28.9379 33.1296ZM26.8154 19.1277L27.192 19.3205L31.0392 19.2596L26.8154 19.1277ZM29.0773 32.7703L33.2944 32.7739L33.4304 32.4093L29.0773 32.7703Z" fill="#E5E5E5"/>
<path d="M23.2941 35.9333L22.6738 36.887L29.2128 32.4023L23.2941 35.9333ZM23.6452 41.5677L24.9869 39.8319L26.57 37.5871L23.6452 41.5677Z" fill="white"/>
<path d="M27.1563 36.665L26.9658 36.9738L31.3792 36.6321L27.1563 36.665Z" fill="#E5E5E5"/>
<path d="M27.5504 19.545L23.7715 23.3574L23.9922 23.3609L27.5504 19.545ZM26.0082 18.8367L25.1295 18.6712L24.1799 18.6311L26.0082 18.8367Z" fill="white"/>
<path d="M29.3086 21.5064L33.5251 21.6164L33.2837 21.2391L29.3086 21.5064Z" fill="#E5E5E5"/>
<path d="M24.9873 39.832L25.1672 39.5838L25.3499 39.3286L24.9873 39.832Z" fill="white"/>
<path d="M29.2129 32.4024L33.4297 32.4095L33.5625 32.0363L29.2129 32.4024Z" fill="#E5E5E5"/>
<path d="M27.5504 19.545L23.9922 23.3609L24.2043 23.3782L27.5504 19.545Z" fill="white"/>
<path d="M27.342 36.3549L27.1562 36.665L31.5643 36.3249L27.342 36.3549ZM27.1917 19.3206L27.5502 19.5449L31.4144 19.4508L27.1917 19.3206ZM29.3466 32.0254L33.563 32.0361L33.6928 31.6542L29.3466 32.0254Z" fill="#E5E5E5"/>
<path d="M24.9873 39.8319L25.3499 39.3285L25.7235 38.7972L24.9873 39.8319Z" fill="white"/>
<path d="M29.5273 21.901L33.7432 22.0073L33.5246 21.6163L29.5273 21.901Z" fill="#E5E5E5"/>
<path d="M27.5492 19.545L24.2031 23.3782L24.4067 23.4093L27.5492 19.545Z" fill="white"/>
<path d="M27.5228 36.0436L27.3418 36.355L31.7446 36.0164L27.5228 36.0436ZM29.4766 31.6398L33.6926 31.6542L33.8194 31.2635L29.4766 31.6398Z" fill="#E5E5E5"/>
<path d="M23.8623 35.0032L23.2949 35.9332L29.2136 32.4022L23.8623 35.0032ZM27.5505 19.5449L24.4079 23.4091L24.6028 23.4541L27.5505 19.5449ZM25.3504 39.3284L25.5358 39.0662L25.7239 38.7971L25.3504 39.3284ZM26.0083 18.8365L25.5779 18.7382L25.1296 18.6711L26.0083 18.8365Z" fill="white"/>
<path d="M29.6044 31.2455L33.82 31.2636L33.9437 30.8643L29.6044 31.2455ZM29.725 22.3096L33.9402 22.4121L33.7445 22.0074L29.725 22.3096ZM27.6997 35.7309L27.5234 36.0436L31.921 35.7067L27.6997 35.7309ZM27.5506 19.545L27.8909 19.801L31.7722 19.6732L27.5506 19.545Z" fill="#E5E5E5"/>
<path d="M27.5492 19.545L24.6016 23.4543L24.7878 23.5131L27.5492 19.545Z" fill="white"/>
<path d="M29.7275 30.8424L33.9428 30.8643L34.0599 30.4489L29.7275 30.8424Z" fill="#E5E5E5"/>
<path d="M24.9873 39.8318L25.7235 38.7972L26.5703 37.587L24.9873 39.8318Z" fill="white"/>
<path d="M29.8984 22.732L34.1132 22.8306L33.9404 22.4121L29.8984 22.732Z" fill="#E5E5E5"/>
<path d="M27.5504 19.545L24.7891 23.5131L24.9667 23.5858L27.5504 19.545Z" fill="white"/>
<path d="M27.8717 35.4167L27.7002 35.7308L32.0925 35.3954L27.8717 35.4167ZM29.8465 30.4229L34.0614 30.4488L34.1684 30.0372L29.8465 30.4229Z" fill="#E5E5E5"/>
<path d="M24.3765 34.0973L23.8623 35.0034L29.2137 32.4023L24.3765 34.0973ZM27.5505 19.545L24.9668 23.5858L25.1358 23.6723L27.5505 19.545Z" fill="white"/>
<path d="M29.9521 30.0075L34.1667 30.0373L34.2635 29.6296L29.9521 30.0075Z" fill="#E5E5E5"/>
<path d="M27.5502 19.545L26.008 18.8367L24.1797 18.6311L27.5502 19.545Z" fill="white"/>
<path d="M30.0488 23.1681L34.2631 23.2626L34.1133 22.8304L30.0488 23.1681Z" fill="#E5E5E5"/>
<path d="M25.7236 38.7973L25.9424 38.4968L26.1565 38.1949L25.7236 38.7973Z" fill="white"/>
<path d="M28.0369 35.1013L27.8701 35.4167L32.2571 35.083L28.0369 35.1013ZM27.8898 19.8009L28.2119 20.0885L32.1104 19.9267L27.8898 19.8009Z" fill="#E5E5E5"/>
<path d="M27.5505 19.545L25.1357 23.6723L25.296 23.7727L27.5505 19.545Z" fill="white"/>
<path d="M30.0508 29.5959L34.265 29.6296L34.3517 29.2259L30.0508 29.5959ZM30.176 23.6182L34.3899 23.7083L34.2631 23.2626L30.176 23.6182ZM30.1377 29.1884L34.3517 29.2259L34.4282 28.8262L30.1377 29.1884Z" fill="#E5E5E5"/>
<path d="M27.5494 19.545L25.2949 23.7727L25.4465 23.887L27.5494 19.545Z" fill="white"/>
<path d="M28.1947 34.7947L28.0371 35.1014L32.4144 34.7793L28.1947 34.7947Z" fill="#E5E5E5"/>
<path d="M24.8367 33.2155L24.376 34.0973L29.2131 32.4023L24.8367 33.2155ZM25.7234 38.7973L26.1563 38.195L26.5703 37.5871L25.7234 38.7973Z" fill="white"/>
<path d="M30.2139 28.785L34.4276 28.8264L34.494 28.4306L30.2139 28.785ZM30.2795 24.082L34.4931 24.1679L34.3893 23.7085L30.2795 24.082Z" fill="#E5E5E5"/>
<path d="M27.5501 19.545L25.4473 23.887L25.5902 24.0152L27.5501 19.545Z" fill="white"/>
<path d="M30.2794 28.3853L34.493 28.4304L34.5491 28.0386L30.2794 28.3853ZM30.3595 24.5593L34.5728 24.6406L34.4921 24.1677L30.3595 24.5593ZM28.3489 34.4791L28.1943 34.7946L32.5682 34.4667L28.3489 34.4791ZM30.3357 27.9898L34.5491 28.0386L34.595 27.6509L30.3357 27.9898ZM28.2118 20.0885L28.5157 20.4078L32.4315 20.2117L28.2118 20.0885Z" fill="#E5E5E5"/>
<path d="M27.5498 19.545L25.5898 24.0152L25.7241 24.1573L27.5498 19.545Z" fill="white"/>
<path d="M30.3828 27.5984L34.5961 27.651L34.6318 27.2673L30.3828 27.5984ZM30.4184 25.0505L34.6316 25.1272L34.5739 24.6407L30.4184 25.0505ZM30.4186 27.211L34.6318 27.2673L34.6573 26.8876L30.4186 27.211ZM30.4531 25.5552L34.6662 25.6271L34.6316 25.1272L30.4531 25.5552Z" fill="#E5E5E5"/>
<path d="M26.1553 38.1949L26.3647 37.8916L26.5693 37.587L26.1553 38.1949Z" fill="white"/>
<path d="M30.4434 26.8276L34.6564 26.8875L34.6718 26.5118L30.4434 26.8276Z" fill="#E5E5E5"/>
<path d="M27.5493 19.545L25.7236 24.1573L25.8491 24.3133L27.5493 19.545Z" fill="white"/>
<path d="M30.4651 26.0734L34.6781 26.1404L34.6666 25.6271L30.4651 26.0734ZM30.46 26.4485L34.673 26.5119L34.6781 26.1404L30.46 26.4485Z" fill="#E5E5E5"/>
<path d="M26.814 19.1278L26.4194 18.9665L26.0068 18.8367L26.814 19.1278Z" fill="white"/>
<path d="M28.5021 34.1549L28.3506 34.4791L32.721 34.1455L28.5021 34.1549Z" fill="#E5E5E5"/>
<path d="M25.2438 32.3582L24.8367 33.2155L29.2131 32.4023L25.2438 32.3582ZM27.55 19.545L25.8498 24.3133L25.9659 24.4818L27.55 19.545ZM23.6455 41.5677L26.5703 37.5871L29.2131 32.4023L23.6455 41.5677ZM27.55 19.545L25.9659 24.4818L26.0719 24.6613L27.55 19.545Z" fill="white"/>
<path d="M28.6495 33.822L28.501 34.1549L32.8679 33.8157L28.6495 33.822ZM28.5162 20.4078L28.8018 20.7588L32.7351 20.5281L28.5162 20.4078Z" fill="#E5E5E5"/>
<path d="M27.5493 19.545L26.0712 24.6613L26.1672 24.8519L27.5493 19.545ZM27.5493 19.545L26.1672 24.8519L26.2531 25.0535L27.5493 19.545ZM25.5964 31.5256L25.2432 32.3582L29.2124 32.4023L25.5964 31.5256ZM27.5493 19.545L26.2531 25.0535L26.3289 25.2662L27.5493 19.545Z" fill="white"/>
<path d="M28.7949 33.4802L28.6494 33.8219L33.0129 33.4772L28.7949 33.4802Z" fill="#E5E5E5"/>
<path d="M17.4922 47.5387L31.3314 47.8522V43.4116L17.4922 47.5387ZM27.5505 19.545L26.3301 25.2661L26.3958 25.4898L27.5505 19.545ZM26.5708 37.5871L26.7708 37.2811L26.9661 36.9737L26.5708 37.5871ZM27.5505 19.545L26.8155 19.1278L26.0083 18.8367L27.5505 19.545ZM27.5505 19.545L26.3958 25.4898L26.4514 25.7246L27.5505 19.545ZM27.5505 19.545L26.4514 25.7246L26.497 25.9703L27.5505 19.545ZM26.5506 27.7426L26.4688 28.4478L27.5505 19.545L26.5506 27.7426Z" fill="white"/>
<path d="M28.9383 33.1296L28.7959 33.4801L33.1559 33.1299L28.9383 33.1296ZM28.8028 20.7587L29.0677 21.1255L33.0208 20.8756L28.8028 20.7587Z" fill="#E5E5E5"/>
<path d="M26.497 25.9704L26.5324 26.2272L27.5506 19.545L26.497 25.9704ZM26.5324 26.2272L26.5577 26.495L27.5506 19.545L26.5324 26.2272ZM26.5779 27.0635L26.5506 27.7426L27.5506 19.545L26.5779 27.0635ZM26.5577 26.495L26.5728 26.7737L27.5506 19.545L26.5577 26.495ZM26.5728 26.7737L26.5779 27.0635L27.5506 19.545L26.5728 26.7737ZM25.8969 30.7181L25.5977 31.5256L29.2137 32.4023L25.8969 30.7181ZM26.5709 37.5871L26.9661 36.9738L27.3424 36.355L26.5709 37.5871Z" fill="white"/>
<path d="M29.0779 32.7704L28.9385 33.1297L33.295 32.7741L29.0779 32.7704Z" fill="#E5E5E5"/>
<path d="M26.1405 29.9358L25.8955 30.7181L29.2123 32.4024L26.1405 29.9358Z" fill="white"/>
<path d="M29.0664 21.1255L29.3085 21.5063L33.2836 21.239L29.0664 21.1255ZM29.2127 32.4022L29.0764 32.7703L33.4295 32.4094L29.2127 32.4022Z" fill="#E5E5E5"/>
<path d="M26.9648 36.9736L27.1554 36.6649L27.3411 36.3549L26.9648 36.9736ZM27.5493 19.5449L27.1908 19.3205L26.8143 19.1277L27.5493 19.5449ZM26.3313 29.1788L26.1406 29.9356L29.2124 32.4022L26.3313 29.1788Z" fill="white"/>
<path d="M31.3307 47.8522L35.5411 47.7131V43.3144L31.3307 47.8522ZM29.3462 32.0254L29.2129 32.4022L33.5625 32.0361L29.3462 32.0254Z" fill="#E5E5E5"/>
<path d="M26.5703 37.587L27.3419 36.3549L28.0375 35.1013L26.5703 37.587ZM26.4683 28.4478L26.332 29.1789L29.2131 32.4022L26.4683 28.4478Z" fill="white"/>
<path d="M29.3086 21.5062L29.5278 21.9009L33.5251 21.6162L29.3086 21.5062ZM29.4763 31.6397L29.3461 32.0253L33.6923 31.6541L29.4763 31.6397Z" fill="#E5E5E5"/>
<path d="M27.3418 36.355L27.5228 36.0436L27.6991 35.7308L27.3418 36.355Z" fill="white"/>
<path d="M29.6047 31.2453L29.4775 31.6397L33.8203 31.2634L29.6047 31.2453ZM29.529 21.9009L29.7253 22.3094L33.7449 22.0072L29.529 21.9009ZM29.7288 30.8422L29.6047 31.2453L33.9441 30.8641L29.7288 30.8422Z" fill="#E5E5E5"/>
<path d="M27.3423 36.355L27.6996 35.7309L28.0379 35.1014L27.3423 36.355ZM26.4688 28.4479L29.2136 32.4023L27.5505 19.545L26.4688 28.4479Z" fill="white"/>
<path d="M29.7246 22.3094L29.8979 22.7319L33.9399 22.4119L29.7246 22.3094ZM29.8457 30.4228L29.7282 30.8422L34.0605 30.4487L29.8457 30.4228Z" fill="#E5E5E5"/>
<path d="M27.7002 35.7309L27.8717 35.4168L28.0385 35.1014L27.7002 35.7309Z" fill="white"/>
<path d="M29.952 30.0076L29.8447 30.423L34.1666 30.0374L29.952 30.0076Z" fill="#E5E5E5"/>
<path d="M28.2123 20.0886L27.8901 19.801L27.5498 19.545L28.2123 20.0886Z" fill="white"/>
<path d="M29.8984 22.7319L30.0487 23.1682L34.1132 22.8305L29.8984 22.7319Z" fill="#E5E5E5"/>
<path d="M26.5703 37.5871L28.0374 35.1014L29.2131 32.4023L26.5703 37.5871Z" fill="white"/>
<path d="M30.0493 29.5961L29.9521 30.0076L34.2635 29.6298L30.0493 29.5961ZM30.0473 23.1683L30.1745 23.6183L34.2616 23.2628L30.0473 23.1683ZM30.1362 29.1886L30.0493 29.5961L34.3502 29.2261L30.1362 29.1886ZM30.2129 28.785L30.1362 29.1886L34.4267 28.8264L30.2129 28.785ZM30.1745 23.6183L30.2786 24.0821L34.3884 23.7085L30.1745 23.6183Z" fill="#E5E5E5"/>
<path d="M28.8017 20.7588L28.2123 20.0886L27.5498 19.545L28.8017 20.7588ZM28.0372 35.1014L28.1948 34.7947L28.3493 34.4792L28.0372 35.1014Z" fill="white"/>
<path d="M30.2804 28.3854L30.2139 28.785L34.494 28.4306L30.2804 28.3854ZM30.2795 24.082L30.3605 24.5595L34.4931 24.1678L30.2795 24.082ZM30.3367 27.9899L30.2804 28.3854L34.5501 28.0388L30.3367 27.9899ZM30.3827 27.5985L30.3367 27.9899L34.596 27.651L30.3827 27.5985ZM30.3605 24.5595L30.4183 25.0505L34.5738 24.6408L30.3605 24.5595Z" fill="#E5E5E5"/>
<path d="M28.0371 35.1014L28.3492 34.4792L28.6492 33.822L28.0371 35.1014Z" fill="white"/>
<path d="M30.4186 27.211L30.3828 27.5984L34.6318 27.2673L30.4186 27.211ZM30.4184 25.0505L30.4531 25.5552L34.6316 25.1272L30.4184 25.0505ZM30.4442 26.8277L30.4186 27.211L34.6573 26.8876L30.4442 26.8277ZM30.4596 26.4485L30.4442 26.8277L34.6726 26.512L30.4596 26.4485ZM30.4531 25.5552L30.4647 26.0734L34.6662 25.6271L30.4531 25.5552ZM30.4647 26.0734L30.4596 26.4485L34.6777 26.1405L30.4647 26.0734Z" fill="#E5E5E5"/>
<path d="M28.3493 34.4792L28.5008 34.155L28.6493 33.822L28.3493 34.4792ZM28.8017 20.7588L28.5161 20.4079L28.2123 20.0886L28.8017 20.7588ZM28.0372 35.1014L28.6493 33.822L29.2129 32.4023L28.0372 35.1014ZM29.7242 22.3096L28.8017 20.7588L27.5498 19.545L29.7242 22.3096ZM28.6493 33.822L28.7948 33.4802L28.9372 33.1297L28.6493 33.822ZM28.6493 33.822L28.9372 33.1297L29.2129 32.4023L28.6493 33.822ZM29.3087 21.5064L29.0666 21.1256L28.8017 20.7588L29.3087 21.5064ZM28.9372 33.1297L29.0766 32.7704L29.2129 32.4023L28.9372 33.1297ZM29.2129 32.4023L30.4641 26.0734L27.5498 19.545L29.2129 32.4023ZM30.4641 26.0734L29.7242 22.3096L27.5498 19.545L30.4641 26.0734ZM29.7242 22.3096L29.3087 21.5064L28.8017 20.7588L29.7242 22.3096Z" fill="white"/>
<path d="M31.332 43.4115V47.8522L35.5424 43.3145L31.332 43.4115Z" fill="#E5E5E5"/>
<path d="M29.2129 32.4022L29.3462 32.0253L29.4764 31.6397L29.2129 32.4022ZM29.2129 32.4022L29.4764 31.6397L29.7277 30.8422L29.2129 32.4022ZM29.7242 22.3095L29.5279 21.9009L29.3087 21.5062L29.7242 22.3095ZM29.4764 31.6397L29.6036 31.2453L29.7277 30.8422L29.4764 31.6397ZM29.2129 32.4022L29.7277 30.8422L30.1366 29.1883L29.2129 32.4022ZM29.7277 30.8422L29.8452 30.4228L29.9525 30.0074L29.7277 30.8422ZM30.0477 23.1681L29.8974 22.7319L29.7242 22.3095L30.0477 23.1681ZM29.2129 32.4022L30.1366 29.1883L30.4641 26.0733L29.2129 32.4022ZM29.7277 30.8422L29.9525 30.0074L30.1366 29.1883L29.7277 30.8422ZM30.279 24.0818L30.0477 23.1681L29.7242 22.3095L30.279 24.0818ZM29.9525 30.0074L30.0497 29.5959L30.1366 29.1883L29.9525 30.0074ZM30.4641 26.0733L30.279 24.0818L29.7242 22.3095L30.4641 26.0733ZM30.279 24.0818L30.1749 23.6181L30.0477 23.1681L30.279 24.0818ZM30.1366 29.1883L30.2133 28.7848L30.2798 28.3852L30.1366 29.1883ZM30.1366 29.1883L30.2798 28.3852L30.3822 27.5983L30.1366 29.1883ZM30.1366 29.1883L30.3822 27.5983L30.4641 26.0733L30.1366 29.1883ZM30.2798 28.3852L30.3361 27.9897L30.3822 27.5983L30.2798 28.3852ZM30.4178 25.0503L30.3599 24.5593L30.279 24.0818L30.4178 25.0503ZM30.4641 26.0733L30.4178 25.0503L30.279 24.0818L30.4641 26.0733ZM30.3822 27.5983L30.418 27.2109L30.4436 26.8275L30.3822 27.5983ZM30.3822 27.5983L30.4436 26.8275L30.4641 26.0733L30.3822 27.5983ZM30.4641 26.0733L30.4525 25.555L30.4178 25.0503L30.4641 26.0733ZM30.4436 26.8275L30.459 26.4483L30.4641 26.0733L30.4436 26.8275Z" fill="white"/>
</g>
<path d="M31.2898 47.8718V43.4563L22.1191 43.2667C22.6498 42.8119 25.151 39.9314 26.3633 37.9416C27.4542 36.562 28.6755 33.8167 29.1497 32.6165C29.5477 31.3721 30.3588 28.5991 30.4194 27.462C30.4952 26.0407 30.4573 24.9606 30.211 23.7856C30.1731 22.9518 29.1308 20.8104 27.8232 19.7303C26.8275 18.9077 25.3282 18.638 24.6083 18.5977C24.5729 18.5962 24.5386 18.5947 24.5053 18.5933C24.5376 18.5942 24.572 18.5956 24.6083 18.5977C25.8318 18.65 28.3189 18.7574 29.2619 18.8016C30.2322 18.8471 31.2327 19.288 31.6117 19.5028C32.0729 19.787 33.1884 20.7649 33.9616 22.4022C34.7348 24.0396 34.7765 25.9397 34.7007 26.6851C34.6501 27.4494 34.3823 29.5125 33.7152 31.6501C33.0482 33.7877 31.8834 35.9013 31.3843 36.6909C30.9548 37.3794 29.8001 39.1203 28.6176 40.5757C27.4654 41.9856 26.6346 42.8687 26.3633 43.1341L35.5542 43.3047V47.7201L31.2898 47.8718Z" fill="url(#paint2_linear_1115_101810)"/>
<path d="M31.2898 47.8718V43.4563L22.1191 43.2667C22.6498 42.8119 25.151 39.9314 26.3633 37.9416C27.4542 36.562 28.6755 33.8167 29.1497 32.6165C29.5477 31.3721 30.3588 28.5991 30.4194 27.462C30.4952 26.0407 30.4573 24.9606 30.211 23.7856C30.1731 22.9518 29.1308 20.8104 27.8232 19.7303C26.8275 18.9077 25.3282 18.638 24.6083 18.5977C24.5729 18.5962 24.5386 18.5947 24.5053 18.5933C24.5376 18.5942 24.572 18.5956 24.6083 18.5977C25.8318 18.65 28.3189 18.7574 29.2619 18.8016C30.2322 18.8471 31.2327 19.288 31.6117 19.5028C32.0729 19.787 33.1884 20.7649 33.9616 22.4022C34.7348 24.0396 34.7765 25.9397 34.7007 26.6851C34.6501 27.4494 34.3823 29.5125 33.7152 31.6501C33.0482 33.7877 31.8834 35.9013 31.3843 36.6909C30.9548 37.3794 29.8001 39.1203 28.6176 40.5757C27.4654 41.9856 26.6346 42.8687 26.3633 43.1341L35.5542 43.3047V47.7201L31.2898 47.8718Z" fill="url(#paint3_linear_1115_101810)"/>
<path d="M24.8535 27.2985L20.6191 27.2405C20.6946 26.7946 20.9834 25.8966 21.1183 25.5033C21.28 25.1413 21.6902 24.3451 22.0376 24.0555C22.414 23.7732 22.7542 23.4403 23.7459 23.3607C24.5392 23.297 25.2539 23.7201 25.5121 23.9397C25.6472 24.0844 25.9276 24.3986 25.9681 24.4971C25.2877 25.3512 25.0079 26.606 24.8535 27.2985Z" fill="url(#paint4_linear_1115_101810)"/>
<path d="M30.8575 0.235008L29.5225 0.0239258C29.9722 0.0850532 30.4172 0.155462 30.8575 0.235008L42.0558 2.00552C43.9368 2.47926 48.5775 4.21928 52.0922 7.38939C55.6069 10.5595 58.2659 14.8265 59.156 16.5638L61.0943 20.871C62.1137 24.1301 63.894 31.8975 62.8602 36.8938C62.24 41.9247 60.3621 46.8866 59.5006 48.7387C58.4238 51.3374 54.8402 57.422 49.1202 60.9712C46.1052 63.5124 39.7305 65.02 34.3895 65.5799C35.05 65.4076 36.5087 64.9941 37.06 64.7185C37.7492 64.3739 56.8547 56.0442 55.1574 30.279C53.8305 14.2515 44.6908 2.73414 30.8575 0.235008Z" fill="url(#paint5_linear_1115_101810)"/>
<defs>
<filter id="filter0_d_1115_101810" x="12.4922" y="10.6311" width="38.0498" height="49.2211" filterUnits="userSpaceOnUse" color-interpolation-filters="sRGB">
<feFlood flood-opacity="0" result="BackgroundImageFix"/>
<feColorMatrix in="SourceAlpha" type="matrix" values="0 0 0 0 0 0 0 0 0 0 0 0 0 0 0 0 0 0 127 0" result="hardAlpha"/>
<feOffset dx="5" dy="2"/>
<feGaussianBlur stdDeviation="5"/>
<feColorMatrix type="matrix" values="0 0 0 0 0.321569 0 0 0 0 0.156863 0 0 0 0 0.423529 0 0 0 0.3 0"/>
<feBlend mode="normal" in2="BackgroundImageFix" result="effect1_dropShadow_1115_101810"/>
<feBlend mode="normal" in="SourceGraphic" in2="effect1_dropShadow_1115_101810" result="shape"/>
</filter>
<linearGradient id="paint0_linear_1115_101810" x1="28.0875" y1="0" x2="40.345" y2="67.9304" gradientUnits="userSpaceOnUse">
<stop stop-color="#DEE5F8"/>
<stop offset="1" stop-color="#BDBEE3"/>
</linearGradient>
<linearGradient id="paint1_linear_1115_101810" x1="38.4142" y1="53.3677" x2="-4.77979" y2="2.09893" gradientUnits="userSpaceOnUse">
<stop stop-color="white" stop-opacity="0.7"/>
<stop offset="1" stop-color="#A0A3CF"/>
</linearGradient>
<linearGradient id="paint2_linear_1115_101810" x1="28.8367" y1="18.5933" x2="28.8367" y2="47.8718" gradientUnits="userSpaceOnUse">
<stop stop-color="#E5E5E5"/>
<stop offset="1" stop-color="#E5E5E5" stop-opacity="0"/>
</linearGradient>
<linearGradient id="paint3_linear_1115_101810" x1="66.696" y1="42.6702" x2="28.8367" y2="36.1554" gradientUnits="userSpaceOnUse">
<stop stop-color="#EFE6F6"/>
<stop offset="1" stop-color="#EEECF1"/>
</linearGradient>
<linearGradient id="paint4_linear_1115_101810" x1="23.2936" y1="23.3542" x2="23.2936" y2="27.2985" gradientUnits="userSpaceOnUse">
<stop stop-color="#E5E5E5"/>
<stop offset="1" stop-color="#E5E5E5" stop-opacity="0"/>
</linearGradient>
<linearGradient id="paint5_linear_1115_101810" x1="79.8916" y1="27.416" x2="13.0241" y2="39.2922" gradientUnits="userSpaceOnUse">
<stop stop-color="#BDBEE3"/>
<stop offset="1" stop-color="#DEE5F8"/>
</linearGradient>
</defs>
</svg>
