<svg width="63" height="67" viewBox="0 0 63 67" fill="none" xmlns="http://www.w3.org/2000/svg">
<path d="M0.551245 28.9175L0.333008 33.1386L0.551245 37.3597V28.9175ZM2.21978 20.978L0.551245 28.9175V37.3597L2.21978 20.978ZM0.551245 37.3597L1.18837 41.4218L2.21978 45.2992L0.551245 37.3597ZM2.21978 20.978L1.18837 24.8554L0.551245 28.9175L2.21978 20.978ZM0.551245 37.3597L2.21978 45.2992L5.37632 52.3845L0.551245 37.3597ZM2.21978 45.2992L3.62283 48.9637L5.37632 52.3845L2.21978 45.2992ZM5.37632 13.8927L3.62283 17.3134L2.21978 20.978L5.37632 13.8927ZM9.85455 7.92042L2.21978 20.978L0.551245 37.3597L9.85455 7.92042ZM9.85455 7.92042L5.37632 13.8927L2.21978 20.978L9.85455 7.92042ZM0.551245 37.3597L5.37632 52.3845L15.4982 62.9092L0.551245 37.3597ZM9.85455 7.92042L7.46008 10.7494L5.37632 13.8927L9.85455 7.92042ZM5.37632 52.3845L7.46008 55.5278L9.85455 58.3567L5.37632 52.3845ZM9.85455 7.92042L0.551245 37.3597L15.4982 62.9092L9.85455 7.92042ZM5.37632 52.3845L9.85455 58.3567L15.4982 62.9092L5.37632 52.3845ZM9.85455 58.3567L12.5404 60.8316L15.4982 62.9092L9.85455 58.3567ZM15.4982 3.36792L12.5404 5.44555L9.85455 7.92042L15.4982 3.36792Z" fill="#C4C4C4"/>
<path d="M35.2021 65.3202L37.9247 64.8652L41.4681 64.2717L35.2021 65.3202Z" fill="#B0B0B0"/>
<path d="M22.1493 0.593994L15.4982 3.36828L9.85449 7.92078L22.1493 0.593994Z" fill="#C4C4C4"/>
<path d="M38.7737 1.55498L41.4681 2.00526L37.9247 1.41179L38.7737 1.55498ZM35.2021 0.956787L38.7737 1.55498L37.9247 1.41179L35.2021 0.956787ZM38.7737 64.7224L35.2021 65.3206L41.4681 64.2721L38.7737 64.7224ZM38.7737 64.7224L41.4681 64.2721L44.8831 63.1258L38.7737 64.7224Z" fill="#B0B0B0"/>
<path d="M15.4971 62.9096L18.707 64.5435L22.1482 65.6839L15.4971 62.9096ZM22.1482 0.593994L18.707 1.73436L15.4971 3.36828L22.1482 0.593994Z" fill="#C4C4C4"/>
<path d="M42.2176 2.71439L44.8841 3.1516L41.4691 2.00526L42.2176 2.71439ZM38.7747 1.55498L42.2176 2.71439L41.4691 2.00526L38.7747 1.55498ZM32.4014 65.7889L35.2031 65.3206L38.7747 64.7224L32.4014 65.7889ZM42.2176 63.563L38.7747 64.7224L44.8841 63.1258L42.2176 63.563ZM42.2176 63.563L44.8841 63.1258L48.1294 61.4516L42.2176 63.563ZM36.0012 1.09149L38.7747 1.55498L35.2031 0.956787L36.0012 1.09149Z" fill="#B0B0B0"/>
<path d="M15.4971 62.9094L22.1482 65.6837L29.5158 66.271L15.4971 62.9094Z" fill="#C4C4C4"/>
<path d="M45.4902 4.40982L48.1294 4.82578L44.8841 3.15159L45.4902 4.40982ZM32.4014 0.488525L36.0012 1.09147L35.2031 0.95677L32.4014 0.488525Z" fill="#B0B0B0"/>
<path d="M36.6446 1.8008L22.1493 0.593994L9.85449 7.92078L36.6446 1.8008Z" fill="#C4C4C4"/>
<path d="M42.2176 2.71434L45.4902 4.40979L44.8841 3.15155L42.2176 2.71434ZM36.0012 65.1859L32.4014 65.7888L38.7747 64.7224L36.0012 65.1859ZM36.0012 65.1859L38.7747 64.7224L42.2176 63.563L36.0012 65.1859ZM45.4902 61.8675L48.1294 61.4516L51.1618 59.2774L45.4902 61.8675ZM45.4902 61.8675L42.2176 63.563L48.1294 61.4516L45.4902 61.8675ZM39.4723 2.26419L42.2176 2.71434L38.7747 1.55493L39.4723 2.26419ZM48.5488 6.61314L51.1618 6.99987L48.1294 4.82575L48.5488 6.61314Z" fill="#B0B0B0"/>
<path d="M22.1465 65.6837L25.7973 66.2772L29.514 66.271L22.1465 65.6837ZM29.514 0.00649145L25.7973 0.000244141L22.1465 0.593777L29.514 0.00649145Z" fill="#C4C4C4"/>
<path d="M36.001 1.09155L39.4721 2.26431L38.7744 1.55504L36.001 1.09155ZM45.49 4.4099L48.5486 6.61325L48.1291 4.82586L45.49 4.4099Z" fill="#B0B0B0"/>
<path d="M9.85449 7.92017L15.4982 62.909L54.5768 28.3275L9.85449 7.92017Z" fill="#C4C4C4"/>
<path d="M29.5146 66.2709L32.3992 65.7888L35.999 65.1859L29.5146 66.2709ZM48.5466 59.6642L51.1596 59.2774L53.9345 56.6345L48.5466 59.6642ZM39.4701 64.0131L35.999 65.1859L42.2154 63.563L39.4701 64.0131ZM48.5466 59.6642L45.488 61.8675L51.1596 59.2774L48.5466 59.6642ZM39.4701 64.0131L42.2154 63.563L45.488 61.8675L39.4701 64.0131ZM33.1429 0.614123L35.999 1.09142L32.3992 0.488481L33.1429 0.614123ZM51.3461 9.29291L53.9345 9.64279L51.1596 6.99986L51.3461 9.29291ZM42.7702 3.98141L45.488 4.40977L42.2154 2.71433L42.7702 3.98141ZM29.5146 0.00640869L33.1429 0.614123L32.3992 0.488481L29.5146 0.00640869ZM48.5466 6.61312L51.3461 9.29291L51.1596 6.99986L48.5466 6.61312Z" fill="#B0B0B0"/>
<path d="M15.4971 62.9095L29.5158 66.2711L43.0828 60.4732L15.4971 62.9095ZM36.6435 1.80069L29.5158 0.0065918L22.1482 0.593878L36.6435 1.80069Z" fill="#C4C4C4"/>
<path d="M39.4701 2.26443L42.7702 3.98167L42.2154 2.71459L39.4701 2.26443ZM51.3461 56.9846L53.9345 56.6348L56.4063 53.5577L51.3461 56.9846ZM33.1429 65.6634L29.5146 66.2711L35.999 65.1861L33.1429 65.6634ZM51.3461 56.9846L48.5466 59.6644L53.9345 56.6348L51.3461 56.9846ZM33.1429 65.6634L35.999 65.1861L39.4701 64.0134L33.1429 65.6634ZM42.7702 62.2961L45.488 61.8678L48.5466 59.6644L42.7702 62.2961ZM42.7702 62.2961L39.4701 64.0134L45.488 61.8678L42.7702 62.2961ZM53.8401 12.4143L56.4063 12.7201L53.9345 9.64304L53.8401 12.4143ZM36.6423 1.80076L39.4701 2.26443L35.999 1.09168L36.6423 1.80076ZM45.8552 6.21502L48.5466 6.61338L45.488 4.41003L45.8552 6.21502ZM51.3461 9.29317L53.8401 12.4143L53.9345 9.64304L51.3461 9.29317ZM53.8401 53.8635L56.4063 53.5577L58.5287 50.0849L53.8401 53.8635ZM33.1429 0.61438L36.6423 1.80076L35.999 1.09168L33.1429 0.61438ZM42.7702 3.98167L45.8552 6.21502L45.488 4.41003L42.7702 3.98167ZM53.8401 53.8635L51.3461 56.9846L56.4063 53.5577L53.8401 53.8635ZM55.982 15.9379L58.5287 16.1929L56.4063 12.7201L55.982 15.9379Z" fill="#B0B0B0"/>
<path d="M29.5146 66.2709L33.1429 65.6632L36.6423 64.4768L29.5146 66.2709ZM36.6423 1.80051L33.1429 0.614123L29.5146 0.00640869L36.6423 1.80051Z" fill="#C4C4C4"/>
<path d="M45.8568 60.0625L48.5482 59.6642L51.3477 56.9844L45.8568 60.0625ZM36.6439 64.4768L33.1445 65.6632L39.4717 64.0131L36.6439 64.4768ZM45.8568 60.0625L42.7718 62.2959L48.5482 59.6642L45.8568 60.0625ZM36.6439 64.4768L39.4717 64.0131L42.7718 62.2959L36.6439 64.4768Z" fill="#B0B0B0"/>
<path d="M54.5768 28.3278L36.6446 1.80054L9.85449 7.92051L54.5768 28.3278Z" fill="#C4C4C4"/>
<path d="M55.9832 50.3398L58.53 50.0848L60.2569 46.2585L55.9832 50.3398ZM53.8413 12.4142L55.9832 15.9378L56.4075 12.72L53.8413 12.4142ZM48.6806 8.93262L51.3473 9.29307L48.5478 6.61328L48.6806 8.93262ZM57.7262 19.8209L60.2569 20.0191L58.53 16.1928L57.7262 19.8209ZM39.9714 3.54024L42.7714 3.98157L39.4713 2.26433L39.9714 3.54024ZM55.9832 50.3398L53.8413 53.8634L58.53 50.0848L55.9832 50.3398ZM57.7262 46.4567L60.2569 46.2585L61.5431 42.1249L57.7262 46.4567ZM45.8564 6.21492L48.6806 8.93262L48.5478 6.61328L45.8564 6.21492ZM36.6436 1.80066L39.9714 3.54024L39.4713 2.26433L36.6436 1.80066ZM59.0245 24.0166L61.5431 24.1527L60.2569 20.0191L59.0245 24.0166ZM55.9832 15.9378L57.7262 19.8209L58.53 16.1928L55.9832 15.9378ZM48.6806 57.345L51.3473 56.9845L53.8413 53.8634L48.6806 57.345ZM48.6806 57.345L45.8564 60.0627L51.3473 56.9845L48.6806 57.345Z" fill="#B0B0B0"/>
<path d="M29.5146 66.2706L36.6423 64.4765L43.0817 60.4728L29.5146 66.2706Z" fill="#C4C4C4"/>
<path d="M59.0245 42.2609L61.5431 42.1248L62.3447 37.7337L59.0245 42.2609ZM57.7262 46.4566L55.9832 50.3397L60.2569 46.2584L57.7262 46.4566ZM59.8337 28.4739L62.3447 28.5437L61.5431 24.1526L59.8337 28.4739ZM39.9714 62.7373L42.7714 62.2959L45.8564 60.0626L39.9714 62.7373ZM39.9714 62.7373L36.6436 64.4768L42.7714 62.2959L39.9714 62.7373ZM51.1971 12.099L53.8413 12.4141L51.3473 9.29297L51.1971 12.099ZM59.8337 37.8035L62.3447 37.7337L62.6206 33.1387L59.8337 37.8035ZM60.1122 33.1387H62.6206L62.3447 28.5437L60.1122 33.1387ZM57.7262 19.8208L59.0245 24.0165L60.2569 20.019L57.7262 19.8208Z" fill="#B0B0B0"/>
<path d="M15.4971 62.9094L43.0828 60.4731L54.5757 28.3279L15.4971 62.9094Z" fill="#C4C4C4"/>
<path d="M43.0823 5.80428L45.8558 6.21478L42.7708 3.98143L43.0823 5.80428ZM59.0238 42.2609L57.7256 46.4566L61.5424 42.1247L59.0238 42.2609ZM48.6799 8.93248L51.1965 12.099L51.3466 9.29293L48.6799 8.93248ZM51.1965 54.1783L53.8407 53.8632L55.9826 50.3396L51.1965 54.1783ZM59.0238 24.0164L59.8331 28.4739L61.5424 24.1526L59.0238 24.0164ZM59.8331 37.8034L59.0238 42.2609L62.3441 37.7337L59.8331 37.8034ZM39.9707 3.5401L43.0823 5.80428L42.7708 3.98143L39.9707 3.5401ZM51.1965 54.1783L48.6799 57.3448L53.8407 53.8632L51.1965 54.1783ZM53.358 15.6749L55.9826 15.9377L53.8407 12.4141L53.358 15.6749ZM59.8331 28.4739L60.1116 33.1387L62.3441 28.5436L59.8331 28.4739ZM60.1116 33.1387L59.8331 37.8034L62.6199 33.1387H60.1116ZM43.0823 60.473L45.8558 60.0625L48.6799 57.3448L43.0823 60.473ZM43.0823 60.473L39.9707 62.7372L45.8558 60.0625L43.0823 60.473Z" fill="#B0B0B0"/>
<path d="M36.6436 64.4769L39.9714 62.7373L43.0829 60.4732L36.6436 64.4769ZM43.0829 5.80442L39.9714 3.54024L36.6436 1.80066L43.0829 5.80442Z" fill="#C4C4C4"/>
<path d="M53.3587 50.6022L55.9833 50.3394L57.7263 46.4563L53.3587 50.6022ZM51.1972 12.0988L53.3587 15.6747L53.8414 12.4139L51.1972 12.0988ZM45.9321 8.56076L48.6807 8.93227L45.8565 6.21458L45.9321 8.56076ZM55.118 19.6163L57.7263 19.8206L55.9833 15.9375L55.118 19.6163ZM53.3587 50.6022L51.1972 54.1781L55.9833 50.3394L53.3587 50.6022ZM55.118 46.6606L57.7263 46.4563L59.0246 42.2607L55.118 46.6606ZM43.083 5.80408L45.9321 8.56076L45.8565 6.21458L43.083 5.80408ZM56.4285 23.8759L59.0246 24.0162L57.7263 19.8206L56.4285 23.8759ZM53.3587 15.6747L55.118 19.6163L55.9833 15.9375L53.3587 15.6747ZM45.9321 57.7161L48.6807 57.3446L51.1972 54.1781L45.9321 57.7161Z" fill="#B0B0B0"/>
<path d="M48.4713 11.7743L43.0829 5.80442L36.6436 1.80066L48.4713 11.7743Z" fill="#C4C4C4"/>
<path d="M45.9321 57.7165L43.083 60.4732L48.6807 57.345L45.9321 57.7165ZM56.4285 42.4014L59.0246 42.2611L59.8338 37.8036L56.4285 42.4014ZM55.118 46.661L53.3587 50.6026L57.7263 46.4567L55.118 46.661ZM57.2454 28.4022L59.8338 28.4741L59.0246 24.0166L57.2454 28.4022ZM48.4713 11.7744L51.1972 12.0992L48.6807 8.93267L48.4713 11.7744ZM57.2454 37.8755L59.8338 37.8036L60.1123 33.1389L57.2454 37.8755ZM57.5265 33.1389H60.1123L59.8338 28.4741L57.5265 33.1389ZM55.118 19.6167L56.4285 23.8763L57.7263 19.821L55.118 19.6167ZM56.4285 42.4014L55.118 46.661L59.0246 42.2611L56.4285 42.4014ZM45.9321 8.56116L48.4713 11.7744L48.6807 8.93267L45.9321 8.56116ZM48.4713 54.5033L51.1972 54.1785L53.3587 50.6026L48.4713 54.5033ZM56.4285 23.8763L57.2454 28.4022L59.0246 24.0166L56.4285 23.8763ZM57.2454 37.8755L56.4285 42.4014L59.8338 37.8036L57.2454 37.8755ZM48.4713 54.5033L45.9321 57.7165L51.1972 54.1785L48.4713 54.5033ZM50.6527 15.4041L53.3587 15.6751L51.1972 12.0992L50.6527 15.4041ZM57.2454 28.4022L57.5265 33.1389L59.8338 28.4741L57.2454 28.4022ZM57.5265 33.1389L57.2454 37.8755L60.1123 33.1389H57.5265Z" fill="#B0B0B0"/>
<path d="M43.0829 60.4732L45.932 57.7165L48.4713 54.5033L43.0829 60.4732ZM48.4713 11.7743L45.932 8.5611L43.0829 5.80442L48.4713 11.7743ZM54.5758 28.328L48.4713 11.7743L36.6436 1.80066L54.5758 28.328Z" fill="#C4C4C4"/>
<path d="M50.655 50.8734L53.361 50.6024L55.1203 46.6608L50.655 50.8734ZM48.4736 11.7742L50.655 15.4039L51.1995 12.099L48.4736 11.7742ZM52.4307 19.4058L55.1203 19.6165L53.361 15.6748L52.4307 19.4058ZM50.655 50.8734L48.4736 54.5031L53.361 50.6024L50.655 50.8734Z" fill="#B0B0B0"/>
<path d="M43.083 60.4732L48.4713 54.5033L52.4284 46.8717L43.083 60.4732Z" fill="#C4C4C4"/>
<path d="M52.428 46.8717L55.1176 46.6611L56.4281 42.4014L52.428 46.8717ZM53.7508 23.7316L56.4281 23.8763L55.1176 19.6167L53.7508 23.7316ZM50.6523 15.4041L52.428 19.406L53.3584 15.6751L50.6523 15.4041ZM53.7508 42.5462L56.4281 42.4014L57.245 37.8755L53.7508 42.5462ZM52.428 46.8717L50.6523 50.8736L55.1176 46.6611L52.428 46.8717ZM54.5755 28.328L57.245 28.4022L56.4281 23.8763L54.5755 28.328Z" fill="#B0B0B0"/>
<path d="M43.083 60.4729L52.4284 46.8714L54.5759 28.3277L43.083 60.4729Z" fill="#C4C4C4"/>
<path d="M54.5762 37.9495L57.2456 37.8754L57.5268 33.1387L54.5762 37.9495ZM54.86 33.1387H57.5268L57.2456 28.402L54.86 33.1387Z" fill="#B0B0B0"/>
<path d="M48.4736 54.5031L50.655 50.8734L52.4307 46.8715L48.4736 54.5031ZM52.4307 19.4058L50.655 15.4039L48.4736 11.7742L52.4307 19.4058Z" fill="#C4C4C4"/>
<path d="M52.4287 19.4061L53.7515 23.7317L55.1183 19.6168L52.4287 19.4061ZM53.7515 42.5463L52.4287 46.8718L56.4288 42.4015L53.7515 42.5463ZM53.7515 23.7317L54.5762 28.3281L56.4288 23.8764L53.7515 23.7317Z" fill="#B0B0B0"/>
<path d="M54.5782 28.3278L52.4307 19.4058L48.4736 11.7742L54.5782 28.3278Z" fill="#C4C4C4"/>
<path d="M54.5776 37.9495L53.7529 42.546L57.2471 37.8754L54.5776 37.9495ZM54.5776 28.3279L54.8614 33.1387L57.2471 28.402L54.5776 28.3279ZM54.8614 33.1387L54.5776 37.9495L57.5282 33.1387H54.8614Z" fill="#B0B0B0"/>
<path d="M52.4287 46.8718L53.7515 42.5463L54.5762 37.9498L52.4287 46.8718ZM54.5762 28.3281L53.7515 23.7317L52.4287 19.4061L54.5762 28.3281ZM52.4287 46.8718L54.5762 37.9498V28.3281L52.4287 46.8718ZM54.5762 37.9498L54.8601 33.139L54.5762 28.3281V37.9498Z" fill="#C4C4C4"/>
<path d="M54.6194 33.2557C54.6194 51.4417 42.5044 66.0113 27.7535 66.0113C13.0027 66.0113 0.887695 51.4417 0.887695 33.2557C0.887695 15.0696 13.0027 0.5 27.7535 0.5C42.5044 0.5 54.6194 15.0696 54.6194 33.2557Z" fill="url(#paint0_linear_1115_102509)" stroke="url(#paint1_linear_1115_102509)"/>
<g filter="url(#filter0_d_1115_102509)">
<path d="M30.1182 24.7848C27.8245 24.7848 24.568 24.7848 22.2743 24.7848C20.6673 24.7848 19.5328 24.7848 19.5328 24.7848V19.71C19.5328 19.71 21.1857 19.71 23.527 19.71C26.8689 19.71 31.6134 19.71 34.9553 19.71C37.2966 19.71 38.9495 19.71 38.9495 19.71V23.1079L28.0055 50.6001C28.0055 50.6001 27.5322 50.6001 26.8617 50.6001C25.9047 50.6001 24.5461 50.6001 23.5891 50.6001C22.9186 50.6001 22.4453 50.6001 22.4453 50.6001L32.8597 24.7848C32.8597 24.7848 31.7252 24.7848 30.1182 24.7848Z" fill="url(#paint2_linear_1115_102509)"/>
<path d="M16.3828 19.6002V24.675L19.5328 24.7848V19.71L16.3828 19.6002Z" fill="url(#paint3_linear_1115_102509)"/>
<path d="M16.3828 24.675L19.1243 24.6751L22.2743 24.7848H19.5328L16.3828 24.675Z" fill="url(#paint4_linear_1115_102509)"/>
<path d="M20.377 19.6002H16.3828L19.5328 19.71H23.527L20.377 19.6002Z" fill="url(#paint5_linear_1115_102509)"/>
<path d="M19.2953 50.4902H20.4391L23.5891 50.6001H22.4453L19.2953 50.4902Z" fill="url(#paint6_linear_1115_102509)"/>
<path d="M20.4391 50.4902H23.712L26.8617 50.6001H23.5891L20.4391 50.4902Z" fill="url(#paint7_linear_1115_102509)"/>
<path d="M19.1243 24.6751H26.9684L30.1182 24.7848H22.2743L19.1243 24.6751Z" fill="url(#paint8_linear_1115_102509)"/>
<path d="M29.7097 24.6751L19.2953 50.4902L22.4453 50.6001L32.8597 24.7848L29.7097 24.6751Z" fill="url(#paint9_linear_1115_102509)"/>
<path d="M23.712 50.4902H24.8557L28.0055 50.6001H26.8617L23.712 50.4902Z" fill="url(#paint10_linear_1115_102509)"/>
<path d="M31.805 19.6002H20.377L23.527 19.71H34.9553L31.805 19.6002Z" fill="url(#paint11_linear_1115_102509)"/>
<path d="M26.9684 24.6751H29.7097L32.8597 24.7848H30.1182L26.9684 24.6751Z" fill="url(#paint12_linear_1115_102509)"/>
<path d="M24.8557 50.4902L35.7994 22.998L38.9495 23.1079L28.0055 50.6001L24.8557 50.4902Z" fill="url(#paint13_linear_1115_102509)"/>
<path d="M35.7997 19.6002H31.805L34.9553 19.71H38.9495L35.7997 19.6002Z" fill="url(#paint14_linear_1115_102509)"/>
<path d="M35.7994 22.998L35.7997 19.6002L38.9495 19.71V23.1079L35.7994 22.998Z" fill="url(#paint15_linear_1115_102509)"/>
<path d="M16.3828 24.6749V19.6001H35.7995V22.998L24.8555 50.4902H19.2953L29.7097 24.6749H16.3828Z" fill="white"/>
</g>
<path d="M30.5235 0.235008L29.1885 0.0239258C29.6382 0.0850532 30.0832 0.155462 30.5235 0.235008L41.7218 2.00552C43.6028 2.47926 48.2435 4.21928 51.7582 7.38939C55.2729 10.5595 57.9319 14.8265 58.8221 16.5638L60.7603 20.871C61.7797 24.1301 63.56 31.8975 62.5263 36.8938C61.906 41.9247 60.0281 46.8866 59.1666 48.7387C58.0898 51.3374 54.5062 57.422 48.7862 60.9712C45.7712 63.5124 39.3965 65.02 34.0556 65.5799C34.716 65.4076 36.1747 64.9941 36.726 64.7185C37.4152 64.3739 56.5207 56.0442 54.8235 30.279C53.4965 14.2515 44.3568 2.73414 30.5235 0.235008Z" fill="url(#paint16_linear_1115_102509)"/>
<defs>
<filter id="filter0_d_1115_102509" x="11.3828" y="11.6001" width="42.5664" height="51" filterUnits="userSpaceOnUse" color-interpolation-filters="sRGB">
<feFlood flood-opacity="0" result="BackgroundImageFix"/>
<feColorMatrix in="SourceAlpha" type="matrix" values="0 0 0 0 0 0 0 0 0 0 0 0 0 0 0 0 0 0 127 0" result="hardAlpha"/>
<feOffset dx="5" dy="2"/>
<feGaussianBlur stdDeviation="5"/>
<feComposite in2="hardAlpha" operator="out"/>
<feColorMatrix type="matrix" values="0 0 0 0 0.321569 0 0 0 0 0.156863 0 0 0 0 0.423529 0 0 0 0.25 0"/>
<feBlend mode="normal" in2="BackgroundImageFix" result="effect1_dropShadow_1115_102509"/>
<feBlend mode="normal" in="SourceGraphic" in2="effect1_dropShadow_1115_102509" result="shape"/>
</filter>
<linearGradient id="paint0_linear_1115_102509" x1="27.7535" y1="0" x2="40.011" y2="67.9304" gradientUnits="userSpaceOnUse">
<stop stop-color="#DEE5F8"/>
<stop offset="1" stop-color="#BDBEE3"/>
</linearGradient>
<linearGradient id="paint1_linear_1115_102509" x1="38.0802" y1="53.3677" x2="-5.11377" y2="2.09893" gradientUnits="userSpaceOnUse">
<stop stop-color="white" stop-opacity="0.7"/>
<stop offset="1" stop-color="#A0A3CF"/>
</linearGradient>
<linearGradient id="paint2_linear_1115_102509" x1="27.6661" y1="19.6002" x2="27.6661" y2="50.6001" gradientUnits="userSpaceOnUse">
<stop stop-color="#EEEBF1"/>
<stop offset="1" stop-color="#EEECF1"/>
</linearGradient>
<linearGradient id="paint3_linear_1115_102509" x1="27.6661" y1="19.6002" x2="27.6661" y2="50.6001" gradientUnits="userSpaceOnUse">
<stop stop-color="#EEEBF1"/>
<stop offset="1" stop-color="#EEECF1"/>
</linearGradient>
<linearGradient id="paint4_linear_1115_102509" x1="27.6661" y1="19.6002" x2="27.6661" y2="50.6001" gradientUnits="userSpaceOnUse">
<stop stop-color="#EEEBF1"/>
<stop offset="1" stop-color="#EEECF1"/>
</linearGradient>
<linearGradient id="paint5_linear_1115_102509" x1="27.6661" y1="19.6002" x2="27.6661" y2="50.6001" gradientUnits="userSpaceOnUse">
<stop stop-color="#EEEBF1"/>
<stop offset="1" stop-color="#EEECF1"/>
</linearGradient>
<linearGradient id="paint6_linear_1115_102509" x1="27.6661" y1="19.6002" x2="27.6661" y2="50.6001" gradientUnits="userSpaceOnUse">
<stop stop-color="#EEEBF1"/>
<stop offset="1" stop-color="#EEECF1"/>
</linearGradient>
<linearGradient id="paint7_linear_1115_102509" x1="27.6661" y1="19.6002" x2="27.6661" y2="50.6001" gradientUnits="userSpaceOnUse">
<stop stop-color="#EEEBF1"/>
<stop offset="1" stop-color="#EEECF1"/>
</linearGradient>
<linearGradient id="paint8_linear_1115_102509" x1="27.6661" y1="19.6002" x2="27.6661" y2="50.6001" gradientUnits="userSpaceOnUse">
<stop stop-color="#EEEBF1"/>
<stop offset="1" stop-color="#EEECF1"/>
</linearGradient>
<linearGradient id="paint9_linear_1115_102509" x1="27.6661" y1="19.6002" x2="27.6661" y2="50.6001" gradientUnits="userSpaceOnUse">
<stop stop-color="#EEEBF1"/>
<stop offset="1" stop-color="#EEECF1"/>
</linearGradient>
<linearGradient id="paint10_linear_1115_102509" x1="27.6661" y1="19.6002" x2="27.6661" y2="50.6001" gradientUnits="userSpaceOnUse">
<stop stop-color="#EEEBF1"/>
<stop offset="1" stop-color="#EEECF1"/>
</linearGradient>
<linearGradient id="paint11_linear_1115_102509" x1="27.6661" y1="19.6002" x2="27.6661" y2="50.6001" gradientUnits="userSpaceOnUse">
<stop stop-color="#EEEBF1"/>
<stop offset="1" stop-color="#EEECF1"/>
</linearGradient>
<linearGradient id="paint12_linear_1115_102509" x1="27.6661" y1="19.6002" x2="27.6661" y2="50.6001" gradientUnits="userSpaceOnUse">
<stop stop-color="#EEEBF1"/>
<stop offset="1" stop-color="#EEECF1"/>
</linearGradient>
<linearGradient id="paint13_linear_1115_102509" x1="27.6661" y1="19.6002" x2="27.6661" y2="50.6001" gradientUnits="userSpaceOnUse">
<stop stop-color="#EEEBF1"/>
<stop offset="1" stop-color="#EEECF1"/>
</linearGradient>
<linearGradient id="paint14_linear_1115_102509" x1="27.6661" y1="19.6002" x2="27.6661" y2="50.6001" gradientUnits="userSpaceOnUse">
<stop stop-color="#EEEBF1"/>
<stop offset="1" stop-color="#EEECF1"/>
</linearGradient>
<linearGradient id="paint15_linear_1115_102509" x1="27.6661" y1="19.6002" x2="27.6661" y2="50.6001" gradientUnits="userSpaceOnUse">
<stop stop-color="#EEEBF1"/>
<stop offset="1" stop-color="#EEECF1"/>
</linearGradient>
<linearGradient id="paint16_linear_1115_102509" x1="79.5576" y1="27.416" x2="12.6901" y2="39.2922" gradientUnits="userSpaceOnUse">
<stop stop-color="#BDBEE3"/>
<stop offset="1" stop-color="#DEE5F8"/>
</linearGradient>
</defs>
</svg>
