<svg width="63" height="67" viewBox="0 0 63 67" fill="none" xmlns="http://www.w3.org/2000/svg">
<path d="M0.218237 28.9175L0 33.1386L0.218237 37.3597V28.9175ZM1.88678 20.978L0.218237 28.9175V37.3597L1.88678 20.978ZM0.218237 37.3597L0.855362 41.4218L1.88678 45.2992L0.218237 37.3597ZM1.88678 20.978L0.855362 24.8554L0.218237 28.9175L1.88678 20.978ZM0.218237 37.3597L1.88678 45.2992L5.04332 52.3845L0.218237 37.3597ZM1.88678 45.2992L3.28983 48.9637L5.04332 52.3845L1.88678 45.2992ZM5.04332 13.8927L3.28983 17.3134L1.88678 20.978L5.04332 13.8927ZM9.52154 7.92042L1.88678 20.978L0.218237 37.3597L9.52154 7.92042ZM9.52154 7.92042L5.04332 13.8927L1.88678 20.978L9.52154 7.92042ZM0.218237 37.3597L5.04332 52.3845L15.1652 62.9092L0.218237 37.3597ZM9.52154 7.92042L7.12707 10.7494L5.04332 13.8927L9.52154 7.92042ZM5.04332 52.3845L7.12707 55.5278L9.52154 58.3567L5.04332 52.3845ZM9.52154 7.92042L0.218237 37.3597L15.1652 62.9092L9.52154 7.92042ZM5.04332 52.3845L9.52154 58.3567L15.1652 62.9092L5.04332 52.3845ZM9.52154 58.3567L12.2074 60.8316L15.1652 62.9092L9.52154 58.3567ZM15.1652 3.36792L12.2074 5.44555L9.52154 7.92042L15.1652 3.36792Z" fill="#C4C4C4"/>
<path d="M34.8691 65.3202L37.5917 64.8652L41.1351 64.2717L34.8691 65.3202Z" fill="#B0B0B0"/>
<path d="M21.8163 0.593994L15.1652 3.36828L9.52148 7.92078L21.8163 0.593994Z" fill="#C4C4C4"/>
<path d="M38.4407 1.55498L41.1351 2.00526L37.5917 1.41179L38.4407 1.55498ZM34.8691 0.956787L38.4407 1.55498L37.5917 1.41179L34.8691 0.956787ZM38.4407 64.7224L34.8691 65.3206L41.1351 64.2721L38.4407 64.7224ZM38.4407 64.7224L41.1351 64.2721L44.5501 63.1258L38.4407 64.7224Z" fill="#B0B0B0"/>
<path d="M15.1641 62.9096L18.374 64.5435L21.8152 65.6839L15.1641 62.9096ZM21.8152 0.593994L18.374 1.73436L15.1641 3.36828L21.8152 0.593994Z" fill="#C4C4C4"/>
<path d="M41.8846 2.71439L44.5511 3.1516L41.1361 2.00526L41.8846 2.71439ZM38.4417 1.55498L41.8846 2.71439L41.1361 2.00526L38.4417 1.55498ZM32.0684 65.7889L34.8701 65.3206L38.4417 64.7224L32.0684 65.7889ZM41.8846 63.563L38.4417 64.7224L44.5511 63.1258L41.8846 63.563ZM41.8846 63.563L44.5511 63.1258L47.7963 61.4516L41.8846 63.563ZM35.6682 1.09149L38.4417 1.55498L34.8701 0.956787L35.6682 1.09149Z" fill="#B0B0B0"/>
<path d="M15.1641 62.9094L21.8152 65.6837L29.1828 66.271L15.1641 62.9094Z" fill="#C4C4C4"/>
<path d="M45.1572 4.40982L47.7963 4.82578L44.5511 3.15159L45.1572 4.40982ZM32.0684 0.488525L35.6682 1.09147L34.8701 0.95677L32.0684 0.488525Z" fill="#B0B0B0"/>
<path d="M36.3116 1.8008L21.8163 0.593994L9.52148 7.92078L36.3116 1.8008Z" fill="#C4C4C4"/>
<path d="M41.8846 2.71434L45.1572 4.40979L44.5511 3.15155L41.8846 2.71434ZM35.6682 65.1859L32.0684 65.7888L38.4417 64.7224L35.6682 65.1859ZM35.6682 65.1859L38.4417 64.7224L41.8846 63.563L35.6682 65.1859ZM45.1572 61.8675L47.7963 61.4516L50.8288 59.2774L45.1572 61.8675ZM45.1572 61.8675L41.8846 63.563L47.7963 61.4516L45.1572 61.8675ZM39.1393 2.26419L41.8846 2.71434L38.4417 1.55493L39.1393 2.26419ZM48.2158 6.61314L50.8288 6.99987L47.7963 4.82575L48.2158 6.61314Z" fill="#B0B0B0"/>
<path d="M21.8135 65.6837L25.4643 66.2772L29.181 66.271L21.8135 65.6837ZM29.181 0.00649145L25.4643 0.000244141L21.8135 0.593777L29.181 0.00649145Z" fill="#C4C4C4"/>
<path d="M35.668 1.09155L39.1391 2.26431L38.4414 1.55504L35.668 1.09155ZM45.157 4.4099L48.2156 6.61325L47.7961 4.82586L45.157 4.4099Z" fill="#B0B0B0"/>
<path d="M9.52148 7.92017L15.1652 62.909L54.2438 28.3275L9.52148 7.92017Z" fill="#C4C4C4"/>
<path d="M29.1816 66.2709L32.0661 65.7888L35.666 65.1859L29.1816 66.2709ZM48.2136 59.6642L50.8266 59.2774L53.6015 56.6345L48.2136 59.6642ZM39.1371 64.0131L35.666 65.1859L41.8824 63.563L39.1371 64.0131ZM48.2136 59.6642L45.155 61.8675L50.8266 59.2774L48.2136 59.6642ZM39.1371 64.0131L41.8824 63.563L45.155 61.8675L39.1371 64.0131ZM32.8099 0.614123L35.666 1.09142L32.0661 0.488481L32.8099 0.614123ZM51.0131 9.29291L53.6015 9.64279L50.8266 6.99986L51.0131 9.29291ZM42.4372 3.98141L45.155 4.40977L41.8824 2.71433L42.4372 3.98141ZM29.1816 0.00640869L32.8099 0.614123L32.0661 0.488481L29.1816 0.00640869ZM48.2136 6.61312L51.0131 9.29291L50.8266 6.99986L48.2136 6.61312Z" fill="#B0B0B0"/>
<path d="M15.1641 62.9095L29.1828 66.2711L42.7498 60.4732L15.1641 62.9095ZM36.3104 1.80069L29.1828 0.0065918L21.8152 0.593878L36.3104 1.80069Z" fill="#C4C4C4"/>
<path d="M39.1371 2.26443L42.4372 3.98167L41.8824 2.71459L39.1371 2.26443ZM51.0131 56.9846L53.6015 56.6348L56.0733 53.5577L51.0131 56.9846ZM32.8099 65.6634L29.1816 66.2711L35.666 65.1861L32.8099 65.6634ZM51.0131 56.9846L48.2136 59.6644L53.6015 56.6348L51.0131 56.9846ZM32.8099 65.6634L35.666 65.1861L39.1371 64.0134L32.8099 65.6634ZM42.4372 62.2961L45.155 61.8678L48.2136 59.6644L42.4372 62.2961ZM42.4372 62.2961L39.1371 64.0134L45.155 61.8678L42.4372 62.2961ZM53.5071 12.4143L56.0733 12.7201L53.6015 9.64304L53.5071 12.4143ZM36.3093 1.80076L39.1371 2.26443L35.666 1.09168L36.3093 1.80076ZM45.5222 6.21502L48.2136 6.61338L45.155 4.41003L45.5222 6.21502ZM51.0131 9.29317L53.5071 12.4143L53.6015 9.64304L51.0131 9.29317ZM53.5071 53.8635L56.0733 53.5577L58.1957 50.0849L53.5071 53.8635ZM32.8099 0.61438L36.3093 1.80076L35.666 1.09168L32.8099 0.61438ZM42.4372 3.98167L45.5222 6.21502L45.155 4.41003L42.4372 3.98167ZM53.5071 53.8635L51.0131 56.9846L56.0733 53.5577L53.5071 53.8635ZM55.649 15.9379L58.1957 16.1929L56.0733 12.7201L55.649 15.9379Z" fill="#B0B0B0"/>
<path d="M29.1816 66.2709L32.8099 65.6632L36.3093 64.4768L29.1816 66.2709ZM36.3093 1.80051L32.8099 0.614123L29.1816 0.00640869L36.3093 1.80051Z" fill="#C4C4C4"/>
<path d="M45.5238 60.0625L48.2152 59.6642L51.0146 56.9844L45.5238 60.0625ZM36.3109 64.4768L32.8115 65.6632L39.1387 64.0131L36.3109 64.4768ZM45.5238 60.0625L42.4388 62.2959L48.2152 59.6642L45.5238 60.0625ZM36.3109 64.4768L39.1387 64.0131L42.4388 62.2959L36.3109 64.4768Z" fill="#B0B0B0"/>
<path d="M54.2438 28.3278L36.3116 1.80054L9.52148 7.92051L54.2438 28.3278Z" fill="#C4C4C4"/>
<path d="M55.6502 50.3398L58.197 50.0848L59.9239 46.2585L55.6502 50.3398ZM53.5083 12.4142L55.6502 15.9378L56.0745 12.72L53.5083 12.4142ZM48.3476 8.93262L51.0143 9.29307L48.2148 6.61328L48.3476 8.93262ZM57.3932 19.8209L59.9239 20.0191L58.197 16.1928L57.3932 19.8209ZM39.6383 3.54024L42.4384 3.98157L39.1383 2.26433L39.6383 3.54024ZM55.6502 50.3398L53.5083 53.8634L58.197 50.0848L55.6502 50.3398ZM57.3932 46.4567L59.9239 46.2585L61.2101 42.1249L57.3932 46.4567ZM45.5234 6.21492L48.3476 8.93262L48.2148 6.61328L45.5234 6.21492ZM36.3105 1.80066L39.6383 3.54024L39.1383 2.26433L36.3105 1.80066ZM58.6915 24.0166L61.2101 24.1527L59.9239 20.0191L58.6915 24.0166ZM55.6502 15.9378L57.3932 19.8209L58.197 16.1928L55.6502 15.9378ZM48.3476 57.345L51.0143 56.9845L53.5083 53.8634L48.3476 57.345ZM48.3476 57.345L45.5234 60.0627L51.0143 56.9845L48.3476 57.345Z" fill="#B0B0B0"/>
<path d="M29.1816 66.2706L36.3093 64.4765L42.7487 60.4728L29.1816 66.2706Z" fill="#C4C4C4"/>
<path d="M58.6915 42.2609L61.2101 42.1248L62.0117 37.7337L58.6915 42.2609ZM57.3932 46.4566L55.6502 50.3397L59.9239 46.2584L57.3932 46.4566ZM59.5007 28.4739L62.0117 28.5437L61.2101 24.1526L59.5007 28.4739ZM39.6383 62.7373L42.4384 62.2959L45.5234 60.0626L39.6383 62.7373ZM39.6383 62.7373L36.3105 64.4768L42.4384 62.2959L39.6383 62.7373ZM50.8641 12.099L53.5083 12.4141L51.0143 9.29297L50.8641 12.099ZM59.5007 37.8035L62.0117 37.7337L62.2876 33.1387L59.5007 37.8035ZM59.7792 33.1387H62.2876L62.0117 28.5437L59.7792 33.1387ZM57.3932 19.8208L58.6915 24.0165L59.9239 20.019L57.3932 19.8208Z" fill="#B0B0B0"/>
<path d="M15.1641 62.9094L42.7498 60.4731L54.2427 28.3279L15.1641 62.9094Z" fill="#C4C4C4"/>
<path d="M42.7493 5.80428L45.5228 6.21478L42.4378 3.98143L42.7493 5.80428ZM58.6908 42.2609L57.3926 46.4566L61.2094 42.1247L58.6908 42.2609ZM48.3469 8.93248L50.8635 12.099L51.0136 9.29293L48.3469 8.93248ZM50.8635 54.1783L53.5077 53.8632L55.6496 50.3396L50.8635 54.1783ZM58.6908 24.0164L59.5001 28.4739L61.2094 24.1526L58.6908 24.0164ZM59.5001 37.8034L58.6908 42.2609L62.0111 37.7337L59.5001 37.8034ZM39.6377 3.5401L42.7493 5.80428L42.4378 3.98143L39.6377 3.5401ZM50.8635 54.1783L48.3469 57.3448L53.5077 53.8632L50.8635 54.1783ZM53.025 15.6749L55.6496 15.9377L53.5077 12.4141L53.025 15.6749ZM59.5001 28.4739L59.7785 33.1387L62.0111 28.5436L59.5001 28.4739ZM59.7785 33.1387L59.5001 37.8034L62.2869 33.1387H59.7785ZM42.7493 60.473L45.5228 60.0625L48.3469 57.3448L42.7493 60.473ZM42.7493 60.473L39.6377 62.7372L45.5228 60.0625L42.7493 60.473Z" fill="#B0B0B0"/>
<path d="M36.3105 64.4769L39.6383 62.7373L42.7499 60.4732L36.3105 64.4769ZM42.7499 5.80442L39.6383 3.54024L36.3105 1.80066L42.7499 5.80442Z" fill="#C4C4C4"/>
<path d="M53.0257 50.6022L55.6503 50.3394L57.3933 46.4563L53.0257 50.6022ZM50.8642 12.0988L53.0257 15.6747L53.5084 12.4139L50.8642 12.0988ZM45.5991 8.56076L48.3477 8.93227L45.5235 6.21458L45.5991 8.56076ZM54.785 19.6163L57.3933 19.8206L55.6503 15.9375L54.785 19.6163ZM53.0257 50.6022L50.8642 54.1781L55.6503 50.3394L53.0257 50.6022ZM54.785 46.6606L57.3933 46.4563L58.6916 42.2607L54.785 46.6606ZM42.75 5.80408L45.5991 8.56076L45.5235 6.21458L42.75 5.80408ZM56.0954 23.8759L58.6916 24.0162L57.3933 19.8206L56.0954 23.8759ZM53.0257 15.6747L54.785 19.6163L55.6503 15.9375L53.0257 15.6747ZM45.5991 57.7161L48.3477 57.3446L50.8642 54.1781L45.5991 57.7161Z" fill="#B0B0B0"/>
<path d="M48.1383 11.7743L42.7499 5.80442L36.3105 1.80066L48.1383 11.7743Z" fill="#C4C4C4"/>
<path d="M45.5991 57.7165L42.75 60.4732L48.3477 57.345L45.5991 57.7165ZM56.0954 42.4014L58.6916 42.2611L59.5008 37.8036L56.0954 42.4014ZM54.785 46.661L53.0257 50.6026L57.3933 46.4567L54.785 46.661ZM56.9124 28.4022L59.5008 28.4741L58.6916 24.0166L56.9124 28.4022ZM48.1383 11.7744L50.8642 12.0992L48.3477 8.93267L48.1383 11.7744ZM56.9124 37.8755L59.5008 37.8036L59.7793 33.1389L56.9124 37.8755ZM57.1935 33.1389H59.7793L59.5008 28.4741L57.1935 33.1389ZM54.785 19.6167L56.0954 23.8763L57.3933 19.821L54.785 19.6167ZM56.0954 42.4014L54.785 46.661L58.6916 42.2611L56.0954 42.4014ZM45.5991 8.56116L48.1383 11.7744L48.3477 8.93267L45.5991 8.56116ZM48.1383 54.5033L50.8642 54.1785L53.0257 50.6026L48.1383 54.5033ZM56.0954 23.8763L56.9124 28.4022L58.6916 24.0166L56.0954 23.8763ZM56.9124 37.8755L56.0954 42.4014L59.5008 37.8036L56.9124 37.8755ZM48.1383 54.5033L45.5991 57.7165L50.8642 54.1785L48.1383 54.5033ZM50.3197 15.4041L53.0257 15.6751L50.8642 12.0992L50.3197 15.4041ZM56.9124 28.4022L57.1935 33.1389L59.5008 28.4741L56.9124 28.4022ZM57.1935 33.1389L56.9124 37.8755L59.7793 33.1389H57.1935Z" fill="#B0B0B0"/>
<path d="M42.7499 60.4732L45.599 57.7165L48.1383 54.5033L42.7499 60.4732ZM48.1383 11.7743L45.599 8.5611L42.7499 5.80442L48.1383 11.7743ZM54.2428 28.328L48.1383 11.7743L36.3105 1.80066L54.2428 28.328Z" fill="#C4C4C4"/>
<path d="M50.322 50.8734L53.028 50.6024L54.7873 46.6608L50.322 50.8734ZM48.1406 11.7742L50.322 15.4039L50.8665 12.099L48.1406 11.7742ZM52.0977 19.4058L54.7873 19.6165L53.028 15.6748L52.0977 19.4058ZM50.322 50.8734L48.1406 54.5031L53.028 50.6024L50.322 50.8734Z" fill="#B0B0B0"/>
<path d="M42.75 60.4732L48.1383 54.5033L52.0954 46.8717L42.75 60.4732Z" fill="#C4C4C4"/>
<path d="M52.095 46.8717L54.7846 46.6611L56.0951 42.4014L52.095 46.8717ZM53.4178 23.7316L56.0951 23.8763L54.7846 19.6167L53.4178 23.7316ZM50.3193 15.4041L52.095 19.406L53.0253 15.6751L50.3193 15.4041ZM53.4178 42.5462L56.0951 42.4014L56.912 37.8755L53.4178 42.5462ZM52.095 46.8717L50.3193 50.8736L54.7846 46.6611L52.095 46.8717ZM54.2425 28.328L56.912 28.4022L56.0951 23.8763L54.2425 28.328Z" fill="#B0B0B0"/>
<path d="M42.75 60.4729L52.0954 46.8714L54.2429 28.3277L42.75 60.4729Z" fill="#C4C4C4"/>
<path d="M54.2432 37.9495L56.9126 37.8754L57.1938 33.1387L54.2432 37.9495ZM54.527 33.1387H57.1938L56.9126 28.402L54.527 33.1387Z" fill="#B0B0B0"/>
<path d="M48.1406 54.5031L50.322 50.8734L52.0977 46.8715L48.1406 54.5031ZM52.0977 19.4058L50.322 15.4039L48.1406 11.7742L52.0977 19.4058Z" fill="#C4C4C4"/>
<path d="M52.0957 19.4061L53.4185 23.7317L54.7853 19.6168L52.0957 19.4061ZM53.4185 42.5463L52.0957 46.8718L56.0958 42.4015L53.4185 42.5463ZM53.4185 23.7317L54.2432 28.3281L56.0958 23.8764L53.4185 23.7317Z" fill="#B0B0B0"/>
<path d="M54.2452 28.3278L52.0977 19.4058L48.1406 11.7742L54.2452 28.3278Z" fill="#C4C4C4"/>
<path d="M54.2446 37.9495L53.4199 42.546L56.9141 37.8754L54.2446 37.9495ZM54.2446 28.3279L54.5284 33.1387L56.9141 28.402L54.2446 28.3279ZM54.5284 33.1387L54.2446 37.9495L57.1952 33.1387H54.5284Z" fill="#B0B0B0"/>
<path d="M52.0957 46.8718L53.4185 42.5463L54.2432 37.9498L52.0957 46.8718ZM54.2432 28.3281L53.4185 23.7317L52.0957 19.4061L54.2432 28.3281ZM52.0957 46.8718L54.2432 37.9498V28.3281L52.0957 46.8718ZM54.2432 37.9498L54.527 33.139L54.2432 28.3281V37.9498Z" fill="#C4C4C4"/>
<path d="M54.2864 33.2557C54.2864 51.4417 42.1714 66.0113 27.4205 66.0113C12.6697 66.0113 0.554688 51.4417 0.554688 33.2557C0.554688 15.0696 12.6697 0.5 27.4205 0.5C42.1714 0.5 54.2864 15.0696 54.2864 33.2557Z" fill="url(#paint0_linear_1115_102403)" stroke="url(#paint1_linear_1115_102403)"/>
<g filter="url(#filter0_d_1115_102403)">
<path d="M20.691 35.2882L22.6873 19.1443C22.6873 19.1443 23.9101 19.1443 25.6422 19.1443C28.1146 19.1443 31.6246 19.1443 34.097 19.1443C35.829 19.1443 37.0519 19.1443 37.0519 19.1443V24.135C37.0519 24.135 36.2022 24.135 34.9986 24.135C33.2806 24.135 30.8417 24.135 29.1237 24.135C27.9201 24.135 27.0704 24.135 27.0704 24.135L26.2025 30.1673C26.839 30.0515 27.4176 29.9937 27.9384 29.9937C30.6869 29.9937 32.958 30.8761 34.7518 32.6409C36.5745 34.4057 37.4858 36.7492 37.4858 39.6713C37.4858 42.8538 36.4877 45.3708 34.4914 47.2225C32.4951 49.0741 30.007 49.9999 27.027 49.9999C25.3201 49.9999 23.6276 49.6238 21.9495 48.8716C20.3004 48.0904 19.0274 47.0199 18.1306 45.6601L20.9948 41.8846C21.6313 42.8104 22.5282 43.5626 23.6854 44.1412C24.8427 44.7199 26 45.0092 27.1572 45.0092C28.6038 45.0092 29.79 44.5318 30.7158 43.5771C31.6706 42.6223 32.148 41.3927 32.148 39.8883C32.148 38.326 31.5693 37.0385 30.4121 36.0259C29.2548 35.0133 27.678 34.507 25.6817 34.507C23.5697 34.507 21.9061 34.7674 20.691 35.2882Z" fill="url(#paint2_linear_1115_102403)"/>
<path d="M16.8642 41.7401L14 45.5157L18.1306 45.6601L20.9948 41.8846L16.8642 41.7401Z" fill="url(#paint3_linear_1115_102403)"/>
<path d="M14 45.5157C14.8969 46.8754 16.1699 47.9462 17.819 48.7274L21.9495 48.8716C20.3004 48.0904 19.0274 47.0199 18.1306 45.6601L14 45.5157Z" fill="url(#paint4_linear_1115_102403)"/>
<path d="M18.5568 19L16.5605 35.1439L20.691 35.2882L22.6873 19.1443L18.5568 19Z" fill="url(#paint5_linear_1115_102403)"/>
<path d="M19.5548 43.9967C18.3976 43.4181 17.5007 42.6659 16.8642 41.7401L20.9948 41.8846C21.6313 42.8104 22.5282 43.5626 23.6854 44.1412L19.5548 43.9967Z" fill="url(#paint6_linear_1115_102403)"/>
<path d="M16.5605 35.1439C17.7756 34.6231 19.4392 34.3629 21.5512 34.3629L25.6817 34.507C23.5697 34.507 21.9061 34.7674 20.691 35.2882L16.5605 35.1439Z" fill="url(#paint7_linear_1115_102403)"/>
<path d="M21.5118 19H18.5568L22.6873 19.1443H25.6422L21.5118 19Z" fill="url(#paint8_linear_1115_102403)"/>
<path d="M22.8963 49.8556C21.1893 49.8556 19.497 49.4796 17.819 48.7274L21.9495 48.8716C23.362 49.5047 24.7845 49.8714 26.2174 49.9716L27.027 49.9999C26.7569 49.9999 26.4869 49.9904 26.2174 49.9716L22.8963 49.8556Z" fill="url(#paint9_linear_1115_102403)"/>
<path d="M23.0266 44.8648C21.8694 44.8648 20.7121 44.5754 19.5548 43.9967L23.6854 44.1412C24.6811 44.639 25.6767 44.9226 26.6723 44.9921L27.1572 45.0092C26.9956 45.0092 26.8339 45.0034 26.6723 44.9921L23.0266 44.8648Z" fill="url(#paint10_linear_1115_102403)"/>
<path d="M22.0719 30.023L22.9399 23.9908L27.0704 24.135L26.2025 30.1673L22.0719 30.023Z" fill="url(#paint11_linear_1115_102403)"/>
<path d="M23.8078 29.8494C23.2871 29.8494 22.7084 29.9073 22.0719 30.023L26.2025 30.1673C26.839 30.0515 27.4176 29.9937 27.9384 29.9937L23.8078 29.8494Z" fill="url(#paint12_linear_1115_102403)"/>
<path d="M22.9399 23.9908H24.993L29.1237 24.135H27.0704L22.9399 23.9908Z" fill="url(#paint13_linear_1115_102403)"/>
<path d="M26.2816 35.8818C25.2792 35.0047 23.962 34.5074 22.3301 34.3901L21.5512 34.3629C21.8183 34.3629 22.078 34.3719 22.3301 34.3901L25.6817 34.507C27.678 34.507 29.2548 35.0133 30.4121 36.0259L26.2816 35.8818Z" fill="url(#paint14_linear_1115_102403)"/>
<path d="M26.5851 43.4328C25.6593 44.3875 24.4732 44.8648 23.0266 44.8648L27.1572 45.0092C28.6038 45.0092 29.79 44.5318 30.7158 43.5771L26.5851 43.4328Z" fill="url(#paint15_linear_1115_102403)"/>
<path d="M29.9661 19H21.5118L25.6422 19.1443H34.097L29.9661 19Z" fill="url(#paint16_linear_1115_102403)"/>
<path d="M23.8078 29.8494C24.1012 29.8494 24.3894 29.8594 24.6719 29.8795L27.9384 29.9937C30.6869 29.9937 32.958 30.8761 34.7518 32.6409L30.6214 32.4966C29.0191 30.9202 27.036 30.0478 24.6719 29.8795L23.8078 29.8494Z" fill="url(#paint17_linear_1115_102403)"/>
<path d="M22.8963 49.8556C25.8762 49.8556 28.3644 48.9296 30.3607 47.078L34.4914 47.2225C32.4951 49.0741 30.007 49.9999 27.027 49.9999L22.8963 49.8556Z" fill="url(#paint18_linear_1115_102403)"/>
<path d="M26.2816 35.8818C27.4389 36.8944 28.0176 38.1816 28.0176 39.7439L32.148 39.8883C32.148 38.326 31.5693 37.0385 30.4121 36.0259L26.2816 35.8818Z" fill="url(#paint19_linear_1115_102403)"/>
<path d="M28.0176 39.7439C28.0176 41.2483 27.5398 42.478 26.5851 43.4328L30.7158 43.5771C31.6706 42.6223 32.148 41.3927 32.148 39.8883L28.0176 39.7439Z" fill="url(#paint20_linear_1115_102403)"/>
<path d="M24.993 23.9908H30.868L34.9986 24.135H29.1237L24.993 23.9908Z" fill="url(#paint21_linear_1115_102403)"/>
<path d="M32.9212 19H29.9661L34.097 19.1443H37.0519L32.9212 19Z" fill="url(#paint22_linear_1115_102403)"/>
<path d="M30.868 23.9908H32.9211L37.0519 24.135H34.9986L30.868 23.9908Z" fill="url(#paint23_linear_1115_102403)"/>
<path d="M33.3552 39.527C33.3552 36.6049 32.4441 34.2614 30.6214 32.4966L34.7518 32.6409C36.5745 34.4057 37.4858 36.7492 37.4858 39.6713L33.3552 39.527Z" fill="url(#paint24_linear_1115_102403)"/>
<path d="M30.3607 47.078C32.357 45.2264 33.3552 42.7095 33.3552 39.527L37.4858 39.6713C37.4858 42.8538 36.4877 45.3708 34.4914 47.2225L30.3607 47.078Z" fill="url(#paint25_linear_1115_102403)"/>
<path d="M32.9211 23.9908L32.9212 19L37.0519 19.1443V24.135L32.9211 23.9908Z" fill="url(#paint26_linear_1115_102403)"/>
<path d="M16.5605 35.1439L18.5567 19H32.9213V23.9907H22.9399L22.0719 30.023C22.7084 29.9072 23.2871 29.8494 23.8078 29.8494C26.5563 29.8494 28.8275 30.7318 30.6212 32.4966C32.4439 34.2614 33.3553 36.6049 33.3553 39.527C33.3553 42.7095 32.3571 45.2265 30.3608 47.0782C28.3646 48.9298 25.8764 49.8556 22.8965 49.8556C21.1895 49.8556 19.497 49.4795 17.819 48.7273C16.1699 47.9461 14.8969 46.8756 14 45.5159L16.8642 41.7403C17.5007 42.6661 18.3976 43.4183 19.5549 43.9969C20.7121 44.5756 21.8694 44.8649 23.0267 44.8649C24.4733 44.8649 25.6595 44.3875 26.5853 43.4328C27.54 42.478 28.0174 41.2484 28.0174 39.744C28.0174 38.1817 27.4387 36.8942 26.2815 35.8816C25.1242 34.869 23.5474 34.3627 21.5512 34.3627C19.4391 34.3627 17.7756 34.6231 16.5605 35.1439Z" fill="white"/>
</g>
<path d="M30.1905 0.235008L28.8555 0.0239258C29.3052 0.0850532 29.7502 0.155462 30.1905 0.235008L41.3888 2.00552C43.2698 2.47926 47.9105 4.21928 51.4252 7.38939C54.9399 10.5595 57.5989 14.8265 58.489 16.5638L60.4273 20.871C61.4467 24.1301 63.227 31.8975 62.1932 36.8938C61.573 41.9247 59.6951 46.8866 58.8336 48.7387C57.7568 51.3374 54.1732 57.422 48.4532 60.9712C45.4382 63.5124 39.0635 65.02 33.7225 65.5799C34.383 65.4076 35.8417 64.9941 36.393 64.7185C37.0822 64.3739 56.1877 56.0442 54.4905 30.279C53.1635 14.2515 44.0238 2.73414 30.1905 0.235008Z" fill="url(#paint27_linear_1115_102403)"/>
<defs>
<filter id="filter0_d_1115_102403" x="9" y="11" width="43.4854" height="50.9999" filterUnits="userSpaceOnUse" color-interpolation-filters="sRGB">
<feFlood flood-opacity="0" result="BackgroundImageFix"/>
<feColorMatrix in="SourceAlpha" type="matrix" values="0 0 0 0 0 0 0 0 0 0 0 0 0 0 0 0 0 0 127 0" result="hardAlpha"/>
<feOffset dx="5" dy="2"/>
<feGaussianBlur stdDeviation="5"/>
<feComposite in2="hardAlpha" operator="out"/>
<feColorMatrix type="matrix" values="0 0 0 0 0.321569 0 0 0 0 0.156863 0 0 0 0 0.423529 0 0 0 0.25 0"/>
<feBlend mode="normal" in2="BackgroundImageFix" result="effect1_dropShadow_1115_102403"/>
<feBlend mode="normal" in="SourceGraphic" in2="effect1_dropShadow_1115_102403" result="shape"/>
</filter>
<linearGradient id="paint0_linear_1115_102403" x1="27.4205" y1="0" x2="39.678" y2="67.9304" gradientUnits="userSpaceOnUse">
<stop stop-color="#DEE5F8"/>
<stop offset="1" stop-color="#BDBEE3"/>
</linearGradient>
<linearGradient id="paint1_linear_1115_102403" x1="37.7472" y1="53.3677" x2="-5.44678" y2="2.09893" gradientUnits="userSpaceOnUse">
<stop stop-color="white" stop-opacity="0.7"/>
<stop offset="1" stop-color="#A0A3CF"/>
</linearGradient>
<linearGradient id="paint2_linear_1115_102403" x1="25.7429" y1="19" x2="25.7429" y2="49.9999" gradientUnits="userSpaceOnUse">
<stop stop-color="#EEEBF1"/>
<stop offset="1" stop-color="#EEECF0"/>
<stop offset="1" stop-color="#EEECF1"/>
</linearGradient>
<linearGradient id="paint3_linear_1115_102403" x1="25.7429" y1="19" x2="25.7429" y2="49.9999" gradientUnits="userSpaceOnUse">
<stop stop-color="#EEEBF1"/>
<stop offset="1" stop-color="#EEECF0"/>
<stop offset="1" stop-color="#EEECF1"/>
</linearGradient>
<linearGradient id="paint4_linear_1115_102403" x1="25.7429" y1="19" x2="25.7429" y2="49.9999" gradientUnits="userSpaceOnUse">
<stop stop-color="#EEEBF1"/>
<stop offset="1" stop-color="#EEECF0"/>
<stop offset="1" stop-color="#EEECF1"/>
</linearGradient>
<linearGradient id="paint5_linear_1115_102403" x1="25.7429" y1="19" x2="25.7429" y2="49.9999" gradientUnits="userSpaceOnUse">
<stop stop-color="#EEEBF1"/>
<stop offset="1" stop-color="#EEECF0"/>
<stop offset="1" stop-color="#EEECF1"/>
</linearGradient>
<linearGradient id="paint6_linear_1115_102403" x1="25.7429" y1="19" x2="25.7429" y2="49.9999" gradientUnits="userSpaceOnUse">
<stop stop-color="#EEEBF1"/>
<stop offset="1" stop-color="#EEECF0"/>
<stop offset="1" stop-color="#EEECF1"/>
</linearGradient>
<linearGradient id="paint7_linear_1115_102403" x1="25.7429" y1="19" x2="25.7429" y2="49.9999" gradientUnits="userSpaceOnUse">
<stop stop-color="#EEEBF1"/>
<stop offset="1" stop-color="#EEECF0"/>
<stop offset="1" stop-color="#EEECF1"/>
</linearGradient>
<linearGradient id="paint8_linear_1115_102403" x1="25.7429" y1="19" x2="25.7429" y2="49.9999" gradientUnits="userSpaceOnUse">
<stop stop-color="#EEEBF1"/>
<stop offset="1" stop-color="#EEECF0"/>
<stop offset="1" stop-color="#EEECF1"/>
</linearGradient>
<linearGradient id="paint9_linear_1115_102403" x1="25.7429" y1="19" x2="25.7429" y2="49.9999" gradientUnits="userSpaceOnUse">
<stop stop-color="#EEEBF1"/>
<stop offset="1" stop-color="#EEECF0"/>
<stop offset="1" stop-color="#EEECF1"/>
</linearGradient>
<linearGradient id="paint10_linear_1115_102403" x1="25.7429" y1="19" x2="25.7429" y2="49.9999" gradientUnits="userSpaceOnUse">
<stop stop-color="#EEEBF1"/>
<stop offset="1" stop-color="#EEECF0"/>
<stop offset="1" stop-color="#EEECF1"/>
</linearGradient>
<linearGradient id="paint11_linear_1115_102403" x1="25.7429" y1="19" x2="25.7429" y2="49.9999" gradientUnits="userSpaceOnUse">
<stop stop-color="#EEEBF1"/>
<stop offset="1" stop-color="#EEECF0"/>
<stop offset="1" stop-color="#EEECF1"/>
</linearGradient>
<linearGradient id="paint12_linear_1115_102403" x1="25.7429" y1="19" x2="25.7429" y2="49.9999" gradientUnits="userSpaceOnUse">
<stop stop-color="#EEEBF1"/>
<stop offset="1" stop-color="#EEECF0"/>
<stop offset="1" stop-color="#EEECF1"/>
</linearGradient>
<linearGradient id="paint13_linear_1115_102403" x1="25.7429" y1="19" x2="25.7429" y2="49.9999" gradientUnits="userSpaceOnUse">
<stop stop-color="#EEEBF1"/>
<stop offset="1" stop-color="#EEECF0"/>
<stop offset="1" stop-color="#EEECF1"/>
</linearGradient>
<linearGradient id="paint14_linear_1115_102403" x1="25.7429" y1="19" x2="25.7429" y2="49.9999" gradientUnits="userSpaceOnUse">
<stop stop-color="#EEEBF1"/>
<stop offset="1" stop-color="#EEECF0"/>
<stop offset="1" stop-color="#EEECF1"/>
</linearGradient>
<linearGradient id="paint15_linear_1115_102403" x1="25.7429" y1="19" x2="25.7429" y2="49.9999" gradientUnits="userSpaceOnUse">
<stop stop-color="#EEEBF1"/>
<stop offset="1" stop-color="#EEECF0"/>
<stop offset="1" stop-color="#EEECF1"/>
</linearGradient>
<linearGradient id="paint16_linear_1115_102403" x1="25.7429" y1="19" x2="25.7429" y2="49.9999" gradientUnits="userSpaceOnUse">
<stop stop-color="#EEEBF1"/>
<stop offset="1" stop-color="#EEECF0"/>
<stop offset="1" stop-color="#EEECF1"/>
</linearGradient>
<linearGradient id="paint17_linear_1115_102403" x1="25.7429" y1="19" x2="25.7429" y2="49.9999" gradientUnits="userSpaceOnUse">
<stop stop-color="#EEEBF1"/>
<stop offset="1" stop-color="#EEECF0"/>
<stop offset="1" stop-color="#EEECF1"/>
</linearGradient>
<linearGradient id="paint18_linear_1115_102403" x1="25.7429" y1="19" x2="25.7429" y2="49.9999" gradientUnits="userSpaceOnUse">
<stop stop-color="#EEEBF1"/>
<stop offset="1" stop-color="#EEECF0"/>
<stop offset="1" stop-color="#EEECF1"/>
</linearGradient>
<linearGradient id="paint19_linear_1115_102403" x1="25.7429" y1="19" x2="25.7429" y2="49.9999" gradientUnits="userSpaceOnUse">
<stop stop-color="#EEEBF1"/>
<stop offset="1" stop-color="#EEECF0"/>
<stop offset="1" stop-color="#EEECF1"/>
</linearGradient>
<linearGradient id="paint20_linear_1115_102403" x1="25.7429" y1="19" x2="25.7429" y2="49.9999" gradientUnits="userSpaceOnUse">
<stop stop-color="#EEEBF1"/>
<stop offset="1" stop-color="#EEECF0"/>
<stop offset="1" stop-color="#EEECF1"/>
</linearGradient>
<linearGradient id="paint21_linear_1115_102403" x1="25.7429" y1="19" x2="25.7429" y2="49.9999" gradientUnits="userSpaceOnUse">
<stop stop-color="#EEEBF1"/>
<stop offset="1" stop-color="#EEECF0"/>
<stop offset="1" stop-color="#EEECF1"/>
</linearGradient>
<linearGradient id="paint22_linear_1115_102403" x1="25.7429" y1="19" x2="25.7429" y2="49.9999" gradientUnits="userSpaceOnUse">
<stop stop-color="#EEEBF1"/>
<stop offset="1" stop-color="#EEECF0"/>
<stop offset="1" stop-color="#EEECF1"/>
</linearGradient>
<linearGradient id="paint23_linear_1115_102403" x1="25.7429" y1="19" x2="25.7429" y2="49.9999" gradientUnits="userSpaceOnUse">
<stop stop-color="#EEEBF1"/>
<stop offset="1" stop-color="#EEECF0"/>
<stop offset="1" stop-color="#EEECF1"/>
</linearGradient>
<linearGradient id="paint24_linear_1115_102403" x1="25.7429" y1="19" x2="25.7429" y2="49.9999" gradientUnits="userSpaceOnUse">
<stop stop-color="#EEEBF1"/>
<stop offset="1" stop-color="#EEECF0"/>
<stop offset="1" stop-color="#EEECF1"/>
</linearGradient>
<linearGradient id="paint25_linear_1115_102403" x1="25.7429" y1="19" x2="25.7429" y2="49.9999" gradientUnits="userSpaceOnUse">
<stop stop-color="#EEEBF1"/>
<stop offset="1" stop-color="#EEECF0"/>
<stop offset="1" stop-color="#EEECF1"/>
</linearGradient>
<linearGradient id="paint26_linear_1115_102403" x1="25.7429" y1="19" x2="25.7429" y2="49.9999" gradientUnits="userSpaceOnUse">
<stop stop-color="#EEEBF1"/>
<stop offset="1" stop-color="#EEECF0"/>
<stop offset="1" stop-color="#EEECF1"/>
</linearGradient>
<linearGradient id="paint27_linear_1115_102403" x1="79.2246" y1="27.416" x2="12.3571" y2="39.2922" gradientUnits="userSpaceOnUse">
<stop stop-color="#BDBEE3"/>
<stop offset="1" stop-color="#DEE5F8"/>
</linearGradient>
</defs>
</svg>
