<svg width="63" height="67" viewBox="0 0 63 67" fill="none" xmlns="http://www.w3.org/2000/svg">
<path d="M0.218237 28.9175L0 33.1386L0.218237 37.3597V28.9175ZM1.88678 20.978L0.218237 28.9175V37.3597L1.88678 20.978ZM0.218237 37.3597L0.855362 41.4218L1.88678 45.2992L0.218237 37.3597ZM1.88678 20.978L0.855362 24.8554L0.218237 28.9175L1.88678 20.978ZM0.218237 37.3597L1.88678 45.2992L5.04332 52.3845L0.218237 37.3597ZM1.88678 45.2992L3.28983 48.9637L5.04332 52.3845L1.88678 45.2992ZM5.04332 13.8927L3.28983 17.3134L1.88678 20.978L5.04332 13.8927ZM9.52154 7.92042L1.88678 20.978L0.218237 37.3597L9.52154 7.92042ZM9.52154 7.92042L5.04332 13.8927L1.88678 20.978L9.52154 7.92042ZM0.218237 37.3597L5.04332 52.3845L15.1652 62.9092L0.218237 37.3597ZM9.52154 7.92042L7.12707 10.7494L5.04332 13.8927L9.52154 7.92042ZM5.04332 52.3845L7.12707 55.5278L9.52154 58.3567L5.04332 52.3845ZM9.52154 7.92042L0.218237 37.3597L15.1652 62.9092L9.52154 7.92042ZM5.04332 52.3845L9.52154 58.3567L15.1652 62.9092L5.04332 52.3845ZM9.52154 58.3567L12.2074 60.8316L15.1652 62.9092L9.52154 58.3567ZM15.1652 3.36792L12.2074 5.44555L9.52154 7.92042L15.1652 3.36792Z" fill="#C4C4C4"/>
<path d="M34.8691 65.3202L37.5917 64.8652L41.1351 64.2717L34.8691 65.3202Z" fill="#B0B0B0"/>
<path d="M21.8163 0.593994L15.1652 3.36828L9.52148 7.92078L21.8163 0.593994Z" fill="#C4C4C4"/>
<path d="M38.4407 1.55498L41.1351 2.00526L37.5917 1.41179L38.4407 1.55498ZM34.8691 0.956787L38.4407 1.55498L37.5917 1.41179L34.8691 0.956787ZM38.4407 64.7224L34.8691 65.3206L41.1351 64.2721L38.4407 64.7224ZM38.4407 64.7224L41.1351 64.2721L44.5501 63.1258L38.4407 64.7224Z" fill="#B0B0B0"/>
<path d="M15.1641 62.9096L18.374 64.5435L21.8152 65.6839L15.1641 62.9096ZM21.8152 0.593994L18.374 1.73436L15.1641 3.36828L21.8152 0.593994Z" fill="#C4C4C4"/>
<path d="M41.8846 2.71439L44.5511 3.1516L41.1361 2.00526L41.8846 2.71439ZM38.4417 1.55498L41.8846 2.71439L41.1361 2.00526L38.4417 1.55498ZM32.0684 65.7889L34.8701 65.3206L38.4417 64.7224L32.0684 65.7889ZM41.8846 63.563L38.4417 64.7224L44.5511 63.1258L41.8846 63.563ZM41.8846 63.563L44.5511 63.1258L47.7963 61.4516L41.8846 63.563ZM35.6682 1.09149L38.4417 1.55498L34.8701 0.956787L35.6682 1.09149Z" fill="#B0B0B0"/>
<path d="M15.1641 62.9094L21.8152 65.6837L29.1828 66.271L15.1641 62.9094Z" fill="#C4C4C4"/>
<path d="M45.1572 4.40982L47.7963 4.82578L44.5511 3.15159L45.1572 4.40982ZM32.0684 0.488525L35.6682 1.09147L34.8701 0.95677L32.0684 0.488525Z" fill="#B0B0B0"/>
<path d="M36.3116 1.8008L21.8163 0.593994L9.52148 7.92078L36.3116 1.8008Z" fill="#C4C4C4"/>
<path d="M41.8846 2.71434L45.1572 4.40979L44.5511 3.15155L41.8846 2.71434ZM35.6682 65.1859L32.0684 65.7888L38.4417 64.7224L35.6682 65.1859ZM35.6682 65.1859L38.4417 64.7224L41.8846 63.563L35.6682 65.1859ZM45.1572 61.8675L47.7963 61.4516L50.8288 59.2774L45.1572 61.8675ZM45.1572 61.8675L41.8846 63.563L47.7963 61.4516L45.1572 61.8675ZM39.1393 2.26419L41.8846 2.71434L38.4417 1.55493L39.1393 2.26419ZM48.2158 6.61314L50.8288 6.99987L47.7963 4.82575L48.2158 6.61314Z" fill="#B0B0B0"/>
<path d="M21.8135 65.6837L25.4643 66.2772L29.181 66.271L21.8135 65.6837ZM29.181 0.00649145L25.4643 0.000244141L21.8135 0.593777L29.181 0.00649145Z" fill="#C4C4C4"/>
<path d="M35.668 1.09155L39.1391 2.26431L38.4414 1.55504L35.668 1.09155ZM45.157 4.4099L48.2156 6.61325L47.7961 4.82586L45.157 4.4099Z" fill="#B0B0B0"/>
<path d="M9.52148 7.92017L15.1652 62.909L54.2438 28.3275L9.52148 7.92017Z" fill="#C4C4C4"/>
<path d="M29.1816 66.2709L32.0661 65.7889L35.666 65.1859L29.1816 66.2709ZM48.2136 59.6642L50.8266 59.2775L53.6015 56.6346L48.2136 59.6642ZM39.1371 64.0132L35.666 65.1859L41.8824 63.563L39.1371 64.0132ZM48.2136 59.6642L45.155 61.8676L50.8266 59.2775L48.2136 59.6642ZM39.1371 64.0132L41.8824 63.563L45.155 61.8676L39.1371 64.0132ZM32.8099 0.614184L35.666 1.09149L32.0661 0.488542L32.8099 0.614184ZM51.0131 9.29297L53.6015 9.64285L50.8266 6.99992L51.0131 9.29297ZM42.4372 3.98147L45.155 4.40984L41.8824 2.71439L42.4372 3.98147ZM29.1816 0.00646973L32.8099 0.614184L32.0661 0.488542L29.1816 0.00646973ZM48.2136 6.61318L51.0131 9.29297L50.8266 6.99992L48.2136 6.61318Z" fill="#B0B0B0"/>
<path d="M15.1641 62.9095L29.1828 66.2711L42.7498 60.4732L15.1641 62.9095ZM36.3104 1.80069L29.1828 0.0065918L21.8152 0.593878L36.3104 1.80069Z" fill="#C4C4C4"/>
<path d="M39.1371 2.26443L42.4372 3.98167L41.8824 2.71459L39.1371 2.26443ZM51.0131 56.9846L53.6015 56.6348L56.0733 53.5577L51.0131 56.9846ZM32.8099 65.6634L29.1816 66.2711L35.666 65.1861L32.8099 65.6634ZM51.0131 56.9846L48.2136 59.6644L53.6015 56.6348L51.0131 56.9846ZM32.8099 65.6634L35.666 65.1861L39.1371 64.0134L32.8099 65.6634ZM42.4372 62.2961L45.155 61.8678L48.2136 59.6644L42.4372 62.2961ZM42.4372 62.2961L39.1371 64.0134L45.155 61.8678L42.4372 62.2961ZM53.5071 12.4143L56.0733 12.7201L53.6015 9.64304L53.5071 12.4143ZM36.3093 1.80076L39.1371 2.26443L35.666 1.09168L36.3093 1.80076ZM45.5222 6.21502L48.2136 6.61338L45.155 4.41003L45.5222 6.21502ZM51.0131 9.29317L53.5071 12.4143L53.6015 9.64304L51.0131 9.29317ZM53.5071 53.8635L56.0733 53.5577L58.1957 50.0849L53.5071 53.8635ZM32.8099 0.61438L36.3093 1.80076L35.666 1.09168L32.8099 0.61438ZM42.4372 3.98167L45.5222 6.21502L45.155 4.41003L42.4372 3.98167ZM53.5071 53.8635L51.0131 56.9846L56.0733 53.5577L53.5071 53.8635ZM55.649 15.9379L58.1957 16.1929L56.0733 12.7201L55.649 15.9379Z" fill="#B0B0B0"/>
<path d="M29.1816 66.2709L32.8099 65.6632L36.3093 64.4768L29.1816 66.2709ZM36.3093 1.80057L32.8099 0.614184L29.1816 0.00646973L36.3093 1.80057Z" fill="#C4C4C4"/>
<path d="M45.5238 60.0625L48.2152 59.6642L51.0146 56.9844L45.5238 60.0625ZM36.3109 64.4768L32.8115 65.6632L39.1387 64.0131L36.3109 64.4768ZM45.5238 60.0625L42.4388 62.2959L48.2152 59.6642L45.5238 60.0625ZM36.3109 64.4768L39.1387 64.0131L42.4388 62.2959L36.3109 64.4768Z" fill="#B0B0B0"/>
<path d="M54.2438 28.3278L36.3116 1.80054L9.52148 7.92051L54.2438 28.3278Z" fill="#C4C4C4"/>
<path d="M55.6502 50.3398L58.197 50.0848L59.9239 46.2585L55.6502 50.3398ZM53.5083 12.4142L55.6502 15.9378L56.0745 12.72L53.5083 12.4142ZM48.3476 8.93262L51.0143 9.29307L48.2148 6.61328L48.3476 8.93262ZM57.3932 19.8209L59.9239 20.0191L58.197 16.1928L57.3932 19.8209ZM39.6383 3.54024L42.4384 3.98157L39.1383 2.26433L39.6383 3.54024ZM55.6502 50.3398L53.5083 53.8634L58.197 50.0848L55.6502 50.3398ZM57.3932 46.4567L59.9239 46.2585L61.2101 42.1249L57.3932 46.4567ZM45.5234 6.21492L48.3476 8.93262L48.2148 6.61328L45.5234 6.21492ZM36.3105 1.80066L39.6383 3.54024L39.1383 2.26433L36.3105 1.80066ZM58.6915 24.0166L61.2101 24.1527L59.9239 20.0191L58.6915 24.0166ZM55.6502 15.9378L57.3932 19.8209L58.197 16.1928L55.6502 15.9378ZM48.3476 57.345L51.0143 56.9845L53.5083 53.8634L48.3476 57.345ZM48.3476 57.345L45.5234 60.0627L51.0143 56.9845L48.3476 57.345Z" fill="#B0B0B0"/>
<path d="M29.1816 66.2706L36.3093 64.4765L42.7487 60.4728L29.1816 66.2706Z" fill="#C4C4C4"/>
<path d="M58.6915 42.2609L61.2101 42.1248L62.0117 37.7337L58.6915 42.2609ZM57.3932 46.4566L55.6502 50.3397L59.9239 46.2584L57.3932 46.4566ZM59.5007 28.4739L62.0117 28.5437L61.2101 24.1526L59.5007 28.4739ZM39.6383 62.7373L42.4384 62.2959L45.5234 60.0626L39.6383 62.7373ZM39.6383 62.7373L36.3105 64.4768L42.4384 62.2959L39.6383 62.7373ZM50.8641 12.099L53.5083 12.4141L51.0143 9.29297L50.8641 12.099ZM59.5007 37.8035L62.0117 37.7337L62.2876 33.1387L59.5007 37.8035ZM59.7792 33.1387H62.2876L62.0117 28.5437L59.7792 33.1387ZM57.3932 19.8208L58.6915 24.0165L59.9239 20.019L57.3932 19.8208Z" fill="#B0B0B0"/>
<path d="M15.1641 62.9094L42.7498 60.4731L54.2427 28.3279L15.1641 62.9094Z" fill="#C4C4C4"/>
<path d="M42.7493 5.80434L45.5228 6.21485L42.4378 3.98149L42.7493 5.80434ZM58.6908 42.2609L57.3926 46.4566L61.2094 42.1248L58.6908 42.2609ZM48.3469 8.93254L50.8635 12.0991L51.0136 9.29299L48.3469 8.93254ZM50.8635 54.1784L53.5077 53.8633L55.6496 50.3397L50.8635 54.1784ZM58.6908 24.0165L59.5001 28.4739L61.2094 24.1527L58.6908 24.0165ZM59.5001 37.8035L58.6908 42.2609L62.0111 37.7337L59.5001 37.8035ZM39.6377 3.54016L42.7493 5.80434L42.4378 3.98149L39.6377 3.54016ZM50.8635 54.1784L48.3469 57.3449L53.5077 53.8633L50.8635 54.1784ZM53.025 15.6749L55.6496 15.9377L53.5077 12.4141L53.025 15.6749ZM59.5001 28.4739L59.7785 33.1387L62.0111 28.5437L59.5001 28.4739ZM59.7785 33.1387L59.5001 37.8035L62.2869 33.1387H59.7785ZM42.7493 60.4731L45.5228 60.0626L48.3469 57.3449L42.7493 60.4731ZM42.7493 60.4731L39.6377 62.7373L45.5228 60.0626L42.7493 60.4731Z" fill="#B0B0B0"/>
<path d="M36.3105 64.4769L39.6383 62.7373L42.7499 60.4732L36.3105 64.4769ZM42.7499 5.80442L39.6383 3.54024L36.3105 1.80066L42.7499 5.80442Z" fill="#C4C4C4"/>
<path d="M53.0257 50.6022L55.6503 50.3394L57.3933 46.4563L53.0257 50.6022ZM50.8642 12.0988L53.0257 15.6747L53.5084 12.4139L50.8642 12.0988ZM45.5991 8.56076L48.3477 8.93227L45.5235 6.21458L45.5991 8.56076ZM54.785 19.6163L57.3933 19.8206L55.6503 15.9375L54.785 19.6163ZM53.0257 50.6022L50.8642 54.1781L55.6503 50.3394L53.0257 50.6022ZM54.785 46.6606L57.3933 46.4563L58.6916 42.2607L54.785 46.6606ZM42.75 5.80408L45.5991 8.56076L45.5235 6.21458L42.75 5.80408ZM56.0954 23.8759L58.6916 24.0162L57.3933 19.8206L56.0954 23.8759ZM53.0257 15.6747L54.785 19.6163L55.6503 15.9375L53.0257 15.6747ZM45.5991 57.7161L48.3477 57.3446L50.8642 54.1781L45.5991 57.7161Z" fill="#B0B0B0"/>
<path d="M48.1383 11.7743L42.7499 5.80442L36.3105 1.80066L48.1383 11.7743Z" fill="#C4C4C4"/>
<path d="M45.5991 57.7165L42.75 60.4732L48.3477 57.345L45.5991 57.7165ZM56.0954 42.4014L58.6916 42.2611L59.5008 37.8036L56.0954 42.4014ZM54.785 46.661L53.0257 50.6026L57.3933 46.4567L54.785 46.661ZM56.9124 28.4022L59.5008 28.4741L58.6916 24.0166L56.9124 28.4022ZM48.1383 11.7744L50.8642 12.0992L48.3477 8.93267L48.1383 11.7744ZM56.9124 37.8755L59.5008 37.8036L59.7793 33.1389L56.9124 37.8755ZM57.1935 33.1389H59.7793L59.5008 28.4741L57.1935 33.1389ZM54.785 19.6167L56.0954 23.8763L57.3933 19.821L54.785 19.6167ZM56.0954 42.4014L54.785 46.661L58.6916 42.2611L56.0954 42.4014ZM45.5991 8.56116L48.1383 11.7744L48.3477 8.93267L45.5991 8.56116ZM48.1383 54.5033L50.8642 54.1785L53.0257 50.6026L48.1383 54.5033ZM56.0954 23.8763L56.9124 28.4022L58.6916 24.0166L56.0954 23.8763ZM56.9124 37.8755L56.0954 42.4014L59.5008 37.8036L56.9124 37.8755ZM48.1383 54.5033L45.5991 57.7165L50.8642 54.1785L48.1383 54.5033ZM50.3197 15.4041L53.0257 15.6751L50.8642 12.0992L50.3197 15.4041ZM56.9124 28.4022L57.1935 33.1389L59.5008 28.4741L56.9124 28.4022ZM57.1935 33.1389L56.9124 37.8755L59.7793 33.1389H57.1935Z" fill="#B0B0B0"/>
<path d="M42.7499 60.4732L45.599 57.7165L48.1383 54.5033L42.7499 60.4732ZM48.1383 11.7743L45.599 8.5611L42.7499 5.80442L48.1383 11.7743ZM54.2428 28.328L48.1383 11.7743L36.3105 1.80066L54.2428 28.328Z" fill="#C4C4C4"/>
<path d="M50.322 50.8734L53.028 50.6024L54.7873 46.6608L50.322 50.8734ZM48.1406 11.7742L50.322 15.4039L50.8665 12.099L48.1406 11.7742ZM52.0977 19.4058L54.7873 19.6165L53.028 15.6748L52.0977 19.4058ZM50.322 50.8734L48.1406 54.5031L53.028 50.6024L50.322 50.8734Z" fill="#B0B0B0"/>
<path d="M42.75 60.4732L48.1383 54.5033L52.0954 46.8717L42.75 60.4732Z" fill="#C4C4C4"/>
<path d="M52.095 46.8718L54.7846 46.6611L56.0951 42.4015L52.095 46.8718ZM53.4178 23.7316L56.0951 23.8764L54.7846 19.6167L53.4178 23.7316ZM50.3193 15.4042L52.095 19.4061L53.0253 15.6751L50.3193 15.4042ZM53.4178 42.5462L56.0951 42.4015L56.912 37.8756L53.4178 42.5462ZM52.095 46.8718L50.3193 50.8737L54.7846 46.6611L52.095 46.8718ZM54.2425 28.3281L56.912 28.4023L56.0951 23.8764L54.2425 28.3281Z" fill="#B0B0B0"/>
<path d="M42.75 60.473L52.0954 46.8714L54.2429 28.3278L42.75 60.473Z" fill="#C4C4C4"/>
<path d="M54.2432 37.9495L56.9126 37.8753L57.1938 33.1387L54.2432 37.9495ZM54.527 33.1387H57.1938L56.9126 28.402L54.527 33.1387Z" fill="#B0B0B0"/>
<path d="M48.1406 54.5031L50.322 50.8734L52.0977 46.8715L48.1406 54.5031ZM52.0977 19.4058L50.322 15.4039L48.1406 11.7742L52.0977 19.4058Z" fill="#C4C4C4"/>
<path d="M52.0957 19.4061L53.4185 23.7317L54.7853 19.6168L52.0957 19.4061ZM53.4185 42.5463L52.0957 46.8718L56.0958 42.4015L53.4185 42.5463ZM53.4185 23.7317L54.2432 28.3281L56.0958 23.8764L53.4185 23.7317Z" fill="#B0B0B0"/>
<path d="M54.2452 28.3278L52.0977 19.4058L48.1406 11.7742L54.2452 28.3278Z" fill="#C4C4C4"/>
<path d="M54.2446 37.9495L53.4199 42.546L56.9141 37.8754L54.2446 37.9495ZM54.2446 28.3279L54.5284 33.1387L56.9141 28.402L54.2446 28.3279ZM54.5284 33.1387L54.2446 37.9495L57.1952 33.1387H54.5284Z" fill="#B0B0B0"/>
<path d="M52.0957 46.8718L53.4185 42.5463L54.2432 37.9498L52.0957 46.8718ZM54.2432 28.3281L53.4185 23.7317L52.0957 19.4061L54.2432 28.3281ZM52.0957 46.8718L54.2432 37.9498V28.3281L52.0957 46.8718ZM54.2432 37.9498L54.527 33.139L54.2432 28.3281V37.9498Z" fill="#C4C4C4"/>
<path d="M54.2864 33.2557C54.2864 51.4417 42.1714 66.0113 27.4205 66.0113C12.6697 66.0113 0.554688 51.4417 0.554688 33.2557C0.554688 15.0696 12.6697 0.5 27.4205 0.5C42.1714 0.5 54.2864 15.0696 54.2864 33.2557Z" fill="url(#paint0_linear_1115_101749)" stroke="url(#paint1_linear_1115_101749)"/>
<g filter="url(#filter0_d_1115_101749)">
<path d="M20.7422 28.441L23.8173 28.5039L26.9874 25.7174L20.7422 28.441ZM23.9381 25.6201L20.7422 28.441L26.9874 25.7174L23.9381 25.6201Z" fill="#E5E5E5"/>
<path d="M18.4902 24.395L20.7409 28.4407L23.9368 25.6198L18.4902 24.395Z" fill="white"/>
<path d="M28.2539 48.8718L31.2679 48.6872V18.6577L28.2539 48.8718Z" fill="#E5E5E5"/>
<path d="M28.2538 18.4728L18.4912 24.3954L23.9378 25.6202L28.2538 18.4728ZM28.2538 18.4728L25.1339 18.5348L18.4912 24.3954L28.2538 18.4728Z" fill="white"/>
<path d="M28.2539 18.4727V48.8714L31.2679 18.6573L28.2539 18.4727Z" fill="#E5E5E5"/>
<path fill-rule="evenodd" clip-rule="evenodd" d="M28.2539 48.8714V18.4727L31.2679 18.6573L28.2539 48.8714ZM28.2539 48.8718L31.2679 48.6872V18.6577L28.2539 48.8718ZM20.7422 28.441L23.8173 28.5039L26.9874 25.7174L23.9381 25.6201L20.7422 28.441Z" fill="url(#paint2_linear_1115_101749)"/>
<path d="M23.9385 25.6201V48.7855L28.2545 18.4727L23.9385 25.6201ZM23.9385 48.7855L28.2545 48.8714V18.4727L23.9385 48.7855Z" fill="white"/>
</g>
<path d="M30.1905 0.235008L28.8555 0.0239258C29.3052 0.0850532 29.7502 0.155462 30.1905 0.235008L41.3888 2.00552C43.2698 2.47926 47.9105 4.21928 51.4252 7.38939C54.9399 10.5595 57.5989 14.8265 58.489 16.5638L60.4273 20.871C61.4467 24.1301 63.227 31.8975 62.1932 36.8938C61.573 41.9247 59.6951 46.8866 58.8336 48.7387C57.7568 51.3374 54.1732 57.422 48.4532 60.9712C45.4382 63.5124 39.0635 65.02 33.7225 65.5799C34.383 65.4076 35.8417 64.9941 36.393 64.7185C37.0822 64.3739 56.1877 56.0442 54.4905 30.279C53.1635 14.2515 44.0238 2.73414 30.1905 0.235008Z" fill="url(#paint3_linear_1115_101749)"/>
<defs>
<filter id="filter0_d_1115_101749" x="13.4902" y="10.4727" width="32.7773" height="50.3992" filterUnits="userSpaceOnUse" color-interpolation-filters="sRGB">
<feFlood flood-opacity="0" result="BackgroundImageFix"/>
<feColorMatrix in="SourceAlpha" type="matrix" values="0 0 0 0 0 0 0 0 0 0 0 0 0 0 0 0 0 0 127 0" result="hardAlpha"/>
<feOffset dx="5" dy="2"/>
<feGaussianBlur stdDeviation="5"/>
<feColorMatrix type="matrix" values="0 0 0 0 0.32339 0 0 0 0 0.157604 0 0 0 0 0.425 0 0 0 0.3 0"/>
<feBlend mode="normal" in2="BackgroundImageFix" result="effect1_dropShadow_1115_101749"/>
<feBlend mode="normal" in="SourceGraphic" in2="effect1_dropShadow_1115_101749" result="shape"/>
</filter>
<linearGradient id="paint0_linear_1115_101749" x1="27.4205" y1="0" x2="39.678" y2="67.9304" gradientUnits="userSpaceOnUse">
<stop stop-color="#DEE5F8"/>
<stop offset="1" stop-color="#BDBEE3"/>
</linearGradient>
<linearGradient id="paint1_linear_1115_101749" x1="37.7472" y1="53.3677" x2="-5.44678" y2="2.09893" gradientUnits="userSpaceOnUse">
<stop stop-color="white" stop-opacity="0.7"/>
<stop offset="1" stop-color="#A0A3CF"/>
</linearGradient>
<linearGradient id="paint2_linear_1115_101749" x1="27.5133" y1="1.5798" x2="28.6809" y2="51.1495" gradientUnits="userSpaceOnUse">
<stop stop-color="#F0E3FA"/>
<stop offset="1" stop-color="#EFEDF0"/>
</linearGradient>
<linearGradient id="paint3_linear_1115_101749" x1="79.2246" y1="27.416" x2="12.3571" y2="39.2922" gradientUnits="userSpaceOnUse">
<stop stop-color="#BDBEE3"/>
<stop offset="1" stop-color="#DEE5F8"/>
</linearGradient>
</defs>
</svg>
