<svg width="42" height="28" fill="none" xmlns="http://www.w3.org/2000/svg"><g clip-path="url(#a)" fill="#A0A3CF" stroke="#fff" stroke-width=".2"><path d="M38.594 7.1h.1V4.455c0-1.109-.908-2.01-2.022-2.01H4.64a2.018 2.018 0 0 0-2.022 2.01V7.1h35.975ZM2.719 9.445h-.1v14.1c0 1.109.907 2.01 2.022 2.01h32.03a2.019 2.019 0 0 0 2.023-2.01v-14.1H2.719ZM4.64.1h32.03c2.419 0 4.385 1.954 4.385 4.355v19.09c0 2.4-1.966 4.355-4.384 4.355H4.64c-2.418 0-4.385-1.954-4.385-4.354V4.454C.256 2.055 2.223.1 4.641.1Z"/><path d="M9.125 21.537H7.844a1.177 1.177 0 0 1-1.182-1.173V19.09c0-.647.529-1.173 1.182-1.173h1.281c.653 0 1.181.526 1.181 1.173v1.273c0 .647-.528 1.172-1.181 1.172Z"/></g><defs><clipPath id="a"><path fill="#fff" transform="translate(.156)" d="M0 0h41v28H0z"/></clipPath></defs></svg>