<svg width="32" height="32" fill="none" xmlns="http://www.w3.org/2000/svg"><path d="M27.64 21.88c-1.945-1.55-3.918-2.489-5.839-.94l-1.147.935c-.839.679-2.399 3.851-8.431-2.616-6.03-6.459-2.442-7.465-1.602-8.138l1.154-.936c1.91-1.552 1.19-3.504-.189-5.515l-.831-1.217C9.37 1.447 7.863.13 5.947 1.679l-1.035.843c-.846.575-3.213 2.443-3.787 5.993-.691 4.26 1.488 9.137 6.482 14.488 4.987 5.354 9.87 8.043 14.495 7.996 3.843-.038 6.165-1.96 6.89-2.66l1.04-.844c1.91-1.547.723-3.123-1.223-4.677l-1.169-.938Z" stroke="#A0A3CF" stroke-width="2"/></svg>