<svg width="64" height="67" fill="none" xmlns="http://www.w3.org/2000/svg"><path d="m.947 28.917-.22 4.221.22 4.221v-8.442Zm1.686-7.94-1.686 7.94v8.442l1.686-16.381ZM.947 37.36l.644 4.063L2.633 45.3.947 37.36Zm1.686-16.381L1.59 24.855l-.644 4.062 1.686-7.94ZM.947 37.359l1.686 7.94 3.189 7.085L.947 37.36Zm1.686 7.94 1.417 3.665 1.772 3.42-3.19-7.085Zm3.189-31.407L4.05 17.313l-1.417 3.665 3.189-7.086Zm4.524-5.972L2.633 20.978.947 37.359l9.4-29.439Zm0 0-4.524 5.972-3.19 7.086L10.347 7.92ZM.947 37.36l4.875 15.024L16.048 62.91.948 37.36Zm9.4-29.44-2.42 2.83-2.105 3.142 4.524-5.972ZM5.821 52.384l2.105 3.144 2.42 2.828-4.525-5.972ZM10.346 7.92.947 37.36l15.101 25.549L10.346 7.92ZM5.822 52.384l4.524 5.972 5.702 4.553L5.822 52.384Zm4.524 5.972 2.714 2.475 2.988 2.078-5.702-4.553Zm5.702-54.988L13.06 5.445 10.346 7.92l5.702-4.552Z" fill="#C4C4C4"/><path d="m35.955 65.32 2.75-.455 3.58-.593-6.33 1.048Z" fill="#B0B0B0"/><path d="m22.768.594-6.72 2.774-5.701 4.553L22.768.594Z" fill="#C4C4C4"/><path d="m39.563 1.555 2.723.45-3.58-.593.857.143ZM35.956.957l3.608.598-.857-.143-2.75-.455Zm3.608 63.765-3.608.598 6.33-1.048-2.721.45Zm0 0 2.723-.45 3.45-1.146-6.172 1.596Z" fill="#B0B0B0"/><path d="m16.047 62.91 3.243 1.633 3.477 1.14-6.72-2.774ZM22.767.593l-3.477 1.14-3.243 1.634 6.72-2.774Z" fill="#C4C4C4"/><path d="m43.044 2.714 2.694.437-3.45-1.146.756.71Zm-3.479-1.16 3.479 1.16-.757-.709-2.722-.45ZM33.126 65.79l2.83-.469 3.61-.598-6.44 1.067Zm9.918-2.226-3.479 1.16 6.172-1.597-2.693.437Zm0 0 2.694-.437 3.278-1.675-5.972 2.112ZM36.763 1.09l2.802.464-3.608-.598.806.134Z" fill="#B0B0B0"/><path d="m16.047 62.91 6.72 2.773 7.443.588-14.163-3.362Z" fill="#C4C4C4"/><path d="m46.35 4.41 2.666.416-3.279-1.675.613 1.259ZM33.126.488l3.637.603-.806-.134-2.831-.469Z" fill="#B0B0B0"/><path d="M37.413 1.8 22.768.595 10.347 7.92 37.413 1.8Z" fill="#C4C4C4"/><path d="M43.044 2.714 46.35 4.41l-.613-1.259-2.693-.437Zm-6.281 62.472-3.637.603 6.44-1.067-2.803.464Zm0 0 2.802-.464 3.479-1.16-6.281 1.624Zm9.587-3.319 2.666-.416 3.064-2.174-5.73 2.59Zm0 0-3.306 1.696 5.972-2.112-2.666.416ZM40.27 2.264l2.774.45-3.479-1.16.705.71Zm9.17 4.349L52.08 7l-3.064-2.175.424 1.788Z" fill="#B0B0B0"/><path d="m22.766 65.683 3.688.594 3.755-.006-7.443-.588ZM30.209.006 26.454 0l-3.688.594 7.443-.588Z" fill="#C4C4C4"/><path d="m36.763 1.091 3.507 1.173-.705-.71-2.802-.463ZM46.35 4.41l3.09 2.203-.424-1.787-2.666-.416Z" fill="#B0B0B0"/><path d="m10.347 7.92 5.702 54.989L55.53 28.327 10.347 7.92Z" fill="#C4C4C4"/><path d="m30.209 66.27 2.914-.481 3.637-.603-6.551 1.085Zm19.228-6.606 2.64-.387 2.804-2.643-5.444 3.03Zm-9.17 4.349-3.507 1.173 6.28-1.623-2.773.45Zm9.17-4.349-3.09 2.203 5.73-2.59-2.64.387Zm-9.17 4.349 2.774-.45 3.306-1.696-6.08 2.146ZM33.875.614l2.885.477-3.637-.603.752.126Zm18.39 8.679 2.616.35L52.077 7l.189 2.293ZM43.602 3.98l2.746.429-3.306-1.696.56 1.267ZM30.21.006l3.666.608-.752-.126L30.21.006Zm19.228 6.607 2.829 2.68L52.077 7l-2.64-.387Z" fill="#B0B0B0"/><path d="m16.047 62.91 14.163 3.36 13.707-5.797-27.87 2.436ZM37.41 1.8 30.21.006l-7.444.588L37.41 1.8Z" fill="#C4C4C4"/><path d="m40.267 2.264 3.334 1.718-.56-1.268-2.774-.45Zm11.999 54.72 2.615-.35 2.497-3.076-5.112 3.426Zm-18.391 8.68-3.666.607 6.551-1.085-2.885.477Zm18.39-8.68-2.828 2.68 5.444-3.03-2.615.35Zm-18.39 8.68 2.885-.478 3.507-1.173-6.392 1.65Zm9.726-3.368 2.746-.428 3.09-2.204-5.836 2.632Zm0 0-3.334 1.717 6.08-2.145-2.746.428Zm11.184-49.882 2.593.306-2.497-3.077-.096 2.771ZM37.41 1.801l2.857.463-3.507-1.172.65.709Zm9.308 4.414 2.72.398-3.09-2.203.37 1.805Zm5.548 3.078 2.52 3.121.095-2.771-2.615-.35Zm2.52 44.57 2.592-.305 2.145-3.473-4.738 3.778ZM33.874.614l3.535 1.187-.65-.71-2.885-.477ZM43.6 3.982l3.117 2.233-.37-1.805-2.747-.428Zm11.184 49.881-2.52 3.121 5.113-3.426-2.593.305Zm2.165-37.925 2.572.255-2.144-3.473-.428 3.218Z" fill="#B0B0B0"/><path d="m30.209 66.27 3.666-.607 3.535-1.186-7.201 1.794ZM37.41 1.8 33.875.614 30.209.006 37.41 1.8Z" fill="#C4C4C4"/><path d="m46.72 60.063 2.72-.399 2.828-2.68-5.548 3.078Zm-9.307 4.414-3.536 1.186 6.392-1.65-2.856.464Zm9.307-4.415-3.116 2.234 5.836-2.632-2.72.398Zm-9.307 4.415 2.856-.464 3.335-1.717-6.191 2.18Z" fill="#B0B0B0"/><path d="M55.53 28.328 37.414 1.8 10.347 7.92 55.53 28.328Z" fill="#C4C4C4"/><path d="m56.951 50.34 2.573-.256 1.745-3.826-4.318 4.081Zm-2.164-37.926 2.164 3.523.43-3.217-2.594-.306Zm-5.214-3.482 2.695.36-2.829-2.68.134 2.32Zm9.14 10.888 2.556.199-1.745-3.826-.812 3.627ZM40.773 3.54l2.83.441-3.335-1.717.505 1.276Zm16.177 46.8-2.164 3.523 4.737-3.779-2.573.255Zm1.761-3.884 2.557-.198 1.3-4.134-3.857 4.332ZM46.72 6.215l2.853 2.717-.134-2.32-2.719-.397ZM37.412 1.8l3.362 1.74-.505-1.276-2.857-.464Zm22.612 22.216 2.545.136-1.3-4.133-1.245 3.997Zm-3.073-8.079 1.761 3.883.812-3.628-2.573-.255Zm-7.378 41.408 2.695-.36 2.52-3.122-5.215 3.482Zm0 0-2.853 2.717 5.548-3.078-2.695.36Z" fill="#B0B0B0"/><path d="m30.209 66.27 7.201-1.794 6.506-4.003L30.21 66.27Z" fill="#C4C4C4"/><path d="m60.024 42.26 2.545-.135.81-4.391-3.355 4.527Zm-1.312 4.197-1.76 3.883 4.317-4.082-2.557.199Zm2.13-17.983 2.537.07-.81-4.391-1.727 4.32ZM40.774 62.737l2.83-.441 3.116-2.233-5.946 2.674Zm0 0-3.362 1.74 6.191-2.181-2.829.441ZM52.116 12.1l2.671.315-2.52-3.121-.151 2.806Zm8.726 25.704 2.537-.07.278-4.594-2.815 4.664Zm.281-4.664h2.534l-.278-4.595-2.256 4.595Zm-2.41-13.318 1.311 4.195 1.245-3.997-2.557-.198Z" fill="#B0B0B0"/><path d="m16.047 62.91 27.87-2.437L55.53 28.328 16.047 62.909Z" fill="#C4C4C4"/><path d="m43.917 5.804 2.802.41-3.117-2.233.315 1.823Zm16.106 36.457-1.311 4.195 3.856-4.331-2.545.136ZM49.573 8.932l2.542 3.167.152-2.806-2.695-.36Zm2.542 45.246 2.672-.315 2.164-3.523-4.836 3.838Zm7.908-30.162.818 4.458 1.727-4.322-2.545-.136Zm.818 13.787-.818 4.458 3.355-4.527-2.537.07ZM40.773 3.54l3.144 2.264-.315-1.823-2.829-.441Zm11.342 50.638-2.543 3.167 5.215-3.482-2.672.315ZM54.3 15.675l2.652.263-2.164-3.524-.488 3.26Zm6.542 12.799.281 4.665 2.256-4.595-2.537-.07Zm.281 4.665-.281 4.664 2.815-4.664h-2.534ZM43.917 60.473l2.802-.41 2.853-2.718-5.655 3.128Zm0 0-3.144 2.264 5.946-2.675-2.802.411Z" fill="#B0B0B0"/><path d="m37.412 64.477 3.362-1.74 3.144-2.264-6.506 4.004Zm6.506-58.673L40.774 3.54 37.412 1.8l6.506 4.004Z" fill="#C4C4C4"/><path d="m54.3 50.602 2.651-.263 1.761-3.883-4.412 4.146Zm-2.184-38.504 2.184 3.576.487-3.26-2.671-.316Zm-5.32-3.538 2.777.372-2.853-2.718.077 2.346Zm9.281 11.056 2.635.204-1.76-3.883-.875 3.679ZM54.3 50.602l-2.184 3.576 4.835-3.839-2.651.263Zm1.777-3.942 2.635-.204 1.312-4.196-3.947 4.4ZM43.918 5.804l2.879 2.756-.077-2.346-2.802-.41Zm13.483 18.072 2.623.14-1.312-4.196-1.31 4.055ZM54.3 15.673l1.777 3.942.874-3.679-2.651-.263Zm-7.503 42.042 2.776-.372 2.543-3.166-5.32 3.538Z" fill="#B0B0B0"/><path d="m49.362 11.774-5.444-5.97L37.412 1.8l11.95 9.974Z" fill="#C4C4C4"/><path d="m46.797 57.716-2.879 2.757 5.655-3.128-2.776.371ZM57.4 42.401l2.623-.14.818-4.458-3.44 4.598Zm-1.324 4.26L54.3 50.602l4.412-4.145-2.635.204Zm2.15-18.259 2.615.072-.818-4.457-1.797 4.385Zm-8.865-16.628 2.754.325-2.543-3.166-.211 2.841Zm8.864 26.101 2.616-.072.281-4.664-2.896 4.736Zm.285-4.736h2.612l-.281-4.665-2.331 4.665Zm-2.434-13.523 1.324 4.26 1.311-4.055-2.635-.205ZM57.4 42.401l-1.324 4.26 3.947-4.4-2.623.14ZM46.796 8.561l2.566 3.213.211-2.841-2.776-.372Zm2.566 45.942 2.754-.325 2.184-3.575-4.938 3.9Zm8.04-30.627.825 4.526 1.797-4.386-2.623-.14Zm.825 14L57.4 42.4l3.44-4.598-2.614.072Zm-8.865 16.627-2.566 3.213 5.32-3.538-2.754.325Zm2.204-39.099 2.734.27-2.184-3.575-.55 3.305Zm6.66 12.998.285 4.737 2.33-4.665-2.614-.072Zm.285 4.737-.285 4.736 2.897-4.736h-2.612Z" fill="#B0B0B0"/><path d="m43.918 60.473 2.878-2.757 2.566-3.213-5.444 5.97Zm5.444-48.699-2.566-3.213-2.878-2.757 5.444 5.97Zm6.167 16.554-6.167-16.554L37.412 1.8 55.53 28.328Z" fill="#C4C4C4"/><path d="m51.568 50.873 2.734-.27 1.778-3.942-4.512 4.212Zm-2.204-39.1 2.204 3.63.55-3.304-2.754-.325Zm3.998 7.633 2.718.21-1.778-3.941-.94 3.73Zm-1.794 31.467-2.204 3.63 4.938-3.9-2.734.27Z" fill="#B0B0B0"/><path d="m43.918 60.473 5.444-5.97 3.998-7.631-9.442 13.601Z" fill="#C4C4C4"/><path d="m53.36 46.871 2.717-.21L57.4 42.4l-4.042 4.47Zm1.336-23.14 2.705.145-1.324-4.26-1.381 4.115Zm-3.13-8.327 1.793 4.002.94-3.731-2.734-.271Zm3.13 27.142L57.4 42.4l.825-4.526-3.53 4.67Zm-1.337 4.325-1.794 4.002 4.512-4.212-2.718.21Zm2.17-18.543 2.697.074-.825-4.526-1.872 4.452Z" fill="#B0B0B0"/><path d="M43.918 60.473 53.36 46.87l2.17-18.543-11.612 32.145Z" fill="#C4C4C4"/><path d="m55.53 37.95 2.696-.075.284-4.736-2.98 4.81Zm.286-4.812h2.694l-.284-4.736-2.41 4.736Z" fill="#B0B0B0"/><path d="m49.364 54.503 2.204-3.63 1.794-4.002-3.998 7.632Zm3.998-35.097-1.794-4.002-2.204-3.63 3.998 7.632Z" fill="#C4C4C4"/><path d="m53.36 19.406 1.336 4.325 1.38-4.115-2.717-.21Zm1.336 23.14-1.337 4.325 4.042-4.47-2.705.145Zm0-18.815.833 4.597 1.872-4.452-2.705-.145Z" fill="#B0B0B0"/><path d="m55.532 28.328-2.17-8.922-3.998-7.632 6.168 16.554Z" fill="#C4C4C4"/><path d="m55.531 37.95-.833 4.596 3.53-4.67-2.697.073Zm0-9.622.287 4.81 2.41-4.736-2.697-.074Zm.287 4.81-.287 4.811 2.982-4.81h-2.695Z" fill="#B0B0B0"/><path d="m53.36 46.871 1.336-4.325.833-4.597-2.17 8.922Zm2.17-18.543-.834-4.597-1.337-4.325 2.17 8.922ZM53.36 46.87l2.17-8.922v-9.621L53.36 46.87Zm2.17-8.922.286-4.81-.287-4.811v9.621Z" fill="#C4C4C4"/><path d="M55.579 33.256c0 18.18-12.237 32.755-27.149 32.755-14.91 0-27.148-14.574-27.148-32.755C1.282 15.075 13.52.5 28.43.5c14.913 0 27.15 14.575 27.15 32.756Z" fill="url(#a)" stroke="url(#b)"/><g filter="url(#c)"><path d="m19.478 41.11 4.967-.073-.347-.622-4.62.694Zm.363.573 4.965-.077-.361-.57-4.604.647Zm-.192-16.033 4.966.072.3-.537-5.266.465Zm.301-.542 4.965.077.315-.491-5.28.414Zm.27 17.096 4.964-.082-.378-.516-4.586.598Zm.046-17.591 4.964.08.33-.444-5.294.364Zm.348 18.058 4.963-.087-.393-.462-4.57.55Zm-.018-18.508 4.964.086.344-.4-5.308.314Zm.428 18.921 4.962-.09-.409-.41-4.553.5Zm-.083-19.324 4.963.09.359-.354-5.322.264Zm.51 19.684 4.96-.094-.425-.356-4.536.45Zm-.15-20.04 4.962.092.374-.307-5.336.215Zm-2.17 17.077.347.628 4.62-.694-4.967.066Zm2.761 3.269 4.96-.097-.44-.303-4.52.4Zm-.216-20.657 4.96.096.39-.261-5.35.165Z" fill="#E5E5E5"/><path d="m17.057 44.628.181.392.196.379-.377-.77Z" fill="#fff"/><path d="m19.477 41.11.363.574 4.603-.647-4.966.072Zm.471-16.002-.3.542 5.266-.465-4.966-.076Zm2.401 18.894 4.959-.1-.457-.25-4.502.35Zm-.285-21.172 4.96.098.403-.215-5.363.117ZM19.84 41.684l.378.52 4.587-.598-4.965.078Z" fill="#E5E5E5"/><path d="m17.437 45.399.21.364.225.35-.435-.714Zm1.691-4.917-2.236 3.74.167.407 2.07-4.147Zm-.935-19.945-.398.72-.354.785.752-1.505Z" fill="#fff"/><path d="m20.267 24.613-.316.495 5.28-.414-4.964-.081Z" fill="#E5E5E5"/><path d="m19.126 40.481-2.07 4.148.378.77 1.692-4.918ZM17.434 45.4l.436.715.493.659-.929-1.374Z" fill="#fff"/><path d="m22.469 22.613 4.958.1.418-.17-5.376.07Zm.354 21.586 4.957-.101-.473-.196-4.484.297Zm-2.605-1.994.394.467 4.57-.55-4.964.083Z" fill="#E5E5E5"/><path d="m17.871 46.114.24.336.253.323-.493-.66Z" fill="#fff"/><path d="m20.595 24.164-.33.449 5.294-.364-4.964-.085Z" fill="#E5E5E5"/><path d="m19.121 19.296-.927 1.24-.752 1.506 1.68-2.746Zm.008 21.186-1.692 4.917.93 1.374.762-6.291Z" fill="#fff"/><path d="m22.887 22.442 4.957.102.433-.123-5.39.02Zm-2.276 20.23.41.413 4.553-.5-4.963.086Zm2.7 1.67 4.956-.102-.488-.142-4.468.245ZM20.938 23.76l-.345.403 5.308-.314-4.963-.089Z" fill="#E5E5E5"/><path d="m18.364 46.773.268.309.284.295-.552-.604Zm.755-27.477-.486.587-.442.654.928-1.24Z" fill="#fff"/><path d="m23.322 22.318 4.956.103.448-.077-5.404-.026Zm-2.3 20.766.426.36 4.536-.45-4.963.09Zm.277-19.68-.36.356 5.321-.264-4.962-.092Z" fill="#E5E5E5"/><path d="m18.368 46.773.552.604.61.548-1.162-1.152Z" fill="#fff"/><path d="m23.82 44.432 4.954-.103-.505-.089-4.45.192Z" fill="#E5E5E5"/><path d="m19.475 41.11-.347-.628-.763 6.291 1.11-5.663ZM17.44 22.043l2.206 3.608.3-.542-2.506-3.067Zm0 0 2.507 3.066.316-.496-2.823-2.57Zm1.476 25.334.298.28.312.268-.61-.548Z" fill="#fff"/><path d="m21.675 23.093-.375.31 5.335-.214-4.96-.096Zm2.098-.852 4.954.104.464-.03-5.418-.074Zm-2.324 21.203.442.306 4.519-.4-4.961.094Z" fill="#E5E5E5"/><path d="m21.509 17.614-2.389 1.682-1.68 2.746 4.069-4.428Zm-4.069 4.428 2.823 2.571.33-.45-3.153-2.12Z" fill="#fff"/><path d="m24.342 44.468 4.953-.105-.521-.034-4.432.139Z" fill="#E5E5E5"/><path d="m18.368 46.773 1.162 1.152 1.387.886-2.549-2.038Z" fill="#fff"/><path d="m22.062 22.83-.39.264 5.349-.166-4.96-.098Zm2.173-.62 4.953.105.245.003-5.198-.108Z" fill="#E5E5E5"/><path d="m17.44 22.042 3.153 2.121.345-.402-3.498-1.719Zm2.785-3.72-.575.454-.53.52 1.105-.974Z" fill="#fff"/><path d="m21.893 43.75.458.252 4.502-.35-4.96.098Zm2.755.714 4.952-.105-.303.004-4.65.1Z" fill="#E5E5E5"/><path d="m19.526 47.925.327.254.345.23-.672-.484ZM17.44 22.043l3.498 1.718.36-.357-3.858-1.361Z" fill="#fff"/><path d="m22.47 22.613-.405.217 5.363-.117-4.958-.1Z" fill="#E5E5E5"/><path d="m17.44 22.043 3.858 1.361.375-.31-4.233-1.052Z" fill="#fff"/><path d="m22.35 44.002.475.198 4.484-.298-4.958.1Z" fill="#E5E5E5"/><path d="m19.526 47.925.672.483.716.402-1.388-.885Zm1.983-30.311-1.284.708-1.105.974 2.389-1.682Zm-4.069 4.428 4.233 1.052.39-.264-4.623-.788Z" fill="#fff"/><path d="m22.888 22.442-.42.17 5.377-.068-4.957-.102Z" fill="#E5E5E5"/><path d="m20.201 48.408.354.21.362.192-.716-.402Z" fill="#fff"/><path d="m25.157 49.67 4.95-.153.553-.04-5.503.194Zm-2.335-5.47.49.143 4.468-.245-4.958.102Z" fill="#E5E5E5"/><path d="m17.44 22.043 4.623.787.404-.217-5.027-.57Zm2.035 19.067-1.11 5.663 5.776 2.883-4.666-8.546Z" fill="#fff"/><path d="m25.652 17.04 4.95.152-.505-.035-4.445-.118Zm-2.328 5.278-.434.124 5.39-.021-4.956-.103Z" fill="#E5E5E5"/><path d="m21.509 17.614-.664.32-.62.388 1.284-.708Zm-4.069 4.428 5.027.57.42-.17-5.447-.4Zm.925 24.73 2.549 2.038 3.227.846-5.776-2.883Z" fill="#fff"/><path d="m23.314 44.343.507.09 4.45-.193-4.957.103Z" fill="#E5E5E5"/><path d="m19.84 41.683-.363-.574 4.666 8.547-4.303-7.973Z" fill="#fff"/><path d="m25.709 49.63 4.95-.153.536-.076-5.486.229Z" fill="#E5E5E5"/><path d="m17.44 22.043 5.447.4.434-.125-5.88-.276Z" fill="#fff"/><path d="m26.143 17.106 4.948.152-.487-.066-4.46-.086Zm-2.367 5.135-.45.077 5.404.027-4.954-.104Z" fill="#E5E5E5"/><path d="m20.914 48.81.371.173.38.154-.751-.327Zm-.698-6.605-.378-.521 4.303 7.972-3.924-7.451ZM17.44 22.043l5.881.275.45-.077-6.33-.198Z" fill="#fff"/><path d="m23.82 44.432.522.035 4.432-.138-4.955.103Z" fill="#E5E5E5"/><path d="m20.612 42.671-.394-.467 3.924 7.452-3.53-6.985Zm.303 6.139.752.326.789.25-1.541-.576Z" fill="#fff"/><path d="m26.251 49.553 4.948-.152.52-.112-5.468.264ZM24.238 22.21l-.465.03 5.419.074-4.954-.104Zm2.375-5.006 4.947.151-.471-.097-4.476-.054Z" fill="#E5E5E5"/><path d="m17.44 22.042 6.331.199.465-.03-6.796-.169Zm9.17-4.838-5.101.41-4.069 4.428 9.17-4.838Zm-5.589 25.88-.41-.413 3.53 6.985-3.12-6.571Zm-3.58-21.042 6.795.168.246.004-7.042-.172Z" fill="#fff"/><path d="m24.482 22.214-.246-.004 5.199.108-4.953-.104Z" fill="#E5E5E5"/><path d="m21.666 49.136.39.135.398.115-.788-.25Z" fill="#fff"/><path d="m24.342 44.468.303-.004 4.65-.1-4.953.104Zm2.725-27.135 4.945.15-.454-.127-4.491-.023Z" fill="#E5E5E5"/><path d="m21.45 43.444-.426-.36 3.12 6.572-2.693-6.212Z" fill="#fff"/><path d="m26.771 49.44 4.947-.15.505-.147-5.451.298Z" fill="#E5E5E5"/><path d="m22.977 17.172-.755.187-.71.254 1.465-.44ZM21.893 43.75l-.442-.306 2.693 6.212-2.251-5.906Zm-.976 5.06 1.54.576 1.687.27-3.227-.846Zm1.09-18.404v5.187l1.743.005-1.743-5.192Z" fill="#fff"/><path d="m27.504 17.494 4.944.149-.437-.16-4.507.01Zm-.226 31.798 4.945-.15.49-.182-5.435.332Z" fill="#E5E5E5"/><path d="m22.347 44.002-.458-.252 2.252 5.906-1.794-5.654Zm4.264-26.798-9.17 4.838 7.04.172 2.13-5.01Zm-4.157 32.182.408.096.417.077-.825-.173Z" fill="#fff"/><path d="m25.145 17.004.506.036 4.444.117-4.95-.153Z" fill="#E5E5E5"/><path d="m24.623 17-1.648.173-1.464.44L24.623 17Z" fill="#fff"/><path d="m27.924 17.686 4.943.147-.42-.19-4.523.043Z" fill="#E5E5E5"/><path d="m22.825 44.2-.474-.198 1.793 5.654-1.32-5.456Z" fill="#fff"/><path d="m25.71 49.63-.554.04 5.504-.193-4.95.153Zm2.059-.521 4.943-.149.473-.218-5.416.367Zm.159-16.407 4.943.006v-.135l-4.943.129Z" fill="#E5E5E5"/><path d="m22.005 30.406 1.743 5.192.349.01-2.092-5.202Zm.45 18.98.826.173.862.097-1.687-.27Z" fill="#fff"/><path d="m27.928 32.565 4.942.007.603-.376-5.545.37Z" fill="#E5E5E5"/><path d="m23.313 44.343-.49-.144 1.319 5.457-.83-5.313Z" fill="#fff"/><path d="m28.292 32.796 4.941.005-.363-.094-4.578.089Zm.036-14.886 4.942.145-.403-.222-4.539.077Zm-2.679-.87.49.066 4.46.086-4.95-.153Z" fill="#E5E5E5"/><path d="m22.005 30.406 2.092 5.201.336.026-2.428-5.227Z" fill="#fff"/><path d="m28.245 48.888 4.942-.146.457-.254-5.399.4Z" fill="#E5E5E5"/><path d="m23.281 49.56.427.057.435.04-.862-.097Z" fill="#fff"/><path d="m26.247 49.553-.538.077 5.486-.23-4.948.153Z" fill="#E5E5E5"/><path d="m22.005 30.407 2.428 5.226.323.042-2.751-5.268Zm1.815 14.025-.507-.09.83 5.314-.323-5.224ZM24.622 17l-.846.053-.8.12L24.621 17Z" fill="#fff"/><path d="m28.643 32.912 4.94.004-.35-.115-4.59.11Zm.071-14.747 4.94.143-.384-.253-4.556.11Z" fill="#E5E5E5"/><path d="m22.005 30.406 2.751 5.269.31.058-3.061-5.327Z" fill="#fff"/><path d="m26.14 17.106.472.098 4.476.054-4.948-.152Zm2.393 15.08 4.94.01.552-.421-5.492.41Zm.17 16.447 4.94-.145.441-.289-5.381.434Zm.278-15.582 4.94.002-.337-.137-4.603.135Z" fill="#E5E5E5"/><path d="m22.005 30.406 3.061 5.327.298.074-3.36-5.4Z" fill="#fff"/><path d="m29.086 18.452 4.94.14-.369-.284-4.571.144Zm-2.312 30.989-.523.112 5.469-.264-4.946.152Z" fill="#E5E5E5"/><path d="M26.613 17.204 24.623 17l-3.112.614 5.102-.41Zm-4.608 13.203 3.359 5.4.284.092-3.643-5.492Zm1.568-.007-1.568.007 5.454 6.791-3.886-6.798Z" fill="#fff"/><path d="m26.612 17.204.455.129 4.492.022-4.947-.151Zm2.694 16.007 4.938.002-.323-.16-4.615.158Zm-.22-1.451 4.94.014.499-.467-5.439.453Z" fill="#E5E5E5"/><path d="m22.005 30.406 3.643 5.492.272.108-3.915-5.6Z" fill="#fff"/><path d="m29.145 48.34 4.94-.141.425-.325-5.364.466Zm.292-29.57 4.938.138-.35-.316-4.588.179Z" fill="#E5E5E5"/><path d="m24.143 49.656.444.02.57-.006-1.014-.014Zm-2.138-19.25 3.915 5.6.258.123-4.173-5.723Z" fill="#fff"/><path d="m27.278 49.293-.506.148 5.45-.298-4.944.15Zm2.337-15.898h4.938l-.31-.182-4.628.182Zm-2.549-16.062.438.161 4.507-.01-4.945-.15Z" fill="#E5E5E5"/><path d="m22.005 30.406 4.173 5.723.246.14-4.42-5.863Z" fill="#fff"/><path d="m29.773 19.121 4.938.134-.334-.347-4.604.213Zm-.199 28.892 4.938-.139.409-.36-5.347.498Zm.015-16.725 4.938.02.447-.513-5.385.493Z" fill="#E5E5E5"/><path d="m24.143 49.656 1.014.014.555-.04-1.57.026Zm-2.138-19.25 4.419 5.864.232.156-4.651-6.02Zm1.832-.015-.264.01 4.195 7.264-3.93-7.274Z" fill="#fff"/><path d="m29.914 33.6 4.937-.002-.296-.203-4.64.205Z" fill="#E5E5E5"/><path d="m25.651 17.04-.506-.036-.523-.004 1.03.04Zm-3.646 13.367 4.651 6.02.22.172-4.871-6.192Z" fill="#fff"/><path d="m30.083 19.49 4.936.13-.31-.365-4.626.235Z" fill="#E5E5E5"/><path d="m24.096 30.364-.257.027 3.93 7.275-3.673-7.302Z" fill="#fff"/><path d="m27.769 49.109-.49.184 5.433-.333-4.943.149Z" fill="#E5E5E5"/><path d="m26.611 17.204-2.129 5.01.237.018 1.892-5.028Z" fill="#fff"/><path d="m27.503 17.494.42.192 4.524-.043-4.944-.15Z" fill="#E5E5E5"/><path d="m22.005 30.406 4.87 6.193.207.19-5.077-6.383Z" fill="#fff"/><path d="m30.195 33.828 4.936-.004-.282-.226-4.654.23Zm-.215 13.82 4.937-.135.392-.396-5.328.531Zm.054-16.877 4.937.024.395-.559-5.332.535Z" fill="#E5E5E5"/><path d="m26.612 17.204-1.892 5.028.227.033 1.665-5.061ZM24.345 30.32l-.25.043 3.802 7.557-3.552-7.6Zm-2.34.085 5.077 6.383.197.197-5.274-6.58Z" fill="#fff"/><path d="m30.367 19.88 4.936.128-.284-.387-4.652.26Z" fill="#E5E5E5"/><path d="m24.144 49.656 1.569-.027 1.06-.189-2.63.216Z" fill="#fff"/><path d="M27.928 32.565v.137l4.942-.13-4.942-.007Z" fill="#E5E5E5"/><path d="m26.612 17.204-1.665 5.06.217.048 1.448-5.108Zm-4.607 13.202 5.274 6.58.18.212-5.454-6.792Zm2.582-.145-.242.06 3.552 7.6-3.31-7.66Z" fill="#fff"/><path d="m30.465 34.078 4.935-.007-.269-.247-4.666.254Z" fill="#E5E5E5"/><path d="m26.612 17.204-.961-.165L24.622 17l1.99.204Z" fill="#fff"/><path d="m27.927 32.702.364.094 4.579-.088-4.943-.006Zm-.003-15.016.403.224 4.54-.077-4.943-.147Z" fill="#E5E5E5"/><path d="m26.61 17.204-1.448 5.108.208.062 1.24-5.17Z" fill="#fff"/><path d="m28.243 48.888-.474.22 5.416-.366-4.942.146Zm2.13-1.641 4.936-.131.368-.435-5.304.566Z" fill="#E5E5E5"/><path d="m24.822 30.183-.236.078 3.31 7.66-3.074-7.738Z" fill="#fff"/><path d="m30.625 20.294 4.935.123-.257-.41-4.678.287Zm-.194 9.912 4.935.03.343-.604-5.278.574Z" fill="#E5E5E5"/><path d="m26.612 17.204-1.24 5.17.197.077 1.043-5.247Z" fill="#fff"/><path d="m30.723 34.35 4.934-.009-.255-.27-4.68.28Z" fill="#E5E5E5"/><path d="m25.05 30.089-.228.094 3.186 8.008-2.957-8.102Z" fill="#fff"/><path d="m28.532 32.185-.604.38 5.545-.369-4.94-.01Z" fill="#E5E5E5"/><path d="m26.61 17.204-1.043 5.247.189.091.854-5.338Z" fill="#fff"/><path d="m30.857 20.728 4.934.119-.23-.43-4.704.31Zm-2.564 12.068.35.116 4.592-.111-4.942-.005Zm2.45 14.013 4.935-.128.337-.459-5.271.587Zm-2.414-28.9.387.256 4.555-.11-4.942-.145Z" fill="#E5E5E5"/><path d="m26.61 17.204-.854 5.338.178.106.677-5.444Z" fill="#fff"/><path d="m30.774 29.597 4.935.035.29-.65-5.225.615Z" fill="#E5E5E5"/><path d="m25.272 29.977-.221.112 2.957 8.102-2.736-8.214Z" fill="#fff"/><path d="m30.964 34.645 4.934-.012-.242-.292-4.692.304Z" fill="#E5E5E5"/><path d="m26.61 17.203-.471-.097-.49-.067.962.164Z" fill="#fff"/><path d="m28.704 48.632-.459.256 5.4-.4-4.941.144Z" fill="#E5E5E5"/><path d="m26.612 17.204-.676 5.444.17.121.506-5.565ZM23.573 30.4l3.886 6.798.163.227-4.049-7.025Z" fill="#fff"/><path d="m31.063 21.184 4.933.115-.203-.452-4.73.337Z" fill="#E5E5E5"/><path d="m25.712 49.63.538-.077.523-.113-1.061.19Zm-.225-19.78-.214.127 2.736 8.214-2.522-8.342Zm-1.914.55 4.05 7.025.145.24-4.195-7.265Zm3.04-13.196-.508 5.565.16.136.347-5.701Z" fill="#fff"/><path d="m31.191 34.962 4.933-.015-.228-.315-4.705.33Zm-.126-6.022 4.933.042.238-.695-5.171.654Zm-2.422 3.972.337.138 4.603-.134-4.94-.004Zm2.594-11.251 4.933.11-.177-.473-4.756.363Zm-.157 24.684 4.934-.123.304-.485-5.238.608Z" fill="#E5E5E5"/><path d="m25.693 29.704-.207.145 2.616 8.626-2.409-8.771Zm.918-12.5-.348 5.7.15.15.198-5.85Z" fill="#fff"/><path d="m28.715 18.165.369.287 4.571-.144-4.94-.143Z" fill="#E5E5E5"/><path d="m26.61 17.204-.198 5.85.14.166.059-6.016Z" fill="#fff"/><path d="m29.086 31.76-.553.425 5.492-.41-4.94-.015Z" fill="#E5E5E5"/><path d="m24.142 49.656 2.63-.216 1.93-.808-4.56 1.024Zm-.323-5.224.323 5.224 7.519-4.314-7.842-.91Zm2.075-14.891-.2.162 2.409 8.772-2.21-8.934Z" fill="#fff"/><path d="m31.406 35.301 4.933-.018-.215-.336-4.718.354Zm-.02-13.14 4.933.105-.15-.494-4.782.388Z" fill="#E5E5E5"/><path d="m24.094 30.364 3.673 7.302.13.255-3.803-7.557Z" fill="#fff"/><path d="m31.305 28.24 4.932.048.185-.74-5.117.691Z" fill="#E5E5E5"/><path d="m24.342 44.467-.523-.035 7.842.91-7.319-.875Zm2.27-27.263-.059 6.015.13.17-.071-6.185Z" fill="#fff"/><path d="m29.146 48.34-.442.292 5.382-.433-4.94.141Zm2.366-25.659 4.932.1-.123-.515-4.81.415Z" fill="#E5E5E5"/><path d="m26.612 17.204.071 6.186.118.182-.189-6.368Z" fill="#fff"/><path d="m31.386 45.856 4.933-.118.273-.51-5.206.628Zm-2.405-12.805.323.16 4.616-.157-4.94-.003Z" fill="#E5E5E5"/><path d="m26.086 29.362-.192.18 2.286 9.233-2.094-9.413Z" fill="#fff"/><path d="m31.49 27.492 4.933.055.132-.785-5.065.73Zm.123 8.16 4.932-.023-.205-.346-4.727.368Z" fill="#E5E5E5"/><path d="m26.612 17.204.19 6.368.106.193-.296-6.561Z" fill="#fff"/><path d="m31.603 23.223 4.932.096-.095-.537-4.837.441Zm-2.521-4.77.352.318 4.587-.179-4.939-.14Z" fill="#E5E5E5"/><path d="m26.61 17.204.295 6.561.096.205-.391-6.766Zm-.34 11.961-.186.197 2.094 9.412-1.909-9.609Z" fill="#fff"/><path d="m31.623 26.7 4.932.062.08-.83-5.012.767Zm.052-2.913 4.931.09-.068-.558-4.863.468Z" fill="#E5E5E5"/><path d="m24.645 44.463-.303.004 7.319.875-7.016-.879Zm1.967-27.26.391 6.767.085.217-.476-6.983Zm-1.79 12.98 3.074 7.738.112.27-3.185-8.008Z" fill="#fff"/><path d="m31.715 24.372 4.932.084-.041-.579-4.891.495Zm-.013 1.49 4.932.07.026-.875-4.958.804Zm.027-.884 4.931.079-.013-.6-4.918.52Z" fill="#E5E5E5"/><path d="m26.612 17.204.476 6.983.073.228-.549-7.211Z" fill="#fff"/><path d="m31.8 36.014 4.931-.025-.187-.36-4.744.385Zm-.139 9.329 4.932-.114.24-.533-5.172.647Z" fill="#E5E5E5"/><path d="m26.445 28.955-.175.21 1.909 9.61-1.734-9.82Zm.166-11.751.549 7.21.062.24-.611-7.45Z" fill="#fff"/><path d="m29.305 33.211.31.184 4.628-.182-4.938-.002Z" fill="#E5E5E5"/><path d="m26.612 17.204.611 7.45.051.251-.662-7.701Z" fill="#fff"/><path d="m29.587 31.288-.501.472 5.439-.453-4.938-.019Zm-.015 16.724-.427.328 5.365-.466-4.938.138Z" fill="#E5E5E5"/><path d="m27.505 17.494-.438-.161-.455-.13.893.29Zm-.893-.29.662 7.701.039.263-.701-7.964Zm-1.674 27.238-.293.021 7.016.88-6.723-.9Zm1.674-27.238.701 7.964.028.274-.73-8.238Zm-.007 11.532-.16.22 1.795 10.132-1.635-10.352Z" fill="#fff"/><path d="m31.969 36.389 4.93-.03-.169-.37-4.761.4ZM29.435 18.77l.335.35 4.604-.212-4.939-.138Zm2.467 26.033 4.93-.108.21-.559-5.14.667Z" fill="#E5E5E5"/><path d="m26.746 28.507-.144.229 1.635 10.352-1.49-10.58Zm-1.262 1.342 2.521 8.342.095.284-2.616-8.626Zm-.267 14.555-.281.038 6.722.9-6.44-.938Zm1.553 5.036.506-.148.491-.184-.997.333Zm.105-21.171-.129.238 1.491 10.58-1.362-10.818Z" fill="#fff"/><path d="m32.122 36.777 4.93-.033-.151-.384-4.78.417Zm-2.506-3.382.297.205 4.641-.206-4.938.001Z" fill="#E5E5E5"/><path d="m26.99 28.021-.113.248 1.405 11.147-1.291-11.394Z" fill="#fff"/><path d="m32.113 44.24 4.93-.103.178-.583-5.108.686Z" fill="#E5E5E5"/><path d="m25.894 29.541 2.209 8.934.077.3-2.286-9.234Z" fill="#fff"/><path d="m32.253 37.177 4.93-.036-.134-.397-4.796.433Z" fill="#E5E5E5"/><path d="m27.09 27.765-.099.257 1.292 11.394-1.193-11.651Zm-1.6 16.584-.27.055 6.44.939-6.17-.994Z" fill="#fff"/><path d="m29.984 47.648-.41.364 5.347-.499-4.937.135Z" fill="#E5E5E5"/><path d="m28.33 17.91-.825-.416-.893-.29 1.718.706Z" fill="#fff"/><path d="m29.77 19.121.311.37 4.625-.236-4.937-.134Zm.264 11.65-.449.517 5.385-.493-4.936-.025Z" fill="#E5E5E5"/><path d="m27.172 27.498-.083.267 1.193 11.65-1.11-11.917Z" fill="#fff"/><path d="m32.372 37.59 4.93-.04-.117-.41-4.813.45Zm-.082 6.06 4.93-.097.145-.607-5.075.705Z" fill="#E5E5E5"/><path d="m26.447 28.955 1.734 9.82.06.313-1.794-10.133Z" fill="#fff"/><path d="m29.914 33.6.283.228 4.654-.23-4.937.002Z" fill="#E5E5E5"/><path d="m25.75 44.276-.26.073 6.17.993-5.91-1.066Z" fill="#fff"/><path d="m32.47 38.017 4.929-.045-.098-.422-4.831.467Z" fill="#E5E5E5"/><path d="M27.93 32.702v-.137l-.755-5.067.755 5.204Z" fill="#fff"/><path d="m32.434 43.038 4.929-.092.113-.633-5.042.724Zm.115-4.583 4.929-.048-.08-.435-4.85.483Z" fill="#E5E5E5"/><path d="m26.771 49.44.998-.332.933-.476-1.93.808Z" fill="#fff"/><path d="m32.547 42.4 4.929-.087.08-.656-5.01.742Z" fill="#E5E5E5"/><path d="m27.175 27.498 1.109 11.918-.354-6.714-.755-5.204Z" fill="#fff"/><path d="m30.083 19.49.285.39 4.651-.26-4.936-.13Z" fill="#E5E5E5"/><path d="m26.878 28.269 1.362 10.819.043.328-1.405-11.147Zm-.88 15.917-.248.09 5.91 1.066L26 44.186Z" fill="#fff"/><path d="m32.612 38.907 4.929-.053-.063-.447-4.866.5Zm.045.464 4.928-.057-.044-.46-4.884.517Zm-.03 2.366 4.93-.08.048-.68-4.977.76Zm-2.253 5.51-.393.401 5.328-.532-4.935.132Zm2.31-7.4 4.928-.06-.027-.473-4.901.534Zm-.008 1.202 4.929-.073.016-.705-4.945.778Zm.017-.712 4.928-.066-.009-.485-4.92.551Zm-2.498-6.509.27.25 4.666-.255-4.936.005Zm.235-3.622-.396.564 5.332-.534-4.936-.03Z" fill="#E5E5E5"/><path d="m28.327 17.91-.403-.224-.421-.192.824.416Zm-2.092 26.169-.238.107 5.662 1.156-5.424-1.263Z" fill="#fff"/><path d="m30.367 19.88.258.414 4.678-.286-4.936-.127Z" fill="#E5E5E5"/><path d="m26.465 43.955-.227.124 5.424 1.264-5.197-1.388Zm-2.321 5.701 4.56-1.023 2.958-3.29-7.518 4.313Z" fill="#fff"/><path d="m30.465 34.078.256.273 4.68-.28-4.936.007Z" fill="#E5E5E5"/><path d="m28.284 39.416.025.342-.38-7.056.355 6.714ZM29.77 19.12l-1.44-1.21-1.718-.706 3.159 1.917Z" fill="#fff"/><path d="m30.744 46.808-.369.439 5.304-.566-4.935.127Z" fill="#E5E5E5"/><path d="m27.768 49.109.475-.22.459-.256-.934.476Zm-1.09-5.296-.216.142 5.198 1.388-4.983-1.53Z" fill="#fff"/><path d="m30.774 29.597-.343.61 5.278-.575-4.935-.035Z" fill="#E5E5E5"/><path d="m28.643 32.912-.351-.116-.364-.094.715.21Z" fill="#fff"/><path d="m30.628 20.294.231.434 4.704-.311-4.935-.123Z" fill="#E5E5E5"/><path d="m26.88 43.654-.204.159 4.982 1.53-4.778-1.69Z" fill="#fff"/><path d="m30.723 34.35.242.295 4.692-.304-4.934.01Z" fill="#E5E5E5"/><path d="m31.51 22.68-4.898-5.476.73 8.238 4.169-2.761Zm-3.58 9.885.603-.38.553-.425-1.157.805Zm-.854 10.913-.193.176 4.778 1.688-4.585-1.864Z" fill="#fff"/><path d="m30.856 20.727.204.456 4.73-.336-4.934-.12Zm.225 25.618-.338.463 5.271-.586-4.933.123Zm-.016-17.405-.29.656 5.224-.614-4.934-.042Z" fill="#E5E5E5"/><path d="m29.306 33.212-.661-.3-.715-.21 1.376.51Zm2.205-10.53-4.268 4.54-.068.276 4.336-4.817Z" fill="#fff"/><path d="m30.964 34.645.229.317 4.705-.33-4.934.013Z" fill="#E5E5E5"/><path d="m27.26 43.284-.183.194 4.585 1.864-4.403-2.058Zm4.251-20.603-4.214 4.256-.054.285 4.268-4.541Zm-2.425-4.23-.37-.286-.386-.255.756.542Zm2.425 4.23-4.177 3.961-.037.295 4.214-4.256Zm0 0-4.154 3.657-.023.304 4.177-3.961Z" fill="#fff"/><path d="m31.063 21.184.176.478 4.757-.363-4.934-.115Z" fill="#E5E5E5"/><path d="m31.508 22.681-4.169 2.761.017.286 4.152-3.047Zm0 0-4.146 3.344-.008.313 4.154-3.657Zm0 0-4.152 3.047.006.297 4.146-3.344Zm-4.083 20.396-.17.208 4.404 2.057-4.234-2.265Z" fill="#fff"/><path d="m31.305 28.24-.239.7 5.171-.653-4.932-.048Z" fill="#E5E5E5"/><path d="m27.93 32.565 3.581-9.884-4.336 4.817.755 5.067Z" fill="#fff"/><path d="m31.192 34.963.215.34 4.719-.356-4.934.016Z" fill="#E5E5E5"/><path d="m27.581 42.859-.154.218 4.234 2.265-4.08-2.483Z" fill="#fff"/><path d="m31.387 45.856-.306.489 5.238-.607-4.932.118Zm-.15-24.195.15.5 4.783-.39-4.933-.11Z" fill="#E5E5E5"/><path d="m29.306 33.211-.324-.16-.337-.139.66.3Zm-1.584 9.42-.14.228 4.08 2.483-3.94-2.71Zm.207-10.066 1.157-.805.95-.99-2.107 1.795Z" fill="#fff"/><path d="m31.49 27.492-.185.747 5.117-.692-4.932-.055Zm-.102-5.332.123.52 4.81-.414-4.933-.106Z" fill="#E5E5E5"/><path d="m29.77 19.12-.686-.668-.755-.542 1.441 1.21Zm-1.924 23.273-.125.238 3.94 2.711-3.815-2.949Z" fill="#fff"/><path d="m31.408 35.302.205.35 4.728-.369-4.933.019Z" fill="#E5E5E5"/><path d="m28.703 48.633.443-.293.426-.328-.869.62Zm-.746-6.489-.11.25 3.814 2.948-3.704-3.197Z" fill="#fff"/><path d="m31.508 22.681.095.542 4.837-.441-4.932-.1Zm.15 22.661-.273.514 5.205-.627-4.932.113ZM31.62 26.7l-.133.793 5.065-.73-4.932-.063Z" fill="#E5E5E5"/><path d="m28.051 41.885-.095.26 3.704 3.197-3.609-3.457Zm2.414-7.807-1.16-.866-1.377-.51 2.537 1.376Z" fill="#fff"/><path d="m31.605 23.223.069.563 4.863-.468-4.931-.095Z" fill="#E5E5E5"/><path d="m28.134 41.616-.081.27 3.608 3.456-3.527-3.726Z" fill="#fff"/><path d="m31.7 25.86-.079.84 5.011-.768-4.931-.071Zm-.089 9.791.188.362 4.744-.384-4.932.022Z" fill="#E5E5E5"/><path d="m31.51 22.68-1.74-3.56-3.158-1.916 4.899 5.477Zm-3.2 17.078 3.351 5.584-3.732-12.64.38 7.056Z" fill="#fff"/><path d="m31.675 23.786.04.585 4.891-.495-4.931-.09Zm.04.585.014.606 4.918-.521-4.931-.085Zm.014.606-.026.884 4.958-.805-4.932-.079Z" fill="#E5E5E5"/><path d="m28.2 41.336-.067.28 3.527 3.726-3.46-4.006Zm.05-.29-.05.29 3.46 4.006-3.41-4.296Zm.038-.3-.037.3 3.41 4.296-3.373-4.596Zm.022-.31-.022.31 3.372 4.596-3.35-4.906Zm-.002-.678.009.357 3.343 5.227-3.352-5.584Zm.009.357-.007.32 3.35 4.907-3.343-5.227ZM29.77 19.12l-.334-.35-.352-.319.686.669Z" fill="#fff"/><path d="m31.903 44.804-.242.538 5.173-.647-4.931.109Zm-.103-8.79.17.375 4.761-.4-4.931.025Z" fill="#E5E5E5"/><path d="m28.704 48.632.869-.62.803-.765-1.672 1.385Zm.383-16.872.5-.472.45-.518-.95.99Zm.827 1.84-.297-.205-.31-.184.607.389Z" fill="#fff"/><path d="m31.968 36.388.152.388 4.779-.417-4.93.03Zm.143 7.851-.21.564 5.14-.667-4.93.103Z" fill="#E5E5E5"/><path d="m27.928 32.565 2.106-1.795 1.27-2.53-3.376 4.325Z" fill="#fff"/><path d="m32.122 36.777.134.4 4.797-.433-4.93.033Zm.169 6.874-.178.589 5.108-.686-4.93.097Z" fill="#E5E5E5"/><path d="m30.465 34.078-.553-.478-.607-.389 1.16.867Z" fill="#fff"/><path d="m32.253 37.177.116.413 4.814-.45-4.93.037Z" fill="#E5E5E5"/><path d="m29.574 48.012.41-.364.393-.4-.803.764Z" fill="#fff"/><path d="m32.435 43.038-.145.613 5.075-.705-4.93.092Zm-.063-5.447.098.426 4.831-.467-4.93.04Z" fill="#E5E5E5"/><path d="m30.367 19.881-.285-.39-.313-.37.598.76Z" fill="#fff"/><path d="m32.468 38.016.08.44 4.85-.484-4.93.044Zm.079 4.383-.113.639 5.042-.724-4.93.085Z" fill="#E5E5E5"/><path d="m32.12 36.776-1.655-2.698-2.537-1.376 4.192 4.075Z" fill="#fff"/><path d="m32.55 38.455.063.452 4.867-.5-4.93.048Z" fill="#E5E5E5"/><path d="m30.467 34.078-.27-.25-.283-.228.553.478Z" fill="#fff"/><path d="m32.628 41.736-.081.663 5.01-.742-4.93.08Zm-.016-2.83.044.465 4.885-.517-4.93.053Z" fill="#E5E5E5"/><path d="m28.702 48.633 1.672-1.385 1.286-1.906-2.958 3.29Zm-.774-16.068 3.375-4.326.206-5.558-3.581 9.884Z" fill="#fff"/><path d="m32.678 41.05-.048.687 4.977-.76-4.929.072Zm-.02-1.679.027.477 4.902-.534-4.928.057Zm.027.477.01.49 4.92-.552-4.93.062Zm.01.49-.017.711 4.945-.778-4.928.066Z" fill="#E5E5E5"/><path d="m30.856 20.728-.49-.847-.596-.76 1.086 1.607Zm-.822 10.042.396-.563.344-.61-.74 1.173Zm1.626 14.573.46-8.566-4.192-4.075 3.732 12.64Zm-.804-24.615-.231-.434-.258-.413.489.847Zm-.822 10.042.74-1.173.53-1.357-1.27 2.53Zm1.475-8.089-.653-1.953-1.087-1.607 1.74 3.56Zm-.546 11.964-.242-.294-.256-.273.498.567Zm-.59 12.603.37-.439.338-.464-.707.903Zm1.033-11.946-.443-.657-.498-.567.941 1.224Zm-1.032 11.946.707-.903.579-1.002-1.286 1.905Zm.4-17.651.29-.656.24-.701-.53 1.357Zm.463-7.935-.177-.478-.204-.456.38.934Zm.17 13.64-.216-.34-.228-.317.443.657Zm.102-12.62-.272-1.02-.381-.934.653 1.953Zm.611 14.095-.714-1.475-.941-1.224 1.655 2.699Zm-1.04 9.568.306-.489.274-.513-.58 1.002Zm.43-23.664-.123-.52-.15-.5.272 1.02Zm-.207 5.559.186-.748.132-.792-.318 1.54Zm0 0 .424-3.262-.218-2.297-.206 5.559Zm0 0 .318-1.54.106-1.722-.424 3.262Zm.37-4.453-.068-.564-.096-.542.164 1.106Zm.126 12.227-.188-.363-.205-.349.393.712Zm-.072-11.036-.054-1.191-.164-1.106.218 2.297Zm-.106 1.722.08-.839.026-.883-.106 1.722Zm.106-1.722-.013-.606-.041-.585.054 1.19Zm.393 11.799-.321-.763-.393-.712.714 1.475Zm-.46 8.566.242-.54.21-.563-.452 1.103Zm.46-8.566-.152-.388-.17-.375.322.763Zm-.46 8.566.451-1.103.323-1.202-.774 2.305Zm0 0 1.032-5.006-.572-3.56-.46 8.566Zm.71-7.752-.116-.414-.134-.4.25.814Zm-.71 7.752.774-2.305.258-2.7-1.032 5.005Zm.451-1.103.178-.589.145-.613-.323 1.202Zm.438-5.784-.179-.865-.25-.814.43 1.679Zm.143 1.881-.143-1.881-.429-1.68.572 3.561Zm-.143-1.881-.08-.44-.099-.425.18.865Zm-.115 4.582.113-.638.08-.663-.193 1.3Zm0 0 .194-1.301.064-1.4-.258 2.7Zm.222-3.667-.044-.464-.063-.451.107.915Zm.036.966-.036-.966-.107-.915.143 1.881Zm-.064 1.4.048-.688.016-.712-.064 1.4Zm.064-1.4-.009-.489-.027-.477.036.966Z" fill="#fff"/></g><path d="m30.493 17.167-5.314-.166c1.275.057 2.181.43 2.774.699.593.268 1.212.746 1.864 1.442.522.556.991 1.445 1.16 1.82.057.109.235.558.492 1.484.258.926.283 2.186.263 2.7-.017.562-.092 1.845-.254 2.482-.204.797-.399 1.468-.94 2.416-.543.947-.772 1.064-1.39 1.66-.495.476-1.014.763-1.212.847v.15c2.067.412 3.186 1.88 3.838 3.271.658 1.107.879 2.854.907 3.59a12.445 12.445 0 0 1-.33 3.873c-.12.459-.477 1.589-.958 2.44-.481.853-1.46 1.815-1.89 2.19-.132.103-.589.424-1.355.88-1.037.476-2.234.668-2.703.704 1.082-.022 3.647-.089 5.253-.176 1.356-.127 2.367-.618 2.703-.847.353-.17 1.286-.773 2.194-1.82.908-1.046 1.469-2.577 1.635-3.211.153-.626.444-2.264.39-3.807-.054-1.543-.39-2.64-.55-2.994-.102-.4-.545-1.468-1.5-2.54-.956-1.074-2.206-1.482-2.711-1.552v-.151c.341-.157 1.196-.666 1.88-1.45.89-.772 1.509-2.684 1.653-3.255.115-.389.223-1.436.262-1.912.026-.673.024-2.24-.186-3.119-.263-1.099-.43-1.481-.645-1.916a7.386 7.386 0 0 0-1.204-1.757 6.234 6.234 0 0 0-1.817-1.348c-.683-.394-1.824-.582-2.31-.627Z" fill="#C4C4C4"/><path d="m30.493 17.167-5.314-.166c1.275.057 2.181.43 2.774.699.593.268 1.212.746 1.864 1.442.522.556.991 1.445 1.16 1.82.057.109.235.558.492 1.484.258.926.283 2.186.263 2.7-.017.562-.092 1.845-.254 2.482-.204.797-.399 1.468-.94 2.416-.543.947-.772 1.064-1.39 1.66-.495.476-1.014.763-1.212.847v.15c2.067.412 3.186 1.88 3.838 3.271.658 1.107.879 2.854.907 3.59a12.445 12.445 0 0 1-.33 3.873c-.12.459-.477 1.589-.958 2.44-.481.853-1.46 1.815-1.89 2.19-.132.103-.589.424-1.355.88-1.037.476-2.234.668-2.703.704 1.082-.022 3.647-.089 5.253-.176 1.356-.127 2.367-.618 2.703-.847.353-.17 1.286-.773 2.194-1.82.908-1.046 1.469-2.577 1.635-3.211.153-.626.444-2.264.39-3.807-.054-1.543-.39-2.64-.55-2.994-.102-.4-.545-1.468-1.5-2.54-.956-1.074-2.206-1.482-2.711-1.552v-.151c.341-.157 1.196-.666 1.88-1.45.89-.772 1.509-2.684 1.653-3.255.115-.389.223-1.436.262-1.912.026-.673.024-2.24-.186-3.119-.263-1.099-.43-1.481-.645-1.916a7.386 7.386 0 0 0-1.204-1.757 6.234 6.234 0 0 0-1.817-1.348c-.683-.394-1.824-.582-2.31-.627Z" fill="url(#d)"/><path d="m30.493 17.167-5.314-.166c1.275.057 2.181.43 2.774.699.593.268 1.212.746 1.864 1.442.522.556.991 1.445 1.16 1.82.057.109.235.558.492 1.484.258.926.283 2.186.263 2.7-.017.562-.092 1.845-.254 2.482-.204.797-.399 1.468-.94 2.416-.543.947-.772 1.064-1.39 1.66-.495.476-1.014.763-1.212.847v.15c2.067.412 3.186 1.88 3.838 3.271.658 1.107.879 2.854.907 3.59a12.445 12.445 0 0 1-.33 3.873c-.12.459-.477 1.589-.958 2.44-.481.853-1.46 1.815-1.89 2.19-.132.103-.589.424-1.355.88-1.037.476-2.234.668-2.703.704 1.082-.022 3.647-.089 5.253-.176 1.356-.127 2.367-.618 2.703-.847.353-.17 1.286-.773 2.194-1.82.908-1.046 1.469-2.577 1.635-3.211.153-.626.444-2.264.39-3.807-.054-1.543-.39-2.64-.55-2.994-.102-.4-.545-1.468-1.5-2.54-.956-1.074-2.206-1.482-2.711-1.552v-.151c.341-.157 1.196-.666 1.88-1.45.89-.772 1.509-2.684 1.653-3.255.115-.389.223-1.436.262-1.912.026-.673.024-2.24-.186-3.119-.263-1.099-.43-1.481-.645-1.916a7.386 7.386 0 0 0-1.204-1.757 6.234 6.234 0 0 0-1.817-1.348c-.683-.394-1.824-.582-2.31-.627Z" fill="url(#e)"/><path d="m24.132 40.4-5.001.07c.443 1.003 1.358 2.102 1.612 2.362.144.193.983.889 1.474 1.115.136.042 1.17.604 2.694.511 1.03-.107 1.734-.575 1.957-.796-1.177-.797-2.1-1.946-2.736-3.262Z" fill="#C4C4C4"/><path d="m24.132 40.4-5.001.07c.443 1.003 1.358 2.102 1.612 2.362.144.193.983.889 1.474 1.115.136.042 1.17.604 2.694.511 1.03-.107 1.734-.575 1.957-.796-1.177-.797-2.1-1.946-2.736-3.262Z" fill="url(#f)"/><path d="M26.583 23.257c-2.906-2.832-6.233.615-6.92 2.415.961.037 3.309.11 5.012.11.32-1.106 1.405-2.144 1.908-2.525Z" fill="#C4C4C4"/><path d="M26.583 23.257c-2.906-2.832-6.233.615-6.92 2.415.961.037 3.309.11 5.012.11.32-1.106 1.405-2.144 1.908-2.525Z" fill="url(#g)"/><path d="m31.229.235-1.35-.211c.455.061.905.131 1.35.211l11.314 1.77c1.9.474 6.589 2.214 10.14 5.384 3.55 3.17 6.237 7.437 7.136 9.175l1.959 4.307c1.03 3.26 2.828 11.027 1.784 16.023-.627 5.03-2.524 9.993-3.395 11.845-1.087 2.598-4.708 8.683-10.487 12.232-3.046 2.541-9.487 4.049-14.883 4.609.667-.172 2.141-.586 2.698-.861.697-.345 20-8.675 18.284-34.44C54.44 14.252 45.205 2.734 31.23.235Z" fill="url(#h)"/><defs><linearGradient id="a" x1="28.43" y1="0" x2="40.571" y2="67.974" gradientUnits="userSpaceOnUse"><stop stop-color="#DEE5F8"/><stop offset="1" stop-color="#BDBEE3"/></linearGradient><linearGradient id="b" x1="38.864" y1="53.368" x2="-4.253" y2="1.663" gradientUnits="userSpaceOnUse"><stop stop-color="#fff" stop-opacity=".7"/><stop offset="1" stop-color="#A0A3CF"/></linearGradient><linearGradient id="d" x1="31.403" y1="17.002" x2="31.403" y2="49.649" gradientUnits="userSpaceOnUse"><stop stop-color="#E5E5E5"/><stop offset="1" stop-color="#E5E5E5" stop-opacity="0"/></linearGradient><linearGradient id="e" x1="54.464" y1="38.669" x2="31.492" y2="49.833" gradientUnits="userSpaceOnUse"><stop stop-color="#EFE6F6"/><stop offset="1" stop-color="#EEECF0"/></linearGradient><linearGradient id="f" x1="22.954" y1="36.5" x2="22.954" y2="52" gradientUnits="userSpaceOnUse"><stop offset=".161" stop-color="#F4F4F4"/><stop offset=".755" stop-color="#E5E5E5" stop-opacity="0"/></linearGradient><linearGradient id="g" x1="23.123" y1="22.181" x2="22.957" y2="31" gradientUnits="userSpaceOnUse"><stop stop-color="#E5E5E5"/><stop offset="1" stop-color="#E5E5E5" stop-opacity="0"/></linearGradient><linearGradient id="h" x1="80.769" y1="27.416" x2="13.254" y2="39.531" gradientUnits="userSpaceOnUse"><stop stop-color="#BDBEE3"/><stop offset="1" stop-color="#DEE5F8"/></linearGradient><filter id="c" x="11.892" y="9" width="40.731" height="52.675" filterUnits="userSpaceOnUse" color-interpolation-filters="sRGB"><feFlood flood-opacity="0" result="BackgroundImageFix"/><feColorMatrix in="SourceAlpha" values="0 0 0 0 0 0 0 0 0 0 0 0 0 0 0 0 0 0 127 0" result="hardAlpha"/><feOffset dx="5" dy="2"/><feGaussianBlur stdDeviation="5"/><feColorMatrix values="0 0 0 0 0.321569 0 0 0 0 0.156863 0 0 0 0 0.423529 0 0 0 0.3 0"/><feBlend in2="BackgroundImageFix" result="effect1_dropShadow_1115_95793"/><feBlend in="SourceGraphic" in2="effect1_dropShadow_1115_95793" result="shape"/></filter></defs></svg>