<svg width="64" height="67" fill="none" xmlns="http://www.w3.org/2000/svg"><path d="m.947 28.917-.22 4.221.22 4.221v-8.442Zm1.686-7.94-1.686 7.94v8.442l1.686-16.381ZM.947 37.36l.644 4.063L2.633 45.3.947 37.36Zm1.686-16.381L1.59 24.855l-.644 4.062 1.686-7.94ZM.947 37.359l1.686 7.94 3.189 7.085L.947 37.36Zm1.686 7.94 1.417 3.665 1.772 3.42-3.19-7.085Zm3.189-31.407L4.05 17.313l-1.417 3.665 3.189-7.086Zm4.524-5.972L2.633 20.978.947 37.359l9.4-29.439Zm0 0-4.524 5.972-3.19 7.086L10.347 7.92ZM.947 37.36l4.875 15.024L16.048 62.91.948 37.36Zm9.4-29.44-2.42 2.83-2.105 3.142 4.524-5.972ZM5.821 52.384l2.105 3.144 2.42 2.828-4.525-5.972ZM10.346 7.92.947 37.36l15.101 25.549L10.346 7.92ZM5.822 52.384l4.524 5.972 5.702 4.553L5.822 52.384Zm4.524 5.972 2.714 2.475 2.988 2.078-5.702-4.553Zm5.702-54.988L13.06 5.445 10.346 7.92l5.702-4.552Z" fill="#C4C4C4"/><path d="m35.955 65.32 2.75-.455 3.58-.593-6.33 1.048Z" fill="#B0B0B0"/><path d="m22.768.594-6.72 2.774-5.701 4.553L22.768.594Z" fill="#C4C4C4"/><path d="m39.563 1.555 2.723.45-3.58-.593.857.143ZM35.956.957l3.608.598-.857-.143-2.75-.455Zm3.608 63.765-3.608.598 6.33-1.048-2.721.45Zm0 0 2.723-.45 3.45-1.146-6.172 1.596Z" fill="#B0B0B0"/><path d="m16.047 62.91 3.243 1.633 3.477 1.14-6.72-2.774ZM22.767.593l-3.477 1.14-3.243 1.634 6.72-2.774Z" fill="#C4C4C4"/><path d="m43.044 2.714 2.694.437-3.45-1.146.756.71Zm-3.479-1.16 3.479 1.16-.757-.709-2.722-.45ZM33.126 65.79l2.83-.469 3.61-.598-6.44 1.067Zm9.918-2.226-3.479 1.16 6.172-1.597-2.693.437Zm0 0 2.694-.437 3.278-1.675-5.972 2.112ZM36.763 1.09l2.802.464-3.608-.598.806.134Z" fill="#B0B0B0"/><path d="m16.047 62.91 6.72 2.773 7.443.588-14.163-3.362Z" fill="#C4C4C4"/><path d="m46.35 4.41 2.666.416-3.279-1.675.613 1.259ZM33.126.488l3.637.603-.806-.134-2.831-.469Z" fill="#B0B0B0"/><path d="M37.413 1.8 22.768.595 10.347 7.92 37.413 1.8Z" fill="#C4C4C4"/><path d="M43.044 2.714 46.35 4.41l-.613-1.259-2.693-.437Zm-6.281 62.472-3.637.603 6.44-1.067-2.803.464Zm0 0 2.802-.464 3.479-1.16-6.281 1.624Zm9.587-3.319 2.666-.416 3.064-2.174-5.73 2.59Zm0 0-3.306 1.696 5.972-2.112-2.666.416ZM40.27 2.264l2.774.45-3.479-1.16.705.71Zm9.17 4.349L52.08 7l-3.064-2.175.424 1.788Z" fill="#B0B0B0"/><path d="m22.766 65.683 3.688.594 3.755-.006-7.443-.588ZM30.209.006 26.454 0l-3.688.594 7.443-.588Z" fill="#C4C4C4"/><path d="m36.763 1.091 3.507 1.173-.705-.71-2.802-.463ZM46.35 4.41l3.09 2.203-.424-1.787-2.666-.416Z" fill="#B0B0B0"/><path d="m10.347 7.92 5.702 54.989L55.53 28.327 10.347 7.92Z" fill="#C4C4C4"/><path d="m30.209 66.27 2.914-.481 3.637-.603-6.551 1.085Zm19.228-6.606 2.64-.387 2.804-2.643-5.444 3.03Zm-9.17 4.349-3.507 1.173 6.28-1.623-2.773.45Zm9.17-4.349-3.09 2.203 5.73-2.59-2.64.387Zm-9.17 4.349 2.774-.45 3.306-1.696-6.08 2.146ZM33.875.614l2.885.477-3.637-.603.752.126Zm18.39 8.679 2.616.35L52.077 7l.189 2.293ZM43.602 3.98l2.746.429-3.306-1.696.56 1.267ZM30.21.006l3.666.608-.752-.126L30.21.006Zm19.228 6.607 2.829 2.68L52.077 7l-2.64-.387Z" fill="#B0B0B0"/><path d="m16.047 62.91 14.163 3.36 13.707-5.797-27.87 2.436ZM37.41 1.8 30.21.006l-7.444.588L37.41 1.8Z" fill="#C4C4C4"/><path d="m40.267 2.264 3.334 1.718-.56-1.268-2.774-.45Zm11.999 54.72 2.615-.35 2.497-3.076-5.112 3.426Zm-18.391 8.68-3.666.607 6.551-1.085-2.885.477Zm18.39-8.68-2.828 2.68 5.444-3.03-2.615.35Zm-18.39 8.68 2.885-.478 3.507-1.173-6.392 1.65Zm9.726-3.368 2.746-.428 3.09-2.204-5.836 2.632Zm0 0-3.334 1.717 6.08-2.145-2.746.428Zm11.184-49.882 2.593.306-2.497-3.077-.096 2.771ZM37.41 1.801l2.857.463-3.507-1.172.65.709Zm9.308 4.414 2.72.398-3.09-2.203.37 1.805Zm5.548 3.078 2.52 3.121.095-2.771-2.615-.35Zm2.52 44.57 2.592-.305 2.145-3.473-4.738 3.778ZM33.874.614l3.535 1.187-.65-.71-2.885-.477ZM43.6 3.982l3.117 2.233-.37-1.805-2.747-.428Zm11.184 49.881-2.52 3.121 5.113-3.426-2.593.305Zm2.165-37.925 2.572.255-2.144-3.473-.428 3.218Z" fill="#B0B0B0"/><path d="m30.209 66.27 3.666-.607 3.535-1.186-7.201 1.794ZM37.41 1.8 33.875.614 30.209.006 37.41 1.8Z" fill="#C4C4C4"/><path d="m46.72 60.063 2.72-.399 2.828-2.68-5.548 3.078Zm-9.307 4.414-3.536 1.186 6.392-1.65-2.856.464Zm9.307-4.415-3.116 2.234 5.836-2.632-2.72.398Zm-9.307 4.415 2.856-.464 3.335-1.717-6.191 2.18Z" fill="#B0B0B0"/><path d="M55.53 28.328 37.414 1.8 10.347 7.92 55.53 28.328Z" fill="#C4C4C4"/><path d="m56.951 50.34 2.573-.256 1.745-3.826-4.318 4.081Zm-2.164-37.926 2.164 3.523.43-3.217-2.594-.306Zm-5.214-3.482 2.695.36-2.829-2.68.134 2.32Zm9.14 10.888 2.556.199-1.745-3.826-.812 3.627ZM40.773 3.54l2.83.441-3.335-1.717.505 1.276Zm16.177 46.8-2.164 3.523 4.737-3.779-2.573.255Zm1.761-3.884 2.557-.198 1.3-4.134-3.857 4.332ZM46.72 6.215l2.853 2.717-.134-2.32-2.719-.397ZM37.412 1.8l3.362 1.74-.505-1.276-2.857-.464Zm22.612 22.216 2.545.136-1.3-4.133-1.245 3.997Zm-3.073-8.079 1.761 3.883.812-3.628-2.573-.255Zm-7.378 41.408 2.695-.36 2.52-3.122-5.215 3.482Zm0 0-2.853 2.717 5.548-3.078-2.695.36Z" fill="#B0B0B0"/><path d="m30.209 66.27 7.201-1.794 6.506-4.003L30.21 66.27Z" fill="#C4C4C4"/><path d="m60.024 42.26 2.545-.135.81-4.391-3.355 4.527Zm-1.312 4.197-1.76 3.883 4.317-4.082-2.557.199Zm2.13-17.983 2.537.07-.81-4.391-1.727 4.32ZM40.774 62.737l2.83-.441 3.116-2.233-5.946 2.674Zm0 0-3.362 1.74 6.191-2.181-2.829.441ZM52.116 12.1l2.671.315-2.52-3.121-.151 2.806Zm8.726 25.704 2.537-.07.278-4.594-2.815 4.664Zm.281-4.664h2.534l-.278-4.595-2.256 4.595Zm-2.41-13.318 1.311 4.195 1.245-3.997-2.557-.198Z" fill="#B0B0B0"/><path d="m16.047 62.91 27.87-2.437L55.53 28.328 16.047 62.909Z" fill="#C4C4C4"/><path d="m43.917 5.804 2.802.41-3.117-2.233.315 1.823Zm16.106 36.457-1.311 4.195 3.856-4.331-2.545.136ZM49.573 8.932l2.542 3.167.152-2.806-2.695-.36Zm2.542 45.246 2.672-.315 2.164-3.523-4.836 3.838Zm7.908-30.162.818 4.458 1.727-4.322-2.545-.136Zm.818 13.787-.818 4.458 3.355-4.527-2.537.07ZM40.773 3.54l3.144 2.264-.315-1.823-2.829-.441Zm11.342 50.638-2.543 3.167 5.215-3.482-2.672.315ZM54.3 15.675l2.652.263-2.164-3.524-.488 3.26Zm6.542 12.799.281 4.665 2.256-4.595-2.537-.07Zm.281 4.665-.281 4.664 2.815-4.664h-2.534ZM43.917 60.473l2.802-.41 2.853-2.718-5.655 3.128Zm0 0-3.144 2.264 5.946-2.675-2.802.411Z" fill="#B0B0B0"/><path d="m37.412 64.477 3.362-1.74 3.144-2.264-6.506 4.004Zm6.506-58.673L40.774 3.54 37.412 1.8l6.506 4.004Z" fill="#C4C4C4"/><path d="m54.3 50.602 2.651-.263 1.761-3.883-4.412 4.146Zm-2.184-38.504 2.184 3.576.487-3.26-2.671-.316Zm-5.32-3.538 2.777.372-2.853-2.718.077 2.346Zm9.281 11.056 2.635.204-1.76-3.883-.875 3.679ZM54.3 50.602l-2.184 3.576 4.835-3.839-2.651.263Zm1.777-3.942 2.635-.204 1.312-4.196-3.947 4.4ZM43.918 5.804l2.879 2.756-.077-2.346-2.802-.41Zm13.483 18.072 2.623.14-1.312-4.196-1.31 4.055ZM54.3 15.673l1.777 3.942.874-3.679-2.651-.263Zm-7.503 42.042 2.776-.372 2.543-3.166-5.32 3.538Z" fill="#B0B0B0"/><path d="m49.362 11.774-5.444-5.97L37.412 1.8l11.95 9.974Z" fill="#C4C4C4"/><path d="m46.797 57.716-2.879 2.757 5.655-3.128-2.776.371ZM57.4 42.401l2.623-.14.818-4.458-3.44 4.598Zm-1.324 4.26L54.3 50.602l4.412-4.145-2.635.204Zm2.15-18.259 2.615.072-.818-4.457-1.797 4.385Zm-8.865-16.628 2.754.325-2.543-3.166-.211 2.841Zm8.864 26.101 2.616-.072.281-4.664-2.896 4.736Zm.285-4.736h2.612l-.281-4.665-2.331 4.665Zm-2.434-13.523 1.324 4.26 1.311-4.055-2.635-.205ZM57.4 42.401l-1.324 4.26 3.947-4.4-2.623.14ZM46.796 8.561l2.566 3.213.211-2.841-2.776-.372Zm2.566 45.942 2.754-.325 2.184-3.575-4.938 3.9Zm8.04-30.627.825 4.526 1.797-4.386-2.623-.14Zm.825 14L57.4 42.4l3.44-4.598-2.614.072Zm-8.865 16.627-2.566 3.213 5.32-3.538-2.754.325Zm2.204-39.099 2.734.27-2.184-3.575-.55 3.305Zm6.66 12.998.285 4.737 2.33-4.665-2.614-.072Zm.285 4.737-.285 4.736 2.897-4.736h-2.612Z" fill="#B0B0B0"/><path d="m43.918 60.473 2.878-2.757 2.566-3.213-5.444 5.97Zm5.444-48.699-2.566-3.213-2.878-2.757 5.444 5.97Zm6.167 16.554-6.167-16.554L37.412 1.8 55.53 28.328Z" fill="#C4C4C4"/><path d="m51.568 50.873 2.734-.27 1.778-3.942-4.512 4.212Zm-2.204-39.1 2.204 3.63.55-3.304-2.754-.325Zm3.998 7.633 2.718.21-1.778-3.941-.94 3.73Zm-1.794 31.467-2.204 3.63 4.938-3.9-2.734.27Z" fill="#B0B0B0"/><path d="m43.918 60.473 5.444-5.97 3.998-7.631-9.442 13.601Z" fill="#C4C4C4"/><path d="m53.36 46.871 2.717-.21L57.4 42.4l-4.042 4.47Zm1.336-23.14 2.705.145-1.324-4.26-1.381 4.115Zm-3.13-8.327 1.793 4.002.94-3.731-2.734-.271Zm3.13 27.142L57.4 42.4l.825-4.526-3.53 4.67Zm-1.337 4.325-1.794 4.002 4.512-4.212-2.718.21Zm2.17-18.543 2.697.074-.825-4.526-1.872 4.452Z" fill="#B0B0B0"/><path d="M43.918 60.473 53.36 46.87l2.17-18.543-11.612 32.145Z" fill="#C4C4C4"/><path d="m55.53 37.95 2.696-.075.284-4.736-2.98 4.81Zm.286-4.812h2.694l-.284-4.736-2.41 4.736Z" fill="#B0B0B0"/><path d="m49.364 54.503 2.204-3.63 1.794-4.002-3.998 7.632Zm3.998-35.097-1.794-4.002-2.204-3.63 3.998 7.632Z" fill="#C4C4C4"/><path d="m53.36 19.406 1.336 4.325 1.38-4.115-2.717-.21Zm1.336 23.14-1.337 4.325 4.042-4.47-2.705.145Zm0-18.815.833 4.597 1.872-4.452-2.705-.145Z" fill="#B0B0B0"/><path d="m55.532 28.328-2.17-8.922-3.998-7.632 6.168 16.554Z" fill="#C4C4C4"/><path d="m55.531 37.95-.833 4.596 3.53-4.67-2.697.073Zm0-9.622.287 4.81 2.41-4.736-2.697-.074Zm.287 4.81-.287 4.811 2.982-4.81h-2.695Z" fill="#B0B0B0"/><path d="m53.36 46.871 1.336-4.325.833-4.597-2.17 8.922Zm2.17-18.543-.834-4.597-1.337-4.325 2.17 8.922ZM53.36 46.87l2.17-8.922v-9.621L53.36 46.87Zm2.17-8.922.286-4.81-.287-4.811v9.621Z" fill="#C4C4C4"/><path d="M55.579 33.256c0 18.18-12.237 32.755-27.149 32.755-14.91 0-27.148-14.574-27.148-32.755C1.282 15.075 13.52.5 28.43.5c14.913 0 27.15 14.575 27.15 32.756Z" fill="url(#a)" stroke="url(#b)"/><g filter="url(#c)"><path d="m20.882 27.242 4.285.055.137-.608-4.422.553Zm.137-.614 4.285.06.16-.555-4.445.495Zm.16-.562 4.285.067.183-.504-4.467.437Zm.184-.508 4.284.07.206-.451-4.49.38Zm.207-.456 4.283.075.23-.4-4.513.325Zm.23-.403 4.283.079.253-.347-4.536.268Z" fill="#E5E5E5"/><path d="m18.337 43.031-.611.771v3.737l.611-4.508Zm-.274-18.516-.1.495-.082.513.182-1.008Zm.254-.935-.254.935-.182 1.008.436-1.943Z" fill="#fff"/><path d="m22.054 24.349 4.282.082.276-.295-4.558.213Z" fill="#E5E5E5"/><path d="m18.317 23.58-.136.459-.118.476.254-.935Zm.6 18.715-.58.736-.611 4.508 1.191-5.244Z" fill="#fff"/><path d="m22.331 24.05 4.281.086.3-.242-4.58.157Z" fill="#E5E5E5"/><path d="m19.045 21.927-.728 1.653-.436 1.943 1.164-3.596Z" fill="#fff"/><path d="m22.394 43.266 4.28-.095.175-.182-4.455.277Z" fill="#E5E5E5"/><path d="m18.645 22.717-.173.422-.155.44.328-.862Z" fill="#fff"/><path d="m22.567 43.081 4.28-.092.167-.175-4.447.267Z" fill="#E5E5E5"/><path d="m19.045 21.927-.4.79-.328.863.728-1.653Z" fill="#fff"/><path d="m22.63 23.806 4.281.088.323-.19-4.603.102Zm.104 19.099 4.28-.091.157-.168-4.438.259Z" fill="#E5E5E5"/><path d="m19.044 21.927-.21.386-.19.404.4-.79Z" fill="#fff"/><path d="m22.892 42.736 4.28-.09.15-.159-4.43.25ZM21.02 26.628l-.137.614 4.422-.553-4.285-.06Zm1.936-3.013 4.28.089.346-.138-4.626.049Zm.087 18.96 4.28-.088.14-.152-4.42.24ZM21.18 26.067l-.16.561 4.445-.495-4.284-.066Zm2.005 16.355 4.278-.087.134-.144-4.412.23Z" fill="#E5E5E5"/><path d="m19.518 21.21-.246.35-.228.367.474-.718Z" fill="#fff"/><path d="m21.363 25.558-.183.508 4.467-.437-4.284-.071Zm1.954 16.718 4.279-.085.124-.137-4.403.222Zm-.014-18.8 4.279.09.37-.085-4.649-.005Z" fill="#E5E5E5"/><path d="m21.35 19.518-2.305 2.41-1.164 3.595 3.469-6.005Z" fill="#fff"/><path d="m23.442 42.139 4.278-.084.117-.129-4.395.213ZM21.57 25.102l-.207.456 4.49-.38-4.283-.076Z" fill="#E5E5E5"/><path d="m20.066 20.564-.548.646-.474.717 1.022-1.363Z" fill="#fff"/><path d="m23.559 42.009 4.277-.083.108-.12-4.385.203Zm.108-.122 4.277-.082.1-.113-4.377.195Z" fill="#E5E5E5"/><path d="m18.917 42.294-1.191 5.244 4.667-4.272-3.476-.972Z" fill="#fff"/><path d="m21.8 24.699-.23.403 4.512-.324-4.282-.08Zm1.967 17.073 4.277-.08.091-.106-4.368.186Zm-.093-18.382 4.277.091.394-.032-4.671-.06Z" fill="#E5E5E5"/><path d="m20.066 20.564-.283.314-.264.332.547-.646Z" fill="#fff"/><path d="m23.86 41.666 4.276-.08.083-.097-4.36.177Z" fill="#E5E5E5"/><path d="m17.88 25.523 3.002 1.72.137-.615-3.138-1.105Z" fill="#fff"/><path d="m23.942 41.568 4.277-.08.16-.19-4.437.27Zm-1.889-17.22-.253.351 4.535-.268-4.282-.082Z" fill="#E5E5E5"/><path d="m17.88 25.523 3.139 1.105.16-.561-3.298-.544Z" fill="#fff"/><path d="m24.07 23.357 4.276.092.222.003-4.499-.095Zm.032 18.017 4.276-.077.163-.197-4.439.274Z" fill="#E5E5E5"/><path d="m17.88 25.523 3.3.544.183-.51-3.482-.034Zm3.47-6.005-1.284 1.046-1.021 1.363 2.305-2.409Z" fill="#fff"/><path d="m22.33 24.05-.276.298 4.558-.212-4.281-.085Z" fill="#E5E5E5"/><path d="m17.88 25.523 3.483.035.207-.456-3.69.42Z" fill="#fff"/><path d="m24.265 41.175 4.275-.075.165-.205-4.44.28Z" fill="#E5E5E5"/><path d="m20.685 19.991-.315.274-.304.3.619-.574Zm-2.804 5.532 3.689-.42.23-.404-3.92.824Z" fill="#fff"/><path d="m24.43 40.968 4.276-.073.168-.212-4.443.285Zm-1.862 2.113-.175.184 4.455-.277-4.28.093Zm.064-19.275-.3.245 4.58-.157-4.28-.088Z" fill="#E5E5E5"/><path d="m17.88 25.523 3.92-.824.254-.35-4.173 1.174Z" fill="#fff"/><path d="m24.598 40.755 4.275-.071.17-.219-4.445.29Zm-1.864 2.15-.167.176 4.447-.267-4.28.09Z" fill="#E5E5E5"/><path d="m21.35 19.518-.665.473-.619.573 1.284-1.046Zm-3.47 6.005 4.174-1.174.277-.298-4.45 1.472Zm1.586 16.07-.549.702 5.026-.727-4.477.025Z" fill="#fff"/><path d="m24.769 40.535 4.274-.07.173-.225-4.447.295Zm-1.877 2.201-.159.169 4.438-.258-4.28.09Zm.063-19.121-.324.192 4.603-.103-4.28-.09Z" fill="#E5E5E5"/><path d="m17.88 25.523 4.45-1.472.301-.245-4.75 1.716Z" fill="#fff"/><path d="m24.942 40.307 4.274-.067.176-.232-4.45.299Zm-1.9 2.268-.15.16 4.429-.248-4.28.088Z" fill="#E5E5E5"/><path d="m21.35 19.518-.339.224-.326.25.665-.474Z" fill="#fff"/><path d="m23.183 42.422-.142.153 4.42-.24-4.278.087Zm1.935-2.35 4.273-.064.179-.239-4.452.304Z" fill="#E5E5E5"/><path d="m17.88 25.523 4.751-1.716.324-.192-5.074 1.908Z" fill="#fff"/><path d="m23.303 23.476-.348.139 4.626-.049-4.278-.09Zm2.138-4.805 4.273.136-.47-.036-3.803-.1Zm-2.124 23.605-.134.146 4.412-.231-4.278.085Zm1.981-2.445 4.273-.062.181-.246-4.454.308Z" fill="#E5E5E5"/><path d="m17.88 25.523 5.075-1.909.348-.138-5.422 2.047Z" fill="#fff"/><path d="m23.442 42.139-.126.137 4.403-.221-4.277.084Z" fill="#E5E5E5"/><path d="m18.917 42.294 3.476.972.649-.691-4.125-.28Z" fill="#fff"/><path d="m25.48 39.583 4.273-.06.184-.253-4.456.313Zm-1.92 2.425-.117.13 4.394-.212-4.277.082Zm.115-18.618-.371.085 4.648.006-4.277-.091Zm-.007 18.496-.108.122 4.385-.203-4.277.081Zm1.997-2.558 4.272-.058.187-.26-4.459.318Zm.23-20.59 4.271.135-.451-.066-3.82-.07Z" fill="#E5E5E5"/><path d="m22.062 19.145-.362.174-.35.199.712-.373Z" fill="#fff"/><path d="m23.767 41.772-.1.114 4.377-.194-4.277.08Zm.092-.106-.092.106 4.369-.186-4.277.08Zm1.993-2.6 4.27-.056.19-.266-4.46.322Zm-1.91 2.501-.083.099 4.36-.177-4.277.078Zm.127-18.21-.395.033 4.671.059-4.276-.092Z" fill="#E5E5E5"/><path d="m18.917 42.294 4.125.281.9-1.008-5.025.727Z" fill="#fff"/><path d="m24.102 41.374-.16.193 4.436-.27-4.276.078Zm1.94-2.577 4.27-.053.22-.298-4.49.35Z" fill="#E5E5E5"/><path d="m22.82 18.873-.758.272-.712.373 1.47-.645Z" fill="#fff"/><path d="m26.33 18.836 4.269.135-.434-.098-3.836-.037Zm-2.065 22.339-.163.2 4.439-.275-4.276.075Zm.027-17.814-.223-.004 4.499.095-4.276-.091Zm1.97 15.135 4.27-.05.216-.299-4.485.35Zm-1.832 2.472-.165.207 4.44-.28-4.275.073Z" fill="#E5E5E5"/><path d="m27.887 19.544-6.537-.026-3.47 6.005 10.008-5.979Zm-5.066-.671-.386.123-.373.149.759-.272Z" fill="#fff"/><path d="m26.48 38.195 4.269-.048.21-.3-4.48.348Zm-1.881 2.56-.168.213 4.442-.284-4.274.071Zm2.147-21.789 4.269.134-.416-.129-3.853-.005Z" fill="#E5E5E5"/><path d="m22.394 43.266.174-.185.167-.176-.341.36Z" fill="#fff"/><path d="m26.69 37.891 4.269-.044.206-.302-4.475.346Zm-1.922 2.643-.17.22 4.445-.289-4.274.07Z" fill="#E5E5E5"/><path d="m22.394 43.266.34-.361.309-.33-.65.69Z" fill="#fff"/><path d="m24.944 40.307-.174.228 4.448-.295-4.274.067Z" fill="#E5E5E5"/><path d="m24.482 18.63-1.661.243-1.471.645 3.132-.887Z" fill="#fff"/><path d="m26.898 37.587 4.268-.042.201-.303-4.47.345Z" fill="#E5E5E5"/><path d="m22.734 42.905.159-.169.15-.16-.309.329Z" fill="#fff"/><path d="m27.145 19.128 4.268.131-.398-.16-3.87.029Z" fill="#E5E5E5"/><path d="m19.983 40.927-.517.666 10.102-9.19-9.585 8.524Zm7.904-21.382-10.006 5.978 5.422-2.047 4.584-3.931Z" fill="#fff"/><path d="m25.119 40.073-.177.234 4.45-.299-4.273.065Zm1.98-2.792 4.268-.039.196-.304-4.464.343ZM24.97 18.635l.471.036 3.803.1-4.274-.136Z" fill="#E5E5E5"/><path d="m23.041 42.575.142-.153.133-.146-.275.3Z" fill="#fff"/><path d="m25.297 39.832-.179.24 4.452-.303-4.273.063Z" fill="#E5E5E5"/><path d="m23.627 18.701-.41.073-.397.099.807-.172Z" fill="#fff"/><path d="m27.297 36.974 4.267-.036.192-.306-4.46.342Z" fill="#E5E5E5"/><path d="m23.041 42.575.275-.299.242-.267-.517.566Z" fill="#fff"/><path d="m27.525 19.32 4.267.13-.38-.19-3.887.06Z" fill="#E5E5E5"/><path d="m20.468 40.297-.486.63 9.585-8.525-9.1 7.895Z" fill="#fff"/><path d="m25.48 39.584-.182.248 4.454-.309-4.272.06Z" fill="#E5E5E5"/><path d="m23.316 42.276.126-.137.116-.13-.242.267Z" fill="#fff"/><path d="m27.49 36.665 4.267-.033.187-.307-4.454.34Zm-5.096 6.6 9.314.146-5.034-.24-4.28.095Z" fill="#E5E5E5"/><path d="m23.041 42.575.517-.566.384-.442-.901 1.008Z" fill="#fff"/><path d="m25.44 18.67.453.068 3.82.069-4.273-.136Zm.223 20.658-.184.255 4.456-.313-4.271.058Z" fill="#E5E5E5"/><path d="m24.482 18.63-.855.071-.807.172 1.662-.242Z" fill="#fff"/><path d="m27.677 36.355 4.266-.03.182-.309-4.448.339Z" fill="#E5E5E5"/><path d="m20.92 39.702-.452.595 9.1-7.895-8.647 7.3Zm2.639 2.307.108-.122.1-.114-.208.236Z" fill="#fff"/><path d="m27.887 19.545 4.265.128-.361-.222-3.904.094Z" fill="#E5E5E5"/><path d="m23.559 42.009.208-.237.175-.205-.383.442Z" fill="#fff"/><path d="m25.852 39.066-.187.262 4.459-.317-4.272.055Zm2.008-3.023 4.266-.027.177-.31-4.442.337Z" fill="#E5E5E5"/><path d="m23.768 41.773.091-.107.084-.098-.175.205Zm-6.042 5.766 13.982-4.127-9.315-.146-4.667 4.273Zm3.616-8.397-.42.56 8.646-7.3-8.226 6.74Z" fill="#fff"/><path d="m26.043 38.797-.19.269 4.46-.322-4.27.053Zm1.996-3.067 4.265-.024.172-.311-4.437.335Zm-2.144-16.992.435.098 3.836.037-4.27-.135Zm2.337 1.063 4.264.125-.343-.253-3.921.128Z" fill="#E5E5E5"/><path d="m24.483 18.63-.434.023-.421.048.855-.07Zm-.54 22.937.16-.192.163-.2-.323.392Z" fill="#fff"/><path d="m26.263 38.497-.221.3 4.491-.35-4.27.05Zm1.948-3.08 4.265-.022.168-.312-4.433.334Z" fill="#E5E5E5"/><path d="m21.731 38.62-.389.523 8.226-6.74-7.837 6.216Zm2.212 2.948.322-.393.334-.42-.656.813Zm-4.477.026 4.477-.026 5.625-9.166-10.102 9.192Z" fill="#fff"/><path d="m28.38 35.1 4.263-.017.16-.304-4.423.322Zm.176-15.012 4.264.123-.325-.285-3.939.162ZM26.48 38.194l-.216.302 4.485-.349-4.269.047Z" fill="#E5E5E5"/><path d="m24.265 41.175.165-.207.168-.213-.333.42Z" fill="#fff"/><path d="m26.328 18.836.417.13 3.853.005-4.27-.135Z" fill="#E5E5E5"/><path d="m22.087 38.132-.357.487 7.837-6.217-7.48 5.73Z" fill="#fff"/><path d="m28.538 34.794 4.264-.015.155-.313-4.419.328Zm3.168 8.617 4.254-.097-9.287-.143 5.034.24Z" fill="#E5E5E5"/><path d="m27.887 19.545-3.405-.914-3.132.887 6.537.027Z" fill="#fff"/><path d="m26.69 37.892-.212.303 4.48-.348-4.268.045Z" fill="#E5E5E5"/><path d="m23.942 41.567.656-.812.7-.924-1.356 1.736Z" fill="#fff"/><path d="m28.696 34.479 4.263-.013.153-.32-4.416.333Zm.169-14.072 4.262.12-.306-.316-3.956.197Z" fill="#E5E5E5"/><path d="m22.412 37.68-.324.452 7.48-5.73-7.156 5.278Zm2.187 3.075.171-.22.174-.228-.345.448Z" fill="#fff"/><path d="m26.896 37.587-.207.304 4.475-.346-4.268.042Zm1.95-3.432 4.263-.01.15-.33-4.412.34Zm-2.101-15.189.398.162 3.87-.028-4.268-.134Z" fill="#E5E5E5"/><path d="m22.703 37.266-.29.414 7.156-5.278-6.866 4.864Z" fill="#fff"/><path d="m28.997 33.822 4.262-.006.147-.339-4.409.345Z" fill="#E5E5E5"/><path d="m24.598 40.755.344-.448.355-.476-.7.924Z" fill="#fff"/><path d="m29.153 20.759 4.262.116-.288-.347-3.974.23Z" fill="#E5E5E5"/><path d="m27.888 19.545-4.584 3.93.371-.085 4.213-3.845Zm-2.446-.874-.47-.036-.49-.004.96.04Z" fill="#fff"/><path d="m27.1 37.28-.203.307 4.47-.345-4.268.039Z" fill="#E5E5E5"/><path d="m22.96 36.887-.258.379 6.865-4.864-6.606 4.485Z" fill="#fff"/><path d="m29.145 33.48 4.262-.003.144-.347-4.406.35Z" fill="#E5E5E5"/><path d="m24.942 40.307.177-.234.179-.242-.356.476Z" fill="#fff"/><path d="m27.298 36.973-.197.308 4.464-.343-4.267.035Z" fill="#E5E5E5"/><path d="m27.888 19.545-4.213 3.845.395-.033 3.818-3.812Z" fill="#fff"/><path d="m29.42 21.125 4.261.114-.267-.364-3.993.25Zm-.13 12.004h4.261l.14-.355-4.401.355Zm-2.145-14.002.381.193 3.887-.06-4.268-.133Zm2.286 13.643 4.26.004.138-.365-4.398.361Z" fill="#E5E5E5"/><path d="m23.588 35.933-.627.954 6.606-4.485-5.98 3.531Zm.354 5.635 1.356-1.736 1.6-2.245-2.956 3.98Z" fill="#fff"/><path d="m27.49 36.665-.193.309 4.459-.342-4.267.033Z" fill="#E5E5E5"/><path d="m27.887 19.545-3.818 3.812.223.004 3.595-3.816Zm-1.558-.709-.888-.165-.96-.04 1.848.205Z" fill="#fff"/><path d="m29.664 21.506 4.26.11-.244-.377-4.016.267Z" fill="#E5E5E5"/><path d="m25.298 39.831.182-.248.184-.255-.366.503Z" fill="#fff"/><path d="m29.567 32.402 4.26.007.135-.373-4.395.366Z" fill="#E5E5E5"/><path d="m27.887 19.545-3.595 3.816.214.017 3.38-3.833Z" fill="#fff"/><path d="m27.677 36.355-.188.31 4.454-.34-4.266.03Zm-.152-17.035.362.225 3.904-.095-4.266-.13Zm2.177 12.705 4.26.01.131-.381-4.39.371Z" fill="#E5E5E5"/><path d="m25.298 39.831.366-.503.378-.531-.744 1.035Z" fill="#fff"/><path d="m29.886 21.9 4.26.107-.222-.39-4.038.284Z" fill="#E5E5E5"/><path d="m27.887 19.545-3.381 3.833.206.031 3.175-3.864Z" fill="#fff"/><path d="m27.86 36.043-.183.312 4.448-.339-4.265.027Zm1.974-4.403 4.26.014.127-.39-4.387.376Z" fill="#E5E5E5"/><path d="m24.161 35.003-.573.93 5.98-3.531-5.407 2.6Zm3.726-15.458-3.175 3.864.197.045 2.978-3.91Zm-2.222 19.783.187-.262.19-.27-.377.532Zm.664-20.492-.435-.098-.452-.067.887.165Z" fill="#fff"/><path d="m29.963 31.245 4.259.018.125-.399-4.384.381Zm.122-8.936 4.258.103-.197-.405-4.061.302Zm-2.047 13.422-.178.313 4.443-.337-4.264.024Zm-.15-16.186.344.256 3.921-.128-4.265-.128Z" fill="#E5E5E5"/><path d="m27.886 19.545-2.978 3.91.188.058 2.79-3.968Z" fill="#fff"/><path d="m30.088 30.842 4.259.022.118-.415-4.377.393Z" fill="#E5E5E5"/><path d="m25.298 39.832.744-1.035.855-1.21-1.6 2.245Z" fill="#fff"/><path d="m30.26 22.732 4.258.099-.175-.419-4.083.32Z" fill="#E5E5E5"/><path d="m27.887 19.545-2.79 3.968.18.073 2.61-4.041Z" fill="#fff"/><path d="m28.211 35.417-.173.314 4.438-.336-4.265.022Zm1.995-4.994 4.259.026.108-.412-4.367.386Z" fill="#E5E5E5"/><path d="m24.68 34.097-.519.906 5.407-2.6-4.887 1.694Zm3.207-14.552-2.61 4.04.17.087 2.44-4.127Z" fill="#fff"/><path d="m30.314 30.007 4.258.03.098-.408-4.356.378Z" fill="#E5E5E5"/><path d="m27.887 19.545-1.558-.709-1.848-.205 3.406.914Z" fill="#fff"/><path d="m30.412 23.168 4.258.094-.151-.432-4.107.338Z" fill="#E5E5E5"/><path d="m26.042 38.797.221-.3.216-.302-.437.602Z" fill="#fff"/><path d="m28.38 35.101-.17.316 4.433-.334-4.264.018Zm-.15-15.3.326.287 3.939-.161-4.264-.126Z" fill="#E5E5E5"/><path d="m27.888 19.545-2.44 4.127.162.1 2.278-4.227Z" fill="#fff"/><path d="m30.413 29.596 4.258.033.087-.403-4.345.37Zm.127-5.978 4.257.09-.128-.446-4.13.356Zm-.04 5.57 4.258.038.078-.4-4.335.362Z" fill="#E5E5E5"/><path d="m27.887 19.545-2.278 4.228.154.114 2.124-4.342Z" fill="#fff"/><path d="m28.54 34.795-.16.306 4.422-.322-4.263.016Z" fill="#E5E5E5"/><path d="m25.145 33.215-.465.882 4.887-1.695-4.422.813Zm.896 5.582.437-.602.419-.608-.856 1.21Z" fill="#fff"/><path d="m30.578 28.785 4.257.04.067-.395-4.324.355Zm.066-4.703 4.258.085-.105-.459-4.153.374Z" fill="#E5E5E5"/><path d="m27.887 19.545-2.124 4.342.144.128 1.98-4.47Z" fill="#fff"/><path d="m30.646 28.385 4.257.045.056-.392-4.313.347Zm.08-3.826 4.257.081-.081-.472-4.175.391Zm-2.03 9.92-.157.315 4.42-.327-4.264.012Zm2.006-6.49 4.257.05.047-.388-4.303.339Zm-2.145-7.9.307.319 3.956-.196-4.263-.124Z" fill="#E5E5E5"/><path d="m27.887 19.545-1.98 4.47.136.142 1.844-4.612Z" fill="#fff"/><path d="m30.749 27.598 4.257.053.036-.384-4.293.331Zm.036-2.548 4.257.077-.059-.486-4.198.41Zm0 2.16 4.257.057.026-.38-4.283.324Zm.035-1.655 4.257.072-.035-.5-4.222.428Z" fill="#E5E5E5"/><path d="m26.479 38.195.211-.303.207-.305-.418.608Z" fill="#fff"/><path d="m30.81 26.828 4.257.06.016-.376-4.272.316Z" fill="#E5E5E5"/><path d="m27.887 19.545-1.845 4.612.127.156 1.718-4.768Z" fill="#fff"/><path d="m30.832 26.073 4.257.067-.012-.513-4.245.446Zm-.005.375 4.257.064.005-.372-4.262.308Z" fill="#E5E5E5"/><path d="m27.144 19.128-.4-.162-.416-.13.816.292Z" fill="#fff"/><path d="m28.85 34.154-.154.325 4.416-.334-4.263.01Z" fill="#E5E5E5"/><path d="m25.557 32.358-.411.857 4.421-.813-4.01-.044Zm2.33-12.813-1.718 4.768.118.169 1.6-4.937Zm-3.945 22.023 2.955-3.981 2.67-5.185-5.625 9.166Zm3.945-22.023-1.6 4.937.107.18 1.493-5.117Z" fill="#fff"/><path d="m28.998 33.822-.15.333 4.412-.34-4.262.007Zm-.135-13.414.289.35 3.973-.23-4.262-.12Z" fill="#E5E5E5"/><path d="m27.887 19.545-1.494 5.116.097.19 1.397-5.306Zm0 0-1.397 5.307.087.201 1.31-5.508Zm-1.974 11.98-.356.833 4.01.044-3.654-.877Zm1.974-11.98-1.31 5.508.077.213 1.233-5.721Z" fill="#fff"/><path d="m29.144 33.48-.147.342 4.409-.345-4.262.003Z" fill="#E5E5E5"/><path d="m17.726 47.538 13.982.314v-4.44l-13.982 4.127Zm10.162-27.993-1.233 5.72.066.225 1.167-5.945Zm-.99 18.042.202-.306.197-.307-.4.613Zm.99-18.042-.743-.418-.815-.29 1.558.708Zm0 0L26.72 25.49l.056.234 1.11-6.18Zm0 0-1.11 6.18.045.245 1.065-6.425Zm-1.01 8.197-.083.706 1.093-8.903-1.01 8.197Z" fill="#fff"/><path d="m29.29 33.13-.145.35 4.405-.35h-4.26Zm-.138-12.372.268.367 3.994-.25-4.262-.117Z" fill="#E5E5E5"/><path d="m26.823 25.97.035.257 1.03-6.682-1.065 6.425Zm.035.257.026.268 1.003-6.95-1.029 6.682Zm.046.836-.027.68 1.01-8.198-.983 7.518Zm-.02-.568.015.279.988-7.23-1.003 6.95Zm.015.279.005.29.983-7.52-.988 7.23Zm-.683 3.944-.302.808 3.653.876-3.35-1.684Zm.681 6.869.4-.613.38-.62-.78 1.233Z" fill="#fff"/><path d="m29.43 32.77-.14.36 4.401-.356-4.26-.004Z" fill="#E5E5E5"/><path d="m26.463 29.936-.247.782 3.35 1.684-3.103-2.466Z" fill="#fff"/><path d="m29.419 21.125.245.381 4.016-.267-4.261-.114Zm.148 11.277-.138.368 4.398-.36-4.26-.008Z" fill="#E5E5E5"/><path d="m27.296 36.973.192-.308.188-.31-.38.618Zm.59-17.428-.362-.225-.38-.193.742.418Zm-1.23 9.634-.193.756 3.103 2.467-2.91-3.223Z" fill="#fff"/><path d="m31.707 47.852 4.254-.14v-4.398l-4.254 4.538Zm-2.005-15.827-.135.377 4.395-.366-4.26-.011Z" fill="#E5E5E5"/><path d="m26.897 37.587.78-1.232.702-1.254-1.482 2.486Zm-.103-9.14-.138.732 2.911 3.223-2.773-3.954Z" fill="#fff"/><path d="m29.664 21.506.221.395 4.04-.285-4.26-.11Zm.17 10.133-.132.386 4.391-.371-4.26-.015Z" fill="#E5E5E5"/><path d="m27.677 36.355.183-.312.178-.313-.361.625Z" fill="#fff"/><path d="m29.963 31.245-.128.395 4.388-.377-4.26-.018Zm-.076-9.344.198.408 4.061-.302-4.259-.106Zm.202 8.941-.125.403 4.384-.38-4.26-.023Z" fill="#E5E5E5"/><path d="m27.677 36.355.361-.624.342-.63-.703 1.254Zm-.882-7.907 2.773 3.954-1.68-12.857-1.093 8.903Z" fill="#fff"/><path d="m30.084 22.31.175.422 4.084-.32-4.259-.103Zm.122 8.112-.118.42 4.377-.394-4.259-.026Z" fill="#E5E5E5"/><path d="m28.038 35.73.173-.313.169-.316-.342.63Z" fill="#fff"/><path d="m30.314 30.007-.108.416 4.366-.386-4.258-.03Z" fill="#E5E5E5"/><path d="m28.556 20.088-.325-.287-.344-.256.669.543Z" fill="#fff"/><path d="m30.26 22.732.152.436 4.106-.337-4.258-.1Z" fill="#E5E5E5"/><path d="m26.898 37.587 1.482-2.486 1.188-2.699-2.67 5.185Z" fill="#fff"/><path d="m30.413 29.596-.099.411 4.356-.378-4.257-.033Zm-.002-6.428.128.45 4.13-.356-4.258-.094Zm.09 6.02-.088.408 4.345-.37-4.258-.038Zm.077-.403-.078.403 4.335-.362-4.257-.041Zm-.039-5.167.105.464 4.152-.374-4.257-.09Z" fill="#E5E5E5"/><path d="m29.151 20.759-.595-.67-.67-.544 1.265 1.214ZM28.38 35.1l.16-.306.155-.316-.315.622Z" fill="#fff"/><path d="m30.645 28.385-.067.4 4.324-.354-4.257-.046Zm0-4.303.081.477 4.175-.391-4.257-.086Zm.057 3.908-.057.395 4.314-.346-4.257-.05Zm.047-.391-.047.39 4.303-.338-4.256-.052Zm-.023-3.04.059.491 4.198-.41-4.257-.08Z" fill="#E5E5E5"/><path d="m28.38 35.101.315-.622.303-.657-.618 1.28Z" fill="#fff"/><path d="m30.785 27.21-.036.388 4.293-.33-4.257-.057Zm0-2.16.035.505 4.222-.428-4.257-.077Zm.026 1.777-.026.384 4.283-.324-4.257-.06Zm.016-.379-.016.38 4.272-.316-4.256-.064Zm-.007-.893.012.518 4.245-.446-4.257-.072Zm.012.518-.005.375 4.261-.308-4.256-.067Z" fill="#E5E5E5"/><path d="m28.695 34.48.153-.325.15-.333-.303.657Zm.456-13.721-.288-.351-.307-.32.595.67ZM28.38 35.1l.619-1.28.569-1.419-1.188 2.7Zm1.704-12.791-.931-1.551-1.265-1.214 2.197 2.764Zm-1.085 11.512.147-.342.143-.35-.29.692Zm0 0 .29-.692.279-.728-.57 1.42Zm.666-12.316-.245-.38-.268-.367.513.747Zm-.376 11.624.141-.36.138-.368-.279.728Zm.279-.728 1.264-6.329-2.944-6.528 1.68 12.857Zm1.264-6.329-.747-3.764-2.197-2.764 2.944 6.528Zm-.747-3.764-.42-.803-.513-.747.933 1.55Z" fill="#fff"/><path d="M31.708 43.411v4.44l4.254-4.537-4.254.097Z" fill="#E5E5E5"/><path d="m29.567 32.402.135-.377.132-.386-.267.763Zm0 0 .267-.763.253-.797-.52 1.56Zm.517-10.093-.198-.409-.222-.394.42.803Zm-.25 9.33.128-.394.125-.403-.253.797Zm-.267.763.52-1.56.414-1.654-.934 3.214Zm.52-1.56.12-.42.108-.415-.228.835Zm.324-7.674-.152-.436-.175-.423.327.859Zm-.844 9.234.934-3.214.33-3.115-1.264 6.329Zm.52-1.56.228-.835.186-.819-.414 1.654Zm.557-6.76-.233-.914-.327-.859.56 1.772Zm-.33 5.925.099-.412.088-.407-.186.819Zm.517-3.934-.187-1.992-.56-1.772.747 3.764Zm-.187-1.992-.105-.463-.128-.45.233.913Zm-.143 5.107.077-.404.067-.4-.144.804Zm0 0 .144-.803.104-.787-.248 1.59Zm0 0 .248-1.59.082-1.525-.33 3.115Zm.144-.803.057-.396.047-.391-.104.787Zm.14-3.335-.059-.491-.082-.478.14.969Zm.046 1.023-.046-1.023-.14-.969.186 1.992Zm-.082 1.525.036-.387.026-.384-.062.77Zm0 0 .062-.77.02-.755-.082 1.525Zm.082-1.525-.011-.518-.035-.505.046 1.023Zm-.02.754.015-.379.005-.375-.02.754Z" fill="#fff"/></g><path d="M31.666 47.872v-4.416l-9.266-.19c.537-.454 3.064-3.335 4.288-5.324 1.103-1.38 2.336-4.125 2.816-5.325.402-1.245 1.221-4.018 1.282-5.155.077-1.421.039-2.501-.21-3.676-.039-.834-1.092-2.976-2.413-4.056-1.006-.822-2.52-1.092-3.248-1.132l-.104-.005.104.005c1.236.052 3.75.16 4.702.204.98.045 1.991.486 2.374.7.466.285 1.593 1.263 2.374 2.9.781 1.638.823 3.538.747 4.283-.051.764-.322 2.828-.996 4.965-.674 2.138-1.85 4.251-2.355 5.04-.434.69-1.6 2.43-2.795 3.886-1.164 1.41-2.004 2.293-2.278 2.558l9.286.17v4.416l-4.308.152Z" fill="url(#d)"/><path d="M31.666 47.872v-4.416l-9.266-.19c.537-.454 3.064-3.335 4.288-5.324 1.103-1.38 2.336-4.125 2.816-5.325.402-1.245 1.221-4.018 1.282-5.155.077-1.421.039-2.501-.21-3.676-.039-.834-1.092-2.976-2.413-4.056-1.006-.822-2.52-1.092-3.248-1.132l-.104-.005.104.005c1.236.052 3.75.16 4.702.204.98.045 1.991.486 2.374.7.466.285 1.593 1.263 2.374 2.9.781 1.638.823 3.538.747 4.283-.051.764-.322 2.828-.996 4.965-.674 2.138-1.85 4.251-2.355 5.04-.434.69-1.6 2.43-2.795 3.886-1.164 1.41-2.004 2.293-2.278 2.558l9.286.17v4.416l-4.308.152Z" fill="url(#e)"/><path d="m25.163 27.299-4.278-.058c.076-.446.368-1.344.504-1.738.163-.361.578-1.158.929-1.447.38-.283.724-.615 1.726-.695.801-.064 1.523.36 1.784.579.137.145.42.459.461.557-.688.854-.97 2.11-1.126 2.802Z" fill="url(#f)"/><path d="m31.229.235-1.35-.211c.455.061.905.131 1.35.211l11.314 1.77c1.9.474 6.589 2.214 10.14 5.384 3.55 3.17 6.237 7.437 7.136 9.175l1.959 4.307c1.03 3.26 2.828 11.027 1.784 16.023-.627 5.03-2.524 9.993-3.395 11.845-1.087 2.598-4.708 8.683-10.487 12.232-3.046 2.541-9.487 4.049-14.883 4.609.667-.172 2.141-.586 2.698-.861.697-.345 20-8.675 18.284-34.44C54.44 14.252 45.205 2.734 31.23.235Z" fill="url(#g)"/><defs><linearGradient id="a" x1="28.43" y1="0" x2="40.571" y2="67.974" gradientUnits="userSpaceOnUse"><stop stop-color="#DEE5F8"/><stop offset="1" stop-color="#BDBEE3"/></linearGradient><linearGradient id="b" x1="38.864" y1="53.368" x2="-4.253" y2="1.663" gradientUnits="userSpaceOnUse"><stop stop-color="#fff" stop-opacity=".7"/><stop offset="1" stop-color="#A0A3CF"/></linearGradient><linearGradient id="d" x1="29.187" y1="18.593" x2="29.187" y2="47.872" gradientUnits="userSpaceOnUse"><stop stop-color="#E5E5E5"/><stop offset="1" stop-color="#E5E5E5" stop-opacity="0"/></linearGradient><linearGradient id="e" x1="67.437" y1="42.67" x2="29.21" y2="36.024" gradientUnits="userSpaceOnUse"><stop stop-color="#EFE6F6"/><stop offset="1" stop-color="#EEECF1"/></linearGradient><linearGradient id="f" x1="23.587" y1="23.355" x2="23.587" y2="27.299" gradientUnits="userSpaceOnUse"><stop stop-color="#E5E5E5"/><stop offset="1" stop-color="#E5E5E5" stop-opacity="0"/></linearGradient><linearGradient id="g" x1="80.769" y1="27.416" x2="13.254" y2="39.531" gradientUnits="userSpaceOnUse"><stop stop-color="#BDBEE3"/><stop offset="1" stop-color="#DEE5F8"/></linearGradient><filter id="c" x="12.726" y="10.631" width="38.236" height="49.221" filterUnits="userSpaceOnUse" color-interpolation-filters="sRGB"><feFlood flood-opacity="0" result="BackgroundImageFix"/><feColorMatrix in="SourceAlpha" values="0 0 0 0 0 0 0 0 0 0 0 0 0 0 0 0 0 0 127 0" result="hardAlpha"/><feOffset dx="5" dy="2"/><feGaussianBlur stdDeviation="5"/><feColorMatrix values="0 0 0 0 0.321569 0 0 0 0 0.156863 0 0 0 0 0.423529 0 0 0 0.3 0"/><feBlend in2="BackgroundImageFix" result="effect1_dropShadow_1115_95554"/><feBlend in="SourceGraphic" in2="effect1_dropShadow_1115_95554" result="shape"/></filter></defs></svg>