<svg width="64" height="67" fill="none" xmlns="http://www.w3.org/2000/svg"><path d="m.947 28.917-.22 4.221.22 4.221v-8.442Zm1.686-7.94-1.686 7.94v8.442l1.686-16.381ZM.947 37.36l.644 4.063L2.633 45.3.947 37.36Zm1.686-16.381L1.59 24.855l-.644 4.062 1.686-7.94ZM.947 37.359l1.686 7.94 3.189 7.085L.947 37.36Zm1.686 7.94 1.417 3.665 1.772 3.42-3.19-7.085Zm3.189-31.407L4.05 17.313l-1.417 3.665 3.189-7.086Zm4.524-5.972L2.633 20.978.947 37.359l9.4-29.439Zm0 0-4.524 5.972-3.19 7.086L10.347 7.92ZM.947 37.36l4.875 15.024L16.048 62.91.948 37.36Zm9.4-29.44-2.42 2.83-2.105 3.142 4.524-5.972ZM5.821 52.384l2.105 3.144 2.42 2.828-4.525-5.972ZM10.346 7.92.947 37.36l15.101 25.549L10.346 7.92ZM5.822 52.384l4.524 5.972 5.702 4.553L5.822 52.384Zm4.524 5.972 2.714 2.475 2.988 2.078-5.702-4.553Zm5.702-54.988L13.06 5.445 10.346 7.92l5.702-4.552Z" fill="#C4C4C4"/><path d="m35.955 65.32 2.75-.455 3.58-.593-6.33 1.048Z" fill="#B0B0B0"/><path d="m22.768.594-6.72 2.774-5.701 4.553L22.768.594Z" fill="#C4C4C4"/><path d="m39.563 1.555 2.723.45-3.58-.593.857.143ZM35.956.957l3.608.598-.857-.143-2.75-.455Zm3.608 63.765-3.608.598 6.33-1.048-2.721.45Zm0 0 2.723-.45 3.45-1.146-6.172 1.596Z" fill="#B0B0B0"/><path d="m16.047 62.91 3.243 1.633 3.477 1.14-6.72-2.774ZM22.767.593l-3.477 1.14-3.243 1.634 6.72-2.774Z" fill="#C4C4C4"/><path d="m43.044 2.714 2.694.437-3.45-1.146.756.71Zm-3.479-1.16 3.479 1.16-.757-.709-2.722-.45ZM33.126 65.79l2.83-.469 3.61-.598-6.44 1.067Zm9.918-2.226-3.479 1.16 6.172-1.597-2.693.437Zm0 0 2.694-.437 3.278-1.675-5.972 2.112ZM36.763 1.09l2.802.464-3.608-.598.806.134Z" fill="#B0B0B0"/><path d="m16.047 62.91 6.72 2.773 7.443.588-14.163-3.362Z" fill="#C4C4C4"/><path d="m46.35 4.41 2.666.416-3.279-1.675.613 1.259ZM33.126.488l3.637.603-.806-.134-2.831-.469Z" fill="#B0B0B0"/><path d="M37.413 1.8 22.768.595 10.347 7.92 37.413 1.8Z" fill="#C4C4C4"/><path d="M43.044 2.714 46.35 4.41l-.613-1.259-2.693-.437Zm-6.281 62.472-3.637.603 6.44-1.067-2.803.464Zm0 0 2.802-.464 3.479-1.16-6.281 1.624Zm9.587-3.319 2.666-.416 3.064-2.174-5.73 2.59Zm0 0-3.306 1.696 5.972-2.112-2.666.416ZM40.27 2.264l2.774.45-3.479-1.16.705.71Zm9.17 4.349L52.08 7l-3.064-2.175.424 1.788Z" fill="#B0B0B0"/><path d="m22.766 65.683 3.688.594 3.755-.006-7.443-.588ZM30.209.006 26.454 0l-3.688.594 7.443-.588Z" fill="#C4C4C4"/><path d="m36.763 1.091 3.507 1.173-.705-.71-2.802-.463ZM46.35 4.41l3.09 2.203-.424-1.787-2.666-.416Z" fill="#B0B0B0"/><path d="m10.347 7.92 5.702 54.989L55.53 28.327 10.347 7.92Z" fill="#C4C4C4"/><path d="m30.209 66.27 2.914-.481 3.637-.603-6.551 1.085Zm19.228-6.606 2.64-.387 2.804-2.643-5.444 3.03Zm-9.17 4.349-3.507 1.173 6.28-1.623-2.773.45Zm9.17-4.349-3.09 2.203 5.73-2.59-2.64.387Zm-9.17 4.349 2.774-.45 3.306-1.696-6.08 2.146ZM33.875.614l2.885.477-3.637-.603.752.126Zm18.39 8.679 2.616.35L52.077 7l.189 2.293ZM43.602 3.98l2.746.429-3.306-1.696.56 1.267ZM30.21.006l3.666.608-.752-.126L30.21.006Zm19.228 6.607 2.829 2.68L52.077 7l-2.64-.387Z" fill="#B0B0B0"/><path d="m16.047 62.91 14.163 3.36 13.707-5.797-27.87 2.436ZM37.41 1.8 30.21.006l-7.444.588L37.41 1.8Z" fill="#C4C4C4"/><path d="m40.267 2.264 3.334 1.718-.56-1.268-2.774-.45Zm11.999 54.72 2.615-.35 2.497-3.076-5.112 3.426Zm-18.391 8.68-3.666.607 6.551-1.085-2.885.477Zm18.39-8.68-2.828 2.68 5.444-3.03-2.615.35Zm-18.39 8.68 2.885-.478 3.507-1.173-6.392 1.65Zm9.726-3.368 2.746-.428 3.09-2.204-5.836 2.632Zm0 0-3.334 1.717 6.08-2.145-2.746.428Zm11.184-49.882 2.593.306-2.497-3.077-.096 2.771ZM37.41 1.801l2.857.463-3.507-1.172.65.709Zm9.308 4.414 2.72.398-3.09-2.203.37 1.805Zm5.548 3.078 2.52 3.121.095-2.771-2.615-.35Zm2.52 44.57 2.592-.305 2.145-3.473-4.738 3.778ZM33.874.614l3.535 1.187-.65-.71-2.885-.477ZM43.6 3.982l3.117 2.233-.37-1.805-2.747-.428Zm11.184 49.881-2.52 3.121 5.113-3.426-2.593.305Zm2.165-37.925 2.572.255-2.144-3.473-.428 3.218Z" fill="#B0B0B0"/><path d="m30.209 66.27 3.666-.607 3.535-1.186-7.201 1.794ZM37.41 1.8 33.875.614 30.209.006 37.41 1.8Z" fill="#C4C4C4"/><path d="m46.72 60.063 2.72-.399 2.828-2.68-5.548 3.078Zm-9.307 4.414-3.536 1.186 6.392-1.65-2.856.464Zm9.307-4.415-3.116 2.234 5.836-2.632-2.72.398Zm-9.307 4.415 2.856-.464 3.335-1.717-6.191 2.18Z" fill="#B0B0B0"/><path d="M55.53 28.328 37.414 1.8 10.347 7.92 55.53 28.328Z" fill="#C4C4C4"/><path d="m56.951 50.34 2.573-.256 1.745-3.826-4.318 4.081Zm-2.164-37.926 2.164 3.523.43-3.217-2.594-.306Zm-5.214-3.482 2.695.36-2.829-2.68.134 2.32Zm9.14 10.888 2.556.199-1.745-3.826-.812 3.627ZM40.773 3.54l2.83.441-3.335-1.717.505 1.276Zm16.177 46.8-2.164 3.523 4.737-3.779-2.573.255Zm1.761-3.884 2.557-.198 1.3-4.134-3.857 4.332ZM46.72 6.215l2.853 2.717-.134-2.32-2.719-.397ZM37.412 1.8l3.362 1.74-.505-1.276-2.857-.464Zm22.612 22.216 2.545.136-1.3-4.133-1.245 3.997Zm-3.073-8.079 1.761 3.883.812-3.628-2.573-.255Zm-7.378 41.408 2.695-.36 2.52-3.122-5.215 3.482Zm0 0-2.853 2.717 5.548-3.078-2.695.36Z" fill="#B0B0B0"/><path d="m30.209 66.27 7.201-1.794 6.506-4.003L30.21 66.27Z" fill="#C4C4C4"/><path d="m60.024 42.26 2.545-.135.81-4.391-3.355 4.527Zm-1.312 4.197-1.76 3.883 4.317-4.082-2.557.199Zm2.13-17.983 2.537.07-.81-4.391-1.727 4.32ZM40.774 62.737l2.83-.441 3.116-2.233-5.946 2.674Zm0 0-3.362 1.74 6.191-2.181-2.829.441ZM52.116 12.1l2.671.315-2.52-3.121-.151 2.806Zm8.726 25.704 2.537-.07.278-4.594-2.815 4.664Zm.281-4.664h2.534l-.278-4.595-2.256 4.595Zm-2.41-13.318 1.311 4.195 1.245-3.997-2.557-.198Z" fill="#B0B0B0"/><path d="m16.047 62.91 27.87-2.437L55.53 28.328 16.047 62.909Z" fill="#C4C4C4"/><path d="m43.917 5.804 2.802.41-3.117-2.233.315 1.823Zm16.106 36.457-1.311 4.195 3.856-4.331-2.545.136ZM49.573 8.932l2.542 3.167.152-2.806-2.695-.36Zm2.542 45.246 2.672-.315 2.164-3.523-4.836 3.838Zm7.908-30.162.818 4.458 1.727-4.322-2.545-.136Zm.818 13.787-.818 4.458 3.355-4.527-2.537.07ZM40.773 3.54l3.144 2.264-.315-1.823-2.829-.441Zm11.342 50.638-2.543 3.167 5.215-3.482-2.672.315ZM54.3 15.675l2.652.263-2.164-3.524-.488 3.26Zm6.542 12.799.281 4.665 2.256-4.595-2.537-.07Zm.281 4.665-.281 4.664 2.815-4.664h-2.534ZM43.917 60.473l2.802-.41 2.853-2.718-5.655 3.128Zm0 0-3.144 2.264 5.946-2.675-2.802.411Z" fill="#B0B0B0"/><path d="m37.412 64.477 3.362-1.74 3.144-2.264-6.506 4.004Zm6.506-58.673L40.774 3.54 37.412 1.8l6.506 4.004Z" fill="#C4C4C4"/><path d="m54.3 50.602 2.651-.263 1.761-3.883-4.412 4.146Zm-2.184-38.504 2.184 3.576.487-3.26-2.671-.316Zm-5.32-3.538 2.777.372-2.853-2.718.077 2.346Zm9.281 11.056 2.635.204-1.76-3.883-.875 3.679ZM54.3 50.602l-2.184 3.576 4.835-3.839-2.651.263Zm1.777-3.942 2.635-.204 1.312-4.196-3.947 4.4ZM43.918 5.804l2.879 2.756-.077-2.346-2.802-.41Zm13.483 18.072 2.623.14-1.312-4.196-1.31 4.055ZM54.3 15.673l1.777 3.942.874-3.679-2.651-.263Zm-7.503 42.042 2.776-.372 2.543-3.166-5.32 3.538Z" fill="#B0B0B0"/><path d="m49.362 11.774-5.444-5.97L37.412 1.8l11.95 9.974Z" fill="#C4C4C4"/><path d="m46.797 57.716-2.879 2.757 5.655-3.128-2.776.371ZM57.4 42.401l2.623-.14.818-4.458-3.44 4.598Zm-1.324 4.26L54.3 50.602l4.412-4.145-2.635.204Zm2.15-18.259 2.615.072-.818-4.457-1.797 4.385Zm-8.865-16.628 2.754.325-2.543-3.166-.211 2.841Zm8.864 26.101 2.616-.072.281-4.664-2.896 4.736Zm.285-4.736h2.612l-.281-4.665-2.331 4.665Zm-2.434-13.523 1.324 4.26 1.311-4.055-2.635-.205ZM57.4 42.401l-1.324 4.26 3.947-4.4-2.623.14ZM46.796 8.561l2.566 3.213.211-2.841-2.776-.372Zm2.566 45.942 2.754-.325 2.184-3.575-4.938 3.9Zm8.04-30.627.825 4.526 1.797-4.386-2.623-.14Zm.825 14L57.4 42.4l3.44-4.598-2.614.072Zm-8.865 16.627-2.566 3.213 5.32-3.538-2.754.325Zm2.204-39.099 2.734.27-2.184-3.575-.55 3.305Zm6.66 12.998.285 4.737 2.33-4.665-2.614-.072Zm.285 4.737-.285 4.736 2.897-4.736h-2.612Z" fill="#B0B0B0"/><path d="m43.918 60.473 2.878-2.757 2.566-3.213-5.444 5.97Zm5.444-48.699-2.566-3.213-2.878-2.757 5.444 5.97Zm6.167 16.554-6.167-16.554L37.412 1.8 55.53 28.328Z" fill="#C4C4C4"/><path d="m51.568 50.873 2.734-.27 1.778-3.942-4.512 4.212Zm-2.204-39.1 2.204 3.63.55-3.304-2.754-.325Zm3.998 7.633 2.718.21-1.778-3.941-.94 3.73Zm-1.794 31.467-2.204 3.63 4.938-3.9-2.734.27Z" fill="#B0B0B0"/><path d="m43.918 60.473 5.444-5.97 3.998-7.631-9.442 13.601Z" fill="#C4C4C4"/><path d="m53.36 46.871 2.717-.21L57.4 42.4l-4.042 4.47Zm1.336-23.14 2.705.145-1.324-4.26-1.381 4.115Zm-3.13-8.327 1.793 4.002.94-3.731-2.734-.271Zm3.13 27.142L57.4 42.4l.825-4.526-3.53 4.67Zm-1.337 4.325-1.794 4.002 4.512-4.212-2.718.21Zm2.17-18.543 2.697.074-.825-4.526-1.872 4.452Z" fill="#B0B0B0"/><path d="M43.918 60.473 53.36 46.87l2.17-18.543-11.612 32.145Z" fill="#C4C4C4"/><path d="m55.53 37.95 2.696-.075.284-4.736-2.98 4.81Zm.286-4.812h2.694l-.284-4.736-2.41 4.736Z" fill="#B0B0B0"/><path d="m49.364 54.503 2.204-3.63 1.794-4.002-3.998 7.632Zm3.998-35.097-1.794-4.002-2.204-3.63 3.998 7.632Z" fill="#C4C4C4"/><path d="m53.36 19.406 1.336 4.325 1.38-4.115-2.717-.21Zm1.336 23.14-1.337 4.325 4.042-4.47-2.705.145Zm0-18.815.833 4.597 1.872-4.452-2.705-.145Z" fill="#B0B0B0"/><path d="m55.532 28.328-2.17-8.922-3.998-7.632 6.168 16.554Z" fill="#C4C4C4"/><path d="m55.531 37.95-.833 4.596 3.53-4.67-2.697.073Zm0-9.622.287 4.81 2.41-4.736-2.697-.074Zm.287 4.81-.287 4.811 2.982-4.81h-2.695Z" fill="#B0B0B0"/><path d="m53.36 46.871 1.336-4.325.833-4.597-2.17 8.922Zm2.17-18.543-.834-4.597-1.337-4.325 2.17 8.922ZM53.36 46.87l2.17-8.922v-9.621L53.36 46.87Zm2.17-8.922.286-4.81-.287-4.811v9.621Z" fill="#C4C4C4"/><path d="M55.579 33.256c0 18.18-12.237 32.755-27.149 32.755-14.91 0-27.148-14.574-27.148-32.755C1.282 15.075 13.52.5 28.43.5c14.913 0 27.15 14.575 27.15 32.756Z" fill="url(#a)" stroke="url(#b)"/><g filter="url(#c)"><path d="m21.683 28.441 3.106.063 3.203-2.787-6.31 2.724Zm3.229-2.82-3.23 2.82 6.31-2.724-3.08-.097Z" fill="#E5E5E5"/><path d="m19.407 24.395 2.274 4.046 3.229-2.821-5.503-1.225Z" fill="#fff"/><path d="m29.271 48.872 3.046-.185v-30.03L29.27 48.873Z" fill="#E5E5E5"/><path d="m29.272 18.473-9.864 5.922 5.503 1.225 4.36-7.147Zm0 0-3.153.062-6.71 5.86 9.863-5.922Z" fill="#fff"/><path d="M29.271 18.473V48.87l3.046-30.214-3.046-.184Z" fill="#E5E5E5"/><path fill-rule="evenodd" clip-rule="evenodd" d="M29.272 48.871V18.473l3.045.184-3.045 30.214Zm0 0 3.045-.184v-30.03l-3.045 30.215Zm-7.59-20.43 3.107.063 3.203-2.787-3.08-.097-3.23 2.821Z" fill="url(#d)"/><path d="M24.912 25.62v23.165l4.36-30.312-4.36 7.147Zm0 23.165 4.36.086V18.473l-4.36 30.313Z" fill="#fff"/></g><path d="m31.229.235-1.35-.211c.455.061.905.131 1.35.211l11.314 1.77c1.9.474 6.589 2.214 10.14 5.384 3.55 3.17 6.237 7.437 7.136 9.175l1.959 4.307c1.03 3.26 2.828 11.027 1.784 16.023-.627 5.03-2.524 9.993-3.395 11.845-1.087 2.598-4.708 8.683-10.487 12.232-3.046 2.541-9.487 4.049-14.883 4.609.667-.172 2.141-.586 2.698-.861.697-.345 20-8.675 18.284-34.44C54.44 14.252 45.205 2.734 31.23.235Z" fill="url(#e)"/><defs><linearGradient id="a" x1="28.43" y1="0" x2="40.571" y2="67.974" gradientUnits="userSpaceOnUse"><stop stop-color="#DEE5F8"/><stop offset="1" stop-color="#BDBEE3"/></linearGradient><linearGradient id="b" x1="38.864" y1="53.368" x2="-4.253" y2="1.663" gradientUnits="userSpaceOnUse"><stop stop-color="#fff" stop-opacity=".7"/><stop offset="1" stop-color="#A0A3CF"/></linearGradient><linearGradient id="d" x1="28.524" y1="1.58" x2="29.679" y2="51.15" gradientUnits="userSpaceOnUse"><stop stop-color="#F0E3FA"/><stop offset="1" stop-color="#EFEDF0"/></linearGradient><linearGradient id="e" x1="80.769" y1="27.416" x2="13.254" y2="39.531" gradientUnits="userSpaceOnUse"><stop stop-color="#BDBEE3"/><stop offset="1" stop-color="#DEE5F8"/></linearGradient><filter id="c" x="14.407" y="10.473" width="32.91" height="50.399" filterUnits="userSpaceOnUse" color-interpolation-filters="sRGB"><feFlood flood-opacity="0" result="BackgroundImageFix"/><feColorMatrix in="SourceAlpha" values="0 0 0 0 0 0 0 0 0 0 0 0 0 0 0 0 0 0 127 0" result="hardAlpha"/><feOffset dx="5" dy="2"/><feGaussianBlur stdDeviation="5"/><feColorMatrix values="0 0 0 0 0.32339 0 0 0 0 0.157604 0 0 0 0 0.425 0 0 0 0.3 0"/><feBlend in2="BackgroundImageFix" result="effect1_dropShadow_1115_95494"/><feBlend in="SourceGraphic" in2="effect1_dropShadow_1115_95494" result="shape"/></filter></defs></svg>