<svg width="75" height="75" fill="none" xmlns="http://www.w3.org/2000/svg"><g filter="url(#a)"><circle cx="37.5" cy="37.5" r="37.5" fill="#fff" fill-opacity=".8"/><circle cx="37.5" cy="37.5" r="37" stroke="#fff"/></g><g filter="url(#b)"><circle cx="37.355" cy="37.355" r="37.355" fill="url(#c)" fill-opacity=".4"/><circle cx="37.355" cy="37.355" r="36.355" stroke="url(#d)" stroke-width="2"/></g><g clip-path="url(#e)" filter="url(#f)"><path d="M37 51c7.732 0 14-6.044 14-13.5S44.732 24 37 24s-14 6.044-14 13.5S29.268 51 37 51Z" fill="#FF7872"/><path d="M37.025 24v27C44.745 50.985 51 44.946 51 37.5c0-7.448-6.254-13.487-13.975-13.5Z" fill="#EE544D"/><path d="M44.654 34.093h-3.862a.248.248 0 0 1-.172-.068.23.23 0 0 1-.071-.166v-3.724a.77.77 0 0 0-.784-.756h-5.479a.77.77 0 0 0-.784.756v3.724a.23.23 0 0 1-.07.166.248.248 0 0 1-.173.068h-3.862c-.433 0-.784.339-.784.756v5.283a.77.77 0 0 0 .784.756h3.862c.065 0 .127.025.172.069a.23.23 0 0 1 .071.166v3.724c0 .417.351.756.784.756h5.479a.77.77 0 0 0 .784-.757v-3.723a.23.23 0 0 1 .071-.166.248.248 0 0 1 .172-.069h3.862a.77.77 0 0 0 .784-.756V34.85a.77.77 0 0 0-.784-.757Z" fill="#fff"/><path d="M44.654 34.093h-3.862a.248.248 0 0 1-.172-.068.23.23 0 0 1-.071-.166v-3.724c0-.418-.352-.756-.785-.756h-2.739v16.224h2.74c.433 0 .784-.339.784-.756v-3.724a.23.23 0 0 1 .07-.166.248.248 0 0 1 .173-.069h3.862a.77.77 0 0 0 .784-.756V34.85a.77.77 0 0 0-.784-.757Z" fill="#F4F1F1"/></g><defs><filter id="a" x="-4" y="-4" width="83" height="83" filterUnits="userSpaceOnUse" color-interpolation-filters="sRGB"><feFlood flood-opacity="0" result="BackgroundImageFix"/><feGaussianBlur in="BackgroundImageFix" stdDeviation="2"/><feComposite in2="SourceAlpha" operator="in" result="effect1_backgroundBlur_1165_85252"/><feBlend in="SourceGraphic" in2="effect1_backgroundBlur_1165_85252" result="shape"/></filter><filter id="b" x="-15" y="-15" width="104.711" height="104.711" filterUnits="userSpaceOnUse" color-interpolation-filters="sRGB"><feFlood flood-opacity="0" result="BackgroundImageFix"/><feGaussianBlur in="BackgroundImageFix" stdDeviation="7.5"/><feComposite in2="SourceAlpha" operator="in" result="effect1_backgroundBlur_1165_85252"/><feBlend in="SourceGraphic" in2="effect1_backgroundBlur_1165_85252" result="shape"/></filter><filter id="f" x="11" y="16" width="52" height="51" filterUnits="userSpaceOnUse" color-interpolation-filters="sRGB"><feFlood flood-opacity="0" result="BackgroundImageFix"/><feColorMatrix in="SourceAlpha" values="0 0 0 0 0 0 0 0 0 0 0 0 0 0 0 0 0 0 127 0" result="hardAlpha"/><feOffset dy="4"/><feGaussianBlur stdDeviation="6"/><feColorMatrix values="0 0 0 0 0 0 0 0 0 0 0 0 0 0 0 0 0 0 0.2 0"/><feBlend in2="BackgroundImageFix" result="effect1_dropShadow_1165_85252"/><feBlend in="SourceGraphic" in2="effect1_dropShadow_1165_85252" result="shape"/></filter><linearGradient id="c" x1="49.923" y1="28.687" x2="-5.146" y2="109.711" gradientUnits="userSpaceOnUse"><stop stop-color="#fff"/><stop offset="1" stop-color="#D1E4F0"/></linearGradient><linearGradient id="d" x1="61.316" y1="-18.431" x2="33.756" y2="68.702" gradientUnits="userSpaceOnUse"><stop stop-color="#DEE5F8"/><stop offset="1" stop-color="#fff"/></linearGradient><clipPath id="e"><path fill="#fff" transform="translate(23 24)" d="M0 0h28v27H0z"/></clipPath></defs></svg>