<svg width="416" height="6277" fill="none" xmlns="http://www.w3.org/2000/svg"><path transform="rotate(58.574 -288.034 -1176)" fill="url(#a)" d="M-288.034-1176h1920V197.76h-1920z"/><path transform="rotate(58.574 -288.034 -1176)" fill="url(#b)" d="M-288.034-1176h1920V987h-1920z"/><path transform="rotate(148.574 749.016 521.222)" fill="url(#c)" d="M749.016 521.222h1898.93v2187H749.016z"/><path d="M71.419 870.987C338.253 673.919 352.248 487.43 238.688 262.356c-113.56-225.075 28.161-456.574 242.157-564.545 213.996-107.971 126.97 620.167 240.53 845.241 113.561 225.075-435.96 219.964-649.956 327.935Z" fill="url(#d)"/><path d="M164.855 827.183C414.31 612.649 416.671 432.723 291.7 228.198c-124.971-204.525-.201-439.916 202.905-564.02 203.107-124.104 162.161 581.545 287.132 786.07 124.971 204.525-413.776 252.83-616.882 376.935Z" fill="url(#e)"/><path transform="rotate(37.255 124.347 1113.34)" fill="url(#f)" d="M124.347 1113.34h844.78v775.261h-844.78z"/><path transform="rotate(37.255 21.002 1249.23)" fill="url(#g)" d="M21.002 1249.23h844.78v951.697H21.002z"/><path transform="rotate(127.255 804.154 1727.66)" fill="url(#h)" d="M804.154 1727.66h946.857v962.257H804.154z"/><path d="M60.68 1598.71C14.883 1457.35-119.831 1433-181.463 1438.5l-136.838 193.61c87.645-35.06 300.988-98.9 374.4 24.94 90.336 152.38 195.5 149.2 284.616 199.62 71.292 40.33 110.651 176.24 120.545 241.16 35.922-47.53 110.595-148.56 121.909-172.49 14.141-29.93-112.779-173.62-235.799-165.39l-.235.02c-122.921 8.22-229.242 15.34-286.453-161.26Z" fill="url(#i)"/><path d="M104.003 1553.17c-48.32-140.46-220.478-128.07-282.027-121.47l-133.431 195.96c87.043-36.61 299.302-104.23 374.93 18.21 93.065 150.68 198.197 145.63 288.229 194.42 72.025 39.03 113.808 174.17 124.858 238.87 35.086-48.14 107.982-150.46 118.872-174.58 13.614-30.16-121.039-202.17-243.942-191.74l-.071.01c-122.856 10.43-187.029 15.87-247.418-159.68Z" fill="url(#j)"/><g filter="url(#k)"><path d="M328.845 1726.64c159.973-10.04 249.845 108.97 274.784 169.73l-121.046 203.75c-8.973-96.75-51.718-324.08-208.211-346.99-192.57-28.18-241.159-129.5-333.972-195.21-74.251-52.57-225.76-38.47-293.747-23.26 28.564-52.23 90.121-161.66 107.839-181.51 22.149-24.82 224.249 41.48 276.69 161.73l.1.23c52.4 120.15 97.723 224.07 297.563 211.53Z" fill="url(#l)"/></g><path transform="scale(-1 1) rotate(37.255 -7334.534 1912.771)" fill="url(#m)" d="M0 0h844.78v775.261H0z"/><path transform="scale(-1 1) rotate(37.255 -7587.782 1827.417)" fill="url(#n)" d="M0 0h844.78v951.697H0z"/><path transform="scale(1 -1) rotate(-52.745 -5661.253 -2378.325)" fill="url(#o)" d="M0 0h946.857v962.257H0z"/><path d="M402.352 5315.71C448.15 5174.35 582.864 5150 644.496 5155.5l136.838 193.61c-87.644-35.06-300.988-98.9-374.399 24.94-90.337 152.38-195.501 149.2-284.616 199.62C51.026 5614 11.668 5749.92 1.773 5814.83c-35.922-47.53-110.595-148.56-121.908-172.49-14.142-29.92 112.778-173.62 235.799-165.39l.234.02c122.921 8.22 229.242 15.34 286.454-161.26Z" fill="url(#p)"/><path d="M359.029 5270.17c48.321-140.46 220.478-128.07 282.027-121.47l133.431 195.96c-87.042-36.61-299.302-104.23-374.93 18.21-93.064 150.68-198.197 145.63-288.229 194.42-72.025 39.03-113.807 174.17-124.857 238.87-35.087-48.14-107.982-150.46-118.873-174.58-13.613-30.16 121.04-202.17 243.942-191.74l.071.01c122.857 10.43 187.03 15.87 247.418-159.68Z" fill="url(#q)"/><g filter="url(#r)"><path d="M134.188 5443.64c-159.974-10.04-249.846 108.97-274.784 169.73l121.046 203.75c8.972-96.75 51.717-324.09 208.21-346.99 192.57-28.18 241.159-129.5 333.972-195.21 74.251-52.57 225.76-38.47 293.747-23.26-28.564-52.23-90.121-161.66-107.839-181.51-22.148-24.82-224.249 41.48-276.69 161.73l-.1.23c-52.399 120.15-97.722 224.07-297.562 211.53Z" fill="url(#s)"/></g><defs><radialGradient id="b" cx="0" cy="0" r="1" gradientUnits="userSpaceOnUse" gradientTransform="rotate(21.947 575.83 -613.427) scale(647.956 1215.01)"><stop stop-color="#CCCEF1"/><stop offset="1" stop-color="#DDF1FD" stop-opacity="0"/></radialGradient><radialGradient id="c" cx="0" cy="0" r="1" gradientUnits="userSpaceOnUse" gradientTransform="matrix(1408.37189 -422.49966 806.18538 2687.3603 489.396 2157.72)"><stop stop-color="#FADFFF"/><stop offset="1" stop-color="#fff" stop-opacity="0"/></radialGradient><radialGradient id="d" cx="0" cy="0" r="1" gradientUnits="userSpaceOnUse" gradientTransform="matrix(-74.14763 917.2028 -964.66595 -77.9846 245.321 -95.023)"><stop stop-color="#F1EFFF"/><stop offset="1" stop-color="#EDF8FF"/></radialGradient><radialGradient id="e" cx="0" cy="0" r="1" gradientUnits="userSpaceOnUse" gradientTransform="matrix(467.19355 33.8745 -34.11097 470.45499 301.549 199.339)"><stop stop-color="#fff"/><stop offset="1" stop-color="#F3F4FC"/></radialGradient><radialGradient id="f" cx="0" cy="0" r="1" gradientUnits="userSpaceOnUse" gradientTransform="rotate(-48.798 1715.011 281.954) scale(288.887 319.712)"><stop stop-color="#fff"/><stop offset="0" stop-color="#fff"/><stop offset="1" stop-color="#DDF1FD" stop-opacity="0"/></radialGradient><radialGradient id="g" cx="0" cy="0" r="1" gradientUnits="userSpaceOnUse" gradientTransform="rotate(29.552 -3063.777 782.447) scale(251.124 470.892)"><stop stop-color="#CCCEF1"/><stop offset="1" stop-color="#DDF1FD" stop-opacity="0"/></radialGradient><radialGradient id="h" cx="0" cy="0" r="1" gradientUnits="userSpaceOnUse" gradientTransform="rotate(-133.056 1124.892 1044.99) scale(339.316 581.956)"><stop stop-color="#FADFFF"/><stop offset="1" stop-color="#fff" stop-opacity="0"/></radialGradient><radialGradient id="m" cx="0" cy="0" r="1" gradientUnits="userSpaceOnUse" gradientTransform="rotate(-48.798 425.592 -137.652) scale(288.887 319.712)"><stop stop-color="#fff"/><stop offset="0" stop-color="#fff"/><stop offset="1" stop-color="#DDF1FD" stop-opacity="0"/></radialGradient><radialGradient id="n" cx="0" cy="0" r="1" gradientUnits="userSpaceOnUse" gradientTransform="rotate(29.552 -706.183 118.02) scale(251.124 470.892)"><stop stop-color="#CCCEF1"/><stop offset="1" stop-color="#DDF1FD" stop-opacity="0"/></radialGradient><radialGradient id="o" cx="0" cy="0" r="1" gradientUnits="userSpaceOnUse" gradientTransform="rotate(-133.056 347.71 355.754) scale(339.316 581.956)"><stop stop-color="#FADFFF"/><stop offset="1" stop-color="#fff" stop-opacity="0"/></radialGradient><linearGradient id="a" x1="1631.97" y1="-1097.5" x2="871.993" y2="-976.684" gradientUnits="userSpaceOnUse"><stop stop-color="#fff"/><stop offset="0" stop-color="#fff"/><stop offset="1" stop-color="#DDF1FD" stop-opacity="0"/></linearGradient><linearGradient id="i" x1="446.645" y1="1769.69" x2="-40.25" y2="1450.09" gradientUnits="userSpaceOnUse"><stop stop-color="#DFF0FA"/><stop offset="1" stop-color="#FCF1FF"/></linearGradient><linearGradient id="j" x1="456.115" y1="1751.46" x2="-36.33" y2="1440.38" gradientUnits="userSpaceOnUse"><stop stop-color="#E8F6FE"/><stop offset="1" stop-color="#F7DEFF"/></linearGradient><linearGradient id="l" x1="-27.063" y1="1424.06" x2="516.742" y2="1775.95" gradientUnits="userSpaceOnUse"><stop stop-color="#FAE9FF"/><stop offset="1" stop-color="#E2F0F9"/></linearGradient><linearGradient id="p" x1="16.387" y1="5486.69" x2="503.282" y2="5167.09" gradientUnits="userSpaceOnUse"><stop stop-color="#DFF0FA"/><stop offset="1" stop-color="#FCF1FF"/></linearGradient><linearGradient id="q" x1="6.917" y1="5468.46" x2="499.362" y2="5157.38" gradientUnits="userSpaceOnUse"><stop stop-color="#E8F6FE"/><stop offset="1" stop-color="#F7DEFF"/></linearGradient><linearGradient id="s" x1="490.096" y1="5141.06" x2="-53.71" y2="5492.95" gradientUnits="userSpaceOnUse"><stop stop-color="#FAE9FF"/><stop offset="1" stop-color="#E2F0F9"/></linearGradient><filter id="k" x="-403.347" y="1327.98" width="1056.98" height="852.14" filterUnits="userSpaceOnUse" color-interpolation-filters="sRGB"><feFlood flood-opacity="0" result="BackgroundImageFix"/><feColorMatrix in="SourceAlpha" values="0 0 0 0 0 0 0 0 0 0 0 0 0 0 0 0 0 0 127 0" result="hardAlpha"/><feOffset dy="30"/><feGaussianBlur stdDeviation="25"/><feColorMatrix values="0 0 0 0 0 0 0 0 0 0.108333 0 0 0 0 0.270833 0 0 0 0.07 0"/><feBlend in2="BackgroundImageFix" result="effect1_dropShadow_927_728062"/><feBlend in="SourceGraphic" in2="effect1_dropShadow_927_728062" result="shape"/></filter><filter id="r" x="-190.597" y="5044.98" width="1056.98" height="852.139" filterUnits="userSpaceOnUse" color-interpolation-filters="sRGB"><feFlood flood-opacity="0" result="BackgroundImageFix"/><feColorMatrix in="SourceAlpha" values="0 0 0 0 0 0 0 0 0 0 0 0 0 0 0 0 0 0 127 0" result="hardAlpha"/><feOffset dy="30"/><feGaussianBlur stdDeviation="25"/><feColorMatrix values="0 0 0 0 0 0 0 0 0 0.108333 0 0 0 0 0.270833 0 0 0 0.07 0"/><feBlend in2="BackgroundImageFix" result="effect1_dropShadow_927_728062"/><feBlend in="SourceGraphic" in2="effect1_dropShadow_927_728062" result="shape"/></filter></defs></svg>