<svg width="159" height="135" fill="none" xmlns="http://www.w3.org/2000/svg"><g filter="url(#a)" fill="#0098D7"><path d="m31.374 64.498 2.718-1.342-.133-.429-2.585 1.77Zm-.133-.43 2.718-1.34-.12-.44-2.598 1.78Zm-.12-.44 2.717-1.34-.11-.452-2.608 1.793Zm-.11-.451 2.717-1.34-.098-.464-2.62 1.804Zm-.099-.464 2.718-1.34-.086-.474-2.632 1.814Zm-.087-.474 2.719-1.34-.075-.486-2.644 1.826Zm-.075-.487 2.719-1.339-.064-.497-2.655 1.836Zm-.063-.498 2.718-1.338-.052-.509-2.666 1.847Zm-.052-.51 2.718-1.337-.04-.52-2.678 1.858Zm-.04-.52 2.718-1.337-.029-.532-2.69 1.869Zm-.03-.532 2.719-1.337-.017-.543-2.702 1.88Zm-.017-.544 2.719-1.336-.006-.555-2.713 1.89Zm-.006-.556 2.719-1.335.042-1.352-2.76 2.687Zm.042-1.353 2.72-1.334.126-1.347-2.846 2.68Zm18.942 38.088 2.698-1.377.987-.51-3.684 1.887ZM30.712 55.89l2.718-1.332.212-1.342-2.93 2.674Zm19.803 38.927 2.696-1.376.953-.581-3.649 1.957ZM35.314 62.152l2.713-1.34-.825.367-1.888.972Zm-4.39-7.605 2.718-1.331.296-1.337-3.015 2.668Zm5.236 7.288 2.712-1.339-.845.316-1.867 1.023Zm-4.94-8.627 2.718-1.329.381-1.331-3.099 2.66Zm20.25 41.028 2.695-1.376.918-.651-3.613 2.027ZM37.025 61.57l2.711-1.339-.864.265-1.847 1.074Zm-5.423-9.695 2.717-1.327.466-1.327-3.183 2.654Zm20.786 41.709 2.694-1.375.884-.722-3.578 2.097Zm-14.48-32.229 2.711-1.338-.883.214-1.827 1.124Zm-5.84-10.808 2.717-1.326.55-1.321-3.267 2.647Zm21.205 42.314 2.693-1.374.849-.792-3.542 2.166Zm-14.46-31.67 2.709-1.338-.903.164-1.807 1.175Zm-6.194-11.967 2.716-1.324.635-1.316-3.351 2.64Zm21.504 42.844 2.692-1.373.841-.89-3.533 2.263ZM39.735 61.08l2.709-1.338-.922.112-1.787 1.226Zm-6.48-13.172 2.715-1.323.72-1.311-3.436 2.634Zm7.422 13.11 2.708-1.337-.941.061-1.767 1.277Zm14.288 30.16 2.691-1.372.768-.922-3.46 2.294Zm-13.326-30.17 2.706-1.338-.96.01-1.746 1.328Zm-7.664-14.413 2.715-1.321.805-1.306-3.52 2.627Zm21.759 43.66 2.69-1.371.695-.955-3.385 2.326ZM42.87 61.061l2.705-1.338-1.23-.054-1.475 1.392Zm13.56 28.237 2.69-1.37.621-.987-3.311 2.357ZM34.78 45.287l2.715-1.32.889-1.301-3.604 2.621Zm9.287 15.898 2.703-1.339-1.195-.123-1.508 1.462ZM57.052 88.31l2.69-1.37.548-1.019-3.238 2.389ZM35.67 43.985l2.714-1.319.974-1.296-3.688 2.615Zm9.559 17.393 2.702-1.339-1.16-.193-1.542 1.532ZM57.602 87.29l2.688-1.368.476-1.051-3.164 2.42ZM46.356 61.64l2.701-1.338-1.126-.263-1.575 1.602Zm11.722 24.598 2.688-1.367.402-1.084-3.09 2.45Zm-21.433-43.55 2.713-1.318 1.077-1.263-3.79 2.58Zm10.803 19.285 2.7-1.34-1.09-.331-1.61 1.671Zm11.033 23.18 2.687-1.366.33-1.116-3.017 2.482Zm-9.975-22.778 2.7-1.34-1.058-.401-1.642 1.741Zm10.304 21.66 2.688-1.364.256-1.149-2.944 2.513ZM37.724 41.423l2.711-1.316 1.11-1.204-3.82 2.52ZM49.53 62.847l2.697-1.34-1.022-.471-1.675 1.811Zm9.537 20.039 2.687-1.364.183-1.18-2.87 2.544Zm-8.549-19.497 2.697-1.341-.988-.541-1.709 1.882Zm8.732 18.315 2.687-1.362.11-1.213-2.797 2.575ZM38.834 40.218l2.71-1.315 1.14-1.145-3.85 2.46ZM51.472 64l2.696-1.342-.953-.61L51.472 64Zm7.888 16.49 2.687-1.361.037-1.246-2.724 2.606Zm-6.969-15.81 2.695-1.342-.918-.68-1.777 2.022Zm7.006 14.563 2.687-1.36-.037-1.332-2.65 2.692ZM53.276 65.43l2.693-1.344-.883-.75-1.81 2.094Zm6.085 12.478 2.687-1.358-.11-1.286-2.577 2.644ZM54.126 66.25l2.692-1.345-.849-.819-1.843 2.164ZM39.975 39.07l2.709-1.313 1.17-1.087-3.88 2.4Zm19.276 37.55 2.687-1.356-.183-1.241-2.504 2.597Zm-4.283-9.539 2.692-1.345-.842-.83-1.85 2.175Zm4.1 8.296 2.687-1.354-.256-1.196-2.43 2.55Zm-3.331-7.418 2.69-1.347-.767-.876-1.923 2.223Zm3.075 6.222 2.687-1.354-.329-1.15-2.358 2.504Zm-2.38-5.3 2.69-1.347-.694-.922-1.995 2.27Zm2.05 4.148 2.688-1.351-.402-1.105-2.285 2.457Zm-1.427-3.179 2.69-1.348-.622-.968-2.068 2.316Zm1.025 2.074 2.688-1.35-.475-1.06-2.213 2.41Zm-.476-1.06 2.689-1.35-.549-1.012-2.14 2.362ZM41.147 37.983l2.707-1.312 1.201-1.027-3.908 2.34Zm1.202-1.028 2.706-1.311 1.232-.97-3.938 2.28Zm1.234-.97 2.704-1.31 1.263-.91-3.967 2.22Zm1.264-.911 2.703-1.31 1.294-.85-3.997 2.16ZM31.24 64.069l.133.429 2.585-1.77-2.718 1.34Zm-.12-.44.12.44 2.597-1.781-2.718 1.34Zm-.11-.452.11.452 2.607-1.793-2.718 1.34Zm-.099-.464.098.464 2.62-1.803-2.718 1.34Zm-.087-.474.087.474 2.632-1.814-2.719 1.34Zm-.075-.487.075.486 2.644-1.825-2.719 1.34Zm-.063-.498.063.498 2.655-1.836-2.718 1.338Zm-.052-.51.052.51 2.666-1.847-2.718 1.338Zm-.04-.52.04.52 2.678-1.857-2.719 1.337Zm15.547-26.002 2.702-1.308 1.325-.793-4.027 2.1Zm-15.577 25.47.03.532 2.689-1.869-2.719 1.337Zm-.017-.544.017.544 2.702-1.88-2.72 1.336Zm-.006-.556.006.556 2.713-1.891-2.719 1.335Zm.042-1.353-.042 1.353 2.761-2.687-2.718 1.334Zm16.884-23.81 2.7-1.308 1.356-.733-4.056 2.04Zm-16.756 22.46-.128 1.35 2.846-2.681-2.718 1.332Zm19.803 38.928-.989.51 3.685-1.886-2.696 1.376Zm-19.592-40.27-.211 1.343 2.93-2.674-2.719 1.33Zm3.564 7.972.827-.367 1.888-.973-2.715 1.34Zm14.338-29.825 2.7-1.306 1.386-.675-4.086 1.981Zm2.644 61.542-.954.58 3.649-1.956-2.695 1.376ZM31.22 53.208l-.297 1.339 3.015-2.668-2.718 1.33Zm4.094 8.944.846-.317 1.867-1.023-2.713 1.34Zm-3.712-10.277-.382 1.333 3.1-2.66-2.718 1.327Zm20.786 41.709-.92.652 3.614-2.027-2.694 1.375ZM36.16 61.835l.865-.265 1.847-1.074-2.712 1.34Zm12.974-35.524 2.699-1.3-2.353 1.119-.346.18ZM32.068 50.547l-.466 1.328 3.183-2.654-2.717 1.326Zm4.957 11.023.884-.215 1.827-1.124-2.711 1.339Zm16.248 31.29-.885.723 3.578-2.097-2.693 1.374Zm-1.641-61.459 2.696-1.305-2.495-5.085-.201 6.39ZM32.619 49.224l-.551 1.323 3.267-2.647-2.716 1.325Zm5.29 12.131.903-.163 1.807-1.175-2.71 1.338Zm16.214 30.713-.85.793 3.542-2.166-2.692 1.373Zm-15.31-30.876.922-.113 1.787-1.226-2.71 1.339Zm-5.559-13.285-.635 1.318 3.351-2.641-2.716 1.323Zm21.71 43.27-.841.891 3.533-2.263-2.691 1.372ZM39.736 61.08l.942-.061 1.767-1.277-2.709 1.338Zm-5.76-14.485-.72 1.313 3.435-2.634-2.715 1.321Zm21.759 43.66-.77.923 3.46-2.294-2.69 1.371ZM40.677 61.018l.962-.01 1.746-1.328-2.708 1.338Zm.962-.01 1.231.053 1.475-1.392-2.706 1.338Zm14.79 28.29-.695.956 3.385-2.326-2.69 1.37ZM34.78 45.287l-.805 1.307 3.52-2.627-2.715 1.32Zm22.272 43.024-.622.987 3.311-2.357-2.689 1.37ZM42.87 61.06l1.197.124 1.508-1.462-2.705 1.338Zm-7.2-17.076-.89 1.302 3.604-2.621-2.714 1.319ZM57.602 87.29l-.55 1.02 3.238-2.388-2.688 1.368ZM44.067 61.185l1.162.193 1.541-1.532-2.703 1.339Zm-7.422-18.497-.975 1.297 3.688-2.615-2.713 1.318Zm21.433 43.55-.476 1.052 3.164-2.42-2.688 1.368Zm-12.85-24.86 1.128.263 1.575-1.602-2.702 1.339Zm13.253 23.775-.403 1.085 3.09-2.451-2.687 1.366ZM46.356 61.64l1.092.332 1.61-1.671-2.702 1.339Zm-8.632-20.218-1.079 1.265 3.79-2.58-2.71 1.315Zm21.087 42.612-.33 1.118 3.017-2.482-2.688 1.364ZM47.447 61.973l1.058.402 1.642-1.741-2.7 1.34Zm11.62 20.913-.258 1.15 2.944-2.514-2.687 1.364Zm-10.562-20.51 1.024.471 1.675-1.812-2.699 1.34Zm-9.672-22.158-1.11 1.205 3.82-2.52-2.71 1.315ZM59.25 81.704l-.183 1.182 2.87-2.544-2.687 1.362Zm-9.72-18.857.988.541 1.71-1.881-2.698 1.34Zm9.83 17.642-.11 1.215 2.797-2.575-2.687 1.36Zm-8.842-17.1.954.61 1.743-1.951-2.697 1.34Zm8.88 15.854-.038 1.246 2.724-2.606-2.687 1.36ZM51.471 64l.92.68 1.776-2.022L51.472 64ZM39.975 39.07l-1.14 1.147 3.849-2.46-2.71 1.313Zm12.416 25.61.885.75 1.81-2.093-2.695 1.342Zm6.97 13.228.036 1.334 2.65-2.692-2.686 1.358ZM53.276 65.43l.85.82 1.843-2.164-2.693 1.344Zm5.975 11.19.11 1.288 2.577-2.644-2.687 1.356Zm-5.125-10.37.842.831 1.85-2.176-2.692 1.345Zm4.942 9.127.183 1.243 2.504-2.597-2.687 1.354ZM41.147 37.983l-1.172 1.088 3.879-2.4-2.707 1.312Zm13.82 29.1.77.877 1.923-2.223-2.692 1.345Zm3.845 7.099.256 1.196 2.431-2.55-2.687 1.354Zm-3.075-6.222.695.922 1.996-2.269-2.691 1.347Zm2.746 5.07.33 1.152 2.357-2.503-2.687 1.352Zm-2.05-4.148.622.969 2.068-2.316-2.69 1.347Zm1.647 3.043.403 1.106 2.285-2.457-2.688 1.351Zm-1.025-2.074.55 1.014 2.14-2.362-2.69 1.348Zm.55 1.014.475 1.06 2.213-2.41-2.689 1.35Zm-15.256-33.91-1.202 1.028 3.908-2.34-2.706 1.312Zm1.234-.97-1.234.97 3.938-2.28-2.704 1.31Zm1.264-.911-1.264.91 3.967-2.22-2.703 1.31Zm1.295-.852-1.295.852 3.997-2.16-2.702 1.307Zm1.326-.794-1.326.794 4.027-2.1-2.7 1.306Zm1.357-.734-1.357.734 4.056-2.04-2.699 1.306Zm1.388-.675-1.388.675 4.086-1.98-2.698 1.305ZM46.78 27.43l2.355-1.12.346-.18-2.701 1.3Zm2.355-1.12 2.498 5.092.201-6.39-2.699 1.299ZM28.65 65.843l2.724-1.344-.133-.43-2.59 1.775Zm-.133-.429 2.724-1.344-.12-.44-2.604 1.784Zm-.121-.44 2.724-1.344-.11-.452-2.614 1.795Zm-.11-.453 2.724-1.343-.098-.464-2.626 1.807Zm-.098-.464 2.724-1.343-.087-.474-2.637 1.817Zm-.087-.475 2.724-1.343-.075-.486-2.65 1.829Zm-.075-.487 2.724-1.342-.063-.498-2.661 1.84Zm-.064-.498 2.725-1.342-.052-.51-2.673 1.852Zm-.052-.51 2.725-1.341-.04-.521-2.685 1.862Zm-.04-.522 2.724-1.34-.029-.532-2.696 1.872Zm-.03-.533 2.725-1.34-.017-.543-2.708 1.883Zm-.017-.544 2.725-1.34-.006-.555-2.719 1.895Zm-.006-.557 2.725-1.338.042-1.353-2.767 2.691Zm.043-1.355 2.724-1.337.128-1.348-2.852 2.685Zm18.963 38.132 2.703-1.38.989-.51-3.692 1.89ZM27.987 57.225l2.725-1.335.211-1.343-2.936 2.678Zm19.826 38.971 2.702-1.38.954-.58-3.656 1.96ZM32.594 63.495l2.72-1.343-.827.368-1.893.975ZM28.2 55.88l2.724-1.334.297-1.338L28.2 55.88Zm5.242 7.297 2.718-1.342-.845.316-1.873 1.026Zm-4.945-8.636 2.724-1.333.382-1.333-3.106 2.666Zm20.272 41.074 2.7-1.38.92-.651-3.62 2.03ZM34.307 62.91l2.718-1.341-.865.265-1.853 1.076Zm-5.43-9.705 2.725-1.33.466-1.329-3.19 2.659Zm20.81 41.756 2.701-1.378.885-.723-3.585 2.101ZM35.193 62.697l2.717-1.342-.884.215-1.833 1.127Zm-5.848-10.82 2.724-1.33.55-1.322-3.274 2.651Zm21.23 42.362 2.699-1.378.85-.793-3.55 2.17ZM36.096 62.533l2.715-1.341-.903.163-1.813 1.178Zm-6.201-11.98 2.723-1.328.635-1.318-3.358 2.645Zm21.528 42.892 2.699-1.377.842-.89-3.54 2.267ZM37.02 62.42l2.715-1.34-.923.112-1.792 1.228Zm-6.488-13.187 2.722-1.326.72-1.313-3.442 2.64Zm7.432 13.126 2.713-1.341-.942.061-1.771 1.28Zm14.303 30.194 2.698-1.376.769-.923-3.467 2.299Zm-13.34-30.205 2.712-1.34-.962.01-1.75 1.33ZM31.252 47.92l2.722-1.325.805-1.307-3.527 2.632Zm21.784 43.71 2.697-1.375.696-.956-3.393 2.33ZM40.16 62.401l2.711-1.341-1.231-.054-1.48 1.395Zm13.575 28.27 2.696-1.374.622-.987-3.318 2.36ZM32.06 46.61l2.72-1.323.89-1.302-3.61 2.625Zm9.297 15.916 2.71-1.341-1.197-.124-1.513 1.465Zm13 27.157 2.695-1.373.55-1.02-3.245 2.393ZM32.951 45.307l2.72-1.322.974-1.297-3.694 2.619Zm9.569 17.412 2.709-1.341-1.162-.193-1.547 1.534Zm12.387 25.942 2.695-1.37.476-1.053-3.171 2.423ZM43.648 62.983l2.708-1.342-1.127-.263-1.58 1.605Zm11.736 24.625 2.694-1.37.403-1.085-3.097 2.455Zm-21.457-43.6 2.718-1.32 1.08-1.265-3.798 2.585Zm10.815 19.307 2.706-1.342-1.092-.332-1.614 1.675Zm11.045 23.206 2.694-1.368.33-1.118-3.024 2.486Zm-9.986-22.803 2.705-1.343-1.058-.402-1.647 1.745Zm10.316 21.685 2.694-1.368.256-1.15-2.95 2.518Zm-21.11-42.66 2.717-1.32 1.11-1.205-3.827 2.524ZM46.826 64.19l2.704-1.343-1.024-.472-1.68 1.816Zm9.548 20.062 2.693-1.366.183-1.182-2.876 2.548Zm-8.559-19.52 2.703-1.343-.988-.542-1.715 1.886Zm8.742 18.337 2.693-1.365.11-1.215-2.803 2.58ZM36.118 41.535l2.716-1.317 1.14-1.147-3.856 2.464Zm12.652 23.81L51.472 64l-.954-.611-1.748 1.955Zm7.898 16.508 2.692-1.364.037-1.246-2.73 2.61ZM49.69 66.026l2.7-1.346-.919-.68-1.781 2.026Zm7.014 14.579 2.692-1.362-.036-1.334-2.656 2.696Zm-6.129-13.828 2.7-1.346-.885-.75-1.815 2.096Zm6.092 12.492 2.693-1.36-.11-1.288-2.583 2.648Zm-5.241-11.671 2.699-1.347-.85-.82-1.85 2.167ZM37.26 40.388l2.715-1.317 1.172-1.088-3.887 2.405ZM56.558 77.98l2.693-1.36-.183-1.242-2.51 2.602Zm-4.288-9.55 2.698-1.348-.842-.831-1.856 2.18Zm4.105 8.306 2.693-1.358-.256-1.196-2.437 2.554ZM53.04 69.31l2.697-1.35-.77-.877-1.927 2.227Zm3.079 6.23 2.693-1.357-.33-1.151-2.363 2.507Zm-2.383-5.306 2.697-1.35-.696-.923-2 2.273Zm2.053 4.153 2.694-1.355-.403-1.106-2.291 2.46Zm-1.43-3.184 2.696-1.351-.623-.969-2.073 2.32Zm1.027 2.077 2.694-1.354-.476-1.06-2.218 2.414Zm-.477-1.061 2.695-1.353-.55-1.014-2.145 2.367Zm-16.476-32.92 2.714-1.315 1.202-1.028-3.916 2.343Zm1.204-1.03 2.712-1.313 1.234-.97-3.946 2.284Zm1.235-.97 2.71-1.313 1.265-.911-3.975 2.224Zm1.265-.913 2.71-1.311 1.295-.852-4.005 2.163Zm-13.62 29.028.133.43 2.591-1.774-2.724 1.344Zm-.121-.44.121.44 2.603-1.784-2.724 1.343Zm-.11-.453.11.452 2.614-1.795-2.724 1.343Zm-.098-.464.098.464 2.626-1.807-2.724 1.343Zm-.087-.475.087.475 2.637-1.817-2.724 1.342Zm-.075-.487.075.487 2.65-1.829-2.725 1.342Zm-.064-.498.064.498 2.66-1.84-2.724 1.342Zm-.052-.51.052.51 2.673-1.851-2.725 1.34Zm-.04-.522.04.522 2.684-1.862-2.725 1.34Zm15.564-26.032 2.708-1.31 1.326-.794-4.034 2.105Zm-15.594 25.5.03.532 2.695-1.872-2.725 1.34Zm-.017-.545.017.544 2.708-1.883-2.725 1.338Zm-.006-.557.006.556 2.72-1.894-2.726 1.338Zm.043-1.355-.043 1.355 2.767-2.691-2.724 1.336Zm16.9-23.838 2.707-1.31 1.357-.734-4.064 2.044ZM27.987 57.225l-.127 1.35 2.852-2.685-2.725 1.335Zm19.826 38.971-.99.511 3.692-1.89-2.702 1.38ZM28.199 55.88l-.212 1.345 2.936-2.678L28.2 55.88Zm3.568 7.982.827-.368 1.893-.975-2.72 1.343ZM46.12 34.003l2.705-1.309 1.388-.675-4.093 1.984Zm2.648 61.612-.955.582 3.656-1.961-2.701 1.379ZM28.496 54.54l-.297 1.34 3.021-2.673-2.724 1.333Zm4.098 8.953.847-.317 1.873-1.026-2.72 1.343Zm-3.716-10.288-.382 1.334 3.106-2.665-2.724 1.33Zm20.81 41.756-.92.653 3.62-2.031-2.7 1.378ZM33.44 63.177l.866-.266 1.852-1.076-2.718 1.342Zm12.988-35.564 2.705-1.302-2.355 1.12-.35.182ZM29.344 51.877l-.466 1.329 3.19-2.659-2.724 1.33Zm4.963 11.034.885-.214 1.833-1.127-2.718 1.341ZM50.573 94.24l-.885.723 3.585-2.1-2.7 1.377ZM48.93 32.71l2.702-1.308-2.498-5.091-.204 6.4ZM29.896 50.552l-.552 1.325 3.275-2.653-2.723 1.328Zm5.296 12.145.904-.164 1.813-1.178-2.717 1.342Zm16.232 30.748-.85.794 3.549-2.17-2.699 1.376ZM36.096 62.533l.924-.113 1.792-1.228-2.715 1.341Zm-5.564-13.3-.636 1.32 3.358-2.646-2.722 1.326Zm21.735 43.32-.843.892 3.54-2.268-2.697 1.376ZM37.02 62.42l.944-.061 1.771-1.28-2.715 1.341Zm-5.767-14.5-.72 1.313 3.442-2.639-2.722 1.325Zm21.784 43.709-.77.924 3.467-2.299-2.697 1.374Zm-15.073-29.27.962-.01 1.751-1.331-2.713 1.34Zm.962-.01 1.233.053 1.48-1.395-2.713 1.341Zm14.808 28.323-.697.957 3.393-2.33-2.696 1.373ZM32.06 46.61l-.807 1.31 3.527-2.633-2.72 1.323Zm22.297 43.073-.623.989 3.318-2.361-2.695 1.372Zm-14.198-27.28 1.198.123 1.513-1.465-2.711 1.341ZM32.95 45.306l-.891 1.303 3.61-2.625-2.72 1.322ZM54.907 88.66l-.55 1.022 3.245-2.393-2.695 1.371Zm-13.55-26.135 1.163.193 1.547-1.534-2.71 1.341Zm-7.43-18.518-.976 1.299 3.694-2.62-2.718 1.321Zm21.457 43.6-.477 1.053 3.17-2.423-2.693 1.37ZM42.52 62.719l1.128.264 1.58-1.605-2.708 1.341Zm13.267 23.802-.403 1.087 3.097-2.455-2.694 1.368ZM43.648 62.983l1.094.333 1.614-1.675-2.708 1.342Zm-8.641-20.24-1.08 1.265 3.797-2.585-2.717 1.32Zm21.11 42.66-.33 1.118 3.023-2.486-2.693 1.368ZM44.742 63.315l1.06.403 1.646-1.745-2.706 1.343Zm11.632 20.937-.257 1.15 2.95-2.516-2.693 1.366ZM45.801 63.718l1.025.472 1.68-1.815-2.705 1.343Zm-9.683-22.183-1.111 1.207 3.827-2.524-2.716 1.317Zm20.44 41.534-.184 1.183 2.876-2.548-2.693 1.365ZM46.825 64.19l.99.543 1.714-1.886-2.704 1.343Zm9.842 17.663-.11 1.216 2.802-2.58-2.692 1.364Zm-8.853-17.12.955.611 1.748-1.955-2.703 1.343Zm8.89 15.872-.037 1.248 2.73-2.61-2.694 1.362Zm-7.935-15.26.92.68L51.473 64l-2.702 1.344ZM37.26 40.387l-1.142 1.147 3.857-2.464-2.715 1.317Zm12.43 25.638.886.751 1.815-2.097-2.7 1.346Zm6.978 13.243.037 1.336 2.656-2.696-2.693 1.36Zm-6.092-12.492.85.821 1.85-2.167-2.7 1.346Zm5.982 11.203.11 1.29 2.583-2.65-2.693 1.36Zm-5.131-10.382.843.832 1.856-2.18-2.7 1.348Zm4.948 9.138.183 1.244 2.51-2.602-2.693 1.358ZM38.433 39.298l-1.173 1.09 3.887-2.405-2.714 1.316ZM52.27 68.43l.77.879 1.928-2.227-2.698 1.349Zm3.849 7.108.256 1.198 2.437-2.554-2.693 1.356Zm-3.08-6.23.697.925 2-2.273-2.696 1.349Zm2.75 5.078.33 1.152 2.364-2.507-2.694 1.355Zm-2.053-4.153.623.97 2.073-2.32-2.696 1.35Zm1.65 3.046.403 1.107 2.291-2.461-2.694 1.354Zm-1.027-2.077.55 1.016 2.146-2.367-2.696 1.351Zm.55 1.016.477 1.06 2.218-2.413-2.695 1.353Zm-15.272-33.95-1.204 1.03 3.916-2.343-2.712 1.314Zm1.235-.97-1.235.97 3.946-2.283-2.711 1.313Zm1.265-.913-1.265.913 3.975-2.224-2.71 1.312Zm1.297-.852-1.297.852 4.005-2.163-2.708 1.31Zm1.327-.795-1.327.794 4.034-2.104-2.707 1.31Zm1.359-.735-1.359.735 4.064-2.044-2.705 1.31Zm1.39-.676-1.39.676 4.093-1.984-2.704 1.308Zm-3.439-4.594 2.358-1.12.35-.183-2.708 1.303Zm2.358-1.12 2.5 5.097.205-6.4-2.705 1.303ZM25.92 67.19l2.73-1.349-.133-.429-2.597 1.778Zm-.133-.43 2.73-1.348-.121-.44-2.609 1.788Zm-.122-.441 2.73-1.348-.11-.452-2.62 1.8Zm-.11-.453 2.73-1.347-.097-.464-2.633 1.81Zm-.098-.465 2.73-1.346-.086-.475-2.644 1.821Zm-.087-.476 2.73-1.345-.074-.487-2.656 1.832Zm-.075-.487 2.73-1.345-.063-.498-2.667 1.843Zm-.064-.5 2.73-1.343-.051-.51-2.68 1.854Zm-.052-.51 2.73-1.343-.04-.522-2.69 1.865Zm-.04-.522 2.73-1.343-.029-.533-2.702 1.876Zm-.03-.533 2.731-1.343-.017-.544-2.714 1.887Zm-.017-.546 2.731-1.342-.006-.556-2.725 1.898Zm-.006-.556 2.731-1.342.043-1.355-2.774 2.697Zm.042-1.357 2.732-1.34.127-1.35-2.859 2.69ZM44.114 98.09l2.71-1.383.989-.511-3.7 1.894ZM25.256 58.563l2.73-1.338.213-1.345-2.943 2.683ZM45.104 97.58l2.709-1.382.955-.582-3.664 1.964ZM29.868 64.84l2.726-1.345-.827.368-1.899.977Zm-4.4-7.622 2.73-1.337.298-1.34-3.028 2.677Zm5.248 7.305 2.725-1.345-.847.317-1.878 1.028Zm-4.95-8.646 2.73-1.335.382-1.335-3.113 2.67Zm20.294 41.12 2.708-1.381.92-.653-3.628 2.035Zm-14.477-32.74 2.724-1.345-.866.266-1.858 1.08Zm-5.436-9.716 2.73-1.334.467-1.33-3.197 2.664Zm20.834 41.804 2.707-1.382.885-.723-3.592 2.105ZM32.47 64.04l2.723-1.344-.885.214-1.838 1.13Zm-5.856-10.83 2.73-1.333.552-1.324-3.282 2.657Zm21.254 42.41 2.705-1.38.851-.794-3.556 2.174ZM33.374 63.877l2.722-1.344-.904.164-1.818 1.18Zm-6.207-11.994 2.729-1.33.636-1.32-3.365 2.65ZM48.72 94.824l2.704-1.38.843-.891-3.547 2.271ZM34.3 63.764l2.72-1.344-.924.113-1.797 1.232Zm-6.496-13.202 2.728-1.329.721-1.314-3.45 2.643Zm7.44 13.141 2.72-1.344-.944.061-1.776 1.283Zm14.32 30.228 2.703-1.378.77-.924-3.473 2.302ZM36.207 63.693l2.72-1.345-.963.01-1.757 1.335Zm-7.681-14.446 2.727-1.328.807-1.309-3.534 2.637Zm21.808 43.76 2.703-1.379.697-.956-3.4 2.334Zm-12.893-29.26 2.718-1.345-1.233-.054-1.485 1.399Zm13.59 28.302 2.703-1.377.623-.99-3.325 2.367ZM29.334 47.937l2.727-1.327.89-1.303-3.617 2.63ZM38.64 63.87l2.717-1.345-1.198-.124-1.519 1.468Zm13.016 27.187 2.701-1.375.55-1.022-3.251 2.397ZM30.225 46.631l2.726-1.324.976-1.299-3.702 2.623Zm9.58 17.433 2.715-1.344-1.163-.194-1.552 1.538Zm12.401 25.972 2.701-1.375.477-1.053-3.178 2.428ZM40.935 64.328l2.713-1.345-1.128-.264-1.585 1.609ZM52.683 88.98l2.7-1.373.404-1.087-3.103 2.46Zm-21.48-43.65 2.725-1.323 1.08-1.266-3.805 2.59Zm10.828 19.33 2.712-1.346-1.094-.332-1.618 1.678Zm11.057 23.232 2.7-1.372.33-1.118-3.03 2.49ZM43.09 65.064l2.711-1.346-1.059-.403-1.652 1.75Zm10.328 21.71 2.7-1.371.256-1.151-2.956 2.522Zm-21.135-42.71 2.724-1.322 1.111-1.207-3.835 2.53Zm11.833 21.473 2.71-1.347-1.025-.472-1.685 1.819Zm9.559 20.084 2.699-1.37.183-1.183-2.882 2.553ZM45.106 66.08l2.71-1.347-.99-.543-1.72 1.89Zm8.752 18.356 2.7-1.368.11-1.215-2.81 2.584Zm-20.462-41.58 2.722-1.32 1.142-1.148-3.864 2.468Zm12.666 23.836 2.708-1.348-.955-.611-1.753 1.96ZM53.97 83.22l2.699-1.366.037-1.248-2.736 2.614Zm-6.985-15.845 2.707-1.348-.92-.682-1.787 2.03Zm7.022 14.596 2.699-1.365-.037-1.336-2.662 2.7ZM47.87 68.126l2.706-1.349-.885-.751-1.82 2.1Zm6.099 12.507 2.699-1.364-.11-1.289-2.589 2.653Zm-5.247-11.685 2.705-1.35-.85-.82-1.855 2.17ZM34.539 41.707l2.721-1.32 1.173-1.089-3.894 2.409Zm19.32 37.635 2.7-1.362-.184-1.244-2.516 2.606Zm-4.293-9.56 2.704-1.352-.843-.832-1.861 2.184Zm4.11 8.315 2.7-1.36-.257-1.199-2.443 2.559Zm-3.34-7.436 2.704-1.352-.77-.879-1.933 2.231Zm3.083 6.236 2.7-1.359-.33-1.152-2.37 2.511Zm-2.385-5.31 2.702-1.354-.696-.924-2.006 2.277Zm2.055 4.157 2.7-1.358-.403-1.107-2.297 2.465Zm-1.431-3.187 2.701-1.355-.623-.97-2.078 2.325Zm1.027 2.079 2.7-1.357-.476-1.061-2.224 2.418Zm-.477-1.063 2.701-1.355-.55-1.016-2.15 2.371ZM35.713 40.617l2.72-1.319 1.204-1.03-3.924 2.349Zm1.205-1.031 2.719-1.317 1.235-.971-3.954 2.288Zm1.236-.973 2.718-1.316 1.265-.911-3.983 2.227Zm1.267-.913 2.716-1.315 1.297-.852-4.012 2.167ZM25.788 66.76l.133.43 2.597-1.777-2.73 1.348Zm-.122-.44.122.44 2.609-1.788-2.73 1.348Zm-.11-.453.11.453 2.62-1.8-2.73 1.347Zm-.098-.465.098.465 2.633-1.81-2.731 1.345Zm-.087-.476.087.476 2.644-1.821-2.731 1.345Zm-.075-.487.075.487 2.656-1.832-2.731 1.345Zm-.064-.5.064.5 2.667-1.843-2.731 1.344Zm-.052-.51.052.51 2.679-1.853-2.731 1.343Zm-.04-.522.04.522 2.69-1.865-2.73 1.343Zm15.58-26.06 2.715-1.315 1.327-.794-4.042 2.108ZM25.11 62.373l.03.533 2.701-1.876-2.73 1.343Zm-.017-.546.017.546 2.714-1.888-2.731 1.342Zm-.006-.556.006.556 2.725-1.898-2.731 1.342Zm.042-1.357-.042 1.357 2.774-2.697-2.732 1.34Zm16.92-23.864 2.713-1.313 1.359-.735-4.072 2.048ZM25.256 58.563l-.128 1.352 2.859-2.69-2.731 1.338ZM45.104 97.58l-.99.512 3.699-1.894-2.709 1.382ZM25.468 57.217l-.212 1.346 2.943-2.683-2.731 1.337Zm3.572 7.99.828-.368 1.899-.977-2.727 1.345Zm14.368-29.891 2.712-1.313 1.39-.676-4.102 1.989Zm2.652 61.68-.956.583 3.664-1.964-2.708 1.382Zm-20.295-41.12-.297 1.34 3.028-2.675-2.73 1.335Zm4.103 8.963.848-.317 1.878-1.028-2.726 1.345Zm-3.72-10.3-.383 1.337 3.113-2.67-2.73 1.334ZM46.98 96.345l-.92.653 3.627-2.035-2.707 1.382ZM30.716 64.522l.867-.266 1.858-1.079-2.725 1.345Zm13.002-35.604 2.711-1.305-2.358 1.12-.353.185Zm-17.104 24.29-.467 1.332 3.197-2.663-2.73 1.332Zm4.969 11.048.886-.215 1.838-1.13-2.724 1.345ZM47.868 95.62l-.887.725 3.592-2.105-2.705 1.38ZM46.22 34.021l2.709-1.31-2.5-5.098-.209 6.408ZM27.167 51.883l-.553 1.326 3.282-2.657-2.73 1.33Zm5.302 12.158.905-.163 1.818-1.181-2.723 1.344Zm16.25 30.783-.851.795 3.556-2.174-2.704 1.38ZM33.375 63.877l.925-.112 1.797-1.232-2.721 1.344Zm-5.57-13.315-.637 1.32 3.365-2.649-2.728 1.33Zm21.76 43.37-.844.892 3.547-2.271-2.703 1.378ZM34.299 63.764l.945-.062 1.776-1.283-2.72 1.345Zm-5.773-14.518-.722 1.315 3.45-2.643-2.728 1.328Zm-10.78 37.148.624 1.392.689 1.347-1.313-2.739Z"/><path d="m50.34 93.007-.77.925 3.474-2.303-2.703 1.378ZM35.25 63.704l.964-.011 1.756-1.334-2.72 1.345ZM19.057 89.133l.754 1.3.964 1.452-1.718-2.752Zm-2.363-5.66 1.05 2.921 1.313 2.739-2.363-5.66Zm0 0 .492 1.484.558 1.437-1.05-2.921Zm2.363 5.66 1.718 2.752 2.146 2.532-3.864-5.284Zm-2.363-5.66 2.363 5.66 3.864 5.285-6.227-10.945Zm4.08 8.412 1.037 1.328 1.11 1.205-2.146-2.533Zm-4.868-11.517.361 1.576.427 1.529-.788-3.105Zm20.307-16.674 1.234.054 1.485-1.399-2.72 1.345Zm14.824 28.355-.697.958 3.4-2.334-2.703 1.376ZM29.338 47.938l-.807 1.31 3.534-2.637-2.727 1.327Z"/><path d="m15.375 77.08.525 3.288.788 3.105-1.313-6.393Zm0 0 .23 1.667.295 1.621-.525-3.288Zm7.54 17.338 1.183 1.08 1.257.957-2.44-2.037Zm28.745-3.36-.624.99 3.325-2.365-2.701 1.375ZM37.445 63.747l1.2.124 1.518-1.469-2.718 1.345ZM15.129 69.48l1.56 13.993 6.228 10.944-7.788-24.936Zm15.095-22.848-.892 1.305 3.618-2.63-2.726 1.325Z"/><path d="m15.124 69.48.248 7.6 1.313 6.393-1.56-13.992Zm7.788 24.937 2.44 2.038 2.733 1.542-5.173-3.58ZM15.11 73.608l.099 1.759.164 1.713-.263-3.472Zm37.1 16.427-.55 1.023 3.251-2.397-2.7 1.374ZM38.644 63.87l1.165.194 1.552-1.539-2.716 1.345Z"/><path d="m25.352 96.455 1.33.833 1.403.71-2.733-1.543ZM15.124 69.48l-.015 4.127.263 3.472-.248-7.6ZM31.2 45.331l-.977 1.3 3.701-2.623L31.2 45.33Zm21.481 43.65-.477 1.055 3.178-2.429-2.7 1.374ZM39.803 64.064l1.13.263 1.585-1.608-2.715 1.345Z"/><path d="m15.13 69.48-.048 2.323.033 1.805.015-4.127Zm7.788 24.937 5.173 3.58 6.347 1.6-11.52-5.18Zm30.172-6.523-.404 1.087 3.104-2.459-2.7 1.372ZM40.937 64.328l1.096.334 1.618-1.679-2.714 1.345ZM28.09 97.998l1.477.586 1.55.462-3.027-1.048Z"/><path d="m32.285 44.064-1.082 1.267 3.805-2.589-2.724 1.322Zm21.134 42.71-.33 1.12 3.03-2.491-2.7 1.37ZM42.03 64.66l1.06.403 1.652-1.748-2.712 1.345Zm-26.516.297-.24 2.242-.145 2.282.385-4.524Z"/><path d="m53.675 85.622-.257 1.152 2.956-2.522-2.7 1.37ZM43.09 65.065l1.025.472 1.686-1.818-2.711 1.346Zm-15 32.933 3.026 1.047 3.32.553-6.346-1.6Z"/><path d="m33.394 42.857-1.113 1.208 3.835-2.529-2.722 1.32Zm20.462 41.58-.183 1.185 2.882-2.553-2.699 1.368Zm-9.742-18.9.99.543 1.72-1.889-2.71 1.347Zm-27.828-4.944-.772 4.362-.385 4.525 1.157-8.887Z"/><path d="m53.97 83.22-.11 1.216 2.809-2.584-2.7 1.367ZM31.117 99.045l1.624.338 1.697.214-3.32-.552ZM45.11 66.08l.955.612 1.753-1.96-2.709 1.347Zm-29.981 3.4 7.788 24.938 2.211-34.503-10 9.566Z"/><path d="m54.005 81.97-.037 1.249 2.735-2.615-2.699 1.365ZM46.06 66.69l.922.683 1.786-2.03-2.708 1.347ZM34.538 41.706l-1.143 1.15 3.864-2.47-2.721 1.32Zm-11.62 52.71 11.52 5.18 6.497-.397-18.017-4.783Zm-6.63-33.823-.435 2.16-.337 2.202.771-4.362Z"/><path d="m46.984 67.375.886.752 1.82-2.1-2.706 1.348Zm6.985 13.258.037 1.337 2.662-2.7-2.699 1.364ZM47.87 68.127l.852.822 1.854-2.172-2.706 1.35Zm5.99 11.216.11 1.29 2.588-2.653-2.699 1.363Zm-5.138-10.394.844.833 1.861-2.184-2.705 1.35Zm4.954 9.148.183 1.246 2.516-2.606-2.7 1.36Zm-17.963-37.48-1.174 1.09 3.894-2.408-2.72 1.318Zm13.853 29.165.77.88 1.934-2.231-2.704 1.351Zm3.853 7.116.257 1.2 2.443-2.56-2.7 1.36Zm-3.082-6.236.697.924 2.006-2.277-2.703 1.353Zm2.752 5.082.33 1.154 2.37-2.512-2.7 1.358Zm-2.055-4.157.624.97 2.078-2.324-2.702 1.353ZM18.987 52.355l-2.701 8.24-1.157 8.886 3.858-17.126Zm15.45 47.243 1.77.09 1.234-.016-3.004-.074Z"/><path d="m52.684 74.635.403 1.108 2.297-2.464-2.7 1.356Zm-1.028-2.078.55 1.016 2.152-2.37-2.702 1.354Zm.55 1.016.478 1.063 2.224-2.418-2.701 1.355ZM22.914 94.418l3.004-27.227-.134-.43-2.87 27.657Zm0 0 2.87-27.657-.121-.441-2.749 28.098Zm0 0 2.749-28.098-.11-.453-2.639 28.551Zm0 0 2.639-28.55-.099-.465-2.54 29.015Zm0 0 2.54-29.015-.087-.476-2.453 29.491Zm11.52 5.18 3.004.075 1.199-.087-4.203.012Zm-11.52-5.18 2.453-29.491-.075-.488-2.378 29.98Zm0 0 2.378-29.979-.064-.499-2.314 30.478Zm14.01-54.832-1.205 1.03 3.923-2.347-2.718 1.317Z"/><path d="M22.916 94.418 25.23 63.94l-.052-.51-2.262 30.988Zm-5.473-38.024-.627 2.08-.53 2.12 1.157-4.2Zm5.473 38.024 2.262-30.988-.04-.522-2.222 31.51Zm0 0 2.222-31.51-.03-.534-2.192 32.044Zm0 0 2.193-32.044-.018-.545-2.175 32.589Zm0 0 2.175-32.59-.006-.556-2.169 33.146Zm11.52 5.18 4.203-.012 2.294-.385-6.497.397Zm-11.52-5.18 2.17-33.146.042-1.357-2.212 34.503Zm15.242-55.803-1.236.972 3.953-2.288-2.717 1.316Z"/><path d="m18.987 52.355-1.544 4.038-1.157 4.201 2.701-8.24Zm3.93 42.063L40.933 99.2l7.787-4.376-25.803-.407Zm15.723 5.168 1.164-.157 1.13-.228-2.294.385ZM15.129 69.481l10-9.566.127-1.351L15.129 69.48ZM39.423 37.7l-1.267.914 3.983-2.228-2.716 1.315Z"/><path d="m18.987 52.355-.82 1.999-.724 2.04 1.544-4.04ZM15.13 69.48l10.127-10.917.212-1.347-10.34 12.264Zm0 0 10.34-12.264.296-1.341L15.13 69.48Zm10.636-13.605.383-1.336-11.02 14.941 10.637-13.605Zm14.954-19.03-1.298.854 4.012-2.168-2.714 1.314Z"/><path d="m40.933 99.2 1.095-.299 1.06-.37-2.155.67ZM26.148 54.54l.467-1.331L15.129 69.48l11.019-14.94Zm1.294 11.557-.77.521-.752.572 1.522-1.093Zm-.827-12.888.552-1.326L15.129 69.48l11.486-16.272ZM40.933 99.2l2.155-.669 2.016-.952-4.17 1.621Zm1.115-63.149-1.33.795 4.043-2.108-2.713 1.313Z"/><path d="m29.04 65.208-1.598.889-1.522 1.094 3.12-1.983Zm.266-27.095L18.987 52.355 15.13 69.48l14.177-31.368Zm-6.39 56.305 30.503-17.52L25.92 67.19l-3.003 27.227Zm-1.999-45.94-1.013 1.918-.917 1.959 1.93-3.878Zm6.25 3.405.637-1.32L15.129 69.48l12.038-17.598Zm15.921 46.649 1.026-.441.99-.511-2.016.952ZM29.04 65.208l-.809.419-.79.47 1.6-.89Zm-1.236-14.645.722-1.316-13.397 20.234 12.675-18.918Zm15.603-15.249-1.36.736 4.071-2.048-2.711 1.312Z"/><path d="m32.47 64.043-3.43 1.166-3.12 1.983 6.55-3.15Zm-3.944-14.795.807-1.31-14.204 21.544 13.397-20.234Zm12.407 49.954 4.171-1.621 3.616-2.755-7.787 4.376ZM23.282 44.775l-2.365 3.703-1.93 3.878 4.295-7.58Zm7.434 19.748-.848.318-.828.368 1.676-.686Zm-7.8 29.896 25.804.407 4.7-17.927-30.503 17.52Zm22.188 3.162.956-.583.921-.653-1.877 1.236Zm-.302-62.942-1.391.677 4.1-1.989-2.71 1.312Zm-3.443-4.6 2.361-1.121.353-.185-2.714 1.307Z"/><path d="m32.47 64.041-1.754.481-1.676.686 3.43-1.166Zm-3.137-16.104-.027-9.824-14.177 31.368 14.204-21.544Zm-6.051-3.163L22.027 46.6l-1.11 1.878 2.365-3.703ZM45.104 97.58l1.877-1.235 1.739-1.52-3.616 2.755ZM32.47 64.042l-.886.214-.867.266 1.753-.48Zm11.253-35.124 2.503 5.103.208-6.408-2.711 1.305Z"/><path d="m46.983 96.344.886-.724.852-.796-1.738 1.52Zm-6.047-32.016-8.466-.287-6.548 3.15 15.014-2.863Zm-11.63-26.215-6.023 6.661-4.295 7.58 10.319-14.24Zm4.995 25.652-.925.113-.906.163 1.83-.276Zm1.907-.072-1.907.072-1.83.276 3.738-.348Zm12.513 31.132.844-.893.77-.926-1.614 1.819Zm-22.627-53.51-1.456 1.698-1.355 1.761 2.81-3.458Zm10.114 22.378-.963.01-.944.062 1.907-.072Zm12.513 31.132 1.615-1.819 1.32-1.948-2.935 3.766Zm-7.785-30.497-4.727-.635-3.739.349 8.466.286Zm9.4 28.678.697-.957.624-.99-1.321 1.947Zm3.084-16.108-12.484-12.57-15.014 2.863 27.498 9.707ZM29.307 38.113l-3.213 3.203-2.811 3.458 6.024-6.66Zm9.335 25.758-1.2-.124-1.233-.054 2.433.178ZM48.72 94.824l2.936-3.766 1.762-4.284-4.698 8.05Zm-7.785-30.496-2.294-.457-2.434-.178 4.728.635Zm10.72 26.73.552-1.022.477-1.055-1.028 2.078Zm-22.32-43.121.892-1.305-.92-8.519.028 9.824Zm-.027-9.824-1.657 1.57-1.556 1.633 3.213-3.203Zm11.629 26.215-1.13-.264-1.164-.193 2.294.457Zm10.72 26.73 1.029-2.077.734-2.207-1.762 4.284Zm-21.43-44.426.977-1.3-1.896-7.219.92 8.519Zm18.495 48.193 4.698-8.051.001-9.876-4.7 17.927Zm3.964-5.844.404-1.087.33-1.12-.734 2.207ZM31.203 45.33l1.082-1.267-2.978-5.95 1.896 7.218Zm11.888 19.733-1.06-.403-1.095-.333 2.155.736Zm2.017 1.016-2.017-1.016-2.155-.736 4.172 1.752ZM32.285 44.064l1.112-1.208-4.09-4.743 2.978 5.951Zm21.134 42.71.257-1.153.184-1.184-.441 2.337ZM45.108 66.08l-.991-.543-1.026-.473 2.017 1.016Zm8.311 20.694.44-2.337.148-2.467-.588 4.804Zm-4.696-17.825-3.615-2.87-4.172-1.751 7.787 4.62ZM33.397 42.856l1.143-1.15-5.233-3.593 4.09 4.743Zm20.463 41.58.11-1.216.037-1.25-.147 2.467Zm-20.938-49.27-1.858 1.442-1.757 1.505 3.615-2.947ZM53.42 76.898l-4.697-7.95-7.787-4.62 12.484 12.57Zm-6.435-9.523-.921-.683-.956-.612 1.877 1.295Zm6.434 19.399.588-4.804-.587-5.072-.001 9.876ZM34.54 41.707l1.174-1.09-6.407-2.504 5.233 3.594Zm14.183 27.242-1.738-1.574-1.877-1.295 3.615 2.869Zm5.284 13.021-.037-1.337-.11-1.29.147 2.627Zm-5.284-13.021-.852-.822-.886-.752 1.738 1.574ZM35.714 40.617l1.206-1.031-7.613-1.473 6.407 2.504ZM54.007 81.97l-.147-2.628-.44-2.444.587 5.072Zm-.147-2.628-.183-1.245-.257-1.2.44 2.445Zm-3.522-8.68-.77-.88-.845-.833 1.615 1.712Zm3.082 6.236-1.761-4.34-2.936-3.61 4.697 7.95Zm-1.761-4.34-1.321-1.897-1.615-1.712 2.936 3.608Zm1.761 4.34-.33-1.154-.404-1.108.734 2.262Zm-1.761-4.34-.624-.972-.697-.925 1.321 1.896Zm-14.74-32.972 1.237-.972-8.85-.5 7.613 1.472Zm.02-7.11-4.017 2.69-3.615 2.947 7.632-5.638ZM53.42 76.897l-.734-2.262-1.027-2.079 1.761 4.34Zm-.734-2.262-.477-1.062-.55-1.017 1.027 2.079Zm-14.53-36.022 1.267-.913-10.116.412 8.849.5Zm1.267-.913 1.298-.855-11.414 1.267 10.116-.413Zm-2.484-5.226L34.88 33.79l-1.958 1.377 4.017-2.69Zm3.782 4.371 1.329-.794-12.743 2.061 11.414-1.267Zm1.329-.794 1.36-.736-14.103 2.797 12.743-2.061Zm4.173-2.03-9.284-1.547-7.632 5.638 16.916-4.092Zm-2.813 1.294 1.39-.677-15.493 3.474 14.103-2.797Zm1.39-.677 1.423-.618-16.916 4.092L44.8 34.64Zm-3.441-4.6-2.26 1.186-2.16 1.25 4.42-2.435Zm4.864 3.982-4.864-3.981-4.42 2.435 9.284 1.546Zm0 0-2.504-5.103-2.36 1.122 4.864 3.981Z"/></g><path d="M45.6 33.788c-5.736 2.48-10.559 6.174-14.842 11.352l-.006.009c-4.221 5.335-6.189 10.42-6.189 16.011 0 2.305.363 4.541.95 6.291l.229.681.559-.451c2.95-2.38 5.673-3.454 9.526-3.454 4.99 0 9.122 1.647 12.43 4.934l.01.01.011.009c3.477 3.09 5.23 7.272 5.23 12.606 0 4.946-1.747 9.145-5.25 12.625-3.306 3.283-7.432 4.93-12.416 4.934-3.725-.225-6.78-1.12-9.36-2.676-2.581-1.557-4.716-3.795-6.576-6.748-2.374-4.342-4.414-9.83-4.414-17.056 0-9.342 1.81-17.896 6.48-25.318 4.707-7.481 11.999-13.538 21.56-18.002l2.068 4.243Z" fill="#fff"/><path d="M45.6 33.788c-5.736 2.48-10.559 6.174-14.842 11.352l-.006.009c-4.221 5.335-6.189 10.42-6.189 16.011 0 2.305.363 4.541.95 6.291l.229.681.559-.451c2.95-2.38 5.673-3.454 9.526-3.454 4.99 0 9.122 1.647 12.43 4.934l.01.01.011.009c3.477 3.09 5.23 7.272 5.23 12.606 0 4.946-1.747 9.145-5.25 12.625-3.306 3.283-7.432 4.93-12.416 4.934-3.725-.225-6.78-1.12-9.36-2.676-2.581-1.557-4.716-3.795-6.576-6.748-2.374-4.342-4.414-9.83-4.414-17.056 0-9.342 1.81-17.896 6.48-25.318 4.707-7.481 11.999-13.538 21.56-18.002l2.068 4.243Z" fill="url(#b)"/><path d="M45.6 33.788c-5.736 2.48-10.559 6.174-14.842 11.352l-.006.009c-4.221 5.335-6.189 10.42-6.189 16.011 0 2.305.363 4.541.95 6.291l.229.681.559-.451c2.95-2.38 5.673-3.454 9.526-3.454 4.99 0 9.122 1.647 12.43 4.934l.01.01.011.009c3.477 3.09 5.23 7.272 5.23 12.606 0 4.946-1.747 9.145-5.25 12.625-3.306 3.283-7.432 4.93-12.416 4.934-3.725-.225-6.78-1.12-9.36-2.676-2.581-1.557-4.716-3.795-6.576-6.748-2.374-4.342-4.414-9.83-4.414-17.056 0-9.342 1.81-17.896 6.48-25.318 4.707-7.481 11.999-13.538 21.56-18.002l2.068 4.243Z" stroke="url(#c)"/><mask id="d" style="mask-type:alpha" maskUnits="userSpaceOnUse" x="25" y="25" width="38" height="74"><path d="m51.856 25-8.126 3.91c.66 1.375 2.075 4.32 2.458 5.102-6.782 2.864-10.192 6.244-12.446 8.477l-.017.018c-2.513 2.313-5.146 6.421-5.864 7.797-1.854 3.51-1.994 4.866-2.473 6.692-1.016 5.782.32 9.481.579 10.259 1.535-1.217 4.327-2.892 7.378-3.37 8.575-.997 13.09 3.078 13.508 3.398.457.283 1.907 1.667 2.19 1.94.334.259 1.572 1.7 1.784 2.005.282.269 1.327 2.128 1.487 2.458.593 1.309.923 2.382 1.012 2.74.146.306.434 2.034.471 2.33.104.245.189 2.406.193 2.712.014.282-.042 1.718-.132 2.646-.09.927-.287 1.718-.438 2.358-.108.57-.46 1.497-.644 2.039-.156.517-.904 1.944-1.13 2.349-.203.386-.975 1.492-1.248 1.85-.198.301-1.054 1.28-1.356 1.61-.301.306-1.468 1.394-1.892 1.733-.301.27-1.111.828-1.478 1.073-.41.278-1.756 1.083-3.735 1.783 1.587-.45 4.165-1.793 4.753-2.126.25-.079 4.88-2.496 7.163-3.695 1.498-.854 3.414-2.71 4.155-3.635.079-.099 1.638-2.057 2.352-3.636 1.093-2.418 1.298-3.662 1.464-4.664l.006-.04c.235-.676.284-2.675.265-3.969.008-.972-.265-2.698-.402-3.44-.167-.81-.647-2.712-1.235-3.841-.529-1.372-1.862-3.087-2.606-3.93-.745-.843-2.352-2.42-4.048-3.508-1.646-1.146-3.616-1.803-4.772-2.146-.794-.265-2.9-.647-5.37-.618-2.548 0-4.812.824-5.36 1.05-.765.234-3.676 1.734-4.313 2.067-.235-.608-.617-3.048-.617-3.195 0-.069-.108-1.029-.108-1.195v-1.392l.078-1.617c.056-.526.189-1.674.275-2.058.617-2.97 1.353-4.468 1.618-5.174.176-.441 1.283-2.509 1.636-3.156.245-.49 1.715-2.538 2.107-3.136.147-.352 2.361-2.724 3.302-3.704.502-.627 2.365-2.175 3.234-2.871.768-.839 3.685-2.59 5.047-3.361l3.783-1.803L51.856 25Z" fill="#0098D7"/></mask><g mask="url(#d)"><ellipse cx="59.696" cy="71.104" rx="31.677" ry="34.326" transform="rotate(41.364 59.696 71.104)" fill="url(#e)"/><ellipse cx="56.629" cy="23.488" rx="31.677" ry="34.326" transform="rotate(41.364 56.63 23.488)" fill="url(#f)"/></g><g filter="url(#g)" fill="#0098D7"><path d="m83.195 64.499 2.718-1.342-.133-.429-2.585 1.77Zm-.133-.43 2.718-1.34-.121-.44-2.597 1.78Zm-.122-.44 2.719-1.34-.11-.452-2.609 1.792Zm-.11-.451 2.719-1.34-.098-.464-2.62 1.804Zm-.098-.464 2.719-1.34-.087-.474-2.632 1.814Zm-.086-.474 2.718-1.34-.075-.486-2.643 1.825Zm-.075-.487 2.718-1.339-.063-.497-2.655 1.836Zm-.064-.498 2.719-1.338-.052-.509-2.667 1.847Zm-.052-.51 2.719-1.337-.04-.52-2.679 1.858Zm-.04-.52 2.718-1.337-.029-.532-2.69 1.869Zm-.03-.532 2.72-1.337-.018-.543-2.701 1.88Zm-.017-.544 2.719-1.336-.006-.555-2.713 1.89Zm-.005-.556 2.718-1.335.043-1.352-2.761 2.687Zm.042-1.354 2.719-1.333.127-1.347-2.846 2.68Zm18.942 38.09 2.697-1.378.987-.51-3.684 1.887ZM82.532 55.89l2.719-1.332.211-1.342-2.93 2.674Zm19.803 38.927 2.696-1.376.953-.581-3.649 1.957Zm-15.2-32.665 2.712-1.34-.825.367-1.888.973Zm-4.391-7.605 2.718-1.331.296-1.337-3.014 2.667Zm5.236 7.288 2.712-1.339-.844.316-1.868 1.023Zm-4.94-8.627 2.718-1.329.382-1.331-3.1 2.66Zm20.249 41.028 2.695-1.376.918-.651-3.613 2.027ZM88.845 61.57l2.711-1.339-.864.265-1.847 1.074Zm-5.423-9.695 2.718-1.327.465-1.327-3.183 2.654Zm20.786 41.709 2.694-1.375.884-.722-3.578 2.097ZM89.729 61.356l2.71-1.338-.883.214-1.827 1.124Zm-5.841-10.808 2.717-1.326.55-1.321-3.267 2.647Zm21.205 42.314 2.693-1.374.849-.792-3.542 2.166Zm-14.46-31.67 2.71-1.337-.903.163-1.807 1.175Zm-6.194-11.967 2.717-1.324.635-1.316-3.352 2.64Zm21.504 42.844 2.692-1.373.841-.89-3.533 2.263ZM91.555 61.08l2.71-1.338-.923.113-1.787 1.225Zm-6.48-13.172 2.716-1.323.72-1.311-3.436 2.634Zm7.423 13.11 2.707-1.337-.94.061-1.767 1.277Zm14.287 30.16 2.691-1.372.769-.922-3.46 2.294Zm-13.326-30.17 2.707-1.338-.96.01-1.747 1.328Zm-7.664-14.413 2.715-1.321.805-1.306-3.52 2.627Zm21.759 43.66 2.691-1.371.695-.955-3.386 2.326ZM94.69 61.062l2.706-1.338-1.23-.054-1.476 1.392Zm13.56 28.237 2.69-1.37.622-.987-3.312 2.357ZM86.6 45.288l2.715-1.32.889-1.301-3.603 2.621Zm9.287 15.898 2.704-1.339-1.195-.123-1.509 1.462Zm12.986 27.125 2.689-1.369.548-1.019-3.237 2.388ZM87.491 43.986l2.713-1.319.974-1.296-3.687 2.615Zm9.558 17.393 2.702-1.339-1.16-.193-1.542 1.532Zm12.373 25.912 2.688-1.368.476-1.051-3.164 2.42Zm-11.246-25.65 2.701-1.338-1.126-.263-1.575 1.602Zm11.722 24.598 2.688-1.367.403-1.084-3.091 2.45Zm-21.432-43.55 2.712-1.318 1.078-1.263-3.79 2.58Zm10.803 19.285 2.7-1.34-1.092-.331-1.608 1.671Zm11.032 23.18 2.688-1.366.329-1.116-3.017 2.482Zm-9.974-22.778 2.699-1.34-1.057-.401-1.642 1.741Zm10.304 21.66 2.687-1.364.256-1.148-2.943 2.512ZM89.544 41.424l2.712-1.316 1.108-1.204-3.82 2.52Zm11.806 21.424 2.698-1.34-1.022-.472-1.676 1.812Zm9.537 20.039 2.687-1.364.183-1.18-2.87 2.544Zm-8.548-19.498 2.696-1.34-.987-.541-1.709 1.881Zm8.732 18.316 2.686-1.362.11-1.213-2.796 2.575ZM90.654 40.219l2.71-1.315 1.14-1.145-3.85 2.46ZM103.292 64l2.696-1.342-.953-.61L103.292 64Zm7.889 16.49 2.686-1.361.037-1.245-2.723 2.605Zm-6.969-15.81 2.694-1.342-.918-.68-1.776 2.022Zm7.006 14.563 2.686-1.36-.036-1.332-2.65 2.691Zm-6.122-13.812 2.694-1.344-.884-.75-1.81 2.094Zm6.085 12.478 2.687-1.358-.11-1.286-2.577 2.644Zm-5.235-11.658 2.693-1.345-.849-.819-1.844 2.164Zm-14.15-27.18 2.708-1.313 1.17-1.087-3.879 2.4Zm19.275 37.55 2.687-1.356-.182-1.241-2.505 2.597Zm-4.283-9.539 2.692-1.345-.841-.83-1.851 2.175Zm4.101 8.296 2.687-1.354-.256-1.196-2.431 2.55Zm-3.332-7.419 2.691-1.346-.768-.876-1.923 2.222Zm3.075 6.223 2.688-1.354-.329-1.15-2.359 2.504Zm-2.379-5.3 2.69-1.347-.695-.922-1.995 2.27Zm2.05 4.148 2.688-1.352-.402-1.104-2.286 2.456Zm-1.428-3.179 2.69-1.348-.622-.968-2.068 2.316Zm1.025 2.074 2.689-1.35-.476-1.06-2.213 2.41Zm-.476-1.06 2.689-1.35-.548-1.012-2.141 2.362ZM92.967 37.984l2.707-1.312 1.202-1.027-3.91 2.34Zm1.202-1.028 2.707-1.311 1.232-.97-3.939 2.28Zm1.234-.97 2.705-1.31 1.263-.91-3.968 2.22Zm1.264-.911 2.704-1.31 1.293-.85-3.997 2.16ZM83.062 64.07l.133.429 2.585-1.77-2.718 1.34Zm-.122-.44.122.44 2.597-1.781-2.719 1.34Zm-.11-.452.11.452 2.609-1.793-2.718 1.34Zm-.098-.464.099.464 2.62-1.803-2.719 1.34Zm-.086-.474.086.474 2.632-1.814-2.718 1.34Zm-.075-.487.075.486 2.643-1.825-2.718 1.34Zm-.064-.498.064.498 2.655-1.836-2.719 1.338Zm-.052-.51.052.51 2.667-1.847-2.719 1.338Zm-.04-.52.04.52 2.678-1.857-2.718 1.337Zm15.547-26.003 2.702-1.307 1.325-.793-4.027 2.1Zm-15.576 25.47.029.533 2.69-1.869-2.72 1.337Zm-.018-.543.018.544 2.701-1.88-2.719 1.336Zm-.005-.556.005.556 2.713-1.891-2.719 1.335Zm.042-1.354-.043 1.354 2.762-2.687-2.72 1.333Zm16.883-23.81 2.701-1.307 1.356-.733-4.056 2.04ZM82.532 55.891l-.127 1.348 2.846-2.68-2.72 1.332Zm19.803 38.927-.988.51 3.684-1.886-2.696 1.376Zm-19.591-40.27-.212 1.343 2.93-2.674-2.718 1.33Zm3.564 7.972.826-.367 1.888-.973-2.714 1.34Zm14.337-29.825 2.7-1.306 1.386-.675-4.086 1.981Zm2.644 61.542-.954.58 3.649-1.956-2.695 1.376ZM83.04 53.209l-.296 1.338 3.014-2.667-2.718 1.33Zm4.094 8.944.846-.317 1.867-1.023-2.713 1.34Zm-3.712-10.277-.382 1.333 3.1-2.66-2.718 1.327Zm20.786 41.709-.919.652 3.613-2.027-2.694 1.375ZM87.98 61.836l.865-.265 1.847-1.074-2.712 1.34Zm12.974-35.524 2.699-1.3-2.353 1.119-.346.18ZM83.888 50.548l-.466 1.328 3.183-2.654-2.717 1.326Zm4.957 11.023.884-.215 1.827-1.124-2.711 1.339Zm16.248 31.291-.885.723 3.578-2.097-2.693 1.374Zm-1.641-61.459 2.696-1.305-2.495-5.085-.201 6.39ZM84.439 49.225l-.551 1.323 3.268-2.647-2.717 1.324Zm5.29 12.131.904-.163 1.807-1.175-2.71 1.338Zm16.214 30.713-.85.793 3.542-2.166-2.692 1.373Zm-15.31-30.876.922-.113 1.787-1.225-2.71 1.338Zm-5.558-13.285-.636 1.317 3.352-2.64-2.716 1.323Zm21.71 43.27-.842.891 3.533-2.263-2.691 1.372ZM91.555 61.08l.943-.061 1.766-1.277-2.709 1.338Zm-5.76-14.485-.72 1.313 3.435-2.634-2.715 1.321Zm21.759 43.66-.769.923 3.46-2.294-2.691 1.371ZM92.498 61.019l.961-.011 1.746-1.328-2.707 1.339Zm.961-.011 1.231.054 1.476-1.392-2.707 1.338Zm14.791 28.291-.696.956 3.386-2.326-2.69 1.37ZM86.6 45.288l-.805 1.307 3.52-2.627-2.715 1.32Zm22.273 43.023-.623.988 3.312-2.357-2.689 1.37ZM94.69 61.063l1.197.124 1.508-1.462-2.705 1.338Zm-7.2-17.076-.89 1.302 3.604-2.621-2.713 1.319Zm21.932 43.305-.549 1.02 3.237-2.388-2.688 1.368ZM95.887 61.186l1.162.193 1.542-1.532-2.704 1.339Zm-7.421-18.497-.975 1.297 3.687-2.615-2.712 1.318Zm21.432 43.55-.476 1.052 3.164-2.42-2.688 1.368Zm-12.85-24.86 1.128.263 1.575-1.602-2.702 1.339Zm13.253 23.775-.403 1.085 3.091-2.451-2.688 1.366ZM98.176 61.642l1.093.332 1.608-1.671-2.7 1.339Zm-8.632-20.218-1.078 1.265 3.79-2.58-2.712 1.315Zm21.087 42.612-.33 1.118 3.017-2.482-2.687 1.364ZM99.269 61.974l1.058.402 1.642-1.741-2.7 1.34Zm11.618 20.913-.256 1.15 2.943-2.514-2.687 1.364Zm-10.56-20.51 1.023.471 1.676-1.812-2.699 1.34Zm-9.673-22.158-1.11 1.205 3.82-2.52-2.71 1.315Zm20.417 41.486-.184 1.182 2.87-2.544-2.686 1.362Zm-9.721-18.857.989.541 1.709-1.881-2.698 1.34Zm9.831 17.642-.11 1.215 2.796-2.575-2.686 1.36Zm-8.842-17.1.953.61 1.743-1.952-2.696 1.341Zm8.879 15.853-.037 1.247 2.723-2.605-2.686 1.358Zm-7.926-15.242.92.68 1.776-2.022L103.292 64ZM91.795 39.072l-1.14 1.147 3.849-2.46-2.709 1.313Zm12.417 25.61.884.75 1.81-2.093-2.694 1.342Zm6.969 13.228.037 1.334 2.65-2.692-2.687 1.358Zm-6.085-12.478.85.82 1.844-2.164-2.694 1.344Zm5.975 11.19.11 1.288 2.577-2.644-2.687 1.356Zm-5.125-10.37.842.831 1.851-2.176-2.693 1.345Zm4.943 9.127.182 1.243 2.505-2.597-2.687 1.354ZM92.967 37.984l-1.172 1.088 3.88-2.4-2.708 1.312Zm13.821 29.1.769.876 1.923-2.222-2.692 1.345Zm3.844 7.099.257 1.196 2.431-2.55-2.688 1.354Zm-3.075-6.223.696.923 1.995-2.269-2.691 1.346Zm2.746 5.072.329 1.15 2.359-2.502-2.688 1.351Zm-2.05-4.149.622.969 2.068-2.316-2.69 1.347Zm1.647 3.043.403 1.105 2.286-2.456-2.689 1.351Zm-1.025-2.074.549 1.014 2.141-2.362-2.69 1.348Zm.549 1.014.476 1.06 2.213-2.41-2.689 1.35Zm-15.255-33.91-1.202 1.028 3.909-2.34-2.707 1.312Zm1.234-.97-1.234.97 3.939-2.28-2.705 1.31Zm1.264-.911-1.264.91 3.968-2.22-2.704 1.31Zm1.295-.853-1.295.853 3.997-2.16-2.702 1.307Zm1.326-.793-1.326.793 4.027-2.1-2.7 1.307Zm1.357-.734-1.356.734 4.056-2.04-2.7 1.306Zm1.388-.675-1.388.675 4.086-1.98-2.698 1.305Zm-3.434-4.589 2.355-1.12.346-.18-2.701 1.3Zm2.355-1.12 2.498 5.092.201-6.39-2.699 1.299ZM80.471 65.844l2.724-1.344-.133-.43-2.591 1.775Zm-.133-.429 2.724-1.344-.122-.44-2.602 1.784Zm-.122-.44 2.724-1.345-.11-.451-2.614 1.795Zm-.11-.453 2.725-1.343-.099-.464-2.626 1.807Zm-.098-.464 2.724-1.343-.086-.474-2.638 1.817Zm-.087-.475 2.725-1.343-.075-.486-2.65 1.829Zm-.075-.487 2.725-1.342-.064-.498-2.661 1.84Zm-.064-.498 2.725-1.342-.052-.51-2.673 1.852Zm-.052-.51 2.725-1.341-.04-.521-2.685 1.862Zm-.04-.522 2.725-1.34-.03-.532-2.695 1.872Zm-.03-.533 2.726-1.34-.018-.543-2.707 1.883Zm-.017-.544 2.725-1.34-.005-.555-2.72 1.894Zm-.005-.557 2.724-1.338.043-1.354-2.767 2.692Zm.042-1.355 2.725-1.337.127-1.348-2.852 2.685ZM98.643 96.71l2.704-1.38.988-.511-3.692 1.89ZM79.807 57.226l2.725-1.335.212-1.343-2.937 2.678Zm19.826 38.972 2.702-1.38.954-.581-3.656 1.96ZM84.414 63.495l2.72-1.342-.826.367-1.894.975ZM80.02 55.88l2.725-1.334.296-1.338-3.02 2.672Zm5.242 7.297 2.719-1.342-.846.317-1.873 1.025Zm-4.945-8.637 2.724-1.332.382-1.333-3.106 2.665Zm20.272 41.075 2.701-1.38.919-.651-3.62 2.03ZM86.127 62.912l2.718-1.341-.865.265-1.853 1.076Zm-5.43-9.705 2.725-1.33.466-1.329-3.19 2.659Zm20.811 41.756 2.7-1.378.885-.723-3.585 2.101ZM87.012 62.698l2.717-1.342-.884.215-1.833 1.127Zm-5.847-10.82 2.723-1.33.55-1.323-3.273 2.652Zm21.229 42.362 2.699-1.378.85-.793-3.549 2.17ZM87.917 62.534l2.716-1.341-.904.163-1.812 1.178Zm-6.201-11.98 2.723-1.329.636-1.317-3.359 2.645Zm21.528 42.892 2.699-1.377.842-.89-3.541 2.267ZM88.841 62.42l2.715-1.34-.923.112-1.792 1.228Zm-6.489-13.187 2.723-1.326.72-1.313-3.443 2.64Zm7.432 13.126 2.714-1.341-.943.061-1.771 1.28Zm14.304 30.194 2.697-1.376.769-.923-3.466 2.299ZM90.747 62.349l2.712-1.341-.961.01-1.752 1.331ZM83.073 47.92l2.721-1.325.805-1.307-3.526 2.632Zm21.783 43.71 2.697-1.375.696-.956-3.393 2.33ZM91.979 62.402l2.711-1.341-1.23-.054-1.481 1.395Zm13.575 28.27 2.696-1.374.623-.988-3.319 2.362ZM83.88 46.61l2.72-1.323.89-1.302-3.61 2.625Zm9.297 15.916 2.71-1.341-1.197-.124-1.513 1.465Zm13 27.157 2.696-1.373.549-1.02-3.245 2.393ZM84.771 45.308l2.72-1.322.975-1.297-3.695 2.619Zm9.57 17.412 2.708-1.341-1.162-.193-1.547 1.534Zm12.386 25.942 2.695-1.37.476-1.053-3.171 2.423ZM95.469 62.984l2.707-1.342-1.127-.263-1.58 1.605Zm11.735 24.625 2.694-1.37.403-1.085-3.097 2.455Zm-21.457-43.6 2.719-1.32 1.079-1.265-3.798 2.585Zm10.816 19.307 2.706-1.342-1.093-.332-1.614 1.674Zm11.044 23.206 2.694-1.368.33-1.118-3.024 2.486ZM97.622 63.72l2.705-1.343-1.058-.402-1.647 1.745Zm10.316 21.685 2.693-1.368.256-1.15-2.949 2.518Zm-21.11-42.66 2.716-1.32 1.11-1.205-3.827 2.524Zm11.818 21.448 2.704-1.344-1.023-.472-1.681 1.816Zm9.548 20.06 2.693-1.365.184-1.182-2.877 2.548Zm-8.558-19.518 2.703-1.344-.989-.542-1.714 1.886Zm8.742 18.336 2.693-1.365.11-1.215-2.803 2.58Zm-20.44-41.534 2.716-1.317 1.141-1.147-3.857 2.464Zm12.653 23.81L103.292 64l-.953-.612-1.748 1.956Zm7.897 16.508 2.693-1.364.037-1.246-2.73 2.61Zm-6.977-15.827 2.701-1.346-.92-.68-1.781 2.026Zm7.014 14.579 2.693-1.362-.037-1.334-2.656 2.696Zm-6.129-13.828 2.7-1.346-.884-.75-1.816 2.096Zm6.092 12.492 2.693-1.36-.11-1.288-2.583 2.648ZM103.247 67.6l2.699-1.347-.85-.82-1.849 2.167ZM89.08 40.389l2.715-1.317 1.172-1.088-3.887 2.404Zm19.3 37.591 2.692-1.36-.182-1.242-2.51 2.602Zm-4.289-9.55 2.698-1.348-.842-.831-1.856 2.18Zm4.105 8.306 2.694-1.358-.257-1.196-2.437 2.554Zm-3.335-7.427 2.697-1.35-.769-.877-1.928 2.227Zm3.079 6.229 2.693-1.356-.329-1.152-2.364 2.508Zm-2.382-5.305 2.696-1.35-.696-.924-2 2.274Zm2.052 4.153 2.694-1.356-.403-1.105-2.291 2.46Zm-1.429-3.184 2.695-1.351-.622-.969-2.073 2.32Zm1.026 2.077 2.694-1.354-.476-1.06-2.218 2.414Zm-.476-1.061 2.694-1.353-.549-1.014-2.145 2.367Zm-16.477-32.92 2.714-1.315 1.202-1.028-3.916 2.343Zm1.204-1.03 2.712-1.313 1.234-.97-3.946 2.284Zm1.235-.97 2.71-1.313 1.265-.911-3.975 2.223Zm1.266-.913 2.71-1.311 1.294-.853-4.004 2.164Zm-13.62 29.028.133.43 2.59-1.774-2.723 1.344Zm-.122-.44.122.44 2.602-1.785-2.724 1.344Zm-.11-.453.11.452 2.615-1.795-2.725 1.343Zm-.098-.464.098.464 2.626-1.807-2.724 1.343Zm-.087-.475.087.475 2.638-1.818-2.725 1.343Zm-.075-.487.075.487 2.65-1.829-2.725 1.342Zm-.064-.498.064.498 2.661-1.84-2.725 1.341Zm-.052-.51.052.51 2.673-1.851-2.725 1.34Zm-.04-.522.04.522 2.684-1.862-2.724 1.34Zm15.564-26.032 2.708-1.31 1.326-.794-4.034 2.104Zm-15.594 25.5.029.533 2.696-1.872-2.725 1.339Zm-.018-.544.018.544 2.707-1.883-2.725 1.338Zm-.005-.557.005.556 2.72-1.894-2.725 1.338Zm.042-1.355-.043 1.355 2.768-2.692-2.725 1.337ZM96.582 34.74l2.707-1.31 1.356-.734-4.063 2.044ZM79.807 57.226l-.127 1.35 2.852-2.685-2.725 1.335Zm19.826 38.972-.99.51 3.692-1.89-2.702 1.38ZM80.019 55.88l-.212 1.345 2.937-2.678-2.725 1.333Zm3.568 7.981.827-.367 1.894-.975-2.72 1.342ZM97.94 34.004l2.705-1.309 1.388-.675-4.093 1.984Zm2.648 61.612-.955.582 3.656-1.961-2.701 1.379ZM80.316 54.54l-.297 1.34 3.021-2.672-2.724 1.332Zm4.098 8.954.847-.317 1.873-1.025-2.72 1.342Zm-3.716-10.288-.382 1.334 3.106-2.665-2.724 1.33Zm20.81 41.756-.92.653 3.62-2.031-2.7 1.378ZM85.261 63.178l.866-.266 1.853-1.076-2.719 1.342ZM98.25 27.614l2.704-1.302-2.355 1.12-.35.182ZM81.165 51.877l-.467 1.33 3.19-2.659-2.724 1.33Zm4.962 11.035.885-.214 1.833-1.127-2.718 1.341Zm16.267 31.328-.886.723 3.585-2.1-2.699 1.377Zm-1.644-61.53 2.702-1.308-2.498-5.091-.204 6.4ZM81.716 50.553l-.551 1.325 3.274-2.653-2.723 1.328Zm5.296 12.145.905-.164 1.812-1.178-2.717 1.342Zm16.232 30.748-.85.794 3.549-2.171-2.699 1.377ZM87.917 62.534l.924-.113 1.792-1.228-2.716 1.341Zm-5.565-13.3-.636 1.32 3.359-2.646-2.723 1.326Zm21.736 43.32-.844.892 3.541-2.268-2.697 1.376ZM88.841 62.42l.943-.061 1.771-1.28-2.714 1.341Zm-5.767-14.5-.722 1.313 3.443-2.639-2.721 1.325Zm21.783 43.708-.769.925 3.466-2.299-2.697 1.374ZM89.784 62.36l.962-.01 1.752-1.33-2.714 1.34Zm.962-.01 1.233.054 1.48-1.395-2.713 1.341Zm14.808 28.324-.697.956 3.393-2.33-2.696 1.374ZM83.88 46.61l-.806 1.31 3.526-2.633-2.72 1.323Zm22.297 43.073-.623.989 3.319-2.362-2.696 1.373Zm-14.198-27.28 1.198.123 1.513-1.465-2.711 1.341Zm-7.208-17.096-.891 1.303 3.61-2.625-2.719 1.322Zm21.956 43.354-.55 1.022 3.245-2.393-2.695 1.371Zm-13.55-26.135 1.163.193 1.547-1.534-2.71 1.341Zm-7.43-18.518-.976 1.299 3.695-2.62-2.719 1.321Zm21.457 43.6-.477 1.053 3.171-2.423-2.694 1.37ZM94.34 62.72l1.129.264 1.58-1.605-2.709 1.341Zm13.267 23.802-.403 1.087 3.097-2.455-2.694 1.368ZM95.469 62.984l1.094.332 1.613-1.674-2.707 1.342Zm-8.642-20.24-1.08 1.265 3.797-2.585-2.717 1.32Zm21.111 42.66-.331 1.118 3.024-2.486-2.693 1.368ZM96.562 63.317l1.06.402 1.647-1.745-2.707 1.343Zm11.632 20.936-.256 1.15 2.949-2.516-2.693 1.366ZM97.622 63.719l1.024.473 1.681-1.816-2.705 1.343Zm-9.684-22.183-1.11 1.207 3.826-2.524-2.716 1.317Zm20.44 41.534-.184 1.183 2.877-2.548-2.693 1.365Zm-9.732-18.878.99.542 1.714-1.886-2.704 1.344Zm9.842 17.662-.11 1.216 2.803-2.58-2.693 1.364Zm-8.852-17.12.955.611 1.748-1.956-2.703 1.345Zm8.889 15.872-.037 1.248 2.73-2.61-2.693 1.362Zm-7.934-15.26.92.68 1.781-2.025-2.701 1.344Zm-11.51-24.958-1.143 1.148 3.857-2.464-2.715 1.316Zm12.43 25.639.885.751 1.816-2.097-2.701 1.346Zm6.977 13.243.037 1.336 2.656-2.696-2.693 1.36Zm-6.092-12.492.851.821 1.849-2.167-2.7 1.346Zm5.983 11.203.109 1.29 2.583-2.65-2.692 1.36Zm-5.132-10.382.843.832 1.856-2.18-2.699 1.348Zm4.948 9.138.184 1.244 2.51-2.602-2.694 1.358ZM90.253 39.3l-1.173 1.088 3.887-2.404-2.714 1.316Zm13.837 29.132.77.878 1.928-2.227-2.698 1.349Zm3.849 7.107.256 1.198 2.437-2.554-2.693 1.356Zm-3.079-6.23.697.925 2-2.273-2.697 1.349Zm2.749 5.078.33 1.152 2.364-2.508-2.694 1.356Zm-2.052-4.153.623.97 2.073-2.32-2.696 1.35Zm1.649 3.046.403 1.107 2.291-2.461-2.694 1.354Zm-1.026-2.077.55 1.016 2.145-2.367-2.695 1.351Zm.55 1.016.476 1.06 2.218-2.413-2.694 1.353Zm-15.273-33.95-1.204 1.03 3.916-2.343-2.712 1.313Zm1.235-.97-1.235.97 3.946-2.283-2.711 1.313Zm1.266-.913-1.266.912 3.975-2.223-2.71 1.311Zm1.296-.853-1.296.853 4.004-2.164-2.708 1.311Zm1.328-.794-1.328.794 4.034-2.104-2.706 1.31Zm1.358-.735-1.358.735 4.063-2.044-2.705 1.31Zm1.39-.676-1.39.676 4.093-1.984-2.703 1.308Zm-3.439-4.594 2.358-1.12.35-.183-2.708 1.303Zm2.358-1.12 2.501 5.097.204-6.4-2.704 1.303ZM77.742 67.192l2.73-1.348-.133-.43-2.597 1.778Zm-.134-.43 2.73-1.348-.12-.44-2.61 1.788Zm-.121-.442 2.73-1.347-.11-.452-2.62 1.8Zm-.11-.452 2.73-1.347-.098-.464-2.632 1.81Zm-.099-.465 2.73-1.346-.086-.475-2.644 1.821Zm-.087-.476 2.731-1.345-.075-.487-2.656 1.832Zm-.075-.487 2.73-1.345-.063-.498-2.667 1.843Zm-.064-.5 2.731-1.343-.052-.51-2.679 1.854ZM77 63.43l2.731-1.343-.04-.522L77 63.43Zm-.04-.522 2.73-1.343-.028-.533-2.703 1.876Zm-.03-.533 2.732-1.343-.018-.544-2.713 1.887Zm-.017-.546 2.731-1.342-.005-.556-2.726 1.898Zm-.006-.556 2.731-1.342.043-1.355-2.774 2.697Zm.043-1.357 2.73-1.34.128-1.35-2.858 2.69Zm18.985 38.176 2.71-1.383.989-.511-3.7 1.894ZM77.076 58.564l2.731-1.338.212-1.345-2.943 2.683ZM96.925 97.58l2.708-1.382.955-.582-3.663 1.964ZM81.688 64.84l2.725-1.345-.827.367-1.898.978Zm-4.4-7.622 2.73-1.337.297-1.34-3.028 2.677Zm5.247 7.305 2.725-1.345-.847.317-1.878 1.028Zm-4.95-8.646 2.73-1.336.382-1.334-3.112 2.67Zm20.294 41.12 2.708-1.381.92-.653-3.627 2.035Zm-14.477-32.74 2.724-1.345-.866.266-1.858 1.08Zm-5.435-9.716 2.73-1.334.467-1.33-3.197 2.664Zm20.834 41.803 2.706-1.38.886-.724-3.592 2.105ZM84.289 64.042l2.723-1.344-.885.214-1.838 1.13ZM78.435 53.21l2.73-1.333.551-1.324-3.281 2.657Zm21.253 42.41 2.706-1.38.85-.794-3.556 2.174ZM85.195 63.878l2.722-1.344-.905.164-1.817 1.18Zm-6.208-11.994 2.729-1.33.636-1.32-3.365 2.65Zm21.553 42.941 2.704-1.38.844-.891-3.548 2.271Zm-14.42-31.06 2.72-1.344-.923.113-1.797 1.232Zm-6.496-13.202 2.728-1.329.722-1.314-3.45 2.643Zm7.44 13.141 2.72-1.344-.943.061-1.777 1.283Zm14.32 30.228 2.704-1.378.769-.925-3.473 2.303ZM88.028 63.693l2.718-1.344-.962.01-1.756 1.334Zm-7.682-14.445 2.728-1.328.806-1.309-3.534 2.637Zm21.809 43.76 2.702-1.379.697-.956-3.399 2.334Zm-12.894-29.26 2.718-1.345-1.233-.054-1.484 1.399Zm13.591 28.301 2.702-1.376.623-.99-3.325 2.366ZM81.153 47.938l2.727-1.327.891-1.303-3.618 2.63Zm9.308 15.933 2.716-1.344-1.198-.124-1.518 1.468Zm13.015 27.188 2.701-1.375.55-1.022-3.251 2.397Zm-21.43-44.427 2.725-1.324.976-1.299-3.702 2.623Zm9.58 17.433 2.714-1.345-1.163-.193-1.552 1.538Zm12.401 25.972 2.7-1.375.477-1.053-3.177 2.428ZM92.755 64.329l2.714-1.345-1.129-.264-1.585 1.609Zm11.749 24.653 2.7-1.373.403-1.087-3.103 2.46Zm-21.482-43.65 2.725-1.323 1.08-1.266-3.805 2.59Zm10.828 19.33 2.713-1.346-1.094-.332-1.619 1.678Zm11.058 23.232 2.699-1.372.331-1.118-3.03 2.49ZM94.91 65.065l2.712-1.346-1.06-.403-1.652 1.749Zm10.328 21.71 2.7-1.371.256-1.151-2.956 2.522Zm-21.134-42.71 2.723-1.322 1.111-1.207-3.834 2.53Zm11.832 21.473 2.71-1.346-1.024-.473-1.686 1.819Zm9.559 20.084 2.699-1.37.184-1.182-2.883 2.552Zm-8.568-19.541 2.709-1.347-.99-.542-1.72 1.889Zm8.752 18.356 2.699-1.367.11-1.216-2.809 2.584Zm-20.463-41.58 2.722-1.32 1.142-1.149-3.864 2.469Zm12.667 23.836 2.708-1.348-.955-.611-1.753 1.96Zm7.906 16.527 2.699-1.366.037-1.248-2.736 2.614Zm-6.985-15.845 2.707-1.348-.92-.682-1.787 2.03Zm7.022 14.596 2.699-1.365-.037-1.335-2.662 2.7Zm-6.135-13.844 2.705-1.349-.885-.751-1.82 2.1Zm6.098 12.507 2.699-1.364-.109-1.289-2.59 2.653Zm-5.247-11.685 2.705-1.35-.851-.821-1.854 2.171ZM86.359 41.708l2.721-1.32 1.173-1.088-3.894 2.408Zm19.32 37.635 2.7-1.362-.184-1.244-2.516 2.606Zm-4.293-9.56 2.704-1.352-.843-.832-1.861 2.184Zm4.11 8.315 2.699-1.36-.256-1.199-2.443 2.559Zm-3.339-7.436 2.703-1.352-.77-.879-1.933 2.231Zm3.082 6.236 2.7-1.359-.33-1.152-2.37 2.511Zm-2.385-5.31 2.703-1.354-.697-.924-2.006 2.277Zm2.055 4.157 2.7-1.358-.403-1.107-2.297 2.465Zm-1.431-3.187 2.702-1.355-.623-.97-2.079 2.325Zm1.027 2.079 2.701-1.357-.476-1.061-2.225 2.418Zm-.477-1.063 2.702-1.355-.55-1.016-2.152 2.371ZM87.533 40.618l2.72-1.319 1.204-1.03-3.924 2.349Zm1.206-1.032 2.718-1.316 1.235-.972-3.953 2.288Zm1.236-.972 2.717-1.316 1.266-.912-3.983 2.228Zm1.267-.913 2.716-1.315 1.296-.853-4.012 2.168Zm-13.635 29.06.134.43 2.597-1.777-2.73 1.348Zm-.121-.44.121.44 2.61-1.788-2.731 1.347Zm-.11-.453.11.452 2.62-1.799-2.73 1.347Zm-.099-.465.099.465 2.632-1.81-2.73 1.345Zm-.087-.476.087.476 2.644-1.821-2.73 1.345Zm-.075-.487.075.487 2.656-1.832-2.731 1.345Zm-.064-.5.064.5 2.667-1.843-2.73 1.344ZM77 63.43l.052.51 2.68-1.853L77 63.43Zm-.04-.522.04.522 2.69-1.865-2.73 1.343Zm15.58-26.06 2.715-1.315 1.328-.794-4.042 2.108ZM76.93 62.374l.03.533 2.702-1.876-2.731 1.343Zm-.017-.546.017.546 2.714-1.888-2.73 1.342Zm-.006-.556.006.556 2.725-1.898-2.73 1.342Zm.043-1.357-.043 1.357 2.774-2.697-2.731 1.34Zm16.92-23.864 2.713-1.313 1.358-.735-4.071 2.048ZM77.076 58.564l-.127 1.352 2.858-2.69-2.731 1.338ZM96.925 97.58l-.991.512 3.699-1.894-2.709 1.382ZM77.287 57.218l-.212 1.346 2.943-2.683-2.73 1.337Zm3.572 7.99.829-.368 1.898-.978-2.727 1.346ZM95.23 35.316l2.711-1.312 1.39-.676-4.101 1.988Zm2.651 61.682-.956.582 3.664-1.964-2.707 1.382ZM77.587 55.877l-.298 1.34 3.028-2.676-2.73 1.336Zm4.103 8.963.847-.317 1.878-1.028-2.725 1.345Zm-3.721-10.3-.383 1.337 3.113-2.67-2.73 1.334Zm20.834 41.804-.922.654 3.628-2.035-2.706 1.382Zm-16.266-31.82.867-.267 1.858-1.079-2.725 1.345Zm13.002-35.605 2.712-1.305-2.359 1.12-.353.185Zm-17.103 24.29-.467 1.332 3.197-2.663-2.73 1.332Zm4.968 11.048.886-.215 1.838-1.13-2.724 1.345ZM99.688 95.62l-.886.724 3.592-2.104-2.706 1.38Zm-1.646-61.598 2.708-1.31-2.5-5.098-.208 6.408ZM78.987 51.884l-.552 1.326 3.281-2.657-2.73 1.33Zm5.302 12.158.906-.163 1.817-1.181-2.723 1.344Zm16.251 30.783-.852.795 3.556-2.174-2.704 1.38ZM85.195 63.878l.925-.112 1.797-1.232-2.722 1.345Zm-5.571-13.315-.637 1.32 3.365-2.649-2.728 1.33Zm21.76 43.37-.844.892 3.548-2.271-2.704 1.378ZM86.12 63.765l.944-.062 1.777-1.283-2.721 1.345Zm-5.774-14.518-.722 1.315 3.45-2.643-2.728 1.328Zm-10.78 37.148.624 1.392.689 1.347-1.313-2.739Z"/><path d="m102.161 93.008-.771.925 3.474-2.303-2.703 1.378Zm-15.09-29.303.963-.011 1.756-1.334-2.72 1.345ZM70.877 89.133l.755 1.3.963 1.453-1.718-2.752Zm-2.363-5.659 1.05 2.921 1.313 2.739-2.363-5.66Zm0 0 .493 1.484.557 1.437-1.05-2.921Zm2.363 5.66 1.718 2.752 2.146 2.532-3.864-5.285Zm-2.363-5.66 2.363 5.66 3.864 5.284-6.227-10.944Zm4.08 8.412 1.037 1.328 1.11 1.204-2.146-2.532Zm-4.867-11.517.36 1.576.427 1.529-.787-3.105Z"/><path d="m88.033 63.694 1.234.055 1.485-1.399-2.719 1.344Zm14.824 28.356-.697.958 3.399-2.334-2.702 1.376ZM81.159 47.94l-.807 1.31 3.533-2.637-2.726 1.327ZM67.195 77.081l.526 3.288.787 3.105-1.313-6.393Zm0 0 .23 1.667.296 1.621-.526-3.288Zm7.54 17.338 1.183 1.08 1.257.957-2.44-2.037Z"/><path d="m103.48 91.06-.624.99 3.325-2.366-2.701 1.375ZM89.266 63.747l1.199.123 1.518-1.468-2.717 1.345ZM66.95 69.481l1.56 13.993 6.227 10.944-7.788-24.937Zm15.094-22.849-.892 1.305 3.618-2.63-2.726 1.325Zm-15.099 22.85.248 7.6 1.313 6.393-1.561-13.993Zm7.788 24.937 2.44 2.038 2.732 1.542-5.172-3.58ZM66.93 73.61l.098 1.759.165 1.713-.263-3.472Z"/><path d="m104.031 90.037-.551 1.023 3.251-2.397-2.7 1.374ZM90.465 63.872l1.164.194 1.552-1.539-2.716 1.345ZM77.172 96.457l1.33.833 1.403.71-2.733-1.543ZM66.945 69.482l-.015 4.128.263 3.472-.248-7.6Z"/><path d="m83.02 45.332-.977 1.3 3.702-2.623-2.725 1.323Zm21.482 43.65-.478 1.055 3.178-2.429-2.7 1.373ZM91.623 64.064l1.13.263 1.585-1.608-2.715 1.345ZM66.95 69.481l-.048 2.323.033 1.805.015-4.128Zm7.788 24.937 5.173 3.58 6.347 1.6-11.52-5.18Z"/><path d="m104.91 87.895-.403 1.088 3.103-2.46-2.7 1.372ZM92.758 64.33l1.095.334 1.619-1.679-2.714 1.345ZM79.91 97.998l1.477.586 1.55.462-3.027-1.048Z"/><path d="m84.105 44.065-1.082 1.267 3.805-2.589-2.723 1.322Zm21.134 42.71-.33 1.12 3.03-2.491-2.7 1.37ZM93.851 64.661l1.06.403 1.653-1.748-2.713 1.345Zm-26.516.297-.241 2.242-.145 2.282.386-4.524Z"/><path d="m105.495 85.623-.257 1.152 2.956-2.522-2.699 1.37ZM94.91 65.066l1.026.472 1.685-1.818-2.71 1.346Zm-15 32.932 3.027 1.047 3.32.553-6.347-1.6Z"/><path d="m85.214 42.858-1.112 1.208 3.834-2.529-2.722 1.32Zm20.463 41.58-.184 1.185 2.883-2.553-2.699 1.368Zm-9.743-18.9.99.543 1.72-1.889-2.71 1.347Zm-27.828-4.944-.771 4.362-.386 4.525 1.157-8.887Z"/><path d="m105.79 83.22-.11 1.217 2.809-2.584-2.699 1.367ZM82.938 99.046l1.623.338 1.697.214-3.32-.552ZM96.93 66.08l.956.613 1.753-1.96-2.71 1.347Zm-29.98 3.402 7.787 24.937 2.212-34.503-10 9.566Z"/><path d="m105.825 81.97-.037 1.25 2.736-2.615-2.699 1.365Zm-7.943-15.278.92.683 1.788-2.03-2.708 1.347ZM86.358 41.707l-1.143 1.15 3.864-2.47-2.72 1.32Zm-11.62 52.71 11.52 5.18 6.497-.397-18.017-4.783Zm-6.63-33.823-.435 2.16-.337 2.202.771-4.362Z"/><path d="m98.804 67.376.887.752 1.82-2.1-2.707 1.348Zm6.986 13.258.036 1.337 2.663-2.7-2.699 1.364Zm-6.1-12.506.852.822 1.855-2.172-2.706 1.35Zm5.99 11.216.11 1.29 2.589-2.653-2.699 1.363Zm-5.138-10.394.845.833 1.86-2.184-2.705 1.35Zm4.954 9.148.184 1.246 2.516-2.606-2.7 1.36Zm-17.962-37.48-1.175 1.09 3.894-2.408-2.72 1.318Zm13.853 29.165.77.88 1.934-2.231-2.704 1.351Zm3.852 7.116.257 1.2 2.443-2.56-2.7 1.36Zm-3.082-6.237.697.925 2.006-2.277-2.703 1.352Zm2.752 5.083.33 1.154 2.37-2.512-2.7 1.358Zm-2.055-4.157.624.97 2.079-2.324-2.703 1.354ZM70.808 52.355l-2.702 8.24-1.157 8.887 3.859-17.127ZM86.257 99.6l1.77.09 1.234-.015-3.004-.075Z"/><path d="m104.504 74.636.404 1.109 2.296-2.465-2.7 1.356Zm-1.027-2.078.55 1.016 2.151-2.37-2.701 1.354Zm.55 1.016.477 1.063 2.224-2.418-2.701 1.355ZM74.734 94.42l3.004-27.228-.133-.43-2.87 27.657Zm0 0 2.87-27.658-.12-.441-2.75 28.098Zm0 0 2.75-28.099-.111-.453-2.639 28.551Zm0 0 2.639-28.552-.099-.464-2.54 29.015Zm0 0 2.54-29.016-.086-.476-2.454 29.491Zm11.52 5.179 3.004.075 1.2-.087-4.204.012Zm-11.52-5.18 2.454-29.491-.076-.488-2.378 29.98Zm0 0 2.378-29.979-.063-.499-2.315 30.478Zm14.01-54.832-1.205 1.03 3.924-2.347-2.719 1.316Z"/><path d="M74.737 94.419 77.05 63.94l-.052-.51-2.262 30.988Zm-5.474-38.024-.627 2.08-.53 2.12 1.157-4.2Zm5.474 38.024 2.262-30.988-.041-.522-2.221 31.51Zm0 0 2.22-31.51-.028-.534-2.192 32.044Zm0 0 2.192-32.044-.017-.545-2.175 32.589Zm0 0 2.175-32.59-.006-.556-2.17 33.146Zm11.52 5.18 4.202-.012 2.294-.385-6.497.397Zm-11.52-5.18 2.169-33.146.042-1.357-2.211 34.503Zm15.241-55.804-1.236.972 3.953-2.288-2.717 1.316Z"/><path d="m70.808 52.355-1.544 4.04-1.158 4.2 2.702-8.24Zm3.93 42.064 18.016 4.783 7.786-4.376-25.803-.407Zm15.722 5.168 1.164-.157 1.13-.228-2.294.385ZM66.95 69.482l9.999-9.566.127-1.351L66.95 69.482Zm24.294-31.78-1.267.913 3.982-2.228-2.715 1.315Z"/><path d="m70.808 52.355-.82 2-.724 2.04 1.544-4.04Zm-3.859 17.127 10.127-10.917.212-1.347L66.95 69.482Zm0 0 10.34-12.264.297-1.341-10.637 13.605Zm10.637-13.605.382-1.336-11.019 14.94 10.637-13.604ZM92.54 36.846l-1.298.854 4.013-2.168-2.715 1.314Z"/><path d="m92.754 99.201 1.094-.299 1.06-.37-2.154.67Zm-14.786-44.66.467-1.331-11.486 16.272L77.968 54.54Zm1.294 11.557-.77.521-.751.572 1.52-1.093Zm-.827-12.889.552-1.325L66.95 69.482l11.486-16.273Zm14.319 45.992 2.155-.669 2.016-.952-4.171 1.621Zm1.114-63.15-1.329.795 4.042-2.108-2.713 1.313Z"/><path d="m80.86 65.209-1.598.889-1.521 1.094 3.12-1.983Zm.266-27.095L70.807 52.355 66.95 69.482l14.177-31.368ZM74.737 94.42l30.502-17.52-27.498-9.707-3.004 27.227Zm-2-45.94-1.013 1.918-.916 1.958 1.93-3.877Zm6.25 3.405.637-1.32L66.95 69.481l12.038-17.598ZM94.91 98.533l1.025-.441.99-.512-2.015.953ZM80.86 65.209l-.808.419-.79.47 1.598-.89Zm-1.236-14.646.722-1.315L66.95 69.482l12.675-18.919Zm15.603-15.248-1.36.736 4.072-2.048-2.712 1.312Z"/><path d="m84.29 64.044-3.43 1.166-3.12 1.983 6.55-3.15Zm-3.944-14.795.807-1.31L66.95 69.483l13.397-20.234Zm12.408 49.954 4.17-1.621 3.616-2.755-7.786 4.376ZM75.102 44.776l-2.365 3.703-1.93 3.878 4.295-7.58Zm7.434 19.748-.847.318-.829.368 1.676-.685ZM74.737 94.42l25.803.407 4.699-17.927-30.502 17.52Zm22.188 3.162.956-.583.92-.653-1.876 1.236Zm-.303-62.942-1.391.677 4.1-1.989-2.71 1.312Zm-3.442-4.6 2.36-1.121.353-.185-2.713 1.307Z"/><path d="m84.29 64.043-1.754.48-1.676.686 3.43-1.166Zm-3.137-16.105-.027-9.824-14.177 31.368 14.204-21.544Zm-6.05-3.163L73.846 46.6l-1.11 1.878 2.365-3.703ZM96.924 97.58l1.877-1.235 1.738-1.52-3.615 2.755ZM84.289 64.043l-.886.214-.867.266 1.753-.48ZM95.543 28.92l2.503 5.102.208-6.408-2.711 1.305Z"/><path d="m98.803 96.345.886-.724.852-.796-1.738 1.52Zm-6.047-32.016-8.466-.287-6.548 3.15 15.014-2.863ZM81.127 38.114l-6.024 6.661-4.294 7.58 10.318-14.24Zm4.994 25.652-.925.113-.906.163 1.831-.276Zm1.908-.072-1.908.072-1.83.276 3.738-.348Zm12.512 31.131.844-.892.771-.926-1.615 1.818ZM77.914 41.317l-1.456 1.697-1.355 1.761 2.811-3.458ZM88.03 63.694l-.964.01-.944.062 1.908-.072Zm12.512 31.131 1.615-1.818 1.321-1.948-2.936 3.766ZM92.756 64.33l-4.727-.635-3.739.348 8.466.287Zm9.4 28.678.697-.957.624-.99-1.321 1.947Zm3.085-16.108L92.756 64.33l-15.014 2.863 27.499 9.707ZM81.127 38.114l-3.213 3.203-2.81 3.458 6.023-6.66Zm9.335 25.758-1.2-.124-1.233-.054 2.433.178Zm10.079 30.953 2.936-3.766 1.762-4.284-4.698 8.05ZM92.756 64.33l-2.294-.457-2.433-.178 4.727.635Zm10.721 26.73.551-1.022.477-1.055-1.028 2.078ZM81.154 47.938l.892-1.305-.919-8.519.027 9.824Zm-.027-9.824-1.657 1.57-1.556 1.633 3.213-3.203Zm11.63 26.215-1.13-.264-1.165-.193 2.294.457Zm10.72 26.73 1.028-2.077.734-2.207-1.762 4.284Zm-21.43-44.426.977-1.3-1.897-7.219.92 8.519Zm18.494 48.192 4.698-8.05.002-9.876-4.7 17.926Zm3.964-5.843.404-1.088.33-1.12-.734 2.208Zm-21.481-43.65 1.08-1.267-2.977-5.95 1.897 7.218Zm11.888 19.733-1.06-.403-1.096-.333 2.156.736Zm2.016 1.016-2.016-1.016-2.156-.736 4.172 1.752ZM84.105 44.065l1.112-1.208-4.09-4.743 2.978 5.951Zm21.134 42.71.257-1.153.184-1.184-.441 2.337ZM96.928 66.08l-.99-.543-1.026-.473 2.016 1.016Zm8.311 20.694.441-2.337.147-2.467-.588 4.804Zm-4.695-17.826-3.616-2.868-4.172-1.752 7.788 4.62Zm-15.327-26.09 1.143-1.15-5.233-3.593 4.09 4.743Zm20.463 41.58.11-1.216.037-1.25-.147 2.467Zm-20.938-49.27-1.858 1.442-1.757 1.505 3.615-2.947ZM105.241 76.9l-4.697-7.95-7.788-4.62 12.485 12.57Zm-6.436-9.523-.921-.683-.956-.612 1.877 1.295Zm6.434 19.399.588-4.804-.586-5.072-.002 9.876ZM86.36 41.708l1.175-1.09-6.408-2.504 5.233 3.594Zm14.184 27.242-1.739-1.574-1.877-1.295 3.616 2.868Zm5.283 13.021-.036-1.337-.11-1.29.146 2.627Zm-5.283-13.022-.852-.821-.887-.752 1.739 1.573Zm-13.01-28.331 1.206-1.031-7.613-1.473 6.408 2.504Zm18.293 41.353-.146-2.628-.44-2.444.586 5.072Zm-.146-2.628-.184-1.245-.256-1.2.44 2.445Zm-3.523-8.68-.77-.88-.844-.834 1.614 1.713Zm3.083 6.236-1.762-4.34-2.935-3.61 4.697 7.95Zm-1.762-4.34-1.321-1.897-1.614-1.713 2.935 3.61Zm1.762 4.34-.331-1.154-.403-1.108.734 2.262Zm-1.762-4.34-.624-.972-.697-.925 1.321 1.896Zm-14.74-32.972 1.237-.972-8.849-.5 7.613 1.472Zm.02-7.11-4.017 2.69-3.615 2.947 7.632-5.638Zm16.482 44.422-.734-2.262-1.028-2.079 1.762 4.34Zm-.734-2.262-.477-1.062-.551-1.017 1.028 2.079ZM89.976 38.615l1.267-.913-10.116.412 8.849.5Zm1.267-.913 1.298-.855-11.414 1.267 10.116-.412Zm-2.484-5.226L86.7 33.79l-1.958 1.377 4.017-2.69Zm3.782 4.371 1.33-.794-12.744 2.061 11.414-1.267Zm1.33-.794 1.359-.736-14.103 2.797 12.743-2.061Zm4.172-2.03-9.284-1.547-7.632 5.638 16.916-4.092Zm-2.813 1.294 1.391-.677-15.494 3.474 14.103-2.797Zm1.391-.677 1.422-.618-16.916 4.092 15.494-3.474Zm-3.442-4.6-2.26 1.187-2.16 1.25 4.42-2.436Zm4.864 3.982-4.864-3.981-4.42 2.435 9.284 1.546Zm0 0-2.504-5.103-2.36 1.122 4.864 3.981Z"/></g><path d="M97.42 33.788c-5.736 2.48-10.559 6.174-14.841 11.352l-.007.009c-4.22 5.335-6.188 10.42-6.188 16.011 0 2.305.362 4.541.95 6.291l.228.681.56-.451c2.949-2.38 5.672-3.454 9.525-3.454 4.99 0 9.122 1.647 12.431 4.934l.01.01.01.009c3.477 3.09 5.23 7.272 5.23 12.606 0 4.946-1.746 9.145-5.25 12.625-3.305 3.283-7.432 4.93-12.416 4.934-3.725-.225-6.78-1.12-9.36-2.676-2.58-1.557-4.716-3.795-6.576-6.748-2.374-4.342-4.413-9.83-4.413-17.056 0-9.342 1.809-17.896 6.479-25.318 4.707-7.481 11.999-13.538 21.56-18.002l2.068 4.243Z" fill="#fff"/><path d="M97.42 33.788c-5.736 2.48-10.559 6.174-14.841 11.352l-.007.009c-4.22 5.335-6.188 10.42-6.188 16.011 0 2.305.362 4.541.95 6.291l.228.681.56-.451c2.949-2.38 5.672-3.454 9.525-3.454 4.99 0 9.122 1.647 12.431 4.934l.01.01.01.009c3.477 3.09 5.23 7.272 5.23 12.606 0 4.946-1.746 9.145-5.25 12.625-3.305 3.283-7.432 4.93-12.416 4.934-3.725-.225-6.78-1.12-9.36-2.676-2.58-1.557-4.716-3.795-6.576-6.748-2.374-4.342-4.413-9.83-4.413-17.056 0-9.342 1.809-17.896 6.479-25.318 4.707-7.481 11.999-13.538 21.56-18.002l2.068 4.243Z" fill="url(#h)"/><path d="M97.42 33.788c-5.736 2.48-10.559 6.174-14.841 11.352l-.007.009c-4.22 5.335-6.188 10.42-6.188 16.011 0 2.305.362 4.541.95 6.291l.228.681.56-.451c2.949-2.38 5.672-3.454 9.525-3.454 4.99 0 9.122 1.647 12.431 4.934l.01.01.01.009c3.477 3.09 5.23 7.272 5.23 12.606 0 4.946-1.746 9.145-5.25 12.625-3.305 3.283-7.432 4.93-12.416 4.934-3.725-.225-6.78-1.12-9.36-2.676-2.58-1.557-4.716-3.795-6.576-6.748-2.374-4.342-4.413-9.83-4.413-17.056 0-9.342 1.809-17.896 6.479-25.318 4.707-7.481 11.999-13.538 21.56-18.002l2.068 4.243Z" stroke="url(#i)"/><mask id="j" style="mask-type:alpha" maskUnits="userSpaceOnUse" x="76" y="25" width="38" height="74"><path d="m103.676 25-8.126 3.91c.66 1.375 2.076 4.32 2.459 5.102-6.783 2.864-10.193 6.244-12.446 8.477l-.018.018c-2.513 2.313-5.145 6.421-5.863 7.797-1.855 3.51-1.995 4.866-2.473 6.692-1.017 5.782.319 9.481.578 10.259 1.536-1.217 4.328-2.892 7.379-3.37 8.575-.997 13.088 3.078 13.508 3.398.456.283 1.906 1.667 2.189 1.94.334.259 1.572 1.7 1.784 2.005.282.269 1.327 2.128 1.488 2.458.593 1.309.922 2.382 1.012 2.74.146.306.433 2.034.47 2.33.104.245.189 2.406.193 2.712.015.282-.042 1.718-.131 2.646-.09.927-.288 1.718-.438 2.358-.108.57-.462 1.497-.645 2.039-.155.517-.904 1.944-1.13 2.349-.202.386-.974 1.492-1.248 1.85-.197.301-1.054 1.28-1.355 1.61-.302.306-1.47 1.394-1.893 1.733-.301.27-1.11.828-1.478 1.073-.41.278-1.756 1.083-3.735 1.783 1.588-.45 4.165-1.793 4.753-2.126.25-.079 4.88-2.496 7.164-3.695 1.497-.854 3.414-2.71 4.155-3.635.078-.099 1.638-2.057 2.352-3.636 1.092-2.418 1.298-3.662 1.463-4.664l.006-.04c.236-.676.285-2.675.265-3.969.008-.972-.265-2.698-.402-3.44-.166-.81-.647-2.712-1.234-3.841-.53-1.372-1.862-3.087-2.607-3.93-.745-.843-2.352-2.42-4.047-3.508-1.647-1.146-3.617-1.803-4.773-2.146-.794-.265-2.9-.647-5.37-.618-2.548 0-4.812.824-5.36 1.05-.765.234-3.675 1.734-4.312 2.067-.236-.608-.618-3.048-.618-3.195 0-.069-.107-1.029-.107-1.195v-1.392l.077-1.617c.056-.526.189-1.674.275-2.058.617-2.97 1.353-4.468 1.618-5.174.176-.441 1.284-2.509 1.636-3.156.245-.49 1.715-2.538 2.107-3.136.147-.352 2.362-2.724 3.302-3.704.502-.627 2.366-2.175 3.234-2.871.769-.839 3.685-2.59 5.047-3.361l3.783-1.803L103.676 25Z" fill="#0098D7"/></mask><g mask="url(#j)"><ellipse cx="111.52" cy="71.104" rx="31.677" ry="34.326" transform="rotate(41.364 111.52 71.104)" fill="url(#k)"/><ellipse cx="108.45" cy="23.488" rx="31.677" ry="34.326" transform="rotate(41.364 108.45 23.488)" fill="url(#l)"/></g><defs><radialGradient id="e" cx="0" cy="0" r="1" gradientUnits="userSpaceOnUse" gradientTransform="matrix(0 34.3258 -31.6765 0 59.696 71.104)"><stop stop-color="#9ADEFC"/><stop offset="1" stop-color="#9ADEFC" stop-opacity="0"/></radialGradient><radialGradient id="f" cx="0" cy="0" r="1" gradientUnits="userSpaceOnUse" gradientTransform="matrix(0 34.3258 -31.6765 0 56.63 23.488)"><stop stop-color="#9ADEFC"/><stop offset="1" stop-color="#9ADEFC" stop-opacity="0"/></radialGradient><radialGradient id="k" cx="0" cy="0" r="1" gradientUnits="userSpaceOnUse" gradientTransform="matrix(0 34.3258 -31.6765 0 111.52 71.104)"><stop stop-color="#9ADEFC"/><stop offset="1" stop-color="#9ADEFC" stop-opacity="0"/></radialGradient><radialGradient id="l" cx="0" cy="0" r="1" gradientUnits="userSpaceOnUse" gradientTransform="matrix(0 34.3258 -31.6765 0 108.45 23.488)"><stop stop-color="#9ADEFC"/><stop offset="1" stop-color="#9ADEFC" stop-opacity="0"/></radialGradient><linearGradient id="b" x1="34.5" y1="28.886" x2="34.5" y2="99.845" gradientUnits="userSpaceOnUse"><stop stop-color="#8EDBFC"/><stop offset="1" stop-color="#44BFF3"/></linearGradient><linearGradient id="c" x1="23.39" y1="109.662" x2="19.699" y2="-23.84" gradientUnits="userSpaceOnUse"><stop stop-color="#A7E5FF"/><stop offset="1" stop-color="#00A5E9"/></linearGradient><linearGradient id="h" x1="86.32" y1="28.886" x2="86.32" y2="99.845" gradientUnits="userSpaceOnUse"><stop stop-color="#8EDBFC"/><stop offset="1" stop-color="#44BFF3"/></linearGradient><linearGradient id="i" x1="75.211" y1="109.662" x2="71.519" y2="-23.84" gradientUnits="userSpaceOnUse"><stop stop-color="#A7E5FF"/><stop offset="1" stop-color="#00A5E9"/></linearGradient><filter id="a" x=".082" y=".012" width="107" height="134.677" filterUnits="userSpaceOnUse" color-interpolation-filters="sRGB"><feFlood flood-opacity="0" result="BackgroundImageFix"/><feColorMatrix in="SourceAlpha" values="0 0 0 0 0 0 0 0 0 0 0 0 0 0 0 0 0 0 127 0" result="hardAlpha"/><feOffset dx="15" dy="5"/><feGaussianBlur stdDeviation="15"/><feColorMatrix values="0 0 0 0 0.416719 0 0 0 0 0.609525 0 0 0 0 0.7875 0 0 0 0.5 0"/><feBlend in2="BackgroundImageFix" result="effect1_dropShadow_1150_655914"/><feBlend in="SourceGraphic" in2="effect1_dropShadow_1150_655914" result="shape"/></filter><filter id="g" x="51.902" y=".013" width="107" height="134.677" filterUnits="userSpaceOnUse" color-interpolation-filters="sRGB"><feFlood flood-opacity="0" result="BackgroundImageFix"/><feColorMatrix in="SourceAlpha" values="0 0 0 0 0 0 0 0 0 0 0 0 0 0 0 0 0 0 127 0" result="hardAlpha"/><feOffset dx="15" dy="5"/><feGaussianBlur stdDeviation="15"/><feColorMatrix values="0 0 0 0 0.416719 0 0 0 0 0.609525 0 0 0 0 0.7875 0 0 0 0.5 0"/><feBlend in2="BackgroundImageFix" result="effect1_dropShadow_1150_655914"/><feBlend in="SourceGraphic" in2="effect1_dropShadow_1150_655914" result="shape"/></filter></defs></svg>