<svg width="186" height="186" fill="none" xmlns="http://www.w3.org/2000/svg"><g opacity=".4" filter="url(#a)"><circle cx="83" cy="83" r="33" fill="#fff"/><circle cx="83" cy="83" r="32.5" stroke="#000"/><circle cx="83" cy="83" r="32.5" stroke="url(#b)"/></g><g filter="url(#c)"><path d="m96.788 77.165-16.153 16.15a.364.364 0 0 1-.515 0l-9.171-9.17a.364.364 0 0 1 0-.515l2.228-2.228a.364.364 0 0 1 .515 0l5.979 5.977a1 1 0 0 0 1.414 0l12.96-12.957a.364.364 0 0 1 .515 0l2.228 2.228a.363.363 0 0 1 0 .515Z" fill="url(#d)"/><path d="m97.212 77.589-17.516 16.15a.964.964 0 0 0 1.363 0l16.153-16.15Zm-26.687 6.98 9.17 9.17L96.789 76.65l.424-.424-2.228-2.228a.964.964 0 0 0-1.362-.001h-.001l-12.96 12.958a.4.4 0 0 1-.566 0l-5.979-5.977a.964.964 0 0 0-1.362 0h-.001l-2.229 2.228a.964.964 0 0 0 0 1.363Z" stroke="url(#e)" stroke-width="1.2"/></g><defs><linearGradient id="b" x1="76.061" y1="23.492" x2="125.361" y2="76.892" gradientUnits="userSpaceOnUse"><stop stop-color="#DCD4FD"/><stop offset="1" stop-color="#EBECFA"/></linearGradient><linearGradient id="d" x1="93.421" y1="74.316" x2="82.132" y2="98.632" gradientUnits="userSpaceOnUse"><stop stop-color="#47BF0E"/><stop offset=".818" stop-color="#8CE363"/><stop offset="1" stop-color="#9CEB75"/></linearGradient><linearGradient id="e" x1="106.447" y1="62.158" x2="82.132" y2="98.632" gradientUnits="userSpaceOnUse"><stop stop-color="#9CEB75"/><stop offset="1" stop-color="#47BF0E"/></linearGradient><filter id="a" x="0" y="0" width="186" height="186" filterUnits="userSpaceOnUse" color-interpolation-filters="sRGB"><feFlood flood-opacity="0" result="BackgroundImageFix"/><feColorMatrix in="SourceAlpha" values="0 0 0 0 0 0 0 0 0 0 0 0 0 0 0 0 0 0 127 0" result="hardAlpha"/><feOffset dx="10" dy="10"/><feGaussianBlur stdDeviation="30"/><feColorMatrix values="0 0 0 0 0.481562 0 0 0 0 0.688006 0 0 0 0 0.8375 0 0 0 0.3 0"/><feBlend in2="BackgroundImageFix" result="effect1_dropShadow_1131_56975"/><feBlend in="SourceGraphic" in2="effect1_dropShadow_1131_56975" result="shape"/></filter><filter id="c" x="65.642" y="73.116" width="36.453" height="29.505" filterUnits="userSpaceOnUse" color-interpolation-filters="sRGB"><feFlood flood-opacity="0" result="BackgroundImageFix"/><feColorMatrix in="SourceAlpha" values="0 0 0 0 0 0 0 0 0 0 0 0 0 0 0 0 0 0 127 0" result="hardAlpha"/><feOffset dy="4"/><feGaussianBlur stdDeviation="2"/><feColorMatrix values="0 0 0 0 0 0 0 0 0 0 0 0 0 0 0 0 0 0 0.08 0"/><feBlend in2="BackgroundImageFix" result="effect1_dropShadow_1131_56975"/><feBlend in="SourceGraphic" in2="effect1_dropShadow_1131_56975" result="shape"/></filter></defs></svg>