<svg width="66" height="67" fill="none" xmlns="http://www.w3.org/2000/svg"><g filter="url(#a)"><path d="m46.788 27.665-16.153 16.15a.364.364 0 0 1-.515 0l-9.172-9.17a.364.364 0 0 1 0-.515l2.229-2.228a.364.364 0 0 1 .515 0l5.979 5.977a1 1 0 0 0 1.414 0l12.96-12.957a.364.364 0 0 1 .514 0l2.229 2.228a.363.363 0 0 1 0 .515Z" fill="url(#b)"/><path d="m47.212 28.089-17.516 16.15a.964.964 0 0 0 1.363 0l16.153-16.15Zm-26.688 6.98 9.171 9.17L46.788 27.15l.424-.424-2.228-2.228a.964.964 0 0 0-1.362-.001h-.001L30.66 37.456a.4.4 0 0 1-.566 0l-5.98-5.977a.964.964 0 0 0-1.362 0l-2.229 2.228a.964.964 0 0 0 0 1.363Z" stroke="url(#c)" stroke-width="1.2"/></g><defs><linearGradient id="b" x1="43.421" y1="24.816" x2="32.131" y2="49.132" gradientUnits="userSpaceOnUse"><stop stop-color="#47BF0E"/><stop offset=".818" stop-color="#8CE363"/><stop offset="1" stop-color="#9CEB75"/></linearGradient><linearGradient id="c" x1="56.447" y1="12.658" x2="32.131" y2="49.132" gradientUnits="userSpaceOnUse"><stop stop-color="#9CEB75"/><stop offset="1" stop-color="#47BF0E"/></linearGradient><filter id="a" x="15.642" y="23.616" width="36.453" height="29.505" filterUnits="userSpaceOnUse" color-interpolation-filters="sRGB"><feFlood flood-opacity="0" result="BackgroundImageFix"/><feColorMatrix in="SourceAlpha" values="0 0 0 0 0 0 0 0 0 0 0 0 0 0 0 0 0 0 127 0" result="hardAlpha"/><feOffset dy="4"/><feGaussianBlur stdDeviation="2"/><feColorMatrix values="0 0 0 0 0 0 0 0 0 0 0 0 0 0 0 0 0 0 0.08 0"/><feBlend in2="BackgroundImageFix" result="effect1_dropShadow_1332_3720"/><feBlend in="SourceGraphic" in2="effect1_dropShadow_1332_3720" result="shape"/></filter></defs></svg>