<svg width="66" height="66" fill="none" xmlns="http://www.w3.org/2000/svg"><circle cx="33" cy="33" r="33" fill="#F8F8F8"/><g clip-path="url(#a)" filter="url(#b)"><path d="M22.241 25.139H43.76a1.24 1.24 0 0 1 1.241 1.241v15.724c0 .686-.556 1.242-1.241 1.242H22.24A1.241 1.241 0 0 1 21 42.104V26.38a1.24 1.24 0 0 1 1.241-1.241Z" fill="#4398D1"/><path d="M43.758 25.139h-.52c-6.154 8.714-16.176 14.445-22.184 17.305.15.53.635.899 1.187.902h21.517c.686 0 1.242-.556 1.242-1.242V26.38c0-.686-.556-1.241-1.242-1.241Z" fill="#3E8CC7"/><path d="M33 40.862a6.62 6.62 0 1 0 0-13.24 6.62 6.62 0 0 0 0 13.24Z" fill="#fff"/><path d="M37.552 25.138v-2.483c0-.914-.741-1.655-1.655-1.655h-5.794c-.914 0-1.655.741-1.655 1.655v2.483h1.655v-2.069c0-.229.186-.414.414-.414h4.966c.228 0 .414.185.414.414v2.069h1.655Z" fill="#215280"/><path d="M36.724 33h-2.483v-2.482H31.76V33h-2.483v2.483h2.483v2.483h2.482v-2.483h2.483V33Z" fill="#FF7872"/><path d="M24.062 23.482h2.151c.32 0 .58.26.58.58v1.076h-3.31v-1.076c0-.32.259-.58.579-.58Zm15.724 0h2.152c.32 0 .579.26.579.58v1.076h-3.31v-1.076c0-.32.259-.58.579-.58Z" fill="#D1D1D1"/><path d="M25.966 43.346h-3.31V45h3.31v-1.655Zm17.379 0h-3.31V45h3.31v-1.655Z" fill="#215280"/></g><defs><clipPath id="a"><path fill="#fff" transform="translate(21 21)" d="M0 0h24v24H0z"/></clipPath><filter id="b" x="9" y="13" width="48" height="48" filterUnits="userSpaceOnUse" color-interpolation-filters="sRGB"><feFlood flood-opacity="0" result="BackgroundImageFix"/><feColorMatrix in="SourceAlpha" values="0 0 0 0 0 0 0 0 0 0 0 0 0 0 0 0 0 0 127 0" result="hardAlpha"/><feOffset dy="4"/><feGaussianBlur stdDeviation="6"/><feColorMatrix values="0 0 0 0 0 0 0 0 0 0 0 0 0 0 0 0 0 0 0.2 0"/><feBlend in2="BackgroundImageFix" result="effect1_dropShadow_1103_14770"/><feBlend in="SourceGraphic" in2="effect1_dropShadow_1103_14770" result="shape"/></filter></defs></svg>