<svg width="61" height="62" fill="none" xmlns="http://www.w3.org/2000/svg"><g clip-path="url(#a)" filter="url(#b)"><path d="M30.498 45.5c10.218 0 18.5-8.283 18.5-18.5s-8.282-18.5-18.5-18.5c-10.217 0-18.5 8.283-18.5 18.5s8.283 18.5 18.5 18.5Z" fill="#6AA9FF"/><path d="M48.998 27c0-10.161-8.338-18.5-18.5-18.5v37c10.162 0 18.5-8.339 18.5-18.5Z" fill="#4895FF"/><path d="M30.498 43.332c9.02 0 16.333-7.312 16.333-16.332s-7.313-16.332-16.333-16.332S14.166 17.98 14.166 27s7.313 16.332 16.332 16.332Z" fill="#EDF5FF"/><path d="M46.83 27c0-8.966-7.365-16.332-16.331-16.332v32.664c8.966 0 16.332-7.366 16.332-16.332Z" fill="#D5E8FE"/><path d="M21.3 37.282a1.084 1.084 0 1 0 0-2.168 1.084 1.084 0 0 0 0 2.168Z" fill="#47568C"/><path d="M39.697 18.886a1.084 1.084 0 1 0 0-2.168 1.084 1.084 0 0 0 0 2.168Z" fill="#29376D"/><path d="M21.3 18.886a1.084 1.084 0 1 0 0-2.168 1.084 1.084 0 0 0 0 2.168Z" fill="#47568C"/><path d="M39.697 37.282a1.084 1.084 0 1 0 0-2.168 1.084 1.084 0 0 0 0 2.168Z" fill="#29376D"/><path d="M19.659 28.084H17.49a1.083 1.083 0 1 1 0-2.168h2.168a1.083 1.083 0 1 1 0 2.168Z" fill="#47568C"/><path d="M43.506 28.084h-2.168a1.083 1.083 0 1 1 0-2.168h2.168a1.083 1.083 0 1 1 0 2.168Z" fill="#29376D"/><path d="M29.415 13.992v2.168c0 .6.484 1.084 1.084 1.084v-4.336c-.6 0-1.084.485-1.084 1.084Z" fill="#47568C"/><path d="M31.582 16.16v-2.168c0-.599-.484-1.084-1.084-1.084v4.336c.6 0 1.084-.485 1.084-1.084Z" fill="#FF7B4A"/><path d="M30.498 36.756c-.599 0-1.083.485-1.083 1.084v2.168a1.083 1.083 0 1 0 2.168 0V37.84c0-.6-.485-1.084-1.084-1.084Zm7.27-4.019-6.186-6.186v-6.055a1.083 1.083 0 1 0-2.167 0V27c0 .288.114.563.317.766l.767.767 5.737 5.737a1.084 1.084 0 1 0 1.533-1.533Z" fill="#47568C"/><path d="M31.582 16.16v-2.168c0-.599-.484-1.084-1.084-1.084v4.336c.6 0 1.084-.485 1.084-1.084Zm0 23.848V37.84c0-.6-.484-1.084-1.084-1.084v4.336c.6 0 1.084-.485 1.084-1.084Zm6.187-5.738a1.084 1.084 0 0 0 0-1.533l-6.186-6.186v-6.055c0-.6-.485-1.084-1.084-1.084v9.12l5.737 5.738c.424.424 1.11.424 1.533 0Z" fill="#29376D"/></g><defs><clipPath id="a"><path fill="#fff" transform="translate(11.998 8.5)" d="M0 0h37v37H0z"/></clipPath><filter id="b" x="-.001" y=".5" width="61" height="61" filterUnits="userSpaceOnUse" color-interpolation-filters="sRGB"><feFlood flood-opacity="0" result="BackgroundImageFix"/><feColorMatrix in="SourceAlpha" values="0 0 0 0 0 0 0 0 0 0 0 0 0 0 0 0 0 0 127 0" result="hardAlpha"/><feOffset dy="4"/><feGaussianBlur stdDeviation="6"/><feColorMatrix values="0 0 0 0 0 0 0 0 0 0 0 0 0 0 0 0 0 0 0.2 0"/><feBlend in2="BackgroundImageFix" result="effect1_dropShadow_1301_211826"/><feBlend in="SourceGraphic" in2="effect1_dropShadow_1301_211826" result="shape"/></filter></defs></svg>