<svg width="36" height="23" fill="none" xmlns="http://www.w3.org/2000/svg"><g clip-path="url(#a)" fill="#A0A3CF"><path d="M.229 10.802C.55 10.362 8.213.059 18 .059S35.45 10.363 35.772 10.8c.304.416.304.981 0 1.397-.322.44-7.985 10.743-17.772 10.743C8.213 22.941.55 12.637.23 12.2a1.18 1.18 0 0 1 0-1.397ZM18 20.574c7.21 0 13.453-6.839 15.301-9.075-1.846-2.238-8.076-9.073-15.3-9.073-7.21 0-13.453 6.838-15.302 9.075 1.846 2.238 8.077 9.073 15.301 9.073Z"/><path d="M18 4.398c3.927 0 7.121 3.186 7.121 7.102 0 3.916-3.194 7.102-7.12 7.102-3.927 0-7.122-3.186-7.122-7.102 0-3.916 3.195-7.102 7.121-7.102Zm0 11.836c2.618 0 4.747-2.123 4.747-4.734 0-2.61-2.13-4.734-4.747-4.734s-4.747 2.123-4.747 4.734c0 2.61 2.13 4.734 4.747 4.734Z"/></g><defs><clipPath id="a"><path fill="#fff" transform="matrix(-1 0 0 1 36 0)" d="M0 0h36v23H0z"/></clipPath></defs></svg>