<svg width="86" height="86" fill="none" xmlns="http://www.w3.org/2000/svg"><path d="M39.113.5C17.547.5 0 19.433 0 42.707 0 65.98 17.547 84.913 39.113 84.913c21.569 0 39.114-18.933 39.114-42.206C78.227 19.433 60.682.5 39.113.5Z" fill="url(#a)"/><path d="M86 43.293C86 66.567 68.455 85.5 46.886 85.5l-7.773-.587c21.569 0 39.114-18.933 39.114-42.206l7.773.586Z" fill="url(#b)"/><path d="M46.886 1.087C68.456 1.087 86 20.02 86 43.293l-7.773-.586c0-21.264-14.646-38.905-33.625-41.793L39.112.5c1.863 0 3.696.141 5.49.414l2.284.173Z" fill="url(#c)"/><path d="M7.773 43.293c0 21.264 14.648 38.905 33.626 41.793l5.487.414c-1.862 0-3.694-.141-5.488-.414l-2.285-.172C17.547 84.913 0 65.98 0 42.706l7.773.586Z" fill="url(#d)"/><path d="M7.773 43.293c0-23.273 17.548-42.206 39.113-42.206L39.113.5C17.547.5 0 19.433 0 42.707l7.773.586Z" fill="url(#e)"/><path d="M61.52 40.238H44.758V16.32c0-.746-.274-1.462-.763-1.99a2.515 2.515 0 0 0-1.843-.824c-.692 0-1.354.297-1.843.825a2.932 2.932 0 0 0-.763 1.989v29.544h21.976a2.525 2.525 0 0 0 1.789-.856c.47-.525.733-1.227.733-1.957s-.263-1.433-.733-1.958a2.525 2.525 0 0 0-1.79-.855Z" fill="url(#f)"/><path d="M68.78 43.05c0 .731-.263 1.433-.734 1.958H63.31c.47-.525.733-1.227.733-1.957h4.737Z" fill="url(#g)"/><path d="M68.046 41.093a2.94 2.94 0 0 1 .734 1.958h-4.737c0-.73-.263-1.433-.733-1.958h4.736Z" fill="url(#h)"/><path d="M68.046 45.008a2.525 2.525 0 0 1-1.789.856h-4.736a2.525 2.525 0 0 0 1.789-.856h4.736Z" fill="url(#i)"/><path d="M66.257 40.238c.677.024 1.318.33 1.79.855H63.31a2.525 2.525 0 0 0-1.79-.855h4.737Z" fill="url(#j)"/><path d="M49.494 16.32v23.918h-4.736V16.32h4.736Z" fill="url(#k)"/><path d="M48.73 14.33c.49.528.764 1.244.764 1.99h-4.736c0-.746-.275-1.462-.764-1.99h4.737Z" fill="url(#l)"/><path d="M46.887 13.506c.692 0 1.355.297 1.844.825h-4.737a2.515 2.515 0 0 0-1.843-.825h4.736Z" fill="url(#m)"/><path d="M46.886 1.086c-21.565 0-39.113 18.933-39.113 42.207 0 23.273 17.548 42.206 39.113 42.206C68.456 85.5 86 66.566 86 43.293 86 20.019 68.456 1.086 46.886 1.086Z" fill="url(#n)"/><path d="M12.44 43.293c0-20.612 15.526-37.25 34.447-37.25 18.925 0 34.448 16.638 34.448 37.25s-15.523 37.25-34.448 37.25c-18.921 0-34.447-16.638-34.447-37.25Z" stroke="url(#o)" stroke-width="2"/><path d="M59.743 41.36a2.435 2.435 0 0 0-.698-.128H42.28V17.314a2.93 2.93 0 0 0-.763-1.99 2.58 2.58 0 0 0-1.061-.694 2.433 2.433 0 0 0-.782-.13c-.691 0-1.354.298-1.843.825a2.931 2.931 0 0 0-.763 1.99v29.543h21.976a2.525 2.525 0 0 0 1.788-.856c.471-.525.734-1.227.734-1.957s-.263-1.432-.733-1.957a2.585 2.585 0 0 0-1.091-.727Z" fill="#00AEF6"/><path d="M71.256 47.336c0 .73-.263 1.432-.734 1.957l-9.689-3.29a2.939 2.939 0 0 0 .734-1.958l9.689 3.29Z" fill="#00AEF6"/><path d="M70.522 45.379c.47.524.734 1.226.734 1.957l-9.689-3.291c0-.73-.263-1.432-.733-1.957l9.688 3.29Zm0 3.914a2.525 2.525 0 0 1-1.789.856l-9.688-3.291a2.525 2.525 0 0 0 1.788-.856l9.689 3.29Z" fill="#00AEF6"/><path d="M69.431 44.651c.41.14.787.388 1.09.727l-9.688-3.29a2.585 2.585 0 0 0-1.09-.727l9.688 3.29Z" fill="#00AEF6"/><path d="M68.733 44.523c.239.008.473.052.697.128l-9.687-3.29a2.435 2.435 0 0 0-.698-.129l9.688 3.29Zm-16.763 0h16.763l-9.688-3.29H42.28l9.69 3.29Zm16.763 5.626H46.758l-9.689-3.291h21.976l9.688 3.29Z" fill="#00AEF6"/><path d="M51.97 20.605v23.918l-9.688-3.29v-23.92l9.688 3.291Z" fill="#00AEF6"/><path d="M51.206 18.616c.49.527.764 1.243.764 1.99l-9.688-3.292a2.93 2.93 0 0 0-.764-1.99l9.688 3.292Zm-4.448 31.532V20.605l-9.689-3.29v29.543l9.689 3.29Z" fill="#00AEF6"/><path d="M50.146 17.92a2.58 2.58 0 0 1 1.06.696l-9.688-3.291a2.58 2.58 0 0 0-1.061-.695l9.689 3.29Z" fill="#00AEF6"/><path d="M49.363 17.79c.268.001.53.046.781.13l-9.687-3.29a2.433 2.433 0 0 0-.782-.13l9.688 3.29Zm-1.843.826a2.516 2.516 0 0 1 1.843-.825L39.675 14.5c-.691 0-1.354.298-1.843.825l9.689 3.291Z" fill="#00AEF6"/><path d="M46.758 20.605c0-.746.274-1.461.763-1.989l-9.689-3.29a2.931 2.931 0 0 0-.763 1.988l9.689 3.291Z" fill="#00AEF6"/><path d="M68.733 44.523H51.97V20.605c0-.746-.275-1.461-.764-1.99a2.515 2.515 0 0 0-1.843-.824c-.691 0-1.354.298-1.842.825a2.931 2.931 0 0 0-.763 1.99v29.543h21.975a2.525 2.525 0 0 0 1.789-.856c.47-.525.734-1.227.734-1.957s-.263-1.432-.734-1.957a2.524 2.524 0 0 0-1.789-.856Z" fill="#fff"/><defs><linearGradient id="a" x1="39.248" y1=".427" x2="43.615" y2="85.468" gradientUnits="userSpaceOnUse"><stop offset=".065" stop-color="#87D5F7"/><stop offset=".438" stop-color="#11A8E8"/><stop offset=".804" stop-color="#6ECEF7"/></linearGradient><linearGradient id="b" x1="39.248" y1=".427" x2="43.615" y2="85.468" gradientUnits="userSpaceOnUse"><stop offset=".065" stop-color="#87D5F7"/><stop offset=".438" stop-color="#11A8E8"/><stop offset=".804" stop-color="#6ECEF7"/></linearGradient><linearGradient id="c" x1="39.248" y1=".427" x2="43.615" y2="85.468" gradientUnits="userSpaceOnUse"><stop offset=".065" stop-color="#87D5F7"/><stop offset=".438" stop-color="#11A8E8"/><stop offset=".804" stop-color="#6ECEF7"/></linearGradient><linearGradient id="d" x1="39.248" y1=".427" x2="43.615" y2="85.468" gradientUnits="userSpaceOnUse"><stop offset=".065" stop-color="#87D5F7"/><stop offset=".438" stop-color="#11A8E8"/><stop offset=".804" stop-color="#6ECEF7"/></linearGradient><linearGradient id="e" x1="39.248" y1=".427" x2="43.615" y2="85.468" gradientUnits="userSpaceOnUse"><stop offset=".065" stop-color="#87D5F7"/><stop offset=".438" stop-color="#11A8E8"/><stop offset=".804" stop-color="#6ECEF7"/></linearGradient><linearGradient id="f" x1="39.248" y1=".427" x2="43.615" y2="85.468" gradientUnits="userSpaceOnUse"><stop offset=".065" stop-color="#87D5F7"/><stop offset=".438" stop-color="#11A8E8"/><stop offset=".804" stop-color="#6ECEF7"/></linearGradient><linearGradient id="g" x1="39.248" y1=".427" x2="43.615" y2="85.468" gradientUnits="userSpaceOnUse"><stop offset=".065" stop-color="#87D5F7"/><stop offset=".438" stop-color="#11A8E8"/><stop offset=".804" stop-color="#6ECEF7"/></linearGradient><linearGradient id="h" x1="39.248" y1=".427" x2="43.615" y2="85.468" gradientUnits="userSpaceOnUse"><stop offset=".065" stop-color="#87D5F7"/><stop offset=".438" stop-color="#11A8E8"/><stop offset=".804" stop-color="#6ECEF7"/></linearGradient><linearGradient id="i" x1="39.248" y1=".427" x2="43.615" y2="85.468" gradientUnits="userSpaceOnUse"><stop offset=".065" stop-color="#87D5F7"/><stop offset=".438" stop-color="#11A8E8"/><stop offset=".804" stop-color="#6ECEF7"/></linearGradient><linearGradient id="j" x1="39.248" y1=".427" x2="43.615" y2="85.468" gradientUnits="userSpaceOnUse"><stop offset=".065" stop-color="#87D5F7"/><stop offset=".438" stop-color="#11A8E8"/><stop offset=".804" stop-color="#6ECEF7"/></linearGradient><linearGradient id="k" x1="39.248" y1=".427" x2="43.615" y2="85.468" gradientUnits="userSpaceOnUse"><stop offset=".065" stop-color="#87D5F7"/><stop offset=".438" stop-color="#11A8E8"/><stop offset=".804" stop-color="#6ECEF7"/></linearGradient><linearGradient id="l" x1="39.248" y1=".427" x2="43.615" y2="85.468" gradientUnits="userSpaceOnUse"><stop offset=".065" stop-color="#87D5F7"/><stop offset=".438" stop-color="#11A8E8"/><stop offset=".804" stop-color="#6ECEF7"/></linearGradient><linearGradient id="m" x1="39.248" y1=".427" x2="43.615" y2="85.468" gradientUnits="userSpaceOnUse"><stop offset=".065" stop-color="#87D5F7"/><stop offset=".438" stop-color="#11A8E8"/><stop offset=".804" stop-color="#6ECEF7"/></linearGradient><linearGradient id="n" x1="18.774" y1="9" x2="75.742" y2="79.858" gradientUnits="userSpaceOnUse"><stop stop-color="#04B5FF"/><stop offset="1" stop-color="#92DCFC"/></linearGradient><linearGradient id="o" x1="36.651" y1="7.021" x2="48.528" y2="81.28" gradientUnits="userSpaceOnUse"><stop stop-color="#00A1E4"/><stop offset="1" stop-color="#A7E4FE"/></linearGradient></defs></svg>