<svg xmlns="http://www.w3.org/2000/svg" width="343" height="149" fill="none"><g filter="url(#a)"><mask id="c" maskUnits="userSpaceOnUse" x="0" y="0" width="343" height="149" fill="#000"><path fill="#fff" d="M0 0h343v149H0z"/><path fill-rule="evenodd" clip-rule="evenodd" d="M8.23 17.068C2 26.06 2 38.707 2 64c0 25.293 0 37.94 6.23 46.932a35.01 35.01 0 0 0 8.838 8.838C26.06 126 38.707 126 64 126h88l19.5 19.5L191 126h88c25.293 0 37.94 0 46.932-6.23a35.018 35.018 0 0 0 8.838-8.838C341 101.94 341 89.293 341 64c0-25.293 0-37.94-6.23-46.932a35.01 35.01 0 0 0-8.838-8.838C316.94 2 304.293 2 279 2H64C38.707 2 26.06 2 17.068 8.23a35.002 35.002 0 0 0-8.838 8.838Z"/></mask><path fill-rule="evenodd" clip-rule="evenodd" d="M8.23 17.068C2 26.06 2 38.707 2 64c0 25.293 0 37.94 6.23 46.932a35.01 35.01 0 0 0 8.838 8.838C26.06 126 38.707 126 64 126h88l19.5 19.5L191 126h88c25.293 0 37.94 0 46.932-6.23a35.018 35.018 0 0 0 8.838-8.838C341 101.94 341 89.293 341 64c0-25.293 0-37.94-6.23-46.932a35.01 35.01 0 0 0-8.838-8.838C316.94 2 304.293 2 279 2H64C38.707 2 26.06 2 17.068 8.23a35.002 35.002 0 0 0-8.838 8.838Z" fill="url(#b)" fill-opacity=".4"/><path d="m8.23 17.068 1.644 1.139-1.644-1.139Zm0 93.864-1.644 1.139 1.644-1.139Zm8.838 8.838 1.139-1.644-1.139 1.644ZM152 126l1.414-1.414-.586-.586H152v2Zm19.5 19.5-1.414 1.414 1.414 1.414 1.414-1.414-1.414-1.414ZM191 126v-2h-.828l-.586.586L191 126Zm134.932-6.23-1.139-1.644 1.139 1.644Zm8.838-8.838 1.644 1.139-1.644-1.139Zm0-93.864 1.644-1.139-1.644 1.139Zm-8.838-8.838-1.139 1.644 1.139-1.644Zm-308.864 0 1.139 1.644-1.139-1.644ZM4 64c0-12.69.003-22.052.768-29.37.762-7.285 2.261-12.317 5.106-16.423l-3.288-2.278C3.2 20.815 1.586 26.603.79 34.213-.003 41.79 0 51.396 0 64h4Zm5.874 45.793c-2.845-4.106-4.344-9.138-5.106-16.422C4.003 86.05 4 76.689 4 64H0c0 12.604-.003 22.211.79 29.787.795 7.61 2.41 13.398 5.796 18.284l3.288-2.278Zm8.333 8.333a32.999 32.999 0 0 1-8.333-8.333l-3.288 2.278a36.986 36.986 0 0 0 9.343 9.343l2.278-3.288ZM64 124c-12.69 0-22.052-.003-29.37-.768-7.285-.762-12.317-2.261-16.423-5.106l-2.278 3.288c4.886 3.385 10.674 5.001 18.284 5.796 7.576.793 17.183.79 29.787.79v-4Zm88 0H64v4h88v-4Zm20.914 20.086-19.5-19.5-2.828 2.828 19.5 19.5 2.828-2.828Zm16.672-19.5-19.5 19.5 2.828 2.828 19.5-19.5-2.828-2.828ZM279 124h-88v4h88v-4Zm45.793-5.874c-4.106 2.845-9.138 4.344-16.422 5.106-7.319.765-16.682.768-29.371.768v4c12.604 0 22.211.003 29.787-.79 7.61-.795 13.398-2.411 18.284-5.796l-2.278-3.288Zm8.333-8.333a32.999 32.999 0 0 1-8.333 8.333l2.278 3.288a36.973 36.973 0 0 0 9.343-9.343l-3.288-2.278ZM339 64c0 12.69-.003 22.052-.768 29.37-.762 7.285-2.261 12.317-5.106 16.423l3.288 2.278c3.385-4.886 5.001-10.674 5.796-18.284.793-7.576.79-17.183.79-29.787h-4Zm-5.874-45.793c2.845 4.106 4.344 9.138 5.106 16.422.765 7.32.768 16.682.768 29.371h4c0-12.604.003-22.211-.79-29.787-.795-7.61-2.411-13.398-5.796-18.284l-3.288 2.278Zm-8.333-8.333a32.999 32.999 0 0 1 8.333 8.333l3.288-2.278a36.986 36.986 0 0 0-9.343-9.343l-2.278 3.288ZM279 4c12.689 0 22.052.003 29.371.768 7.284.762 12.316 2.261 16.422 5.106l2.278-3.288c-4.886-3.385-10.674-5-18.284-5.796C301.211-.003 291.604 0 279 0v4ZM64 4h215V0H64v4ZM18.207 9.874c4.106-2.845 9.138-4.344 16.422-5.106C41.95 4.003 51.311 4 64 4V0C51.396 0 41.789-.003 34.213.79c-7.61.795-13.398 2.41-18.284 5.796l2.278 3.288Zm-8.333 8.333a32.999 32.999 0 0 1 8.333-8.333l-2.278-3.288a36.999 36.999 0 0 0-9.343 9.343l3.288 2.278Z" fill="#fff" mask="url(#c)"/></g><defs><linearGradient id="b" x1="66.204" y1="-11" x2="79.621" y2="134.473" gradientUnits="userSpaceOnUse"><stop stop-color="#F0F4FA"/><stop offset="1" stop-color="#F3F5F8"/></linearGradient><filter id="a" x="-15" y="-15" width="373" height="178.328" filterUnits="userSpaceOnUse" color-interpolation-filters="sRGB"><feFlood flood-opacity="0" result="BackgroundImageFix"/><feGaussianBlur in="BackgroundImageFix" stdDeviation="7.5"/><feComposite in2="SourceAlpha" operator="in" result="effect1_backgroundBlur_1171_91118"/><feBlend in="SourceGraphic" in2="effect1_backgroundBlur_1171_91118" result="shape"/></filter></defs></svg>