<svg width="831" height="341" fill="none" xmlns="http://www.w3.org/2000/svg"><path d="M232.139 881.681c-158.248-276.85-112.432-434.743 49.827-568.372 162.259-133.629 117.175-383.9-25.121-565.172-142.295-181.273-294.63 449.345-456.89 582.974-162.259 133.629 289.889 369.297 432.184 550.57Z" fill="url(#a)"/><path d="M168.984 805.249c-138.633-283.48-85.293-430.954 80.009-542.878 165.302-111.923 135.313-357.963 6.902-547.614-128.41-189.652-311.62 402.552-476.922 514.476-165.302 111.923 261.6 386.365 390.011 576.016Z" fill="url(#b)"/><defs><radialGradient id="a" cx="0" cy="0" r="1" gradientUnits="userSpaceOnUse" gradientTransform="rotate(105.839 185.775 155.752) scale(809.62 881.577)"><stop stop-color="#F1EFFF"/><stop offset="1" stop-color="#EDF8FF"/></radialGradient><radialGradient id="b" cx="0" cy="0" r="1" gradientUnits="userSpaceOnUse" gradientTransform="rotate(-155.862 149.97 90.588) scale(431.182 410.678)"><stop stop-color="#F8F8FF"/><stop offset="1" stop-color="#F3F4FC"/></radialGradient></defs></svg>