<svg width="375" height="208" fill="none" xmlns="http://www.w3.org/2000/svg"><path d="M143.588 768.874c-128.39-238.812-73.761-385.479 88.498-519.108 162.259-133.629 138.25-357.051 17.841-510.442C129.518-414.067-59.862 169.36-222.121 302.989c-162.259 133.629 245.3 312.494 365.709 465.885Z" fill="url(#a)"/><path d="M84.352 680.255C-25.743 438.922 36.02 303.886 201.321 191.963c165.302-111.924 155.455-328.214 47.963-486.971-107.492-158.757-326.107 381.156-491.41 493.08C-407.428 309.995-23.14 521.498 84.352 680.255Z" fill="url(#b)"/><defs><radialGradient id="a" cx="0" cy="0" r="1" gradientUnits="userSpaceOnUse" gradientTransform="rotate(110.109 184.43 110.581) scale(770.06 784.303)"><stop stop-color="#F1EFFF"/><stop offset="1" stop-color="#EDF8FF"/></radialGradient><radialGradient id="b" cx="0" cy="0" r="1" gradientUnits="userSpaceOnUse" gradientTransform="rotate(-160.586 116.388 66.147) scale(381.7 388.345)"><stop stop-color="#F8F8FF"/><stop offset="1" stop-color="#F3F4FC"/></radialGradient></defs></svg>