<svg width="77" height="85" fill="none" xmlns="http://www.w3.org/2000/svg"><path d="m2.551 43.794.59 5.308 1.106 5.113-1.696-10.42Zm.483-10.826-.524 5.374.041 5.452.483-10.826ZM2.55 43.794l1.696 10.421 3.62 9.435L2.55 43.794Zm1.696 10.421 1.587 4.867 2.034 4.568-3.62-9.435Zm1.388-31.07-2.601 9.823-.483 10.826 3.084-20.648Zm0 0L4.088 27.89l-1.054 5.079 2.6-9.822ZM7.868 63.65l2.447 4.218 2.826 3.816-5.273-8.034ZM2.55 43.794 7.868 63.65 19.8 77.897 2.55 43.794ZM15.988 8.371 5.635 23.146 2.55 43.794 15.988 8.371Zm-5.934 6.463L7.636 18.78l-2.001 4.366 4.419-8.312ZM7.868 63.65l5.273 8.034 6.659 6.213L7.868 63.65Zm8.12-55.28L2.55 43.795 19.8 77.897 15.988 8.37ZM13.14 71.685l3.173 3.36 3.486 2.853-6.659-6.213ZM15.988 8.37l-5.934 6.463-4.42 8.312L15.989 8.37Zm0 0-3.138 2.98-2.796 3.484 5.934-6.463ZM19.8 77.897l3.764 2.29 4.01 1.675-7.774-3.965ZM23.133 4.1l-3.705 1.84-3.44 2.43 7.145-4.269ZM19.8 77.897l7.775 3.965 8.485 1.279-16.26-5.244Zm27.744 3.994 1.808-.205 3.94-1.136-5.748 1.341ZM38.583 1.774l4.254.202-2.442-.365-1.812.163Zm4.254.202 1.812-.163-4.254-.202 2.442.365Z" fill="#00A2E5"/><path d="M31.196 2.394 23.158 4.12l-7.133 4.269 15.171-5.994Zm-3.603 79.468 4.215 1.004 4.255.275-8.47-1.279Zm23.899-1.102-3.946 1.136 5.757-1.34-1.81.204Zm-5.759 1.341 1.813-.205 3.947-1.136-5.76 1.341Zm-8.978-80.17 4.261.203-2.444-.365-1.817.163Zm4.261.203 1.817-.163-4.26-.202 2.443.365ZM51.493 80.76l1.81-.205 3.731-1.779-5.541 1.984Zm-8.66-78.79 4.235.937-2.42-1.1-1.815.164Zm6.847 78.995-3.947 1.136 5.76-1.341-1.813.205ZM47.068 2.907l1.814-.164-4.234-.935 2.42 1.099Zm-3.15 79.4 1.815-.206 3.947-1.136-5.762 1.342ZM34.936 2.095l4.262.202-2.443-.365-1.82.163Z" fill="#00A2E5"/><path d="m31.153 2.404-4.133.525-3.944 1.207 8.077-1.732Zm8.049-.105 1.819-.163-4.261-.202 2.442.365ZM55.226 78.98l-3.731 1.78 5.54-1.984-1.809.204Zm-35.357-1.093 16.311 5.271 15.353-5.791-31.665.52Z" fill="#00A2E5"/><path d="m49.687 80.968 1.814-.205 3.734-1.78-5.548 1.985Zm-8.67-78.839 4.238.937-2.42-1.1-1.818.163Zm6.854 79.044-3.95 1.137 5.766-1.342-1.816.205ZM45.255 3.066l1.818-.164-4.238-.936 2.42 1.1Zm-3.152 79.45 1.818-.206 3.95-1.137-5.768 1.343ZM33.109 2.254l4.266.202-2.443-.366-1.823.164Zm22.126 76.729 1.811-.204 3.48-2.382-5.29 2.586ZM16.028 8.385l3.817 69.552L65.21 41.763 16.028 8.385Z" fill="#00A2E5"/><path d="m37.374 2.459 1.82-.164-4.261-.202 2.44.366Zm9.688.446 4.035 1.616-2.221-1.78-1.814.164Zm6.344 76.276-3.732 1.78 5.543-1.984-1.811.204ZM51.097 4.52l1.813-.164-4.034-1.616 2.221 1.78ZM47.86 81.167l1.814-.206 3.732-1.78-5.546 1.986ZM39.194 2.295l4.235.938-2.417-1.1-1.818.162Zm8.379 5.141L31.157 2.397 15.912 8.423l31.66-.987Z" fill="#00A2E5"/><path d="M46.051 81.378 42.1 82.515l5.77-1.342-1.818.205Zm-2.618-78.15 1.82-.165-4.24-.936 2.42 1.1Zm15.281 73.371-3.48 2.383 5.291-2.586-1.81.203ZM40.28 82.722l1.82-.207 3.952-1.137-5.772 1.344Zm-9-80.308 4.268.203-2.443-.366-1.825.163Zm22.142 76.772 1.813-.204 3.48-2.383-5.293 2.587ZM36.187 83.15l4.141-.455 3.966-1.143-8.107 1.597Z" fill="#00A2E5"/><path d="m35.553 2.622 1.825-.164-4.267-.203 2.443.367Zm9.708.446 4.04 1.617-2.222-1.781-1.818.164Zm6.353 76.33-3.737 1.78 5.553-1.985-1.816.204ZM49.301 4.684l1.818-.164-4.04-1.617L49.3 4.685Zm9.423 71.92 1.812-.203 3.184-2.943-4.996 3.146Zm-12.665 4.78 1.818-.206 3.737-1.782-5.555 1.987ZM37.378 2.457l4.241.938L39.2 2.294l-1.822.164Zm13.74 2.063 3.805 2.245-1.99-2.41-1.814.165ZM44.24 81.59l-3.953 1.138 5.773-1.344-1.82.206ZM41.62 3.396l1.822-.164-4.24-.938 2.418 1.102Zm13.304 3.37 1.814-.166-3.803-2.244 1.989 2.41Zm1.988 70.042-3.481 2.385 5.294-2.588-1.813.203Zm-5.297 2.59 1.816-.205 3.481-2.385-5.297 2.59ZM43.441 3.231l4.041 1.618-2.221-1.782-1.82.164ZM61.909 73.66l-3.185 2.945 4.996-3.146-1.811.201Zm-12.112 5.942-3.738 1.782 5.555-1.987-1.817.205ZM39.694 3.567l-4.257-.948-4.284-.205 8.541 1.153Z" fill="#00A2E5"/><path d="m47.514 4.866 1.815-.165-4.032-1.617 2.217 1.782Zm9.41 71.941 1.809-.203 3.177-2.944-4.987 3.147Zm-12.646 4.78 1.816-.205 3.73-1.782-5.546 1.988Zm-8.092 1.573 8.105-1.594 7.242-4.18-15.347 5.774Z" fill="#00A2E5"/><path d="m35.561 2.625 4.243.938-2.418-1.102-1.825.164Zm13.75 2.064 3.804 2.247-1.987-2.412-1.818.165Zm12.608 68.975 1.811-.201 2.847-3.464-4.658 3.665Zm-22.115-70.1 1.824-.165-4.242-.938 2.418 1.102Zm13.311 3.372 1.817-.166-3.804-2.246 1.987 2.412Zm1.99 70.08-3.481 2.385 5.297-2.588-1.816.203Zm-5.3 2.59 1.819-.205 3.481-2.385-5.3 2.59ZM54.933 6.77l3.532 2.822-1.717-2.988-1.815.166Zm3.532 2.822 1.814-.167-3.531-2.821 1.717 2.988ZM41.628 3.4l4.042 1.62-2.22-1.784-1.822.164Zm18.478 70.467-3.185 2.947 4.998-3.149-1.813.202Zm-12.12 5.945-3.738 1.783 5.558-1.988-1.82.205ZM45.67 5.019l1.821-.165-4.041-1.62 2.22 1.785Zm9.435 71.997 1.816-.203 3.185-2.947-5 3.15Zm9.661-6.817-2.847 3.465L66.577 70l-1.81.2ZM47.491 4.854l3.806 2.248-1.986-2.413-1.82.165Zm12.615 69.012 1.813-.202 2.847-3.465-4.66 3.667Zm-40.245 4.069 31.63-.518 13.772-35.676L19.86 77.935Z" fill="#00A2E5"/><path d="m51.306 7.12 1.806-.167-3.779-2.246 1.973 2.412Zm1.98 70.086-3.459 2.386 5.264-2.59-1.805.204ZM47.573 7.448 39.698 3.56l-8.539-1.146 16.414 5.034Z" fill="#00A2E5"/><path d="m64.794 70.205 1.808-.2 2.464-3.941-4.272 4.14Zm-16.751 9.61 1.816-.205 3.477-2.386-5.293 2.59Zm5.12-72.86 3.526 2.824-1.713-2.99-1.813.166Zm3.526 2.824 1.813-.168-3.526-2.822 1.713 2.99ZM44.294 81.571l3.748-1.786 3.492-2.391-7.24 4.177Z" fill="#00A2E5"/><path d="m39.81 3.569 4.042 1.62-2.218-1.785-1.824.165Zm18.48 70.5-3.184 2.947 4.998-3.15-1.814.203Zm.172-64.472 3.221 3.347-1.407-3.514-1.814.167Zm3.221 3.347 1.813-.169-3.22-3.345 1.407 3.514ZM43.853 5.19l1.822-.165-4.04-1.62 2.218 1.785Zm9.437 72.03 1.816-.203 3.185-2.948-5.001 3.152Zm9.661-6.82-2.846 3.468 4.658-3.667-1.812.2Zm2.254-28.599L47.604 7.406l-31.636.983L65.204 41.8Z" fill="#00A2E5"/><path d="m45.703 5.03 3.804 2.25-1.984-2.415-1.82.165Zm21.555 61.232-2.468 3.943 4.277-4.14-1.81.197Zm-8.94 7.812 1.814-.202 2.846-3.467-4.66 3.67ZM49.508 7.28l1.819-.166-3.804-2.249 1.984 2.415Zm1.991 70.15-3.48 2.387 5.298-2.592-1.818.204Zm11.479-7.025 1.812-.2 2.468-3.943-4.28 4.143ZM51.327 7.114l3.531 2.825-1.713-2.992-1.818.167Zm15.93 59.148 1.81-.198 2.049-4.377-3.858 4.575ZM54.859 9.939l1.817-.168-3.53-2.824 1.713 2.992Zm1.644 64.337-3.185 2.95 5-3.152-1.815.202Zm.173-64.505 3.222 3.35-1.407-3.517-1.815.167Zm3.222 3.35 1.814-.17-3.22-3.347 1.406 3.516Zm4.69 3.648 1.811-.171-2.874-3.817 1.062 3.988Zm-2.876-3.818 2.875 3.818-1.062-3.988-1.813.17ZM51.5 77.429l1.818-.204 3.185-2.949-5.003 3.153ZM47.574 7.45l-3.818-2.257-4.055-1.625 7.873 3.881Z" fill="#00A2E5"/><path d="m61.166 70.609-2.849 3.469 4.663-3.67-1.814.201ZM43.872 5.193l3.807 2.25-1.984-2.415-1.823.165Zm21.578 61.27-2.47 3.946 4.283-4.144-1.813.198Zm3.863-4.578-2.05 4.38 3.86-4.575-1.81.195ZM56.5 74.28l1.817-.202 2.849-3.469L56.5 74.28ZM47.68 7.444l1.822-.167-3.807-2.25 1.984 2.417Zm21.633 54.441 1.81-.195 1.59-4.77-3.4 4.965Zm-8.147 8.724 1.815-.2 2.469-3.946-4.284 4.146ZM49.502 7.277l3.534 2.828-1.713-2.994-1.821.166ZM65.45 66.463l1.813-.198 2.05-4.38-3.863 4.578ZM53.036 10.105l1.82-.168-3.533-2.826 1.713 2.994Zm14.048 10.9 1.812-.175-2.493-4.234.68 4.408ZM54.68 74.481l-3.186 2.951L56.5 74.28l-1.819.202Zm.175-64.545 3.224 3.351-1.406-3.519-1.818.168Zm9.734 6.83 2.494 4.237-.681-4.408-1.813.171Zm-6.51-3.479 1.818-.17-3.224-3.349 1.406 3.519Zm4.695 3.651 1.815-.172-2.877-3.818 1.062 3.99Zm-2.877-3.82 2.877 3.82-1.062-3.99-1.816.17Zm-.55 57.69L56.5 74.28l4.666-3.671-1.817.2Zm11.554-13.696-1.59 4.772 3.4-4.965-1.81.193Zm-7.267 9.548-2.47 3.948 4.285-4.146-1.815.198Zm3.865-4.58-2.05 4.382 3.863-4.578-1.813.196Zm3.402-4.968 1.81-.194L73.8 51.8l-2.898 5.314Zm-16.22 17.37 1.818-.203 2.849-3.47-4.668 3.672Zm14.476-48.878 1.812-.176-2.074-4.599.262 4.776Z" fill="#00A2E5"/><path d="m51.534 77.412 3.192-2.952 2.853-3.475-6.045 6.427Z" fill="#00A2E5"/><path d="m67.505 62.084 1.813-.196 1.588-4.773-3.4 4.969Zm-8.15 8.728 1.817-.2 2.47-3.948-4.287 4.148Zm7.734-49.804 2.074 4.601-.262-4.775-1.812.174ZM47.687 7.448l3.534 2.83L49.51 7.28l-1.823.167Zm15.954 59.216 1.815-.198 2.05-4.382-3.865 4.58Zm-12.42-56.387 1.822-.168-3.533-2.828 1.711 2.996Zm14.054 10.905 1.814-.174-2.494-4.237.68 4.411ZM53.043 10.11l3.224 3.353-1.404-3.521-1.82.168Zm9.738 6.834 2.494 4.24-.68-4.412-1.814.172Zm9.213 35.05-1.088 5.122 2.898-5.312-1.81.19Zm0 0 1.81-.19.545-5.425-2.355 5.615ZM56.267 13.462l1.82-.17-3.224-3.351 1.404 3.52Zm4.697 3.653 1.817-.172-2.877-3.82 1.06 3.992Zm-2.877-3.823 2.877 3.823-1.06-3.993-1.818.17ZM70.78 30.52l1.812-.179-1.618-4.908-.194 5.087ZM57.537 71.012l-2.849 3.473 4.667-3.673-1.818.2ZM69.163 25.61l1.618 4.911.194-5.087-1.812.176Zm-.069 31.7-1.589 4.775 3.401-4.969-1.812.194Zm3.445-10.744 1.81-.187-.033-5.51-1.777 5.697Zm-.632-10.878 1.811-.182-1.125-5.164-.686 5.346ZM61.825 66.862l-2.47 3.95 4.286-4.148-1.816.198Zm3.866-4.582-2.05 4.384 3.864-4.58-1.814.196Zm3.403-4.971 1.812-.194 1.088-5.122-2.9 5.316Zm3.445-10.744-.545 5.428 2.355-5.615-1.81.187Zm-.034-5.512 1.81-.184-.597-5.364-1.213 5.548Zm-5.156-15.267 1.814-.177-2.074-4.601.26 4.778Zm3.432 4.734 1.126 5.167.686-5.346-1.812.18Zm-5.09 31.76 1.814-.196 1.59-4.775-3.404 4.97Zm-8.154 8.732 1.818-.2 2.47-3.95-4.288 4.15Zm7.738-49.83 2.074 4.604-.26-4.778-1.814.174Zm7.23 19.871.034 5.512 1.777-5.696-1.811.184Zm-10.68 25.81 1.816-.2 2.05-4.383-3.866 4.582Z" fill="#00A2E5"/><path d="m51.533 77.419 6.042-6.425L62.1 62.65 51.533 77.42Zm20.415-41.712.597 5.366 1.212-5.548-1.809.182ZM54.365 13.64l-3.232-3.359-3.542-2.832 6.774 6.19Z" fill="#00A2E5"/><path d="m63.461 21.36 1.816-.174-2.493-4.24.677 4.414ZM51.23 10.282l3.224 3.354-1.403-3.523-1.82.169Zm9.739 6.837 2.493 4.241-.677-4.413-1.816.172Zm9.214 35.066-1.087 5.125 2.898-5.315-1.811.19Zm0 0 1.811-.19.545-5.428-2.356 5.618Zm-15.73-38.549 1.821-.17-3.223-3.353 1.403 3.523Zm4.698 3.655 1.818-.172-2.877-3.823 1.059 3.995Zm-2.877-3.825 2.877 3.825-1.058-3.995-1.819.17ZM68.97 30.702l1.812-.179-1.617-4.91-.195 5.09Zm-1.62-4.912 1.618 4.913.195-5.09-1.813.177Zm-.07 31.715-1.588 4.777 3.402-4.971-1.814.194Zm3.445-10.749 1.812-.188-.034-5.511-1.778 5.7Zm-.631-10.884 1.812-.182-1.126-5.166-.686 5.348ZM60.01 67.061l-2.469 3.952 4.286-4.15-1.817.198Zm3.866-4.584-2.049 4.386 3.865-4.582-1.816.196Zm3.404-4.973 1.814-.194 1.087-5.125-2.9 5.319Zm3.445-10.749-.544 5.43 2.356-5.618-1.812.188Zm-.034-5.515 1.812-.184-.597-5.367-1.215 5.551Zm-5.156-15.274 1.815-.177-2.074-4.603.259 4.78Zm3.433 4.736 1.126 5.17.686-5.349-1.812.18Zm-5.091 31.775 1.815-.196 1.588-4.777-3.404 4.973ZM63.46 21.36l2.075 4.606-.26-4.78-1.815.174Zm7.231 19.88.034 5.515 1.778-5.7-1.812.185Zm-10.68 25.821 1.817-.198 2.05-4.386-3.867 4.584Zm10.084-31.19.597 5.37 1.215-5.552-1.812.182ZM59.76 21.716l-5.385-8.079-6.772-6.188L59.76 21.716Zm1.877-.178 1.818-.175-2.494-4.241.676 4.416Zm-2.495-4.244 2.495 4.244-.676-4.416-1.819.172Zm9.221 35.087-1.087 5.127 2.901-5.318-1.814.19Zm0 0 1.814-.191.545-5.43-2.359 5.62Zm-11.04-34.915 1.82-.172-2.878-3.825 1.057 3.997Zm-2.88-3.827 2.88 3.827-1.058-3.997-1.821.17Z" fill="#00A2E5"/><path d="m57.58 70.999 2.47-3.952 2.051-4.39L57.579 71Zm9.58-40.102 1.813-.18-1.617-4.912-.197 5.092ZM51.533 77.422 62.08 62.661l3.183-20.876-13.729 35.637Z" fill="#00A2E5"/><path d="m65.56 25.974 1.614 4.915.196-5.092-1.81.177Zm-.07 31.724-1.584 4.779 3.396-4.972-1.812.193Zm3.439-10.752 1.81-.188-.035-5.513-1.775 5.702Zm-.631-10.887 1.81-.182-1.124-5.168-.686 5.35Zm-6.205 26.614-2.045 4.388 3.858-4.584-1.813.196Zm3.397-4.975 1.812-.193 1.084-5.126-2.896 5.32Zm3.439-10.752-.543 5.433 2.352-5.62-1.81.188Zm-.034-5.516 1.81-.185-.597-5.368-1.213 5.553Zm-5.148-15.28 1.813-.176-2.07-4.605.257 4.782Zm3.427 4.739 1.124 5.17.686-5.35-1.81.18Zm-5.081 31.784 1.813-.196 1.584-4.779-3.397 4.975Zm-.416-41.13 2.07 4.608-.257-4.782-1.813.174Zm7.218 19.887.034 5.517 1.775-5.702-1.81.185Zm-.597-5.37.597 5.37 1.213-5.553-1.81.182Zm-3.091 5.742L59.78 21.709 47.636 7.45l17.57 34.353Z" fill="#00A2E5"/><path d="m59.779 21.719 1.824-.175-2.5-4.247.676 4.422Zm-2.501-4.25 2.5 4.25-.676-4.422-1.824.172Zm2.494 4.246-2.5-4.247-2.882-3.83 5.382 8.077Zm6.788 30.853-1.085 5.13 2.897-5.32-1.812.19Zm0 0 1.812-.19.544-5.433-2.356 5.623Zm-1.213-21.502 1.813-.18-1.615-4.915-.198 5.095Zm-1.616-4.918 1.616 4.918.198-5.095-1.814.177Zm-.07 31.743-1.585 4.781 3.4-4.975-1.815.194Zm3.443-10.758 1.812-.188-.034-5.517-1.778 5.705Zm-.632-10.893 1.813-.183-1.125-5.17-.688 5.353Zm-2.81 21.651 1.813-.194 1.085-5.129-2.899 5.323Zm3.442-10.758-.544 5.435 2.356-5.623-1.812.188Zm-.035-5.52 1.813-.184-.597-5.372-1.216 5.557Zm-5.153-15.287 1.815-.178-2.07-4.607.255 4.785Zm3.431 4.74 1.125 5.174.688-5.353-1.813.18Zm-5.503-9.35 2.072 4.61-.256-4.785-1.816.175Zm7.225 19.898.035 5.52 1.778-5.706-1.813.186Zm-.597-5.374.597 5.374 1.216-5.557-1.813.183Z" fill="#00A2E5"/><path d="m62.1 62.668 1.585-4.782 1.084-5.13-2.669 9.912Z" fill="#00A2E5"/><path d="m64.756 52.76-1.081 5.13 2.888-5.322-1.807.191Zm0 0 1.807-.192.542-5.434-2.35 5.625Zm-1.21-21.51 1.808-.18-1.61-4.918-.198 5.097Z" fill="#00A2E5"/><path d="m62.1 62.668 2.656-9.911.506-10.959-3.161 20.87Zm-.193-36.34 1.618 4.92.2-5.098-1.818.178Zm3.377 20.997 1.815-.189-.034-5.52-1.781 5.709Zm-.633-10.9 1.816-.183-1.125-5.174-.69 5.357Zm-1.156-5.175-1.62-4.922-2.076-4.611 3.696 9.533Z" fill="#00A2E5"/><path d="m65.311 47.323-.54 5.437 2.347-5.625-1.807.188Zm-.034-5.521 1.807-.186-.595-5.373-1.212 5.559Zm-.046 0-1.724-10.554-3.692-9.531 5.416 20.085Z" fill="#00A2E5"/><path d="m63.534 31.25 1.125 5.176.69-5.356-1.815.18Zm1.723 10.553.034 5.523 1.78-5.708-1.814.185Zm-.598-5.377.598 5.377 1.217-5.56-1.815.183Z" fill="#00A2E5"/><path d="m64.746 52.76.54-5.438-.034-5.52-.506 10.958Zm.506-10.959-.595-5.376-1.12-5.175 1.715 10.551Z" fill="#00A2E5"/><mask id="a" style="mask-type:alpha" maskUnits="userSpaceOnUse" x="2" y="1" width="73" height="83"><path d="m2.58 43.804.585 5.309 1.1 5.113L2.58 43.804Zm.49-10.83-.527 5.376.037 5.454.49-10.83Zm-.49 10.83 1.684 10.422 3.607 9.435L2.58 43.804Zm1.684 10.422 1.58 4.867 2.027 4.568-3.607-9.435ZM5.675 23.15l-2.604 9.826-.491 10.829L5.675 23.15Zm0 0-1.548 4.745-1.056 5.08 2.604-9.825Zm2.196 40.51 2.44 4.218 2.819 3.814-5.259-8.032ZM2.58 43.804 7.87 63.66l11.901 14.243-17.192-34.1Zm13.444-35.44L5.675 23.15 2.58 43.804l13.444-35.44Zm-5.93 6.469L7.677 18.78l-2.002 4.368 4.42-8.316ZM7.871 63.66l5.258 8.032 6.643 6.211L7.871 63.661Zm8.153-55.296L2.58 43.804l17.192 34.1-3.748-69.54Zm-2.895 63.328 3.165 3.36 3.478 2.851-6.642-6.21Zm2.895-63.328-5.93 6.468-4.419 8.316L16.024 8.365Zm0 0-3.135 2.981-2.795 3.487 5.93-6.468Zm3.748 69.54 3.757 2.288 4.002 1.673-7.759-3.962Zm3.39-73.815L19.46 5.931l-3.437 2.434L23.16 4.09Zm-3.39 73.814 7.759 3.962L36 83.14l-16.229-5.236Zm27.734 3.991 1.803-.207 3.93-1.137-5.733 1.344Zm-8.868-80.12 4.241.199-2.434-.363-1.807.163Zm4.241.199 1.807-.164-4.241-.2 2.434.364Z" fill="#00A2E5"/><path d="m31.218 2.385-8.02 1.73-7.12 4.273 15.14-6.003Zm-3.66 79.482 4.203 1.001 4.246.272-8.45-1.273Zm23.891-1.107L47.51 81.9l5.745-1.344-1.806.205Zm-5.748 1.345 1.81-.206 3.938-1.139-5.748 1.345ZM36.81 1.928l4.252.2-2.439-.363-1.813.163Zm4.252.2 1.813-.164-4.252-.2 2.439.364ZM51.449 80.76l1.806-.206 3.725-1.781-5.531 1.987ZM42.874 1.964l4.224.933L44.684 1.8l-1.81.164Zm6.767 79.002-3.94 1.14 5.748-1.346-1.808.206ZM47.098 2.897l1.81-.164-4.224-.933 2.414 1.097Zm-3.207 79.415 1.81-.207 3.94-1.139-5.75 1.346Zm-8.897-80.22 4.252.2-2.437-.364-1.815.165Z" fill="#00A2E5"/><path d="m31.152 2.4-4.132.527-3.944 1.213 8.076-1.74Zm8.101-.103 1.814-.164-4.25-.2 2.436.364Zm15.923 76.684-3.724 1.782 5.53-1.988-1.806.206ZM19.872 77.89l16.305 5.275 15.356-5.814-31.661.54Z" fill="#00A2E5"/><path d="m49.65 80.973 1.81-.206 3.729-1.783-5.54 1.989ZM41.06 2.125l4.23.934-2.415-1.099-1.815.165Zm6.776 79.054-3.944 1.14 5.757-1.346-1.813.206ZM45.29 3.059l1.814-.165-4.23-.934 2.416 1.099Zm-3.212 79.466 1.814-.207 3.944-1.139-5.758 1.346Zm-8.91-80.272 4.257.2-2.438-.364-1.82.164Zm22.02 76.731 1.808-.205 3.474-2.384-5.282 2.59Zm-39.106-70.6 3.755 69.576 45.347-36.212L16.083 8.384Z" fill="#00A2E5"/><path d="m37.424 2.457 1.816-.164-4.25-.2 2.434.364Zm9.666.44 4.024 1.615-2.215-1.78-1.81.166Zm6.266 76.284-3.724 1.783 5.531-1.988-1.807.205Zm-2.242-74.67 1.809-.165-4.024-1.613 2.215 1.779Zm-3.292 76.66 1.81-.207 3.724-1.783-5.534 1.99ZM39.24 2.292l4.225.934-2.41-1.099-1.815.165Zm8.33 5.138L31.16 2.39 15.914 8.438 47.57 7.431Z" fill="#00A2E5"/><path d="m46.018 81.385-3.945 1.14 5.76-1.346-1.815.206ZM43.47 3.22l1.817-.165-4.231-.934 2.414 1.1Zm15.194 73.378-3.476 2.386 5.284-2.59-1.808.204Zm-18.407 6.134 1.817-.207 3.945-1.14-5.763 1.347Zm-8.92-80.318 4.26.2-2.438-.364-1.822.164ZM53.376 79.19l1.81-.205 3.477-2.386-5.287 2.591Zm-17.19 3.963 4.141-.458 3.967-1.147-8.108 1.605Z" fill="#00A2E5"/><path d="m35.61 2.618 1.82-.165-4.26-.2 2.44.365Zm9.69.44 4.032 1.616-2.218-1.78-1.815.165ZM51.578 79.4l-3.732 1.784 5.544-1.99-1.812.206ZM49.33 4.674l1.815-.166-4.032-1.614 2.218 1.78Zm9.348 71.93 1.808-.204 3.18-2.946-4.988 3.15ZM46.032 81.39l1.815-.207 3.732-1.784-5.547 1.991ZM37.43 2.453l4.233.936-2.414-1.1-1.82.164Zm13.715 2.055 3.795 2.245-1.983-2.41-1.812.165Zm-6.931 77.09-3.947 1.14 5.764-1.347-1.817.207Zm-2.551-78.21 1.819-.164-4.233-.935 2.414 1.1ZM54.94 6.754l1.812-.167-3.795-2.243 1.983 2.41Zm1.927 70.055-3.477 2.387 5.288-2.591-1.81.204Zm-5.29 2.592 1.813-.205 3.477-2.387-5.29 2.592ZM43.484 3.224l4.032 1.616L45.3 3.06l-1.816.165ZM61.86 73.656l-3.181 2.948 4.989-3.15-1.808.202Zm-12.096 5.95-3.732 1.785 5.547-1.99-1.815.205ZM39.694 3.567l-4.257-.95-4.283-.203 8.54 1.153Z" fill="#00A2E5"/><path d="m47.56 4.865 1.811-.166-4.02-1.615 2.21 1.78Zm9.326 71.944 1.805-.204 3.171-2.947-4.976 3.15Zm-12.614 4.788 1.81-.207 3.722-1.784-5.532 1.991Zm-8.086 1.571 8.104-1.6 7.243-4.191-15.347 5.79Z" fill="#00A2E5"/><path d="m35.62 2.622 4.235.937-2.413-1.101-1.821.164ZM49.346 4.68l3.796 2.245-1.982-2.41-1.814.165Zm12.53 68.983 1.808-.202 2.845-3.466-4.653 3.668ZM39.855 3.56l1.821-.166-4.234-.935 2.413 1.1Zm13.286 3.365 1.814-.167-3.796-2.244 1.982 2.411ZM55.07 77.02l-3.478 2.387 5.29-2.592-1.812.205Zm-5.293 2.593 1.815-.206 3.478-2.387-5.293 2.593Zm5.178-72.855L58.48 9.58l-1.713-2.99-1.812.167ZM58.48 9.58l1.81-.17-3.522-2.819L58.48 9.58ZM41.676 3.393l4.034 1.618-2.215-1.783-1.819.165Zm18.389 70.472-3.182 2.95 4.992-3.153-1.81.203ZM47.96 79.818l-3.734 1.786 5.55-1.992-1.816.206ZM45.71 5.011l1.817-.166-4.033-1.617 2.215 1.783Zm9.36 72.009 1.813-.205 3.182-2.949-4.995 3.154Zm9.65-6.824-2.845 3.467 4.653-3.668-1.808.2ZM47.528 4.845l3.798 2.247-1.981-2.413-1.817.166Zm12.537 69.02 1.81-.203 2.845-3.467-4.655 3.67ZM19.86 77.958l31.609-.536L65.26 41.717l-45.4 36.24Z" fill="#00A2E5"/><path d="m51.338 7.118 1.798-.168-3.76-2.243 1.962 2.41Zm1.915 70.089-3.444 2.388 5.24-2.593-1.796.205ZM47.57 7.447l-7.871-3.89-8.536-1.143L47.57 7.448Z" fill="#00A2E5"/><path d="m64.76 70.205 1.802-.201 2.462-3.943-4.265 4.144Zm-16.718 9.62 1.812-.205 3.47-2.389-5.282 2.595ZM53.21 6.954l3.515 2.823-1.706-2.99-1.81.167Zm3.515 2.823 1.809-.17-3.515-2.82 1.706 2.99ZM44.294 81.574l3.747-1.79 3.492-2.394-7.24 4.184Z" fill="#00A2E5"/><path d="m39.865 3.568 4.032 1.619-2.212-1.784-1.82.165ZM58.25 74.071l-3.18 2.95 4.99-3.153-1.81.203Zm.226-64.484 3.212 3.346-1.403-3.514-1.81.168Zm3.212 3.346 1.809-.17-3.212-3.344 1.403 3.514ZM43.897 5.187l1.82-.166-4.032-1.618 2.212 1.784Zm9.36 72.039 1.813-.205 3.18-2.95-4.993 3.155Zm9.649-6.827-2.844 3.469 4.652-3.67-1.808.2ZM65.177 41.8 47.613 7.39l-31.62 1L65.176 41.8Z" fill="#00A2E5"/><path d="m45.758 5.03 3.795 2.248-1.979-2.414-1.816.166ZM67.22 66.26l-2.466 3.946 4.272-4.144-1.806.198Zm-8.93 7.82 1.811-.204 2.844-3.469-4.654 3.672ZM49.554 7.277l1.816-.168-3.795-2.246 1.979 2.414Zm1.93 70.16-3.476 2.39 5.29-2.594-1.814.205Zm11.462-7.03 1.809-.202 2.466-3.946-4.275 4.147ZM51.369 7.11l3.522 2.825-1.708-2.992-1.814.167Zm15.85 59.15 1.807-.198 2.048-4.38-3.854 4.578ZM54.892 9.935l1.814-.17-3.522-2.822 1.708 2.992Zm1.587 64.347-3.18 2.952 4.993-3.155-1.813.203Zm.227-64.516 3.212 3.347-1.4-3.516-1.812.169Zm3.212 3.347 1.811-.17-3.212-3.346 1.401 3.516Zm4.677 3.647 1.809-.173-2.866-3.815 1.057 3.988Zm-2.866-3.817 2.866 3.817-1.057-3.988-1.809.17ZM51.483 77.439l1.815-.205 3.18-2.952-4.995 3.157Zm-3.912-69.99-3.815-2.257-4.052-1.624 7.867 3.88Z" fill="#00A2E5"/><path d="m61.136 70.613-2.846 3.472 4.658-3.673-1.812.201Zm-17.21-65.42 3.798 2.249-1.978-2.416-1.82.166Zm21.491 61.27-2.469 3.949 4.279-4.147-1.81.199Zm3.86-4.58-2.05 4.382 3.858-4.579-1.808.197ZM56.476 74.288l1.814-.203 2.846-3.472-4.66 3.675ZM47.724 7.442l1.82-.168-3.798-2.248 1.978 2.416Zm21.553 54.441 1.808-.197 1.59-4.772-3.398 4.969Zm-8.14 8.73 1.811-.201 2.469-3.948-4.28 4.15ZM49.543 7.274 53.07 10.1l-1.708-2.993-1.818.167Zm15.873 59.19 1.81-.2 2.05-4.381-3.86 4.58ZM53.07 10.1l1.817-.169-3.525-2.824L53.07 10.1Zm14.016 10.894 1.81-.175-2.487-4.234.677 4.41ZM54.659 74.491l-3.183 2.954 5-3.157-1.817.203Zm.228-64.56 3.216 3.35-1.4-3.519-1.816.17Zm9.712 6.827 2.487 4.236-.677-4.409-1.81.173Zm-6.496-3.477 1.815-.17-3.215-3.349 1.4 3.52Zm4.684 3.65 1.812-.173-2.868-3.818 1.056 3.99Zm-2.87-3.82 2.87 3.82-1.056-3.991-1.813.17Zm-.595 57.704-2.846 3.473 4.66-3.675-1.814.202Zm11.545-13.707-1.59 4.775 3.398-4.969-1.808.194Zm-7.262 9.555-2.469 3.95 4.281-4.15-1.812.2Zm3.862-4.583-2.05 4.384 3.86-4.581-1.81.197Zm3.4-4.972 1.808-.194 1.09-5.121-2.898 5.315ZM54.66 74.491l1.817-.203 2.846-3.473-4.663 3.676Zm14.494-48.896 1.809-.177-2.067-4.599.258 4.776Z" fill="#00A2E5"/><path d="m51.534 77.415 3.191-2.956 2.854-3.477-6.045 6.433Z" fill="#00A2E5"/><path d="m67.475 62.084 1.81-.197 1.59-4.775-3.4 4.971Zm-8.143 8.734 1.814-.201 2.468-3.95-4.282 4.151ZM67.094 21l2.066 4.6-.258-4.776-1.81.175ZM47.737 7.448l3.526 2.827-1.707-2.995-1.82.168Zm15.877 59.219 1.812-.2 2.05-4.383-3.862 4.583ZM51.263 10.275l1.818-.169-3.525-2.826 1.707 2.995Zm14.02 10.9 1.81-.175-2.485-4.237.674 4.412ZM53.08 10.106l3.216 3.352-1.399-3.521-1.817.17Zm9.715 6.83 2.486 4.239-.674-4.412-1.812.173Zm9.169 35.052-1.09 5.124 2.897-5.315-1.808.191Zm0 0 1.807-.191.548-5.427-2.355 5.618Zm-15.668-38.53 1.816-.171-3.215-3.35 1.399 3.52Zm4.686 3.651 1.813-.173-2.868-3.82 1.055 3.993Zm-2.87-3.822 2.87 3.822-1.055-3.993-1.815.17Zm12.66 17.223 1.808-.18-1.61-4.908-.198 5.088ZM57.517 71.02l-2.847 3.475 4.662-3.677-1.815.202ZM69.16 25.6l1.612 4.911.197-5.088-1.808.177Zm-.094 31.707-1.59 4.776 3.399-4.97-1.81.194Zm3.447-10.748 1.807-.189-.028-5.51-1.779 5.699Zm-.621-10.88 1.808-.184-1.12-5.164-.688 5.347ZM61.8 66.865l-2.469 3.952 4.282-4.151-1.813.2Zm3.863-4.585-2.05 4.386 3.861-4.584-1.811.198Zm3.401-4.974 1.81-.195 1.09-5.124-2.9 5.319Zm3.448-10.748-.549 5.43 2.356-5.619-1.807.189Zm-.03-5.513 1.809-.186-.592-5.365-1.216 5.55ZM67.35 25.778l1.81-.178-2.066-4.6.256 4.778Zm3.422 4.733 1.12 5.167.688-5.347-1.808.18Zm-5.108 31.77 1.811-.197 1.59-4.777-3.401 4.974Zm-8.147 8.739 1.815-.202 2.469-3.952-4.284 4.154Zm7.765-49.845 2.068 4.603L67.094 21l-1.811.175Zm7.202 19.87.029 5.514 1.779-5.699-1.808.186ZM61.8 66.867l1.813-.2 2.05-4.385-3.863 4.585Z" fill="#00A2E5"/><path d="m51.534 77.424 6.04-6.43 4.527-8.349-10.567 14.779Zm20.418-41.718.591 5.367 1.214-5.55-1.805.183ZM54.36 13.64l-3.227-3.36-3.537-2.831 6.765 6.19Z" fill="#00A2E5"/><path d="m63.472 21.355 1.813-.176-2.485-4.238.672 4.414ZM51.273 10.28l3.214 3.353-1.396-3.522-1.818.17Zm9.714 6.833 2.485 4.24-.672-4.413-1.813.173Zm9.167 35.068-1.088 5.126 2.897-5.318-1.808.192Zm0 0 1.809-.192.548-5.428-2.356 5.62ZM54.487 13.634l1.817-.17-3.213-3.352 1.396 3.522Zm4.686 3.653 1.814-.173-2.867-3.822 1.053 3.995Zm-2.869-3.824 2.869 3.824-1.053-3.995-1.816.171Zm12.658 17.233 1.809-.18-1.61-4.911-.2 5.09Zm-1.611-4.914 1.61 4.914.2-5.091-1.81.177Zm-.096 31.72-1.589 4.78 3.4-4.974-1.81.195Zm3.448-10.752 1.808-.188-.03-5.513-1.778 5.701Zm-.622-10.885 1.809-.183-1.12-5.167-.689 5.35Zm-10.09 31.202-2.467 3.953 4.281-4.153-1.814.2Zm3.863-4.588-2.049 4.388 3.861-4.585-1.812.197Zm3.401-4.976 1.81-.195 1.09-5.126-2.9 5.32Zm3.448-10.753-.549 5.432 2.357-5.62-1.808.188Zm-.03-5.515 1.809-.186-.592-5.367-1.217 5.553ZM65.54 25.96l1.812-.178-2.066-4.603.254 4.781Zm3.423 4.736 1.12 5.169.689-5.35-1.81.18Zm-5.108 31.783 1.812-.197 1.59-4.78-3.402 4.977Zm-.382-41.124 2.067 4.605-.254-4.78-1.813.175Zm7.201 19.88.03 5.515 1.779-5.701-1.809.186ZM59.991 67.067l1.814-.2 2.049-4.388-3.863 4.588Zm10.09-31.202.592 5.37 1.217-5.553-1.809.183ZM59.749 21.716l-5.374-8.08-6.76-6.187 12.134 14.267Zm1.901-.181 1.815-.176-2.487-4.24.672 4.416Zm-2.487-4.244 2.487 4.244-.672-4.417-1.815.174Zm9.175 35.09-1.09 5.128 2.901-5.32-1.81.191Zm0 0 1.811-.193.549-5.432-2.36 5.624ZM57.346 17.464l1.817-.174-2.87-3.824 1.053 3.998Zm-2.87-3.826 2.87 3.826-1.052-3.998-1.818.171Z" fill="#00A2E5"/><path d="m57.578 71 2.47-3.954 2.052-4.39L57.578 71Zm9.582-40.102 1.81-.18-1.61-4.914-.2 5.094ZM51.534 77.427l10.534-14.77 3.194-20.88-13.728 35.65Z" fill="#00A2E5"/><path d="m65.575 25.971 1.605 4.915.2-5.092-1.805.177ZM65.48 57.7l-1.584 4.78 3.39-4.974-1.806.194Zm3.436-10.755 1.805-.189-.03-5.514-1.775 5.703Zm-.62-10.888 1.805-.183-1.116-5.167-.689 5.35Zm-6.208 26.62-2.042 4.39 3.85-4.587-1.808.198ZM65.48 57.7l1.805-.194 1.086-5.128L65.48 57.7Zm3.436-10.755-.545 5.433 2.35-5.622-1.805.19Zm-.029-5.516 1.804-.186-.59-5.369-1.214 5.555Zm-5.12-15.278 1.807-.178-2.059-4.605.252 4.782Zm3.413 4.736 1.116 5.17.69-5.35-1.806.18Zm-5.092 31.79 1.808-.197 1.584-4.78-3.392 4.978Zm-.38-41.133 2.06 4.607-.253-4.782-1.808.175Zm7.179 19.885.03 5.516 1.774-5.703-1.804.187Zm-.59-5.372.59 5.372 1.214-5.555-1.805.183Zm-3.117 5.744-5.403-20.095L47.661 7.45l17.52 34.35Z" fill="#00A2E5"/><path d="m59.777 21.72 1.823-.176-2.495-4.248.672 4.424Zm-2.495-4.251 2.495 4.25-.672-4.424-1.823.174Zm2.482 4.246-2.493-4.248-2.877-3.829 5.37 8.077Zm6.781 30.853-1.086 5.13 2.893-5.322-1.807.192Zm0 0 1.807-.192.546-5.434-2.353 5.626Zm-1.192-21.504 1.808-.181-1.607-4.915-.201 5.096Zm-1.608-4.918 1.608 4.918.2-5.096-1.808.178Zm-.095 31.747-1.586 4.782 3.395-4.977-1.81.195Zm3.441-10.761 1.808-.19-.03-5.517-1.778 5.707Zm-.62-10.895 1.807-.183-1.117-5.171-.69 5.354ZM63.65 57.893l1.809-.195 1.086-5.13-2.895 5.325Zm3.441-10.761-.546 5.436 2.353-5.626-1.807.19Zm-.03-5.52 1.808-.187-.591-5.371-1.217 5.557Zm-5.127-15.288 1.811-.178-2.061-4.607.25 4.785Zm3.419 4.74 1.117 5.173.691-5.354-1.808.18Zm-5.48-9.349 2.061 4.61-.25-4.785-1.812.175Zm7.188 19.896.03 5.52 1.778-5.706-1.808.187Zm-.59-5.374.59 5.374 1.217-5.557-1.808.183Z" fill="#00A2E5"/><path d="m62.1 62.668 1.584-4.782 1.085-5.133-2.669 9.915Z" fill="#00A2E5"/><path d="m64.748 52.76-1.08 5.131 2.88-5.324-1.8.193Zm0 0 1.8-.193.543-5.435-2.343 5.628ZM63.56 31.249l1.801-.18-1.6-4.917-.2 5.097Z" fill="#00A2E5"/><path d="m62.101 62.668 2.649-9.913.512-10.958-3.161 20.87Zm-.179-36.341 1.61 4.92.203-5.098-1.813.178Zm3.35 20.998 1.812-.19-.03-5.52-1.781 5.71Zm-.621-10.9 1.811-.184-1.118-5.174-.693 5.357Zm-1.163-5.175-1.613-4.923-2.07-4.61 3.683 9.532Z" fill="#00A2E5"/><path d="m65.312 47.323-.543 5.438 2.34-5.628-1.797.19Zm-.03-5.522 1.798-.186-.587-5.373-1.21 5.56Zm-.065.001-1.712-10.555-3.676-9.53 5.388 20.085Z" fill="#00A2E5"/><path d="m63.545 31.248 1.118 5.176.692-5.357-1.81.18Zm1.71 10.553.03 5.523 1.779-5.71-1.81.187Zm-.592-5.377.591 5.377 1.218-5.56-1.81.183Z" fill="#00A2E5"/><path d="m64.735 52.759.542-5.438-.03-5.521-.512 10.959Zm.512-10.96-.587-5.375-1.11-5.174 1.697 10.55Z" fill="#00A2E5"/></mask><g mask="url(#a)"><ellipse cx="102.188" cy="77.588" rx="102.188" ry="77.588" transform="rotate(2.343 1849.246 -1280.117) skewX(-.264)" fill="url(#b)"/></g><path d="M66.134 43.874c-1.005 22.432-14.017 40.11-31.68 39.375C16.793 82.515.894 61.896 1.899 39.464 2.903 17.032 16.175 1.452 33.838 2.186c17.662.735 33.301 19.256 32.296 41.688Z" fill="url(#c)"/><path d="M62.223 43.73c-.443 9.9-3.541 18.729-8.457 24.992-4.912 6.259-11.628 9.948-19.346 9.627-7.719-.321-15.093-4.984-20.439-12.074C8.64 59.188 5.354 49.71 5.796 39.837 6.683 20.026 18.396 6.44 33.83 7.082c15.467.643 29.278 16.875 28.392 36.647Z" fill="url(#d)" stroke="url(#e)" stroke-width=".751"/><g filter="url(#f)" fill="#00A2E5"><path d="m18.747 34.698.05 1.437.159 1.483-.21-2.92Zm.209 2.92.265 1.528.373 1.573-.638-3.101Zm.011-5.654-.22 2.734.209 2.92.011-5.654Zm0 0-.164 1.343-.056 1.39.22-2.733Zm-.011 5.654.638 3.101 1.066 3.279-1.704-6.38Zm.011-5.654-.011 5.654 1.704 6.38-1.693-12.034Zm.627 8.755.48 1.618.586 1.66-1.066-3.278Zm-.15-10.763-.265.957-.212 1.051.478-2.008Zm9.446 10.187 1.518-.152-.085-.993-1.434 1.145Zm-.086-.993 1.519-.152.078-.794-1.597.946Zm.372 2.213 1.519-.153-.287-1.22-1.232 1.373Zm-.294-3.007 1.519-.152.203-.623-1.722.775Z"/><path d="m20.084 28.313-.653 1.643-.479 2.009 1.132-3.652Zm9.622 14.525 1.517-.154-.527-1.474-.99 1.628Zm-.618-5.106 1.517-.15.29-.482-1.807.632Z"/><path d="m20.67 44 .694 1.705.8 1.747L20.672 44Zm-.564-15.685-.342.777-.31.866.652-1.643Zm8.699 10.833.085.993 1.433-1.145-1.518.152Zm.085.993.287 1.22 1.231-1.372-1.518.152Zm-.007-1.787-.078.794 1.596-.946-1.518.152Zm-7.3-12.33-2.615 5.941 1.69 12.033.925-17.974Z"/><path d="m29.38 37.25 1.518-.152.337-.366-1.855.517Zm1.135 7.344 1.517-.154-.806-1.757-.711 1.911Zm-1.334-3.233.528 1.475.99-1.627-1.518.152Zm-.09-3.63-.203.623 1.72-.775-1.517.152Zm-7.508-11.707-1.497 2.291-1.133 3.652 2.63-5.943Zm6.957-2.96 1.514-.144-.391-.034-1.123.178Zm1.158 13.824 1.514-.151.346-.28-1.86.43Zm-.336.367-.29.48 1.804-.632-1.514.151Zm-8.671 6.743 1.501 3.453 1.93 3.623-3.43-7.076Z"/><path d="m29.713 42.835.807 1.758.713-1.912-1.52.154Zm-8.884-15.823-.379.611-.366.692.745-1.303Zm8.097-3.804 1.515-.145-.375-.145-1.14.29Zm1.13 13.399 1.514-.151.317-.222-1.831.373Zm-.346.28-.337.366 1.851-.517-1.514.15Zm1.918 9.779 1.513-.156-1.121-2.068-.393 2.224ZM28.16 23.029l.391.034 1.124-.179-1.515.145Zm2.212 13.356 1.515-.15.25-.191-1.765.341Zm-1.087-12.93 1.515-.146-.36-.246-1.155.391Zm-7.677 2.571-.75.987-.742 1.303 1.492-2.29Zm.568 21.427.907 1.79 1.015 1.83-1.922-3.62Z"/><path d="m30.051 36.605-.345.28 1.858-.43-1.513.15Zm-2.68 3.69 1.515-.152-.085-.993-1.43 1.145Zm-.084-.993 1.514-.152.078-.794-1.593.946Zm3.214 5.292 1.12 2.07.393-2.224-1.513.154Zm-2.844-3.079 1.515-.153-.286-1.219-1.229 1.372Zm.891-18.453.374.145 1.14-.29-1.514.145Zm1.077.73 1.513-.145-.344-.338-1.169.483Zm-2.26 14.716 1.514-.152.202-.623-1.717.775Zm-5.783-12.481-.372.456-.38.532.752-.988Z"/><path d="m30.376 36.387-.317.221 1.833-.372-1.516.15Zm-2.188 6.607 1.517-.153-.527-1.475-.99 1.628Zm2.438-6.798 1.515-.15 1.114-1.032-2.63 1.182Zm-1.697-12.987.359.246 1.157-.391-1.516.145Zm1.035 1.006 1.516-.145-.331-.422-1.185.567Zm-2.393 13.672 1.517-.15.289-.482-1.806.632Zm3.055-1.691-.25.19 1.765-.34-1.515.15Zm2.228 12.453 1.515-.156-1.222-1.98-.293 2.136Zm-5.564-9.343.085.993 1.432-1.145-1.517.152Zm.085.993.287 1.22 1.23-1.372-1.517.152Zm2.91-15.59 1.515-.145-.32-.494-1.196.64Zm-.997-1.254.345.339 1.17-.484-1.515.145Zm-1.92 15.056-.078.795 1.595-.946-1.517.151Zm.492-1.105 1.517-.151.336-.367-1.853.518Zm1.134 7.347 1.516-.155-.805-1.757-.711 1.912Zm-1.332-3.234.526 1.475.99-1.628-1.516.153Zm-6.961 2.479 3.432 7.077 4.302 6.289L20.7 43.998Z"/><path d="m31.628 46.664 1.221 1.982.293-2.137-1.514.155Zm-1.037-21.398 1.514-.146-.309-.558-1.205.704Zm-3.02 12.619-.203.624 1.718-.776-1.516.152Zm2.06-14.093.33.421 1.184-.566-1.515.145Zm-7.373 1.538-.323.313-.353.384.676-.698Zm4.759-2.123 1.52-.145-.392-.034-1.128.18Zm3.865 2.672 1.519-.146-.301-.612-1.218.758ZM28.18 37.041l1.52-.15.346-.28-1.866.43Zm-.337.367-.29.482 1.81-.633-1.52.151Zm2.108-13.194.32.494 1.199-.64-1.519.146Zm1.78 10.951 1.517-.15.414-.444-1.932.594Zm-8.957-10.267-.515.433-.677.698 1.192-1.13Z"/><path d="m28.188 42.992.804 1.758.711-1.912-1.515.154Zm2.997-16.456 1.514-.146-.293-.657-1.221.803Zm.552 8.626-1.114 1.032 2.628-1.182-1.514.15Zm-7.598 15.91 1.072 1.784 1.075 1.643-2.147-3.427Zm9.803-.917 1.515-.157-1.084-1.505-.431 1.662Zm-6.53-26.803 1.518-.145-.375-.145-1.143.29Zm1.131 13.406 1.518-.15.317-.222-1.835.372Zm1.743-12.05.31.558 1.207-.704-1.517.145Zm-4.45 15.728-.085-.994-5.07 4.562 5.155-3.568Zm.287 1.222-.287-1.222-5.156 3.568 5.443-2.346Zm-.373-2.216.079-.796-5.149 5.358 5.07-4.562Zm2.434-2.409-.338.368 1.862-.519-1.524.151ZM22.773 24.9l-.232.184-.282.248.514-.433Zm7.337 21.921 1.516-.155-1.123-2.07-.394 2.225Zm-3.474-23.65.392.035 1.126-.18-1.518.146Zm5.511 11.546 1.516-.15.32-.478-1.836.628Z"/><path d="m25.827 38.647.203-.625-5.35 5.982 5.147-5.357Zm4.746-13.377.302.614 1.22-.76-1.521.147Z"/><path d="m27.826 26.162-6.216-.134-.93 17.98 7.146-17.846Zm-1.19 16.977-.527-1.476-5.43 2.345 5.957-.87Zm5.248-14.959 1.516-.148-.696-1.642-.82 1.79Zm-3.023 8.355 1.517-.15.25-.191-1.767.341Zm-1.089-12.937 1.517-.145-.359-.246-1.158.391Zm5.083 25.049 1.084 1.506.43-1.662-1.514.156Z"/><path d="m26.03 38.023.29-.482-5.64 6.464 5.35-5.982Zm2.505-1.267-.347.28 1.864-.43-1.517.15Zm-2.688 3.693 1.52-.152-.086-.994-1.434 1.146Zm5.041-14.572.293.657 1.224-.803-1.517.145Zm-5.126 13.578 1.519-.152.078-.794-1.597.946Zm3.223 5.296 1.124 2.07.394-2.225-1.518.155Zm3.481-10.512 1.517-.15.232-.508-1.749.657Zm-6.332 7.43 1.519-.152-.287-1.22-1.232 1.373Zm.893-18.464.375.145 1.144-.29-1.519.145Z"/><path d="m27.47 44.897-.81-1.767-5.98.873 6.79.894Zm4.678-16.042 1.518-.148-.275-.674-1.243.822Zm-.005 5.865-.413.444 1.931-.594-1.518.15Zm-4.045-10.784 1.52-.145-.345-.338-1.175.483Zm-2.27 14.729 1.521-.152.203-.624-1.724.776Zm6.564-9.144 1.518-.148-.243-.666-1.275.814Zm-7.319-6.211-2.299 1.59-1.192 1.132 3.491-2.722Zm7.641 10.421 1.517-.15.15-.536-1.667.686Zm-1.518-7.197.696 1.644.821-1.79-1.517.146Zm-2.331 10.002-.318.221 1.836-.372-1.518.15Zm6.04 14.704 1.516-.157-.956-1.085-.56 1.242Zm-8.233-8.093 1.52-.153-.527-1.476-.993 1.63Zm-2.528 7.925L26.29 54.5l2.155 2.864-4.302-6.29Z"/><path d="m29.109 36.343 1.518-.15 1.115-1.032-2.633 1.182Zm-1.7-12.993.36.246 1.16-.391-1.52.145Zm5.2 6.823 1.517-.148-.206-.654-1.31.802Zm-4.163-5.817 1.519-.145-.332-.421-1.187.566Zm4.411 8.838 1.517-.15.075-.562-1.592.712Zm-6.808 4.842 1.52-.151.29-.482-1.81.633Zm6.426-3.798-.32.478 1.836-.627-1.516.15Zm.297-3.424 1.516-.148-.162-.64-1.354.788Zm.16 1.817 1.517-.149.007-.585-1.523.734Zm-3.823 3.712-.25.192 1.768-.342-1.518.15Zm3.775-4.904 1.516-.148-.112-.625-1.404.773ZM31.34 48.804l1.517-.157-1.223-1.981-.294 2.138Zm1.6-16.758 1.516-.149-.056-.606-1.46.755Zm-7.171 7.41.085.993 1.434-1.146-1.52.153Zm.085.993.287 1.221 1.232-1.373-1.52.152Zm2.913-15.598 1.518-.146-.32-.494-1.198.64Zm3.118 3.326.275.675 1.242-.822-1.517.147Zm-4.116-4.58.345.338 1.174-.484-1.519.145Zm6.172 26.556.956 1.085.56-1.241-1.516.156Zm-8.094-11.492-.079.794 1.598-.946-1.52.151ZM24.23 23.614l-.453.355-1.002.933 1.454-1.288Z"/><path d="m32.705 33.73-.232.508 1.75-.657-1.518.149Zm-6.373 3.825 1.52-.151.338-.367-1.858.518Zm1.136 7.352 1.52-.155-.806-1.759-.714 1.914Zm4.69-16.055.244.666 1.274-.814-1.518.148Zm-5.851 8.695 1.519-11.385-7.146 17.846 5.627-6.46Z"/><path d="m26.139 41.67.527 1.477.994-1.63-1.521.154Zm3.979 5.153 1.224 1.982.295-2.138-1.519.156Zm-1.04-21.415 1.519-.146-.31-.558-1.21.704Zm-3.03 12.629-.203.624 1.724-.776-1.521.152Zm2.066-14.104.332.422 1.188-.567-1.52.145Zm4.747 9.26-.15.537 1.668-.686-1.518.15Zm-.454-3.675.206.655 1.312-.803-1.518.148Zm3.332 22.44 1.516-.157-.836-.718-.68.876Zm-2.802-19.327-.076.562 1.593-.711-1.517.15Zm-.324-2.458.162.64 1.356-.788-1.518.148Zm-7.1-6.825 1.52-.145-.392-.034-1.129.18Zm3.866 2.673 1.52-.146-.302-.613-1.218.76Zm-2.704 11.167 1.52-.151.347-.28-1.867.43Zm-1.569-13.876-.839.302L22.82 24.9l2.286-1.588Zm1.156 31.19 1.072 1.502 1.073 1.36-2.145-2.861Z"/><path d="m32.777 30.815.112.625 1.406-.774-1.518.149Zm.168 1.231-.007.586 1.525-.734-1.518.148Zm-6.608 5.51-.29.482 1.811-.633-1.52.151Zm6.552-6.116.056.606 1.462-.755-1.518.149Zm-4.442-7.085.32.495 1.2-.64-1.52.145Zm1.78 10.957 1.52-.15.413-.445-1.933.595Zm-3.56 7.836.807 1.76.713-1.913-1.52.153Zm3.006-16.468 1.52-.146-.294-.658-1.226.804Zm.554 8.632-1.117 1.033 2.636-1.183-1.52.15Zm2.202 15.002 1.519-.157-1.086-1.506-.433 1.663Zm-6.541-26.82 1.521-.145-.375-.145-1.146.29Zm9.016 27.748.837.719.68-.876-1.517.157ZM27.022 36.91l1.52-.151.318-.222-1.838.373Zm1.746-12.059.31.559 1.21-.704-1.52.145Zm-2.093 12.34-.338.366 1.859-.518-1.521.151Zm1.924 9.79 1.52-.156-1.125-2.07-.395 2.226Zm-3.48-23.665.393.034 1.13-.18-1.523.145Zm5.521 11.552 1.52-.15.32-.478-1.84.628Zm-1.562-9.458.301.613 1.22-.76-1.52.147Zm7.39 26.958 1.516-.158-.726-.406-.79.564ZM30.37 28.325l1.52-.148-.697-1.643-.823 1.79Zm-3.03 8.362 1.52-.151.25-.191-1.77.342Zm.48-10.517-2.745-2.86-3.493 2.726 6.239.134Zm-2.745-2.86-.412.086-.432.217.844-.303Z"/><path d="m26.249 23.741 1.521-.145-.36-.246-1.161.391Zm5.095 25.067 1.086 1.507.433-1.663-1.519.156ZM27.023 36.91l-.347.28 1.868-.431-1.521.15Zm2.357-10.887.294.658 1.226-.804-1.52.146Zm-1.905 18.886 1.124 2.072.396-2.226-1.52.154ZM30.96 34.39l1.52-.15.232-.508-1.752.658Zm-5.448-11.04.376.145 1.146-.29-1.522.145ZM30.646 29l1.52-.148-.275-.675-1.245.823Zm-.005 5.867-.413.445 1.933-.595-1.52.15ZM26.594 24.08l1.522-.145-.346-.339-1.176.484Zm9.148 27.882.727.406.79-.564-1.517.158ZM30.89 29.667l1.52-.147-.244-.667-1.276.814Zm.303 4.215 1.52-.15.15-.536-1.67.686Zm-1.519-7.2.697 1.644.823-1.791-1.52.146ZM27.34 36.687l-.317.222 1.838-.373-1.52.151ZM33.387 51.4l1.518-.158-.956-1.085-.562 1.243Zm3.707 1.117 1.517-.158-.625-.15-.892.308Zm-9.504-16.02 1.521-.151 1.117-1.033-2.638 1.184Zm-1.7-13.002.36.246 1.161-.391-1.521.145Zm5.207 6.828 1.52-.149-.207-.654-1.313.803Zm-4.17-5.821 1.522-.145-.332-.422-1.19.567Zm4.418 8.843 1.52-.15.075-.562-1.595.712Zm-.383 1.045-.32.478 1.84-.628-1.52.15Zm.297-3.426 1.52-.148-.162-.642-1.358.79Zm.162 1.818 1.52-.149.006-.586-1.526.735Zm-3.83 3.715-.25.191 1.771-.342-1.52.15Zm3.78-4.907 1.52-.15-.112-.624-1.407.774Zm-1.546 17.375 1.52-.157-1.224-1.983-.296 2.14Zm1.602-16.769 1.52-.148-.056-.607-1.463.755Z"/><path d="m25.89 23.49-.375-.146-.392-.034.768.18Zm-5.18 20.52 7.725 13.363 8.606 5.745L20.71 44.011ZM27.215 25l1.524-.147-.322-.495-1.202.641Zm3.128 3.33.276.676 1.247-.823-1.523.148Zm-4.129-4.587.346.339 1.178-.485-1.524.146ZM27.49 44.89l-6.78-.892 16.362 19.12-9.581-18.229Zm4.957 5.426.955 1.085.562-1.242-1.517.157ZM31.21 33.885l-.232.508 1.75-.658-1.518.15Zm5.272 18.484.626.15.89-.308-1.516.158Zm-5.819-23.365.244.667 1.275-.814-1.519.147Zm6.979 23.461 1.516-.158-.534.053-.982.105Zm-11.09-28.384-.707-.587-.77-.18 1.477.767Zm2.037 22.891 1.217 1.983.294-2.139-1.511.156Zm-1.036-21.415 1.512-.146-.308-.558-1.204.704ZM26.32 37.549l.334-.367 1.17-11.014-1.504 11.38Zm.249-13.469.332.422 1.19-.567-1.522.146Zm4.753 9.267-.15.537 1.671-.686-1.52.15Z"/><path d="m28.46 57.363 1.08 1.22 1.08 1.078-2.16-2.298Zm2.432-27.694.206.655 1.312-.803-1.518.148Zm3.33 22.447 1.516-.158-.835-.718-.681.876Zm-2.8-19.333-.076.562 1.593-.712-1.517.15Zm-.324-2.46.162.642 1.356-.79-1.518.149Zm-3.232-4.152 1.519-.146-.301-.613-1.218.76Zm3.394 4.794.112.625 1.406-.773-1.518.148Zm-4.602 6.217.342-.28.825-10.734-1.167 11.014Zm4.747-4.982-.006.586 1.527-.735-1.52.149Zm-.056-.607.056.607 1.466-.756-1.522.149Zm-4.448-7.09.32.495 1.203-.641-1.523.146Zm-.349-.423-.347-.339-.36-.247.707.586Zm2.163 11.385 1.52-.15.414-.446-1.934.596Zm-.554-8.636 1.52-.146-.293-.659-1.227.805ZM37.1 52.517l.534-.052.982-.106-1.516.158Zm-8.385-17.052-1.116 1.033 2.636-1.184-1.52.15Z"/><path d="m26.988 36.903.317-.221.517-10.515-.834 10.736Zm.834-10.736-1.26-2.088-1.47-.765 2.73 2.853Zm3.087 24.299 1.517-.157-1.084-1.506-.433 1.663Zm2.473.928.835.719.681-.876-1.516.157Zm-6.13-26.397.31.559 1.208-.705-1.519.146Zm.071 11.686.25-.191 1.12-1.034-1.37 1.225Zm1.802-1.664 1.52-.15.319-.478-1.839.628Zm-1.561-9.461.3.613 1.22-.76-1.52.147Zm7.385 26.966 1.517-.158-.726-.407-.79.565Zm-6.095-24.05 1.52-.147-.696-1.644-.824 1.791Z"/><path d="m27.208 24.997-.32-.495-.333-.422.653.917Zm2.632 23.958 1.087 1.508.435-1.665-1.522.157Zm-1.377 8.408 2.16 2.298 2.16 1.727-4.32-4.025ZM27.84 26.17l.293.658 1.227-.805-1.52.146Zm1.58 8.37 1.52-.15.232-.509-1.752.659Z"/><path d="m27.823 26.17-.613-1.173-.653-.917 1.266 2.09Zm1.313 2.98 1.519-.148-.275-.676-1.244.823Zm-.004 5.868-.413.445 1.931-.596-1.518.15Zm5.095 17.096.726.407.79-.564-1.516.157ZM29.38 29.817l1.518-.148-.243-.666-1.275.814Zm.303 4.215 1.518-.15.15-.537-1.668.687Zm-2.359 2.652 1.368-1.225.735-.924-2.103 2.149Zm.833-9.856.696 1.644.822-1.79-1.518.146Zm3.705 24.722 1.516-.157-.954-1.086-.562 1.243Z"/><path d="m27.823 26.17-.301-.613-.31-.559.611 1.172Zm7.762 26.503 1.517-.158-.626-.15-.891.308ZM29.589 30.47l1.52-.148-.207-.655-1.313.803Zm.248 3.023 1.52-.15.075-.562-1.595.712Zm-.383 1.046-.32.478 1.84-.628-1.52.15Zm.297-3.427 1.52-.149-.163-.641-1.357.79Zm-2.427 5.572 2.557-4.34-2.04-6.174-.517 10.514Z"/><path d="m29.9 32.93 1.516-.15.006-.585-1.521.735Zm-.048-1.193 1.515-.149-.112-.625-1.403.774Zm.056.607 1.514-.15-.055-.606-1.46.756Zm-1.052-3.871.274.675 1.24-.822-1.514.147Zm2.052 21.99.953 1.086.561-1.243-1.514.157Zm-3.584-13.777 2.1-2.148.466-2.195-2.566 4.343Zm2.36-2.655-.232.509 1.751-.659-1.52.15Zm5.272 18.491.625.15.891-.308-1.516.158Zm-5.82-23.373.245.667L30.656 29l-1.52.148Z"/><path d="m30.594 59.664 1.073.934 1.074.79-2.147-1.724ZM28.86 28.473l-.694-1.645-.292-.658.986 2.303Zm-.142 6.987.412-.445.318-.478-.73.923Zm7.402 17.16 1.517-.158-.534.053-.983.105Zm-6.284-19.126-.15.537 1.67-.687-1.52.15Zm-.454-3.679.206.656 1.314-.803-1.52.147Zm3.333 22.46 1.519-.158-.837-.719-.682.877Zm4.359 10.845-8.447-16.15-1.125-2.072 9.572 18.221Z"/><path d="m29.884 32.933-.076.563 1.597-.712-1.521.15Zm-.324-2.461.162.642 1.36-.79-1.522.148Zm-.22-.656-.519-1.342-.99-2.304 1.51 3.646Z"/><path d="m29.722 31.113.112.626 1.41-.775-1.522.149Zm.168 1.233-.006.587 1.529-.736-1.523.15Zm-.056-.607.056.607 1.467-.756-1.523.149Zm.046.606-.537-2.53-1.508-3.645 2.045 6.175Zm5.734 20.328.536-.054.987-.105-1.523.159Z"/><path d="m29.343 29.817-.243-.667-.275-.675.518 1.342Zm2.549 21.733.84.72.684-.878-1.524.158Zm-2.424-17.011.232-.509.15-.537-.382 1.046Zm0 0 .383-1.046.082-1.149-.465 2.195Zm7.589 28.58-7.205-14.16-1.223-1.983 8.428 16.143Zm-3.596-10.441 1.524-.159-.729-.407-.795.566Z"/><path d="m29.764 31.113-.162-.641-.206-.656.368 1.297Zm.168 1.233-.168-1.233-.367-1.297.535 2.53Zm-.082 1.148.075-.562.007-.586-.082 1.148Zm-1.387 23.88 4.303 4.02 4.288 1.725-8.591-5.745Zm1.47-25.028-.056-.607-.113-.626.168 1.233Zm2.816 19.923.728.407.794-.565-1.522.158Zm9.06 10.572 1.518-.163.753-.108-2.271.27Zm-7.705-10.015 1.522-.158-.627-.15-.895.308Z"/><path d="M37.08 63.118 30.946 50.46l-1.087-1.508 7.221 14.165Zm-4.298-1.725 1.077.648 1.076.503-2.153-1.151Zm.696-8.716.627.15.896-.308-1.523.158Zm1.163.097 1.522-.158-.535.053-.987.105Zm7.923 9.96 1.518-.163.697-.175-2.215.338Zm-5.481.386-5.177-11.571-.957-1.086 6.134 12.656Z"/><path d="m42.563 62.733-.753.109 2.271-.272-1.518.163Zm-8.457-9.905.536-.053.986-.106-1.522.159Zm2.979 10.291-4.339-10.851-.837-.72 5.176 11.57Zm5.208-13.793 1.513-.157-.453.017-1.06.14Zm.973 13.234 1.512-.163.636-.228-2.148.391Z"/><path d="m32.792 61.389 2.158 1.154 2.15.576-4.308-1.73Zm10.482 1.168-.697.176 2.218-.34-1.52.164Z"/><path d="m37.086 63.12-3.61-10.444-.727-.407 4.337 10.85Zm5.653-13.716 1.515-.156-.45-.081-1.066.237Zm-.904-.064.454-.017 1.062-.14-1.516.157ZM43.9 62.33l1.515-.162.579-.268-2.094.43Zm-3.599.677 1.516-.163.751-.109-2.267.272Zm-3.214.111-2.984-10.293-.626-.15 3.61 10.443Z"/><path d="m43.188 49.578 1.513-.157-.446-.17-1.067.327Zm.714 12.753-.636.23 2.148-.392-1.512.162Zm-1.61-13.005.45.081 1.064-.238-1.513.157Zm-5.205 13.792-2.448-10.344-.534.053 2.982 10.291Zm-2.142-.573 1.072.36 1.07.213-2.142-.573Z"/><path d="m44.482 62.064 1.516-.162.52-.295-2.036.457Zm-.851-12.236 1.516-.157-.444-.252-1.072.41ZM41.052 62.9l1.518-.163.695-.175-2.213.338Zm1.688-13.495.447.17 1.07-.327-1.517.157Zm1.742 12.66-.58.268 2.096-.431-1.516.162Zm-3.43.835-.751.109 2.269-.272-1.518.163Zm3.02-12.745 1.515-.157-.44-.327-1.076.484Zm.93 11.614 1.516-.162.46-.308-1.976.47Zm-1.815-12.193.444.252 1.072-.41-1.516.158Zm-2.415-.096 1.518-.157-.454.017-1.064.14Zm3.737 1.066 1.516-.157-.438-.392-1.078.55Zm-2.761 12.178 1.517-.162.638-.23-2.155.392Zm3.254-.955-.52.295 2.036-.457-1.516.162Zm.46-.307 1.516-.163.399-.306-1.915.469Zm-1.831-11.634.44.327 1.076-.484-1.516.157Zm-1.883 12.896-.696.176 2.213-.338-1.517.163Zm-5.48-11.326-.222.241-.265.314.487-.555Z"/><path d="m44.942 50.994 1.517-.158-.434-.448-1.083.606Zm-3.723-1.433 1.519-.157-.45-.081-1.069.238Zm4.242 11.902-.46.308 1.977-.47-1.517.162Zm.4-.307 1.516-.162.337-.292-1.853.454Zm-5.546-11.66.454-.017 1.064-.14-1.518.157Zm3.755.658.437.392 1.08-.55-1.517.158Zm-6.219-.146-2.07 1.947-.319.33 2.39-2.277Z"/><path d="m42.384 62.496 1.518-.163.58-.269-2.098.432Zm-3.606.676 1.52-.163.752-.109-2.272.272Zm6.598-11.683 1.517-.157-.432-.497-1.085.654Zm.823 9.374 1.517-.162.274-.264-1.79.426ZM41.667 49.73l1.52-.157-.448-.17-1.072.327Zm.717 12.766-.638.229 2.156-.392-1.518.163ZM37.85 50.009 36.27 51.4l-.49.555 2.07-1.947Zm6.666.542.434.448 1.08-.605-1.514.157Zm1.35 10.606-.398.306 1.911-.468-1.513.162Zm-8.763 1.962.865.067.81-.029-1.675-.038Z"/><path d="m40.771 49.48.45.082 1.069-.238-1.519.157Zm5.035 2.55 1.517-.159-.43-.537-1.087.695Zm.668 8.571 1.517-.162.21-.222-1.727.384Zm-3.509 1.628 1.518-.163.52-.295-2.038.458Zm-1.51-11.377-6.375 1.73-.454.202 6.829-1.932Z"/><path d="m42.112 49.984 1.518-.157-.444-.253-1.074.41Zm2.832 1.009.432.497 1.084-.655-1.516.158Zm1.255 9.87-.337.291 1.853-.454-1.516.162Zm-6.667 2.2 1.52-.163.694-.176-2.214.339Zm1.69-13.503.446.17 1.072-.327-1.519.157Zm-3.369.447-.465.362-1.118 1.033 1.583-1.395Zm3.6.848-5.991 1.434-.382.294 6.373-1.728Zm1.519 11.366-.58.27 2.102-.433-1.522.163Z"/><path d="m37.095 63.124 4.36-12.273-6.812 1.926 2.452 10.347Zm2.435-.059-.752.109 2.273-.272-1.52.163Zm7.157-2.686 1.517-.162 1.013-.928-2.53 1.09Zm-.211.221-.275.264 1.792-.425-1.517.161Zm-3.923-10.29 1.52-.158-.441-.326-1.079.484Zm2.825 1.18.43.537 1.087-.695-1.517.158Zm-8.275 11.632 1.675.039 1.45-.287-3.125.248Z"/><path d="m43.484 61.932 1.519-.162.46-.308-1.979.47ZM41.667 49.73l.444.253 1.075-.41-1.519.157Zm5.17 3.64 1.516-.16-1.03-1.341-.487 1.5Zm-.152 7.008-.21.222 1.727-.384-1.517.162Zm-7.436-10.743 1.52-.157-.454.017-1.066.14ZM42.99 50.7l1.519-.157-.438-.392-1.08.55Zm-2.765 12.19 1.52-.163.639-.23-2.159.392Zm3.26-.957-.521.296 2.039-.458-1.519.162Zm.46-.307 1.518-.163.4-.306-1.918.469ZM42.11 49.983l.441.327 1.078-.484-1.519.157Zm3.695 2.044 1.03 1.342.487-1.5-1.517.158Zm-5.58 10.861-.696.176 2.215-.338-1.52.163Zm7.023-8.964 1.517-.159-.413-.554-1.104.713Zm-3.824-2.774 1.519-.158-.435-.448-1.084.606Zm-1.97-.295-3.6-.847-2.392 2.282 5.992-1.435Zm-1.76-1.138 1.522-.157-.451-.081-1.07.238Zm8.005 9.74 1.518-.162.407-.435-1.925.596Zm-8.921 3.703.754-.108.697-.177-1.45.286Z"/><path d="m43.94 61.623-.46.307 1.978-.47-1.518.163Zm.399-.307 1.518-.163.337-.291-1.855.454ZM38.79 49.65l.454-.017 1.066-.14-1.52.157Zm3.757.657.437.392 1.081-.549-1.519.157Zm-3.776-.657-.458.124-.462.239.92-.363Z"/><path d="m47.628 54.475 1.517-.16-.376-.55-1.141.71Zm.073 4.976-1.014.928 2.531-1.09-1.517.162Zm-6.836 3.21 1.52-.163.58-.27-2.1.432Zm2.995-11.013 1.519-.158-.433-.498-1.086.656Zm4.248 7.369 1.517-.162.295-.451-1.812.613Zm-3.424 2.01 1.518-.162.275-.264-1.793.426Zm-4.536-11.14 1.52-.157-.447-.171-1.073.328Zm6.691 3.483.413.554 1.104-.713-1.517.159Zm-9.736 9.756 3.125-.247 2.204-1.105-5.329 1.352Z"/><path d="m47.959 55.02 1.517-.16-.332-.544-1.185.704Zm-7.095 7.64-.638.23 2.159-.392-1.52.163Zm2.127-11.958.435.449 1.084-.607-1.519.158Zm1.354 10.617-.4.307 1.919-.469-1.519.162ZM39.25 49.635l.45.081 1.07-.238-1.52.157Zm.428.08-.906-.065-.921.364 1.827-.299Z"/><path d="m44.29 52.187 1.519-.159-.43-.537-1.09.696Zm.668 8.578 1.519-.162.21-.222-1.729.384Zm3.282-5.206 1.517-.16-.28-.537-1.237.697Zm.164 3.007 1.517-.16.19-.469-1.707.63Zm-1.152-4.64.376.55 1.142-.71-1.518.16Zm-5.807 8.467 1.52-.162.521-.296-2.041.458Zm-.853-12.251 1.52-.158-.444-.253-1.076.41Zm7.517 8.876-.408.435 1.925-.596-1.517.161Zm.35-2.93 1.518-.16-.22-.529-1.297.69Zm-5.032-4.937.433.498 1.086-.655-1.519.157Zm1.257 9.878-.338.292 1.856-.455-1.518.163Zm3.91-2.931 1.518-.16.093-.484-1.61.644Zm-8.894-8.38.447.17 1.074-.328-1.521.157Zm8.913 6.89 1.517-.16-.153-.52-1.364.68Zm.075 1.007 1.517-.16.004-.498-1.521.658Zm.003-.497 1.518-.16-.079-.51-1.439.67Zm-1.063-2.642.332.545 1.186-.704-1.518.16Zm-6.183 7.917-.58.27 2.1-.432-1.52.162Zm-1.766-12.677-.452-.082-.455.017.907.065Z"/><path d="m45.17 60.542 1.518-.162 1.014-.928-2.532 1.09Zm-.21.222-.275.264 1.793-.426-1.519.162Zm3.444-2.198-.295.452 1.812-.613-1.517.16Zm-7.37-8.097 1.521-.158-.441-.326-1.08.484Zm2.827 1.18.43.538 1.089-.696-1.52.158Zm-1.894 10.448 1.52-.162.46-.308-1.98.47Zm5.994-7.076.28.538 1.237-.697-1.517.159Zm-7.732 7.857.64-.23.58-.269-1.22.5Zm-.096-12.988.444.253 1.078-.411-1.522.157Zm5.178 3.646 1.52-.16-1.031-1.344-.489 1.504Zm-3.858-2.676-1.774-1.147-1.827.298 3.601.849Z"/><path d="m45.17 60.542-.211.222 1.73-.384-1.52.162Zm3.425-2.445-.19.468 1.707-.629-1.517.161Zm-.355-2.539.22.53 1.297-.69-1.517.16Zm-6.768-4.698 1.52-.158-.438-.392-1.082.55Zm.495 11.237-.521.295 2.04-.458-1.52.163Zm6.721-4.483-.093.483 1.61-.644-1.517.16Zm-.228-1.526.153.52 1.364-.68-1.517.16Zm.232 1.029-.004.497 1.52-.657-1.516.16Zm-.079-.51.079.51 1.438-.67-1.517.16Zm-6.186 5.182 1.52-.162.4-.307-1.92.47Zm-1.834-11.648.44.327 1.08-.484-1.52.157Zm3.697 2.045 1.03 1.343.489-1.501-1.519.158ZM40.229 62.88l1.22-.498.982-.604-2.202 1.102Zm5.502-8.791 1.52-.16-.413-.555-1.107.715Zm-5.159-3.947-.445-.254-.448-.171.893.425Z"/><path d="m41.907 51.31 1.52-.158-.435-.448-1.085.606Zm4.274 8.303 1.517-.161.408-.435-1.925.596Zm-3.754 2.175-.46.308 1.979-.47-1.52.162Zm.399-.307 1.52-.162.337-.292-1.857.454ZM41.034 50.47l.438.392 1.082-.55-1.52.158Zm5.074 4.166 1.518-.159-.376-.55-1.142.71Zm.073 4.978-1.013.928 2.53-1.09-1.517.162Zm-9.077 3.516 5.316-1.347 2.937-2.9-8.253 4.247Zm0 0 8.253-4.247-3.892-8.026-4.361 12.273Zm4.361-12.273-.879-.719-.89-.424 1.77 1.143Z"/><path d="m42.341 51.808 1.52-.158-.432-.497-1.088.655Zm4.249 7.371 1.517-.161.296-.452-1.813.613Zm-3.425 2.01 1.52-.162.274-.264-1.794.427Zm-1.715 1.194.52-.296.462-.308-.983.604Zm3.869-8.854.413.555 1.105-.714-1.518.159Zm1.12 1.65 1.518-.16-.332-.544-1.186.704Zm-4.967-4.319.435.449 1.085-.606-1.52.157Zm1.354 10.62-.399.307 1.918-.47-1.519.163Zm-1.373-10.62-.438-.392-.442-.327.88.719Z"/><path d="m42.771 52.345 1.52-.158-.43-.538-1.09.696Zm.669 8.58 1.52-.162.21-.222-1.73.384Zm3.282-5.207 1.518-.16-.28-.537-1.238.697Zm.164 3.008 1.518-.16.19-.469-1.708.63Zm-1.152-4.641.376.55 1.142-.71-1.518.16Zm.857 5.094-.408.434 1.926-.596-1.518.162Zm.35-2.93 1.519-.161-.22-.53-1.298.69Zm-5.032-4.94.432.498 1.088-.655-1.52.158Zm1.256 9.88-.337.293 1.857-.455-1.52.162Zm3.911-2.931 1.518-.161.094-.483-1.612.644Zm.019-1.49 1.518-.16-.153-.52-1.365.68Zm.075 1.007 1.518-.161.003-.497-1.521.658Zm.003-.497 1.518-.161-.078-.509-1.44.67Zm-1.063-2.643.332.545 1.187-.704-1.519.16Zm-2.46 6.068 1.52-.162 1.013-.928-2.532 1.09Zm-.21.222-.275.264 1.794-.426-1.52.162Zm3.446-2.199-.295.453 1.813-.614-1.518.161Zm-4.545-6.919.43.538 1.09-.696-1.52.158Zm4.1 3.373.28.538 1.239-.697-1.518.16Zm-4.01 6.6.4-.306.337-.293-.737.6Zm1.362-8.088 1.52-.16-1.03-1.343-.49 1.503Zm-1.469-1.884-.432-.498-.436-.449.868.947Z"/><path d="m43.654 60.704-.211.222 1.731-.384-1.52.162Zm3.427-2.446-.19.468 1.71-.63-1.52.162Zm-.355-2.54.22.53 1.3-.69-1.52.16Zm-4.294 6.064.737-.6.486-.486-1.223 1.086Z"/><path d="m47.17 57.777-.094.484 1.612-.645-1.519.161Zm-.229-1.527.153.52 1.366-.68-1.519.16Zm.232 1.03-.004.497 1.523-.658-1.52.161Zm-.079-.51.079.51 1.44-.67-1.519.16Zm-4.327-4.425L43.8 53.69l.49-1.503-1.522.158Zm1.445 1.9 1.52-.16-.412-.554-1.108.714Zm-1.044 6.938.275-.264.21-.222-.485.486Zm1.5-1.41 1.523-.162.408-.435-1.93.597Zm-.088-4.977-2.251-2.988-.868-.947 3.119 3.935Z"/><path d="m44.593 54.794 1.517-.159-.376-.55-1.141.71Zm.073 4.978-1.011.928 2.528-1.09-1.517.162Zm-.867-6.085-1.028-1.343-.43-.537 1.458 1.88Zm-1.37 8.096 1.22-1.085 1.711-1.814-2.931 2.9Zm2.643-2.443 1.518-.161.296-.452-1.814.613Zm-1.27-5.65.413.555 1.107-.714-1.52.159Zm1.12 1.65 1.52-.16-.332-.544-1.187.705Zm.28.539 1.52-.16-.28-.538-1.24.698Zm.165 3.009 1.519-.161.19-.469-1.71.63Zm-1.152-4.643.376.55 1.143-.71-1.519.16Zm.366.55-.789-1.106-1.46-1.882 2.25 2.988Z"/><path d="m45.075 59.34-.407.435 1.925-.596-1.518.161Zm.35-2.93 1.52-.161-.22-.53-1.3.69Zm-.067 2.477-.775-4.092-3.115-3.934 3.89 8.026Z"/><path d="m45.559 58.42 1.52-.161.093-.483-1.613.644Zm.018-1.49 1.52-.16-.153-.521-1.367.68Zm.075 1.007 1.52-.161.003-.498-1.523.659Zm.004-.498 1.52-.16-.08-.51-1.44.67Zm-1.064-2.643.332.545 1.188-.705-1.52.16Zm-.938 5.904 1.014-.93.703-.887-1.717 1.816Zm1.716-1.812-.295.452 1.813-.614-1.518.162Zm-.444-3.547.28.538 1.239-.698-1.519.16Zm-.342-.545-.376-.551-.413-.555.79 1.106Z"/><path d="m45.56 58.42-.19.47 1.71-.63-1.52.16Zm-.354-2.54.22.53 1.299-.69-1.52.16Zm-.538 3.892.407-.435.295-.453-.702.888Z"/><path d="m45.654 57.937-.094.484 1.613-.645-1.52.161Zm-.229-1.527.154.52 1.366-.68-1.52.16Zm.232 1.03-.003.497 1.523-.658-1.52.16Zm-.078-.51.078.51 1.442-.67-1.52.16Zm-.376-1.052-.28-.538-.33-.545.61 1.083Zm.163 3.008.209-1.958-.982-2.133.773 4.09Zm.209-1.958-.373-1.05-.61-1.083.983 2.133Zm-.209 1.958.19-.469.094-.483-.283.952Zm0 0 .284-.952-.075-1.006-.209 1.958Zm.209-1.958-.153-.52-.22-.53.373 1.05Zm.075 1.006.003-.497-.078-.51.075 1.007Z"/></g><mask id="g" style="mask-type:alpha" maskUnits="userSpaceOnUse" x="18" y="22" width="33" height="42"><path d="m18.752 34.704.05 1.437.157 1.483-.207-2.92Zm.207 2.92.263 1.528.37 1.573-.633-3.1Zm.015-5.654-.222 2.734.207 2.92.015-5.654Zm0 0-.164 1.344-.058 1.39.223-2.734Zm-.015 5.654.633 3.101 1.06 3.279-1.693-6.38Zm.015-5.654-.015 5.654 1.692 6.38-1.677-12.034Zm.618 8.755.476 1.618.583 1.66-1.06-3.278Zm-.14-10.764-.266.957-.212 1.052.478-2.009ZM28.89 40.15l1.517-.153-.085-.993-1.432 1.146Zm-.084-.994 1.516-.152.08-.795-1.596.947Zm.37 2.214 1.516-.154-.285-1.22-1.231 1.374Zm-.291-3.008 1.516-.153.204-.624-1.72.777Z" fill="#00A2E5"/><path d="m20.082 28.318-.652 1.644-.478 2.009 1.13-3.653Zm9.622 14.525 1.515-.155-.525-1.474-.99 1.629Zm-.613-5.107 1.515-.152.29-.48-1.805.633Z" fill="#00A2E5"/><path d="m20.666 44.005.69 1.704.796 1.747-1.486-3.452Zm-.55-15.687-.342.778-.309.866.651-1.644Zm8.69 10.836.084.994 1.432-1.146-1.516.152Zm.084.994.286 1.22 1.23-1.373-1.516.153Zm-.005-1.788-.08.794 1.596-.947-1.516.153Zm-7.303-12.333-2.608 5.942 1.673 12.033.935-17.975Z" fill="#00A2E5"/><path d="m29.385 37.255 1.515-.152.337-.367-1.852.52Zm1.127 7.346 1.515-.155-.804-1.757-.711 1.912Zm-1.329-3.233.525 1.475.99-1.628-1.515.153Zm-.088-3.631-.203.624 1.719-.776-1.516.152Zm-7.513-11.71-1.496 2.292-1.134 3.654 2.63-5.946Zm6.968-2.959 1.51-.145-.39-.034-1.12.18Zm1.143 13.825 1.51-.152.345-.28-1.855.432Zm-.336.367-.288.48 1.798-.632-1.51.152Zm-8.661 6.744 1.496 3.453 1.924 3.623-3.42-7.076Z" fill="#00A2E5"/><path d="m29.714 42.84.805 1.76.713-1.914-1.518.154Zm-8.886-15.824-.379.61-.366.694.745-1.304Zm8.111-3.803 1.511-.145-.373-.145-1.138.29Zm1.116 13.4 1.51-.152.317-.221-1.827.373Zm-.345.28-.336.367 1.846-.518-1.51.151Zm1.904 9.78 1.51-.157-1.116-2.068-.394 2.224Zm-3.439-23.638.39.034 1.121-.18-1.511.146Zm2.196 13.356 1.51-.151.25-.191-1.76.342ZM29.297 23.46l1.51-.146-.357-.246-1.153.392Zm-7.677 2.57-.748.989-.742 1.303 1.49-2.291Zm.548 21.43.903 1.789 1.01 1.83-1.913-3.62Z" fill="#00A2E5"/><path d="m30.05 36.61-.345.281 1.853-.432-1.509.152Zm-2.675 3.693 1.51-.153-.084-.993-1.426 1.146Zm-.084-.993 1.51-.153.078-.794-1.588.947Zm3.2 5.29 1.116 2.07.392-2.225-1.508.155Zm-2.832-3.077 1.51-.154-.284-1.219-1.226 1.373Zm.903-18.455.373.144 1.136-.29-1.509.146Zm1.073.729 1.509-.146-.343-.338-1.166.484Zm-2.266 14.719 1.51-.153.202-.624-1.712.777Zm-5.788-12.484-.372.457-.38.532.752-.989Z" fill="#00A2E5"/><path d="m30.378 36.391-.317.222 1.828-.373-1.511.151Zm-2.189 6.61 1.513-.155-.524-1.474-.989 1.629Zm2.438-6.801 1.511-.152 1.113-1.032-2.624 1.184Zm-1.683-12.988.358.246 1.154-.391-1.512.145Zm1.032 1.006 1.513-.146-.33-.421-1.183.567Zm-2.399 13.676 1.514-.153.288-.481-1.802.634Zm3.05-1.694-.25.191 1.761-.343-1.511.152Zm2.212 12.454 1.511-.157-1.217-1.98-.294 2.137Zm-5.543-9.342.084.994 1.43-1.146-1.514.153Zm.084.994.285 1.22 1.228-1.373-1.513.153Zm2.915-15.594 1.512-.146-.318-.494-1.194.64Zm-.993-1.254.344.339 1.169-.484-1.513.145Zm-1.927 15.06-.079.794 1.592-.947-1.514.153Zm.491-1.106 1.513-.152.336-.367-1.849.519Zm1.125 7.347 1.513-.155-.802-1.758-.711 1.913Zm-1.326-3.233L28.189 43l.99-1.629-1.514.154Zm-6.955 2.476 3.423 7.077 4.291 6.289-7.713-13.366Z" fill="#00A2E5"/><path d="m31.617 46.669 1.216 1.98.294-2.136-1.51.156Zm-1.017-21.4 1.51-.147-.308-.558-1.202.704ZM27.577 37.89l-.202.624 1.714-.777-1.511.153Zm2.066-14.096.33.42 1.18-.566-1.51.146Zm-7.385 1.541-.323.314-.352.384.675-.698Z" fill="#00A2E5"/><path d="m27.028 23.211 1.518-.146-.392-.033-1.126.18Zm3.857 2.67 1.516-.146-.3-.613-1.216.76Zm-2.709 11.167 1.518-.152.346-.28-1.863.432Zm-.337.367-.29.482 1.808-.634-1.518.152Zm2.117-13.199.32.495 1.196-.641-1.517.146Zm1.767 10.954 1.515-.151.414-.445-1.93.596Zm-8.949-10.269-.515.434-.677.699 1.192-1.133Z" fill="#00A2E5"/><path d="m28.189 43 .8 1.758.71-1.912-1.51.154Zm3.002-16.459 1.51-.147-.291-.657-1.22.804Zm.543 8.626L30.623 36.2l2.62-1.184-1.509.151ZM24.14 51.078l1.07 1.784 1.073 1.643-2.142-3.427Zm9.786-.918 1.512-.158-1.08-1.505-.432 1.663ZM27.43 23.356l1.515-.146-.374-.145-1.141.29Zm1.118 13.408 1.515-.152.317-.222-1.832.374ZM30.3 24.71l.308.558 1.205-.704-1.513.146Zm-4.466 15.73-.084-.995-5.07 4.568 5.154-3.573Zm.287 1.222-.287-1.222-5.154 3.573 5.44-2.35Zm-.371-2.217.079-.796-5.15 5.364 5.07-4.568Zm2.434-2.405-.338.368 1.862-.521-1.524.152Zm-5.411-12.137-.232.185-.283.248.515-.433Zm7.326 21.924 1.514-.156-1.12-2.07-.394 2.226Zm-3.447-23.651.392.034 1.124-.18-1.515.146Zm5.49 11.543 1.513-.15.319-.478-1.832.628Z" fill="#00A2E5"/><path d="m25.827 38.65.203-.625-5.35 5.988 5.147-5.363Zm4.746-13.375.302.614 1.22-.761-1.522.147Zm-2.748.887-6.202-.13-.944 17.983 7.146-17.853Zm-1.201 16.98-.525-1.475-5.42 2.348 5.945-.872Zm5.265-14.959 1.512-.148-.693-1.642-.82 1.79Zm-3.023 8.36 1.513-.152.25-.191-1.763.342Zm-1.076-12.94 1.514-.146-.358-.246-1.156.392Zm5.05 25.05 1.08 1.505.432-1.663-1.511.157Z" fill="#00A2E5"/><path d="m26.03 38.026.29-.482-5.64 6.47 5.35-5.988Zm2.506-1.263-.346.28 1.86-.431-1.514.151Zm-2.686 3.695 1.517-.153-.084-.993-1.433 1.146Zm5.043-14.578.292.658 1.222-.805-1.514.147Zm-5.127 13.585 1.517-.154.078-.794-1.595.947Zm3.213 5.294 1.12 2.07.395-2.226-1.515.156Zm3.483-10.516 1.513-.15.231-.51-1.745.66Zm-6.326 7.436 1.516-.154-.285-1.22-1.231 1.374Zm.907-18.468.374.144 1.141-.29-1.515.146Z" fill="#00A2E5"/><path d="m27.468 44.903-.808-1.77-5.98.878 6.788.892Zm4.678-16.044 1.516-.149-.274-.674-1.242.823Zm-.01 5.866-.413.445 1.93-.596-1.517.151Zm-4.03-10.784 1.518-.146-.345-.338-1.173.485Zm-2.279 14.734 1.52-.153.203-.624-1.723.777Zm6.562-9.15 1.516-.149-.243-.666-1.273.815Zm-7.316-6.211-2.299 1.593-1.192 1.133 3.49-2.726Zm7.644 10.419 1.514-.15.151-.536-1.665.686Zm-1.51-7.197.694 1.644.821-1.79-1.515.146Zm-2.335 10.005-.317.222 1.833-.374-1.516.152Zm6.017 14.704 1.514-.158-.953-1.084-.56 1.242Zm-8.21-8.09L28.195 43l-.526-1.475-.992 1.63Zm-2.531 7.923 2.142 3.427 2.15 2.863-4.293-6.29Z" fill="#00A2E5"/><path d="m29.112 36.35 1.516-.151 1.113-1.033-2.629 1.184Zm-1.685-12.995.359.246 1.157-.392-1.516.146Zm5.184 6.822 1.514-.149-.205-.654-1.309.803Zm-4.15-5.816 1.516-.146-.331-.421-1.185.567Zm4.395 8.837 1.514-.15.076-.563-1.59.713Zm-6.798 4.847 1.516-.152.29-.482-1.806.634Zm6.415-3.802-.319.478 1.833-.629-1.514.15Zm.3-3.425 1.513-.15-.161-.64-1.352.79Zm.159 1.817 1.514-.15.007-.585-1.521.735Zm-3.82 3.715-.249.191 1.765-.342-1.516.151Zm3.772-4.907 1.514-.15-.112-.624-1.402.774Zm-1.555 17.368 1.514-.157-1.219-1.981-.295 2.138Zm1.61-16.761 1.514-.15-.055-.606-1.459.756Zm-7.163 7.415.084.994 1.433-1.147-1.517.153Zm.084.994.285 1.22 1.232-1.374-1.517.154Zm2.92-15.603 1.516-.147-.32-.494-1.196.64Zm3.11 3.325.274.675 1.24-.823-1.514.148Zm-4.104-4.58.344.339 1.172-.485-1.516.146Zm6.138 26.559.953 1.084.56-1.242-1.513.158Zm-8.07-11.49-.078.795 1.595-.948-1.516.152Zm-1.626-15.053-.452.356-1.003.934 1.455-1.29Z" fill="#00A2E5"/><path d="m32.703 33.732-.232.508 1.748-.659-1.516.15Zm-6.366 3.83 1.518-.153.337-.367-1.855.52Zm1.128 7.352 1.518-.155-.804-1.76-.714 1.915Zm4.696-16.061.243.666 1.273-.815-1.516.149ZM26.3 37.55l1.525-11.388-7.145 17.853 5.62-6.464Z" fill="#00A2E5"/><path d="m26.143 41.68.526 1.477.992-1.63-1.518.154Zm3.969 5.151 1.22 1.983.296-2.139-1.516.156ZM29.09 25.413l1.518-.147-.31-.559-1.208.706Zm-3.035 12.633-.203.624 1.722-.777-1.519.153Zm2.075-14.108.331.421 1.186-.567-1.517.146Zm4.731 9.26-.15.536 1.666-.687-1.516.15Zm-.45-3.677.205.655 1.31-.803-1.515.148Zm3.308 22.444 1.514-.158-.834-.718-.68.876Zm-2.782-19.33-.076.562 1.592-.712-1.516.15Zm-.32-2.459.16.641 1.355-.79-1.516.15Zm-7.084-6.822 1.518-.146-.391-.034-1.128.18Zm3.857 2.672 1.518-.148-.3-.612-1.218.76Zm-2.708 11.17 1.518-.152.346-.28-1.864.432Zm-1.56-13.882-.837.303-1.443 1.287 2.28-1.59Zm1.127 31.194 1.067 1.5 1.069 1.36-2.136-2.86Z" fill="#00A2E5"/><path d="m32.78 30.816.112.625 1.404-.774-1.516.15Zm.167 1.232-.007.586 1.523-.736-1.516.15Zm-6.602 5.515-.29.482 1.809-.634-1.519.152Zm6.547-6.122.055.607 1.46-.756-1.515.15Zm-4.43-7.083.32.494 1.198-.64-1.517.146Zm1.768 10.958 1.518-.15.413-.446-1.93.596Zm-3.56 7.84.803 1.76.715-1.914-1.519.154Zm3.015-16.474 1.517-.147-.292-.658-1.225.805Zm.545 8.634-1.115 1.034 2.633-1.185-1.518.151Zm2.187 15.005 1.517-.158-1.083-1.506-.434 1.664Zm-6.51-26.824 1.52-.146-.375-.145-1.144.291Zm8.98 27.75.835.719.68-.877-1.514.159ZM27.03 36.916l1.519-.152.317-.222-1.836.374Zm1.753-12.063.31.56 1.208-.706-1.518.146Zm-2.1 12.344-.337.367 1.856-.52-1.519.153Zm1.913 9.792 1.518-.157-1.121-2.07-.397 2.227Zm-3.454-23.67.392.034 1.127-.18-1.52.146Zm5.503 11.553 1.517-.151.32-.478-1.837.629Zm-1.552-9.46.3.613 1.218-.76-1.518.147Zm7.356 26.96 1.514-.158-.725-.406-.79.565ZM30.38 28.328l1.517-.148-.694-1.644-.823 1.792Zm-3.033 8.366 1.52-.152.249-.191-1.769.343Zm.471-10.519-2.742-2.861-3.494 2.73 6.236.131Zm-2.742-2.861-.412.087-.432.217.844-.304Z" fill="#00A2E5"/><path d="m26.268 23.747 1.52-.146-.36-.246-1.16.392Zm5.068 25.07 1.083 1.507.434-1.664-1.517.157Zm-4.305-11.899-.347.28 1.865-.432-1.518.152Zm2.363-10.89.292.658 1.226-.806-1.518.147ZM27.475 44.92l1.122 2.071.397-2.227-1.519.155Zm3.49-10.524 1.518-.15.232-.51-1.75.66Zm-5.43-11.04.374.144 1.145-.29-1.52.146Zm5.12 5.65 1.517-.149-.274-.675-1.243.823Zm-.01 5.868-.413.446 1.93-.597-1.517.151Zm-4.032-10.788 1.52-.146-.345-.339-1.175.485Zm9.111 27.883.726.406.79-.564-1.516.158Zm-4.826-22.297 1.517-.149-.242-.666-1.275.815Zm.3 4.215 1.517-.15.15-.537-1.668.687Zm-1.512-7.201.695 1.644.823-1.792-1.518.148Zm-2.338 10.01-.317.222 1.836-.374-1.52.152Zm6.025 14.713 1.517-.158-.954-1.085-.563 1.243Zm3.701 1.116 1.515-.16-.624-.148-.89.308Zm-9.476-16.02 1.518-.152 1.116-1.033-2.634 1.185ZM25.909 23.5l.36.247 1.16-.392-1.52.145Zm5.194 6.827 1.518-.149-.206-.655-1.312.804Zm-4.158-5.82 1.52-.146-.332-.421-1.188.567Zm4.404 8.843 1.517-.15.076-.563-1.593.713Zm-.384 1.046-.32.478 1.838-.629-1.518.151Zm.3-3.427 1.517-.15-.161-.64-1.356.79Zm.16 1.818 1.517-.15.007-.586-1.524.736Zm-3.827 3.718-.25.191 1.768-.343-1.518.152Zm3.778-4.91 1.518-.15-.112-.626-1.406.775Zm-1.558 17.38 1.518-.158-1.221-1.982-.297 2.14ZM31.432 32.2l1.517-.15-.055-.606-1.462.756Z" fill="#00A2E5"/><path d="m25.913 23.491-.375-.145-.392-.034.767.179Zm-5.19 20.53 7.7 13.36 8.588 5.742L20.723 44.02Zm6.494-19.018 1.523-.147-.32-.495-1.203.642Zm3.123 3.332.275.676 1.247-.825-1.522.149Zm-4.122-4.588.346.339 1.177-.486-1.523.147Zm1.281 21.145-6.773-.888 16.332 19.12-9.559-18.232Zm4.943 5.431.953 1.085.562-1.243-1.515.158Zm-1.22-16.434-.232.509 1.748-.66-1.516.151Zm5.247 18.485.624.15.89-.309-1.514.16Zm-5.79-23.366.244.667 1.273-.815-1.516.148Zm6.948 23.462 1.513-.159-.533.053-.98.106ZM26.55 24.085l-.706-.587-.77-.18 1.476.767Z" fill="#00A2E5"/><path d="m28.582 46.978 1.21 1.983.295-2.139-1.505.156Zm-1.015-21.415 1.506-.147-.306-.558-1.2.705ZM26.32 37.555l.332-.367 1.174-11.015-1.506 11.382Zm.256-13.468.332.421 1.19-.568-1.522.146Zm4.741 9.267-.151.537 1.67-.688-1.519.15ZM28.46 57.37l1.079 1.22 1.078 1.077-2.156-2.298Zm2.441-27.699.205.655 1.31-.803-1.515.148Zm3.304 22.45 1.514-.16-.834-.717-.68.877Zm-2.778-19.335-.076.563 1.59-.713-1.514.15Zm-.321-2.46.161.642 1.354-.79-1.515.148Zm-3.222-4.15 1.516-.148-.3-.613-1.216.76Zm3.383 4.792.112.625 1.403-.774-1.515.149Zm-4.609 6.22.34-.28.829-10.734-1.169 11.014Zm4.742-4.982-.007.587 1.527-.737-1.52.15Zm-.055-.607.055.607 1.465-.757-1.52.15Zm-4.439-7.09.32.495 1.202-.642-1.522.147Zm-.356-.423-.346-.34-.36-.246.706.586Zm2.176 11.384 1.518-.151.413-.445-1.931.596Zm-.546-8.637 1.518-.147-.292-.658-1.226.805Zm8.903 25.69.533-.054.98-.106-1.513.16ZM28.726 35.47l-1.116 1.034 2.634-1.185-1.518.151Z" fill="#00A2E5"/><path d="m26.98 36.91.316-.222.524-10.516-.84 10.737Zm.84-10.738-1.255-2.088-1.463-.764 2.718 2.852Zm3.08 24.302 1.514-.158-1.08-1.506-.435 1.664Zm2.466.927.833.718.68-.876-1.513.158Zm-6.095-26.398.308.558 1.208-.705-1.516.147Zm.052 11.687.25-.192 1.118-1.035-1.368 1.227Zm1.811-1.666 1.516-.151.32-.479-1.836.63Zm-1.55-9.462.3.613 1.216-.76-1.517.147Zm7.348 26.966 1.515-.158-.725-.407-.79.565Zm-6.063-24.05 1.517-.148-.694-1.644-.823 1.792Z" fill="#00A2E5"/><path d="m27.206 25.003-.32-.495-.331-.422.651.917Zm2.634 23.956 1.086 1.508.436-1.666-1.522.158Zm-1.374 8.411 2.157 2.297 2.157 1.727-4.314-4.025Zm-.621-31.195.292.659 1.226-.806-1.518.147Zm1.57 8.372 1.518-.151.233-.51-1.75.66Z" fill="#00A2E5"/><path d="m27.82 26.175-.61-1.172-.652-.917 1.262 2.09Zm1.332 2.98 1.515-.149-.273-.675-1.242.824Zm-.01 5.87-.412.445 1.928-.597-1.515.152Zm5.07 17.096.724.407.79-.566-1.513.16Zm-4.818-22.3 1.516-.148-.243-.666-1.273.815Zm.3 4.216 1.515-.15.15-.537-1.666.687Zm-2.371 2.652 1.369-1.226.734-.925-2.103 2.15Zm.852-9.855.692 1.644.821-1.792-1.513.148Zm3.674 24.723 1.513-.159-.951-1.084-.562 1.243Zm-4.028-25.383-.3-.613-.31-.559.61 1.172Z" fill="#00A2E5"/><path d="m35.57 52.68 1.514-.16-.624-.149-.89.308Zm-5.967-22.203 1.517-.149-.205-.655-1.312.804Zm.245 3.024 1.517-.15.076-.563-1.593.713Zm-.383 1.046-.319.478 1.836-.629-1.517.15Zm.3-3.428 1.516-.15-.161-.641-1.355.79Zm-2.442 5.572 2.553-4.342-2.03-6.174-.523 10.516Z" fill="#00A2E5"/><path d="m29.908 32.935 1.51-.15.008-.585-1.518.735Zm-.048-1.192 1.51-.15-.11-.625-1.4.775Zm.056.607 1.51-.15-.055-.607-1.455.756Zm-1.046-3.871.273.675 1.237-.823-1.51.148Zm2.028 21.99.95 1.086.56-1.243-1.51.158ZM27.324 36.69l2.099-2.148.467-2.196-2.566 4.345Zm2.371-2.652-.232.509 1.748-.66-1.516.15Zm5.246 18.49.624.15.89-.308-1.514.159Zm-5.788-23.373.243.667 1.274-.816-1.517.149Zm1.426 30.515 1.07.934 1.068.79-2.138-1.723Zm-1.702-31.192-.69-1.644-.29-.658.98 2.302Zm-.147 6.989.411-.446.318-.478-.729.924Z" fill="#00A2E5"/><path d="m36.105 52.627 1.515-.16-.533.054-.982.106ZM29.85 33.5l-.151.538 1.668-.688-1.517.15Zm-.45-3.679.205.656 1.312-.805-1.518.15Zm3.308 22.462 1.516-.159-.834-.718-.682.877Zm4.352 10.84-8.422-16.149-1.122-2.072 9.544 18.221Z" fill="#00A2E5"/><path d="m29.883 32.938-.076.563 1.596-.713-1.52.15Zm-.322-2.462.162.642 1.358-.791-1.52.149Zm-.223-.656-.517-1.343-.987-2.303 1.504 3.646Z" fill="#00A2E5"/><path d="m29.723 31.117.111.626 1.41-.775-1.521.149Zm.167 1.234-.007.587 1.529-.737-1.522.15Zm-.056-.608.056.608 1.466-.758-1.522.15Zm.041.607-.534-2.53-1.502-3.646 2.036 6.175Zm5.739 20.33.536-.054.987-.107-1.523.16Zm-6.271-22.86-.243-.666-.274-.675.517 1.342Zm2.549 21.734.838.72.685-.879-1.523.16Z" fill="#00A2E5"/><path d="m29.488 34.543.231-.509.15-.537-.381 1.046Zm0 0 .382-1.046.083-1.149-.465 2.195Zm7.547 28.58-7.177-14.158-1.218-1.983 8.395 16.14ZM33.46 52.685l1.524-.16-.728-.408-.795.568Z" fill="#00A2E5"/><path d="m29.785 31.12-.161-.643-.205-.655.366 1.297Zm.166 1.232-.166-1.233-.366-1.297.532 2.53Zm-.083 1.149.076-.563.007-.586-.083 1.149Zm-1.403 23.884 4.29 4.018 4.275 1.722-8.565-5.74Zm1.486-25.033-.055-.607-.111-.626.166 1.233Zm2.805 19.923.727.407.795-.566-1.522.159Zm9.045 10.573 1.518-.164.753-.109-2.27.273Zm-7.69-10.017 1.52-.159-.626-.15-.895.31Z" fill="#00A2E5"/><path d="m37.07 63.124-6.116-12.657-1.084-1.508 7.2 14.165ZM32.778 61.4l1.076.648 1.074.503-2.15-1.15Zm.707-8.717.627.15.895-.309-1.522.16Zm1.162.096 1.521-.159-.535.053-.986.106Zm7.909 9.962 1.518-.164.696-.176-2.214.34Zm-5.483.382-5.16-11.57-.955-1.086 6.115 12.656Z" fill="#00A2E5"/><path d="m42.556 62.738-.752.109 2.27-.273-1.518.164Zm-8.442-9.906.535-.053.986-.107-1.521.16Zm2.961 10.292-4.323-10.85-.835-.72 5.158 11.57Zm5.226-13.794 1.51-.158-.452.018-1.058.14Zm.96 13.235 1.509-.163.635-.23-2.144.393Z" fill="#00A2E5"/><path d="m32.793 61.395 2.156 1.155 2.15.575-4.306-1.73Zm10.481 1.168-.697.177 2.217-.342-1.52.165Z" fill="#00A2E5"/><path d="M37.078 63.123 33.482 52.68l-.725-.407 4.321 10.85Zm5.668-13.716 1.512-.157-.449-.081-1.063.238Zm-.902-.063.453-.018 1.06-.14-1.513.158Zm2.05 12.992 1.513-.164.578-.269-2.09.433Zm-3.593.678 1.514-.164.75-.11-2.264.274Zm-3.221.11L34.11 52.83l-.625-.15 3.595 10.443Z" fill="#00A2E5"/><path d="m43.194 49.582 1.51-.158-.445-.17-1.065.328Zm.702 12.754-.635.23 2.144-.393-1.51.163ZM42.3 49.33l.448.08 1.062-.238-1.51.158Zm-5.22 13.794L34.646 52.78l-.533.053 2.967 10.292Zm-2.137-.572 1.07.358 1.067.214-2.137-.572Z" fill="#00A2E5"/><path d="m44.477 62.071 1.513-.163.52-.295-2.033.458Zm-.84-12.238 1.514-.158-.443-.252-1.071.41ZM41.05 62.909l1.516-.163.694-.176-2.21.34Zm1.697-13.5.446.171 1.068-.328-1.514.157Zm1.729 12.662-.58.27 2.093-.433-1.514.163Zm-3.426.838-.75.11 2.266-.273-1.516.163Zm3.025-12.75L45.59 50l-.44-.326-1.074.484Zm.92 11.617 1.514-.163.46-.308-1.974.47ZM43.194 49.58l.443.253 1.071-.41-1.514.157Zm-2.412-.094 1.516-.158-.453.018-1.063.14Zm3.73 1.064 1.515-.158-.437-.391-1.077.55Zm-2.766 12.183 1.515-.163.637-.23-2.152.393Zm3.25-.957-.52.295 2.034-.458-1.514.163Zm.46-.308 1.513-.163.399-.307-1.912.47Zm-1.82-11.635.44.326 1.075-.484-1.514.158Zm-1.89 12.9-.695.176 2.21-.34-1.515.164Zm-5.478-11.33-.222.242-.266.314.488-.556Z" fill="#00A2E5"/><path d="m44.945 50.996 1.516-.159-.434-.448-1.082.607Zm-3.718-1.432 1.518-.158-.45-.08-1.068.238Zm4.228 11.904-.46.308 1.975-.471-1.515.163Zm.399-.307 1.515-.163.337-.292-1.852.455Zm-5.53-11.66.454-.018 1.063-.14-1.517.157Zm3.75.655.437.392 1.079-.55-1.516.158Zm-6.224-.146-2.07 1.95-.319.33 2.39-2.28Z" fill="#00A2E5"/><path d="m42.38 62.502 1.516-.163.58-.27-2.097.433Zm-3.603.679 1.518-.164.752-.11-2.27.274Zm6.6-11.69 1.515-.159-.43-.497-1.085.656Zm.814 9.376 1.515-.163.275-.264-1.79.427Zm-4.517-11.134 1.517-.158-.446-.17-1.07.328Zm.705 12.77-.637.229 2.154-.393-1.517.163Zm-4.528-12.491-1.581 1.393-.49.556 2.071-1.95Zm6.673.543.433.448 1.077-.606-1.51.158Zm1.338 10.607-.398.306 1.907-.47-1.509.164Zm-8.759 1.963.865.067.81-.03-1.675-.037Z" fill="#00A2E5"/><path d="m40.78 49.484.45.081 1.067-.238-1.517.157Zm5.027 2.547 1.515-.158-.429-.538-1.086.696Zm.66 8.574 1.514-.162.211-.222-1.725.384Zm-3.507 1.63 1.517-.163.52-.295-2.037.459Zm-1.506-11.382-6.374 1.736-.455.202 6.83-1.938Z" fill="#00A2E5"/><path d="m42.12 49.989 1.516-.158-.443-.253-1.073.41Zm2.827 1.008.43.496 1.085-.655-1.515.158Zm1.245 9.871-.337.293 1.852-.456-1.515.163Zm-6.66 2.205 1.518-.164.694-.176-2.212.34Zm1.698-13.508.447.171 1.07-.329-1.517.158Zm-3.376.445-.466.363-1.117 1.034 1.583-1.397Zm3.599.846-5.991 1.44-.382.294 6.373-1.734Zm1.519 11.371-.581.271 2.102-.435-1.52.164Z" fill="#00A2E5"/><path d="m37.09 63.13 4.364-12.278-6.804 1.93 2.44 10.348Zm2.439-.056-.752.11 2.27-.274-1.518.164Zm7.151-2.691 1.516-.163 1.013-.928-2.529 1.09Zm-.21.222-.275.264 1.79-.427-1.516.163Zm-3.91-10.293 1.517-.158-.44-.326-1.078.484Zm2.82 1.179.429.537 1.087-.696-1.516.159Zm-8.277 11.637 1.674.037 1.451-.288-3.125.25Z" fill="#00A2E5"/><path d="m43.48 61.939 1.517-.164.46-.308-1.977.472Zm-1.805-12.206.443.253 1.075-.411-1.518.158Zm5.16 3.637 1.516-.16-1.028-1.34-.487 1.5Zm-.156 7.012-.211.222 1.726-.385-1.515.163Zm-7.42-10.743 1.52-.158-.454.017-1.066.14Zm3.737 1.065 1.517-.159-.437-.391-1.08.55Zm-2.772 12.193 1.519-.164.637-.23-2.156.394Zm3.256-.958-.52.295 2.037-.459-1.517.164Zm.46-.309 1.517-.163.4-.307-1.917.47Zm-1.822-11.644.44.326 1.078-.484-1.518.158Zm3.69 2.042 1.028 1.342.487-1.5-1.515.158Zm-5.584 10.869-.695.176 2.213-.34-1.518.164Zm7.024-8.972 1.515-.16-.412-.554-1.103.714Zm-3.818-2.773 1.517-.158-.434-.449-1.083.607Zm-1.978-.295-3.598-.846-2.393 2.286 5.991-1.44Zm-1.75-1.136 1.52-.158-.45-.08-1.07.238Zm7.99 9.74 1.518-.162.407-.435-1.924.597Zm-8.914 3.704.754-.11.697-.176-1.451.286Z" fill="#00A2E5"/><path d="m43.933 61.627-.46.309 1.977-.472-1.517.163Zm.4-.307 1.516-.163.337-.292-1.854.455ZM38.8 49.655l.454-.018 1.065-.14-1.519.158Zm3.752.656.437.391 1.08-.55-1.517.159Zm-3.782-.657-.457.124-.462.24.92-.364Z" fill="#00A2E5"/><path d="m47.626 54.478 1.516-.16-.375-.55-1.14.71Zm.069 4.979-1.013.928 2.529-1.09-1.516.162Zm-6.831 3.214 1.518-.164.58-.269-2.099.433Zm3-11.019 1.518-.159-.432-.497-1.086.656Zm4.238 7.37 1.516-.162.295-.453-1.81.615Zm-3.423 2.013 1.518-.163.274-.265-1.792.428Zm-4.521-11.142 1.519-.158-.447-.17-1.072.328Zm6.681 3.48.412.555 1.104-.714-1.516.16Zm-9.736 9.76 3.124-.25 2.204-1.107-5.328 1.357Z" fill="#00A2E5"/><path d="m47.955 55.021 1.516-.16-.33-.545-1.186.705Zm-7.093 7.648-.639.23 2.157-.394-1.519.164Zm2.134-11.965.434.449 1.084-.607-1.518.158Zm1.344 10.621-.4.307 1.917-.47-1.517.163ZM39.258 49.64l.45.081 1.07-.239-1.52.158Zm.42.078-.907-.064-.92.365 1.827-.3Z" fill="#00A2E5"/><path d="m44.293 52.191 1.518-.159-.43-.538-1.088.697Zm.66 8.581 1.518-.163.211-.222-1.728.385Zm3.284-5.21 1.516-.16-.28-.538-1.236.699Zm.161 3.01 1.516-.163.19-.468-1.706.63Zm-1.147-4.643.376.55 1.14-.71-1.516.16Zm-5.809 8.475 1.52-.164.52-.296-2.04.46ZM40.6 50.147l1.52-.158-.444-.253-1.076.411Zm7.503 8.877-.408.434 1.924-.597-1.516.163Zm.353-2.932 1.516-.16-.22-.53-1.296.69Zm-5.024-4.936.432.497 1.086-.656-1.518.159Zm1.247 9.88-.337.293 1.855-.456-1.518.163Zm3.91-2.934 1.516-.161.094-.484-1.61.645Zm-8.88-8.379.447.171 1.073-.329-1.52.158Zm8.9 6.89 1.516-.162-.153-.52-1.363.682Zm.074 1.006 1.516-.162.004-.496-1.52.658Zm.004-.497 1.516-.161-.078-.51-1.438.67Zm-1.06-2.642.33.545 1.186-.705-1.516.16Zm-6.185 7.924-.58.27 2.1-.434-1.52.164ZM39.678 49.72l-.452-.082-.455.017.907.065Z" fill="#00A2E5"/><path d="m45.166 60.55 1.517-.163 1.013-.929-2.53 1.092Zm-.21.222-.275.264 1.791-.427-1.517.163Zm3.443-2.201-.296.452 1.811-.614-1.515.162Zm-7.356-8.096 1.519-.159-.44-.326-1.08.485Zm2.822 1.179.43.538 1.088-.697-1.518.159Zm-1.9 10.453 1.519-.163.46-.308-1.979.471Zm5.993-7.082.28.538 1.236-.698-1.516.16Zm-7.73 7.86.64-.23.58-.27-1.22.5Zm-.093-12.991.445.253 1.077-.412-1.522.159Zm5.174 3.646 1.52-.16-1.03-1.345-.49 1.505Zm-3.857-2.674-1.772-1.148-1.827.3 3.6.848Z" fill="#00A2E5"/><path d="m45.166 60.55-.21.222 1.727-.386-1.517.163Zm3.424-2.448-.19.469 1.706-.63-1.516.16Zm-.352-2.54.22.53 1.296-.69-1.516.16Zm-6.758-4.697 1.52-.158-.438-.392-1.082.55Zm.485 11.242-.52.296 2.039-.46-1.52.164Zm6.719-4.489-.094.484 1.61-.645-1.516.161Zm-.227-1.526.153.52 1.363-.681-1.516.16Zm.23 1.03-.003.496 1.52-.658-1.516.161Zm-.077-.51.078.51 1.438-.671-1.516.161Zm-6.185 5.187 1.52-.163.398-.308-1.918.47Zm-1.823-11.652.44.327 1.08-.485-1.52.158Zm3.692 2.044 1.03 1.343.488-1.502-1.518.159Zm-4.065 10.696 1.22-.5.982-.605-2.202 1.105Zm5.501-8.791 1.52-.16-.412-.557-1.108.717Zm-5.159-3.95-.444-.254-.448-.171.892.425Z" fill="#00A2E5"/><path d="m41.914 51.316 1.518-.159-.434-.448-1.084.607Zm4.261 8.303 1.517-.163.407-.434-1.923.597Zm-3.75 2.178-.46.308 1.977-.471-1.518.163Zm.398-.307 1.518-.163.337-.293-1.855.456Zm-1.78-11.015.437.392 1.08-.55-1.517.158Zm5.064 4.165 1.516-.16-.375-.55-1.141.71Zm.069 4.979-1.013.929 2.529-1.092-1.517.163Zm-9.073 3.52 5.31-1.35 2.936-2.904-8.246 4.254Zm0 0 8.246-4.254-3.88-8.026-4.366 12.28Zm4.366-12.28-.877-.718-.89-.424 1.767 1.142Zm.88.953 1.517-.159-.43-.497-1.087.656Zm4.237 7.371 1.516-.162.295-.452-1.811.614Zm-3.422 2.013 1.517-.163.275-.264-1.792.427Zm-1.715 1.192.52-.297.462-.308-.982.605Z" fill="#00A2E5"/><path d="m45.32 53.533.412.555 1.105-.714-1.517.16Zm1.118 1.65 1.516-.16-.33-.545-1.186.706Zm-4.957-4.317.434.449L43 50.708l-1.518.158Zm1.343 10.622-.399.307 1.917-.47-1.518.163Zm-1.371-10.622-.438-.393-.44-.326.878.719Z" fill="#00A2E5"/><path d="m42.777 52.351 1.518-.16-.429-.537-1.09.697Zm.66 8.583 1.519-.163.21-.223-1.728.386Zm3.283-5.21 1.517-.162-.28-.537-1.237.698Zm.162 3.008 1.516-.162.19-.468-1.706.63Zm-1.147-4.643.376.551 1.141-.71-1.517.16Zm.852 5.096-.408.434 1.924-.597-1.516.163Zm.353-2.932 1.516-.161-.22-.53-1.296.691Zm-5.023-4.937.431.497 1.087-.656-1.518.159Zm1.246 9.882-.337.292 1.855-.455-1.517.163Zm3.91-2.935 1.516-.161.093-.484-1.61.645Zm.02-1.49 1.516-.161-.153-.52-1.364.681Zm.073 1.007 1.517-.162.004-.497-1.52.659Zm.004-.497 1.517-.162-.078-.509-1.439.67Zm-1.06-2.643.331.545 1.186-.705-1.517.16Zm-2.461 6.071 1.517-.163 1.013-.928-2.53 1.091Zm-.211.223-.275.264 1.793-.427-1.518.163Zm3.444-2.202-.295.453 1.811-.615-1.516.162Zm-4.534-6.919.429.538 1.09-.697-1.519.16Zm4.093 3.372.28.538 1.237-.698-1.517.16Zm-4.011 6.602.4-.307.337-.293-.736.6Zm1.363-8.091 1.52-.16-1.03-1.343-.49 1.503Zm-1.469-1.884-.432-.498-.435-.449.867.947Z" fill="#00A2E5"/><path d="m43.654 60.71-.21.223 1.73-.386-1.52.163Zm3.427-2.449-.19.47 1.708-.632-1.518.162Zm-.353-2.541.22.53 1.298-.691-1.518.16Zm-4.298 6.069.738-.6.486-.487-1.223 1.087Z" fill="#00A2E5"/><path d="m47.166 57.784-.093.484 1.611-.646-1.518.162Zm-.226-1.528.152.52 1.366-.681-1.518.16Zm.23 1.03-.004.498 1.523-.66-1.519.162Zm-.078-.51.078.51 1.44-.67-1.518.16Zm-4.32-4.425 1.03 1.345.49-1.504-1.52.16Zm1.442 1.9 1.52-.16-.413-.555-1.107.715Zm-1.046 6.936.274-.264.21-.223-.484.487Zm1.5-1.407 1.522-.163.408-.436-1.93.6Zm-.092-4.98-2.246-2.988-.866-.947 3.112 3.935Z" fill="#00A2E5"/><path d="m44.596 54.8 1.514-.16-.374-.55-1.14.71Zm.069 4.979-1.01.928 2.523-1.09-1.513.162Zm-.864-6.086-1.025-1.343-.427-.538 1.452 1.88Zm-1.373 8.098 1.217-1.086 1.71-1.816-2.927 2.902Z" fill="#00A2E5"/><path d="m45.07 59.347 1.516-.162.295-.453-1.812.615Zm-1.264-5.651.412.555 1.106-.715-1.518.16Zm1.118 1.65 1.517-.16-.33-.545-1.187.705Zm.279.539 1.517-.161-.279-.538-1.238.699Zm.161 3.01 1.517-.163.19-.468-1.707.63Zm-1.146-4.645.375.551 1.142-.71-1.517.16Zm.361.55-.788-1.106-1.458-1.882 2.246 2.989Z" fill="#00A2E5"/><path d="m45.075 59.345-.407.435 1.923-.598-1.516.163Zm.352-2.932 1.517-.161-.22-.53-1.297.69Zm-.075 2.477-.77-4.092-3.108-3.933 3.878 8.026Zm.204-.465 1.519-.162.093-.484-1.611.646Zm.02-1.491 1.518-.161-.152-.52-1.366.68Zm.074 1.007 1.518-.162.004-.497-1.522.659Zm.004-.497 1.518-.162-.078-.51-1.44.672Zm-1.06-2.644.331.545 1.187-.706-1.518.16Zm-.94 5.906 1.013-.93.704-.888-1.717 1.818Z" fill="#00A2E5"/><path d="m45.368 58.894-.294.453 1.81-.615-1.516.162Zm-.44-3.547.279.538 1.237-.699-1.516.16Zm-.344-.546-.376-.55-.412-.556.788 1.106Z" fill="#00A2E5"/><path d="m45.56 58.425-.19.469 1.707-.63-1.517.161Zm-.352-2.541.219.53 1.298-.69-1.517.16Zm-.539 3.894.406-.435.295-.453-.701.888Z" fill="#00A2E5"/><path d="m45.654 57.944-.094.483 1.612-.645-1.518.162Zm-.227-1.528.153.52 1.366-.682-1.519.162Zm.23 1.03-.003.498 1.522-.66-1.518.162Zm-.077-.51.078.51 1.44-.671-1.518.161Zm-.378-1.052-.278-.538-.33-.545.608 1.083Zm.161 3.008.21-1.959-.978-2.132.768 4.09Zm.21-1.959-.37-1.05-.608-1.082.978 2.132Zm-.21 1.959.19-.469.093-.483-.283.952Zm0 0 .283-.952-.073-1.007-.21 1.959Zm.21-1.959-.152-.52-.219-.53.37 1.05Zm.073 1.007.004-.497-.077-.51.073 1.007Z" fill="#00A2E5"/></mask><g mask="url(#g)"><ellipse cx="50.375" cy="45.392" rx="50.375" ry="45.392" transform="rotate(2.343 20.774 -262.505) skewX(-.264)" fill="url(#h)"/></g><path d="M42.408 51.927c-1.855-2.246-3.387-3.445-5.44-1.096l-1.294 1.224c-1.067.697-2.3 2.899-7.725-6.12-3.755-6.241-1.531-8.583-.801-9.075l1.26-1.145c2.429-1.594 1.402-4.63.268-7.35l-.684-1.646c-1.142-2.714-1.899-4.461-4.333-2.87l-1.292 1.163c-1.5 1.85-2.606 2.847-3.292 6.296-1.5 4.807 1.192 12.917 4.313 18.344 4.483 7.465 8.056 12.783 13.205 13.51 4.278.603 6.24-1.57 7.185-2.31l.554-.499c2.214-1.994 1.75-4.38-.105-6.632l-1.82-1.794Z" fill="url(#i)"/><defs><linearGradient id="c" x1=".929" y1="-29.789" x2="64.042" y2="138.265" gradientUnits="userSpaceOnUse"><stop stop-color="#33BDF7"/><stop offset="1" stop-color="#9ADEFC"/></linearGradient><linearGradient id="d" x1="6.954" y1="5.588" x2="57.357" y2="94.007" gradientUnits="userSpaceOnUse"><stop stop-color="#9ADEFC"/><stop offset="1" stop-color="#33BDF7"/></linearGradient><linearGradient id="e" x1="29.747" y1="6.536" x2="45.442" y2="69.226" gradientUnits="userSpaceOnUse"><stop stop-color="#0BA7E8"/><stop offset="1" stop-color="#8FDBFC"/></linearGradient><linearGradient id="i" x1="24.309" y1="29.092" x2="29.452" y2="62.113" gradientUnits="userSpaceOnUse"><stop stop-color="#fff"/><stop offset="1" stop-color="#E9F8FF"/></linearGradient><radialGradient id="b" cx="0" cy="0" r="1" gradientUnits="userSpaceOnUse" gradientTransform="scale(102.188 77.5877) rotate(90 0 1)"><stop stop-color="#BFEBFF"/><stop offset="1" stop-color="#50C7FC" stop-opacity="0"/></radialGradient><radialGradient id="h" cx="0" cy="0" r="1" gradientUnits="userSpaceOnUse" gradientTransform="matrix(0 45.3922 -50.3749 0 50.375 45.392)"><stop stop-color="#BFEBFF"/><stop offset="1" stop-color="#50C7FC" stop-opacity="0"/></radialGradient><filter id="f" x="16.87" y="17.253" width="50.234" height="59.074" filterUnits="userSpaceOnUse" color-interpolation-filters="sRGB"><feFlood flood-opacity="0" result="BackgroundImageFix"/><feColorMatrix in="SourceAlpha" values="0 0 0 0 0 0 0 0 0 0 0 0 0 0 0 0 0 0 127 0" result="hardAlpha"/><feOffset dx="7.509" dy="3.754"/><feGaussianBlur stdDeviation="4.693"/><feColorMatrix values="0 0 0 0 0.126319 0 0 0 0 0.667579 0 0 0 0 0.891667 0 0 0 1 0"/><feBlend in2="BackgroundImageFix" result="effect1_dropShadow_1115_93179"/><feBlend in="SourceGraphic" in2="effect1_dropShadow_1115_93179" result="shape"/></filter></defs></svg>