<svg width="18" height="19" fill="none" xmlns="http://www.w3.org/2000/svg"><path d="M17.96 14.447c-.05-.154-.374-.38-.97-.678a29.89 29.89 0 0 0-.69-.383 65.332 65.332 0 0 1-.813-.448 27.492 27.492 0 0 1-.684-.396c-.034-.025-.14-.1-.32-.224a3.58 3.58 0 0 0-.453-.275.836.836 0 0 0-.365-.09c-.17 0-.383.122-.638.365a6.22 6.22 0 0 0-.704.793c-.213.286-.438.55-.677.792-.239.243-.435.365-.588.365a.87.87 0 0 1-.288-.064 2.992 2.992 0 0 1-.262-.108c-.06-.03-.161-.09-.306-.18a7.738 7.738 0 0 0-.244-.147c-1.167-.648-2.168-1.39-3.004-2.224-.835-.835-1.576-1.837-2.224-3.004a7.375 7.375 0 0 0-.147-.243 4.613 4.613 0 0 1-.18-.307 2.77 2.77 0 0 1-.108-.262.865.865 0 0 1-.064-.288c0-.153.122-.35.365-.588a7.7 7.7 0 0 1 .792-.677c.286-.213.55-.448.793-.703.243-.256.364-.469.364-.64 0-.119-.03-.24-.09-.364a3.555 3.555 0 0 0-.274-.454 16.853 16.853 0 0 0-.224-.32 24.06 24.06 0 0 1-.396-.683 64.487 64.487 0 0 1-.448-.812 30.37 30.37 0 0 0-.383-.69C4.432.913 4.206.59 4.053.538A.716.716 0 0 0 3.784.5c-.23 0-.53.043-.901.128s-.663.174-.876.268c-.426.18-.878.7-1.355 1.56C.217 3.256 0 4.049 0 4.833c0 .23.015.454.045.672.03.217.083.462.16.735.076.272.138.475.185.607.047.132.134.368.262.71.128.34.204.549.23.626.298.835.652 1.58 1.06 2.237.674 1.09 1.592 2.218 2.756 3.382 1.163 1.163 2.29 2.081 3.381 2.754.656.41 1.402.763 2.237 1.061.077.026.286.102.627.23.34.128.577.216.709.263.132.047.335.108.607.185.273.077.518.13.735.16.218.03.441.045.671.045.784 0 1.577-.217 2.378-.652.86-.477 1.38-.929 1.56-1.355.094-.213.183-.505.268-.876.085-.37.128-.67.128-.901a.712.712 0 0 0-.038-.27Z" fill="#323232"/></svg>