<svg width="131" height="137" fill="none" xmlns="http://www.w3.org/2000/svg"><path d="m69.526 136.873 7.11.127-.125-.002-6.985-.125Zm.126-.002 7.11.127-.126.002-6.984-.129Zm.125-.006 7.11.128-.125.005-6.985-.133Zm.125-.009 7.11.128-.125.009-6.985-.137Zm.125-.013 7.11.128-.125.013-6.985-.141Zm.125-.016 7.11.127-.125.017-6.985-.144Zm.124-.02 7.11.127-.124.02-6.986-.147Zm.124-.024 7.11.127-.124.024-6.986-.151Zm.124-.027 7.109.127-.123.027-6.986-.154Zm.123-.032 7.109.128-.123.031-6.986-.159Zm.122-.034 7.109.127-.122.035-6.987-.162Zm.121-.039 7.11.128-.122.038-6.988-.166Zm.12-.042 7.11.127-.12.043-6.99-.17Zm12.449-5.496 7.101.13-12.44 5.493 5.339-5.623Zm10.343-6.489 7.096.134-10.338 6.485 3.242-6.619Zm8.432-7.343 7.091.138-8.427 7.339 1.336-7.477Zm6.713-8.06 7.087.143-6.709 8.055-.378-8.198Zm5.185-8.637 7.083.148-5.181 8.632-1.902-8.78Zm3.849-9.077 7.082.153-3.848 9.072-3.234-9.225Zm2.706-9.379 7.08.16-2.704 9.372-4.376-9.532Zm1.755-9.541 7.079.164-1.754 9.536-5.325-9.7Zm.996-9.567 7.079.17-.996 9.561-6.083-9.731Zm.429-9.454 7.079.176-.429 9.448-6.65-9.624Zm.055-9.202 7.078.181-.054 9.197-7.024-9.378Zm-.128-8.812 7.078.186.128 8.807-7.206-8.993Zm-.017-.917 7.078.186.017.917-7.095-1.103Zm-.016-.91 7.078.188.016.908-7.094-1.095Zm-.016-.9 7.078.188.016.9-7.094-1.088Zm-.015-.894 7.079.189.014.893-7.093-1.082Zm-.014-.886 7.079.189.014.886-7.093-1.075Zm-.012-.88 7.078.19.013.879-7.091-1.068Zm-.012-.872 7.079.19.011.872-7.09-1.062Zm-.009-.866 7.078.19.01.866-7.088-1.056Zm-.008-.86 7.078.19.008.86-7.086-1.05Zm-.006-.856 7.078.192.006.854-7.084-1.046Zm-.004-.849 7.078.192.004.849-7.082-1.041Zm-.001-.844 7.078.192.001.844-7.079-1.036Zm-.042-.649 7.079.193.041.648-7.12-.84Zm-.12-.621 7.078.193.121.621-7.199-.814Zm-.194-.59 7.078.194.194.589-7.272-.782Zm-.263-.551 7.079.194.262.55-7.341-.744Zm-.326-.508 7.079.194.326.508-7.405-.702Zm-.383-.459 7.079.194.383.459-7.462-.653Zm-.435-.404 7.079.195.435.403-7.514-.598Zm-.482-.343 7.079.195.482.343-7.561-.538Zm-.524-.276 7.08.194.523.277-7.603-.471Zm-.559-.205 7.08.195.559.204-7.639-.4Zm-.59-.127 7.08.195.59.127-7.67-.322Zm-.615-.044 7.081.195.614.044-7.695-.239Zm-9.317-.493 7.086.195 4.563.37-11.649-.565Zm-4.388-.621 7.089.196 4.385.62-11.474-.816Zm-4.218-.875 7.091.197 4.216.874-11.307-1.07Zm-4.055-1.13 7.093.196 4.053 1.13-11.146-1.327Zm-3.9-1.392 7.095.198 3.898 1.39-10.994-1.588ZM89.5 14.077l7.098.198 3.75 1.653L89.5 14.077Zm-3.613-1.919 7.1.2 3.611 1.917-10.71-2.117Zm-3.48-2.188 7.102.201 3.478 2.187-10.58-2.388Zm-3.355-2.459 7.104.203 3.353 2.457-10.457-2.66Zm-3.238-2.734 7.106.204 3.236 2.733-10.342-2.937Zm-3.128-3.01 7.108.205 3.126 3.01-10.234-3.216Zm-.46-.414 7.108.206.46.413-7.568-.62Zm-.497-.338 7.109.206.496.338-7.605-.544Zm-.525-.263 7.109.206.525.263-7.634-.47Zm-.547-.188 7.109.206.547.188-7.656-.394Zm-.562-.113 7.11.207.561.112-7.67-.319Zm-.569-.037 7.11.206.569.038-7.679-.244Zm-.125 136.457.125.002 6.985.125-7.11-.127Zm.125.002.126-.002 6.984.129-7.11-.127Zm.126-.002.125-.006 6.985.133-7.11-.127Zm.125-.006.125-.009 6.985.137-7.11-.128Zm.125-.009.125-.013 6.985.141-7.11-.128Zm.125-.013.125-.016 6.985.144-7.11-.128Zm.125-.016.124-.02 6.986.147-7.11-.127Zm.124-.02.124-.024 6.986.151-7.11-.127Zm.124-.024.124-.027 6.986.154-7.11-.127Zm.124-.027.123-.032 6.986.159-7.11-.127Zm.123-.032.122-.034 6.987.162-7.11-.128Zm.122-.034.121-.039 6.988.166-7.11-.127Zm.121-.039.12-.042 6.99.17-7.11-.128Zm.12-.042 12.449-5.496-5.34 5.623-7.108-.127Zm12.449-5.496 10.343-6.489-3.242 6.619-7.101-.13Zm10.343-6.489 8.432-7.343-1.336 7.477-7.096-.134Zm8.432-7.343 6.713-8.06.378 8.198-7.091-.138Zm6.713-8.06 5.185-8.637 1.902 8.78-7.087-.143Zm5.185-8.637 3.849-9.077 3.234 9.225-7.083-.148Zm3.849-9.077 2.706-9.379 4.376 9.532-7.082-.153Zm2.706-9.379 1.755-9.541 5.325 9.7-7.08-.159Zm1.755-9.541.996-9.567 6.083 9.731-7.079-.165Zm.996-9.567.429-9.454 6.65 9.624-7.079-.17Zm.429-9.454.055-9.202 7.024 9.378-7.079-.176Zm.055-9.202-.128-8.812L131 44.545l-7.078-.18Zm-.128-8.812-.017-.917 7.095 1.103-7.078-.186Zm-.017-.917-.016-.91 7.094 1.096-7.078-.186Zm-.016-.91-.016-.9 7.094 1.088-7.078-.187Zm-.016-.9-.015-.894 7.093 1.082-7.078-.188Zm-.015-.894-.014-.886 7.093 1.075-7.079-.189Zm-.014-.886-.012-.88 7.091 1.069-7.079-.189Zm-.012-.88-.012-.872 7.09 1.062-7.078-.19Zm-.012-.872-.009-.866 7.088 1.056-7.079-.19Zm-.009-.866-.008-.86 7.086 1.05-7.078-.19Zm-.008-.86-.006-.856 7.084 1.046-7.078-.19Zm-.006-.856-.004-.849 7.082 1.04-7.078-.19Zm-.004-.849-.001-.844 7.079 1.036-7.078-.192Zm-.001-.844-.042-.649 7.12.84-7.078-.191Zm-.042-.649-.12-.621 7.199.814-7.079-.193Zm-.12-.621-.194-.59 7.272.783-7.078-.193Zm-.194-.59-.263-.551 7.341.745-7.078-.194Zm-.263-.551-.326-.508 7.405.701-7.079-.193Zm-.326-.508-.383-.459 7.462.653-7.079-.194Zm-.383-.459-.435-.404 7.514.598-7.079-.194Zm-.435-.404-.482-.343 7.561.538-7.079-.195Zm-.482-.343-.524-.276 7.603.47-7.079-.194Zm-.524-.276-.559-.205 7.639.4-7.08-.195Zm-.559-.205-.59-.127 7.67.322-7.08-.195Zm-.59-.127-.615-.044 7.695.239-7.08-.195Zm-5.366-.167-4.566-.37 11.649.566-7.083-.196Zm-4.566-.37-4.388-.621 11.474.816-7.086-.195Zm-4.388-.621-4.218-.875 11.307 1.07-7.089-.195Zm-4.218-.875-4.055-1.13 11.146 1.326-7.091-.196Zm-4.055-1.13-3.9-1.392 10.993 1.588-7.093-.197Zm-3.9-1.392L89.5 14.077l10.848 1.851-7.096-.198ZM89.5 14.077l-3.613-1.919 10.711 2.117-7.098-.198Zm-3.613-1.919-3.48-2.188 10.58 2.388-7.1-.2Zm-3.48-2.188-3.355-2.459 10.457 2.66-7.102-.2Zm-3.355-2.459-3.238-2.734 10.342 2.937-7.104-.203Zm-3.238-2.734-3.128-3.01L82.92 4.98l-7.106-.204Zm-3.128-3.01-.46-.414 7.568.619-7.108-.206Zm-.46-.414-.497-.338 7.605.544-7.108-.206Zm-.497-.338-.525-.263 7.634.469-7.109-.206Zm-.525-.263-.547-.188 7.656.394-7.109-.206Zm-.547-.188-.562-.113 7.671.32-7.11-.207Zm-.562-.113-.569-.037 7.679.244-7.11-.207Zm-7.687 136.294 7.118.128-.125-.002-6.993-.126Zm.126-.001 7.118.127-.126.002-6.992-.129Zm.125-.006 7.118.127-.125.006-6.993-.133Zm.126-.009 7.117.127-.125.009-6.992-.136Zm.125-.013 7.117.127-.125.013-6.992-.14Zm.124-.016 7.118.127-.125.016-6.993-.143Zm.125-.021 7.117.128-.124.02-6.993-.148Zm.124-.023 7.117.127-.124.024-6.993-.151Zm.123-.028 7.118.128-.124.027-6.994-.155Zm.123-.031 7.117.127-.122.032-6.995-.159Zm.122-.035 7.118.128-.123.034-6.995-.162Zm.122-.038 7.117.127-.121.039-6.996-.166Zm.12-.042 7.118.127-.12.042-6.997-.169Zm12.456-5.5 7.11.131-12.448 5.496 5.338-5.627Zm10.35-6.493 7.103.135-10.343 6.489 3.24-6.624Zm8.436-7.347 7.099.139-8.432 7.343 1.333-7.482Zm6.717-8.064 7.095.143-6.713 8.06-.382-8.203Zm5.187-8.643 7.093.149-5.185 8.637-1.908-8.786Zm3.852-9.082 7.09.154-3.849 9.077-3.241-9.231Zm2.708-9.384 7.088.16-2.706 9.378-4.382-9.538Zm1.756-9.547 7.087.165-1.755 9.541-5.332-9.706Zm.996-9.573 7.087.17-.996 9.568-6.091-9.738Zm.43-9.459 7.086.176-.429 9.454-6.657-9.63Zm.054-9.207 7.087.181-.055 9.202-7.032-9.383Zm-.128-8.817 7.087.186.128 8.812-7.215-8.998Zm-.016-.918 7.086.187.017.917-7.103-1.104Zm-.017-.91 7.087.188.016.909-7.103-1.096Zm-.015-.9 7.086.187.016.9-7.102-1.088Zm-.015-.895 7.086.188.015.894-7.101-1.082Zm-.014-.887 7.086.19.014.885-7.1-1.075Zm-.013-.88 7.087.19.012.88-7.099-1.07Zm-.011-.873 7.086.19.012.873-7.098-1.063Zm-.01-.867 7.087.19.009.867-7.096-1.057Zm-.008-.86 7.087.19.008.86-7.095-1.05Zm-.006-.856 7.087.191.006.855-7.093-1.046Zm-.004-.85 7.087.192.004.85-7.091-1.042Zm-.001-.845 7.087.193.001.844-7.088-1.037Zm-.041-.648 7.086.192.042.649-7.128-.841Zm-.121-.622 7.087.193.12.621-7.207-.814Zm-.194-.59 7.087.194.194.589-7.281-.783Zm-.263-.552 7.087.194.263.552-7.35-.746Zm-.326-.508 7.087.194.326.508-7.413-.702Zm-.383-.46 7.087.195.383.459-7.47-.653Zm-.436-.403 7.088.194.435.404-7.523-.598Zm-.482-.343 7.088.194.482.343-7.57-.537Zm-.524-.277 7.088.195.524.276-7.612-.471Zm-.56-.205 7.089.195.559.205-7.648-.4Zm-.59-.127 7.089.195.59.127-7.679-.322Zm-.615-.044 7.089.195.615.044-7.704-.239Zm-9.323-.493 7.095.195 4.566.37-11.661-.565Zm-4.39-.622 7.097.196 4.388.621-11.485-.817Zm-4.22-.875 7.099.196 4.218.875-11.318-1.07Zm-4.058-1.132 7.102.197 4.055 1.131-11.157-1.328Zm-3.903-1.391 7.104.197 3.9 1.391-11.004-1.588Zm-3.755-1.655 7.107.199 3.752 1.653-10.859-1.852Zm-3.614-1.92 7.108.2 3.613 1.919-10.721-2.119ZM75.296 9.77l7.111.201 3.48 2.188-10.59-2.389ZM71.94 7.31l7.113.202 3.355 2.46L71.94 7.308ZM68.7 4.573l7.115.204 3.238 2.734L68.7 4.573ZM65.57 1.56l7.116.206 3.128 3.011L65.57 1.56Zm-.46-.413 7.116.206.46.413-7.577-.62Zm-.497-.339 7.116.207.497.338-7.613-.545Zm-.526-.263 7.117.207.525.263-7.642-.47Zm-.548-.188 7.118.207.547.188-7.665-.395Zm-.562-.112 7.118.206.562.113-7.68-.32Zm-.569-.038 7.118.207.57.037-7.688-.244Zm-.125 136.537.125.001 6.993.126-7.118-.127Zm.125.001.126-.001 6.992.129-7.118-.128Zm.126-.001.125-.006 6.993.133-7.118-.127Zm.125-.006.126-.009 6.992.136-7.118-.127Zm.126-.009.125-.013 6.992.14-7.117-.127Zm.125-.013.124-.016 6.993.143-7.117-.127Zm.124-.016.125-.021 6.993.148-7.118-.127Zm.125-.021.124-.023 6.993.151-7.117-.128Zm.124-.023.123-.028 6.994.155-7.117-.127Zm.123-.028.123-.031 6.995.159-7.118-.128Zm.123-.031.122-.035 6.995.162-7.117-.127Zm.122-.035.122-.038 6.996.166-7.118-.128Zm.122-.038.12-.042 6.997.169-7.117-.127Zm.12-.042 12.456-5.5-5.338 5.627-7.117-.127Zm12.456-5.5 10.35-6.493-3.24 6.624-7.11-.131Zm10.35-6.493 8.436-7.347-1.333 7.482-7.104-.135Zm8.436-7.347 6.717-8.064.382 8.203-7.099-.139Zm6.717-8.064 5.187-8.643 1.908 8.786-7.095-.143Zm5.187-8.643 3.852-9.082 3.241 9.231-7.093-.149Zm3.852-9.082 2.708-9.384 4.382 9.538-7.09-.154Zm2.708-9.384 1.756-9.547 5.332 9.706-7.088-.159Zm1.756-9.547.996-9.573 6.091 9.738-7.087-.165Zm.996-9.573.43-9.459 6.657 9.63-7.087-.17Zm.43-9.459.054-9.207 7.032 9.383-7.086-.176Zm.054-9.207-.128-8.817 7.215 8.998-7.087-.181Zm-.128-8.817-.016-.918 7.103 1.104-7.087-.186Zm-.016-.918-.017-.91 7.103 1.097-7.086-.187Zm-.017-.91-.015-.9 7.102 1.088-7.087-.187Zm-.015-.9-.015-.895 7.101 1.082-7.086-.188Zm-.015-.895-.014-.887 7.1 1.075-7.086-.188Zm-.014-.887-.013-.88 7.099 1.07-7.086-.19Zm-.013-.88-.011-.873 7.098 1.063-7.087-.19Zm-.011-.873-.01-.867 7.096 1.057-7.086-.19Zm-.01-.867-.008-.86 7.095 1.05-7.087-.19Zm-.008-.86-.006-.856 7.093 1.046-7.087-.19Zm-.006-.856-.004-.85 7.091 1.041-7.087-.191Zm-.004-.85-.001-.845 7.088 1.037-7.087-.192Zm-.001-.845-.041-.648 7.128.84-7.087-.192Zm-.041-.648-.121-.622 7.207.814-7.086-.192Zm-.121-.622-.194-.59 7.281.783-7.087-.193Zm-.194-.59-.263-.552 7.35.745-7.087-.193Zm-.263-.552-.326-.508 7.413.702-7.087-.194Zm-.326-.508-.383-.46 7.47.654-7.087-.194Zm-.383-.46-.436-.403 7.523.598-7.087-.194Zm-.436-.403-.482-.343 7.57.537-7.088-.194Zm-.482-.343-.524-.277 7.612.471-7.088-.194Zm-.524-.277-.56-.205 7.648.4-7.088-.195Zm-.56-.205-.59-.127 7.679.322-7.089-.195Zm-.59-.127-.615-.044 7.704.239-7.089-.195Zm-5.369-.167-4.569-.37 11.661.565-7.092-.195Zm-4.569-.37-4.39-.622 11.485.817-7.095-.195Zm-4.39-.622-4.22-.875 11.317 1.071-7.097-.196Zm-4.22-.875-4.058-1.132 11.157 1.328-7.1-.196Zm-4.058-1.132-3.903-1.391 11.005 1.588-7.102-.197Zm-3.903-1.391-3.755-1.655 10.86 1.852-7.105-.197Zm-3.755-1.655-3.614-1.92 10.72 2.119-7.106-.199Zm-3.614-1.92L75.296 9.77l10.591 2.389-7.108-.2ZM75.296 9.77 71.94 7.31l10.467 2.66-7.11-.2ZM71.94 7.31 68.7 4.573l10.353 2.938-7.113-.202ZM68.7 4.573 65.57 1.56l10.244 3.217-7.114-.204ZM65.57 1.56l-.46-.413 7.576.62-7.116-.207Zm-.46-.413-.497-.339 7.613.545-7.117-.206Zm-.497-.339-.526-.263 7.642.47-7.116-.207Zm-.526-.263-.548-.188 7.665.395-7.117-.207Zm-.548-.188-.562-.112 7.68.319-7.118-.207Zm-.562-.112-.569-.038 7.687.244-7.117-.206Zm-7.695 136.373 7.126.127-.125-.001-7.001-.126Zm.126-.002 7.126.128-.126.001-7-.129Zm.125-.005 7.126.127-.125.006-7-.133Zm.125-.01 7.127.128-.126.009-7-.137Zm.125-.012 7.127.127-.125.013-7.002-.14Zm.125-.017 7.126.128-.124.016-7.002-.144Zm.125-.02 7.126.127-.125.021-7.001-.148Zm.124-.024 7.126.128-.124.023-7.002-.151Zm.123-.027 7.126.127-.123.028-7.003-.155Zm.123-.032 7.126.128-.123.031-7.003-.159Zm.123-.034 7.125.127-.122.035-7.003-.162Zm.121-.039 7.126.128-.122.038-7.004-.166Zm.121-.042 7.126.128-.121.042-7.005-.17Zm12.462-5.503 7.119.131-12.455 5.5 5.336-5.631Zm10.356-6.496 7.112.134-10.35 6.493 3.238-6.627Zm8.442-7.352 7.107.139-8.437 7.347 1.33-7.486Zm6.72-8.069 7.104.144-6.717 8.064-.387-8.208Zm5.191-8.647 7.1.148-5.187 8.643-1.913-8.791Zm3.854-9.088 7.098.154-3.852 9.082-3.246-9.236Zm2.709-9.39 7.097.16-2.708 9.384-4.389-9.543Zm1.757-9.552 7.096.165-1.756 9.547-5.34-9.712Zm.997-9.578 7.095.17-.996 9.573-6.099-9.743Zm.43-9.465 7.095.176-.43 9.46-6.665-9.636Zm.055-9.212 7.094.181-.054 9.207-7.04-9.388Zm-.129-8.823 7.095.187.128 8.817-7.223-9.004Zm-.016-.918 7.095.187.016.918-7.111-1.105Zm-.017-.91 7.095.188.017.909-7.112-1.097Zm-.015-.902 7.095.188.015.902-7.11-1.09Zm-.015-.895 7.095.189.015.894-7.11-1.083Zm-.014-.887 7.095.19.014.886-7.109-1.076Zm-.013-.88 7.095.19.013.88-7.108-1.07Zm-.011-.874 7.095.19.011.873-7.106-1.063Zm-.01-.867 7.095.19.01.867-7.105-1.057Zm-.008-.862 7.095.191.008.861-7.103-1.052Zm-.006-.856 7.095.192.006.855-7.101-1.047Zm-.003-.85 7.094.192.004.85-7.098-1.042Zm-.002-.845 7.095.192.001.845-7.096-1.037Zm-.041-.65 7.095.194.041.648-7.136-.841Zm-.121-.622 7.095.194.121.622-7.216-.816Zm-.194-.59 7.095.194.194.59-7.289-.784Zm-.263-.552 7.095.194.263.552-7.358-.746Zm-.326-.509 7.095.195.326.508-7.421-.703Zm-.384-.459 7.096.195.383.459-7.479-.654Zm-.436-.404 7.096.195.436.404-7.532-.599Zm-.482-.344 7.096.196.482.343-7.578-.539Zm-.524-.276 7.096.195.524.277-7.62-.473Zm-.561-.206 7.097.196.56.205-7.657-.4Zm-.59-.127 7.097.196.59.127-7.687-.323Zm-.616-.043 7.098.195.615.044-7.713-.24Zm-9.328-.494 7.103.196 4.569.37-11.672-.566Zm-4.393-.622 7.106.196 4.39.622-11.496-.818ZM87 17.86l7.108.196 4.22.875L87 17.86Zm-4.06-1.133 7.11.197 4.058 1.132-11.168-1.329Zm-3.904-1.392 7.112.198 3.903 1.391-11.015-1.59Zm-3.757-1.656 7.114.2 3.755 1.654-10.87-1.854Zm-3.617-1.921 7.117.2 3.614 1.92-10.731-2.12Zm-3.484-2.19 7.118.201 3.483 2.19-10.601-2.391Zm-3.36-2.462 7.121.203 3.358 2.46-10.478-2.663Zm-3.24-2.737 7.122.204 3.24 2.736-10.363-2.94Zm-3.133-3.015 7.125.206 3.13 3.013-10.255-3.219Zm-.46-.414 7.124.207.461.413-7.585-.62Zm-.498-.338 7.126.206.496.339-7.621-.545Zm-.526-.263 7.126.206.526.263-7.651-.47ZM56.415.15l7.125.206.548.188L56.415.15ZM55.85.038l7.127.207.561.112-7.688-.32ZM55.282 0l7.126.207.57.038L55.282 0Zm-.125 136.616.125.002 7 .126-7.125-.128Zm.125.002.126-.002 7 .129-7.126-.127Zm.126-.002.125-.005 7 .133-7.125-.128Zm.125-.005.125-.01 7.001.137-7.126-.127Zm.125-.01.125-.012 7.002.14-7.127-.128Zm.125-.012.125-.017 7.002.144-7.127-.127Zm.125-.017.125-.02 7.001.148-7.126-.128Zm.125-.02.124-.024 7.002.151-7.126-.127Zm.124-.024.123-.027 7.003.155-7.126-.128Zm.123-.027.123-.032 7.003.159-7.126-.127Zm.123-.032.123-.034 7.003.162-7.126-.128Zm.123-.034.121-.039 7.004.166-7.125-.127Zm.121-.039.121-.042 7.005.17-7.126-.128Zm.121-.042 12.462-5.503-5.336 5.631-7.126-.128Zm12.462-5.503 10.356-6.496-3.237 6.627-7.119-.131Zm10.356-6.496 8.442-7.352-1.33 7.486-7.112-.134Zm8.442-7.352 6.72-8.069.387 8.208-7.107-.139Zm6.72-8.069 5.191-8.647 1.913 8.791-7.104-.144Zm5.191-8.647 3.854-9.088 3.246 9.236-7.1-.148Zm3.854-9.088 2.709-9.39 4.389 9.544-7.098-.154Zm2.709-9.39 1.757-9.552 5.34 9.712-7.097-.16Zm1.757-9.552.997-9.578 6.099 9.743-7.096-.165Zm.997-9.578.43-9.465 6.665 9.635-7.095-.17Zm.43-9.465.055-9.212 7.04 9.388-7.095-.176Zm.055-9.212-.129-8.823 7.223 9.004-7.094-.181Zm-.129-8.823-.016-.918 7.111 1.105-7.095-.187Zm-.016-.918-.017-.91 7.112 1.097-7.095-.187Zm-.017-.91-.015-.902 7.11 1.09-7.095-.188Zm-.015-.902-.015-.895 7.11 1.083-7.095-.188Zm-.015-.895-.014-.887 7.109 1.076-7.095-.189Zm-.014-.887-.013-.88 7.108 1.07-7.095-.19Zm-.013-.88-.011-.874 7.106 1.063-7.095-.19Zm-.011-.874-.01-.867 7.105 1.057-7.095-.19Zm-.01-.867-.008-.862 7.103 1.052-7.095-.19Zm-.008-.862-.006-.856 7.101 1.047-7.095-.19Zm-.006-.856-.003-.85 7.098 1.042-7.095-.192Zm-.003-.85-.002-.845 7.096 1.037-7.094-.192Zm-.002-.845-.041-.65 7.136.842-7.095-.192Zm-.041-.65-.121-.622 7.216.816-7.095-.193Zm-.121-.622-.194-.59 7.289.784-7.095-.194Zm-.194-.59-.263-.552 7.358.746-7.095-.194Zm-.263-.552-.326-.509 7.421.703-7.095-.194Zm-.326-.509-.384-.459 7.479.654-7.095-.195Zm-.384-.459-.436-.404 7.532.599-7.096-.195Zm-.436-.404-.482-.344 7.578.539-7.096-.195Zm-.482-.344-.524-.276 7.62.472-7.096-.196Zm-.524-.276-.561-.206 7.657.4-7.096-.194Zm-.561-.206-.59-.127 7.687.323-7.097-.195Zm-.59-.127-.616-.043 7.713.239-7.097-.196Zm-5.373-.166-4.57-.371 11.671.566-7.101-.195Zm-4.57-.371-4.394-.622 11.496.818-7.103-.196Zm-4.394-.622L87 17.86l11.33 1.07-7.106-.196ZM87 17.86l-4.06-1.133 11.168 1.33L87 17.86Zm-4.06-1.133-3.904-1.392 11.015 1.59-7.11-.198Zm-3.904-1.392-3.757-1.656 10.87 1.854-7.113-.198Zm-3.757-1.656-3.617-1.921 10.731 2.12-7.114-.199Zm-3.617-1.921-3.484-2.19 10.6 2.39-7.116-.2Zm-3.484-2.19-3.36-2.462 10.478 2.663-7.118-.201Zm-3.36-2.462-3.24-2.737 10.361 2.94-7.12-.203Zm-3.24-2.737-3.133-3.015L68.7 4.574l-7.123-.205Zm-3.133-3.015-.46-.414 7.585.62-7.124-.206Zm-.46-.414-.498-.338 7.622.545L57.985.94Zm-.498-.338-.526-.263 7.652.47-7.126-.207Zm-.526-.263L56.415.15l7.673.394L56.96.34ZM56.415.15 55.85.038l7.688.32L56.414.15ZM55.85.038 55.282 0l7.696.245L55.85.038Z" fill="#03A3E6"/><path d="m.82 44 .128-8.824.016-.917-.145 9.74Zm.484 18.677-.43-9.465L.82 44l.485 18.678Zm2.755 19.131L2.3 72.255l-.997-9.578 2.755 19.131Zm6.564 18.478-3.855-9.088-2.71-9.39 6.565 18.478Zm11.912 16.716-6.721-8.069-5.191-8.647 11.912 16.716Zm18.8 13.849-10.358-6.497-8.442-7.352 18.8 13.849Zm12.583 5.545-.12-.042-12.464-5.503 12.584 5.545Zm.244.073-.122-.034-.122-.039.244.073Zm.246.059-.123-.027-.123-.032.246.059Zm.25.044-.126-.02-.123-.024.248.044Zm.25.029-.126-.012-.125-.017.25.029Zm.25.015-.126-.005-.125-.01.251.015Zm.251 0-.126.002-.125-.002h.251Zm.25-.015-.124.01-.126.005.25-.015Zm.25-.029-.124.017-.125.012.25-.029Zm.25-.044-.125.024-.124.02.248-.044Zm.246-.059-.123.032-.124.027.247-.059Zm.244-.073-.122.039-.122.034.244-.073Zm12.583-5.545-12.462 5.503-.121.042 12.583-5.545Zm18.798-13.848-8.442 7.352-10.356 6.496 18.798-13.848Zm11.91-16.716-5.19 8.647-6.72 8.069 11.91-16.716Zm6.564-18.477-2.71 9.39-3.853 9.087 6.563-18.477Zm2.754-19.131-.997 9.578-1.757 9.553 2.754-19.131Zm.484-18.677-.054 9.212-.43 9.465.484-18.677Zm-.145-9.741.017.918.128 8.823-.145-9.741Zm-.155-10.277.042.649.001.845-.043-1.494Zm-.315-1.213.195.59.12.623-.315-1.213Zm-.589-1.06.326.508.263.552-.589-1.06Zm-.819-.864.436.404.383.46-.819-.864Zm-1.007-.62.524.276.483.344-1.007-.62Zm-1.151-.333.591.128.56.205-1.151-.333Zm-5.372-.166 4.757.123.615.043-5.372-.166ZM57.986.94l.461.414 3.132 3.015L57.986.94Zm-1.023-.6.526.263.497.338L56.963.34Zm-1.11-.301.562.113.548.188-1.11-.301Zm-1.14 0 .57-.038.57.038h-1.14Zm-1.11.3.549-.188.562-.112-1.11.3ZM52.58.94l.498-.338.526-.264L52.58.94Zm-3.591 3.43 3.132-3.015.46-.414-3.592 3.429ZM5 19.894l.616-.043 4.757-.123L5 19.894Zm-1.15.333.56-.206.59-.127-1.15.333Zm-1.007.62.482-.344.524-.276-1.006.62Zm-.82.863.384-.459.436-.404-.82.863Zm-.589 1.061.263-.552.326-.509-.589 1.061Zm-.315 1.213.12-.623.195-.59-.315 1.213Zm-.042 1.494v-.845l.042-.65-.042 1.495ZM.819 43.999l.145-9.74.016-.91-.16 10.65Zm3.24 37.81L1.304 62.676.819 43.999l3.24 37.81Zm18.476 35.193-11.912-16.716-6.564-18.478 18.476 35.194Zm31.383 19.394-12.584-5.545-18.8-13.849 31.384 19.394Zm.49.132-.246-.059-.244-.073.49.132Zm.5.073-.25-.029-.25-.044.5.073Zm.501.015h-.251l-.25-.015.501.015Zm.5-.044-.25.029-.25.015.5-.044Zm.496-.103-.247.059-.248.044.495-.103Zm12.827-5.618-12.583 5.545-.244.073 12.827-5.618Zm30.709-30.564L88.03 117.003l-18.798 13.848 30.709-30.564Zm9.317-37.608-2.754 19.13-6.563 18.478 9.317-37.608Zm.339-28.418.145 9.74-.484 18.678.339-28.418Zm-.155-10.277.043 1.494.004.85-.047-2.344Zm-.904-2.274.589 1.061.315 1.213-.904-2.274Zm-1.826-1.483 1.007.62.819.863-1.826-1.483Zm-6.523-.5 5.372.167 1.151.333-6.523-.5ZM56.963.34l1.023.601L61.58 4.37 56.963.339Zm-2.25-.301h1.14l1.11.3-2.25-.3ZM52.58.94l1.024-.602 1.11-.3L52.58.94ZM3.85 20.227 5 19.894l5.373-.166-6.524.498ZM2.022 21.71l.82-.863 1.006-.62-1.826 1.483Zm-.904 2.274.315-1.213.59-1.06-.905 2.273Zm-.046 2.344.004-.85.042-1.494-.046 2.344ZM.819 43.999.98 33.35l.016-.902L.82 43.999Zm21.716 73.003L4.059 81.808.819 44l21.716 73.003Zm31.873 19.526-.49-.132-31.383-19.394 31.873 19.526Zm1.001.088-.502-.015-.498-.073 1 .088Zm.996-.147-.495.103-.5.044.995-.147Zm43.536-36.182-30.71 30.564-12.826 5.618 43.536-36.182Zm9.656-66.026-.339 28.418-9.317 37.608 9.656-66.026Zm-.155-10.277.047 2.344.006.856-.053-3.2Zm-2.73-3.758 1.826 1.485.904 2.273-2.73-3.758ZM54.714.039l2.249.3 4.616 4.03-6.865-4.33Zm-5.726 4.33L52.58.94l2.133-.902-5.726 4.33ZM2.023 21.71l1.826-1.483 6.524-.5-8.35 1.983Zm-.95 4.618.046-2.344.904-2.274-.95 4.618ZM.819 43.999l.177-11.552.015-.894-.192 12.446Zm53.59 92.529-31.874-19.526L.819 43.999l53.59 92.529Zm1.996-.059-.996.147-1-.088 1.996-.059Zm53.192-102.208-9.656 66.026-43.536 36.182 53.192-102.208Zm-.155-10.277.053 3.2.008.862-.061-4.062Zm-9.253-4.256 6.523.498 2.73 3.758-9.253-4.256ZM54.714.038l6.865 4.33 3.241 2.738L54.714.038Zm-8.968 7.068 3.242-2.737L54.714.038l-8.968 7.068ZM2.023 21.71l8.35-1.982 4.572-.371L2.022 21.71Zm-.956 5.473.006-.855.95-4.617-.956 5.473ZM.819 44l.192-12.446.014-.887L.819 44Zm55.586 92.47-1.997.059L.82 43.999l55.586 92.47ZM109.58 33.351l.016.91-53.192 102.208L109.58 33.351Zm-.139-9.367.061 4.062.009.867-.07-4.93Zm-13.824-4.627 4.571.37 9.253 4.257-13.824-4.627ZM54.714.037l10.106 7.07 3.36 2.462L54.713.038ZM2.024 21.712l12.92-2.354 4.394-.622-17.315 2.976Zm-.965 6.334.008-.862.956-5.473-.964 6.335ZM56.405 136.47.819 43.999l.206-13.333 55.38 105.803Zm53.16-104.02.016.902L56.405 136.47l53.16-104.02Zm-.123-8.465.07 4.929.012.874-.082-5.803Zm-18.217-5.249 4.393.622 13.824 4.627-18.217-5.249Zm-45.48-11.63 8.97-7.067 13.465 9.53-22.433-2.462ZM1.06 28.046l.964-6.335 17.315-2.975-18.28 9.31ZM56.406 136.47 1.025 30.666l.013-.88 55.367 106.683ZM109.55 31.554l.015.895-53.16 104.02L109.55 31.554ZM91.225 18.735l18.217 5.249.082 5.803-18.3-11.052Zm-45.48-11.63L68.18 9.569l3.484 2.19-25.917-4.652ZM1.06 28.046l18.28-9.31 4.222-.875L1.06 28.044ZM56.406 136.47 1.038 29.786l.011-.874 55.356 107.557Zm53.131-105.802.014.887L56.405 136.47l53.131-105.802ZM91.225 18.735l18.299 11.052.012.88-18.311-11.932Zm-45.48-11.63 25.918 4.653 3.617 1.921-29.534-6.573ZM1.06 28.046l22.5-10.187 4.06-1.132L1.06 28.045ZM56.406 136.47 1.049 28.912l.01-.867 55.346 108.424Zm34.82-117.734 18.311 11.932L56.405 136.47l34.82-117.734Zm-45.48-11.63L75.28 13.68l3.757 1.656-33.291-8.23ZM1.06 28.046l26.563-11.318 3.905-1.392L1.06 28.046Zm90.166-9.31L56.405 136.47 1.059 28.045l90.166-9.31Zm-45.48-11.63 33.292 8.23 3.905 1.392-37.196-9.621Zm45.48 11.63L1.06 28.046l30.468-12.71 59.698 3.4Zm-45.48-11.63 37.197 9.622 4.06 1.133L45.746 7.106Zm45.48 11.63-59.698-3.4 3.757-1.656 55.94 5.056Zm-48.84-9.168 3.36-2.462 41.256 10.753-44.616-8.291Zm48.839 9.167-55.94-5.056 3.617-1.921 52.323 6.977ZM42.386 9.568l44.616 8.292 4.223.875-48.839-9.167Zm48.839 9.167-52.323-6.977 3.484-2.19 48.839 9.167Z" fill="#03A3E6"/><mask id="a" style="mask-type:alpha" maskUnits="userSpaceOnUse" x="0" y="0" width="131" height="137"><path d="m69.526 136.873 7.11.127-.125-.002-6.985-.125Zm.126-.002 7.11.127-.126.002-6.984-.129Zm.125-.006 7.11.128-.125.005-6.985-.133Zm.125-.009 7.11.128-.125.009-6.985-.137Zm.125-.013 7.11.128-.125.013-6.985-.141Zm.125-.016 7.11.127-.125.017-6.985-.144Zm.124-.02 7.11.127-.124.02-6.986-.147Zm.124-.024 7.11.127-.124.024-6.986-.151Zm.124-.027 7.109.127-.123.027-6.986-.154Zm.123-.032 7.109.128-.123.031-6.986-.159Zm.122-.034 7.109.127-.122.035-6.987-.162Zm.121-.039 7.11.128-.122.038-6.988-.166Zm.12-.042 7.11.127-.12.043-6.99-.17Zm12.449-5.496 7.101.13-12.44 5.493 5.339-5.623Zm10.343-6.489 7.096.134-10.338 6.485 3.242-6.619Zm8.432-7.343 7.091.138-8.427 7.339 1.336-7.477Zm6.713-8.06 7.087.143-6.709 8.055-.378-8.198Zm5.185-8.637 7.083.148-5.181 8.632-1.902-8.78Zm3.849-9.077 7.082.153-3.848 9.072-3.234-9.225Zm2.706-9.379 7.08.16-2.704 9.372-4.376-9.532Zm1.755-9.541 7.079.164-1.754 9.536-5.325-9.7Zm.996-9.567 7.079.17-.996 9.561-6.083-9.731Zm.429-9.454 7.079.176-.429 9.448-6.65-9.624Zm.055-9.202 7.078.181-.054 9.197-7.024-9.378Zm-.128-8.812 7.078.186.128 8.807-7.206-8.993Zm-.017-.917 7.078.186.017.917-7.095-1.103Zm-.016-.91 7.078.188.016.908-7.094-1.095Zm-.016-.9 7.078.188.016.9-7.094-1.088Zm-.015-.894 7.079.189.014.893-7.093-1.082Zm-.014-.886 7.079.189.014.886-7.093-1.075Zm-.012-.88 7.078.19.013.879-7.091-1.068Zm-.012-.872 7.079.19.011.872-7.09-1.062Zm-.009-.866 7.078.19.01.866-7.088-1.056Zm-.008-.86 7.078.19.008.86-7.086-1.05Zm-.006-.856 7.078.192.006.854-7.084-1.046Zm-.004-.849 7.078.192.004.849-7.082-1.041Zm-.001-.844 7.078.192.001.844-7.079-1.036Zm-.042-.649 7.079.193.041.648-7.12-.84Zm-.12-.621 7.078.193.121.621-7.199-.814Zm-.194-.59 7.078.194.194.589-7.272-.782Zm-.263-.551 7.079.194.262.55-7.341-.744Zm-.326-.508 7.079.194.326.508-7.405-.702Zm-.383-.459 7.079.194.383.459-7.462-.653Zm-.435-.404 7.079.195.435.403-7.514-.598Zm-.482-.343 7.079.195.482.343-7.561-.538Zm-.524-.276 7.08.194.523.277-7.603-.471Zm-.559-.205 7.08.195.559.204-7.639-.4Zm-.59-.127 7.08.195.59.127-7.67-.322Zm-.615-.044 7.081.195.614.044-7.695-.239Zm-9.317-.493 7.086.195 4.563.37-11.649-.565Zm-4.388-.621 7.089.196 4.385.62-11.474-.816Zm-4.218-.875 7.091.197 4.216.874-11.307-1.07Zm-4.055-1.13 7.093.196 4.053 1.13-11.146-1.327Zm-3.9-1.392 7.095.198 3.898 1.39-10.994-1.588ZM89.5 14.077l7.098.198 3.75 1.653L89.5 14.077Zm-3.613-1.919 7.1.2 3.611 1.917-10.71-2.117Zm-3.48-2.188 7.102.201 3.478 2.187-10.58-2.388Zm-3.355-2.459 7.104.203 3.353 2.457-10.457-2.66Zm-3.238-2.734 7.106.204 3.236 2.733-10.342-2.937Zm-3.128-3.01 7.108.205 3.126 3.01-10.234-3.216Zm-.46-.414 7.108.206.46.413-7.568-.62Zm-.497-.338 7.109.206.496.338-7.605-.544Zm-.525-.263 7.109.206.525.263-7.634-.47Zm-.547-.188 7.109.206.547.188-7.656-.394Zm-.562-.113 7.11.207.561.112-7.67-.319Zm-.569-.037 7.11.206.569.038-7.679-.244Zm-.125 136.457.125.002 6.985.125-7.11-.127Zm.125.002.126-.002 6.984.129-7.11-.127Zm.126-.002.125-.006 6.985.133-7.11-.127Zm.125-.006.125-.009 6.985.137-7.11-.128Zm.125-.009.125-.013 6.985.141-7.11-.128Zm.125-.013.125-.016 6.985.144-7.11-.128Zm.125-.016.124-.02 6.986.147-7.11-.127Zm.124-.02.124-.024 6.986.151-7.11-.127Zm.124-.024.124-.027 6.986.154-7.11-.127Zm.124-.027.123-.032 6.986.159-7.11-.127Zm.123-.032.122-.034 6.987.162-7.11-.128Zm.122-.034.121-.039 6.988.166-7.11-.127Zm.121-.039.12-.042 6.99.17-7.11-.128Zm.12-.042 12.449-5.496-5.34 5.623-7.108-.127Zm12.449-5.496 10.343-6.489-3.242 6.619-7.101-.13Zm10.343-6.489 8.432-7.343-1.336 7.477-7.096-.134Zm8.432-7.343 6.713-8.06.378 8.198-7.091-.138Zm6.713-8.06 5.185-8.637 1.902 8.78-7.087-.143Zm5.185-8.637 3.849-9.077 3.234 9.225-7.083-.148Zm3.849-9.077 2.706-9.379 4.376 9.532-7.082-.153Zm2.706-9.379 1.755-9.541 5.325 9.7-7.08-.159Zm1.755-9.541.996-9.567 6.083 9.731-7.079-.165Zm.996-9.567.429-9.454 6.65 9.624-7.079-.17Zm.429-9.454.055-9.202 7.024 9.378-7.079-.176Zm.055-9.202-.128-8.812L131 44.545l-7.078-.18Zm-.128-8.812-.017-.917 7.095 1.103-7.078-.186Zm-.017-.917-.016-.91 7.094 1.096-7.078-.186Zm-.016-.91-.016-.9 7.094 1.088-7.078-.187Zm-.016-.9-.015-.894 7.093 1.082-7.078-.188Zm-.015-.894-.014-.886 7.093 1.075-7.079-.189Zm-.014-.886-.012-.88 7.091 1.069-7.079-.189Zm-.012-.88-.012-.872 7.09 1.062-7.078-.19Zm-.012-.872-.009-.866 7.088 1.056-7.079-.19Zm-.009-.866-.008-.86 7.086 1.05-7.078-.19Zm-.008-.86-.006-.856 7.084 1.046-7.078-.19Zm-.006-.856-.004-.849 7.082 1.04-7.078-.19Zm-.004-.849-.001-.844 7.079 1.036-7.078-.192Zm-.001-.844-.042-.649 7.12.84-7.078-.191Zm-.042-.649-.12-.621 7.199.814-7.079-.193Zm-.12-.621-.194-.59 7.272.783-7.078-.193Zm-.194-.59-.263-.551 7.341.745-7.078-.194Zm-.263-.551-.326-.508 7.405.701-7.079-.193Zm-.326-.508-.383-.459 7.462.653-7.079-.194Zm-.383-.459-.435-.404 7.514.598-7.079-.194Zm-.435-.404-.482-.343 7.561.538-7.079-.195Zm-.482-.343-.524-.276 7.603.47-7.079-.194Zm-.524-.276-.559-.205 7.639.4-7.08-.195Zm-.559-.205-.59-.127 7.67.322-7.08-.195Zm-.59-.127-.615-.044 7.695.239-7.08-.195Zm-5.366-.167-4.566-.37 11.649.566-7.083-.196Zm-4.566-.37-4.388-.621 11.474.816-7.086-.195Zm-4.388-.621-4.218-.875 11.307 1.07-7.089-.195Zm-4.218-.875-4.055-1.13 11.146 1.326-7.091-.196Zm-4.055-1.13-3.9-1.392 10.993 1.588-7.093-.197Zm-3.9-1.392L89.5 14.077l10.848 1.851-7.096-.198ZM89.5 14.077l-3.613-1.919 10.711 2.117-7.098-.198Zm-3.613-1.919-3.48-2.188 10.58 2.388-7.1-.2Zm-3.48-2.188-3.355-2.459 10.457 2.66-7.102-.2Zm-3.355-2.459-3.238-2.734 10.342 2.937-7.104-.203Zm-3.238-2.734-3.128-3.01L82.92 4.98l-7.106-.204Zm-3.128-3.01-.46-.414 7.568.619-7.108-.206Zm-.46-.414-.497-.338 7.605.544-7.108-.206Zm-.497-.338-.525-.263 7.634.469-7.109-.206Zm-.525-.263-.547-.188 7.656.394-7.109-.206Zm-.547-.188-.562-.113 7.671.32-7.11-.207Zm-.562-.113-.569-.037 7.679.244-7.11-.207Zm-7.687 136.294 7.118.128-.125-.002-6.993-.126Zm.126-.001 7.118.127-.126.002-6.992-.129Zm.125-.006 7.118.127-.125.006-6.993-.133Zm.126-.009 7.117.127-.125.009-6.992-.136Zm.125-.013 7.117.127-.125.013-6.992-.14Zm.124-.016 7.118.127-.125.016-6.993-.143Zm.125-.021 7.117.128-.124.02-6.993-.148Zm.124-.023 7.117.127-.124.024-6.993-.151Zm.123-.028 7.118.128-.124.027-6.994-.155Zm.123-.031 7.117.127-.122.032-6.995-.159Zm.122-.035 7.118.128-.123.034-6.995-.162Zm.122-.038 7.117.127-.121.039-6.996-.166Zm.12-.042 7.118.127-.12.042-6.997-.169Zm12.456-5.5 7.11.131-12.448 5.496 5.338-5.627Zm10.35-6.493 7.103.135-10.343 6.489 3.24-6.624Zm8.436-7.347 7.099.139-8.432 7.343 1.333-7.482Zm6.717-8.064 7.095.143-6.713 8.06-.382-8.203Zm5.187-8.643 7.093.149-5.185 8.637-1.908-8.786Zm3.852-9.082 7.09.154-3.849 9.077-3.241-9.231Zm2.708-9.384 7.088.16-2.706 9.378-4.382-9.538Zm1.756-9.547 7.087.165-1.755 9.541-5.332-9.706Zm.996-9.573 7.087.17-.996 9.568-6.091-9.738Zm.43-9.459 7.086.176-.429 9.454-6.657-9.63Zm.054-9.207 7.087.181-.055 9.202-7.032-9.383Zm-.128-8.817 7.087.186.128 8.812-7.215-8.998Zm-.016-.918 7.086.187.017.917-7.103-1.104Zm-.017-.91 7.087.188.016.909-7.103-1.096Zm-.015-.9 7.086.187.016.9-7.102-1.088Zm-.015-.895 7.086.188.015.894-7.101-1.082Zm-.014-.887 7.086.19.014.885-7.1-1.075Zm-.013-.88 7.087.19.012.88-7.099-1.07Zm-.011-.873 7.086.19.012.873-7.098-1.063Zm-.01-.867 7.087.19.009.867-7.096-1.057Zm-.008-.86 7.087.19.008.86-7.095-1.05Zm-.006-.856 7.087.191.006.855-7.093-1.046Zm-.004-.85 7.087.192.004.85-7.091-1.042Zm-.001-.845 7.087.193.001.844-7.088-1.037Zm-.041-.648 7.086.192.042.649-7.128-.841Zm-.121-.622 7.087.193.12.621-7.207-.814Zm-.194-.59 7.087.194.194.589-7.281-.783Zm-.263-.552 7.087.194.263.552-7.35-.746Zm-.326-.508 7.087.194.326.508-7.413-.702Zm-.383-.46 7.087.195.383.459-7.47-.653Zm-.436-.403 7.088.194.435.404-7.523-.598Zm-.482-.343 7.088.194.482.343-7.57-.537Zm-.524-.277 7.088.195.524.276-7.612-.471Zm-.56-.205 7.089.195.559.205-7.648-.4Zm-.59-.127 7.089.195.59.127-7.679-.322Zm-.615-.044 7.089.195.615.044-7.704-.239Zm-9.323-.493 7.095.195 4.566.37-11.661-.565Zm-4.39-.622 7.097.196 4.388.621-11.485-.817Zm-4.22-.875 7.099.196 4.218.875-11.318-1.07Zm-4.058-1.132 7.102.197 4.055 1.131-11.157-1.328Zm-3.903-1.391 7.104.197 3.9 1.391-11.004-1.588Zm-3.755-1.655 7.107.199 3.752 1.653-10.859-1.852Zm-3.614-1.92 7.108.2 3.613 1.919-10.721-2.119ZM75.296 9.77l7.111.201 3.48 2.188-10.59-2.389ZM71.94 7.31l7.113.202 3.355 2.46L71.94 7.308ZM68.7 4.573l7.115.204 3.238 2.734L68.7 4.573ZM65.57 1.56l7.116.206 3.128 3.011L65.57 1.56Zm-.46-.413 7.116.206.46.413-7.577-.62Zm-.497-.339 7.116.207.497.338-7.613-.545Zm-.526-.263 7.117.207.525.263-7.642-.47Zm-.548-.188 7.118.207.547.188-7.665-.395Zm-.562-.112 7.118.206.562.113-7.68-.32Zm-.569-.038 7.118.207.57.037-7.688-.244Zm-.125 136.537.125.001 6.993.126-7.118-.127Zm.125.001.126-.001 6.992.129-7.118-.128Zm.126-.001.125-.006 6.993.133-7.118-.127Zm.125-.006.126-.009 6.992.136-7.118-.127Zm.126-.009.125-.013 6.992.14-7.117-.127Zm.125-.013.124-.016 6.993.143-7.117-.127Zm.124-.016.125-.021 6.993.148-7.118-.127Zm.125-.021.124-.023 6.993.151-7.117-.128Zm.124-.023.123-.028 6.994.155-7.117-.127Zm.123-.028.123-.031 6.995.159-7.118-.128Zm.123-.031.122-.035 6.995.162-7.117-.127Zm.122-.035.122-.038 6.996.166-7.118-.128Zm.122-.038.12-.042 6.997.169-7.117-.127Zm.12-.042 12.456-5.5-5.338 5.627-7.117-.127Zm12.456-5.5 10.35-6.493-3.24 6.624-7.11-.131Zm10.35-6.493 8.436-7.347-1.333 7.482-7.104-.135Zm8.436-7.347 6.717-8.064.382 8.203-7.099-.139Zm6.717-8.064 5.187-8.643 1.908 8.786-7.095-.143Zm5.187-8.643 3.852-9.082 3.241 9.231-7.093-.149Zm3.852-9.082 2.708-9.384 4.382 9.538-7.09-.154Zm2.708-9.384 1.756-9.547 5.332 9.706-7.088-.159Zm1.756-9.547.996-9.573 6.091 9.738-7.087-.165Zm.996-9.573.43-9.459 6.657 9.63-7.087-.17Zm.43-9.459.054-9.207 7.032 9.383-7.086-.176Zm.054-9.207-.128-8.817 7.215 8.998-7.087-.181Zm-.128-8.817-.016-.918 7.103 1.104-7.087-.186Zm-.016-.918-.017-.91 7.103 1.097-7.086-.187Zm-.017-.91-.015-.9 7.102 1.088-7.087-.187Zm-.015-.9-.015-.895 7.101 1.082-7.086-.188Zm-.015-.895-.014-.887 7.1 1.075-7.086-.188Zm-.014-.887-.013-.88 7.099 1.07-7.086-.19Zm-.013-.88-.011-.873 7.098 1.063-7.087-.19Zm-.011-.873-.01-.867 7.096 1.057-7.086-.19Zm-.01-.867-.008-.86 7.095 1.05-7.087-.19Zm-.008-.86-.006-.856 7.093 1.046-7.087-.19Zm-.006-.856-.004-.85 7.091 1.041-7.087-.191Zm-.004-.85-.001-.845 7.088 1.037-7.087-.192Zm-.001-.845-.041-.648 7.128.84-7.087-.192Zm-.041-.648-.121-.622 7.207.814-7.086-.192Zm-.121-.622-.194-.59 7.281.783-7.087-.193Zm-.194-.59-.263-.552 7.35.745-7.087-.193Zm-.263-.552-.326-.508 7.413.702-7.087-.194Zm-.326-.508-.383-.46 7.47.654-7.087-.194Zm-.383-.46-.436-.403 7.523.598-7.087-.194Zm-.436-.403-.482-.343 7.57.537-7.088-.194Zm-.482-.343-.524-.277 7.612.471-7.088-.194Zm-.524-.277-.56-.205 7.648.4-7.088-.195Zm-.56-.205-.59-.127 7.679.322-7.089-.195Zm-.59-.127-.615-.044 7.704.239-7.089-.195Zm-5.369-.167-4.569-.37 11.661.565-7.092-.195Zm-4.569-.37-4.39-.622 11.485.817-7.095-.195Zm-4.39-.622-4.22-.875 11.317 1.071-7.097-.196Zm-4.22-.875-4.058-1.132 11.157 1.328-7.1-.196Zm-4.058-1.132-3.903-1.391 11.005 1.588-7.102-.197Zm-3.903-1.391-3.755-1.655 10.86 1.852-7.105-.197Zm-3.755-1.655-3.614-1.92 10.72 2.119-7.106-.199Zm-3.614-1.92L75.296 9.77l10.591 2.389-7.108-.2ZM75.296 9.77 71.94 7.31l10.467 2.66-7.11-.2ZM71.94 7.31 68.7 4.573l10.353 2.938-7.113-.202ZM68.7 4.573 65.57 1.56l10.244 3.217-7.114-.204ZM65.57 1.56l-.46-.413 7.576.62-7.116-.207Zm-.46-.413-.497-.339 7.613.545-7.117-.206Zm-.497-.339-.526-.263 7.642.47-7.116-.207Zm-.526-.263-.548-.188 7.665.395-7.117-.207Zm-.548-.188-.562-.112 7.68.319-7.118-.207Zm-.562-.112-.569-.038 7.687.244-7.117-.206Zm-7.695 136.373 7.126.127-.125-.001-7.001-.126Zm.126-.002 7.126.128-.126.001-7-.129Zm.125-.005 7.126.127-.125.006-7-.133Zm.125-.01 7.127.128-.126.009-7-.137Zm.125-.012 7.127.127-.125.013-7.002-.14Zm.125-.017 7.126.128-.124.016-7.002-.144Zm.125-.02 7.126.127-.125.021-7.001-.148Zm.124-.024 7.126.128-.124.023-7.002-.151Zm.123-.027 7.126.127-.123.028-7.003-.155Zm.123-.032 7.126.128-.123.031-7.003-.159Zm.123-.034 7.125.127-.122.035-7.003-.162Zm.121-.039 7.126.128-.122.038-7.004-.166Zm.121-.042 7.126.128-.121.042-7.005-.17Zm12.462-5.503 7.119.131-12.455 5.5 5.336-5.631Zm10.356-6.496 7.112.134-10.35 6.493 3.238-6.627Zm8.442-7.352 7.107.139-8.437 7.347 1.33-7.486Zm6.72-8.069 7.104.144-6.717 8.064-.387-8.208Zm5.191-8.647 7.1.148-5.187 8.643-1.913-8.791Zm3.854-9.088 7.098.154-3.852 9.082-3.246-9.236Zm2.709-9.39 7.097.16-2.708 9.384-4.389-9.543Zm1.757-9.552 7.096.165-1.756 9.547-5.34-9.712Zm.997-9.578 7.095.17-.996 9.573-6.099-9.743Zm.43-9.465 7.095.176-.43 9.46-6.665-9.636Zm.055-9.212 7.094.181-.054 9.207-7.04-9.388Zm-.129-8.823 7.095.187.128 8.817-7.223-9.004Zm-.016-.918 7.095.187.016.918-7.111-1.105Zm-.017-.91 7.095.188.017.909-7.112-1.097Zm-.015-.902 7.095.188.015.902-7.11-1.09Zm-.015-.895 7.095.189.015.894-7.11-1.083Zm-.014-.887 7.095.19.014.886-7.109-1.076Zm-.013-.88 7.095.19.013.88-7.108-1.07Zm-.011-.874 7.095.19.011.873-7.106-1.063Zm-.01-.867 7.095.19.01.867-7.105-1.057Zm-.008-.862 7.095.191.008.861-7.103-1.052Zm-.006-.856 7.095.192.006.855-7.101-1.047Zm-.003-.85 7.094.192.004.85-7.098-1.042Zm-.002-.845 7.095.192.001.845-7.096-1.037Zm-.041-.65 7.095.194.041.648-7.136-.841Zm-.121-.622 7.095.194.121.622-7.216-.816Zm-.194-.59 7.095.194.194.59-7.289-.784Zm-.263-.552 7.095.194.263.552-7.358-.746Zm-.326-.509 7.095.195.326.508-7.421-.703Zm-.384-.459 7.096.195.383.459-7.479-.654Zm-.436-.404 7.096.195.436.404-7.532-.599Zm-.482-.344 7.096.196.482.343-7.578-.539Zm-.524-.276 7.096.195.524.277-7.62-.473Zm-.561-.206 7.097.196.56.205-7.657-.4Zm-.59-.127 7.097.196.59.127-7.687-.323Zm-.616-.043 7.098.195.615.044-7.713-.24Zm-9.328-.494 7.103.196 4.569.37-11.672-.566Zm-4.393-.622 7.106.196 4.39.622-11.496-.818ZM87 17.86l7.108.196 4.22.875L87 17.86Zm-4.06-1.133 7.11.197 4.058 1.132-11.168-1.329Zm-3.904-1.392 7.112.198 3.903 1.391-11.015-1.59Zm-3.757-1.656 7.114.2 3.755 1.654-10.87-1.854Zm-3.617-1.921 7.117.2 3.614 1.92-10.731-2.12Zm-3.484-2.19 7.118.201 3.483 2.19-10.601-2.391Zm-3.36-2.462 7.121.203 3.358 2.46-10.478-2.663Zm-3.24-2.737 7.122.204 3.24 2.736-10.363-2.94Zm-3.133-3.015 7.125.206 3.13 3.013-10.255-3.219Zm-.46-.414 7.124.207.461.413-7.585-.62Zm-.498-.338 7.126.206.496.339-7.621-.545Zm-.526-.263 7.126.206.526.263-7.651-.47ZM56.415.15l7.125.206.548.188L56.415.15ZM55.85.038l7.127.207.561.112-7.688-.32ZM55.282 0l7.126.207.57.038L55.282 0Zm-.125 136.616.125.002 7 .126-7.125-.128Zm.125.002.126-.002 7 .129-7.126-.127Zm.126-.002.125-.005 7 .133-7.125-.128Zm.125-.005.125-.01 7.001.137-7.126-.127Zm.125-.01.125-.012 7.002.14-7.127-.128Zm.125-.012.125-.017 7.002.144-7.127-.127Zm.125-.017.125-.02 7.001.148-7.126-.128Zm.125-.02.124-.024 7.002.151-7.126-.127Zm.124-.024.123-.027 7.003.155-7.126-.128Zm.123-.027.123-.032 7.003.159-7.126-.127Zm.123-.032.123-.034 7.003.162-7.126-.128Zm.123-.034.121-.039 7.004.166-7.125-.127Zm.121-.039.121-.042 7.005.17-7.126-.128Zm.121-.042 12.462-5.503-5.336 5.631-7.126-.128Zm12.462-5.503 10.356-6.496-3.237 6.627-7.119-.131Zm10.356-6.496 8.442-7.352-1.33 7.486-7.112-.134Zm8.442-7.352 6.72-8.069.387 8.208-7.107-.139Zm6.72-8.069 5.191-8.647 1.913 8.791-7.104-.144Zm5.191-8.647 3.854-9.088 3.246 9.236-7.1-.148Zm3.854-9.088 2.709-9.39 4.389 9.544-7.098-.154Zm2.709-9.39 1.757-9.552 5.34 9.712-7.097-.16Zm1.757-9.552.997-9.578 6.099 9.743-7.096-.165Zm.997-9.578.43-9.465 6.665 9.635-7.095-.17Zm.43-9.465.055-9.212 7.04 9.388-7.095-.176Zm.055-9.212-.129-8.823 7.223 9.004-7.094-.181Zm-.129-8.823-.016-.918 7.111 1.105-7.095-.187Zm-.016-.918-.017-.91 7.112 1.097-7.095-.187Zm-.017-.91-.015-.902 7.11 1.09-7.095-.188Zm-.015-.902-.015-.895 7.11 1.083-7.095-.188Zm-.015-.895-.014-.887 7.109 1.076-7.095-.189Zm-.014-.887-.013-.88 7.108 1.07-7.095-.19Zm-.013-.88-.011-.874 7.106 1.063-7.095-.19Zm-.011-.874-.01-.867 7.105 1.057-7.095-.19Zm-.01-.867-.008-.862 7.103 1.052-7.095-.19Zm-.008-.862-.006-.856 7.101 1.047-7.095-.19Zm-.006-.856-.003-.85 7.098 1.042-7.095-.192Zm-.003-.85-.002-.845 7.096 1.037-7.094-.192Zm-.002-.845-.041-.65 7.136.842-7.095-.192Zm-.041-.65-.121-.622 7.216.816-7.095-.193Zm-.121-.622-.194-.59 7.289.784-7.095-.194Zm-.194-.59-.263-.552 7.358.746-7.095-.194Zm-.263-.552-.326-.509 7.421.703-7.095-.194Zm-.326-.509-.384-.459 7.479.654-7.095-.195Zm-.384-.459-.436-.404 7.532.599-7.096-.195Zm-.436-.404-.482-.344 7.578.539-7.096-.195Zm-.482-.344-.524-.276 7.62.472-7.096-.196Zm-.524-.276-.561-.206 7.657.4-7.096-.194Zm-.561-.206-.59-.127 7.687.323-7.097-.195Zm-.59-.127-.616-.043 7.713.239-7.097-.196Zm-5.373-.166-4.57-.371 11.671.566-7.101-.195Zm-4.57-.371-4.394-.622 11.496.818-7.103-.196Zm-4.394-.622L87 17.86l11.33 1.07-7.106-.196ZM87 17.86l-4.06-1.133 11.168 1.33L87 17.86Zm-4.06-1.133-3.904-1.392 11.015 1.59-7.11-.198Zm-3.904-1.392-3.757-1.656 10.87 1.854-7.113-.198Zm-3.757-1.656-3.617-1.921 10.731 2.12-7.114-.199Zm-3.617-1.921-3.484-2.19 10.6 2.39-7.116-.2Zm-3.484-2.19-3.36-2.462 10.478 2.663-7.118-.201Zm-3.36-2.462-3.24-2.737 10.361 2.94-7.12-.203Zm-3.24-2.737-3.133-3.015L68.7 4.574l-7.123-.205Zm-3.133-3.015-.46-.414 7.585.62-7.124-.206Zm-.46-.414-.498-.338 7.622.545L57.985.94Zm-.498-.338-.526-.263 7.652.47-7.126-.207Zm-.526-.263L56.415.15l7.673.394L56.96.34ZM56.415.15 55.85.038l7.688.32L56.414.15ZM55.85.038 55.282 0l7.696.245L55.85.038Z" fill="#03A3E6"/><path d="m.82 44 .128-8.824.016-.917-.145 9.74Zm.484 18.677-.43-9.465L.82 44l.485 18.678Zm2.755 19.131L2.3 72.255l-.997-9.578 2.755 19.131Zm6.564 18.478-3.855-9.088-2.71-9.39 6.565 18.478Zm11.912 16.716-6.721-8.069-5.191-8.647 11.912 16.716Zm18.8 13.849-10.358-6.497-8.442-7.352 18.8 13.849Zm12.583 5.545-.12-.042-12.464-5.503 12.584 5.545Zm.244.073-.122-.034-.122-.039.244.073Zm.246.059-.123-.027-.123-.032.246.059Zm.25.044-.126-.02-.123-.024.248.044Zm.25.029-.126-.012-.125-.017.25.029Zm.25.015-.126-.005-.125-.01.251.015Zm.251 0-.126.002-.125-.002h.251Zm.25-.015-.124.01-.126.005.25-.015Zm.25-.029-.124.017-.125.012.25-.029Zm.25-.044-.125.024-.124.02.248-.044Zm.246-.059-.123.032-.124.027.247-.059Zm.244-.073-.122.039-.122.034.244-.073Zm12.583-5.545-12.462 5.503-.121.042 12.583-5.545Zm18.798-13.848-8.442 7.352-10.356 6.496 18.798-13.848Zm11.91-16.716-5.19 8.647-6.72 8.069 11.91-16.716Zm6.564-18.477-2.71 9.39-3.853 9.087 6.563-18.477Zm2.754-19.131-.997 9.578-1.757 9.553 2.754-19.131Zm.484-18.677-.054 9.212-.43 9.465.484-18.677Zm-.145-9.741.017.918.128 8.823-.145-9.741Zm-.155-10.277.042.649.001.845-.043-1.494Zm-.315-1.213.195.59.12.623-.315-1.213Zm-.589-1.06.326.508.263.552-.589-1.06Zm-.819-.864.436.404.383.46-.819-.864Zm-1.007-.62.524.276.483.344-1.007-.62Zm-1.151-.333.591.128.56.205-1.151-.333Zm-5.372-.166 4.757.123.615.043-5.372-.166ZM57.986.94l.461.414 3.132 3.015L57.986.94Zm-1.023-.6.526.263.497.338L56.963.34Zm-1.11-.301.562.113.548.188-1.11-.301Zm-1.14 0 .57-.038.57.038h-1.14Zm-1.11.3.549-.188.562-.112-1.11.3ZM52.58.94l.498-.338.526-.264L52.58.94Zm-3.591 3.43 3.132-3.015.46-.414-3.592 3.429ZM5 19.894l.616-.043 4.757-.123L5 19.894Zm-1.15.333.56-.206.59-.127-1.15.333Zm-1.007.62.482-.344.524-.276-1.006.62Zm-.82.863.384-.459.436-.404-.82.863Zm-.589 1.061.263-.552.326-.509-.589 1.061Zm-.315 1.213.12-.623.195-.59-.315 1.213Zm-.042 1.494v-.845l.042-.65-.042 1.495ZM.819 43.999l.145-9.74.016-.91-.16 10.65Zm3.24 37.81L1.304 62.676.819 43.999l3.24 37.81Zm18.476 35.193-11.912-16.716-6.564-18.478 18.476 35.194Zm31.383 19.394-12.584-5.545-18.8-13.849 31.384 19.394Zm.49.132-.246-.059-.244-.073.49.132Zm.5.073-.25-.029-.25-.044.5.073Zm.501.015h-.251l-.25-.015.501.015Zm.5-.044-.25.029-.25.015.5-.044Zm.496-.103-.247.059-.248.044.495-.103Zm12.827-5.618-12.583 5.545-.244.073 12.827-5.618Zm30.709-30.564L88.03 117.003l-18.798 13.848 30.709-30.564Zm9.317-37.608-2.754 19.13-6.563 18.478 9.317-37.608Zm.339-28.418.145 9.74-.484 18.678.339-28.418Zm-.155-10.277.043 1.494.004.85-.047-2.344Zm-.904-2.274.589 1.061.315 1.213-.904-2.274Zm-1.826-1.483 1.007.62.819.863-1.826-1.483Zm-6.523-.5 5.372.167 1.151.333-6.523-.5ZM56.963.34l1.023.601L61.58 4.37 56.963.339Zm-2.25-.301h1.14l1.11.3-2.25-.3ZM52.58.94l1.024-.602 1.11-.3L52.58.94ZM3.85 20.227 5 19.894l5.373-.166-6.524.498ZM2.022 21.71l.82-.863 1.006-.62-1.826 1.483Zm-.904 2.274.315-1.213.59-1.06-.905 2.273Zm-.046 2.344.004-.85.042-1.494-.046 2.344ZM.819 43.999.98 33.35l.016-.902L.82 43.999Zm21.716 73.003L4.059 81.808.819 44l21.716 73.003Zm31.873 19.526-.49-.132-31.383-19.394 31.873 19.526Zm1.001.088-.502-.015-.498-.073 1 .088Zm.996-.147-.495.103-.5.044.995-.147Zm43.536-36.182-30.71 30.564-12.826 5.618 43.536-36.182Zm9.656-66.026-.339 28.418-9.317 37.608 9.656-66.026Zm-.155-10.277.047 2.344.006.856-.053-3.2Zm-2.73-3.758 1.826 1.485.904 2.273-2.73-3.758ZM54.714.039l2.249.3 4.616 4.03-6.865-4.33Zm-5.726 4.33L52.58.94l2.133-.902-5.726 4.33ZM2.023 21.71l1.826-1.483 6.524-.5-8.35 1.983Zm-.95 4.618.046-2.344.904-2.274-.95 4.618ZM.819 43.999l.177-11.552.015-.894-.192 12.446Zm53.59 92.529-31.874-19.526L.819 43.999l53.59 92.529Zm1.996-.059-.996.147-1-.088 1.996-.059Zm53.192-102.208-9.656 66.026-43.536 36.182 53.192-102.208Zm-.155-10.277.053 3.2.008.862-.061-4.062Zm-9.253-4.256 6.523.498 2.73 3.758-9.253-4.256ZM54.714.038l6.865 4.33 3.241 2.738L54.714.038Zm-8.968 7.068 3.242-2.737L54.714.038l-8.968 7.068ZM2.023 21.71l8.35-1.982 4.572-.371L2.022 21.71Zm-.956 5.473.006-.855.95-4.617-.956 5.473ZM.819 44l.192-12.446.014-.887L.819 44Zm55.586 92.47-1.997.059L.82 43.999l55.586 92.47ZM109.58 33.351l.016.91-53.192 102.208L109.58 33.351Zm-.139-9.367.061 4.062.009.867-.07-4.93Zm-13.824-4.627 4.571.37 9.253 4.257-13.824-4.627ZM54.714.037l10.106 7.07 3.36 2.462L54.713.038ZM2.024 21.712l12.92-2.354 4.394-.622-17.315 2.976Zm-.965 6.334.008-.862.956-5.473-.964 6.335ZM56.405 136.47.819 43.999l.206-13.333 55.38 105.803Zm53.16-104.02.016.902L56.405 136.47l53.16-104.02Zm-.123-8.465.07 4.929.012.874-.082-5.803Zm-18.217-5.249 4.393.622 13.824 4.627-18.217-5.249Zm-45.48-11.63 8.97-7.067 13.465 9.53-22.433-2.462ZM1.06 28.046l.964-6.335 17.315-2.975-18.28 9.31ZM56.406 136.47 1.025 30.666l.013-.88 55.367 106.683ZM109.55 31.554l.015.895-53.16 104.02L109.55 31.554ZM91.225 18.735l18.217 5.249.082 5.803-18.3-11.052Zm-45.48-11.63L68.18 9.569l3.484 2.19-25.917-4.652ZM1.06 28.046l18.28-9.31 4.222-.875L1.06 28.044ZM56.406 136.47 1.038 29.786l.011-.874 55.356 107.557Zm53.131-105.802.014.887L56.405 136.47l53.131-105.802ZM91.225 18.735l18.299 11.052.012.88-18.311-11.932Zm-45.48-11.63 25.918 4.653 3.617 1.921-29.534-6.573ZM1.06 28.046l22.5-10.187 4.06-1.132L1.06 28.045ZM56.406 136.47 1.049 28.912l.01-.867 55.346 108.424Zm34.82-117.734 18.311 11.932L56.405 136.47l34.82-117.734Zm-45.48-11.63L75.28 13.68l3.757 1.656-33.291-8.23ZM1.06 28.046l26.563-11.318 3.905-1.392L1.06 28.046Zm90.166-9.31L56.405 136.47 1.059 28.045l90.166-9.31Zm-45.48-11.63 33.292 8.23 3.905 1.392-37.196-9.621Zm45.48 11.63L1.06 28.046l30.468-12.71 59.698 3.4Zm-45.48-11.63 37.197 9.622 4.06 1.133L45.746 7.106Zm45.48 11.63-59.698-3.4 3.757-1.656 55.94 5.056Zm-48.84-9.168 3.36-2.462 41.256 10.753-44.616-8.291Zm48.839 9.167-55.94-5.056 3.617-1.921 52.323 6.977ZM42.386 9.568l44.616 8.292 4.223.875-48.839-9.167Zm48.839 9.167-52.323-6.977 3.484-2.19 48.839 9.167Z" fill="#03A3E6"/></mask><g mask="url(#a)"><ellipse cx="120.348" cy="101.349" rx="120.348" ry="101.349" transform="matrix(-.99904 .04383 .04235 .9991 215.16 58.83)" fill="url(#b)"/><ellipse cx="94.086" cy="79.911" rx="94.086" ry="79.911" transform="matrix(-.99904 .04383 .04235 .9991 159.156 -91.338)" fill="url(#c)"/></g><path d="M.141 35.15c.068-3.685.132-7.167.132-10.536 0-2.639 2.057-4.778 4.596-4.778 19.652 0 34.615-5.873 47.088-18.483a4.47 4.47 0 0 1 6.407 0c12.471 12.61 27.432 18.483 47.084 18.483 2.538 0 4.595 2.14 4.595 4.778 0 3.37.064 6.852.132 10.539.63 34.3 1.492 81.276-53.51 101.1a4.453 4.453 0 0 1-3.009 0C-1.35 116.428-.488 69.451.141 35.15Z" fill="url(#d)"/><path d="M52.735 9.932C41.516 21.274 28.041 26.544 10.458 26.544c-1.652 0-3.056 1.403-3.056 3.218 0 2.951-.056 5.999-.115 9.21l-.002.108c-.278 15.17-.594 32.922 5.145 49.061 5.711 16.062 17.442 30.579 41.433 39.225a2.906 2.906 0 0 0 1.978 0c23.99-8.646 35.719-23.162 41.43-39.223 5.737-16.14 5.422-33.891 5.143-49.06-.06-3.252-.116-6.337-.116-9.321 0-1.815-1.405-3.218-3.057-3.218-17.582 0-31.055-5.27-42.272-16.612a2.945 2.945 0 0 0-4.234 0Zm2.117 118.608c-.449 0-.898-.078-1.328-.233l-1.5-119.078a3.945 3.945 0 0 1 5.656 0c11.008 11.13 24.214 16.315 41.561 16.315 2.241 0 4.057 1.888 4.057 4.218 0 2.974.056 6.048.116 9.302.556 30.278 1.317 71.744-47.233 89.243-.431.155-.88.233-1.329.233Z" fill="url(#e)" stroke="url(#f)" stroke-width="2"/><g filter="url(#g)"><path d="m31.4 63.877.062.275.086.269-.148-.544Zm-.056-.553.016.276.04.277-.056-.553Zm.056.553.148.544.24.507-.388-1.051Zm.148.544.108.26.131.247-.24-.507Zm-.168-1.628-.036.532.056.552-.02-1.084Zm0 0-.03.261-.006.27.036-.53Zm.354-.884-.354.884.02 1.084.334-1.968Zm-.224.403-.077.232-.053.25.13-.482Z" fill="#fff"/><path d="m38.691 56.844 3.022-.666-.186.016-2.836.65Z" fill="#00AEF6"/><path d="m31.733 61.91-.224.402-.13.481.354-.884Z" fill="#fff"/><path d="m38.88 56.863 3.022-.666-.189-.02-2.832.686Z" fill="#00AEF6"/><path d="m31.734 61.91-.124.189-.1.213.224-.403Z" fill="#fff"/><path d="m39.068 56.918 3.021-.668-.189-.053-2.832.721Zm.188.09 3.02-.67-.187-.088-2.833.758Zm.183.124 3.02-.671-.183-.122-2.837.793Zm.176.158 3.02-.673-.176-.156-2.844.83Zm.166.192 3.02-.676-.167-.19-2.852.866Zm-1.277-.622.186-.016 2.836-.65-3.022.666Zm1.432.847 3.017-.679-.153-.222-2.864.901Zm-1.246-.863.189.02 2.832-.686-3.021.666Zm.189.02.19.054 2.831-.721-3.021.666Zm.19.054.187.09 2.833-.758-3.02.668Zm.187.09.183.124 2.837-.793-3.02.669Zm.183.124.176.158 2.844-.83-3.02.672Zm.176.158.166.192 2.853-.865-3.019.673Zm.166.192.155.225 2.864-.9-3.018.675Z" fill="#00AEF6"/><path d="m31.4 63.877.388 1.052 13.952 23.25L31.4 63.878Zm.335-1.967-.335 1.968L45.74 88.18 31.734 61.91Zm3.16-4.097-.149.165-3.012 3.932 3.16-4.097Z" fill="#fff"/><path d="m35.594 57.527 3.097-.682-.186.016-2.911.666Z" fill="#00AEF6"/><path d="m35.228 57.596-.334.217-3.16 4.097 3.494-4.314Z" fill="#fff"/><path d="m35.785 57.547 3.097-.684-.189-.02-2.908.704Zm.19.056 3.097-.685-.19-.055-2.907.74Zm14.12 29.783 2.92-1.053.174-.103-3.095 1.156ZM36.162 57.694l3.096-.686-.187-.09-2.909.776Z" fill="#00AEF6"/><path d="m35.973 57.603-.745-.007-3.494 4.314 4.24-4.307Z" fill="#fff"/><path d="m50.266 87.283 2.922-1.053.16-.14-3.082 1.193ZM36.345 57.821l3.096-.688-.183-.124-2.913.812Zm3.592-.113 9.375 15.357-6.357-16.036-3.018.68Zm-3.416.274 3.096-.69-.176-.159-2.92.849Zm.167.194 3.095-.693-.166-.192-2.928.885Zm-1.28-.633.186-.016 2.911-.666-3.097.683Zm1.435.861 3.094-.696-.154-.225-2.94.922Zm-1.249-.877.19.02 2.907-.702-3.097.682Zm.19.02.19.057 2.906-.74-3.097.684Zm13.528 15.518 2.962-.885-9.319-15.15 6.357 16.035ZM35.973 57.604l.188.09 2.909-.775-3.097.685Zm14.293 29.68-.174.103 3.096-1.157-2.922 1.053Z" fill="#00AEF6"/><path d="m35.227 57.596-.172.09-.161.127.333-.217Zm-3.44 7.333 13.439 22.63.159.237L31.787 64.93Z" fill="#fff"/><path d="m36.16 57.694.184.126 2.913-.812-3.097.686ZM50.426 87.14l-.16.142 3.082-1.194-2.922 1.052Z" fill="#00AEF6"/><path d="m31.787 64.929 13.598 22.867.354.383-13.952-23.25Z" fill="#fff"/><path d="m36.344 57.82.176.16 2.92-.848-3.096.688Zm.176.16.167.195 2.929-.885-3.096.69Z" fill="#00AEF6"/><path d="m35.593 57.526-.186.017-.18.053.366-.07Z" fill="#fff"/><path d="m36.688 58.176.154.228 2.94-.922-3.094.694Z" fill="#00AEF6"/><path d="m35.973 57.602-.379-.076-.366.07.745.007Zm0 0-.19-.055-.189-.02.38.075Zm.372.218-.184-.126-.188-.092.372.218Zm9.93 16.152-10.302-16.37-4.239 4.308 14.54 12.062Zm-9.586-15.797-.344-.355-.372-.218.716.573Zm0 0-.167-.194-.177-.16.344.354Zm9.585 15.797L31.734 61.91 45.74 88.18l.534-14.208Z" fill="#fff"/><path d="m47.097 88.466 2.995-1.08.175-.104-3.17 1.184Zm.174-.104 2.995-1.08.162-.142-3.157 1.222ZM36.844 58.403l9.43 15.569-6.337-16.265-3.093.696Z" fill="#00AEF6"/><path d="m45.385 87.796.172.207.182.176-.354-.383Z" fill="#fff"/><path d="m46.274 73.972 3.038-.908-9.374-15.357 6.336 16.265Z" fill="#00AEF6"/><path d="m45.74 88.18.19.143.196.111-.387-.255Zm.533-14.208-9.585-15.797-.715-.572 10.3 16.369Z" fill="#fff"/><path d="m47.27 88.363-.174.104 3.17-1.184-2.996 1.08Z" fill="#00AEF6"/><path d="m45.739 88.18.386.255.398.12-.784-.376Zm.534-14.208-9.43-15.568-.156-.228 9.586 15.796Zm-.148 14.463.199.077.2.043-.399-.12Z" fill="#fff"/><path d="m47.43 88.22-.16.143 3.156-1.222-2.995 1.078Z" fill="#00AEF6"/><path d="m45.738 88.18.785.375.746-.192-1.53-.183Zm.785.375.196.007.192-.029-.388.022Zm0 0 .388-.022.358-.17-.746.192Zm.388-.022.184-.066.174-.104-.358.17Z" fill="#fff"/><path d="m50.425 87.14 2.922-1.051 25.657-27.23-28.579 28.282Zm-2.995 1.08 2.995-1.08 25.663-27.484L47.43 88.219Z" fill="#00AEF6"/><path d="m45.738 88.18 1.531.182 26.428-29.556-27.959 29.373Zm1.531.182.161-.143 25.66-27.744-25.82 27.887Zm-1.53-.183 27.958-29.373-27.425 15.166-.534 14.207Z" fill="#fff"/><path d="M76.09 59.655 50.429 87.14l28.579-28.282-2.916.797Z" fill="#00AEF6"/><path d="m66.752 50.333-.193.192-20.286 23.448 20.48-23.64Zm.43-.257-.43.257-20.479 23.64 20.91-23.897Z" fill="#fff"/><path d="M73.09 60.475 47.43 88.22l28.658-28.564-2.999.82Z" fill="#00AEF6"/><path d="m68.13 50.06-.948.015L46.273 73.97 68.13 50.06ZM47.27 88.362l25.82-27.888.328-.474L47.27 88.362Zm26.428-29.557L68.13 50.06 46.273 73.97l27.425-15.166ZM47.27 88.362 73.418 60l.28-1.195L47.27 88.362Z" fill="#fff"/><path d="m70.699 49.32 2.964-.646-.236.024-2.728.623Zm.239.017 2.963-.648-.238-.015-2.725.663Zm.239.056 2.961-.649-.237-.055-2.724.704Zm.235.096 2.96-.65-.234-.095-2.726.745Zm.228.135 2.96-.653-.228-.132-2.732.785Zm.218.174 2.958-.656-.217-.17-2.741.826Zm.204.212 2.957-.658-.203-.21-2.754.868Zm-1.6-.665.237-.024 2.728-.623-2.964.647Zm1.788.916 2.955-.663-.186-.246-2.769.909Zm-1.551-.94.239.016 2.725-.663-2.964.647Zm.239.016.239.056 2.724-.704-2.963.648Zm.239.056.235.096 2.726-.745-2.961.65Zm.235.096.228.135 2.732-.785-2.96.65Zm.228.135.218.174 2.741-.827-2.959.653Zm.218.174.204.212 2.754-.867-2.958.655Zm.204.212.188.25 2.769-.908-2.957.659Zm4.029 9.646 2.916-.797.178-.218-3.094 1.015Zm.082-3.505 2.924-.75-3.892-5.803.968 6.553Zm.097 3.284 2.916-.794.148-.245-3.064 1.039Zm.148-.248 2.916-.791.117-.268-3.033 1.059Zm.117-.271 2.916-.788.087-.286-3.003 1.074Zm-4.285-8.655 3.922 5.89-.967-6.553-2.955.663Zm4.371 8.365 2.917-.784.055-.3-2.972 1.084Zm.055-.304 2.917-.78.024-.31-2.94 1.09Zm-.336-1.887 2.923-.754-.166-.28-2.757 1.034Zm.36 1.572 2.917-.776-.007-.316-2.91 1.093Zm-.224-1.272 2.921-.759-.134-.295-2.787 1.054Zm.216.952 2.918-.772-.04-.317-2.878 1.09Zm-.112-.64 2.92-.763-.103-.308-2.817 1.07Zm.072.319 2.919-.768-.071-.314-2.849 1.081Zm-9-7.38 3.047-.665-.236.024-2.812.64Zm8.618 9.449-.18.22 3.096-1.014-2.916.794Zm-8.379-9.432 3.047-.666-.24-.016-2.807.682Zm8.527 9.184-.148.248 3.064-1.039-2.916.791Zm-8.287-9.127 3.046-.667-.24-.056-2.806.723Zm8.404 8.856-.117.271 3.033-1.059-2.916.788Zm-8.168-8.758 3.045-.669-.235-.096-2.81.765Zm8.254 8.468-.086.29 3.003-1.074-2.916.784Zm-8.024-8.33 3.043-.672-.228-.135-2.815.807Zm8.08 8.026-.056.304 2.972-1.084-2.917.78Zm.023-.315-.024.315 2.941-1.09-2.917.776Zm-.528-1.856.168.284 2.757-1.034-2.924.75Zm-7.356-5.679 3.042-.674-.218-.174-2.824.848Zm7.876 7.215.008.32 2.91-1.092-2.918.772Zm-.352-1.252.136.3 2.787-1.054-2.923.754Zm.311.93.04.322 2.88-1.089-2.92.767Zm-.175-.63.104.312 2.817-1.07-2.921.758Zm.104.312.072.319 2.848-1.082-2.92.763Zm-7.558-6.359 3.04-.678-.204-.212-2.836.89Zm-1.608-.678.237-.024 2.812-.641-3.049.665Zm1.797.932 3.04-.681-.189-.25-2.851.931Zm-1.56-.956.24.017 2.808-.682-3.048.665Zm.24.017.24.057 2.807-.723-3.047.666Zm.24.057.236.098 2.81-.765-3.046.667Z" fill="#00AEF6"/><path d="m67.182 50.076-.221.108-.209.149.43-.257Z" fill="#fff"/><path d="m68.367 50.157.23.138 2.815-.807-3.045.67Zm.23.138.219.177 2.824-.849-3.043.672Zm.219.177.206.215 2.836-.89-3.042.675Z" fill="#00AEF6"/><path d="m67.651 49.986-.237.025-.23.066.468-.09Z" fill="#fff"/><path d="m69.022 50.688.188.254 2.852-.931-3.04.677Z" fill="#00AEF6"/><path d="m68.131 50.062-.48-.076-.467.09.947-.014Z" fill="#fff"/><path d="m73.09 60.475 2.999-.82.179-.22-3.179 1.04Zm.072-3.553 3.008-.771-3.922-5.89.914 6.661Z" fill="#00AEF6"/><path d="m68.13 50.062-.24-.059-.24-.017.48.076Z" fill="#fff"/><path d="m73.27 60.251 2.999-.816.148-.248-3.148 1.064Zm.148-.25 2.999-.814.117-.271L73.418 60Zm.117-.275 3-.81.085-.29-3.085 1.1Z" fill="#00AEF6"/><path d="m68.597 50.296-.23-.138-.236-.098.466.236Z" fill="#fff"/><path d="m69.21 50.942 3.955 5.98-.915-6.661-3.04.681Zm4.412 8.49 3-.806.054-.304-3.054 1.11Z" fill="#00AEF6"/><path d="m69.022 50.688-.425-.392-.466-.236.89.628Z" fill="#fff"/><path d="m73.674 59.124 3-.803.024-.314-3.023 1.117Zm-.342-1.914 3.007-.776-.168-.284-2.839 1.06Zm.365 1.595 3.001-.798-.008-.32-2.993 1.118Z" fill="#00AEF6"/><path d="m69.02 50.688-.205-.215-.22-.177.426.392Z" fill="#fff"/><path d="m73.471 57.515 3.005-.78-.135-.3-2.87 1.08Zm.219.966 3.002-.794-.04-.322-2.962 1.116Zm-.114-.65 3.004-.785-.104-.311-2.9 1.096Zm.073.324 3.003-.79-.072-.319-2.93 1.109Zm-.378 2.096-.18.223 3.18-1.04-3 .817Zm.148-.25-.148.25 3.147-1.064L73.42 60Z" fill="#00AEF6"/><path d="m73.699 58.806-4.677-8.118-.891-.628 5.568 8.746Z" fill="#fff"/><path d="m73.535 59.726-.117.275 3.116-1.085-2.999.81Z" fill="#00AEF6"/><path d="m73.164 56.923-3.954-5.98-.188-.255 4.142 6.235Z" fill="#fff"/><path d="m73.621 59.432-.085.294 3.085-1.1-3 .806Zm.055-.308-.055.308 3.055-1.11-3 .802Zm.022-.319-.022.32 3.023-1.118-3 .798Zm-.534-1.883.17.288 2.838-1.06-3.008.772Zm.525 1.559.01.324 2.992-1.118-3.002.794Zm-.356-1.27.137.304 2.87-1.08-3.007.775Zm.315.944.041.326 2.962-1.116-3.003.79Zm-.178-.64.105.316 2.9-1.097-3.005.78Zm.105.316.073.323 2.931-1.108-3.004.785Z" fill="#00AEF6"/><path d="m73.47 57.516-.306-.593-4.142-6.235 4.448 6.828Zm.228 1.29-.228-1.29-4.448-6.828 4.676 8.118Zm-.607 1.669.18-.223.148-.251-.328.474Zm.328-.474.117-.274.085-.294-.202.568Zm0 0 .203-.568.076-.627-.28 1.195Zm.203-.568.054-.308.022-.319-.076.627Zm-.152-1.917-.137-.305-.169-.288.306.593Zm.228 1.29-.009-.325-.04-.326.05.651Zm0 0-.05-.65-.178-.64.228 1.29Zm-.05-.65-.073-.324-.105-.316.178.64Z" fill="#fff"/><mask id="h" style="mask-type:alpha" maskUnits="userSpaceOnUse" x="35" y="48" width="45" height="41"><path d="m38.691 56.844 3.022-.666-.186.016-2.836.65Z" fill="#00AEF6"/><path d="m38.88 56.863 3.022-.666-.189-.02-2.832.686Z" fill="#00AEF6"/><path d="m39.07 56.918 3.021-.668-.189-.053-2.832.721Zm.188.09 3.02-.67-.187-.088-2.833.758Zm.183.124 3.02-.671-.183-.122-2.837.793Zm.176.158 3.02-.673-.176-.156-2.844.83Zm.166.192 3.02-.676-.167-.19-2.853.866Zm-1.277-.622.186-.016 2.836-.65-3.022.666Zm1.432.847 3.017-.679-.153-.222-2.864.901Zm-1.246-.863.189.02 2.832-.686-3.021.666Zm.189.02.19.054 2.831-.721-3.021.666Zm.19.054.187.09 2.833-.758-3.02.668Zm.187.09.183.124 2.837-.793-3.02.669Zm.183.124.176.158 2.844-.83-3.02.672Zm.176.158.166.192 2.853-.865-3.019.673Zm.166.192.155.225 2.864-.9-3.019.675Z" fill="#00AEF6"/><path d="m35.594 57.526 3.097-.682-.186.016-2.911.666Z" fill="#00AEF6"/><path d="m35.785 57.547 3.097-.684-.189-.02-2.908.704Zm.19.056 3.097-.685-.19-.055-2.907.74Zm14.12 29.783 2.92-1.053.174-.103-3.095 1.156ZM36.162 57.694l3.096-.686-.187-.09-2.909.776Z" fill="#00AEF6"/><path d="m50.266 87.282 2.922-1.052.16-.142-3.082 1.194ZM36.345 57.82l3.096-.688-.183-.124-2.913.812Zm3.592-.113 9.375 15.357-6.357-16.036-3.018.68Zm-3.416.274 3.096-.69-.176-.159-2.92.849Zm.167.194 3.095-.693-.166-.192-2.928.886Zm-1.28-.633.186-.016 2.911-.666-3.097.682Zm1.435.861 3.094-.696-.154-.225-2.94.922Zm-1.249-.877.19.02 2.907-.702-3.097.682Zm.19.02.19.057 2.906-.74-3.097.684Zm13.528 15.518 2.962-.885-9.319-15.15 6.357 16.035ZM35.973 57.603l.188.09 2.909-.775-3.097.685Zm14.293 29.68-.174.103 3.096-1.156-2.922 1.052Z" fill="#00AEF6"/><path d="m36.16 57.694.184.126 2.913-.812-3.097.686ZM50.426 87.14l-.16.142 3.082-1.194-2.922 1.052ZM36.344 57.82l.176.162 2.92-.85-3.096.689Zm.176.162.167.194 2.929-.885-3.096.69Zm.168.194.154.228 2.94-.922-3.094.694Z" fill="#00AEF6"/><path d="m47.097 88.466 2.995-1.08.175-.104-3.17 1.184Zm.174-.104 2.995-1.08.162-.142-3.157 1.222ZM36.844 58.403l9.43 15.569-6.337-16.265-3.093.696Z" fill="#00AEF6"/><path d="m46.274 73.972 3.038-.908-9.374-15.357 6.336 16.265Zm.998 14.39-.174.104 3.17-1.184-2.996 1.08Z" fill="#00AEF6"/><path d="m47.432 88.218-.16.144 3.156-1.222-2.995 1.078Zm2.995-1.078 2.922-1.052 25.657-27.23L50.427 87.14Zm-2.995 1.078 2.995-1.078 25.664-27.485-28.66 28.563Z" fill="#00AEF6"/><path d="M76.09 59.655 50.429 87.14l28.579-28.282-2.916.797Z" fill="#00AEF6"/><path d="M73.091 60.475 47.431 88.22l28.66-28.564-3 .82ZM70.699 49.32l2.964-.646-.236.024-2.728.623Zm.239.017 2.963-.648-.238-.015-2.725.663Zm.239.056 2.961-.649-.237-.055-2.724.704Zm.235.096 2.96-.65-.234-.095-2.726.745Zm.228.135 2.96-.653-.228-.132-2.732.785Zm.218.174 2.958-.656-.217-.17-2.741.826Zm.204.212 2.957-.658-.203-.21-2.754.868Zm-1.6-.665.237-.024 2.728-.623-2.964.647Zm1.788.916 2.955-.663-.186-.246-2.769.909Zm-1.551-.94.239.016 2.725-.663-2.964.647Zm.239.016.239.056 2.724-.704-2.963.648Zm.239.056.235.096 2.726-.745-2.961.65Zm.235.096.228.135 2.732-.785-2.96.65Zm.228.135.218.174 2.741-.827-2.959.653Zm.218.174.204.212 2.754-.867-2.958.655Zm.204.212.188.25 2.769-.908-2.957.659Zm4.029 9.646 2.916-.797.178-.218-3.094 1.015Zm.082-3.505 2.924-.75-3.892-5.803.968 6.553Zm.097 3.284 2.916-.794.148-.245-3.064 1.039Zm.148-.248 2.916-.791.117-.268-3.033 1.059Zm.117-.271 2.916-.788.087-.286-3.003 1.074Zm-4.285-8.655 3.922 5.89-.967-6.553-2.955.663Zm4.371 8.365 2.917-.784.055-.3-2.972 1.084Zm.055-.304 2.917-.78.024-.31-2.94 1.09Zm-.336-1.887 2.923-.754-.166-.28-2.757 1.034Zm.36 1.572 2.917-.776-.007-.316-2.91 1.093Zm-.224-1.272 2.921-.759-.134-.295-2.787 1.054Zm.216.952 2.918-.772-.04-.317-2.878 1.09Zm-.112-.64 2.92-.763-.103-.308-2.817 1.07Zm.072.319 2.919-.768-.071-.314-2.849 1.081Zm-9-7.38 3.047-.665-.236.024-2.812.64Zm8.618 9.449-.18.22 3.096-1.014-2.916.794Zm-8.379-9.432 3.047-.666-.24-.016-2.807.682Zm8.527 9.184-.148.248 3.064-1.039-2.916.791Zm-8.287-9.127 3.046-.667-.24-.056-2.806.723Zm8.404 8.856-.117.271 3.033-1.059-2.916.788Zm-8.168-8.758 3.045-.669-.235-.096-2.81.765Zm8.254 8.468-.086.29 3.003-1.074-2.916.784Zm-8.024-8.33 3.043-.672-.228-.135-2.815.807Zm8.08 8.026-.056.304 2.972-1.084-2.917.78Zm.023-.315-.024.315 2.941-1.09-2.917.776Zm-.528-1.856.168.284 2.757-1.034-2.924.75Zm-7.356-5.679 3.042-.674-.218-.174-2.824.848Zm7.876 7.215.008.32 2.91-1.092-2.918.772Zm-.352-1.252.136.3 2.787-1.054-2.923.754Zm.311.93.04.322 2.88-1.089-2.92.767Zm-.175-.63.104.312 2.817-1.07-2.921.758Zm.104.312.072.319 2.848-1.082-2.92.763Zm-7.558-6.359 3.04-.678-.204-.212-2.836.89Zm-1.608-.678.237-.024 2.812-.641-3.049.665Zm1.797.932 3.04-.681-.189-.25-2.851.931Zm-1.56-.956.24.017 2.808-.682-3.048.665Zm.24.017.24.057 2.807-.723-3.047.666Zm.24.057.236.098 2.81-.765-3.046.667Z" fill="#00AEF6"/><path d="m68.367 50.157.23.138 2.815-.807-3.045.67Zm.23.138.219.177 2.824-.849-3.043.672Zm.219.177.206.215 2.836-.89-3.042.675Zm.206.215.188.254 2.852-.931-3.04.677Zm4.069 9.787 3-.82.179-.22-3.179 1.04Zm.073-3.552 3.008-.772-3.922-5.89.914 6.662Z" fill="#00AEF6"/><path d="m73.27 60.251 2.999-.816.148-.248-3.148 1.064Zm.148-.25 2.999-.814.117-.271L73.418 60Zm.117-.275 3-.81.085-.29-3.085 1.1Zm-4.325-8.785 3.955 5.98-.915-6.661-3.04.681Zm4.412 8.49 3-.806.054-.304-3.054 1.11Zm.052-.307 3-.803.024-.314-3.023 1.117Zm-.342-1.914 3.007-.776-.168-.284-2.839 1.06Zm.365 1.595 3.001-.798-.008-.32-2.993 1.118Z" fill="#00AEF6"/><path d="m73.471 57.515 3.005-.78-.135-.3-2.87 1.08Zm.219.966 3.002-.794-.04-.322-2.962 1.116Zm-.114-.65 3.004-.785-.104-.311-2.9 1.096Zm.073.324 3.003-.79-.072-.319-2.93 1.109Zm-.378 2.096-.18.223 3.18-1.04-3 .817Zm.148-.25-.148.25 3.147-1.064L73.42 60Z" fill="#00AEF6"/><path d="m73.535 59.726-.117.275 3.116-1.085-2.999.81Z" fill="#00AEF6"/><path d="m73.621 59.432-.085.294 3.085-1.1-3 .806Zm.055-.308-.055.308 3.055-1.11-3 .802Zm.022-.319-.022.32 3.023-1.118-3 .798Zm-.534-1.883.17.288 2.838-1.06-3.008.772Zm.525 1.559.01.324 2.992-1.118-3.002.794Zm-.356-1.27.137.304 2.87-1.08-3.007.775Zm.315.944.041.326 2.962-1.116-3.003.79Zm-.178-.64.105.316 2.9-1.097-3.005.78Zm.105.316.073.323 2.931-1.108-3.004.785Z" fill="#00AEF6"/></mask><g mask="url(#h)"><path d="m38.691 56.844 3.022-.666-.186.016-2.836.65Z" fill="#00AEF6"/><path d="m38.88 56.863 3.022-.666-.189-.02-2.832.686Z" fill="#00AEF6"/><path d="m39.07 56.918 3.021-.668-.189-.053-2.832.721Zm.188.09 3.02-.67-.187-.088-2.833.758Zm.183.124 3.02-.671-.183-.122-2.837.793Zm.176.158 3.02-.673-.176-.156-2.844.83Zm.166.192 3.02-.676-.167-.19-2.853.866Zm-1.277-.622.186-.016 2.836-.65-3.022.666Zm1.432.847 3.017-.679-.153-.222-2.864.901Zm-1.246-.863.189.02 2.832-.686-3.021.666Zm.189.02.19.054 2.831-.721-3.021.666Zm.19.054.187.09 2.833-.758-3.02.668Zm.187.09.183.124 2.837-.793-3.02.669Zm.183.124.176.158 2.844-.83-3.02.672Zm.176.158.166.192 2.853-.865-3.019.673Zm.166.192.155.225 2.864-.9-3.019.675Z" fill="#00AEF6"/><path d="m35.594 57.526 3.097-.682-.186.016-2.911.666Z" fill="#00AEF6"/><path d="m35.785 57.547 3.097-.684-.189-.02-2.908.704Zm.19.056 3.097-.685-.19-.055-2.907.74Zm14.12 29.783 2.92-1.053.174-.103-3.095 1.156ZM36.162 57.694l3.096-.686-.187-.09-2.909.776Z" fill="#00AEF6"/><path d="m50.266 87.282 2.922-1.052.16-.142-3.082 1.194ZM36.345 57.82l3.096-.688-.183-.124-2.913.812Zm3.592-.113 9.375 15.357-6.357-16.036-3.018.68Zm-3.416.274 3.096-.69-.176-.159-2.92.849Zm.167.194 3.095-.693-.166-.192-2.928.886Zm-1.28-.633.186-.016 2.911-.666-3.097.682Zm1.435.861 3.094-.696-.154-.225-2.94.922Zm-1.249-.877.19.02 2.907-.702-3.097.682Zm.19.02.19.057 2.906-.74-3.097.684Zm13.528 15.518 2.962-.885-9.319-15.15 6.357 16.035ZM35.973 57.603l.188.09 2.909-.775-3.097.685Zm14.293 29.68-.174.103 3.096-1.156-2.922 1.052Z" fill="#00AEF6"/><path d="m36.16 57.694.184.126 2.913-.812-3.097.686ZM50.426 87.14l-.16.142 3.082-1.194-2.922 1.052ZM36.344 57.82l.176.162 2.92-.85-3.096.689Zm.176.162.167.194 2.929-.885-3.096.69Zm.168.194.154.228 2.94-.922-3.094.694Z" fill="#00AEF6"/><path d="m47.097 88.466 2.995-1.08.175-.104-3.17 1.184Zm.174-.104 2.995-1.08.162-.142-3.157 1.222ZM36.844 58.403l9.43 15.569-6.337-16.265-3.093.696Z" fill="#00AEF6"/><path d="m46.274 73.972 3.038-.908-9.374-15.357 6.336 16.265Zm.998 14.39-.174.104 3.17-1.184-2.996 1.08Z" fill="#00AEF6"/><path d="m47.432 88.218-.16.144 3.156-1.222-2.995 1.078Zm2.995-1.078 2.922-1.052 25.657-27.23L50.427 87.14Zm-2.995 1.078 2.995-1.078 25.664-27.485-28.66 28.563Z" fill="#00AEF6"/><path d="M76.09 59.655 50.429 87.14l28.579-28.282-2.916.797Z" fill="#00AEF6"/><path d="M73.091 60.475 47.431 88.22l28.66-28.564-3 .82ZM70.699 49.32l2.964-.646-.236.024-2.728.623Zm.239.017 2.963-.648-.238-.015-2.725.663Zm.239.056 2.961-.649-.237-.055-2.724.704Zm.235.096 2.96-.65-.234-.095-2.726.745Zm.228.135 2.96-.653-.228-.132-2.732.785Zm.218.174 2.958-.656-.217-.17-2.741.826Zm.204.212 2.957-.658-.203-.21-2.754.868Zm-1.6-.665.237-.024 2.728-.623-2.964.647Zm1.788.916 2.955-.663-.186-.246-2.769.909Zm-1.551-.94.239.016 2.725-.663-2.964.647Zm.239.016.239.056 2.724-.704-2.963.648Zm.239.056.235.096 2.726-.745-2.961.65Zm.235.096.228.135 2.732-.785-2.96.65Zm.228.135.218.174 2.741-.827-2.959.653Zm.218.174.204.212 2.754-.867-2.958.655Zm.204.212.188.25 2.769-.908-2.957.659Zm4.029 9.646 2.916-.797.178-.218-3.094 1.015Zm.082-3.505 2.924-.75-3.892-5.803.968 6.553Zm.097 3.284 2.916-.794.148-.245-3.064 1.039Zm.148-.248 2.916-.791.117-.268-3.033 1.059Zm.117-.271 2.916-.788.087-.286-3.003 1.074Zm-4.285-8.655 3.922 5.89-.967-6.553-2.955.663Zm4.371 8.365 2.917-.784.055-.3-2.972 1.084Zm.055-.304 2.917-.78.024-.31-2.94 1.09Zm-.336-1.887 2.923-.754-.166-.28-2.757 1.034Zm.36 1.572 2.917-.776-.007-.316-2.91 1.093Zm-.224-1.272 2.921-.759-.134-.295-2.787 1.054Zm.216.952 2.918-.772-.04-.317-2.878 1.09Zm-.112-.64 2.92-.763-.103-.308-2.817 1.07Zm.072.319 2.919-.768-.071-.314-2.849 1.081Zm-9-7.38 3.047-.665-.236.024-2.812.64Zm8.618 9.449-.18.22 3.096-1.014-2.916.794Zm-8.379-9.432 3.047-.666-.24-.016-2.807.682Zm8.527 9.184-.148.248 3.064-1.039-2.916.791Zm-8.287-9.127 3.046-.667-.24-.056-2.806.723Zm8.404 8.856-.117.271 3.033-1.059-2.916.788Zm-8.168-8.758 3.045-.669-.235-.096-2.81.765Zm8.254 8.468-.086.29 3.003-1.074-2.916.784Zm-8.024-8.33 3.043-.672-.228-.135-2.815.807Zm8.08 8.026-.056.304 2.972-1.084-2.917.78Zm.023-.315-.024.315 2.941-1.09-2.917.776Zm-.528-1.856.168.284 2.757-1.034-2.924.75Zm-7.356-5.679 3.042-.674-.218-.174-2.824.848Zm7.876 7.215.008.32 2.91-1.092-2.918.772Zm-.352-1.252.136.3 2.787-1.054-2.923.754Zm.311.93.04.322 2.88-1.089-2.92.767Zm-.175-.63.104.312 2.817-1.07-2.921.758Zm.104.312.072.319 2.848-1.082-2.92.763Zm-7.558-6.359 3.04-.678-.204-.212-2.836.89Zm-1.608-.678.237-.024 2.812-.641-3.049.665Zm1.797.932 3.04-.681-.189-.25-2.851.931Zm-1.56-.956.24.017 2.808-.682-3.048.665Zm.24.017.24.057 2.807-.723-3.047.666Zm.24.057.236.098 2.81-.765-3.046.667Z" fill="#00AEF6"/><path d="m68.367 50.157.23.138 2.815-.807-3.045.67Zm.23.138.219.177 2.824-.849-3.043.672Zm.219.177.206.215 2.836-.89-3.042.675Zm.206.215.188.254 2.852-.931-3.04.677Zm4.069 9.787 3-.82.179-.22-3.179 1.04Zm.073-3.552 3.008-.772-3.922-5.89.914 6.662Z" fill="#00AEF6"/><path d="m73.27 60.251 2.999-.816.148-.248-3.148 1.064Zm.148-.25 2.999-.814.117-.271L73.418 60Zm.117-.275 3-.81.085-.29-3.085 1.1Zm-4.325-8.785 3.955 5.98-.915-6.661-3.04.681Zm4.412 8.49 3-.806.054-.304-3.054 1.11Zm.052-.307 3-.803.024-.314-3.023 1.117Zm-.342-1.914 3.007-.776-.168-.284-2.839 1.06Zm.365 1.595 3.001-.798-.008-.32-2.993 1.118Z" fill="#00AEF6"/><path d="m73.471 57.515 3.005-.78-.135-.3-2.87 1.08Zm.219.966 3.002-.794-.04-.322-2.962 1.116Zm-.114-.65 3.004-.785-.104-.311-2.9 1.096Zm.073.324 3.003-.79-.072-.319-2.93 1.109Zm-.378 2.096-.18.223 3.18-1.04-3 .817Zm.148-.25-.148.25 3.147-1.064L73.42 60Z" fill="#00AEF6"/><path d="m73.535 59.726-.117.275 3.116-1.085-2.999.81Z" fill="#00AEF6"/><path d="m73.621 59.432-.085.294 3.085-1.1-3 .806Zm.055-.308-.055.308 3.055-1.11-3 .802Zm.022-.319-.022.32 3.023-1.118-3 .798Zm-.534-1.883.17.288 2.838-1.06-3.008.772Zm.525 1.559.01.324 2.992-1.118-3.002.794Zm-.356-1.27.137.304 2.87-1.08-3.007.775Zm.315.944.041.326 2.962-1.116-3.003.79Zm-.178-.64.105.316 2.9-1.097-3.005.78Zm.105.316.073.323 2.931-1.108-3.004.785Z" fill="#00AEF6"/><ellipse cx="49.047" cy="43.771" rx="49.047" ry="43.771" transform="matrix(-.99904 .04383 .04235 .9991 120.238 25.02)" fill="url(#i)"/></g></g><path d="M69.207 50.595c-.787-.913-2.078-.913-2.865 0L46.305 73.97l-9.557-15.836c-.787-.916-1.76-.828-2.441.35l-2.449 3.191c-.787.906-.713 2.504-.083 3.281l13.543 22.95c.787.905 1.716.905 2.512 0L73.28 60.43c.798-.913.798-2.407 0-3.323l-4.073-6.512Z" fill="url(#j)"/><defs><linearGradient id="d" x1="95.17" y1="-26.511" x2="-26.219" y2="79.366" gradientUnits="userSpaceOnUse"><stop stop-color="#4CC5F8"/><stop offset="1" stop-color="#8AD9FC"/></linearGradient><linearGradient id="e" x1="54.85" y1="8.034" x2="54.85" y2="128.54" gradientUnits="userSpaceOnUse"><stop stop-color="#8AD9FC"/><stop offset="1" stop-color="#4CC5F8"/></linearGradient><linearGradient id="f" x1="81.477" y1="18.478" x2="51.992" y2="127.769" gradientUnits="userSpaceOnUse"><stop stop-color="#00A1E4"/><stop offset="1" stop-color="#ABE6FF"/></linearGradient><linearGradient id="j" x1="52.582" y1="49.91" x2="52.582" y2="88.586" gradientUnits="userSpaceOnUse"><stop stop-color="#fff"/><stop offset="1" stop-color="#E9F9FF"/></linearGradient><radialGradient id="b" cx="0" cy="0" r="1" gradientUnits="userSpaceOnUse" gradientTransform="scale(120.348 101.349) rotate(90 0 1)"><stop stop-color="#D9F3FF"/><stop offset="1" stop-color="#B7E9FF" stop-opacity="0"/></radialGradient><radialGradient id="c" cx="0" cy="0" r="1" gradientUnits="userSpaceOnUse" gradientTransform="scale(94.0857 79.9106) rotate(90 0 1)"><stop stop-color="#D9F3FF"/><stop offset="1" stop-color="#B7E9FF" stop-opacity="0"/></radialGradient><radialGradient id="i" cx="0" cy="0" r="1" gradientUnits="userSpaceOnUse" gradientTransform="matrix(0 43.7708 -49.0473 0 49.047 43.77)"><stop stop-color="#BFEBFF"/><stop offset="1" stop-color="#50C7FC" stop-opacity="0"/></radialGradient><filter id="g" x="24.344" y="42.674" width="68.273" height="59.889" filterUnits="userSpaceOnUse" color-interpolation-filters="sRGB"><feFlood flood-opacity="0" result="BackgroundImageFix"/><feColorMatrix in="SourceAlpha" values="0 0 0 0 0 0 0 0 0 0 0 0 0 0 0 0 0 0 127 0" result="hardAlpha"/><feOffset dx="3" dy="4"/><feGaussianBlur stdDeviation="5"/><feColorMatrix values="0 0 0 0 0 0 0 0 0 0.611764 0 0 0 0 0.866667 0 0 0 1 0"/><feBlend in2="BackgroundImageFix" result="effect1_dropShadow_1361_351504"/><feBlend in="SourceGraphic" in2="effect1_dropShadow_1361_351504" result="shape"/></filter></defs></svg>