<svg width="78" height="89" fill="none" xmlns="http://www.w3.org/2000/svg"><path d="m2.535 45.518.612 5.526 1.137 5.323-1.749-10.849Zm.473-11.267-.524 5.592.051 5.675.473-11.267Zm-.473 11.267 1.75 10.849 3.71 9.825-5.46-20.674Zm1.75 10.849 1.627 5.067 2.083 4.758-3.71-9.825Zm1.36-32.335L3.007 34.25l-.473 11.267 3.11-21.486Zm0 0-1.57 4.934-1.067 5.285 2.636-10.22Zm2.35 42.16 2.504 4.394 2.891 3.975-5.395-8.37Zm-5.46-20.674 5.46 20.674 12.2 14.846-17.66-35.52ZM16.181 8.67 5.644 24.032 2.535 45.518 16.181 8.67Zm-6.043 6.718-2.46 4.104-2.034 4.54 4.494-8.644ZM7.995 66.192l5.395 8.37 6.805 6.476-12.2-14.846Zm8.186-57.523L2.535 45.52l17.66 35.519-4.015-72.37Zm-2.79 65.892 3.242 3.503 3.562 2.974-6.805-6.477ZM16.18 8.67l-6.043 6.718-4.494 8.645L16.181 8.669Zm0 0-3.196 3.096-2.847 3.622L16.18 8.67Zm4.014 72.369 3.845 2.39 4.094 1.749-7.94-4.14Zm3.268-76.802-3.777 1.908L16.18 8.67l7.282-4.433Zm-3.268 76.802 7.94 4.139 8.659 1.343-16.6-5.482Zm28.23 4.17 1.85-.211 4.029-1.176-5.879 1.387ZM39.113 1.783 43.466 2l-2.499-.384-1.854.167ZM43.466 2l1.854-.167-4.353-.217L43.466 2Z" fill="#00A2E5"/><path d="m31.675 2.453-8.212 1.783L16.18 8.67l15.495-6.217Zm-3.54 82.724 4.308 1.051 4.35.292-8.659-1.343Zm24.319-1.143-4.03 1.176 5.88-1.387-1.85.21Zm-5.882 1.387 1.852-.21 4.03-1.177-5.882 1.387Zm-9.316-83.47 4.355.217-2.498-.383-1.856.167Zm4.355.217 1.855-.167-4.353-.216 2.498.383Zm10.843 81.866 1.85-.21 3.808-1.847-5.658 2.057ZM43.466 2l4.328.98-2.474-1.147L43.466 2Zm7.137 82.243-4.03 1.177 5.88-1.387-1.85.21ZM47.794 2.982l1.853-.168-4.327-.98 2.474 1.148Zm-3.075 82.65 1.853-.21 4.03-1.178-5.883 1.389ZM35.399 2.12l4.354.217-2.496-.384-1.859.167Zm-3.724.332-4.202.537-4.01 1.246 8.212-1.783Z" fill="#00A2E5"/><path d="m39.752 2.335 1.858-.168-4.354-.216 2.496.384Zm16.51 79.85-3.809 1.848 5.658-2.057-1.848.21Zm-36.067-1.149 16.6 5.483 15.603-5.974-32.203.491Z" fill="#00A2E5"/><path d="m50.602 84.243 1.85-.21 3.81-1.848-5.66 2.058ZM41.609 2.167l4.33.98L43.464 2l-1.856.167Zm7.14 82.287-4.031 1.177 5.884-1.388-1.853.21Zm-2.81-81.306 1.854-.168L43.465 2l2.473 1.148Zm-3.077 82.695 1.856-.212 4.03-1.177-5.886 1.389ZM33.537 2.284l4.355.217-2.495-.384-1.86.167Zm22.725 79.9 1.849-.209 3.547-2.474-5.396 2.684ZM16.181 8.67l4.014 72.368L66.357 43.47 16.18 8.67Z" fill="#00A2E5"/><path d="m37.893 2.501 1.86-.167-4.355-.217 2.495.384Zm9.9.48 4.127 1.688-2.273-1.856-1.853.167Zm6.62 79.414-3.81 1.848 5.66-2.058-1.85.21ZM51.92 4.669l1.852-.169-4.125-1.687 2.273 1.856Zm-3.17 79.785 1.852-.211 3.81-1.848-5.663 2.059Zm-8.997-82.12 4.329.982-2.472-1.15-1.857.168Zm8.626 5.361L31.675 2.453 16.18 8.67l32.199-.975Z" fill="#00A2E5"/><path d="m46.894 84.665-4.031 1.178 5.886-1.39-1.855.212ZM44.082 3.316l1.857-.168-4.33-.981 2.473 1.149ZM59.81 79.71l-3.548 2.475 5.396-2.684-1.848.209Zm-18.806 6.345 1.858-.212 4.031-1.178-5.889 1.39Zm-9.33-83.603 4.356.217-2.493-.385-1.863.168Zm22.737 79.943 1.85-.21 3.549-2.475-5.399 2.685Z" fill="#00A2E5"/><path d="m36.794 86.52 4.211-.464 4.032-1.179-8.243 1.643Z" fill="#00A2E5"/><path d="m36.03 2.67 1.862-.168-4.355-.217 2.494.385Zm9.908.479 4.126 1.69-2.271-1.858-1.855.168Zm6.621 79.457-3.81 1.848 5.663-2.058-1.853.21ZM50.064 4.839l1.855-.17-4.126-1.688 2.271 1.857ZM59.81 79.71l1.848-.208 3.244-3.06-5.092 3.268Zm-12.916 4.956 1.855-.212 3.81-1.848-5.665 2.06ZM37.892 2.501l4.33.983-2.47-1.15-1.86.167ZM51.92 4.67l3.886 2.343L53.77 4.5l-1.852.169Zm-6.883 80.207-4.032 1.178 5.89-1.39-1.858.212ZM42.222 3.485l1.86-.168-4.33-.982 2.47 1.15Zm13.583 3.528 1.851-.17L53.771 4.5l2.034 2.512Zm2.155 72.906-3.548 2.477 5.398-2.686-1.85.209Zm-5.401 2.687 1.853-.21 3.548-2.477-5.401 2.687Zm-8.478-79.29 4.127 1.691-2.27-1.858-1.857.168ZM63.054 76.65l-3.244 3.06 5.092-3.267-1.848.207Zm-12.35 6.166-3.81 1.85 5.665-2.06-1.854.21Z" fill="#00A2E5"/><path d="m40.362 3.653-4.33-.983-4.356-.217 8.686 1.2Zm7.846 1.354 1.857-.17-4.127-1.689 2.27 1.859Zm9.752 74.911 1.85-.208 3.245-3.061-5.095 3.27Zm-12.923 4.958 1.857-.211 3.81-1.85-5.667 2.061Z" fill="#00A2E5"/><path d="m36.794 86.52 8.243-1.643 7.361-4.33-15.604 5.973Z" fill="#00A2E5"/><path d="m36.031 2.67 4.331.982-2.47-1.15-1.86.167Zm14.034 2.168 3.887 2.344-2.033-2.513-1.854.169Zm12.99 71.811 1.848-.207 2.9-3.6-4.748 3.807ZM40.362 3.652l1.861-.168-4.33-.982 2.47 1.15Zm13.59 3.53 1.854-.17-3.887-2.343 2.033 2.513Zm2.156 72.945-3.548 2.478 5.4-2.687-1.852.21Zm-5.403 2.688 1.855-.21 3.548-2.478-5.403 2.688Zm5.1-75.803 3.61 2.944-1.758-3.114-1.851.17Zm3.61 2.944 1.85-.172-3.608-2.942 1.757 3.114ZM42.222 3.484l4.128 1.692-2.27-1.86-1.858.168Zm18.982 73.372-3.244 3.062 5.094-3.269-1.85.207Zm-12.356 6.17-3.812 1.85 5.668-2.06-1.856.21ZM46.35 5.176l1.858-.17-4.127-1.69 2.269 1.86Zm9.757 74.951 1.853-.209 3.244-3.062-5.097 3.271Zm9.847-7.08-2.9 3.602 4.747-3.808-1.847.205ZM48.209 5.006l3.887 2.346-2.03-2.515-1.857.169Zm12.996 71.85 1.85-.208 2.9-3.603-4.75 3.81Zm-41.01 4.182 32.204-.49L66.357 43.47 20.195 81.039Z" fill="#00A2E5"/><path d="m52.096 7.352 1.856-.17-3.887-2.345 2.031 2.515Zm2.158 72.984-3.549 2.479 5.403-2.688-1.854.209ZM48.38 7.695l-8.018-4.042-8.686-1.2L48.38 7.695Z" fill="#00A2E5"/><path d="m65.954 73.047 1.847-.205 2.513-4.1-4.36 4.305Zm-17.106 9.98 1.857-.211 3.549-2.479-5.406 2.69Zm5.103-75.844 3.61 2.945-1.756-3.115-1.854.17Zm3.61 2.945 1.853-.172-3.61-2.943 1.757 3.115ZM45.037 84.876l3.812-1.85 3.55-2.48-7.362 4.33Z" fill="#00A2E5"/><path d="m40.361 3.653 4.129 1.693-2.268-1.861-1.86.168Zm18.992 73.412-3.245 3.063 5.097-3.27-1.852.206Zm.06-67.109 3.295 3.49-1.443-3.661-1.851.171Zm3.295 3.49 1.85-.175-3.293-3.486 1.443 3.66Zm-18.218-8.1 1.86-.17-4.128-1.691 2.268 1.861Zm9.764 74.991 1.854-.209 3.245-3.064-5.1 3.273Zm9.85-7.084-2.9 3.604 4.75-3.81-1.85.206Zm2.252-29.783L48.38 7.697l-32.2.973 50.176 34.8Z" fill="#00A2E5"/><path d="m46.35 5.175 3.889 2.348-2.03-2.517-1.858.17Zm22.117 63.77-2.512 4.1 4.36-4.303-1.848.203Zm-9.113 8.118 1.852-.207 2.9-3.605-4.752 3.812Zm-9.115-69.54 1.858-.17-3.888-2.347 2.03 2.517Zm2.16 73.022-3.55 2.48 5.406-2.69-1.857.21Zm11.706-7.294 1.85-.205 2.512-4.101-4.362 4.306ZM52.096 7.352l3.61 2.947-1.754-3.117-1.855.17Zm16.371 61.593 1.847-.203 2.084-4.554-3.93 4.757Zm-12.76-58.646 1.855-.172-3.61-2.945 1.755 3.117ZM57.5 77.27l-3.245 3.065 5.099-3.273-1.854.208Zm.062-67.144 3.295 3.49-1.442-3.662-1.853.172Zm3.295 3.49 1.852-.173-3.294-3.489 1.442 3.663Zm4.794 3.806 1.85-.176-2.942-3.977 1.092 4.153Zm-2.942-3.98 2.942 3.98-1.092-4.153-1.85.174Zm-10.31 67.102 1.855-.21L57.5 77.27l-5.102 3.274ZM48.38 7.694l-3.89-2.348-4.128-1.693 8.017 4.041Z" fill="#00A2E5"/><path d="m62.253 73.458-2.9 3.606 4.751-3.812-1.851.206ZM44.49 5.346l3.889 2.348-2.029-2.518-1.86.17Zm22.127 63.803-2.513 4.103 4.362-4.306-1.849.203Zm3.933-4.759-2.084 4.555 3.931-4.756-1.847.201ZM57.5 77.272l1.853-.208 2.9-3.606-4.754 3.814ZM48.378 7.694l1.86-.17-3.889-2.348 2.029 2.518Zm22.17 56.696 1.848-.2 1.613-4.963-3.46 5.163Zm-8.296 9.068 1.851-.206 2.513-4.103-4.364 4.309ZM50.238 7.524l3.611 2.948-1.753-3.119-1.858.17Zm16.379 61.625 1.85-.204 2.083-4.555-3.933 4.759ZM53.849 10.472l1.857-.172-3.61-2.947 1.753 3.119Zm14.353 11.365 1.85-.178-2.552-4.411.702 4.59ZM55.643 77.48l-3.245 3.066 5.101-3.274-1.856.208Zm.063-67.18L59 13.792l-1.44-3.664-1.855.172Zm9.944 7.124 2.552 4.413-.702-4.59-1.85.177Zm-6.649-3.631 1.855-.175-3.295-3.49L59 13.793Zm4.797 3.807 1.852-.176-2.942-3.98 1.09 4.156Zm-2.942-3.982 2.942 3.982-1.09-4.155-1.852.173ZM60.4 73.665l-2.9 3.608 4.753-3.814-1.853.206Zm11.763-14.239L70.55 64.39l3.46-5.163-1.847.198Zm-7.397 9.928-2.513 4.105 4.364-4.31-1.851.205ZM68.7 64.59l-2.084 4.558 3.933-4.759-1.85.201Zm3.462-5.166 1.847-.198 1.1-5.327-2.947 5.525ZM55.643 77.48l1.856-.208 2.9-3.608-4.756 3.816Zm14.684-50.85 1.849-.182-2.125-4.79.276 4.971Z" fill="#00A2E5"/><path d="m52.398 80.546 3.246-3.066 2.9-3.61-6.146 6.676Zm16.304-15.955 1.849-.2 1.613-4.966-3.462 5.166ZM60.4 73.665l1.853-.206 2.513-4.105-4.366 4.311Zm7.802-51.827 2.125 4.793-.276-4.97-1.849.177ZM48.38 7.695l3.611 2.95-1.752-3.121-1.86.17Zm16.387 61.658 1.851-.204 2.084-4.558-3.935 4.762ZM51.99 10.645l1.859-.173-3.61-2.948 1.751 3.12Zm14.361 11.371 1.851-.178-2.552-4.414.701 4.592ZM53.85 10.472l3.296 3.495-1.44-3.667-1.856.172ZM63.8 17.6l2.552 4.416-.701-4.592-1.852.176Zm9.464 36.496-1.1 5.33L75.11 53.9l-1.847.196Zm0 0 1.847-.196.547-5.646-2.394 5.842ZM57.146 13.967l1.856-.174-3.295-3.493 1.44 3.667Zm4.8 3.81 1.853-.177-2.942-3.981 1.089 4.157Zm-2.944-3.984 2.944 3.983-1.09-4.157-1.854.174Zm12.986 17.95 1.849-.183-1.66-5.111-.189 5.295ZM58.545 73.87l-2.9 3.61 4.755-3.816-1.855.206Zm11.783-47.24 1.66 5.114.189-5.295-1.849.18Zm-.013 32.994-1.613 4.967 3.462-5.166-1.85.199Zm3.496-11.177 1.847-.193-.044-5.734-1.803 5.927Zm-.664-11.324 1.848-.187-1.158-5.376-.69 5.563ZM62.914 69.557 60.4 73.664l4.367-4.311-1.853.204Zm3.937-4.764-2.084 4.56 3.935-4.761-1.851.2Zm3.464-5.17 1.849-.198 1.1-5.33-2.95 5.529Zm3.496-11.176-.547 5.649 2.394-5.842-1.847.193Zm-.045-5.737 1.848-.19-.62-5.584-1.228 5.774Zm-5.288-15.9 1.85-.18-2.125-4.793.275 4.974Zm3.51 4.934 1.159 5.379.69-5.563-1.849.184Zm-5.137 33.049 1.85-.202 1.614-4.967-3.464 5.169Zm-8.306 9.077 1.855-.206 2.514-4.107-4.369 4.313Zm7.807-51.854 2.126 4.795-.275-4.974-1.85.179Zm7.414 20.694.045 5.737 1.803-5.927-1.848.19ZM62.914 69.557l1.853-.204 2.084-4.56-3.937 4.764ZM52.398 80.546l6.146-6.677 4.598-8.674-10.744 15.35Z" fill="#00A2E5"/><path d="m73.146 37.123.62 5.587 1.228-5.773-1.848.186ZM55.288 14.14l-3.297-3.496-3.612-2.95 6.909 6.446Z" fill="#00A2E5"/><path d="m64.499 22.195 1.853-.178-2.553-4.416.7 4.595ZM51.99 10.645l3.297 3.497-1.438-3.669-1.86.172Zm9.954 7.132 2.554 4.418-.7-4.594-1.854.176Zm9.47 36.515-1.1 5.333 2.949-5.529-1.85.196Zm0 0 1.849-.196.546-5.648-2.395 5.844Zm-16.127-40.15 1.858-.174-3.296-3.495 1.438 3.67Zm4.802 3.811 1.855-.176-2.943-3.983 1.088 4.16Zm-2.944-3.985 2.944 3.985-1.088-4.16-1.856.175Zm12.992 17.96 1.85-.184-1.66-5.114-.19 5.298Zm-1.66-5.117 1.66 5.117.19-5.298-1.85.181Zm-.014 33.012-1.614 4.97 3.465-5.168-1.852.198ZM71.96 48.64l1.85-.192-.045-5.738-1.805 5.93Zm-.664-11.33 1.85-.187-1.159-5.379-.691 5.566ZM61.058 69.761l-2.513 4.11 4.368-4.313-1.855.203Zm3.94-4.766-2.085 4.563 3.937-4.764-1.853.201Zm3.465-5.172 1.852-.198 1.1-5.333-2.952 5.531Zm3.498-11.183-.546 5.652 2.395-5.844-1.849.192Zm-.044-5.74 1.85-.19-.62-5.587-1.23 5.777Zm-5.292-15.907 1.852-.181-2.125-4.795.273 4.976Zm3.513 4.935 1.159 5.382.691-5.566-1.85.184Zm-5.14 33.067 1.852-.201 1.614-4.97-3.467 5.171Zm-.5-42.8 2.127 4.798-.273-4.976-1.853.178Zm7.42 20.705.044 5.74 1.805-5.93-1.85.19Zm-10.86 26.861 1.855-.203 2.084-4.563-3.939 4.766Zm10.239-32.45.62 5.59 1.23-5.778-1.85.187Z" fill="#00A2E5"/><path d="m60.787 22.552-5.5-8.412-6.908-6.446 12.408 14.858Zm1.857-.179 1.855-.18-2.553-4.418.698 4.598Zm-2.554-4.421 2.554 4.42-.698-4.596-1.856.176Zm9.474 36.535-1.1 5.335 2.951-5.531-1.85.196Zm0 0 1.851-.196.546-5.652-2.397 5.848ZM58.232 18.128l1.858-.176-2.944-3.986 1.086 4.162Zm-2.944-3.987 2.944 3.987-1.086-4.162-1.858.175Zm3.257 59.729 2.513-4.11 2.085-4.564-4.598 8.674Zm9.741-41.76 1.852-.183-1.66-5.117-.192 5.3ZM52.398 80.546l10.744-15.35 3.214-21.726-13.958 37.076Z" fill="#00A2E5"/><path d="m66.625 26.993 1.661 5.12.192-5.301-1.853.18Zm-.014 33.03-1.613 4.972 3.466-5.172-1.853.2Zm3.5-11.19 1.85-.192-.044-5.74-1.807 5.932Zm-.666-11.336 1.852-.187-1.159-5.382-.693 5.57Zm-6.302 27.7-2.085 4.565 3.94-4.767-1.855.202Zm3.468-5.175 1.853-.198 1.1-5.336-2.953 5.535Zm3.5-11.188-.547 5.654 2.398-5.847-1.852.193Zm-.045-5.744 1.851-.19-.62-5.59-1.231 5.78ZM64.77 27.174l1.855-.181-2.126-4.797.272 4.978Zm3.516 4.938 1.16 5.385.692-5.569-1.852.184Zm-5.143 33.085 1.855-.202 1.613-4.973-3.468 5.175Zm-.499-42.823 2.127 4.8-.272-4.978-1.855.178Zm7.422 20.716.044 5.743 1.807-5.933-1.851.19Zm-.62-5.593.62 5.593 1.231-5.78-1.852.187Zm-3.089 5.972-5.57-20.917L48.379 7.694l17.978 35.775Z" fill="#00A2E5"/><path d="m60.786 22.552 1.857-.18-2.553-4.42.696 4.6Zm-2.554-4.424 2.554 4.424-.697-4.6-1.857.176Zm2.555 4.426-2.555-4.423-2.944-3.988 5.499 8.411Z" fill="#00A2E5"/><path d="m67.71 54.682-1.1 5.338 2.954-5.534-1.853.196Zm0 0 1.854-.196.546-5.654-2.4 5.85Zm-1.278-22.387 1.854-.184-1.662-5.12-.192 5.304Zm-1.662-5.123 1.662 5.123.192-5.304-1.854.181Zm-.015 33.048-1.613 4.975 3.468-5.174-1.855.199Zm3.502-11.195 1.853-.194-.045-5.743-1.808 5.937Zm-.666-11.343 1.854-.187-1.16-5.384-.694 5.572ZM64.755 60.22l1.855-.2 1.1-5.338-2.955 5.538Zm3.502-11.195-.546 5.657 2.399-5.85-1.853.193Zm-.045-5.747 1.853-.19-.62-5.593-1.233 5.783Zm-5.299-15.924 1.857-.182-2.127-4.8.27 4.982Zm3.519 4.94 1.16 5.389.694-5.572-1.855.184Zm-5.646-9.742 2.127 4.802-.27-4.982-1.857.18Zm7.426 20.726.044 5.747 1.809-5.937-1.853.19Zm-.62-5.596.62 5.596 1.233-5.783-1.854.188Z" fill="#00A2E5"/><path d="m63.143 65.195 1.613-4.975 1.1-5.341-2.713 10.316Z" fill="#00A2E5"/><path d="m65.856 54.879-1.1 5.34 2.955-5.537-1.855.197Zm0 0 1.855-.197.546-5.657-2.401 5.854Zm-1.28-22.4 1.856-.184-1.662-5.123-.194 5.307Z" fill="#00A2E5"/><path d="m63.142 65.195 2.714-10.316.5-11.41-3.213 21.726Zm-.228-37.84 1.662 5.125.195-5.307-1.857.182Zm3.488 21.864 1.855-.194-.045-5.746-1.81 5.94Zm-.666-11.348 1.856-.188-1.16-5.388-.696 5.576Z" fill="#00A2E5"/><path d="m64.576 32.479-1.662-5.125-2.127-4.803 3.79 9.928Zm1.825 16.739-.546 5.66 2.401-5.854-1.855.194Zm-.045-5.75 1.856-.19-.621-5.596-1.235 5.786Z" fill="#00A2E5"/><path d="m66.357 43.468-1.78-10.99-3.79-9.927 5.57 20.918Z" fill="#00A2E5"/><path d="m64.575 32.48 1.16 5.39.696-5.575-1.856.185Zm1.781 10.99.045 5.749 1.81-5.94-1.855.19Zm-.62-5.6.62 5.6 1.235-5.787-1.856.187Z" fill="#00A2E5"/><path d="m65.855 54.88.546-5.661-.045-5.75-.5 11.41Zm.501-11.41-.62-5.6-1.16-5.39 1.78 10.99Z" fill="#00A2E5"/><mask id="a" style="mask-type:alpha" maskUnits="userSpaceOnUse" x="2" y="1" width="74" height="86"><path d="m2.535 45.518.612 5.526 1.137 5.323-1.749-10.849Zm.473-11.267-.524 5.592.051 5.675.473-11.267Zm-.473 11.267 1.75 10.849 3.71 9.825-5.46-20.674Zm1.75 10.849 1.627 5.067 2.083 4.758-3.71-9.825Zm1.36-32.335L3.007 34.25l-.473 11.267 3.11-21.486Zm0 0-1.57 4.934-1.067 5.285 2.636-10.22Zm2.35 42.16 2.504 4.394 2.891 3.975-5.395-8.37Zm-5.46-20.674 5.46 20.674 12.2 14.846-17.66-35.52ZM16.181 8.67 5.644 24.032 2.535 45.518 16.181 8.67Zm-6.043 6.718-2.46 4.104-2.034 4.54 4.494-8.644ZM7.995 66.192l5.395 8.37 6.805 6.476-12.2-14.846Zm8.186-57.523L2.535 45.52l17.66 35.519-4.015-72.37Zm-2.79 65.892 3.242 3.503 3.562 2.974-6.805-6.477ZM16.18 8.67l-6.043 6.718-4.494 8.645L16.181 8.669Zm0 0-3.196 3.096-2.847 3.622L16.18 8.67Zm4.014 72.369 3.845 2.39 4.094 1.749-7.94-4.14Zm3.268-76.802-3.777 1.908L16.18 8.67l7.282-4.433Zm-3.268 76.802 7.94 4.139 8.659 1.343-16.6-5.482Zm28.23 4.17 1.85-.211 4.029-1.176-5.879 1.387ZM39.113 1.783 43.466 2l-2.499-.384-1.854.167ZM43.466 2l1.854-.167-4.353-.217L43.466 2Z" fill="#00A2E5"/><path d="m31.675 2.453-8.212 1.783L16.18 8.67l15.495-6.217Zm-3.54 82.724 4.308 1.051 4.35.292-8.659-1.343Zm24.319-1.143-4.03 1.176 5.88-1.387-1.85.21Zm-5.882 1.387 1.852-.21 4.03-1.177-5.882 1.387Zm-9.316-83.47 4.355.217-2.498-.383-1.856.167Zm4.355.217 1.855-.167-4.353-.216 2.498.383Zm10.843 81.866 1.85-.21 3.808-1.847-5.658 2.057ZM43.466 2l4.328.98-2.474-1.147L43.466 2Zm7.137 82.243-4.03 1.177 5.88-1.387-1.85.21ZM47.794 2.982l1.853-.168-4.327-.98 2.474 1.148Zm-3.075 82.65 1.853-.21 4.03-1.178-5.883 1.389ZM35.399 2.12l4.354.217-2.496-.384-1.859.167Zm-3.724.332-4.202.537-4.01 1.246 8.212-1.783Z" fill="#00A2E5"/><path d="m39.752 2.335 1.858-.168-4.354-.216 2.496.384Zm16.51 79.85-3.809 1.848 5.658-2.057-1.848.21Zm-36.067-1.149 16.6 5.483 15.603-5.974-32.203.491Z" fill="#00A2E5"/><path d="m50.602 84.243 1.85-.21 3.81-1.848-5.66 2.058ZM41.609 2.167l4.33.98L43.464 2l-1.856.167Zm7.14 82.287-4.031 1.177 5.884-1.388-1.853.21Zm-2.81-81.306 1.854-.168L43.465 2l2.473 1.148Zm-3.077 82.695 1.856-.212 4.03-1.177-5.886 1.389ZM33.537 2.284l4.355.217-2.495-.384-1.86.167Zm22.725 79.9 1.849-.209 3.547-2.474-5.396 2.684ZM16.181 8.67l4.014 72.368L66.357 43.47 16.18 8.67Z" fill="#00A2E5"/><path d="m37.893 2.501 1.86-.167-4.355-.217 2.495.384Zm9.9.48 4.127 1.688-2.273-1.856-1.853.167Zm6.62 79.414-3.81 1.848 5.66-2.058-1.85.21ZM51.92 4.669l1.852-.169-4.125-1.687 2.273 1.856Zm-3.17 79.785 1.852-.211 3.81-1.848-5.663 2.059Zm-8.997-82.12 4.329.982-2.472-1.15-1.857.168Zm8.626 5.361L31.675 2.453 16.18 8.67l32.199-.975Z" fill="#00A2E5"/><path d="m46.894 84.665-4.031 1.178 5.886-1.39-1.855.212ZM44.082 3.316l1.857-.168-4.33-.981 2.473 1.149ZM59.81 79.71l-3.548 2.475 5.396-2.684-1.848.209Zm-18.806 6.345 1.858-.212 4.031-1.178-5.889 1.39Zm-9.33-83.603 4.356.217-2.493-.385-1.863.168Zm22.737 79.943 1.85-.21 3.549-2.475-5.399 2.685Z" fill="#00A2E5"/><path d="m36.794 86.52 4.211-.464 4.032-1.179-8.243 1.643Z" fill="#00A2E5"/><path d="m36.03 2.67 1.862-.168-4.355-.217 2.494.385Zm9.908.479 4.126 1.69-2.271-1.858-1.855.168Zm6.621 79.457-3.81 1.848 5.663-2.058-1.853.21ZM50.064 4.839l1.855-.17-4.126-1.688 2.271 1.857ZM59.81 79.71l1.848-.208 3.244-3.06-5.092 3.268Zm-12.916 4.956 1.855-.212 3.81-1.848-5.665 2.06ZM37.892 2.501l4.33.983-2.47-1.15-1.86.167ZM51.92 4.67l3.886 2.343L53.77 4.5l-1.852.169Zm-6.883 80.207-4.032 1.178 5.89-1.39-1.858.212ZM42.222 3.485l1.86-.168-4.33-.982 2.47 1.15Zm13.583 3.528 1.851-.17L53.771 4.5l2.034 2.512Zm2.155 72.906-3.548 2.477 5.398-2.686-1.85.209Zm-5.401 2.687 1.853-.21 3.548-2.477-5.401 2.687Zm-8.478-79.29 4.127 1.691-2.27-1.858-1.857.168ZM63.054 76.65l-3.244 3.06 5.092-3.267-1.848.207Zm-12.35 6.166-3.81 1.85 5.665-2.06-1.854.21Z" fill="#00A2E5"/><path d="m40.362 3.653-4.33-.983-4.356-.217 8.686 1.2Zm7.846 1.354 1.857-.17-4.127-1.689 2.27 1.859Zm9.752 74.911 1.85-.208 3.245-3.061-5.095 3.27Zm-12.923 4.958 1.857-.211 3.81-1.85-5.667 2.061Z" fill="#00A2E5"/><path d="m36.794 86.52 8.243-1.643 7.361-4.33-15.604 5.973Z" fill="#00A2E5"/><path d="m36.031 2.67 4.331.982-2.47-1.15-1.86.167Zm14.034 2.168 3.887 2.344-2.033-2.513-1.854.169Zm12.99 71.811 1.848-.207 2.9-3.6-4.748 3.807ZM40.362 3.652l1.861-.168-4.33-.982 2.47 1.15Zm13.59 3.53 1.854-.17-3.887-2.343 2.033 2.513Zm2.156 72.945-3.548 2.478 5.4-2.687-1.852.21Zm-5.403 2.688 1.855-.21 3.548-2.478-5.403 2.688Zm5.1-75.803 3.61 2.944-1.758-3.114-1.851.17Zm3.61 2.944 1.85-.172-3.608-2.942 1.757 3.114ZM42.222 3.484l4.128 1.692-2.27-1.86-1.858.168Zm18.982 73.372-3.244 3.062 5.094-3.269-1.85.207Zm-12.356 6.17-3.812 1.85 5.668-2.06-1.856.21ZM46.35 5.176l1.858-.17-4.127-1.69 2.269 1.86Zm9.757 74.951 1.853-.209 3.244-3.062-5.097 3.271Zm9.847-7.08-2.9 3.602 4.747-3.808-1.847.205ZM48.209 5.006l3.887 2.346-2.03-2.515-1.857.169Zm12.996 71.85 1.85-.208 2.9-3.603-4.75 3.81Zm-41.01 4.182 32.204-.49L66.357 43.47 20.195 81.039Z" fill="#00A2E5"/><path d="m52.096 7.352 1.856-.17-3.887-2.345 2.031 2.515Zm2.158 72.984-3.549 2.479 5.403-2.688-1.854.209ZM48.38 7.695l-8.018-4.042-8.686-1.2L48.38 7.695Z" fill="#00A2E5"/><path d="m65.954 73.047 1.847-.205 2.513-4.1-4.36 4.305Zm-17.106 9.98 1.857-.211 3.549-2.479-5.406 2.69Zm5.103-75.844 3.61 2.945-1.756-3.115-1.854.17Zm3.61 2.945 1.853-.172-3.61-2.943 1.757 3.115ZM45.037 84.876l3.812-1.85 3.55-2.48-7.362 4.33Z" fill="#00A2E5"/><path d="m40.361 3.653 4.129 1.693-2.268-1.861-1.86.168Zm18.992 73.412-3.245 3.063 5.097-3.27-1.852.206Zm.06-67.109 3.295 3.49-1.443-3.661-1.851.171Zm3.295 3.49 1.85-.175-3.293-3.486 1.443 3.66Zm-18.218-8.1 1.86-.17-4.128-1.691 2.268 1.861Zm9.764 74.991 1.854-.209 3.245-3.064-5.1 3.273Zm9.85-7.084-2.9 3.604 4.75-3.81-1.85.206Zm2.252-29.783L48.38 7.697l-32.2.973 50.176 34.8Z" fill="#00A2E5"/><path d="m46.35 5.175 3.889 2.348-2.03-2.517-1.858.17Zm22.117 63.77-2.512 4.1 4.36-4.303-1.848.203Zm-9.113 8.118 1.852-.207 2.9-3.605-4.752 3.812Zm-9.115-69.54 1.858-.17-3.888-2.347 2.03 2.517Zm2.16 73.022-3.55 2.48 5.406-2.69-1.857.21Zm11.706-7.294 1.85-.205 2.512-4.101-4.362 4.306ZM52.096 7.352l3.61 2.947-1.754-3.117-1.855.17Zm16.371 61.593 1.847-.203 2.084-4.554-3.93 4.757Zm-12.76-58.646 1.855-.172-3.61-2.945 1.755 3.117ZM57.5 77.27l-3.245 3.065 5.099-3.273-1.854.208Zm.062-67.144 3.295 3.49-1.442-3.662-1.853.172Zm3.295 3.49 1.852-.173-3.294-3.489 1.442 3.663Zm4.794 3.806 1.85-.176-2.942-3.977 1.092 4.153Zm-2.942-3.98 2.942 3.98-1.092-4.153-1.85.174Zm-10.31 67.102 1.855-.21L57.5 77.27l-5.102 3.274ZM48.38 7.694l-3.89-2.348-4.128-1.693 8.017 4.041Z" fill="#00A2E5"/><path d="m62.253 73.458-2.9 3.606 4.751-3.812-1.851.206ZM44.49 5.346l3.889 2.348-2.029-2.518-1.86.17Zm22.127 63.803-2.513 4.103 4.362-4.306-1.849.203Zm3.933-4.759-2.084 4.555 3.931-4.756-1.847.201ZM57.5 77.272l1.853-.208 2.9-3.606-4.754 3.814ZM48.378 7.694l1.86-.17-3.889-2.348 2.029 2.518Zm22.17 56.696 1.848-.2 1.613-4.963-3.46 5.163Zm-8.296 9.068 1.851-.206 2.513-4.103-4.364 4.309ZM50.238 7.524l3.611 2.948-1.753-3.119-1.858.17Zm16.379 61.625 1.85-.204 2.083-4.555-3.933 4.759ZM53.849 10.472l1.857-.172-3.61-2.947 1.753 3.119Zm14.353 11.365 1.85-.178-2.552-4.411.702 4.59ZM55.643 77.48l-3.245 3.066 5.101-3.274-1.856.208Zm.063-67.18L59 13.792l-1.44-3.664-1.855.172Zm9.944 7.124 2.552 4.413-.702-4.59-1.85.177Zm-6.649-3.631 1.855-.175-3.295-3.49L59 13.793Zm4.797 3.807 1.852-.176-2.942-3.98 1.09 4.156Zm-2.942-3.982 2.942 3.982-1.09-4.155-1.852.173ZM60.4 73.665l-2.9 3.608 4.753-3.814-1.853.206Zm11.763-14.239L70.55 64.39l3.46-5.163-1.847.198Zm-7.397 9.928-2.513 4.105 4.364-4.31-1.851.205ZM68.7 64.59l-2.084 4.558 3.933-4.759-1.85.201Zm3.462-5.166 1.847-.198 1.1-5.327-2.947 5.525ZM55.643 77.48l1.856-.208 2.9-3.608-4.756 3.816Zm14.684-50.85 1.849-.182-2.125-4.79.276 4.971Z" fill="#00A2E5"/><path d="m52.398 80.546 3.246-3.066 2.9-3.61-6.146 6.676Zm16.304-15.955 1.849-.2 1.613-4.966-3.462 5.166ZM60.4 73.665l1.853-.206 2.513-4.105-4.366 4.311Zm7.802-51.827 2.125 4.793-.276-4.97-1.849.177ZM48.38 7.695l3.611 2.95-1.752-3.121-1.86.17Zm16.387 61.658 1.851-.204 2.084-4.558-3.935 4.762ZM51.99 10.645l1.859-.173-3.61-2.948 1.751 3.12Zm14.361 11.371 1.851-.178-2.552-4.414.701 4.592ZM53.85 10.472l3.296 3.495-1.44-3.667-1.856.172ZM63.8 17.6l2.552 4.416-.701-4.592-1.852.176Zm9.464 36.496-1.1 5.33L75.11 53.9l-1.847.196Zm0 0 1.847-.196.547-5.646-2.394 5.842ZM57.146 13.967l1.856-.174-3.295-3.493 1.44 3.667Zm4.8 3.81 1.853-.177-2.942-3.981 1.089 4.157Zm-2.944-3.984 2.944 3.983-1.09-4.157-1.854.174Zm12.986 17.95 1.849-.183-1.66-5.111-.189 5.295ZM58.545 73.87l-2.9 3.61 4.755-3.816-1.855.206Zm11.783-47.24 1.66 5.114.189-5.295-1.849.18Zm-.013 32.994-1.613 4.967 3.462-5.166-1.85.199Zm3.496-11.177 1.847-.193-.044-5.734-1.803 5.927Zm-.664-11.324 1.848-.187-1.158-5.376-.69 5.563ZM62.914 69.557 60.4 73.664l4.367-4.311-1.853.204Zm3.937-4.764-2.084 4.56 3.935-4.761-1.851.2Zm3.464-5.17 1.849-.198 1.1-5.33-2.95 5.529Zm3.496-11.176-.547 5.649 2.394-5.842-1.847.193Zm-.045-5.737 1.848-.19-.62-5.584-1.228 5.774Zm-5.288-15.9 1.85-.18-2.125-4.793.275 4.974Zm3.51 4.934 1.159 5.379.69-5.563-1.849.184Zm-5.137 33.049 1.85-.202 1.614-4.967-3.464 5.169Zm-8.306 9.077 1.855-.206 2.514-4.107-4.369 4.313Zm7.807-51.854 2.126 4.795-.275-4.974-1.85.179Zm7.414 20.694.045 5.737 1.803-5.927-1.848.19ZM62.914 69.557l1.853-.204 2.084-4.56-3.937 4.764ZM52.398 80.546l6.146-6.677 4.598-8.674-10.744 15.35Z" fill="#00A2E5"/><path d="m73.146 37.123.62 5.587 1.228-5.773-1.848.186ZM55.288 14.14l-3.297-3.496-3.612-2.95 6.909 6.446Z" fill="#00A2E5"/><path d="m64.499 22.195 1.853-.178-2.553-4.416.7 4.595ZM51.99 10.645l3.297 3.497-1.438-3.669-1.86.172Zm9.954 7.132 2.554 4.418-.7-4.594-1.854.176Zm9.47 36.515-1.1 5.333 2.949-5.529-1.85.196Zm0 0 1.849-.196.546-5.648-2.395 5.844Zm-16.127-40.15 1.858-.174-3.296-3.495 1.438 3.67Zm4.802 3.811 1.855-.176-2.943-3.983 1.088 4.16Zm-2.944-3.985 2.944 3.985-1.088-4.16-1.856.175Zm12.992 17.96 1.85-.184-1.66-5.114-.19 5.298Zm-1.66-5.117 1.66 5.117.19-5.298-1.85.181Zm-.014 33.012-1.614 4.97 3.465-5.168-1.852.198ZM71.96 48.64l1.85-.192-.045-5.738-1.805 5.93Zm-.664-11.33 1.85-.187-1.159-5.379-.691 5.566ZM61.058 69.761l-2.513 4.11 4.368-4.313-1.855.203Zm3.94-4.766-2.085 4.563 3.937-4.764-1.853.201Zm3.465-5.172 1.852-.198 1.1-5.333-2.952 5.531Zm3.498-11.183-.546 5.652 2.395-5.844-1.849.192Zm-.044-5.74 1.85-.19-.62-5.587-1.23 5.777Zm-5.292-15.907 1.852-.181-2.125-4.795.273 4.976Zm3.513 4.935 1.159 5.382.691-5.566-1.85.184Zm-5.14 33.067 1.852-.201 1.614-4.97-3.467 5.171Zm-.5-42.8 2.127 4.798-.273-4.976-1.853.178Zm7.42 20.705.044 5.74 1.805-5.93-1.85.19Zm-10.86 26.861 1.855-.203 2.084-4.563-3.939 4.766Zm10.239-32.45.62 5.59 1.23-5.778-1.85.187Z" fill="#00A2E5"/><path d="m60.787 22.552-5.5-8.412-6.908-6.446 12.408 14.858Zm1.857-.179 1.855-.18-2.553-4.418.698 4.598Zm-2.554-4.421 2.554 4.42-.698-4.596-1.856.176Zm9.474 36.535-1.1 5.335 2.951-5.531-1.85.196Zm0 0 1.851-.196.546-5.652-2.397 5.848ZM58.232 18.128l1.858-.176-2.944-3.986 1.086 4.162Zm-2.944-3.987 2.944 3.987-1.086-4.162-1.858.175Zm3.257 59.729 2.513-4.11 2.085-4.564-4.598 8.674Zm9.741-41.76 1.852-.183-1.66-5.117-.192 5.3ZM52.398 80.546l10.744-15.35 3.214-21.726-13.958 37.076Z" fill="#00A2E5"/><path d="m66.625 26.993 1.661 5.12.192-5.301-1.853.18Zm-.014 33.03-1.613 4.972 3.466-5.172-1.853.2Zm3.5-11.19 1.85-.192-.044-5.74-1.807 5.932Zm-.666-11.336 1.852-.187-1.159-5.382-.693 5.57Zm-6.302 27.7-2.085 4.565 3.94-4.767-1.855.202Zm3.468-5.175 1.853-.198 1.1-5.336-2.953 5.535Zm3.5-11.188-.547 5.654 2.398-5.847-1.852.193Zm-.045-5.744 1.851-.19-.62-5.59-1.231 5.78ZM64.77 27.174l1.855-.181-2.126-4.797.272 4.978Zm3.516 4.938 1.16 5.385.692-5.569-1.852.184Zm-5.143 33.085 1.855-.202 1.613-4.973-3.468 5.175Zm-.499-42.823 2.127 4.8-.272-4.978-1.855.178Zm7.422 20.716.044 5.743 1.807-5.933-1.851.19Zm-.62-5.593.62 5.593 1.231-5.78-1.852.187Zm-3.089 5.972-5.57-20.917L48.379 7.694l17.978 35.775Z" fill="#00A2E5"/><path d="m60.786 22.552 1.857-.18-2.553-4.42.696 4.6Zm-2.554-4.424 2.554 4.424-.697-4.6-1.857.176Zm2.555 4.426-2.555-4.423-2.944-3.988 5.499 8.411Z" fill="#00A2E5"/><path d="m67.71 54.682-1.1 5.338 2.954-5.534-1.853.196Zm0 0 1.854-.196.546-5.654-2.4 5.85Zm-1.278-22.387 1.854-.184-1.662-5.12-.192 5.304Zm-1.662-5.123 1.662 5.123.192-5.304-1.854.181Zm-.015 33.048-1.613 4.975 3.468-5.174-1.855.199Zm3.502-11.195 1.853-.194-.045-5.743-1.808 5.937Zm-.666-11.343 1.854-.187-1.16-5.384-.694 5.572ZM64.755 60.22l1.855-.2 1.1-5.338-2.955 5.538Zm3.502-11.195-.546 5.657 2.399-5.85-1.853.193Zm-.045-5.747 1.853-.19-.62-5.593-1.233 5.783Zm-5.299-15.924 1.857-.182-2.127-4.8.27 4.982Zm3.519 4.94 1.16 5.389.694-5.572-1.855.184Zm-5.646-9.742 2.127 4.802-.27-4.982-1.857.18Zm7.426 20.726.044 5.747 1.809-5.937-1.853.19Zm-.62-5.596.62 5.596 1.233-5.783-1.854.188Z" fill="#00A2E5"/><path d="m63.143 65.195 1.613-4.975 1.1-5.341-2.713 10.316Z" fill="#00A2E5"/><path d="m65.856 54.879-1.1 5.34 2.955-5.537-1.855.197Zm0 0 1.855-.197.546-5.657-2.401 5.854Zm-1.28-22.4 1.856-.184-1.662-5.123-.194 5.307Z" fill="#00A2E5"/><path d="m63.142 65.195 2.714-10.316.5-11.41-3.213 21.726Zm-.228-37.84 1.662 5.125.195-5.307-1.857.182Zm3.488 21.864 1.855-.194-.045-5.746-1.81 5.94Zm-.666-11.348 1.856-.188-1.16-5.388-.696 5.576Z" fill="#00A2E5"/><path d="m64.576 32.479-1.662-5.125-2.127-4.803 3.79 9.928Zm1.825 16.739-.546 5.66 2.401-5.854-1.855.194Zm-.045-5.75 1.856-.19-.621-5.596-1.235 5.786Z" fill="#00A2E5"/><path d="m66.357 43.468-1.78-10.99-3.79-9.927 5.57 20.918Z" fill="#00A2E5"/><path d="m64.575 32.48 1.16 5.39.696-5.575-1.856.185Zm1.781 10.99.045 5.749 1.81-5.94-1.855.19Zm-.62-5.6.62 5.6 1.235-5.787-1.856.187Z" fill="#00A2E5"/><path d="m65.855 54.88.546-5.661-.045-5.75-.5 11.41Zm.501-11.41-.62-5.6-1.16-5.39 1.78 10.99Z" fill="#00A2E5"/></mask><g mask="url(#a)"><ellipse cx="104.044" cy="80.646" rx="104.044" ry="80.646" transform="rotate(2.481 1822.847 -1241.097) skewX(.022)" fill="url(#b)"/></g><path d="M67.276 45.652c-1.002 23.347-14.23 41.735-32.207 40.956C17.09 85.83.89 64.356 1.892 41.01 2.895 17.662 16.39 1.457 34.366 2.236c17.978.779 33.912 20.069 32.91 43.416Z" fill="url(#c)"/><path d="M63.303 45.5c-.442 10.308-3.588 19.5-8.588 26.017-4.996 6.514-11.83 10.348-19.685 10.008-7.855-.34-15.367-5.2-20.816-12.587-5.446-7.383-8.8-17.254-8.36-27.535C6.742 20.77 18.659 6.637 34.367 7.317 50.106 8 64.188 24.907 63.304 45.5Z" fill="url(#d)" stroke="url(#e)" stroke-width=".751"/><g filter="url(#f)" fill="#3DBBF0"><path d="m26.964 62.822-.009.344.01.393v-.737Zm0 .737.027.385.045.377-.072-.762Zm.072-1.41-.072.673v.737l.072-1.41Zm0 0-.045.334-.027.339.072-.672Zm-.072 1.41.072.762.143.73-.215-1.492Zm.072.762.063.368.08.361-.143-.73Zm.143-2.822-.08.322-.063.329.143-.651Zm.215-.629-.358 1.28-.072 1.41.43-2.69Zm-.43 2.69.215 1.49.501 1.364-.716-2.855Zm.215 1.49.099.353.116.345-.215-.698Zm.215-4.18-.215.629-.143.65.358-1.279Zm0 0-.117.312-.098.317.215-.629Zm-.215 4.18.215.698.286.666-.501-1.364Zm.215.698.134.337.152.33-.286-.667Zm.286-5.485-.152.3-.134.307.286-.607Zm.358-.585-.358.585-.286.607.644-1.192Zm-.358 6.736.17.321.188.313-.358-.634Zm1.26-7.758-1.546 2.214-.43 2.69 1.976-4.904Zm-.902 1.022-.188.29-.17.295.358-.585Zm-1.074 3.881.716 2.855 1.78 2.138-2.496-4.993Zm.716 2.855.358.634.427.594-.785-1.228Zm.358.634.206.306.22.288-.426-.594Zm.902-8.392-.902 1.022-.644 1.192 1.546-2.214Zm-.475.468-.22.27-.207.284.427-.554Zm3.177 10.073 3.472-.083.299-.007-3.771.09Zm0-11.46 3.472-.078-.346.006-3.126.072Z"/><path d="m27.924 46.85.091.59.148.56-.24-1.15Zm-.032-25.645v25.032l.032.614-.032-25.646Zm-.212 45.21.785 1.228.996.91-1.78-2.138Zm.244-19.564.24 1.15.447 1.01-.687-2.16Zm1.016 11.805-.476.468-.426.554.902-1.022Zm-.476 8.987.232.264.244.24-.476-.504Zm3.478 1.546 3.472-.082.29-.032-3.762.114Z"/><path d="m28.016 20.004-.123 1.2.031 25.647.092-26.847Zm3.926 37.748 3.472-.077-.3-.016-3.172.093Zm-3.779-9.751.2.525.248.485-.448-1.01Zm-.147-27.997-.092 26.847.687 2.16-.595-29.007Zm3.578 30.81 3.472-.075.468-.033-3.94.108Z"/><path d="m28.94 58.657-.243.221-.232.246.475-.468Zm-.924-38.653-.092.588-.031.613.123-1.2Zm.45 47.64.474.503.521.406-.996-.91Zm3.767 1.513 3.472-.082.282-.058-3.754.14Zm0-11.363 3.472-.078-.291-.04-3.181.118Z"/><path d="m28.363 18.927-.2.52-.148.556.348-1.076Zm.577 49.219.254.215.267.19-.521-.405Zm3.122-17.366 3.472-.075.45-.113-3.922.189Zm-.468-34.051 3.472-.062-.252-.003-3.22.065Zm.922 52.37 3.471-.083.275-.082-3.746.165ZM28.61 49.01l.292.44.331.387-.623-.827Zm3.905 8.847 3.472-.079-.283-.064-3.19.143Zm-3.054.427-.266.174-.255.198.521-.372Zm-.558-40.264-.54.908-.347 1.076.887-1.984Z"/><path d="m32.79 69.018 3.471-.083.266-.107-3.738.19Zm0-11.072 3.471-.079-.274-.087-3.198.166Zm-3.889-39.927-.291.43-.248.478.54-.908Zm-.291 30.99.623.827.764.598-1.387-1.424Zm1.416 8.998-.566.276-.521.372 1.087-.648Zm2.036-41.231 3.472-.062-.468-.047-3.005.109Zm.448 33.89 3.473-.075.425-.187-3.898.263Z"/><path d="m29.461 68.554.278.166.288.14-.566-.306Zm.963-51.677-2.408 3.129.595 29.006 1.813-32.135Zm2.632 52.033 3.472-.082.258-.132-3.73.215Zm0-10.853 3.472-.08-.267-.11-3.205.19Zm-3.03-.049-.288.126-.278.15.566-.276Zm-.793-8.172.366.33.399.269-.765-.599Zm2.064 7.905.346-.006 3.126-.071-3.472.077Zm2.267.609-4.624.307-1.976 4.903 6.6-5.21Zm-4.103 10.203.566.307.613.209-1.18-.516Zm3.853.224 3.472-.082.25-.157-3.722.24Zm-.803-51.876 3.472-.062-.449-.126-3.023.188Z"/><path d="m30.424 16.877-1.521 1.144-.887 1.985 2.408-3.129Zm2.889 41.313 3.472-.078-.258-.135-3.214.214Zm-.378-7.71 3.472-.076.399-.256-3.87.331Zm-.994 18.709-.299.007 3.77-.09-3.471.083Zm-4.978-5.629 2.497 4.993 4.58-.32-7.076-4.673ZM29.6 17.322l-.366.32-.332.378.698-.698Zm1.698 40.421-1.27.265-1.088.648 2.358-.913Zm-1.27 11.117.3.116.312.092-.612-.208Zm1.614-11.123.299.017 3.173-.095-3.472.078Zm1.92 10.885 3.473-.083.242-.182-3.714.265Zm.001-10.272 3.472-.078-.25-.159-3.222.237Zm-4.953-9.34 1.388 1.425 1.595.38-2.983-1.805Z"/><path d="m32.233 69.157-.291.032 3.763-.115-3.472.083Zm1.102-18.933 3.472-.075.367-.32-3.84.395Zm-2.695 7.604-.313.078-.3.103.612-.181Zm2.297-40.726 3.472-.063-.426-.199-3.046.262Zm.87 51.337 3.471-.082.234-.207-3.706.29Zm-1.865-10.686.291.04 3.181-.118-3.472.078Zm.12-6.972-.468.034 3.94-.11-3.472.076Zm1.745 7.751 3.471-.079-.242-.182-3.23.261ZM29.46 68.553l1.179.516 1.303.12-2.482-.636Zm.963-51.676-.823.445-.698.698 1.521-1.143Z"/><path d="m32.515 69.1-.282.058 3.754-.14-3.472.082Zm-2.517-18.664.426.201.45.128-.876-.329Zm4.042 17.796 3.471-.083.226-.232-3.698.315Zm-2.7-51.506.253.003 3.22-.065-3.472.062Zm-.043 41.017-.658.085-.612.18 1.27-.265Zm2.743.995 3.472-.079-.234-.206-3.238.285Zm-1.807-.944.282.064 3.19-.142-3.472.078Zm1.469-7.889 3.472-.075.331-.377-3.803.452ZM30.64 69.068l.322.067.335.042-.658-.11Z"/><path d="m33.335 17.369 3.472-.062-.399-.267-3.073.329Zm-.546 51.649-.274.082 3.746-.165-3.472.083ZM34.265 68l3.472-.083.217-.257-3.69.34Zm-3.84-51.123-.426.188-.399.257.825-.445Zm2.086 33.79-.449.113 3.921-.189-3.472.076Zm1.755 8.3 3.472-.08-.226-.229-3.246.309Zm-2.672-42.239.468.048 3.004-.11-3.472.063Zm.922 41.129.274.087 3.198-.166-3.472.079Zm-1.219-.113-.335.03-.323.055.658-.085Zm-1.299-7.308.875.328.72.052-1.595-.38Zm4.035-.907 3.472-.075.292-.43-3.764.505ZM30.64 69.068l.657.109.646.01-1.304-.12Z"/><path d="m34.483 67.743 3.471-.082.21-.282-3.681.364Zm-1.427 1.167-.267.107 3.738-.19-3.471.083Zm1.427-9.69 3.471-.079-.217-.253-3.254.332Zm-.781-41.522 3.472-.062-.367-.33-3.105.392Zm-.913 40.247.267.111 3.205-.19-3.472.079Zm.774.405-2.267-.607-2.357.913 4.624-.307Zm1.128 9.112 3.472-.083.197-.298-3.669.38Zm0-7.965 3.472-.079-.21-.276-3.262.355Zm-1.756-9.017-.425.188 3.898-.263-3.473.075Zm1.39-1.382 3.47-.075.249-.478-3.72.553Zm-5.715-.088 2.983 1.805 1.741-.591-4.724-1.214Z"/><path d="m33.314 68.779-.258.132 3.73-.215-3.472.083Zm-2.017.4.346.018.3-.007-.646-.011Zm2.743-.946-.476-9.883-6.6 5.21 7.076 4.673Zm-3.167-17.47.468.049.253.004-.72-.053Zm1.189-33.988.449.126 3.023-.188-3.472.062Zm1.971 1.31 3.472-.064-.331-.386-3.14.45Zm.856 49.077 3.471-.082.18-.307-3.651.39Zm-1.833-9.107.258.135 3.214-.213-3.472.078Zm1.833 1.732 3.471-.079-.196-.29-3.275.37Zm-.316-11.168 3.472-.075.2-.519-3.672.594Z"/><path d="m29.46 68.553 2.482.637 2.098-.957-4.58.32Zm4.104.067-.25.158 3.721-.24-3.471.083Zm-1.622-10.868-.299-.016-.346.006.645.01Zm3.126 9.103 3.472-.082.163-.316-3.635.398Zm0-6.771 3.472-.08-.18-.296-3.292.376Zm-1.733-9.86-.399.255 3.87-.331-3.471.075Zm-1.994-33.499-.468.036-.45.115.918-.15ZM34.773 48.1l3.471-.074.148-.556-3.62.63Zm-1.46 10.09.25.16 3.222-.238-3.471.079Zm1.012-39.667 3.472-.063-.292-.438-3.18.5Zm.719 27.821-4.62-29.468-1.814 32.135 6.434-2.667Z"/><path d="m35.231 66.54 3.472-.082.145-.324-3.617.406Zm0-6.155 3.472-.08-.163-.3-3.309.38Zm-2.72-43.483.426.2 3.046-.262-3.472.062Zm1.295 51.537-.242.182 3.714-.264-3.472.082Zm1.115-20.894 3.472-.075.091-.587-3.563.662Zm-2.405 10.311-.574-.103-.645-.01 1.219.113Zm2.86 8.36 3.472-.082.128-.332-3.6.414Zm-.363-19.259 3.471-.074.032-.613-3.503.687Zm.363 13.734 3.472-.08-.145-.305-3.327.385Zm-1.812-2.341.242.182 3.23-.26-3.472.078Zm-1.622 10.839.29-.032.283-.057-.573.089Zm2.631-50.181 3.472-.063-.248-.485-3.224.547Zm.932 46.875 3.471-.082.112-.34-3.583.422Zm-1.803-15.978-.367.32 3.839-.395-3.472.075Zm.338 18.327-.234.207 3.706-.29-3.472.083Zm1.465-7.23 3.471-.08-.128-.31-3.343.39Zm-3.444-44.226-.72-.05-.918.15 1.638-.1Zm2.983 29.567 3.472-.074V21.233l-3.472 25.11Zm.572 19.198 3.471-.081.094-.35-3.565.431Zm-4.022-14.725.468-.035.45-.114-.918.148Z"/><path d="m34.773 19.532 3.471-.063-.2-.525-3.271.588Zm.842 41.785 3.472-.08-.111-.316-3.36.395Zm-1.81-2.786.234.206 3.238-.285-3.472.08Zm-1.289-.675-.283-.063-.291-.04.574.103Zm.42-40.754.399.268 3.073-.33-3.472.062Zm-.994 52.09.574-.09.54-.19-1.114.28Z"/><path d="m35.71 65.19 3.472-.08.077-.36-3.549.44Zm0-3.553 3.472-.08-.095-.32-3.377.4Zm-1.445 6.362-.225.232 3.697-.314-3.472.082Zm.656-47.907 3.472-.064-.148-.56-3.324.624Zm.866 44.74 3.472-.081.06-.367-3.532.448Zm0-2.87 3.472-.08-.077-.325-3.395.405Zm.06 2.503 3.471-.081.043-.376-3.514.457Zm-1.814-14.939-.331.378 3.803-.453-3.472.075Zm1.814 12.766 3.471-.08-.06-.33-3.411.41Zm-1.807-3.555.225.23 3.246-.31-3.471.08Zm-.476-.387-1.049-.493-1.218-.114 2.267.606Z"/><path d="m35.013 20.682 3.472-.063-.092-.59-3.38.653Zm.877 43.408 3.471-.081.026-.384-3.497.465Zm0-1.462 3.471-.08-.042-.336-3.43.416Zm-.846-41.331 3.472-.064-.031-.614-3.44.678Zm.871 42.409 3.472-.081.008-.393-3.48.474Zm0-.738 3.472-.08-.026-.34-3.446.42Zm-3.853-46.193-.469-.047-.252-.003.72.05Z"/><path d="m35.924 63.314 3.471-.081-.008-.345-3.463.426ZM28.61 49.01l4.724 1.214 1.71-3.88-6.434 2.666Zm3.905 20.09.274-.083.267-.107-.541.19Zm1.968-1.356-.218.258 3.69-.34-3.472.082Zm-2.889-16.929.917-.148.824-.443-1.741.591Zm1.741-33.447.367.33 3.105-.392-3.472.062Zm.93 41.599.218.253 3.254-.332-3.472.079Zm.06-9.87-.292.43 3.764-.505-3.472.075Zm.367 18.364-.21.282 3.682-.364-3.472.082Zm-1.636-9.404-.267-.111-.274-.088.54.199ZM31.942 69.19l1.114-.28.984-.677-2.098.957Z"/><path d="m34.483 59.22.21.278 3.262-.357-3.472.08Zm-.781-41.521-1.64-.922-1.639.1 3.279.822Zm1.187 49.463-.197.299 3.668-.38-3.471.081Zm-1.187-49.464.331.386 3.14-.449-3.471.063Zm.87 30.921-.247.478 3.72-.552-3.472.074Zm-1.008 9.731-.508-.293-.541-.2 1.05.493Z"/><path d="m34.691 59.497.197.292 3.275-.372-3.472.08Zm-2.181-8.83.425-.187.399-.256-.824.444Zm.545 18.243.258-.132.25-.157-.508.29Z"/><path d="m35.068 66.855-.18.307 3.651-.39-3.471.083Zm-.296-18.756-.2.52 3.672-.594-3.472.075Zm.116 11.688.18.296 3.292-.375-3.472.08Zm-1.324-1.437-.25-.159-.258-.135.508.295Zm.469-40.265.292.438 3.18-.501-3.472.063Zm-.977 50.825.508-.288.475-.39-.983.679Zm-.12-51.808-.425-.2-.45-.125.875.325Z"/><path d="m35.231 66.54-.162.316 3.634-.398-3.472.082Zm-.162-6.456.162.301 3.31-.38-3.472.08Zm-.148-12.54-.148.557 3.62-.63-3.472.074Zm.456 18.672-.146.324 3.617-.406-3.471.082Zm-.364-19.259-.092.588 3.563-.662-3.471.074Zm-.688-28.434.248.485 3.224-.548-3.472.063Zm.906 41.862.146.306 3.326-.385-3.472.08Zm-1.667 8.237.242-.182.234-.207-.476.39Zm1.48-22.278-.031.613 3.503-.687-3.472.074Zm.46 19.54-.127.332 3.6-.414-3.472.081Zm-.46-19.54L33.702 17.7l-3.279-.823 4.62 29.468Z"/><path d="m35.376 60.69.128.311 3.343-.39-3.471.08Zm-1.674-42.991-.766-.597-.874-.325 1.64.922Zm1.914 47.843-.111.341 3.582-.423-3.471.082Zm-1.576-6.804-.234-.206-.242-.182.476.388Z"/><path d="m34.573 19.007.2.525 3.272-.588-3.472.063ZM35.505 61l.11.316 3.361-.396-3.471.08Zm-2.17-10.775.367-.32.332-.377-.7.697Z"/><path d="m35.71 65.19-.095.35 3.566-.43-3.471.08Zm-.095-3.874.094.32 3.378-.4-3.472.08Zm-.843-41.785.148.56 3.324-.623-3.471.063Zm1.014 45.301-.077.359 3.55-.44-3.473.081Zm-.742-43.536v25.047l3.472-25.11-3.472.063Zm-.561 37.925-.443-.483-.476-.388.92.871Z"/><path d="m35.71 61.637.077.326 3.395-.406-3.472.08Zm.137 2.829-.06.367 3.532-.449-3.472.082Zm-1.807 3.767.226-.232.217-.257-.443.489Z"/><path d="m35.786 61.962.06.33 3.412-.41-3.472.08Zm-.866-41.87.092.59 3.38-.653-3.472.063Zm.97 43.998-.044.376 3.515-.457-3.472.08Zm-.044-1.797.043.335 3.429-.416-3.472.08Zm.069 1.413-.026.384 3.497-.465-3.471.08Zm-.903-43.024.032.615 3.44-.678-3.472.063Zm.877 41.946.026.34 3.446-.42-3.472.08Zm-2.554-12.403.698-.697.54-.907-1.238 1.604Z"/><path d="m35.924 63.314-.008.392 3.48-.473-3.472.08ZM33.702 17.7l-.367-.33-.399-.268.766.597Z"/><path d="m35.916 62.969.008.345 3.463-.426-3.471.08Z"/><path d="m34.483 59.22-.218-.253-.225-.23.443.483Zm-.443 9.012.443-.49.406-.58-.85 1.07Zm1.191-7.847-.748-1.165-.919-.87 1.667 2.035Zm-1.191 7.847 1.876-5.264-2.352-4.619.476 9.883Zm.443-.49.21-.28.196-.3-.406.58Zm-.45-18.215.292-.43.248-.477-.54.907Zm-.698.697 1.238-1.604.471-2.277-1.71 3.88Zm.705 18.008.849-1.07.616-1.28-1.465 2.35Zm.849-8.444-.197-.291-.21-.277.407.568Zm.342.597-.342-.597-.406-.568.748 1.165Zm-.906-41.862-.292-.439-.331-.386.623.825Zm1.59 44.445-.684-2.583-1.667-2.036 2.352 4.619Zm-1.026 4.194.18-.307.162-.315-.342.622Zm-.316-18.543.2-.519.148-.556-.348 1.076Zm-.533 19.613 1.465-2.35.41-2.914-1.875 5.264Zm1.191-7.847-.162-.301-.18-.296.342.597Zm-.342 6.777.342-.622.274-.658-.616 1.28Zm-.316-18.543.348-1.075.123-1.2-.471 2.276Zm.2-29.087-.448-1.01-.623-.824 1.071 1.834Zm.271 26.811-.27-26.811-1.072-1.834 1.342 28.645Zm.187 20.197.145-.325.129-.333-.274.658Zm-.31-18.996.092-.587.031-.614-.123 1.201Zm.584 13.457-.129-.31-.145-.306.274.616Zm-.732-41.47-.2-.524-.248-.484.448 1.009Zm.937 42.106-.205-.636-.274-.616.48 1.252Zm-.205 4.245.111-.34.094-.35-.205.69Zm0 0 .205-.69.137-.726-.342 1.416Zm.205-4.245-.094-.32-.111-.316.205.636Zm.206 1.331-.206-1.33-.479-1.253.684 2.583Zm-.872-16.625-.031-25.66-.24-1.151.271 26.811Zm.46 19.54.343-1.417.069-1.498-.411 2.914Zm-.46-19.54V21.297l-.031-.615.031 25.661Zm.666 18.848.077-.358.06-.367-.137.725Zm-.697-44.509-.092-.59-.148-.56.24 1.15Zm.834 41.61-.06-.33-.077-.325.137.656Zm.069.676-.069-.675-.137-.656.206 1.331Zm-.069 1.498.043-.376.026-.384-.069.76Zm0 0 .069-.76v-.738l-.069 1.498Zm.069-1.498-.026-.34-.043-.335.069.675Zm0 .738.008-.393-.008-.345v.738Z"/></g><mask id="g" style="mask-type:alpha" maskUnits="userSpaceOnUse" x="26" y="16" width="14" height="54"><path d="m26.964 62.822-.009.344.01.393v-.737Zm0 .737.027.385.045.377-.072-.762Zm.072-1.41-.072.673v.737l.072-1.41Zm0 0-.045.334-.027.339.072-.672Zm-.072 1.41.072.762.143.73-.215-1.492Zm.072.762.063.368.08.361-.143-.73Zm.143-2.822-.08.322-.063.329.143-.651Zm.215-.629-.358 1.28-.072 1.41.43-2.69Zm-.43 2.69.215 1.49.501 1.364-.716-2.855Zm.215 1.49.099.353.116.345-.215-.698Zm.215-4.18-.215.629-.143.65.358-1.279Zm0 0-.117.312-.098.317.215-.629Zm-.215 4.18.215.698.286.666-.501-1.364Zm.215.698.134.337.152.33-.286-.667Zm.286-5.485-.152.3-.134.307.286-.607Zm.358-.585-.358.585-.286.607.644-1.192Zm-.358 6.736.17.321.188.313-.358-.634Zm1.26-7.758-1.546 2.214-.43 2.69 1.976-4.904Zm-.902 1.022-.188.29-.17.295.358-.585Zm-1.074 3.881.716 2.855 1.78 2.138-2.496-4.993Zm.716 2.855.358.634.427.594-.785-1.228Zm.358.634.206.306.22.288-.426-.594Zm.902-8.392-.902 1.022-.644 1.192 1.546-2.214Zm-.475.468-.22.27-.207.284.427-.554Zm3.177 10.073 3.472-.083.299-.007-3.771.09Zm0-11.46 3.472-.078-.346.006-3.126.072Z" fill="#3DBBF0"/><path d="m27.924 46.85.091.59.148.56-.24-1.15Zm-.032-25.645v25.032l.032.614-.032-25.646Zm-.212 45.21.785 1.228.996.91-1.78-2.138Zm.244-19.564.24 1.15.447 1.01-.687-2.16Zm1.016 11.805-.476.468-.426.554.902-1.022Zm-.476 8.987.232.264.244.24-.476-.504Zm3.478 1.546 3.472-.082.29-.032-3.762.114Z" fill="#3DBBF0"/><path d="m28.016 20.004-.123 1.2.031 25.647.092-26.847Zm3.926 37.748 3.472-.077-.3-.016-3.172.093Zm-3.779-9.751.2.525.248.485-.448-1.01Zm-.147-27.997-.092 26.847.687 2.16-.595-29.007Zm3.578 30.81 3.472-.075.468-.033-3.94.108Z" fill="#3DBBF0"/><path d="m28.94 58.657-.243.221-.232.246.475-.468Zm-.924-38.653-.092.588-.031.613.123-1.2Zm.45 47.64.474.503.521.406-.996-.91Zm3.767 1.513 3.472-.082.282-.058-3.754.14Zm0-11.363 3.472-.078-.291-.04-3.181.118Z" fill="#3DBBF0"/><path d="m28.363 18.927-.2.52-.148.556.348-1.076Zm.577 49.219.254.215.267.19-.521-.405Zm3.122-17.366 3.472-.075.45-.113-3.922.189Zm-.468-34.051 3.472-.062-.252-.003-3.22.065Zm.922 52.37 3.471-.083.275-.082-3.746.165ZM28.61 49.01l.292.44.331.387-.623-.827Zm3.905 8.847 3.472-.079-.283-.064-3.19.143Zm-3.054.427-.266.174-.255.198.521-.372Zm-.558-40.264-.54.908-.347 1.076.887-1.984Z" fill="#3DBBF0"/><path d="m32.79 69.018 3.471-.083.266-.107-3.738.19Zm0-11.072 3.471-.079-.274-.087-3.198.166Zm-3.889-39.927-.291.43-.248.478.54-.908Zm-.291 30.99.623.827.764.598-1.387-1.424Zm1.416 8.998-.566.276-.521.372 1.087-.648Zm2.036-41.231 3.472-.062-.468-.047-3.005.109Zm.448 33.89 3.473-.075.425-.187-3.898.263Z" fill="#3DBBF0"/><path d="m29.461 68.554.278.166.288.14-.566-.306Zm.963-51.677-2.408 3.129.595 29.006 1.813-32.135Zm2.632 52.033 3.472-.082.258-.132-3.73.215Zm0-10.853 3.472-.08-.267-.11-3.205.19Zm-3.03-.049-.288.126-.278.15.566-.276Zm-.793-8.172.366.33.399.269-.765-.599Zm2.064 7.905.346-.006 3.126-.071-3.472.077Zm2.267.609-4.624.307-1.976 4.903 6.6-5.21Zm-4.103 10.203.566.307.613.209-1.18-.516Zm3.853.224 3.472-.082.25-.157-3.722.24Zm-.803-51.876 3.472-.062-.449-.126-3.023.188Z" fill="#3DBBF0"/><path d="m30.424 16.877-1.521 1.144-.887 1.985 2.408-3.129Zm2.889 41.313 3.472-.078-.258-.135-3.214.214Zm-.378-7.71 3.472-.076.399-.256-3.87.331Zm-.994 18.709-.299.007 3.77-.09-3.471.083Zm-4.978-5.629 2.497 4.993 4.58-.32-7.076-4.673ZM29.6 17.322l-.366.32-.332.378.698-.698Zm1.698 40.421-1.27.265-1.088.648 2.358-.913Zm-1.27 11.117.3.116.312.092-.612-.208Zm1.614-11.123.299.017 3.173-.095-3.472.078Zm1.92 10.885 3.473-.083.242-.182-3.714.265Zm.001-10.272 3.472-.078-.25-.159-3.222.237Zm-4.953-9.34 1.388 1.425 1.595.38-2.983-1.805Z" fill="#3DBBF0"/><path d="m32.233 69.157-.291.032 3.763-.115-3.472.083Zm1.102-18.933 3.472-.075.367-.32-3.84.395Zm-2.695 7.604-.313.078-.3.103.612-.181Zm2.297-40.726 3.472-.063-.426-.199-3.046.262Zm.87 51.337 3.471-.082.234-.207-3.706.29Zm-1.865-10.686.291.04 3.181-.118-3.472.078Zm.12-6.972-.468.034 3.94-.11-3.472.076Zm1.745 7.751 3.471-.079-.242-.182-3.23.261ZM29.46 68.553l1.179.516 1.303.12-2.482-.636Zm.963-51.676-.823.445-.698.698 1.521-1.143Z" fill="#3DBBF0"/><path d="m32.515 69.1-.282.058 3.754-.14-3.472.082Zm-2.517-18.664.426.201.45.128-.876-.329Zm4.042 17.796 3.471-.083.226-.232-3.698.315Zm-2.7-51.506.253.003 3.22-.065-3.472.062Zm-.043 41.017-.658.085-.612.18 1.27-.265Zm2.743.995 3.472-.079-.234-.206-3.238.285Zm-1.807-.944.282.064 3.19-.142-3.472.078Zm1.469-7.889 3.472-.075.331-.377-3.803.452ZM30.64 69.068l.322.067.335.042-.658-.11Z" fill="#3DBBF0"/><path d="m33.335 17.369 3.472-.062-.399-.267-3.073.329Zm-.546 51.649-.274.082 3.746-.165-3.472.083ZM34.265 68l3.472-.083.217-.257-3.69.34Zm-3.84-51.123-.426.188-.399.257.825-.445Zm2.086 33.79-.449.113 3.921-.189-3.472.076Zm1.755 8.3 3.472-.08-.226-.229-3.246.309Zm-2.672-42.239.468.048 3.004-.11-3.472.063Zm.922 41.129.274.087 3.198-.166-3.472.079Zm-1.219-.113-.335.03-.323.055.658-.085Zm-1.299-7.308.875.328.72.052-1.595-.38Zm4.035-.907 3.472-.075.292-.43-3.764.505ZM30.64 69.068l.657.109.646.01-1.304-.12Z" fill="#3DBBF0"/><path d="m34.483 67.743 3.471-.082.21-.282-3.681.364Zm-1.427 1.167-.267.107 3.738-.19-3.471.083Zm1.427-9.69 3.471-.079-.217-.253-3.254.332Zm-.781-41.522 3.472-.062-.367-.33-3.105.392Zm-.913 40.247.267.111 3.205-.19-3.472.079Zm.774.405-2.267-.607-2.357.913 4.624-.307Zm1.128 9.112 3.472-.083.197-.298-3.669.38Zm0-7.965 3.472-.079-.21-.276-3.262.355Zm-1.756-9.017-.425.188 3.898-.263-3.473.075Zm1.39-1.382 3.47-.075.249-.478-3.72.553Zm-5.715-.088 2.983 1.805 1.741-.591-4.724-1.214Z" fill="#3DBBF0"/><path d="m33.314 68.779-.258.132 3.73-.215-3.472.083Zm-2.017.4.346.018.3-.007-.646-.011Zm2.743-.946-.476-9.883-6.6 5.21 7.076 4.673Zm-3.167-17.47.468.049.253.004-.72-.053Zm1.189-33.988.449.126 3.023-.188-3.472.062Zm1.971 1.31 3.472-.064-.331-.386-3.14.45Zm.856 49.077 3.471-.082.18-.307-3.651.39Zm-1.833-9.107.258.135 3.214-.213-3.472.078Zm1.833 1.732 3.471-.079-.196-.29-3.275.37Zm-.316-11.168 3.472-.075.2-.519-3.672.594Z" fill="#3DBBF0"/><path d="m29.46 68.553 2.482.637 2.098-.957-4.58.32Zm4.104.067-.25.158 3.721-.24-3.471.083Zm-1.622-10.868-.299-.016-.346.006.645.01Zm3.126 9.103 3.472-.082.163-.316-3.635.398Zm0-6.771 3.472-.08-.18-.296-3.292.376Zm-1.733-9.86-.399.255 3.87-.331-3.471.075Zm-1.994-33.499-.468.036-.45.115.918-.15ZM34.773 48.1l3.471-.074.148-.556-3.62.63Zm-1.46 10.09.25.16 3.222-.238-3.471.079Zm1.012-39.667 3.472-.063-.292-.438-3.18.5Zm.719 27.821-4.62-29.468-1.814 32.135 6.434-2.667Z" fill="#3DBBF0"/><path d="m35.231 66.54 3.472-.082.145-.324-3.617.406Zm0-6.155 3.472-.08-.163-.3-3.309.38Zm-2.72-43.483.426.2 3.046-.262-3.472.062Zm1.295 51.537-.242.182 3.714-.264-3.472.082Zm1.115-20.894 3.472-.075.091-.587-3.563.662Zm-2.405 10.311-.574-.103-.645-.01 1.219.113Zm2.86 8.36 3.472-.082.128-.332-3.6.414Zm-.363-19.259 3.471-.074.032-.613-3.503.687Zm.363 13.734 3.472-.08-.145-.305-3.327.385Zm-1.812-2.341.242.182 3.23-.26-3.472.078Zm-1.622 10.839.29-.032.283-.057-.573.089Zm2.631-50.181 3.472-.063-.248-.485-3.224.547Zm.932 46.875 3.471-.082.112-.34-3.583.422Zm-1.803-15.978-.367.32 3.839-.395-3.472.075Zm.338 18.327-.234.207 3.706-.29-3.472.083Zm1.465-7.23 3.471-.08-.128-.31-3.343.39Zm-3.444-44.226-.72-.05-.918.15 1.638-.1Zm2.983 29.567 3.472-.074V21.233l-3.472 25.11Zm.572 19.198 3.471-.081.094-.35-3.565.431Zm-4.022-14.725.468-.035.45-.114-.918.148Z" fill="#3DBBF0"/><path d="m34.773 19.532 3.471-.063-.2-.525-3.271.588Zm.842 41.785 3.472-.08-.111-.316-3.36.395Zm-1.81-2.786.234.206 3.238-.285-3.472.08Zm-1.289-.675-.283-.063-.291-.04.574.103Zm.42-40.754.399.268 3.073-.33-3.472.062Zm-.994 52.09.574-.09.54-.19-1.114.28Z" fill="#3DBBF0"/><path d="m35.71 65.19 3.472-.08.077-.36-3.549.44Zm0-3.553 3.472-.08-.095-.32-3.377.4Zm-1.445 6.362-.225.232 3.697-.314-3.472.082Zm.656-47.907 3.472-.064-.148-.56-3.324.624Zm.866 44.74 3.472-.081.06-.367-3.532.448Zm0-2.87 3.472-.08-.077-.325-3.395.405Zm.06 2.503 3.471-.081.043-.376-3.514.457Zm-1.814-14.939-.331.378 3.803-.453-3.472.075Zm1.814 12.766 3.471-.08-.06-.33-3.411.41Zm-1.807-3.555.225.23 3.246-.31-3.471.08Zm-.476-.387-1.049-.493-1.218-.114 2.267.606Z" fill="#3DBBF0"/><path d="m35.013 20.682 3.472-.063-.092-.59-3.38.653Zm.877 43.408 3.471-.081.026-.384-3.497.465Zm0-1.462 3.471-.08-.042-.336-3.43.416Zm-.846-41.331 3.472-.064-.031-.614-3.44.678Zm.871 42.409 3.472-.081.008-.393-3.48.474Zm0-.738 3.472-.08-.026-.34-3.446.42Zm-3.853-46.193-.469-.047-.252-.003.72.05Z" fill="#3DBBF0"/><path d="m35.924 63.314 3.471-.081-.008-.345-3.463.426ZM28.61 49.01l4.724 1.214 1.71-3.88-6.434 2.666Zm3.905 20.09.274-.083.267-.107-.541.19Zm1.968-1.356-.218.258 3.69-.34-3.472.082Zm-2.889-16.929.917-.148.824-.443-1.741.591Zm1.741-33.447.367.33 3.105-.392-3.472.062Zm.93 41.599.218.253 3.254-.332-3.472.079Zm.06-9.87-.292.43 3.764-.505-3.472.075Zm.367 18.364-.21.282 3.682-.364-3.472.082Zm-1.636-9.404-.267-.111-.274-.088.54.199ZM31.942 69.19l1.114-.28.984-.677-2.098.957Z" fill="#3DBBF0"/><path d="m34.483 59.22.21.278 3.262-.357-3.472.08Zm-.781-41.521-1.64-.922-1.639.1 3.279.822Zm1.187 49.463-.197.299 3.668-.38-3.471.081Zm-1.187-49.464.331.386 3.14-.449-3.471.063Zm.87 30.921-.247.478 3.72-.552-3.472.074Zm-1.008 9.731-.508-.293-.541-.2 1.05.493Z" fill="#3DBBF0"/><path d="m34.691 59.497.197.292 3.275-.372-3.472.08Zm-2.181-8.83.425-.187.399-.256-.824.444Zm.545 18.243.258-.132.25-.157-.508.29Z" fill="#3DBBF0"/><path d="m35.068 66.855-.18.307 3.651-.39-3.471.083Zm-.296-18.756-.2.52 3.672-.594-3.472.075Zm.116 11.688.18.296 3.292-.375-3.472.08Zm-1.324-1.437-.25-.159-.258-.135.508.295Zm.469-40.265.292.438 3.18-.501-3.472.063Zm-.977 50.825.508-.288.475-.39-.983.679Zm-.12-51.808-.425-.2-.45-.125.875.325Z" fill="#3DBBF0"/><path d="m35.231 66.54-.162.316 3.634-.398-3.472.082Zm-.162-6.456.162.301 3.31-.38-3.472.08Zm-.148-12.54-.148.557 3.62-.63-3.472.074Zm.456 18.672-.146.324 3.617-.406-3.471.082Zm-.364-19.259-.092.588 3.563-.662-3.471.074Zm-.688-28.434.248.485 3.224-.548-3.472.063Zm.906 41.862.146.306 3.326-.385-3.472.08Zm-1.667 8.237.242-.182.234-.207-.476.39Zm1.48-22.278-.031.613 3.503-.687-3.472.074Zm.46 19.54-.127.332 3.6-.414-3.472.081Zm-.46-19.54L33.702 17.7l-3.279-.823 4.62 29.468Z" fill="#3DBBF0"/><path d="m35.376 60.69.128.311 3.343-.39-3.471.08Zm-1.674-42.991-.766-.597-.874-.325 1.64.922Zm1.914 47.843-.111.341 3.582-.423-3.471.082Zm-1.576-6.804-.234-.206-.242-.182.476.388Z" fill="#3DBBF0"/><path d="m34.573 19.007.2.525 3.272-.588-3.472.063ZM35.505 61l.11.316 3.361-.396-3.471.08Zm-2.17-10.775.367-.32.332-.377-.7.697Z" fill="#3DBBF0"/><path d="m35.71 65.19-.095.35 3.566-.43-3.471.08Zm-.095-3.874.094.32 3.378-.4-3.472.08Zm-.843-41.785.148.56 3.324-.623-3.471.063Zm1.014 45.301-.077.359 3.55-.44-3.473.081Zm-.742-43.536v25.047l3.472-25.11-3.472.063Zm-.561 37.925-.443-.483-.476-.388.92.871Z" fill="#3DBBF0"/><path d="m35.71 61.637.077.326 3.395-.406-3.472.08Zm.137 2.829-.06.367 3.532-.449-3.472.082Zm-1.807 3.767.226-.232.217-.257-.443.489Z" fill="#3DBBF0"/><path d="m35.786 61.962.06.33 3.412-.41-3.472.08Zm-.866-41.87.092.59 3.38-.653-3.472.063Zm.97 43.998-.044.376 3.515-.457-3.472.08Zm-.044-1.797.043.335 3.429-.416-3.472.08Zm.069 1.413-.026.384 3.497-.465-3.471.08Zm-.903-43.024.032.615 3.44-.678-3.472.063Zm.877 41.946.026.34 3.446-.42-3.472.08Zm-2.554-12.403.698-.697.54-.907-1.238 1.604Z" fill="#3DBBF0"/><path d="m35.924 63.314-.008.392 3.48-.473-3.472.08ZM33.702 17.7l-.367-.33-.399-.268.766.597Z" fill="#3DBBF0"/><path d="m35.916 62.969.008.345 3.463-.426-3.471.08Z" fill="#3DBBF0"/><path d="m34.483 59.22-.218-.253-.225-.23.443.483Zm-.443 9.012.443-.49.406-.58-.85 1.07Zm1.191-7.847-.748-1.165-.919-.87 1.667 2.035Zm-1.191 7.847 1.876-5.264-2.352-4.619.476 9.883Zm.443-.49.21-.28.196-.3-.406.58Zm-.45-18.215.292-.43.248-.477-.54.907Zm-.698.697 1.238-1.604.471-2.277-1.71 3.88Zm.705 18.008.849-1.07.616-1.28-1.465 2.35Zm.849-8.444-.197-.291-.21-.277.407.568Zm.342.597-.342-.597-.406-.568.748 1.165Zm-.906-41.862-.292-.439-.331-.386.623.825Zm1.59 44.445-.684-2.583-1.667-2.036 2.352 4.619Zm-1.026 4.194.18-.307.162-.315-.342.622Zm-.316-18.543.2-.519.148-.556-.348 1.076Zm-.533 19.613 1.465-2.35.41-2.914-1.875 5.264Zm1.191-7.847-.162-.301-.18-.296.342.597Zm-.342 6.777.342-.622.274-.658-.616 1.28Zm-.316-18.543.348-1.075.123-1.2-.471 2.276Zm.2-29.087-.448-1.01-.623-.824 1.071 1.834Zm.271 26.811-.27-26.811-1.072-1.834 1.342 28.645Zm.187 20.197.145-.325.129-.333-.274.658Zm-.31-18.996.092-.587.031-.614-.123 1.201Zm.584 13.457-.129-.31-.145-.306.274.616Zm-.732-41.47-.2-.524-.248-.484.448 1.009Zm.937 42.106-.205-.636-.274-.616.48 1.252Zm-.205 4.245.111-.34.094-.35-.205.69Zm0 0 .205-.69.137-.726-.342 1.416Zm.205-4.245-.094-.32-.111-.316.205.636Zm.206 1.331-.206-1.33-.479-1.253.684 2.583Zm-.872-16.625-.031-25.66-.24-1.151.271 26.811Zm.46 19.54.343-1.417.069-1.498-.411 2.914Zm-.46-19.54V21.297l-.031-.615.031 25.661Zm.666 18.848.077-.358.06-.367-.137.725Zm-.697-44.509-.092-.59-.148-.56.24 1.15Zm.834 41.61-.06-.33-.077-.325.137.656Zm.069.676-.069-.675-.137-.656.206 1.331Zm-.069 1.498.043-.376.026-.384-.069.76Zm0 0 .069-.76v-.738l-.069 1.498Zm.069-1.498-.026-.34-.043-.335.069.675Zm0 .738.008-.393-.008-.345v.738Z" fill="#3DBBF0"/></mask><g mask="url(#g)"><ellipse cx="51.303" cy="47.194" rx="51.303" ry="47.194" transform="matrix(.99905 .04328 -.0429 .9991 -9.427 -2.082)" fill="url(#h)"/></g><path d="M31.136 50.49a4.133 4.133 0 0 1-4.134-4.133v-25.56a4.133 4.133 0 1 1 8.267 0v25.56a4.133 4.133 0 0 1-4.133 4.133Zm-5.218 12.335c0-1.38.497-2.635 1.491-3.767.994-1.133 2.304-1.699 3.93-1.699 1.4 0 2.575.566 3.523 1.699.949 1.132 1.423 2.388 1.423 3.767 0 1.575-.474 2.954-1.423 4.136-.948 1.181-2.123 1.772-3.523 1.772-1.626 0-2.936-.59-3.93-1.772-.994-1.182-1.49-2.56-1.49-4.136Z" fill="url(#i)"/><defs><linearGradient id="c" x1=".843" y1="-31.071" x2="67.578" y2="142.995" gradientUnits="userSpaceOnUse"><stop stop-color="#33BDF7"/><stop offset="1" stop-color="#9ADEFC"/></linearGradient><linearGradient id="d" x1="7.009" y1="5.756" x2="60.066" y2="96.849" gradientUnits="userSpaceOnUse"><stop stop-color="#9ADEFC"/><stop offset="1" stop-color="#33BDF7"/></linearGradient><linearGradient id="e" x1="30.209" y1="6.761" x2="46.831" y2="71.872" gradientUnits="userSpaceOnUse"><stop stop-color="#0BA7E8"/><stop offset="1" stop-color="#8FDBFC"/></linearGradient><linearGradient id="i" x1="31.102" y1="16.664" x2="31.102" y2="68.733" gradientUnits="userSpaceOnUse"><stop stop-color="#fff"/><stop offset="1" stop-color="#E9F9FF"/></linearGradient><radialGradient id="b" cx="0" cy="0" r="1" gradientUnits="userSpaceOnUse" gradientTransform="scale(104.044 80.6464) rotate(90 0 1)"><stop stop-color="#BFEBFF"/><stop offset="1" stop-color="#50C7FC" stop-opacity="0"/></radialGradient><radialGradient id="h" cx="0" cy="0" r="1" gradientUnits="userSpaceOnUse" gradientTransform="matrix(0 47.1936 -51.303 0 51.303 47.194)"><stop stop-color="#BFEBFF"/><stop offset="1" stop-color="#50C7FC" stop-opacity="0"/></radialGradient><filter id="f" x="21.955" y="10.664" width="32.441" height="72.534" filterUnits="userSpaceOnUse" color-interpolation-filters="sRGB"><feFlood flood-opacity="0" result="BackgroundImageFix"/><feColorMatrix in="SourceAlpha" values="0 0 0 0 0 0 0 0 0 0 0 0 0 0 0 0 0 0 127 0" result="hardAlpha"/><feOffset dx="5" dy="4"/><feGaussianBlur stdDeviation="5"/><feColorMatrix values="0 0 0 0 0 0 0 0 0 0.547259 0 0 0 0 0.775 0 0 0 1 0"/><feBlend in2="BackgroundImageFix" result="effect1_dropShadow_1157_118187"/><feBlend in="SourceGraphic" in2="effect1_dropShadow_1157_118187" result="shape"/></filter></defs></svg>