<svg width="83" height="89" fill="none" xmlns="http://www.w3.org/2000/svg"><path d="m9.028 18.616-1.39 1.67-1.244 1.79 2.634-3.46Zm-2.634 3.46-1.082 1.891-.906 1.977 1.988-3.868Zm2.634-3.46-2.634 3.46-1.988 3.868 4.622-7.328Zm3.172-2.903-1.647 1.372-1.525 1.531 3.172-2.903Zm-7.794 10.23-.715 2.045-.505 2.096 1.22-4.14ZM15.81 13.527l-3.61 2.187-3.172 2.903 6.782-5.09Zm0 0-1.854.993-1.756 1.194 3.61-2.187Zm-6.782 5.09-4.622 7.328L.25 68.17l8.778-49.555Zm-4.622 7.328-1.22 4.14L.25 68.171l4.156-42.227Zm-1.22 4.14-.279 2.131L.25 68.171l2.936-38.087ZM56.256.753 15.81 13.526l-6.782 5.09L56.258.753Zm-4.738.962L17.75 12.758l-1.941.768 35.71-11.811ZM9.029 18.616.25 68.171l1.353 9.152 7.425-58.707ZM56.256.753l-4.738.962L15.81 13.526 56.257.753ZM19.027 87.427l2.625.65 2.023.315-4.648-.965Z" fill="#C7CDDC"/><path d="m.253 68.173-.05 2.476.216 2.363-.166-4.84Zm20.82 19.57 2.602.649 2.145-.025-4.747-.624Zm0 0-2.046-.316 4.648.965-2.602-.649ZM9.032 18.617 1.607 77.324l13.216 8.25-5.791-66.957ZM.254 68.172l.165 4.84 1.188 4.312-1.353-9.152Z" fill="#C7CDDC"/><path d="m23.243 87.713-2.173.03 4.748.624-2.575-.654ZM70.36 8.463 56.263.755 9.034 18.618 70.36 8.463ZM.421 73.013l.47 2.231.717 2.081-1.187-4.313Z" fill="#C7CDDC"/><path d="m75.312 15.557 1.514 2.168-1.007-1.817-.507-.35ZM16.289 86.75l2.737.678 2.045.316-4.782-.994Zm58.006-73.031 1.017 1.84.507.35-1.524-2.19Zm1.75 3.902 1.508 2.139-.727-2.034-.78-.105ZM18.357 87.067l2.714.676 2.173-.03-4.887-.646ZM56.262.755l-2.345.328-2.394.634 4.739-.962Z" fill="#C7CDDC"/><path d="m18.357 87.067-2.068-.318 4.782.994-2.714-.676Zm56.955-71.51.733 2.064.78.104-1.513-2.167Zm1.151 4.337 1.509 2.104-.419-2.239-1.09.135ZM1.605 77.325l.952 1.908 1.176 1.712-2.128-3.62Zm13.216 8.25L70.356 8.462 9.03 18.617l5.79 66.958Z" fill="#C7CDDC"/><path d="m20.558 87.032-2.2.035 4.886.647-2.686-.682ZM76.045 17.62l.418 2.274 1.09-.135-1.508-2.139Zm-2.313-4.325 1.58 2.262-1.017-1.84-.563-.422ZM13.434 86.042l2.855.707 2.068.318-4.923-1.025ZM1.605 77.325l2.128 3.62 2.98 2.734-5.108-6.354ZM60.715.993l-2.18-.266-2.275.028 4.456.238Z" fill="#C7CDDC"/><path d="m72.704 11.433 1.027 1.862.563.423-1.59-2.285Zm1.765 3.955 1.574 2.232-.733-2.063-.841-.17ZM23.242 87.713l2.575.654 37.873-3.512-40.448 2.858Zm-7.719-1.352 2.833.706 2.2-.036-5.033-.67ZM3.734 80.945l1.39 1.491 1.592 1.242-2.982-2.733Z" fill="#C7CDDC"/><path d="m15.525 86.361-2.091-.32 4.923 1.026-2.832-.706Zm58.207-73.065.739 2.093.84.169-1.579-2.262ZM64.702 2.39 60.717.994l-4.455-.24 8.44 1.636Z" fill="#C7CDDC"/><path d="m74.886 17.698 1.575 2.197-.418-2.274-1.157.077ZM17.752 86.32l-2.229.041 5.033.67-2.804-.711ZM1.605 77.325l5.109 6.354 8.107 1.897-13.216-8.25Z" fill="#C7CDDC"/><path d="m74.469 15.389.417 2.31 1.157-.078-1.574-2.232ZM64.7 2.39l-1.921-.84-2.064-.557 3.984 1.396Zm7.384 8.543 1.65 2.363-1.027-1.863-.623-.5Zm-61.63 74.37 2.981.738 2.092.32-5.074-1.058ZM71.046 9.047l1.037 1.886.623.5-1.66-2.386ZM6.715 83.679l1.78.965 1.956.658-3.736-1.623Zm66.109-70.623 1.645 2.332-.738-2.092-.907-.24Z" fill="#C7CDDC"/><path d="M70.357 8.463 64.702 2.39 56.262.755l14.095 7.708ZM20.56 87.031l2.686.682 38.466-3.67L20.56 87.03Zm-7.992-1.408 2.959.738 2.228-.042-5.187-.696Zm0 0-2.115-.32 5.074 1.058-2.959-.738Zm59.516-74.69.743 2.123.907.24-1.65-2.363Zm4.38 8.961 4.24 40.323-2.73-38.22-1.51-2.103ZM6.715 83.679l3.736 1.623 4.372.273-8.108-1.896Zm66.523-68.276 1.647 2.295-.417-2.31-1.23.015Zm-5.24-10.504-1.546-1.39-1.749-1.12 3.295 2.51Z" fill="#C7CDDC"/><path d="m14.823 85.575-2.257.048 5.188.696-2.931-.744Zm58.002-72.52.416 2.347 1.23-.014-1.645-2.332Z" fill="#C7CDDC"/><path d="m10.453 85.303 2.115.32 2.257-.047-4.372-.273ZM70.356 8.462l1.725 2.47-1.037-1.886-.688-.584Zm.003.001-2.36-3.564-3.296-2.51 5.656 6.074Z" fill="#C7CDDC"/><path d="m69.31 6.553 1.047 1.91.689.584-1.736-2.494Zm1.795 4.063 1.72 2.44-.742-2.123-.978-.317Zm-9.394 73.427-38.467 3.67 40.448-2.858-1.981-.812ZM17.754 86.32l2.804.712 39.076-3.84-41.88 3.129ZM70.357 8.463l-1.048-1.91-1.313-1.655 2.36 3.565Z" fill="#C7CDDC"/><path d="m70.356 8.462.747 2.154.978.316-1.725-2.47Zm4.53 9.236 4.182 41.08-2.607-38.884-1.575-2.196Zm5.814 42.52 1.557 1.37-4.287-39.59 2.73 38.22ZM71.517 13l1.723 2.402-.416-2.347L71.517 13Zm-.414-2.384L71.517 13l1.307.055-1.72-2.44Z" fill="#C7CDDC"/><path d="m71.517 13-.414-2.384-.747-2.154L71.517 13ZM59.635 83.192l-39.076 3.84 41.153-2.989-2.077-.851Zm-44.81 2.384 2.93.744 39.7-4.022-42.63 3.278Zm58.418-70.173 4.114 41.866-2.468-39.57-1.646-2.296Zm5.828 43.376 1.632 1.439-4.239-40.323 2.607 38.884ZM61.71 84.043l1.982.813 2.688-.446-4.67-.367Zm2.739-.462 1.931.829 2.585-.816-4.516-.013Zm16.355-20.497 1.564 1.313-.11-2.807-1.454 1.494ZM64.45 83.58l-2.738.462 4.67.367-1.932-.829Zm2.634-.84 1.882.853 2.448-1.163-4.33.31ZM80.52 65.917l1.577 1.252.272-2.772-1.85 1.52Zm.183-5.7.102 2.867 1.455-1.494-1.557-1.372ZM57.455 82.299l-39.7 4.022 41.88-3.128-2.18-.894Zm9.63.443-2.635.84 4.516.013-1.882-.853Zm2.497-1.195 1.832.885 2.278-1.482-4.11.597Zm10.283-12.868 1.598 1.192.634-2.7-2.232 1.508ZM71.91 80.025l1.783.924 2.078-1.771-3.861.847Zm6.955-8.699 1.624 1.132.975-2.588-2.6 1.456Zm1.941-8.242-.285 2.833 1.849-1.52-1.564-1.313ZM69.582 81.546l-2.498 1.195 4.33-.31-1.832-.885Zm1.938-68.545 4.035 42.68-2.312-40.278L71.52 13Zm2.512 65.208 1.737.969 1.845-2.03-3.582 1.06Zm3.507-4.386 1.658 1.074 1.291-2.439-2.949 1.365Zm-1.62 2.307 1.695 1.019 1.583-2.252-3.278 1.233Zm1.438-18.861 1.714 1.51-4.182-41.08 2.468 39.57Z" fill="#C7CDDC"/><path d="m14.824 85.575 57.224-15.31-1.69-61.803-55.534 77.113Zm44.809-2.383 2.077.851 2.738-.462-4.815-.39Zm20.885-17.275-.654 2.76 2.231-1.508-1.577-1.252Zm-8.611 14.108-2.327 1.521 4.11-.597-1.783-.924Z" fill="#C7CDDC"/><path d="M75.63 58.74 71.517 13l-1.161-4.538 5.274 50.277Zm4.235 9.938-1.001 2.648 2.6-1.457-1.599-1.191Zm-5.833 9.53-2.123 1.817 3.86-.848-1.737-.969Zm4.832-6.882-1.325 2.497 2.95-1.365-1.625-1.132Zm-2.945 4.803-1.887 2.08 3.582-1.06-1.695-1.02Zm-13.495 6.583 2.026.87 2.634-.841-4.66-.029Zm15.115-8.89-1.62 2.307 3.278-1.232-1.658-1.074Zm1.627-12.116 1.64 1.377-.103-2.865-1.537 1.488ZM62.424 82.712l-2.79.48 4.816.39-2.026-.87Zm2.687-.866 1.973.894 2.498-1.194-4.47.3Zm13.754-17.243 1.655 1.314.285-2.834-1.94 1.52Zm.206-5.824.095 2.927 1.537-1.489-1.632-1.438Zm-23.906 22.58-40.34 4.216 42.63-3.277-2.29-.939Zm9.946.487-2.687.866 4.66.028-1.973-.894Zm2.55-1.229 1.92.929 2.328-1.521-4.249.592Zm10.528-13.19 1.676 1.25.655-2.76-2.331 1.51Zm-8.152 11.628 1.872.97 2.123-1.817-3.995.847Zm7.121-8.917 1.706 1.188 1.001-2.648-2.707 1.46Zm2.008-8.432-.3 2.897 1.94-1.52-1.64-1.377ZM67.66 80.617l-2.549 1.229 4.47-.3-1.92-.929Zm4.548-3.425 1.824 1.016 1.887-2.079-3.711 1.063Zm3.591-4.496 1.74 1.127 1.325-2.497-3.065 1.37Zm-1.66 2.364 1.78 1.07 1.62-2.307-3.4 1.237Zm1.416-19.379 1.802 1.588-4.114-41.867 2.312 40.279Zm-18.1 26.617 2.18.894 2.79-.48-4.97-.414Zm21.41-17.695-.676 2.824 2.33-1.51-1.654-1.314Zm-8.828 14.453-2.377 1.561 4.249-.592-1.872-.97Z" fill="#C7CDDC"/><path d="m14.824 85.576 40.34-4.217 2.9-.517-43.24 4.734Zm63.36-18.148-1.03 2.71 2.706-1.46-1.676-1.25Zm-5.981 9.764-2.171 1.864 3.994-.847-1.823-1.017Zm4.95-7.053-1.359 2.557 3.064-1.37-1.705-1.187Zm-3.02 4.92-1.93 2.133 3.71-1.062-1.78-1.07Zm-13.84 6.742 2.126.912 2.687-.867-4.813-.045Zm15.501-9.105-1.66 2.364 3.4-1.237-1.74-1.127Zm1.645-12.435 1.722 1.446-.095-2.928-1.627 1.482Z" fill="#C7CDDC"/><path d="m14.824 85.575 43.24-4.734 5.455-2.225-48.695 6.96ZM60.296 81.8l-2.843.498 4.97.414-2.127-.912Zm2.741-.894 2.072.94 2.55-1.229-4.622.29Zm14.089-17.683 1.737 1.38.3-2.897-2.037 1.517Zm.229-5.954.087 2.991 1.627-1.481-1.714-1.51ZM63.037 80.906l-2.74.894 4.812.046-2.072-.94Zm2.603-1.264 2.018.975 2.377-1.562-4.395.587Zm9.993-20.902-.078-3.06L71.52 13l4.113 45.74ZM14.824 85.574l48.695-6.959 8.529-8.351-57.224 15.31Zm57.224-15.31 3.585-11.526L70.36 8.462l1.689 61.803Z" fill="#C7CDDC"/><path d="m76.427 66.113 1.761 1.314.677-2.824-2.438 1.51ZM68.07 78.037l1.967 1.018 2.17-1.864-4.137.846Zm7.296-9.147 1.792 1.248 1.03-2.711-2.822 1.463Zm2.077-8.63-.316 2.962 2.038-1.516-1.722-1.446ZM65.641 79.642l-2.603 1.264 4.622-.289-2.019-.975Zm4.65-3.52 1.916 1.07 1.931-2.133-3.847 1.064Zm3.68-4.61 1.828 1.183 1.359-2.557-3.188 1.373Zm-1.703 2.423 1.87 1.124 1.66-2.364-3.53 1.24ZM55.164 81.36l2.29.939 2.843-.498-5.133-.441Zm21.963-18.136-.7 2.89 2.438-1.51-1.738-1.38ZM68.07 78.036l-2.429 1.605 4.395-.587-1.966-1.018Zm8.357-11.924-1.061 2.777 2.822-1.463-1.761-1.314Zm-6.136 10.01-2.22 1.914 4.136-.846-1.916-1.068Zm5.075-7.233L73.97 71.51l3.188-1.373-1.792-1.248Zm-3.098 5.045-1.977 2.188 3.847-1.064-1.87-1.124ZM58.063 80.84l2.234.959 2.741-.894-4.975-.065Zm15.907-9.33-1.702 2.424 3.53-1.24-1.828-1.184Zm1.662-12.772 1.811 1.521-.087-2.992-1.724 1.471ZM58.062 80.84l-2.898.518 5.133.44-2.234-.958Zm2.798-.923 2.178.988 2.603-1.264-4.781.276ZM75.299 61.77l1.828 1.451.316-2.962-2.144 1.51Zm.256-6.09.077 3.058 1.724-1.47-1.801-1.588ZM60.86 79.918l-2.797.923 4.975.065-2.178-.988Zm2.658-1.302 2.123 1.026 2.43-1.605-4.553.58Zm11.056-13.885 1.853 1.382.7-2.89-2.553 1.508Zm-8.572 12.234 2.068 1.072 2.22-1.914-4.288.842Zm7.48-9.388 1.884 1.313 1.06-2.777-2.945 1.464Zm2.15-8.838-.333 3.032 2.144-1.511-1.81-1.52ZM63.518 78.616l-2.658 1.302 4.781-.276-2.123-1.026ZM68.275 75l2.016 1.124 1.977-2.188L68.275 75Zm3.772-4.734 1.923 1.246 1.396-2.62-3.319 1.374Zm-1.746 2.487 1.967 1.183 1.702-2.424-3.669 1.241Zm4.998-10.981-.725 2.96 2.553-1.508-1.828-1.452Zm-9.297 15.194-2.484 1.651 4.552-.58-2.068-1.07Z" fill="#C7CDDC"/><path d="m58.063 80.841 2.796-.923 2.66-1.302-5.456 2.225Zm16.509-16.11-1.093 2.846 2.945-1.464-1.852-1.382ZM68.272 75 66 76.965l4.289-.842-2.016-1.124Zm5.207-7.422-1.434 2.688 3.319-1.375-1.885-1.313Zm-3.18 5.175L68.273 75l3.993-1.064-1.967-1.183Zm1.746-2.487-1.746 2.487 3.67-1.24-1.924-1.247Z" fill="#C7CDDC"/><path d="m74.571 64.731.725-2.96.334-3.032-1.059 5.992Zm-2.527 5.534 2.527-5.534 1.059-5.992-3.586 11.526Zm-8.528 8.351 2.483-1.65 2.273-1.967-4.756 3.617Zm0 0L68.272 75l3.772-4.734-8.528 8.351Zm8.528-8.351 1.434-2.688 1.093-2.846-2.527 5.534Zm-3.772 4.734 2.026-2.247 1.746-2.487-3.772 4.734Z" fill="#C7CDDC"/><mask id="a" style="mask-type:alpha" maskUnits="userSpaceOnUse" x="0" y="0" width="83" height="89"><path d="m9.028 18.616-1.39 1.67-1.244 1.79 2.634-3.46Zm-2.634 3.46-1.082 1.891-.906 1.977 1.988-3.868Zm2.634-3.46-2.634 3.46-1.988 3.868 4.622-7.328Zm3.172-2.903-1.647 1.372-1.525 1.531 3.172-2.903Zm-7.794 10.23-.715 2.045-.505 2.096 1.22-4.14ZM15.81 13.527l-3.61 2.187-3.172 2.903 6.782-5.09Zm0 0-1.854.993-1.756 1.194 3.61-2.187Zm-6.782 5.09-4.622 7.328L.25 68.17l8.778-49.555Zm-4.622 7.328-1.22 4.14L.25 68.171l4.156-42.227Zm-1.22 4.14-.279 2.131L.25 68.171l2.936-38.087ZM56.256.753 15.81 13.526l-6.782 5.09L56.258.753Zm-4.738.962L17.75 12.758l-1.941.768 35.71-11.811ZM9.029 18.616.25 68.171l1.353 9.152 7.425-58.707ZM56.256.753l-4.738.962L15.81 13.526 56.257.753ZM19.027 87.427l2.625.65 2.023.315-4.648-.965Z" fill="#C7CDDC"/><path d="m.253 68.173-.05 2.476.216 2.363-.166-4.84Zm20.82 19.57 2.602.649 2.145-.025-4.747-.624Zm0 0-2.046-.316 4.648.965-2.602-.649ZM9.032 18.617 1.607 77.324l13.216 8.25-5.791-66.957ZM.254 68.172l.165 4.84 1.188 4.312-1.353-9.152Z" fill="#C7CDDC"/><path d="m23.243 87.713-2.173.03 4.748.624-2.575-.654ZM70.36 8.463 56.263.755 9.034 18.618 70.36 8.463ZM.421 73.013l.47 2.231.717 2.081-1.187-4.313Z" fill="#C7CDDC"/><path d="m75.312 15.557 1.514 2.168-1.007-1.817-.507-.35ZM16.289 86.75l2.737.678 2.045.316-4.782-.994Zm58.006-73.031 1.017 1.84.507.35-1.524-2.19Zm1.75 3.902 1.508 2.139-.727-2.034-.78-.105ZM18.357 87.067l2.714.676 2.173-.03-4.887-.646ZM56.262.755l-2.345.328-2.394.634 4.739-.962Z" fill="#C7CDDC"/><path d="m18.357 87.067-2.068-.318 4.782.994-2.714-.676Zm56.955-71.51.733 2.064.78.104-1.513-2.167Zm1.151 4.337 1.509 2.104-.419-2.239-1.09.135ZM1.605 77.325l.952 1.908 1.176 1.712-2.128-3.62Zm13.216 8.25L70.356 8.462 9.03 18.617l5.79 66.958Z" fill="#C7CDDC"/><path d="m20.558 87.032-2.2.035 4.886.647-2.686-.682ZM76.045 17.62l.418 2.274 1.09-.135-1.508-2.139Zm-2.313-4.325 1.58 2.262-1.017-1.84-.563-.422ZM13.434 86.042l2.855.707 2.068.318-4.923-1.025ZM1.605 77.325l2.128 3.62 2.98 2.734-5.108-6.354ZM60.715.993l-2.18-.266-2.275.028 4.456.238Z" fill="#C7CDDC"/><path d="m72.704 11.433 1.027 1.862.563.423-1.59-2.285Zm1.765 3.955 1.574 2.232-.733-2.063-.841-.17ZM23.242 87.713l2.575.654 37.873-3.512-40.448 2.858Zm-7.719-1.352 2.833.706 2.2-.036-5.033-.67ZM3.734 80.945l1.39 1.491 1.592 1.242-2.982-2.733Z" fill="#C7CDDC"/><path d="m15.525 86.361-2.091-.32 4.923 1.026-2.832-.706Zm58.207-73.065.739 2.093.84.169-1.579-2.262ZM64.702 2.39 60.717.994l-4.455-.24 8.44 1.636Z" fill="#C7CDDC"/><path d="m74.886 17.698 1.575 2.197-.418-2.274-1.157.077ZM17.752 86.32l-2.229.041 5.033.67-2.804-.711ZM1.605 77.325l5.109 6.354 8.107 1.897-13.216-8.25Z" fill="#C7CDDC"/><path d="m74.469 15.389.417 2.31 1.157-.078-1.574-2.232ZM64.7 2.39l-1.921-.84-2.064-.557 3.984 1.396Zm7.384 8.543 1.65 2.363-1.027-1.863-.623-.5Zm-61.63 74.37 2.981.738 2.092.32-5.074-1.058ZM71.046 9.047l1.037 1.886.623.5-1.66-2.386ZM6.715 83.679l1.78.965 1.956.658-3.736-1.623Zm66.109-70.623 1.645 2.332-.738-2.092-.907-.24Z" fill="#C7CDDC"/><path d="M70.357 8.463 64.702 2.39 56.262.755l14.095 7.708ZM20.56 87.031l2.686.682 38.466-3.67L20.56 87.03Zm-7.992-1.408 2.959.738 2.228-.042-5.187-.696Zm0 0-2.115-.32 5.074 1.058-2.959-.738Zm59.516-74.69.743 2.123.907.24-1.65-2.363Zm4.38 8.961 4.24 40.323-2.73-38.22-1.51-2.103ZM6.715 83.679l3.736 1.623 4.372.273-8.108-1.896Zm66.523-68.276 1.647 2.295-.417-2.31-1.23.015Zm-5.24-10.504-1.546-1.39-1.749-1.12 3.295 2.51Z" fill="#C7CDDC"/><path d="m14.823 85.575-2.257.048 5.188.696-2.931-.744Zm58.002-72.52.416 2.347 1.23-.014-1.645-2.332Z" fill="#C7CDDC"/><path d="m10.453 85.303 2.115.32 2.257-.047-4.372-.273ZM70.356 8.462l1.725 2.47-1.037-1.886-.688-.584Zm.003.001-2.36-3.564-3.296-2.51 5.656 6.074Z" fill="#C7CDDC"/><path d="m69.31 6.553 1.047 1.91.689.584-1.736-2.494Zm1.795 4.063 1.72 2.44-.742-2.123-.978-.317Zm-9.394 73.427-38.467 3.67 40.448-2.858-1.981-.812ZM17.754 86.32l2.804.712 39.076-3.84-41.88 3.129ZM70.357 8.463l-1.048-1.91-1.313-1.655 2.36 3.565Z" fill="#C7CDDC"/><path d="m70.356 8.462.747 2.154.978.316-1.725-2.47Zm4.53 9.236 4.182 41.08-2.607-38.884-1.575-2.196Zm5.814 42.52 1.557 1.37-4.287-39.59 2.73 38.22ZM71.517 13l1.723 2.402-.416-2.347L71.517 13Zm-.414-2.384L71.517 13l1.307.055-1.72-2.44Z" fill="#C7CDDC"/><path d="m71.517 13-.414-2.384-.747-2.154L71.517 13ZM59.635 83.192l-39.076 3.84 41.153-2.989-2.077-.851Zm-44.81 2.384 2.93.744 39.7-4.022-42.63 3.278Zm58.418-70.173 4.114 41.866-2.468-39.57-1.646-2.296Zm5.828 43.376 1.632 1.439-4.239-40.323 2.607 38.884ZM61.71 84.043l1.982.813 2.688-.446-4.67-.367Zm2.739-.462 1.931.829 2.585-.816-4.516-.013Zm16.355-20.497 1.564 1.313-.11-2.807-1.454 1.494ZM64.45 83.58l-2.738.462 4.67.367-1.932-.829Zm2.634-.84 1.882.853 2.448-1.163-4.33.31ZM80.52 65.917l1.577 1.252.272-2.772-1.85 1.52Zm.183-5.7.102 2.867 1.455-1.494-1.557-1.372ZM57.455 82.299l-39.7 4.022 41.88-3.128-2.18-.894Zm9.63.443-2.635.84 4.516.013-1.882-.853Zm2.497-1.195 1.832.885 2.278-1.482-4.11.597Zm10.283-12.868 1.598 1.192.634-2.7-2.232 1.508ZM71.91 80.025l1.783.924 2.078-1.771-3.861.847Zm6.955-8.699 1.624 1.132.975-2.588-2.6 1.456Zm1.941-8.242-.285 2.833 1.849-1.52-1.564-1.313ZM69.582 81.546l-2.498 1.195 4.33-.31-1.832-.885Zm1.938-68.545 4.035 42.68-2.312-40.278L71.52 13Zm2.512 65.208 1.737.969 1.845-2.03-3.582 1.06Zm3.507-4.386 1.658 1.074 1.291-2.439-2.949 1.365Zm-1.62 2.307 1.695 1.019 1.583-2.252-3.278 1.233Zm1.438-18.861 1.714 1.51-4.182-41.08 2.468 39.57Z" fill="#C7CDDC"/><path d="m14.824 85.575 57.224-15.31-1.69-61.803-55.534 77.113Zm44.809-2.383 2.077.851 2.738-.462-4.815-.39Zm20.885-17.275-.654 2.76 2.231-1.508-1.577-1.252Zm-8.611 14.108-2.327 1.521 4.11-.597-1.783-.924Z" fill="#C7CDDC"/><path d="M75.63 58.74 71.517 13l-1.161-4.538 5.274 50.277Zm4.235 9.938-1.001 2.648 2.6-1.457-1.599-1.191Zm-5.833 9.53-2.123 1.817 3.86-.848-1.737-.969Zm4.832-6.882-1.325 2.497 2.95-1.365-1.625-1.132Zm-2.945 4.803-1.887 2.08 3.582-1.06-1.695-1.02Zm-13.495 6.583 2.026.87 2.634-.841-4.66-.029Zm15.115-8.89-1.62 2.307 3.278-1.232-1.658-1.074Zm1.627-12.116 1.64 1.377-.103-2.865-1.537 1.488ZM62.424 82.712l-2.79.48 4.816.39-2.026-.87Zm2.687-.866 1.973.894 2.498-1.194-4.47.3Zm13.754-17.243 1.655 1.314.285-2.834-1.94 1.52Zm.206-5.824.095 2.927 1.537-1.489-1.632-1.438Zm-23.906 22.58-40.34 4.216 42.63-3.277-2.29-.939Zm9.946.487-2.687.866 4.66.028-1.973-.894Zm2.55-1.229 1.92.929 2.328-1.521-4.249.592Zm10.528-13.19 1.676 1.25.655-2.76-2.331 1.51Zm-8.152 11.628 1.872.97 2.123-1.817-3.995.847Zm7.121-8.917 1.706 1.188 1.001-2.648-2.707 1.46Zm2.008-8.432-.3 2.897 1.94-1.52-1.64-1.377ZM67.66 80.617l-2.549 1.229 4.47-.3-1.92-.929Zm4.548-3.425 1.824 1.016 1.887-2.079-3.711 1.063Zm3.591-4.496 1.74 1.127 1.325-2.497-3.065 1.37Zm-1.66 2.364 1.78 1.07 1.62-2.307-3.4 1.237Zm1.416-19.379 1.802 1.588-4.114-41.867 2.312 40.279Zm-18.1 26.617 2.18.894 2.79-.48-4.97-.414Zm21.41-17.695-.676 2.824 2.33-1.51-1.654-1.314Zm-8.828 14.453-2.377 1.561 4.249-.592-1.872-.97Z" fill="#C7CDDC"/><path d="m14.824 85.576 40.34-4.217 2.9-.517-43.24 4.734Zm63.36-18.148-1.03 2.71 2.706-1.46-1.676-1.25Zm-5.981 9.764-2.171 1.864 3.994-.847-1.823-1.017Zm4.95-7.053-1.359 2.557 3.064-1.37-1.705-1.187Zm-3.02 4.92-1.93 2.133 3.71-1.062-1.78-1.07Zm-13.84 6.742 2.126.912 2.687-.867-4.813-.045Zm15.501-9.105-1.66 2.364 3.4-1.237-1.74-1.127Zm1.645-12.435 1.722 1.446-.095-2.928-1.627 1.482Z" fill="#C7CDDC"/><path d="m14.824 85.575 43.24-4.734 5.455-2.225-48.695 6.96ZM60.296 81.8l-2.843.498 4.97.414-2.127-.912Zm2.741-.894 2.072.94 2.55-1.229-4.622.29Zm14.089-17.683 1.737 1.38.3-2.897-2.037 1.517Zm.229-5.954.087 2.991 1.627-1.481-1.714-1.51ZM63.037 80.906l-2.74.894 4.812.046-2.072-.94Zm2.603-1.264 2.018.975 2.377-1.562-4.395.587Zm9.993-20.902-.078-3.06L71.52 13l4.113 45.74ZM14.824 85.574l48.695-6.959 8.529-8.351-57.224 15.31Zm57.224-15.31 3.585-11.526L70.36 8.462l1.689 61.803Z" fill="#C7CDDC"/><path d="m76.427 66.113 1.761 1.314.677-2.824-2.438 1.51ZM68.07 78.037l1.967 1.018 2.17-1.864-4.137.846Zm7.296-9.147 1.792 1.248 1.03-2.711-2.822 1.463Zm2.077-8.63-.316 2.962 2.038-1.516-1.722-1.446ZM65.641 79.642l-2.603 1.264 4.622-.289-2.019-.975Zm4.65-3.52 1.916 1.07 1.931-2.133-3.847 1.064Zm3.68-4.61 1.828 1.183 1.359-2.557-3.188 1.373Zm-1.703 2.423 1.87 1.124 1.66-2.364-3.53 1.24ZM55.164 81.36l2.29.939 2.843-.498-5.133-.441Zm21.963-18.136-.7 2.89 2.438-1.51-1.738-1.38ZM68.07 78.036l-2.429 1.605 4.395-.587-1.966-1.018Zm8.357-11.924-1.061 2.777 2.822-1.463-1.761-1.314Zm-6.136 10.01-2.22 1.914 4.136-.846-1.916-1.068Zm5.075-7.233L73.97 71.51l3.188-1.373-1.792-1.248Zm-3.098 5.045-1.977 2.188 3.847-1.064-1.87-1.124ZM58.063 80.84l2.234.959 2.741-.894-4.975-.065Zm15.907-9.33-1.702 2.424 3.53-1.24-1.828-1.184Zm1.662-12.772 1.811 1.521-.087-2.992-1.724 1.471ZM58.062 80.84l-2.898.518 5.133.44-2.234-.958Zm2.798-.923 2.178.988 2.603-1.264-4.781.276ZM75.299 61.77l1.828 1.451.316-2.962-2.144 1.51Zm.256-6.09.077 3.058 1.724-1.47-1.801-1.588ZM60.86 79.918l-2.797.923 4.975.065-2.178-.988Zm2.658-1.302 2.123 1.026 2.43-1.605-4.553.58Zm11.056-13.885 1.853 1.382.7-2.89-2.553 1.508Zm-8.572 12.234 2.068 1.072 2.22-1.914-4.288.842Zm7.48-9.388 1.884 1.313 1.06-2.777-2.945 1.464Zm2.15-8.838-.333 3.032 2.144-1.511-1.81-1.52ZM63.518 78.616l-2.658 1.302 4.781-.276-2.123-1.026ZM68.275 75l2.016 1.124 1.977-2.188L68.275 75Zm3.772-4.734 1.923 1.246 1.396-2.62-3.319 1.374Zm-1.746 2.487 1.967 1.183 1.702-2.424-3.669 1.241Zm4.998-10.981-.725 2.96 2.553-1.508-1.828-1.452Zm-9.297 15.194-2.484 1.651 4.552-.58-2.068-1.07Z" fill="#C7CDDC"/><path d="m58.063 80.841 2.796-.923 2.66-1.302-5.456 2.225Zm16.509-16.11-1.093 2.846 2.945-1.464-1.852-1.382ZM68.272 75 66 76.965l4.289-.842-2.016-1.124Zm5.207-7.422-1.434 2.688 3.319-1.375-1.885-1.313Zm-3.18 5.175L68.273 75l3.993-1.064-1.967-1.183Zm1.746-2.487-1.746 2.487 3.67-1.24-1.924-1.247Z" fill="#C7CDDC"/><path d="m74.571 64.731.725-2.96.334-3.032-1.059 5.992Zm-2.527 5.534 2.527-5.534 1.059-5.992-3.586 11.526Zm-8.528 8.351 2.483-1.65 2.273-1.967-4.756 3.617Zm0 0L68.272 75l3.772-4.734-8.528 8.351Zm8.528-8.351 1.434-2.688 1.093-2.846-2.527 5.534Zm-3.772 4.734 2.026-2.247 1.746-2.487-3.772 4.734Z" fill="#C7CDDC"/></mask><g mask="url(#a)"><ellipse cx="37.189" cy="92.936" rx="42.989" ry="14.361" transform="rotate(-6.031 37.19 92.936)" fill="url(#b)" fill-opacity=".5"/><ellipse cx="84.859" cy="29.496" rx="14.55" ry="65.806" fill="url(#c)"/></g><path d="M2.75 30.733c.872-7.45 5.618-14.545 12.666-17.11L48.748 2.355c13.094-4.767 23.483.312 23.214 14.244L75.6 58.265c-.183 9.481-8.058 21.029-17.397 22.677l-39.15 4.439C5.967 87.69-1.34 79.069.204 65.87L2.75 30.732Z" fill="url(#d)"/><path d="m47.733 8.291.009-.003.009-.003c5.6-2.046 10.474-1.923 13.877.04 3.362 1.94 5.492 5.799 5.378 11.71l-.001.042.004.042 3.178 36.53c-.087 3.958-1.775 8.4-4.452 12.039-2.685 3.648-6.283 6.378-10.095 7.062l-34.224 3.893-.025.003-.024.004c-5.528.979-9.695-.373-12.332-3.219-2.657-2.866-3.9-7.397-3.241-13.042l.002-.017.001-.018 2.226-30.823c.74-6.293 4.734-12.22 10.56-14.352l29.15-9.888Z" fill="url(#e)" fill-opacity=".28" stroke="url(#f)" stroke-width="1.569"/><mask id="i" style="mask-type:alpha" maskUnits="userSpaceOnUse" x="0" y="0" width="76" height="86"><path d="M2.75 30.733c.872-7.45 5.618-14.545 12.666-17.11L48.748 2.355c13.094-4.767 23.483.312 23.214 14.244L75.6 58.265c-.183 9.481-8.058 21.029-17.397 22.677l-39.15 4.439C5.967 87.69-1.34 79.069.204 65.87L2.75 30.732Z" fill="url(#g)"/></mask><g filter="url(#h)" mask="url(#i)"><path d="M22.026 18.572 20.1 19.747l-.095 2.515 2.02-3.69Zm0 0-2.021 3.69-.102 2.688 2.123-6.378Zm3.934-2.023-1.98.956-1.954 1.067 3.934-2.023Zm-3.934 2.023-2.123 6.378-.107 2.835 2.23-9.213Zm7.96-3.597-4.026 1.574-3.934 2.023 7.96-3.597Zm-7.96 3.597-2.23 9.213-.112 2.955 2.341-12.168Z" fill="#F7E066"/><path d="m25.2 57.945 3.068 1.437 1.955-1.054-5.024-.383Z" fill="#DEC95B"/><path d="m29.983 14.975-2.023.73-2.003.844 4.026-1.574Z" fill="#F7E066"/><path d="m27.176 56.871 3.046 1.457 1.987-.938-5.033-.519Z" fill="#DEC95B"/><path d="M22.024 18.572 19.682 30.74l-.116 3.044 2.458-15.212Z" fill="#F7E066"/><path d="m29.188 55.914 3.024 1.476 2.015-.822-5.04-.654Z" fill="#DEC95B"/><path d="m22.024 18.572-2.457 15.212-.118 3.103 2.575-18.315Z" fill="#F7E066"/><path d="m27.177 56.871-1.978 1.074 5.024.383-3.046-1.457Z" fill="#DEC95B"/><path d="m38.208 13.235-8.224 1.74-7.96 3.597 16.184-5.337Zm-4.132.63-2.053.496-2.04.614 4.093-1.11Z" fill="#F7E066"/><path d="m29.184 55.914-2.008.957 5.033.52-3.025-1.477Z" fill="#DEC95B"/><path d="M22.026 18.572 19.45 36.887l-.119 3.132 2.694-21.447Z" fill="#F7E066"/><path d="m31.223 55.075 3.002 1.494 2.04-.704-5.042-.79Z" fill="#DEC95B"/><path d="M22.023 18.572 19.329 40.02l-.118 3.128 2.812-24.575Z" fill="#F7E066"/><path d="m31.224 55.075-2.037.839 5.04.654-3.003-1.493Zm2.062-.72 2.98 1.51 2.062-.585-5.042-.925Z" fill="#DEC95B"/><path d="m38.208 13.235-4.132.63-4.093 1.11 8.225-1.74Zm-16.185 5.337L19.21 43.148l-.117 3.09 2.929-27.666Z" fill="#F7E066"/><path d="m33.282 54.355-2.062.72 5.042.79-2.98-1.51Zm-11.25 2.108 3.165 1.482 1.978-1.074-5.144-.408Zm13.333-2.708 2.959 1.525 2.08-.463-5.039-1.062ZM50.018 17.53l.254 35.6 2.419-33.554-2.673-2.046Z" fill="#DEC95B"/><path d="m38.209 13.235-2.07.254-2.062.375 4.132-.629ZM19.095 46.238l-.114 3.019 3.043-30.685-2.93 27.666Z" fill="#F7E066"/><path d="m24.031 55.368 3.144 1.504 2.008-.958-5.152-.546Zm11.334-1.612-2.084.599 5.043.926-2.959-1.525Zm2.102-.476 2.937 1.538 2.096-.34-5.033-1.198Zm-11.405 1.11 3.121 1.523 2.037-.839-5.158-.684Zm-2.03.977-2 1.096 5.143.408-3.144-1.504Zm13.435-2.088-2.102.476 5.04 1.062-2.938-1.538Zm2.118-.351 2.915 1.55 2.107-.215-5.022-1.335ZM26.062 54.39l-2.03.977 5.151.546-3.12-1.523Zm2.06-.857 3.098 1.541 2.062-.72-5.16-.821Z" fill="#DEC95B"/><path d="M42.35 13.108h-2.071l-2.072.127 4.143-.127Z" fill="#F7E066"/><path d="m39.589 52.928-2.118.351 5.033 1.199-2.915-1.55Zm-11.463.605-2.06.858 5.158.684-3.099-1.542Zm2.083-.737 3.077 1.559 2.083-.6-5.16-.959Zm11.509-.092 2.894 1.56 2.115-.087-5.01-1.473Zm8.558.426 2.81 1.581-.391-35.136-2.42 33.555Z" fill="#DEC95B"/><path d="m18.98 49.257 14.487.42-11.443-31.105-3.044 30.685Z" fill="#F7E066"/><path d="m41.716 52.704-2.13.224 5.024 1.336-2.894-1.56Zm-11.508.092-2.084.737 5.16.822-3.076-1.559Zm-11.442 2.137 3.268 1.53 2-1.095-5.268-.435Z" fill="#DEC95B"/><path d="m40.004 49.341-1.796-36.106-16.185 5.337 17.981 30.77Z" fill="#F7E066"/><path d="m32.313 52.182 3.054 1.574 2.102-.477-5.156-1.097Zm14.95-36.763.107 36.077 2.65-33.967-2.757-2.11Zm-3.41 37.19 2.872 1.568 2.12.044-4.992-1.611Zm-23.064 1.207 3.244 1.552 2.031-.977-5.275-.575Zm11.524-1.634-2.105.614 5.16.96-3.055-1.574Zm11.54.428-2.137.094 5.01 1.473-2.873-1.567Zm-9.415-.918 3.031 1.587 2.118-.35-5.15-1.237Zm11.556.955 2.852 1.575 2.12.177-4.972-1.752Zm-23.151.172 3.221 1.572 2.06-.858-5.281-.715Zm-2.054.997-2.023 1.117 5.268.435-3.245-1.552Zm13.649-2.124-2.125.49 5.156 1.097-3.031-1.587Zm11.556.955-2.141-.037 4.993 1.611-2.852-1.574Zm-9.417-1.319 3.01 1.6 2.129-.224-5.14-1.376Zm-13.734 1.49-2.054.998 5.275.575-3.221-1.572Z" fill="#DEC95B"/><path d="m18.87 52.168-.104 2.766 2.023-1.117-1.919-1.649Z" fill="#F7E066"/><path d="m24.926 51.942 3.199 1.592 2.084-.737-5.283-.855Zm23.211.878 2.83 1.58 2.118.312-4.948-1.892Zm-11.559-1.49-2.14.363 5.15 1.236-3.01-1.6Z" fill="#DEC95B"/><path d="m18.871 52.168 1.918 1.648 2.054-.997-3.972-.651Zm14.597-2.492 2.173-.246-13.616-30.858 11.443 31.104Z" fill="#F7E066"/><path d="m24.926 51.942-2.082.876 5.28.715-3.198-1.591Zm23.21.878-2.14-.173 4.972 1.752-2.831-1.58Zm-21.104-1.633 3.177 1.61 2.106-.615-5.283-.995Zm11.697-.093 2.988 1.61 2.137-.094-5.125-1.516Zm8.642.402 2.904 1.634-.254-35.6-2.65 33.966Z" fill="#DEC95B"/><path d="m52.577 9.502-2.168.982-2.134 1.096 4.302-2.078ZM18.87 52.167l3.972.652 2.082-.877-6.054.225Zm.11-2.91-.11 2.91 14.597-2.491-14.487-.42Zm23.209.246.162-36.395-4.142.127 3.98 36.268Zm-6.55-.073 2.181-.112-15.796-30.746L35.64 49.43Z" fill="#F7E066"/><path d="m78.184 13.555 2.367 2.223-.14-2.614-2.227.391ZM38.73 51.095l-2.15.234 5.138 1.376-2.988-1.61Z" fill="#DEC95B"/><path d="m18.871 52.168 6.054-.226 2.107-.755-8.16.98Z" fill="#F7E066"/><path d="m27.032 51.187-2.106.755 5.283.854-3.177-1.609Zm2.129-.63 3.154 1.625 2.124-.49-5.278-1.135Z" fill="#DEC95B"/><path d="m57.003 7.888-4.428 1.614-4.302 2.078 8.73-3.692Z" fill="#F7E066"/><path d="m44.418 13.241-.049 36.566 2.895-34.388-2.846-2.178Zm-3.531 37.75 2.966 1.619 2.142.037-5.108-1.656Zm9.387 2.14-2.138-.311 4.948 1.892-2.81-1.582Z" fill="#DEC95B"/><path d="m37.821 49.318 2.184.023-17.98-30.769L37.82 49.318Zm-18.95 2.85 8.16-.98 2.13-.631-10.29 1.61Z" fill="#F7E066"/><path d="m52.094 52.802 2.79 1.592 2.13-1.072-4.92-.52Z" fill="#DEC95B"/><path d="m42.188 49.502 2.228-36.261-2.066-.133-.163 36.394Z" fill="#F7E066"/><path d="m78.05 10.907.133 2.648 2.227-.39-2.36-2.258Zm.274 5.481 2.375 2.187-.15-2.797-2.225.61ZM29.16 50.557l-2.129.63 5.282.995-3.154-1.625Zm11.726.434-2.158.103 5.125 1.516-2.967-1.62Z" fill="#DEC95B"/><path d="m57.002 7.888-2.228.748-2.2.866 4.428-1.614Z" fill="#F7E066"/><path d="m31.305 50.053 3.131 1.64 2.14-.364-5.271-1.276Z" fill="#DEC95B"/><path d="m18.871 52.168 10.29-1.61 2.146-.505-12.436 2.115Z" fill="#F7E066"/><path d="m54.25 51.706 2.763 1.615 2.171-.953-4.934-.662Zm-11.2-.685 2.945 1.626 2.141.172-5.087-1.798Zm35.134-37.466.141 2.833 2.225-.61-2.366-2.223ZM31.307 50.052l-2.147.504 5.278 1.136-3.131-1.64Z" fill="#DEC95B"/><path d="m18.871 52.167 12.436-2.115 2.161-.376-14.597 2.491Z" fill="#F7E066"/><path d="m43.05 51.021-2.163-.03 5.108 1.656-2.945-1.626Zm13.399-.288 2.736 1.636 2.208-.832-4.944-.804Zm-2.198.974L52.093 52.8l4.92.52-2.762-1.614Zm-20.782-2.031 3.11 1.652 2.15-.234-5.26-1.418Z" fill="#DEC95B"/><path d="m66.13 6.122-9.125 1.766-8.73 3.692L66.13 6.122ZM48.275 11.58l-2.095 1.21.049 36.666 2.046-37.875Z" fill="#F7E066"/><path d="m45.21 51.188 2.924 1.631 2.138.31-5.062-1.94Zm-11.744-1.512-2.161.376 5.27 1.276-3.109-1.652Zm44.857-33.288.15 2.989 2.224-.803-2.374-2.186ZM56.446 50.733l-2.198.974 4.934.662-2.736-1.636Zm2.236-.85 2.709 1.654 2.242-.708-4.952-.947Z" fill="#DEC95B"/><path d="m61.531 6.755-2.274.505-2.253.628 4.527-1.133Z" fill="#F7E066"/><path d="m78.63 22.494 2.39 2.106-.163-3.075-2.228.969ZM45.211 51.188l-2.163-.167 5.087 1.799-2.924-1.632ZM35.64 49.43l3.087 1.664 2.158-.104-5.245-1.56Zm8.728.376 3.002 1.69-.108-36.077-2.894 34.387Z" fill="#DEC95B"/><path d="m40.003 49.341 2.184.162-3.98-36.268 1.796 36.106Z" fill="#F7E066"/><path d="m58.684 49.883-2.235.85 4.944.805-2.709-1.655ZM75.74 11.258l2.445 2.297-.132-2.648-2.313.351ZM60.954 49.157l2.681 1.672 2.273-.584-4.954-1.088Zm-25.313.274-2.172.245 5.26 1.418-3.087-1.663Zm42.834-30.053.155 3.116 2.227-.969-2.382-2.147Z" fill="#DEC95B"/><path d="m66.13 6.122-4.599.633-4.527 1.133 9.125-1.766Z" fill="#F7E066"/><path d="m78.79 25.707 2.4 2.064-.17-3.17-2.23 1.106Zm-40.97 23.61 3.066 1.674 2.162.03-5.228-1.703Zm9.55 2.179-2.16-.307 5.063 1.941-2.903-1.634Zm1.838-.34 2.883 1.645 2.158-1.094-5.04-.55Zm11.744-2-2.27.727 4.952.946-2.682-1.673Zm14.66-40.58.125 2.682 2.313-.351-2.438-2.332Zm.258 5.552 2.454 2.26-.142-2.833-2.312.573ZM63.253 48.556l2.654 1.689 2.3-.458-4.954-1.231Zm-25.432.762-2.18.112 5.245 1.56-3.065-1.672Z" fill="#DEC95B"/><path d="m66.13 6.122-2.307.252-2.292.38 4.598-.632Z" fill="#F7E066"/><path d="m78.628 22.494.16 3.213 2.231-1.106-2.39-2.107Zm.324 6.491 2.409 2.02-.173-3.234-2.236 1.214ZM51.392 50.04l2.856 1.668 2.199-.973-5.054-.695Zm11.86-1.483-2.3.6 4.954 1.09-2.654-1.69Zm-23.248.785 3.044 1.68 2.163.168-5.207-1.848Z" fill="#DEC95B"/><path d="m42.188 49.503 2.18.303.048-36.565-2.228 36.262ZM73.332 11.79l-7.204-5.669-17.855 5.458 25.059.211Z" fill="#F7E066"/><path d="m75.737 11.258.133 2.87 2.313-.573-2.446-2.297ZM65.58 48.084l2.627 1.703 2.323-.328-4.95-1.375Zm10.43-30.927 2.463 2.22-.149-2.99-2.314.77ZM40.004 49.341l-2.184-.023 5.228 1.703-3.044-1.68Zm13.615-.298 2.828 1.69 2.236-.85-5.064-.84Zm-2.225.995-2.185 1.118 5.04.55-2.855-1.668Zm27.395-24.331.164 3.278 2.236-1.214-2.4-2.064Zm.329 6.588 2.418 1.975-.175-3.266-2.243 1.29ZM65.58 48.084l-2.328.472 4.955 1.231-2.627-1.703Zm-23.391 1.419 3.022 1.686 2.159.307-5.181-1.993ZM75.87 14.128l.14 3.03 2.314-.77-2.454-2.26Zm-7.939 33.614 2.599 1.717 2.343-.198-4.942-1.519Zm-14.312 1.301-2.225.995 5.053.696-2.828-1.69Zm2.263-.87 2.8 1.71 2.27-.727-5.07-.984Zm20.275-27.857 2.472 2.178-.156-3.117-2.316.939Z" fill="#DEC95B"/><path d="m48.273 11.58-2.046 37.875 2.213-1.142-.167-36.733Z" fill="#F7E066"/><path d="m42.188 49.503-2.184-.162 5.207 1.848-3.023-1.686Z" fill="#DEC95B"/><path d="m70.768 6.014-2.323-.013-2.316.121 4.639-.108Z" fill="#F7E066"/><path d="m78.955 28.984.165 3.31 2.243-1.29-2.408-2.02ZM67.933 47.742l-2.351.342 4.95 1.375-2.6-1.717Zm11.352-12.14 2.426 1.93-.174-3.263-2.252 1.334Zm-23.4 12.57-2.264.871 5.063.84-2.8-1.71Z" fill="#DEC95B"/><path d="m48.273 11.58.167 36.733 2.254-1.018-2.42-35.715Z" fill="#F7E066"/><path d="m73.209 8.883 2.528 2.375-.124-2.683-2.404.308Zm-15.03 38.544 2.773 1.73 2.3-.601-5.072-1.129Zm12.123.107 2.571 1.727 2.36-.063-4.931-1.664Zm5.708-30.377.147 3.159 2.316-.939-2.463-2.22Zm.298 6.416 2.481 2.134-.16-3.213-2.321 1.079Z" fill="#DEC95B"/><path d="m48.273 11.58 2.42 35.715 2.292-.892-4.712-34.823Z" fill="#F7E066"/><path d="m44.367 49.807-2.18-.304 5.182 1.993-3.002-1.69Z" fill="#DEC95B"/><path d="m73.208 8.883-2.44-2.87-4.64.109 7.08 2.76Z" fill="#F7E066"/><path d="m70.3 47.534-2.37.209 4.942 1.518-2.571-1.727Zm-24.073 1.921 2.98 1.701 2.185-1.117-5.165-.584Zm32.89-17.16.165 3.308 2.252-1.333-2.417-1.975ZM58.178 47.427l-2.297.745 5.07.985-2.773-1.73Zm21.267-8.553 2.435 1.883-.172-3.225-2.263 1.342ZM73.091 6.165l.116 2.718 2.404-.308-2.52-2.41Zm.24 5.627 2.538 2.336-.133-2.87-2.405.534ZM60.507 46.81l2.744 1.746 2.327-.472-5.071-1.274Z" fill="#DEC95B"/><path d="m48.273 11.58 4.712 34.823 2.326-.764-7.038-34.059Z" fill="#F7E066"/><path d="m72.69 47.46 2.543 1.737 2.371.073-4.914-1.81Zm3.468-27.145.15 3.257 2.321-1.079-2.472-2.178Zm.305 6.58 2.49 2.09-.163-3.279-2.327 1.19ZM48.44 48.313l2.953 1.725 2.226-.995-5.179-.73Zm12.07-1.503-2.329.617 5.073 1.129-2.744-1.746Z" fill="#DEC95B"/><path d="m48.273 11.58 7.038 34.059 2.357-.636-9.395-33.423ZM74.03 28.138l-.697-16.347-25.059-.21L74.03 28.137Zm-.697-16.347-.124-2.908-7.08-2.76 7.204 5.668Z" fill="#F7E066"/><path d="m72.688 47.46-2.387.074 4.93 1.664-2.543-1.737Z" fill="#DEC95B"/><path d="m73.21 8.883-.116-2.718-2.325-.151 2.441 2.869Z" fill="#F7E066"/><path d="m79.282 35.603.163 3.27 2.263-1.34-2.426-1.93Zm-6.075-26.72.124 2.908 2.405-.533-2.529-2.375Zm-10.345 37.44 2.716 1.76 2.352-.34-5.068-1.42Zm16.743-4.253 2.443 1.839-.168-3.152-2.275 1.313Zm-6.143-27.209 2.547 2.296-.14-3.029-2.407.733ZM50.693 47.295l2.925 1.748 2.263-.87-5.188-.878Zm-2.253 1.018-2.213 1.142 5.165.583-2.953-1.725Z" fill="#DEC95B"/><path d="m48.273 11.58 9.395 33.424 2.384-.504-11.779-32.92Z" fill="#F7E066"/><path d="m75.089 47.527 2.515 1.744 2.38.213-4.895-1.957Zm1.22-23.954.154 3.323 2.327-1.189-2.482-2.134Zm.31 6.68 2.5 2.042-.166-3.31-2.335 1.268Zm-13.755 16.07-2.355.487 5.071 1.274-2.716-1.761Zm12.225 1.204-2.4-.066 4.915 1.81-2.515-1.744Zm4.358-8.653.16 3.197 2.275-1.313-2.435-1.884Zm-6.114-27.082.131 3.07 2.407-.733-2.538-2.337Zm-8.09 34.176 2.689 1.775 2.37-.209-5.058-1.566Zm-14.548 1.328-2.254 1.018 5.179.73-2.925-1.748Z" fill="#DEC95B"/><path d="m48.273 11.58 11.78 32.92 2.408-.37-14.188-32.55Z" fill="#F7E066"/><path d="m79.762 45.154 2.452 1.795-.162-3.04-2.29 1.245Zm-26.774 1.25 2.896 1.768 2.298-.745-5.194-1.024Zm20.614-28.341 2.557 2.253-.146-3.159-2.41.906Zm2.862 8.833.156 3.356 2.335-1.267-2.49-2.09Zm1.034 20.838 2.487 1.75 2.383.355-4.87-2.105Zm-12.253-1.767-2.38.355 5.068 1.42-2.688-1.775Zm11.53-12.36 2.51 1.996-.165-3.308-2.345 1.312Z" fill="#DEC95B"/><path d="m62.46 44.13 2.429-.233L48.273 11.58l14.188 32.55Z" fill="#F7E066"/><path d="m52.987 46.403-2.292.892 5.188.877-2.896-1.769Z" fill="#DEC95B"/><path d="m64.889 43.898 9.14-15.76L48.273 11.58 64.89 43.898Z" fill="#F7E066"/><path d="m55.314 45.639 2.868 1.788 2.328-.617-5.196-1.172Zm24.294-3.569.154 3.084 2.29-1.245-2.444-1.839Zm.3 6.016 2.46 1.753-.154-2.89-2.306 1.137Zm-12.264-2.34 2.66 1.788 2.387-.073-5.047-1.714Zm5.822-30.885.136 3.202 2.41-.906-2.546-2.296Zm4.032 32.873-2.407-.208 4.894 1.957-2.487-1.749Zm-3.755-26.37 2.567 2.208-.15-3.256-2.417 1.049Zm-6.099 24.383-2.399.22 5.06 1.567-2.66-1.787Zm8.976-15.495.155 3.355 2.345-1.312-2.5-2.043ZM55.314 45.64l-2.326.764 5.194 1.024-2.868-1.788Zm21.615-8.714 2.52 1.949-.164-3.271-2.356 1.322Zm-19.258 8.078 2.84 1.807 2.355-.488-5.195-1.319Zm22.091.151.146 2.932 2.306-1.137-2.452-1.795Zm-9.702.51 2.631 1.797 2.4.066-5.03-1.863Zm3.542-27.601.141 3.302 2.416-1.05-2.557-2.252Zm6.306 30.023-2.41-.352 4.87 2.105-2.46-1.753Zm-6.021-23.352 2.577 2.162-.154-3.324-2.423 1.162Zm-16.216 20.27-2.357.635 5.196 1.17-2.839-1.806Zm12.39.66-2.417.083 5.047 1.714-2.63-1.797Zm6.714-12.057.154 3.318 2.356-1.322-2.51-1.996ZM60.055 44.5l2.81 1.822 2.38-.355-5.19-1.467Zm17.024-4.333 2.53 1.903-.16-3.197-2.37 1.294Zm-4.591 5.555 2.603 1.804 2.407.208-5.01-2.012Zm1.255-24.357.144 3.37 2.423-1.163-2.567-2.207Zm.29 6.773 2.587 2.114-.156-3.356-2.432 1.242ZM60.054 44.5l-2.384.503 5.195 1.32-2.81-1.823Zm12.433 1.222-2.428-.058 5.03 1.862-2.602-1.804Z" fill="#DEC95B"/><path d="m74.031 28.138-.43-10.075-.136-3.202.566 13.277Z" fill="#F7E066"/><path d="m76.928 36.925.15 3.242 2.37-1.293-2.52-1.95ZM62.463 44.13l2.781 1.837 2.4-.22-5.181-1.617Zm14.76-.833 2.538 1.857-.154-3.084-2.383 1.227Zm-3.337-18.563.146 3.404 2.431-1.242-2.577-2.162Zm1.037 21.19 2.574 1.81 2.41.352-4.984-2.162Zm-12.46-1.794-2.408.37 5.19 1.467-2.782-1.837Z" fill="#DEC95B"/><path d="m74.031 28.139-.288-6.774-.141-3.301.43 10.075Z" fill="#F7E066"/><path d="m74.175 31.542 2.598 2.065-.156-3.355-2.442 1.29Zm2.902 8.626.145 3.13 2.383-1.228-2.528-1.902Zm.283 6.105 2.546 1.814-.147-2.933-2.4 1.119Zm-12.47-2.375 2.752 1.85 2.415-.084-5.168-1.766Zm10.03 2.026-2.435-.202 5.01 2.012-2.574-1.81Zm-10.03-2.026-2.43.232 5.182 1.617-2.753-1.85Zm9.14-15.76.145 3.404 2.442-1.29-2.587-2.113Zm.288 6.77 2.609 2.017-.154-3.318-2.455 1.3Zm2.904 8.39.138 2.975 2.4-1.119-2.538-1.857Zm-9.888.506 2.723 1.86 2.428.058-5.151-1.918Zm10.026 2.469-2.44-.35 4.986 2.164-2.546-1.814Zm-10.026-2.469-2.445.094 5.168 1.766-2.723-1.86Zm6.84-12.262.144 3.365 2.455-1.3-2.598-2.065Zm.285 6.656 2.618 1.97-.15-3.243-2.468 1.273Zm-4.669 5.656 2.695 1.868 2.436.202-5.13-2.07Z" fill="#DEC95B"/><path d="m64.89 43.898 2.445-.094 6.696-15.665-9.14 15.759Z" fill="#F7E066"/><path d="m69.793 43.853-2.457-.049 5.151 1.918-2.694-1.869Zm4.528-8.946.14 3.29 2.468-1.272-2.608-2.018Zm.276 6.466 2.627 1.924-.145-3.13-2.482 1.206Z" fill="#DEC95B"/><path d="m67.336 43.804 2.457.05 4.239-15.715-6.696 15.665Z" fill="#F7E066"/><path d="m72.254 44.049 2.666 1.874 2.439.35-5.105-2.224Z" fill="#DEC95B"/><path d="m74.596 41.374-.276-6.467-.289-6.768.565 13.235Z" fill="#F7E066"/><path d="m74.461 38.198.136 3.176 2.482-1.206-2.618-1.97Zm.265 6.196 2.636 1.88-.137-2.977-2.5 1.097Zm-2.468-.344-2.465-.196 5.13 2.07-2.665-1.874Z" fill="#DEC95B"/><path d="m69.793 43.854 4.804-2.48-.565-13.235-4.239 15.715Z" fill="#F7E066"/><path d="m74.593 41.374.13 3.02 2.498-1.097-2.628-1.923Zm.13 3.02-2.47-.344 5.106 2.223-2.637-1.879Z" fill="#DEC95B"/><path d="m69.793 43.854 2.465.196 2.339-2.676-4.804 2.48Zm2.465.196 2.468.345-.13-3.021-2.338 2.676Z" fill="#F7E066"/></g><path d="M22.026 18.572 20.1 19.747l-.095 2.515 2.02-3.69Zm0 0-2.021 3.69-.102 2.688 2.123-6.378Zm3.934-2.023-1.98.956-1.954 1.067 3.934-2.023Zm-3.934 2.023-2.123 6.378-.107 2.835 2.23-9.213Zm7.96-3.597-4.026 1.574-3.934 2.023 7.96-3.597Zm-7.96 3.597-2.23 9.213-.112 2.955 2.341-12.168Z" fill="#F7E066"/><path d="m25.2 57.945 3.068 1.437 1.955-1.054-5.024-.383Z" fill="#DEC95B"/><path d="m29.983 14.975-2.023.73-2.003.844 4.026-1.574Z" fill="#F7E066"/><path d="m27.176 56.871 3.046 1.457 1.987-.938-5.033-.519Z" fill="#DEC95B"/><path d="M22.024 18.572 19.682 30.74l-.116 3.044 2.458-15.212Z" fill="#F7E066"/><path d="m29.188 55.914 3.024 1.476 2.015-.822-5.04-.654Z" fill="#DEC95B"/><path d="m22.024 18.572-2.457 15.212-.118 3.103 2.575-18.315Z" fill="#F7E066"/><path d="m27.177 56.871-1.978 1.074 5.024.383-3.046-1.457Z" fill="#DEC95B"/><path d="m38.208 13.235-8.224 1.74-7.96 3.597 16.184-5.337Zm-4.132.63-2.053.496-2.04.614 4.093-1.11Z" fill="#F7E066"/><path d="m29.184 55.914-2.008.957 5.033.52-3.025-1.477Z" fill="#DEC95B"/><path d="M22.026 18.572 19.45 36.887l-.119 3.132 2.694-21.447Z" fill="#F7E066"/><path d="m31.223 55.075 3.002 1.494 2.04-.704-5.042-.79Z" fill="#DEC95B"/><path d="M22.023 18.572 19.329 40.02l-.118 3.128 2.812-24.575Z" fill="#F7E066"/><path d="m31.224 55.075-2.037.839 5.04.654-3.003-1.493Zm2.062-.72 2.98 1.51 2.062-.585-5.042-.925Z" fill="#DEC95B"/><path d="m38.208 13.235-4.132.63-4.093 1.11 8.225-1.74Zm-16.185 5.337L19.21 43.148l-.117 3.09 2.929-27.666Z" fill="#F7E066"/><path d="m33.282 54.355-2.062.72 5.042.79-2.98-1.51Zm-11.25 2.108 3.165 1.482 1.978-1.074-5.144-.408Zm13.333-2.708 2.959 1.525 2.08-.463-5.039-1.062ZM50.018 17.53l.254 35.6 2.419-33.554-2.673-2.046Z" fill="#DEC95B"/><path d="m38.209 13.235-2.07.254-2.062.375 4.132-.629ZM19.095 46.238l-.114 3.019 3.043-30.685-2.93 27.666Z" fill="#F7E066"/><path d="m24.031 55.368 3.144 1.504 2.008-.958-5.152-.546Zm11.334-1.612-2.084.599 5.043.926-2.959-1.525Zm2.102-.476 2.937 1.538 2.096-.34-5.033-1.198Zm-11.405 1.11 3.121 1.523 2.037-.839-5.158-.684Zm-2.03.977-2 1.096 5.143.408-3.144-1.504Zm13.435-2.088-2.102.476 5.04 1.062-2.938-1.538Zm2.118-.351 2.915 1.55 2.107-.215-5.022-1.335ZM26.062 54.39l-2.03.977 5.151.546-3.12-1.523Zm2.06-.857 3.098 1.541 2.062-.72-5.16-.821Z" fill="#DEC95B"/><path d="M42.35 13.108h-2.071l-2.072.127 4.143-.127Z" fill="#F7E066"/><path d="m39.589 52.928-2.118.351 5.033 1.199-2.915-1.55Zm-11.463.605-2.06.858 5.158.684-3.099-1.542Zm2.083-.737 3.077 1.559 2.083-.6-5.16-.959Zm11.509-.092 2.894 1.56 2.115-.087-5.01-1.473Zm8.558.426 2.81 1.581-.391-35.136-2.42 33.555Z" fill="#DEC95B"/><path d="m18.98 49.257 14.487.42-11.443-31.105-3.044 30.685Z" fill="#F7E066"/><path d="m41.716 52.704-2.13.224 5.024 1.336-2.894-1.56Zm-11.508.092-2.084.737 5.16.822-3.076-1.559Zm-11.442 2.137 3.268 1.53 2-1.095-5.268-.435Z" fill="#DEC95B"/><path d="m40.004 49.341-1.796-36.106-16.185 5.337 17.981 30.77Z" fill="#F7E066"/><path d="m32.313 52.182 3.054 1.574 2.102-.477-5.156-1.097Zm14.95-36.763.107 36.077 2.65-33.967-2.757-2.11Zm-3.41 37.19 2.872 1.568 2.12.044-4.992-1.611Zm-23.064 1.207 3.244 1.552 2.031-.977-5.275-.575Zm11.524-1.634-2.105.614 5.16.96-3.055-1.574Zm11.54.428-2.137.094 5.01 1.473-2.873-1.567Zm-9.415-.918 3.031 1.587 2.118-.35-5.15-1.237Zm11.556.955 2.852 1.575 2.12.177-4.972-1.752Zm-23.151.172 3.221 1.572 2.06-.858-5.281-.715Zm-2.054.997-2.023 1.117 5.268.435-3.245-1.552Zm13.649-2.124-2.125.49 5.156 1.097-3.031-1.587Zm11.556.955-2.141-.037 4.993 1.611-2.852-1.574Zm-9.417-1.319 3.01 1.6 2.129-.224-5.14-1.376Zm-13.734 1.49-2.054.998 5.275.575-3.221-1.572Z" fill="#DEC95B"/><path d="m18.87 52.168-.104 2.766 2.023-1.117-1.919-1.649Z" fill="#F7E066"/><path d="m24.926 51.942 3.199 1.592 2.084-.737-5.283-.855Zm23.211.878 2.83 1.58 2.118.312-4.948-1.892Zm-11.559-1.49-2.14.363 5.15 1.236-3.01-1.6Z" fill="#DEC95B"/><path d="m18.871 52.168 1.918 1.648 2.054-.997-3.972-.651Zm14.597-2.492 2.173-.246-13.616-30.858 11.443 31.104Z" fill="#F7E066"/><path d="m24.926 51.942-2.082.876 5.28.715-3.198-1.591Zm23.21.878-2.14-.173 4.972 1.752-2.831-1.58Zm-21.104-1.633 3.177 1.61 2.106-.615-5.283-.995Zm11.697-.093 2.988 1.61 2.137-.094-5.125-1.516Zm8.642.402 2.904 1.634-.254-35.6-2.65 33.966Z" fill="#DEC95B"/><path d="m52.577 9.502-2.168.982-2.134 1.096 4.302-2.078ZM18.87 52.167l3.972.652 2.082-.877-6.054.225Zm.11-2.91-.11 2.91 14.597-2.491-14.487-.42Zm23.209.246.162-36.395-4.142.127 3.98 36.268Zm-6.55-.073 2.181-.112-15.796-30.746L35.64 49.43Z" fill="#F7E066"/><path d="m78.184 13.555 2.367 2.223-.14-2.614-2.227.391ZM38.73 51.095l-2.15.234 5.138 1.376-2.988-1.61Z" fill="#DEC95B"/><path d="m18.871 52.168 6.054-.226 2.107-.755-8.16.98Z" fill="#F7E066"/><path d="m27.032 51.187-2.106.755 5.283.854-3.177-1.609Zm2.129-.63 3.154 1.625 2.124-.49-5.278-1.135Z" fill="#DEC95B"/><path d="m57.003 7.888-4.428 1.614-4.302 2.078 8.73-3.692Z" fill="#F7E066"/><path d="m44.418 13.241-.049 36.566 2.895-34.388-2.846-2.178Zm-3.531 37.75 2.966 1.619 2.142.037-5.108-1.656Zm9.387 2.14-2.138-.311 4.948 1.892-2.81-1.582Z" fill="#DEC95B"/><path d="m37.821 49.318 2.184.023-17.98-30.769L37.82 49.318Zm-18.95 2.85 8.16-.98 2.13-.631-10.29 1.61Z" fill="#F7E066"/><path d="m52.094 52.802 2.79 1.592 2.13-1.072-4.92-.52Z" fill="#DEC95B"/><path d="m42.188 49.502 2.228-36.261-2.066-.133-.163 36.394Z" fill="#F7E066"/><path d="m78.05 10.907.133 2.648 2.227-.39-2.36-2.258Zm.274 5.481 2.375 2.187-.15-2.797-2.225.61ZM29.16 50.557l-2.129.63 5.282.995-3.154-1.625Zm11.726.434-2.158.103 5.125 1.516-2.967-1.62Z" fill="#DEC95B"/><path d="m57.002 7.888-2.228.748-2.2.866 4.428-1.614Z" fill="#F7E066"/><path d="m31.305 50.053 3.131 1.64 2.14-.364-5.271-1.276Z" fill="#DEC95B"/><path d="m18.871 52.168 10.29-1.61 2.146-.505-12.436 2.115Z" fill="#F7E066"/><path d="m54.25 51.706 2.763 1.615 2.171-.953-4.934-.662Zm-11.2-.685 2.945 1.626 2.141.172-5.087-1.798Zm35.134-37.466.141 2.833 2.225-.61-2.366-2.223ZM31.307 50.052l-2.147.504 5.278 1.136-3.131-1.64Z" fill="#DEC95B"/><path d="m18.871 52.167 12.436-2.115 2.161-.376-14.597 2.491Z" fill="#F7E066"/><path d="m78.477 19.378 2.382 2.148-.157-2.95-2.225.802Z" fill="#DEC95B"/><path d="m80.7 18.575.157 2.95.68 12.745-.838-15.695Z" fill="#F7E066"/><path d="m43.05 51.021-2.163-.03 5.108 1.656-2.945-1.626Zm13.399-.288 2.736 1.636 2.208-.832-4.944-.804Zm-2.198.974L52.093 52.8l4.92.52-2.762-1.614Zm-20.782-2.031 3.11 1.652 2.15-.234-5.26-1.418Z" fill="#DEC95B"/><path d="m66.13 6.122-9.125 1.766-8.73 3.692L66.13 6.122ZM48.275 11.58l-2.095 1.21.049 36.666 2.046-37.875Z" fill="#F7E066"/><path d="m45.21 51.188 2.924 1.631 2.138.31-5.062-1.94Zm-11.744-1.512-2.161.376 5.27 1.276-3.109-1.652Zm44.857-33.288.15 2.989 2.224-.803-2.374-2.186ZM56.446 50.733l-2.198.974 4.934.662-2.736-1.636Zm2.236-.85 2.709 1.654 2.242-.708-4.952-.947Z" fill="#DEC95B"/><path d="m61.531 6.755-2.274.505-2.253.628 4.527-1.133Z" fill="#F7E066"/><path d="m78.63 22.494 2.39 2.106-.163-3.075-2.228.969ZM45.211 51.188l-2.163-.167 5.087 1.799-2.924-1.632ZM35.64 49.43l3.087 1.664 2.158-.104-5.245-1.56Zm8.728.376 3.002 1.69-.108-36.077-2.894 34.387Z" fill="#DEC95B"/><path d="m40.003 49.341 2.184.162-3.98-36.268 1.796 36.106Z" fill="#F7E066"/><path d="m58.684 49.883-2.235.85 4.944.805-2.709-1.655ZM75.74 11.258l2.445 2.297-.132-2.648-2.313.351ZM60.954 49.157l2.681 1.672 2.273-.584-4.954-1.088Zm-25.313.274-2.172.245 5.26 1.418-3.087-1.663Zm42.834-30.053.155 3.116 2.227-.969-2.382-2.147Z" fill="#DEC95B"/><path d="m66.13 6.122-4.599.633-4.527 1.133 9.125-1.766Z" fill="#F7E066"/><path d="m78.79 25.707 2.4 2.064-.17-3.17-2.23 1.106Zm-40.97 23.61 3.066 1.674 2.162.03-5.228-1.703Zm9.55 2.179-2.16-.307 5.063 1.941-2.903-1.634Zm1.838-.34 2.883 1.645 2.158-1.094-5.04-.55Zm11.744-2-2.27.727 4.952.946-2.682-1.673Zm14.66-40.58.125 2.682 2.313-.351-2.438-2.332Zm.258 5.552 2.454 2.26-.142-2.833-2.312.573ZM63.253 48.556l2.654 1.689 2.3-.458-4.954-1.231Zm-25.432.762-2.18.112 5.245 1.56-3.065-1.672Z" fill="#DEC95B"/><path d="m66.13 6.122-2.307.252-2.292.38 4.598-.632Z" fill="#F7E066"/><path d="m78.628 22.494.16 3.213 2.231-1.106-2.39-2.107Zm.324 6.491 2.409 2.02-.173-3.234-2.236 1.214ZM51.392 50.04l2.856 1.668 2.199-.973-5.054-.695Zm11.86-1.483-2.3.6 4.954 1.09-2.654-1.69Zm-23.248.785 3.044 1.68 2.163.168-5.207-1.848Z" fill="#DEC95B"/><path d="m42.188 49.503 2.18.303.048-36.565-2.228 36.262ZM73.332 11.79l-7.204-5.669-17.855 5.458 25.059.211Z" fill="#F7E066"/><path d="m75.737 11.258.133 2.87 2.313-.573-2.446-2.297ZM65.58 48.084l2.627 1.703 2.323-.328-4.95-1.375Zm10.43-30.927 2.463 2.22-.149-2.99-2.314.77ZM40.004 49.341l-2.184-.023 5.228 1.703-3.044-1.68Zm13.615-.298 2.828 1.69 2.236-.85-5.064-.84Zm-2.225.995-2.185 1.118 5.04.55-2.855-1.668Zm27.395-24.331.164 3.278 2.236-1.214-2.4-2.064Zm.329 6.588 2.418 1.975-.175-3.266-2.243 1.29ZM65.58 48.084l-2.328.472 4.955 1.231-2.627-1.703Zm-23.391 1.419 3.022 1.686 2.159.307-5.181-1.993ZM75.87 14.128l.14 3.03 2.314-.77-2.454-2.26Zm-7.939 33.614 2.599 1.717 2.343-.198-4.942-1.519Zm-14.312 1.301-2.225.995 5.053.696-2.828-1.69Zm2.263-.87 2.8 1.71 2.27-.727-5.07-.984Zm20.275-27.857 2.472 2.178-.156-3.117-2.316.939Z" fill="#DEC95B"/><path d="m48.273 11.58-2.046 37.875 2.213-1.142-.167-36.733Z" fill="#F7E066"/><path d="m42.188 49.503-2.184-.162 5.207 1.848-3.023-1.686Z" fill="#DEC95B"/><path d="m70.768 6.014-2.323-.013-2.316.121 4.639-.108Z" fill="#F7E066"/><path d="m78.955 28.984.165 3.31 2.243-1.29-2.408-2.02ZM67.933 47.742l-2.351.342 4.95 1.375-2.6-1.717Zm11.352-12.14 2.426 1.93-.174-3.263-2.252 1.334Zm-23.4 12.57-2.264.871 5.063.84-2.8-1.71Z" fill="#DEC95B"/><path d="m48.273 11.58.167 36.733 2.254-1.018-2.42-35.715Z" fill="#F7E066"/><path d="m73.209 8.883 2.528 2.375-.124-2.683-2.404.308Zm-15.03 38.544 2.773 1.73 2.3-.601-5.072-1.129Zm12.123.107 2.571 1.727 2.36-.063-4.931-1.664Zm5.708-30.377.147 3.159 2.316-.939-2.463-2.22Zm.298 6.416 2.481 2.134-.16-3.213-2.321 1.079Z" fill="#DEC95B"/><path d="m48.273 11.58 2.42 35.715 2.292-.892-4.712-34.823Z" fill="#F7E066"/><path d="m44.367 49.807-2.18-.304 5.182 1.993-3.002-1.69Z" fill="#DEC95B"/><path d="m73.208 8.883-2.44-2.87-4.64.109 7.08 2.76Z" fill="#F7E066"/><path d="m70.3 47.534-2.37.209 4.942 1.518-2.571-1.727Zm-24.073 1.921 2.98 1.701 2.185-1.117-5.165-.584Zm32.89-17.16.165 3.308 2.252-1.333-2.417-1.975ZM58.178 47.427l-2.297.745 5.07.985-2.773-1.73Zm21.267-8.553 2.435 1.883-.172-3.225-2.263 1.342ZM73.091 6.165l.116 2.718 2.404-.308-2.52-2.41Zm.24 5.627 2.538 2.336-.133-2.87-2.405.534ZM60.507 46.81l2.744 1.746 2.327-.472-5.071-1.274Z" fill="#DEC95B"/><path d="m48.273 11.58 4.712 34.823 2.326-.764-7.038-34.059Z" fill="#F7E066"/><path d="m72.69 47.46 2.543 1.737 2.371.073-4.914-1.81Zm3.468-27.145.15 3.257 2.321-1.079-2.472-2.178Zm.305 6.58 2.49 2.09-.163-3.279-2.327 1.19ZM48.44 48.313l2.953 1.725 2.226-.995-5.179-.73Zm12.07-1.503-2.329.617 5.073 1.129-2.744-1.746Z" fill="#DEC95B"/><path d="m48.273 11.58 7.038 34.059 2.357-.636-9.395-33.423ZM74.03 28.138l-.697-16.347-25.059-.21L74.03 28.137Zm-.697-16.347-.124-2.908-7.08-2.76 7.204 5.668Z" fill="#F7E066"/><path d="m72.688 47.46-2.387.074 4.93 1.664-2.543-1.737Z" fill="#DEC95B"/><path d="m73.21 8.883-.116-2.718-2.325-.151 2.441 2.869Z" fill="#F7E066"/><path d="m79.282 35.603.163 3.27 2.263-1.34-2.426-1.93Zm-6.075-26.72.124 2.908 2.405-.533-2.529-2.375Zm-10.345 37.44 2.716 1.76 2.352-.34-5.068-1.42Zm16.743-4.253 2.443 1.839-.168-3.152-2.275 1.313Zm-6.143-27.209 2.547 2.296-.14-3.029-2.407.733ZM50.693 47.295l2.925 1.748 2.263-.87-5.188-.878Zm-2.253 1.018-2.213 1.142 5.165.583-2.953-1.725Z" fill="#DEC95B"/><path d="m48.273 11.58 9.395 33.424 2.384-.504-11.779-32.92Z" fill="#F7E066"/><path d="m75.089 47.527 2.515 1.744 2.38.213-4.895-1.957Zm1.22-23.954.154 3.323 2.327-1.189-2.482-2.134Zm.31 6.68 2.5 2.042-.166-3.31-2.335 1.268Zm-13.755 16.07-2.355.487 5.071 1.274-2.716-1.761Zm12.225 1.204-2.4-.066 4.915 1.81-2.515-1.744Zm4.358-8.653.16 3.197 2.275-1.313-2.435-1.884Zm-6.114-27.082.131 3.07 2.407-.733-2.538-2.337Zm-8.09 34.176 2.689 1.775 2.37-.209-5.058-1.566Zm-14.548 1.328-2.254 1.018 5.179.73-2.925-1.748Z" fill="#DEC95B"/><path d="m48.273 11.58 11.78 32.92 2.408-.37-14.188-32.55Z" fill="#F7E066"/><path d="m79.762 45.154 2.452 1.795-.162-3.04-2.29 1.245Zm-26.774 1.25 2.896 1.768 2.298-.745-5.194-1.024Zm20.614-28.341 2.557 2.253-.146-3.159-2.41.906Zm2.862 8.833.156 3.356 2.335-1.267-2.49-2.09Zm1.034 20.838 2.487 1.75 2.383.355-4.87-2.105Zm-12.253-1.767-2.38.355 5.068 1.42-2.688-1.775Zm11.53-12.36 2.51 1.996-.165-3.308-2.345 1.312Z" fill="#DEC95B"/><path d="m62.46 44.13 2.429-.233L48.273 11.58l14.188 32.55Z" fill="#F7E066"/><path d="m52.987 46.403-2.292.892 5.188.877-2.896-1.769Z" fill="#DEC95B"/><path d="m64.889 43.898 9.14-15.76L48.273 11.58 64.89 43.898Z" fill="#F7E066"/><path d="m55.314 45.639 2.868 1.788 2.328-.617-5.196-1.172Zm24.294-3.569.154 3.084 2.29-1.245-2.444-1.839Zm.3 6.016 2.46 1.753-.154-2.89-2.306 1.137Zm-12.264-2.34 2.66 1.788 2.387-.073-5.047-1.714Zm5.822-30.885.136 3.202 2.41-.906-2.546-2.296Zm4.032 32.873-2.407-.208 4.894 1.957-2.487-1.749Zm-3.755-26.37 2.567 2.208-.15-3.256-2.417 1.049Zm-6.099 24.383-2.399.22 5.06 1.567-2.66-1.787Zm8.976-15.495.155 3.355 2.345-1.312-2.5-2.043ZM55.314 45.64l-2.326.764 5.194 1.024-2.868-1.788Zm21.615-8.714 2.52 1.949-.164-3.271-2.356 1.322Zm-19.258 8.078 2.84 1.807 2.355-.488-5.195-1.319Zm22.091.151.146 2.932 2.306-1.137-2.452-1.795Zm-9.702.51 2.631 1.797 2.4.066-5.03-1.863Zm3.542-27.601.141 3.302 2.416-1.05-2.557-2.252Zm6.306 30.023-2.41-.352 4.87 2.105-2.46-1.753Zm-6.021-23.352 2.577 2.162-.154-3.324-2.423 1.162Zm-16.216 20.27-2.357.635 5.196 1.17-2.839-1.806Zm12.39.66-2.417.083 5.047 1.714-2.63-1.797Zm6.714-12.057.154 3.318 2.356-1.322-2.51-1.996ZM60.055 44.5l2.81 1.822 2.38-.355-5.19-1.467Zm17.024-4.333 2.53 1.903-.16-3.197-2.37 1.294Zm-4.591 5.555 2.603 1.804 2.407.208-5.01-2.012Zm1.255-24.357.144 3.37 2.423-1.163-2.567-2.207Zm.29 6.773 2.587 2.114-.156-3.356-2.432 1.242ZM60.054 44.5l-2.384.503 5.195 1.32-2.81-1.823Zm12.433 1.222-2.428-.058 5.03 1.862-2.602-1.804Z" fill="#DEC95B"/><path d="m74.031 28.138-.43-10.075-.136-3.202.566 13.277Z" fill="#F7E066"/><path d="m76.928 36.925.15 3.242 2.37-1.293-2.52-1.95ZM62.463 44.13l2.781 1.837 2.4-.22-5.181-1.617Zm14.76-.833 2.538 1.857-.154-3.084-2.383 1.227Zm-3.337-18.563.146 3.404 2.431-1.242-2.577-2.162Zm1.037 21.19 2.574 1.81 2.41.352-4.984-2.162Zm-12.46-1.794-2.408.37 5.19 1.467-2.782-1.837Z" fill="#DEC95B"/><path d="m74.031 28.139-.288-6.774-.141-3.301.43 10.075Z" fill="#F7E066"/><path d="m74.175 31.542 2.598 2.065-.156-3.355-2.442 1.29Zm2.902 8.626.145 3.13 2.383-1.228-2.528-1.902Zm.283 6.105 2.546 1.814-.147-2.933-2.4 1.119Zm-12.47-2.375 2.752 1.85 2.415-.084-5.168-1.766Zm10.03 2.026-2.435-.202 5.01 2.012-2.574-1.81Zm-10.03-2.026-2.43.232 5.182 1.617-2.753-1.85Zm9.14-15.76.145 3.404 2.442-1.29-2.587-2.113Zm.288 6.77 2.609 2.017-.154-3.318-2.455 1.3Zm2.904 8.39.138 2.975 2.4-1.119-2.538-1.857Zm-9.888.506 2.723 1.86 2.428.058-5.151-1.918Zm10.026 2.469-2.44-.35 4.986 2.164-2.546-1.814Zm-10.026-2.469-2.445.094 5.168 1.766-2.723-1.86Zm6.84-12.262.144 3.365 2.455-1.3-2.598-2.065Zm.285 6.656 2.618 1.97-.15-3.243-2.468 1.273Zm-4.669 5.656 2.695 1.868 2.436.202-5.13-2.07Z" fill="#DEC95B"/><path d="m64.89 43.898 2.445-.094 6.696-15.665-9.14 15.759Z" fill="#F7E066"/><path d="m69.793 43.853-2.457-.049 5.151 1.918-2.694-1.869Zm4.528-8.946.14 3.29 2.468-1.272-2.608-2.018Zm.276 6.466 2.627 1.924-.145-3.13-2.482 1.206Z" fill="#DEC95B"/><path d="m67.336 43.804 2.457.05 4.239-15.715-6.696 15.665Z" fill="#F7E066"/><path d="m72.254 44.049 2.666 1.874 2.439.35-5.105-2.224Z" fill="#DEC95B"/><path d="m74.596 41.374-.276-6.467-.289-6.768.565 13.235Z" fill="#F7E066"/><path d="m74.461 38.198.136 3.176 2.482-1.206-2.618-1.97Zm.265 6.196 2.636 1.88-.137-2.977-2.5 1.097Zm-2.468-.344-2.465-.196 5.13 2.07-2.665-1.874Z" fill="#DEC95B"/><path d="m69.793 43.854 4.804-2.48-.565-13.235-4.239 15.715Z" fill="#F7E066"/><path d="m74.593 41.374.13 3.02 2.498-1.097-2.628-1.923Zm.13 3.02-2.47-.344 5.106 2.223-2.637-1.879Z" fill="#DEC95B"/><path d="m69.793 43.854 2.465.196 2.339-2.676-4.804 2.48Zm2.465.196 2.468.345-.13-3.021-2.338 2.676Z" fill="#F7E066"/><mask id="j" style="mask-type:alpha" maskUnits="userSpaceOnUse" x="18" y="6" width="65" height="54"><path d="m25.2 57.945 3.068 1.437 1.955-1.054-5.024-.383Z" fill="#DEC95B"/><path d="m27.176 56.871 3.046 1.457 1.987-.938-5.033-.519Zm2.012-.957 3.024 1.476 2.015-.822-5.04-.654Z" fill="#DEC95B"/><path d="m27.177 56.871-1.978 1.074 5.024.383-3.046-1.457Z" fill="#DEC95B"/><path d="m29.184 55.914-2.008.957 5.033.52-3.025-1.477Zm2.039-.839 3.002 1.494 2.04-.704-5.042-.79Z" fill="#DEC95B"/><path d="m31.224 55.075-2.037.839 5.04.654-3.003-1.493Zm2.062-.72 2.98 1.51 2.062-.585-5.042-.925Z" fill="#DEC95B"/><path d="m33.282 54.355-2.062.72 5.042.79-2.98-1.51Zm-11.25 2.108 3.165 1.482 1.978-1.074-5.144-.408Zm13.333-2.708 2.959 1.525 2.08-.463-5.039-1.062ZM50.018 17.53l.254 35.6 2.419-33.554-2.673-2.046Z" fill="#DEC95B"/><path d="m24.031 55.368 3.144 1.504 2.008-.958-5.152-.546Zm11.334-1.612-2.084.599 5.043.926-2.959-1.525Zm2.102-.476 2.937 1.538 2.096-.34-5.033-1.198Zm-11.405 1.11 3.121 1.523 2.037-.839-5.158-.684Zm-2.03.977-2 1.096 5.143.408-3.144-1.504Zm13.435-2.088-2.102.476 5.04 1.062-2.938-1.538Zm2.118-.351 2.915 1.55 2.107-.215-5.022-1.335ZM26.062 54.39l-2.03.977 5.151.546-3.12-1.523Zm2.06-.857 3.098 1.541 2.062-.72-5.16-.821Z" fill="#DEC95B"/><path d="m39.589 52.928-2.118.351 5.033 1.199-2.915-1.55Zm-11.463.605-2.06.858 5.158.684-3.099-1.542Zm2.083-.737 3.077 1.559 2.083-.6-5.16-.959Zm11.509-.092 2.894 1.56 2.115-.087-5.01-1.473Zm8.558.426 2.81 1.581-.391-35.136-2.42 33.555Z" fill="#DEC95B"/><path d="m41.716 52.704-2.13.224 5.024 1.336-2.894-1.56Zm-11.508.092-2.084.737 5.16.822-3.076-1.559Zm-11.442 2.137 3.268 1.53 2-1.095-5.268-.435Z" fill="#DEC95B"/><path d="m32.313 52.182 3.054 1.574 2.102-.477-5.156-1.097Zm14.95-36.763.107 36.077 2.65-33.967-2.757-2.11Zm-3.41 37.19 2.872 1.568 2.12.044-4.992-1.611Zm-23.064 1.207 3.244 1.552 2.031-.977-5.275-.575Zm11.524-1.634-2.105.614 5.16.96-3.055-1.574Zm11.54.428-2.137.094 5.01 1.473-2.873-1.567Zm-9.415-.918 3.031 1.587 2.118-.35-5.15-1.237Zm11.556.955 2.852 1.575 2.12.177-4.972-1.752Zm-23.151.172 3.221 1.572 2.06-.858-5.281-.715Zm-2.054.997-2.023 1.117 5.268.435-3.245-1.552Zm13.649-2.124-2.125.49 5.156 1.097-3.031-1.587Zm11.556.955-2.141-.037 4.993 1.611-2.852-1.574Zm-9.417-1.319 3.01 1.6 2.129-.224-5.14-1.376Zm-13.734 1.49-2.054.998 5.275.575-3.221-1.572Z" fill="#DEC95B"/><path d="m24.926 51.942 3.199 1.592 2.084-.737-5.283-.855Zm23.211.878 2.83 1.58 2.118.312-4.948-1.892Zm-11.559-1.49-2.14.363 5.15 1.236-3.01-1.6Z" fill="#DEC95B"/><path d="m24.926 51.942-2.082.876 5.28.715-3.198-1.591Zm23.21.878-2.14-.173 4.972 1.752-2.831-1.58Zm-21.104-1.633 3.177 1.61 2.106-.615-5.283-.995Zm11.697-.093 2.988 1.61 2.137-.094-5.125-1.516Zm8.642.402 2.904 1.634-.254-35.6-2.65 33.966Zm30.813-37.941 2.367 2.223-.14-2.614-2.227.391ZM38.73 51.095l-2.15.234 5.138 1.376-2.988-1.61Z" fill="#DEC95B"/><path d="m27.032 51.187-2.106.755 5.283.854-3.177-1.609Zm2.129-.63 3.154 1.625 2.124-.49-5.278-1.135Zm15.257-37.316-.049 36.566 2.895-34.388-2.846-2.178Zm-3.531 37.75 2.966 1.619 2.142.037-5.108-1.656Zm9.387 2.14-2.138-.311 4.948 1.892-2.81-1.582Zm1.82-.329 2.79 1.592 2.13-1.072-4.92-.52Z" fill="#DEC95B"/><path d="m78.05 10.907.133 2.648 2.227-.39-2.36-2.258Zm.274 5.481 2.375 2.187-.15-2.797-2.225.61ZM29.16 50.557l-2.129.63 5.282.995-3.154-1.625Zm11.726.434-2.158.103 5.125 1.516-2.967-1.62Zm-9.581-.938 3.131 1.64 2.14-.364-5.271-1.276Z" fill="#DEC95B"/><path d="m54.25 51.708 2.763 1.614 2.171-.953-4.934-.661Zm-11.2-.686 2.945 1.626 2.141.172-5.087-1.798Zm35.134-37.466.141 2.833 2.225-.61-2.366-2.223ZM31.307 50.053l-2.147.504 5.278 1.136-3.131-1.64Zm47.17-30.675 2.382 2.148-.157-2.95-2.225.802Z" fill="#DEC95B"/><path d="m43.05 51.021-2.163-.03 5.108 1.656-2.945-1.626Zm13.399-.288 2.736 1.636 2.208-.832-4.944-.804Zm-2.198.974L52.093 52.8l4.92.52-2.762-1.614Zm-20.782-2.031 3.11 1.652 2.15-.234-5.26-1.418Z" fill="#DEC95B"/><path d="m45.21 51.188 2.924 1.631 2.138.31-5.062-1.94Zm-11.744-1.512-2.161.376 5.27 1.276-3.109-1.652Zm44.857-33.288.15 2.989 2.224-.803-2.374-2.186ZM56.446 50.733l-2.198.974 4.934.662-2.736-1.636Zm2.236-.85 2.709 1.654 2.242-.708-4.952-.947Z" fill="#DEC95B"/><path d="m78.63 22.494 2.39 2.106-.163-3.075-2.228.969ZM45.211 51.188l-2.163-.167 5.087 1.799-2.924-1.632ZM35.64 49.43l3.087 1.664 2.158-.104-5.245-1.56Zm8.728.376 3.002 1.69-.108-36.077-2.894 34.387Z" fill="#DEC95B"/><path d="m58.684 49.883-2.235.85 4.944.805-2.709-1.655ZM75.74 11.258l2.445 2.297-.132-2.648-2.313.351ZM60.954 49.157l2.681 1.672 2.273-.584-4.954-1.088Zm-25.313.274-2.172.245 5.26 1.418-3.087-1.663Zm42.834-30.053.155 3.116 2.227-.969-2.382-2.147Z" fill="#DEC95B"/><path d="m78.79 25.707 2.4 2.064-.17-3.17-2.23 1.106Zm-40.97 23.61 3.066 1.674 2.162.03-5.228-1.703Zm9.55 2.179-2.16-.307 5.063 1.941-2.903-1.634Zm1.838-.34 2.883 1.645 2.158-1.094-5.04-.55Zm11.744-2-2.27.727 4.952.946-2.682-1.673Zm14.66-40.58.125 2.682 2.313-.351-2.438-2.332Zm.258 5.552 2.454 2.26-.142-2.833-2.312.573ZM63.253 48.556l2.654 1.689 2.3-.458-4.954-1.231Zm-25.432.762-2.18.112 5.245 1.56-3.065-1.672Z" fill="#DEC95B"/><path d="m78.628 22.494.16 3.213 2.231-1.106-2.39-2.107Zm.324 6.491 2.409 2.02-.173-3.234-2.236 1.214ZM51.392 50.04l2.856 1.668 2.199-.973-5.054-.695Zm11.86-1.483-2.3.6 4.954 1.09-2.654-1.69Zm-23.248.785 3.044 1.68 2.163.168-5.207-1.848Z" fill="#DEC95B"/><path d="m75.737 11.258.133 2.87 2.313-.573-2.446-2.297ZM65.58 48.084l2.627 1.703 2.323-.328-4.95-1.375Zm10.43-30.927 2.463 2.22-.149-2.99-2.314.77ZM40.004 49.341l-2.184-.023 5.228 1.703-3.044-1.68Zm13.615-.298 2.828 1.69 2.236-.85-5.064-.84Zm-2.225.995-2.185 1.118 5.04.55-2.855-1.668Zm27.395-24.331.164 3.278 2.236-1.214-2.4-2.064Zm.329 6.588 2.418 1.975-.175-3.266-2.243 1.29ZM65.58 48.084l-2.328.472 4.955 1.231-2.627-1.703Zm-23.391 1.419 3.022 1.686 2.159.307-5.181-1.993ZM75.87 14.128l.14 3.03 2.314-.77-2.454-2.26Zm-7.939 33.614 2.599 1.717 2.343-.198-4.942-1.519Zm-14.312 1.301-2.225.995 5.053.696-2.828-1.69Zm2.263-.87 2.8 1.71 2.27-.727-5.07-.984Zm20.275-27.857 2.472 2.178-.156-3.117-2.316.939Z" fill="#DEC95B"/><path d="m42.188 49.503-2.184-.162 5.207 1.848-3.023-1.686Zm36.767-20.519.165 3.31 2.243-1.29-2.408-2.02ZM67.933 47.742l-2.351.342 4.95 1.375-2.6-1.717Zm11.352-12.14 2.426 1.93-.174-3.263-2.252 1.334Zm-23.4 12.57-2.264.871 5.063.84-2.8-1.71ZM73.209 8.883l2.528 2.375-.124-2.683-2.404.308Zm-15.03 38.544 2.773 1.73 2.3-.601-5.072-1.129Zm12.123.107 2.571 1.727 2.36-.063-4.931-1.664Zm5.708-30.377.147 3.159 2.316-.939-2.463-2.22Zm.298 6.416 2.481 2.134-.16-3.213-2.321 1.079Z" fill="#DEC95B"/><path d="m44.367 49.807-2.18-.304 5.182 1.993-3.002-1.69ZM70.3 47.534l-2.37.209 4.942 1.518-2.571-1.727Zm-24.073 1.921 2.98 1.701 2.185-1.117-5.165-.584Zm32.89-17.16.165 3.308 2.252-1.333-2.417-1.975ZM58.178 47.427l-2.297.745 5.07.985-2.773-1.73Zm21.267-8.553 2.435 1.883-.172-3.225-2.263 1.342ZM73.091 6.165l.116 2.718 2.404-.308-2.52-2.41Zm.24 5.627 2.538 2.336-.133-2.87-2.405.534ZM60.507 46.81l2.744 1.746 2.327-.472-5.071-1.274Z" fill="#DEC95B"/><path d="m72.69 47.46 2.543 1.737 2.371.073-4.914-1.81Zm3.468-27.145.15 3.257 2.321-1.079-2.472-2.178Zm.305 6.58 2.49 2.09-.163-3.279-2.327 1.19ZM48.44 48.313l2.953 1.725 2.226-.995-5.179-.73Zm12.07-1.503-2.329.617 5.073 1.129-2.744-1.746Zm12.178.65-2.387.074 4.93 1.664-2.543-1.737Z" fill="#DEC95B"/><path d="m79.282 35.603.163 3.27 2.263-1.34-2.426-1.93Zm-6.075-26.72.124 2.908 2.405-.533-2.529-2.375Zm-10.345 37.44 2.716 1.76 2.352-.34-5.068-1.42Zm16.743-4.253 2.443 1.839-.168-3.152-2.275 1.313Zm-6.143-27.209 2.547 2.296-.14-3.029-2.407.733ZM50.693 47.295l2.925 1.748 2.263-.87-5.188-.878Zm-2.253 1.018-2.213 1.142 5.165.583-2.953-1.725Z" fill="#DEC95B"/><path d="m75.089 47.527 2.515 1.744 2.38.213-4.895-1.957Zm1.22-23.954.154 3.323 2.327-1.189-2.482-2.134Zm.31 6.68 2.5 2.042-.166-3.31-2.335 1.268Zm-13.755 16.07-2.355.487 5.071 1.274-2.716-1.761Zm12.225 1.204-2.4-.066 4.915 1.81-2.515-1.744Zm4.358-8.653.16 3.197 2.275-1.313-2.435-1.884Zm-6.114-27.082.131 3.07 2.407-.733-2.538-2.337Zm-8.09 34.176 2.689 1.775 2.37-.209-5.058-1.566Zm-14.548 1.328-2.254 1.018 5.179.73-2.925-1.748Z" fill="#DEC95B"/><path d="m79.762 45.154 2.452 1.795-.162-3.04-2.29 1.245Zm-26.774 1.25 2.896 1.768 2.298-.745-5.194-1.024Zm20.614-28.341 2.557 2.253-.146-3.159-2.41.906Zm2.862 8.833.156 3.356 2.335-1.267-2.49-2.09Zm1.034 20.838 2.487 1.75 2.383.355-4.87-2.105Zm-12.253-1.767-2.38.355 5.068 1.42-2.688-1.775Zm11.53-12.36 2.51 1.996-.165-3.308-2.345 1.312Z" fill="#DEC95B"/><path d="m52.987 46.403-2.292.892 5.188.877-2.896-1.769Z" fill="#DEC95B"/><path d="m55.314 45.639 2.868 1.788 2.328-.617-5.196-1.172Zm24.294-3.569.154 3.084 2.29-1.245-2.444-1.839Zm.3 6.016 2.46 1.753-.154-2.89-2.306 1.137Zm-12.264-2.34 2.66 1.788 2.387-.073-5.047-1.714Zm5.822-30.885.136 3.202 2.41-.906-2.546-2.296Zm4.032 32.873-2.407-.208 4.894 1.957-2.487-1.749Zm-3.755-26.37 2.567 2.208-.15-3.256-2.417 1.049Zm-6.099 24.383-2.399.22 5.06 1.567-2.66-1.787Zm8.976-15.495.155 3.355 2.345-1.312-2.5-2.043ZM55.314 45.64l-2.326.764 5.194 1.024-2.868-1.788Zm21.615-8.714 2.52 1.949-.164-3.271-2.356 1.322Zm-19.258 8.078 2.84 1.807 2.355-.488-5.195-1.319Zm22.091.151.146 2.932 2.306-1.137-2.452-1.795Zm-9.702.51 2.631 1.797 2.4.066-5.03-1.863Zm3.542-27.601.141 3.302 2.416-1.05-2.557-2.252Zm6.306 30.023-2.41-.352 4.87 2.105-2.46-1.753Zm-6.021-23.352 2.577 2.162-.154-3.324-2.423 1.162Zm-16.216 20.27-2.357.635 5.196 1.17-2.839-1.806Zm12.39.66-2.417.083 5.047 1.714-2.63-1.797Zm6.714-12.057.154 3.318 2.356-1.322-2.51-1.996ZM60.055 44.5l2.81 1.822 2.38-.355-5.19-1.467Zm17.024-4.333 2.53 1.903-.16-3.197-2.37 1.294Zm-4.591 5.555 2.603 1.804 2.407.208-5.01-2.012Zm1.255-24.357.144 3.37 2.423-1.163-2.567-2.207Zm.29 6.773 2.587 2.114-.156-3.356-2.432 1.242ZM60.054 44.5l-2.384.503 5.195 1.32-2.81-1.823Zm12.433 1.222-2.428-.058 5.03 1.862-2.602-1.804Z" fill="#DEC95B"/><path d="m76.928 36.925.15 3.242 2.37-1.293-2.52-1.95ZM62.463 44.13l2.781 1.837 2.4-.22-5.181-1.617Zm14.76-.833 2.538 1.857-.154-3.084-2.383 1.227Zm-3.337-18.563.146 3.404 2.431-1.242-2.577-2.162Zm1.037 21.19 2.574 1.81 2.41.352-4.984-2.162Zm-12.46-1.794-2.408.37 5.19 1.467-2.782-1.837Z" fill="#DEC95B"/><path d="m74.175 31.542 2.598 2.065-.156-3.355-2.442 1.29Zm2.902 8.626.145 3.13 2.383-1.228-2.528-1.902Zm.283 6.105 2.546 1.814-.147-2.933-2.4 1.119Zm-12.47-2.375 2.752 1.85 2.415-.084-5.168-1.766Zm10.03 2.026-2.435-.202 5.01 2.012-2.574-1.81Zm-10.03-2.026-2.43.232 5.182 1.617-2.753-1.85Zm9.14-15.76.145 3.404 2.442-1.29-2.587-2.113Zm.288 6.77 2.609 2.017-.154-3.318-2.455 1.3Zm2.904 8.39.138 2.975 2.4-1.119-2.538-1.857Zm-9.888.506 2.723 1.86 2.428.058-5.151-1.918Zm10.026 2.469-2.44-.35 4.986 2.164-2.546-1.814Zm-10.026-2.469-2.445.094 5.168 1.766-2.723-1.86Zm6.84-12.262.144 3.365 2.455-1.3-2.598-2.065Zm.285 6.656 2.618 1.97-.15-3.243-2.468 1.273Zm-4.669 5.656 2.695 1.868 2.436.202-5.13-2.07Z" fill="#DEC95B"/><path d="m69.793 43.853-2.457-.049 5.151 1.918-2.694-1.869Zm4.528-8.946.14 3.29 2.468-1.272-2.608-2.018Zm.276 6.466 2.627 1.924-.145-3.13-2.482 1.206Zm-2.343 2.676 2.666 1.874 2.439.35-5.105-2.224Z" fill="#DEC95B"/><path d="m74.461 38.198.136 3.176 2.482-1.206-2.618-1.97Zm.265 6.196 2.636 1.88-.137-2.977-2.5 1.097Zm-2.468-.344-2.465-.196 5.13 2.07-2.665-1.874Z" fill="#DEC95B"/><path d="m74.593 41.374.13 3.02 2.498-1.097-2.628-1.923Zm.13 3.02-2.47-.344 5.106 2.223-2.637-1.879Z" fill="#DEC95B"/></mask><g mask="url(#j)"><path d="m25.2 57.945 3.068 1.437 1.955-1.054-5.024-.383Z" fill="#DCB900"/><path d="m27.176 56.871 3.046 1.457 1.987-.938-5.033-.519Zm2.012-.957 3.024 1.476 2.015-.822-5.04-.654Z" fill="#DCB900"/><path d="m27.177 56.871-1.978 1.074 5.024.383-3.046-1.457Z" fill="#DCB900"/><path d="m29.184 55.914-2.008.957 5.033.52-3.025-1.477Zm2.039-.839 3.002 1.494 2.04-.704-5.042-.79Z" fill="#DCB900"/><path d="m31.224 55.075-2.037.839 5.04.654-3.003-1.493Zm2.062-.72 2.98 1.51 2.062-.585-5.042-.925Z" fill="#DCB900"/><path d="m33.282 54.355-2.062.72 5.042.79-2.98-1.51Zm-11.25 2.108 3.165 1.482 1.978-1.074-5.144-.408Zm13.333-2.708 2.959 1.525 2.08-.463-5.039-1.062ZM50.018 17.53l.254 35.6 2.419-33.554-2.673-2.046Z" fill="#DCB900"/><path d="m24.031 55.368 3.144 1.504 2.008-.958-5.152-.546Zm11.334-1.612-2.084.599 5.043.926-2.959-1.525Zm2.102-.476 2.937 1.538 2.096-.34-5.033-1.198Zm-11.405 1.11 3.121 1.523 2.037-.839-5.158-.684Zm-2.03.977-2 1.096 5.143.408-3.144-1.504Zm13.435-2.088-2.102.476 5.04 1.062-2.938-1.538Zm2.118-.351 2.915 1.55 2.107-.215-5.022-1.335ZM26.062 54.39l-2.03.977 5.151.546-3.12-1.523Zm2.06-.857 3.098 1.541 2.062-.72-5.16-.821Z" fill="#DCB900"/><path d="m39.589 52.928-2.118.351 5.033 1.199-2.915-1.55Zm-11.463.605-2.06.858 5.158.684-3.099-1.542Zm2.083-.737 3.077 1.559 2.083-.6-5.16-.959Zm11.509-.092 2.894 1.56 2.115-.087-5.01-1.473Zm8.558.426 2.81 1.581-.391-35.136-2.42 33.555Z" fill="#DCB900"/><path d="m41.716 52.704-2.13.224 5.024 1.336-2.894-1.56Zm-11.508.092-2.084.737 5.16.822-3.076-1.559Zm-11.442 2.137 3.268 1.53 2-1.095-5.268-.435Z" fill="#DCB900"/><path d="m32.313 52.182 3.054 1.574 2.102-.477-5.156-1.097Zm14.95-36.763.107 36.077 2.65-33.967-2.757-2.11Zm-3.41 37.19 2.872 1.568 2.12.044-4.992-1.611Zm-23.064 1.207 3.244 1.552 2.031-.977-5.275-.575Zm11.524-1.634-2.105.614 5.16.96-3.055-1.574Zm11.54.428-2.137.094 5.01 1.473-2.873-1.567Zm-9.415-.918 3.031 1.587 2.118-.35-5.15-1.237Zm11.556.955 2.852 1.575 2.12.177-4.972-1.752Zm-23.151.172 3.221 1.572 2.06-.858-5.281-.715Zm-2.054.997-2.023 1.117 5.268.435-3.245-1.552Zm13.649-2.124-2.125.49 5.156 1.097-3.031-1.587Zm11.556.955-2.141-.037 4.993 1.611-2.852-1.574Zm-9.417-1.319 3.01 1.6 2.129-.224-5.14-1.376Zm-13.734 1.49-2.054.998 5.275.575-3.221-1.572Z" fill="#DCB900"/><path d="m24.926 51.942 3.199 1.592 2.084-.737-5.283-.855Zm23.211.878 2.83 1.58 2.118.312-4.948-1.892Zm-11.559-1.49-2.14.363 5.15 1.236-3.01-1.6Z" fill="#DCB900"/><path d="m24.926 51.942-2.082.876 5.28.715-3.198-1.591Zm23.21.878-2.14-.173 4.972 1.752-2.831-1.58Zm-21.104-1.633 3.177 1.61 2.106-.615-5.283-.995Zm11.697-.093 2.988 1.61 2.137-.094-5.125-1.516Zm8.642.402 2.904 1.634-.254-35.6-2.65 33.966Zm30.813-37.941 2.367 2.223-.14-2.614-2.227.391ZM38.73 51.095l-2.15.234 5.138 1.376-2.988-1.61Z" fill="#DCB900"/><path d="m27.032 51.187-2.106.755 5.283.854-3.177-1.609Zm2.129-.63 3.154 1.625 2.124-.49-5.278-1.135Zm15.257-37.316-.049 36.566 2.895-34.388-2.846-2.178Zm-3.531 37.75 2.966 1.619 2.142.037-5.108-1.656Zm9.387 2.14-2.138-.311 4.948 1.892-2.81-1.582Zm1.82-.329 2.79 1.592 2.13-1.072-4.92-.52Z" fill="#DCB900"/><path d="m78.05 10.907.133 2.648 2.227-.39-2.36-2.258Zm.274 5.481 2.375 2.187-.15-2.797-2.225.61ZM29.16 50.557l-2.129.63 5.282.995-3.154-1.625Zm11.726.434-2.158.103 5.125 1.516-2.967-1.62Zm-9.581-.938 3.131 1.64 2.14-.364-5.271-1.276Z" fill="#DCB900"/><path d="m54.25 51.708 2.763 1.614 2.171-.953-4.934-.661Zm-11.2-.686 2.945 1.626 2.141.172-5.087-1.798Zm35.134-37.466.141 2.833 2.225-.61-2.366-2.223ZM31.307 50.053l-2.147.504 5.278 1.136-3.131-1.64Zm47.17-30.675 2.382 2.148-.157-2.95-2.225.802Z" fill="#DCB900"/><path d="m43.05 51.021-2.163-.03 5.108 1.656-2.945-1.626Zm13.399-.288 2.736 1.636 2.208-.832-4.944-.804Zm-2.198.974L52.093 52.8l4.92.52-2.762-1.614Zm-20.782-2.031 3.11 1.652 2.15-.234-5.26-1.418Z" fill="#DCB900"/><path d="m45.21 51.188 2.924 1.631 2.138.31-5.062-1.94Zm-11.744-1.512-2.161.376 5.27 1.276-3.109-1.652Zm44.857-33.288.15 2.989 2.224-.803-2.374-2.186ZM56.446 50.733l-2.198.974 4.934.662-2.736-1.636Zm2.236-.85 2.709 1.654 2.242-.708-4.952-.947Z" fill="#DCB900"/><path d="m78.63 22.494 2.39 2.106-.163-3.075-2.228.969ZM45.211 51.188l-2.163-.167 5.087 1.799-2.924-1.632ZM35.64 49.43l3.087 1.664 2.158-.104-5.245-1.56Zm8.728.376 3.002 1.69-.108-36.077-2.894 34.387Z" fill="#DCB900"/><path d="m58.684 49.883-2.235.85 4.944.805-2.709-1.655ZM75.74 11.258l2.445 2.297-.132-2.648-2.313.351ZM60.954 49.157l2.681 1.672 2.273-.584-4.954-1.088Zm-25.313.274-2.172.245 5.26 1.418-3.087-1.663Zm42.834-30.053.155 3.116 2.227-.969-2.382-2.147Z" fill="#DCB900"/><path d="m78.79 25.707 2.4 2.064-.17-3.17-2.23 1.106Zm-40.97 23.61 3.066 1.674 2.162.03-5.228-1.703Zm9.55 2.179-2.16-.307 5.063 1.941-2.903-1.634Zm1.838-.34 2.883 1.645 2.158-1.094-5.04-.55Zm11.744-2-2.27.727 4.952.946-2.682-1.673Zm14.66-40.58.125 2.682 2.313-.351-2.438-2.332Zm.258 5.552 2.454 2.26-.142-2.833-2.312.573ZM63.253 48.556l2.654 1.689 2.3-.458-4.954-1.231Zm-25.432.762-2.18.112 5.245 1.56-3.065-1.672Z" fill="#DCB900"/><path d="m78.628 22.494.16 3.213 2.231-1.106-2.39-2.107Zm.324 6.491 2.409 2.02-.173-3.234-2.236 1.214ZM51.392 50.04l2.856 1.668 2.199-.973-5.054-.695Zm11.86-1.483-2.3.6 4.954 1.09-2.654-1.69Zm-23.248.785 3.044 1.68 2.163.168-5.207-1.848Z" fill="#DCB900"/><path d="m75.737 11.258.133 2.87 2.313-.573-2.446-2.297ZM65.58 48.084l2.627 1.703 2.323-.328-4.95-1.375Zm10.43-30.927 2.463 2.22-.149-2.99-2.314.77ZM40.004 49.341l-2.184-.023 5.228 1.703-3.044-1.68Zm13.615-.298 2.828 1.69 2.236-.85-5.064-.84Zm-2.225.995-2.185 1.118 5.04.55-2.855-1.668Zm27.395-24.331.164 3.278 2.236-1.214-2.4-2.064Zm.329 6.588 2.418 1.975-.175-3.266-2.243 1.29ZM65.58 48.084l-2.328.472 4.955 1.231-2.627-1.703Zm-23.391 1.419 3.022 1.686 2.159.307-5.181-1.993ZM75.87 14.128l.14 3.03 2.314-.77-2.454-2.26Zm-7.939 33.614 2.599 1.717 2.343-.198-4.942-1.519Zm-14.312 1.301-2.225.995 5.053.696-2.828-1.69Zm2.263-.87 2.8 1.71 2.27-.727-5.07-.984Zm20.275-27.857 2.472 2.178-.156-3.117-2.316.939Z" fill="#DCB900"/><path d="m42.188 49.503-2.184-.162 5.207 1.848-3.023-1.686Zm36.767-20.519.165 3.31 2.243-1.29-2.408-2.02ZM67.933 47.742l-2.351.342 4.95 1.375-2.6-1.717Zm11.352-12.14 2.426 1.93-.174-3.263-2.252 1.334Zm-23.4 12.57-2.264.871 5.063.84-2.8-1.71ZM73.209 8.883l2.528 2.375-.124-2.683-2.404.308Zm-15.03 38.544 2.773 1.73 2.3-.601-5.072-1.129Zm12.123.107 2.571 1.727 2.36-.063-4.931-1.664Zm5.708-30.377.147 3.159 2.316-.939-2.463-2.22Zm.298 6.416 2.481 2.134-.16-3.213-2.321 1.079Z" fill="#DCB900"/><path d="m44.367 49.807-2.18-.304 5.182 1.993-3.002-1.69ZM70.3 47.534l-2.37.209 4.942 1.518-2.571-1.727Zm-24.073 1.921 2.98 1.701 2.185-1.117-5.165-.584Zm32.89-17.16.165 3.308 2.252-1.333-2.417-1.975ZM58.178 47.427l-2.297.745 5.07.985-2.773-1.73Zm21.267-8.553 2.435 1.883-.172-3.225-2.263 1.342ZM73.091 6.165l.116 2.718 2.404-.308-2.52-2.41Zm.24 5.627 2.538 2.336-.133-2.87-2.405.534ZM60.507 46.81l2.744 1.746 2.327-.472-5.071-1.274Z" fill="#DCB900"/><path d="m72.69 47.46 2.543 1.737 2.371.073-4.914-1.81Zm3.468-27.145.15 3.257 2.321-1.079-2.472-2.178Zm.305 6.58 2.49 2.09-.163-3.279-2.327 1.19ZM48.44 48.313l2.953 1.725 2.226-.995-5.179-.73Zm12.07-1.503-2.329.617 5.073 1.129-2.744-1.746Zm12.178.65-2.387.074 4.93 1.664-2.543-1.737Z" fill="#DCB900"/><path d="m79.282 35.603.163 3.27 2.263-1.34-2.426-1.93Zm-6.075-26.72.124 2.908 2.405-.533-2.529-2.375Zm-10.345 37.44 2.716 1.76 2.352-.34-5.068-1.42Zm16.743-4.253 2.443 1.839-.168-3.152-2.275 1.313Zm-6.143-27.209 2.547 2.296-.14-3.029-2.407.733ZM50.693 47.295l2.925 1.748 2.263-.87-5.188-.878Zm-2.253 1.018-2.213 1.142 5.165.583-2.953-1.725Z" fill="#DCB900"/><path d="m75.089 47.527 2.515 1.744 2.38.213-4.895-1.957Zm1.22-23.954.154 3.323 2.327-1.189-2.482-2.134Zm.31 6.68 2.5 2.042-.166-3.31-2.335 1.268Zm-13.755 16.07-2.355.487 5.071 1.274-2.716-1.761Zm12.225 1.204-2.4-.066 4.915 1.81-2.515-1.744Zm4.358-8.653.16 3.197 2.275-1.313-2.435-1.884Zm-6.114-27.082.131 3.07 2.407-.733-2.538-2.337Zm-8.09 34.176 2.689 1.775 2.37-.209-5.058-1.566Zm-14.548 1.328-2.254 1.018 5.179.73-2.925-1.748Z" fill="#DCB900"/><path d="m79.762 45.154 2.452 1.795-.162-3.04-2.29 1.245Zm-26.774 1.25 2.896 1.768 2.298-.745-5.194-1.024Zm20.614-28.341 2.557 2.253-.146-3.159-2.41.906Zm2.862 8.833.156 3.356 2.335-1.267-2.49-2.09Zm1.034 20.838 2.487 1.75 2.383.355-4.87-2.105Zm-12.253-1.767-2.38.355 5.068 1.42-2.688-1.775Zm11.53-12.36 2.51 1.996-.165-3.308-2.345 1.312Z" fill="#DCB900"/><path d="m52.987 46.403-2.292.892 5.188.877-2.896-1.769Z" fill="#DCB900"/><path d="m55.314 45.639 2.868 1.788 2.328-.617-5.196-1.172Zm24.294-3.569.154 3.084 2.29-1.245-2.444-1.839Zm.3 6.016 2.46 1.753-.154-2.89-2.306 1.137Zm-12.264-2.34 2.66 1.788 2.387-.073-5.047-1.714Zm5.822-30.885.136 3.202 2.41-.906-2.546-2.296Zm4.032 32.873-2.407-.208 4.894 1.957-2.487-1.749Zm-3.755-26.37 2.567 2.208-.15-3.256-2.417 1.049Zm-6.099 24.383-2.399.22 5.06 1.567-2.66-1.787Zm8.976-15.495.155 3.355 2.345-1.312-2.5-2.043ZM55.314 45.64l-2.326.764 5.194 1.024-2.868-1.788Zm21.615-8.714 2.52 1.949-.164-3.271-2.356 1.322Zm-19.258 8.078 2.84 1.807 2.355-.488-5.195-1.319Zm22.091.151.146 2.932 2.306-1.137-2.452-1.795Zm-9.702.51 2.631 1.797 2.4.066-5.03-1.863Zm3.542-27.601.141 3.302 2.416-1.05-2.557-2.252Zm6.306 30.023-2.41-.352 4.87 2.105-2.46-1.753Zm-6.021-23.352 2.577 2.162-.154-3.324-2.423 1.162Zm-16.216 20.27-2.357.635 5.196 1.17-2.839-1.806Zm12.39.66-2.417.083 5.047 1.714-2.63-1.797Zm6.714-12.057.154 3.318 2.356-1.322-2.51-1.996ZM60.055 44.5l2.81 1.822 2.38-.355-5.19-1.467Zm17.024-4.333 2.53 1.903-.16-3.197-2.37 1.294Zm-4.591 5.555 2.603 1.804 2.407.208-5.01-2.012Zm1.255-24.357.144 3.37 2.423-1.163-2.567-2.207Zm.29 6.773 2.587 2.114-.156-3.356-2.432 1.242ZM60.054 44.5l-2.384.503 5.195 1.32-2.81-1.823Zm12.433 1.222-2.428-.058 5.03 1.862-2.602-1.804Z" fill="#DCB900"/><path d="m76.928 36.925.15 3.242 2.37-1.293-2.52-1.95ZM62.463 44.13l2.781 1.837 2.4-.22-5.181-1.617Zm14.76-.833 2.538 1.857-.154-3.084-2.383 1.227Zm-3.337-18.563.146 3.404 2.431-1.242-2.577-2.162Zm1.037 21.19 2.574 1.81 2.41.352-4.984-2.162Zm-12.46-1.794-2.408.37 5.19 1.467-2.782-1.837Z" fill="#DCB900"/><path d="m74.175 31.542 2.598 2.065-.156-3.355-2.442 1.29Zm2.902 8.626.145 3.13 2.383-1.228-2.528-1.902Zm.283 6.105 2.546 1.814-.147-2.933-2.4 1.119Zm-12.47-2.375 2.752 1.85 2.415-.084-5.168-1.766Zm10.03 2.026-2.435-.202 5.01 2.012-2.574-1.81Zm-10.03-2.026-2.43.232 5.182 1.617-2.753-1.85Zm9.14-15.76.145 3.404 2.442-1.29-2.587-2.113Zm.288 6.77 2.609 2.017-.154-3.318-2.455 1.3Zm2.904 8.39.138 2.975 2.4-1.119-2.538-1.857Zm-9.888.506 2.723 1.86 2.428.058-5.151-1.918Zm10.026 2.469-2.44-.35 4.986 2.164-2.546-1.814Zm-10.026-2.469-2.445.094 5.168 1.766-2.723-1.86Zm6.84-12.262.144 3.365 2.455-1.3-2.598-2.065Zm.285 6.656 2.618 1.97-.15-3.243-2.468 1.273Zm-4.669 5.656 2.695 1.868 2.436.202-5.13-2.07Z" fill="#DCB900"/><path d="m69.793 43.853-2.457-.049 5.151 1.918-2.694-1.869Zm4.528-8.946.14 3.29 2.468-1.272-2.608-2.018Zm.276 6.466 2.627 1.924-.145-3.13-2.482 1.206Zm-2.343 2.676 2.666 1.874 2.439.35-5.105-2.224Z" fill="#DCB900"/><path d="m74.461 38.198.136 3.176 2.482-1.206-2.618-1.97Zm.265 6.196 2.636 1.88-.137-2.977-2.5 1.097Zm-2.468-.344-2.465-.196 5.13 2.07-2.665-1.874Z" fill="#DCB900"/><path d="m74.593 41.374.13 3.02 2.498-1.097-2.628-1.923Zm.13 3.02-2.47-.344 5.106 2.223-2.637-1.879Z" fill="#DCB900"/><ellipse cx="56.065" cy="53.836" rx="60.007" ry="10.616" transform="rotate(-6.318 56.065 53.836)" fill="url(#k)" fill-opacity=".5"/><ellipse cx="81.712" cy="28.991" rx="37.202" ry="10.616" transform="rotate(90 81.712 28.991)" fill="url(#l)" fill-opacity=".5"/></g><path d="M43.91 13.714v35.662c-12.04-1.652-19.79 2.284-24.238 4.544l-.393.2c.113-5.155.385-11.4.663-17.797.24-5.517.486-11.148.638-16.29.233-.133.505-.297.817-.484 3.356-2.017 11.24-6.754 22.513-5.835Zm30.375 30.312c-12.601-2.059-20.38 1.44-26.436 4.165-.39.175-.771.347-1.147.514V13.01c2.602-1.585 13.04-7.586 25.896-6.354.02 5.652.433 12.224.844 18.776v.011c.409 6.509.815 12.998.843 18.584Z" fill="url(#m)" stroke="url(#n)"/><defs><linearGradient id="d" x1="64.026" y1="76.783" x2="17.731" y2="14.945" gradientUnits="userSpaceOnUse"><stop stop-color="#DCECF3"/><stop offset="1" stop-color="#fff"/></linearGradient><linearGradient id="e" x1="60.847" y1="72.876" x2="20.175" y2="18.729" gradientUnits="userSpaceOnUse"><stop stop-color="#DCECF3"/><stop offset="1" stop-color="#fff"/></linearGradient><linearGradient id="f" x1="61.713" y1="72.153" x2="13.912" y2="17.108" gradientUnits="userSpaceOnUse"><stop stop-color="#DCB900"/><stop offset="1" stop-color="#FFF6C7"/></linearGradient><linearGradient id="g" x1="64.026" y1="76.783" x2="17.731" y2="14.945" gradientUnits="userSpaceOnUse"><stop stop-color="#DCECF3"/><stop offset="1" stop-color="#fff"/></linearGradient><linearGradient id="m" x1="40.576" y1="15.431" x2="55.852" y2="72.532" gradientUnits="userSpaceOnUse"><stop stop-color="#FFEF99"/><stop offset="1" stop-color="#F0D33D"/></linearGradient><linearGradient id="n" x1="79.947" y1="53.877" x2="32.391" y2="-23.524" gradientUnits="userSpaceOnUse"><stop stop-color="#FFF5BF"/><stop offset="1" stop-color="#DFBC00"/></linearGradient><radialGradient id="b" cx="0" cy="0" r="1" gradientUnits="userSpaceOnUse" gradientTransform="matrix(0 14.3605 -42.9886 0 37.19 92.936)"><stop stop-color="#fff"/><stop offset="1" stop-color="#CCCEF1" stop-opacity="0"/></radialGradient><radialGradient id="c" cx="0" cy="0" r="1" gradientUnits="userSpaceOnUse" gradientTransform="matrix(0 65.8057 -14.55 0 84.859 29.496)"><stop stop-color="#fff"/><stop offset="1" stop-color="#CCCEF1" stop-opacity="0"/></radialGradient><radialGradient id="k" cx="0" cy="0" r="1" gradientUnits="userSpaceOnUse" gradientTransform="matrix(0 10.6159 -60.0072 0 56.065 53.836)"><stop stop-color="#FFFDEB"/><stop offset="1" stop-color="#FEFFBC" stop-opacity="0"/></radialGradient><radialGradient id="l" cx="0" cy="0" r="1" gradientUnits="userSpaceOnUse" gradientTransform="matrix(0 10.6159 -37.2015 0 81.712 28.991)"><stop stop-color="#FFFDEB"/><stop offset="1" stop-color="#FEFFBC" stop-opacity="0"/></radialGradient><filter id="h" x="14.766" y="2.001" width="83.602" height="73.381" filterUnits="userSpaceOnUse" color-interpolation-filters="sRGB"><feFlood flood-opacity="0" result="BackgroundImageFix"/><feColorMatrix in="SourceAlpha" values="0 0 0 0 0 0 0 0 0 0 0 0 0 0 0 0 0 0 127 0" result="hardAlpha"/><feOffset dx="6" dy="6"/><feGaussianBlur stdDeviation="5"/><feColorMatrix values="0 0 0 0 0.593559 0 0 0 0 0.636508 0 0 0 0 0.745833 0 0 0 0.53 0"/><feBlend in2="BackgroundImageFix" result="effect1_dropShadow_1150_653443"/><feBlend in="SourceGraphic" in2="effect1_dropShadow_1150_653443" result="shape"/></filter></defs></svg>